<?xml version="1.0" encoding="utf-8" standalone="no"?>
<!DOCTYPE svg PUBLIC "-//W3C//DTD SVG 1.1//EN"
  "http://www.w3.org/Graphics/SVG/1.1/DTD/svg11.dtd">
<svg xmlns:xlink="http://www.w3.org/1999/xlink" width="720pt" height="144pt" viewBox="0 0 720 144" xmlns="http://www.w3.org/2000/svg" version="1.1">
 <metadata>
  <rdf:RDF xmlns:dc="http://purl.org/dc/elements/1.1/" xmlns:cc="http://creativecommons.org/ns#" xmlns:rdf="http://www.w3.org/1999/02/22-rdf-syntax-ns#">
   <cc:Work>
    <dc:type rdf:resource="http://purl.org/dc/dcmitype/StillImage"/>
    <dc:date>2024-09-02T13:04:20.198302</dc:date>
    <dc:format>image/svg+xml</dc:format>
    <dc:creator>
     <cc:Agent>
      <dc:title>Matplotlib v3.8.0, https://matplotlib.org/</dc:title>
     </cc:Agent>
    </dc:creator>
   </cc:Work>
  </rdf:RDF>
 </metadata>
 <defs>
  <style type="text/css">*{stroke-linejoin: round; stroke-linecap: butt}</style>
 </defs>
 <g id="figure_1">
  <g id="patch_1">
   <path d="M 0 144 
L 720 144 
L 720 0 
L 0 0 
z
" style="fill: #ffffff"/>
  </g>
  <g id="axes_1">
   <g id="patch_2">
    <path d="M 90 67.68 
L 648 67.68 
L 648 17.28 
L 90 17.28 
z
" style="fill: #ffffff"/>
   </g>
   <g id="matplotlib.axis_1">
    <g id="xtick_1">
     <g id="line2d_1">
      <defs>
       <path id="mdbdea5b852" d="M 0 0 
L 0 6 
" style="stroke: #262626; stroke-width: 1.25"/>
      </defs>
      <g>
       <use xlink:href="#mdbdea5b852" x="94.536585" y="67.68" style="fill: #262626; stroke: #262626; stroke-width: 1.25"/>
      </g>
     </g>
     <g id="text_1">
      <!-- 0 -->
      <g style="fill: #262626" transform="translate(91.47807 85.053594) scale(0.11 -0.11)">
       <defs>
        <path id="ArialMT-30" d="M 266 2259 
Q 266 3072 433 3567 
Q 600 4063 929 4331 
Q 1259 4600 1759 4600 
Q 2128 4600 2406 4451 
Q 2684 4303 2865 4023 
Q 3047 3744 3150 3342 
Q 3253 2941 3253 2259 
Q 3253 1453 3087 958 
Q 2922 463 2592 192 
Q 2263 -78 1759 -78 
Q 1097 -78 719 397 
Q 266 969 266 2259 
z
M 844 2259 
Q 844 1131 1108 757 
Q 1372 384 1759 384 
Q 2147 384 2411 759 
Q 2675 1134 2675 2259 
Q 2675 3391 2411 3762 
Q 2147 4134 1753 4134 
Q 1366 4134 1134 3806 
Q 844 3388 844 2259 
z
" transform="scale(0.015625)"/>
       </defs>
       <use xlink:href="#ArialMT-30"/>
      </g>
     </g>
    </g>
    <g id="xtick_2">
     <g id="line2d_2">
      <g>
       <use xlink:href="#mdbdea5b852" x="185.268293" y="67.68" style="fill: #262626; stroke: #262626; stroke-width: 1.25"/>
      </g>
     </g>
     <g id="text_2">
      <!-- 20 -->
      <g style="fill: #262626" transform="translate(179.151261 85.053594) scale(0.11 -0.11)">
       <defs>
        <path id="ArialMT-32" d="M 3222 541 
L 3222 0 
L 194 0 
Q 188 203 259 391 
Q 375 700 629 1000 
Q 884 1300 1366 1694 
Q 2113 2306 2375 2664 
Q 2638 3022 2638 3341 
Q 2638 3675 2398 3904 
Q 2159 4134 1775 4134 
Q 1369 4134 1125 3890 
Q 881 3647 878 3216 
L 300 3275 
Q 359 3922 746 4261 
Q 1134 4600 1788 4600 
Q 2447 4600 2831 4234 
Q 3216 3869 3216 3328 
Q 3216 3053 3103 2787 
Q 2991 2522 2730 2228 
Q 2469 1934 1863 1422 
Q 1356 997 1212 845 
Q 1069 694 975 541 
L 3222 541 
z
" transform="scale(0.015625)"/>
       </defs>
       <use xlink:href="#ArialMT-32"/>
       <use xlink:href="#ArialMT-30" x="55.615234"/>
      </g>
     </g>
    </g>
    <g id="xtick_3">
     <g id="line2d_3">
      <g>
       <use xlink:href="#mdbdea5b852" x="276" y="67.68" style="fill: #262626; stroke: #262626; stroke-width: 1.25"/>
      </g>
     </g>
     <g id="text_3">
      <!-- 40 -->
      <g style="fill: #262626" transform="translate(269.882969 85.053594) scale(0.11 -0.11)">
       <defs>
        <path id="ArialMT-34" d="M 2069 0 
L 2069 1097 
L 81 1097 
L 81 1613 
L 2172 4581 
L 2631 4581 
L 2631 1613 
L 3250 1613 
L 3250 1097 
L 2631 1097 
L 2631 0 
L 2069 0 
z
M 2069 1613 
L 2069 3678 
L 634 1613 
L 2069 1613 
z
" transform="scale(0.015625)"/>
       </defs>
       <use xlink:href="#ArialMT-34"/>
       <use xlink:href="#ArialMT-30" x="55.615234"/>
      </g>
     </g>
    </g>
    <g id="xtick_4">
     <g id="line2d_4">
      <g>
       <use xlink:href="#mdbdea5b852" x="366.731707" y="67.68" style="fill: #262626; stroke: #262626; stroke-width: 1.25"/>
      </g>
     </g>
     <g id="text_4">
      <!-- 60 -->
      <g style="fill: #262626" transform="translate(360.614676 85.053594) scale(0.11 -0.11)">
       <defs>
        <path id="ArialMT-36" d="M 3184 3459 
L 2625 3416 
Q 2550 3747 2413 3897 
Q 2184 4138 1850 4138 
Q 1581 4138 1378 3988 
Q 1113 3794 959 3422 
Q 806 3050 800 2363 
Q 1003 2672 1297 2822 
Q 1591 2972 1913 2972 
Q 2475 2972 2870 2558 
Q 3266 2144 3266 1488 
Q 3266 1056 3080 686 
Q 2894 316 2569 119 
Q 2244 -78 1831 -78 
Q 1128 -78 684 439 
Q 241 956 241 2144 
Q 241 3472 731 4075 
Q 1159 4600 1884 4600 
Q 2425 4600 2770 4297 
Q 3116 3994 3184 3459 
z
M 888 1484 
Q 888 1194 1011 928 
Q 1134 663 1356 523 
Q 1578 384 1822 384 
Q 2178 384 2434 671 
Q 2691 959 2691 1453 
Q 2691 1928 2437 2201 
Q 2184 2475 1800 2475 
Q 1419 2475 1153 2201 
Q 888 1928 888 1484 
z
" transform="scale(0.015625)"/>
       </defs>
       <use xlink:href="#ArialMT-36"/>
       <use xlink:href="#ArialMT-30" x="55.615234"/>
      </g>
     </g>
    </g>
    <g id="xtick_5">
     <g id="line2d_5">
      <g>
       <use xlink:href="#mdbdea5b852" x="457.463415" y="67.68" style="fill: #262626; stroke: #262626; stroke-width: 1.25"/>
      </g>
     </g>
     <g id="text_5">
      <!-- 80 -->
      <g style="fill: #262626" transform="translate(451.346383 85.053594) scale(0.11 -0.11)">
       <defs>
        <path id="ArialMT-38" d="M 1131 2484 
Q 781 2613 612 2850 
Q 444 3088 444 3419 
Q 444 3919 803 4259 
Q 1163 4600 1759 4600 
Q 2359 4600 2725 4251 
Q 3091 3903 3091 3403 
Q 3091 3084 2923 2848 
Q 2756 2613 2416 2484 
Q 2838 2347 3058 2040 
Q 3278 1734 3278 1309 
Q 3278 722 2862 322 
Q 2447 -78 1769 -78 
Q 1091 -78 675 323 
Q 259 725 259 1325 
Q 259 1772 486 2073 
Q 713 2375 1131 2484 
z
M 1019 3438 
Q 1019 3113 1228 2906 
Q 1438 2700 1772 2700 
Q 2097 2700 2305 2904 
Q 2513 3109 2513 3406 
Q 2513 3716 2298 3927 
Q 2084 4138 1766 4138 
Q 1444 4138 1231 3931 
Q 1019 3725 1019 3438 
z
M 838 1322 
Q 838 1081 952 856 
Q 1066 631 1291 507 
Q 1516 384 1775 384 
Q 2178 384 2440 643 
Q 2703 903 2703 1303 
Q 2703 1709 2433 1975 
Q 2163 2241 1756 2241 
Q 1359 2241 1098 1978 
Q 838 1716 838 1322 
z
" transform="scale(0.015625)"/>
       </defs>
       <use xlink:href="#ArialMT-38"/>
       <use xlink:href="#ArialMT-30" x="55.615234"/>
      </g>
     </g>
    </g>
    <g id="xtick_6">
     <g id="line2d_6">
      <g>
       <use xlink:href="#mdbdea5b852" x="548.195122" y="67.68" style="fill: #262626; stroke: #262626; stroke-width: 1.25"/>
      </g>
     </g>
     <g id="text_6">
      <!-- 100 -->
      <g style="fill: #262626" transform="translate(539.019575 85.053594) scale(0.11 -0.11)">
       <defs>
        <path id="ArialMT-31" d="M 2384 0 
L 1822 0 
L 1822 3584 
Q 1619 3391 1289 3197 
Q 959 3003 697 2906 
L 697 3450 
Q 1169 3672 1522 3987 
Q 1875 4303 2022 4600 
L 2384 4600 
L 2384 0 
z
" transform="scale(0.015625)"/>
       </defs>
       <use xlink:href="#ArialMT-31"/>
       <use xlink:href="#ArialMT-30" x="55.615234"/>
       <use xlink:href="#ArialMT-30" x="111.230469"/>
      </g>
     </g>
    </g>
    <g id="xtick_7">
     <g id="line2d_7">
      <g>
       <use xlink:href="#mdbdea5b852" x="638.926829" y="67.68" style="fill: #262626; stroke: #262626; stroke-width: 1.25"/>
      </g>
     </g>
     <g id="text_7">
      <!-- 120 -->
      <g style="fill: #262626" transform="translate(629.751282 85.053594) scale(0.11 -0.11)">
       <use xlink:href="#ArialMT-31"/>
       <use xlink:href="#ArialMT-32" x="55.615234"/>
       <use xlink:href="#ArialMT-30" x="111.230469"/>
      </g>
     </g>
    </g>
   </g>
   <g id="matplotlib.axis_2">
    <g id="text_8">
     <!-- State 1 -->
     <g style="fill: #262626" transform="translate(40.9875 40.095) scale(0.12 -0.12)">
      <defs>
       <path id="ArialMT-53" d="M 288 1472 
L 859 1522 
Q 900 1178 1048 958 
Q 1197 738 1509 602 
Q 1822 466 2213 466 
Q 2559 466 2825 569 
Q 3091 672 3220 851 
Q 3350 1031 3350 1244 
Q 3350 1459 3225 1620 
Q 3100 1781 2813 1891 
Q 2628 1963 1997 2114 
Q 1366 2266 1113 2400 
Q 784 2572 623 2826 
Q 463 3081 463 3397 
Q 463 3744 659 4045 
Q 856 4347 1234 4503 
Q 1613 4659 2075 4659 
Q 2584 4659 2973 4495 
Q 3363 4331 3572 4012 
Q 3781 3694 3797 3291 
L 3216 3247 
Q 3169 3681 2898 3903 
Q 2628 4125 2100 4125 
Q 1550 4125 1298 3923 
Q 1047 3722 1047 3438 
Q 1047 3191 1225 3031 
Q 1400 2872 2139 2705 
Q 2878 2538 3153 2413 
Q 3553 2228 3743 1945 
Q 3934 1663 3934 1294 
Q 3934 928 3725 604 
Q 3516 281 3123 101 
Q 2731 -78 2241 -78 
Q 1619 -78 1198 103 
Q 778 284 539 648 
Q 300 1013 288 1472 
z
" transform="scale(0.015625)"/>
       <path id="ArialMT-74" d="M 1650 503 
L 1731 6 
Q 1494 -44 1306 -44 
Q 1000 -44 831 53 
Q 663 150 594 308 
Q 525 466 525 972 
L 525 2881 
L 113 2881 
L 113 3319 
L 525 3319 
L 525 4141 
L 1084 4478 
L 1084 3319 
L 1650 3319 
L 1650 2881 
L 1084 2881 
L 1084 941 
Q 1084 700 1114 631 
Q 1144 563 1211 522 
Q 1278 481 1403 481 
Q 1497 481 1650 503 
z
" transform="scale(0.015625)"/>
       <path id="ArialMT-61" d="M 2588 409 
Q 2275 144 1986 34 
Q 1697 -75 1366 -75 
Q 819 -75 525 192 
Q 231 459 231 875 
Q 231 1119 342 1320 
Q 453 1522 633 1644 
Q 813 1766 1038 1828 
Q 1203 1872 1538 1913 
Q 2219 1994 2541 2106 
Q 2544 2222 2544 2253 
Q 2544 2597 2384 2738 
Q 2169 2928 1744 2928 
Q 1347 2928 1158 2789 
Q 969 2650 878 2297 
L 328 2372 
Q 403 2725 575 2942 
Q 747 3159 1072 3276 
Q 1397 3394 1825 3394 
Q 2250 3394 2515 3294 
Q 2781 3194 2906 3042 
Q 3031 2891 3081 2659 
Q 3109 2516 3109 2141 
L 3109 1391 
Q 3109 606 3145 398 
Q 3181 191 3288 0 
L 2700 0 
Q 2613 175 2588 409 
z
M 2541 1666 
Q 2234 1541 1622 1453 
Q 1275 1403 1131 1340 
Q 988 1278 909 1158 
Q 831 1038 831 891 
Q 831 666 1001 516 
Q 1172 366 1500 366 
Q 1825 366 2078 508 
Q 2331 650 2450 897 
Q 2541 1088 2541 1459 
L 2541 1666 
z
" transform="scale(0.015625)"/>
       <path id="ArialMT-65" d="M 2694 1069 
L 3275 997 
Q 3138 488 2766 206 
Q 2394 -75 1816 -75 
Q 1088 -75 661 373 
Q 234 822 234 1631 
Q 234 2469 665 2931 
Q 1097 3394 1784 3394 
Q 2450 3394 2872 2941 
Q 3294 2488 3294 1666 
Q 3294 1616 3291 1516 
L 816 1516 
Q 847 969 1125 678 
Q 1403 388 1819 388 
Q 2128 388 2347 550 
Q 2566 713 2694 1069 
z
M 847 1978 
L 2700 1978 
Q 2663 2397 2488 2606 
Q 2219 2931 1791 2931 
Q 1403 2931 1139 2672 
Q 875 2413 847 1978 
z
" transform="scale(0.015625)"/>
       <path id="ArialMT-20" transform="scale(0.015625)"/>
      </defs>
      <use xlink:href="#ArialMT-53"/>
      <use xlink:href="#ArialMT-74" x="66.699219"/>
      <use xlink:href="#ArialMT-61" x="94.482422"/>
      <use xlink:href="#ArialMT-74" x="150.097656"/>
      <use xlink:href="#ArialMT-65" x="177.880859"/>
      <use xlink:href="#ArialMT-20" x="233.496094"/>
      <use xlink:href="#ArialMT-31" x="261.279297"/>
     </g>
    </g>
   </g>
   <g id="PolyCollection_1">
    <defs>
     <path id="m28b541e5a3" d="M 94.536585 -78.610909 
L 94.536585 -78.610909 
L 99.073171 -78.610909 
L 103.609756 -78.610909 
L 108.146341 -78.610909 
L 112.682927 -78.610909 
L 117.219512 -78.610909 
L 121.756098 -78.610909 
L 126.292683 -78.610909 
L 130.829268 -124.429091 
L 135.365854 -124.429091 
L 139.902439 -124.429091 
L 144.439024 -124.429091 
L 148.97561 -78.610909 
L 153.512195 -78.610909 
L 158.04878 -78.610909 
L 162.585366 -78.610909 
L 167.121951 -124.429091 
L 171.658537 -124.429091 
L 176.195122 -124.429091 
L 180.731707 -124.429091 
L 185.268293 -124.429091 
L 189.804878 -124.429091 
L 194.341463 -124.429091 
L 198.878049 -124.429091 
L 203.414634 -78.610909 
L 207.95122 -78.610909 
L 212.487805 -124.429091 
L 217.02439 -124.429091 
L 221.560976 -124.429091 
L 226.097561 -124.429091 
L 230.634146 -78.610909 
L 235.170732 -78.610909 
L 239.707317 -78.610909 
L 244.243902 -124.429091 
L 248.780488 -124.429091 
L 253.317073 -78.610909 
L 257.853659 -78.610909 
L 262.390244 -78.610909 
L 266.926829 -78.610909 
L 271.463415 -124.429091 
L 276 -124.429091 
L 280.536585 -124.429091 
L 285.073171 -124.429091 
L 289.609756 -124.429091 
L 294.146341 -124.429091 
L 298.682927 -124.429091 
L 303.219512 -124.429091 
L 307.756098 -124.429091 
L 312.292683 -124.429091 
L 316.829268 -124.429091 
L 321.365854 -78.610909 
L 325.902439 -78.610909 
L 330.439024 -78.610909 
L 334.97561 -78.610909 
L 339.512195 -78.610909 
L 344.04878 -78.610909 
L 348.585366 -78.610909 
L 353.121951 -78.610909 
L 357.658537 -78.610909 
L 362.195122 -78.610909 
L 366.731707 -78.610909 
L 371.268293 -78.610909 
L 375.804878 -78.610909 
L 380.341463 -78.610909 
L 384.878049 -78.610909 
L 389.414634 -78.610909 
L 393.95122 -78.610909 
L 398.487805 -78.610909 
L 403.02439 -124.429091 
L 407.560976 -78.610909 
L 412.097561 -78.610909 
L 416.634146 -78.610909 
L 421.170732 -78.610909 
L 425.707317 -78.610909 
L 430.243902 -78.610909 
L 434.780488 -78.610909 
L 439.317073 -78.610909 
L 443.853659 -78.610909 
L 448.390244 -78.610909 
L 452.926829 -78.610909 
L 457.463415 -78.610909 
L 462 -78.610909 
L 466.536585 -78.610909 
L 471.073171 -78.610909 
L 475.609756 -78.610909 
L 480.146341 -78.610909 
L 484.682927 -78.610909 
L 489.219512 -78.610909 
L 493.756098 -78.610909 
L 498.292683 -78.610909 
L 502.829268 -78.610909 
L 507.365854 -78.610909 
L 511.902439 -78.610909 
L 516.439024 -78.610909 
L 520.97561 -78.610909 
L 525.512195 -78.610909 
L 530.04878 -78.610909 
L 534.585366 -78.610909 
L 539.121951 -78.610909 
L 543.658537 -78.610909 
L 548.195122 -78.610909 
L 552.731707 -78.610909 
L 557.268293 -78.610909 
L 561.804878 -78.610909 
L 566.341463 -78.610909 
L 570.878049 -78.610909 
L 575.414634 -124.429091 
L 579.95122 -124.429091 
L 584.487805 -78.610909 
L 589.02439 -78.610909 
L 593.560976 -78.610909 
L 598.097561 -78.610909 
L 602.634146 -78.610909 
L 607.170732 -78.610909 
L 611.707317 -78.610909 
L 616.243902 -78.610909 
L 620.780488 -78.610909 
L 625.317073 -78.610909 
L 629.853659 -78.610909 
L 634.390244 -78.610909 
L 638.926829 -78.610909 
L 638.926829 -78.610909 
L 638.926829 -78.610909 
L 634.390244 -78.610909 
L 629.853659 -78.610909 
L 625.317073 -78.610909 
L 620.780488 -78.610909 
L 616.243902 -78.610909 
L 611.707317 -78.610909 
L 607.170732 -78.610909 
L 602.634146 -78.610909 
L 598.097561 -78.610909 
L 593.560976 -78.610909 
L 589.02439 -78.610909 
L 584.487805 -78.610909 
L 579.95122 -78.610909 
L 575.414634 -78.610909 
L 570.878049 -78.610909 
L 566.341463 -78.610909 
L 561.804878 -78.610909 
L 557.268293 -78.610909 
L 552.731707 -78.610909 
L 548.195122 -78.610909 
L 543.658537 -78.610909 
L 539.121951 -78.610909 
L 534.585366 -78.610909 
L 530.04878 -78.610909 
L 525.512195 -78.610909 
L 520.97561 -78.610909 
L 516.439024 -78.610909 
L 511.902439 -78.610909 
L 507.365854 -78.610909 
L 502.829268 -78.610909 
L 498.292683 -78.610909 
L 493.756098 -78.610909 
L 489.219512 -78.610909 
L 484.682927 -78.610909 
L 480.146341 -78.610909 
L 475.609756 -78.610909 
L 471.073171 -78.610909 
L 466.536585 -78.610909 
L 462 -78.610909 
L 457.463415 -78.610909 
L 452.926829 -78.610909 
L 448.390244 -78.610909 
L 443.853659 -78.610909 
L 439.317073 -78.610909 
L 434.780488 -78.610909 
L 430.243902 -78.610909 
L 425.707317 -78.610909 
L 421.170732 -78.610909 
L 416.634146 -78.610909 
L 412.097561 -78.610909 
L 407.560976 -78.610909 
L 403.02439 -78.610909 
L 398.487805 -78.610909 
L 393.95122 -78.610909 
L 389.414634 -78.610909 
L 384.878049 -78.610909 
L 380.341463 -78.610909 
L 375.804878 -78.610909 
L 371.268293 -78.610909 
L 366.731707 -78.610909 
L 362.195122 -78.610909 
L 357.658537 -78.610909 
L 353.121951 -78.610909 
L 348.585366 -78.610909 
L 344.04878 -78.610909 
L 339.512195 -78.610909 
L 334.97561 -78.610909 
L 330.439024 -78.610909 
L 325.902439 -78.610909 
L 321.365854 -78.610909 
L 316.829268 -78.610909 
L 312.292683 -78.610909 
L 307.756098 -78.610909 
L 303.219512 -78.610909 
L 298.682927 -78.610909 
L 294.146341 -78.610909 
L 289.609756 -78.610909 
L 285.073171 -78.610909 
L 280.536585 -78.610909 
L 276 -78.610909 
L 271.463415 -78.610909 
L 266.926829 -78.610909 
L 262.390244 -78.610909 
L 257.853659 -78.610909 
L 253.317073 -78.610909 
L 248.780488 -78.610909 
L 244.243902 -78.610909 
L 239.707317 -78.610909 
L 235.170732 -78.610909 
L 230.634146 -78.610909 
L 226.097561 -78.610909 
L 221.560976 -78.610909 
L 217.02439 -78.610909 
L 212.487805 -78.610909 
L 207.95122 -78.610909 
L 203.414634 -78.610909 
L 198.878049 -78.610909 
L 194.341463 -78.610909 
L 189.804878 -78.610909 
L 185.268293 -78.610909 
L 180.731707 -78.610909 
L 176.195122 -78.610909 
L 171.658537 -78.610909 
L 167.121951 -78.610909 
L 162.585366 -78.610909 
L 158.04878 -78.610909 
L 153.512195 -78.610909 
L 148.97561 -78.610909 
L 144.439024 -78.610909 
L 139.902439 -78.610909 
L 135.365854 -78.610909 
L 130.829268 -78.610909 
L 126.292683 -78.610909 
L 121.756098 -78.610909 
L 117.219512 -78.610909 
L 112.682927 -78.610909 
L 108.146341 -78.610909 
L 103.609756 -78.610909 
L 99.073171 -78.610909 
L 94.536585 -78.610909 
z
" style="stroke: #d55e00; stroke-opacity: 0.3"/>
    </defs>
    <g clip-path="url(#p3260a4c8e1)">
     <use xlink:href="#m28b541e5a3" x="0" y="144" style="fill: #d55e00; fill-opacity: 0.3; stroke: #d55e00; stroke-opacity: 0.3"/>
    </g>
   </g>
   <g id="line2d_8">
    <path d="M 94.536585 65.389091 
L 99.073171 65.389091 
L 103.609756 65.389091 
L 108.146341 65.389091 
L 112.682927 65.389091 
L 117.219512 65.389091 
L 121.756098 65.389091 
L 126.292683 65.389091 
L 130.829268 19.570909 
L 135.365854 19.570909 
L 139.902439 19.570909 
L 144.439024 19.570909 
L 148.97561 65.389091 
L 153.512195 65.389091 
L 158.04878 65.389091 
L 162.585366 65.389091 
L 167.121951 19.570909 
L 171.658537 19.570909 
L 176.195122 19.570909 
L 180.731707 19.570909 
L 185.268293 19.570909 
L 189.804878 19.570909 
L 194.341463 19.570909 
L 198.878049 19.570909 
L 203.414634 65.389091 
L 207.95122 65.389091 
L 212.487805 19.570909 
L 217.02439 19.570909 
L 221.560976 19.570909 
L 226.097561 19.570909 
L 230.634146 65.389091 
L 235.170732 65.389091 
L 239.707317 65.389091 
L 244.243902 19.570909 
L 248.780488 19.570909 
L 253.317073 65.389091 
L 257.853659 65.389091 
L 262.390244 65.389091 
L 266.926829 65.389091 
L 271.463415 19.570909 
L 276 19.570909 
L 280.536585 19.570909 
L 285.073171 19.570909 
L 289.609756 19.570909 
L 294.146341 19.570909 
L 298.682927 19.570909 
L 303.219512 19.570909 
L 307.756098 19.570909 
L 312.292683 19.570909 
L 316.829268 19.570909 
L 321.365854 65.389091 
L 325.902439 65.389091 
L 330.439024 65.389091 
L 334.97561 65.389091 
L 339.512195 65.389091 
L 344.04878 65.389091 
L 348.585366 65.389091 
L 353.121951 65.389091 
L 357.658537 65.389091 
L 362.195122 65.389091 
L 366.731707 65.389091 
L 371.268293 65.389091 
L 375.804878 65.389091 
L 380.341463 65.389091 
L 384.878049 65.389091 
L 389.414634 65.389091 
L 393.95122 65.389091 
L 398.487805 65.389091 
L 403.02439 19.570909 
L 407.560976 65.389091 
L 412.097561 65.389091 
L 416.634146 65.389091 
L 421.170732 65.389091 
L 425.707317 65.389091 
L 430.243902 65.389091 
L 434.780488 65.389091 
L 439.317073 65.389091 
L 443.853659 65.389091 
L 448.390244 65.389091 
L 452.926829 65.389091 
L 457.463415 65.389091 
L 462 65.389091 
L 466.536585 65.389091 
L 471.073171 65.389091 
L 475.609756 65.389091 
L 480.146341 65.389091 
L 484.682927 65.389091 
L 489.219512 65.389091 
L 493.756098 65.389091 
L 498.292683 65.389091 
L 502.829268 65.389091 
L 507.365854 65.389091 
L 511.902439 65.389091 
L 516.439024 65.389091 
L 520.97561 65.389091 
L 525.512195 65.389091 
L 530.04878 65.389091 
L 534.585366 65.389091 
L 539.121951 65.389091 
L 543.658537 65.389091 
L 548.195122 65.389091 
L 552.731707 65.389091 
L 557.268293 65.389091 
L 561.804878 65.389091 
L 566.341463 65.389091 
L 570.878049 65.389091 
L 575.414634 19.570909 
L 579.95122 19.570909 
L 584.487805 65.389091 
L 589.02439 65.389091 
L 593.560976 65.389091 
L 598.097561 65.389091 
L 602.634146 65.389091 
L 607.170732 65.389091 
L 611.707317 65.389091 
L 616.243902 65.389091 
L 620.780488 65.389091 
L 625.317073 65.389091 
L 629.853659 65.389091 
L 634.390244 65.389091 
L 638.926829 65.389091 
" clip-path="url(#p3260a4c8e1)" style="fill: none; stroke: #d55e00; stroke-width: 1.5; stroke-linecap: round"/>
   </g>
   <g id="patch_3">
    <path d="M 90 67.68 
L 90 17.28 
" style="fill: none; stroke: #262626; stroke-width: 1.25; stroke-linejoin: miter; stroke-linecap: square"/>
   </g>
   <g id="patch_4">
    <path d="M 648 67.68 
L 648 17.28 
" style="fill: none; stroke: #262626; stroke-width: 1.25; stroke-linejoin: miter; stroke-linecap: square"/>
   </g>
   <g id="patch_5">
    <path d="M 90 67.68 
L 648 67.68 
" style="fill: none; stroke: #262626; stroke-width: 1.25; stroke-linejoin: miter; stroke-linecap: square"/>
   </g>
   <g id="patch_6">
    <path d="M 90 17.28 
L 648 17.28 
" style="fill: none; stroke: #262626; stroke-width: 1.25; stroke-linejoin: miter; stroke-linecap: square"/>
   </g>
  </g>
  <g id="axes_2">
   <g id="patch_7">
    <path d="M 90 128.16 
L 648 128.16 
L 648 77.76 
L 90 77.76 
z
" style="fill: #ffffff"/>
   </g>
   <g id="matplotlib.axis_3">
    <g id="xtick_8">
     <g id="line2d_9">
      <g>
       <use xlink:href="#mdbdea5b852" x="94.536585" y="128.16" style="fill: #262626; stroke: #262626; stroke-width: 1.25"/>
      </g>
     </g>
     <g id="text_9">
      <!-- 0 -->
      <g style="fill: #262626" transform="translate(91.47807 145.533594) scale(0.11 -0.11)">
       <use xlink:href="#ArialMT-30"/>
      </g>
     </g>
    </g>
    <g id="xtick_9">
     <g id="line2d_10">
      <g>
       <use xlink:href="#mdbdea5b852" x="185.268293" y="128.16" style="fill: #262626; stroke: #262626; stroke-width: 1.25"/>
      </g>
     </g>
     <g id="text_10">
      <!-- 20 -->
      <g style="fill: #262626" transform="translate(179.151261 145.533594) scale(0.11 -0.11)">
       <use xlink:href="#ArialMT-32"/>
       <use xlink:href="#ArialMT-30" x="55.615234"/>
      </g>
     </g>
    </g>
    <g id="xtick_10">
     <g id="line2d_11">
      <g>
       <use xlink:href="#mdbdea5b852" x="276" y="128.16" style="fill: #262626; stroke: #262626; stroke-width: 1.25"/>
      </g>
     </g>
     <g id="text_11">
      <!-- 40 -->
      <g style="fill: #262626" transform="translate(269.882969 145.533594) scale(0.11 -0.11)">
       <use xlink:href="#ArialMT-34"/>
       <use xlink:href="#ArialMT-30" x="55.615234"/>
      </g>
     </g>
    </g>
    <g id="xtick_11">
     <g id="line2d_12">
      <g>
       <use xlink:href="#mdbdea5b852" x="366.731707" y="128.16" style="fill: #262626; stroke: #262626; stroke-width: 1.25"/>
      </g>
     </g>
     <g id="text_12">
      <!-- 60 -->
      <g style="fill: #262626" transform="translate(360.614676 145.533594) scale(0.11 -0.11)">
       <use xlink:href="#ArialMT-36"/>
       <use xlink:href="#ArialMT-30" x="55.615234"/>
      </g>
     </g>
    </g>
    <g id="xtick_12">
     <g id="line2d_13">
      <g>
       <use xlink:href="#mdbdea5b852" x="457.463415" y="128.16" style="fill: #262626; stroke: #262626; stroke-width: 1.25"/>
      </g>
     </g>
     <g id="text_13">
      <!-- 80 -->
      <g style="fill: #262626" transform="translate(451.346383 145.533594) scale(0.11 -0.11)">
       <use xlink:href="#ArialMT-38"/>
       <use xlink:href="#ArialMT-30" x="55.615234"/>
      </g>
     </g>
    </g>
    <g id="xtick_13">
     <g id="line2d_14">
      <g>
       <use xlink:href="#mdbdea5b852" x="548.195122" y="128.16" style="fill: #262626; stroke: #262626; stroke-width: 1.25"/>
      </g>
     </g>
     <g id="text_14">
      <!-- 100 -->
      <g style="fill: #262626" transform="translate(539.019575 145.533594) scale(0.11 -0.11)">
       <use xlink:href="#ArialMT-31"/>
       <use xlink:href="#ArialMT-30" x="55.615234"/>
       <use xlink:href="#ArialMT-30" x="111.230469"/>
      </g>
     </g>
    </g>
    <g id="xtick_14">
     <g id="line2d_15">
      <g>
       <use xlink:href="#mdbdea5b852" x="638.926829" y="128.16" style="fill: #262626; stroke: #262626; stroke-width: 1.25"/>
      </g>
     </g>
     <g id="text_15">
      <!-- 120 -->
      <g style="fill: #262626" transform="translate(629.751282 145.533594) scale(0.11 -0.11)">
       <use xlink:href="#ArialMT-31"/>
       <use xlink:href="#ArialMT-32" x="55.615234"/>
       <use xlink:href="#ArialMT-30" x="111.230469"/>
      </g>
     </g>
    </g>
    <g id="text_16">
     <!-- Time (s) -->
     <g style="fill: #262626" transform="translate(347.230313 160.455469) scale(0.12 -0.12)">
      <defs>
       <path id="ArialMT-54" d="M 1659 0 
L 1659 4041 
L 150 4041 
L 150 4581 
L 3781 4581 
L 3781 4041 
L 2266 4041 
L 2266 0 
L 1659 0 
z
" transform="scale(0.015625)"/>
       <path id="ArialMT-69" d="M 425 3934 
L 425 4581 
L 988 4581 
L 988 3934 
L 425 3934 
z
M 425 0 
L 425 3319 
L 988 3319 
L 988 0 
L 425 0 
z
" transform="scale(0.015625)"/>
       <path id="ArialMT-6d" d="M 422 0 
L 422 3319 
L 925 3319 
L 925 2853 
Q 1081 3097 1340 3245 
Q 1600 3394 1931 3394 
Q 2300 3394 2536 3241 
Q 2772 3088 2869 2813 
Q 3263 3394 3894 3394 
Q 4388 3394 4653 3120 
Q 4919 2847 4919 2278 
L 4919 0 
L 4359 0 
L 4359 2091 
Q 4359 2428 4304 2576 
Q 4250 2725 4106 2815 
Q 3963 2906 3769 2906 
Q 3419 2906 3187 2673 
Q 2956 2441 2956 1928 
L 2956 0 
L 2394 0 
L 2394 2156 
Q 2394 2531 2256 2718 
Q 2119 2906 1806 2906 
Q 1569 2906 1367 2781 
Q 1166 2656 1075 2415 
Q 984 2175 984 1722 
L 984 0 
L 422 0 
z
" transform="scale(0.015625)"/>
       <path id="ArialMT-28" d="M 1497 -1347 
Q 1031 -759 709 28 
Q 388 816 388 1659 
Q 388 2403 628 3084 
Q 909 3875 1497 4659 
L 1900 4659 
Q 1522 4009 1400 3731 
Q 1209 3300 1100 2831 
Q 966 2247 966 1656 
Q 966 153 1900 -1347 
L 1497 -1347 
z
" transform="scale(0.015625)"/>
       <path id="ArialMT-73" d="M 197 991 
L 753 1078 
Q 800 744 1014 566 
Q 1228 388 1613 388 
Q 2000 388 2187 545 
Q 2375 703 2375 916 
Q 2375 1106 2209 1216 
Q 2094 1291 1634 1406 
Q 1016 1563 777 1677 
Q 538 1791 414 1992 
Q 291 2194 291 2438 
Q 291 2659 392 2848 
Q 494 3038 669 3163 
Q 800 3259 1026 3326 
Q 1253 3394 1513 3394 
Q 1903 3394 2198 3281 
Q 2494 3169 2634 2976 
Q 2775 2784 2828 2463 
L 2278 2388 
Q 2241 2644 2061 2787 
Q 1881 2931 1553 2931 
Q 1166 2931 1000 2803 
Q 834 2675 834 2503 
Q 834 2394 903 2306 
Q 972 2216 1119 2156 
Q 1203 2125 1616 2013 
Q 2213 1853 2448 1751 
Q 2684 1650 2818 1456 
Q 2953 1263 2953 975 
Q 2953 694 2789 445 
Q 2625 197 2315 61 
Q 2006 -75 1616 -75 
Q 969 -75 630 194 
Q 291 463 197 991 
z
" transform="scale(0.015625)"/>
       <path id="ArialMT-29" d="M 791 -1347 
L 388 -1347 
Q 1322 153 1322 1656 
Q 1322 2244 1188 2822 
Q 1081 3291 891 3722 
Q 769 4003 388 4659 
L 791 4659 
Q 1378 3875 1659 3084 
Q 1900 2403 1900 1659 
Q 1900 816 1576 28 
Q 1253 -759 791 -1347 
z
" transform="scale(0.015625)"/>
      </defs>
      <use xlink:href="#ArialMT-54"/>
      <use xlink:href="#ArialMT-69" x="57.333984"/>
      <use xlink:href="#ArialMT-6d" x="79.550781"/>
      <use xlink:href="#ArialMT-65" x="162.851562"/>
      <use xlink:href="#ArialMT-20" x="218.466797"/>
      <use xlink:href="#ArialMT-28" x="246.25"/>
      <use xlink:href="#ArialMT-73" x="279.550781"/>
      <use xlink:href="#ArialMT-29" x="329.550781"/>
     </g>
    </g>
   </g>
   <g id="matplotlib.axis_4">
    <g id="text_17">
     <!-- State 3 -->
     <g style="fill: #262626" transform="translate(40.9875 100.575) scale(0.12 -0.12)">
      <defs>
       <path id="ArialMT-33" d="M 269 1209 
L 831 1284 
Q 928 806 1161 595 
Q 1394 384 1728 384 
Q 2125 384 2398 659 
Q 2672 934 2672 1341 
Q 2672 1728 2419 1979 
Q 2166 2231 1775 2231 
Q 1616 2231 1378 2169 
L 1441 2663 
Q 1497 2656 1531 2656 
Q 1891 2656 2178 2843 
Q 2466 3031 2466 3422 
Q 2466 3731 2256 3934 
Q 2047 4138 1716 4138 
Q 1388 4138 1169 3931 
Q 950 3725 888 3313 
L 325 3413 
Q 428 3978 793 4289 
Q 1159 4600 1703 4600 
Q 2078 4600 2393 4439 
Q 2709 4278 2876 4000 
Q 3044 3722 3044 3409 
Q 3044 3113 2884 2869 
Q 2725 2625 2413 2481 
Q 2819 2388 3044 2092 
Q 3269 1797 3269 1353 
Q 3269 753 2831 336 
Q 2394 -81 1725 -81 
Q 1122 -81 723 278 
Q 325 638 269 1209 
z
" transform="scale(0.015625)"/>
      </defs>
      <use xlink:href="#ArialMT-53"/>
      <use xlink:href="#ArialMT-74" x="66.699219"/>
      <use xlink:href="#ArialMT-61" x="94.482422"/>
      <use xlink:href="#ArialMT-74" x="150.097656"/>
      <use xlink:href="#ArialMT-65" x="177.880859"/>
      <use xlink:href="#ArialMT-20" x="233.496094"/>
      <use xlink:href="#ArialMT-33" x="261.279297"/>
     </g>
    </g>
   </g>
   <g id="PolyCollection_2">
    <defs>
     <path id="m594c5d879f" d="M 94.536585 -18.130909 
L 94.536585 -63.949091 
L 99.073171 -63.949091 
L 103.609756 -63.949091 
L 108.146341 -63.949091 
L 112.682927 -63.949091 
L 117.219512 -63.949091 
L 121.756098 -63.949091 
L 126.292683 -63.949091 
L 130.829268 -18.130909 
L 135.365854 -18.130909 
L 139.902439 -18.130909 
L 144.439024 -18.130909 
L 148.97561 -63.949091 
L 153.512195 -63.949091 
L 158.04878 -63.949091 
L 162.585366 -63.949091 
L 167.121951 -18.130909 
L 171.658537 -18.130909 
L 176.195122 -18.130909 
L 180.731707 -18.130909 
L 185.268293 -18.130909 
L 189.804878 -18.130909 
L 194.341463 -18.130909 
L 198.878049 -18.130909 
L 203.414634 -63.949091 
L 207.95122 -63.949091 
L 212.487805 -18.130909 
L 217.02439 -18.130909 
L 221.560976 -18.130909 
L 226.097561 -18.130909 
L 230.634146 -63.949091 
L 235.170732 -63.949091 
L 239.707317 -63.949091 
L 244.243902 -18.130909 
L 248.780488 -18.130909 
L 253.317073 -63.949091 
L 257.853659 -63.949091 
L 262.390244 -63.949091 
L 266.926829 -63.949091 
L 271.463415 -18.130909 
L 276 -18.130909 
L 280.536585 -18.130909 
L 285.073171 -18.130909 
L 289.609756 -18.130909 
L 294.146341 -18.130909 
L 298.682927 -18.130909 
L 303.219512 -18.130909 
L 307.756098 -18.130909 
L 312.292683 -18.130909 
L 316.829268 -18.130909 
L 321.365854 -63.949091 
L 325.902439 -63.949091 
L 330.439024 -63.949091 
L 334.97561 -63.949091 
L 339.512195 -63.949091 
L 344.04878 -63.949091 
L 348.585366 -63.949091 
L 353.121951 -63.949091 
L 357.658537 -63.949091 
L 362.195122 -63.949091 
L 366.731707 -63.949091 
L 371.268293 -63.949091 
L 375.804878 -63.949091 
L 380.341463 -63.949091 
L 384.878049 -63.949091 
L 389.414634 -63.949091 
L 393.95122 -63.949091 
L 398.487805 -63.949091 
L 403.02439 -18.130909 
L 407.560976 -63.949091 
L 412.097561 -63.949091 
L 416.634146 -63.949091 
L 421.170732 -63.949091 
L 425.707317 -63.949091 
L 430.243902 -63.949091 
L 434.780488 -63.949091 
L 439.317073 -63.949091 
L 443.853659 -63.949091 
L 448.390244 -63.949091 
L 452.926829 -63.949091 
L 457.463415 -63.949091 
L 462 -63.949091 
L 466.536585 -63.949091 
L 471.073171 -63.949091 
L 475.609756 -63.949091 
L 480.146341 -63.949091 
L 484.682927 -63.949091 
L 489.219512 -63.949091 
L 493.756098 -63.949091 
L 498.292683 -63.949091 
L 502.829268 -63.949091 
L 507.365854 -63.949091 
L 511.902439 -63.949091 
L 516.439024 -63.949091 
L 520.97561 -63.949091 
L 525.512195 -63.949091 
L 530.04878 -63.949091 
L 534.585366 -63.949091 
L 539.121951 -63.949091 
L 543.658537 -63.949091 
L 548.195122 -63.949091 
L 552.731707 -63.949091 
L 557.268293 -63.949091 
L 561.804878 -63.949091 
L 566.341463 -63.949091 
L 570.878049 -63.949091 
L 575.414634 -18.130909 
L 579.95122 -18.130909 
L 584.487805 -63.949091 
L 589.02439 -63.949091 
L 593.560976 -63.949091 
L 598.097561 -63.949091 
L 602.634146 -63.949091 
L 607.170732 -63.949091 
L 611.707317 -63.949091 
L 616.243902 -63.949091 
L 620.780488 -63.949091 
L 625.317073 -63.949091 
L 629.853659 -63.949091 
L 634.390244 -63.949091 
L 638.926829 -63.949091 
L 638.926829 -18.130909 
L 638.926829 -18.130909 
L 634.390244 -18.130909 
L 629.853659 -18.130909 
L 625.317073 -18.130909 
L 620.780488 -18.130909 
L 616.243902 -18.130909 
L 611.707317 -18.130909 
L 607.170732 -18.130909 
L 602.634146 -18.130909 
L 598.097561 -18.130909 
L 593.560976 -18.130909 
L 589.02439 -18.130909 
L 584.487805 -18.130909 
L 579.95122 -18.130909 
L 575.414634 -18.130909 
L 570.878049 -18.130909 
L 566.341463 -18.130909 
L 561.804878 -18.130909 
L 557.268293 -18.130909 
L 552.731707 -18.130909 
L 548.195122 -18.130909 
L 543.658537 -18.130909 
L 539.121951 -18.130909 
L 534.585366 -18.130909 
L 530.04878 -18.130909 
L 525.512195 -18.130909 
L 520.97561 -18.130909 
L 516.439024 -18.130909 
L 511.902439 -18.130909 
L 507.365854 -18.130909 
L 502.829268 -18.130909 
L 498.292683 -18.130909 
L 493.756098 -18.130909 
L 489.219512 -18.130909 
L 484.682927 -18.130909 
L 480.146341 -18.130909 
L 475.609756 -18.130909 
L 471.073171 -18.130909 
L 466.536585 -18.130909 
L 462 -18.130909 
L 457.463415 -18.130909 
L 452.926829 -18.130909 
L 448.390244 -18.130909 
L 443.853659 -18.130909 
L 439.317073 -18.130909 
L 434.780488 -18.130909 
L 430.243902 -18.130909 
L 425.707317 -18.130909 
L 421.170732 -18.130909 
L 416.634146 -18.130909 
L 412.097561 -18.130909 
L 407.560976 -18.130909 
L 403.02439 -18.130909 
L 398.487805 -18.130909 
L 393.95122 -18.130909 
L 389.414634 -18.130909 
L 384.878049 -18.130909 
L 380.341463 -18.130909 
L 375.804878 -18.130909 
L 371.268293 -18.130909 
L 366.731707 -18.130909 
L 362.195122 -18.130909 
L 357.658537 -18.130909 
L 353.121951 -18.130909 
L 348.585366 -18.130909 
L 344.04878 -18.130909 
L 339.512195 -18.130909 
L 334.97561 -18.130909 
L 330.439024 -18.130909 
L 325.902439 -18.130909 
L 321.365854 -18.130909 
L 316.829268 -18.130909 
L 312.292683 -18.130909 
L 307.756098 -18.130909 
L 303.219512 -18.130909 
L 298.682927 -18.130909 
L 294.146341 -18.130909 
L 289.609756 -18.130909 
L 285.073171 -18.130909 
L 280.536585 -18.130909 
L 276 -18.130909 
L 271.463415 -18.130909 
L 266.926829 -18.130909 
L 262.390244 -18.130909 
L 257.853659 -18.130909 
L 253.317073 -18.130909 
L 248.780488 -18.130909 
L 244.243902 -18.130909 
L 239.707317 -18.130909 
L 235.170732 -18.130909 
L 230.634146 -18.130909 
L 226.097561 -18.130909 
L 221.560976 -18.130909 
L 217.02439 -18.130909 
L 212.487805 -18.130909 
L 207.95122 -18.130909 
L 203.414634 -18.130909 
L 198.878049 -18.130909 
L 194.341463 -18.130909 
L 189.804878 -18.130909 
L 185.268293 -18.130909 
L 180.731707 -18.130909 
L 176.195122 -18.130909 
L 171.658537 -18.130909 
L 167.121951 -18.130909 
L 162.585366 -18.130909 
L 158.04878 -18.130909 
L 153.512195 -18.130909 
L 148.97561 -18.130909 
L 144.439024 -18.130909 
L 139.902439 -18.130909 
L 135.365854 -18.130909 
L 130.829268 -18.130909 
L 126.292683 -18.130909 
L 121.756098 -18.130909 
L 117.219512 -18.130909 
L 112.682927 -18.130909 
L 108.146341 -18.130909 
L 103.609756 -18.130909 
L 99.073171 -18.130909 
L 94.536585 -18.130909 
z
" style="stroke: #009e73; stroke-opacity: 0.3"/>
    </defs>
    <g clip-path="url(#pa7fc60c2dc)">
     <use xlink:href="#m594c5d879f" x="0" y="144" style="fill: #009e73; fill-opacity: 0.3; stroke: #009e73; stroke-opacity: 0.3"/>
    </g>
   </g>
   <g id="line2d_16">
    <path d="M 94.536585 80.050909 
L 99.073171 80.050909 
L 103.609756 80.050909 
L 108.146341 80.050909 
L 112.682927 80.050909 
L 117.219512 80.050909 
L 121.756098 80.050909 
L 126.292683 80.050909 
L 130.829268 125.869091 
L 135.365854 125.869091 
L 139.902439 125.869091 
L 144.439024 125.869091 
L 148.97561 80.050909 
L 153.512195 80.050909 
L 158.04878 80.050909 
L 162.585366 80.050909 
L 167.121951 125.869091 
L 171.658537 125.869091 
L 176.195122 125.869091 
L 180.731707 125.869091 
L 185.268293 125.869091 
L 189.804878 125.869091 
L 194.341463 125.869091 
L 198.878049 125.869091 
L 203.414634 80.050909 
L 207.95122 80.050909 
L 212.487805 125.869091 
L 217.02439 125.869091 
L 221.560976 125.869091 
L 226.097561 125.869091 
L 230.634146 80.050909 
L 235.170732 80.050909 
L 239.707317 80.050909 
L 244.243902 125.869091 
L 248.780488 125.869091 
L 253.317073 80.050909 
L 257.853659 80.050909 
L 262.390244 80.050909 
L 266.926829 80.050909 
L 271.463415 125.869091 
L 276 125.869091 
L 280.536585 125.869091 
L 285.073171 125.869091 
L 289.609756 125.869091 
L 294.146341 125.869091 
L 298.682927 125.869091 
L 303.219512 125.869091 
L 307.756098 125.869091 
L 312.292683 125.869091 
L 316.829268 125.869091 
L 321.365854 80.050909 
L 325.902439 80.050909 
L 330.439024 80.050909 
L 334.97561 80.050909 
L 339.512195 80.050909 
L 344.04878 80.050909 
L 348.585366 80.050909 
L 353.121951 80.050909 
L 357.658537 80.050909 
L 362.195122 80.050909 
L 366.731707 80.050909 
L 371.268293 80.050909 
L 375.804878 80.050909 
L 380.341463 80.050909 
L 384.878049 80.050909 
L 389.414634 80.050909 
L 393.95122 80.050909 
L 398.487805 80.050909 
L 403.02439 125.869091 
L 407.560976 80.050909 
L 412.097561 80.050909 
L 416.634146 80.050909 
L 421.170732 80.050909 
L 425.707317 80.050909 
L 430.243902 80.050909 
L 434.780488 80.050909 
L 439.317073 80.050909 
L 443.853659 80.050909 
L 448.390244 80.050909 
L 452.926829 80.050909 
L 457.463415 80.050909 
L 462 80.050909 
L 466.536585 80.050909 
L 471.073171 80.050909 
L 475.609756 80.050909 
L 480.146341 80.050909 
L 484.682927 80.050909 
L 489.219512 80.050909 
L 493.756098 80.050909 
L 498.292683 80.050909 
L 502.829268 80.050909 
L 507.365854 80.050909 
L 511.902439 80.050909 
L 516.439024 80.050909 
L 520.97561 80.050909 
L 525.512195 80.050909 
L 530.04878 80.050909 
L 534.585366 80.050909 
L 539.121951 80.050909 
L 543.658537 80.050909 
L 548.195122 80.050909 
L 552.731707 80.050909 
L 557.268293 80.050909 
L 561.804878 80.050909 
L 566.341463 80.050909 
L 570.878049 80.050909 
L 575.414634 125.869091 
L 579.95122 125.869091 
L 584.487805 80.050909 
L 589.02439 80.050909 
L 593.560976 80.050909 
L 598.097561 80.050909 
L 602.634146 80.050909 
L 607.170732 80.050909 
L 611.707317 80.050909 
L 616.243902 80.050909 
L 620.780488 80.050909 
L 625.317073 80.050909 
L 629.853659 80.050909 
L 634.390244 80.050909 
L 638.926829 80.050909 
" clip-path="url(#pa7fc60c2dc)" style="fill: none; stroke: #009e73; stroke-width: 1.5; stroke-linecap: round"/>
   </g>
   <g id="patch_8">
    <path d="M 90 128.16 
L 90 77.76 
" style="fill: none; stroke: #262626; stroke-width: 1.25; stroke-linejoin: miter; stroke-linecap: square"/>
   </g>
   <g id="patch_9">
    <path d="M 648 128.16 
L 648 77.76 
" style="fill: none; stroke: #262626; stroke-width: 1.25; stroke-linejoin: miter; stroke-linecap: square"/>
   </g>
   <g id="patch_10">
    <path d="M 90 128.16 
L 648 128.16 
" style="fill: none; stroke: #262626; stroke-width: 1.25; stroke-linejoin: miter; stroke-linecap: square"/>
   </g>
   <g id="patch_11">
    <path d="M 90 77.76 
L 648 77.76 
" style="fill: none; stroke: #262626; stroke-width: 1.25; stroke-linejoin: miter; stroke-linecap: square"/>
   </g>
  </g>
 </g>
 <defs>
  <clipPath id="p3260a4c8e1">
   <rect x="90" y="17.28" width="558" height="50.4"/>
  </clipPath>
  <clipPath id="pa7fc60c2dc">
   <rect x="90" y="77.76" width="558" height="50.4"/>
  </clipPath>
 </defs>
</svg>
