<?xml version="1.0" encoding="utf-8" standalone="no"?>
<!DOCTYPE svg PUBLIC "-//W3C//DTD SVG 1.1//EN"
  "http://www.w3.org/Graphics/SVG/1.1/DTD/svg11.dtd">
<svg xmlns:xlink="http://www.w3.org/1999/xlink" width="720pt" height="360pt" viewBox="0 0 720 360" xmlns="http://www.w3.org/2000/svg" version="1.1">
 <metadata>
  <rdf:RDF xmlns:dc="http://purl.org/dc/elements/1.1/" xmlns:cc="http://creativecommons.org/ns#" xmlns:rdf="http://www.w3.org/1999/02/22-rdf-syntax-ns#">
   <cc:Work>
    <dc:type rdf:resource="http://purl.org/dc/dcmitype/StillImage"/>
    <dc:date>2024-08-20T17:45:36.040609</dc:date>
    <dc:format>image/svg+xml</dc:format>
    <dc:creator>
     <cc:Agent>
      <dc:title>Matplotlib v3.8.0, https://matplotlib.org/</dc:title>
     </cc:Agent>
    </dc:creator>
   </cc:Work>
  </rdf:RDF>
 </metadata>
 <defs>
  <style type="text/css">*{stroke-linejoin: round; stroke-linecap: butt}</style>
 </defs>
 <g id="figure_1">
  <g id="patch_1">
   <path d="M 0 360 
L 720 360 
L 720 0 
L 0 0 
z
" style="fill: #ffffff"/>
  </g>
  <g id="axes_1">
   <g id="patch_2">
    <path d="M 90 320.4 
L 648 320.4 
L 648 43.2 
L 90 43.2 
z
" style="fill: #ffffff"/>
   </g>
   <g id="matplotlib.axis_1">
    <g id="xtick_1">
     <g id="line2d_1">
      <defs>
       <path id="m3f202f55c0" d="M 0 0 
L 0 6 
" style="stroke: #262626; stroke-width: 1.25"/>
      </defs>
      <g>
       <use xlink:href="#m3f202f55c0" x="159.75" y="320.4" style="fill: #262626; stroke: #262626; stroke-width: 1.25"/>
      </g>
     </g>
     <g id="text_1">
      <!-- State 1 -->
      <g style="fill: #262626" transform="translate(140.7375 338.489375) scale(0.12 -0.12)">
       <defs>
        <path id="ArialMT-53" d="M 288 1472 
L 859 1522 
Q 900 1178 1048 958 
Q 1197 738 1509 602 
Q 1822 466 2213 466 
Q 2559 466 2825 569 
Q 3091 672 3220 851 
Q 3350 1031 3350 1244 
Q 3350 1459 3225 1620 
Q 3100 1781 2813 1891 
Q 2628 1963 1997 2114 
Q 1366 2266 1113 2400 
Q 784 2572 623 2826 
Q 463 3081 463 3397 
Q 463 3744 659 4045 
Q 856 4347 1234 4503 
Q 1613 4659 2075 4659 
Q 2584 4659 2973 4495 
Q 3363 4331 3572 4012 
Q 3781 3694 3797 3291 
L 3216 3247 
Q 3169 3681 2898 3903 
Q 2628 4125 2100 4125 
Q 1550 4125 1298 3923 
Q 1047 3722 1047 3438 
Q 1047 3191 1225 3031 
Q 1400 2872 2139 2705 
Q 2878 2538 3153 2413 
Q 3553 2228 3743 1945 
Q 3934 1663 3934 1294 
Q 3934 928 3725 604 
Q 3516 281 3123 101 
Q 2731 -78 2241 -78 
Q 1619 -78 1198 103 
Q 778 284 539 648 
Q 300 1013 288 1472 
z
" transform="scale(0.015625)"/>
        <path id="ArialMT-74" d="M 1650 503 
L 1731 6 
Q 1494 -44 1306 -44 
Q 1000 -44 831 53 
Q 663 150 594 308 
Q 525 466 525 972 
L 525 2881 
L 113 2881 
L 113 3319 
L 525 3319 
L 525 4141 
L 1084 4478 
L 1084 3319 
L 1650 3319 
L 1650 2881 
L 1084 2881 
L 1084 941 
Q 1084 700 1114 631 
Q 1144 563 1211 522 
Q 1278 481 1403 481 
Q 1497 481 1650 503 
z
" transform="scale(0.015625)"/>
        <path id="ArialMT-61" d="M 2588 409 
Q 2275 144 1986 34 
Q 1697 -75 1366 -75 
Q 819 -75 525 192 
Q 231 459 231 875 
Q 231 1119 342 1320 
Q 453 1522 633 1644 
Q 813 1766 1038 1828 
Q 1203 1872 1538 1913 
Q 2219 1994 2541 2106 
Q 2544 2222 2544 2253 
Q 2544 2597 2384 2738 
Q 2169 2928 1744 2928 
Q 1347 2928 1158 2789 
Q 969 2650 878 2297 
L 328 2372 
Q 403 2725 575 2942 
Q 747 3159 1072 3276 
Q 1397 3394 1825 3394 
Q 2250 3394 2515 3294 
Q 2781 3194 2906 3042 
Q 3031 2891 3081 2659 
Q 3109 2516 3109 2141 
L 3109 1391 
Q 3109 606 3145 398 
Q 3181 191 3288 0 
L 2700 0 
Q 2613 175 2588 409 
z
M 2541 1666 
Q 2234 1541 1622 1453 
Q 1275 1403 1131 1340 
Q 988 1278 909 1158 
Q 831 1038 831 891 
Q 831 666 1001 516 
Q 1172 366 1500 366 
Q 1825 366 2078 508 
Q 2331 650 2450 897 
Q 2541 1088 2541 1459 
L 2541 1666 
z
" transform="scale(0.015625)"/>
        <path id="ArialMT-65" d="M 2694 1069 
L 3275 997 
Q 3138 488 2766 206 
Q 2394 -75 1816 -75 
Q 1088 -75 661 373 
Q 234 822 234 1631 
Q 234 2469 665 2931 
Q 1097 3394 1784 3394 
Q 2450 3394 2872 2941 
Q 3294 2488 3294 1666 
Q 3294 1616 3291 1516 
L 816 1516 
Q 847 969 1125 678 
Q 1403 388 1819 388 
Q 2128 388 2347 550 
Q 2566 713 2694 1069 
z
M 847 1978 
L 2700 1978 
Q 2663 2397 2488 2606 
Q 2219 2931 1791 2931 
Q 1403 2931 1139 2672 
Q 875 2413 847 1978 
z
" transform="scale(0.015625)"/>
        <path id="ArialMT-20" transform="scale(0.015625)"/>
        <path id="ArialMT-31" d="M 2384 0 
L 1822 0 
L 1822 3584 
Q 1619 3391 1289 3197 
Q 959 3003 697 2906 
L 697 3450 
Q 1169 3672 1522 3987 
Q 1875 4303 2022 4600 
L 2384 4600 
L 2384 0 
z
" transform="scale(0.015625)"/>
       </defs>
       <use xlink:href="#ArialMT-53"/>
       <use xlink:href="#ArialMT-74" x="66.699219"/>
       <use xlink:href="#ArialMT-61" x="94.482422"/>
       <use xlink:href="#ArialMT-74" x="150.097656"/>
       <use xlink:href="#ArialMT-65" x="177.880859"/>
       <use xlink:href="#ArialMT-20" x="233.496094"/>
       <use xlink:href="#ArialMT-31" x="261.279297"/>
      </g>
     </g>
    </g>
    <g id="xtick_2">
     <g id="line2d_2">
      <g>
       <use xlink:href="#m3f202f55c0" x="299.25" y="320.4" style="fill: #262626; stroke: #262626; stroke-width: 1.25"/>
      </g>
     </g>
     <g id="text_2">
      <!-- State 2 -->
      <g style="fill: #262626" transform="translate(280.2375 338.489375) scale(0.12 -0.12)">
       <defs>
        <path id="ArialMT-32" d="M 3222 541 
L 3222 0 
L 194 0 
Q 188 203 259 391 
Q 375 700 629 1000 
Q 884 1300 1366 1694 
Q 2113 2306 2375 2664 
Q 2638 3022 2638 3341 
Q 2638 3675 2398 3904 
Q 2159 4134 1775 4134 
Q 1369 4134 1125 3890 
Q 881 3647 878 3216 
L 300 3275 
Q 359 3922 746 4261 
Q 1134 4600 1788 4600 
Q 2447 4600 2831 4234 
Q 3216 3869 3216 3328 
Q 3216 3053 3103 2787 
Q 2991 2522 2730 2228 
Q 2469 1934 1863 1422 
Q 1356 997 1212 845 
Q 1069 694 975 541 
L 3222 541 
z
" transform="scale(0.015625)"/>
       </defs>
       <use xlink:href="#ArialMT-53"/>
       <use xlink:href="#ArialMT-74" x="66.699219"/>
       <use xlink:href="#ArialMT-61" x="94.482422"/>
       <use xlink:href="#ArialMT-74" x="150.097656"/>
       <use xlink:href="#ArialMT-65" x="177.880859"/>
       <use xlink:href="#ArialMT-20" x="233.496094"/>
       <use xlink:href="#ArialMT-32" x="261.279297"/>
      </g>
     </g>
    </g>
    <g id="xtick_3">
     <g id="line2d_3">
      <g>
       <use xlink:href="#m3f202f55c0" x="438.75" y="320.4" style="fill: #262626; stroke: #262626; stroke-width: 1.25"/>
      </g>
     </g>
     <g id="text_3">
      <!-- State 3 -->
      <g style="fill: #262626" transform="translate(419.7375 338.489375) scale(0.12 -0.12)">
       <defs>
        <path id="ArialMT-33" d="M 269 1209 
L 831 1284 
Q 928 806 1161 595 
Q 1394 384 1728 384 
Q 2125 384 2398 659 
Q 2672 934 2672 1341 
Q 2672 1728 2419 1979 
Q 2166 2231 1775 2231 
Q 1616 2231 1378 2169 
L 1441 2663 
Q 1497 2656 1531 2656 
Q 1891 2656 2178 2843 
Q 2466 3031 2466 3422 
Q 2466 3731 2256 3934 
Q 2047 4138 1716 4138 
Q 1388 4138 1169 3931 
Q 950 3725 888 3313 
L 325 3413 
Q 428 3978 793 4289 
Q 1159 4600 1703 4600 
Q 2078 4600 2393 4439 
Q 2709 4278 2876 4000 
Q 3044 3722 3044 3409 
Q 3044 3113 2884 2869 
Q 2725 2625 2413 2481 
Q 2819 2388 3044 2092 
Q 3269 1797 3269 1353 
Q 3269 753 2831 336 
Q 2394 -81 1725 -81 
Q 1122 -81 723 278 
Q 325 638 269 1209 
z
" transform="scale(0.015625)"/>
       </defs>
       <use xlink:href="#ArialMT-53"/>
       <use xlink:href="#ArialMT-74" x="66.699219"/>
       <use xlink:href="#ArialMT-61" x="94.482422"/>
       <use xlink:href="#ArialMT-74" x="150.097656"/>
       <use xlink:href="#ArialMT-65" x="177.880859"/>
       <use xlink:href="#ArialMT-20" x="233.496094"/>
       <use xlink:href="#ArialMT-33" x="261.279297"/>
      </g>
     </g>
    </g>
    <g id="xtick_4">
     <g id="line2d_4">
      <g>
       <use xlink:href="#m3f202f55c0" x="578.25" y="320.4" style="fill: #262626; stroke: #262626; stroke-width: 1.25"/>
      </g>
     </g>
     <g id="text_4">
      <!-- State 4 -->
      <g style="fill: #262626" transform="translate(559.2375 338.489375) scale(0.12 -0.12)">
       <defs>
        <path id="ArialMT-34" d="M 2069 0 
L 2069 1097 
L 81 1097 
L 81 1613 
L 2172 4581 
L 2631 4581 
L 2631 1613 
L 3250 1613 
L 3250 1097 
L 2631 1097 
L 2631 0 
L 2069 0 
z
M 2069 1613 
L 2069 3678 
L 634 1613 
L 2069 1613 
z
" transform="scale(0.015625)"/>
       </defs>
       <use xlink:href="#ArialMT-53"/>
       <use xlink:href="#ArialMT-74" x="66.699219"/>
       <use xlink:href="#ArialMT-61" x="94.482422"/>
       <use xlink:href="#ArialMT-74" x="150.097656"/>
       <use xlink:href="#ArialMT-65" x="177.880859"/>
       <use xlink:href="#ArialMT-20" x="233.496094"/>
       <use xlink:href="#ArialMT-34" x="261.279297"/>
      </g>
     </g>
    </g>
   </g>
   <g id="matplotlib.axis_2">
    <g id="ytick_1">
     <g id="line2d_5">
      <defs>
       <path id="m60c60e399f" d="M 0 0 
L -6 0 
" style="stroke: #262626; stroke-width: 1.25"/>
      </defs>
      <g>
       <use xlink:href="#m60c60e399f" x="90" y="320.4" style="fill: #262626; stroke: #262626; stroke-width: 1.25"/>
      </g>
     </g>
     <g id="text_5">
      <!-- 0.0 -->
      <g style="fill: #262626" transform="translate(65.21 324.336797) scale(0.11 -0.11)">
       <defs>
        <path id="ArialMT-30" d="M 266 2259 
Q 266 3072 433 3567 
Q 600 4063 929 4331 
Q 1259 4600 1759 4600 
Q 2128 4600 2406 4451 
Q 2684 4303 2865 4023 
Q 3047 3744 3150 3342 
Q 3253 2941 3253 2259 
Q 3253 1453 3087 958 
Q 2922 463 2592 192 
Q 2263 -78 1759 -78 
Q 1097 -78 719 397 
Q 266 969 266 2259 
z
M 844 2259 
Q 844 1131 1108 757 
Q 1372 384 1759 384 
Q 2147 384 2411 759 
Q 2675 1134 2675 2259 
Q 2675 3391 2411 3762 
Q 2147 4134 1753 4134 
Q 1366 4134 1134 3806 
Q 844 3388 844 2259 
z
" transform="scale(0.015625)"/>
        <path id="ArialMT-2e" d="M 581 0 
L 581 641 
L 1222 641 
L 1222 0 
L 581 0 
z
" transform="scale(0.015625)"/>
       </defs>
       <use xlink:href="#ArialMT-30"/>
       <use xlink:href="#ArialMT-2e" x="55.615234"/>
       <use xlink:href="#ArialMT-30" x="83.398438"/>
      </g>
     </g>
    </g>
    <g id="ytick_2">
     <g id="line2d_6">
      <g>
       <use xlink:href="#m60c60e399f" x="90" y="264.96" style="fill: #262626; stroke: #262626; stroke-width: 1.25"/>
      </g>
     </g>
     <g id="text_6">
      <!-- 0.2 -->
      <g style="fill: #262626" transform="translate(65.21 268.896797) scale(0.11 -0.11)">
       <use xlink:href="#ArialMT-30"/>
       <use xlink:href="#ArialMT-2e" x="55.615234"/>
       <use xlink:href="#ArialMT-32" x="83.398438"/>
      </g>
     </g>
    </g>
    <g id="ytick_3">
     <g id="line2d_7">
      <g>
       <use xlink:href="#m60c60e399f" x="90" y="209.52" style="fill: #262626; stroke: #262626; stroke-width: 1.25"/>
      </g>
     </g>
     <g id="text_7">
      <!-- 0.4 -->
      <g style="fill: #262626" transform="translate(65.21 213.456797) scale(0.11 -0.11)">
       <use xlink:href="#ArialMT-30"/>
       <use xlink:href="#ArialMT-2e" x="55.615234"/>
       <use xlink:href="#ArialMT-34" x="83.398438"/>
      </g>
     </g>
    </g>
    <g id="ytick_4">
     <g id="line2d_8">
      <g>
       <use xlink:href="#m60c60e399f" x="90" y="154.08" style="fill: #262626; stroke: #262626; stroke-width: 1.25"/>
      </g>
     </g>
     <g id="text_8">
      <!-- 0.6 -->
      <g style="fill: #262626" transform="translate(65.21 158.016797) scale(0.11 -0.11)">
       <defs>
        <path id="ArialMT-36" d="M 3184 3459 
L 2625 3416 
Q 2550 3747 2413 3897 
Q 2184 4138 1850 4138 
Q 1581 4138 1378 3988 
Q 1113 3794 959 3422 
Q 806 3050 800 2363 
Q 1003 2672 1297 2822 
Q 1591 2972 1913 2972 
Q 2475 2972 2870 2558 
Q 3266 2144 3266 1488 
Q 3266 1056 3080 686 
Q 2894 316 2569 119 
Q 2244 -78 1831 -78 
Q 1128 -78 684 439 
Q 241 956 241 2144 
Q 241 3472 731 4075 
Q 1159 4600 1884 4600 
Q 2425 4600 2770 4297 
Q 3116 3994 3184 3459 
z
M 888 1484 
Q 888 1194 1011 928 
Q 1134 663 1356 523 
Q 1578 384 1822 384 
Q 2178 384 2434 671 
Q 2691 959 2691 1453 
Q 2691 1928 2437 2201 
Q 2184 2475 1800 2475 
Q 1419 2475 1153 2201 
Q 888 1928 888 1484 
z
" transform="scale(0.015625)"/>
       </defs>
       <use xlink:href="#ArialMT-30"/>
       <use xlink:href="#ArialMT-2e" x="55.615234"/>
       <use xlink:href="#ArialMT-36" x="83.398438"/>
      </g>
     </g>
    </g>
    <g id="ytick_5">
     <g id="line2d_9">
      <g>
       <use xlink:href="#m60c60e399f" x="90" y="98.64" style="fill: #262626; stroke: #262626; stroke-width: 1.25"/>
      </g>
     </g>
     <g id="text_9">
      <!-- 0.8 -->
      <g style="fill: #262626" transform="translate(65.21 102.576797) scale(0.11 -0.11)">
       <defs>
        <path id="ArialMT-38" d="M 1131 2484 
Q 781 2613 612 2850 
Q 444 3088 444 3419 
Q 444 3919 803 4259 
Q 1163 4600 1759 4600 
Q 2359 4600 2725 4251 
Q 3091 3903 3091 3403 
Q 3091 3084 2923 2848 
Q 2756 2613 2416 2484 
Q 2838 2347 3058 2040 
Q 3278 1734 3278 1309 
Q 3278 722 2862 322 
Q 2447 -78 1769 -78 
Q 1091 -78 675 323 
Q 259 725 259 1325 
Q 259 1772 486 2073 
Q 713 2375 1131 2484 
z
M 1019 3438 
Q 1019 3113 1228 2906 
Q 1438 2700 1772 2700 
Q 2097 2700 2305 2904 
Q 2513 3109 2513 3406 
Q 2513 3716 2298 3927 
Q 2084 4138 1766 4138 
Q 1444 4138 1231 3931 
Q 1019 3725 1019 3438 
z
M 838 1322 
Q 838 1081 952 856 
Q 1066 631 1291 507 
Q 1516 384 1775 384 
Q 2178 384 2440 643 
Q 2703 903 2703 1303 
Q 2703 1709 2433 1975 
Q 2163 2241 1756 2241 
Q 1359 2241 1098 1978 
Q 838 1716 838 1322 
z
" transform="scale(0.015625)"/>
       </defs>
       <use xlink:href="#ArialMT-30"/>
       <use xlink:href="#ArialMT-2e" x="55.615234"/>
       <use xlink:href="#ArialMT-38" x="83.398438"/>
      </g>
     </g>
    </g>
    <g id="ytick_6">
     <g id="line2d_10">
      <g>
       <use xlink:href="#m60c60e399f" x="90" y="43.2" style="fill: #262626; stroke: #262626; stroke-width: 1.25"/>
      </g>
     </g>
     <g id="text_10">
      <!-- 1.0 -->
      <g style="fill: #262626" transform="translate(65.21 47.136797) scale(0.11 -0.11)">
       <use xlink:href="#ArialMT-31"/>
       <use xlink:href="#ArialMT-2e" x="55.615234"/>
       <use xlink:href="#ArialMT-30" x="83.398438"/>
      </g>
     </g>
    </g>
    <g id="text_11">
     <!-- Proportion -->
     <g style="fill: #262626" transform="translate(58.825 209.480625) rotate(-90) scale(0.12 -0.12)">
      <defs>
       <path id="ArialMT-50" d="M 494 0 
L 494 4581 
L 2222 4581 
Q 2678 4581 2919 4538 
Q 3256 4481 3484 4323 
Q 3713 4166 3852 3881 
Q 3991 3597 3991 3256 
Q 3991 2672 3619 2267 
Q 3247 1863 2275 1863 
L 1100 1863 
L 1100 0 
L 494 0 
z
M 1100 2403 
L 2284 2403 
Q 2872 2403 3119 2622 
Q 3366 2841 3366 3238 
Q 3366 3525 3220 3729 
Q 3075 3934 2838 4000 
Q 2684 4041 2272 4041 
L 1100 4041 
L 1100 2403 
z
" transform="scale(0.015625)"/>
       <path id="ArialMT-72" d="M 416 0 
L 416 3319 
L 922 3319 
L 922 2816 
Q 1116 3169 1280 3281 
Q 1444 3394 1641 3394 
Q 1925 3394 2219 3213 
L 2025 2691 
Q 1819 2813 1613 2813 
Q 1428 2813 1281 2702 
Q 1134 2591 1072 2394 
Q 978 2094 978 1738 
L 978 0 
L 416 0 
z
" transform="scale(0.015625)"/>
       <path id="ArialMT-6f" d="M 213 1659 
Q 213 2581 725 3025 
Q 1153 3394 1769 3394 
Q 2453 3394 2887 2945 
Q 3322 2497 3322 1706 
Q 3322 1066 3130 698 
Q 2938 331 2570 128 
Q 2203 -75 1769 -75 
Q 1072 -75 642 372 
Q 213 819 213 1659 
z
M 791 1659 
Q 791 1022 1069 705 
Q 1347 388 1769 388 
Q 2188 388 2466 706 
Q 2744 1025 2744 1678 
Q 2744 2294 2464 2611 
Q 2184 2928 1769 2928 
Q 1347 2928 1069 2612 
Q 791 2297 791 1659 
z
" transform="scale(0.015625)"/>
       <path id="ArialMT-70" d="M 422 -1272 
L 422 3319 
L 934 3319 
L 934 2888 
Q 1116 3141 1344 3267 
Q 1572 3394 1897 3394 
Q 2322 3394 2647 3175 
Q 2972 2956 3137 2557 
Q 3303 2159 3303 1684 
Q 3303 1175 3120 767 
Q 2938 359 2589 142 
Q 2241 -75 1856 -75 
Q 1575 -75 1351 44 
Q 1128 163 984 344 
L 984 -1272 
L 422 -1272 
z
M 931 1641 
Q 931 1000 1190 694 
Q 1450 388 1819 388 
Q 2194 388 2461 705 
Q 2728 1022 2728 1688 
Q 2728 2322 2467 2637 
Q 2206 2953 1844 2953 
Q 1484 2953 1207 2617 
Q 931 2281 931 1641 
z
" transform="scale(0.015625)"/>
       <path id="ArialMT-69" d="M 425 3934 
L 425 4581 
L 988 4581 
L 988 3934 
L 425 3934 
z
M 425 0 
L 425 3319 
L 988 3319 
L 988 0 
L 425 0 
z
" transform="scale(0.015625)"/>
       <path id="ArialMT-6e" d="M 422 0 
L 422 3319 
L 928 3319 
L 928 2847 
Q 1294 3394 1984 3394 
Q 2284 3394 2536 3286 
Q 2788 3178 2913 3003 
Q 3038 2828 3088 2588 
Q 3119 2431 3119 2041 
L 3119 0 
L 2556 0 
L 2556 2019 
Q 2556 2363 2490 2533 
Q 2425 2703 2258 2804 
Q 2091 2906 1866 2906 
Q 1506 2906 1245 2678 
Q 984 2450 984 1813 
L 984 0 
L 422 0 
z
" transform="scale(0.015625)"/>
      </defs>
      <use xlink:href="#ArialMT-50"/>
      <use xlink:href="#ArialMT-72" x="66.699219"/>
      <use xlink:href="#ArialMT-6f" x="100"/>
      <use xlink:href="#ArialMT-70" x="155.615234"/>
      <use xlink:href="#ArialMT-6f" x="211.230469"/>
      <use xlink:href="#ArialMT-72" x="266.845703"/>
      <use xlink:href="#ArialMT-74" x="300.146484"/>
      <use xlink:href="#ArialMT-69" x="327.929688"/>
      <use xlink:href="#ArialMT-6f" x="350.146484"/>
      <use xlink:href="#ArialMT-6e" x="405.761719"/>
     </g>
    </g>
   </g>
   <g id="PolyCollection_1">
    <defs>
     <path id="m4db9980330" d="M 160.010154 -40.572909 
L 159.489846 -40.572909 
L 159.399851 -42.269513 
L 159.289841 -43.966117 
L 159.159533 -45.662722 
L 159.010198 -47.359326 
L 158.844959 -49.05593 
L 158.668926 -50.752535 
L 158.489105 -52.449139 
L 158.31404 -54.145743 
L 158.153192 -55.842347 
L 158.016107 -57.538952 
L 157.911459 -59.235556 
L 157.84609 -60.93216 
L 157.824179 -62.628764 
L 157.846657 -64.325369 
L 157.910936 -66.021973 
L 158.010985 -67.718577 
L 158.137692 -69.415181 
L 158.279449 -71.111786 
L 158.422811 -72.80839 
L 158.553132 -74.504994 
L 158.655052 -76.201599 
L 158.712811 -77.898203 
L 158.710364 -79.594807 
L 158.631364 -81.291411 
L 158.459116 -82.988016 
L 158.176587 -84.68462 
L 157.7666 -86.381224 
L 157.212269 -88.077828 
L 156.497711 -89.774433 
L 155.609016 -91.471037 
L 154.535427 -93.167641 
L 153.270632 -94.864245 
L 151.814084 -96.56085 
L 150.172234 -98.257454 
L 148.359567 -99.954058 
L 146.399341 -101.650663 
L 144.323899 -103.347267 
L 142.174433 -105.043871 
L 140.000059 -106.740475 
L 137.856109 -108.43708 
L 135.801599 -110.133684 
L 133.89592 -111.830288 
L 132.194948 -113.526892 
L 130.7469 -115.223497 
L 129.588382 -116.920101 
L 128.741145 -118.616705 
L 128.21002 -120.313309 
L 127.982427 -122.009914 
L 128.029628 -123.706518 
L 128.309659 -125.403122 
L 128.771651 -127.099727 
L 129.361009 -128.796331 
L 130.024814 -130.492935 
L 130.716787 -132.189539 
L 131.401235 -133.886144 
L 132.055568 -135.582748 
L 132.671187 -137.279352 
L 133.25278 -138.975956 
L 133.816269 -140.672561 
L 134.385769 -142.369165 
L 134.99 -144.065769 
L 135.658596 -145.762373 
L 136.418656 -147.458978 
L 137.291833 -149.155582 
L 138.292117 -150.852186 
L 139.424398 -152.548791 
L 140.683823 -154.245395 
L 142.055935 -155.941999 
L 143.517521 -157.638603 
L 145.038131 -159.335208 
L 146.582132 -161.031812 
L 148.111193 -162.728416 
L 149.586997 -164.42502 
L 150.973974 -166.121625 
L 152.241811 -167.818229 
L 153.36751 -169.514833 
L 154.336796 -171.211437 
L 155.144746 -172.908042 
L 155.795596 -174.604646 
L 156.301751 -176.30125 
L 156.682158 -177.997855 
L 156.960201 -179.694459 
L 157.161378 -181.391063 
L 157.310991 -183.087667 
L 157.432098 -184.784272 
L 157.543899 -186.480876 
L 157.6607 -188.17748 
L 157.791504 -189.874084 
L 157.940187 -191.570689 
L 158.106197 -193.267293 
L 158.285591 -194.963897 
L 158.472264 -196.660501 
L 158.659178 -198.357106 
L 158.839442 -200.05371 
L 159.007146 -201.750314 
L 159.157882 -203.446919 
L 159.288967 -205.143523 
L 159.399399 -206.840127 
L 159.489618 -208.536731 
L 160.010382 -208.536731 
L 160.010382 -208.536731 
L 160.100601 -206.840127 
L 160.211033 -205.143523 
L 160.342118 -203.446919 
L 160.492854 -201.750314 
L 160.660558 -200.05371 
L 160.840822 -198.357106 
L 161.027736 -196.660501 
L 161.214409 -194.963897 
L 161.393803 -193.267293 
L 161.559813 -191.570689 
L 161.708496 -189.874084 
L 161.8393 -188.17748 
L 161.956101 -186.480876 
L 162.067902 -184.784272 
L 162.189009 -183.087667 
L 162.338622 -181.391063 
L 162.539799 -179.694459 
L 162.817842 -177.997855 
L 163.198249 -176.30125 
L 163.704404 -174.604646 
L 164.355254 -172.908042 
L 165.163204 -171.211437 
L 166.13249 -169.514833 
L 167.258189 -167.818229 
L 168.526026 -166.121625 
L 169.913003 -164.42502 
L 171.388807 -162.728416 
L 172.917868 -161.031812 
L 174.461869 -159.335208 
L 175.982479 -157.638603 
L 177.444065 -155.941999 
L 178.816177 -154.245395 
L 180.075602 -152.548791 
L 181.207883 -150.852186 
L 182.208167 -149.155582 
L 183.081344 -147.458978 
L 183.841404 -145.762373 
L 184.51 -144.065769 
L 185.114231 -142.369165 
L 185.683731 -140.672561 
L 186.24722 -138.975956 
L 186.828813 -137.279352 
L 187.444432 -135.582748 
L 188.098765 -133.886144 
L 188.783213 -132.189539 
L 189.475186 -130.492935 
L 190.138991 -128.796331 
L 190.728349 -127.099727 
L 191.190341 -125.403122 
L 191.470372 -123.706518 
L 191.517573 -122.009914 
L 191.28998 -120.313309 
L 190.758855 -118.616705 
L 189.911618 -116.920101 
L 188.7531 -115.223497 
L 187.305052 -113.526892 
L 185.60408 -111.830288 
L 183.698401 -110.133684 
L 181.643891 -108.43708 
L 179.499941 -106.740475 
L 177.325567 -105.043871 
L 175.176101 -103.347267 
L 173.100659 -101.650663 
L 171.140433 -99.954058 
L 169.327766 -98.257454 
L 167.685916 -96.56085 
L 166.229368 -94.864245 
L 164.964573 -93.167641 
L 163.890984 -91.471037 
L 163.002289 -89.774433 
L 162.287731 -88.077828 
L 161.7334 -86.381224 
L 161.323413 -84.68462 
L 161.040884 -82.988016 
L 160.868636 -81.291411 
L 160.789636 -79.594807 
L 160.787189 -77.898203 
L 160.844948 -76.201599 
L 160.946868 -74.504994 
L 161.077189 -72.80839 
L 161.220551 -71.111786 
L 161.362308 -69.415181 
L 161.489015 -67.718577 
L 161.589064 -66.021973 
L 161.653343 -64.325369 
L 161.675821 -62.628764 
L 161.65391 -60.93216 
L 161.588541 -59.235556 
L 161.483893 -57.538952 
L 161.346808 -55.842347 
L 161.18596 -54.145743 
L 161.010895 -52.449139 
L 160.831074 -50.752535 
L 160.655041 -49.05593 
L 160.489802 -47.359326 
L 160.340467 -45.662722 
L 160.210159 -43.966117 
L 160.100149 -42.269513 
L 160.010154 -40.572909 
z
" style="stroke: #d55e00; stroke-width: 2"/>
    </defs>
    <g clip-path="url(#pbe3d0581b2)">
     <use xlink:href="#m4db9980330" x="0" y="360" style="fill: #d55e00; fill-opacity: 0.3; stroke: #d55e00; stroke-width: 2"/>
    </g>
   </g>
   <g id="PolyCollection_2">
    <defs>
     <path id="m1f7880b7dd" d="M 299.724054 -89.36021 
L 298.775946 -89.36021 
L 298.604041 -90.885025 
L 298.384282 -92.409841 
L 298.108698 -93.934656 
L 297.769722 -95.459471 
L 297.360798 -96.984286 
L 296.877042 -98.509101 
L 296.315891 -100.033917 
L 295.677665 -101.558732 
L 294.965954 -103.083547 
L 294.187732 -104.608362 
L 293.353149 -106.133177 
L 292.474952 -107.657992 
L 291.567547 -109.182808 
L 290.645773 -110.707623 
L 289.723493 -112.232438 
L 288.812173 -113.757253 
L 287.919621 -115.282068 
L 287.04908 -116.806883 
L 286.198811 -118.331699 
L 285.362287 -119.856514 
L 284.528981 -121.381329 
L 283.68571 -122.906144 
L 282.818365 -124.430959 
L 281.913822 -125.955774 
L 280.961799 -127.48059 
L 279.956424 -129.005405 
L 278.897325 -130.53022 
L 277.790134 -132.055035 
L 276.646375 -133.57985 
L 275.482781 -135.104665 
L 274.320184 -136.629481 
L 273.182127 -138.154296 
L 272.093382 -139.679111 
L 271.078539 -141.203926 
L 270.160768 -142.728741 
L 269.360844 -144.253556 
L 268.696448 -145.778372 
L 268.181742 -147.303187 
L 267.827164 -148.828002 
L 267.639431 -150.352817 
L 267.621681 -151.877632 
L 267.773739 -153.402447 
L 268.092467 -154.927263 
L 268.572159 -156.452078 
L 269.204962 -157.976893 
L 269.98126 -159.501708 
L 270.890001 -161.026523 
L 271.918925 -162.551338 
L 273.054684 -164.076154 
L 274.282878 -165.600969 
L 275.58804 -167.125784 
L 276.953638 -168.650599 
L 278.362177 -170.175414 
L 279.795427 -171.700229 
L 281.234847 -173.225045 
L 282.66217 -174.74986 
L 284.0601 -176.274675 
L 285.413046 -177.79949 
L 286.70778 -179.324305 
L 287.933915 -180.84912 
L 289.084139 -182.373936 
L 290.154153 -183.898751 
L 291.142335 -185.423566 
L 292.049183 -186.948381 
L 292.876627 -188.473196 
L 293.627324 -189.998011 
L 294.304032 -191.522827 
L 294.909159 -193.047642 
L 295.444528 -194.572457 
L 295.911393 -196.097272 
L 296.310657 -197.622087 
L 296.64326 -199.146902 
L 296.910649 -200.671718 
L 297.115265 -202.196533 
L 297.260937 -203.721348 
L 297.353155 -205.246163 
L 297.39914 -206.770978 
L 297.407714 -208.295793 
L 297.388958 -209.820609 
L 297.3537 -211.345424 
L 297.312876 -212.870239 
L 297.276838 -214.395054 
L 297.254676 -215.919869 
L 297.253637 -217.444684 
L 297.278703 -218.9695 
L 297.332365 -220.494315 
L 297.414627 -222.01913 
L 297.523217 -223.543945 
L 297.653992 -225.06876 
L 297.801467 -226.593575 
L 297.959409 -228.118391 
L 298.121436 -229.643206 
L 298.281545 -231.168021 
L 298.434532 -232.692836 
L 298.576282 -234.217651 
L 298.703897 -235.742466 
L 298.815709 -237.267282 
L 298.911165 -238.792097 
L 298.990648 -240.316912 
L 299.509352 -240.316912 
L 299.509352 -240.316912 
L 299.588835 -238.792097 
L 299.684291 -237.267282 
L 299.796103 -235.742466 
L 299.923718 -234.217651 
L 300.065468 -232.692836 
L 300.218455 -231.168021 
L 300.378564 -229.643206 
L 300.540591 -228.118391 
L 300.698533 -226.593575 
L 300.846008 -225.06876 
L 300.976783 -223.543945 
L 301.085373 -222.01913 
L 301.167635 -220.494315 
L 301.221297 -218.9695 
L 301.246363 -217.444684 
L 301.245324 -215.919869 
L 301.223162 -214.395054 
L 301.187124 -212.870239 
L 301.1463 -211.345424 
L 301.111042 -209.820609 
L 301.092286 -208.295793 
L 301.10086 -206.770978 
L 301.146845 -205.246163 
L 301.239063 -203.721348 
L 301.384735 -202.196533 
L 301.589351 -200.671718 
L 301.85674 -199.146902 
L 302.189343 -197.622087 
L 302.588607 -196.097272 
L 303.055472 -194.572457 
L 303.590841 -193.047642 
L 304.195968 -191.522827 
L 304.872676 -189.998011 
L 305.623373 -188.473196 
L 306.450817 -186.948381 
L 307.357665 -185.423566 
L 308.345847 -183.898751 
L 309.415861 -182.373936 
L 310.566085 -180.84912 
L 311.79222 -179.324305 
L 313.086954 -177.79949 
L 314.4399 -176.274675 
L 315.83783 -174.74986 
L 317.265153 -173.225045 
L 318.704573 -171.700229 
L 320.137823 -170.175414 
L 321.546362 -168.650599 
L 322.91196 -167.125784 
L 324.217122 -165.600969 
L 325.445316 -164.076154 
L 326.581075 -162.551338 
L 327.609999 -161.026523 
L 328.51874 -159.501708 
L 329.295038 -157.976893 
L 329.927841 -156.452078 
L 330.407533 -154.927263 
L 330.726261 -153.402447 
L 330.878319 -151.877632 
L 330.860569 -150.352817 
L 330.672836 -148.828002 
L 330.318258 -147.303187 
L 329.803552 -145.778372 
L 329.139156 -144.253556 
L 328.339232 -142.728741 
L 327.421461 -141.203926 
L 326.406618 -139.679111 
L 325.317873 -138.154296 
L 324.179816 -136.629481 
L 323.017219 -135.104665 
L 321.853625 -133.57985 
L 320.709866 -132.055035 
L 319.602675 -130.53022 
L 318.543576 -129.005405 
L 317.538201 -127.48059 
L 316.586178 -125.955774 
L 315.681635 -124.430959 
L 314.81429 -122.906144 
L 313.971019 -121.381329 
L 313.137713 -119.856514 
L 312.301189 -118.331699 
L 311.45092 -116.806883 
L 310.580379 -115.282068 
L 309.687827 -113.757253 
L 308.776507 -112.232438 
L 307.854227 -110.707623 
L 306.932453 -109.182808 
L 306.025048 -107.657992 
L 305.146851 -106.133177 
L 304.312268 -104.608362 
L 303.534046 -103.083547 
L 302.822335 -101.558732 
L 302.184109 -100.033917 
L 301.622958 -98.509101 
L 301.139202 -96.984286 
L 300.730278 -95.459471 
L 300.391302 -93.934656 
L 300.115718 -92.409841 
L 299.895959 -90.885025 
L 299.724054 -89.36021 
z
" style="stroke: #0072b2; stroke-width: 2"/>
    </defs>
    <g clip-path="url(#pbe3d0581b2)">
     <use xlink:href="#m1f7880b7dd" x="0" y="360" style="fill: #0072b2; fill-opacity: 0.3; stroke: #0072b2; stroke-width: 2"/>
    </g>
   </g>
   <g id="PolyCollection_3">
    <defs>
     <path id="mb0679ffd68" d="M 439.790285 -34.55095 
L 437.709715 -34.55095 
L 437.371032 -35.569498 
L 436.949455 -36.588046 
L 436.433728 -37.606593 
L 435.813643 -38.625141 
L 435.080798 -39.643689 
L 434.229357 -40.662237 
L 433.256725 -41.680784 
L 432.164076 -42.699332 
L 430.956644 -43.71788 
L 429.643742 -44.736428 
L 428.238465 -45.754976 
L 426.757101 -46.773523 
L 425.218289 -47.792071 
L 423.642004 -48.810619 
L 422.048476 -49.829167 
L 420.457152 -50.847714 
L 418.885823 -51.866262 
L 417.349989 -52.88481 
L 415.862534 -53.903358 
L 414.433717 -54.921905 
L 413.071437 -55.940453 
L 411.781722 -56.959001 
L 410.569316 -57.977549 
L 409.438265 -58.996097 
L 408.392375 -60.014644 
L 407.435456 -61.033192 
L 406.571282 -62.05174 
L 405.803257 -63.070288 
L 405.133817 -64.088835 
L 404.563654 -65.107383 
L 404.090875 -66.125931 
L 403.710249 -67.144479 
L 403.412697 -68.163026 
L 403.185164 -69.181574 
L 403.01098 -70.200122 
L 402.870754 -71.21867 
L 402.743796 -72.237218 
L 402.609959 -73.255765 
L 402.451756 -74.274313 
L 402.256509 -75.292861 
L 402.018313 -76.311409 
L 401.739525 -77.329956 
L 401.431589 -78.348504 
L 401.115027 -79.367052 
L 400.818528 -80.3856 
L 400.57718 -81.404148 
L 400.429986 -82.422695 
L 400.416884 -83.441243 
L 400.575579 -84.459791 
L 400.938495 -85.478339 
L 401.530151 -86.496886 
L 402.365208 -87.515434 
L 403.447359 -88.533982 
L 404.769113 -89.55253 
L 406.312459 -90.571077 
L 408.050259 -91.589625 
L 409.948192 -92.608173 
L 411.967016 -93.626721 
L 414.064916 -94.645269 
L 416.199725 -95.663816 
L 418.330862 -96.682364 
L 420.420883 -97.700912 
L 422.436601 -98.71946 
L 424.34978 -99.738007 
L 426.13746 -100.756555 
L 427.781994 -101.775103 
L 429.27086 -102.793651 
L 430.596364 -103.812199 
L 431.755262 -104.830746 
L 432.748383 -105.849294 
L 433.580246 -106.867842 
L 434.258703 -107.88639 
L 434.794575 -108.904937 
L 435.201272 -109.923485 
L 435.494375 -110.942033 
L 435.691149 -111.960581 
L 435.809982 -112.979128 
L 435.869754 -113.997676 
L 435.889145 -115.016224 
L 435.885922 -116.034772 
L 435.876235 -117.05332 
L 435.873993 -118.071867 
L 435.890352 -119.090415 
L 435.933371 -120.108963 
L 436.007866 -121.127511 
L 436.115483 -122.146058 
L 436.254965 -123.164606 
L 436.422605 -124.183154 
L 436.612832 -125.201702 
L 436.818864 -126.22025 
L 437.033378 -127.238797 
L 437.249138 -128.257345 
L 437.459511 -129.275893 
L 437.658876 -130.294441 
L 437.842863 -131.312988 
L 438.008467 -132.331536 
L 438.154019 -133.350084 
L 438.279055 -134.368632 
L 438.384122 -135.387179 
L 439.115878 -135.387179 
L 439.115878 -135.387179 
L 439.220945 -134.368632 
L 439.345981 -133.350084 
L 439.491533 -132.331536 
L 439.657137 -131.312988 
L 439.841124 -130.294441 
L 440.040489 -129.275893 
L 440.250862 -128.257345 
L 440.466622 -127.238797 
L 440.681136 -126.22025 
L 440.887168 -125.201702 
L 441.077395 -124.183154 
L 441.245035 -123.164606 
L 441.384517 -122.146058 
L 441.492134 -121.127511 
L 441.566629 -120.108963 
L 441.609648 -119.090415 
L 441.626007 -118.071867 
L 441.623765 -117.05332 
L 441.614078 -116.034772 
L 441.610855 -115.016224 
L 441.630246 -113.997676 
L 441.690018 -112.979128 
L 441.808851 -111.960581 
L 442.005625 -110.942033 
L 442.298728 -109.923485 
L 442.705425 -108.904937 
L 443.241297 -107.88639 
L 443.919754 -106.867842 
L 444.751617 -105.849294 
L 445.744738 -104.830746 
L 446.903636 -103.812199 
L 448.22914 -102.793651 
L 449.718006 -101.775103 
L 451.36254 -100.756555 
L 453.15022 -99.738007 
L 455.063399 -98.71946 
L 457.079117 -97.700912 
L 459.169138 -96.682364 
L 461.300275 -95.663816 
L 463.435084 -94.645269 
L 465.532984 -93.626721 
L 467.551808 -92.608173 
L 469.449741 -91.589625 
L 471.187541 -90.571077 
L 472.730887 -89.55253 
L 474.052641 -88.533982 
L 475.134792 -87.515434 
L 475.969849 -86.496886 
L 476.561505 -85.478339 
L 476.924421 -84.459791 
L 477.083116 -83.441243 
L 477.070014 -82.422695 
L 476.92282 -81.404148 
L 476.681472 -80.3856 
L 476.384973 -79.367052 
L 476.068411 -78.348504 
L 475.760475 -77.329956 
L 475.481687 -76.311409 
L 475.243491 -75.292861 
L 475.048244 -74.274313 
L 474.890041 -73.255765 
L 474.756204 -72.237218 
L 474.629246 -71.21867 
L 474.48902 -70.200122 
L 474.314836 -69.181574 
L 474.087303 -68.163026 
L 473.789751 -67.144479 
L 473.409125 -66.125931 
L 472.936346 -65.107383 
L 472.366183 -64.088835 
L 471.696743 -63.070288 
L 470.928718 -62.05174 
L 470.064544 -61.033192 
L 469.107625 -60.014644 
L 468.061735 -58.996097 
L 466.930684 -57.977549 
L 465.718278 -56.959001 
L 464.428563 -55.940453 
L 463.066283 -54.921905 
L 461.637466 -53.903358 
L 460.150011 -52.88481 
L 458.614177 -51.866262 
L 457.042848 -50.847714 
L 455.451524 -49.829167 
L 453.857996 -48.810619 
L 452.281711 -47.792071 
L 450.742899 -46.773523 
L 449.261535 -45.754976 
L 447.856258 -44.736428 
L 446.543356 -43.71788 
L 445.335924 -42.699332 
L 444.243275 -41.680784 
L 443.270643 -40.662237 
L 442.419202 -39.643689 
L 441.686357 -38.625141 
L 441.066272 -37.606593 
L 440.550545 -36.588046 
L 440.128968 -35.569498 
L 439.790285 -34.55095 
z
" style="stroke: #009e73; stroke-width: 2"/>
    </defs>
    <g clip-path="url(#pbe3d0581b2)">
     <use xlink:href="#mb0679ffd68" x="0" y="360" style="fill: #009e73; fill-opacity: 0.3; stroke: #009e73; stroke-width: 2"/>
    </g>
   </g>
   <g id="PolyCollection_4">
    <defs>
     <path id="m932d4541a3" d="M 578.733321 -37.116773 
L 577.766679 -37.116773 
L 577.63172 -37.867946 
L 577.470347 -38.61912 
L 577.280591 -39.370293 
L 577.061072 -40.121466 
L 576.811086 -40.87264 
L 576.530616 -41.623813 
L 576.220241 -42.374987 
L 575.880927 -43.12616 
L 575.51372 -43.877333 
L 575.119333 -44.628507 
L 574.697692 -45.37968 
L 574.247476 -46.130854 
L 573.765736 -46.882027 
L 573.247658 -47.6332 
L 572.686546 -48.384374 
L 572.074081 -49.135547 
L 571.400875 -49.886721 
L 570.657316 -50.637894 
L 569.834636 -51.389067 
L 568.926128 -52.140241 
L 567.928349 -52.891414 
L 566.842187 -53.642588 
L 565.67361 -54.393761 
L 564.433977 -55.144934 
L 563.139793 -55.896108 
L 561.81188 -56.647281 
L 560.473986 -57.398455 
L 559.150926 -58.149628 
L 557.866419 -58.900801 
L 556.640836 -59.651975 
L 555.489102 -60.403148 
L 554.418971 -61.154322 
L 553.429901 -61.905495 
L 552.512662 -62.656668 
L 551.649754 -63.407842 
L 550.816622 -64.159015 
L 549.983571 -64.910189 
L 549.118204 -65.661362 
L 548.188166 -66.412535 
L 547.163936 -67.163709 
L 546.021422 -67.914882 
L 544.744121 -68.666056 
L 543.324691 -69.417229 
L 541.765799 -70.168402 
L 540.080234 -70.919576 
L 538.290291 -71.670749 
L 536.426543 -72.421923 
L 534.526139 -73.173096 
L 532.630788 -73.924269 
L 530.784628 -74.675443 
L 529.032131 -75.426616 
L 527.416197 -76.17779 
L 525.976524 -76.928963 
L 524.748305 -77.680136 
L 523.761264 -78.43131 
L 523.038986 -79.182483 
L 522.598493 -79.933657 
L 522.45 -80.68483 
L 522.596792 -81.436003 
L 523.035206 -82.187177 
L 523.754715 -82.93835 
L 524.738145 -83.689524 
L 525.962099 -84.440697 
L 527.397635 -85.19187 
L 529.011269 -85.943044 
L 530.766307 -86.694217 
L 532.624488 -87.445391 
L 534.54785 -88.196564 
L 536.500683 -88.947737 
L 538.451408 -89.698911 
L 540.374183 -90.450084 
L 542.25007 -91.201258 
L 544.067626 -91.952431 
L 545.822846 -92.703604 
L 547.518444 -93.454778 
L 549.162571 -94.205951 
L 550.767081 -94.957125 
L 552.345563 -95.708298 
L 553.91132 -96.459471 
L 555.475543 -97.210645 
L 557.045815 -97.961818 
L 558.62512 -98.712992 
L 560.211391 -99.464165 
L 561.797629 -100.215338 
L 563.372515 -100.966512 
L 564.921435 -101.717685 
L 566.427753 -102.468859 
L 567.874205 -103.220032 
L 569.244254 -103.971206 
L 570.523285 -104.722379 
L 571.699539 -105.473552 
L 572.764738 -106.224726 
L 573.714373 -106.975899 
L 574.547678 -107.727073 
L 575.267333 -108.478246 
L 575.878966 -109.229419 
L 576.390514 -109.980593 
L 576.811539 -110.731766 
L 577.152537 -111.48294 
L 579.347463 -111.48294 
L 579.347463 -111.48294 
L 579.688461 -110.731766 
L 580.109486 -109.980593 
L 580.621034 -109.229419 
L 581.232667 -108.478246 
L 581.952322 -107.727073 
L 582.785627 -106.975899 
L 583.735262 -106.224726 
L 584.800461 -105.473552 
L 585.976715 -104.722379 
L 587.255746 -103.971206 
L 588.625795 -103.220032 
L 590.072247 -102.468859 
L 591.578565 -101.717685 
L 593.127485 -100.966512 
L 594.702371 -100.215338 
L 596.288609 -99.464165 
L 597.87488 -98.712992 
L 599.454185 -97.961818 
L 601.024457 -97.210645 
L 602.58868 -96.459471 
L 604.154437 -95.708298 
L 605.732919 -94.957125 
L 607.337429 -94.205951 
L 608.981556 -93.454778 
L 610.677154 -92.703604 
L 612.432374 -91.952431 
L 614.24993 -91.201258 
L 616.125817 -90.450084 
L 618.048592 -89.698911 
L 619.999317 -88.947737 
L 621.95215 -88.196564 
L 623.875512 -87.445391 
L 625.733693 -86.694217 
L 627.488731 -85.943044 
L 629.102365 -85.19187 
L 630.537901 -84.440697 
L 631.761855 -83.689524 
L 632.745285 -82.93835 
L 633.464794 -82.187177 
L 633.903208 -81.436003 
L 634.05 -80.68483 
L 633.901507 -79.933657 
L 633.461014 -79.182483 
L 632.738736 -78.43131 
L 631.751695 -77.680136 
L 630.523476 -76.928963 
L 629.083803 -76.17779 
L 627.467869 -75.426616 
L 625.715372 -74.675443 
L 623.869212 -73.924269 
L 621.973861 -73.173096 
L 620.073457 -72.421923 
L 618.209709 -71.670749 
L 616.419766 -70.919576 
L 614.734201 -70.168402 
L 613.175309 -69.417229 
L 611.755879 -68.666056 
L 610.478578 -67.914882 
L 609.336064 -67.163709 
L 608.311834 -66.412535 
L 607.381796 -65.661362 
L 606.516429 -64.910189 
L 605.683378 -64.159015 
L 604.850246 -63.407842 
L 603.987338 -62.656668 
L 603.070099 -61.905495 
L 602.081029 -61.154322 
L 601.010898 -60.403148 
L 599.859164 -59.651975 
L 598.633581 -58.900801 
L 597.349074 -58.149628 
L 596.026014 -57.398455 
L 594.68812 -56.647281 
L 593.360207 -55.896108 
L 592.066023 -55.144934 
L 590.82639 -54.393761 
L 589.657813 -53.642588 
L 588.571651 -52.891414 
L 587.573872 -52.140241 
L 586.665364 -51.389067 
L 585.842684 -50.637894 
L 585.099125 -49.886721 
L 584.425919 -49.135547 
L 583.813454 -48.384374 
L 583.252342 -47.6332 
L 582.734264 -46.882027 
L 582.252524 -46.130854 
L 581.802308 -45.37968 
L 581.380667 -44.628507 
L 580.98628 -43.877333 
L 580.619073 -43.12616 
L 580.279759 -42.374987 
L 579.969384 -41.623813 
L 579.688914 -40.87264 
L 579.438928 -40.121466 
L 579.219409 -39.370293 
L 579.029653 -38.61912 
L 578.86828 -37.867946 
L 578.733321 -37.116773 
z
" style="stroke: #cc79a7; stroke-width: 2"/>
    </defs>
    <g clip-path="url(#pbe3d0581b2)">
     <use xlink:href="#m932d4541a3" x="0" y="360" style="fill: #cc79a7; fill-opacity: 0.3; stroke: #cc79a7; stroke-width: 2"/>
    </g>
   </g>
   <g id="patch_3">
    <path d="M 90 320.4 
L 90 43.2 
" style="fill: none; stroke: #262626; stroke-width: 1.25; stroke-linejoin: miter; stroke-linecap: square"/>
   </g>
   <g id="patch_4">
    <path d="M 648 320.4 
L 648 43.2 
" style="fill: none; stroke: #262626; stroke-width: 1.25; stroke-linejoin: miter; stroke-linecap: square"/>
   </g>
   <g id="patch_5">
    <path d="M 90 320.4 
L 648 320.4 
" style="fill: none; stroke: #262626; stroke-width: 1.25; stroke-linejoin: miter; stroke-linecap: square"/>
   </g>
   <g id="patch_6">
    <path d="M 90 43.2 
L 648 43.2 
" style="fill: none; stroke: #262626; stroke-width: 1.25; stroke-linejoin: miter; stroke-linecap: square"/>
   </g>
   <g id="text_12">
    <!-- Fractional Occupancy -->
    <g style="fill: #262626" transform="translate(295.871875 37.2) scale(0.14 -0.14)">
     <defs>
      <path id="Arial-BoldMT-46" d="M 472 0 
L 472 4581 
L 3613 4581 
L 3613 3806 
L 1397 3806 
L 1397 2722 
L 3309 2722 
L 3309 1947 
L 1397 1947 
L 1397 0 
L 472 0 
z
" transform="scale(0.015625)"/>
      <path id="Arial-BoldMT-72" d="M 1300 0 
L 422 0 
L 422 3319 
L 1238 3319 
L 1238 2847 
Q 1447 3181 1614 3287 
Q 1781 3394 1994 3394 
Q 2294 3394 2572 3228 
L 2300 2463 
Q 2078 2606 1888 2606 
Q 1703 2606 1575 2504 
Q 1447 2403 1373 2137 
Q 1300 1872 1300 1025 
L 1300 0 
z
" transform="scale(0.015625)"/>
      <path id="Arial-BoldMT-61" d="M 1116 2306 
L 319 2450 
Q 453 2931 781 3162 
Q 1109 3394 1756 3394 
Q 2344 3394 2631 3255 
Q 2919 3116 3036 2902 
Q 3153 2688 3153 2116 
L 3144 1091 
Q 3144 653 3186 445 
Q 3228 238 3344 0 
L 2475 0 
Q 2441 88 2391 259 
Q 2369 338 2359 363 
Q 2134 144 1878 34 
Q 1622 -75 1331 -75 
Q 819 -75 523 203 
Q 228 481 228 906 
Q 228 1188 362 1408 
Q 497 1628 739 1745 
Q 981 1863 1438 1950 
Q 2053 2066 2291 2166 
L 2291 2253 
Q 2291 2506 2166 2614 
Q 2041 2722 1694 2722 
Q 1459 2722 1328 2630 
Q 1197 2538 1116 2306 
z
M 2291 1594 
Q 2122 1538 1756 1459 
Q 1391 1381 1278 1306 
Q 1106 1184 1106 997 
Q 1106 813 1243 678 
Q 1381 544 1594 544 
Q 1831 544 2047 700 
Q 2206 819 2256 991 
Q 2291 1103 2291 1419 
L 2291 1594 
z
" transform="scale(0.015625)"/>
      <path id="Arial-BoldMT-63" d="M 3353 2338 
L 2488 2181 
Q 2444 2441 2289 2572 
Q 2134 2703 1888 2703 
Q 1559 2703 1364 2476 
Q 1169 2250 1169 1719 
Q 1169 1128 1367 884 
Q 1566 641 1900 641 
Q 2150 641 2309 783 
Q 2469 925 2534 1272 
L 3397 1125 
Q 3263 531 2881 228 
Q 2500 -75 1859 -75 
Q 1131 -75 698 384 
Q 266 844 266 1656 
Q 266 2478 700 2936 
Q 1134 3394 1875 3394 
Q 2481 3394 2839 3133 
Q 3197 2872 3353 2338 
z
" transform="scale(0.015625)"/>
      <path id="Arial-BoldMT-74" d="M 1981 3319 
L 1981 2619 
L 1381 2619 
L 1381 1281 
Q 1381 875 1398 808 
Q 1416 741 1477 697 
Q 1538 653 1625 653 
Q 1747 653 1978 738 
L 2053 56 
Q 1747 -75 1359 -75 
Q 1122 -75 931 4 
Q 741 84 652 211 
Q 563 338 528 553 
Q 500 706 500 1172 
L 500 2619 
L 97 2619 
L 97 3319 
L 500 3319 
L 500 3978 
L 1381 4491 
L 1381 3319 
L 1981 3319 
z
" transform="scale(0.015625)"/>
      <path id="Arial-BoldMT-69" d="M 459 3769 
L 459 4581 
L 1338 4581 
L 1338 3769 
L 459 3769 
z
M 459 0 
L 459 3319 
L 1338 3319 
L 1338 0 
L 459 0 
z
" transform="scale(0.015625)"/>
      <path id="Arial-BoldMT-6f" d="M 256 1706 
Q 256 2144 472 2553 
Q 688 2963 1083 3178 
Q 1478 3394 1966 3394 
Q 2719 3394 3200 2905 
Q 3681 2416 3681 1669 
Q 3681 916 3195 420 
Q 2709 -75 1972 -75 
Q 1516 -75 1102 131 
Q 688 338 472 736 
Q 256 1134 256 1706 
z
M 1156 1659 
Q 1156 1166 1390 903 
Q 1625 641 1969 641 
Q 2313 641 2545 903 
Q 2778 1166 2778 1666 
Q 2778 2153 2545 2415 
Q 2313 2678 1969 2678 
Q 1625 2678 1390 2415 
Q 1156 2153 1156 1659 
z
" transform="scale(0.015625)"/>
      <path id="Arial-BoldMT-6e" d="M 3478 0 
L 2600 0 
L 2600 1694 
Q 2600 2231 2544 2389 
Q 2488 2547 2361 2634 
Q 2234 2722 2056 2722 
Q 1828 2722 1647 2597 
Q 1466 2472 1398 2265 
Q 1331 2059 1331 1503 
L 1331 0 
L 453 0 
L 453 3319 
L 1269 3319 
L 1269 2831 
Q 1703 3394 2363 3394 
Q 2653 3394 2893 3289 
Q 3134 3184 3257 3021 
Q 3381 2859 3429 2653 
Q 3478 2447 3478 2063 
L 3478 0 
z
" transform="scale(0.015625)"/>
      <path id="Arial-BoldMT-6c" d="M 459 0 
L 459 4581 
L 1338 4581 
L 1338 0 
L 459 0 
z
" transform="scale(0.015625)"/>
      <path id="Arial-BoldMT-20" transform="scale(0.015625)"/>
      <path id="Arial-BoldMT-4f" d="M 278 2263 
Q 278 2963 488 3438 
Q 644 3788 914 4066 
Q 1184 4344 1506 4478 
Q 1934 4659 2494 4659 
Q 3506 4659 4114 4031 
Q 4722 3403 4722 2284 
Q 4722 1175 4119 548 
Q 3516 -78 2506 -78 
Q 1484 -78 881 545 
Q 278 1169 278 2263 
z
M 1231 2294 
Q 1231 1516 1590 1114 
Q 1950 713 2503 713 
Q 3056 713 3411 1111 
Q 3766 1509 3766 2306 
Q 3766 3094 3420 3481 
Q 3075 3869 2503 3869 
Q 1931 3869 1581 3476 
Q 1231 3084 1231 2294 
z
" transform="scale(0.015625)"/>
      <path id="Arial-BoldMT-75" d="M 2644 0 
L 2644 497 
Q 2463 231 2167 78 
Q 1872 -75 1544 -75 
Q 1209 -75 943 72 
Q 678 219 559 484 
Q 441 750 441 1219 
L 441 3319 
L 1319 3319 
L 1319 1794 
Q 1319 1094 1367 936 
Q 1416 778 1544 686 
Q 1672 594 1869 594 
Q 2094 594 2272 717 
Q 2450 841 2515 1023 
Q 2581 1206 2581 1919 
L 2581 3319 
L 3459 3319 
L 3459 0 
L 2644 0 
z
" transform="scale(0.015625)"/>
      <path id="Arial-BoldMT-70" d="M 434 3319 
L 1253 3319 
L 1253 2831 
Q 1413 3081 1684 3237 
Q 1956 3394 2288 3394 
Q 2866 3394 3269 2941 
Q 3672 2488 3672 1678 
Q 3672 847 3265 386 
Q 2859 -75 2281 -75 
Q 2006 -75 1782 34 
Q 1559 144 1313 409 
L 1313 -1263 
L 434 -1263 
L 434 3319 
z
M 1303 1716 
Q 1303 1156 1525 889 
Q 1747 622 2066 622 
Q 2372 622 2575 867 
Q 2778 1113 2778 1672 
Q 2778 2194 2568 2447 
Q 2359 2700 2050 2700 
Q 1728 2700 1515 2451 
Q 1303 2203 1303 1716 
z
" transform="scale(0.015625)"/>
      <path id="Arial-BoldMT-79" d="M 44 3319 
L 978 3319 
L 1772 963 
L 2547 3319 
L 3456 3319 
L 2284 125 
L 2075 -453 
Q 1959 -744 1854 -897 
Q 1750 -1050 1614 -1145 
Q 1478 -1241 1279 -1294 
Q 1081 -1347 831 -1347 
Q 578 -1347 334 -1294 
L 256 -606 
Q 463 -647 628 -647 
Q 934 -647 1081 -467 
Q 1228 -288 1306 -9 
L 44 3319 
z
" transform="scale(0.015625)"/>
     </defs>
     <use xlink:href="#Arial-BoldMT-46"/>
     <use xlink:href="#Arial-BoldMT-72" x="61.083984"/>
     <use xlink:href="#Arial-BoldMT-61" x="100"/>
     <use xlink:href="#Arial-BoldMT-63" x="155.615234"/>
     <use xlink:href="#Arial-BoldMT-74" x="211.230469"/>
     <use xlink:href="#Arial-BoldMT-69" x="244.53125"/>
     <use xlink:href="#Arial-BoldMT-6f" x="272.314453"/>
     <use xlink:href="#Arial-BoldMT-6e" x="333.398438"/>
     <use xlink:href="#Arial-BoldMT-61" x="394.482422"/>
     <use xlink:href="#Arial-BoldMT-6c" x="450.097656"/>
     <use xlink:href="#Arial-BoldMT-20" x="477.880859"/>
     <use xlink:href="#Arial-BoldMT-4f" x="505.664062"/>
     <use xlink:href="#Arial-BoldMT-63" x="583.447266"/>
     <use xlink:href="#Arial-BoldMT-63" x="639.0625"/>
     <use xlink:href="#Arial-BoldMT-75" x="694.677734"/>
     <use xlink:href="#Arial-BoldMT-70" x="755.761719"/>
     <use xlink:href="#Arial-BoldMT-61" x="816.845703"/>
     <use xlink:href="#Arial-BoldMT-6e" x="872.460938"/>
     <use xlink:href="#Arial-BoldMT-63" x="933.544922"/>
     <use xlink:href="#Arial-BoldMT-79" x="989.160156"/>
    </g>
   </g>
  </g>
 </g>
 <defs>
  <clipPath id="pbe3d0581b2">
   <rect x="90" y="43.2" width="558" height="277.2"/>
  </clipPath>
 </defs>
</svg>
