<?xml version="1.0" encoding="utf-8" standalone="no"?>
<!DOCTYPE svg PUBLIC "-//W3C//DTD SVG 1.1//EN"
  "http://www.w3.org/Graphics/SVG/1.1/DTD/svg11.dtd">
<svg xmlns:xlink="http://www.w3.org/1999/xlink" width="720pt" height="360pt" viewBox="0 0 720 360" xmlns="http://www.w3.org/2000/svg" version="1.1">
 <metadata>
  <rdf:RDF xmlns:dc="http://purl.org/dc/elements/1.1/" xmlns:cc="http://creativecommons.org/ns#" xmlns:rdf="http://www.w3.org/1999/02/22-rdf-syntax-ns#">
   <cc:Work>
    <dc:type rdf:resource="http://purl.org/dc/dcmitype/StillImage"/>
    <dc:date>2024-08-20T17:45:36.117995</dc:date>
    <dc:format>image/svg+xml</dc:format>
    <dc:creator>
     <cc:Agent>
      <dc:title>Matplotlib v3.8.0, https://matplotlib.org/</dc:title>
     </cc:Agent>
    </dc:creator>
   </cc:Work>
  </rdf:RDF>
 </metadata>
 <defs>
  <style type="text/css">*{stroke-linejoin: round; stroke-linecap: butt}</style>
 </defs>
 <g id="figure_1">
  <g id="patch_1">
   <path d="M 0 360 
L 720 360 
L 720 0 
L 0 0 
z
" style="fill: #ffffff"/>
  </g>
  <g id="axes_1">
   <g id="patch_2">
    <path d="M 90 320.4 
L 648 320.4 
L 648 43.2 
L 90 43.2 
z
" style="fill: #ffffff"/>
   </g>
   <g id="matplotlib.axis_1">
    <g id="xtick_1">
     <g id="line2d_1">
      <defs>
       <path id="m1e5bbbc9c8" d="M 0 0 
L 0 6 
" style="stroke: #262626; stroke-width: 1.25"/>
      </defs>
      <g>
       <use xlink:href="#m1e5bbbc9c8" x="159.75" y="320.4" style="fill: #262626; stroke: #262626; stroke-width: 1.25"/>
      </g>
     </g>
     <g id="text_1">
      <!-- State 1 -->
      <g style="fill: #262626" transform="translate(140.7375 338.489375) scale(0.12 -0.12)">
       <defs>
        <path id="ArialMT-53" d="M 288 1472 
L 859 1522 
Q 900 1178 1048 958 
Q 1197 738 1509 602 
Q 1822 466 2213 466 
Q 2559 466 2825 569 
Q 3091 672 3220 851 
Q 3350 1031 3350 1244 
Q 3350 1459 3225 1620 
Q 3100 1781 2813 1891 
Q 2628 1963 1997 2114 
Q 1366 2266 1113 2400 
Q 784 2572 623 2826 
Q 463 3081 463 3397 
Q 463 3744 659 4045 
Q 856 4347 1234 4503 
Q 1613 4659 2075 4659 
Q 2584 4659 2973 4495 
Q 3363 4331 3572 4012 
Q 3781 3694 3797 3291 
L 3216 3247 
Q 3169 3681 2898 3903 
Q 2628 4125 2100 4125 
Q 1550 4125 1298 3923 
Q 1047 3722 1047 3438 
Q 1047 3191 1225 3031 
Q 1400 2872 2139 2705 
Q 2878 2538 3153 2413 
Q 3553 2228 3743 1945 
Q 3934 1663 3934 1294 
Q 3934 928 3725 604 
Q 3516 281 3123 101 
Q 2731 -78 2241 -78 
Q 1619 -78 1198 103 
Q 778 284 539 648 
Q 300 1013 288 1472 
z
" transform="scale(0.015625)"/>
        <path id="ArialMT-74" d="M 1650 503 
L 1731 6 
Q 1494 -44 1306 -44 
Q 1000 -44 831 53 
Q 663 150 594 308 
Q 525 466 525 972 
L 525 2881 
L 113 2881 
L 113 3319 
L 525 3319 
L 525 4141 
L 1084 4478 
L 1084 3319 
L 1650 3319 
L 1650 2881 
L 1084 2881 
L 1084 941 
Q 1084 700 1114 631 
Q 1144 563 1211 522 
Q 1278 481 1403 481 
Q 1497 481 1650 503 
z
" transform="scale(0.015625)"/>
        <path id="ArialMT-61" d="M 2588 409 
Q 2275 144 1986 34 
Q 1697 -75 1366 -75 
Q 819 -75 525 192 
Q 231 459 231 875 
Q 231 1119 342 1320 
Q 453 1522 633 1644 
Q 813 1766 1038 1828 
Q 1203 1872 1538 1913 
Q 2219 1994 2541 2106 
Q 2544 2222 2544 2253 
Q 2544 2597 2384 2738 
Q 2169 2928 1744 2928 
Q 1347 2928 1158 2789 
Q 969 2650 878 2297 
L 328 2372 
Q 403 2725 575 2942 
Q 747 3159 1072 3276 
Q 1397 3394 1825 3394 
Q 2250 3394 2515 3294 
Q 2781 3194 2906 3042 
Q 3031 2891 3081 2659 
Q 3109 2516 3109 2141 
L 3109 1391 
Q 3109 606 3145 398 
Q 3181 191 3288 0 
L 2700 0 
Q 2613 175 2588 409 
z
M 2541 1666 
Q 2234 1541 1622 1453 
Q 1275 1403 1131 1340 
Q 988 1278 909 1158 
Q 831 1038 831 891 
Q 831 666 1001 516 
Q 1172 366 1500 366 
Q 1825 366 2078 508 
Q 2331 650 2450 897 
Q 2541 1088 2541 1459 
L 2541 1666 
z
" transform="scale(0.015625)"/>
        <path id="ArialMT-65" d="M 2694 1069 
L 3275 997 
Q 3138 488 2766 206 
Q 2394 -75 1816 -75 
Q 1088 -75 661 373 
Q 234 822 234 1631 
Q 234 2469 665 2931 
Q 1097 3394 1784 3394 
Q 2450 3394 2872 2941 
Q 3294 2488 3294 1666 
Q 3294 1616 3291 1516 
L 816 1516 
Q 847 969 1125 678 
Q 1403 388 1819 388 
Q 2128 388 2347 550 
Q 2566 713 2694 1069 
z
M 847 1978 
L 2700 1978 
Q 2663 2397 2488 2606 
Q 2219 2931 1791 2931 
Q 1403 2931 1139 2672 
Q 875 2413 847 1978 
z
" transform="scale(0.015625)"/>
        <path id="ArialMT-20" transform="scale(0.015625)"/>
        <path id="ArialMT-31" d="M 2384 0 
L 1822 0 
L 1822 3584 
Q 1619 3391 1289 3197 
Q 959 3003 697 2906 
L 697 3450 
Q 1169 3672 1522 3987 
Q 1875 4303 2022 4600 
L 2384 4600 
L 2384 0 
z
" transform="scale(0.015625)"/>
       </defs>
       <use xlink:href="#ArialMT-53"/>
       <use xlink:href="#ArialMT-74" x="66.699219"/>
       <use xlink:href="#ArialMT-61" x="94.482422"/>
       <use xlink:href="#ArialMT-74" x="150.097656"/>
       <use xlink:href="#ArialMT-65" x="177.880859"/>
       <use xlink:href="#ArialMT-20" x="233.496094"/>
       <use xlink:href="#ArialMT-31" x="261.279297"/>
      </g>
     </g>
    </g>
    <g id="xtick_2">
     <g id="line2d_2">
      <g>
       <use xlink:href="#m1e5bbbc9c8" x="299.25" y="320.4" style="fill: #262626; stroke: #262626; stroke-width: 1.25"/>
      </g>
     </g>
     <g id="text_2">
      <!-- State 2 -->
      <g style="fill: #262626" transform="translate(280.2375 338.489375) scale(0.12 -0.12)">
       <defs>
        <path id="ArialMT-32" d="M 3222 541 
L 3222 0 
L 194 0 
Q 188 203 259 391 
Q 375 700 629 1000 
Q 884 1300 1366 1694 
Q 2113 2306 2375 2664 
Q 2638 3022 2638 3341 
Q 2638 3675 2398 3904 
Q 2159 4134 1775 4134 
Q 1369 4134 1125 3890 
Q 881 3647 878 3216 
L 300 3275 
Q 359 3922 746 4261 
Q 1134 4600 1788 4600 
Q 2447 4600 2831 4234 
Q 3216 3869 3216 3328 
Q 3216 3053 3103 2787 
Q 2991 2522 2730 2228 
Q 2469 1934 1863 1422 
Q 1356 997 1212 845 
Q 1069 694 975 541 
L 3222 541 
z
" transform="scale(0.015625)"/>
       </defs>
       <use xlink:href="#ArialMT-53"/>
       <use xlink:href="#ArialMT-74" x="66.699219"/>
       <use xlink:href="#ArialMT-61" x="94.482422"/>
       <use xlink:href="#ArialMT-74" x="150.097656"/>
       <use xlink:href="#ArialMT-65" x="177.880859"/>
       <use xlink:href="#ArialMT-20" x="233.496094"/>
       <use xlink:href="#ArialMT-32" x="261.279297"/>
      </g>
     </g>
    </g>
    <g id="xtick_3">
     <g id="line2d_3">
      <g>
       <use xlink:href="#m1e5bbbc9c8" x="438.75" y="320.4" style="fill: #262626; stroke: #262626; stroke-width: 1.25"/>
      </g>
     </g>
     <g id="text_3">
      <!-- State 3 -->
      <g style="fill: #262626" transform="translate(419.7375 338.489375) scale(0.12 -0.12)">
       <defs>
        <path id="ArialMT-33" d="M 269 1209 
L 831 1284 
Q 928 806 1161 595 
Q 1394 384 1728 384 
Q 2125 384 2398 659 
Q 2672 934 2672 1341 
Q 2672 1728 2419 1979 
Q 2166 2231 1775 2231 
Q 1616 2231 1378 2169 
L 1441 2663 
Q 1497 2656 1531 2656 
Q 1891 2656 2178 2843 
Q 2466 3031 2466 3422 
Q 2466 3731 2256 3934 
Q 2047 4138 1716 4138 
Q 1388 4138 1169 3931 
Q 950 3725 888 3313 
L 325 3413 
Q 428 3978 793 4289 
Q 1159 4600 1703 4600 
Q 2078 4600 2393 4439 
Q 2709 4278 2876 4000 
Q 3044 3722 3044 3409 
Q 3044 3113 2884 2869 
Q 2725 2625 2413 2481 
Q 2819 2388 3044 2092 
Q 3269 1797 3269 1353 
Q 3269 753 2831 336 
Q 2394 -81 1725 -81 
Q 1122 -81 723 278 
Q 325 638 269 1209 
z
" transform="scale(0.015625)"/>
       </defs>
       <use xlink:href="#ArialMT-53"/>
       <use xlink:href="#ArialMT-74" x="66.699219"/>
       <use xlink:href="#ArialMT-61" x="94.482422"/>
       <use xlink:href="#ArialMT-74" x="150.097656"/>
       <use xlink:href="#ArialMT-65" x="177.880859"/>
       <use xlink:href="#ArialMT-20" x="233.496094"/>
       <use xlink:href="#ArialMT-33" x="261.279297"/>
      </g>
     </g>
    </g>
    <g id="xtick_4">
     <g id="line2d_4">
      <g>
       <use xlink:href="#m1e5bbbc9c8" x="578.25" y="320.4" style="fill: #262626; stroke: #262626; stroke-width: 1.25"/>
      </g>
     </g>
     <g id="text_4">
      <!-- State 4 -->
      <g style="fill: #262626" transform="translate(559.2375 338.489375) scale(0.12 -0.12)">
       <defs>
        <path id="ArialMT-34" d="M 2069 0 
L 2069 1097 
L 81 1097 
L 81 1613 
L 2172 4581 
L 2631 4581 
L 2631 1613 
L 3250 1613 
L 3250 1097 
L 2631 1097 
L 2631 0 
L 2069 0 
z
M 2069 1613 
L 2069 3678 
L 634 1613 
L 2069 1613 
z
" transform="scale(0.015625)"/>
       </defs>
       <use xlink:href="#ArialMT-53"/>
       <use xlink:href="#ArialMT-74" x="66.699219"/>
       <use xlink:href="#ArialMT-61" x="94.482422"/>
       <use xlink:href="#ArialMT-74" x="150.097656"/>
       <use xlink:href="#ArialMT-65" x="177.880859"/>
       <use xlink:href="#ArialMT-20" x="233.496094"/>
       <use xlink:href="#ArialMT-34" x="261.279297"/>
      </g>
     </g>
    </g>
   </g>
   <g id="matplotlib.axis_2">
    <g id="ytick_1">
     <g id="line2d_5">
      <defs>
       <path id="m1d87de6fed" d="M 0 0 
L -6 0 
" style="stroke: #262626; stroke-width: 1.25"/>
      </defs>
      <g>
       <use xlink:href="#m1d87de6fed" x="90" y="297.287508" style="fill: #262626; stroke: #262626; stroke-width: 1.25"/>
      </g>
     </g>
     <g id="text_5">
      <!-- 0 -->
      <g style="fill: #262626" transform="translate(74.382969 301.224305) scale(0.11 -0.11)">
       <defs>
        <path id="ArialMT-30" d="M 266 2259 
Q 266 3072 433 3567 
Q 600 4063 929 4331 
Q 1259 4600 1759 4600 
Q 2128 4600 2406 4451 
Q 2684 4303 2865 4023 
Q 3047 3744 3150 3342 
Q 3253 2941 3253 2259 
Q 3253 1453 3087 958 
Q 2922 463 2592 192 
Q 2263 -78 1759 -78 
Q 1097 -78 719 397 
Q 266 969 266 2259 
z
M 844 2259 
Q 844 1131 1108 757 
Q 1372 384 1759 384 
Q 2147 384 2411 759 
Q 2675 1134 2675 2259 
Q 2675 3391 2411 3762 
Q 2147 4134 1753 4134 
Q 1366 4134 1134 3806 
Q 844 3388 844 2259 
z
" transform="scale(0.015625)"/>
       </defs>
       <use xlink:href="#ArialMT-30"/>
      </g>
     </g>
    </g>
    <g id="ytick_2">
     <g id="line2d_6">
      <g>
       <use xlink:href="#m1d87de6fed" x="90" y="265.954421" style="fill: #262626; stroke: #262626; stroke-width: 1.25"/>
      </g>
     </g>
     <g id="text_6">
      <!-- 20 -->
      <g style="fill: #262626" transform="translate(68.265938 269.891217) scale(0.11 -0.11)">
       <use xlink:href="#ArialMT-32"/>
       <use xlink:href="#ArialMT-30" x="55.615234"/>
      </g>
     </g>
    </g>
    <g id="ytick_3">
     <g id="line2d_7">
      <g>
       <use xlink:href="#m1d87de6fed" x="90" y="234.621333" style="fill: #262626; stroke: #262626; stroke-width: 1.25"/>
      </g>
     </g>
     <g id="text_7">
      <!-- 40 -->
      <g style="fill: #262626" transform="translate(68.265938 238.55813) scale(0.11 -0.11)">
       <use xlink:href="#ArialMT-34"/>
       <use xlink:href="#ArialMT-30" x="55.615234"/>
      </g>
     </g>
    </g>
    <g id="ytick_4">
     <g id="line2d_8">
      <g>
       <use xlink:href="#m1d87de6fed" x="90" y="203.288245" style="fill: #262626; stroke: #262626; stroke-width: 1.25"/>
      </g>
     </g>
     <g id="text_8">
      <!-- 60 -->
      <g style="fill: #262626" transform="translate(68.265938 207.225042) scale(0.11 -0.11)">
       <defs>
        <path id="ArialMT-36" d="M 3184 3459 
L 2625 3416 
Q 2550 3747 2413 3897 
Q 2184 4138 1850 4138 
Q 1581 4138 1378 3988 
Q 1113 3794 959 3422 
Q 806 3050 800 2363 
Q 1003 2672 1297 2822 
Q 1591 2972 1913 2972 
Q 2475 2972 2870 2558 
Q 3266 2144 3266 1488 
Q 3266 1056 3080 686 
Q 2894 316 2569 119 
Q 2244 -78 1831 -78 
Q 1128 -78 684 439 
Q 241 956 241 2144 
Q 241 3472 731 4075 
Q 1159 4600 1884 4600 
Q 2425 4600 2770 4297 
Q 3116 3994 3184 3459 
z
M 888 1484 
Q 888 1194 1011 928 
Q 1134 663 1356 523 
Q 1578 384 1822 384 
Q 2178 384 2434 671 
Q 2691 959 2691 1453 
Q 2691 1928 2437 2201 
Q 2184 2475 1800 2475 
Q 1419 2475 1153 2201 
Q 888 1928 888 1484 
z
" transform="scale(0.015625)"/>
       </defs>
       <use xlink:href="#ArialMT-36"/>
       <use xlink:href="#ArialMT-30" x="55.615234"/>
      </g>
     </g>
    </g>
    <g id="ytick_5">
     <g id="line2d_9">
      <g>
       <use xlink:href="#m1d87de6fed" x="90" y="171.955158" style="fill: #262626; stroke: #262626; stroke-width: 1.25"/>
      </g>
     </g>
     <g id="text_9">
      <!-- 80 -->
      <g style="fill: #262626" transform="translate(68.265938 175.891954) scale(0.11 -0.11)">
       <defs>
        <path id="ArialMT-38" d="M 1131 2484 
Q 781 2613 612 2850 
Q 444 3088 444 3419 
Q 444 3919 803 4259 
Q 1163 4600 1759 4600 
Q 2359 4600 2725 4251 
Q 3091 3903 3091 3403 
Q 3091 3084 2923 2848 
Q 2756 2613 2416 2484 
Q 2838 2347 3058 2040 
Q 3278 1734 3278 1309 
Q 3278 722 2862 322 
Q 2447 -78 1769 -78 
Q 1091 -78 675 323 
Q 259 725 259 1325 
Q 259 1772 486 2073 
Q 713 2375 1131 2484 
z
M 1019 3438 
Q 1019 3113 1228 2906 
Q 1438 2700 1772 2700 
Q 2097 2700 2305 2904 
Q 2513 3109 2513 3406 
Q 2513 3716 2298 3927 
Q 2084 4138 1766 4138 
Q 1444 4138 1231 3931 
Q 1019 3725 1019 3438 
z
M 838 1322 
Q 838 1081 952 856 
Q 1066 631 1291 507 
Q 1516 384 1775 384 
Q 2178 384 2440 643 
Q 2703 903 2703 1303 
Q 2703 1709 2433 1975 
Q 2163 2241 1756 2241 
Q 1359 2241 1098 1978 
Q 838 1716 838 1322 
z
" transform="scale(0.015625)"/>
       </defs>
       <use xlink:href="#ArialMT-38"/>
       <use xlink:href="#ArialMT-30" x="55.615234"/>
      </g>
     </g>
    </g>
    <g id="ytick_6">
     <g id="line2d_10">
      <g>
       <use xlink:href="#m1d87de6fed" x="90" y="140.62207" style="fill: #262626; stroke: #262626; stroke-width: 1.25"/>
      </g>
     </g>
     <g id="text_10">
      <!-- 100 -->
      <g style="fill: #262626" transform="translate(62.148906 144.558867) scale(0.11 -0.11)">
       <use xlink:href="#ArialMT-31"/>
       <use xlink:href="#ArialMT-30" x="55.615234"/>
       <use xlink:href="#ArialMT-30" x="111.230469"/>
      </g>
     </g>
    </g>
    <g id="ytick_7">
     <g id="line2d_11">
      <g>
       <use xlink:href="#m1d87de6fed" x="90" y="109.288982" style="fill: #262626; stroke: #262626; stroke-width: 1.25"/>
      </g>
     </g>
     <g id="text_11">
      <!-- 120 -->
      <g style="fill: #262626" transform="translate(62.148906 113.225779) scale(0.11 -0.11)">
       <use xlink:href="#ArialMT-31"/>
       <use xlink:href="#ArialMT-32" x="55.615234"/>
       <use xlink:href="#ArialMT-30" x="111.230469"/>
      </g>
     </g>
    </g>
    <g id="ytick_8">
     <g id="line2d_12">
      <g>
       <use xlink:href="#m1d87de6fed" x="90" y="77.955895" style="fill: #262626; stroke: #262626; stroke-width: 1.25"/>
      </g>
     </g>
     <g id="text_12">
      <!-- 140 -->
      <g style="fill: #262626" transform="translate(62.148906 81.892691) scale(0.11 -0.11)">
       <use xlink:href="#ArialMT-31"/>
       <use xlink:href="#ArialMT-34" x="55.615234"/>
       <use xlink:href="#ArialMT-30" x="111.230469"/>
      </g>
     </g>
    </g>
    <g id="ytick_9">
     <g id="line2d_13">
      <g>
       <use xlink:href="#m1d87de6fed" x="90" y="46.622807" style="fill: #262626; stroke: #262626; stroke-width: 1.25"/>
      </g>
     </g>
     <g id="text_13">
      <!-- 160 -->
      <g style="fill: #262626" transform="translate(62.148906 50.559604) scale(0.11 -0.11)">
       <use xlink:href="#ArialMT-31"/>
       <use xlink:href="#ArialMT-36" x="55.615234"/>
       <use xlink:href="#ArialMT-30" x="111.230469"/>
      </g>
     </g>
    </g>
    <g id="text_14">
     <!-- Time (s) -->
     <g style="fill: #262626" transform="translate(55.623281 203.569687) rotate(-90) scale(0.12 -0.12)">
      <defs>
       <path id="ArialMT-54" d="M 1659 0 
L 1659 4041 
L 150 4041 
L 150 4581 
L 3781 4581 
L 3781 4041 
L 2266 4041 
L 2266 0 
L 1659 0 
z
" transform="scale(0.015625)"/>
       <path id="ArialMT-69" d="M 425 3934 
L 425 4581 
L 988 4581 
L 988 3934 
L 425 3934 
z
M 425 0 
L 425 3319 
L 988 3319 
L 988 0 
L 425 0 
z
" transform="scale(0.015625)"/>
       <path id="ArialMT-6d" d="M 422 0 
L 422 3319 
L 925 3319 
L 925 2853 
Q 1081 3097 1340 3245 
Q 1600 3394 1931 3394 
Q 2300 3394 2536 3241 
Q 2772 3088 2869 2813 
Q 3263 3394 3894 3394 
Q 4388 3394 4653 3120 
Q 4919 2847 4919 2278 
L 4919 0 
L 4359 0 
L 4359 2091 
Q 4359 2428 4304 2576 
Q 4250 2725 4106 2815 
Q 3963 2906 3769 2906 
Q 3419 2906 3187 2673 
Q 2956 2441 2956 1928 
L 2956 0 
L 2394 0 
L 2394 2156 
Q 2394 2531 2256 2718 
Q 2119 2906 1806 2906 
Q 1569 2906 1367 2781 
Q 1166 2656 1075 2415 
Q 984 2175 984 1722 
L 984 0 
L 422 0 
z
" transform="scale(0.015625)"/>
       <path id="ArialMT-28" d="M 1497 -1347 
Q 1031 -759 709 28 
Q 388 816 388 1659 
Q 388 2403 628 3084 
Q 909 3875 1497 4659 
L 1900 4659 
Q 1522 4009 1400 3731 
Q 1209 3300 1100 2831 
Q 966 2247 966 1656 
Q 966 153 1900 -1347 
L 1497 -1347 
z
" transform="scale(0.015625)"/>
       <path id="ArialMT-73" d="M 197 991 
L 753 1078 
Q 800 744 1014 566 
Q 1228 388 1613 388 
Q 2000 388 2187 545 
Q 2375 703 2375 916 
Q 2375 1106 2209 1216 
Q 2094 1291 1634 1406 
Q 1016 1563 777 1677 
Q 538 1791 414 1992 
Q 291 2194 291 2438 
Q 291 2659 392 2848 
Q 494 3038 669 3163 
Q 800 3259 1026 3326 
Q 1253 3394 1513 3394 
Q 1903 3394 2198 3281 
Q 2494 3169 2634 2976 
Q 2775 2784 2828 2463 
L 2278 2388 
Q 2241 2644 2061 2787 
Q 1881 2931 1553 2931 
Q 1166 2931 1000 2803 
Q 834 2675 834 2503 
Q 834 2394 903 2306 
Q 972 2216 1119 2156 
Q 1203 2125 1616 2013 
Q 2213 1853 2448 1751 
Q 2684 1650 2818 1456 
Q 2953 1263 2953 975 
Q 2953 694 2789 445 
Q 2625 197 2315 61 
Q 2006 -75 1616 -75 
Q 969 -75 630 194 
Q 291 463 197 991 
z
" transform="scale(0.015625)"/>
       <path id="ArialMT-29" d="M 791 -1347 
L 388 -1347 
Q 1322 153 1322 1656 
Q 1322 2244 1188 2822 
Q 1081 3291 891 3722 
Q 769 4003 388 4659 
L 791 4659 
Q 1378 3875 1659 3084 
Q 1900 2403 1900 1659 
Q 1900 816 1576 28 
Q 1253 -759 791 -1347 
z
" transform="scale(0.015625)"/>
      </defs>
      <use xlink:href="#ArialMT-54"/>
      <use xlink:href="#ArialMT-69" x="57.333984"/>
      <use xlink:href="#ArialMT-6d" x="79.550781"/>
      <use xlink:href="#ArialMT-65" x="162.851562"/>
      <use xlink:href="#ArialMT-20" x="218.466797"/>
      <use xlink:href="#ArialMT-28" x="246.25"/>
      <use xlink:href="#ArialMT-73" x="279.550781"/>
      <use xlink:href="#ArialMT-29" x="329.550781"/>
     </g>
    </g>
   </g>
   <g id="PolyCollection_1">
    <defs>
     <path id="m9c2208a5ea" d="M 160.347738 -65.309775 
L 159.152262 -65.309775 
L 158.881099 -66.707105 
L 158.512286 -68.104436 
L 158.021624 -69.501766 
L 157.382948 -70.899097 
L 156.56934 -72.296427 
L 155.55477 -73.693758 
L 154.316112 -75.091088 
L 152.835473 -76.488418 
L 151.102695 -77.885749 
L 149.117877 -79.283079 
L 146.893727 -80.68041 
L 144.457503 -82.07774 
L 141.852264 -83.475071 
L 139.137149 -84.872401 
L 136.386381 -86.269731 
L 133.686749 -87.667062 
L 131.133442 -89.064392 
L 128.824323 -90.461723 
L 126.852956 -91.859053 
L 125.301009 -93.256383 
L 124.230905 -94.653714 
L 123.679712 -96.051044 
L 123.655252 -97.448375 
L 124.135168 -98.845705 
L 125.069295 -100.243036 
L 126.385149 -101.640366 
L 127.995825 -103.037696 
L 129.809186 -104.435027 
L 131.736993 -105.832357 
L 133.702679 -107.229688 
L 135.646733 -108.627018 
L 137.529151 -110.024348 
L 139.328898 -111.421679 
L 141.040877 -112.819009 
L 142.671211 -114.21634 
L 144.231859 -115.61367 
L 145.735518 -117.011001 
L 147.191596 -118.408331 
L 148.603717 -119.805661 
L 149.968887 -121.202992 
L 151.278161 -122.600322 
L 152.518405 -123.997653 
L 153.674667 -125.394983 
L 154.732635 -126.792314 
L 155.680759 -128.189644 
L 156.511754 -129.586974 
L 157.223341 -130.984305 
L 157.818245 -132.381635 
L 158.303585 -133.778966 
L 158.68985 -135.176296 
L 158.989673 -136.573626 
L 159.216618 -137.970957 
L 159.384114 -139.368287 
L 159.50464 -140.765618 
L 159.589191 -142.162948 
L 159.647013 -143.560279 
L 159.685554 -144.957609 
L 159.710585 -146.354939 
L 159.726407 -147.75227 
L 159.736109 -149.1496 
L 159.741818 -150.546931 
L 159.744927 -151.944261 
L 159.746274 -153.341591 
L 159.746272 -154.738922 
L 159.744995 -156.136252 
L 159.742213 -157.533583 
L 159.7374 -158.930913 
L 159.72971 -160.328244 
L 159.71795 -161.725574 
L 159.700559 -163.122904 
L 159.675617 -164.520235 
L 159.640897 -165.917565 
L 159.594002 -167.314896 
L 159.532576 -168.712226 
L 159.45461 -170.109556 
L 159.358811 -171.506887 
L 159.245017 -172.904217 
L 159.114572 -174.301548 
L 158.970607 -175.698878 
L 158.818149 -177.096209 
L 158.663985 -178.493539 
L 158.516255 -179.890869 
L 158.383799 -181.2882 
L 158.275299 -182.68553 
L 158.198353 -184.082861 
L 158.158591 -185.480191 
L 158.158998 -186.877522 
L 158.199544 -188.274852 
L 158.277186 -189.672182 
L 158.386245 -191.069513 
L 158.519095 -192.466843 
L 158.66704 -193.864174 
L 158.821246 -195.261504 
L 158.973595 -196.658834 
L 159.117332 -198.056165 
L 159.247468 -199.453495 
L 159.360909 -200.850826 
L 159.456344 -202.248156 
L 159.533964 -203.645487 
L 159.966036 -203.645487 
L 159.966036 -203.645487 
L 160.043656 -202.248156 
L 160.139091 -200.850826 
L 160.252532 -199.453495 
L 160.382668 -198.056165 
L 160.526405 -196.658834 
L 160.678754 -195.261504 
L 160.83296 -193.864174 
L 160.980905 -192.466843 
L 161.113755 -191.069513 
L 161.222814 -189.672182 
L 161.300456 -188.274852 
L 161.341002 -186.877522 
L 161.341409 -185.480191 
L 161.301647 -184.082861 
L 161.224701 -182.68553 
L 161.116201 -181.2882 
L 160.983745 -179.890869 
L 160.836015 -178.493539 
L 160.681851 -177.096209 
L 160.529393 -175.698878 
L 160.385428 -174.301548 
L 160.254983 -172.904217 
L 160.141189 -171.506887 
L 160.04539 -170.109556 
L 159.967424 -168.712226 
L 159.905998 -167.314896 
L 159.859103 -165.917565 
L 159.824383 -164.520235 
L 159.799441 -163.122904 
L 159.78205 -161.725574 
L 159.77029 -160.328244 
L 159.7626 -158.930913 
L 159.757787 -157.533583 
L 159.755005 -156.136252 
L 159.753728 -154.738922 
L 159.753726 -153.341591 
L 159.755073 -151.944261 
L 159.758182 -150.546931 
L 159.763891 -149.1496 
L 159.773593 -147.75227 
L 159.789415 -146.354939 
L 159.814446 -144.957609 
L 159.852987 -143.560279 
L 159.910809 -142.162948 
L 159.99536 -140.765618 
L 160.115886 -139.368287 
L 160.283382 -137.970957 
L 160.510327 -136.573626 
L 160.81015 -135.176296 
L 161.196415 -133.778966 
L 161.681755 -132.381635 
L 162.276659 -130.984305 
L 162.988246 -129.586974 
L 163.819241 -128.189644 
L 164.767365 -126.792314 
L 165.825333 -125.394983 
L 166.981595 -123.997653 
L 168.221839 -122.600322 
L 169.531113 -121.202992 
L 170.896283 -119.805661 
L 172.308404 -118.408331 
L 173.764482 -117.011001 
L 175.268141 -115.61367 
L 176.828789 -114.21634 
L 178.459123 -112.819009 
L 180.171102 -111.421679 
L 181.970849 -110.024348 
L 183.853267 -108.627018 
L 185.797321 -107.229688 
L 187.763007 -105.832357 
L 189.690814 -104.435027 
L 191.504175 -103.037696 
L 193.114851 -101.640366 
L 194.430705 -100.243036 
L 195.364832 -98.845705 
L 195.844748 -97.448375 
L 195.820288 -96.051044 
L 195.269095 -94.653714 
L 194.198991 -93.256383 
L 192.647044 -91.859053 
L 190.675677 -90.461723 
L 188.366558 -89.064392 
L 185.813251 -87.667062 
L 183.113619 -86.269731 
L 180.362851 -84.872401 
L 177.647736 -83.475071 
L 175.042497 -82.07774 
L 172.606273 -80.68041 
L 170.382123 -79.283079 
L 168.397305 -77.885749 
L 166.664527 -76.488418 
L 165.183888 -75.091088 
L 163.94523 -73.693758 
L 162.93066 -72.296427 
L 162.117052 -70.899097 
L 161.478376 -69.501766 
L 160.987714 -68.104436 
L 160.618901 -66.707105 
L 160.347738 -65.309775 
z
" style="stroke: #d55e00; stroke-width: 2"/>
    </defs>
    <g clip-path="url(#peac0156b5e)">
     <use xlink:href="#m9c2208a5ea" x="0" y="360" style="fill: #d55e00; fill-opacity: 0.3; stroke: #d55e00; stroke-width: 2"/>
    </g>
   </g>
   <g id="PolyCollection_2">
    <defs>
     <path id="m41f6279246" d="M 299.780244 -65.514302 
L 298.719756 -65.514302 
L 298.521935 -66.281517 
L 298.263871 -67.048732 
L 297.931701 -67.815947 
L 297.50954 -68.583163 
L 296.979404 -69.350378 
L 296.321195 -70.117593 
L 295.512765 -70.884808 
L 294.530124 -71.652024 
L 293.347868 -72.419239 
L 291.939923 -73.186454 
L 290.280693 -73.953669 
L 288.34672 -74.720885 
L 286.118886 -75.4881 
L 283.585127 -76.255315 
L 280.743563 -77.02253 
L 277.605775 -77.789746 
L 274.199901 -78.556961 
L 270.573089 -79.324176 
L 266.792822 -80.091391 
L 262.946653 -80.858607 
L 259.139978 -81.625822 
L 255.491716 -82.393037 
L 252.127977 -83.160252 
L 249.174128 -83.927468 
L 246.745937 -84.694683 
L 244.940685 -85.461898 
L 243.829235 -86.229113 
L 243.45 -86.996329 
L 243.805578 -87.763544 
L 244.862491 -88.530759 
L 246.554079 -89.297974 
L 248.786217 -90.06519 
L 251.445156 -90.832405 
L 254.406557 -91.59962 
L 257.544713 -92.366835 
L 260.740975 -93.134051 
L 263.890627 -93.901266 
L 266.907693 -94.668481 
L 269.727504 -95.435696 
L 272.30711 -96.202912 
L 274.623896 -96.970127 
L 276.672858 -97.737342 
L 278.463102 -98.504557 
L 280.014062 -99.271773 
L 281.35186 -100.038988 
L 282.50611 -100.806203 
L 283.507319 -101.573418 
L 284.384955 -102.340634 
L 285.166115 -103.107849 
L 285.874712 -103.875064 
L 286.531048 -104.642279 
L 287.151654 -105.409495 
L 287.749311 -106.17671 
L 288.333185 -106.943925 
L 288.909055 -107.71114 
L 289.47963 -108.478356 
L 290.044974 -109.245571 
L 290.603031 -110.012786 
L 291.150261 -110.780001 
L 291.682317 -111.547217 
L 292.194744 -112.314432 
L 292.683579 -113.081647 
L 293.145805 -113.848862 
L 293.579589 -114.616078 
L 293.984272 -115.383293 
L 294.360128 -116.150508 
L 294.707957 -116.917723 
L 295.028591 -117.684939 
L 295.32244 -118.452154 
L 295.589165 -119.219369 
L 295.827565 -119.986584 
L 296.035729 -120.7538 
L 296.211417 -121.521015 
L 296.352635 -122.28823 
L 296.458293 -123.055445 
L 296.528826 -123.822661 
L 296.566682 -124.589876 
L 296.576551 -125.357091 
L 296.565306 -126.124306 
L 296.541624 -126.891522 
L 296.515338 -127.658737 
L 296.496594 -128.425952 
L 296.494929 -129.193167 
L 296.518387 -129.960383 
L 296.572783 -130.727598 
L 296.661223 -131.494813 
L 296.783914 -132.262028 
L 296.938285 -133.029244 
L 297.119383 -133.796459 
L 297.320483 -134.563674 
L 297.533823 -135.330889 
L 297.751358 -136.098105 
L 297.965458 -136.86532 
L 298.169478 -137.632535 
L 298.358141 -138.39975 
L 298.527738 -139.166966 
L 298.676149 -139.934181 
L 298.802713 -140.701396 
L 298.907989 -141.468611 
L 299.592011 -141.468611 
L 299.592011 -141.468611 
L 299.697287 -140.701396 
L 299.823851 -139.934181 
L 299.972262 -139.166966 
L 300.141859 -138.39975 
L 300.330522 -137.632535 
L 300.534542 -136.86532 
L 300.748642 -136.098105 
L 300.966177 -135.330889 
L 301.179517 -134.563674 
L 301.380617 -133.796459 
L 301.561715 -133.029244 
L 301.716086 -132.262028 
L 301.838777 -131.494813 
L 301.927217 -130.727598 
L 301.981613 -129.960383 
L 302.005071 -129.193167 
L 302.003406 -128.425952 
L 301.984662 -127.658737 
L 301.958376 -126.891522 
L 301.934694 -126.124306 
L 301.923449 -125.357091 
L 301.933318 -124.589876 
L 301.971174 -123.822661 
L 302.041707 -123.055445 
L 302.147365 -122.28823 
L 302.288583 -121.521015 
L 302.464271 -120.7538 
L 302.672435 -119.986584 
L 302.910835 -119.219369 
L 303.17756 -118.452154 
L 303.471409 -117.684939 
L 303.792043 -116.917723 
L 304.139872 -116.150508 
L 304.515728 -115.383293 
L 304.920411 -114.616078 
L 305.354195 -113.848862 
L 305.816421 -113.081647 
L 306.305256 -112.314432 
L 306.817683 -111.547217 
L 307.349739 -110.780001 
L 307.896969 -110.012786 
L 308.455026 -109.245571 
L 309.02037 -108.478356 
L 309.590945 -107.71114 
L 310.166815 -106.943925 
L 310.750689 -106.17671 
L 311.348346 -105.409495 
L 311.968952 -104.642279 
L 312.625288 -103.875064 
L 313.333885 -103.107849 
L 314.115045 -102.340634 
L 314.992681 -101.573418 
L 315.99389 -100.806203 
L 317.14814 -100.038988 
L 318.485938 -99.271773 
L 320.036898 -98.504557 
L 321.827142 -97.737342 
L 323.876104 -96.970127 
L 326.19289 -96.202912 
L 328.772496 -95.435696 
L 331.592307 -94.668481 
L 334.609373 -93.901266 
L 337.759025 -93.134051 
L 340.955287 -92.366835 
L 344.093443 -91.59962 
L 347.054844 -90.832405 
L 349.713783 -90.06519 
L 351.945921 -89.297974 
L 353.637509 -88.530759 
L 354.694422 -87.763544 
L 355.05 -86.996329 
L 354.670765 -86.229113 
L 353.559315 -85.461898 
L 351.754063 -84.694683 
L 349.325872 -83.927468 
L 346.372023 -83.160252 
L 343.008284 -82.393037 
L 339.360022 -81.625822 
L 335.553347 -80.858607 
L 331.707178 -80.091391 
L 327.926911 -79.324176 
L 324.300099 -78.556961 
L 320.894225 -77.789746 
L 317.756437 -77.02253 
L 314.914873 -76.255315 
L 312.381114 -75.4881 
L 310.15328 -74.720885 
L 308.219307 -73.953669 
L 306.560077 -73.186454 
L 305.152132 -72.419239 
L 303.969876 -71.652024 
L 302.987235 -70.884808 
L 302.178805 -70.117593 
L 301.520596 -69.350378 
L 300.99046 -68.583163 
L 300.568299 -67.815947 
L 300.236129 -67.048732 
L 299.978065 -66.281517 
L 299.780244 -65.514302 
z
" style="stroke: #0072b2; stroke-width: 2"/>
    </defs>
    <g clip-path="url(#peac0156b5e)">
     <use xlink:href="#m41f6279246" x="0" y="360" style="fill: #0072b2; fill-opacity: 0.3; stroke: #0072b2; stroke-width: 2"/>
    </g>
   </g>
   <g id="PolyCollection_3">
    <defs>
     <path id="mc190ea4e3a" d="M 439.029948 -52.2 
L 438.470052 -52.2 
L 438.367905 -54.745455 
L 438.236142 -57.290909 
L 438.068995 -59.836364 
L 437.860475 -62.381818 
L 437.604663 -64.927273 
L 437.296054 -67.472727 
L 436.929963 -70.018182 
L 436.502956 -72.563636 
L 436.013273 -75.109091 
L 435.461213 -77.654545 
L 434.849434 -80.2 
L 434.183126 -82.745455 
L 433.470043 -85.290909 
L 432.720353 -87.836364 
L 431.946323 -90.381818 
L 431.161849 -92.927273 
L 430.381862 -95.472727 
L 429.62166 -98.018182 
L 428.896225 -100.563636 
L 428.219579 -103.109091 
L 427.604242 -105.654545 
L 427.060814 -108.2 
L 426.597722 -110.745455 
L 426.221118 -113.290909 
L 425.934911 -115.836364 
L 425.740906 -118.381818 
L 425.63899 -120.927273 
L 425.62734 -123.472727 
L 425.702597 -126.018182 
L 425.860008 -128.563636 
L 426.093514 -131.109091 
L 426.395816 -133.654545 
L 426.758432 -136.2 
L 427.171802 -138.745455 
L 427.625451 -141.290909 
L 428.108246 -143.836364 
L 428.608748 -146.381818 
L 429.115642 -148.927273 
L 429.618215 -151.472727 
L 430.106826 -154.018182 
L 430.573338 -156.563636 
L 431.01144 -159.109091 
L 431.416845 -161.654545 
L 431.787341 -164.2 
L 432.122685 -166.745455 
L 432.424386 -169.290909 
L 432.695391 -171.836364 
L 432.939719 -174.381818 
L 433.162087 -176.927273 
L 433.367571 -179.472727 
L 433.561295 -182.018182 
L 433.748197 -184.563636 
L 433.932838 -187.109091 
L 434.119265 -189.654545 
L 434.310898 -192.2 
L 434.510444 -194.745455 
L 434.719817 -197.290909 
L 434.940068 -199.836364 
L 435.171326 -202.381818 
L 435.41277 -204.927273 
L 435.662635 -207.472727 
L 435.918266 -210.018182 
L 436.176236 -212.563636 
L 436.432513 -215.109091 
L 436.682684 -217.654545 
L 436.922211 -220.2 
L 437.146701 -222.745455 
L 437.35217 -225.290909 
L 437.535283 -227.836364 
L 437.693545 -230.381818 
L 437.825437 -232.927273 
L 437.930487 -235.472727 
L 438.009283 -238.018182 
L 438.063421 -240.563636 
L 438.095399 -243.109091 
L 438.10847 -245.654545 
L 438.106454 -248.2 
L 438.093533 -250.745455 
L 438.074016 -253.290909 
L 438.052119 -255.836364 
L 438.031737 -258.381818 
L 438.016248 -260.927273 
L 438.008356 -263.472727 
L 438.00997 -266.018182 
L 438.022154 -268.563636 
L 438.045125 -271.109091 
L 438.078321 -273.654545 
L 438.120516 -276.2 
L 438.169978 -278.745455 
L 438.224646 -281.290909 
L 438.282322 -283.836364 
L 438.340843 -286.381818 
L 438.398233 -288.927273 
L 438.452816 -291.472727 
L 438.503289 -294.018182 
L 438.548749 -296.563636 
L 438.588688 -299.109091 
L 438.62295 -301.654545 
L 438.651677 -304.2 
L 438.848323 -304.2 
L 438.848323 -304.2 
L 438.87705 -301.654545 
L 438.911312 -299.109091 
L 438.951251 -296.563636 
L 438.996711 -294.018182 
L 439.047184 -291.472727 
L 439.101767 -288.927273 
L 439.159157 -286.381818 
L 439.217678 -283.836364 
L 439.275354 -281.290909 
L 439.330022 -278.745455 
L 439.379484 -276.2 
L 439.421679 -273.654545 
L 439.454875 -271.109091 
L 439.477846 -268.563636 
L 439.49003 -266.018182 
L 439.491644 -263.472727 
L 439.483752 -260.927273 
L 439.468263 -258.381818 
L 439.447881 -255.836364 
L 439.425984 -253.290909 
L 439.406467 -250.745455 
L 439.393546 -248.2 
L 439.39153 -245.654545 
L 439.404601 -243.109091 
L 439.436579 -240.563636 
L 439.490717 -238.018182 
L 439.569513 -235.472727 
L 439.674563 -232.927273 
L 439.806455 -230.381818 
L 439.964717 -227.836364 
L 440.14783 -225.290909 
L 440.353299 -222.745455 
L 440.577789 -220.2 
L 440.817316 -217.654545 
L 441.067487 -215.109091 
L 441.323764 -212.563636 
L 441.581734 -210.018182 
L 441.837365 -207.472727 
L 442.08723 -204.927273 
L 442.328674 -202.381818 
L 442.559932 -199.836364 
L 442.780183 -197.290909 
L 442.989556 -194.745455 
L 443.189102 -192.2 
L 443.380735 -189.654545 
L 443.567162 -187.109091 
L 443.751803 -184.563636 
L 443.938705 -182.018182 
L 444.132429 -179.472727 
L 444.337913 -176.927273 
L 444.560281 -174.381818 
L 444.804609 -171.836364 
L 445.075614 -169.290909 
L 445.377315 -166.745455 
L 445.712659 -164.2 
L 446.083155 -161.654545 
L 446.48856 -159.109091 
L 446.926662 -156.563636 
L 447.393174 -154.018182 
L 447.881785 -151.472727 
L 448.384358 -148.927273 
L 448.891252 -146.381818 
L 449.391754 -143.836364 
L 449.874549 -141.290909 
L 450.328198 -138.745455 
L 450.741568 -136.2 
L 451.104184 -133.654545 
L 451.406486 -131.109091 
L 451.639992 -128.563636 
L 451.797403 -126.018182 
L 451.87266 -123.472727 
L 451.86101 -120.927273 
L 451.759094 -118.381818 
L 451.565089 -115.836364 
L 451.278882 -113.290909 
L 450.902278 -110.745455 
L 450.439186 -108.2 
L 449.895758 -105.654545 
L 449.280421 -103.109091 
L 448.603775 -100.563636 
L 447.87834 -98.018182 
L 447.118138 -95.472727 
L 446.338151 -92.927273 
L 445.553677 -90.381818 
L 444.779647 -87.836364 
L 444.029957 -85.290909 
L 443.316874 -82.745455 
L 442.650566 -80.2 
L 442.038787 -77.654545 
L 441.486727 -75.109091 
L 440.997044 -72.563636 
L 440.570037 -70.018182 
L 440.203946 -67.472727 
L 439.895337 -64.927273 
L 439.639525 -62.381818 
L 439.431005 -59.836364 
L 439.263858 -57.290909 
L 439.132095 -54.745455 
L 439.029948 -52.2 
z
" style="stroke: #009e73; stroke-width: 2"/>
    </defs>
    <g clip-path="url(#peac0156b5e)">
     <use xlink:href="#mc190ea4e3a" x="0" y="360" style="fill: #009e73; fill-opacity: 0.3; stroke: #009e73; stroke-width: 2"/>
    </g>
   </g>
   <g id="PolyCollection_4">
    <defs>
     <path id="m880862672c" d="M 578.981116 -58.128295 
L 577.518884 -58.128295 
L 577.229676 -59.807792 
L 576.849367 -61.487289 
L 576.358685 -63.166786 
L 575.73768 -64.846283 
L 574.966968 -66.52578 
L 574.02932 -68.205277 
L 572.911553 -69.884774 
L 571.606589 -71.564271 
L 570.115501 -73.243768 
L 568.449331 -74.923265 
L 566.630417 -76.602763 
L 564.692993 -78.28226 
L 562.682826 -79.961757 
L 560.655781 -81.641254 
L 558.675274 -83.320751 
L 556.80873 -85.000248 
L 555.123287 -86.679745 
L 553.681131 -88.359242 
L 552.534916 -90.038739 
L 551.72375 -91.718236 
L 551.270228 -93.397734 
L 551.178846 -95.077231 
L 551.43602 -96.756728 
L 552.011706 -98.436225 
L 552.862439 -100.115722 
L 553.935442 -101.795219 
L 555.173303 -103.474716 
L 556.518684 -105.154213 
L 557.918552 -106.83371 
L 559.32748 -108.513207 
L 560.709759 -110.192705 
L 562.040213 -111.872202 
L 563.30378 -113.551699 
L 564.494103 -115.231196 
L 565.611451 -116.910693 
L 566.66036 -118.59019 
L 567.647338 -120.269687 
L 568.578946 -121.949184 
L 569.460437 -123.628681 
L 570.295032 -125.308178 
L 571.083799 -126.987675 
L 571.826012 -128.667173 
L 572.519814 -130.34667 
L 573.162998 -132.026167 
L 573.75373 -133.705664 
L 574.291085 -135.385161 
L 574.775331 -137.064658 
L 575.207953 -138.744155 
L 575.591444 -140.423652 
L 575.928963 -142.103149 
L 576.223919 -143.782646 
L 576.479599 -145.462144 
L 576.698876 -147.141641 
L 576.884064 -148.821138 
L 577.036917 -150.500635 
L 577.158761 -152.180132 
L 577.250719 -153.859629 
L 577.31399 -155.539126 
L 577.350123 -157.218623 
L 577.36124 -158.89812 
L 577.350181 -160.577617 
L 577.320526 -162.257115 
L 577.276509 -163.936612 
L 577.222814 -165.616109 
L 577.164286 -167.295606 
L 577.105589 -168.975103 
L 577.050842 -170.6546 
L 577.003309 -172.334097 
L 576.965153 -174.013594 
L 576.937313 -175.693091 
L 576.91952 -177.372588 
L 576.910449 -179.052086 
L 576.908006 -180.731583 
L 576.909694 -182.41108 
L 576.913033 -184.090577 
L 576.91596 -185.770074 
L 576.917164 -187.449571 
L 576.916303 -189.129068 
L 576.914077 -190.808565 
L 576.912151 -192.488062 
L 576.912932 -194.167559 
L 576.919247 -195.847056 
L 576.933953 -197.526554 
L 576.959557 -199.206051 
L 576.997874 -200.885548 
L 577.049786 -202.565045 
L 577.115124 -204.244542 
L 577.192673 -205.924039 
L 577.280308 -207.603536 
L 577.375216 -209.283033 
L 577.474182 -210.96253 
L 577.573889 -212.642027 
L 577.671203 -214.321525 
L 577.763401 -216.001022 
L 577.848332 -217.680519 
L 577.924502 -219.360016 
L 577.99108 -221.039513 
L 578.047846 -222.71901 
L 578.095093 -224.398507 
L 578.404907 -224.398507 
L 578.404907 -224.398507 
L 578.452154 -222.71901 
L 578.50892 -221.039513 
L 578.575498 -219.360016 
L 578.651668 -217.680519 
L 578.736599 -216.001022 
L 578.828797 -214.321525 
L 578.926111 -212.642027 
L 579.025818 -210.96253 
L 579.124784 -209.283033 
L 579.219692 -207.603536 
L 579.307327 -205.924039 
L 579.384876 -204.244542 
L 579.450214 -202.565045 
L 579.502126 -200.885548 
L 579.540443 -199.206051 
L 579.566047 -197.526554 
L 579.580753 -195.847056 
L 579.587068 -194.167559 
L 579.587849 -192.488062 
L 579.585923 -190.808565 
L 579.583697 -189.129068 
L 579.582836 -187.449571 
L 579.58404 -185.770074 
L 579.586967 -184.090577 
L 579.590306 -182.41108 
L 579.591994 -180.731583 
L 579.589551 -179.052086 
L 579.58048 -177.372588 
L 579.562687 -175.693091 
L 579.534847 -174.013594 
L 579.496691 -172.334097 
L 579.449158 -170.6546 
L 579.394411 -168.975103 
L 579.335714 -167.295606 
L 579.277186 -165.616109 
L 579.223491 -163.936612 
L 579.179474 -162.257115 
L 579.149819 -160.577617 
L 579.13876 -158.89812 
L 579.149877 -157.218623 
L 579.18601 -155.539126 
L 579.249281 -153.859629 
L 579.341239 -152.180132 
L 579.463083 -150.500635 
L 579.615936 -148.821138 
L 579.801124 -147.141641 
L 580.020401 -145.462144 
L 580.276081 -143.782646 
L 580.571037 -142.103149 
L 580.908556 -140.423652 
L 581.292047 -138.744155 
L 581.724669 -137.064658 
L 582.208915 -135.385161 
L 582.74627 -133.705664 
L 583.337002 -132.026167 
L 583.980186 -130.34667 
L 584.673988 -128.667173 
L 585.416201 -126.987675 
L 586.204968 -125.308178 
L 587.039563 -123.628681 
L 587.921054 -121.949184 
L 588.852662 -120.269687 
L 589.83964 -118.59019 
L 590.888549 -116.910693 
L 592.005897 -115.231196 
L 593.19622 -113.551699 
L 594.459787 -111.872202 
L 595.790241 -110.192705 
L 597.17252 -108.513207 
L 598.581448 -106.83371 
L 599.981316 -105.154213 
L 601.326697 -103.474716 
L 602.564558 -101.795219 
L 603.637561 -100.115722 
L 604.488294 -98.436225 
L 605.06398 -96.756728 
L 605.321154 -95.077231 
L 605.229772 -93.397734 
L 604.77625 -91.718236 
L 603.965084 -90.038739 
L 602.818869 -88.359242 
L 601.376713 -86.679745 
L 599.69127 -85.000248 
L 597.824726 -83.320751 
L 595.844219 -81.641254 
L 593.817174 -79.961757 
L 591.807007 -78.28226 
L 589.869583 -76.602763 
L 588.050669 -74.923265 
L 586.384499 -73.243768 
L 584.893411 -71.564271 
L 583.588447 -69.884774 
L 582.47068 -68.205277 
L 581.533032 -66.52578 
L 580.76232 -64.846283 
L 580.141315 -63.166786 
L 579.650633 -61.487289 
L 579.270324 -59.807792 
L 578.981116 -58.128295 
z
" style="stroke: #cc79a7; stroke-width: 2"/>
    </defs>
    <g clip-path="url(#peac0156b5e)">
     <use xlink:href="#m880862672c" x="0" y="360" style="fill: #cc79a7; fill-opacity: 0.3; stroke: #cc79a7; stroke-width: 2"/>
    </g>
   </g>
   <g id="patch_3">
    <path d="M 90 320.4 
L 90 43.2 
" style="fill: none; stroke: #262626; stroke-width: 1.25; stroke-linejoin: miter; stroke-linecap: square"/>
   </g>
   <g id="patch_4">
    <path d="M 648 320.4 
L 648 43.2 
" style="fill: none; stroke: #262626; stroke-width: 1.25; stroke-linejoin: miter; stroke-linecap: square"/>
   </g>
   <g id="patch_5">
    <path d="M 90 320.4 
L 648 320.4 
" style="fill: none; stroke: #262626; stroke-width: 1.25; stroke-linejoin: miter; stroke-linecap: square"/>
   </g>
   <g id="patch_6">
    <path d="M 90 43.2 
L 648 43.2 
" style="fill: none; stroke: #262626; stroke-width: 1.25; stroke-linejoin: miter; stroke-linecap: square"/>
   </g>
   <g id="text_15">
    <!-- Intervaltime -->
    <g style="fill: #262626" transform="translate(329.709219 37.2) scale(0.14 -0.14)">
     <defs>
      <path id="Arial-BoldMT-49" d="M 438 0 
L 438 4581 
L 1363 4581 
L 1363 0 
L 438 0 
z
" transform="scale(0.015625)"/>
      <path id="Arial-BoldMT-6e" d="M 3478 0 
L 2600 0 
L 2600 1694 
Q 2600 2231 2544 2389 
Q 2488 2547 2361 2634 
Q 2234 2722 2056 2722 
Q 1828 2722 1647 2597 
Q 1466 2472 1398 2265 
Q 1331 2059 1331 1503 
L 1331 0 
L 453 0 
L 453 3319 
L 1269 3319 
L 1269 2831 
Q 1703 3394 2363 3394 
Q 2653 3394 2893 3289 
Q 3134 3184 3257 3021 
Q 3381 2859 3429 2653 
Q 3478 2447 3478 2063 
L 3478 0 
z
" transform="scale(0.015625)"/>
      <path id="Arial-BoldMT-74" d="M 1981 3319 
L 1981 2619 
L 1381 2619 
L 1381 1281 
Q 1381 875 1398 808 
Q 1416 741 1477 697 
Q 1538 653 1625 653 
Q 1747 653 1978 738 
L 2053 56 
Q 1747 -75 1359 -75 
Q 1122 -75 931 4 
Q 741 84 652 211 
Q 563 338 528 553 
Q 500 706 500 1172 
L 500 2619 
L 97 2619 
L 97 3319 
L 500 3319 
L 500 3978 
L 1381 4491 
L 1381 3319 
L 1981 3319 
z
" transform="scale(0.015625)"/>
      <path id="Arial-BoldMT-65" d="M 2381 1056 
L 3256 909 
Q 3088 428 2723 176 
Q 2359 -75 1813 -75 
Q 947 -75 531 491 
Q 203 944 203 1634 
Q 203 2459 634 2926 
Q 1066 3394 1725 3394 
Q 2466 3394 2894 2905 
Q 3322 2416 3303 1406 
L 1103 1406 
Q 1113 1016 1316 798 
Q 1519 581 1822 581 
Q 2028 581 2168 693 
Q 2309 806 2381 1056 
z
M 2431 1944 
Q 2422 2325 2234 2523 
Q 2047 2722 1778 2722 
Q 1491 2722 1303 2513 
Q 1116 2303 1119 1944 
L 2431 1944 
z
" transform="scale(0.015625)"/>
      <path id="Arial-BoldMT-72" d="M 1300 0 
L 422 0 
L 422 3319 
L 1238 3319 
L 1238 2847 
Q 1447 3181 1614 3287 
Q 1781 3394 1994 3394 
Q 2294 3394 2572 3228 
L 2300 2463 
Q 2078 2606 1888 2606 
Q 1703 2606 1575 2504 
Q 1447 2403 1373 2137 
Q 1300 1872 1300 1025 
L 1300 0 
z
" transform="scale(0.015625)"/>
      <path id="Arial-BoldMT-76" d="M 1372 0 
L 34 3319 
L 956 3319 
L 1581 1625 
L 1763 1059 
Q 1834 1275 1853 1344 
Q 1897 1484 1947 1625 
L 2578 3319 
L 3481 3319 
L 2163 0 
L 1372 0 
z
" transform="scale(0.015625)"/>
      <path id="Arial-BoldMT-61" d="M 1116 2306 
L 319 2450 
Q 453 2931 781 3162 
Q 1109 3394 1756 3394 
Q 2344 3394 2631 3255 
Q 2919 3116 3036 2902 
Q 3153 2688 3153 2116 
L 3144 1091 
Q 3144 653 3186 445 
Q 3228 238 3344 0 
L 2475 0 
Q 2441 88 2391 259 
Q 2369 338 2359 363 
Q 2134 144 1878 34 
Q 1622 -75 1331 -75 
Q 819 -75 523 203 
Q 228 481 228 906 
Q 228 1188 362 1408 
Q 497 1628 739 1745 
Q 981 1863 1438 1950 
Q 2053 2066 2291 2166 
L 2291 2253 
Q 2291 2506 2166 2614 
Q 2041 2722 1694 2722 
Q 1459 2722 1328 2630 
Q 1197 2538 1116 2306 
z
M 2291 1594 
Q 2122 1538 1756 1459 
Q 1391 1381 1278 1306 
Q 1106 1184 1106 997 
Q 1106 813 1243 678 
Q 1381 544 1594 544 
Q 1831 544 2047 700 
Q 2206 819 2256 991 
Q 2291 1103 2291 1419 
L 2291 1594 
z
" transform="scale(0.015625)"/>
      <path id="Arial-BoldMT-6c" d="M 459 0 
L 459 4581 
L 1338 4581 
L 1338 0 
L 459 0 
z
" transform="scale(0.015625)"/>
      <path id="Arial-BoldMT-69" d="M 459 3769 
L 459 4581 
L 1338 4581 
L 1338 3769 
L 459 3769 
z
M 459 0 
L 459 3319 
L 1338 3319 
L 1338 0 
L 459 0 
z
" transform="scale(0.015625)"/>
      <path id="Arial-BoldMT-6d" d="M 394 3319 
L 1203 3319 
L 1203 2866 
Q 1638 3394 2238 3394 
Q 2556 3394 2790 3262 
Q 3025 3131 3175 2866 
Q 3394 3131 3647 3262 
Q 3900 3394 4188 3394 
Q 4553 3394 4806 3245 
Q 5059 3097 5184 2809 
Q 5275 2597 5275 2122 
L 5275 0 
L 4397 0 
L 4397 1897 
Q 4397 2391 4306 2534 
Q 4184 2722 3931 2722 
Q 3747 2722 3584 2609 
Q 3422 2497 3350 2280 
Q 3278 2063 3278 1594 
L 3278 0 
L 2400 0 
L 2400 1819 
Q 2400 2303 2353 2443 
Q 2306 2584 2207 2653 
Q 2109 2722 1941 2722 
Q 1738 2722 1575 2612 
Q 1413 2503 1342 2297 
Q 1272 2091 1272 1613 
L 1272 0 
L 394 0 
L 394 3319 
z
" transform="scale(0.015625)"/>
     </defs>
     <use xlink:href="#Arial-BoldMT-49"/>
     <use xlink:href="#Arial-BoldMT-6e" x="27.783203"/>
     <use xlink:href="#Arial-BoldMT-74" x="88.867188"/>
     <use xlink:href="#Arial-BoldMT-65" x="122.167969"/>
     <use xlink:href="#Arial-BoldMT-72" x="177.783203"/>
     <use xlink:href="#Arial-BoldMT-76" x="216.699219"/>
     <use xlink:href="#Arial-BoldMT-61" x="272.314453"/>
     <use xlink:href="#Arial-BoldMT-6c" x="327.929688"/>
     <use xlink:href="#Arial-BoldMT-74" x="355.712891"/>
     <use xlink:href="#Arial-BoldMT-69" x="389.013672"/>
     <use xlink:href="#Arial-BoldMT-6d" x="416.796875"/>
     <use xlink:href="#Arial-BoldMT-65" x="505.712891"/>
    </g>
   </g>
  </g>
 </g>
 <defs>
  <clipPath id="peac0156b5e">
   <rect x="90" y="43.2" width="558" height="277.2"/>
  </clipPath>
 </defs>
</svg>
