<?xml version="1.0" encoding="utf-8" standalone="no"?>
<!DOCTYPE svg PUBLIC "-//W3C//DTD SVG 1.1//EN"
  "http://www.w3.org/Graphics/SVG/1.1/DTD/svg11.dtd">
<svg xmlns:xlink="http://www.w3.org/1999/xlink" width="720pt" height="360pt" viewBox="0 0 720 360" xmlns="http://www.w3.org/2000/svg" version="1.1">
 <metadata>
  <rdf:RDF xmlns:dc="http://purl.org/dc/elements/1.1/" xmlns:cc="http://creativecommons.org/ns#" xmlns:rdf="http://www.w3.org/1999/02/22-rdf-syntax-ns#">
   <cc:Work>
    <dc:type rdf:resource="http://purl.org/dc/dcmitype/StillImage"/>
    <dc:date>2024-08-20T17:45:36.080859</dc:date>
    <dc:format>image/svg+xml</dc:format>
    <dc:creator>
     <cc:Agent>
      <dc:title>Matplotlib v3.8.0, https://matplotlib.org/</dc:title>
     </cc:Agent>
    </dc:creator>
   </cc:Work>
  </rdf:RDF>
 </metadata>
 <defs>
  <style type="text/css">*{stroke-linejoin: round; stroke-linecap: butt}</style>
 </defs>
 <g id="figure_1">
  <g id="patch_1">
   <path d="M 0 360 
L 720 360 
L 720 0 
L 0 0 
z
" style="fill: #ffffff"/>
  </g>
  <g id="axes_1">
   <g id="patch_2">
    <path d="M 90 320.4 
L 648 320.4 
L 648 43.2 
L 90 43.2 
z
" style="fill: #ffffff"/>
   </g>
   <g id="matplotlib.axis_1">
    <g id="xtick_1">
     <g id="line2d_1">
      <defs>
       <path id="mbb9bee016a" d="M 0 0 
L 0 6 
" style="stroke: #262626; stroke-width: 1.25"/>
      </defs>
      <g>
       <use xlink:href="#mbb9bee016a" x="159.75" y="320.4" style="fill: #262626; stroke: #262626; stroke-width: 1.25"/>
      </g>
     </g>
     <g id="text_1">
      <!-- State 1 -->
      <g style="fill: #262626" transform="translate(140.7375 338.489375) scale(0.12 -0.12)">
       <defs>
        <path id="ArialMT-53" d="M 288 1472 
L 859 1522 
Q 900 1178 1048 958 
Q 1197 738 1509 602 
Q 1822 466 2213 466 
Q 2559 466 2825 569 
Q 3091 672 3220 851 
Q 3350 1031 3350 1244 
Q 3350 1459 3225 1620 
Q 3100 1781 2813 1891 
Q 2628 1963 1997 2114 
Q 1366 2266 1113 2400 
Q 784 2572 623 2826 
Q 463 3081 463 3397 
Q 463 3744 659 4045 
Q 856 4347 1234 4503 
Q 1613 4659 2075 4659 
Q 2584 4659 2973 4495 
Q 3363 4331 3572 4012 
Q 3781 3694 3797 3291 
L 3216 3247 
Q 3169 3681 2898 3903 
Q 2628 4125 2100 4125 
Q 1550 4125 1298 3923 
Q 1047 3722 1047 3438 
Q 1047 3191 1225 3031 
Q 1400 2872 2139 2705 
Q 2878 2538 3153 2413 
Q 3553 2228 3743 1945 
Q 3934 1663 3934 1294 
Q 3934 928 3725 604 
Q 3516 281 3123 101 
Q 2731 -78 2241 -78 
Q 1619 -78 1198 103 
Q 778 284 539 648 
Q 300 1013 288 1472 
z
" transform="scale(0.015625)"/>
        <path id="ArialMT-74" d="M 1650 503 
L 1731 6 
Q 1494 -44 1306 -44 
Q 1000 -44 831 53 
Q 663 150 594 308 
Q 525 466 525 972 
L 525 2881 
L 113 2881 
L 113 3319 
L 525 3319 
L 525 4141 
L 1084 4478 
L 1084 3319 
L 1650 3319 
L 1650 2881 
L 1084 2881 
L 1084 941 
Q 1084 700 1114 631 
Q 1144 563 1211 522 
Q 1278 481 1403 481 
Q 1497 481 1650 503 
z
" transform="scale(0.015625)"/>
        <path id="ArialMT-61" d="M 2588 409 
Q 2275 144 1986 34 
Q 1697 -75 1366 -75 
Q 819 -75 525 192 
Q 231 459 231 875 
Q 231 1119 342 1320 
Q 453 1522 633 1644 
Q 813 1766 1038 1828 
Q 1203 1872 1538 1913 
Q 2219 1994 2541 2106 
Q 2544 2222 2544 2253 
Q 2544 2597 2384 2738 
Q 2169 2928 1744 2928 
Q 1347 2928 1158 2789 
Q 969 2650 878 2297 
L 328 2372 
Q 403 2725 575 2942 
Q 747 3159 1072 3276 
Q 1397 3394 1825 3394 
Q 2250 3394 2515 3294 
Q 2781 3194 2906 3042 
Q 3031 2891 3081 2659 
Q 3109 2516 3109 2141 
L 3109 1391 
Q 3109 606 3145 398 
Q 3181 191 3288 0 
L 2700 0 
Q 2613 175 2588 409 
z
M 2541 1666 
Q 2234 1541 1622 1453 
Q 1275 1403 1131 1340 
Q 988 1278 909 1158 
Q 831 1038 831 891 
Q 831 666 1001 516 
Q 1172 366 1500 366 
Q 1825 366 2078 508 
Q 2331 650 2450 897 
Q 2541 1088 2541 1459 
L 2541 1666 
z
" transform="scale(0.015625)"/>
        <path id="ArialMT-65" d="M 2694 1069 
L 3275 997 
Q 3138 488 2766 206 
Q 2394 -75 1816 -75 
Q 1088 -75 661 373 
Q 234 822 234 1631 
Q 234 2469 665 2931 
Q 1097 3394 1784 3394 
Q 2450 3394 2872 2941 
Q 3294 2488 3294 1666 
Q 3294 1616 3291 1516 
L 816 1516 
Q 847 969 1125 678 
Q 1403 388 1819 388 
Q 2128 388 2347 550 
Q 2566 713 2694 1069 
z
M 847 1978 
L 2700 1978 
Q 2663 2397 2488 2606 
Q 2219 2931 1791 2931 
Q 1403 2931 1139 2672 
Q 875 2413 847 1978 
z
" transform="scale(0.015625)"/>
        <path id="ArialMT-20" transform="scale(0.015625)"/>
        <path id="ArialMT-31" d="M 2384 0 
L 1822 0 
L 1822 3584 
Q 1619 3391 1289 3197 
Q 959 3003 697 2906 
L 697 3450 
Q 1169 3672 1522 3987 
Q 1875 4303 2022 4600 
L 2384 4600 
L 2384 0 
z
" transform="scale(0.015625)"/>
       </defs>
       <use xlink:href="#ArialMT-53"/>
       <use xlink:href="#ArialMT-74" x="66.699219"/>
       <use xlink:href="#ArialMT-61" x="94.482422"/>
       <use xlink:href="#ArialMT-74" x="150.097656"/>
       <use xlink:href="#ArialMT-65" x="177.880859"/>
       <use xlink:href="#ArialMT-20" x="233.496094"/>
       <use xlink:href="#ArialMT-31" x="261.279297"/>
      </g>
     </g>
    </g>
    <g id="xtick_2">
     <g id="line2d_2">
      <g>
       <use xlink:href="#mbb9bee016a" x="299.25" y="320.4" style="fill: #262626; stroke: #262626; stroke-width: 1.25"/>
      </g>
     </g>
     <g id="text_2">
      <!-- State 2 -->
      <g style="fill: #262626" transform="translate(280.2375 338.489375) scale(0.12 -0.12)">
       <defs>
        <path id="ArialMT-32" d="M 3222 541 
L 3222 0 
L 194 0 
Q 188 203 259 391 
Q 375 700 629 1000 
Q 884 1300 1366 1694 
Q 2113 2306 2375 2664 
Q 2638 3022 2638 3341 
Q 2638 3675 2398 3904 
Q 2159 4134 1775 4134 
Q 1369 4134 1125 3890 
Q 881 3647 878 3216 
L 300 3275 
Q 359 3922 746 4261 
Q 1134 4600 1788 4600 
Q 2447 4600 2831 4234 
Q 3216 3869 3216 3328 
Q 3216 3053 3103 2787 
Q 2991 2522 2730 2228 
Q 2469 1934 1863 1422 
Q 1356 997 1212 845 
Q 1069 694 975 541 
L 3222 541 
z
" transform="scale(0.015625)"/>
       </defs>
       <use xlink:href="#ArialMT-53"/>
       <use xlink:href="#ArialMT-74" x="66.699219"/>
       <use xlink:href="#ArialMT-61" x="94.482422"/>
       <use xlink:href="#ArialMT-74" x="150.097656"/>
       <use xlink:href="#ArialMT-65" x="177.880859"/>
       <use xlink:href="#ArialMT-20" x="233.496094"/>
       <use xlink:href="#ArialMT-32" x="261.279297"/>
      </g>
     </g>
    </g>
    <g id="xtick_3">
     <g id="line2d_3">
      <g>
       <use xlink:href="#mbb9bee016a" x="438.75" y="320.4" style="fill: #262626; stroke: #262626; stroke-width: 1.25"/>
      </g>
     </g>
     <g id="text_3">
      <!-- State 3 -->
      <g style="fill: #262626" transform="translate(419.7375 338.489375) scale(0.12 -0.12)">
       <defs>
        <path id="ArialMT-33" d="M 269 1209 
L 831 1284 
Q 928 806 1161 595 
Q 1394 384 1728 384 
Q 2125 384 2398 659 
Q 2672 934 2672 1341 
Q 2672 1728 2419 1979 
Q 2166 2231 1775 2231 
Q 1616 2231 1378 2169 
L 1441 2663 
Q 1497 2656 1531 2656 
Q 1891 2656 2178 2843 
Q 2466 3031 2466 3422 
Q 2466 3731 2256 3934 
Q 2047 4138 1716 4138 
Q 1388 4138 1169 3931 
Q 950 3725 888 3313 
L 325 3413 
Q 428 3978 793 4289 
Q 1159 4600 1703 4600 
Q 2078 4600 2393 4439 
Q 2709 4278 2876 4000 
Q 3044 3722 3044 3409 
Q 3044 3113 2884 2869 
Q 2725 2625 2413 2481 
Q 2819 2388 3044 2092 
Q 3269 1797 3269 1353 
Q 3269 753 2831 336 
Q 2394 -81 1725 -81 
Q 1122 -81 723 278 
Q 325 638 269 1209 
z
" transform="scale(0.015625)"/>
       </defs>
       <use xlink:href="#ArialMT-53"/>
       <use xlink:href="#ArialMT-74" x="66.699219"/>
       <use xlink:href="#ArialMT-61" x="94.482422"/>
       <use xlink:href="#ArialMT-74" x="150.097656"/>
       <use xlink:href="#ArialMT-65" x="177.880859"/>
       <use xlink:href="#ArialMT-20" x="233.496094"/>
       <use xlink:href="#ArialMT-33" x="261.279297"/>
      </g>
     </g>
    </g>
    <g id="xtick_4">
     <g id="line2d_4">
      <g>
       <use xlink:href="#mbb9bee016a" x="578.25" y="320.4" style="fill: #262626; stroke: #262626; stroke-width: 1.25"/>
      </g>
     </g>
     <g id="text_4">
      <!-- State 4 -->
      <g style="fill: #262626" transform="translate(559.2375 338.489375) scale(0.12 -0.12)">
       <defs>
        <path id="ArialMT-34" d="M 2069 0 
L 2069 1097 
L 81 1097 
L 81 1613 
L 2172 4581 
L 2631 4581 
L 2631 1613 
L 3250 1613 
L 3250 1097 
L 2631 1097 
L 2631 0 
L 2069 0 
z
M 2069 1613 
L 2069 3678 
L 634 1613 
L 2069 1613 
z
" transform="scale(0.015625)"/>
       </defs>
       <use xlink:href="#ArialMT-53"/>
       <use xlink:href="#ArialMT-74" x="66.699219"/>
       <use xlink:href="#ArialMT-61" x="94.482422"/>
       <use xlink:href="#ArialMT-74" x="150.097656"/>
       <use xlink:href="#ArialMT-65" x="177.880859"/>
       <use xlink:href="#ArialMT-20" x="233.496094"/>
       <use xlink:href="#ArialMT-34" x="261.279297"/>
      </g>
     </g>
    </g>
   </g>
   <g id="matplotlib.axis_2">
    <g id="ytick_1">
     <g id="line2d_5">
      <defs>
       <path id="m83e3653065" d="M 0 0 
L -6 0 
" style="stroke: #262626; stroke-width: 1.25"/>
      </defs>
      <g>
       <use xlink:href="#m83e3653065" x="90" y="300.36934" style="fill: #262626; stroke: #262626; stroke-width: 1.25"/>
      </g>
     </g>
     <g id="text_5">
      <!-- 0 -->
      <g style="fill: #262626" transform="translate(74.382969 304.306137) scale(0.11 -0.11)">
       <defs>
        <path id="ArialMT-30" d="M 266 2259 
Q 266 3072 433 3567 
Q 600 4063 929 4331 
Q 1259 4600 1759 4600 
Q 2128 4600 2406 4451 
Q 2684 4303 2865 4023 
Q 3047 3744 3150 3342 
Q 3253 2941 3253 2259 
Q 3253 1453 3087 958 
Q 2922 463 2592 192 
Q 2263 -78 1759 -78 
Q 1097 -78 719 397 
Q 266 969 266 2259 
z
M 844 2259 
Q 844 1131 1108 757 
Q 1372 384 1759 384 
Q 2147 384 2411 759 
Q 2675 1134 2675 2259 
Q 2675 3391 2411 3762 
Q 2147 4134 1753 4134 
Q 1366 4134 1134 3806 
Q 844 3388 844 2259 
z
" transform="scale(0.015625)"/>
       </defs>
       <use xlink:href="#ArialMT-30"/>
      </g>
     </g>
    </g>
    <g id="ytick_2">
     <g id="line2d_6">
      <g>
       <use xlink:href="#m83e3653065" x="90" y="266.456946" style="fill: #262626; stroke: #262626; stroke-width: 1.25"/>
      </g>
     </g>
     <g id="text_6">
      <!-- 5 -->
      <g style="fill: #262626" transform="translate(74.382969 270.393743) scale(0.11 -0.11)">
       <defs>
        <path id="ArialMT-35" d="M 266 1200 
L 856 1250 
Q 922 819 1161 601 
Q 1400 384 1738 384 
Q 2144 384 2425 690 
Q 2706 997 2706 1503 
Q 2706 1984 2436 2262 
Q 2166 2541 1728 2541 
Q 1456 2541 1237 2417 
Q 1019 2294 894 2097 
L 366 2166 
L 809 4519 
L 3088 4519 
L 3088 3981 
L 1259 3981 
L 1013 2750 
Q 1425 3038 1878 3038 
Q 2478 3038 2890 2622 
Q 3303 2206 3303 1553 
Q 3303 931 2941 478 
Q 2500 -78 1738 -78 
Q 1113 -78 717 272 
Q 322 622 266 1200 
z
" transform="scale(0.015625)"/>
       </defs>
       <use xlink:href="#ArialMT-35"/>
      </g>
     </g>
    </g>
    <g id="ytick_3">
     <g id="line2d_7">
      <g>
       <use xlink:href="#m83e3653065" x="90" y="232.544552" style="fill: #262626; stroke: #262626; stroke-width: 1.25"/>
      </g>
     </g>
     <g id="text_7">
      <!-- 10 -->
      <g style="fill: #262626" transform="translate(68.265938 236.481349) scale(0.11 -0.11)">
       <use xlink:href="#ArialMT-31"/>
       <use xlink:href="#ArialMT-30" x="55.615234"/>
      </g>
     </g>
    </g>
    <g id="ytick_4">
     <g id="line2d_8">
      <g>
       <use xlink:href="#m83e3653065" x="90" y="198.632158" style="fill: #262626; stroke: #262626; stroke-width: 1.25"/>
      </g>
     </g>
     <g id="text_8">
      <!-- 15 -->
      <g style="fill: #262626" transform="translate(68.265938 202.568955) scale(0.11 -0.11)">
       <use xlink:href="#ArialMT-31"/>
       <use xlink:href="#ArialMT-35" x="55.615234"/>
      </g>
     </g>
    </g>
    <g id="ytick_5">
     <g id="line2d_9">
      <g>
       <use xlink:href="#m83e3653065" x="90" y="164.719764" style="fill: #262626; stroke: #262626; stroke-width: 1.25"/>
      </g>
     </g>
     <g id="text_9">
      <!-- 20 -->
      <g style="fill: #262626" transform="translate(68.265938 168.656561) scale(0.11 -0.11)">
       <use xlink:href="#ArialMT-32"/>
       <use xlink:href="#ArialMT-30" x="55.615234"/>
      </g>
     </g>
    </g>
    <g id="ytick_6">
     <g id="line2d_10">
      <g>
       <use xlink:href="#m83e3653065" x="90" y="130.80737" style="fill: #262626; stroke: #262626; stroke-width: 1.25"/>
      </g>
     </g>
     <g id="text_10">
      <!-- 25 -->
      <g style="fill: #262626" transform="translate(68.265938 134.744167) scale(0.11 -0.11)">
       <use xlink:href="#ArialMT-32"/>
       <use xlink:href="#ArialMT-35" x="55.615234"/>
      </g>
     </g>
    </g>
    <g id="ytick_7">
     <g id="line2d_11">
      <g>
       <use xlink:href="#m83e3653065" x="90" y="96.894976" style="fill: #262626; stroke: #262626; stroke-width: 1.25"/>
      </g>
     </g>
     <g id="text_11">
      <!-- 30 -->
      <g style="fill: #262626" transform="translate(68.265938 100.831773) scale(0.11 -0.11)">
       <use xlink:href="#ArialMT-33"/>
       <use xlink:href="#ArialMT-30" x="55.615234"/>
      </g>
     </g>
    </g>
    <g id="ytick_8">
     <g id="line2d_12">
      <g>
       <use xlink:href="#m83e3653065" x="90" y="62.982582" style="fill: #262626; stroke: #262626; stroke-width: 1.25"/>
      </g>
     </g>
     <g id="text_12">
      <!-- 35 -->
      <g style="fill: #262626" transform="translate(68.265938 66.919379) scale(0.11 -0.11)">
       <use xlink:href="#ArialMT-33"/>
       <use xlink:href="#ArialMT-35" x="55.615234"/>
      </g>
     </g>
    </g>
    <g id="text_13">
     <!-- Time (s) -->
     <g style="fill: #262626" transform="translate(61.740313 203.569687) rotate(-90) scale(0.12 -0.12)">
      <defs>
       <path id="ArialMT-54" d="M 1659 0 
L 1659 4041 
L 150 4041 
L 150 4581 
L 3781 4581 
L 3781 4041 
L 2266 4041 
L 2266 0 
L 1659 0 
z
" transform="scale(0.015625)"/>
       <path id="ArialMT-69" d="M 425 3934 
L 425 4581 
L 988 4581 
L 988 3934 
L 425 3934 
z
M 425 0 
L 425 3319 
L 988 3319 
L 988 0 
L 425 0 
z
" transform="scale(0.015625)"/>
       <path id="ArialMT-6d" d="M 422 0 
L 422 3319 
L 925 3319 
L 925 2853 
Q 1081 3097 1340 3245 
Q 1600 3394 1931 3394 
Q 2300 3394 2536 3241 
Q 2772 3088 2869 2813 
Q 3263 3394 3894 3394 
Q 4388 3394 4653 3120 
Q 4919 2847 4919 2278 
L 4919 0 
L 4359 0 
L 4359 2091 
Q 4359 2428 4304 2576 
Q 4250 2725 4106 2815 
Q 3963 2906 3769 2906 
Q 3419 2906 3187 2673 
Q 2956 2441 2956 1928 
L 2956 0 
L 2394 0 
L 2394 2156 
Q 2394 2531 2256 2718 
Q 2119 2906 1806 2906 
Q 1569 2906 1367 2781 
Q 1166 2656 1075 2415 
Q 984 2175 984 1722 
L 984 0 
L 422 0 
z
" transform="scale(0.015625)"/>
       <path id="ArialMT-28" d="M 1497 -1347 
Q 1031 -759 709 28 
Q 388 816 388 1659 
Q 388 2403 628 3084 
Q 909 3875 1497 4659 
L 1900 4659 
Q 1522 4009 1400 3731 
Q 1209 3300 1100 2831 
Q 966 2247 966 1656 
Q 966 153 1900 -1347 
L 1497 -1347 
z
" transform="scale(0.015625)"/>
       <path id="ArialMT-73" d="M 197 991 
L 753 1078 
Q 800 744 1014 566 
Q 1228 388 1613 388 
Q 2000 388 2187 545 
Q 2375 703 2375 916 
Q 2375 1106 2209 1216 
Q 2094 1291 1634 1406 
Q 1016 1563 777 1677 
Q 538 1791 414 1992 
Q 291 2194 291 2438 
Q 291 2659 392 2848 
Q 494 3038 669 3163 
Q 800 3259 1026 3326 
Q 1253 3394 1513 3394 
Q 1903 3394 2198 3281 
Q 2494 3169 2634 2976 
Q 2775 2784 2828 2463 
L 2278 2388 
Q 2241 2644 2061 2787 
Q 1881 2931 1553 2931 
Q 1166 2931 1000 2803 
Q 834 2675 834 2503 
Q 834 2394 903 2306 
Q 972 2216 1119 2156 
Q 1203 2125 1616 2013 
Q 2213 1853 2448 1751 
Q 2684 1650 2818 1456 
Q 2953 1263 2953 975 
Q 2953 694 2789 445 
Q 2625 197 2315 61 
Q 2006 -75 1616 -75 
Q 969 -75 630 194 
Q 291 463 197 991 
z
" transform="scale(0.015625)"/>
       <path id="ArialMT-29" d="M 791 -1347 
L 388 -1347 
Q 1322 153 1322 1656 
Q 1322 2244 1188 2822 
Q 1081 3291 891 3722 
Q 769 4003 388 4659 
L 791 4659 
Q 1378 3875 1659 3084 
Q 1900 2403 1900 1659 
Q 1900 816 1576 28 
Q 1253 -759 791 -1347 
z
" transform="scale(0.015625)"/>
      </defs>
      <use xlink:href="#ArialMT-54"/>
      <use xlink:href="#ArialMT-69" x="57.333984"/>
      <use xlink:href="#ArialMT-6d" x="79.550781"/>
      <use xlink:href="#ArialMT-65" x="162.851562"/>
      <use xlink:href="#ArialMT-20" x="218.466797"/>
      <use xlink:href="#ArialMT-28" x="246.25"/>
      <use xlink:href="#ArialMT-73" x="279.550781"/>
      <use xlink:href="#ArialMT-29" x="329.550781"/>
     </g>
    </g>
   </g>
   <g id="PolyCollection_1">
    <defs>
     <path id="m5152504aa8" d="M 159.942949 -56.6228 
L 159.557051 -56.6228 
L 159.485769 -59.12358 
L 159.393077 -61.62436 
L 159.274341 -64.125139 
L 159.124496 -66.625919 
L 158.938185 -69.126699 
L 158.709946 -71.627479 
L 158.434461 -74.128259 
L 158.106861 -76.629038 
L 157.723069 -79.129818 
L 157.280181 -81.630598 
L 156.776854 -84.131378 
L 156.213683 -86.632158 
L 155.593525 -89.132937 
L 154.92176 -91.633717 
L 154.206436 -94.134497 
L 153.458286 -96.635277 
L 152.690584 -99.136057 
L 151.918837 -101.636836 
L 151.16031 -104.137616 
L 150.433384 -106.638396 
L 149.756804 -109.139176 
L 149.148824 -111.639956 
L 148.626327 -114.140735 
L 148.20396 -116.641515 
L 147.893358 -119.142295 
L 147.702512 -121.643075 
L 147.635321 -124.143855 
L 147.691375 -126.644634 
L 147.865991 -129.145414 
L 148.150484 -131.646194 
L 148.532673 -134.146974 
L 148.997576 -136.647754 
L 149.52824 -139.148533 
L 150.106651 -141.649313 
L 150.714657 -144.150093 
L 151.334829 -146.650873 
L 151.951223 -149.151653 
L 152.54998 -151.652432 
L 153.119743 -154.153212 
L 153.651878 -156.653992 
L 154.140504 -159.154772 
L 154.582349 -161.655552 
L 154.976471 -164.156331 
L 155.323881 -166.657111 
L 155.627109 -169.157891 
L 155.889761 -171.658671 
L 156.116098 -174.159451 
L 156.310676 -176.66023 
L 156.47805 -179.16101 
L 156.622571 -181.66179 
L 156.748261 -184.16257 
L 156.858755 -186.66335 
L 156.957312 -189.164129 
L 157.046852 -191.664909 
L 157.130022 -194.165689 
L 157.209246 -196.666469 
L 157.286767 -199.167248 
L 157.364655 -201.668028 
L 157.444781 -204.168808 
L 157.528758 -206.669588 
L 157.617865 -209.170368 
L 157.712952 -211.671147 
L 157.814352 -214.171927 
L 157.921822 -216.672707 
L 158.03451 -219.173487 
L 158.150976 -221.674267 
L 158.269256 -224.175046 
L 158.386983 -226.675826 
L 158.501549 -229.176606 
L 158.610293 -231.677386 
L 158.71071 -234.178166 
L 158.800649 -236.678945 
L 158.878489 -239.179725 
L 158.943276 -241.680505 
L 158.994807 -244.181285 
L 159.033644 -246.682065 
L 159.061079 -249.182844 
L 159.079021 -251.683624 
L 159.089846 -254.184404 
L 159.096199 -256.685184 
L 159.100787 -259.185964 
L 159.106169 -261.686743 
L 159.114568 -264.187523 
L 159.12772 -266.688303 
L 159.146775 -269.189083 
L 159.172255 -271.689863 
L 159.20407 -274.190642 
L 159.241586 -276.691422 
L 159.283732 -279.192202 
L 159.329139 -281.692982 
L 159.376282 -284.193762 
L 159.423625 -286.694541 
L 159.469739 -289.195321 
L 159.513404 -291.696101 
L 159.553662 -294.196881 
L 159.589854 -296.697661 
L 159.621615 -299.19844 
L 159.648847 -301.69922 
L 159.671675 -304.2 
L 159.828325 -304.2 
L 159.828325 -304.2 
L 159.851153 -301.69922 
L 159.878385 -299.19844 
L 159.910146 -296.697661 
L 159.946338 -294.196881 
L 159.986596 -291.696101 
L 160.030261 -289.195321 
L 160.076375 -286.694541 
L 160.123718 -284.193762 
L 160.170861 -281.692982 
L 160.216268 -279.192202 
L 160.258414 -276.691422 
L 160.29593 -274.190642 
L 160.327745 -271.689863 
L 160.353225 -269.189083 
L 160.37228 -266.688303 
L 160.385432 -264.187523 
L 160.393831 -261.686743 
L 160.399213 -259.185964 
L 160.403801 -256.685184 
L 160.410154 -254.184404 
L 160.420979 -251.683624 
L 160.438921 -249.182844 
L 160.466356 -246.682065 
L 160.505193 -244.181285 
L 160.556724 -241.680505 
L 160.621511 -239.179725 
L 160.699351 -236.678945 
L 160.78929 -234.178166 
L 160.889707 -231.677386 
L 160.998451 -229.176606 
L 161.113017 -226.675826 
L 161.230744 -224.175046 
L 161.349024 -221.674267 
L 161.46549 -219.173487 
L 161.578178 -216.672707 
L 161.685648 -214.171927 
L 161.787048 -211.671147 
L 161.882135 -209.170368 
L 161.971242 -206.669588 
L 162.055219 -204.168808 
L 162.135345 -201.668028 
L 162.213233 -199.167248 
L 162.290754 -196.666469 
L 162.369978 -194.165689 
L 162.453148 -191.664909 
L 162.542688 -189.164129 
L 162.641245 -186.66335 
L 162.751739 -184.16257 
L 162.877429 -181.66179 
L 163.02195 -179.16101 
L 163.189324 -176.66023 
L 163.383902 -174.159451 
L 163.610239 -171.658671 
L 163.872891 -169.157891 
L 164.176119 -166.657111 
L 164.523529 -164.156331 
L 164.917651 -161.655552 
L 165.359496 -159.154772 
L 165.848122 -156.653992 
L 166.380257 -154.153212 
L 166.95002 -151.652432 
L 167.548777 -149.151653 
L 168.165171 -146.650873 
L 168.785343 -144.150093 
L 169.393349 -141.649313 
L 169.97176 -139.148533 
L 170.502424 -136.647754 
L 170.967327 -134.146974 
L 171.349516 -131.646194 
L 171.634009 -129.145414 
L 171.808625 -126.644634 
L 171.864679 -124.143855 
L 171.797488 -121.643075 
L 171.606642 -119.142295 
L 171.29604 -116.641515 
L 170.873673 -114.140735 
L 170.351176 -111.639956 
L 169.743196 -109.139176 
L 169.066616 -106.638396 
L 168.33969 -104.137616 
L 167.581163 -101.636836 
L 166.809416 -99.136057 
L 166.041714 -96.635277 
L 165.293564 -94.134497 
L 164.57824 -91.633717 
L 163.906475 -89.132937 
L 163.286317 -86.632158 
L 162.723146 -84.131378 
L 162.219819 -81.630598 
L 161.776931 -79.129818 
L 161.393139 -76.629038 
L 161.065539 -74.128259 
L 160.790054 -71.627479 
L 160.561815 -69.126699 
L 160.375504 -66.625919 
L 160.225659 -64.125139 
L 160.106923 -61.62436 
L 160.014231 -59.12358 
L 159.942949 -56.6228 
z
" style="stroke: #d55e00; stroke-width: 2"/>
    </defs>
    <g clip-path="url(#p0c3797a67c)">
     <use xlink:href="#m5152504aa8" x="0" y="360" style="fill: #d55e00; fill-opacity: 0.3; stroke: #d55e00; stroke-width: 2"/>
    </g>
   </g>
   <g id="PolyCollection_2">
    <defs>
     <path id="m69483946ec" d="M 299.460465 -70.774247 
L 299.039535 -70.774247 
L 298.962223 -72.558601 
L 298.861475 -74.342955 
L 298.731962 -76.127309 
L 298.567705 -77.911663 
L 298.362175 -79.696017 
L 298.108455 -81.480371 
L 297.799473 -83.264725 
L 297.428337 -85.049079 
L 296.988733 -86.833433 
L 296.475424 -88.617787 
L 295.884794 -90.402141 
L 295.21543 -92.186495 
L 294.468697 -93.970849 
L 293.649244 -95.755203 
L 292.76539 -97.539557 
L 291.829322 -99.323911 
L 290.857053 -101.108264 
L 289.868097 -102.892618 
L 288.884834 -104.676972 
L 287.931595 -106.461326 
L 287.03349 -108.24568 
L 286.215067 -110.030034 
L 285.498908 -111.814388 
L 284.904278 -113.598742 
L 284.445949 -115.383096 
L 284.133327 -117.16745 
L 283.969955 -118.951804 
L 283.953448 -120.736158 
L 284.075869 -122.520512 
L 284.324495 -124.304866 
L 284.682897 -126.08922 
L 285.13221 -127.873574 
L 285.652467 -129.657928 
L 286.223854 -131.442282 
L 286.827778 -133.226636 
L 287.447654 -135.01099 
L 288.069367 -136.795344 
L 288.681407 -138.579698 
L 289.27472 -140.364052 
L 289.842343 -142.148406 
L 290.378936 -143.93276 
L 290.880296 -145.717114 
L 291.342965 -147.501468 
L 291.763989 -149.285822 
L 292.140881 -151.070176 
L 292.471766 -152.85453 
L 292.755685 -154.638884 
L 292.992987 -156.423238 
L 293.185713 -158.207592 
L 293.337892 -159.991946 
L 293.455665 -161.7763 
L 293.547189 -163.560654 
L 293.62229 -165.345008 
L 293.691895 -167.129362 
L 293.76728 -168.913716 
L 293.85923 -170.69807 
L 293.977184 -172.482424 
L 294.128471 -174.266778 
L 294.317731 -176.051132 
L 294.546562 -177.835486 
L 294.813448 -179.61984 
L 295.113953 -181.404194 
L 295.441155 -183.188548 
L 295.786271 -184.972902 
L 296.139387 -186.757256 
L 296.490237 -188.54161 
L 296.828928 -190.325964 
L 297.146586 -192.110318 
L 297.435845 -193.894672 
L 297.691186 -195.679026 
L 297.909102 -197.46338 
L 298.088111 -199.247734 
L 298.228642 -201.032088 
L 298.332816 -202.816442 
L 298.404162 -204.600796 
L 298.447291 -206.38515 
L 298.467546 -208.169504 
L 298.470663 -209.953858 
L 298.46244 -211.738212 
L 298.44843 -213.522566 
L 298.433684 -215.30692 
L 298.422522 -217.091274 
L 298.418376 -218.875628 
L 298.423683 -220.659982 
L 298.439849 -222.444336 
L 298.467279 -224.22869 
L 298.505472 -226.013044 
L 298.553166 -227.797398 
L 298.608525 -229.581752 
L 298.669343 -231.366106 
L 298.733258 -233.15046 
L 298.797944 -234.934814 
L 298.861274 -236.719168 
L 298.921446 -238.503522 
L 298.977061 -240.287876 
L 299.02715 -242.07223 
L 299.071169 -243.856584 
L 299.108958 -245.640938 
L 299.140672 -247.425292 
L 299.359328 -247.425292 
L 299.359328 -247.425292 
L 299.391042 -245.640938 
L 299.428831 -243.856584 
L 299.47285 -242.07223 
L 299.522939 -240.287876 
L 299.578554 -238.503522 
L 299.638726 -236.719168 
L 299.702056 -234.934814 
L 299.766742 -233.15046 
L 299.830657 -231.366106 
L 299.891475 -229.581752 
L 299.946834 -227.797398 
L 299.994528 -226.013044 
L 300.032721 -224.22869 
L 300.060151 -222.444336 
L 300.076317 -220.659982 
L 300.081624 -218.875628 
L 300.077478 -217.091274 
L 300.066316 -215.30692 
L 300.05157 -213.522566 
L 300.03756 -211.738212 
L 300.029337 -209.953858 
L 300.032454 -208.169504 
L 300.052709 -206.38515 
L 300.095838 -204.600796 
L 300.167184 -202.816442 
L 300.271358 -201.032088 
L 300.411889 -199.247734 
L 300.590898 -197.46338 
L 300.808814 -195.679026 
L 301.064155 -193.894672 
L 301.353414 -192.110318 
L 301.671072 -190.325964 
L 302.009763 -188.54161 
L 302.360613 -186.757256 
L 302.713729 -184.972902 
L 303.058845 -183.188548 
L 303.386047 -181.404194 
L 303.686552 -179.61984 
L 303.953438 -177.835486 
L 304.182269 -176.051132 
L 304.371529 -174.266778 
L 304.522816 -172.482424 
L 304.64077 -170.69807 
L 304.73272 -168.913716 
L 304.808105 -167.129362 
L 304.87771 -165.345008 
L 304.952811 -163.560654 
L 305.044335 -161.7763 
L 305.162108 -159.991946 
L 305.314287 -158.207592 
L 305.507013 -156.423238 
L 305.744315 -154.638884 
L 306.028234 -152.85453 
L 306.359119 -151.070176 
L 306.736011 -149.285822 
L 307.157035 -147.501468 
L 307.619704 -145.717114 
L 308.121064 -143.93276 
L 308.657657 -142.148406 
L 309.22528 -140.364052 
L 309.818593 -138.579698 
L 310.430633 -136.795344 
L 311.052346 -135.01099 
L 311.672222 -133.226636 
L 312.276146 -131.442282 
L 312.847533 -129.657928 
L 313.36779 -127.873574 
L 313.817103 -126.08922 
L 314.175505 -124.304866 
L 314.424131 -122.520512 
L 314.546552 -120.736158 
L 314.530045 -118.951804 
L 314.366673 -117.16745 
L 314.054051 -115.383096 
L 313.595722 -113.598742 
L 313.001092 -111.814388 
L 312.284933 -110.030034 
L 311.46651 -108.24568 
L 310.568405 -106.461326 
L 309.615166 -104.676972 
L 308.631903 -102.892618 
L 307.642947 -101.108264 
L 306.670678 -99.323911 
L 305.73461 -97.539557 
L 304.850756 -95.755203 
L 304.031303 -93.970849 
L 303.28457 -92.186495 
L 302.615206 -90.402141 
L 302.024576 -88.617787 
L 301.511267 -86.833433 
L 301.071663 -85.049079 
L 300.700527 -83.264725 
L 300.391545 -81.480371 
L 300.137825 -79.696017 
L 299.932295 -77.911663 
L 299.768038 -76.127309 
L 299.638525 -74.342955 
L 299.537777 -72.558601 
L 299.460465 -70.774247 
z
" style="stroke: #0072b2; stroke-width: 2"/>
    </defs>
    <g clip-path="url(#p0c3797a67c)">
     <use xlink:href="#m69483946ec" x="0" y="360" style="fill: #0072b2; fill-opacity: 0.3; stroke: #0072b2; stroke-width: 2"/>
    </g>
   </g>
   <g id="PolyCollection_3">
    <defs>
     <path id="mff4c255afa" d="M 439.354408 -52.2 
L 438.145592 -52.2 
L 437.928271 -53.778282 
L 437.65055 -55.356564 
L 437.302021 -56.934846 
L 436.872477 -58.513128 
L 436.352572 -60.09141 
L 435.734571 -61.669692 
L 435.013149 -63.247974 
L 434.186176 -64.826256 
L 433.255413 -66.404538 
L 432.227069 -67.98282 
L 431.112133 -69.561102 
L 429.926439 -71.139384 
L 428.690437 -72.717666 
L 427.428647 -74.295948 
L 426.168817 -75.87423 
L 424.940824 -77.452512 
L 423.775372 -79.030794 
L 422.702566 -80.609076 
L 421.750457 -82.187358 
L 420.943647 -83.76564 
L 420.30206 -85.343922 
L 419.839961 -86.922204 
L 419.5653 -88.500485 
L 419.47943 -90.078767 
L 419.57723 -91.657049 
L 419.847603 -93.235331 
L 420.274322 -94.813613 
L 420.837127 -96.391895 
L 421.512983 -97.970177 
L 422.277396 -99.548459 
L 423.105645 -101.126741 
L 423.973882 -102.705023 
L 424.860004 -104.283305 
L 425.744278 -105.861587 
L 426.609736 -107.439869 
L 427.442356 -109.018151 
L 428.231098 -110.596433 
L 428.96783 -112.174715 
L 429.647216 -113.752997 
L 430.266564 -115.331279 
L 430.825663 -116.909561 
L 431.326585 -118.487843 
L 431.773433 -120.066125 
L 432.172005 -121.644407 
L 432.529381 -123.222689 
L 432.85341 -124.800971 
L 433.152155 -126.379253 
L 433.433328 -127.957535 
L 433.703767 -129.535817 
L 433.969027 -131.114099 
L 434.233117 -132.692381 
L 434.498415 -134.270663 
L 434.765752 -135.848945 
L 435.034644 -137.427227 
L 435.303621 -139.005509 
L 435.570604 -140.583791 
L 435.833252 -142.162073 
L 436.089265 -143.740355 
L 436.336578 -145.318637 
L 436.57346 -146.896919 
L 436.798517 -148.475201 
L 437.010624 -150.053483 
L 437.208818 -151.631765 
L 437.392194 -153.210047 
L 437.559814 -154.788329 
L 437.710669 -156.366611 
L 437.843685 -157.944892 
L 437.957781 -159.523174 
L 438.051974 -161.101456 
L 438.125499 -162.679738 
L 438.177948 -164.25802 
L 438.209403 -165.836302 
L 438.220547 -167.414584 
L 438.212739 -168.992866 
L 438.188061 -170.571148 
L 438.149297 -172.14943 
L 438.099868 -173.727712 
L 438.043707 -175.305994 
L 437.985077 -176.884276 
L 437.928348 -178.462558 
L 437.877736 -180.04084 
L 437.837045 -181.619122 
L 437.809412 -183.197404 
L 437.797104 -184.775686 
L 437.801374 -186.353968 
L 437.822404 -187.93225 
L 437.85933 -189.510532 
L 437.910365 -191.088814 
L 437.972982 -192.667096 
L 438.04416 -194.245378 
L 438.120645 -195.82366 
L 438.199209 -197.401942 
L 438.276881 -198.980224 
L 438.35112 -200.558506 
L 438.419935 -202.136788 
L 438.481937 -203.71507 
L 438.536324 -205.293352 
L 438.582831 -206.871634 
L 438.621639 -208.449916 
L 438.878361 -208.449916 
L 438.878361 -208.449916 
L 438.917169 -206.871634 
L 438.963676 -205.293352 
L 439.018063 -203.71507 
L 439.080065 -202.136788 
L 439.14888 -200.558506 
L 439.223119 -198.980224 
L 439.300791 -197.401942 
L 439.379355 -195.82366 
L 439.45584 -194.245378 
L 439.527018 -192.667096 
L 439.589635 -191.088814 
L 439.64067 -189.510532 
L 439.677596 -187.93225 
L 439.698626 -186.353968 
L 439.702896 -184.775686 
L 439.690588 -183.197404 
L 439.662955 -181.619122 
L 439.622264 -180.04084 
L 439.571652 -178.462558 
L 439.514923 -176.884276 
L 439.456293 -175.305994 
L 439.400132 -173.727712 
L 439.350703 -172.14943 
L 439.311939 -170.571148 
L 439.287261 -168.992866 
L 439.279453 -167.414584 
L 439.290597 -165.836302 
L 439.322052 -164.25802 
L 439.374501 -162.679738 
L 439.448026 -161.101456 
L 439.542219 -159.523174 
L 439.656315 -157.944892 
L 439.789331 -156.366611 
L 439.940186 -154.788329 
L 440.107806 -153.210047 
L 440.291182 -151.631765 
L 440.489376 -150.053483 
L 440.701483 -148.475201 
L 440.92654 -146.896919 
L 441.163422 -145.318637 
L 441.410735 -143.740355 
L 441.666748 -142.162073 
L 441.929396 -140.583791 
L 442.196379 -139.005509 
L 442.465356 -137.427227 
L 442.734248 -135.848945 
L 443.001585 -134.270663 
L 443.266883 -132.692381 
L 443.530973 -131.114099 
L 443.796233 -129.535817 
L 444.066672 -127.957535 
L 444.347845 -126.379253 
L 444.64659 -124.800971 
L 444.970619 -123.222689 
L 445.327995 -121.644407 
L 445.726567 -120.066125 
L 446.173415 -118.487843 
L 446.674337 -116.909561 
L 447.233436 -115.331279 
L 447.852784 -113.752997 
L 448.53217 -112.174715 
L 449.268902 -110.596433 
L 450.057644 -109.018151 
L 450.890264 -107.439869 
L 451.755722 -105.861587 
L 452.639996 -104.283305 
L 453.526118 -102.705023 
L 454.394355 -101.126741 
L 455.222604 -99.548459 
L 455.987017 -97.970177 
L 456.662873 -96.391895 
L 457.225678 -94.813613 
L 457.652397 -93.235331 
L 457.92277 -91.657049 
L 458.02057 -90.078767 
L 457.9347 -88.500485 
L 457.660039 -86.922204 
L 457.19794 -85.343922 
L 456.556353 -83.76564 
L 455.749543 -82.187358 
L 454.797434 -80.609076 
L 453.724628 -79.030794 
L 452.559176 -77.452512 
L 451.331183 -75.87423 
L 450.071353 -74.295948 
L 448.809563 -72.717666 
L 447.573561 -71.139384 
L 446.387867 -69.561102 
L 445.272931 -67.98282 
L 444.244587 -66.404538 
L 443.313824 -64.826256 
L 442.486851 -63.247974 
L 441.765429 -61.669692 
L 441.147428 -60.09141 
L 440.627523 -58.513128 
L 440.197979 -56.934846 
L 439.84945 -55.356564 
L 439.571729 -53.778282 
L 439.354408 -52.2 
z
" style="stroke: #009e73; stroke-width: 2"/>
    </defs>
    <g clip-path="url(#p0c3797a67c)">
     <use xlink:href="#mff4c255afa" x="0" y="360" style="fill: #009e73; fill-opacity: 0.3; stroke: #009e73; stroke-width: 2"/>
    </g>
   </g>
   <g id="PolyCollection_4">
    <defs>
     <path id="m90bd123ad1" d="M 579.121722 -59.849756 
L 577.378278 -59.849756 
L 577.011927 -60.521074 
L 576.522922 -61.192393 
L 575.882496 -61.863711 
L 575.059208 -62.53503 
L 574.019912 -63.206348 
L 572.731137 -63.877667 
L 571.160883 -64.548985 
L 569.280842 -65.220303 
L 567.06902 -65.891622 
L 564.512677 -66.56294 
L 561.611456 -67.234259 
L 558.38046 -67.905577 
L 554.852971 -68.576896 
L 551.082388 -69.248214 
L 547.142975 -69.919533 
L 543.128985 -70.590851 
L 539.151885 -71.262169 
L 535.335565 -71.933488 
L 531.809717 -72.604806 
L 528.701827 -73.276125 
L 526.128503 -73.947443 
L 524.187009 -74.618762 
L 522.94796 -75.29008 
L 522.45 -75.961399 
L 522.697072 -76.632717 
L 523.658577 -77.304035 
L 525.272347 -77.975354 
L 527.450027 -78.646672 
L 530.084238 -79.317991 
L 533.056684 -79.989309 
L 536.246413 -80.660628 
L 539.537448 -81.331946 
L 542.82519 -82.003265 
L 546.021187 -82.674583 
L 549.056064 -83.345901 
L 551.880607 -84.01722 
L 554.465191 -84.688538 
L 556.797843 -85.359857 
L 558.881337 -86.031175 
L 560.729746 -86.702494 
L 562.364863 -87.373812 
L 563.812852 -88.045131 
L 565.101374 -88.716449 
L 566.257354 -89.387768 
L 567.305418 -90.059086 
L 568.266943 -90.730404 
L 569.15962 -91.401723 
L 569.997365 -92.073041 
L 570.790465 -92.74436 
L 571.545839 -93.415678 
L 572.267383 -94.086997 
L 572.95636 -94.758315 
L 573.611846 -95.429634 
L 574.231262 -96.100952 
L 574.81096 -96.77227 
L 575.346871 -97.443589 
L 575.835136 -98.114907 
L 576.272686 -98.786226 
L 576.657683 -99.457544 
L 576.989787 -100.128863 
L 577.270223 -100.800181 
L 577.501645 -101.4715 
L 577.687839 -102.142818 
L 577.833306 -102.814136 
L 577.9428 -103.485455 
L 578.020868 -104.156773 
L 578.071441 -104.828092 
L 578.09753 -105.49941 
L 578.101041 -106.170729 
L 578.082721 -106.842047 
L 578.04226 -107.513366 
L 577.978532 -108.184684 
L 577.889975 -108.856002 
L 577.775092 -109.527321 
L 577.633027 -110.198639 
L 577.464171 -110.869958 
L 577.270716 -111.541276 
L 577.057068 -112.212595 
L 576.830043 -112.883913 
L 576.598759 -113.555232 
L 576.374193 -114.22655 
L 576.16842 -114.897869 
L 575.993585 -115.569187 
L 575.860743 -116.240505 
L 575.778712 -116.911824 
L 575.753107 -117.583142 
L 575.785706 -118.254461 
L 575.874249 -118.925779 
L 576.012696 -119.597098 
L 576.191908 -120.268416 
L 576.400645 -120.939735 
L 576.626728 -121.611053 
L 576.858195 -122.282371 
L 577.084316 -122.95369 
L 577.296328 -123.625008 
L 577.487863 -124.296327 
L 577.655047 -124.967645 
L 577.796321 -125.638964 
L 577.912068 -126.310282 
L 578.587932 -126.310282 
L 578.587932 -126.310282 
L 578.703679 -125.638964 
L 578.844953 -124.967645 
L 579.012137 -124.296327 
L 579.203672 -123.625008 
L 579.415684 -122.95369 
L 579.641805 -122.282371 
L 579.873272 -121.611053 
L 580.099355 -120.939735 
L 580.308092 -120.268416 
L 580.487304 -119.597098 
L 580.625751 -118.925779 
L 580.714294 -118.254461 
L 580.746893 -117.583142 
L 580.721288 -116.911824 
L 580.639257 -116.240505 
L 580.506415 -115.569187 
L 580.33158 -114.897869 
L 580.125807 -114.22655 
L 579.901241 -113.555232 
L 579.669957 -112.883913 
L 579.442932 -112.212595 
L 579.229284 -111.541276 
L 579.035829 -110.869958 
L 578.866973 -110.198639 
L 578.724908 -109.527321 
L 578.610025 -108.856002 
L 578.521468 -108.184684 
L 578.45774 -107.513366 
L 578.417279 -106.842047 
L 578.398959 -106.170729 
L 578.40247 -105.49941 
L 578.428559 -104.828092 
L 578.479132 -104.156773 
L 578.5572 -103.485455 
L 578.666694 -102.814136 
L 578.812161 -102.142818 
L 578.998355 -101.4715 
L 579.229777 -100.800181 
L 579.510213 -100.128863 
L 579.842317 -99.457544 
L 580.227314 -98.786226 
L 580.664864 -98.114907 
L 581.153129 -97.443589 
L 581.68904 -96.77227 
L 582.268738 -96.100952 
L 582.888154 -95.429634 
L 583.54364 -94.758315 
L 584.232617 -94.086997 
L 584.954161 -93.415678 
L 585.709535 -92.74436 
L 586.502635 -92.073041 
L 587.34038 -91.401723 
L 588.233057 -90.730404 
L 589.194582 -90.059086 
L 590.242646 -89.387768 
L 591.398626 -88.716449 
L 592.687148 -88.045131 
L 594.135137 -87.373812 
L 595.770254 -86.702494 
L 597.618663 -86.031175 
L 599.702157 -85.359857 
L 602.034809 -84.688538 
L 604.619393 -84.01722 
L 607.443936 -83.345901 
L 610.478813 -82.674583 
L 613.67481 -82.003265 
L 616.962552 -81.331946 
L 620.253587 -80.660628 
L 623.443316 -79.989309 
L 626.415762 -79.317991 
L 629.049973 -78.646672 
L 631.227653 -77.975354 
L 632.841423 -77.304035 
L 633.802928 -76.632717 
L 634.05 -75.961399 
L 633.55204 -75.29008 
L 632.312991 -74.618762 
L 630.371497 -73.947443 
L 627.798173 -73.276125 
L 624.690283 -72.604806 
L 621.164435 -71.933488 
L 617.348115 -71.262169 
L 613.371015 -70.590851 
L 609.357025 -69.919533 
L 605.417612 -69.248214 
L 601.647029 -68.576896 
L 598.11954 -67.905577 
L 594.888544 -67.234259 
L 591.987323 -66.56294 
L 589.43098 -65.891622 
L 587.219158 -65.220303 
L 585.339117 -64.548985 
L 583.768863 -63.877667 
L 582.480088 -63.206348 
L 581.440792 -62.53503 
L 580.617504 -61.863711 
L 579.977078 -61.192393 
L 579.488073 -60.521074 
L 579.121722 -59.849756 
z
" style="stroke: #cc79a7; stroke-width: 2"/>
    </defs>
    <g clip-path="url(#p0c3797a67c)">
     <use xlink:href="#m90bd123ad1" x="0" y="360" style="fill: #cc79a7; fill-opacity: 0.3; stroke: #cc79a7; stroke-width: 2"/>
    </g>
   </g>
   <g id="patch_3">
    <path d="M 90 320.4 
L 90 43.2 
" style="fill: none; stroke: #262626; stroke-width: 1.25; stroke-linejoin: miter; stroke-linecap: square"/>
   </g>
   <g id="patch_4">
    <path d="M 648 320.4 
L 648 43.2 
" style="fill: none; stroke: #262626; stroke-width: 1.25; stroke-linejoin: miter; stroke-linecap: square"/>
   </g>
   <g id="patch_5">
    <path d="M 90 320.4 
L 648 320.4 
" style="fill: none; stroke: #262626; stroke-width: 1.25; stroke-linejoin: miter; stroke-linecap: square"/>
   </g>
   <g id="patch_6">
    <path d="M 90 43.2 
L 648 43.2 
" style="fill: none; stroke: #262626; stroke-width: 1.25; stroke-linejoin: miter; stroke-linecap: square"/>
   </g>
   <g id="text_14">
    <!-- Lifetime -->
    <g style="fill: #262626" transform="translate(342.16375 37.2) scale(0.14 -0.14)">
     <defs>
      <path id="Arial-BoldMT-4c" d="M 491 0 
L 491 4544 
L 1416 4544 
L 1416 772 
L 3716 772 
L 3716 0 
L 491 0 
z
" transform="scale(0.015625)"/>
      <path id="Arial-BoldMT-69" d="M 459 3769 
L 459 4581 
L 1338 4581 
L 1338 3769 
L 459 3769 
z
M 459 0 
L 459 3319 
L 1338 3319 
L 1338 0 
L 459 0 
z
" transform="scale(0.015625)"/>
      <path id="Arial-BoldMT-66" d="M 75 3319 
L 563 3319 
L 563 3569 
Q 563 3988 652 4194 
Q 741 4400 980 4529 
Q 1219 4659 1584 4659 
Q 1959 4659 2319 4547 
L 2200 3934 
Q 1991 3984 1797 3984 
Q 1606 3984 1523 3895 
Q 1441 3806 1441 3553 
L 1441 3319 
L 2097 3319 
L 2097 2628 
L 1441 2628 
L 1441 0 
L 563 0 
L 563 2628 
L 75 2628 
L 75 3319 
z
" transform="scale(0.015625)"/>
      <path id="Arial-BoldMT-65" d="M 2381 1056 
L 3256 909 
Q 3088 428 2723 176 
Q 2359 -75 1813 -75 
Q 947 -75 531 491 
Q 203 944 203 1634 
Q 203 2459 634 2926 
Q 1066 3394 1725 3394 
Q 2466 3394 2894 2905 
Q 3322 2416 3303 1406 
L 1103 1406 
Q 1113 1016 1316 798 
Q 1519 581 1822 581 
Q 2028 581 2168 693 
Q 2309 806 2381 1056 
z
M 2431 1944 
Q 2422 2325 2234 2523 
Q 2047 2722 1778 2722 
Q 1491 2722 1303 2513 
Q 1116 2303 1119 1944 
L 2431 1944 
z
" transform="scale(0.015625)"/>
      <path id="Arial-BoldMT-74" d="M 1981 3319 
L 1981 2619 
L 1381 2619 
L 1381 1281 
Q 1381 875 1398 808 
Q 1416 741 1477 697 
Q 1538 653 1625 653 
Q 1747 653 1978 738 
L 2053 56 
Q 1747 -75 1359 -75 
Q 1122 -75 931 4 
Q 741 84 652 211 
Q 563 338 528 553 
Q 500 706 500 1172 
L 500 2619 
L 97 2619 
L 97 3319 
L 500 3319 
L 500 3978 
L 1381 4491 
L 1381 3319 
L 1981 3319 
z
" transform="scale(0.015625)"/>
      <path id="Arial-BoldMT-6d" d="M 394 3319 
L 1203 3319 
L 1203 2866 
Q 1638 3394 2238 3394 
Q 2556 3394 2790 3262 
Q 3025 3131 3175 2866 
Q 3394 3131 3647 3262 
Q 3900 3394 4188 3394 
Q 4553 3394 4806 3245 
Q 5059 3097 5184 2809 
Q 5275 2597 5275 2122 
L 5275 0 
L 4397 0 
L 4397 1897 
Q 4397 2391 4306 2534 
Q 4184 2722 3931 2722 
Q 3747 2722 3584 2609 
Q 3422 2497 3350 2280 
Q 3278 2063 3278 1594 
L 3278 0 
L 2400 0 
L 2400 1819 
Q 2400 2303 2353 2443 
Q 2306 2584 2207 2653 
Q 2109 2722 1941 2722 
Q 1738 2722 1575 2612 
Q 1413 2503 1342 2297 
Q 1272 2091 1272 1613 
L 1272 0 
L 394 0 
L 394 3319 
z
" transform="scale(0.015625)"/>
     </defs>
     <use xlink:href="#Arial-BoldMT-4c"/>
     <use xlink:href="#Arial-BoldMT-69" x="61.083984"/>
     <use xlink:href="#Arial-BoldMT-66" x="88.867188"/>
     <use xlink:href="#Arial-BoldMT-65" x="122.167969"/>
     <use xlink:href="#Arial-BoldMT-74" x="177.783203"/>
     <use xlink:href="#Arial-BoldMT-69" x="211.083984"/>
     <use xlink:href="#Arial-BoldMT-6d" x="238.867188"/>
     <use xlink:href="#Arial-BoldMT-65" x="327.783203"/>
    </g>
   </g>
  </g>
 </g>
 <defs>
  <clipPath id="p0c3797a67c">
   <rect x="90" y="43.2" width="558" height="277.2"/>
  </clipPath>
 </defs>
</svg>
