<?xml version="1.0" encoding="utf-8" standalone="no"?>
<!DOCTYPE svg PUBLIC "-//W3C//DTD SVG 1.1//EN"
  "http://www.w3.org/Graphics/SVG/1.1/DTD/svg11.dtd">
<svg xmlns:xlink="http://www.w3.org/1999/xlink" width="720pt" height="1080pt" viewBox="0 0 720 1080" xmlns="http://www.w3.org/2000/svg" version="1.1">
 <metadata>
  <rdf:RDF xmlns:dc="http://purl.org/dc/elements/1.1/" xmlns:cc="http://creativecommons.org/ns#" xmlns:rdf="http://www.w3.org/1999/02/22-rdf-syntax-ns#">
   <cc:Work>
    <dc:type rdf:resource="http://purl.org/dc/dcmitype/StillImage"/>
    <dc:date>2024-09-02T13:04:20.470807</dc:date>
    <dc:format>image/svg+xml</dc:format>
    <dc:creator>
     <cc:Agent>
      <dc:title>Matplotlib v3.8.0, https://matplotlib.org/</dc:title>
     </cc:Agent>
    </dc:creator>
   </cc:Work>
  </rdf:RDF>
 </metadata>
 <defs>
  <style type="text/css">*{stroke-linejoin: round; stroke-linecap: butt}</style>
 </defs>
 <g id="figure_1">
  <g id="patch_1">
   <path d="M 0 1080 
L 720 1080 
L 720 0 
L 0 0 
z
" style="fill: #ffffff"/>
  </g>
  <g id="axes_1">
   <g id="patch_2">
    <path d="M 90 507.6 
L 648 507.6 
L 648 129.6 
L 90 129.6 
z
" style="fill: #ffffff"/>
   </g>
   <g id="matplotlib.axis_1">
    <g id="xtick_1">
     <g id="line2d_1">
      <defs>
       <path id="me9a3f922a6" d="M 0 0 
L 0 6 
" style="stroke: #262626; stroke-width: 1.25"/>
      </defs>
      <g>
       <use xlink:href="#me9a3f922a6" x="159.75" y="507.6" style="fill: #262626; stroke: #262626; stroke-width: 1.25"/>
      </g>
     </g>
     <g id="text_1">
      <!-- State 1 -->
      <g style="fill: #262626" transform="translate(142.321875 524.973594) scale(0.11 -0.11)">
       <defs>
        <path id="ArialMT-53" d="M 288 1472 
L 859 1522 
Q 900 1178 1048 958 
Q 1197 738 1509 602 
Q 1822 466 2213 466 
Q 2559 466 2825 569 
Q 3091 672 3220 851 
Q 3350 1031 3350 1244 
Q 3350 1459 3225 1620 
Q 3100 1781 2813 1891 
Q 2628 1963 1997 2114 
Q 1366 2266 1113 2400 
Q 784 2572 623 2826 
Q 463 3081 463 3397 
Q 463 3744 659 4045 
Q 856 4347 1234 4503 
Q 1613 4659 2075 4659 
Q 2584 4659 2973 4495 
Q 3363 4331 3572 4012 
Q 3781 3694 3797 3291 
L 3216 3247 
Q 3169 3681 2898 3903 
Q 2628 4125 2100 4125 
Q 1550 4125 1298 3923 
Q 1047 3722 1047 3438 
Q 1047 3191 1225 3031 
Q 1400 2872 2139 2705 
Q 2878 2538 3153 2413 
Q 3553 2228 3743 1945 
Q 3934 1663 3934 1294 
Q 3934 928 3725 604 
Q 3516 281 3123 101 
Q 2731 -78 2241 -78 
Q 1619 -78 1198 103 
Q 778 284 539 648 
Q 300 1013 288 1472 
z
" transform="scale(0.015625)"/>
        <path id="ArialMT-74" d="M 1650 503 
L 1731 6 
Q 1494 -44 1306 -44 
Q 1000 -44 831 53 
Q 663 150 594 308 
Q 525 466 525 972 
L 525 2881 
L 113 2881 
L 113 3319 
L 525 3319 
L 525 4141 
L 1084 4478 
L 1084 3319 
L 1650 3319 
L 1650 2881 
L 1084 2881 
L 1084 941 
Q 1084 700 1114 631 
Q 1144 563 1211 522 
Q 1278 481 1403 481 
Q 1497 481 1650 503 
z
" transform="scale(0.015625)"/>
        <path id="ArialMT-61" d="M 2588 409 
Q 2275 144 1986 34 
Q 1697 -75 1366 -75 
Q 819 -75 525 192 
Q 231 459 231 875 
Q 231 1119 342 1320 
Q 453 1522 633 1644 
Q 813 1766 1038 1828 
Q 1203 1872 1538 1913 
Q 2219 1994 2541 2106 
Q 2544 2222 2544 2253 
Q 2544 2597 2384 2738 
Q 2169 2928 1744 2928 
Q 1347 2928 1158 2789 
Q 969 2650 878 2297 
L 328 2372 
Q 403 2725 575 2942 
Q 747 3159 1072 3276 
Q 1397 3394 1825 3394 
Q 2250 3394 2515 3294 
Q 2781 3194 2906 3042 
Q 3031 2891 3081 2659 
Q 3109 2516 3109 2141 
L 3109 1391 
Q 3109 606 3145 398 
Q 3181 191 3288 0 
L 2700 0 
Q 2613 175 2588 409 
z
M 2541 1666 
Q 2234 1541 1622 1453 
Q 1275 1403 1131 1340 
Q 988 1278 909 1158 
Q 831 1038 831 891 
Q 831 666 1001 516 
Q 1172 366 1500 366 
Q 1825 366 2078 508 
Q 2331 650 2450 897 
Q 2541 1088 2541 1459 
L 2541 1666 
z
" transform="scale(0.015625)"/>
        <path id="ArialMT-65" d="M 2694 1069 
L 3275 997 
Q 3138 488 2766 206 
Q 2394 -75 1816 -75 
Q 1088 -75 661 373 
Q 234 822 234 1631 
Q 234 2469 665 2931 
Q 1097 3394 1784 3394 
Q 2450 3394 2872 2941 
Q 3294 2488 3294 1666 
Q 3294 1616 3291 1516 
L 816 1516 
Q 847 969 1125 678 
Q 1403 388 1819 388 
Q 2128 388 2347 550 
Q 2566 713 2694 1069 
z
M 847 1978 
L 2700 1978 
Q 2663 2397 2488 2606 
Q 2219 2931 1791 2931 
Q 1403 2931 1139 2672 
Q 875 2413 847 1978 
z
" transform="scale(0.015625)"/>
        <path id="ArialMT-20" transform="scale(0.015625)"/>
        <path id="ArialMT-31" d="M 2384 0 
L 1822 0 
L 1822 3584 
Q 1619 3391 1289 3197 
Q 959 3003 697 2906 
L 697 3450 
Q 1169 3672 1522 3987 
Q 1875 4303 2022 4600 
L 2384 4600 
L 2384 0 
z
" transform="scale(0.015625)"/>
       </defs>
       <use xlink:href="#ArialMT-53"/>
       <use xlink:href="#ArialMT-74" x="66.699219"/>
       <use xlink:href="#ArialMT-61" x="94.482422"/>
       <use xlink:href="#ArialMT-74" x="150.097656"/>
       <use xlink:href="#ArialMT-65" x="177.880859"/>
       <use xlink:href="#ArialMT-20" x="233.496094"/>
       <use xlink:href="#ArialMT-31" x="261.279297"/>
      </g>
     </g>
    </g>
    <g id="xtick_2">
     <g id="line2d_2">
      <g>
       <use xlink:href="#me9a3f922a6" x="299.25" y="507.6" style="fill: #262626; stroke: #262626; stroke-width: 1.25"/>
      </g>
     </g>
     <g id="text_2">
      <!-- State 2 -->
      <g style="fill: #262626" transform="translate(281.821875 524.973594) scale(0.11 -0.11)">
       <defs>
        <path id="ArialMT-32" d="M 3222 541 
L 3222 0 
L 194 0 
Q 188 203 259 391 
Q 375 700 629 1000 
Q 884 1300 1366 1694 
Q 2113 2306 2375 2664 
Q 2638 3022 2638 3341 
Q 2638 3675 2398 3904 
Q 2159 4134 1775 4134 
Q 1369 4134 1125 3890 
Q 881 3647 878 3216 
L 300 3275 
Q 359 3922 746 4261 
Q 1134 4600 1788 4600 
Q 2447 4600 2831 4234 
Q 3216 3869 3216 3328 
Q 3216 3053 3103 2787 
Q 2991 2522 2730 2228 
Q 2469 1934 1863 1422 
Q 1356 997 1212 845 
Q 1069 694 975 541 
L 3222 541 
z
" transform="scale(0.015625)"/>
       </defs>
       <use xlink:href="#ArialMT-53"/>
       <use xlink:href="#ArialMT-74" x="66.699219"/>
       <use xlink:href="#ArialMT-61" x="94.482422"/>
       <use xlink:href="#ArialMT-74" x="150.097656"/>
       <use xlink:href="#ArialMT-65" x="177.880859"/>
       <use xlink:href="#ArialMT-20" x="233.496094"/>
       <use xlink:href="#ArialMT-32" x="261.279297"/>
      </g>
     </g>
    </g>
    <g id="xtick_3">
     <g id="line2d_3">
      <g>
       <use xlink:href="#me9a3f922a6" x="438.75" y="507.6" style="fill: #262626; stroke: #262626; stroke-width: 1.25"/>
      </g>
     </g>
     <g id="text_3">
      <!-- State 3 -->
      <g style="fill: #262626" transform="translate(421.321875 524.973594) scale(0.11 -0.11)">
       <defs>
        <path id="ArialMT-33" d="M 269 1209 
L 831 1284 
Q 928 806 1161 595 
Q 1394 384 1728 384 
Q 2125 384 2398 659 
Q 2672 934 2672 1341 
Q 2672 1728 2419 1979 
Q 2166 2231 1775 2231 
Q 1616 2231 1378 2169 
L 1441 2663 
Q 1497 2656 1531 2656 
Q 1891 2656 2178 2843 
Q 2466 3031 2466 3422 
Q 2466 3731 2256 3934 
Q 2047 4138 1716 4138 
Q 1388 4138 1169 3931 
Q 950 3725 888 3313 
L 325 3413 
Q 428 3978 793 4289 
Q 1159 4600 1703 4600 
Q 2078 4600 2393 4439 
Q 2709 4278 2876 4000 
Q 3044 3722 3044 3409 
Q 3044 3113 2884 2869 
Q 2725 2625 2413 2481 
Q 2819 2388 3044 2092 
Q 3269 1797 3269 1353 
Q 3269 753 2831 336 
Q 2394 -81 1725 -81 
Q 1122 -81 723 278 
Q 325 638 269 1209 
z
" transform="scale(0.015625)"/>
       </defs>
       <use xlink:href="#ArialMT-53"/>
       <use xlink:href="#ArialMT-74" x="66.699219"/>
       <use xlink:href="#ArialMT-61" x="94.482422"/>
       <use xlink:href="#ArialMT-74" x="150.097656"/>
       <use xlink:href="#ArialMT-65" x="177.880859"/>
       <use xlink:href="#ArialMT-20" x="233.496094"/>
       <use xlink:href="#ArialMT-33" x="261.279297"/>
      </g>
     </g>
    </g>
    <g id="xtick_4">
     <g id="line2d_4">
      <g>
       <use xlink:href="#me9a3f922a6" x="578.25" y="507.6" style="fill: #262626; stroke: #262626; stroke-width: 1.25"/>
      </g>
     </g>
     <g id="text_4">
      <!-- State 4 -->
      <g style="fill: #262626" transform="translate(560.821875 524.973594) scale(0.11 -0.11)">
       <defs>
        <path id="ArialMT-34" d="M 2069 0 
L 2069 1097 
L 81 1097 
L 81 1613 
L 2172 4581 
L 2631 4581 
L 2631 1613 
L 3250 1613 
L 3250 1097 
L 2631 1097 
L 2631 0 
L 2069 0 
z
M 2069 1613 
L 2069 3678 
L 634 1613 
L 2069 1613 
z
" transform="scale(0.015625)"/>
       </defs>
       <use xlink:href="#ArialMT-53"/>
       <use xlink:href="#ArialMT-74" x="66.699219"/>
       <use xlink:href="#ArialMT-61" x="94.482422"/>
       <use xlink:href="#ArialMT-74" x="150.097656"/>
       <use xlink:href="#ArialMT-65" x="177.880859"/>
       <use xlink:href="#ArialMT-20" x="233.496094"/>
       <use xlink:href="#ArialMT-34" x="261.279297"/>
      </g>
     </g>
    </g>
   </g>
   <g id="matplotlib.axis_2">
    <g id="ytick_1">
     <g id="line2d_5">
      <defs>
       <path id="m2a4bd7aab7" d="M 0 0 
L -6 0 
" style="stroke: #262626; stroke-width: 1.25"/>
      </defs>
      <g>
       <use xlink:href="#m2a4bd7aab7" x="90" y="495.7875" style="fill: #262626; stroke: #262626; stroke-width: 1.25"/>
      </g>
     </g>
     <g id="text_5">
      <!-- −3 -->
      <g style="fill: #262626" transform="translate(67.958281 499.724297) scale(0.11 -0.11)">
       <defs>
        <path id="ArialMT-2212" d="M 3381 1997 
L 356 1997 
L 356 2522 
L 3381 2522 
L 3381 1997 
z
" transform="scale(0.015625)"/>
       </defs>
       <use xlink:href="#ArialMT-2212"/>
       <use xlink:href="#ArialMT-33" x="58.398438"/>
      </g>
     </g>
    </g>
    <g id="ytick_2">
     <g id="line2d_6">
      <g>
       <use xlink:href="#m2a4bd7aab7" x="90" y="436.725" style="fill: #262626; stroke: #262626; stroke-width: 1.25"/>
      </g>
     </g>
     <g id="text_6">
      <!-- −2 -->
      <g style="fill: #262626" transform="translate(67.958281 440.661797) scale(0.11 -0.11)">
       <use xlink:href="#ArialMT-2212"/>
       <use xlink:href="#ArialMT-32" x="58.398438"/>
      </g>
     </g>
    </g>
    <g id="ytick_3">
     <g id="line2d_7">
      <g>
       <use xlink:href="#m2a4bd7aab7" x="90" y="377.6625" style="fill: #262626; stroke: #262626; stroke-width: 1.25"/>
      </g>
     </g>
     <g id="text_7">
      <!-- −1 -->
      <g style="fill: #262626" transform="translate(67.958281 381.599297) scale(0.11 -0.11)">
       <use xlink:href="#ArialMT-2212"/>
       <use xlink:href="#ArialMT-31" x="58.398438"/>
      </g>
     </g>
    </g>
    <g id="ytick_4">
     <g id="line2d_8">
      <g>
       <use xlink:href="#m2a4bd7aab7" x="90" y="318.6" style="fill: #262626; stroke: #262626; stroke-width: 1.25"/>
      </g>
     </g>
     <g id="text_8">
      <!-- 0 -->
      <g style="fill: #262626" transform="translate(74.382969 322.536797) scale(0.11 -0.11)">
       <defs>
        <path id="ArialMT-30" d="M 266 2259 
Q 266 3072 433 3567 
Q 600 4063 929 4331 
Q 1259 4600 1759 4600 
Q 2128 4600 2406 4451 
Q 2684 4303 2865 4023 
Q 3047 3744 3150 3342 
Q 3253 2941 3253 2259 
Q 3253 1453 3087 958 
Q 2922 463 2592 192 
Q 2263 -78 1759 -78 
Q 1097 -78 719 397 
Q 266 969 266 2259 
z
M 844 2259 
Q 844 1131 1108 757 
Q 1372 384 1759 384 
Q 2147 384 2411 759 
Q 2675 1134 2675 2259 
Q 2675 3391 2411 3762 
Q 2147 4134 1753 4134 
Q 1366 4134 1134 3806 
Q 844 3388 844 2259 
z
" transform="scale(0.015625)"/>
       </defs>
       <use xlink:href="#ArialMT-30"/>
      </g>
     </g>
    </g>
    <g id="ytick_5">
     <g id="line2d_9">
      <g>
       <use xlink:href="#m2a4bd7aab7" x="90" y="259.5375" style="fill: #262626; stroke: #262626; stroke-width: 1.25"/>
      </g>
     </g>
     <g id="text_9">
      <!-- 1 -->
      <g style="fill: #262626" transform="translate(74.382969 263.474297) scale(0.11 -0.11)">
       <use xlink:href="#ArialMT-31"/>
      </g>
     </g>
    </g>
    <g id="ytick_6">
     <g id="line2d_10">
      <g>
       <use xlink:href="#m2a4bd7aab7" x="90" y="200.475" style="fill: #262626; stroke: #262626; stroke-width: 1.25"/>
      </g>
     </g>
     <g id="text_10">
      <!-- 2 -->
      <g style="fill: #262626" transform="translate(74.382969 204.411797) scale(0.11 -0.11)">
       <use xlink:href="#ArialMT-32"/>
      </g>
     </g>
    </g>
    <g id="ytick_7">
     <g id="line2d_11">
      <g>
       <use xlink:href="#m2a4bd7aab7" x="90" y="141.4125" style="fill: #262626; stroke: #262626; stroke-width: 1.25"/>
      </g>
     </g>
     <g id="text_11">
      <!-- 3 -->
      <g style="fill: #262626" transform="translate(74.382969 145.349297) scale(0.11 -0.11)">
       <use xlink:href="#ArialMT-33"/>
      </g>
     </g>
    </g>
    <g id="text_12">
     <!-- Value (z-scored) -->
     <g style="fill: #262626" transform="translate(61.432656 362.170313) rotate(-90) scale(0.12 -0.12)">
      <defs>
       <path id="ArialMT-56" d="M 1803 0 
L 28 4581 
L 684 4581 
L 1875 1253 
Q 2019 853 2116 503 
Q 2222 878 2363 1253 
L 3600 4581 
L 4219 4581 
L 2425 0 
L 1803 0 
z
" transform="scale(0.015625)"/>
       <path id="ArialMT-6c" d="M 409 0 
L 409 4581 
L 972 4581 
L 972 0 
L 409 0 
z
" transform="scale(0.015625)"/>
       <path id="ArialMT-75" d="M 2597 0 
L 2597 488 
Q 2209 -75 1544 -75 
Q 1250 -75 995 37 
Q 741 150 617 320 
Q 494 491 444 738 
Q 409 903 409 1263 
L 409 3319 
L 972 3319 
L 972 1478 
Q 972 1038 1006 884 
Q 1059 663 1231 536 
Q 1403 409 1656 409 
Q 1909 409 2131 539 
Q 2353 669 2445 892 
Q 2538 1116 2538 1541 
L 2538 3319 
L 3100 3319 
L 3100 0 
L 2597 0 
z
" transform="scale(0.015625)"/>
       <path id="ArialMT-28" d="M 1497 -1347 
Q 1031 -759 709 28 
Q 388 816 388 1659 
Q 388 2403 628 3084 
Q 909 3875 1497 4659 
L 1900 4659 
Q 1522 4009 1400 3731 
Q 1209 3300 1100 2831 
Q 966 2247 966 1656 
Q 966 153 1900 -1347 
L 1497 -1347 
z
" transform="scale(0.015625)"/>
       <path id="ArialMT-7a" d="M 125 0 
L 125 456 
L 2238 2881 
Q 1878 2863 1603 2863 
L 250 2863 
L 250 3319 
L 2963 3319 
L 2963 2947 
L 1166 841 
L 819 456 
Q 1197 484 1528 484 
L 3063 484 
L 3063 0 
L 125 0 
z
" transform="scale(0.015625)"/>
       <path id="ArialMT-2d" d="M 203 1375 
L 203 1941 
L 1931 1941 
L 1931 1375 
L 203 1375 
z
" transform="scale(0.015625)"/>
       <path id="ArialMT-73" d="M 197 991 
L 753 1078 
Q 800 744 1014 566 
Q 1228 388 1613 388 
Q 2000 388 2187 545 
Q 2375 703 2375 916 
Q 2375 1106 2209 1216 
Q 2094 1291 1634 1406 
Q 1016 1563 777 1677 
Q 538 1791 414 1992 
Q 291 2194 291 2438 
Q 291 2659 392 2848 
Q 494 3038 669 3163 
Q 800 3259 1026 3326 
Q 1253 3394 1513 3394 
Q 1903 3394 2198 3281 
Q 2494 3169 2634 2976 
Q 2775 2784 2828 2463 
L 2278 2388 
Q 2241 2644 2061 2787 
Q 1881 2931 1553 2931 
Q 1166 2931 1000 2803 
Q 834 2675 834 2503 
Q 834 2394 903 2306 
Q 972 2216 1119 2156 
Q 1203 2125 1616 2013 
Q 2213 1853 2448 1751 
Q 2684 1650 2818 1456 
Q 2953 1263 2953 975 
Q 2953 694 2789 445 
Q 2625 197 2315 61 
Q 2006 -75 1616 -75 
Q 969 -75 630 194 
Q 291 463 197 991 
z
" transform="scale(0.015625)"/>
       <path id="ArialMT-63" d="M 2588 1216 
L 3141 1144 
Q 3050 572 2676 248 
Q 2303 -75 1759 -75 
Q 1078 -75 664 370 
Q 250 816 250 1647 
Q 250 2184 428 2587 
Q 606 2991 970 3192 
Q 1334 3394 1763 3394 
Q 2303 3394 2647 3120 
Q 2991 2847 3088 2344 
L 2541 2259 
Q 2463 2594 2264 2762 
Q 2066 2931 1784 2931 
Q 1359 2931 1093 2626 
Q 828 2322 828 1663 
Q 828 994 1084 691 
Q 1341 388 1753 388 
Q 2084 388 2306 591 
Q 2528 794 2588 1216 
z
" transform="scale(0.015625)"/>
       <path id="ArialMT-6f" d="M 213 1659 
Q 213 2581 725 3025 
Q 1153 3394 1769 3394 
Q 2453 3394 2887 2945 
Q 3322 2497 3322 1706 
Q 3322 1066 3130 698 
Q 2938 331 2570 128 
Q 2203 -75 1769 -75 
Q 1072 -75 642 372 
Q 213 819 213 1659 
z
M 791 1659 
Q 791 1022 1069 705 
Q 1347 388 1769 388 
Q 2188 388 2466 706 
Q 2744 1025 2744 1678 
Q 2744 2294 2464 2611 
Q 2184 2928 1769 2928 
Q 1347 2928 1069 2612 
Q 791 2297 791 1659 
z
" transform="scale(0.015625)"/>
       <path id="ArialMT-72" d="M 416 0 
L 416 3319 
L 922 3319 
L 922 2816 
Q 1116 3169 1280 3281 
Q 1444 3394 1641 3394 
Q 1925 3394 2219 3213 
L 2025 2691 
Q 1819 2813 1613 2813 
Q 1428 2813 1281 2702 
Q 1134 2591 1072 2394 
Q 978 2094 978 1738 
L 978 0 
L 416 0 
z
" transform="scale(0.015625)"/>
       <path id="ArialMT-64" d="M 2575 0 
L 2575 419 
Q 2259 -75 1647 -75 
Q 1250 -75 917 144 
Q 584 363 401 755 
Q 219 1147 219 1656 
Q 219 2153 384 2558 
Q 550 2963 881 3178 
Q 1213 3394 1622 3394 
Q 1922 3394 2156 3267 
Q 2391 3141 2538 2938 
L 2538 4581 
L 3097 4581 
L 3097 0 
L 2575 0 
z
M 797 1656 
Q 797 1019 1065 703 
Q 1334 388 1700 388 
Q 2069 388 2326 689 
Q 2584 991 2584 1609 
Q 2584 2291 2321 2609 
Q 2059 2928 1675 2928 
Q 1300 2928 1048 2622 
Q 797 2316 797 1656 
z
" transform="scale(0.015625)"/>
       <path id="ArialMT-29" d="M 791 -1347 
L 388 -1347 
Q 1322 153 1322 1656 
Q 1322 2244 1188 2822 
Q 1081 3291 891 3722 
Q 769 4003 388 4659 
L 791 4659 
Q 1378 3875 1659 3084 
Q 1900 2403 1900 1659 
Q 1900 816 1576 28 
Q 1253 -759 791 -1347 
z
" transform="scale(0.015625)"/>
      </defs>
      <use xlink:href="#ArialMT-56"/>
      <use xlink:href="#ArialMT-61" x="59.324219"/>
      <use xlink:href="#ArialMT-6c" x="114.939453"/>
      <use xlink:href="#ArialMT-75" x="137.15625"/>
      <use xlink:href="#ArialMT-65" x="192.771484"/>
      <use xlink:href="#ArialMT-20" x="248.386719"/>
      <use xlink:href="#ArialMT-28" x="276.169922"/>
      <use xlink:href="#ArialMT-7a" x="309.470703"/>
      <use xlink:href="#ArialMT-2d" x="359.470703"/>
      <use xlink:href="#ArialMT-73" x="392.771484"/>
      <use xlink:href="#ArialMT-63" x="442.771484"/>
      <use xlink:href="#ArialMT-6f" x="492.771484"/>
      <use xlink:href="#ArialMT-72" x="548.386719"/>
      <use xlink:href="#ArialMT-65" x="581.6875"/>
      <use xlink:href="#ArialMT-64" x="637.302734"/>
      <use xlink:href="#ArialMT-29" x="692.917969"/>
     </g>
    </g>
   </g>
   <g id="PolyCollection_1">
    <defs>
     <path id="m9a1d5367fb" d="M 161.693183 -727.372467 
L 159.847657 -727.372467 
L 159.847657 -728.839051 
L 159.847657 -730.305635 
L 159.847657 -731.772219 
L 159.847657 -733.238803 
L 159.847657 -734.705387 
L 159.847657 -736.171971 
L 159.847657 -737.638555 
L 159.847657 -739.105139 
L 159.847657 -740.571723 
L 159.847657 -742.038306 
L 159.847657 -743.50489 
L 159.847657 -744.971474 
L 159.847657 -746.438058 
L 159.847657 -747.904642 
L 159.847657 -749.371226 
L 159.847657 -750.83781 
L 159.847657 -752.304394 
L 159.847657 -753.770978 
L 159.847657 -755.237562 
L 159.847657 -756.704146 
L 159.847657 -758.17073 
L 159.847657 -759.637314 
L 159.847657 -761.103897 
L 159.847657 -762.570481 
L 159.847657 -764.037065 
L 159.847657 -765.503649 
L 159.847657 -766.970233 
L 159.847657 -768.436817 
L 159.847657 -769.903401 
L 159.847657 -771.369985 
L 159.847657 -772.836569 
L 159.847657 -774.303153 
L 159.847657 -775.769737 
L 159.847657 -777.236321 
L 159.847657 -778.702905 
L 159.847657 -780.169488 
L 159.847657 -781.636072 
L 159.847657 -783.102656 
L 163.773862 -783.102656 
L 163.773862 -783.102656 
L 164.98142 -781.636072 
L 166.519221 -780.169488 
L 168.454611 -778.702905 
L 170.824176 -777.236321 
L 173.617668 -775.769737 
L 176.770803 -774.303153 
L 180.165156 -772.836569 
L 183.632257 -771.369985 
L 186.962599 -769.903401 
L 189.924067 -768.436817 
L 192.292816 -766.970233 
L 193.891934 -765.503649 
L 194.625 -764.037065 
L 194.49049 -762.570481 
L 193.571337 -761.103897 
L 192.006439 -759.637314 
L 189.958664 -758.17073 
L 187.592114 -756.704146 
L 185.062431 -755.237562 
L 182.514838 -753.770978 
L 180.080806 -752.304394 
L 177.867077 -750.83781 
L 175.937761 -749.371226 
L 174.29753 -747.904642 
L 172.887499 -746.438058 
L 171.602311 -744.971474 
L 170.327279 -743.50489 
L 168.982759 -742.038306 
L 167.556642 -740.571723 
L 166.109848 -739.105139 
L 164.752372 -737.638555 
L 163.601185 -736.171971 
L 162.738292 -734.705387 
L 162.184754 -733.238803 
L 161.897743 -731.772219 
L 161.788228 -730.305635 
L 161.750588 -728.839051 
L 161.693183 -727.372467 
z
" style="stroke: #d55e00; stroke-opacity: 0.3"/>
    </defs>
    <g clip-path="url(#p4908f997c8)">
     <use xlink:href="#m9a1d5367fb" x="0" y="1080" style="fill: #d55e00; fill-opacity: 0.3; stroke: #d55e00; stroke-opacity: 0.3"/>
    </g>
   </g>
   <g id="PolyCollection_2">
    <defs>
     <path id="m947ae6ab68" d="M 301.772813 -697.876858 
L 299.390782 -697.876858 
L 299.390782 -700.796523 
L 299.390782 -703.716188 
L 299.390782 -706.635853 
L 299.390782 -709.555518 
L 299.390782 -712.475182 
L 299.390782 -715.394847 
L 299.390782 -718.314512 
L 299.390782 -721.234177 
L 299.390782 -724.153842 
L 299.390782 -727.073506 
L 299.390782 -729.993171 
L 299.390782 -732.912836 
L 299.390782 -735.832501 
L 299.390782 -738.752166 
L 299.390782 -741.67183 
L 299.390782 -744.591495 
L 299.390782 -747.51116 
L 299.390782 -750.430825 
L 299.390782 -753.35049 
L 299.390782 -756.270154 
L 299.390782 -759.189819 
L 299.390782 -762.109484 
L 299.390782 -765.029149 
L 299.390782 -767.948813 
L 299.390782 -770.868478 
L 299.390782 -773.788143 
L 299.390782 -776.707808 
L 299.390782 -779.627473 
L 299.390782 -782.547137 
L 299.390782 -785.466802 
L 299.390782 -788.386467 
L 299.390782 -791.306132 
L 299.390782 -794.225797 
L 299.390782 -797.145461 
L 299.390782 -800.065126 
L 299.390782 -802.984791 
L 299.390782 -805.904456 
L 299.390782 -808.824121 
L 305.607737 -808.824121 
L 305.607737 -808.824121 
L 307.167145 -805.904456 
L 308.87503 -802.984791 
L 310.711343 -800.065126 
L 312.661667 -797.145461 
L 314.725997 -794.225797 
L 316.924294 -791.306132 
L 319.290055 -788.386467 
L 321.845884 -785.466802 
L 324.564852 -782.547137 
L 327.333869 -779.627473 
L 329.94198 -776.707808 
L 332.110679 -773.788143 
L 333.565332 -770.868478 
L 334.125 -767.948813 
L 333.774438 -765.029149 
L 332.684881 -762.109484 
L 331.169049 -759.189819 
L 329.582269 -756.270154 
L 328.204338 -753.35049 
L 327.14631 -750.430825 
L 326.318778 -747.51116 
L 325.475439 -744.591495 
L 324.316033 -741.67183 
L 322.608166 -738.752166 
L 320.279493 -735.832501 
L 317.445224 -732.912836 
L 314.364852 -729.993171 
L 311.352389 -727.073506 
L 308.680902 -724.153842 
L 306.518094 -721.234177 
L 304.909564 -718.314512 
L 303.802888 -715.394847 
L 303.091056 -712.475182 
L 302.653069 -709.555518 
L 302.379329 -706.635853 
L 302.18152 -703.716188 
L 301.993875 -700.796523 
L 301.772813 -697.876858 
z
" style="stroke: #0072b2; stroke-opacity: 0.3"/>
    </defs>
    <g clip-path="url(#p4908f997c8)">
     <use xlink:href="#m947ae6ab68" x="0" y="1080" style="fill: #0072b2; fill-opacity: 0.3; stroke: #0072b2; stroke-opacity: 0.3"/>
    </g>
   </g>
   <g id="PolyCollection_3">
    <defs>
     <path id="m89840b3938" d="M 441.88277 -716.848406 
L 438.902499 -716.848406 
L 438.902499 -717.953149 
L 438.902499 -719.057893 
L 438.902499 -720.162637 
L 438.902499 -721.267381 
L 438.902499 -722.372125 
L 438.902499 -723.476869 
L 438.902499 -724.581613 
L 438.902499 -725.686357 
L 438.902499 -726.791101 
L 438.902499 -727.895845 
L 438.902499 -729.000589 
L 438.902499 -730.105333 
L 438.902499 -731.210077 
L 438.902499 -732.31482 
L 438.902499 -733.419564 
L 438.902499 -734.524308 
L 438.902499 -735.629052 
L 438.902499 -736.733796 
L 438.902499 -737.83854 
L 438.902499 -738.943284 
L 438.902499 -740.048028 
L 438.902499 -741.152772 
L 438.902499 -742.257516 
L 438.902499 -743.36226 
L 438.902499 -744.467004 
L 438.902499 -745.571747 
L 438.902499 -746.676491 
L 438.902499 -747.781235 
L 438.902499 -748.885979 
L 438.902499 -749.990723 
L 438.902499 -751.095467 
L 438.902499 -752.200211 
L 438.902499 -753.304955 
L 438.902499 -754.409699 
L 438.902499 -755.514443 
L 438.902499 -756.619187 
L 438.902499 -757.723931 
L 438.902499 -758.828674 
L 444.836862 -758.828674 
L 444.836862 -758.828674 
L 447.062733 -757.723931 
L 449.915634 -756.619187 
L 453.389786 -755.514443 
L 457.361082 -754.409699 
L 461.5735 -753.304955 
L 465.66257 -752.200211 
L 469.216902 -751.095467 
L 471.86398 -749.990723 
L 473.355396 -748.885979 
L 473.625 -747.781235 
L 472.801967 -746.676491 
L 471.175888 -745.571747 
L 469.125928 -744.467004 
L 467.03536 -743.36226 
L 465.214167 -742.257516 
L 463.847189 -741.152772 
L 462.976535 -740.048028 
L 462.517696 -738.943284 
L 462.300815 -737.83854 
L 462.123611 -736.733796 
L 461.80133 -735.629052 
L 461.202327 -734.524308 
L 460.264072 -733.419564 
L 458.991049 -732.31482 
L 457.440411 -731.210077 
L 455.702226 -730.105333 
L 453.879502 -729.000589 
L 452.070924 -727.895845 
L 450.357835 -726.791101 
L 448.796516 -725.686357 
L 447.416328 -724.581613 
L 446.223054 -723.476869 
L 445.205367 -722.372125 
L 444.341648 -721.267381 
L 443.605211 -720.162637 
L 442.967654 -719.057893 
L 442.40143 -717.953149 
L 441.88277 -716.848406 
z
" style="stroke: #009e73; stroke-opacity: 0.3"/>
    </defs>
    <g clip-path="url(#p4908f997c8)">
     <use xlink:href="#m89840b3938" x="0" y="1080" style="fill: #009e73; fill-opacity: 0.3; stroke: #009e73; stroke-opacity: 0.3"/>
    </g>
   </g>
   <g id="PolyCollection_4">
    <defs>
     <path id="md6b50a73f0" d="M 580.376755 -756.060091 
L 578.527824 -756.060091 
L 578.527824 -757.260962 
L 578.527824 -758.461833 
L 578.527824 -759.662705 
L 578.527824 -760.863576 
L 578.527824 -762.064447 
L 578.527824 -763.265318 
L 578.527824 -764.466189 
L 578.527824 -765.66706 
L 578.527824 -766.867931 
L 578.527824 -768.068803 
L 578.527824 -769.269674 
L 578.527824 -770.470545 
L 578.527824 -771.671416 
L 578.527824 -772.872287 
L 578.527824 -774.073158 
L 578.527824 -775.274029 
L 578.527824 -776.474901 
L 578.527824 -777.675772 
L 578.527824 -778.876643 
L 578.527824 -780.077514 
L 578.527824 -781.278385 
L 578.527824 -782.479256 
L 578.527824 -783.680128 
L 578.527824 -784.880999 
L 578.527824 -786.08187 
L 578.527824 -787.282741 
L 578.527824 -788.483612 
L 578.527824 -789.684483 
L 578.527824 -790.885354 
L 578.527824 -792.086226 
L 578.527824 -793.287097 
L 578.527824 -794.487968 
L 578.527824 -795.688839 
L 578.527824 -796.88971 
L 578.527824 -798.090581 
L 578.527824 -799.291452 
L 578.527824 -800.492324 
L 578.527824 -801.693195 
L 596.500228 -801.693195 
L 596.500228 -801.693195 
L 599.995026 -800.492324 
L 603.306031 -799.291452 
L 606.262755 -798.090581 
L 608.735843 -796.88971 
L 610.648948 -795.688839 
L 611.983935 -794.487968 
L 612.779495 -793.287097 
L 613.121725 -792.086226 
L 613.125 -790.885354 
L 612.904277 -789.684483 
L 612.544766 -788.483612 
L 612.078513 -787.282741 
L 611.476858 -786.08187 
L 610.662561 -784.880999 
L 609.538126 -783.680128 
L 608.021168 -782.479256 
L 606.07592 -781.278385 
L 603.732048 -780.077514 
L 601.086152 -778.876643 
L 598.285975 -777.675772 
L 595.501541 -776.474901 
L 592.890737 -775.274029 
L 590.568701 -774.073158 
L 588.589705 -772.872287 
L 586.946614 -771.671416 
L 585.587265 -770.470545 
L 584.441225 -769.269674 
L 583.447058 -768.068803 
L 582.570735 -766.867931 
L 581.810005 -765.66706 
L 581.185211 -764.466189 
L 580.721859 -763.265318 
L 580.432405 -762.064447 
L 580.303981 -760.863576 
L 580.295968 -759.662705 
L 580.347656 -758.461833 
L 580.392928 -757.260962 
L 580.376755 -756.060091 
z
" style="stroke: #cc79a7; stroke-opacity: 0.3"/>
    </defs>
    <g clip-path="url(#p4908f997c8)">
     <use xlink:href="#md6b50a73f0" x="0" y="1080" style="fill: #cc79a7; fill-opacity: 0.3; stroke: #cc79a7; stroke-opacity: 0.3"/>
    </g>
   </g>
   <g id="PathCollection_1">
    <defs>
     <path id="m5a6f842f41" d="M 0 0.866025 
C 0.229673 0.866025 0.449969 0.774776 0.612372 0.612372 
C 0.774776 0.449969 0.866025 0.229673 0.866025 0 
C 0.866025 -0.229673 0.774776 -0.449969 0.612372 -0.612372 
C 0.449969 -0.774776 0.229673 -0.866025 0 -0.866025 
C -0.229673 -0.866025 -0.449969 -0.774776 -0.612372 -0.612372 
C -0.774776 -0.449969 -0.866025 -0.229673 -0.866025 0 
C -0.866025 0.229673 -0.774776 0.449969 -0.612372 0.612372 
C -0.449969 0.774776 -0.229673 0.866025 0 0.866025 
z
" style="stroke: #d55e00"/>
    </defs>
    <g clip-path="url(#p4908f997c8)">
     <use xlink:href="#m5a6f842f41" x="126.46508" y="325.691269" style="fill: #d55e00; stroke: #d55e00"/>
     <use xlink:href="#m5a6f842f41" x="133.200606" y="303.776427" style="fill: #d55e00; stroke: #d55e00"/>
     <use xlink:href="#m5a6f842f41" x="126.54053" y="336.327227" style="fill: #d55e00; stroke: #d55e00"/>
     <use xlink:href="#m5a6f842f41" x="137.159664" y="326.23383" style="fill: #d55e00; stroke: #d55e00"/>
     <use xlink:href="#m5a6f842f41" x="134.131113" y="320.139889" style="fill: #d55e00; stroke: #d55e00"/>
     <use xlink:href="#m5a6f842f41" x="127.970177" y="308.968037" style="fill: #d55e00; stroke: #d55e00"/>
     <use xlink:href="#m5a6f842f41" x="132.727192" y="318.209707" style="fill: #d55e00; stroke: #d55e00"/>
     <use xlink:href="#m5a6f842f41" x="138.525332" y="339.052963" style="fill: #d55e00; stroke: #d55e00"/>
     <use xlink:href="#m5a6f842f41" x="138.08098" y="325.502174" style="fill: #d55e00; stroke: #d55e00"/>
     <use xlink:href="#m5a6f842f41" x="136.333754" y="322.582405" style="fill: #d55e00; stroke: #d55e00"/>
     <use xlink:href="#m5a6f842f41" x="131.518603" y="313.935587" style="fill: #d55e00; stroke: #d55e00"/>
     <use xlink:href="#m5a6f842f41" x="134.982652" y="329.123928" style="fill: #d55e00; stroke: #d55e00"/>
     <use xlink:href="#m5a6f842f41" x="128.084714" y="316.266687" style="fill: #d55e00; stroke: #d55e00"/>
     <use xlink:href="#m5a6f842f41" x="133.584904" y="331.0353" style="fill: #d55e00; stroke: #d55e00"/>
     <use xlink:href="#m5a6f842f41" x="136.451798" y="313.737623" style="fill: #d55e00; stroke: #d55e00"/>
     <use xlink:href="#m5a6f842f41" x="132.270232" y="319.690966" style="fill: #d55e00; stroke: #d55e00"/>
     <use xlink:href="#m5a6f842f41" x="127.537717" y="318.067483" style="fill: #d55e00; stroke: #d55e00"/>
     <use xlink:href="#m5a6f842f41" x="128.301272" y="320.627726" style="fill: #d55e00; stroke: #d55e00"/>
     <use xlink:href="#m5a6f842f41" x="136.477856" y="314.890834" style="fill: #d55e00; stroke: #d55e00"/>
     <use xlink:href="#m5a6f842f41" x="136.977794" y="329.078649" style="fill: #d55e00; stroke: #d55e00"/>
     <use xlink:href="#m5a6f842f41" x="129.934669" y="314.873615" style="fill: #d55e00; stroke: #d55e00"/>
     <use xlink:href="#m5a6f842f41" x="130.304125" y="312.056723" style="fill: #d55e00; stroke: #d55e00"/>
     <use xlink:href="#m5a6f842f41" x="131.229553" y="321.972268" style="fill: #d55e00; stroke: #d55e00"/>
     <use xlink:href="#m5a6f842f41" x="133.896196" y="312.062089" style="fill: #d55e00; stroke: #d55e00"/>
     <use xlink:href="#m5a6f842f41" x="138.352573" y="307.1061" style="fill: #d55e00; stroke: #d55e00"/>
     <use xlink:href="#m5a6f842f41" x="129.69984" y="305.289176" style="fill: #d55e00; stroke: #d55e00"/>
     <use xlink:href="#m5a6f842f41" x="137.198345" y="309.4457" style="fill: #d55e00; stroke: #d55e00"/>
     <use xlink:href="#m5a6f842f41" x="125.661079" y="336.65708" style="fill: #d55e00; stroke: #d55e00"/>
     <use xlink:href="#m5a6f842f41" x="127.1113" y="322.752234" style="fill: #d55e00; stroke: #d55e00"/>
     <use xlink:href="#m5a6f842f41" x="132.443843" y="296.897344" style="fill: #d55e00; stroke: #d55e00"/>
     <use xlink:href="#m5a6f842f41" x="136.469618" y="307.946399" style="fill: #d55e00; stroke: #d55e00"/>
     <use xlink:href="#m5a6f842f41" x="135.123062" y="335.795499" style="fill: #d55e00; stroke: #d55e00"/>
     <use xlink:href="#m5a6f842f41" x="129.727215" y="314.812007" style="fill: #d55e00; stroke: #d55e00"/>
     <use xlink:href="#m5a6f842f41" x="132.876322" y="315.566609" style="fill: #d55e00; stroke: #d55e00"/>
     <use xlink:href="#m5a6f842f41" x="132.374304" y="314.228124" style="fill: #d55e00; stroke: #d55e00"/>
     <use xlink:href="#m5a6f842f41" x="126.952298" y="318.070415" style="fill: #d55e00; stroke: #d55e00"/>
     <use xlink:href="#m5a6f842f41" x="130.921846" y="311.847283" style="fill: #d55e00; stroke: #d55e00"/>
     <use xlink:href="#m5a6f842f41" x="138.305617" y="322.921371" style="fill: #d55e00; stroke: #d55e00"/>
     <use xlink:href="#m5a6f842f41" x="137.528234" y="352.627533" style="fill: #d55e00; stroke: #d55e00"/>
    </g>
   </g>
   <g id="PathCollection_2">
    <defs>
     <path id="mae5ea406a7" d="M 0 0.866025 
C 0.229673 0.866025 0.449969 0.774776 0.612372 0.612372 
C 0.774776 0.449969 0.866025 0.229673 0.866025 0 
C 0.866025 -0.229673 0.774776 -0.449969 0.612372 -0.612372 
C 0.449969 -0.774776 0.229673 -0.866025 0 -0.866025 
C -0.229673 -0.866025 -0.449969 -0.774776 -0.612372 -0.612372 
C -0.774776 -0.449969 -0.866025 -0.229673 -0.866025 0 
C -0.866025 0.229673 -0.774776 0.449969 -0.612372 0.612372 
C -0.449969 0.774776 -0.229673 0.866025 0 0.866025 
z
" style="stroke: #0072b2"/>
    </defs>
    <g clip-path="url(#p4908f997c8)">
     <use xlink:href="#mae5ea406a7" x="273.816887" y="292.512249" style="fill: #0072b2; stroke: #0072b2"/>
     <use xlink:href="#mae5ea406a7" x="277.448426" y="338.694577" style="fill: #0072b2; stroke: #0072b2"/>
     <use xlink:href="#mae5ea406a7" x="273.134014" y="315.699828" style="fill: #0072b2; stroke: #0072b2"/>
     <use xlink:href="#mae5ea406a7" x="273.044103" y="293.495612" style="fill: #0072b2; stroke: #0072b2"/>
     <use xlink:href="#mae5ea406a7" x="276.166351" y="298.334725" style="fill: #0072b2; stroke: #0072b2"/>
     <use xlink:href="#mae5ea406a7" x="268.316465" y="321.642908" style="fill: #0072b2; stroke: #0072b2"/>
     <use xlink:href="#mae5ea406a7" x="274.606821" y="312.500755" style="fill: #0072b2; stroke: #0072b2"/>
     <use xlink:href="#mae5ea406a7" x="269.563176" y="341.406193" style="fill: #0072b2; stroke: #0072b2"/>
     <use xlink:href="#mae5ea406a7" x="277.416858" y="271.175879" style="fill: #0072b2; stroke: #0072b2"/>
     <use xlink:href="#mae5ea406a7" x="273.480347" y="339.104538" style="fill: #0072b2; stroke: #0072b2"/>
     <use xlink:href="#mae5ea406a7" x="267.566145" y="289.709506" style="fill: #0072b2; stroke: #0072b2"/>
     <use xlink:href="#mae5ea406a7" x="274.504141" y="288.456624" style="fill: #0072b2; stroke: #0072b2"/>
     <use xlink:href="#mae5ea406a7" x="276.836837" y="302.129069" style="fill: #0072b2; stroke: #0072b2"/>
     <use xlink:href="#mae5ea406a7" x="268.122004" y="278.552813" style="fill: #0072b2; stroke: #0072b2"/>
     <use xlink:href="#mae5ea406a7" x="274.949497" y="307.602225" style="fill: #0072b2; stroke: #0072b2"/>
     <use xlink:href="#mae5ea406a7" x="266.077254" y="308.600206" style="fill: #0072b2; stroke: #0072b2"/>
     <use xlink:href="#mae5ea406a7" x="264.858303" y="319.330617" style="fill: #0072b2; stroke: #0072b2"/>
     <use xlink:href="#mae5ea406a7" x="271.360854" y="316.809898" style="fill: #0072b2; stroke: #0072b2"/>
     <use xlink:href="#mae5ea406a7" x="269.718554" y="364.020627" style="fill: #0072b2; stroke: #0072b2"/>
     <use xlink:href="#mae5ea406a7" x="272.439776" y="325.640583" style="fill: #0072b2; stroke: #0072b2"/>
     <use xlink:href="#mae5ea406a7" x="267.34728" y="382.123142" style="fill: #0072b2; stroke: #0072b2"/>
     <use xlink:href="#mae5ea406a7" x="272.207231" y="341.115565" style="fill: #0072b2; stroke: #0072b2"/>
     <use xlink:href="#mae5ea406a7" x="266.040394" y="316.975304" style="fill: #0072b2; stroke: #0072b2"/>
     <use xlink:href="#mae5ea406a7" x="276.888141" y="307.998057" style="fill: #0072b2; stroke: #0072b2"/>
     <use xlink:href="#mae5ea406a7" x="270.764018" y="340.130745" style="fill: #0072b2; stroke: #0072b2"/>
     <use xlink:href="#mae5ea406a7" x="274.468388" y="334.605178" style="fill: #0072b2; stroke: #0072b2"/>
     <use xlink:href="#mae5ea406a7" x="269.576076" y="305.547744" style="fill: #0072b2; stroke: #0072b2"/>
     <use xlink:href="#mae5ea406a7" x="271.456022" y="285.110878" style="fill: #0072b2; stroke: #0072b2"/>
     <use xlink:href="#mae5ea406a7" x="277.109506" y="312.075821" style="fill: #0072b2; stroke: #0072b2"/>
     <use xlink:href="#mae5ea406a7" x="275.851625" y="309.68458" style="fill: #0072b2; stroke: #0072b2"/>
     <use xlink:href="#mae5ea406a7" x="278.11838" y="336.99548" style="fill: #0072b2; stroke: #0072b2"/>
     <use xlink:href="#mae5ea406a7" x="272.303878" y="310.818591" style="fill: #0072b2; stroke: #0072b2"/>
     <use xlink:href="#mae5ea406a7" x="277.320895" y="309.461583" style="fill: #0072b2; stroke: #0072b2"/>
     <use xlink:href="#mae5ea406a7" x="267.381752" y="331.453876" style="fill: #0072b2; stroke: #0072b2"/>
     <use xlink:href="#mae5ea406a7" x="277.071342" y="310.463871" style="fill: #0072b2; stroke: #0072b2"/>
     <use xlink:href="#mae5ea406a7" x="266.939818" y="342.219015" style="fill: #0072b2; stroke: #0072b2"/>
     <use xlink:href="#mae5ea406a7" x="267.983253" y="341.749542" style="fill: #0072b2; stroke: #0072b2"/>
     <use xlink:href="#mae5ea406a7" x="265.832406" y="321.018408" style="fill: #0072b2; stroke: #0072b2"/>
     <use xlink:href="#mae5ea406a7" x="267.8397" y="344.788426" style="fill: #0072b2; stroke: #0072b2"/>
    </g>
   </g>
   <g id="PathCollection_3">
    <defs>
     <path id="m952679ff44" d="M 0 0.866025 
C 0.229673 0.866025 0.449969 0.774776 0.612372 0.612372 
C 0.774776 0.449969 0.866025 0.229673 0.866025 0 
C 0.866025 -0.229673 0.774776 -0.449969 0.612372 -0.612372 
C 0.449969 -0.774776 0.229673 -0.866025 0 -0.866025 
C -0.229673 -0.866025 -0.449969 -0.774776 -0.612372 -0.612372 
C -0.774776 -0.449969 -0.866025 -0.229673 -0.866025 0 
C -0.866025 0.229673 -0.774776 0.449969 -0.612372 0.612372 
C -0.449969 0.774776 -0.229673 0.866025 0 0.866025 
z
" style="stroke: #009e73"/>
    </defs>
    <g clip-path="url(#p4908f997c8)">
     <use xlink:href="#m952679ff44" x="415.407359" y="343.853483" style="fill: #009e73; stroke: #009e73"/>
     <use xlink:href="#m952679ff44" x="417.678451" y="330.936195" style="fill: #009e73; stroke: #009e73"/>
     <use xlink:href="#m952679ff44" x="404.884689" y="343.448801" style="fill: #009e73; stroke: #009e73"/>
     <use xlink:href="#m952679ff44" x="408.98988" y="332.719101" style="fill: #009e73; stroke: #009e73"/>
     <use xlink:href="#m952679ff44" x="405.829503" y="343.211406" style="fill: #009e73; stroke: #009e73"/>
     <use xlink:href="#m952679ff44" x="416.194594" y="335.687575" style="fill: #009e73; stroke: #009e73"/>
     <use xlink:href="#m952679ff44" x="404.292581" y="342.637023" style="fill: #009e73; stroke: #009e73"/>
     <use xlink:href="#m952679ff44" x="409.992604" y="355.329137" style="fill: #009e73; stroke: #009e73"/>
     <use xlink:href="#m952679ff44" x="413.129714" y="345.79139" style="fill: #009e73; stroke: #009e73"/>
     <use xlink:href="#m952679ff44" x="405.328839" y="333.761831" style="fill: #009e73; stroke: #009e73"/>
     <use xlink:href="#m952679ff44" x="408.512774" y="329.874157" style="fill: #009e73; stroke: #009e73"/>
     <use xlink:href="#m952679ff44" x="414.092944" y="341.14946" style="fill: #009e73; stroke: #009e73"/>
     <use xlink:href="#m952679ff44" x="410.740416" y="356.82312" style="fill: #009e73; stroke: #009e73"/>
     <use xlink:href="#m952679ff44" x="411.701457" y="340.382652" style="fill: #009e73; stroke: #009e73"/>
     <use xlink:href="#m952679ff44" x="410.945377" y="343.697335" style="fill: #009e73; stroke: #009e73"/>
     <use xlink:href="#m952679ff44" x="404.73443" y="331.935772" style="fill: #009e73; stroke: #009e73"/>
     <use xlink:href="#m952679ff44" x="411.858458" y="334.747058" style="fill: #009e73; stroke: #009e73"/>
     <use xlink:href="#m952679ff44" x="417.182687" y="330.560021" style="fill: #009e73; stroke: #009e73"/>
     <use xlink:href="#m952679ff44" x="404.413133" y="330.179039" style="fill: #009e73; stroke: #009e73"/>
     <use xlink:href="#m952679ff44" x="414.023295" y="329.740722" style="fill: #009e73; stroke: #009e73"/>
     <use xlink:href="#m952679ff44" x="404.780101" y="363.151594" style="fill: #009e73; stroke: #009e73"/>
     <use xlink:href="#m952679ff44" x="410.762399" y="329.773035" style="fill: #009e73; stroke: #009e73"/>
     <use xlink:href="#m952679ff44" x="412.470912" y="350.125617" style="fill: #009e73; stroke: #009e73"/>
     <use xlink:href="#m952679ff44" x="408.528594" y="330.082836" style="fill: #009e73; stroke: #009e73"/>
     <use xlink:href="#m952679ff44" x="412.991289" y="349.301544" style="fill: #009e73; stroke: #009e73"/>
     <use xlink:href="#m952679ff44" x="409.360232" y="348.951368" style="fill: #009e73; stroke: #009e73"/>
     <use xlink:href="#m952679ff44" x="413.757892" y="337.129305" style="fill: #009e73; stroke: #009e73"/>
     <use xlink:href="#m952679ff44" x="404.647403" y="350.595254" style="fill: #009e73; stroke: #009e73"/>
     <use xlink:href="#m952679ff44" x="413.164236" y="332.333909" style="fill: #009e73; stroke: #009e73"/>
     <use xlink:href="#m952679ff44" x="405.560638" y="321.171326" style="fill: #009e73; stroke: #009e73"/>
     <use xlink:href="#m952679ff44" x="414.150994" y="327.920134" style="fill: #009e73; stroke: #009e73"/>
     <use xlink:href="#m952679ff44" x="415.54258" y="328.143601" style="fill: #009e73; stroke: #009e73"/>
     <use xlink:href="#m952679ff44" x="404.990392" y="337.03206" style="fill: #009e73; stroke: #009e73"/>
     <use xlink:href="#m952679ff44" x="414.204838" y="331.469412" style="fill: #009e73; stroke: #009e73"/>
     <use xlink:href="#m952679ff44" x="410.874336" y="347.504124" style="fill: #009e73; stroke: #009e73"/>
     <use xlink:href="#m952679ff44" x="409.532209" y="329.935039" style="fill: #009e73; stroke: #009e73"/>
     <use xlink:href="#m952679ff44" x="412.439261" y="345.28623" style="fill: #009e73; stroke: #009e73"/>
     <use xlink:href="#m952679ff44" x="414.289932" y="334.581486" style="fill: #009e73; stroke: #009e73"/>
     <use xlink:href="#m952679ff44" x="406.894665" y="330.132992" style="fill: #009e73; stroke: #009e73"/>
    </g>
   </g>
   <g id="PathCollection_4">
    <defs>
     <path id="maf9a977cdb" d="M 0 0.866025 
C 0.229673 0.866025 0.449969 0.774776 0.612372 0.612372 
C 0.774776 0.449969 0.866025 0.229673 0.866025 0 
C 0.866025 -0.229673 0.774776 -0.449969 0.612372 -0.612372 
C 0.449969 -0.774776 0.229673 -0.866025 0 -0.866025 
C -0.229673 -0.866025 -0.449969 -0.774776 -0.612372 -0.612372 
C -0.774776 -0.449969 -0.866025 -0.229673 -0.866025 0 
C -0.866025 0.229673 -0.774776 0.449969 -0.612372 0.612372 
C -0.449969 0.774776 -0.229673 0.866025 0 0.866025 
z
" style="stroke: #cc79a7"/>
    </defs>
    <g clip-path="url(#p4908f997c8)">
     <use xlink:href="#maf9a977cdb" x="554.886107" y="290.397349" style="fill: #cc79a7; stroke: #cc79a7"/>
     <use xlink:href="#maf9a977cdb" x="553.716005" y="300.906469" style="fill: #cc79a7; stroke: #cc79a7"/>
     <use xlink:href="#maf9a977cdb" x="544.197894" y="284.661732" style="fill: #cc79a7; stroke: #cc79a7"/>
     <use xlink:href="#maf9a977cdb" x="555.758622" y="297.701633" style="fill: #cc79a7; stroke: #cc79a7"/>
     <use xlink:href="#maf9a977cdb" x="550.098126" y="297.596556" style="fill: #cc79a7; stroke: #cc79a7"/>
     <use xlink:href="#maf9a977cdb" x="555.958268" y="304.547399" style="fill: #cc79a7; stroke: #cc79a7"/>
     <use xlink:href="#maf9a977cdb" x="556.635777" y="287.352022" style="fill: #cc79a7; stroke: #cc79a7"/>
     <use xlink:href="#maf9a977cdb" x="548.58144" y="278.3385" style="fill: #cc79a7; stroke: #cc79a7"/>
     <use xlink:href="#maf9a977cdb" x="549.858832" y="285.797378" style="fill: #cc79a7; stroke: #cc79a7"/>
     <use xlink:href="#maf9a977cdb" x="545.85122" y="288.364998" style="fill: #cc79a7; stroke: #cc79a7"/>
     <use xlink:href="#maf9a977cdb" x="547.547688" y="278.306805" style="fill: #cc79a7; stroke: #cc79a7"/>
     <use xlink:href="#maf9a977cdb" x="552.070323" y="290.870627" style="fill: #cc79a7; stroke: #cc79a7"/>
     <use xlink:href="#maf9a977cdb" x="546.691427" y="281.221559" style="fill: #cc79a7; stroke: #cc79a7"/>
     <use xlink:href="#maf9a977cdb" x="553.338951" y="287.217227" style="fill: #cc79a7; stroke: #cc79a7"/>
     <use xlink:href="#maf9a977cdb" x="551.819363" y="288.058856" style="fill: #cc79a7; stroke: #cc79a7"/>
     <use xlink:href="#maf9a977cdb" x="549.846427" y="295.240509" style="fill: #cc79a7; stroke: #cc79a7"/>
     <use xlink:href="#maf9a977cdb" x="551.780158" y="295.701527" style="fill: #cc79a7; stroke: #cc79a7"/>
     <use xlink:href="#maf9a977cdb" x="546.961975" y="301.357648" style="fill: #cc79a7; stroke: #cc79a7"/>
     <use xlink:href="#maf9a977cdb" x="549.215561" y="294.858573" style="fill: #cc79a7; stroke: #cc79a7"/>
     <use xlink:href="#maf9a977cdb" x="554.110123" y="299.163596" style="fill: #cc79a7; stroke: #cc79a7"/>
     <use xlink:href="#maf9a977cdb" x="547.613606" y="282.811578" style="fill: #cc79a7; stroke: #cc79a7"/>
     <use xlink:href="#maf9a977cdb" x="547.602447" y="298.414992" style="fill: #cc79a7; stroke: #cc79a7"/>
     <use xlink:href="#maf9a977cdb" x="550.008183" y="281.834103" style="fill: #cc79a7; stroke: #cc79a7"/>
     <use xlink:href="#maf9a977cdb" x="555.14931" y="309.07981" style="fill: #cc79a7; stroke: #cc79a7"/>
     <use xlink:href="#maf9a977cdb" x="551.330243" y="285.331694" style="fill: #cc79a7; stroke: #cc79a7"/>
     <use xlink:href="#maf9a977cdb" x="553.428409" y="284.800095" style="fill: #cc79a7; stroke: #cc79a7"/>
     <use xlink:href="#maf9a977cdb" x="548.25306" y="299.234697" style="fill: #cc79a7; stroke: #cc79a7"/>
     <use xlink:href="#maf9a977cdb" x="554.208254" y="281.204882" style="fill: #cc79a7; stroke: #cc79a7"/>
     <use xlink:href="#maf9a977cdb" x="544.492135" y="279.241566" style="fill: #cc79a7; stroke: #cc79a7"/>
     <use xlink:href="#maf9a977cdb" x="547.695511" y="323.939909" style="fill: #cc79a7; stroke: #cc79a7"/>
     <use xlink:href="#maf9a977cdb" x="551.685383" y="311.662971" style="fill: #cc79a7; stroke: #cc79a7"/>
     <use xlink:href="#maf9a977cdb" x="556.823607" y="293.697488" style="fill: #cc79a7; stroke: #cc79a7"/>
     <use xlink:href="#maf9a977cdb" x="548.444746" y="294.450825" style="fill: #cc79a7; stroke: #cc79a7"/>
     <use xlink:href="#maf9a977cdb" x="556.165045" y="293.463587" style="fill: #cc79a7; stroke: #cc79a7"/>
     <use xlink:href="#maf9a977cdb" x="544.112533" y="282.862346" style="fill: #cc79a7; stroke: #cc79a7"/>
     <use xlink:href="#maf9a977cdb" x="549.296364" y="302.203999" style="fill: #cc79a7; stroke: #cc79a7"/>
     <use xlink:href="#maf9a977cdb" x="554.475896" y="292.985028" style="fill: #cc79a7; stroke: #cc79a7"/>
     <use xlink:href="#maf9a977cdb" x="549.458886" y="289.197243" style="fill: #cc79a7; stroke: #cc79a7"/>
     <use xlink:href="#maf9a977cdb" x="555.1169" y="287.888291" style="fill: #cc79a7; stroke: #cc79a7"/>
    </g>
   </g>
   <g id="patch_3">
    <path d="M 149.2875 325.596721 
L 170.2125 325.596721 
L 170.2125 312.899856 
L 149.2875 312.899856 
L 149.2875 325.596721 
z
" clip-path="url(#p4908f997c8)" style="fill: #d55e00; opacity: 0.5; stroke: #000000; stroke-linejoin: miter"/>
   </g>
   <g id="line2d_12">
    <path d="M 159.75 325.596721 
L 159.75 339.052963 
" clip-path="url(#p4908f997c8)" style="fill: none; stroke: #000000; stroke-linecap: round"/>
   </g>
   <g id="line2d_13">
    <path d="M 159.75 312.899856 
L 159.75 296.897344 
" clip-path="url(#p4908f997c8)" style="fill: none; stroke: #000000; stroke-linecap: round"/>
   </g>
   <g id="line2d_14">
    <path d="M 154.51875 339.052963 
L 164.98125 339.052963 
" clip-path="url(#p4908f997c8)" style="fill: none; stroke: #000000; stroke-linecap: round"/>
   </g>
   <g id="line2d_15">
    <path d="M 154.51875 296.897344 
L 164.98125 296.897344 
" clip-path="url(#p4908f997c8)" style="fill: none; stroke: #000000; stroke-linecap: round"/>
   </g>
   <g id="patch_4">
    <path d="M 288.7875 337.845028 
L 309.7125 337.845028 
L 309.7125 306.574984 
L 288.7875 306.574984 
L 288.7875 337.845028 
z
" clip-path="url(#p4908f997c8)" style="fill: #0072b2; opacity: 0.5; stroke: #000000; stroke-linejoin: miter"/>
   </g>
   <g id="line2d_16">
    <path d="M 299.25 337.845028 
L 299.25 382.123142 
" clip-path="url(#p4908f997c8)" style="fill: none; stroke: #000000; stroke-linecap: round"/>
   </g>
   <g id="line2d_17">
    <path d="M 299.25 306.574984 
L 299.25 271.175879 
" clip-path="url(#p4908f997c8)" style="fill: none; stroke: #000000; stroke-linecap: round"/>
   </g>
   <g id="line2d_18">
    <path d="M 294.01875 382.123142 
L 304.48125 382.123142 
" clip-path="url(#p4908f997c8)" style="fill: none; stroke: #000000; stroke-linecap: round"/>
   </g>
   <g id="line2d_19">
    <path d="M 294.01875 271.175879 
L 304.48125 271.175879 
" clip-path="url(#p4908f997c8)" style="fill: none; stroke: #000000; stroke-linecap: round"/>
   </g>
   <g id="patch_5">
    <path d="M 428.2875 344.569857 
L 449.2125 344.569857 
L 449.2125 330.36953 
L 428.2875 330.36953 
L 428.2875 344.569857 
z
" clip-path="url(#p4908f997c8)" style="fill: #009e73; opacity: 0.5; stroke: #000000; stroke-linejoin: miter"/>
   </g>
   <g id="line2d_20">
    <path d="M 438.75 344.569857 
L 438.75 363.151594 
" clip-path="url(#p4908f997c8)" style="fill: none; stroke: #000000; stroke-linecap: round"/>
   </g>
   <g id="line2d_21">
    <path d="M 438.75 330.36953 
L 438.75 321.171326 
" clip-path="url(#p4908f997c8)" style="fill: none; stroke: #000000; stroke-linecap: round"/>
   </g>
   <g id="line2d_22">
    <path d="M 433.51875 363.151594 
L 443.98125 363.151594 
" clip-path="url(#p4908f997c8)" style="fill: none; stroke: #000000; stroke-linecap: round"/>
   </g>
   <g id="line2d_23">
    <path d="M 433.51875 321.171326 
L 443.98125 321.171326 
" clip-path="url(#p4908f997c8)" style="fill: none; stroke: #000000; stroke-linecap: round"/>
   </g>
   <g id="patch_6">
    <path d="M 567.7875 298.058313 
L 588.7125 298.058313 
L 588.7125 285.065895 
L 567.7875 285.065895 
L 567.7875 298.058313 
z
" clip-path="url(#p4908f997c8)" style="fill: #cc79a7; opacity: 0.5; stroke: #000000; stroke-linejoin: miter"/>
   </g>
   <g id="line2d_24">
    <path d="M 578.25 298.058313 
L 578.25 311.662971 
" clip-path="url(#p4908f997c8)" style="fill: none; stroke: #000000; stroke-linecap: round"/>
   </g>
   <g id="line2d_25">
    <path d="M 578.25 285.065895 
L 578.25 278.306805 
" clip-path="url(#p4908f997c8)" style="fill: none; stroke: #000000; stroke-linecap: round"/>
   </g>
   <g id="line2d_26">
    <path d="M 573.01875 311.662971 
L 583.48125 311.662971 
" clip-path="url(#p4908f997c8)" style="fill: none; stroke: #000000; stroke-linecap: round"/>
   </g>
   <g id="line2d_27">
    <path d="M 573.01875 278.306805 
L 583.48125 278.306805 
" clip-path="url(#p4908f997c8)" style="fill: none; stroke: #000000; stroke-linecap: round"/>
   </g>
   <g id="line2d_28">
    <path d="M 159.75 259.363379 
L 299.25 259.363379 
" clip-path="url(#p4908f997c8)" style="fill: none; stroke: #000000; stroke-width: 1.5; stroke-linecap: round"/>
   </g>
   <g id="line2d_29">
    <path d="M 159.75 247.550879 
L 578.25 247.550879 
" clip-path="url(#p4908f997c8)" style="fill: none; stroke: #000000; stroke-width: 1.5; stroke-linecap: round"/>
   </g>
   <g id="line2d_30">
    <path d="M 299.25 235.738379 
L 438.75 235.738379 
" clip-path="url(#p4908f997c8)" style="fill: none; stroke: #000000; stroke-width: 1.5; stroke-linecap: round"/>
   </g>
   <g id="line2d_31">
    <path d="M 438.75 223.925879 
L 578.25 223.925879 
" clip-path="url(#p4908f997c8)" style="fill: none; stroke: #000000; stroke-width: 1.5; stroke-linecap: round"/>
   </g>
   <g id="line2d_32">
    <path d="M 149.2875 318.070415 
L 170.2125 318.070415 
" clip-path="url(#p4908f997c8)" style="fill: none; stroke: #000000"/>
   </g>
   <g id="line2d_33">
    <path d="M 288.7875 315.699828 
L 309.7125 315.699828 
" clip-path="url(#p4908f997c8)" style="fill: none; stroke: #000000"/>
   </g>
   <g id="line2d_34">
    <path d="M 428.2875 335.687575 
L 449.2125 335.687575 
" clip-path="url(#p4908f997c8)" style="fill: none; stroke: #000000"/>
   </g>
   <g id="line2d_35">
    <path d="M 567.7875 290.870627 
L 588.7125 290.870627 
" clip-path="url(#p4908f997c8)" style="fill: none; stroke: #000000"/>
   </g>
   <g id="patch_7">
    <path d="M 90 507.6 
L 90 129.6 
" style="fill: none; stroke: #262626; stroke-width: 1.25; stroke-linejoin: miter; stroke-linecap: square"/>
   </g>
   <g id="patch_8">
    <path d="M 648 507.6 
L 648 129.6 
" style="fill: none; stroke: #262626; stroke-width: 1.25; stroke-linejoin: miter; stroke-linecap: square"/>
   </g>
   <g id="patch_9">
    <path d="M 90 507.6 
L 648 507.6 
" style="fill: none; stroke: #262626; stroke-width: 1.25; stroke-linejoin: miter; stroke-linecap: square"/>
   </g>
   <g id="patch_10">
    <path d="M 90 129.6 
L 648 129.6 
" style="fill: none; stroke: #262626; stroke-width: 1.25; stroke-linejoin: miter; stroke-linecap: square"/>
   </g>
   <g id="text_13">
    <!-- * -->
    <g transform="translate(229.5 259.363379) scale(0.12 -0.12)">
     <defs>
      <path id="ArialMT-2a" d="M 200 3741 
L 344 4184 
Q 841 4009 1066 3881 
Q 1006 4447 1003 4659 
L 1456 4659 
Q 1447 4350 1384 3884 
Q 1706 4047 2122 4184 
L 2266 3741 
Q 1869 3609 1488 3566 
Q 1678 3400 2025 2975 
L 1650 2709 
Q 1469 2956 1222 3381 
Q 991 2941 816 2709 
L 447 2975 
Q 809 3422 966 3566 
Q 563 3644 200 3741 
z
" transform="scale(0.015625)"/>
     </defs>
     <use xlink:href="#ArialMT-2a"/>
    </g>
   </g>
   <g id="text_14">
    <!-- * -->
    <g transform="translate(369 247.550879) scale(0.12 -0.12)">
     <use xlink:href="#ArialMT-2a"/>
    </g>
   </g>
   <g id="text_15">
    <!-- * -->
    <g transform="translate(369 235.738379) scale(0.12 -0.12)">
     <use xlink:href="#ArialMT-2a"/>
    </g>
   </g>
   <g id="text_16">
    <!-- * -->
    <g transform="translate(508.5 223.925879) scale(0.12 -0.12)">
     <use xlink:href="#ArialMT-2a"/>
    </g>
   </g>
   <g id="text_17">
    <!-- IBI -->
    <g style="fill: #262626" transform="translate(360.055313 109.6) scale(0.14 -0.14)">
     <defs>
      <path id="Arial-BoldMT-49" d="M 438 0 
L 438 4581 
L 1363 4581 
L 1363 0 
L 438 0 
z
" transform="scale(0.015625)"/>
      <path id="Arial-BoldMT-42" d="M 469 4581 
L 2300 4581 
Q 2844 4581 3111 4536 
Q 3378 4491 3589 4347 
Q 3800 4203 3940 3964 
Q 4081 3725 4081 3428 
Q 4081 3106 3907 2837 
Q 3734 2569 3438 2434 
Q 3856 2313 4081 2019 
Q 4306 1725 4306 1328 
Q 4306 1016 4161 720 
Q 4016 425 3764 248 
Q 3513 72 3144 31 
Q 2913 6 2028 0 
L 469 0 
L 469 4581 
z
M 1394 3819 
L 1394 2759 
L 2000 2759 
Q 2541 2759 2672 2775 
Q 2909 2803 3045 2939 
Q 3181 3075 3181 3297 
Q 3181 3509 3064 3642 
Q 2947 3775 2716 3803 
Q 2578 3819 1925 3819 
L 1394 3819 
z
M 1394 1997 
L 1394 772 
L 2250 772 
Q 2750 772 2884 800 
Q 3091 838 3220 983 
Q 3350 1128 3350 1372 
Q 3350 1578 3250 1722 
Q 3150 1866 2961 1931 
Q 2772 1997 2141 1997 
L 1394 1997 
z
" transform="scale(0.015625)"/>
     </defs>
     <use xlink:href="#Arial-BoldMT-49"/>
     <use xlink:href="#Arial-BoldMT-42" x="27.783203"/>
     <use xlink:href="#Arial-BoldMT-49" x="100"/>
    </g>
   </g>
  </g>
  <g id="axes_2">
   <g id="patch_11">
    <path d="M 90 961.2 
L 648 961.2 
L 648 583.2 
L 90 583.2 
z
" style="fill: #ffffff"/>
   </g>
   <g id="matplotlib.axis_3">
    <g id="xtick_5">
     <g id="line2d_36">
      <g>
       <use xlink:href="#me9a3f922a6" x="159.75" y="961.2" style="fill: #262626; stroke: #262626; stroke-width: 1.25"/>
      </g>
     </g>
     <g id="text_18">
      <!-- State 1 -->
      <g style="fill: #262626" transform="translate(142.321875 978.573594) scale(0.11 -0.11)">
       <use xlink:href="#ArialMT-53"/>
       <use xlink:href="#ArialMT-74" x="66.699219"/>
       <use xlink:href="#ArialMT-61" x="94.482422"/>
       <use xlink:href="#ArialMT-74" x="150.097656"/>
       <use xlink:href="#ArialMT-65" x="177.880859"/>
       <use xlink:href="#ArialMT-20" x="233.496094"/>
       <use xlink:href="#ArialMT-31" x="261.279297"/>
      </g>
     </g>
    </g>
    <g id="xtick_6">
     <g id="line2d_37">
      <g>
       <use xlink:href="#me9a3f922a6" x="299.25" y="961.2" style="fill: #262626; stroke: #262626; stroke-width: 1.25"/>
      </g>
     </g>
     <g id="text_19">
      <!-- State 2 -->
      <g style="fill: #262626" transform="translate(281.821875 978.573594) scale(0.11 -0.11)">
       <use xlink:href="#ArialMT-53"/>
       <use xlink:href="#ArialMT-74" x="66.699219"/>
       <use xlink:href="#ArialMT-61" x="94.482422"/>
       <use xlink:href="#ArialMT-74" x="150.097656"/>
       <use xlink:href="#ArialMT-65" x="177.880859"/>
       <use xlink:href="#ArialMT-20" x="233.496094"/>
       <use xlink:href="#ArialMT-32" x="261.279297"/>
      </g>
     </g>
    </g>
    <g id="xtick_7">
     <g id="line2d_38">
      <g>
       <use xlink:href="#me9a3f922a6" x="438.75" y="961.2" style="fill: #262626; stroke: #262626; stroke-width: 1.25"/>
      </g>
     </g>
     <g id="text_20">
      <!-- State 3 -->
      <g style="fill: #262626" transform="translate(421.321875 978.573594) scale(0.11 -0.11)">
       <use xlink:href="#ArialMT-53"/>
       <use xlink:href="#ArialMT-74" x="66.699219"/>
       <use xlink:href="#ArialMT-61" x="94.482422"/>
       <use xlink:href="#ArialMT-74" x="150.097656"/>
       <use xlink:href="#ArialMT-65" x="177.880859"/>
       <use xlink:href="#ArialMT-20" x="233.496094"/>
       <use xlink:href="#ArialMT-33" x="261.279297"/>
      </g>
     </g>
    </g>
    <g id="xtick_8">
     <g id="line2d_39">
      <g>
       <use xlink:href="#me9a3f922a6" x="578.25" y="961.2" style="fill: #262626; stroke: #262626; stroke-width: 1.25"/>
      </g>
     </g>
     <g id="text_21">
      <!-- State 4 -->
      <g style="fill: #262626" transform="translate(560.821875 978.573594) scale(0.11 -0.11)">
       <use xlink:href="#ArialMT-53"/>
       <use xlink:href="#ArialMT-74" x="66.699219"/>
       <use xlink:href="#ArialMT-61" x="94.482422"/>
       <use xlink:href="#ArialMT-74" x="150.097656"/>
       <use xlink:href="#ArialMT-65" x="177.880859"/>
       <use xlink:href="#ArialMT-20" x="233.496094"/>
       <use xlink:href="#ArialMT-34" x="261.279297"/>
      </g>
     </g>
    </g>
   </g>
   <g id="matplotlib.axis_4">
    <g id="ytick_8">
     <g id="line2d_40">
      <g>
       <use xlink:href="#m2a4bd7aab7" x="90" y="949.3875" style="fill: #262626; stroke: #262626; stroke-width: 1.25"/>
      </g>
     </g>
     <g id="text_22">
      <!-- −3 -->
      <g style="fill: #262626" transform="translate(67.958281 953.324297) scale(0.11 -0.11)">
       <use xlink:href="#ArialMT-2212"/>
       <use xlink:href="#ArialMT-33" x="58.398438"/>
      </g>
     </g>
    </g>
    <g id="ytick_9">
     <g id="line2d_41">
      <g>
       <use xlink:href="#m2a4bd7aab7" x="90" y="890.325" style="fill: #262626; stroke: #262626; stroke-width: 1.25"/>
      </g>
     </g>
     <g id="text_23">
      <!-- −2 -->
      <g style="fill: #262626" transform="translate(67.958281 894.261797) scale(0.11 -0.11)">
       <use xlink:href="#ArialMT-2212"/>
       <use xlink:href="#ArialMT-32" x="58.398438"/>
      </g>
     </g>
    </g>
    <g id="ytick_10">
     <g id="line2d_42">
      <g>
       <use xlink:href="#m2a4bd7aab7" x="90" y="831.2625" style="fill: #262626; stroke: #262626; stroke-width: 1.25"/>
      </g>
     </g>
     <g id="text_24">
      <!-- −1 -->
      <g style="fill: #262626" transform="translate(67.958281 835.199297) scale(0.11 -0.11)">
       <use xlink:href="#ArialMT-2212"/>
       <use xlink:href="#ArialMT-31" x="58.398438"/>
      </g>
     </g>
    </g>
    <g id="ytick_11">
     <g id="line2d_43">
      <g>
       <use xlink:href="#m2a4bd7aab7" x="90" y="772.2" style="fill: #262626; stroke: #262626; stroke-width: 1.25"/>
      </g>
     </g>
     <g id="text_25">
      <!-- 0 -->
      <g style="fill: #262626" transform="translate(74.382969 776.136797) scale(0.11 -0.11)">
       <use xlink:href="#ArialMT-30"/>
      </g>
     </g>
    </g>
    <g id="ytick_12">
     <g id="line2d_44">
      <g>
       <use xlink:href="#m2a4bd7aab7" x="90" y="713.1375" style="fill: #262626; stroke: #262626; stroke-width: 1.25"/>
      </g>
     </g>
     <g id="text_26">
      <!-- 1 -->
      <g style="fill: #262626" transform="translate(74.382969 717.074297) scale(0.11 -0.11)">
       <use xlink:href="#ArialMT-31"/>
      </g>
     </g>
    </g>
    <g id="ytick_13">
     <g id="line2d_45">
      <g>
       <use xlink:href="#m2a4bd7aab7" x="90" y="654.075" style="fill: #262626; stroke: #262626; stroke-width: 1.25"/>
      </g>
     </g>
     <g id="text_27">
      <!-- 2 -->
      <g style="fill: #262626" transform="translate(74.382969 658.011797) scale(0.11 -0.11)">
       <use xlink:href="#ArialMT-32"/>
      </g>
     </g>
    </g>
    <g id="ytick_14">
     <g id="line2d_46">
      <g>
       <use xlink:href="#m2a4bd7aab7" x="90" y="595.0125" style="fill: #262626; stroke: #262626; stroke-width: 1.25"/>
      </g>
     </g>
     <g id="text_28">
      <!-- 3 -->
      <g style="fill: #262626" transform="translate(74.382969 598.949297) scale(0.11 -0.11)">
       <use xlink:href="#ArialMT-33"/>
      </g>
     </g>
    </g>
    <g id="text_29">
     <!-- Value (z-scored) -->
     <g style="fill: #262626" transform="translate(61.432656 815.770313) rotate(-90) scale(0.12 -0.12)">
      <use xlink:href="#ArialMT-56"/>
      <use xlink:href="#ArialMT-61" x="59.324219"/>
      <use xlink:href="#ArialMT-6c" x="114.939453"/>
      <use xlink:href="#ArialMT-75" x="137.15625"/>
      <use xlink:href="#ArialMT-65" x="192.771484"/>
      <use xlink:href="#ArialMT-20" x="248.386719"/>
      <use xlink:href="#ArialMT-28" x="276.169922"/>
      <use xlink:href="#ArialMT-7a" x="309.470703"/>
      <use xlink:href="#ArialMT-2d" x="359.470703"/>
      <use xlink:href="#ArialMT-73" x="392.771484"/>
      <use xlink:href="#ArialMT-63" x="442.771484"/>
      <use xlink:href="#ArialMT-6f" x="492.771484"/>
      <use xlink:href="#ArialMT-72" x="548.386719"/>
      <use xlink:href="#ArialMT-65" x="581.6875"/>
      <use xlink:href="#ArialMT-64" x="637.302734"/>
      <use xlink:href="#ArialMT-29" x="692.917969"/>
     </g>
    </g>
   </g>
   <g id="PolyCollection_5">
    <defs>
     <path id="m8e1dd3f74f" d="M 166.167593 -278.014425 
L 160.016336 -278.014425 
L 160.016336 -278.964083 
L 160.016336 -279.913741 
L 160.016336 -280.863398 
L 160.016336 -281.813056 
L 160.016336 -282.762713 
L 160.016336 -283.712371 
L 160.016336 -284.662028 
L 160.016336 -285.611686 
L 160.016336 -286.561344 
L 160.016336 -287.511001 
L 160.016336 -288.460659 
L 160.016336 -289.410316 
L 160.016336 -290.359974 
L 160.016336 -291.309631 
L 160.016336 -292.259289 
L 160.016336 -293.208946 
L 160.016336 -294.158604 
L 160.016336 -295.108262 
L 160.016336 -296.057919 
L 160.016336 -297.007577 
L 160.016336 -297.957234 
L 160.016336 -298.906892 
L 160.016336 -299.856549 
L 160.016336 -300.806207 
L 160.016336 -301.755864 
L 160.016336 -302.705522 
L 160.016336 -303.65518 
L 160.016336 -304.604837 
L 160.016336 -305.554495 
L 160.016336 -306.504152 
L 160.016336 -307.45381 
L 160.016336 -308.403467 
L 160.016336 -309.353125 
L 160.016336 -310.302782 
L 160.016336 -311.25244 
L 160.016336 -312.202098 
L 160.016336 -313.151755 
L 160.016336 -314.101413 
L 168.488064 -314.101413 
L 168.488064 -314.101413 
L 169.901318 -313.151755 
L 171.242659 -312.202098 
L 172.490074 -311.25244 
L 173.650529 -310.302782 
L 174.755416 -309.353125 
L 175.849745 -308.403467 
L 176.97945 -307.45381 
L 178.181689 -306.504152 
L 179.481124 -305.554495 
L 180.891799 -304.604837 
L 182.421053 -303.65518 
L 184.070738 -302.705522 
L 185.832398 -301.755864 
L 187.676619 -300.806207 
L 189.540524 -299.856549 
L 191.319752 -298.906892 
L 192.870832 -297.957234 
L 194.026882 -297.007577 
L 194.625 -296.057919 
L 194.539342 -295.108262 
L 193.711279 -294.158604 
L 192.168055 -293.208946 
L 190.024117 -292.259289 
L 187.463872 -291.309631 
L 184.709655 -290.359974 
L 181.98266 -289.410316 
L 179.466297 -288.460659 
L 177.280356 -287.511001 
L 175.470984 -286.561344 
L 174.016852 -285.611686 
L 172.847671 -284.662028 
L 171.8686 -283.712371 
L 170.983856 -282.762713 
L 170.114569 -281.813056 
L 169.208704 -280.863398 
L 168.243451 -279.913741 
L 167.222078 -278.964083 
L 166.167593 -278.014425 
z
" style="stroke: #d55e00; stroke-opacity: 0.3"/>
    </defs>
    <g clip-path="url(#p81f8d195fe)">
     <use xlink:href="#m8e1dd3f74f" x="0" y="1080" style="fill: #d55e00; fill-opacity: 0.3; stroke: #d55e00; stroke-opacity: 0.3"/>
    </g>
   </g>
   <g id="PolyCollection_6">
    <defs>
     <path id="m8daeb8e55b" d="M 302.294385 -238.894571 
L 299.382244 -238.894571 
L 299.382244 -243.649039 
L 299.382244 -248.403508 
L 299.382244 -253.157976 
L 299.382244 -257.912444 
L 299.382244 -262.666913 
L 299.382244 -267.421381 
L 299.382244 -272.17585 
L 299.382244 -276.930318 
L 299.382244 -281.684786 
L 299.382244 -286.439255 
L 299.382244 -291.193723 
L 299.382244 -295.948192 
L 299.382244 -300.70266 
L 299.382244 -305.457128 
L 299.382244 -310.211597 
L 299.382244 -314.966065 
L 299.382244 -319.720534 
L 299.382244 -324.475002 
L 299.382244 -329.22947 
L 299.382244 -333.983939 
L 299.382244 -338.738407 
L 299.382244 -343.492876 
L 299.382244 -348.247344 
L 299.382244 -353.001812 
L 299.382244 -357.756281 
L 299.382244 -362.510749 
L 299.382244 -367.265218 
L 299.382244 -372.019686 
L 299.382244 -376.774154 
L 299.382244 -381.528623 
L 299.382244 -386.283091 
L 299.382244 -391.03756 
L 299.382244 -395.792028 
L 299.382244 -400.546496 
L 299.382244 -405.300965 
L 299.382244 -410.055433 
L 299.382244 -414.809902 
L 299.382244 -419.56437 
L 303.873009 -419.56437 
L 303.873009 -419.56437 
L 304.73255 -414.809902 
L 305.597471 -410.055433 
L 306.461008 -405.300965 
L 307.323642 -400.546496 
L 308.1939 -395.792028 
L 309.09373 -391.03756 
L 310.066922 -386.283091 
L 311.184294 -381.528623 
L 312.537631 -376.774154 
L 314.217953 -372.019686 
L 316.281994 -367.265218 
L 318.719233 -362.510749 
L 321.435095 -357.756281 
L 324.260814 -353.001812 
L 326.988808 -348.247344 
L 329.420266 -343.492876 
L 331.405645 -338.738407 
L 332.862485 -333.983939 
L 333.766491 -329.22947 
L 334.125 -324.475002 
L 333.949623 -319.720534 
L 333.243051 -314.966065 
L 332.005195 -310.211597 
L 330.252177 -305.457128 
L 328.035102 -300.70266 
L 325.447153 -295.948192 
L 322.615325 -291.193723 
L 319.68151 -286.439255 
L 316.781792 -281.684786 
L 314.031436 -276.930318 
L 311.518146 -272.17585 
L 309.301443 -267.421381 
L 307.414006 -262.666913 
L 305.862152 -257.912444 
L 304.62578 -253.157976 
L 303.66061 -248.403508 
L 302.905425 -243.649039 
L 302.294385 -238.894571 
z
" style="stroke: #0072b2; stroke-opacity: 0.3"/>
    </defs>
    <g clip-path="url(#p81f8d195fe)">
     <use xlink:href="#m8daeb8e55b" x="0" y="1080" style="fill: #0072b2; fill-opacity: 0.3; stroke: #0072b2; stroke-opacity: 0.3"/>
    </g>
   </g>
   <g id="PolyCollection_7">
    <defs>
     <path id="m821cbbdaa1" d="M 444.586137 -256.061679 
L 438.995187 -256.061679 
L 438.995187 -256.73928 
L 438.995187 -257.416881 
L 438.995187 -258.094482 
L 438.995187 -258.772082 
L 438.995187 -259.449683 
L 438.995187 -260.127284 
L 438.995187 -260.804885 
L 438.995187 -261.482486 
L 438.995187 -262.160086 
L 438.995187 -262.837687 
L 438.995187 -263.515288 
L 438.995187 -264.192889 
L 438.995187 -264.87049 
L 438.995187 -265.548091 
L 438.995187 -266.225691 
L 438.995187 -266.903292 
L 438.995187 -267.580893 
L 438.995187 -268.258494 
L 438.995187 -268.936095 
L 438.995187 -269.613695 
L 438.995187 -270.291296 
L 438.995187 -270.968897 
L 438.995187 -271.646498 
L 438.995187 -272.324099 
L 438.995187 -273.001699 
L 438.995187 -273.6793 
L 438.995187 -274.356901 
L 438.995187 -275.034502 
L 438.995187 -275.712103 
L 438.995187 -276.389703 
L 438.995187 -277.067304 
L 438.995187 -277.744905 
L 438.995187 -278.422506 
L 438.995187 -279.100107 
L 438.995187 -279.777707 
L 438.995187 -280.455308 
L 438.995187 -281.132909 
L 438.995187 -281.81051 
L 446.937889 -281.81051 
L 446.937889 -281.81051 
L 447.985049 -281.132909 
L 448.99303 -280.455308 
L 450.01091 -279.777707 
L 451.108085 -279.100107 
L 452.35527 -278.422506 
L 453.805216 -277.744905 
L 455.47936 -277.067304 
L 457.36386 -276.389703 
L 459.414506 -275.712103 
L 461.566778 -275.034502 
L 463.746319 -274.356901 
L 465.876413 -273.6793 
L 467.881649 -273.001699 
L 469.689068 -272.324099 
L 471.228832 -271.646498 
L 472.435631 -270.968897 
L 473.250866 -270.291296 
L 473.625 -269.613695 
L 473.519853 -268.936095 
L 472.911521 -268.258494 
L 471.794888 -267.580893 
L 470.189895 -266.903292 
L 468.147969 -266.225691 
L 465.755544 -265.548091 
L 463.131481 -264.87049 
L 460.41689 -264.192889 
L 457.758596 -263.515288 
L 455.289888 -262.837687 
L 453.11312 -262.160086 
L 451.287878 -261.482486 
L 449.826606 -260.804885 
L 448.697662 -260.127284 
L 447.834602 -259.449683 
L 447.149933 -258.772082 
L 446.55124 -258.094482 
L 445.957202 -257.416881 
L 445.310665 -256.73928 
L 444.586137 -256.061679 
z
" style="stroke: #009e73; stroke-opacity: 0.3"/>
    </defs>
    <g clip-path="url(#p81f8d195fe)">
     <use xlink:href="#m821cbbdaa1" x="0" y="1080" style="fill: #009e73; fill-opacity: 0.3; stroke: #009e73; stroke-opacity: 0.3"/>
    </g>
   </g>
   <g id="PolyCollection_8">
    <defs>
     <path id="md5353070bd" d="M 580.443311 -333.898985 
L 578.322894 -333.898985 
L 578.322894 -335.446094 
L 578.322894 -336.993204 
L 578.322894 -338.540313 
L 578.322894 -340.087423 
L 578.322894 -341.634532 
L 578.322894 -343.181642 
L 578.322894 -344.728751 
L 578.322894 -346.275861 
L 578.322894 -347.82297 
L 578.322894 -349.37008 
L 578.322894 -350.917189 
L 578.322894 -352.464299 
L 578.322894 -354.011408 
L 578.322894 -355.558518 
L 578.322894 -357.105627 
L 578.322894 -358.652737 
L 578.322894 -360.199846 
L 578.322894 -361.746956 
L 578.322894 -363.294065 
L 578.322894 -364.841175 
L 578.322894 -366.388284 
L 578.322894 -367.935394 
L 578.322894 -369.482503 
L 578.322894 -371.029613 
L 578.322894 -372.576722 
L 578.322894 -374.123832 
L 578.322894 -375.670941 
L 578.322894 -377.218051 
L 578.322894 -378.76516 
L 578.322894 -380.31227 
L 578.322894 -381.859379 
L 578.322894 -383.406489 
L 578.322894 -384.953598 
L 578.322894 -386.500708 
L 578.322894 -388.047818 
L 578.322894 -389.594927 
L 578.322894 -391.142037 
L 578.322894 -392.689146 
L 579.767777 -392.689146 
L 579.767777 -392.689146 
L 579.669534 -391.142037 
L 579.411339 -389.594927 
L 579.08109 -388.047818 
L 578.770251 -386.500708 
L 578.534877 -384.953598 
L 578.386468 -383.406489 
L 578.322894 -381.859379 
L 578.322894 -380.31227 
L 578.322894 -378.76516 
L 578.322894 -377.218051 
L 578.322894 -375.670941 
L 578.366041 -374.123832 
L 578.565406 -372.576722 
L 579.009547 -371.029613 
L 579.876326 -369.482503 
L 581.364023 -367.935394 
L 583.623219 -366.388284 
L 586.68696 -364.841175 
L 590.445772 -363.294065 
L 594.683657 -361.746956 
L 599.137889 -360.199846 
L 603.527069 -358.652737 
L 607.530815 -357.105627 
L 610.758234 -355.558518 
L 612.761079 -354.011408 
L 613.125 -352.464299 
L 611.624919 -350.917189 
L 608.373361 -349.37008 
L 603.859478 -347.82297 
L 598.819584 -346.275861 
L 593.989636 -344.728751 
L 589.878758 -343.181642 
L 586.685367 -341.634532 
L 584.365704 -340.087423 
L 582.761723 -338.540313 
L 581.690202 -336.993204 
L 580.971897 -335.446094 
L 580.443311 -333.898985 
z
" style="stroke: #cc79a7; stroke-opacity: 0.3"/>
    </defs>
    <g clip-path="url(#p81f8d195fe)">
     <use xlink:href="#md5353070bd" x="0" y="1080" style="fill: #cc79a7; fill-opacity: 0.3; stroke: #cc79a7; stroke-opacity: 0.3"/>
    </g>
   </g>
   <g id="PathCollection_5">
    <g clip-path="url(#p81f8d195fe)">
     <use xlink:href="#m5a6f842f41" x="133.835775" y="795.801403" style="fill: #d55e00; stroke: #d55e00"/>
     <use xlink:href="#m5a6f842f41" x="129.563951" y="778.98706" style="fill: #d55e00; stroke: #d55e00"/>
     <use xlink:href="#m5a6f842f41" x="137.668418" y="787.086515" style="fill: #d55e00; stroke: #d55e00"/>
     <use xlink:href="#m5a6f842f41" x="137.077552" y="782.956342" style="fill: #d55e00; stroke: #d55e00"/>
     <use xlink:href="#m5a6f842f41" x="133.936284" y="789.996787" style="fill: #d55e00; stroke: #d55e00"/>
     <use xlink:href="#m5a6f842f41" x="128.655903" y="773.962903" style="fill: #d55e00; stroke: #d55e00"/>
     <use xlink:href="#m5a6f842f41" x="135.054488" y="801.985575" style="fill: #d55e00; stroke: #d55e00"/>
     <use xlink:href="#m5a6f842f41" x="132.274807" y="786.091716" style="fill: #d55e00; stroke: #d55e00"/>
     <use xlink:href="#m5a6f842f41" x="134.85953" y="781.263214" style="fill: #d55e00; stroke: #d55e00"/>
     <use xlink:href="#m5a6f842f41" x="126.228301" y="785.637875" style="fill: #d55e00; stroke: #d55e00"/>
     <use xlink:href="#m5a6f842f41" x="133.256366" y="785.242767" style="fill: #d55e00; stroke: #d55e00"/>
     <use xlink:href="#m5a6f842f41" x="126.114387" y="788.774432" style="fill: #d55e00; stroke: #d55e00"/>
     <use xlink:href="#m5a6f842f41" x="134.312359" y="777.854076" style="fill: #d55e00; stroke: #d55e00"/>
     <use xlink:href="#m5a6f842f41" x="135.202189" y="785.643671" style="fill: #d55e00; stroke: #d55e00"/>
     <use xlink:href="#m5a6f842f41" x="128.800449" y="785.366596" style="fill: #d55e00; stroke: #d55e00"/>
     <use xlink:href="#m5a6f842f41" x="129.643685" y="783.970491" style="fill: #d55e00; stroke: #d55e00"/>
     <use xlink:href="#m5a6f842f41" x="137.920693" y="785.6156" style="fill: #d55e00; stroke: #d55e00"/>
     <use xlink:href="#m5a6f842f41" x="129.990162" y="780.60994" style="fill: #d55e00; stroke: #d55e00"/>
     <use xlink:href="#m5a6f842f41" x="126.020574" y="782.69073" style="fill: #d55e00; stroke: #d55e00"/>
     <use xlink:href="#m5a6f842f41" x="126.857382" y="794.67309" style="fill: #d55e00; stroke: #d55e00"/>
     <use xlink:href="#m5a6f842f41" x="137.521445" y="769.673502" style="fill: #d55e00; stroke: #d55e00"/>
     <use xlink:href="#m5a6f842f41" x="126.440093" y="787.513362" style="fill: #d55e00; stroke: #d55e00"/>
     <use xlink:href="#m5a6f842f41" x="133.70574" y="774.415198" style="fill: #d55e00; stroke: #d55e00"/>
     <use xlink:href="#m5a6f842f41" x="135.589424" y="778.244643" style="fill: #d55e00; stroke: #d55e00"/>
     <use xlink:href="#m5a6f842f41" x="137.244908" y="775.773783" style="fill: #d55e00; stroke: #d55e00"/>
     <use xlink:href="#m5a6f842f41" x="128.83624" y="782.241758" style="fill: #d55e00; stroke: #d55e00"/>
     <use xlink:href="#m5a6f842f41" x="132.282176" y="765.898587" style="fill: #d55e00; stroke: #d55e00"/>
     <use xlink:href="#m5a6f842f41" x="128.558896" y="794.734479" style="fill: #d55e00; stroke: #d55e00"/>
     <use xlink:href="#m5a6f842f41" x="125.841319" y="782.42668" style="fill: #d55e00; stroke: #d55e00"/>
     <use xlink:href="#m5a6f842f41" x="131.375726" y="797.925297" style="fill: #d55e00; stroke: #d55e00"/>
     <use xlink:href="#m5a6f842f41" x="130.342891" y="769.372406" style="fill: #d55e00; stroke: #d55e00"/>
     <use xlink:href="#m5a6f842f41" x="125.201954" y="776.06032" style="fill: #d55e00; stroke: #d55e00"/>
     <use xlink:href="#m5a6f842f41" x="133.298018" y="787.303599" style="fill: #d55e00; stroke: #d55e00"/>
     <use xlink:href="#m5a6f842f41" x="131.35886" y="768.04987" style="fill: #d55e00; stroke: #d55e00"/>
     <use xlink:href="#m5a6f842f41" x="127.378959" y="784.144207" style="fill: #d55e00; stroke: #d55e00"/>
     <use xlink:href="#m5a6f842f41" x="138.802458" y="768.942008" style="fill: #d55e00; stroke: #d55e00"/>
     <use xlink:href="#m5a6f842f41" x="130.244635" y="789.661814" style="fill: #d55e00; stroke: #d55e00"/>
     <use xlink:href="#m5a6f842f41" x="133.502226" y="775.372604" style="fill: #d55e00; stroke: #d55e00"/>
     <use xlink:href="#m5a6f842f41" x="136.967804" y="799.861762" style="fill: #d55e00; stroke: #d55e00"/>
    </g>
   </g>
   <g id="PathCollection_6">
    <g clip-path="url(#p81f8d195fe)">
     <use xlink:href="#mae5ea406a7" x="266.937926" y="727.303189" style="fill: #0072b2; stroke: #0072b2"/>
     <use xlink:href="#mae5ea406a7" x="269.316531" y="766.158799" style="fill: #0072b2; stroke: #0072b2"/>
     <use xlink:href="#mae5ea406a7" x="275.296247" y="763.71784" style="fill: #0072b2; stroke: #0072b2"/>
     <use xlink:href="#mae5ea406a7" x="271.851606" y="673.852701" style="fill: #0072b2; stroke: #0072b2"/>
     <use xlink:href="#mae5ea406a7" x="274.505016" y="748.630914" style="fill: #0072b2; stroke: #0072b2"/>
     <use xlink:href="#mae5ea406a7" x="265.435543" y="770.278188" style="fill: #0072b2; stroke: #0072b2"/>
     <use xlink:href="#mae5ea406a7" x="266.479849" y="725.803661" style="fill: #0072b2; stroke: #0072b2"/>
     <use xlink:href="#mae5ea406a7" x="266.661954" y="792.393417" style="fill: #0072b2; stroke: #0072b2"/>
     <use xlink:href="#mae5ea406a7" x="268.713842" y="695.558658" style="fill: #0072b2; stroke: #0072b2"/>
     <use xlink:href="#mae5ea406a7" x="266.863702" y="771.474207" style="fill: #0072b2; stroke: #0072b2"/>
     <use xlink:href="#mae5ea406a7" x="271.426317" y="660.43563" style="fill: #0072b2; stroke: #0072b2"/>
     <use xlink:href="#mae5ea406a7" x="271.630006" y="739.662328" style="fill: #0072b2; stroke: #0072b2"/>
     <use xlink:href="#mae5ea406a7" x="275.781927" y="740.943908" style="fill: #0072b2; stroke: #0072b2"/>
     <use xlink:href="#mae5ea406a7" x="275.399322" y="703.657778" style="fill: #0072b2; stroke: #0072b2"/>
     <use xlink:href="#mae5ea406a7" x="274.796681" y="734.284974" style="fill: #0072b2; stroke: #0072b2"/>
     <use xlink:href="#mae5ea406a7" x="278.03824" y="686.940734" style="fill: #0072b2; stroke: #0072b2"/>
     <use xlink:href="#mae5ea406a7" x="265.257753" y="746.132818" style="fill: #0072b2; stroke: #0072b2"/>
     <use xlink:href="#mae5ea406a7" x="277.022268" y="760.354853" style="fill: #0072b2; stroke: #0072b2"/>
     <use xlink:href="#mae5ea406a7" x="273.925322" y="811.742235" style="fill: #0072b2; stroke: #0072b2"/>
     <use xlink:href="#mae5ea406a7" x="274.583401" y="747.806704" style="fill: #0072b2; stroke: #0072b2"/>
     <use xlink:href="#mae5ea406a7" x="276.674914" y="841.105429" style="fill: #0072b2; stroke: #0072b2"/>
     <use xlink:href="#mae5ea406a7" x="266.013515" y="775.5419" style="fill: #0072b2; stroke: #0072b2"/>
     <use xlink:href="#mae5ea406a7" x="264.742234" y="763.087806" style="fill: #0072b2; stroke: #0072b2"/>
     <use xlink:href="#mae5ea406a7" x="274.843409" y="728.84221" style="fill: #0072b2; stroke: #0072b2"/>
     <use xlink:href="#mae5ea406a7" x="275.864907" y="772.90674" style="fill: #0072b2; stroke: #0072b2"/>
     <use xlink:href="#mae5ea406a7" x="277.813205" y="795.314053" style="fill: #0072b2; stroke: #0072b2"/>
     <use xlink:href="#mae5ea406a7" x="266.716766" y="748.049524" style="fill: #0072b2; stroke: #0072b2"/>
     <use xlink:href="#mae5ea406a7" x="267.396901" y="733.007891" style="fill: #0072b2; stroke: #0072b2"/>
     <use xlink:href="#mae5ea406a7" x="264.915029" y="723.018944" style="fill: #0072b2; stroke: #0072b2"/>
     <use xlink:href="#mae5ea406a7" x="278.046484" y="786.228142" style="fill: #0072b2; stroke: #0072b2"/>
     <use xlink:href="#mae5ea406a7" x="276.052797" y="784.01588" style="fill: #0072b2; stroke: #0072b2"/>
     <use xlink:href="#mae5ea406a7" x="268.371499" y="701.835929" style="fill: #0072b2; stroke: #0072b2"/>
     <use xlink:href="#mae5ea406a7" x="275.994891" y="740.02798" style="fill: #0072b2; stroke: #0072b2"/>
     <use xlink:href="#mae5ea406a7" x="270.095786" y="758.565775" style="fill: #0072b2; stroke: #0072b2"/>
     <use xlink:href="#mae5ea406a7" x="270.751656" y="746.558125" style="fill: #0072b2; stroke: #0072b2"/>
     <use xlink:href="#mae5ea406a7" x="273.983816" y="775.163503" style="fill: #0072b2; stroke: #0072b2"/>
     <use xlink:href="#mae5ea406a7" x="275.527046" y="789.612791" style="fill: #0072b2; stroke: #0072b2"/>
     <use xlink:href="#mae5ea406a7" x="270.784102" y="769.484295" style="fill: #0072b2; stroke: #0072b2"/>
     <use xlink:href="#mae5ea406a7" x="272.940675" y="808.182919" style="fill: #0072b2; stroke: #0072b2"/>
    </g>
   </g>
   <g id="PathCollection_7">
    <g clip-path="url(#p81f8d195fe)">
     <use xlink:href="#m952679ff44" x="407.811559" y="815.749437" style="fill: #009e73; stroke: #009e73"/>
     <use xlink:href="#m952679ff44" x="417.409966" y="813.387704" style="fill: #009e73; stroke: #009e73"/>
     <use xlink:href="#m952679ff44" x="410.753106" y="814.111351" style="fill: #009e73; stroke: #009e73"/>
     <use xlink:href="#m952679ff44" x="407.840313" y="805.224782" style="fill: #009e73; stroke: #009e73"/>
     <use xlink:href="#m952679ff44" x="407.945868" y="817.901093" style="fill: #009e73; stroke: #009e73"/>
     <use xlink:href="#m952679ff44" x="404.196399" y="804.23156" style="fill: #009e73; stroke: #009e73"/>
     <use xlink:href="#m952679ff44" x="404.565513" y="807.628532" style="fill: #009e73; stroke: #009e73"/>
     <use xlink:href="#m952679ff44" x="415.945733" y="821.769963" style="fill: #009e73; stroke: #009e73"/>
     <use xlink:href="#m952679ff44" x="413.486317" y="804.263521" style="fill: #009e73; stroke: #009e73"/>
     <use xlink:href="#m952679ff44" x="407.867461" y="814.086501" style="fill: #009e73; stroke: #009e73"/>
     <use xlink:href="#m952679ff44" x="411.8945" y="798.959672" style="fill: #009e73; stroke: #009e73"/>
     <use xlink:href="#m952679ff44" x="404.660956" y="809.968273" style="fill: #009e73; stroke: #009e73"/>
     <use xlink:href="#m952679ff44" x="404.318731" y="818.544398" style="fill: #009e73; stroke: #009e73"/>
     <use xlink:href="#m952679ff44" x="410.843934" y="810.734233" style="fill: #009e73; stroke: #009e73"/>
     <use xlink:href="#m952679ff44" x="408.096489" y="812.984385" style="fill: #009e73; stroke: #009e73"/>
     <use xlink:href="#m952679ff44" x="415.939107" y="798.18949" style="fill: #009e73; stroke: #009e73"/>
     <use xlink:href="#m952679ff44" x="415.716416" y="809.045193" style="fill: #009e73; stroke: #009e73"/>
     <use xlink:href="#m952679ff44" x="405.724508" y="808.994101" style="fill: #009e73; stroke: #009e73"/>
     <use xlink:href="#m952679ff44" x="411.83667" y="806.511258" style="fill: #009e73; stroke: #009e73"/>
     <use xlink:href="#m952679ff44" x="411.664895" y="809.76827" style="fill: #009e73; stroke: #009e73"/>
     <use xlink:href="#m952679ff44" x="404.388403" y="823.938321" style="fill: #009e73; stroke: #009e73"/>
     <use xlink:href="#m952679ff44" x="410.605808" y="800.794548" style="fill: #009e73; stroke: #009e73"/>
     <use xlink:href="#m952679ff44" x="415.0496" y="813.713198" style="fill: #009e73; stroke: #009e73"/>
     <use xlink:href="#m952679ff44" x="412.257307" y="807.992221" style="fill: #009e73; stroke: #009e73"/>
     <use xlink:href="#m952679ff44" x="406.08058" y="813.730624" style="fill: #009e73; stroke: #009e73"/>
     <use xlink:href="#m952679ff44" x="417.104051" y="815.464479" style="fill: #009e73; stroke: #009e73"/>
     <use xlink:href="#m952679ff44" x="412.160066" y="813.501974" style="fill: #009e73; stroke: #009e73"/>
     <use xlink:href="#m952679ff44" x="404.473202" y="808.032214" style="fill: #009e73; stroke: #009e73"/>
     <use xlink:href="#m952679ff44" x="411.151063" y="798.878065" style="fill: #009e73; stroke: #009e73"/>
     <use xlink:href="#m952679ff44" x="404.111382" y="803.613967" style="fill: #009e73; stroke: #009e73"/>
     <use xlink:href="#m952679ff44" x="415.77587" y="822.600848" style="fill: #009e73; stroke: #009e73"/>
     <use xlink:href="#m952679ff44" x="411.202337" y="810.061888" style="fill: #009e73; stroke: #009e73"/>
     <use xlink:href="#m952679ff44" x="414.525962" y="810.983072" style="fill: #009e73; stroke: #009e73"/>
     <use xlink:href="#m952679ff44" x="410.519945" y="811.891439" style="fill: #009e73; stroke: #009e73"/>
     <use xlink:href="#m952679ff44" x="412.585504" y="810.851987" style="fill: #009e73; stroke: #009e73"/>
     <use xlink:href="#m952679ff44" x="413.886663" y="811.84683" style="fill: #009e73; stroke: #009e73"/>
     <use xlink:href="#m952679ff44" x="405.506744" y="806.445967" style="fill: #009e73; stroke: #009e73"/>
     <use xlink:href="#m952679ff44" x="404.575137" y="808.126278" style="fill: #009e73; stroke: #009e73"/>
     <use xlink:href="#m952679ff44" x="414.549607" y="804.705019" style="fill: #009e73; stroke: #009e73"/>
    </g>
   </g>
   <g id="PathCollection_8">
    <g clip-path="url(#p81f8d195fe)">
     <use xlink:href="#maf9a977cdb" x="543.736521" y="717.609839" style="fill: #cc79a7; stroke: #cc79a7"/>
     <use xlink:href="#maf9a977cdb" x="557.272517" y="727.452724" style="fill: #cc79a7; stroke: #cc79a7"/>
     <use xlink:href="#maf9a977cdb" x="555.466123" y="722.809405" style="fill: #cc79a7; stroke: #cc79a7"/>
     <use xlink:href="#maf9a977cdb" x="551.913078" y="729.861698" style="fill: #cc79a7; stroke: #cc79a7"/>
     <use xlink:href="#maf9a977cdb" x="547.038612" y="728.17187" style="fill: #cc79a7; stroke: #cc79a7"/>
     <use xlink:href="#maf9a977cdb" x="545.314368" y="738.720566" style="fill: #cc79a7; stroke: #cc79a7"/>
     <use xlink:href="#maf9a977cdb" x="553.937907" y="730.822824" style="fill: #cc79a7; stroke: #cc79a7"/>
     <use xlink:href="#maf9a977cdb" x="551.604422" y="723.945386" style="fill: #cc79a7; stroke: #cc79a7"/>
     <use xlink:href="#maf9a977cdb" x="546.708135" y="746.101015" style="fill: #cc79a7; stroke: #cc79a7"/>
     <use xlink:href="#maf9a977cdb" x="544.364722" y="718.648051" style="fill: #cc79a7; stroke: #cc79a7"/>
     <use xlink:href="#maf9a977cdb" x="555.442059" y="687.310854" style="fill: #cc79a7; stroke: #cc79a7"/>
     <use xlink:href="#maf9a977cdb" x="548.874797" y="718.082226" style="fill: #cc79a7; stroke: #cc79a7"/>
     <use xlink:href="#maf9a977cdb" x="547.698563" y="723.841709" style="fill: #cc79a7; stroke: #cc79a7"/>
     <use xlink:href="#maf9a977cdb" x="546.896121" y="722.523303" style="fill: #cc79a7; stroke: #cc79a7"/>
     <use xlink:href="#maf9a977cdb" x="557.090711" y="727.884489" style="fill: #cc79a7; stroke: #cc79a7"/>
     <use xlink:href="#maf9a977cdb" x="548.669365" y="738.24188" style="fill: #cc79a7; stroke: #cc79a7"/>
     <use xlink:href="#maf9a977cdb" x="553.709718" y="729.204103" style="fill: #cc79a7; stroke: #cc79a7"/>
     <use xlink:href="#maf9a977cdb" x="547.318564" y="725.989034" style="fill: #cc79a7; stroke: #cc79a7"/>
     <use xlink:href="#maf9a977cdb" x="549.195324" y="732.696308" style="fill: #cc79a7; stroke: #cc79a7"/>
     <use xlink:href="#maf9a977cdb" x="552.347931" y="726.675141" style="fill: #cc79a7; stroke: #cc79a7"/>
     <use xlink:href="#maf9a977cdb" x="552.857103" y="731.550565" style="fill: #cc79a7; stroke: #cc79a7"/>
     <use xlink:href="#maf9a977cdb" x="548.208603" y="728.311695" style="fill: #cc79a7; stroke: #cc79a7"/>
     <use xlink:href="#maf9a977cdb" x="556.97149" y="731.916875" style="fill: #cc79a7; stroke: #cc79a7"/>
     <use xlink:href="#maf9a977cdb" x="543.687874" y="730.723253" style="fill: #cc79a7; stroke: #cc79a7"/>
     <use xlink:href="#maf9a977cdb" x="553.428251" y="729.009031" style="fill: #cc79a7; stroke: #cc79a7"/>
     <use xlink:href="#maf9a977cdb" x="556.898361" y="721.195918" style="fill: #cc79a7; stroke: #cc79a7"/>
     <use xlink:href="#maf9a977cdb" x="543.669443" y="723.482279" style="fill: #cc79a7; stroke: #cc79a7"/>
     <use xlink:href="#maf9a977cdb" x="555.893711" y="729.082653" style="fill: #cc79a7; stroke: #cc79a7"/>
     <use xlink:href="#maf9a977cdb" x="547.35642" y="733.855042" style="fill: #cc79a7; stroke: #cc79a7"/>
     <use xlink:href="#maf9a977cdb" x="553.801451" y="728.166507" style="fill: #cc79a7; stroke: #cc79a7"/>
     <use xlink:href="#maf9a977cdb" x="545.830687" y="720.065306" style="fill: #cc79a7; stroke: #cc79a7"/>
     <use xlink:href="#maf9a977cdb" x="549.228161" y="725.325501" style="fill: #cc79a7; stroke: #cc79a7"/>
     <use xlink:href="#maf9a977cdb" x="556.819949" y="723.663831" style="fill: #cc79a7; stroke: #cc79a7"/>
     <use xlink:href="#maf9a977cdb" x="547.95185" y="729.430406" style="fill: #cc79a7; stroke: #cc79a7"/>
     <use xlink:href="#maf9a977cdb" x="552.978473" y="721.956371" style="fill: #cc79a7; stroke: #cc79a7"/>
     <use xlink:href="#maf9a977cdb" x="550.630422" y="725.305805" style="fill: #cc79a7; stroke: #cc79a7"/>
     <use xlink:href="#maf9a977cdb" x="551.613589" y="733.918167" style="fill: #cc79a7; stroke: #cc79a7"/>
     <use xlink:href="#maf9a977cdb" x="551.569751" y="717.56161" style="fill: #cc79a7; stroke: #cc79a7"/>
     <use xlink:href="#maf9a977cdb" x="551.727931" y="725.783356" style="fill: #cc79a7; stroke: #cc79a7"/>
    </g>
   </g>
   <g id="patch_12">
    <path d="M 149.2875 787.408481 
L 170.2125 787.408481 
L 170.2125 776.957198 
L 149.2875 776.957198 
L 149.2875 787.408481 
z
" clip-path="url(#p81f8d195fe)" style="fill: #d55e00; opacity: 0.5; stroke: #000000; stroke-linejoin: miter"/>
   </g>
   <g id="line2d_47">
    <path d="M 159.75 787.408481 
L 159.75 801.985575 
" clip-path="url(#p81f8d195fe)" style="fill: none; stroke: #000000; stroke-linecap: round"/>
   </g>
   <g id="line2d_48">
    <path d="M 159.75 776.957198 
L 159.75 765.898587 
" clip-path="url(#p81f8d195fe)" style="fill: none; stroke: #000000; stroke-linecap: round"/>
   </g>
   <g id="line2d_49">
    <path d="M 154.51875 801.985575 
L 164.98125 801.985575 
" clip-path="url(#p81f8d195fe)" style="fill: none; stroke: #000000; stroke-linecap: round"/>
   </g>
   <g id="line2d_50">
    <path d="M 154.51875 765.898587 
L 164.98125 765.898587 
" clip-path="url(#p81f8d195fe)" style="fill: none; stroke: #000000; stroke-linecap: round"/>
   </g>
   <g id="patch_13">
    <path d="M 288.7875 774.035121 
L 309.7125 774.035121 
L 309.7125 730.925051 
L 288.7875 730.925051 
L 288.7875 774.035121 
z
" clip-path="url(#p81f8d195fe)" style="fill: #0072b2; opacity: 0.5; stroke: #000000; stroke-linejoin: miter"/>
   </g>
   <g id="line2d_51">
    <path d="M 299.25 774.035121 
L 299.25 811.742235 
" clip-path="url(#p81f8d195fe)" style="fill: none; stroke: #000000; stroke-linecap: round"/>
   </g>
   <g id="line2d_52">
    <path d="M 299.25 730.925051 
L 299.25 673.852701 
" clip-path="url(#p81f8d195fe)" style="fill: none; stroke: #000000; stroke-linecap: round"/>
   </g>
   <g id="line2d_53">
    <path d="M 294.01875 811.742235 
L 304.48125 811.742235 
" clip-path="url(#p81f8d195fe)" style="fill: none; stroke: #000000; stroke-linecap: round"/>
   </g>
   <g id="line2d_54">
    <path d="M 294.01875 673.852701 
L 304.48125 673.852701 
" clip-path="url(#p81f8d195fe)" style="fill: none; stroke: #000000; stroke-linecap: round"/>
   </g>
   <g id="patch_14">
    <path d="M 428.2875 813.721911 
L 449.2125 813.721911 
L 449.2125 806.478613 
L 428.2875 806.478613 
L 428.2875 813.721911 
z
" clip-path="url(#p81f8d195fe)" style="fill: #009e73; opacity: 0.5; stroke: #000000; stroke-linejoin: miter"/>
   </g>
   <g id="line2d_55">
    <path d="M 438.75 813.721911 
L 438.75 823.938321 
" clip-path="url(#p81f8d195fe)" style="fill: none; stroke: #000000; stroke-linecap: round"/>
   </g>
   <g id="line2d_56">
    <path d="M 438.75 806.478613 
L 438.75 798.18949 
" clip-path="url(#p81f8d195fe)" style="fill: none; stroke: #000000; stroke-linecap: round"/>
   </g>
   <g id="line2d_57">
    <path d="M 433.51875 823.938321 
L 443.98125 823.938321 
" clip-path="url(#p81f8d195fe)" style="fill: none; stroke: #000000; stroke-linecap: round"/>
   </g>
   <g id="line2d_58">
    <path d="M 433.51875 798.18949 
L 443.98125 798.18949 
" clip-path="url(#p81f8d195fe)" style="fill: none; stroke: #000000; stroke-linecap: round"/>
   </g>
   <g id="patch_15">
    <path d="M 567.7875 730.292475 
L 588.7125 730.292475 
L 588.7125 723.145842 
L 567.7875 723.145842 
L 567.7875 730.292475 
z
" clip-path="url(#p81f8d195fe)" style="fill: #cc79a7; opacity: 0.5; stroke: #000000; stroke-linejoin: miter"/>
   </g>
   <g id="line2d_59">
    <path d="M 578.25 730.292475 
L 578.25 738.720566 
" clip-path="url(#p81f8d195fe)" style="fill: none; stroke: #000000; stroke-linecap: round"/>
   </g>
   <g id="line2d_60">
    <path d="M 578.25 723.145842 
L 578.25 717.56161 
" clip-path="url(#p81f8d195fe)" style="fill: none; stroke: #000000; stroke-linecap: round"/>
   </g>
   <g id="line2d_61">
    <path d="M 573.01875 738.720566 
L 583.48125 738.720566 
" clip-path="url(#p81f8d195fe)" style="fill: none; stroke: #000000; stroke-linecap: round"/>
   </g>
   <g id="line2d_62">
    <path d="M 573.01875 717.56161 
L 583.48125 717.56161 
" clip-path="url(#p81f8d195fe)" style="fill: none; stroke: #000000; stroke-linecap: round"/>
   </g>
   <g id="line2d_63">
    <path d="M 159.75 648.62313 
L 299.25 648.62313 
" clip-path="url(#p81f8d195fe)" style="fill: none; stroke: #000000; stroke-width: 1.5; stroke-linecap: round"/>
   </g>
   <g id="line2d_64">
    <path d="M 159.75 636.81063 
L 578.25 636.81063 
" clip-path="url(#p81f8d195fe)" style="fill: none; stroke: #000000; stroke-width: 1.5; stroke-linecap: round"/>
   </g>
   <g id="line2d_65">
    <path d="M 299.25 624.99813 
L 438.75 624.99813 
" clip-path="url(#p81f8d195fe)" style="fill: none; stroke: #000000; stroke-width: 1.5; stroke-linecap: round"/>
   </g>
   <g id="line2d_66">
    <path d="M 438.75 613.18563 
L 578.25 613.18563 
" clip-path="url(#p81f8d195fe)" style="fill: none; stroke: #000000; stroke-width: 1.5; stroke-linecap: round"/>
   </g>
   <g id="line2d_67">
    <path d="M 149.2875 783.970491 
L 170.2125 783.970491 
" clip-path="url(#p81f8d195fe)" style="fill: none; stroke: #000000"/>
   </g>
   <g id="line2d_68">
    <path d="M 288.7875 748.630914 
L 309.7125 748.630914 
" clip-path="url(#p81f8d195fe)" style="fill: none; stroke: #000000"/>
   </g>
   <g id="line2d_69">
    <path d="M 428.2875 810.061888 
L 449.2125 810.061888 
" clip-path="url(#p81f8d195fe)" style="fill: none; stroke: #000000"/>
   </g>
   <g id="line2d_70">
    <path d="M 567.7875 727.452724 
L 588.7125 727.452724 
" clip-path="url(#p81f8d195fe)" style="fill: none; stroke: #000000"/>
   </g>
   <g id="patch_16">
    <path d="M 90 961.2 
L 90 583.2 
" style="fill: none; stroke: #262626; stroke-width: 1.25; stroke-linejoin: miter; stroke-linecap: square"/>
   </g>
   <g id="patch_17">
    <path d="M 648 961.2 
L 648 583.2 
" style="fill: none; stroke: #262626; stroke-width: 1.25; stroke-linejoin: miter; stroke-linecap: square"/>
   </g>
   <g id="patch_18">
    <path d="M 90 961.2 
L 648 961.2 
" style="fill: none; stroke: #262626; stroke-width: 1.25; stroke-linejoin: miter; stroke-linecap: square"/>
   </g>
   <g id="patch_19">
    <path d="M 90 583.2 
L 648 583.2 
" style="fill: none; stroke: #262626; stroke-width: 1.25; stroke-linejoin: miter; stroke-linecap: square"/>
   </g>
   <g id="text_30">
    <!-- * -->
    <g transform="translate(229.5 648.62313) scale(0.12 -0.12)">
     <use xlink:href="#ArialMT-2a"/>
    </g>
   </g>
   <g id="text_31">
    <!-- * -->
    <g transform="translate(369 636.81063) scale(0.12 -0.12)">
     <use xlink:href="#ArialMT-2a"/>
    </g>
   </g>
   <g id="text_32">
    <!-- * -->
    <g transform="translate(369 624.99813) scale(0.12 -0.12)">
     <use xlink:href="#ArialMT-2a"/>
    </g>
   </g>
   <g id="text_33">
    <!-- * -->
    <g transform="translate(508.5 613.18563) scale(0.12 -0.12)">
     <use xlink:href="#ArialMT-2a"/>
    </g>
   </g>
   <g id="text_34">
    <!-- HF-HRV -->
    <g style="fill: #262626" transform="translate(342.681094 563.2) scale(0.14 -0.14)">
     <defs>
      <path id="Arial-BoldMT-48" d="M 469 0 
L 469 4581 
L 1394 4581 
L 1394 2778 
L 3206 2778 
L 3206 4581 
L 4131 4581 
L 4131 0 
L 3206 0 
L 3206 2003 
L 1394 2003 
L 1394 0 
L 469 0 
z
" transform="scale(0.015625)"/>
      <path id="Arial-BoldMT-46" d="M 472 0 
L 472 4581 
L 3613 4581 
L 3613 3806 
L 1397 3806 
L 1397 2722 
L 3309 2722 
L 3309 1947 
L 1397 1947 
L 1397 0 
L 472 0 
z
" transform="scale(0.015625)"/>
      <path id="Arial-BoldMT-2d" d="M 359 1222 
L 359 2100 
L 2084 2100 
L 2084 1222 
L 359 1222 
z
" transform="scale(0.015625)"/>
      <path id="Arial-BoldMT-52" d="M 469 0 
L 469 4581 
L 2416 4581 
Q 3150 4581 3483 4457 
Q 3816 4334 4016 4018 
Q 4216 3703 4216 3297 
Q 4216 2781 3912 2445 
Q 3609 2109 3006 2022 
Q 3306 1847 3501 1637 
Q 3697 1428 4028 894 
L 4588 0 
L 3481 0 
L 2813 997 
Q 2456 1531 2325 1670 
Q 2194 1809 2047 1861 
Q 1900 1913 1581 1913 
L 1394 1913 
L 1394 0 
L 469 0 
z
M 1394 2644 
L 2078 2644 
Q 2744 2644 2909 2700 
Q 3075 2756 3169 2893 
Q 3263 3031 3263 3238 
Q 3263 3469 3139 3611 
Q 3016 3753 2791 3791 
Q 2678 3806 2116 3806 
L 1394 3806 
L 1394 2644 
z
" transform="scale(0.015625)"/>
      <path id="Arial-BoldMT-56" d="M 1634 0 
L -3 4581 
L 1000 4581 
L 2159 1191 
L 3281 4581 
L 4263 4581 
L 2622 0 
L 1634 0 
z
" transform="scale(0.015625)"/>
     </defs>
     <use xlink:href="#Arial-BoldMT-48"/>
     <use xlink:href="#Arial-BoldMT-46" x="72.216797"/>
     <use xlink:href="#Arial-BoldMT-2d" x="133.300781"/>
     <use xlink:href="#Arial-BoldMT-48" x="166.601562"/>
     <use xlink:href="#Arial-BoldMT-52" x="238.818359"/>
     <use xlink:href="#Arial-BoldMT-56" x="309.285156"/>
    </g>
   </g>
  </g>
 </g>
 <defs>
  <clipPath id="p4908f997c8">
   <rect x="90" y="129.6" width="558" height="378"/>
  </clipPath>
  <clipPath id="p81f8d195fe">
   <rect x="90" y="583.2" width="558" height="378"/>
  </clipPath>
 </defs>
</svg>
