<?xml version="1.0" encoding="utf-8" standalone="no"?>
<!DOCTYPE svg PUBLIC "-//W3C//DTD SVG 1.1//EN"
  "http://www.w3.org/Graphics/SVG/1.1/DTD/svg11.dtd">
<svg xmlns:xlink="http://www.w3.org/1999/xlink" width="720pt" height="1080pt" viewBox="0 0 720 1080" xmlns="http://www.w3.org/2000/svg" version="1.1">
 <metadata>
  <rdf:RDF xmlns:dc="http://purl.org/dc/elements/1.1/" xmlns:cc="http://creativecommons.org/ns#" xmlns:rdf="http://www.w3.org/1999/02/22-rdf-syntax-ns#">
   <cc:Work>
    <dc:type rdf:resource="http://purl.org/dc/dcmitype/StillImage"/>
    <dc:date>2024-08-23T16:46:18.828991</dc:date>
    <dc:format>image/svg+xml</dc:format>
    <dc:creator>
     <cc:Agent>
      <dc:title>Matplotlib v3.8.0, https://matplotlib.org/</dc:title>
     </cc:Agent>
    </dc:creator>
   </cc:Work>
  </rdf:RDF>
 </metadata>
 <defs>
  <style type="text/css">*{stroke-linejoin: round; stroke-linecap: butt}</style>
 </defs>
 <g id="figure_1">
  <g id="patch_1">
   <path d="M 0 1080 
L 720 1080 
L 720 0 
L 0 0 
z
" style="fill: #ffffff"/>
  </g>
  <g id="axes_1">
   <g id="patch_2">
    <path d="M 90 507.6 
L 648 507.6 
L 648 129.6 
L 90 129.6 
z
" style="fill: #ffffff"/>
   </g>
   <g id="matplotlib.axis_1">
    <g id="xtick_1">
     <g id="line2d_1">
      <defs>
       <path id="m4a00b8fe27" d="M 0 0 
L 0 6 
" style="stroke: #262626; stroke-width: 1.25"/>
      </defs>
      <g>
       <use xlink:href="#m4a00b8fe27" x="159.75" y="507.6" style="fill: #262626; stroke: #262626; stroke-width: 1.25"/>
      </g>
     </g>
     <g id="text_1">
      <!-- State 1 -->
      <g style="fill: #262626" transform="translate(142.321875 524.973594) scale(0.11 -0.11)">
       <defs>
        <path id="ArialMT-53" d="M 288 1472 
L 859 1522 
Q 900 1178 1048 958 
Q 1197 738 1509 602 
Q 1822 466 2213 466 
Q 2559 466 2825 569 
Q 3091 672 3220 851 
Q 3350 1031 3350 1244 
Q 3350 1459 3225 1620 
Q 3100 1781 2813 1891 
Q 2628 1963 1997 2114 
Q 1366 2266 1113 2400 
Q 784 2572 623 2826 
Q 463 3081 463 3397 
Q 463 3744 659 4045 
Q 856 4347 1234 4503 
Q 1613 4659 2075 4659 
Q 2584 4659 2973 4495 
Q 3363 4331 3572 4012 
Q 3781 3694 3797 3291 
L 3216 3247 
Q 3169 3681 2898 3903 
Q 2628 4125 2100 4125 
Q 1550 4125 1298 3923 
Q 1047 3722 1047 3438 
Q 1047 3191 1225 3031 
Q 1400 2872 2139 2705 
Q 2878 2538 3153 2413 
Q 3553 2228 3743 1945 
Q 3934 1663 3934 1294 
Q 3934 928 3725 604 
Q 3516 281 3123 101 
Q 2731 -78 2241 -78 
Q 1619 -78 1198 103 
Q 778 284 539 648 
Q 300 1013 288 1472 
z
" transform="scale(0.015625)"/>
        <path id="ArialMT-74" d="M 1650 503 
L 1731 6 
Q 1494 -44 1306 -44 
Q 1000 -44 831 53 
Q 663 150 594 308 
Q 525 466 525 972 
L 525 2881 
L 113 2881 
L 113 3319 
L 525 3319 
L 525 4141 
L 1084 4478 
L 1084 3319 
L 1650 3319 
L 1650 2881 
L 1084 2881 
L 1084 941 
Q 1084 700 1114 631 
Q 1144 563 1211 522 
Q 1278 481 1403 481 
Q 1497 481 1650 503 
z
" transform="scale(0.015625)"/>
        <path id="ArialMT-61" d="M 2588 409 
Q 2275 144 1986 34 
Q 1697 -75 1366 -75 
Q 819 -75 525 192 
Q 231 459 231 875 
Q 231 1119 342 1320 
Q 453 1522 633 1644 
Q 813 1766 1038 1828 
Q 1203 1872 1538 1913 
Q 2219 1994 2541 2106 
Q 2544 2222 2544 2253 
Q 2544 2597 2384 2738 
Q 2169 2928 1744 2928 
Q 1347 2928 1158 2789 
Q 969 2650 878 2297 
L 328 2372 
Q 403 2725 575 2942 
Q 747 3159 1072 3276 
Q 1397 3394 1825 3394 
Q 2250 3394 2515 3294 
Q 2781 3194 2906 3042 
Q 3031 2891 3081 2659 
Q 3109 2516 3109 2141 
L 3109 1391 
Q 3109 606 3145 398 
Q 3181 191 3288 0 
L 2700 0 
Q 2613 175 2588 409 
z
M 2541 1666 
Q 2234 1541 1622 1453 
Q 1275 1403 1131 1340 
Q 988 1278 909 1158 
Q 831 1038 831 891 
Q 831 666 1001 516 
Q 1172 366 1500 366 
Q 1825 366 2078 508 
Q 2331 650 2450 897 
Q 2541 1088 2541 1459 
L 2541 1666 
z
" transform="scale(0.015625)"/>
        <path id="ArialMT-65" d="M 2694 1069 
L 3275 997 
Q 3138 488 2766 206 
Q 2394 -75 1816 -75 
Q 1088 -75 661 373 
Q 234 822 234 1631 
Q 234 2469 665 2931 
Q 1097 3394 1784 3394 
Q 2450 3394 2872 2941 
Q 3294 2488 3294 1666 
Q 3294 1616 3291 1516 
L 816 1516 
Q 847 969 1125 678 
Q 1403 388 1819 388 
Q 2128 388 2347 550 
Q 2566 713 2694 1069 
z
M 847 1978 
L 2700 1978 
Q 2663 2397 2488 2606 
Q 2219 2931 1791 2931 
Q 1403 2931 1139 2672 
Q 875 2413 847 1978 
z
" transform="scale(0.015625)"/>
        <path id="ArialMT-20" transform="scale(0.015625)"/>
        <path id="ArialMT-31" d="M 2384 0 
L 1822 0 
L 1822 3584 
Q 1619 3391 1289 3197 
Q 959 3003 697 2906 
L 697 3450 
Q 1169 3672 1522 3987 
Q 1875 4303 2022 4600 
L 2384 4600 
L 2384 0 
z
" transform="scale(0.015625)"/>
       </defs>
       <use xlink:href="#ArialMT-53"/>
       <use xlink:href="#ArialMT-74" x="66.699219"/>
       <use xlink:href="#ArialMT-61" x="94.482422"/>
       <use xlink:href="#ArialMT-74" x="150.097656"/>
       <use xlink:href="#ArialMT-65" x="177.880859"/>
       <use xlink:href="#ArialMT-20" x="233.496094"/>
       <use xlink:href="#ArialMT-31" x="261.279297"/>
      </g>
     </g>
    </g>
    <g id="xtick_2">
     <g id="line2d_2">
      <g>
       <use xlink:href="#m4a00b8fe27" x="299.25" y="507.6" style="fill: #262626; stroke: #262626; stroke-width: 1.25"/>
      </g>
     </g>
     <g id="text_2">
      <!-- State 2 -->
      <g style="fill: #262626" transform="translate(281.821875 524.973594) scale(0.11 -0.11)">
       <defs>
        <path id="ArialMT-32" d="M 3222 541 
L 3222 0 
L 194 0 
Q 188 203 259 391 
Q 375 700 629 1000 
Q 884 1300 1366 1694 
Q 2113 2306 2375 2664 
Q 2638 3022 2638 3341 
Q 2638 3675 2398 3904 
Q 2159 4134 1775 4134 
Q 1369 4134 1125 3890 
Q 881 3647 878 3216 
L 300 3275 
Q 359 3922 746 4261 
Q 1134 4600 1788 4600 
Q 2447 4600 2831 4234 
Q 3216 3869 3216 3328 
Q 3216 3053 3103 2787 
Q 2991 2522 2730 2228 
Q 2469 1934 1863 1422 
Q 1356 997 1212 845 
Q 1069 694 975 541 
L 3222 541 
z
" transform="scale(0.015625)"/>
       </defs>
       <use xlink:href="#ArialMT-53"/>
       <use xlink:href="#ArialMT-74" x="66.699219"/>
       <use xlink:href="#ArialMT-61" x="94.482422"/>
       <use xlink:href="#ArialMT-74" x="150.097656"/>
       <use xlink:href="#ArialMT-65" x="177.880859"/>
       <use xlink:href="#ArialMT-20" x="233.496094"/>
       <use xlink:href="#ArialMT-32" x="261.279297"/>
      </g>
     </g>
    </g>
    <g id="xtick_3">
     <g id="line2d_3">
      <g>
       <use xlink:href="#m4a00b8fe27" x="438.75" y="507.6" style="fill: #262626; stroke: #262626; stroke-width: 1.25"/>
      </g>
     </g>
     <g id="text_3">
      <!-- State 3 -->
      <g style="fill: #262626" transform="translate(421.321875 524.973594) scale(0.11 -0.11)">
       <defs>
        <path id="ArialMT-33" d="M 269 1209 
L 831 1284 
Q 928 806 1161 595 
Q 1394 384 1728 384 
Q 2125 384 2398 659 
Q 2672 934 2672 1341 
Q 2672 1728 2419 1979 
Q 2166 2231 1775 2231 
Q 1616 2231 1378 2169 
L 1441 2663 
Q 1497 2656 1531 2656 
Q 1891 2656 2178 2843 
Q 2466 3031 2466 3422 
Q 2466 3731 2256 3934 
Q 2047 4138 1716 4138 
Q 1388 4138 1169 3931 
Q 950 3725 888 3313 
L 325 3413 
Q 428 3978 793 4289 
Q 1159 4600 1703 4600 
Q 2078 4600 2393 4439 
Q 2709 4278 2876 4000 
Q 3044 3722 3044 3409 
Q 3044 3113 2884 2869 
Q 2725 2625 2413 2481 
Q 2819 2388 3044 2092 
Q 3269 1797 3269 1353 
Q 3269 753 2831 336 
Q 2394 -81 1725 -81 
Q 1122 -81 723 278 
Q 325 638 269 1209 
z
" transform="scale(0.015625)"/>
       </defs>
       <use xlink:href="#ArialMT-53"/>
       <use xlink:href="#ArialMT-74" x="66.699219"/>
       <use xlink:href="#ArialMT-61" x="94.482422"/>
       <use xlink:href="#ArialMT-74" x="150.097656"/>
       <use xlink:href="#ArialMT-65" x="177.880859"/>
       <use xlink:href="#ArialMT-20" x="233.496094"/>
       <use xlink:href="#ArialMT-33" x="261.279297"/>
      </g>
     </g>
    </g>
    <g id="xtick_4">
     <g id="line2d_4">
      <g>
       <use xlink:href="#m4a00b8fe27" x="578.25" y="507.6" style="fill: #262626; stroke: #262626; stroke-width: 1.25"/>
      </g>
     </g>
     <g id="text_4">
      <!-- State 4 -->
      <g style="fill: #262626" transform="translate(560.821875 524.973594) scale(0.11 -0.11)">
       <defs>
        <path id="ArialMT-34" d="M 2069 0 
L 2069 1097 
L 81 1097 
L 81 1613 
L 2172 4581 
L 2631 4581 
L 2631 1613 
L 3250 1613 
L 3250 1097 
L 2631 1097 
L 2631 0 
L 2069 0 
z
M 2069 1613 
L 2069 3678 
L 634 1613 
L 2069 1613 
z
" transform="scale(0.015625)"/>
       </defs>
       <use xlink:href="#ArialMT-53"/>
       <use xlink:href="#ArialMT-74" x="66.699219"/>
       <use xlink:href="#ArialMT-61" x="94.482422"/>
       <use xlink:href="#ArialMT-74" x="150.097656"/>
       <use xlink:href="#ArialMT-65" x="177.880859"/>
       <use xlink:href="#ArialMT-20" x="233.496094"/>
       <use xlink:href="#ArialMT-34" x="261.279297"/>
      </g>
     </g>
    </g>
   </g>
   <g id="matplotlib.axis_2">
    <g id="ytick_1">
     <g id="line2d_5">
      <defs>
       <path id="m5e77e9a192" d="M 0 0 
L -6 0 
" style="stroke: #262626; stroke-width: 1.25"/>
      </defs>
      <g>
       <use xlink:href="#m5e77e9a192" x="90" y="476.602261" style="fill: #262626; stroke: #262626; stroke-width: 1.25"/>
      </g>
     </g>
     <g id="text_5">
      <!-- −1.00 -->
      <g style="fill: #262626" transform="translate(52.668281 480.539058) scale(0.11 -0.11)">
       <defs>
        <path id="ArialMT-2212" d="M 3381 1997 
L 356 1997 
L 356 2522 
L 3381 2522 
L 3381 1997 
z
" transform="scale(0.015625)"/>
        <path id="ArialMT-2e" d="M 581 0 
L 581 641 
L 1222 641 
L 1222 0 
L 581 0 
z
" transform="scale(0.015625)"/>
        <path id="ArialMT-30" d="M 266 2259 
Q 266 3072 433 3567 
Q 600 4063 929 4331 
Q 1259 4600 1759 4600 
Q 2128 4600 2406 4451 
Q 2684 4303 2865 4023 
Q 3047 3744 3150 3342 
Q 3253 2941 3253 2259 
Q 3253 1453 3087 958 
Q 2922 463 2592 192 
Q 2263 -78 1759 -78 
Q 1097 -78 719 397 
Q 266 969 266 2259 
z
M 844 2259 
Q 844 1131 1108 757 
Q 1372 384 1759 384 
Q 2147 384 2411 759 
Q 2675 1134 2675 2259 
Q 2675 3391 2411 3762 
Q 2147 4134 1753 4134 
Q 1366 4134 1134 3806 
Q 844 3388 844 2259 
z
" transform="scale(0.015625)"/>
       </defs>
       <use xlink:href="#ArialMT-2212"/>
       <use xlink:href="#ArialMT-31" x="58.398438"/>
       <use xlink:href="#ArialMT-2e" x="114.013672"/>
       <use xlink:href="#ArialMT-30" x="141.796875"/>
       <use xlink:href="#ArialMT-30" x="197.412109"/>
      </g>
     </g>
    </g>
    <g id="ytick_2">
     <g id="line2d_6">
      <g>
       <use xlink:href="#m5e77e9a192" x="90" y="430.868769" style="fill: #262626; stroke: #262626; stroke-width: 1.25"/>
      </g>
     </g>
     <g id="text_6">
      <!-- −0.75 -->
      <g style="fill: #262626" transform="translate(52.668281 434.805566) scale(0.11 -0.11)">
       <defs>
        <path id="ArialMT-37" d="M 303 3981 
L 303 4522 
L 3269 4522 
L 3269 4084 
Q 2831 3619 2401 2847 
Q 1972 2075 1738 1259 
Q 1569 684 1522 0 
L 944 0 
Q 953 541 1156 1306 
Q 1359 2072 1739 2783 
Q 2119 3494 2547 3981 
L 303 3981 
z
" transform="scale(0.015625)"/>
        <path id="ArialMT-35" d="M 266 1200 
L 856 1250 
Q 922 819 1161 601 
Q 1400 384 1738 384 
Q 2144 384 2425 690 
Q 2706 997 2706 1503 
Q 2706 1984 2436 2262 
Q 2166 2541 1728 2541 
Q 1456 2541 1237 2417 
Q 1019 2294 894 2097 
L 366 2166 
L 809 4519 
L 3088 4519 
L 3088 3981 
L 1259 3981 
L 1013 2750 
Q 1425 3038 1878 3038 
Q 2478 3038 2890 2622 
Q 3303 2206 3303 1553 
Q 3303 931 2941 478 
Q 2500 -78 1738 -78 
Q 1113 -78 717 272 
Q 322 622 266 1200 
z
" transform="scale(0.015625)"/>
       </defs>
       <use xlink:href="#ArialMT-2212"/>
       <use xlink:href="#ArialMT-30" x="58.398438"/>
       <use xlink:href="#ArialMT-2e" x="114.013672"/>
       <use xlink:href="#ArialMT-37" x="141.796875"/>
       <use xlink:href="#ArialMT-35" x="197.412109"/>
      </g>
     </g>
    </g>
    <g id="ytick_3">
     <g id="line2d_7">
      <g>
       <use xlink:href="#m5e77e9a192" x="90" y="385.135277" style="fill: #262626; stroke: #262626; stroke-width: 1.25"/>
      </g>
     </g>
     <g id="text_7">
      <!-- −0.50 -->
      <g style="fill: #262626" transform="translate(52.668281 389.072074) scale(0.11 -0.11)">
       <use xlink:href="#ArialMT-2212"/>
       <use xlink:href="#ArialMT-30" x="58.398438"/>
       <use xlink:href="#ArialMT-2e" x="114.013672"/>
       <use xlink:href="#ArialMT-35" x="141.796875"/>
       <use xlink:href="#ArialMT-30" x="197.412109"/>
      </g>
     </g>
    </g>
    <g id="ytick_4">
     <g id="line2d_8">
      <g>
       <use xlink:href="#m5e77e9a192" x="90" y="339.401786" style="fill: #262626; stroke: #262626; stroke-width: 1.25"/>
      </g>
     </g>
     <g id="text_8">
      <!-- −0.25 -->
      <g style="fill: #262626" transform="translate(52.668281 343.338583) scale(0.11 -0.11)">
       <use xlink:href="#ArialMT-2212"/>
       <use xlink:href="#ArialMT-30" x="58.398438"/>
       <use xlink:href="#ArialMT-2e" x="114.013672"/>
       <use xlink:href="#ArialMT-32" x="141.796875"/>
       <use xlink:href="#ArialMT-35" x="197.412109"/>
      </g>
     </g>
    </g>
    <g id="ytick_5">
     <g id="line2d_9">
      <g>
       <use xlink:href="#m5e77e9a192" x="90" y="293.668294" style="fill: #262626; stroke: #262626; stroke-width: 1.25"/>
      </g>
     </g>
     <g id="text_9">
      <!-- 0.00 -->
      <g style="fill: #262626" transform="translate(59.092969 297.605091) scale(0.11 -0.11)">
       <use xlink:href="#ArialMT-30"/>
       <use xlink:href="#ArialMT-2e" x="55.615234"/>
       <use xlink:href="#ArialMT-30" x="83.398438"/>
       <use xlink:href="#ArialMT-30" x="139.013672"/>
      </g>
     </g>
    </g>
    <g id="ytick_6">
     <g id="line2d_10">
      <g>
       <use xlink:href="#m5e77e9a192" x="90" y="247.934802" style="fill: #262626; stroke: #262626; stroke-width: 1.25"/>
      </g>
     </g>
     <g id="text_10">
      <!-- 0.25 -->
      <g style="fill: #262626" transform="translate(59.092969 251.871599) scale(0.11 -0.11)">
       <use xlink:href="#ArialMT-30"/>
       <use xlink:href="#ArialMT-2e" x="55.615234"/>
       <use xlink:href="#ArialMT-32" x="83.398438"/>
       <use xlink:href="#ArialMT-35" x="139.013672"/>
      </g>
     </g>
    </g>
    <g id="ytick_7">
     <g id="line2d_11">
      <g>
       <use xlink:href="#m5e77e9a192" x="90" y="202.201311" style="fill: #262626; stroke: #262626; stroke-width: 1.25"/>
      </g>
     </g>
     <g id="text_11">
      <!-- 0.50 -->
      <g style="fill: #262626" transform="translate(59.092969 206.138108) scale(0.11 -0.11)">
       <use xlink:href="#ArialMT-30"/>
       <use xlink:href="#ArialMT-2e" x="55.615234"/>
       <use xlink:href="#ArialMT-35" x="83.398438"/>
       <use xlink:href="#ArialMT-30" x="139.013672"/>
      </g>
     </g>
    </g>
    <g id="ytick_8">
     <g id="line2d_12">
      <g>
       <use xlink:href="#m5e77e9a192" x="90" y="156.467819" style="fill: #262626; stroke: #262626; stroke-width: 1.25"/>
      </g>
     </g>
     <g id="text_12">
      <!-- 0.75 -->
      <g style="fill: #262626" transform="translate(59.092969 160.404616) scale(0.11 -0.11)">
       <use xlink:href="#ArialMT-30"/>
       <use xlink:href="#ArialMT-2e" x="55.615234"/>
       <use xlink:href="#ArialMT-37" x="83.398438"/>
       <use xlink:href="#ArialMT-35" x="139.013672"/>
      </g>
     </g>
    </g>
    <g id="text_13">
     <!-- Value (z-scored) -->
     <g style="fill: #262626" transform="translate(46.142656 362.170313) rotate(-90) scale(0.12 -0.12)">
      <defs>
       <path id="ArialMT-56" d="M 1803 0 
L 28 4581 
L 684 4581 
L 1875 1253 
Q 2019 853 2116 503 
Q 2222 878 2363 1253 
L 3600 4581 
L 4219 4581 
L 2425 0 
L 1803 0 
z
" transform="scale(0.015625)"/>
       <path id="ArialMT-6c" d="M 409 0 
L 409 4581 
L 972 4581 
L 972 0 
L 409 0 
z
" transform="scale(0.015625)"/>
       <path id="ArialMT-75" d="M 2597 0 
L 2597 488 
Q 2209 -75 1544 -75 
Q 1250 -75 995 37 
Q 741 150 617 320 
Q 494 491 444 738 
Q 409 903 409 1263 
L 409 3319 
L 972 3319 
L 972 1478 
Q 972 1038 1006 884 
Q 1059 663 1231 536 
Q 1403 409 1656 409 
Q 1909 409 2131 539 
Q 2353 669 2445 892 
Q 2538 1116 2538 1541 
L 2538 3319 
L 3100 3319 
L 3100 0 
L 2597 0 
z
" transform="scale(0.015625)"/>
       <path id="ArialMT-28" d="M 1497 -1347 
Q 1031 -759 709 28 
Q 388 816 388 1659 
Q 388 2403 628 3084 
Q 909 3875 1497 4659 
L 1900 4659 
Q 1522 4009 1400 3731 
Q 1209 3300 1100 2831 
Q 966 2247 966 1656 
Q 966 153 1900 -1347 
L 1497 -1347 
z
" transform="scale(0.015625)"/>
       <path id="ArialMT-7a" d="M 125 0 
L 125 456 
L 2238 2881 
Q 1878 2863 1603 2863 
L 250 2863 
L 250 3319 
L 2963 3319 
L 2963 2947 
L 1166 841 
L 819 456 
Q 1197 484 1528 484 
L 3063 484 
L 3063 0 
L 125 0 
z
" transform="scale(0.015625)"/>
       <path id="ArialMT-2d" d="M 203 1375 
L 203 1941 
L 1931 1941 
L 1931 1375 
L 203 1375 
z
" transform="scale(0.015625)"/>
       <path id="ArialMT-73" d="M 197 991 
L 753 1078 
Q 800 744 1014 566 
Q 1228 388 1613 388 
Q 2000 388 2187 545 
Q 2375 703 2375 916 
Q 2375 1106 2209 1216 
Q 2094 1291 1634 1406 
Q 1016 1563 777 1677 
Q 538 1791 414 1992 
Q 291 2194 291 2438 
Q 291 2659 392 2848 
Q 494 3038 669 3163 
Q 800 3259 1026 3326 
Q 1253 3394 1513 3394 
Q 1903 3394 2198 3281 
Q 2494 3169 2634 2976 
Q 2775 2784 2828 2463 
L 2278 2388 
Q 2241 2644 2061 2787 
Q 1881 2931 1553 2931 
Q 1166 2931 1000 2803 
Q 834 2675 834 2503 
Q 834 2394 903 2306 
Q 972 2216 1119 2156 
Q 1203 2125 1616 2013 
Q 2213 1853 2448 1751 
Q 2684 1650 2818 1456 
Q 2953 1263 2953 975 
Q 2953 694 2789 445 
Q 2625 197 2315 61 
Q 2006 -75 1616 -75 
Q 969 -75 630 194 
Q 291 463 197 991 
z
" transform="scale(0.015625)"/>
       <path id="ArialMT-63" d="M 2588 1216 
L 3141 1144 
Q 3050 572 2676 248 
Q 2303 -75 1759 -75 
Q 1078 -75 664 370 
Q 250 816 250 1647 
Q 250 2184 428 2587 
Q 606 2991 970 3192 
Q 1334 3394 1763 3394 
Q 2303 3394 2647 3120 
Q 2991 2847 3088 2344 
L 2541 2259 
Q 2463 2594 2264 2762 
Q 2066 2931 1784 2931 
Q 1359 2931 1093 2626 
Q 828 2322 828 1663 
Q 828 994 1084 691 
Q 1341 388 1753 388 
Q 2084 388 2306 591 
Q 2528 794 2588 1216 
z
" transform="scale(0.015625)"/>
       <path id="ArialMT-6f" d="M 213 1659 
Q 213 2581 725 3025 
Q 1153 3394 1769 3394 
Q 2453 3394 2887 2945 
Q 3322 2497 3322 1706 
Q 3322 1066 3130 698 
Q 2938 331 2570 128 
Q 2203 -75 1769 -75 
Q 1072 -75 642 372 
Q 213 819 213 1659 
z
M 791 1659 
Q 791 1022 1069 705 
Q 1347 388 1769 388 
Q 2188 388 2466 706 
Q 2744 1025 2744 1678 
Q 2744 2294 2464 2611 
Q 2184 2928 1769 2928 
Q 1347 2928 1069 2612 
Q 791 2297 791 1659 
z
" transform="scale(0.015625)"/>
       <path id="ArialMT-72" d="M 416 0 
L 416 3319 
L 922 3319 
L 922 2816 
Q 1116 3169 1280 3281 
Q 1444 3394 1641 3394 
Q 1925 3394 2219 3213 
L 2025 2691 
Q 1819 2813 1613 2813 
Q 1428 2813 1281 2702 
Q 1134 2591 1072 2394 
Q 978 2094 978 1738 
L 978 0 
L 416 0 
z
" transform="scale(0.015625)"/>
       <path id="ArialMT-64" d="M 2575 0 
L 2575 419 
Q 2259 -75 1647 -75 
Q 1250 -75 917 144 
Q 584 363 401 755 
Q 219 1147 219 1656 
Q 219 2153 384 2558 
Q 550 2963 881 3178 
Q 1213 3394 1622 3394 
Q 1922 3394 2156 3267 
Q 2391 3141 2538 2938 
L 2538 4581 
L 3097 4581 
L 3097 0 
L 2575 0 
z
M 797 1656 
Q 797 1019 1065 703 
Q 1334 388 1700 388 
Q 2069 388 2326 689 
Q 2584 991 2584 1609 
Q 2584 2291 2321 2609 
Q 2059 2928 1675 2928 
Q 1300 2928 1048 2622 
Q 797 2316 797 1656 
z
" transform="scale(0.015625)"/>
       <path id="ArialMT-29" d="M 791 -1347 
L 388 -1347 
Q 1322 153 1322 1656 
Q 1322 2244 1188 2822 
Q 1081 3291 891 3722 
Q 769 4003 388 4659 
L 791 4659 
Q 1378 3875 1659 3084 
Q 1900 2403 1900 1659 
Q 1900 816 1576 28 
Q 1253 -759 791 -1347 
z
" transform="scale(0.015625)"/>
      </defs>
      <use xlink:href="#ArialMT-56"/>
      <use xlink:href="#ArialMT-61" x="59.324219"/>
      <use xlink:href="#ArialMT-6c" x="114.939453"/>
      <use xlink:href="#ArialMT-75" x="137.15625"/>
      <use xlink:href="#ArialMT-65" x="192.771484"/>
      <use xlink:href="#ArialMT-20" x="248.386719"/>
      <use xlink:href="#ArialMT-28" x="276.169922"/>
      <use xlink:href="#ArialMT-7a" x="309.470703"/>
      <use xlink:href="#ArialMT-2d" x="359.470703"/>
      <use xlink:href="#ArialMT-73" x="392.771484"/>
      <use xlink:href="#ArialMT-63" x="442.771484"/>
      <use xlink:href="#ArialMT-6f" x="492.771484"/>
      <use xlink:href="#ArialMT-72" x="548.386719"/>
      <use xlink:href="#ArialMT-65" x="581.6875"/>
      <use xlink:href="#ArialMT-64" x="637.302734"/>
      <use xlink:href="#ArialMT-29" x="692.917969"/>
     </g>
    </g>
   </g>
   <g id="PolyCollection_1">
    <defs>
     <path id="m663ff32f80" d="M 161.693183 -680.93841 
L 159.847657 -680.93841 
L 159.847657 -685.480852 
L 159.847657 -690.023295 
L 159.847657 -694.565738 
L 159.847657 -699.10818 
L 159.847657 -703.650623 
L 159.847657 -708.193065 
L 159.847657 -712.735508 
L 159.847657 -717.27795 
L 159.847657 -721.820393 
L 159.847657 -726.362836 
L 159.847657 -730.905278 
L 159.847657 -735.447721 
L 159.847657 -739.990163 
L 159.847657 -744.532606 
L 159.847657 -749.075048 
L 159.847657 -753.617491 
L 159.847657 -758.159934 
L 159.847657 -762.702376 
L 159.847657 -767.244819 
L 159.847657 -771.787261 
L 159.847657 -776.329704 
L 159.847657 -780.872147 
L 159.847657 -785.414589 
L 159.847657 -789.957032 
L 159.847657 -794.499474 
L 159.847657 -799.041917 
L 159.847657 -803.584359 
L 159.847657 -808.126802 
L 159.847657 -812.669245 
L 159.847657 -817.211687 
L 159.847657 -821.75413 
L 159.847657 -826.296572 
L 159.847657 -830.839015 
L 159.847657 -835.381457 
L 159.847657 -839.9239 
L 159.847657 -844.466343 
L 159.847657 -849.008785 
L 159.847657 -853.551228 
L 163.773862 -853.551228 
L 163.773862 -853.551228 
L 164.98142 -849.008785 
L 166.519221 -844.466343 
L 168.454611 -839.9239 
L 170.824176 -835.381457 
L 173.617668 -830.839015 
L 176.770803 -826.296572 
L 180.165156 -821.75413 
L 183.632257 -817.211687 
L 186.962599 -812.669245 
L 189.924067 -808.126802 
L 192.292816 -803.584359 
L 193.891934 -799.041917 
L 194.625 -794.499474 
L 194.49049 -789.957032 
L 193.571337 -785.414589 
L 192.006439 -780.872147 
L 189.958664 -776.329704 
L 187.592114 -771.787261 
L 185.062431 -767.244819 
L 182.514838 -762.702376 
L 180.080806 -758.159934 
L 177.867077 -753.617491 
L 175.937761 -749.075048 
L 174.29753 -744.532606 
L 172.887499 -739.990163 
L 171.602311 -735.447721 
L 170.327279 -730.905278 
L 168.982759 -726.362836 
L 167.556642 -721.820393 
L 166.109848 -717.27795 
L 164.752372 -712.735508 
L 163.601185 -708.193065 
L 162.738292 -703.650623 
L 162.184754 -699.10818 
L 161.897743 -694.565738 
L 161.788228 -690.023295 
L 161.750588 -685.480852 
L 161.693183 -680.93841 
z
" style="stroke: #d55e00; stroke-opacity: 0.3"/>
    </defs>
    <g clip-path="url(#p6cc21c59db)">
     <use xlink:href="#m663ff32f80" x="0" y="1080" style="fill: #d55e00; fill-opacity: 0.3; stroke: #d55e00; stroke-opacity: 0.3"/>
    </g>
   </g>
   <g id="PolyCollection_2">
    <defs>
     <path id="m06e937fe69" d="M 301.772813 -589.581818 
L 299.390782 -589.581818 
L 299.390782 -598.62488 
L 299.390782 -607.667943 
L 299.390782 -616.711005 
L 299.390782 -625.754067 
L 299.390782 -634.797129 
L 299.390782 -643.840191 
L 299.390782 -652.883254 
L 299.390782 -661.926316 
L 299.390782 -670.969378 
L 299.390782 -680.01244 
L 299.390782 -689.055502 
L 299.390782 -698.098565 
L 299.390782 -707.141627 
L 299.390782 -716.184689 
L 299.390782 -725.227751 
L 299.390782 -734.270813 
L 299.390782 -743.313876 
L 299.390782 -752.356938 
L 299.390782 -761.4 
L 299.390782 -770.443062 
L 299.390782 -779.486124 
L 299.390782 -788.529187 
L 299.390782 -797.572249 
L 299.390782 -806.615311 
L 299.390782 -815.658373 
L 299.390782 -824.701435 
L 299.390782 -833.744498 
L 299.390782 -842.78756 
L 299.390782 -851.830622 
L 299.390782 -860.873684 
L 299.390782 -869.916746 
L 299.390782 -878.959809 
L 299.390782 -888.002871 
L 299.390782 -897.045933 
L 299.390782 -906.088995 
L 299.390782 -915.132057 
L 299.390782 -924.17512 
L 299.390782 -933.218182 
L 305.607737 -933.218182 
L 305.607737 -933.218182 
L 307.167145 -924.17512 
L 308.87503 -915.132057 
L 310.711343 -906.088995 
L 312.661667 -897.045933 
L 314.725997 -888.002871 
L 316.924294 -878.959809 
L 319.290055 -869.916746 
L 321.845884 -860.873684 
L 324.564852 -851.830622 
L 327.333869 -842.78756 
L 329.94198 -833.744498 
L 332.110679 -824.701435 
L 333.565332 -815.658373 
L 334.125 -806.615311 
L 333.774438 -797.572249 
L 332.684881 -788.529187 
L 331.169049 -779.486124 
L 329.582269 -770.443062 
L 328.204338 -761.4 
L 327.14631 -752.356938 
L 326.318778 -743.313876 
L 325.475439 -734.270813 
L 324.316033 -725.227751 
L 322.608166 -716.184689 
L 320.279493 -707.141627 
L 317.445224 -698.098565 
L 314.364852 -689.055502 
L 311.352389 -680.01244 
L 308.680902 -670.969378 
L 306.518094 -661.926316 
L 304.909564 -652.883254 
L 303.802888 -643.840191 
L 303.091056 -634.797129 
L 302.653069 -625.754067 
L 302.379329 -616.711005 
L 302.18152 -607.667943 
L 301.993875 -598.62488 
L 301.772813 -589.581818 
z
" style="stroke: #0072b2; stroke-opacity: 0.3"/>
    </defs>
    <g clip-path="url(#p6cc21c59db)">
     <use xlink:href="#m06e937fe69" x="0" y="1080" style="fill: #0072b2; fill-opacity: 0.3; stroke: #0072b2; stroke-opacity: 0.3"/>
    </g>
   </g>
   <g id="PolyCollection_3">
    <defs>
     <path id="m6f0360075f" d="M 441.88277 -648.34229 
L 438.902499 -648.34229 
L 438.902499 -651.764007 
L 438.902499 -655.185725 
L 438.902499 -658.607442 
L 438.902499 -662.02916 
L 438.902499 -665.450877 
L 438.902499 -668.872595 
L 438.902499 -672.294312 
L 438.902499 -675.716029 
L 438.902499 -679.137747 
L 438.902499 -682.559464 
L 438.902499 -685.981182 
L 438.902499 -689.402899 
L 438.902499 -692.824617 
L 438.902499 -696.246334 
L 438.902499 -699.668052 
L 438.902499 -703.089769 
L 438.902499 -706.511487 
L 438.902499 -709.933204 
L 438.902499 -713.354921 
L 438.902499 -716.776639 
L 438.902499 -720.198356 
L 438.902499 -723.620074 
L 438.902499 -727.041791 
L 438.902499 -730.463509 
L 438.902499 -733.885226 
L 438.902499 -737.306944 
L 438.902499 -740.728661 
L 438.902499 -744.150378 
L 438.902499 -747.572096 
L 438.902499 -750.993813 
L 438.902499 -754.415531 
L 438.902499 -757.837248 
L 438.902499 -761.258966 
L 438.902499 -764.680683 
L 438.902499 -768.102401 
L 438.902499 -771.524118 
L 438.902499 -774.945836 
L 438.902499 -778.367553 
L 444.836862 -778.367553 
L 444.836862 -778.367553 
L 447.062733 -774.945836 
L 449.915634 -771.524118 
L 453.389786 -768.102401 
L 457.361082 -764.680683 
L 461.5735 -761.258966 
L 465.66257 -757.837248 
L 469.216902 -754.415531 
L 471.86398 -750.993813 
L 473.355396 -747.572096 
L 473.625 -744.150378 
L 472.801967 -740.728661 
L 471.175888 -737.306944 
L 469.125928 -733.885226 
L 467.03536 -730.463509 
L 465.214167 -727.041791 
L 463.847189 -723.620074 
L 462.976535 -720.198356 
L 462.517696 -716.776639 
L 462.300815 -713.354921 
L 462.123611 -709.933204 
L 461.80133 -706.511487 
L 461.202327 -703.089769 
L 460.264072 -699.668052 
L 458.991049 -696.246334 
L 457.440411 -692.824617 
L 455.702226 -689.402899 
L 453.879502 -685.981182 
L 452.070924 -682.559464 
L 450.357835 -679.137747 
L 448.796516 -675.716029 
L 447.416328 -672.294312 
L 446.223054 -668.872595 
L 445.205367 -665.450877 
L 444.341648 -662.02916 
L 443.605211 -658.607442 
L 442.967654 -655.185725 
L 442.40143 -651.764007 
L 441.88277 -648.34229 
z
" style="stroke: #009e73; stroke-opacity: 0.3"/>
    </defs>
    <g clip-path="url(#p6cc21c59db)">
     <use xlink:href="#m6f0360075f" x="0" y="1080" style="fill: #009e73; fill-opacity: 0.3; stroke: #009e73; stroke-opacity: 0.3"/>
    </g>
   </g>
   <g id="PolyCollection_4">
    <defs>
     <path id="m5b508569ae" d="M 580.376755 -769.792435 
L 578.527824 -769.792435 
L 578.527824 -773.511886 
L 578.527824 -777.231338 
L 578.527824 -780.95079 
L 578.527824 -784.670242 
L 578.527824 -788.389694 
L 578.527824 -792.109146 
L 578.527824 -795.828597 
L 578.527824 -799.548049 
L 578.527824 -803.267501 
L 578.527824 -806.986953 
L 578.527824 -810.706405 
L 578.527824 -814.425856 
L 578.527824 -818.145308 
L 578.527824 -821.86476 
L 578.527824 -825.584212 
L 578.527824 -829.303664 
L 578.527824 -833.023115 
L 578.527824 -836.742567 
L 578.527824 -840.462019 
L 578.527824 -844.181471 
L 578.527824 -847.900923 
L 578.527824 -851.620374 
L 578.527824 -855.339826 
L 578.527824 -859.059278 
L 578.527824 -862.77873 
L 578.527824 -866.498182 
L 578.527824 -870.217633 
L 578.527824 -873.937085 
L 578.527824 -877.656537 
L 578.527824 -881.375989 
L 578.527824 -885.095441 
L 578.527824 -888.814892 
L 578.527824 -892.534344 
L 578.527824 -896.253796 
L 578.527824 -899.973248 
L 578.527824 -903.6927 
L 578.527824 -907.412151 
L 578.527824 -911.131603 
L 596.500228 -911.131603 
L 596.500228 -911.131603 
L 599.995026 -907.412151 
L 603.306031 -903.6927 
L 606.262755 -899.973248 
L 608.735843 -896.253796 
L 610.648948 -892.534344 
L 611.983935 -888.814892 
L 612.779495 -885.095441 
L 613.121725 -881.375989 
L 613.125 -877.656537 
L 612.904277 -873.937085 
L 612.544766 -870.217633 
L 612.078513 -866.498182 
L 611.476858 -862.77873 
L 610.662561 -859.059278 
L 609.538126 -855.339826 
L 608.021168 -851.620374 
L 606.07592 -847.900923 
L 603.732048 -844.181471 
L 601.086152 -840.462019 
L 598.285975 -836.742567 
L 595.501541 -833.023115 
L 592.890737 -829.303664 
L 590.568701 -825.584212 
L 588.589705 -821.86476 
L 586.946614 -818.145308 
L 585.587265 -814.425856 
L 584.441225 -810.706405 
L 583.447058 -806.986953 
L 582.570735 -803.267501 
L 581.810005 -799.548049 
L 581.185211 -795.828597 
L 580.721859 -792.109146 
L 580.432405 -788.389694 
L 580.303981 -784.670242 
L 580.295968 -780.95079 
L 580.347656 -777.231338 
L 580.392928 -773.511886 
L 580.376755 -769.792435 
z
" style="stroke: #cc79a7; stroke-opacity: 0.3"/>
    </defs>
    <g clip-path="url(#p6cc21c59db)">
     <use xlink:href="#m5b508569ae" x="0" y="1080" style="fill: #cc79a7; fill-opacity: 0.3; stroke: #cc79a7; stroke-opacity: 0.3"/>
    </g>
   </g>
   <g id="PathCollection_1">
    <defs>
     <path id="mcfdf62addb" d="M 0 0.866025 
C 0.229673 0.866025 0.449969 0.774776 0.612372 0.612372 
C 0.774776 0.449969 0.866025 0.229673 0.866025 0 
C 0.866025 -0.229673 0.774776 -0.449969 0.612372 -0.612372 
C 0.449969 -0.774776 0.229673 -0.866025 0 -0.866025 
C -0.229673 -0.866025 -0.449969 -0.774776 -0.612372 -0.612372 
C -0.774776 -0.449969 -0.866025 -0.229673 -0.866025 0 
C -0.866025 0.229673 -0.774776 0.449969 -0.612372 0.612372 
C -0.449969 0.774776 -0.229673 0.866025 0 0.866025 
z
" style="stroke: #d55e00"/>
    </defs>
    <g clip-path="url(#p6cc21c59db)">
     <use xlink:href="#mcfdf62addb" x="135.425465" y="315.632042" style="fill: #d55e00; stroke: #d55e00"/>
     <use xlink:href="#mcfdf62addb" x="126.08972" y="247.75532" style="fill: #d55e00; stroke: #d55e00"/>
     <use xlink:href="#mcfdf62addb" x="134.689482" y="348.574739" style="fill: #d55e00; stroke: #d55e00"/>
     <use xlink:href="#mcfdf62addb" x="131.250635" y="317.312514" style="fill: #d55e00; stroke: #d55e00"/>
     <use xlink:href="#mcfdf62addb" x="126.605247" y="298.437783" style="fill: #d55e00; stroke: #d55e00"/>
     <use xlink:href="#mcfdf62addb" x="135.144529" y="263.835268" style="fill: #d55e00; stroke: #d55e00"/>
     <use xlink:href="#mcfdf62addb" x="125.902418" y="292.459442" style="fill: #d55e00; stroke: #d55e00"/>
     <use xlink:href="#mcfdf62addb" x="136.685896" y="357.017148" style="fill: #d55e00; stroke: #d55e00"/>
     <use xlink:href="#mcfdf62addb" x="134.354955" y="315.046361" style="fill: #d55e00; stroke: #d55e00"/>
     <use xlink:href="#mcfdf62addb" x="127.722609" y="306.002976" style="fill: #d55e00; stroke: #d55e00"/>
     <use xlink:href="#mcfdf62addb" x="135.229361" y="279.221233" style="fill: #d55e00; stroke: #d55e00"/>
     <use xlink:href="#mcfdf62addb" x="128.409725" y="326.264" style="fill: #d55e00; stroke: #d55e00"/>
     <use xlink:href="#mcfdf62addb" x="134.691109" y="286.441337" style="fill: #d55e00; stroke: #d55e00"/>
     <use xlink:href="#mcfdf62addb" x="127.083369" y="332.184082" style="fill: #d55e00; stroke: #d55e00"/>
     <use xlink:href="#mcfdf62addb" x="128.170511" y="278.608079" style="fill: #d55e00; stroke: #d55e00"/>
     <use xlink:href="#mcfdf62addb" x="126.634733" y="297.047337" style="fill: #d55e00; stroke: #d55e00"/>
     <use xlink:href="#mcfdf62addb" x="131.488586" y="292.018932" style="fill: #d55e00; stroke: #d55e00"/>
     <use xlink:href="#mcfdf62addb" x="128.944662" y="299.948758" style="fill: #d55e00; stroke: #d55e00"/>
     <use xlink:href="#mcfdf62addb" x="137.957258" y="282.179912" style="fill: #d55e00; stroke: #d55e00"/>
     <use xlink:href="#mcfdf62addb" x="132.607443" y="326.123758" style="fill: #d55e00; stroke: #d55e00"/>
     <use xlink:href="#mcfdf62addb" x="131.202853" y="282.126581" style="fill: #d55e00; stroke: #d55e00"/>
     <use xlink:href="#mcfdf62addb" x="128.606154" y="273.401838" style="fill: #d55e00; stroke: #d55e00"/>
     <use xlink:href="#mcfdf62addb" x="125.606239" y="304.113202" style="fill: #d55e00; stroke: #d55e00"/>
     <use xlink:href="#mcfdf62addb" x="134.41543" y="273.418456" style="fill: #d55e00; stroke: #d55e00"/>
     <use xlink:href="#mcfdf62addb" x="129.468995" y="258.0683" style="fill: #d55e00; stroke: #d55e00"/>
     <use xlink:href="#mcfdf62addb" x="128.779385" y="252.440751" style="fill: #d55e00; stroke: #d55e00"/>
     <use xlink:href="#mcfdf62addb" x="127.520317" y="265.31473" style="fill: #d55e00; stroke: #d55e00"/>
     <use xlink:href="#mcfdf62addb" x="128.382427" y="349.59639" style="fill: #d55e00; stroke: #d55e00"/>
     <use xlink:href="#mcfdf62addb" x="132.913815" y="306.528987" style="fill: #d55e00; stroke: #d55e00"/>
     <use xlink:href="#mcfdf62addb" x="129.502099" y="226.448772" style="fill: #d55e00; stroke: #d55e00"/>
     <use xlink:href="#mcfdf62addb" x="124.897098" y="260.670952" style="fill: #d55e00; stroke: #d55e00"/>
     <use xlink:href="#mcfdf62addb" x="125.536199" y="346.927822" style="fill: #d55e00; stroke: #d55e00"/>
     <use xlink:href="#mcfdf62addb" x="124.93736" y="281.935762" style="fill: #d55e00; stroke: #d55e00"/>
     <use xlink:href="#mcfdf62addb" x="132.229224" y="284.272988" style="fill: #d55e00; stroke: #d55e00"/>
     <use xlink:href="#mcfdf62addb" x="133.699667" y="280.127305" style="fill: #d55e00; stroke: #d55e00"/>
     <use xlink:href="#mcfdf62addb" x="131.027352" y="292.028014" style="fill: #d55e00; stroke: #d55e00"/>
     <use xlink:href="#mcfdf62addb" x="128.924601" y="272.753141" style="fill: #d55e00; stroke: #d55e00"/>
     <use xlink:href="#mcfdf62addb" x="134.675943" y="307.052855" style="fill: #d55e00; stroke: #d55e00"/>
     <use xlink:href="#mcfdf62addb" x="128.229788" y="399.06159" style="fill: #d55e00; stroke: #d55e00"/>
    </g>
   </g>
   <g id="PathCollection_2">
    <defs>
     <path id="mb1e4cda5eb" d="M 0 0.866025 
C 0.229673 0.866025 0.449969 0.774776 0.612372 0.612372 
C 0.774776 0.449969 0.866025 0.229673 0.866025 0 
C 0.866025 -0.229673 0.774776 -0.449969 0.612372 -0.612372 
C 0.449969 -0.774776 0.229673 -0.866025 0 -0.866025 
C -0.229673 -0.866025 -0.449969 -0.774776 -0.612372 -0.612372 
C -0.774776 -0.449969 -0.866025 -0.229673 -0.866025 0 
C -0.866025 0.229673 -0.774776 0.449969 -0.612372 0.612372 
C -0.449969 0.774776 -0.229673 0.866025 0 0.866025 
z
" style="stroke: #0072b2"/>
    </defs>
    <g clip-path="url(#p6cc21c59db)">
     <use xlink:href="#mb1e4cda5eb" x="266.47307" y="212.866842" style="fill: #0072b2; stroke: #0072b2"/>
     <use xlink:href="#mb1e4cda5eb" x="266.127276" y="355.90712" style="fill: #0072b2; stroke: #0072b2"/>
     <use xlink:href="#mb1e4cda5eb" x="272.35135" y="284.685607" style="fill: #0072b2; stroke: #0072b2"/>
     <use xlink:href="#mb1e4cda5eb" x="265.061153" y="215.912606" style="fill: #0072b2; stroke: #0072b2"/>
     <use xlink:href="#mb1e4cda5eb" x="275.477805" y="230.900767" style="fill: #0072b2; stroke: #0072b2"/>
     <use xlink:href="#mb1e4cda5eb" x="274.426738" y="303.093076" style="fill: #0072b2; stroke: #0072b2"/>
     <use xlink:href="#mb1e4cda5eb" x="269.280398" y="274.777135" style="fill: #0072b2; stroke: #0072b2"/>
     <use xlink:href="#mb1e4cda5eb" x="271.01432" y="364.305795" style="fill: #0072b2; stroke: #0072b2"/>
     <use xlink:href="#mb1e4cda5eb" x="270.686145" y="146.781818" style="fill: #0072b2; stroke: #0072b2"/>
     <use xlink:href="#mb1e4cda5eb" x="274.951703" y="357.176892" style="fill: #0072b2; stroke: #0072b2"/>
     <use xlink:href="#mb1e4cda5eb" x="272.502004" y="204.18592" style="fill: #0072b2; stroke: #0072b2"/>
     <use xlink:href="#mb1e4cda5eb" x="269.46317" y="200.305376" style="fill: #0072b2; stroke: #0072b2"/>
     <use xlink:href="#mb1e4cda5eb" x="274.017756" y="242.652968" style="fill: #0072b2; stroke: #0072b2"/>
     <use xlink:href="#mb1e4cda5eb" x="271.242507" y="169.630354" style="fill: #0072b2; stroke: #0072b2"/>
     <use xlink:href="#mb1e4cda5eb" x="268.424728" y="259.604944" style="fill: #0072b2; stroke: #0072b2"/>
     <use xlink:href="#mb1e4cda5eb" x="268.615534" y="262.695986" style="fill: #0072b2; stroke: #0072b2"/>
     <use xlink:href="#mb1e4cda5eb" x="275.830996" y="295.931231" style="fill: #0072b2; stroke: #0072b2"/>
     <use xlink:href="#mb1e4cda5eb" x="273.300518" y="288.123821" style="fill: #0072b2; stroke: #0072b2"/>
     <use xlink:href="#mb1e4cda5eb" x="271.353121" y="434.349359" style="fill: #0072b2; stroke: #0072b2"/>
     <use xlink:href="#mb1e4cda5eb" x="275.933432" y="315.475055" style="fill: #0072b2; stroke: #0072b2"/>
     <use xlink:href="#mb1e4cda5eb" x="268.849076" y="490.418182" style="fill: #0072b2; stroke: #0072b2"/>
     <use xlink:href="#mb1e4cda5eb" x="277.055797" y="363.405635" style="fill: #0072b2; stroke: #0072b2"/>
     <use xlink:href="#mb1e4cda5eb" x="273.306848" y="288.636131" style="fill: #0072b2; stroke: #0072b2"/>
     <use xlink:href="#mb1e4cda5eb" x="270.979591" y="260.830951" style="fill: #0072b2; stroke: #0072b2"/>
     <use xlink:href="#mb1e4cda5eb" x="274.964516" y="360.355357" style="fill: #0072b2; stroke: #0072b2"/>
     <use xlink:href="#mb1e4cda5eb" x="275.812896" y="343.241046" style="fill: #0072b2; stroke: #0072b2"/>
     <use xlink:href="#mb1e4cda5eb" x="269.619713" y="253.241611" style="fill: #0072b2; stroke: #0072b2"/>
     <use xlink:href="#mb1e4cda5eb" x="276.883997" y="189.942616" style="fill: #0072b2; stroke: #0072b2"/>
     <use xlink:href="#mb1e4cda5eb" x="268.840668" y="273.460988" style="fill: #0072b2; stroke: #0072b2"/>
     <use xlink:href="#mb1e4cda5eb" x="265.274609" y="266.054611" style="fill: #0072b2; stroke: #0072b2"/>
     <use xlink:href="#mb1e4cda5eb" x="271.285804" y="350.644516" style="fill: #0072b2; stroke: #0072b2"/>
     <use xlink:href="#mb1e4cda5eb" x="265.612539" y="269.566978" style="fill: #0072b2; stroke: #0072b2"/>
     <use xlink:href="#mb1e4cda5eb" x="265.124181" y="265.363925" style="fill: #0072b2; stroke: #0072b2"/>
     <use xlink:href="#mb1e4cda5eb" x="271.921603" y="333.480535" style="fill: #0072b2; stroke: #0072b2"/>
     <use xlink:href="#mb1e4cda5eb" x="273.794641" y="268.468306" style="fill: #0072b2; stroke: #0072b2"/>
     <use xlink:href="#mb1e4cda5eb" x="272.604263" y="366.823342" style="fill: #0072b2; stroke: #0072b2"/>
     <use xlink:href="#mb1e4cda5eb" x="267.761211" y="365.369248" style="fill: #0072b2; stroke: #0072b2"/>
     <use xlink:href="#mb1e4cda5eb" x="265.010063" y="301.158815" style="fill: #0072b2; stroke: #0072b2"/>
     <use xlink:href="#mb1e4cda5eb" x="277.169249" y="374.781566" style="fill: #0072b2; stroke: #0072b2"/>
    </g>
   </g>
   <g id="PathCollection_3">
    <defs>
     <path id="ma4daf1750a" d="M 0 0.866025 
C 0.229673 0.866025 0.449969 0.774776 0.612372 0.612372 
C 0.774776 0.449969 0.866025 0.229673 0.866025 0 
C 0.866025 -0.229673 0.774776 -0.449969 0.612372 -0.612372 
C 0.449969 -0.774776 0.229673 -0.866025 0 -0.866025 
C -0.229673 -0.866025 -0.449969 -0.774776 -0.612372 -0.612372 
C -0.774776 -0.449969 -0.866025 -0.229673 -0.866025 0 
C -0.866025 0.229673 -0.774776 0.449969 -0.612372 0.612372 
C -0.449969 0.774776 -0.229673 0.866025 0 0.866025 
z
" style="stroke: #009e73"/>
    </defs>
    <g clip-path="url(#p6cc21c59db)">
     <use xlink:href="#ma4daf1750a" x="415.70145" y="371.885774" style="fill: #009e73; stroke: #009e73"/>
     <use xlink:href="#ma4daf1750a" x="406.722867" y="331.877125" style="fill: #009e73; stroke: #009e73"/>
     <use xlink:href="#ma4daf1750a" x="410.083633" y="370.632353" style="fill: #009e73; stroke: #009e73"/>
     <use xlink:href="#ma4daf1750a" x="408.604701" y="337.399312" style="fill: #009e73; stroke: #009e73"/>
     <use xlink:href="#ma4daf1750a" x="410.400839" y="369.897071" style="fill: #009e73; stroke: #009e73"/>
     <use xlink:href="#ma4daf1750a" x="409.544921" y="346.593549" style="fill: #009e73; stroke: #009e73"/>
     <use xlink:href="#ma4daf1750a" x="410.516419" y="368.118039" style="fill: #009e73; stroke: #009e73"/>
     <use xlink:href="#ma4daf1750a" x="410.338886" y="407.429256" style="fill: #009e73; stroke: #009e73"/>
     <use xlink:href="#ma4daf1750a" x="407.118784" y="377.888041" style="fill: #009e73; stroke: #009e73"/>
     <use xlink:href="#ma4daf1750a" x="417.00152" y="340.628951" style="fill: #009e73; stroke: #009e73"/>
     <use xlink:href="#ma4daf1750a" x="410.358855" y="328.58768" style="fill: #009e73; stroke: #009e73"/>
     <use xlink:href="#ma4daf1750a" x="414.355473" y="363.510617" style="fill: #009e73; stroke: #009e73"/>
     <use xlink:href="#ma4daf1750a" x="417.793198" y="412.056559" style="fill: #009e73; stroke: #009e73"/>
     <use xlink:href="#ma4daf1750a" x="407.350515" y="361.135586" style="fill: #009e73; stroke: #009e73"/>
     <use xlink:href="#ma4daf1750a" x="404.266328" y="371.402136" style="fill: #009e73; stroke: #009e73"/>
     <use xlink:href="#ma4daf1750a" x="417.49396" y="334.973108" style="fill: #009e73; stroke: #009e73"/>
     <use xlink:href="#ma4daf1750a" x="412.645136" y="343.680492" style="fill: #009e73; stroke: #009e73"/>
     <use xlink:href="#ma4daf1750a" x="413.238621" y="330.712003" style="fill: #009e73; stroke: #009e73"/>
     <use xlink:href="#ma4daf1750a" x="415.858278" y="329.531988" style="fill: #009e73; stroke: #009e73"/>
     <use xlink:href="#ma4daf1750a" x="411.572085" y="328.174394" style="fill: #009e73; stroke: #009e73"/>
     <use xlink:href="#ma4daf1750a" x="414.630378" y="431.65771" style="fill: #009e73; stroke: #009e73"/>
     <use xlink:href="#ma4daf1750a" x="411.476125" y="328.274477" style="fill: #009e73; stroke: #009e73"/>
     <use xlink:href="#ma4daf1750a" x="413.745976" y="391.312419" style="fill: #009e73; stroke: #009e73"/>
     <use xlink:href="#ma4daf1750a" x="408.764733" y="329.234022" style="fill: #009e73; stroke: #009e73"/>
     <use xlink:href="#ma4daf1750a" x="408.69583" y="388.760024" style="fill: #009e73; stroke: #009e73"/>
     <use xlink:href="#ma4daf1750a" x="417.36834" y="387.675425" style="fill: #009e73; stroke: #009e73"/>
     <use xlink:href="#ma4daf1750a" x="405.054814" y="351.059012" style="fill: #009e73; stroke: #009e73"/>
     <use xlink:href="#ma4daf1750a" x="412.527535" y="392.767023" style="fill: #009e73; stroke: #009e73"/>
     <use xlink:href="#ma4daf1750a" x="406.083185" y="336.206258" style="fill: #009e73; stroke: #009e73"/>
     <use xlink:href="#ma4daf1750a" x="415.191822" y="301.632447" style="fill: #009e73; stroke: #009e73"/>
     <use xlink:href="#ma4daf1750a" x="404.752011" y="322.535495" style="fill: #009e73; stroke: #009e73"/>
     <use xlink:href="#ma4daf1750a" x="417.650056" y="323.22764" style="fill: #009e73; stroke: #009e73"/>
     <use xlink:href="#ma4daf1750a" x="410.531462" y="350.757816" style="fill: #009e73; stroke: #009e73"/>
     <use xlink:href="#ma4daf1750a" x="411.023086" y="333.528657" style="fill: #009e73; stroke: #009e73"/>
     <use xlink:href="#ma4daf1750a" x="404.272528" y="383.192885" style="fill: #009e73; stroke: #009e73"/>
     <use xlink:href="#ma4daf1750a" x="414.753995" y="328.776251" style="fill: #009e73; stroke: #009e73"/>
     <use xlink:href="#ma4daf1750a" x="416.80975" y="376.323413" style="fill: #009e73; stroke: #009e73"/>
     <use xlink:href="#ma4daf1750a" x="406.269109" y="343.167664" style="fill: #009e73; stroke: #009e73"/>
     <use xlink:href="#ma4daf1750a" x="404.911206" y="329.389369" style="fill: #009e73; stroke: #009e73"/>
    </g>
   </g>
   <g id="PathCollection_4">
    <defs>
     <path id="m0bfe8e25c6" d="M 0 0.866025 
C 0.229673 0.866025 0.449969 0.774776 0.612372 0.612372 
C 0.774776 0.449969 0.866025 0.229673 0.866025 0 
C 0.866025 -0.229673 0.774776 -0.449969 0.612372 -0.612372 
C 0.449969 -0.774776 0.229673 -0.866025 0 -0.866025 
C -0.229673 -0.866025 -0.449969 -0.774776 -0.612372 -0.612372 
C -0.774776 -0.449969 -0.866025 -0.229673 -0.866025 0 
C -0.866025 0.229673 -0.774776 0.449969 -0.612372 0.612372 
C -0.449969 0.774776 -0.229673 0.866025 0 0.866025 
z
" style="stroke: #cc79a7"/>
    </defs>
    <g clip-path="url(#p6cc21c59db)">
     <use xlink:href="#m0bfe8e25c6" x="550.207539" y="206.316374" style="fill: #cc79a7; stroke: #cc79a7"/>
     <use xlink:href="#m0bfe8e25c6" x="550.213443" y="238.866215" style="fill: #cc79a7; stroke: #cc79a7"/>
     <use xlink:href="#m0bfe8e25c6" x="557.054444" y="188.551477" style="fill: #cc79a7; stroke: #cc79a7"/>
     <use xlink:href="#m0bfe8e25c6" x="545.745948" y="228.939895" style="fill: #cc79a7; stroke: #cc79a7"/>
     <use xlink:href="#m0bfe8e25c6" x="552.468158" y="228.614438" style="fill: #cc79a7; stroke: #cc79a7"/>
     <use xlink:href="#m0bfe8e25c6" x="549.761712" y="250.143247" style="fill: #cc79a7; stroke: #cc79a7"/>
     <use xlink:href="#m0bfe8e25c6" x="552.399723" y="196.884098" style="fill: #cc79a7; stroke: #cc79a7"/>
     <use xlink:href="#m0bfe8e25c6" x="554.735575" y="168.966566" style="fill: #cc79a7; stroke: #cc79a7"/>
     <use xlink:href="#m0bfe8e25c6" x="554.944372" y="192.068908" style="fill: #cc79a7; stroke: #cc79a7"/>
     <use xlink:href="#m0bfe8e25c6" x="549.174029" y="200.021582" style="fill: #cc79a7; stroke: #cc79a7"/>
     <use xlink:href="#m0bfe8e25c6" x="547.013685" y="168.868397" style="fill: #cc79a7; stroke: #cc79a7"/>
     <use xlink:href="#m0bfe8e25c6" x="549.654678" y="207.782255" style="fill: #cc79a7; stroke: #cc79a7"/>
     <use xlink:href="#m0bfe8e25c6" x="555.325303" y="177.896249" style="fill: #cc79a7; stroke: #cc79a7"/>
     <use xlink:href="#m0bfe8e25c6" x="546.951942" y="196.4666" style="fill: #cc79a7; stroke: #cc79a7"/>
     <use xlink:href="#m0bfe8e25c6" x="546.767085" y="199.073372" style="fill: #cc79a7; stroke: #cc79a7"/>
     <use xlink:href="#m0bfe8e25c6" x="555.017687" y="221.317068" style="fill: #cc79a7; stroke: #cc79a7"/>
     <use xlink:href="#m0bfe8e25c6" x="554.550552" y="222.744977" style="fill: #cc79a7; stroke: #cc79a7"/>
     <use xlink:href="#m0bfe8e25c6" x="543.825515" y="240.26365" style="fill: #cc79a7; stroke: #cc79a7"/>
     <use xlink:href="#m0bfe8e25c6" x="553.076166" y="220.134098" style="fill: #cc79a7; stroke: #cc79a7"/>
     <use xlink:href="#m0bfe8e25c6" x="556.505982" y="233.468025" style="fill: #cc79a7; stroke: #cc79a7"/>
     <use xlink:href="#m0bfe8e25c6" x="553.828925" y="182.821007" style="fill: #cc79a7; stroke: #cc79a7"/>
     <use xlink:href="#m0bfe8e25c6" x="546.476593" y="231.149376" style="fill: #cc79a7; stroke: #cc79a7"/>
     <use xlink:href="#m0bfe8e25c6" x="544.239041" y="179.793479" style="fill: #cc79a7; stroke: #cc79a7"/>
     <use xlink:href="#m0bfe8e25c6" x="555.334091" y="264.181462" style="fill: #cc79a7; stroke: #cc79a7"/>
     <use xlink:href="#m0bfe8e25c6" x="551.375033" y="190.626547" style="fill: #cc79a7; stroke: #cc79a7"/>
     <use xlink:href="#m0bfe8e25c6" x="543.399979" y="188.98003" style="fill: #cc79a7; stroke: #cc79a7"/>
     <use xlink:href="#m0bfe8e25c6" x="551.85755" y="233.688243" style="fill: #cc79a7; stroke: #cc79a7"/>
     <use xlink:href="#m0bfe8e25c6" x="547.227725" y="177.844593" style="fill: #cc79a7; stroke: #cc79a7"/>
     <use xlink:href="#m0bfe8e25c6" x="545.187994" y="171.763627" style="fill: #cc79a7; stroke: #cc79a7"/>
     <use xlink:href="#m0bfe8e25c6" x="545.049179" y="310.207565" style="fill: #cc79a7; stroke: #cc79a7"/>
     <use xlink:href="#m0bfe8e25c6" x="557.234416" y="272.18227" style="fill: #cc79a7; stroke: #cc79a7"/>
     <use xlink:href="#m0bfe8e25c6" x="553.808045" y="216.537875" style="fill: #cc79a7; stroke: #cc79a7"/>
     <use xlink:href="#m0bfe8e25c6" x="545.32154" y="218.871184" style="fill: #cc79a7; stroke: #cc79a7"/>
     <use xlink:href="#m0bfe8e25c6" x="552.911787" y="215.813415" style="fill: #cc79a7; stroke: #cc79a7"/>
     <use xlink:href="#m0bfe8e25c6" x="556.045324" y="182.978248" style="fill: #cc79a7; stroke: #cc79a7"/>
     <use xlink:href="#m0bfe8e25c6" x="555.319388" y="242.885049" style="fill: #cc79a7; stroke: #cc79a7"/>
     <use xlink:href="#m0bfe8e25c6" x="545.200566" y="214.331178" style="fill: #cc79a7; stroke: #cc79a7"/>
     <use xlink:href="#m0bfe8e25c6" x="551.988627" y="202.599292" style="fill: #cc79a7; stroke: #cc79a7"/>
     <use xlink:href="#m0bfe8e25c6" x="556.999767" y="198.545082" style="fill: #cc79a7; stroke: #cc79a7"/>
    </g>
   </g>
   <g id="patch_3">
    <path d="M 149.2875 315.339202 
L 170.2125 315.339202 
L 170.2125 276.013268 
L 149.2875 276.013268 
L 149.2875 315.339202 
z
" clip-path="url(#p6cc21c59db)" style="fill: #d55e00; opacity: 0.5; stroke: #000000; stroke-linejoin: miter"/>
   </g>
   <g id="line2d_13">
    <path d="M 159.75 315.339202 
L 159.75 357.017148 
" clip-path="url(#p6cc21c59db)" style="fill: none; stroke: #000000; stroke-linecap: round"/>
   </g>
   <g id="line2d_14">
    <path d="M 159.75 276.013268 
L 159.75 226.448772 
" clip-path="url(#p6cc21c59db)" style="fill: none; stroke: #000000; stroke-linecap: round"/>
   </g>
   <g id="line2d_15">
    <path d="M 154.51875 357.017148 
L 164.98125 357.017148 
" clip-path="url(#p6cc21c59db)" style="fill: none; stroke: #000000; stroke-linecap: round"/>
   </g>
   <g id="line2d_16">
    <path d="M 154.51875 226.448772 
L 164.98125 226.448772 
" clip-path="url(#p6cc21c59db)" style="fill: none; stroke: #000000; stroke-linecap: round"/>
   </g>
   <g id="patch_4">
    <path d="M 288.7875 353.275818 
L 309.7125 353.275818 
L 309.7125 256.423278 
L 288.7875 256.423278 
L 288.7875 353.275818 
z
" clip-path="url(#p6cc21c59db)" style="fill: #0072b2; opacity: 0.5; stroke: #000000; stroke-linejoin: miter"/>
   </g>
   <g id="line2d_17">
    <path d="M 299.25 353.275818 
L 299.25 490.418182 
" clip-path="url(#p6cc21c59db)" style="fill: none; stroke: #000000; stroke-linecap: round"/>
   </g>
   <g id="line2d_18">
    <path d="M 299.25 256.423278 
L 299.25 146.781818 
" clip-path="url(#p6cc21c59db)" style="fill: none; stroke: #000000; stroke-linecap: round"/>
   </g>
   <g id="line2d_19">
    <path d="M 294.01875 490.418182 
L 304.48125 490.418182 
" clip-path="url(#p6cc21c59db)" style="fill: none; stroke: #000000; stroke-linecap: round"/>
   </g>
   <g id="line2d_20">
    <path d="M 294.01875 146.781818 
L 304.48125 146.781818 
" clip-path="url(#p6cc21c59db)" style="fill: none; stroke: #000000; stroke-linecap: round"/>
   </g>
   <g id="patch_5">
    <path d="M 428.2875 374.104594 
L 449.2125 374.104594 
L 449.2125 330.121995 
L 428.2875 330.121995 
L 428.2875 374.104594 
z
" clip-path="url(#p6cc21c59db)" style="fill: #009e73; opacity: 0.5; stroke: #000000; stroke-linejoin: miter"/>
   </g>
   <g id="line2d_21">
    <path d="M 438.75 374.104594 
L 438.75 431.65771 
" clip-path="url(#p6cc21c59db)" style="fill: none; stroke: #000000; stroke-linecap: round"/>
   </g>
   <g id="line2d_22">
    <path d="M 438.75 330.121995 
L 438.75 301.632447 
" clip-path="url(#p6cc21c59db)" style="fill: none; stroke: #000000; stroke-linecap: round"/>
   </g>
   <g id="line2d_23">
    <path d="M 433.51875 431.65771 
L 443.98125 431.65771 
" clip-path="url(#p6cc21c59db)" style="fill: none; stroke: #000000; stroke-linecap: round"/>
   </g>
   <g id="line2d_24">
    <path d="M 433.51875 301.632447 
L 443.98125 301.632447 
" clip-path="url(#p6cc21c59db)" style="fill: none; stroke: #000000; stroke-linecap: round"/>
   </g>
   <g id="patch_6">
    <path d="M 567.7875 230.044635 
L 588.7125 230.044635 
L 588.7125 189.803288 
L 567.7875 189.803288 
L 567.7875 230.044635 
z
" clip-path="url(#p6cc21c59db)" style="fill: #cc79a7; opacity: 0.5; stroke: #000000; stroke-linejoin: miter"/>
   </g>
   <g id="line2d_25">
    <path d="M 578.25 230.044635 
L 578.25 272.18227 
" clip-path="url(#p6cc21c59db)" style="fill: none; stroke: #000000; stroke-linecap: round"/>
   </g>
   <g id="line2d_26">
    <path d="M 578.25 189.803288 
L 578.25 168.868397 
" clip-path="url(#p6cc21c59db)" style="fill: none; stroke: #000000; stroke-linecap: round"/>
   </g>
   <g id="line2d_27">
    <path d="M 573.01875 272.18227 
L 583.48125 272.18227 
" clip-path="url(#p6cc21c59db)" style="fill: none; stroke: #000000; stroke-linecap: round"/>
   </g>
   <g id="line2d_28">
    <path d="M 573.01875 168.868397 
L 583.48125 168.868397 
" clip-path="url(#p6cc21c59db)" style="fill: none; stroke: #000000; stroke-linecap: round"/>
   </g>
   <g id="line2d_29">
    <path d="M 149.2875 292.028014 
L 170.2125 292.028014 
" clip-path="url(#p6cc21c59db)" style="fill: none; stroke: #000000"/>
   </g>
   <g id="line2d_30">
    <path d="M 288.7875 284.685607 
L 309.7125 284.685607 
" clip-path="url(#p6cc21c59db)" style="fill: none; stroke: #000000"/>
   </g>
   <g id="line2d_31">
    <path d="M 428.2875 346.593549 
L 449.2125 346.593549 
" clip-path="url(#p6cc21c59db)" style="fill: none; stroke: #000000"/>
   </g>
   <g id="line2d_32">
    <path d="M 567.7875 207.782255 
L 588.7125 207.782255 
" clip-path="url(#p6cc21c59db)" style="fill: none; stroke: #000000"/>
   </g>
   <g id="patch_7">
    <path d="M 90 507.6 
L 90 129.6 
" style="fill: none; stroke: #262626; stroke-width: 1.25; stroke-linejoin: miter; stroke-linecap: square"/>
   </g>
   <g id="patch_8">
    <path d="M 648 507.6 
L 648 129.6 
" style="fill: none; stroke: #262626; stroke-width: 1.25; stroke-linejoin: miter; stroke-linecap: square"/>
   </g>
   <g id="patch_9">
    <path d="M 90 507.6 
L 648 507.6 
" style="fill: none; stroke: #262626; stroke-width: 1.25; stroke-linejoin: miter; stroke-linecap: square"/>
   </g>
   <g id="patch_10">
    <path d="M 90 129.6 
L 648 129.6 
" style="fill: none; stroke: #262626; stroke-width: 1.25; stroke-linejoin: miter; stroke-linecap: square"/>
   </g>
   <g id="text_14">
    <!-- IBI -->
    <g style="fill: #262626" transform="translate(360.055313 109.6) scale(0.14 -0.14)">
     <defs>
      <path id="Arial-BoldMT-49" d="M 438 0 
L 438 4581 
L 1363 4581 
L 1363 0 
L 438 0 
z
" transform="scale(0.015625)"/>
      <path id="Arial-BoldMT-42" d="M 469 4581 
L 2300 4581 
Q 2844 4581 3111 4536 
Q 3378 4491 3589 4347 
Q 3800 4203 3940 3964 
Q 4081 3725 4081 3428 
Q 4081 3106 3907 2837 
Q 3734 2569 3438 2434 
Q 3856 2313 4081 2019 
Q 4306 1725 4306 1328 
Q 4306 1016 4161 720 
Q 4016 425 3764 248 
Q 3513 72 3144 31 
Q 2913 6 2028 0 
L 469 0 
L 469 4581 
z
M 1394 3819 
L 1394 2759 
L 2000 2759 
Q 2541 2759 2672 2775 
Q 2909 2803 3045 2939 
Q 3181 3075 3181 3297 
Q 3181 3509 3064 3642 
Q 2947 3775 2716 3803 
Q 2578 3819 1925 3819 
L 1394 3819 
z
M 1394 1997 
L 1394 772 
L 2250 772 
Q 2750 772 2884 800 
Q 3091 838 3220 983 
Q 3350 1128 3350 1372 
Q 3350 1578 3250 1722 
Q 3150 1866 2961 1931 
Q 2772 1997 2141 1997 
L 1394 1997 
z
" transform="scale(0.015625)"/>
     </defs>
     <use xlink:href="#Arial-BoldMT-49"/>
     <use xlink:href="#Arial-BoldMT-42" x="27.783203"/>
     <use xlink:href="#Arial-BoldMT-49" x="100"/>
    </g>
   </g>
  </g>
  <g id="axes_2">
   <g id="patch_11">
    <path d="M 90 961.2 
L 648 961.2 
L 648 583.2 
L 90 583.2 
z
" style="fill: #ffffff"/>
   </g>
   <g id="matplotlib.axis_3">
    <g id="xtick_5">
     <g id="line2d_33">
      <g>
       <use xlink:href="#m4a00b8fe27" x="159.75" y="961.2" style="fill: #262626; stroke: #262626; stroke-width: 1.25"/>
      </g>
     </g>
     <g id="text_15">
      <!-- State 1 -->
      <g style="fill: #262626" transform="translate(142.321875 978.573594) scale(0.11 -0.11)">
       <use xlink:href="#ArialMT-53"/>
       <use xlink:href="#ArialMT-74" x="66.699219"/>
       <use xlink:href="#ArialMT-61" x="94.482422"/>
       <use xlink:href="#ArialMT-74" x="150.097656"/>
       <use xlink:href="#ArialMT-65" x="177.880859"/>
       <use xlink:href="#ArialMT-20" x="233.496094"/>
       <use xlink:href="#ArialMT-31" x="261.279297"/>
      </g>
     </g>
    </g>
    <g id="xtick_6">
     <g id="line2d_34">
      <g>
       <use xlink:href="#m4a00b8fe27" x="299.25" y="961.2" style="fill: #262626; stroke: #262626; stroke-width: 1.25"/>
      </g>
     </g>
     <g id="text_16">
      <!-- State 2 -->
      <g style="fill: #262626" transform="translate(281.821875 978.573594) scale(0.11 -0.11)">
       <use xlink:href="#ArialMT-53"/>
       <use xlink:href="#ArialMT-74" x="66.699219"/>
       <use xlink:href="#ArialMT-61" x="94.482422"/>
       <use xlink:href="#ArialMT-74" x="150.097656"/>
       <use xlink:href="#ArialMT-65" x="177.880859"/>
       <use xlink:href="#ArialMT-20" x="233.496094"/>
       <use xlink:href="#ArialMT-32" x="261.279297"/>
      </g>
     </g>
    </g>
    <g id="xtick_7">
     <g id="line2d_35">
      <g>
       <use xlink:href="#m4a00b8fe27" x="438.75" y="961.2" style="fill: #262626; stroke: #262626; stroke-width: 1.25"/>
      </g>
     </g>
     <g id="text_17">
      <!-- State 3 -->
      <g style="fill: #262626" transform="translate(421.321875 978.573594) scale(0.11 -0.11)">
       <use xlink:href="#ArialMT-53"/>
       <use xlink:href="#ArialMT-74" x="66.699219"/>
       <use xlink:href="#ArialMT-61" x="94.482422"/>
       <use xlink:href="#ArialMT-74" x="150.097656"/>
       <use xlink:href="#ArialMT-65" x="177.880859"/>
       <use xlink:href="#ArialMT-20" x="233.496094"/>
       <use xlink:href="#ArialMT-33" x="261.279297"/>
      </g>
     </g>
    </g>
    <g id="xtick_8">
     <g id="line2d_36">
      <g>
       <use xlink:href="#m4a00b8fe27" x="578.25" y="961.2" style="fill: #262626; stroke: #262626; stroke-width: 1.25"/>
      </g>
     </g>
     <g id="text_18">
      <!-- State 4 -->
      <g style="fill: #262626" transform="translate(560.821875 978.573594) scale(0.11 -0.11)">
       <use xlink:href="#ArialMT-53"/>
       <use xlink:href="#ArialMT-74" x="66.699219"/>
       <use xlink:href="#ArialMT-61" x="94.482422"/>
       <use xlink:href="#ArialMT-74" x="150.097656"/>
       <use xlink:href="#ArialMT-65" x="177.880859"/>
       <use xlink:href="#ArialMT-20" x="233.496094"/>
       <use xlink:href="#ArialMT-34" x="261.279297"/>
      </g>
     </g>
    </g>
   </g>
   <g id="matplotlib.axis_4">
    <g id="ytick_9">
     <g id="line2d_37">
      <g>
       <use xlink:href="#m5e77e9a192" x="90" y="925.296799" style="fill: #262626; stroke: #262626; stroke-width: 1.25"/>
      </g>
     </g>
     <g id="text_19">
      <!-- −1.0 -->
      <g style="fill: #262626" transform="translate(58.785313 929.233596) scale(0.11 -0.11)">
       <use xlink:href="#ArialMT-2212"/>
       <use xlink:href="#ArialMT-31" x="58.398438"/>
       <use xlink:href="#ArialMT-2e" x="114.013672"/>
       <use xlink:href="#ArialMT-30" x="141.796875"/>
      </g>
     </g>
    </g>
    <g id="ytick_10">
     <g id="line2d_38">
      <g>
       <use xlink:href="#m5e77e9a192" x="90" y="869.127969" style="fill: #262626; stroke: #262626; stroke-width: 1.25"/>
      </g>
     </g>
     <g id="text_20">
      <!-- −0.5 -->
      <g style="fill: #262626" transform="translate(58.785313 873.064766) scale(0.11 -0.11)">
       <use xlink:href="#ArialMT-2212"/>
       <use xlink:href="#ArialMT-30" x="58.398438"/>
       <use xlink:href="#ArialMT-2e" x="114.013672"/>
       <use xlink:href="#ArialMT-35" x="141.796875"/>
      </g>
     </g>
    </g>
    <g id="ytick_11">
     <g id="line2d_39">
      <g>
       <use xlink:href="#m5e77e9a192" x="90" y="812.959138" style="fill: #262626; stroke: #262626; stroke-width: 1.25"/>
      </g>
     </g>
     <g id="text_21">
      <!-- 0.0 -->
      <g style="fill: #262626" transform="translate(65.21 816.895935) scale(0.11 -0.11)">
       <use xlink:href="#ArialMT-30"/>
       <use xlink:href="#ArialMT-2e" x="55.615234"/>
       <use xlink:href="#ArialMT-30" x="83.398438"/>
      </g>
     </g>
    </g>
    <g id="ytick_12">
     <g id="line2d_40">
      <g>
       <use xlink:href="#m5e77e9a192" x="90" y="756.790307" style="fill: #262626; stroke: #262626; stroke-width: 1.25"/>
      </g>
     </g>
     <g id="text_22">
      <!-- 0.5 -->
      <g style="fill: #262626" transform="translate(65.21 760.727104) scale(0.11 -0.11)">
       <use xlink:href="#ArialMT-30"/>
       <use xlink:href="#ArialMT-2e" x="55.615234"/>
       <use xlink:href="#ArialMT-35" x="83.398438"/>
      </g>
     </g>
    </g>
    <g id="ytick_13">
     <g id="line2d_41">
      <g>
       <use xlink:href="#m5e77e9a192" x="90" y="700.621477" style="fill: #262626; stroke: #262626; stroke-width: 1.25"/>
      </g>
     </g>
     <g id="text_23">
      <!-- 1.0 -->
      <g style="fill: #262626" transform="translate(65.21 704.558273) scale(0.11 -0.11)">
       <use xlink:href="#ArialMT-31"/>
       <use xlink:href="#ArialMT-2e" x="55.615234"/>
       <use xlink:href="#ArialMT-30" x="83.398438"/>
      </g>
     </g>
    </g>
    <g id="ytick_14">
     <g id="line2d_42">
      <g>
       <use xlink:href="#m5e77e9a192" x="90" y="644.452646" style="fill: #262626; stroke: #262626; stroke-width: 1.25"/>
      </g>
     </g>
     <g id="text_24">
      <!-- 1.5 -->
      <g style="fill: #262626" transform="translate(65.21 648.389443) scale(0.11 -0.11)">
       <use xlink:href="#ArialMT-31"/>
       <use xlink:href="#ArialMT-2e" x="55.615234"/>
       <use xlink:href="#ArialMT-35" x="83.398438"/>
      </g>
     </g>
    </g>
    <g id="ytick_15">
     <g id="line2d_43">
      <g>
       <use xlink:href="#m5e77e9a192" x="90" y="588.283815" style="fill: #262626; stroke: #262626; stroke-width: 1.25"/>
      </g>
     </g>
     <g id="text_25">
      <!-- 2.0 -->
      <g style="fill: #262626" transform="translate(65.21 592.220612) scale(0.11 -0.11)">
       <use xlink:href="#ArialMT-32"/>
       <use xlink:href="#ArialMT-2e" x="55.615234"/>
       <use xlink:href="#ArialMT-30" x="83.398438"/>
      </g>
     </g>
    </g>
    <g id="text_26">
     <!-- Value (z-scored) -->
     <g style="fill: #262626" transform="translate(52.259687 815.770313) rotate(-90) scale(0.12 -0.12)">
      <use xlink:href="#ArialMT-56"/>
      <use xlink:href="#ArialMT-61" x="59.324219"/>
      <use xlink:href="#ArialMT-6c" x="114.939453"/>
      <use xlink:href="#ArialMT-75" x="137.15625"/>
      <use xlink:href="#ArialMT-65" x="192.771484"/>
      <use xlink:href="#ArialMT-20" x="248.386719"/>
      <use xlink:href="#ArialMT-28" x="276.169922"/>
      <use xlink:href="#ArialMT-7a" x="309.470703"/>
      <use xlink:href="#ArialMT-2d" x="359.470703"/>
      <use xlink:href="#ArialMT-73" x="392.771484"/>
      <use xlink:href="#ArialMT-63" x="442.771484"/>
      <use xlink:href="#ArialMT-6f" x="492.771484"/>
      <use xlink:href="#ArialMT-72" x="548.386719"/>
      <use xlink:href="#ArialMT-65" x="581.6875"/>
      <use xlink:href="#ArialMT-64" x="637.302734"/>
      <use xlink:href="#ArialMT-29" x="692.917969"/>
     </g>
    </g>
   </g>
   <g id="PolyCollection_5">
    <defs>
     <path id="m60afa85296" d="M 166.167593 -210.388303 
L 160.016336 -210.388303 
L 160.016336 -212.194564 
L 160.016336 -214.000825 
L 160.016336 -215.807087 
L 160.016336 -217.613348 
L 160.016336 -219.419609 
L 160.016336 -221.225871 
L 160.016336 -223.032132 
L 160.016336 -224.838393 
L 160.016336 -226.644655 
L 160.016336 -228.450916 
L 160.016336 -230.257177 
L 160.016336 -232.063439 
L 160.016336 -233.8697 
L 160.016336 -235.675961 
L 160.016336 -237.482222 
L 160.016336 -239.288484 
L 160.016336 -241.094745 
L 160.016336 -242.901006 
L 160.016336 -244.707268 
L 160.016336 -246.513529 
L 160.016336 -248.31979 
L 160.016336 -250.126052 
L 160.016336 -251.932313 
L 160.016336 -253.738574 
L 160.016336 -255.544836 
L 160.016336 -257.351097 
L 160.016336 -259.157358 
L 160.016336 -260.96362 
L 160.016336 -262.769881 
L 160.016336 -264.576142 
L 160.016336 -266.382404 
L 160.016336 -268.188665 
L 160.016336 -269.994926 
L 160.016336 -271.801188 
L 160.016336 -273.607449 
L 160.016336 -275.41371 
L 160.016336 -277.219972 
L 160.016336 -279.026233 
L 168.488064 -279.026233 
L 168.488064 -279.026233 
L 169.901318 -277.219972 
L 171.242659 -275.41371 
L 172.490074 -273.607449 
L 173.650529 -271.801188 
L 174.755416 -269.994926 
L 175.849745 -268.188665 
L 176.97945 -266.382404 
L 178.181689 -264.576142 
L 179.481124 -262.769881 
L 180.891799 -260.96362 
L 182.421053 -259.157358 
L 184.070738 -257.351097 
L 185.832398 -255.544836 
L 187.676619 -253.738574 
L 189.540524 -251.932313 
L 191.319752 -250.126052 
L 192.870832 -248.31979 
L 194.026882 -246.513529 
L 194.625 -244.707268 
L 194.539342 -242.901006 
L 193.711279 -241.094745 
L 192.168055 -239.288484 
L 190.024117 -237.482222 
L 187.463872 -235.675961 
L 184.709655 -233.8697 
L 181.98266 -232.063439 
L 179.466297 -230.257177 
L 177.280356 -228.450916 
L 175.470984 -226.644655 
L 174.016852 -224.838393 
L 172.847671 -223.032132 
L 171.8686 -221.225871 
L 170.983856 -219.419609 
L 170.114569 -217.613348 
L 169.208704 -215.807087 
L 168.243451 -214.000825 
L 167.222078 -212.194564 
L 166.167593 -210.388303 
z
" style="stroke: #d55e00; stroke-opacity: 0.3"/>
    </defs>
    <g clip-path="url(#pe21a1cb980)">
     <use xlink:href="#m60afa85296" x="0" y="1080" style="fill: #d55e00; fill-opacity: 0.3; stroke: #d55e00; stroke-opacity: 0.3"/>
    </g>
   </g>
   <g id="PolyCollection_6">
    <defs>
     <path id="m56850e7564" d="M 302.294385 -135.981818 
L 299.382244 -135.981818 
L 299.382244 -145.02488 
L 299.382244 -154.067943 
L 299.382244 -163.111005 
L 299.382244 -172.154067 
L 299.382244 -181.197129 
L 299.382244 -190.240191 
L 299.382244 -199.283254 
L 299.382244 -208.326316 
L 299.382244 -217.369378 
L 299.382244 -226.41244 
L 299.382244 -235.455502 
L 299.382244 -244.498565 
L 299.382244 -253.541627 
L 299.382244 -262.584689 
L 299.382244 -271.627751 
L 299.382244 -280.670813 
L 299.382244 -289.713876 
L 299.382244 -298.756938 
L 299.382244 -307.8 
L 299.382244 -316.843062 
L 299.382244 -325.886124 
L 299.382244 -334.929187 
L 299.382244 -343.972249 
L 299.382244 -353.015311 
L 299.382244 -362.058373 
L 299.382244 -371.101435 
L 299.382244 -380.144498 
L 299.382244 -389.18756 
L 299.382244 -398.230622 
L 299.382244 -407.273684 
L 299.382244 -416.316746 
L 299.382244 -425.359809 
L 299.382244 -434.402871 
L 299.382244 -443.445933 
L 299.382244 -452.488995 
L 299.382244 -461.532057 
L 299.382244 -470.57512 
L 299.382244 -479.618182 
L 303.873009 -479.618182 
L 303.873009 -479.618182 
L 304.73255 -470.57512 
L 305.597471 -461.532057 
L 306.461008 -452.488995 
L 307.323642 -443.445933 
L 308.1939 -434.402871 
L 309.09373 -425.359809 
L 310.066922 -416.316746 
L 311.184294 -407.273684 
L 312.537631 -398.230622 
L 314.217953 -389.18756 
L 316.281994 -380.144498 
L 318.719233 -371.101435 
L 321.435095 -362.058373 
L 324.260814 -353.015311 
L 326.988808 -343.972249 
L 329.420266 -334.929187 
L 331.405645 -325.886124 
L 332.862485 -316.843062 
L 333.766491 -307.8 
L 334.125 -298.756938 
L 333.949623 -289.713876 
L 333.243051 -280.670813 
L 332.005195 -271.627751 
L 330.252177 -262.584689 
L 328.035102 -253.541627 
L 325.447153 -244.498565 
L 322.615325 -235.455502 
L 319.68151 -226.41244 
L 316.781792 -217.369378 
L 314.031436 -208.326316 
L 311.518146 -199.283254 
L 309.301443 -190.240191 
L 307.414006 -181.197129 
L 305.862152 -172.154067 
L 304.62578 -163.111005 
L 303.66061 -154.067943 
L 302.905425 -145.02488 
L 302.294385 -135.981818 
z
" style="stroke: #0072b2; stroke-opacity: 0.3"/>
    </defs>
    <g clip-path="url(#pe21a1cb980)">
     <use xlink:href="#m56850e7564" x="0" y="1080" style="fill: #0072b2; fill-opacity: 0.3; stroke: #0072b2; stroke-opacity: 0.3"/>
    </g>
   </g>
   <g id="PolyCollection_7">
    <defs>
     <path id="m3cc06387b9" d="M 444.586137 -168.633887 
L 438.995187 -168.633887 
L 438.995187 -169.922693 
L 438.995187 -171.211499 
L 438.995187 -172.500304 
L 438.995187 -173.78911 
L 438.995187 -175.077916 
L 438.995187 -176.366722 
L 438.995187 -177.655527 
L 438.995187 -178.944333 
L 438.995187 -180.233139 
L 438.995187 -181.521945 
L 438.995187 -182.81075 
L 438.995187 -184.099556 
L 438.995187 -185.388362 
L 438.995187 -186.677168 
L 438.995187 -187.965973 
L 438.995187 -189.254779 
L 438.995187 -190.543585 
L 438.995187 -191.832391 
L 438.995187 -193.121196 
L 438.995187 -194.410002 
L 438.995187 -195.698808 
L 438.995187 -196.987614 
L 438.995187 -198.276419 
L 438.995187 -199.565225 
L 438.995187 -200.854031 
L 438.995187 -202.142837 
L 438.995187 -203.431642 
L 438.995187 -204.720448 
L 438.995187 -206.009254 
L 438.995187 -207.29806 
L 438.995187 -208.586865 
L 438.995187 -209.875671 
L 438.995187 -211.164477 
L 438.995187 -212.453283 
L 438.995187 -213.742088 
L 438.995187 -215.030894 
L 438.995187 -216.3197 
L 438.995187 -217.608506 
L 446.937889 -217.608506 
L 446.937889 -217.608506 
L 447.985049 -216.3197 
L 448.99303 -215.030894 
L 450.01091 -213.742088 
L 451.108085 -212.453283 
L 452.35527 -211.164477 
L 453.805216 -209.875671 
L 455.47936 -208.586865 
L 457.36386 -207.29806 
L 459.414506 -206.009254 
L 461.566778 -204.720448 
L 463.746319 -203.431642 
L 465.876413 -202.142837 
L 467.881649 -200.854031 
L 469.689068 -199.565225 
L 471.228832 -198.276419 
L 472.435631 -196.987614 
L 473.250866 -195.698808 
L 473.625 -194.410002 
L 473.519853 -193.121196 
L 472.911521 -191.832391 
L 471.794888 -190.543585 
L 470.189895 -189.254779 
L 468.147969 -187.965973 
L 465.755544 -186.677168 
L 463.131481 -185.388362 
L 460.41689 -184.099556 
L 457.758596 -182.81075 
L 455.289888 -181.521945 
L 453.11312 -180.233139 
L 451.287878 -178.944333 
L 449.826606 -177.655527 
L 448.697662 -176.366722 
L 447.834602 -175.077916 
L 447.149933 -173.78911 
L 446.55124 -172.500304 
L 445.957202 -171.211499 
L 445.310665 -169.922693 
L 444.586137 -168.633887 
z
" style="stroke: #009e73; stroke-opacity: 0.3"/>
    </defs>
    <g clip-path="url(#pe21a1cb980)">
     <use xlink:href="#m3cc06387b9" x="0" y="1080" style="fill: #009e73; fill-opacity: 0.3; stroke: #009e73; stroke-opacity: 0.3"/>
    </g>
   </g>
   <g id="PolyCollection_8">
    <defs>
     <path id="m1707c7c0f7" d="M 580.443311 -316.681478 
L 578.322894 -316.681478 
L 578.322894 -319.624101 
L 578.322894 -322.566724 
L 578.322894 -325.509347 
L 578.322894 -328.45197 
L 578.322894 -331.394593 
L 578.322894 -334.337215 
L 578.322894 -337.279838 
L 578.322894 -340.222461 
L 578.322894 -343.165084 
L 578.322894 -346.107707 
L 578.322894 -349.05033 
L 578.322894 -351.992953 
L 578.322894 -354.935576 
L 578.322894 -357.878199 
L 578.322894 -360.820822 
L 578.322894 -363.763444 
L 578.322894 -366.706067 
L 578.322894 -369.64869 
L 578.322894 -372.591313 
L 578.322894 -375.533936 
L 578.322894 -378.476559 
L 578.322894 -381.419182 
L 578.322894 -384.361805 
L 578.322894 -387.304428 
L 578.322894 -390.247051 
L 578.322894 -393.189673 
L 578.322894 -396.132296 
L 578.322894 -399.074919 
L 578.322894 -402.017542 
L 578.322894 -404.960165 
L 578.322894 -407.902788 
L 578.322894 -410.845411 
L 578.322894 -413.788034 
L 578.322894 -416.730657 
L 578.322894 -419.67328 
L 578.322894 -422.615902 
L 578.322894 -425.558525 
L 578.322894 -428.501148 
L 579.767777 -428.501148 
L 579.767777 -428.501148 
L 579.669534 -425.558525 
L 579.411339 -422.615902 
L 579.08109 -419.67328 
L 578.770251 -416.730657 
L 578.534877 -413.788034 
L 578.386468 -410.845411 
L 578.322894 -407.902788 
L 578.322894 -404.960165 
L 578.322894 -402.017542 
L 578.322894 -399.074919 
L 578.322894 -396.132296 
L 578.366041 -393.189673 
L 578.565406 -390.247051 
L 579.009547 -387.304428 
L 579.876326 -384.361805 
L 581.364023 -381.419182 
L 583.623219 -378.476559 
L 586.68696 -375.533936 
L 590.445772 -372.591313 
L 594.683657 -369.64869 
L 599.137889 -366.706067 
L 603.527069 -363.763444 
L 607.530815 -360.820822 
L 610.758234 -357.878199 
L 612.761079 -354.935576 
L 613.125 -351.992953 
L 611.624919 -349.05033 
L 608.373361 -346.107707 
L 603.859478 -343.165084 
L 598.819584 -340.222461 
L 593.989636 -337.279838 
L 589.878758 -334.337215 
L 586.685367 -331.394593 
L 584.365704 -328.45197 
L 582.761723 -325.509347 
L 581.690202 -322.566724 
L 580.971897 -319.624101 
L 580.443311 -316.681478 
z
" style="stroke: #cc79a7; stroke-opacity: 0.3"/>
    </defs>
    <g clip-path="url(#pe21a1cb980)">
     <use xlink:href="#m1707c7c0f7" x="0" y="1080" style="fill: #cc79a7; fill-opacity: 0.3; stroke: #cc79a7; stroke-opacity: 0.3"/>
    </g>
   </g>
   <g id="PathCollection_5">
    <g clip-path="url(#pe21a1cb980)">
     <use xlink:href="#mcfdf62addb" x="124.926997" y="857.84932" style="fill: #d55e00; stroke: #d55e00"/>
     <use xlink:href="#mcfdf62addb" x="129.542874" y="825.868216" style="fill: #d55e00; stroke: #d55e00"/>
     <use xlink:href="#mcfdf62addb" x="125.092641" y="841.273488" style="fill: #d55e00; stroke: #d55e00"/>
     <use xlink:href="#mcfdf62addb" x="128.605226" y="833.417843" style="fill: #d55e00; stroke: #d55e00"/>
     <use xlink:href="#mcfdf62addb" x="134.724111" y="846.808865" style="fill: #d55e00; stroke: #d55e00"/>
     <use xlink:href="#mcfdf62addb" x="125.605748" y="816.312202" style="fill: #d55e00; stroke: #d55e00"/>
     <use xlink:href="#mcfdf62addb" x="134.701913" y="869.611697" style="fill: #d55e00; stroke: #d55e00"/>
     <use xlink:href="#mcfdf62addb" x="132.610953" y="839.381366" style="fill: #d55e00; stroke: #d55e00"/>
     <use xlink:href="#mcfdf62addb" x="131.467466" y="830.197491" style="fill: #d55e00; stroke: #d55e00"/>
     <use xlink:href="#mcfdf62addb" x="127.439426" y="838.518156" style="fill: #d55e00; stroke: #d55e00"/>
     <use xlink:href="#mcfdf62addb" x="134.711453" y="837.766655" style="fill: #d55e00; stroke: #d55e00"/>
     <use xlink:href="#mcfdf62addb" x="133.969891" y="844.483929" style="fill: #d55e00; stroke: #d55e00"/>
     <use xlink:href="#mcfdf62addb" x="135.310101" y="823.713265" style="fill: #d55e00; stroke: #d55e00"/>
     <use xlink:href="#mcfdf62addb" x="137.483858" y="838.529179" style="fill: #d55e00; stroke: #d55e00"/>
     <use xlink:href="#mcfdf62addb" x="136.45102" y="838.00218" style="fill: #d55e00; stroke: #d55e00"/>
     <use xlink:href="#mcfdf62addb" x="131.176515" y="835.346768" style="fill: #d55e00; stroke: #d55e00"/>
     <use xlink:href="#mcfdf62addb" x="130.570422" y="838.475787" style="fill: #d55e00; stroke: #d55e00"/>
     <use xlink:href="#mcfdf62addb" x="130.594777" y="828.954955" style="fill: #d55e00; stroke: #d55e00"/>
     <use xlink:href="#mcfdf62addb" x="128.510813" y="832.912646" style="fill: #d55e00; stroke: #d55e00"/>
     <use xlink:href="#mcfdf62addb" x="130.904213" y="855.703254" style="fill: #d55e00; stroke: #d55e00"/>
     <use xlink:href="#mcfdf62addb" x="135.971961" y="808.153705" style="fill: #d55e00; stroke: #d55e00"/>
     <use xlink:href="#mcfdf62addb" x="125.147978" y="842.085357" style="fill: #d55e00; stroke: #d55e00"/>
     <use xlink:href="#mcfdf62addb" x="134.904884" y="817.172475" style="fill: #d55e00; stroke: #d55e00"/>
     <use xlink:href="#mcfdf62addb" x="138.516689" y="824.45613" style="fill: #d55e00; stroke: #d55e00"/>
     <use xlink:href="#mcfdf62addb" x="138.368106" y="819.756521" style="fill: #d55e00; stroke: #d55e00"/>
     <use xlink:href="#mcfdf62addb" x="136.320399" y="832.058696" style="fill: #d55e00; stroke: #d55e00"/>
     <use xlink:href="#mcfdf62addb" x="133.679144" y="800.973767" style="fill: #d55e00; stroke: #d55e00"/>
     <use xlink:href="#mcfdf62addb" x="124.947675" y="855.820018" style="fill: #d55e00; stroke: #d55e00"/>
     <use xlink:href="#mcfdf62addb" x="130.308885" y="832.41042" style="fill: #d55e00; stroke: #d55e00"/>
     <use xlink:href="#mcfdf62addb" x="125.044439" y="861.888995" style="fill: #d55e00; stroke: #d55e00"/>
     <use xlink:href="#mcfdf62addb" x="125.643819" y="807.581016" style="fill: #d55e00; stroke: #d55e00"/>
     <use xlink:href="#mcfdf62addb" x="137.291206" y="820.301518" style="fill: #d55e00; stroke: #d55e00"/>
     <use xlink:href="#mcfdf62addb" x="135.433923" y="841.686385" style="fill: #d55e00; stroke: #d55e00"/>
     <use xlink:href="#mcfdf62addb" x="129.508061" y="805.065535" style="fill: #d55e00; stroke: #d55e00"/>
     <use xlink:href="#mcfdf62addb" x="135.924677" y="835.677178" style="fill: #d55e00; stroke: #d55e00"/>
     <use xlink:href="#mcfdf62addb" x="135.209277" y="806.762393" style="fill: #d55e00; stroke: #d55e00"/>
     <use xlink:href="#mcfdf62addb" x="126.250909" y="846.17174" style="fill: #d55e00; stroke: #d55e00"/>
     <use xlink:href="#mcfdf62addb" x="137.334166" y="818.993473" style="fill: #d55e00; stroke: #d55e00"/>
     <use xlink:href="#mcfdf62addb" x="128.82949" y="865.572178" style="fill: #d55e00; stroke: #d55e00"/>
    </g>
   </g>
   <g id="PathCollection_6">
    <g clip-path="url(#pe21a1cb980)">
     <use xlink:href="#mb1e4cda5eb" x="270.357457" y="727.564805" style="fill: #0072b2; stroke: #0072b2"/>
     <use xlink:href="#mb1e4cda5eb" x="265.567061" y="801.468694" style="fill: #0072b2; stroke: #0072b2"/>
     <use xlink:href="#mb1e4cda5eb" x="267.640338" y="796.825956" style="fill: #0072b2; stroke: #0072b2"/>
     <use xlink:href="#mb1e4cda5eb" x="272.921811" y="625.901265" style="fill: #0072b2; stroke: #0072b2"/>
     <use xlink:href="#mb1e4cda5eb" x="267.36976" y="768.130423" style="fill: #0072b2; stroke: #0072b2"/>
     <use xlink:href="#mb1e4cda5eb" x="277.893703" y="809.303826" style="fill: #0072b2; stroke: #0072b2"/>
     <use xlink:href="#mb1e4cda5eb" x="275.06183" y="724.712683" style="fill: #0072b2; stroke: #0072b2"/>
     <use xlink:href="#mb1e4cda5eb" x="266.411009" y="851.367285" style="fill: #0072b2; stroke: #0072b2"/>
     <use xlink:href="#mb1e4cda5eb" x="272.465722" y="667.186284" style="fill: #0072b2; stroke: #0072b2"/>
     <use xlink:href="#mb1e4cda5eb" x="270.401421" y="811.57867" style="fill: #0072b2; stroke: #0072b2"/>
     <use xlink:href="#mb1e4cda5eb" x="277.215411" y="600.381818" style="fill: #0072b2; stroke: #0072b2"/>
     <use xlink:href="#mb1e4cda5eb" x="277.933246" y="751.072052" style="fill: #0072b2; stroke: #0072b2"/>
     <use xlink:href="#mb1e4cda5eb" x="278.212355" y="753.509634" style="fill: #0072b2; stroke: #0072b2"/>
     <use xlink:href="#mb1e4cda5eb" x="276.503246" y="682.590918" style="fill: #0072b2; stroke: #0072b2"/>
     <use xlink:href="#mb1e4cda5eb" x="271.036117" y="740.844253" style="fill: #0072b2; stroke: #0072b2"/>
     <use xlink:href="#mb1e4cda5eb" x="276.160068" y="650.794878" style="fill: #0072b2; stroke: #0072b2"/>
     <use xlink:href="#mb1e4cda5eb" x="273.073508" y="763.379011" style="fill: #0072b2; stroke: #0072b2"/>
     <use xlink:href="#mb1e4cda5eb" x="267.478486" y="790.429511" style="fill: #0072b2; stroke: #0072b2"/>
     <use xlink:href="#mb1e4cda5eb" x="273.194444" y="888.168995" style="fill: #0072b2; stroke: #0072b2"/>
     <use xlink:href="#mb1e4cda5eb" x="268.751082" y="766.562764" style="fill: #0072b2; stroke: #0072b2"/>
     <use xlink:href="#mb1e4cda5eb" x="265.994847" y="944.018182" style="fill: #0072b2; stroke: #0072b2"/>
     <use xlink:href="#mb1e4cda5eb" x="277.295488" y="819.315477" style="fill: #0072b2; stroke: #0072b2"/>
     <use xlink:href="#mb1e4cda5eb" x="267.755714" y="795.627624" style="fill: #0072b2; stroke: #0072b2"/>
     <use xlink:href="#mb1e4cda5eb" x="268.976241" y="730.492043" style="fill: #0072b2; stroke: #0072b2"/>
     <use xlink:href="#mb1e4cda5eb" x="268.907946" y="814.303366" style="fill: #0072b2; stroke: #0072b2"/>
     <use xlink:href="#mb1e4cda5eb" x="277.497682" y="856.922375" style="fill: #0072b2; stroke: #0072b2"/>
     <use xlink:href="#mb1e4cda5eb" x="275.872183" y="767.024611" style="fill: #0072b2; stroke: #0072b2"/>
     <use xlink:href="#mb1e4cda5eb" x="273.303832" y="738.415225" style="fill: #0072b2; stroke: #0072b2"/>
     <use xlink:href="#mb1e4cda5eb" x="268.176375" y="719.416114" style="fill: #0072b2; stroke: #0072b2"/>
     <use xlink:href="#mb1e4cda5eb" x="267.381942" y="839.640851" style="fill: #0072b2; stroke: #0072b2"/>
     <use xlink:href="#mb1e4cda5eb" x="276.928728" y="835.433099" style="fill: #0072b2; stroke: #0072b2"/>
     <use xlink:href="#mb1e4cda5eb" x="274.826754" y="679.125739" style="fill: #0072b2; stroke: #0072b2"/>
     <use xlink:href="#mb1e4cda5eb" x="275.331156" y="751.767528" style="fill: #0072b2; stroke: #0072b2"/>
     <use xlink:href="#mb1e4cda5eb" x="270.694026" y="787.02666" style="fill: #0072b2; stroke: #0072b2"/>
     <use xlink:href="#mb1e4cda5eb" x="274.549429" y="764.187951" style="fill: #0072b2; stroke: #0072b2"/>
     <use xlink:href="#mb1e4cda5eb" x="272.532102" y="818.59576" style="fill: #0072b2; stroke: #0072b2"/>
     <use xlink:href="#mb1e4cda5eb" x="277.363093" y="846.078498" style="fill: #0072b2; stroke: #0072b2"/>
     <use xlink:href="#mb1e4cda5eb" x="272.952266" y="807.793831" style="fill: #0072b2; stroke: #0072b2"/>
     <use xlink:href="#mb1e4cda5eb" x="271.168179" y="881.39913" style="fill: #0072b2; stroke: #0072b2"/>
    </g>
   </g>
   <g id="PathCollection_7">
    <g clip-path="url(#pe21a1cb980)">
     <use xlink:href="#ma4daf1750a" x="408.858916" y="895.790747" style="fill: #009e73; stroke: #009e73"/>
     <use xlink:href="#ma4daf1750a" x="413.839513" y="891.298699" style="fill: #009e73; stroke: #009e73"/>
     <use xlink:href="#ma4daf1750a" x="411.104191" y="892.675085" style="fill: #009e73; stroke: #009e73"/>
     <use xlink:href="#ma4daf1750a" x="405.992539" y="875.772713" style="fill: #009e73; stroke: #009e73"/>
     <use xlink:href="#ma4daf1750a" x="403.878795" y="899.883226" style="fill: #009e73; stroke: #009e73"/>
     <use xlink:href="#ma4daf1750a" x="406.924602" y="873.883592" style="fill: #009e73; stroke: #009e73"/>
     <use xlink:href="#ma4daf1750a" x="412.837922" y="880.344678" style="fill: #009e73; stroke: #009e73"/>
     <use xlink:href="#ma4daf1750a" x="404.292945" y="907.241868" style="fill: #009e73; stroke: #009e73"/>
     <use xlink:href="#ma4daf1750a" x="405.687392" y="873.944382" style="fill: #009e73; stroke: #009e73"/>
     <use xlink:href="#ma4daf1750a" x="409.977281" y="892.62782" style="fill: #009e73; stroke: #009e73"/>
     <use xlink:href="#ma4daf1750a" x="408.91889" y="863.85639" style="fill: #009e73; stroke: #009e73"/>
     <use xlink:href="#ma4daf1750a" x="412.819779" y="884.794896" style="fill: #009e73; stroke: #009e73"/>
     <use xlink:href="#ma4daf1750a" x="412.972467" y="901.106801" style="fill: #009e73; stroke: #009e73"/>
     <use xlink:href="#ma4daf1750a" x="410.184577" y="886.251762" style="fill: #009e73; stroke: #009e73"/>
     <use xlink:href="#ma4daf1750a" x="411.846419" y="890.531581" style="fill: #009e73; stroke: #009e73"/>
     <use xlink:href="#ma4daf1750a" x="407.304587" y="862.391494" style="fill: #009e73; stroke: #009e73"/>
     <use xlink:href="#ma4daf1750a" x="416.955421" y="883.039186" style="fill: #009e73; stroke: #009e73"/>
     <use xlink:href="#ma4daf1750a" x="407.144444" y="882.942008" style="fill: #009e73; stroke: #009e73"/>
     <use xlink:href="#ma4daf1750a" x="416.300158" y="878.219608" style="fill: #009e73; stroke: #009e73"/>
     <use xlink:href="#ma4daf1750a" x="410.135949" y="884.414488" style="fill: #009e73; stroke: #009e73"/>
     <use xlink:href="#ma4daf1750a" x="406.25578" y="911.366113" style="fill: #009e73; stroke: #009e73"/>
     <use xlink:href="#ma4daf1750a" x="415.507077" y="867.346348" style="fill: #009e73; stroke: #009e73"/>
     <use xlink:href="#ma4daf1750a" x="415.001608" y="891.917794" style="fill: #009e73; stroke: #009e73"/>
     <use xlink:href="#ma4daf1750a" x="412.098481" y="881.036419" style="fill: #009e73; stroke: #009e73"/>
     <use xlink:href="#ma4daf1750a" x="404.980933" y="891.950939" style="fill: #009e73; stroke: #009e73"/>
     <use xlink:href="#ma4daf1750a" x="408.173309" y="895.248754" style="fill: #009e73; stroke: #009e73"/>
     <use xlink:href="#ma4daf1750a" x="410.616919" y="891.516042" style="fill: #009e73; stroke: #009e73"/>
     <use xlink:href="#ma4daf1750a" x="411.528783" y="881.112485" style="fill: #009e73; stroke: #009e73"/>
     <use xlink:href="#ma4daf1750a" x="416.31453" y="863.701174" style="fill: #009e73; stroke: #009e73"/>
     <use xlink:href="#ma4daf1750a" x="415.998954" y="872.708922" style="fill: #009e73; stroke: #009e73"/>
     <use xlink:href="#ma4daf1750a" x="412.722042" y="908.822223" style="fill: #009e73; stroke: #009e73"/>
     <use xlink:href="#ma4daf1750a" x="404.68514" y="884.972954" style="fill: #009e73; stroke: #009e73"/>
     <use xlink:href="#ma4daf1750a" x="408.24249" y="886.725057" style="fill: #009e73; stroke: #009e73"/>
     <use xlink:href="#ma4daf1750a" x="411.524923" y="888.452783" style="fill: #009e73; stroke: #009e73"/>
     <use xlink:href="#ma4daf1750a" x="415.637996" y="886.475732" style="fill: #009e73; stroke: #009e73"/>
     <use xlink:href="#ma4daf1750a" x="406.188597" y="888.367937" style="fill: #009e73; stroke: #009e73"/>
     <use xlink:href="#ma4daf1750a" x="410.152231" y="878.095424" style="fill: #009e73; stroke: #009e73"/>
     <use xlink:href="#ma4daf1750a" x="409.917635" y="881.291398" style="fill: #009e73; stroke: #009e73"/>
     <use xlink:href="#ma4daf1750a" x="415.781168" y="874.784117" style="fill: #009e73; stroke: #009e73"/>
    </g>
   </g>
   <g id="PathCollection_8">
    <g clip-path="url(#pe21a1cb980)">
     <use xlink:href="#m0bfe8e25c6" x="553.086894" y="709.127926" style="fill: #cc79a7; stroke: #cc79a7"/>
     <use xlink:href="#m0bfe8e25c6" x="556.176249" y="727.849222" style="fill: #cc79a7; stroke: #cc79a7"/>
     <use xlink:href="#m0bfe8e25c6" x="554.67227" y="719.017569" style="fill: #cc79a7; stroke: #cc79a7"/>
     <use xlink:href="#m0bfe8e25c6" x="548.938292" y="732.431124" style="fill: #cc79a7; stroke: #cc79a7"/>
     <use xlink:href="#m0bfe8e25c6" x="551.114817" y="729.217048" style="fill: #cc79a7; stroke: #cc79a7"/>
     <use xlink:href="#m0bfe8e25c6" x="554.084003" y="749.280809" style="fill: #cc79a7; stroke: #cc79a7"/>
     <use xlink:href="#m0bfe8e25c6" x="556.849102" y="734.259198" style="fill: #cc79a7; stroke: #cc79a7"/>
     <use xlink:href="#m0bfe8e25c6" x="554.458523" y="721.17822" style="fill: #cc79a7; stroke: #cc79a7"/>
     <use xlink:href="#m0bfe8e25c6" x="556.253297" y="763.318522" style="fill: #cc79a7; stroke: #cc79a7"/>
     <use xlink:href="#m0bfe8e25c6" x="552.612031" y="711.102618" style="fill: #cc79a7; stroke: #cc79a7"/>
     <use xlink:href="#m0bfe8e25c6" x="544.269802" y="651.498852" style="fill: #cc79a7; stroke: #cc79a7"/>
     <use xlink:href="#m0bfe8e25c6" x="545.564368" y="710.026412" style="fill: #cc79a7; stroke: #cc79a7"/>
     <use xlink:href="#m0bfe8e25c6" x="552.110876" y="720.981025" style="fill: #cc79a7; stroke: #cc79a7"/>
     <use xlink:href="#m0bfe8e25c6" x="551.920982" y="718.473399" style="fill: #cc79a7; stroke: #cc79a7"/>
     <use xlink:href="#m0bfe8e25c6" x="550.502061" y="728.670446" style="fill: #cc79a7; stroke: #cc79a7"/>
     <use xlink:href="#m0bfe8e25c6" x="553.130882" y="748.370342" style="fill: #cc79a7; stroke: #cc79a7"/>
     <use xlink:href="#m0bfe8e25c6" x="543.933443" y="731.18037" style="fill: #cc79a7; stroke: #cc79a7"/>
     <use xlink:href="#m0bfe8e25c6" x="547.947286" y="725.065264" style="fill: #cc79a7; stroke: #cc79a7"/>
     <use xlink:href="#m0bfe8e25c6" x="546.548816" y="737.82259" style="fill: #cc79a7; stroke: #cc79a7"/>
     <use xlink:href="#m0bfe8e25c6" x="552.054016" y="726.370251" style="fill: #cc79a7; stroke: #cc79a7"/>
     <use xlink:href="#m0bfe8e25c6" x="552.902443" y="735.643372" style="fill: #cc79a7; stroke: #cc79a7"/>
     <use xlink:href="#m0bfe8e25c6" x="545.378208" y="729.482997" style="fill: #cc79a7; stroke: #cc79a7"/>
     <use xlink:href="#m0bfe8e25c6" x="547.087102" y="736.340098" style="fill: #cc79a7; stroke: #cc79a7"/>
     <use xlink:href="#m0bfe8e25c6" x="545.125298" y="734.069812" style="fill: #cc79a7; stroke: #cc79a7"/>
     <use xlink:href="#m0bfe8e25c6" x="547.960223" y="730.80934" style="fill: #cc79a7; stroke: #cc79a7"/>
     <use xlink:href="#m0bfe8e25c6" x="550.780489" y="715.948694" style="fill: #cc79a7; stroke: #cc79a7"/>
     <use xlink:href="#m0bfe8e25c6" x="552.035358" y="720.297385" style="fill: #cc79a7; stroke: #cc79a7"/>
     <use xlink:href="#m0bfe8e25c6" x="545.968263" y="730.94937" style="fill: #cc79a7; stroke: #cc79a7"/>
     <use xlink:href="#m0bfe8e25c6" x="554.164298" y="740.026517" style="fill: #cc79a7; stroke: #cc79a7"/>
     <use xlink:href="#m0bfe8e25c6" x="552.41926" y="729.206847" style="fill: #cc79a7; stroke: #cc79a7"/>
     <use xlink:href="#m0bfe8e25c6" x="546.215551" y="713.798256" style="fill: #cc79a7; stroke: #cc79a7"/>
     <use xlink:href="#m0bfe8e25c6" x="556.177263" y="723.803216" style="fill: #cc79a7; stroke: #cc79a7"/>
     <use xlink:href="#m0bfe8e25c6" x="551.739196" y="720.642698" style="fill: #cc79a7; stroke: #cc79a7"/>
     <use xlink:href="#m0bfe8e25c6" x="548.174465" y="731.610801" style="fill: #cc79a7; stroke: #cc79a7"/>
     <use xlink:href="#m0bfe8e25c6" x="548.045232" y="717.395086" style="fill: #cc79a7; stroke: #cc79a7"/>
     <use xlink:href="#m0bfe8e25c6" x="544.70534" y="723.765754" style="fill: #cc79a7; stroke: #cc79a7"/>
     <use xlink:href="#m0bfe8e25c6" x="552.504971" y="740.146582" style="fill: #cc79a7; stroke: #cc79a7"/>
     <use xlink:href="#m0bfe8e25c6" x="551.017194" y="709.036193" style="fill: #cc79a7; stroke: #cc79a7"/>
     <use xlink:href="#m0bfe8e25c6" x="546.694154" y="724.674064" style="fill: #cc79a7; stroke: #cc79a7"/>
    </g>
   </g>
   <g id="patch_12">
    <path d="M 149.2875 841.885871 
L 170.2125 841.885871 
L 170.2125 822.007392 
L 149.2875 822.007392 
L 149.2875 841.885871 
z
" clip-path="url(#pe21a1cb980)" style="fill: #d55e00; opacity: 0.5; stroke: #000000; stroke-linejoin: miter"/>
   </g>
   <g id="line2d_44">
    <path d="M 159.75 841.885871 
L 159.75 869.611697 
" clip-path="url(#pe21a1cb980)" style="fill: none; stroke: #000000; stroke-linecap: round"/>
   </g>
   <g id="line2d_45">
    <path d="M 159.75 822.007392 
L 159.75 800.973767 
" clip-path="url(#pe21a1cb980)" style="fill: none; stroke: #000000; stroke-linecap: round"/>
   </g>
   <g id="line2d_46">
    <path d="M 154.51875 869.611697 
L 164.98125 869.611697 
" clip-path="url(#pe21a1cb980)" style="fill: none; stroke: #000000; stroke-linecap: round"/>
   </g>
   <g id="line2d_47">
    <path d="M 154.51875 800.973767 
L 164.98125 800.973767 
" clip-path="url(#pe21a1cb980)" style="fill: none; stroke: #000000; stroke-linecap: round"/>
   </g>
   <g id="patch_13">
    <path d="M 288.7875 816.449563 
L 309.7125 816.449563 
L 309.7125 734.453634 
L 288.7875 734.453634 
L 288.7875 816.449563 
z
" clip-path="url(#pe21a1cb980)" style="fill: #0072b2; opacity: 0.5; stroke: #000000; stroke-linejoin: miter"/>
   </g>
   <g id="line2d_48">
    <path d="M 299.25 816.449563 
L 299.25 888.168995 
" clip-path="url(#pe21a1cb980)" style="fill: none; stroke: #000000; stroke-linecap: round"/>
   </g>
   <g id="line2d_49">
    <path d="M 299.25 734.453634 
L 299.25 625.901265 
" clip-path="url(#pe21a1cb980)" style="fill: none; stroke: #000000; stroke-linecap: round"/>
   </g>
   <g id="line2d_50">
    <path d="M 294.01875 888.168995 
L 304.48125 888.168995 
" clip-path="url(#pe21a1cb980)" style="fill: none; stroke: #000000; stroke-linecap: round"/>
   </g>
   <g id="line2d_51">
    <path d="M 294.01875 625.901265 
L 304.48125 625.901265 
" clip-path="url(#pe21a1cb980)" style="fill: none; stroke: #000000; stroke-linecap: round"/>
   </g>
   <g id="patch_14">
    <path d="M 428.2875 891.934366 
L 449.2125 891.934366 
L 449.2125 878.157516 
L 428.2875 878.157516 
L 428.2875 891.934366 
z
" clip-path="url(#pe21a1cb980)" style="fill: #009e73; opacity: 0.5; stroke: #000000; stroke-linejoin: miter"/>
   </g>
   <g id="line2d_52">
    <path d="M 438.75 891.934366 
L 438.75 911.366113 
" clip-path="url(#pe21a1cb980)" style="fill: none; stroke: #000000; stroke-linecap: round"/>
   </g>
   <g id="line2d_53">
    <path d="M 438.75 878.157516 
L 438.75 862.391494 
" clip-path="url(#pe21a1cb980)" style="fill: none; stroke: #000000; stroke-linecap: round"/>
   </g>
   <g id="line2d_54">
    <path d="M 433.51875 911.366113 
L 443.98125 911.366113 
" clip-path="url(#pe21a1cb980)" style="fill: none; stroke: #000000; stroke-linecap: round"/>
   </g>
   <g id="line2d_55">
    <path d="M 433.51875 862.391494 
L 443.98125 862.391494 
" clip-path="url(#pe21a1cb980)" style="fill: none; stroke: #000000; stroke-linecap: round"/>
   </g>
   <g id="patch_15">
    <path d="M 567.7875 733.250468 
L 588.7125 733.250468 
L 588.7125 719.657477 
L 567.7875 719.657477 
L 567.7875 733.250468 
z
" clip-path="url(#pe21a1cb980)" style="fill: #cc79a7; opacity: 0.5; stroke: #000000; stroke-linejoin: miter"/>
   </g>
   <g id="line2d_56">
    <path d="M 578.25 733.250468 
L 578.25 749.280809 
" clip-path="url(#pe21a1cb980)" style="fill: none; stroke: #000000; stroke-linecap: round"/>
   </g>
   <g id="line2d_57">
    <path d="M 578.25 719.657477 
L 578.25 709.036193 
" clip-path="url(#pe21a1cb980)" style="fill: none; stroke: #000000; stroke-linecap: round"/>
   </g>
   <g id="line2d_58">
    <path d="M 573.01875 749.280809 
L 583.48125 749.280809 
" clip-path="url(#pe21a1cb980)" style="fill: none; stroke: #000000; stroke-linecap: round"/>
   </g>
   <g id="line2d_59">
    <path d="M 573.01875 709.036193 
L 583.48125 709.036193 
" clip-path="url(#pe21a1cb980)" style="fill: none; stroke: #000000; stroke-linecap: round"/>
   </g>
   <g id="line2d_60">
    <path d="M 149.2875 835.346768 
L 170.2125 835.346768 
" clip-path="url(#pe21a1cb980)" style="fill: none; stroke: #000000"/>
   </g>
   <g id="line2d_61">
    <path d="M 288.7875 768.130423 
L 309.7125 768.130423 
" clip-path="url(#pe21a1cb980)" style="fill: none; stroke: #000000"/>
   </g>
   <g id="line2d_62">
    <path d="M 428.2875 884.972954 
L 449.2125 884.972954 
" clip-path="url(#pe21a1cb980)" style="fill: none; stroke: #000000"/>
   </g>
   <g id="line2d_63">
    <path d="M 567.7875 727.849222 
L 588.7125 727.849222 
" clip-path="url(#pe21a1cb980)" style="fill: none; stroke: #000000"/>
   </g>
   <g id="patch_16">
    <path d="M 90 961.2 
L 90 583.2 
" style="fill: none; stroke: #262626; stroke-width: 1.25; stroke-linejoin: miter; stroke-linecap: square"/>
   </g>
   <g id="patch_17">
    <path d="M 648 961.2 
L 648 583.2 
" style="fill: none; stroke: #262626; stroke-width: 1.25; stroke-linejoin: miter; stroke-linecap: square"/>
   </g>
   <g id="patch_18">
    <path d="M 90 961.2 
L 648 961.2 
" style="fill: none; stroke: #262626; stroke-width: 1.25; stroke-linejoin: miter; stroke-linecap: square"/>
   </g>
   <g id="patch_19">
    <path d="M 90 583.2 
L 648 583.2 
" style="fill: none; stroke: #262626; stroke-width: 1.25; stroke-linejoin: miter; stroke-linecap: square"/>
   </g>
   <g id="text_27">
    <!-- HF-HRV -->
    <g style="fill: #262626" transform="translate(342.681094 563.2) scale(0.14 -0.14)">
     <defs>
      <path id="Arial-BoldMT-48" d="M 469 0 
L 469 4581 
L 1394 4581 
L 1394 2778 
L 3206 2778 
L 3206 4581 
L 4131 4581 
L 4131 0 
L 3206 0 
L 3206 2003 
L 1394 2003 
L 1394 0 
L 469 0 
z
" transform="scale(0.015625)"/>
      <path id="Arial-BoldMT-46" d="M 472 0 
L 472 4581 
L 3613 4581 
L 3613 3806 
L 1397 3806 
L 1397 2722 
L 3309 2722 
L 3309 1947 
L 1397 1947 
L 1397 0 
L 472 0 
z
" transform="scale(0.015625)"/>
      <path id="Arial-BoldMT-2d" d="M 359 1222 
L 359 2100 
L 2084 2100 
L 2084 1222 
L 359 1222 
z
" transform="scale(0.015625)"/>
      <path id="Arial-BoldMT-52" d="M 469 0 
L 469 4581 
L 2416 4581 
Q 3150 4581 3483 4457 
Q 3816 4334 4016 4018 
Q 4216 3703 4216 3297 
Q 4216 2781 3912 2445 
Q 3609 2109 3006 2022 
Q 3306 1847 3501 1637 
Q 3697 1428 4028 894 
L 4588 0 
L 3481 0 
L 2813 997 
Q 2456 1531 2325 1670 
Q 2194 1809 2047 1861 
Q 1900 1913 1581 1913 
L 1394 1913 
L 1394 0 
L 469 0 
z
M 1394 2644 
L 2078 2644 
Q 2744 2644 2909 2700 
Q 3075 2756 3169 2893 
Q 3263 3031 3263 3238 
Q 3263 3469 3139 3611 
Q 3016 3753 2791 3791 
Q 2678 3806 2116 3806 
L 1394 3806 
L 1394 2644 
z
" transform="scale(0.015625)"/>
      <path id="Arial-BoldMT-56" d="M 1634 0 
L -3 4581 
L 1000 4581 
L 2159 1191 
L 3281 4581 
L 4263 4581 
L 2622 0 
L 1634 0 
z
" transform="scale(0.015625)"/>
     </defs>
     <use xlink:href="#Arial-BoldMT-48"/>
     <use xlink:href="#Arial-BoldMT-46" x="72.216797"/>
     <use xlink:href="#Arial-BoldMT-2d" x="133.300781"/>
     <use xlink:href="#Arial-BoldMT-48" x="166.601562"/>
     <use xlink:href="#Arial-BoldMT-52" x="238.818359"/>
     <use xlink:href="#Arial-BoldMT-56" x="309.285156"/>
    </g>
   </g>
  </g>
 </g>
 <defs>
  <clipPath id="p6cc21c59db">
   <rect x="90" y="129.6" width="558" height="378"/>
  </clipPath>
  <clipPath id="pe21a1cb980">
   <rect x="90" y="583.2" width="558" height="378"/>
  </clipPath>
 </defs>
</svg>
