<?xml version="1.0" encoding="utf-8" standalone="no"?>
<!DOCTYPE svg PUBLIC "-//W3C//DTD SVG 1.1//EN"
  "http://www.w3.org/Graphics/SVG/1.1/DTD/svg11.dtd">
<svg xmlns:xlink="http://www.w3.org/1999/xlink" width="720pt" height="1080pt" viewBox="0 0 720 1080" xmlns="http://www.w3.org/2000/svg" version="1.1">
 <metadata>
  <rdf:RDF xmlns:dc="http://purl.org/dc/elements/1.1/" xmlns:cc="http://creativecommons.org/ns#" xmlns:rdf="http://www.w3.org/1999/02/22-rdf-syntax-ns#">
   <cc:Work>
    <dc:type rdf:resource="http://purl.org/dc/dcmitype/StillImage"/>
    <dc:date>2024-08-30T16:24:32.280147</dc:date>
    <dc:format>image/svg+xml</dc:format>
    <dc:creator>
     <cc:Agent>
      <dc:title>Matplotlib v3.8.0, https://matplotlib.org/</dc:title>
     </cc:Agent>
    </dc:creator>
   </cc:Work>
  </rdf:RDF>
 </metadata>
 <defs>
  <style type="text/css">*{stroke-linejoin: round; stroke-linecap: butt}</style>
 </defs>
 <g id="figure_1">
  <g id="patch_1">
   <path d="M 0 1080 
L 720 1080 
L 720 0 
L 0 0 
z
" style="fill: #ffffff"/>
  </g>
  <g id="axes_1">
   <g id="patch_2">
    <path d="M 90 507.6 
L 648 507.6 
L 648 129.6 
L 90 129.6 
z
" style="fill: #ffffff"/>
   </g>
   <g id="matplotlib.axis_1">
    <g id="xtick_1">
     <g id="line2d_1">
      <defs>
       <path id="m0a4c0514e4" d="M 0 0 
L 0 6 
" style="stroke: #262626; stroke-width: 1.25"/>
      </defs>
      <g>
       <use xlink:href="#m0a4c0514e4" x="159.75" y="507.6" style="fill: #262626; stroke: #262626; stroke-width: 1.25"/>
      </g>
     </g>
     <g id="text_1">
      <!-- State 1 -->
      <g style="fill: #262626" transform="translate(142.321875 524.973594) scale(0.11 -0.11)">
       <defs>
        <path id="ArialMT-53" d="M 288 1472 
L 859 1522 
Q 900 1178 1048 958 
Q 1197 738 1509 602 
Q 1822 466 2213 466 
Q 2559 466 2825 569 
Q 3091 672 3220 851 
Q 3350 1031 3350 1244 
Q 3350 1459 3225 1620 
Q 3100 1781 2813 1891 
Q 2628 1963 1997 2114 
Q 1366 2266 1113 2400 
Q 784 2572 623 2826 
Q 463 3081 463 3397 
Q 463 3744 659 4045 
Q 856 4347 1234 4503 
Q 1613 4659 2075 4659 
Q 2584 4659 2973 4495 
Q 3363 4331 3572 4012 
Q 3781 3694 3797 3291 
L 3216 3247 
Q 3169 3681 2898 3903 
Q 2628 4125 2100 4125 
Q 1550 4125 1298 3923 
Q 1047 3722 1047 3438 
Q 1047 3191 1225 3031 
Q 1400 2872 2139 2705 
Q 2878 2538 3153 2413 
Q 3553 2228 3743 1945 
Q 3934 1663 3934 1294 
Q 3934 928 3725 604 
Q 3516 281 3123 101 
Q 2731 -78 2241 -78 
Q 1619 -78 1198 103 
Q 778 284 539 648 
Q 300 1013 288 1472 
z
" transform="scale(0.015625)"/>
        <path id="ArialMT-74" d="M 1650 503 
L 1731 6 
Q 1494 -44 1306 -44 
Q 1000 -44 831 53 
Q 663 150 594 308 
Q 525 466 525 972 
L 525 2881 
L 113 2881 
L 113 3319 
L 525 3319 
L 525 4141 
L 1084 4478 
L 1084 3319 
L 1650 3319 
L 1650 2881 
L 1084 2881 
L 1084 941 
Q 1084 700 1114 631 
Q 1144 563 1211 522 
Q 1278 481 1403 481 
Q 1497 481 1650 503 
z
" transform="scale(0.015625)"/>
        <path id="ArialMT-61" d="M 2588 409 
Q 2275 144 1986 34 
Q 1697 -75 1366 -75 
Q 819 -75 525 192 
Q 231 459 231 875 
Q 231 1119 342 1320 
Q 453 1522 633 1644 
Q 813 1766 1038 1828 
Q 1203 1872 1538 1913 
Q 2219 1994 2541 2106 
Q 2544 2222 2544 2253 
Q 2544 2597 2384 2738 
Q 2169 2928 1744 2928 
Q 1347 2928 1158 2789 
Q 969 2650 878 2297 
L 328 2372 
Q 403 2725 575 2942 
Q 747 3159 1072 3276 
Q 1397 3394 1825 3394 
Q 2250 3394 2515 3294 
Q 2781 3194 2906 3042 
Q 3031 2891 3081 2659 
Q 3109 2516 3109 2141 
L 3109 1391 
Q 3109 606 3145 398 
Q 3181 191 3288 0 
L 2700 0 
Q 2613 175 2588 409 
z
M 2541 1666 
Q 2234 1541 1622 1453 
Q 1275 1403 1131 1340 
Q 988 1278 909 1158 
Q 831 1038 831 891 
Q 831 666 1001 516 
Q 1172 366 1500 366 
Q 1825 366 2078 508 
Q 2331 650 2450 897 
Q 2541 1088 2541 1459 
L 2541 1666 
z
" transform="scale(0.015625)"/>
        <path id="ArialMT-65" d="M 2694 1069 
L 3275 997 
Q 3138 488 2766 206 
Q 2394 -75 1816 -75 
Q 1088 -75 661 373 
Q 234 822 234 1631 
Q 234 2469 665 2931 
Q 1097 3394 1784 3394 
Q 2450 3394 2872 2941 
Q 3294 2488 3294 1666 
Q 3294 1616 3291 1516 
L 816 1516 
Q 847 969 1125 678 
Q 1403 388 1819 388 
Q 2128 388 2347 550 
Q 2566 713 2694 1069 
z
M 847 1978 
L 2700 1978 
Q 2663 2397 2488 2606 
Q 2219 2931 1791 2931 
Q 1403 2931 1139 2672 
Q 875 2413 847 1978 
z
" transform="scale(0.015625)"/>
        <path id="ArialMT-20" transform="scale(0.015625)"/>
        <path id="ArialMT-31" d="M 2384 0 
L 1822 0 
L 1822 3584 
Q 1619 3391 1289 3197 
Q 959 3003 697 2906 
L 697 3450 
Q 1169 3672 1522 3987 
Q 1875 4303 2022 4600 
L 2384 4600 
L 2384 0 
z
" transform="scale(0.015625)"/>
       </defs>
       <use xlink:href="#ArialMT-53"/>
       <use xlink:href="#ArialMT-74" x="66.699219"/>
       <use xlink:href="#ArialMT-61" x="94.482422"/>
       <use xlink:href="#ArialMT-74" x="150.097656"/>
       <use xlink:href="#ArialMT-65" x="177.880859"/>
       <use xlink:href="#ArialMT-20" x="233.496094"/>
       <use xlink:href="#ArialMT-31" x="261.279297"/>
      </g>
     </g>
    </g>
    <g id="xtick_2">
     <g id="line2d_2">
      <g>
       <use xlink:href="#m0a4c0514e4" x="299.25" y="507.6" style="fill: #262626; stroke: #262626; stroke-width: 1.25"/>
      </g>
     </g>
     <g id="text_2">
      <!-- State 2 -->
      <g style="fill: #262626" transform="translate(281.821875 524.973594) scale(0.11 -0.11)">
       <defs>
        <path id="ArialMT-32" d="M 3222 541 
L 3222 0 
L 194 0 
Q 188 203 259 391 
Q 375 700 629 1000 
Q 884 1300 1366 1694 
Q 2113 2306 2375 2664 
Q 2638 3022 2638 3341 
Q 2638 3675 2398 3904 
Q 2159 4134 1775 4134 
Q 1369 4134 1125 3890 
Q 881 3647 878 3216 
L 300 3275 
Q 359 3922 746 4261 
Q 1134 4600 1788 4600 
Q 2447 4600 2831 4234 
Q 3216 3869 3216 3328 
Q 3216 3053 3103 2787 
Q 2991 2522 2730 2228 
Q 2469 1934 1863 1422 
Q 1356 997 1212 845 
Q 1069 694 975 541 
L 3222 541 
z
" transform="scale(0.015625)"/>
       </defs>
       <use xlink:href="#ArialMT-53"/>
       <use xlink:href="#ArialMT-74" x="66.699219"/>
       <use xlink:href="#ArialMT-61" x="94.482422"/>
       <use xlink:href="#ArialMT-74" x="150.097656"/>
       <use xlink:href="#ArialMT-65" x="177.880859"/>
       <use xlink:href="#ArialMT-20" x="233.496094"/>
       <use xlink:href="#ArialMT-32" x="261.279297"/>
      </g>
     </g>
    </g>
    <g id="xtick_3">
     <g id="line2d_3">
      <g>
       <use xlink:href="#m0a4c0514e4" x="438.75" y="507.6" style="fill: #262626; stroke: #262626; stroke-width: 1.25"/>
      </g>
     </g>
     <g id="text_3">
      <!-- State 3 -->
      <g style="fill: #262626" transform="translate(421.321875 524.973594) scale(0.11 -0.11)">
       <defs>
        <path id="ArialMT-33" d="M 269 1209 
L 831 1284 
Q 928 806 1161 595 
Q 1394 384 1728 384 
Q 2125 384 2398 659 
Q 2672 934 2672 1341 
Q 2672 1728 2419 1979 
Q 2166 2231 1775 2231 
Q 1616 2231 1378 2169 
L 1441 2663 
Q 1497 2656 1531 2656 
Q 1891 2656 2178 2843 
Q 2466 3031 2466 3422 
Q 2466 3731 2256 3934 
Q 2047 4138 1716 4138 
Q 1388 4138 1169 3931 
Q 950 3725 888 3313 
L 325 3413 
Q 428 3978 793 4289 
Q 1159 4600 1703 4600 
Q 2078 4600 2393 4439 
Q 2709 4278 2876 4000 
Q 3044 3722 3044 3409 
Q 3044 3113 2884 2869 
Q 2725 2625 2413 2481 
Q 2819 2388 3044 2092 
Q 3269 1797 3269 1353 
Q 3269 753 2831 336 
Q 2394 -81 1725 -81 
Q 1122 -81 723 278 
Q 325 638 269 1209 
z
" transform="scale(0.015625)"/>
       </defs>
       <use xlink:href="#ArialMT-53"/>
       <use xlink:href="#ArialMT-74" x="66.699219"/>
       <use xlink:href="#ArialMT-61" x="94.482422"/>
       <use xlink:href="#ArialMT-74" x="150.097656"/>
       <use xlink:href="#ArialMT-65" x="177.880859"/>
       <use xlink:href="#ArialMT-20" x="233.496094"/>
       <use xlink:href="#ArialMT-33" x="261.279297"/>
      </g>
     </g>
    </g>
    <g id="xtick_4">
     <g id="line2d_4">
      <g>
       <use xlink:href="#m0a4c0514e4" x="578.25" y="507.6" style="fill: #262626; stroke: #262626; stroke-width: 1.25"/>
      </g>
     </g>
     <g id="text_4">
      <!-- State 4 -->
      <g style="fill: #262626" transform="translate(560.821875 524.973594) scale(0.11 -0.11)">
       <defs>
        <path id="ArialMT-34" d="M 2069 0 
L 2069 1097 
L 81 1097 
L 81 1613 
L 2172 4581 
L 2631 4581 
L 2631 1613 
L 3250 1613 
L 3250 1097 
L 2631 1097 
L 2631 0 
L 2069 0 
z
M 2069 1613 
L 2069 3678 
L 634 1613 
L 2069 1613 
z
" transform="scale(0.015625)"/>
       </defs>
       <use xlink:href="#ArialMT-53"/>
       <use xlink:href="#ArialMT-74" x="66.699219"/>
       <use xlink:href="#ArialMT-61" x="94.482422"/>
       <use xlink:href="#ArialMT-74" x="150.097656"/>
       <use xlink:href="#ArialMT-65" x="177.880859"/>
       <use xlink:href="#ArialMT-20" x="233.496094"/>
       <use xlink:href="#ArialMT-34" x="261.279297"/>
      </g>
     </g>
    </g>
   </g>
   <g id="matplotlib.axis_2">
    <g id="ytick_1">
     <g id="line2d_5">
      <defs>
       <path id="mdaebd36fad" d="M 0 0 
L -6 0 
" style="stroke: #262626; stroke-width: 1.25"/>
      </defs>
      <g>
       <use xlink:href="#mdaebd36fad" x="90" y="469.8" style="fill: #262626; stroke: #262626; stroke-width: 1.25"/>
      </g>
     </g>
     <g id="text_5">
      <!-- −2 -->
      <g style="fill: #262626" transform="translate(67.958281 473.736797) scale(0.11 -0.11)">
       <defs>
        <path id="ArialMT-2212" d="M 3381 1997 
L 356 1997 
L 356 2522 
L 3381 2522 
L 3381 1997 
z
" transform="scale(0.015625)"/>
       </defs>
       <use xlink:href="#ArialMT-2212"/>
       <use xlink:href="#ArialMT-32" x="58.398438"/>
      </g>
     </g>
    </g>
    <g id="ytick_2">
     <g id="line2d_6">
      <g>
       <use xlink:href="#mdaebd36fad" x="90" y="394.2" style="fill: #262626; stroke: #262626; stroke-width: 1.25"/>
      </g>
     </g>
     <g id="text_6">
      <!-- −1 -->
      <g style="fill: #262626" transform="translate(67.958281 398.136797) scale(0.11 -0.11)">
       <use xlink:href="#ArialMT-2212"/>
       <use xlink:href="#ArialMT-31" x="58.398438"/>
      </g>
     </g>
    </g>
    <g id="ytick_3">
     <g id="line2d_7">
      <g>
       <use xlink:href="#mdaebd36fad" x="90" y="318.6" style="fill: #262626; stroke: #262626; stroke-width: 1.25"/>
      </g>
     </g>
     <g id="text_7">
      <!-- 0 -->
      <g style="fill: #262626" transform="translate(74.382969 322.536797) scale(0.11 -0.11)">
       <defs>
        <path id="ArialMT-30" d="M 266 2259 
Q 266 3072 433 3567 
Q 600 4063 929 4331 
Q 1259 4600 1759 4600 
Q 2128 4600 2406 4451 
Q 2684 4303 2865 4023 
Q 3047 3744 3150 3342 
Q 3253 2941 3253 2259 
Q 3253 1453 3087 958 
Q 2922 463 2592 192 
Q 2263 -78 1759 -78 
Q 1097 -78 719 397 
Q 266 969 266 2259 
z
M 844 2259 
Q 844 1131 1108 757 
Q 1372 384 1759 384 
Q 2147 384 2411 759 
Q 2675 1134 2675 2259 
Q 2675 3391 2411 3762 
Q 2147 4134 1753 4134 
Q 1366 4134 1134 3806 
Q 844 3388 844 2259 
z
" transform="scale(0.015625)"/>
       </defs>
       <use xlink:href="#ArialMT-30"/>
      </g>
     </g>
    </g>
    <g id="ytick_4">
     <g id="line2d_8">
      <g>
       <use xlink:href="#mdaebd36fad" x="90" y="243" style="fill: #262626; stroke: #262626; stroke-width: 1.25"/>
      </g>
     </g>
     <g id="text_8">
      <!-- 1 -->
      <g style="fill: #262626" transform="translate(74.382969 246.936797) scale(0.11 -0.11)">
       <use xlink:href="#ArialMT-31"/>
      </g>
     </g>
    </g>
    <g id="ytick_5">
     <g id="line2d_9">
      <g>
       <use xlink:href="#mdaebd36fad" x="90" y="167.4" style="fill: #262626; stroke: #262626; stroke-width: 1.25"/>
      </g>
     </g>
     <g id="text_9">
      <!-- 2 -->
      <g style="fill: #262626" transform="translate(74.382969 171.336797) scale(0.11 -0.11)">
       <use xlink:href="#ArialMT-32"/>
      </g>
     </g>
    </g>
    <g id="text_10">
     <!-- Value (z-scored) -->
     <g style="fill: #262626" transform="translate(61.432656 362.170313) rotate(-90) scale(0.12 -0.12)">
      <defs>
       <path id="ArialMT-56" d="M 1803 0 
L 28 4581 
L 684 4581 
L 1875 1253 
Q 2019 853 2116 503 
Q 2222 878 2363 1253 
L 3600 4581 
L 4219 4581 
L 2425 0 
L 1803 0 
z
" transform="scale(0.015625)"/>
       <path id="ArialMT-6c" d="M 409 0 
L 409 4581 
L 972 4581 
L 972 0 
L 409 0 
z
" transform="scale(0.015625)"/>
       <path id="ArialMT-75" d="M 2597 0 
L 2597 488 
Q 2209 -75 1544 -75 
Q 1250 -75 995 37 
Q 741 150 617 320 
Q 494 491 444 738 
Q 409 903 409 1263 
L 409 3319 
L 972 3319 
L 972 1478 
Q 972 1038 1006 884 
Q 1059 663 1231 536 
Q 1403 409 1656 409 
Q 1909 409 2131 539 
Q 2353 669 2445 892 
Q 2538 1116 2538 1541 
L 2538 3319 
L 3100 3319 
L 3100 0 
L 2597 0 
z
" transform="scale(0.015625)"/>
       <path id="ArialMT-28" d="M 1497 -1347 
Q 1031 -759 709 28 
Q 388 816 388 1659 
Q 388 2403 628 3084 
Q 909 3875 1497 4659 
L 1900 4659 
Q 1522 4009 1400 3731 
Q 1209 3300 1100 2831 
Q 966 2247 966 1656 
Q 966 153 1900 -1347 
L 1497 -1347 
z
" transform="scale(0.015625)"/>
       <path id="ArialMT-7a" d="M 125 0 
L 125 456 
L 2238 2881 
Q 1878 2863 1603 2863 
L 250 2863 
L 250 3319 
L 2963 3319 
L 2963 2947 
L 1166 841 
L 819 456 
Q 1197 484 1528 484 
L 3063 484 
L 3063 0 
L 125 0 
z
" transform="scale(0.015625)"/>
       <path id="ArialMT-2d" d="M 203 1375 
L 203 1941 
L 1931 1941 
L 1931 1375 
L 203 1375 
z
" transform="scale(0.015625)"/>
       <path id="ArialMT-73" d="M 197 991 
L 753 1078 
Q 800 744 1014 566 
Q 1228 388 1613 388 
Q 2000 388 2187 545 
Q 2375 703 2375 916 
Q 2375 1106 2209 1216 
Q 2094 1291 1634 1406 
Q 1016 1563 777 1677 
Q 538 1791 414 1992 
Q 291 2194 291 2438 
Q 291 2659 392 2848 
Q 494 3038 669 3163 
Q 800 3259 1026 3326 
Q 1253 3394 1513 3394 
Q 1903 3394 2198 3281 
Q 2494 3169 2634 2976 
Q 2775 2784 2828 2463 
L 2278 2388 
Q 2241 2644 2061 2787 
Q 1881 2931 1553 2931 
Q 1166 2931 1000 2803 
Q 834 2675 834 2503 
Q 834 2394 903 2306 
Q 972 2216 1119 2156 
Q 1203 2125 1616 2013 
Q 2213 1853 2448 1751 
Q 2684 1650 2818 1456 
Q 2953 1263 2953 975 
Q 2953 694 2789 445 
Q 2625 197 2315 61 
Q 2006 -75 1616 -75 
Q 969 -75 630 194 
Q 291 463 197 991 
z
" transform="scale(0.015625)"/>
       <path id="ArialMT-63" d="M 2588 1216 
L 3141 1144 
Q 3050 572 2676 248 
Q 2303 -75 1759 -75 
Q 1078 -75 664 370 
Q 250 816 250 1647 
Q 250 2184 428 2587 
Q 606 2991 970 3192 
Q 1334 3394 1763 3394 
Q 2303 3394 2647 3120 
Q 2991 2847 3088 2344 
L 2541 2259 
Q 2463 2594 2264 2762 
Q 2066 2931 1784 2931 
Q 1359 2931 1093 2626 
Q 828 2322 828 1663 
Q 828 994 1084 691 
Q 1341 388 1753 388 
Q 2084 388 2306 591 
Q 2528 794 2588 1216 
z
" transform="scale(0.015625)"/>
       <path id="ArialMT-6f" d="M 213 1659 
Q 213 2581 725 3025 
Q 1153 3394 1769 3394 
Q 2453 3394 2887 2945 
Q 3322 2497 3322 1706 
Q 3322 1066 3130 698 
Q 2938 331 2570 128 
Q 2203 -75 1769 -75 
Q 1072 -75 642 372 
Q 213 819 213 1659 
z
M 791 1659 
Q 791 1022 1069 705 
Q 1347 388 1769 388 
Q 2188 388 2466 706 
Q 2744 1025 2744 1678 
Q 2744 2294 2464 2611 
Q 2184 2928 1769 2928 
Q 1347 2928 1069 2612 
Q 791 2297 791 1659 
z
" transform="scale(0.015625)"/>
       <path id="ArialMT-72" d="M 416 0 
L 416 3319 
L 922 3319 
L 922 2816 
Q 1116 3169 1280 3281 
Q 1444 3394 1641 3394 
Q 1925 3394 2219 3213 
L 2025 2691 
Q 1819 2813 1613 2813 
Q 1428 2813 1281 2702 
Q 1134 2591 1072 2394 
Q 978 2094 978 1738 
L 978 0 
L 416 0 
z
" transform="scale(0.015625)"/>
       <path id="ArialMT-64" d="M 2575 0 
L 2575 419 
Q 2259 -75 1647 -75 
Q 1250 -75 917 144 
Q 584 363 401 755 
Q 219 1147 219 1656 
Q 219 2153 384 2558 
Q 550 2963 881 3178 
Q 1213 3394 1622 3394 
Q 1922 3394 2156 3267 
Q 2391 3141 2538 2938 
L 2538 4581 
L 3097 4581 
L 3097 0 
L 2575 0 
z
M 797 1656 
Q 797 1019 1065 703 
Q 1334 388 1700 388 
Q 2069 388 2326 689 
Q 2584 991 2584 1609 
Q 2584 2291 2321 2609 
Q 2059 2928 1675 2928 
Q 1300 2928 1048 2622 
Q 797 2316 797 1656 
z
" transform="scale(0.015625)"/>
       <path id="ArialMT-29" d="M 791 -1347 
L 388 -1347 
Q 1322 153 1322 1656 
Q 1322 2244 1188 2822 
Q 1081 3291 891 3722 
Q 769 4003 388 4659 
L 791 4659 
Q 1378 3875 1659 3084 
Q 1900 2403 1900 1659 
Q 1900 816 1576 28 
Q 1253 -759 791 -1347 
z
" transform="scale(0.015625)"/>
      </defs>
      <use xlink:href="#ArialMT-56"/>
      <use xlink:href="#ArialMT-61" x="59.324219"/>
      <use xlink:href="#ArialMT-6c" x="114.939453"/>
      <use xlink:href="#ArialMT-75" x="137.15625"/>
      <use xlink:href="#ArialMT-65" x="192.771484"/>
      <use xlink:href="#ArialMT-20" x="248.386719"/>
      <use xlink:href="#ArialMT-28" x="276.169922"/>
      <use xlink:href="#ArialMT-7a" x="309.470703"/>
      <use xlink:href="#ArialMT-2d" x="359.470703"/>
      <use xlink:href="#ArialMT-73" x="392.771484"/>
      <use xlink:href="#ArialMT-63" x="442.771484"/>
      <use xlink:href="#ArialMT-6f" x="492.771484"/>
      <use xlink:href="#ArialMT-72" x="548.386719"/>
      <use xlink:href="#ArialMT-65" x="581.6875"/>
      <use xlink:href="#ArialMT-64" x="637.302734"/>
      <use xlink:href="#ArialMT-29" x="692.917969"/>
     </g>
    </g>
   </g>
   <g id="PolyCollection_1">
    <defs>
     <path id="m193e9bb058" d="M 161.693183 -717.844758 
L 159.847657 -717.844758 
L 159.847657 -719.721985 
L 159.847657 -721.599213 
L 159.847657 -723.47644 
L 159.847657 -725.353668 
L 159.847657 -727.230895 
L 159.847657 -729.108123 
L 159.847657 -730.98535 
L 159.847657 -732.862577 
L 159.847657 -734.739805 
L 159.847657 -736.617032 
L 159.847657 -738.49426 
L 159.847657 -740.371487 
L 159.847657 -742.248715 
L 159.847657 -744.125942 
L 159.847657 -746.003169 
L 159.847657 -747.880397 
L 159.847657 -749.757624 
L 159.847657 -751.634852 
L 159.847657 -753.512079 
L 159.847657 -755.389306 
L 159.847657 -757.266534 
L 159.847657 -759.143761 
L 159.847657 -761.020989 
L 159.847657 -762.898216 
L 159.847657 -764.775444 
L 159.847657 -766.652671 
L 159.847657 -768.529898 
L 159.847657 -770.407126 
L 159.847657 -772.284353 
L 159.847657 -774.161581 
L 159.847657 -776.038808 
L 159.847657 -777.916036 
L 159.847657 -779.793263 
L 159.847657 -781.67049 
L 159.847657 -783.547718 
L 159.847657 -785.424945 
L 159.847657 -787.302173 
L 159.847657 -789.1794 
L 163.773862 -789.1794 
L 163.773862 -789.1794 
L 164.98142 -787.302173 
L 166.519221 -785.424945 
L 168.454611 -783.547718 
L 170.824176 -781.67049 
L 173.617668 -779.793263 
L 176.770803 -777.916036 
L 180.165156 -776.038808 
L 183.632257 -774.161581 
L 186.962599 -772.284353 
L 189.924067 -770.407126 
L 192.292816 -768.529898 
L 193.891934 -766.652671 
L 194.625 -764.775444 
L 194.49049 -762.898216 
L 193.571337 -761.020989 
L 192.006439 -759.143761 
L 189.958664 -757.266534 
L 187.592114 -755.389306 
L 185.062431 -753.512079 
L 182.514838 -751.634852 
L 180.080806 -749.757624 
L 177.867077 -747.880397 
L 175.937761 -746.003169 
L 174.29753 -744.125942 
L 172.887499 -742.248715 
L 171.602311 -740.371487 
L 170.327279 -738.49426 
L 168.982759 -736.617032 
L 167.556642 -734.739805 
L 166.109848 -732.862577 
L 164.752372 -730.98535 
L 163.601185 -729.108123 
L 162.738292 -727.230895 
L 162.184754 -725.353668 
L 161.897743 -723.47644 
L 161.788228 -721.599213 
L 161.750588 -719.721985 
L 161.693183 -717.844758 
z
" style="stroke: #d55e00; stroke-opacity: 0.3"/>
    </defs>
    <g clip-path="url(#p8c15a5cf41)">
     <use xlink:href="#m193e9bb058" x="0" y="1080" style="fill: #d55e00; fill-opacity: 0.3; stroke: #d55e00; stroke-opacity: 0.3"/>
    </g>
   </g>
   <g id="PolyCollection_2">
    <defs>
     <path id="m5f221c09b8" d="M 301.772813 -680.090379 
L 299.390782 -680.090379 
L 299.390782 -683.82755 
L 299.390782 -687.564721 
L 299.390782 -691.301892 
L 299.390782 -695.039063 
L 299.390782 -698.776234 
L 299.390782 -702.513404 
L 299.390782 -706.250575 
L 299.390782 -709.987746 
L 299.390782 -713.724917 
L 299.390782 -717.462088 
L 299.390782 -721.199259 
L 299.390782 -724.93643 
L 299.390782 -728.673601 
L 299.390782 -732.410772 
L 299.390782 -736.147943 
L 299.390782 -739.885114 
L 299.390782 -743.622285 
L 299.390782 -747.359456 
L 299.390782 -751.096627 
L 299.390782 -754.833798 
L 299.390782 -758.570968 
L 299.390782 -762.308139 
L 299.390782 -766.04531 
L 299.390782 -769.782481 
L 299.390782 -773.519652 
L 299.390782 -777.256823 
L 299.390782 -780.993994 
L 299.390782 -784.731165 
L 299.390782 -788.468336 
L 299.390782 -792.205507 
L 299.390782 -795.942678 
L 299.390782 -799.679849 
L 299.390782 -803.41702 
L 299.390782 -807.154191 
L 299.390782 -810.891361 
L 299.390782 -814.628532 
L 299.390782 -818.365703 
L 299.390782 -822.102874 
L 305.607737 -822.102874 
L 305.607737 -822.102874 
L 307.167145 -818.365703 
L 308.87503 -814.628532 
L 310.711343 -810.891361 
L 312.661667 -807.154191 
L 314.725997 -803.41702 
L 316.924294 -799.679849 
L 319.290055 -795.942678 
L 321.845884 -792.205507 
L 324.564852 -788.468336 
L 327.333869 -784.731165 
L 329.94198 -780.993994 
L 332.110679 -777.256823 
L 333.565332 -773.519652 
L 334.125 -769.782481 
L 333.774438 -766.04531 
L 332.684881 -762.308139 
L 331.169049 -758.570968 
L 329.582269 -754.833798 
L 328.204338 -751.096627 
L 327.14631 -747.359456 
L 326.318778 -743.622285 
L 325.475439 -739.885114 
L 324.316033 -736.147943 
L 322.608166 -732.410772 
L 320.279493 -728.673601 
L 317.445224 -724.93643 
L 314.364852 -721.199259 
L 311.352389 -717.462088 
L 308.680902 -713.724917 
L 306.518094 -709.987746 
L 304.909564 -706.250575 
L 303.802888 -702.513404 
L 303.091056 -698.776234 
L 302.653069 -695.039063 
L 302.379329 -691.301892 
L 302.18152 -687.564721 
L 301.993875 -683.82755 
L 301.772813 -680.090379 
z
" style="stroke: #0072b2; stroke-opacity: 0.3"/>
    </defs>
    <g clip-path="url(#p8c15a5cf41)">
     <use xlink:href="#m5f221c09b8" x="0" y="1080" style="fill: #0072b2; fill-opacity: 0.3; stroke: #0072b2; stroke-opacity: 0.3"/>
    </g>
   </g>
   <g id="PolyCollection_3">
    <defs>
     <path id="m60879b33fe" d="M 441.88277 -704.373959 
L 438.902499 -704.373959 
L 438.902499 -705.788031 
L 438.902499 -707.202104 
L 438.902499 -708.616176 
L 438.902499 -710.030248 
L 438.902499 -711.44432 
L 438.902499 -712.858392 
L 438.902499 -714.272465 
L 438.902499 -715.686537 
L 438.902499 -717.100609 
L 438.902499 -718.514681 
L 438.902499 -719.928753 
L 438.902499 -721.342826 
L 438.902499 -722.756898 
L 438.902499 -724.17097 
L 438.902499 -725.585042 
L 438.902499 -726.999115 
L 438.902499 -728.413187 
L 438.902499 -729.827259 
L 438.902499 -731.241331 
L 438.902499 -732.655403 
L 438.902499 -734.069476 
L 438.902499 -735.483548 
L 438.902499 -736.89762 
L 438.902499 -738.311692 
L 438.902499 -739.725764 
L 438.902499 -741.139837 
L 438.902499 -742.553909 
L 438.902499 -743.967981 
L 438.902499 -745.382053 
L 438.902499 -746.796126 
L 438.902499 -748.210198 
L 438.902499 -749.62427 
L 438.902499 -751.038342 
L 438.902499 -752.452414 
L 438.902499 -753.866487 
L 438.902499 -755.280559 
L 438.902499 -756.694631 
L 438.902499 -758.108703 
L 444.836862 -758.108703 
L 444.836862 -758.108703 
L 447.062733 -756.694631 
L 449.915634 -755.280559 
L 453.389786 -753.866487 
L 457.361082 -752.452414 
L 461.5735 -751.038342 
L 465.66257 -749.62427 
L 469.216902 -748.210198 
L 471.86398 -746.796126 
L 473.355396 -745.382053 
L 473.625 -743.967981 
L 472.801967 -742.553909 
L 471.175888 -741.139837 
L 469.125928 -739.725764 
L 467.03536 -738.311692 
L 465.214167 -736.89762 
L 463.847189 -735.483548 
L 462.976535 -734.069476 
L 462.517696 -732.655403 
L 462.300815 -731.241331 
L 462.123611 -729.827259 
L 461.80133 -728.413187 
L 461.202327 -726.999115 
L 460.264072 -725.585042 
L 458.991049 -724.17097 
L 457.440411 -722.756898 
L 455.702226 -721.342826 
L 453.879502 -719.928753 
L 452.070924 -718.514681 
L 450.357835 -717.100609 
L 448.796516 -715.686537 
L 447.416328 -714.272465 
L 446.223054 -712.858392 
L 445.205367 -711.44432 
L 444.341648 -710.030248 
L 443.605211 -708.616176 
L 442.967654 -707.202104 
L 442.40143 -705.788031 
L 441.88277 -704.373959 
z
" style="stroke: #009e73; stroke-opacity: 0.3"/>
    </defs>
    <g clip-path="url(#p8c15a5cf41)">
     <use xlink:href="#m60879b33fe" x="0" y="1080" style="fill: #009e73; fill-opacity: 0.3; stroke: #009e73; stroke-opacity: 0.3"/>
    </g>
   </g>
   <g id="PolyCollection_4">
    <defs>
     <path id="me4322e880b" d="M 580.376755 -754.564917 
L 578.527824 -754.564917 
L 578.527824 -756.102032 
L 578.527824 -757.639147 
L 578.527824 -759.176262 
L 578.527824 -760.713377 
L 578.527824 -762.250492 
L 578.527824 -763.787607 
L 578.527824 -765.324722 
L 578.527824 -766.861837 
L 578.527824 -768.398952 
L 578.527824 -769.936067 
L 578.527824 -771.473182 
L 578.527824 -773.010297 
L 578.527824 -774.547413 
L 578.527824 -776.084528 
L 578.527824 -777.621643 
L 578.527824 -779.158758 
L 578.527824 -780.695873 
L 578.527824 -782.232988 
L 578.527824 -783.770103 
L 578.527824 -785.307218 
L 578.527824 -786.844333 
L 578.527824 -788.381448 
L 578.527824 -789.918563 
L 578.527824 -791.455678 
L 578.527824 -792.992793 
L 578.527824 -794.529908 
L 578.527824 -796.067023 
L 578.527824 -797.604139 
L 578.527824 -799.141254 
L 578.527824 -800.678369 
L 578.527824 -802.215484 
L 578.527824 -803.752599 
L 578.527824 -805.289714 
L 578.527824 -806.826829 
L 578.527824 -808.363944 
L 578.527824 -809.901059 
L 578.527824 -811.438174 
L 578.527824 -812.975289 
L 596.500228 -812.975289 
L 596.500228 -812.975289 
L 599.995026 -811.438174 
L 603.306031 -809.901059 
L 606.262755 -808.363944 
L 608.735843 -806.826829 
L 610.648948 -805.289714 
L 611.983935 -803.752599 
L 612.779495 -802.215484 
L 613.121725 -800.678369 
L 613.125 -799.141254 
L 612.904277 -797.604139 
L 612.544766 -796.067023 
L 612.078513 -794.529908 
L 611.476858 -792.992793 
L 610.662561 -791.455678 
L 609.538126 -789.918563 
L 608.021168 -788.381448 
L 606.07592 -786.844333 
L 603.732048 -785.307218 
L 601.086152 -783.770103 
L 598.285975 -782.232988 
L 595.501541 -780.695873 
L 592.890737 -779.158758 
L 590.568701 -777.621643 
L 588.589705 -776.084528 
L 586.946614 -774.547413 
L 585.587265 -773.010297 
L 584.441225 -771.473182 
L 583.447058 -769.936067 
L 582.570735 -768.398952 
L 581.810005 -766.861837 
L 581.185211 -765.324722 
L 580.721859 -763.787607 
L 580.432405 -762.250492 
L 580.303981 -760.713377 
L 580.295968 -759.176262 
L 580.347656 -757.639147 
L 580.392928 -756.102032 
L 580.376755 -754.564917 
z
" style="stroke: #cc79a7; stroke-opacity: 0.3"/>
    </defs>
    <g clip-path="url(#p8c15a5cf41)">
     <use xlink:href="#me4322e880b" x="0" y="1080" style="fill: #cc79a7; fill-opacity: 0.3; stroke: #cc79a7; stroke-opacity: 0.3"/>
    </g>
   </g>
   <g id="PathCollection_1">
    <defs>
     <path id="ma77a9ae69f" d="M 0 0.866025 
C 0.229673 0.866025 0.449969 0.774776 0.612372 0.612372 
C 0.774776 0.449969 0.866025 0.229673 0.866025 0 
C 0.866025 -0.229673 0.774776 -0.449969 0.612372 -0.612372 
C 0.449969 -0.774776 0.229673 -0.866025 0 -0.866025 
C -0.229673 -0.866025 -0.449969 -0.774776 -0.612372 -0.612372 
C -0.774776 -0.449969 -0.866025 -0.229673 -0.866025 0 
C -0.866025 0.229673 -0.774776 0.449969 -0.612372 0.612372 
C -0.449969 0.774776 -0.229673 0.866025 0 0.866025 
z
" style="stroke: #d55e00"/>
    </defs>
    <g clip-path="url(#p8c15a5cf41)">
     <use xlink:href="#ma77a9ae69f" x="127.560276" y="327.676824" style="fill: #d55e00; stroke: #d55e00"/>
     <use xlink:href="#ma77a9ae69f" x="131.513198" y="299.625827" style="fill: #d55e00; stroke: #d55e00"/>
     <use xlink:href="#ma77a9ae69f" x="134.927337" y="341.29085" style="fill: #d55e00; stroke: #d55e00"/>
     <use xlink:href="#ma77a9ae69f" x="135.411901" y="328.371302" style="fill: #d55e00; stroke: #d55e00"/>
     <use xlink:href="#ma77a9ae69f" x="127.764094" y="320.571058" style="fill: #d55e00; stroke: #d55e00"/>
     <use xlink:href="#ma77a9ae69f" x="136.916271" y="306.271088" style="fill: #d55e00; stroke: #d55e00"/>
     <use xlink:href="#ma77a9ae69f" x="130.149842" y="318.100425" style="fill: #d55e00; stroke: #d55e00"/>
     <use xlink:href="#ma77a9ae69f" x="134.825721" y="344.779793" style="fill: #d55e00; stroke: #d55e00"/>
     <use xlink:href="#ma77a9ae69f" x="129.825347" y="327.434783" style="fill: #d55e00; stroke: #d55e00"/>
     <use xlink:href="#ma77a9ae69f" x="131.826663" y="323.697479" style="fill: #d55e00; stroke: #d55e00"/>
     <use xlink:href="#ma77a9ae69f" x="126.264075" y="312.629552" style="fill: #d55e00; stroke: #d55e00"/>
     <use xlink:href="#ma77a9ae69f" x="130.629726" y="332.070628" style="fill: #d55e00; stroke: #d55e00"/>
     <use xlink:href="#ma77a9ae69f" x="132.658112" y="315.61336" style="fill: #d55e00; stroke: #d55e00"/>
     <use xlink:href="#ma77a9ae69f" x="128.479137" y="334.517184" style="fill: #d55e00; stroke: #d55e00"/>
     <use xlink:href="#ma77a9ae69f" x="135.609278" y="312.376157" style="fill: #d55e00; stroke: #d55e00"/>
     <use xlink:href="#ma77a9ae69f" x="125.783635" y="319.996436" style="fill: #d55e00; stroke: #d55e00"/>
     <use xlink:href="#ma77a9ae69f" x="131.979318" y="317.918378" style="fill: #d55e00; stroke: #d55e00"/>
     <use xlink:href="#ma77a9ae69f" x="136.065485" y="321.195489" style="fill: #d55e00; stroke: #d55e00"/>
     <use xlink:href="#ma77a9ae69f" x="136.634383" y="313.852267" style="fill: #d55e00; stroke: #d55e00"/>
     <use xlink:href="#ma77a9ae69f" x="134.848403" y="332.012671" style="fill: #d55e00; stroke: #d55e00"/>
     <use xlink:href="#ma77a9ae69f" x="137.576298" y="313.830227" style="fill: #d55e00; stroke: #d55e00"/>
     <use xlink:href="#ma77a9ae69f" x="137.39248" y="310.224606" style="fill: #d55e00; stroke: #d55e00"/>
     <use xlink:href="#ma77a9ae69f" x="135.719946" y="322.916503" style="fill: #d55e00; stroke: #d55e00"/>
     <use xlink:href="#ma77a9ae69f" x="136.626793" y="310.231474" style="fill: #d55e00; stroke: #d55e00"/>
     <use xlink:href="#ma77a9ae69f" x="135.621341" y="303.887808" style="fill: #d55e00; stroke: #d55e00"/>
     <use xlink:href="#ma77a9ae69f" x="133.107089" y="301.562146" style="fill: #d55e00; stroke: #d55e00"/>
     <use xlink:href="#ma77a9ae69f" x="128.871494" y="306.882496" style="fill: #d55e00; stroke: #d55e00"/>
     <use xlink:href="#ma77a9ae69f" x="133.398766" y="341.713062" style="fill: #d55e00; stroke: #d55e00"/>
     <use xlink:href="#ma77a9ae69f" x="137.390798" y="323.91486" style="fill: #d55e00; stroke: #d55e00"/>
     <use xlink:href="#ma77a9ae69f" x="133.080029" y="290.8206" style="fill: #d55e00; stroke: #d55e00"/>
     <use xlink:href="#ma77a9ae69f" x="127.175142" y="304.96339" style="fill: #d55e00; stroke: #d55e00"/>
     <use xlink:href="#ma77a9ae69f" x="128.99364" y="340.610239" style="fill: #d55e00; stroke: #d55e00"/>
     <use xlink:href="#ma77a9ae69f" x="125.589032" y="313.751368" style="fill: #d55e00; stroke: #d55e00"/>
     <use xlink:href="#ma77a9ae69f" x="135.711519" y="314.717259" style="fill: #d55e00; stroke: #d55e00"/>
     <use xlink:href="#ma77a9ae69f" x="134.077836" y="313.003999" style="fill: #d55e00; stroke: #d55e00"/>
     <use xlink:href="#ma77a9ae69f" x="132.004792" y="317.922131" style="fill: #d55e00; stroke: #d55e00"/>
     <use xlink:href="#ma77a9ae69f" x="131.52141" y="309.956523" style="fill: #d55e00; stroke: #d55e00"/>
     <use xlink:href="#ma77a9ae69f" x="132.640561" y="324.131355" style="fill: #d55e00; stroke: #d55e00"/>
     <use xlink:href="#ma77a9ae69f" x="135.180595" y="362.155242" style="fill: #d55e00; stroke: #d55e00"/>
    </g>
   </g>
   <g id="PathCollection_2">
    <defs>
     <path id="mf4bd4b5842" d="M 0 0.866025 
C 0.229673 0.866025 0.449969 0.774776 0.612372 0.612372 
C 0.774776 0.449969 0.866025 0.229673 0.866025 0 
C 0.866025 -0.229673 0.774776 -0.449969 0.612372 -0.612372 
C 0.449969 -0.774776 0.229673 -0.866025 0 -0.866025 
C -0.229673 -0.866025 -0.449969 -0.774776 -0.612372 -0.612372 
C -0.774776 -0.449969 -0.866025 -0.229673 -0.866025 0 
C -0.866025 0.229673 -0.774776 0.449969 -0.612372 0.612372 
C -0.449969 0.774776 -0.229673 0.866025 0 0.866025 
z
" style="stroke: #0072b2"/>
    </defs>
    <g clip-path="url(#p8c15a5cf41)">
     <use xlink:href="#mf4bd4b5842" x="273.265671" y="285.207679" style="fill: #0072b2; stroke: #0072b2"/>
     <use xlink:href="#mf4bd4b5842" x="266.111208" y="344.321058" style="fill: #0072b2; stroke: #0072b2"/>
     <use xlink:href="#mf4bd4b5842" x="270.991603" y="314.88778" style="fill: #0072b2; stroke: #0072b2"/>
     <use xlink:href="#mf4bd4b5842" x="278.155825" y="286.466383" style="fill: #0072b2; stroke: #0072b2"/>
     <use xlink:href="#mf4bd4b5842" x="264.663651" y="292.660448" style="fill: #0072b2; stroke: #0072b2"/>
     <use xlink:href="#mf4bd4b5842" x="266.41017" y="322.494922" style="fill: #0072b2; stroke: #0072b2"/>
     <use xlink:href="#mf4bd4b5842" x="265.112577" y="310.792966" style="fill: #0072b2; stroke: #0072b2"/>
     <use xlink:href="#mf4bd4b5842" x="269.114334" y="347.791927" style="fill: #0072b2; stroke: #0072b2"/>
     <use xlink:href="#mf4bd4b5842" x="275.103509" y="257.897126" style="fill: #0072b2; stroke: #0072b2"/>
     <use xlink:href="#mf4bd4b5842" x="272.359621" y="344.845809" style="fill: #0072b2; stroke: #0072b2"/>
     <use xlink:href="#mf4bd4b5842" x="278.180689" y="281.620167" style="fill: #0072b2; stroke: #0072b2"/>
     <use xlink:href="#mf4bd4b5842" x="264.89804" y="280.016479" style="fill: #0072b2; stroke: #0072b2"/>
     <use xlink:href="#mf4bd4b5842" x="267.887161" y="297.517208" style="fill: #0072b2; stroke: #0072b2"/>
     <use xlink:href="#mf4bd4b5842" x="274.023342" y="267.3396" style="fill: #0072b2; stroke: #0072b2"/>
     <use xlink:href="#mf4bd4b5842" x="272.972953" y="304.522848" style="fill: #0072b2; stroke: #0072b2"/>
     <use xlink:href="#mf4bd4b5842" x="273.525778" y="305.800264" style="fill: #0072b2; stroke: #0072b2"/>
     <use xlink:href="#mf4bd4b5842" x="268.929719" y="319.53519" style="fill: #0072b2; stroke: #0072b2"/>
     <use xlink:href="#mf4bd4b5842" x="268.131275" y="316.308669" style="fill: #0072b2; stroke: #0072b2"/>
     <use xlink:href="#mf4bd4b5842" x="274.824527" y="376.738402" style="fill: #0072b2; stroke: #0072b2"/>
     <use xlink:href="#mf4bd4b5842" x="276.115765" y="327.611947" style="fill: #0072b2; stroke: #0072b2"/>
     <use xlink:href="#mf4bd4b5842" x="277.112851" y="399.909621" style="fill: #0072b2; stroke: #0072b2"/>
     <use xlink:href="#mf4bd4b5842" x="266.135269" y="347.419924" style="fill: #0072b2; stroke: #0072b2"/>
     <use xlink:href="#mf4bd4b5842" x="277.238752" y="316.520389" style="fill: #0072b2; stroke: #0072b2"/>
     <use xlink:href="#mf4bd4b5842" x="275.059417" y="305.029512" style="fill: #0072b2; stroke: #0072b2"/>
     <use xlink:href="#mf4bd4b5842" x="265.294223" y="346.159354" style="fill: #0072b2; stroke: #0072b2"/>
     <use xlink:href="#mf4bd4b5842" x="275.877654" y="339.086627" style="fill: #0072b2; stroke: #0072b2"/>
     <use xlink:href="#mf4bd4b5842" x="275.792288" y="301.893112" style="fill: #0072b2; stroke: #0072b2"/>
     <use xlink:href="#mf4bd4b5842" x="276.620972" y="275.733924" style="fill: #0072b2; stroke: #0072b2"/>
     <use xlink:href="#mf4bd4b5842" x="275.534817" y="310.24905" style="fill: #0072b2; stroke: #0072b2"/>
     <use xlink:href="#mf4bd4b5842" x="277.308581" y="307.188262" style="fill: #0072b2; stroke: #0072b2"/>
     <use xlink:href="#mf4bd4b5842" x="273.145515" y="342.146214" style="fill: #0072b2; stroke: #0072b2"/>
     <use xlink:href="#mf4bd4b5842" x="275.808679" y="308.639797" style="fill: #0072b2; stroke: #0072b2"/>
     <use xlink:href="#mf4bd4b5842" x="266.552596" y="306.902827" style="fill: #0072b2; stroke: #0072b2"/>
     <use xlink:href="#mf4bd4b5842" x="268.748834" y="335.052961" style="fill: #0072b2; stroke: #0072b2"/>
     <use xlink:href="#mf4bd4b5842" x="275.479229" y="308.185755" style="fill: #0072b2; stroke: #0072b2"/>
     <use xlink:href="#mf4bd4b5842" x="278.173447" y="348.832339" style="fill: #0072b2; stroke: #0072b2"/>
     <use xlink:href="#mf4bd4b5842" x="272.640308" y="348.231414" style="fill: #0072b2; stroke: #0072b2"/>
     <use xlink:href="#mf4bd4b5842" x="277.937628" y="321.695562" style="fill: #0072b2; stroke: #0072b2"/>
     <use xlink:href="#mf4bd4b5842" x="274.763603" y="352.121185" style="fill: #0072b2; stroke: #0072b2"/>
    </g>
   </g>
   <g id="PathCollection_3">
    <defs>
     <path id="ma9fb97f38a" d="M 0 0.866025 
C 0.229673 0.866025 0.449969 0.774776 0.612372 0.612372 
C 0.774776 0.449969 0.866025 0.229673 0.866025 0 
C 0.866025 -0.229673 0.774776 -0.449969 0.612372 -0.612372 
C 0.449969 -0.774776 0.229673 -0.866025 0 -0.866025 
C -0.229673 -0.866025 -0.449969 -0.774776 -0.612372 -0.612372 
C -0.774776 -0.449969 -0.866025 -0.229673 -0.866025 0 
C -0.866025 0.229673 -0.774776 0.449969 -0.612372 0.612372 
C -0.449969 0.774776 -0.229673 0.866025 0 0.866025 
z
" style="stroke: #009e73"/>
    </defs>
    <g clip-path="url(#p8c15a5cf41)">
     <use xlink:href="#ma9fb97f38a" x="404.153605" y="350.924459" style="fill: #009e73; stroke: #009e73"/>
     <use xlink:href="#ma9fb97f38a" x="408.164664" y="334.39033" style="fill: #009e73; stroke: #009e73"/>
     <use xlink:href="#ma9fb97f38a" x="416.577632" y="350.406465" style="fill: #009e73; stroke: #009e73"/>
     <use xlink:href="#ma9fb97f38a" x="408.324942" y="336.67245" style="fill: #009e73; stroke: #009e73"/>
     <use xlink:href="#ma9fb97f38a" x="414.348742" y="350.1026" style="fill: #009e73; stroke: #009e73"/>
     <use xlink:href="#ma9fb97f38a" x="409.600317" y="340.472096" style="fill: #009e73; stroke: #009e73"/>
     <use xlink:href="#ma9fb97f38a" x="412.827872" y="349.36739" style="fill: #009e73; stroke: #009e73"/>
     <use xlink:href="#ma9fb97f38a" x="407.108518" y="365.613296" style="fill: #009e73; stroke: #009e73"/>
     <use xlink:href="#ma9fb97f38a" x="404.856445" y="353.404979" style="fill: #009e73; stroke: #009e73"/>
     <use xlink:href="#ma9fb97f38a" x="408.123731" y="338.007143" style="fill: #009e73; stroke: #009e73"/>
     <use xlink:href="#ma9fb97f38a" x="412.981511" y="333.030921" style="fill: #009e73; stroke: #009e73"/>
     <use xlink:href="#ma9fb97f38a" x="417.754004" y="347.463309" style="fill: #009e73; stroke: #009e73"/>
     <use xlink:href="#ma9fb97f38a" x="410.932813" y="367.525593" style="fill: #009e73; stroke: #009e73"/>
     <use xlink:href="#ma9fb97f38a" x="409.858648" y="346.481794" style="fill: #009e73; stroke: #009e73"/>
     <use xlink:href="#ma9fb97f38a" x="415.256566" y="350.724589" style="fill: #009e73; stroke: #009e73"/>
     <use xlink:href="#ma9fb97f38a" x="412.74078" y="335.669788" style="fill: #009e73; stroke: #009e73"/>
     <use xlink:href="#ma9fb97f38a" x="409.66915" y="339.268235" style="fill: #009e73; stroke: #009e73"/>
     <use xlink:href="#ma9fb97f38a" x="415.539553" y="333.908827" style="fill: #009e73; stroke: #009e73"/>
     <use xlink:href="#ma9fb97f38a" x="416.021504" y="333.421169" style="fill: #009e73; stroke: #009e73"/>
     <use xlink:href="#ma9fb97f38a" x="404.335653" y="332.860125" style="fill: #009e73; stroke: #009e73"/>
     <use xlink:href="#ma9fb97f38a" x="416.76111" y="375.626041" style="fill: #009e73; stroke: #009e73"/>
     <use xlink:href="#ma9fb97f38a" x="412.021712" y="332.901485" style="fill: #009e73; stroke: #009e73"/>
     <use xlink:href="#ma9fb97f38a" x="409.390755" y="358.952789" style="fill: #009e73; stroke: #009e73"/>
     <use xlink:href="#ma9fb97f38a" x="407.253003" y="333.298031" style="fill: #009e73; stroke: #009e73"/>
     <use xlink:href="#ma9fb97f38a" x="414.721772" y="357.897977" style="fill: #009e73; stroke: #009e73"/>
     <use xlink:href="#ma9fb97f38a" x="412.277141" y="357.449751" style="fill: #009e73; stroke: #009e73"/>
     <use xlink:href="#ma9fb97f38a" x="416.425414" y="342.317511" style="fill: #009e73; stroke: #009e73"/>
     <use xlink:href="#ma9fb97f38a" x="415.377867" y="359.553925" style="fill: #009e73; stroke: #009e73"/>
     <use xlink:href="#ma9fb97f38a" x="408.88039" y="336.179404" style="fill: #009e73; stroke: #009e73"/>
     <use xlink:href="#ma9fb97f38a" x="414.630716" y="321.891297" style="fill: #009e73; stroke: #009e73"/>
     <use xlink:href="#ma9fb97f38a" x="407.972574" y="330.529771" style="fill: #009e73; stroke: #009e73"/>
     <use xlink:href="#ma9fb97f38a" x="412.630734" y="330.81581" style="fill: #009e73; stroke: #009e73"/>
     <use xlink:href="#ma9fb97f38a" x="408.50119" y="342.193037" style="fill: #009e73; stroke: #009e73"/>
     <use xlink:href="#ma9fb97f38a" x="415.415111" y="335.072848" style="fill: #009e73; stroke: #009e73"/>
     <use xlink:href="#ma9fb97f38a" x="405.648327" y="355.597279" style="fill: #009e73; stroke: #009e73"/>
     <use xlink:href="#ma9fb97f38a" x="408.428552" y="333.10885" style="fill: #009e73; stroke: #009e73"/>
     <use xlink:href="#ma9fb97f38a" x="408.55336" y="352.758375" style="fill: #009e73; stroke: #009e73"/>
     <use xlink:href="#ma9fb97f38a" x="411.309345" y="339.056302" style="fill: #009e73; stroke: #009e73"/>
     <use xlink:href="#ma9fb97f38a" x="417.054602" y="333.36223" style="fill: #009e73; stroke: #009e73"/>
    </g>
   </g>
   <g id="PathCollection_4">
    <defs>
     <path id="me7e6866297" d="M 0 0.866025 
C 0.229673 0.866025 0.449969 0.774776 0.612372 0.612372 
C 0.774776 0.449969 0.866025 0.229673 0.866025 0 
C 0.866025 -0.229673 0.774776 -0.449969 0.612372 -0.612372 
C 0.449969 -0.774776 0.229673 -0.866025 0 -0.866025 
C -0.229673 -0.866025 -0.449969 -0.774776 -0.612372 -0.612372 
C -0.774776 -0.449969 -0.866025 -0.229673 -0.866025 0 
C -0.866025 0.229673 -0.774776 0.449969 -0.612372 0.612372 
C -0.449969 0.774776 -0.229673 0.866025 0 0.866025 
z
" style="stroke: #cc79a7"/>
    </defs>
    <g clip-path="url(#p8c15a5cf41)">
     <use xlink:href="#me7e6866297" x="550.964671" y="282.500607" style="fill: #cc79a7; stroke: #cc79a7"/>
     <use xlink:href="#me7e6866297" x="547.175649" y="295.952281" style="fill: #cc79a7; stroke: #cc79a7"/>
     <use xlink:href="#me7e6866297" x="554.690163" y="275.159017" style="fill: #cc79a7; stroke: #cc79a7"/>
     <use xlink:href="#me7e6866297" x="551.661841" y="291.850091" style="fill: #cc79a7; stroke: #cc79a7"/>
     <use xlink:href="#me7e6866297" x="545.767158" y="291.715591" style="fill: #cc79a7; stroke: #cc79a7"/>
     <use xlink:href="#me7e6866297" x="556.618264" y="300.61267" style="fill: #cc79a7; stroke: #cc79a7"/>
     <use xlink:href="#me7e6866297" x="547.342185" y="278.602588" style="fill: #cc79a7; stroke: #cc79a7"/>
     <use xlink:href="#me7e6866297" x="557.288655" y="267.065281" style="fill: #cc79a7; stroke: #cc79a7"/>
     <use xlink:href="#me7e6866297" x="545.117425" y="276.612644" style="fill: #cc79a7; stroke: #cc79a7"/>
     <use xlink:href="#me7e6866297" x="556.308962" y="279.899197" style="fill: #cc79a7; stroke: #cc79a7"/>
     <use xlink:href="#me7e6866297" x="552.144408" y="267.024711" style="fill: #cc79a7; stroke: #cc79a7"/>
     <use xlink:href="#me7e6866297" x="547.58305" y="283.106403" style="fill: #cc79a7; stroke: #cc79a7"/>
     <use xlink:href="#me7e6866297" x="553.891032" y="270.755596" style="fill: #cc79a7; stroke: #cc79a7"/>
     <use xlink:href="#me7e6866297" x="551.165676" y="278.430051" style="fill: #cc79a7; stroke: #cc79a7"/>
     <use xlink:href="#me7e6866297" x="545.649978" y="279.507336" style="fill: #cc79a7; stroke: #cc79a7"/>
     <use xlink:href="#me7e6866297" x="548.719389" y="288.699852" style="fill: #cc79a7; stroke: #cc79a7"/>
     <use xlink:href="#me7e6866297" x="545.28486" y="289.289955" style="fill: #cc79a7; stroke: #cc79a7"/>
     <use xlink:href="#me7e6866297" x="551.416173" y="296.52979" style="fill: #cc79a7; stroke: #cc79a7"/>
     <use xlink:href="#me7e6866297" x="549.310439" y="288.210973" style="fill: #cc79a7; stroke: #cc79a7"/>
     <use xlink:href="#me7e6866297" x="550.343328" y="293.721403" style="fill: #cc79a7; stroke: #cc79a7"/>
     <use xlink:href="#me7e6866297" x="546.150114" y="272.79082" style="fill: #cc79a7; stroke: #cc79a7"/>
     <use xlink:href="#me7e6866297" x="548.253115" y="292.76319" style="fill: #cc79a7; stroke: #cc79a7"/>
     <use xlink:href="#me7e6866297" x="547.559497" y="271.539652" style="fill: #cc79a7; stroke: #cc79a7"/>
     <use xlink:href="#me7e6866297" x="545.268084" y="306.414157" style="fill: #cc79a7; stroke: #cc79a7"/>
     <use xlink:href="#me7e6866297" x="547.64339" y="276.016568" style="fill: #cc79a7; stroke: #cc79a7"/>
     <use xlink:href="#me7e6866297" x="555.942082" y="275.336122" style="fill: #cc79a7; stroke: #cc79a7"/>
     <use xlink:href="#me7e6866297" x="543.631378" y="293.812412" style="fill: #cc79a7; stroke: #cc79a7"/>
     <use xlink:href="#me7e6866297" x="544.499266" y="270.734248" style="fill: #cc79a7; stroke: #cc79a7"/>
     <use xlink:href="#me7e6866297" x="548.533663" y="268.221205" style="fill: #cc79a7; stroke: #cc79a7"/>
     <use xlink:href="#me7e6866297" x="548.855246" y="325.435083" style="fill: #cc79a7; stroke: #cc79a7"/>
     <use xlink:href="#me7e6866297" x="553.152897" y="309.720603" style="fill: #cc79a7; stroke: #cc79a7"/>
     <use xlink:href="#me7e6866297" x="555.117173" y="286.724784" style="fill: #cc79a7; stroke: #cc79a7"/>
     <use xlink:href="#me7e6866297" x="548.814808" y="287.689056" style="fill: #cc79a7; stroke: #cc79a7"/>
     <use xlink:href="#me7e6866297" x="545.551049" y="286.425391" style="fill: #cc79a7; stroke: #cc79a7"/>
     <use xlink:href="#me7e6866297" x="546.339921" y="272.855802" style="fill: #cc79a7; stroke: #cc79a7"/>
     <use xlink:href="#me7e6866297" x="555.175005" y="297.613119" style="fill: #cc79a7; stroke: #cc79a7"/>
     <use xlink:href="#me7e6866297" x="551.181746" y="285.812836" style="fill: #cc79a7; stroke: #cc79a7"/>
     <use xlink:href="#me7e6866297" x="544.046927" y="280.964471" style="fill: #cc79a7; stroke: #cc79a7"/>
     <use xlink:href="#me7e6866297" x="549.318819" y="279.289013" style="fill: #cc79a7; stroke: #cc79a7"/>
    </g>
   </g>
   <g id="patch_3">
    <path d="M 149.2875 327.555803 
L 170.2125 327.555803 
L 170.2125 311.303815 
L 149.2875 311.303815 
L 149.2875 327.555803 
z
" clip-path="url(#p8c15a5cf41)" style="fill: #d55e00; opacity: 0.5; stroke: #000000; stroke-linejoin: miter"/>
   </g>
   <g id="line2d_10">
    <path d="M 159.75 327.555803 
L 159.75 344.779793 
" clip-path="url(#p8c15a5cf41)" style="fill: none; stroke: #000000; stroke-linecap: round"/>
   </g>
   <g id="line2d_11">
    <path d="M 159.75 311.303815 
L 159.75 290.8206 
" clip-path="url(#p8c15a5cf41)" style="fill: none; stroke: #000000; stroke-linecap: round"/>
   </g>
   <g id="line2d_12">
    <path d="M 154.51875 344.779793 
L 164.98125 344.779793 
" clip-path="url(#p8c15a5cf41)" style="fill: none; stroke: #000000; stroke-linecap: round"/>
   </g>
   <g id="line2d_13">
    <path d="M 154.51875 290.8206 
L 164.98125 290.8206 
" clip-path="url(#p8c15a5cf41)" style="fill: none; stroke: #000000; stroke-linecap: round"/>
   </g>
   <g id="patch_4">
    <path d="M 288.7875 343.233636 
L 309.7125 343.233636 
L 309.7125 303.20798 
L 288.7875 303.20798 
L 288.7875 343.233636 
z
" clip-path="url(#p8c15a5cf41)" style="fill: #0072b2; opacity: 0.5; stroke: #000000; stroke-linejoin: miter"/>
   </g>
   <g id="line2d_14">
    <path d="M 299.25 343.233636 
L 299.25 399.909621 
" clip-path="url(#p8c15a5cf41)" style="fill: none; stroke: #000000; stroke-linecap: round"/>
   </g>
   <g id="line2d_15">
    <path d="M 299.25 303.20798 
L 299.25 257.897126 
" clip-path="url(#p8c15a5cf41)" style="fill: none; stroke: #000000; stroke-linecap: round"/>
   </g>
   <g id="line2d_16">
    <path d="M 294.01875 399.909621 
L 304.48125 399.909621 
" clip-path="url(#p8c15a5cf41)" style="fill: none; stroke: #000000; stroke-linecap: round"/>
   </g>
   <g id="line2d_17">
    <path d="M 294.01875 257.897126 
L 304.48125 257.897126 
" clip-path="url(#p8c15a5cf41)" style="fill: none; stroke: #000000; stroke-linecap: round"/>
   </g>
   <g id="patch_5">
    <path d="M 428.2875 351.841417 
L 449.2125 351.841417 
L 449.2125 333.664998 
L 428.2875 333.664998 
L 428.2875 351.841417 
z
" clip-path="url(#p8c15a5cf41)" style="fill: #009e73; opacity: 0.5; stroke: #000000; stroke-linejoin: miter"/>
   </g>
   <g id="line2d_18">
    <path d="M 438.75 351.841417 
L 438.75 375.626041 
" clip-path="url(#p8c15a5cf41)" style="fill: none; stroke: #000000; stroke-linecap: round"/>
   </g>
   <g id="line2d_19">
    <path d="M 438.75 333.664998 
L 438.75 321.891297 
" clip-path="url(#p8c15a5cf41)" style="fill: none; stroke: #000000; stroke-linecap: round"/>
   </g>
   <g id="line2d_20">
    <path d="M 433.51875 375.626041 
L 443.98125 375.626041 
" clip-path="url(#p8c15a5cf41)" style="fill: none; stroke: #000000; stroke-linecap: round"/>
   </g>
   <g id="line2d_21">
    <path d="M 433.51875 321.891297 
L 443.98125 321.891297 
" clip-path="url(#p8c15a5cf41)" style="fill: none; stroke: #000000; stroke-linecap: round"/>
   </g>
   <g id="patch_6">
    <path d="M 567.7875 292.30664 
L 588.7125 292.30664 
L 588.7125 275.676345 
L 567.7875 275.676345 
L 567.7875 292.30664 
z
" clip-path="url(#p8c15a5cf41)" style="fill: #cc79a7; opacity: 0.5; stroke: #000000; stroke-linejoin: miter"/>
   </g>
   <g id="line2d_22">
    <path d="M 578.25 292.30664 
L 578.25 309.720603 
" clip-path="url(#p8c15a5cf41)" style="fill: none; stroke: #000000; stroke-linecap: round"/>
   </g>
   <g id="line2d_23">
    <path d="M 578.25 275.676345 
L 578.25 267.024711 
" clip-path="url(#p8c15a5cf41)" style="fill: none; stroke: #000000; stroke-linecap: round"/>
   </g>
   <g id="line2d_24">
    <path d="M 573.01875 309.720603 
L 583.48125 309.720603 
" clip-path="url(#p8c15a5cf41)" style="fill: none; stroke: #000000; stroke-linecap: round"/>
   </g>
   <g id="line2d_25">
    <path d="M 573.01875 267.024711 
L 583.48125 267.024711 
" clip-path="url(#p8c15a5cf41)" style="fill: none; stroke: #000000; stroke-linecap: round"/>
   </g>
   <g id="line2d_26">
    <path d="M 149.2875 317.922131 
L 170.2125 317.922131 
" clip-path="url(#p8c15a5cf41)" style="fill: none; stroke: #000000"/>
   </g>
   <g id="line2d_27">
    <path d="M 288.7875 314.88778 
L 309.7125 314.88778 
" clip-path="url(#p8c15a5cf41)" style="fill: none; stroke: #000000"/>
   </g>
   <g id="line2d_28">
    <path d="M 428.2875 340.472096 
L 449.2125 340.472096 
" clip-path="url(#p8c15a5cf41)" style="fill: none; stroke: #000000"/>
   </g>
   <g id="line2d_29">
    <path d="M 567.7875 283.106403 
L 588.7125 283.106403 
" clip-path="url(#p8c15a5cf41)" style="fill: none; stroke: #000000"/>
   </g>
   <g id="patch_7">
    <path d="M 90 507.6 
L 90 129.6 
" style="fill: none; stroke: #262626; stroke-width: 1.25; stroke-linejoin: miter; stroke-linecap: square"/>
   </g>
   <g id="patch_8">
    <path d="M 648 507.6 
L 648 129.6 
" style="fill: none; stroke: #262626; stroke-width: 1.25; stroke-linejoin: miter; stroke-linecap: square"/>
   </g>
   <g id="patch_9">
    <path d="M 90 507.6 
L 648 507.6 
" style="fill: none; stroke: #262626; stroke-width: 1.25; stroke-linejoin: miter; stroke-linecap: square"/>
   </g>
   <g id="patch_10">
    <path d="M 90 129.6 
L 648 129.6 
" style="fill: none; stroke: #262626; stroke-width: 1.25; stroke-linejoin: miter; stroke-linecap: square"/>
   </g>
   <g id="text_11">
    <!-- IBI -->
    <g style="fill: #262626" transform="translate(360.055313 109.6) scale(0.14 -0.14)">
     <defs>
      <path id="Arial-BoldMT-49" d="M 438 0 
L 438 4581 
L 1363 4581 
L 1363 0 
L 438 0 
z
" transform="scale(0.015625)"/>
      <path id="Arial-BoldMT-42" d="M 469 4581 
L 2300 4581 
Q 2844 4581 3111 4536 
Q 3378 4491 3589 4347 
Q 3800 4203 3940 3964 
Q 4081 3725 4081 3428 
Q 4081 3106 3907 2837 
Q 3734 2569 3438 2434 
Q 3856 2313 4081 2019 
Q 4306 1725 4306 1328 
Q 4306 1016 4161 720 
Q 4016 425 3764 248 
Q 3513 72 3144 31 
Q 2913 6 2028 0 
L 469 0 
L 469 4581 
z
M 1394 3819 
L 1394 2759 
L 2000 2759 
Q 2541 2759 2672 2775 
Q 2909 2803 3045 2939 
Q 3181 3075 3181 3297 
Q 3181 3509 3064 3642 
Q 2947 3775 2716 3803 
Q 2578 3819 1925 3819 
L 1394 3819 
z
M 1394 1997 
L 1394 772 
L 2250 772 
Q 2750 772 2884 800 
Q 3091 838 3220 983 
Q 3350 1128 3350 1372 
Q 3350 1578 3250 1722 
Q 3150 1866 2961 1931 
Q 2772 1997 2141 1997 
L 1394 1997 
z
" transform="scale(0.015625)"/>
     </defs>
     <use xlink:href="#Arial-BoldMT-49"/>
     <use xlink:href="#Arial-BoldMT-42" x="27.783203"/>
     <use xlink:href="#Arial-BoldMT-49" x="100"/>
    </g>
   </g>
  </g>
  <g id="axes_2">
   <g id="patch_11">
    <path d="M 90 961.2 
L 648 961.2 
L 648 583.2 
L 90 583.2 
z
" style="fill: #ffffff"/>
   </g>
   <g id="matplotlib.axis_3">
    <g id="xtick_5">
     <g id="line2d_30">
      <g>
       <use xlink:href="#m0a4c0514e4" x="159.75" y="961.2" style="fill: #262626; stroke: #262626; stroke-width: 1.25"/>
      </g>
     </g>
     <g id="text_12">
      <!-- State 1 -->
      <g style="fill: #262626" transform="translate(142.321875 978.573594) scale(0.11 -0.11)">
       <use xlink:href="#ArialMT-53"/>
       <use xlink:href="#ArialMT-74" x="66.699219"/>
       <use xlink:href="#ArialMT-61" x="94.482422"/>
       <use xlink:href="#ArialMT-74" x="150.097656"/>
       <use xlink:href="#ArialMT-65" x="177.880859"/>
       <use xlink:href="#ArialMT-20" x="233.496094"/>
       <use xlink:href="#ArialMT-31" x="261.279297"/>
      </g>
     </g>
    </g>
    <g id="xtick_6">
     <g id="line2d_31">
      <g>
       <use xlink:href="#m0a4c0514e4" x="299.25" y="961.2" style="fill: #262626; stroke: #262626; stroke-width: 1.25"/>
      </g>
     </g>
     <g id="text_13">
      <!-- State 2 -->
      <g style="fill: #262626" transform="translate(281.821875 978.573594) scale(0.11 -0.11)">
       <use xlink:href="#ArialMT-53"/>
       <use xlink:href="#ArialMT-74" x="66.699219"/>
       <use xlink:href="#ArialMT-61" x="94.482422"/>
       <use xlink:href="#ArialMT-74" x="150.097656"/>
       <use xlink:href="#ArialMT-65" x="177.880859"/>
       <use xlink:href="#ArialMT-20" x="233.496094"/>
       <use xlink:href="#ArialMT-32" x="261.279297"/>
      </g>
     </g>
    </g>
    <g id="xtick_7">
     <g id="line2d_32">
      <g>
       <use xlink:href="#m0a4c0514e4" x="438.75" y="961.2" style="fill: #262626; stroke: #262626; stroke-width: 1.25"/>
      </g>
     </g>
     <g id="text_14">
      <!-- State 3 -->
      <g style="fill: #262626" transform="translate(421.321875 978.573594) scale(0.11 -0.11)">
       <use xlink:href="#ArialMT-53"/>
       <use xlink:href="#ArialMT-74" x="66.699219"/>
       <use xlink:href="#ArialMT-61" x="94.482422"/>
       <use xlink:href="#ArialMT-74" x="150.097656"/>
       <use xlink:href="#ArialMT-65" x="177.880859"/>
       <use xlink:href="#ArialMT-20" x="233.496094"/>
       <use xlink:href="#ArialMT-33" x="261.279297"/>
      </g>
     </g>
    </g>
    <g id="xtick_8">
     <g id="line2d_33">
      <g>
       <use xlink:href="#m0a4c0514e4" x="578.25" y="961.2" style="fill: #262626; stroke: #262626; stroke-width: 1.25"/>
      </g>
     </g>
     <g id="text_15">
      <!-- State 4 -->
      <g style="fill: #262626" transform="translate(560.821875 978.573594) scale(0.11 -0.11)">
       <use xlink:href="#ArialMT-53"/>
       <use xlink:href="#ArialMT-74" x="66.699219"/>
       <use xlink:href="#ArialMT-61" x="94.482422"/>
       <use xlink:href="#ArialMT-74" x="150.097656"/>
       <use xlink:href="#ArialMT-65" x="177.880859"/>
       <use xlink:href="#ArialMT-20" x="233.496094"/>
       <use xlink:href="#ArialMT-34" x="261.279297"/>
      </g>
     </g>
    </g>
   </g>
   <g id="matplotlib.axis_4">
    <g id="ytick_6">
     <g id="line2d_34">
      <g>
       <use xlink:href="#mdaebd36fad" x="90" y="923.4" style="fill: #262626; stroke: #262626; stroke-width: 1.25"/>
      </g>
     </g>
     <g id="text_16">
      <!-- −2 -->
      <g style="fill: #262626" transform="translate(67.958281 927.336797) scale(0.11 -0.11)">
       <use xlink:href="#ArialMT-2212"/>
       <use xlink:href="#ArialMT-32" x="58.398438"/>
      </g>
     </g>
    </g>
    <g id="ytick_7">
     <g id="line2d_35">
      <g>
       <use xlink:href="#mdaebd36fad" x="90" y="847.8" style="fill: #262626; stroke: #262626; stroke-width: 1.25"/>
      </g>
     </g>
     <g id="text_17">
      <!-- −1 -->
      <g style="fill: #262626" transform="translate(67.958281 851.736797) scale(0.11 -0.11)">
       <use xlink:href="#ArialMT-2212"/>
       <use xlink:href="#ArialMT-31" x="58.398438"/>
      </g>
     </g>
    </g>
    <g id="ytick_8">
     <g id="line2d_36">
      <g>
       <use xlink:href="#mdaebd36fad" x="90" y="772.2" style="fill: #262626; stroke: #262626; stroke-width: 1.25"/>
      </g>
     </g>
     <g id="text_18">
      <!-- 0 -->
      <g style="fill: #262626" transform="translate(74.382969 776.136797) scale(0.11 -0.11)">
       <use xlink:href="#ArialMT-30"/>
      </g>
     </g>
    </g>
    <g id="ytick_9">
     <g id="line2d_37">
      <g>
       <use xlink:href="#mdaebd36fad" x="90" y="696.6" style="fill: #262626; stroke: #262626; stroke-width: 1.25"/>
      </g>
     </g>
     <g id="text_19">
      <!-- 1 -->
      <g style="fill: #262626" transform="translate(74.382969 700.536797) scale(0.11 -0.11)">
       <use xlink:href="#ArialMT-31"/>
      </g>
     </g>
    </g>
    <g id="ytick_10">
     <g id="line2d_38">
      <g>
       <use xlink:href="#mdaebd36fad" x="90" y="621" style="fill: #262626; stroke: #262626; stroke-width: 1.25"/>
      </g>
     </g>
     <g id="text_20">
      <!-- 2 -->
      <g style="fill: #262626" transform="translate(74.382969 624.936797) scale(0.11 -0.11)">
       <use xlink:href="#ArialMT-32"/>
      </g>
     </g>
    </g>
    <g id="text_21">
     <!-- Value (z-scored) -->
     <g style="fill: #262626" transform="translate(61.432656 815.770313) rotate(-90) scale(0.12 -0.12)">
      <use xlink:href="#ArialMT-56"/>
      <use xlink:href="#ArialMT-61" x="59.324219"/>
      <use xlink:href="#ArialMT-6c" x="114.939453"/>
      <use xlink:href="#ArialMT-75" x="137.15625"/>
      <use xlink:href="#ArialMT-65" x="192.771484"/>
      <use xlink:href="#ArialMT-20" x="248.386719"/>
      <use xlink:href="#ArialMT-28" x="276.169922"/>
      <use xlink:href="#ArialMT-7a" x="309.470703"/>
      <use xlink:href="#ArialMT-2d" x="359.470703"/>
      <use xlink:href="#ArialMT-73" x="392.771484"/>
      <use xlink:href="#ArialMT-63" x="442.771484"/>
      <use xlink:href="#ArialMT-6f" x="492.771484"/>
      <use xlink:href="#ArialMT-72" x="548.386719"/>
      <use xlink:href="#ArialMT-65" x="581.6875"/>
      <use xlink:href="#ArialMT-64" x="637.302734"/>
      <use xlink:href="#ArialMT-29" x="692.917969"/>
     </g>
    </g>
   </g>
   <g id="PolyCollection_5">
    <defs>
     <path id="mcd296e2e1c" d="M 166.167593 -269.674465 
L 160.016336 -269.674465 
L 160.016336 -270.890026 
L 160.016336 -272.105588 
L 160.016336 -273.32115 
L 160.016336 -274.536711 
L 160.016336 -275.752273 
L 160.016336 -276.967835 
L 160.016336 -278.183396 
L 160.016336 -279.398958 
L 160.016336 -280.61452 
L 160.016336 -281.830081 
L 160.016336 -283.045643 
L 160.016336 -284.261205 
L 160.016336 -285.476766 
L 160.016336 -286.692328 
L 160.016336 -287.90789 
L 160.016336 -289.123451 
L 160.016336 -290.339013 
L 160.016336 -291.554575 
L 160.016336 -292.770136 
L 160.016336 -293.985698 
L 160.016336 -295.20126 
L 160.016336 -296.416821 
L 160.016336 -297.632383 
L 160.016336 -298.847945 
L 160.016336 -300.063506 
L 160.016336 -301.279068 
L 160.016336 -302.49463 
L 160.016336 -303.710192 
L 160.016336 -304.925753 
L 160.016336 -306.141315 
L 160.016336 -307.356877 
L 160.016336 -308.572438 
L 160.016336 -309.788 
L 160.016336 -311.003562 
L 160.016336 -312.219123 
L 160.016336 -313.434685 
L 160.016336 -314.650247 
L 160.016336 -315.865808 
L 168.488064 -315.865808 
L 168.488064 -315.865808 
L 169.901318 -314.650247 
L 171.242659 -313.434685 
L 172.490074 -312.219123 
L 173.650529 -311.003562 
L 174.755416 -309.788 
L 175.849745 -308.572438 
L 176.97945 -307.356877 
L 178.181689 -306.141315 
L 179.481124 -304.925753 
L 180.891799 -303.710192 
L 182.421053 -302.49463 
L 184.070738 -301.279068 
L 185.832398 -300.063506 
L 187.676619 -298.847945 
L 189.540524 -297.632383 
L 191.319752 -296.416821 
L 192.870832 -295.20126 
L 194.026882 -293.985698 
L 194.625 -292.770136 
L 194.539342 -291.554575 
L 193.711279 -290.339013 
L 192.168055 -289.123451 
L 190.024117 -287.90789 
L 187.463872 -286.692328 
L 184.709655 -285.476766 
L 181.98266 -284.261205 
L 179.466297 -283.045643 
L 177.280356 -281.830081 
L 175.470984 -280.61452 
L 174.016852 -279.398958 
L 172.847671 -278.183396 
L 171.8686 -276.967835 
L 170.983856 -275.752273 
L 170.114569 -274.536711 
L 169.208704 -273.32115 
L 168.243451 -272.105588 
L 167.222078 -270.890026 
L 166.167593 -269.674465 
z
" style="stroke: #d55e00; stroke-opacity: 0.3"/>
    </defs>
    <g clip-path="url(#pf1caa24ec0)">
     <use xlink:href="#mcd296e2e1c" x="0" y="1080" style="fill: #d55e00; fill-opacity: 0.3; stroke: #d55e00; stroke-opacity: 0.3"/>
    </g>
   </g>
   <g id="PolyCollection_6">
    <defs>
     <path id="m84fc53627a" d="M 302.294385 -219.601051 
L 299.382244 -219.601051 
L 299.382244 -225.68677 
L 299.382244 -231.77249 
L 299.382244 -237.858209 
L 299.382244 -243.943929 
L 299.382244 -250.029648 
L 299.382244 -256.115368 
L 299.382244 -262.201087 
L 299.382244 -268.286807 
L 299.382244 -274.372527 
L 299.382244 -280.458246 
L 299.382244 -286.543966 
L 299.382244 -292.629685 
L 299.382244 -298.715405 
L 299.382244 -304.801124 
L 299.382244 -310.886844 
L 299.382244 -316.972563 
L 299.382244 -323.058283 
L 299.382244 -329.144003 
L 299.382244 -335.229722 
L 299.382244 -341.315442 
L 299.382244 -347.401161 
L 299.382244 -353.486881 
L 299.382244 -359.5726 
L 299.382244 -365.65832 
L 299.382244 -371.744039 
L 299.382244 -377.829759 
L 299.382244 -383.915478 
L 299.382244 -390.001198 
L 299.382244 -396.086918 
L 299.382244 -402.172637 
L 299.382244 -408.258357 
L 299.382244 -414.344076 
L 299.382244 -420.429796 
L 299.382244 -426.515515 
L 299.382244 -432.601235 
L 299.382244 -438.686954 
L 299.382244 -444.772674 
L 299.382244 -450.858393 
L 303.873009 -450.858393 
L 303.873009 -450.858393 
L 304.73255 -444.772674 
L 305.597471 -438.686954 
L 306.461008 -432.601235 
L 307.323642 -426.515515 
L 308.1939 -420.429796 
L 309.09373 -414.344076 
L 310.066922 -408.258357 
L 311.184294 -402.172637 
L 312.537631 -396.086918 
L 314.217953 -390.001198 
L 316.281994 -383.915478 
L 318.719233 -377.829759 
L 321.435095 -371.744039 
L 324.260814 -365.65832 
L 326.988808 -359.5726 
L 329.420266 -353.486881 
L 331.405645 -347.401161 
L 332.862485 -341.315442 
L 333.766491 -335.229722 
L 334.125 -329.144003 
L 333.949623 -323.058283 
L 333.243051 -316.972563 
L 332.005195 -310.886844 
L 330.252177 -304.801124 
L 328.035102 -298.715405 
L 325.447153 -292.629685 
L 322.615325 -286.543966 
L 319.68151 -280.458246 
L 316.781792 -274.372527 
L 314.031436 -268.286807 
L 311.518146 -262.201087 
L 309.301443 -256.115368 
L 307.414006 -250.029648 
L 305.862152 -243.943929 
L 304.62578 -237.858209 
L 303.66061 -231.77249 
L 302.905425 -225.68677 
L 302.294385 -219.601051 
z
" style="stroke: #0072b2; stroke-opacity: 0.3"/>
    </defs>
    <g clip-path="url(#pf1caa24ec0)">
     <use xlink:href="#m84fc53627a" x="0" y="1080" style="fill: #0072b2; fill-opacity: 0.3; stroke: #0072b2; stroke-opacity: 0.3"/>
    </g>
   </g>
   <g id="PolyCollection_7">
    <defs>
     <path id="md24fb89e56" d="M 444.586137 -241.574949 
L 438.995187 -241.574949 
L 438.995187 -242.442278 
L 438.995187 -243.309608 
L 438.995187 -244.176937 
L 438.995187 -245.044266 
L 438.995187 -245.911595 
L 438.995187 -246.778924 
L 438.995187 -247.646253 
L 438.995187 -248.513582 
L 438.995187 -249.380911 
L 438.995187 -250.24824 
L 438.995187 -251.115569 
L 438.995187 -251.982898 
L 438.995187 -252.850227 
L 438.995187 -253.717556 
L 438.995187 -254.584885 
L 438.995187 -255.452214 
L 438.995187 -256.319543 
L 438.995187 -257.186872 
L 438.995187 -258.054201 
L 438.995187 -258.92153 
L 438.995187 -259.788859 
L 438.995187 -260.656188 
L 438.995187 -261.523517 
L 438.995187 -262.390846 
L 438.995187 -263.258175 
L 438.995187 -264.125504 
L 438.995187 -264.992833 
L 438.995187 -265.860162 
L 438.995187 -266.727491 
L 438.995187 -267.59482 
L 438.995187 -268.462149 
L 438.995187 -269.329478 
L 438.995187 -270.196807 
L 438.995187 -271.064136 
L 438.995187 -271.931465 
L 438.995187 -272.798794 
L 438.995187 -273.666124 
L 438.995187 -274.533453 
L 446.937889 -274.533453 
L 446.937889 -274.533453 
L 447.985049 -273.666124 
L 448.99303 -272.798794 
L 450.01091 -271.931465 
L 451.108085 -271.064136 
L 452.35527 -270.196807 
L 453.805216 -269.329478 
L 455.47936 -268.462149 
L 457.36386 -267.59482 
L 459.414506 -266.727491 
L 461.566778 -265.860162 
L 463.746319 -264.992833 
L 465.876413 -264.125504 
L 467.881649 -263.258175 
L 469.689068 -262.390846 
L 471.228832 -261.523517 
L 472.435631 -260.656188 
L 473.250866 -259.788859 
L 473.625 -258.92153 
L 473.519853 -258.054201 
L 472.911521 -257.186872 
L 471.794888 -256.319543 
L 470.189895 -255.452214 
L 468.147969 -254.584885 
L 465.755544 -253.717556 
L 463.131481 -252.850227 
L 460.41689 -251.982898 
L 457.758596 -251.115569 
L 455.289888 -250.24824 
L 453.11312 -249.380911 
L 451.287878 -248.513582 
L 449.826606 -247.646253 
L 448.697662 -246.778924 
L 447.834602 -245.911595 
L 447.149933 -245.044266 
L 446.55124 -244.176937 
L 445.957202 -243.309608 
L 445.310665 -242.442278 
L 444.586137 -241.574949 
z
" style="stroke: #009e73; stroke-opacity: 0.3"/>
    </defs>
    <g clip-path="url(#pf1caa24ec0)">
     <use xlink:href="#md24fb89e56" x="0" y="1080" style="fill: #009e73; fill-opacity: 0.3; stroke: #009e73; stroke-opacity: 0.3"/>
    </g>
   </g>
   <g id="PolyCollection_8">
    <defs>
     <path id="me7a0559f70" d="M 580.443311 -341.2067 
L 578.322894 -341.2067 
L 578.322894 -343.187 
L 578.322894 -345.167301 
L 578.322894 -347.147601 
L 578.322894 -349.127901 
L 578.322894 -351.108201 
L 578.322894 -353.088501 
L 578.322894 -355.068801 
L 578.322894 -357.049102 
L 578.322894 -359.029402 
L 578.322894 -361.009702 
L 578.322894 -362.990002 
L 578.322894 -364.970302 
L 578.322894 -366.950603 
L 578.322894 -368.930903 
L 578.322894 -370.911203 
L 578.322894 -372.891503 
L 578.322894 -374.871803 
L 578.322894 -376.852103 
L 578.322894 -378.832404 
L 578.322894 -380.812704 
L 578.322894 -382.793004 
L 578.322894 -384.773304 
L 578.322894 -386.753604 
L 578.322894 -388.733904 
L 578.322894 -390.714205 
L 578.322894 -392.694505 
L 578.322894 -394.674805 
L 578.322894 -396.655105 
L 578.322894 -398.635405 
L 578.322894 -400.615706 
L 578.322894 -402.596006 
L 578.322894 -404.576306 
L 578.322894 -406.556606 
L 578.322894 -408.536906 
L 578.322894 -410.517206 
L 578.322894 -412.497507 
L 578.322894 -414.477807 
L 578.322894 -416.458107 
L 579.767777 -416.458107 
L 579.767777 -416.458107 
L 579.669534 -414.477807 
L 579.411339 -412.497507 
L 579.08109 -410.517206 
L 578.770251 -408.536906 
L 578.534877 -406.556606 
L 578.386468 -404.576306 
L 578.322894 -402.596006 
L 578.322894 -400.615706 
L 578.322894 -398.635405 
L 578.322894 -396.655105 
L 578.322894 -394.674805 
L 578.366041 -392.694505 
L 578.565406 -390.714205 
L 579.009547 -388.733904 
L 579.876326 -386.753604 
L 581.364023 -384.773304 
L 583.623219 -382.793004 
L 586.68696 -380.812704 
L 590.445772 -378.832404 
L 594.683657 -376.852103 
L 599.137889 -374.871803 
L 603.527069 -372.891503 
L 607.530815 -370.911203 
L 610.758234 -368.930903 
L 612.761079 -366.950603 
L 613.125 -364.970302 
L 611.624919 -362.990002 
L 608.373361 -361.009702 
L 603.859478 -359.029402 
L 598.819584 -357.049102 
L 593.989636 -355.068801 
L 589.878758 -353.088501 
L 586.685367 -351.108201 
L 584.365704 -349.127901 
L 582.761723 -347.147601 
L 581.690202 -345.167301 
L 580.971897 -343.187 
L 580.443311 -341.2067 
z
" style="stroke: #cc79a7; stroke-opacity: 0.3"/>
    </defs>
    <g clip-path="url(#pf1caa24ec0)">
     <use xlink:href="#me7a0559f70" x="0" y="1080" style="fill: #cc79a7; fill-opacity: 0.3; stroke: #cc79a7; stroke-opacity: 0.3"/>
    </g>
   </g>
   <g id="PathCollection_5">
    <g clip-path="url(#pf1caa24ec0)">
     <use xlink:href="#ma77a9ae69f" x="130.302522" y="802.409795" style="fill: #d55e00; stroke: #d55e00"/>
     <use xlink:href="#ma77a9ae69f" x="128.41767" y="780.887437" style="fill: #d55e00; stroke: #d55e00"/>
     <use xlink:href="#ma77a9ae69f" x="131.223829" y="791.25474" style="fill: #d55e00; stroke: #d55e00"/>
     <use xlink:href="#ma77a9ae69f" x="124.92296" y="785.968118" style="fill: #d55e00; stroke: #d55e00"/>
     <use xlink:href="#ma77a9ae69f" x="138.296892" y="794.979888" style="fill: #d55e00; stroke: #d55e00"/>
     <use xlink:href="#ma77a9ae69f" x="128.974145" y="774.456515" style="fill: #d55e00; stroke: #d55e00"/>
     <use xlink:href="#ma77a9ae69f" x="127.386091" y="810.325535" style="fill: #d55e00; stroke: #d55e00"/>
     <use xlink:href="#ma77a9ae69f" x="133.046895" y="789.981396" style="fill: #d55e00; stroke: #d55e00"/>
     <use xlink:href="#ma77a9ae69f" x="137.72599" y="783.800913" style="fill: #d55e00; stroke: #d55e00"/>
     <use xlink:href="#ma77a9ae69f" x="129.842779" y="789.40048" style="fill: #d55e00; stroke: #d55e00"/>
     <use xlink:href="#ma77a9ae69f" x="132.283059" y="788.894742" style="fill: #d55e00; stroke: #d55e00"/>
     <use xlink:href="#ma77a9ae69f" x="129.643305" y="793.415273" style="fill: #d55e00; stroke: #d55e00"/>
     <use xlink:href="#ma77a9ae69f" x="125.267542" y="779.437217" style="fill: #d55e00; stroke: #d55e00"/>
     <use xlink:href="#ma77a9ae69f" x="125.16159" y="789.407899" style="fill: #d55e00; stroke: #d55e00"/>
     <use xlink:href="#ma77a9ae69f" x="127.804628" y="789.053243" style="fill: #d55e00; stroke: #d55e00"/>
     <use xlink:href="#ma77a9ae69f" x="134.439334" y="787.266228" style="fill: #d55e00; stroke: #d55e00"/>
     <use xlink:href="#ma77a9ae69f" x="128.864622" y="789.371968" style="fill: #d55e00; stroke: #d55e00"/>
     <use xlink:href="#ma77a9ae69f" x="137.194177" y="782.964723" style="fill: #d55e00; stroke: #d55e00"/>
     <use xlink:href="#ma77a9ae69f" x="135.482323" y="785.628134" style="fill: #d55e00; stroke: #d55e00"/>
     <use xlink:href="#ma77a9ae69f" x="136.777046" y="800.965555" style="fill: #d55e00; stroke: #d55e00"/>
     <use xlink:href="#ma77a9ae69f" x="129.91242" y="768.966083" style="fill: #d55e00; stroke: #d55e00"/>
     <use xlink:href="#ma77a9ae69f" x="133.975727" y="791.801104" style="fill: #d55e00; stroke: #d55e00"/>
     <use xlink:href="#ma77a9ae69f" x="125.514592" y="775.035454" style="fill: #d55e00; stroke: #d55e00"/>
     <use xlink:href="#ma77a9ae69f" x="128.393691" y="779.937144" style="fill: #d55e00; stroke: #d55e00"/>
     <use xlink:href="#ma77a9ae69f" x="137.473813" y="776.774442" style="fill: #d55e00; stroke: #d55e00"/>
     <use xlink:href="#ma77a9ae69f" x="135.576657" y="785.05345" style="fill: #d55e00; stroke: #d55e00"/>
     <use xlink:href="#ma77a9ae69f" x="135.149472" y="764.134192" style="fill: #d55e00; stroke: #d55e00"/>
     <use xlink:href="#ma77a9ae69f" x="126.799643" y="801.044134" style="fill: #d55e00; stroke: #d55e00"/>
     <use xlink:href="#ma77a9ae69f" x="129.700505" y="785.29015" style="fill: #d55e00; stroke: #d55e00"/>
     <use xlink:href="#ma77a9ae69f" x="134.385274" y="805.12838" style="fill: #d55e00; stroke: #d55e00"/>
     <use xlink:href="#ma77a9ae69f" x="129.554562" y="768.580679" style="fill: #d55e00; stroke: #d55e00"/>
     <use xlink:href="#ma77a9ae69f" x="137.719067" y="777.141209" style="fill: #d55e00; stroke: #d55e00"/>
     <use xlink:href="#ma77a9ae69f" x="135.862431" y="791.532607" style="fill: #d55e00; stroke: #d55e00"/>
     <use xlink:href="#ma77a9ae69f" x="130.337493" y="766.887833" style="fill: #d55e00; stroke: #d55e00"/>
     <use xlink:href="#ma77a9ae69f" x="126.150265" y="787.488584" style="fill: #d55e00; stroke: #d55e00"/>
     <use xlink:href="#ma77a9ae69f" x="135.377381" y="768.02977" style="fill: #d55e00; stroke: #d55e00"/>
     <use xlink:href="#ma77a9ae69f" x="131.61127" y="794.551122" style="fill: #d55e00; stroke: #d55e00"/>
     <use xlink:href="#ma77a9ae69f" x="132.517898" y="776.260933" style="fill: #d55e00; stroke: #d55e00"/>
     <use xlink:href="#ma77a9ae69f" x="129.397759" y="807.607055" style="fill: #d55e00; stroke: #d55e00"/>
    </g>
   </g>
   <g id="PathCollection_6">
    <g clip-path="url(#pf1caa24ec0)">
     <use xlink:href="#mf4bd4b5842" x="269.222517" y="714.732082" style="fill: #0072b2; stroke: #0072b2"/>
     <use xlink:href="#mf4bd4b5842" x="268.989614" y="764.467263" style="fill: #0072b2; stroke: #0072b2"/>
     <use xlink:href="#mf4bd4b5842" x="275.281387" y="761.342835" style="fill: #0072b2; stroke: #0072b2"/>
     <use xlink:href="#mf4bd4b5842" x="267.169261" y="646.315457" style="fill: #0072b2; stroke: #0072b2"/>
     <use xlink:href="#mf4bd4b5842" x="276.551703" y="742.03157" style="fill: #0072b2; stroke: #0072b2"/>
     <use xlink:href="#mf4bd4b5842" x="270.827548" y="769.740081" style="fill: #0072b2; stroke: #0072b2"/>
     <use xlink:href="#mf4bd4b5842" x="273.796584" y="712.812686" style="fill: #0072b2; stroke: #0072b2"/>
     <use xlink:href="#mf4bd4b5842" x="269.161064" y="798.047573" style="fill: #0072b2; stroke: #0072b2"/>
     <use xlink:href="#mf4bd4b5842" x="265.812776" y="674.099082" style="fill: #0072b2; stroke: #0072b2"/>
     <use xlink:href="#mf4bd4b5842" x="269.621932" y="771.270985" style="fill: #0072b2; stroke: #0072b2"/>
     <use xlink:href="#mf4bd4b5842" x="276.156986" y="629.141607" style="fill: #0072b2; stroke: #0072b2"/>
     <use xlink:href="#mf4bd4b5842" x="269.51018" y="730.551779" style="fill: #0072b2; stroke: #0072b2"/>
     <use xlink:href="#mf4bd4b5842" x="266.385311" y="732.192202" style="fill: #0072b2; stroke: #0072b2"/>
     <use xlink:href="#mf4bd4b5842" x="272.963787" y="684.465955" style="fill: #0072b2; stroke: #0072b2"/>
     <use xlink:href="#mf4bd4b5842" x="273.929218" y="723.668767" style="fill: #0072b2; stroke: #0072b2"/>
     <use xlink:href="#mf4bd4b5842" x="264.998367" y="663.068139" style="fill: #0072b2; stroke: #0072b2"/>
     <use xlink:href="#mf4bd4b5842" x="266.817559" y="738.834007" style="fill: #0072b2; stroke: #0072b2"/>
     <use xlink:href="#mf4bd4b5842" x="264.606943" y="757.038212" style="fill: #0072b2; stroke: #0072b2"/>
     <use xlink:href="#mf4bd4b5842" x="271.446606" y="822.814061" style="fill: #0072b2; stroke: #0072b2"/>
     <use xlink:href="#mf4bd4b5842" x="272.344672" y="740.976581" style="fill: #0072b2; stroke: #0072b2"/>
     <use xlink:href="#mf4bd4b5842" x="270.525464" y="860.398949" style="fill: #0072b2; stroke: #0072b2"/>
     <use xlink:href="#mf4bd4b5842" x="273.675245" y="776.477632" style="fill: #0072b2; stroke: #0072b2"/>
     <use xlink:href="#mf4bd4b5842" x="272.336972" y="760.536392" style="fill: #0072b2; stroke: #0072b2"/>
     <use xlink:href="#mf4bd4b5842" x="273.129164" y="716.702028" style="fill: #0072b2; stroke: #0072b2"/>
     <use xlink:href="#mf4bd4b5842" x="269.401924" y="773.104627" style="fill: #0072b2; stroke: #0072b2"/>
     <use xlink:href="#mf4bd4b5842" x="268.485971" y="801.785988" style="fill: #0072b2; stroke: #0072b2"/>
     <use xlink:href="#mf4bd4b5842" x="268.37391" y="741.28739" style="fill: #0072b2; stroke: #0072b2"/>
     <use xlink:href="#mf4bd4b5842" x="278.315274" y="722.034101" style="fill: #0072b2; stroke: #0072b2"/>
     <use xlink:href="#mf4bd4b5842" x="275.961195" y="709.248248" style="fill: #0072b2; stroke: #0072b2"/>
     <use xlink:href="#mf4bd4b5842" x="267.251156" y="790.156022" style="fill: #0072b2; stroke: #0072b2"/>
     <use xlink:href="#mf4bd4b5842" x="273.573545" y="787.324327" style="fill: #0072b2; stroke: #0072b2"/>
     <use xlink:href="#mf4bd4b5842" x="275.322672" y="682.13399" style="fill: #0072b2; stroke: #0072b2"/>
     <use xlink:href="#mf4bd4b5842" x="276.471692" y="731.019815" style="fill: #0072b2; stroke: #0072b2"/>
     <use xlink:href="#mf4bd4b5842" x="273.289057" y="754.748191" style="fill: #0072b2; stroke: #0072b2"/>
     <use xlink:href="#mf4bd4b5842" x="266.157197" y="739.3784" style="fill: #0072b2; stroke: #0072b2"/>
     <use xlink:href="#mf4bd4b5842" x="267.232338" y="775.993284" style="fill: #0072b2; stroke: #0072b2"/>
     <use xlink:href="#mf4bd4b5842" x="271.923665" y="794.488372" style="fill: #0072b2; stroke: #0072b2"/>
     <use xlink:href="#mf4bd4b5842" x="278.316711" y="768.723898" style="fill: #0072b2; stroke: #0072b2"/>
     <use xlink:href="#mf4bd4b5842" x="269.432052" y="818.258137" style="fill: #0072b2; stroke: #0072b2"/>
    </g>
   </g>
   <g id="PathCollection_7">
    <g clip-path="url(#pf1caa24ec0)">
     <use xlink:href="#ma9fb97f38a" x="405.039289" y="827.943279" style="fill: #009e73; stroke: #009e73"/>
     <use xlink:href="#ma9fb97f38a" x="406.190829" y="824.920261" style="fill: #009e73; stroke: #009e73"/>
     <use xlink:href="#ma9fb97f38a" x="415.67074" y="825.846529" style="fill: #009e73; stroke: #009e73"/>
     <use xlink:href="#ma9fb97f38a" x="407.790793" y="814.471721" style="fill: #009e73; stroke: #009e73"/>
     <use xlink:href="#ma9fb97f38a" x="410.820944" y="830.697399" style="fill: #009e73; stroke: #009e73"/>
     <use xlink:href="#ma9fb97f38a" x="416.087704" y="813.200397" style="fill: #009e73; stroke: #009e73"/>
     <use xlink:href="#ma9fb97f38a" x="404.571279" y="817.548521" style="fill: #009e73; stroke: #009e73"/>
     <use xlink:href="#ma9fb97f38a" x="407.986499" y="835.649553" style="fill: #009e73; stroke: #009e73"/>
     <use xlink:href="#ma9fb97f38a" x="414.535328" y="813.241307" style="fill: #009e73; stroke: #009e73"/>
     <use xlink:href="#ma9fb97f38a" x="405.318042" y="825.814721" style="fill: #009e73; stroke: #009e73"/>
     <use xlink:href="#ma9fb97f38a" x="415.909247" y="806.45238" style="fill: #009e73; stroke: #009e73"/>
     <use xlink:href="#ma9fb97f38a" x="415.235672" y="820.543389" style="fill: #009e73; stroke: #009e73"/>
     <use xlink:href="#ma9fb97f38a" x="411.60911" y="831.52083" style="fill: #009e73; stroke: #009e73"/>
     <use xlink:href="#ma9fb97f38a" x="413.424586" y="821.523818" style="fill: #009e73; stroke: #009e73"/>
     <use xlink:href="#ma9fb97f38a" x="411.55959" y="824.404012" style="fill: #009e73; stroke: #009e73"/>
     <use xlink:href="#ma9fb97f38a" x="417.684835" y="805.466547" style="fill: #009e73; stroke: #009e73"/>
     <use xlink:href="#ma9fb97f38a" x="409.144267" y="819.361848" style="fill: #009e73; stroke: #009e73"/>
     <use xlink:href="#ma9fb97f38a" x="407.83885" y="819.296449" style="fill: #009e73; stroke: #009e73"/>
     <use xlink:href="#ma9fb97f38a" x="415.347602" y="816.118411" style="fill: #009e73; stroke: #009e73"/>
     <use xlink:href="#ma9fb97f38a" x="407.065395" y="820.287385" style="fill: #009e73; stroke: #009e73"/>
     <use xlink:href="#ma9fb97f38a" x="408.359776" y="838.425051" style="fill: #009e73; stroke: #009e73"/>
     <use xlink:href="#ma9fb97f38a" x="417.71654" y="808.801021" style="fill: #009e73; stroke: #009e73"/>
     <use xlink:href="#ma9fb97f38a" x="406.779314" y="825.336894" style="fill: #009e73; stroke: #009e73"/>
     <use xlink:href="#ma9fb97f38a" x="415.864687" y="818.014043" style="fill: #009e73; stroke: #009e73"/>
     <use xlink:href="#ma9fb97f38a" x="414.929882" y="825.359199" style="fill: #009e73; stroke: #009e73"/>
     <use xlink:href="#ma9fb97f38a" x="411.066789" y="827.578534" style="fill: #009e73; stroke: #009e73"/>
     <use xlink:href="#ma9fb97f38a" x="414.780149" y="825.066526" style="fill: #009e73; stroke: #009e73"/>
     <use xlink:href="#ma9fb97f38a" x="414.799929" y="818.065233" style="fill: #009e73; stroke: #009e73"/>
     <use xlink:href="#ma9fb97f38a" x="405.893755" y="806.347924" style="fill: #009e73; stroke: #009e73"/>
     <use xlink:href="#ma9fb97f38a" x="417.555492" y="812.409878" style="fill: #009e73; stroke: #009e73"/>
     <use xlink:href="#ma9fb97f38a" x="414.823914" y="836.713086" style="fill: #009e73; stroke: #009e73"/>
     <use xlink:href="#ma9fb97f38a" x="407.304691" y="820.663217" style="fill: #009e73; stroke: #009e73"/>
     <use xlink:href="#ma9fb97f38a" x="409.876653" y="821.842332" style="fill: #009e73; stroke: #009e73"/>
     <use xlink:href="#ma9fb97f38a" x="407.561024" y="823.005042" style="fill: #009e73; stroke: #009e73"/>
     <use xlink:href="#ma9fb97f38a" x="416.834265" y="821.674544" style="fill: #009e73; stroke: #009e73"/>
     <use xlink:href="#ma9fb97f38a" x="410.172329" y="822.947943" style="fill: #009e73; stroke: #009e73"/>
     <use xlink:href="#ma9fb97f38a" x="405.684326" y="816.034838" style="fill: #009e73; stroke: #009e73"/>
     <use xlink:href="#ma9fb97f38a" x="411.927092" y="818.185636" style="fill: #009e73; stroke: #009e73"/>
     <use xlink:href="#ma9fb97f38a" x="405.104842" y="813.806424" style="fill: #009e73; stroke: #009e73"/>
    </g>
   </g>
   <g id="PathCollection_8">
    <g clip-path="url(#pf1caa24ec0)">
     <use xlink:href="#me7e6866297" x="553.248023" y="702.324594" style="fill: #cc79a7; stroke: #cc79a7"/>
     <use xlink:href="#me7e6866297" x="555.707641" y="714.923486" style="fill: #cc79a7; stroke: #cc79a7"/>
     <use xlink:href="#me7e6866297" x="543.582729" y="708.980039" style="fill: #cc79a7; stroke: #cc79a7"/>
     <use xlink:href="#me7e6866297" x="550.766937" y="718.006973" style="fill: #cc79a7; stroke: #cc79a7"/>
     <use xlink:href="#me7e6866297" x="555.93175" y="715.843993" style="fill: #cc79a7; stroke: #cc79a7"/>
     <use xlink:href="#me7e6866297" x="556.313011" y="729.346324" style="fill: #cc79a7; stroke: #cc79a7"/>
     <use xlink:href="#me7e6866297" x="556.03913" y="719.237214" style="fill: #cc79a7; stroke: #cc79a7"/>
     <use xlink:href="#me7e6866297" x="551.103883" y="710.434094" style="fill: #cc79a7; stroke: #cc79a7"/>
     <use xlink:href="#me7e6866297" x="553.136446" y="738.7933" style="fill: #cc79a7; stroke: #cc79a7"/>
     <use xlink:href="#me7e6866297" x="551.814948" y="703.653505" style="fill: #cc79a7; stroke: #cc79a7"/>
     <use xlink:href="#me7e6866297" x="544.748954" y="663.541893" style="fill: #cc79a7; stroke: #cc79a7"/>
     <use xlink:href="#me7e6866297" x="543.584071" y="702.92925" style="fill: #cc79a7; stroke: #cc79a7"/>
     <use xlink:href="#me7e6866297" x="554.987751" y="710.301388" style="fill: #cc79a7; stroke: #cc79a7"/>
     <use xlink:href="#me7e6866297" x="548.887062" y="708.613828" style="fill: #cc79a7; stroke: #cc79a7"/>
     <use xlink:href="#me7e6866297" x="544.214533" y="715.476146" style="fill: #cc79a7; stroke: #cc79a7"/>
     <use xlink:href="#me7e6866297" x="557.216758" y="728.733607" style="fill: #cc79a7; stroke: #cc79a7"/>
     <use xlink:href="#me7e6866297" x="552.742341" y="717.165252" style="fill: #cc79a7; stroke: #cc79a7"/>
     <use xlink:href="#me7e6866297" x="546.534485" y="713.049963" style="fill: #cc79a7; stroke: #cc79a7"/>
     <use xlink:href="#me7e6866297" x="543.415993" y="721.635274" style="fill: #cc79a7; stroke: #cc79a7"/>
     <use xlink:href="#me7e6866297" x="546.4962" y="713.928181" style="fill: #cc79a7; stroke: #cc79a7"/>
     <use xlink:href="#me7e6866297" x="545.142087" y="720.168723" style="fill: #cc79a7; stroke: #cc79a7"/>
     <use xlink:href="#me7e6866297" x="546.904737" y="716.022969" style="fill: #cc79a7; stroke: #cc79a7"/>
     <use xlink:href="#me7e6866297" x="555.201218" y="720.6376" style="fill: #cc79a7; stroke: #cc79a7"/>
     <use xlink:href="#me7e6866297" x="547.612586" y="719.109763" style="fill: #cc79a7; stroke: #cc79a7"/>
     <use xlink:href="#me7e6866297" x="553.134332" y="716.91556" style="fill: #cc79a7; stroke: #cc79a7"/>
     <use xlink:href="#me7e6866297" x="555.850502" y="706.914775" style="fill: #cc79a7; stroke: #cc79a7"/>
     <use xlink:href="#me7e6866297" x="544.189799" y="709.841318" style="fill: #cc79a7; stroke: #cc79a7"/>
     <use xlink:href="#me7e6866297" x="545.182413" y="717.009796" style="fill: #cc79a7; stroke: #cc79a7"/>
     <use xlink:href="#me7e6866297" x="555.474807" y="723.118454" style="fill: #cc79a7; stroke: #cc79a7"/>
     <use xlink:href="#me7e6866297" x="543.3894" y="715.837129" style="fill: #cc79a7; stroke: #cc79a7"/>
     <use xlink:href="#me7e6866297" x="544.161054" y="705.467592" style="fill: #cc79a7; stroke: #cc79a7"/>
     <use xlink:href="#me7e6866297" x="544.415069" y="712.200641" style="fill: #cc79a7; stroke: #cc79a7"/>
     <use xlink:href="#me7e6866297" x="549.359487" y="710.073703" style="fill: #cc79a7; stroke: #cc79a7"/>
     <use xlink:href="#me7e6866297" x="550.337739" y="717.45492" style="fill: #cc79a7; stroke: #cc79a7"/>
     <use xlink:href="#me7e6866297" x="550.165866" y="707.888154" style="fill: #cc79a7; stroke: #cc79a7"/>
     <use xlink:href="#me7e6866297" x="546.084903" y="712.17543" style="fill: #cc79a7; stroke: #cc79a7"/>
     <use xlink:href="#me7e6866297" x="547.031752" y="723.199254" style="fill: #cc79a7; stroke: #cc79a7"/>
     <use xlink:href="#me7e6866297" x="555.682292" y="702.262861" style="fill: #cc79a7; stroke: #cc79a7"/>
     <use xlink:href="#me7e6866297" x="543.844438" y="712.786696" style="fill: #cc79a7; stroke: #cc79a7"/>
    </g>
   </g>
   <g id="patch_12">
    <path d="M 149.2875 791.666855 
L 170.2125 791.666855 
L 170.2125 778.289213 
L 149.2875 778.289213 
L 149.2875 791.666855 
z
" clip-path="url(#pf1caa24ec0)" style="fill: #d55e00; opacity: 0.5; stroke: #000000; stroke-linejoin: miter"/>
   </g>
   <g id="line2d_39">
    <path d="M 159.75 791.666855 
L 159.75 810.325535 
" clip-path="url(#pf1caa24ec0)" style="fill: none; stroke: #000000; stroke-linecap: round"/>
   </g>
   <g id="line2d_40">
    <path d="M 159.75 778.289213 
L 159.75 764.134192 
" clip-path="url(#pf1caa24ec0)" style="fill: none; stroke: #000000; stroke-linecap: round"/>
   </g>
   <g id="line2d_41">
    <path d="M 154.51875 810.325535 
L 164.98125 810.325535 
" clip-path="url(#pf1caa24ec0)" style="fill: none; stroke: #000000; stroke-linecap: round"/>
   </g>
   <g id="line2d_42">
    <path d="M 154.51875 764.134192 
L 164.98125 764.134192 
" clip-path="url(#pf1caa24ec0)" style="fill: none; stroke: #000000; stroke-linecap: round"/>
   </g>
   <g id="patch_13">
    <path d="M 288.7875 774.548955 
L 309.7125 774.548955 
L 309.7125 719.368065 
L 288.7875 719.368065 
L 288.7875 774.548955 
z
" clip-path="url(#pf1caa24ec0)" style="fill: #0072b2; opacity: 0.5; stroke: #000000; stroke-linejoin: miter"/>
   </g>
   <g id="line2d_43">
    <path d="M 299.25 774.548955 
L 299.25 822.814061 
" clip-path="url(#pf1caa24ec0)" style="fill: none; stroke: #000000; stroke-linecap: round"/>
   </g>
   <g id="line2d_44">
    <path d="M 299.25 719.368065 
L 299.25 646.315457 
" clip-path="url(#pf1caa24ec0)" style="fill: none; stroke: #000000; stroke-linecap: round"/>
   </g>
   <g id="line2d_45">
    <path d="M 294.01875 822.814061 
L 304.48125 822.814061 
" clip-path="url(#pf1caa24ec0)" style="fill: none; stroke: #000000; stroke-linecap: round"/>
   </g>
   <g id="line2d_46">
    <path d="M 294.01875 646.315457 
L 304.48125 646.315457 
" clip-path="url(#pf1caa24ec0)" style="fill: none; stroke: #000000; stroke-linecap: round"/>
   </g>
   <g id="patch_14">
    <path d="M 428.2875 825.348047 
L 449.2125 825.348047 
L 449.2125 816.076625 
L 428.2875 816.076625 
L 428.2875 825.348047 
z
" clip-path="url(#pf1caa24ec0)" style="fill: #009e73; opacity: 0.5; stroke: #000000; stroke-linejoin: miter"/>
   </g>
   <g id="line2d_47">
    <path d="M 438.75 825.348047 
L 438.75 838.425051 
" clip-path="url(#pf1caa24ec0)" style="fill: none; stroke: #000000; stroke-linecap: round"/>
   </g>
   <g id="line2d_48">
    <path d="M 438.75 816.076625 
L 438.75 805.466547 
" clip-path="url(#pf1caa24ec0)" style="fill: none; stroke: #000000; stroke-linecap: round"/>
   </g>
   <g id="line2d_49">
    <path d="M 433.51875 838.425051 
L 443.98125 838.425051 
" clip-path="url(#pf1caa24ec0)" style="fill: none; stroke: #000000; stroke-linecap: round"/>
   </g>
   <g id="line2d_50">
    <path d="M 433.51875 805.466547 
L 443.98125 805.466547 
" clip-path="url(#pf1caa24ec0)" style="fill: none; stroke: #000000; stroke-linecap: round"/>
   </g>
   <g id="patch_15">
    <path d="M 567.7875 718.558368 
L 588.7125 718.558368 
L 588.7125 709.410678 
L 567.7875 709.410678 
L 567.7875 718.558368 
z
" clip-path="url(#pf1caa24ec0)" style="fill: #cc79a7; opacity: 0.5; stroke: #000000; stroke-linejoin: miter"/>
   </g>
   <g id="line2d_51">
    <path d="M 578.25 718.558368 
L 578.25 729.346324 
" clip-path="url(#pf1caa24ec0)" style="fill: none; stroke: #000000; stroke-linecap: round"/>
   </g>
   <g id="line2d_52">
    <path d="M 578.25 709.410678 
L 578.25 702.262861 
" clip-path="url(#pf1caa24ec0)" style="fill: none; stroke: #000000; stroke-linecap: round"/>
   </g>
   <g id="line2d_53">
    <path d="M 573.01875 729.346324 
L 583.48125 729.346324 
" clip-path="url(#pf1caa24ec0)" style="fill: none; stroke: #000000; stroke-linecap: round"/>
   </g>
   <g id="line2d_54">
    <path d="M 573.01875 702.262861 
L 583.48125 702.262861 
" clip-path="url(#pf1caa24ec0)" style="fill: none; stroke: #000000; stroke-linecap: round"/>
   </g>
   <g id="line2d_55">
    <path d="M 149.2875 787.266228 
L 170.2125 787.266228 
" clip-path="url(#pf1caa24ec0)" style="fill: none; stroke: #000000"/>
   </g>
   <g id="line2d_56">
    <path d="M 288.7875 742.03157 
L 309.7125 742.03157 
" clip-path="url(#pf1caa24ec0)" style="fill: none; stroke: #000000"/>
   </g>
   <g id="line2d_57">
    <path d="M 428.2875 820.663217 
L 449.2125 820.663217 
" clip-path="url(#pf1caa24ec0)" style="fill: none; stroke: #000000"/>
   </g>
   <g id="line2d_58">
    <path d="M 567.7875 714.923486 
L 588.7125 714.923486 
" clip-path="url(#pf1caa24ec0)" style="fill: none; stroke: #000000"/>
   </g>
   <g id="patch_16">
    <path d="M 90 961.2 
L 90 583.2 
" style="fill: none; stroke: #262626; stroke-width: 1.25; stroke-linejoin: miter; stroke-linecap: square"/>
   </g>
   <g id="patch_17">
    <path d="M 648 961.2 
L 648 583.2 
" style="fill: none; stroke: #262626; stroke-width: 1.25; stroke-linejoin: miter; stroke-linecap: square"/>
   </g>
   <g id="patch_18">
    <path d="M 90 961.2 
L 648 961.2 
" style="fill: none; stroke: #262626; stroke-width: 1.25; stroke-linejoin: miter; stroke-linecap: square"/>
   </g>
   <g id="patch_19">
    <path d="M 90 583.2 
L 648 583.2 
" style="fill: none; stroke: #262626; stroke-width: 1.25; stroke-linejoin: miter; stroke-linecap: square"/>
   </g>
   <g id="text_22">
    <!-- HF-HRV -->
    <g style="fill: #262626" transform="translate(342.681094 563.2) scale(0.14 -0.14)">
     <defs>
      <path id="Arial-BoldMT-48" d="M 469 0 
L 469 4581 
L 1394 4581 
L 1394 2778 
L 3206 2778 
L 3206 4581 
L 4131 4581 
L 4131 0 
L 3206 0 
L 3206 2003 
L 1394 2003 
L 1394 0 
L 469 0 
z
" transform="scale(0.015625)"/>
      <path id="Arial-BoldMT-46" d="M 472 0 
L 472 4581 
L 3613 4581 
L 3613 3806 
L 1397 3806 
L 1397 2722 
L 3309 2722 
L 3309 1947 
L 1397 1947 
L 1397 0 
L 472 0 
z
" transform="scale(0.015625)"/>
      <path id="Arial-BoldMT-2d" d="M 359 1222 
L 359 2100 
L 2084 2100 
L 2084 1222 
L 359 1222 
z
" transform="scale(0.015625)"/>
      <path id="Arial-BoldMT-52" d="M 469 0 
L 469 4581 
L 2416 4581 
Q 3150 4581 3483 4457 
Q 3816 4334 4016 4018 
Q 4216 3703 4216 3297 
Q 4216 2781 3912 2445 
Q 3609 2109 3006 2022 
Q 3306 1847 3501 1637 
Q 3697 1428 4028 894 
L 4588 0 
L 3481 0 
L 2813 997 
Q 2456 1531 2325 1670 
Q 2194 1809 2047 1861 
Q 1900 1913 1581 1913 
L 1394 1913 
L 1394 0 
L 469 0 
z
M 1394 2644 
L 2078 2644 
Q 2744 2644 2909 2700 
Q 3075 2756 3169 2893 
Q 3263 3031 3263 3238 
Q 3263 3469 3139 3611 
Q 3016 3753 2791 3791 
Q 2678 3806 2116 3806 
L 1394 3806 
L 1394 2644 
z
" transform="scale(0.015625)"/>
      <path id="Arial-BoldMT-56" d="M 1634 0 
L -3 4581 
L 1000 4581 
L 2159 1191 
L 3281 4581 
L 4263 4581 
L 2622 0 
L 1634 0 
z
" transform="scale(0.015625)"/>
     </defs>
     <use xlink:href="#Arial-BoldMT-48"/>
     <use xlink:href="#Arial-BoldMT-46" x="72.216797"/>
     <use xlink:href="#Arial-BoldMT-2d" x="133.300781"/>
     <use xlink:href="#Arial-BoldMT-48" x="166.601562"/>
     <use xlink:href="#Arial-BoldMT-52" x="238.818359"/>
     <use xlink:href="#Arial-BoldMT-56" x="309.285156"/>
    </g>
   </g>
  </g>
 </g>
 <defs>
  <clipPath id="p8c15a5cf41">
   <rect x="90" y="129.6" width="558" height="378"/>
  </clipPath>
  <clipPath id="pf1caa24ec0">
   <rect x="90" y="583.2" width="558" height="378"/>
  </clipPath>
 </defs>
</svg>
