<?xml version="1.0" encoding="utf-8" standalone="no"?>
<!DOCTYPE svg PUBLIC "-//W3C//DTD SVG 1.1//EN"
  "http://www.w3.org/Graphics/SVG/1.1/DTD/svg11.dtd">
<svg xmlns:xlink="http://www.w3.org/1999/xlink" width="720pt" height="720pt" viewBox="0 0 720 720" xmlns="http://www.w3.org/2000/svg" version="1.1">
 <metadata>
  <rdf:RDF xmlns:dc="http://purl.org/dc/elements/1.1/" xmlns:cc="http://creativecommons.org/ns#" xmlns:rdf="http://www.w3.org/1999/02/22-rdf-syntax-ns#">
   <cc:Work>
    <dc:type rdf:resource="http://purl.org/dc/dcmitype/StillImage"/>
    <dc:date>2024-08-23T16:46:27.251082</dc:date>
    <dc:format>image/svg+xml</dc:format>
    <dc:creator>
     <cc:Agent>
      <dc:title>Matplotlib v3.8.0, https://matplotlib.org/</dc:title>
     </cc:Agent>
    </dc:creator>
   </cc:Work>
  </rdf:RDF>
 </metadata>
 <defs>
  <style type="text/css">*{stroke-linejoin: round; stroke-linecap: butt}</style>
 </defs>
 <g id="figure_1">
  <g id="patch_1">
   <path d="M 0 720 
L 720 720 
L 720 0 
L 0 0 
z
" style="fill: #ffffff"/>
  </g>
  <g id="axes_1">
   <g id="patch_2">
    <path d="M 90 338.4 
L 648 338.4 
L 648 86.4 
L 90 86.4 
z
" style="fill: #ffffff"/>
   </g>
   <g id="matplotlib.axis_1">
    <g id="xtick_1">
     <g id="line2d_1">
      <defs>
       <path id="m5336b2b41a" d="M 0 0 
L 0 6 
" style="stroke: #262626; stroke-width: 1.25"/>
      </defs>
      <g>
       <use xlink:href="#m5336b2b41a" x="94.536585" y="338.4" style="fill: #262626; stroke: #262626; stroke-width: 1.25"/>
      </g>
     </g>
     <g id="text_1">
      <!-- 0 -->
      <g style="fill: #262626" transform="translate(91.47807 355.773594) scale(0.11 -0.11)">
       <defs>
        <path id="ArialMT-30" d="M 266 2259 
Q 266 3072 433 3567 
Q 600 4063 929 4331 
Q 1259 4600 1759 4600 
Q 2128 4600 2406 4451 
Q 2684 4303 2865 4023 
Q 3047 3744 3150 3342 
Q 3253 2941 3253 2259 
Q 3253 1453 3087 958 
Q 2922 463 2592 192 
Q 2263 -78 1759 -78 
Q 1097 -78 719 397 
Q 266 969 266 2259 
z
M 844 2259 
Q 844 1131 1108 757 
Q 1372 384 1759 384 
Q 2147 384 2411 759 
Q 2675 1134 2675 2259 
Q 2675 3391 2411 3762 
Q 2147 4134 1753 4134 
Q 1366 4134 1134 3806 
Q 844 3388 844 2259 
z
" transform="scale(0.015625)"/>
       </defs>
       <use xlink:href="#ArialMT-30"/>
      </g>
     </g>
    </g>
    <g id="xtick_2">
     <g id="line2d_2">
      <g>
       <use xlink:href="#m5336b2b41a" x="185.268293" y="338.4" style="fill: #262626; stroke: #262626; stroke-width: 1.25"/>
      </g>
     </g>
     <g id="text_2">
      <!-- 20 -->
      <g style="fill: #262626" transform="translate(179.151261 355.773594) scale(0.11 -0.11)">
       <defs>
        <path id="ArialMT-32" d="M 3222 541 
L 3222 0 
L 194 0 
Q 188 203 259 391 
Q 375 700 629 1000 
Q 884 1300 1366 1694 
Q 2113 2306 2375 2664 
Q 2638 3022 2638 3341 
Q 2638 3675 2398 3904 
Q 2159 4134 1775 4134 
Q 1369 4134 1125 3890 
Q 881 3647 878 3216 
L 300 3275 
Q 359 3922 746 4261 
Q 1134 4600 1788 4600 
Q 2447 4600 2831 4234 
Q 3216 3869 3216 3328 
Q 3216 3053 3103 2787 
Q 2991 2522 2730 2228 
Q 2469 1934 1863 1422 
Q 1356 997 1212 845 
Q 1069 694 975 541 
L 3222 541 
z
" transform="scale(0.015625)"/>
       </defs>
       <use xlink:href="#ArialMT-32"/>
       <use xlink:href="#ArialMT-30" x="55.615234"/>
      </g>
     </g>
    </g>
    <g id="xtick_3">
     <g id="line2d_3">
      <g>
       <use xlink:href="#m5336b2b41a" x="276" y="338.4" style="fill: #262626; stroke: #262626; stroke-width: 1.25"/>
      </g>
     </g>
     <g id="text_3">
      <!-- 40 -->
      <g style="fill: #262626" transform="translate(269.882969 355.773594) scale(0.11 -0.11)">
       <defs>
        <path id="ArialMT-34" d="M 2069 0 
L 2069 1097 
L 81 1097 
L 81 1613 
L 2172 4581 
L 2631 4581 
L 2631 1613 
L 3250 1613 
L 3250 1097 
L 2631 1097 
L 2631 0 
L 2069 0 
z
M 2069 1613 
L 2069 3678 
L 634 1613 
L 2069 1613 
z
" transform="scale(0.015625)"/>
       </defs>
       <use xlink:href="#ArialMT-34"/>
       <use xlink:href="#ArialMT-30" x="55.615234"/>
      </g>
     </g>
    </g>
    <g id="xtick_4">
     <g id="line2d_4">
      <g>
       <use xlink:href="#m5336b2b41a" x="366.731707" y="338.4" style="fill: #262626; stroke: #262626; stroke-width: 1.25"/>
      </g>
     </g>
     <g id="text_4">
      <!-- 60 -->
      <g style="fill: #262626" transform="translate(360.614676 355.773594) scale(0.11 -0.11)">
       <defs>
        <path id="ArialMT-36" d="M 3184 3459 
L 2625 3416 
Q 2550 3747 2413 3897 
Q 2184 4138 1850 4138 
Q 1581 4138 1378 3988 
Q 1113 3794 959 3422 
Q 806 3050 800 2363 
Q 1003 2672 1297 2822 
Q 1591 2972 1913 2972 
Q 2475 2972 2870 2558 
Q 3266 2144 3266 1488 
Q 3266 1056 3080 686 
Q 2894 316 2569 119 
Q 2244 -78 1831 -78 
Q 1128 -78 684 439 
Q 241 956 241 2144 
Q 241 3472 731 4075 
Q 1159 4600 1884 4600 
Q 2425 4600 2770 4297 
Q 3116 3994 3184 3459 
z
M 888 1484 
Q 888 1194 1011 928 
Q 1134 663 1356 523 
Q 1578 384 1822 384 
Q 2178 384 2434 671 
Q 2691 959 2691 1453 
Q 2691 1928 2437 2201 
Q 2184 2475 1800 2475 
Q 1419 2475 1153 2201 
Q 888 1928 888 1484 
z
" transform="scale(0.015625)"/>
       </defs>
       <use xlink:href="#ArialMT-36"/>
       <use xlink:href="#ArialMT-30" x="55.615234"/>
      </g>
     </g>
    </g>
    <g id="xtick_5">
     <g id="line2d_5">
      <g>
       <use xlink:href="#m5336b2b41a" x="457.463415" y="338.4" style="fill: #262626; stroke: #262626; stroke-width: 1.25"/>
      </g>
     </g>
     <g id="text_5">
      <!-- 80 -->
      <g style="fill: #262626" transform="translate(451.346383 355.773594) scale(0.11 -0.11)">
       <defs>
        <path id="ArialMT-38" d="M 1131 2484 
Q 781 2613 612 2850 
Q 444 3088 444 3419 
Q 444 3919 803 4259 
Q 1163 4600 1759 4600 
Q 2359 4600 2725 4251 
Q 3091 3903 3091 3403 
Q 3091 3084 2923 2848 
Q 2756 2613 2416 2484 
Q 2838 2347 3058 2040 
Q 3278 1734 3278 1309 
Q 3278 722 2862 322 
Q 2447 -78 1769 -78 
Q 1091 -78 675 323 
Q 259 725 259 1325 
Q 259 1772 486 2073 
Q 713 2375 1131 2484 
z
M 1019 3438 
Q 1019 3113 1228 2906 
Q 1438 2700 1772 2700 
Q 2097 2700 2305 2904 
Q 2513 3109 2513 3406 
Q 2513 3716 2298 3927 
Q 2084 4138 1766 4138 
Q 1444 4138 1231 3931 
Q 1019 3725 1019 3438 
z
M 838 1322 
Q 838 1081 952 856 
Q 1066 631 1291 507 
Q 1516 384 1775 384 
Q 2178 384 2440 643 
Q 2703 903 2703 1303 
Q 2703 1709 2433 1975 
Q 2163 2241 1756 2241 
Q 1359 2241 1098 1978 
Q 838 1716 838 1322 
z
" transform="scale(0.015625)"/>
       </defs>
       <use xlink:href="#ArialMT-38"/>
       <use xlink:href="#ArialMT-30" x="55.615234"/>
      </g>
     </g>
    </g>
    <g id="xtick_6">
     <g id="line2d_6">
      <g>
       <use xlink:href="#m5336b2b41a" x="548.195122" y="338.4" style="fill: #262626; stroke: #262626; stroke-width: 1.25"/>
      </g>
     </g>
     <g id="text_6">
      <!-- 100 -->
      <g style="fill: #262626" transform="translate(539.019575 355.773594) scale(0.11 -0.11)">
       <defs>
        <path id="ArialMT-31" d="M 2384 0 
L 1822 0 
L 1822 3584 
Q 1619 3391 1289 3197 
Q 959 3003 697 2906 
L 697 3450 
Q 1169 3672 1522 3987 
Q 1875 4303 2022 4600 
L 2384 4600 
L 2384 0 
z
" transform="scale(0.015625)"/>
       </defs>
       <use xlink:href="#ArialMT-31"/>
       <use xlink:href="#ArialMT-30" x="55.615234"/>
       <use xlink:href="#ArialMT-30" x="111.230469"/>
      </g>
     </g>
    </g>
    <g id="xtick_7">
     <g id="line2d_7">
      <g>
       <use xlink:href="#m5336b2b41a" x="638.926829" y="338.4" style="fill: #262626; stroke: #262626; stroke-width: 1.25"/>
      </g>
     </g>
     <g id="text_7">
      <!-- 120 -->
      <g style="fill: #262626" transform="translate(629.751282 355.773594) scale(0.11 -0.11)">
       <use xlink:href="#ArialMT-31"/>
       <use xlink:href="#ArialMT-32" x="55.615234"/>
       <use xlink:href="#ArialMT-30" x="111.230469"/>
      </g>
     </g>
    </g>
   </g>
   <g id="matplotlib.axis_2">
    <g id="ytick_1">
     <g id="line2d_8">
      <defs>
       <path id="m5f6f47f4b2" d="M 0 0 
L -6 0 
" style="stroke: #262626; stroke-width: 1.25"/>
      </defs>
      <g>
       <use xlink:href="#m5f6f47f4b2" x="90" y="288.431038" style="fill: #262626; stroke: #262626; stroke-width: 1.25"/>
      </g>
     </g>
     <g id="text_8">
      <!-- −2 -->
      <g style="fill: #262626" transform="translate(67.958281 292.367835) scale(0.11 -0.11)">
       <defs>
        <path id="ArialMT-2212" d="M 3381 1997 
L 356 1997 
L 356 2522 
L 3381 2522 
L 3381 1997 
z
" transform="scale(0.015625)"/>
       </defs>
       <use xlink:href="#ArialMT-2212"/>
       <use xlink:href="#ArialMT-32" x="58.398438"/>
      </g>
     </g>
    </g>
    <g id="ytick_2">
     <g id="line2d_9">
      <g>
       <use xlink:href="#m5f6f47f4b2" x="90" y="237.874417" style="fill: #262626; stroke: #262626; stroke-width: 1.25"/>
      </g>
     </g>
     <g id="text_9">
      <!-- −1 -->
      <g style="fill: #262626" transform="translate(67.958281 241.811214) scale(0.11 -0.11)">
       <use xlink:href="#ArialMT-2212"/>
       <use xlink:href="#ArialMT-31" x="58.398438"/>
      </g>
     </g>
    </g>
    <g id="ytick_3">
     <g id="line2d_10">
      <g>
       <use xlink:href="#m5f6f47f4b2" x="90" y="187.317796" style="fill: #262626; stroke: #262626; stroke-width: 1.25"/>
      </g>
     </g>
     <g id="text_10">
      <!-- 0 -->
      <g style="fill: #262626" transform="translate(74.382969 191.254593) scale(0.11 -0.11)">
       <use xlink:href="#ArialMT-30"/>
      </g>
     </g>
    </g>
    <g id="ytick_4">
     <g id="line2d_11">
      <g>
       <use xlink:href="#m5f6f47f4b2" x="90" y="136.761175" style="fill: #262626; stroke: #262626; stroke-width: 1.25"/>
      </g>
     </g>
     <g id="text_11">
      <!-- 1 -->
      <g style="fill: #262626" transform="translate(74.382969 140.697971) scale(0.11 -0.11)">
       <use xlink:href="#ArialMT-31"/>
      </g>
     </g>
    </g>
    <g id="text_12">
     <!-- Power (z-scored) -->
     <g style="fill: #262626" transform="translate(45.432656 258.074062) rotate(-90) scale(0.12 -0.12)">
      <defs>
       <path id="ArialMT-50" d="M 494 0 
L 494 4581 
L 2222 4581 
Q 2678 4581 2919 4538 
Q 3256 4481 3484 4323 
Q 3713 4166 3852 3881 
Q 3991 3597 3991 3256 
Q 3991 2672 3619 2267 
Q 3247 1863 2275 1863 
L 1100 1863 
L 1100 0 
L 494 0 
z
M 1100 2403 
L 2284 2403 
Q 2872 2403 3119 2622 
Q 3366 2841 3366 3238 
Q 3366 3525 3220 3729 
Q 3075 3934 2838 4000 
Q 2684 4041 2272 4041 
L 1100 4041 
L 1100 2403 
z
" transform="scale(0.015625)"/>
       <path id="ArialMT-6f" d="M 213 1659 
Q 213 2581 725 3025 
Q 1153 3394 1769 3394 
Q 2453 3394 2887 2945 
Q 3322 2497 3322 1706 
Q 3322 1066 3130 698 
Q 2938 331 2570 128 
Q 2203 -75 1769 -75 
Q 1072 -75 642 372 
Q 213 819 213 1659 
z
M 791 1659 
Q 791 1022 1069 705 
Q 1347 388 1769 388 
Q 2188 388 2466 706 
Q 2744 1025 2744 1678 
Q 2744 2294 2464 2611 
Q 2184 2928 1769 2928 
Q 1347 2928 1069 2612 
Q 791 2297 791 1659 
z
" transform="scale(0.015625)"/>
       <path id="ArialMT-77" d="M 1034 0 
L 19 3319 
L 600 3319 
L 1128 1403 
L 1325 691 
Q 1338 744 1497 1375 
L 2025 3319 
L 2603 3319 
L 3100 1394 
L 3266 759 
L 3456 1400 
L 4025 3319 
L 4572 3319 
L 3534 0 
L 2950 0 
L 2422 1988 
L 2294 2553 
L 1622 0 
L 1034 0 
z
" transform="scale(0.015625)"/>
       <path id="ArialMT-65" d="M 2694 1069 
L 3275 997 
Q 3138 488 2766 206 
Q 2394 -75 1816 -75 
Q 1088 -75 661 373 
Q 234 822 234 1631 
Q 234 2469 665 2931 
Q 1097 3394 1784 3394 
Q 2450 3394 2872 2941 
Q 3294 2488 3294 1666 
Q 3294 1616 3291 1516 
L 816 1516 
Q 847 969 1125 678 
Q 1403 388 1819 388 
Q 2128 388 2347 550 
Q 2566 713 2694 1069 
z
M 847 1978 
L 2700 1978 
Q 2663 2397 2488 2606 
Q 2219 2931 1791 2931 
Q 1403 2931 1139 2672 
Q 875 2413 847 1978 
z
" transform="scale(0.015625)"/>
       <path id="ArialMT-72" d="M 416 0 
L 416 3319 
L 922 3319 
L 922 2816 
Q 1116 3169 1280 3281 
Q 1444 3394 1641 3394 
Q 1925 3394 2219 3213 
L 2025 2691 
Q 1819 2813 1613 2813 
Q 1428 2813 1281 2702 
Q 1134 2591 1072 2394 
Q 978 2094 978 1738 
L 978 0 
L 416 0 
z
" transform="scale(0.015625)"/>
       <path id="ArialMT-20" transform="scale(0.015625)"/>
       <path id="ArialMT-28" d="M 1497 -1347 
Q 1031 -759 709 28 
Q 388 816 388 1659 
Q 388 2403 628 3084 
Q 909 3875 1497 4659 
L 1900 4659 
Q 1522 4009 1400 3731 
Q 1209 3300 1100 2831 
Q 966 2247 966 1656 
Q 966 153 1900 -1347 
L 1497 -1347 
z
" transform="scale(0.015625)"/>
       <path id="ArialMT-7a" d="M 125 0 
L 125 456 
L 2238 2881 
Q 1878 2863 1603 2863 
L 250 2863 
L 250 3319 
L 2963 3319 
L 2963 2947 
L 1166 841 
L 819 456 
Q 1197 484 1528 484 
L 3063 484 
L 3063 0 
L 125 0 
z
" transform="scale(0.015625)"/>
       <path id="ArialMT-2d" d="M 203 1375 
L 203 1941 
L 1931 1941 
L 1931 1375 
L 203 1375 
z
" transform="scale(0.015625)"/>
       <path id="ArialMT-73" d="M 197 991 
L 753 1078 
Q 800 744 1014 566 
Q 1228 388 1613 388 
Q 2000 388 2187 545 
Q 2375 703 2375 916 
Q 2375 1106 2209 1216 
Q 2094 1291 1634 1406 
Q 1016 1563 777 1677 
Q 538 1791 414 1992 
Q 291 2194 291 2438 
Q 291 2659 392 2848 
Q 494 3038 669 3163 
Q 800 3259 1026 3326 
Q 1253 3394 1513 3394 
Q 1903 3394 2198 3281 
Q 2494 3169 2634 2976 
Q 2775 2784 2828 2463 
L 2278 2388 
Q 2241 2644 2061 2787 
Q 1881 2931 1553 2931 
Q 1166 2931 1000 2803 
Q 834 2675 834 2503 
Q 834 2394 903 2306 
Q 972 2216 1119 2156 
Q 1203 2125 1616 2013 
Q 2213 1853 2448 1751 
Q 2684 1650 2818 1456 
Q 2953 1263 2953 975 
Q 2953 694 2789 445 
Q 2625 197 2315 61 
Q 2006 -75 1616 -75 
Q 969 -75 630 194 
Q 291 463 197 991 
z
" transform="scale(0.015625)"/>
       <path id="ArialMT-63" d="M 2588 1216 
L 3141 1144 
Q 3050 572 2676 248 
Q 2303 -75 1759 -75 
Q 1078 -75 664 370 
Q 250 816 250 1647 
Q 250 2184 428 2587 
Q 606 2991 970 3192 
Q 1334 3394 1763 3394 
Q 2303 3394 2647 3120 
Q 2991 2847 3088 2344 
L 2541 2259 
Q 2463 2594 2264 2762 
Q 2066 2931 1784 2931 
Q 1359 2931 1093 2626 
Q 828 2322 828 1663 
Q 828 994 1084 691 
Q 1341 388 1753 388 
Q 2084 388 2306 591 
Q 2528 794 2588 1216 
z
" transform="scale(0.015625)"/>
       <path id="ArialMT-64" d="M 2575 0 
L 2575 419 
Q 2259 -75 1647 -75 
Q 1250 -75 917 144 
Q 584 363 401 755 
Q 219 1147 219 1656 
Q 219 2153 384 2558 
Q 550 2963 881 3178 
Q 1213 3394 1622 3394 
Q 1922 3394 2156 3267 
Q 2391 3141 2538 2938 
L 2538 4581 
L 3097 4581 
L 3097 0 
L 2575 0 
z
M 797 1656 
Q 797 1019 1065 703 
Q 1334 388 1700 388 
Q 2069 388 2326 689 
Q 2584 991 2584 1609 
Q 2584 2291 2321 2609 
Q 2059 2928 1675 2928 
Q 1300 2928 1048 2622 
Q 797 2316 797 1656 
z
" transform="scale(0.015625)"/>
       <path id="ArialMT-29" d="M 791 -1347 
L 388 -1347 
Q 1322 153 1322 1656 
Q 1322 2244 1188 2822 
Q 1081 3291 891 3722 
Q 769 4003 388 4659 
L 791 4659 
Q 1378 3875 1659 3084 
Q 1900 2403 1900 1659 
Q 1900 816 1576 28 
Q 1253 -759 791 -1347 
z
" transform="scale(0.015625)"/>
      </defs>
      <use xlink:href="#ArialMT-50"/>
      <use xlink:href="#ArialMT-6f" x="66.699219"/>
      <use xlink:href="#ArialMT-77" x="122.314453"/>
      <use xlink:href="#ArialMT-65" x="194.53125"/>
      <use xlink:href="#ArialMT-72" x="250.146484"/>
      <use xlink:href="#ArialMT-20" x="283.447266"/>
      <use xlink:href="#ArialMT-28" x="311.230469"/>
      <use xlink:href="#ArialMT-7a" x="344.53125"/>
      <use xlink:href="#ArialMT-2d" x="394.53125"/>
      <use xlink:href="#ArialMT-73" x="427.832031"/>
      <use xlink:href="#ArialMT-63" x="477.832031"/>
      <use xlink:href="#ArialMT-6f" x="527.832031"/>
      <use xlink:href="#ArialMT-72" x="583.447266"/>
      <use xlink:href="#ArialMT-65" x="616.748047"/>
      <use xlink:href="#ArialMT-64" x="672.363281"/>
      <use xlink:href="#ArialMT-29" x="727.978516"/>
     </g>
    </g>
   </g>
   <g id="LineCollection_1">
    <path d="M 94.536585 144.722476 
L 99.073171 144.034639 
" clip-path="url(#p9d386ecf76)" style="fill: none; stroke: #d55e00; stroke-width: 2"/>
    <path d="M 99.073171 144.034639 
L 103.609756 144.207315 
" clip-path="url(#p9d386ecf76)" style="fill: none; stroke: #d55e00; stroke-width: 2"/>
    <path d="M 103.609756 144.207315 
L 108.146341 143.927208 
" clip-path="url(#p9d386ecf76)" style="fill: none; stroke: #d55e00; stroke-width: 2"/>
    <path d="M 108.146341 143.927208 
L 112.682927 143.679242 
" clip-path="url(#p9d386ecf76)" style="fill: none; stroke: #d55e00; stroke-width: 2"/>
    <path d="M 112.682927 143.679242 
L 117.219512 143.575332 
" clip-path="url(#p9d386ecf76)" style="fill: none; stroke: #d55e00; stroke-width: 2"/>
    <path d="M 117.219512 143.575332 
L 121.756098 143.256405 
" clip-path="url(#p9d386ecf76)" style="fill: none; stroke: #d55e00; stroke-width: 2"/>
    <path d="M 121.756098 143.256405 
L 126.292683 144.077762 
" clip-path="url(#p9d386ecf76)" style="fill: none; stroke: #d55e00; stroke-width: 2"/>
    <path d="M 126.292683 144.077762 
L 130.829268 144.061666 
" clip-path="url(#p9d386ecf76)" style="fill: none; stroke: #d55e00; stroke-width: 2"/>
    <path d="M 130.829268 144.061666 
L 135.365854 144.681345 
" clip-path="url(#p9d386ecf76)" style="fill: none; stroke: #d55e00; stroke-width: 2"/>
    <path d="M 135.365854 144.681345 
L 139.902439 160.478065 
" clip-path="url(#p9d386ecf76)" style="fill: none; stroke: #d55e00; stroke-width: 2"/>
    <path d="M 139.902439 160.478065 
L 144.439024 157.719534 
" clip-path="url(#p9d386ecf76)" style="fill: none; stroke: #d55e00; stroke-width: 2"/>
    <path d="M 144.439024 157.719534 
L 148.97561 157.034853 
" clip-path="url(#p9d386ecf76)" style="fill: none; stroke: #d55e00; stroke-width: 2"/>
    <path d="M 148.97561 157.034853 
L 153.512195 156.680528 
" clip-path="url(#p9d386ecf76)" style="fill: none; stroke: #d55e00; stroke-width: 2"/>
    <path d="M 153.512195 156.680528 
L 158.04878 156.626287 
" clip-path="url(#p9d386ecf76)" style="fill: none; stroke: #d55e00; stroke-width: 2"/>
    <path d="M 158.04878 156.626287 
L 162.585366 156.344826 
" clip-path="url(#p9d386ecf76)" style="fill: none; stroke: #d55e00; stroke-width: 2"/>
    <path d="M 162.585366 156.344826 
L 167.121951 156.361708 
" clip-path="url(#p9d386ecf76)" style="fill: none; stroke: #d55e00; stroke-width: 2"/>
    <path d="M 167.121951 156.361708 
L 171.658537 156.297854 
" clip-path="url(#p9d386ecf76)" style="fill: none; stroke: #d55e00; stroke-width: 2"/>
    <path d="M 171.658537 156.297854 
L 176.195122 156.411761 
" clip-path="url(#p9d386ecf76)" style="fill: none; stroke: #d55e00; stroke-width: 2"/>
    <path d="M 176.195122 156.411761 
L 180.731707 156.357481 
" clip-path="url(#p9d386ecf76)" style="fill: none; stroke: #d55e00; stroke-width: 2"/>
    <path d="M 180.731707 156.357481 
L 185.268293 156.451577 
" clip-path="url(#p9d386ecf76)" style="fill: none; stroke: #d55e00; stroke-width: 2"/>
    <path d="M 185.268293 156.451577 
L 189.804878 156.788278 
" clip-path="url(#p9d386ecf76)" style="fill: none; stroke: #d55e00; stroke-width: 2"/>
    <path d="M 189.804878 156.788278 
L 194.341463 156.138548 
" clip-path="url(#p9d386ecf76)" style="fill: none; stroke: #d55e00; stroke-width: 2"/>
    <path d="M 194.341463 156.138548 
L 198.878049 156.198875 
" clip-path="url(#p9d386ecf76)" style="fill: none; stroke: #d55e00; stroke-width: 2"/>
    <path d="M 198.878049 156.198875 
L 203.414634 156.166807 
" clip-path="url(#p9d386ecf76)" style="fill: none; stroke: #d55e00; stroke-width: 2"/>
    <path d="M 203.414634 156.166807 
L 207.95122 156.625767 
" clip-path="url(#p9d386ecf76)" style="fill: none; stroke: #d55e00; stroke-width: 2"/>
    <path d="M 207.95122 156.625767 
L 212.487805 156.043839 
" clip-path="url(#p9d386ecf76)" style="fill: none; stroke: #d55e00; stroke-width: 2"/>
    <path d="M 212.487805 156.043839 
L 217.02439 155.725448 
" clip-path="url(#p9d386ecf76)" style="fill: none; stroke: #d55e00; stroke-width: 2"/>
    <path d="M 217.02439 155.725448 
L 221.560976 155.664246 
" clip-path="url(#p9d386ecf76)" style="fill: none; stroke: #d55e00; stroke-width: 2"/>
    <path d="M 221.560976 155.664246 
L 226.097561 155.546411 
" clip-path="url(#p9d386ecf76)" style="fill: none; stroke: #d55e00; stroke-width: 2"/>
    <path d="M 226.097561 155.546411 
L 230.634146 155.833815 
" clip-path="url(#p9d386ecf76)" style="fill: none; stroke: #d55e00; stroke-width: 2"/>
    <path d="M 230.634146 155.833815 
L 235.170732 155.194146 
" clip-path="url(#p9d386ecf76)" style="fill: none; stroke: #d55e00; stroke-width: 2"/>
    <path d="M 235.170732 155.194146 
L 239.707317 155.123569 
" clip-path="url(#p9d386ecf76)" style="fill: none; stroke: #d55e00; stroke-width: 2"/>
    <path d="M 239.707317 155.123569 
L 244.243902 155.235521 
" clip-path="url(#p9d386ecf76)" style="fill: none; stroke: #d55e00; stroke-width: 2"/>
    <path d="M 244.243902 155.235521 
L 248.780488 154.757594 
" clip-path="url(#p9d386ecf76)" style="fill: none; stroke: #d55e00; stroke-width: 2"/>
    <path d="M 248.780488 154.757594 
L 253.317073 154.694909 
" clip-path="url(#p9d386ecf76)" style="fill: none; stroke: #d55e00; stroke-width: 2"/>
    <path d="M 253.317073 154.694909 
L 257.853659 154.555886 
" clip-path="url(#p9d386ecf76)" style="fill: none; stroke: #d55e00; stroke-width: 2"/>
    <path d="M 257.853659 154.555886 
L 262.390244 154.389078 
" clip-path="url(#p9d386ecf76)" style="fill: none; stroke: #d55e00; stroke-width: 2"/>
    <path d="M 262.390244 154.389078 
L 266.926829 154.720828 
" clip-path="url(#p9d386ecf76)" style="fill: none; stroke: #d55e00; stroke-width: 2"/>
    <path d="M 266.926829 154.720828 
L 271.463415 154.598325 
" clip-path="url(#p9d386ecf76)" style="fill: none; stroke: #d55e00; stroke-width: 2"/>
    <path d="M 271.463415 154.598325 
L 276 154.580968 
" clip-path="url(#p9d386ecf76)" style="fill: none; stroke: #d55e00; stroke-width: 2"/>
    <path d="M 276 154.580968 
L 280.536585 154.119047 
" clip-path="url(#p9d386ecf76)" style="fill: none; stroke: #d55e00; stroke-width: 2"/>
    <path d="M 280.536585 154.119047 
L 285.073171 163.1265 
" clip-path="url(#p9d386ecf76)" style="fill: none; stroke: #d55e00; stroke-width: 2"/>
    <path d="M 285.073171 163.1265 
L 289.609756 161.863713 
" clip-path="url(#p9d386ecf76)" style="fill: none; stroke: #d55e00; stroke-width: 2"/>
    <path d="M 289.609756 161.863713 
L 294.146341 159.750095 
" clip-path="url(#p9d386ecf76)" style="fill: none; stroke: #d55e00; stroke-width: 2"/>
    <path d="M 294.146341 159.750095 
L 298.682927 158.496441 
" clip-path="url(#p9d386ecf76)" style="fill: none; stroke: #d55e00; stroke-width: 2"/>
    <path d="M 298.682927 158.496441 
L 303.219512 158.332128 
" clip-path="url(#p9d386ecf76)" style="fill: none; stroke: #d55e00; stroke-width: 2"/>
    <path d="M 303.219512 158.332128 
L 307.756098 158.146498 
" clip-path="url(#p9d386ecf76)" style="fill: none; stroke: #d55e00; stroke-width: 2"/>
    <path d="M 307.756098 158.146498 
L 312.292683 158.359611 
" clip-path="url(#p9d386ecf76)" style="fill: none; stroke: #d55e00; stroke-width: 2"/>
    <path d="M 312.292683 158.359611 
L 316.829268 158.557195 
" clip-path="url(#p9d386ecf76)" style="fill: none; stroke: #d55e00; stroke-width: 2"/>
    <path d="M 316.829268 158.557195 
L 321.365854 158.941773 
" clip-path="url(#p9d386ecf76)" style="fill: none; stroke: #d55e00; stroke-width: 2"/>
    <path d="M 321.365854 158.941773 
L 325.902439 158.313927 
" clip-path="url(#p9d386ecf76)" style="fill: none; stroke: #d55e00; stroke-width: 2"/>
    <path d="M 325.902439 158.313927 
L 330.439024 140.937188 
" clip-path="url(#p9d386ecf76)" style="fill: none; stroke: #d55e00; stroke-width: 2"/>
    <path d="M 330.439024 140.937188 
L 334.97561 136.956621 
" clip-path="url(#p9d386ecf76)" style="fill: none; stroke: #d55e00; stroke-width: 2"/>
    <path d="M 334.97561 136.956621 
L 339.512195 136.956621 
" clip-path="url(#p9d386ecf76)" style="fill: none; stroke: #d55e00; stroke-width: 2"/>
    <path d="M 339.512195 136.956621 
L 344.04878 136.956621 
" clip-path="url(#p9d386ecf76)" style="fill: none; stroke: #d55e00; stroke-width: 2"/>
    <path d="M 344.04878 136.956621 
L 348.585366 136.956621 
" clip-path="url(#p9d386ecf76)" style="fill: none; stroke: #d55e00; stroke-width: 2"/>
    <path d="M 348.585366 136.956621 
L 353.121951 136.956621 
" clip-path="url(#p9d386ecf76)" style="fill: none; stroke: #d55e00; stroke-width: 2"/>
    <path d="M 353.121951 136.956621 
L 357.658537 136.956621 
" clip-path="url(#p9d386ecf76)" style="fill: none; stroke: #009e73; stroke-width: 2"/>
    <path d="M 357.658537 136.956621 
L 362.195122 136.956621 
" clip-path="url(#p9d386ecf76)" style="fill: none; stroke: #009e73; stroke-width: 2"/>
    <path d="M 362.195122 136.956621 
L 366.731707 136.956621 
" clip-path="url(#p9d386ecf76)" style="fill: none; stroke: #009e73; stroke-width: 2"/>
    <path d="M 366.731707 136.956621 
L 371.268293 202.648155 
" clip-path="url(#p9d386ecf76)" style="fill: none; stroke: #009e73; stroke-width: 2"/>
    <path d="M 371.268293 202.648155 
L 375.804878 226.06702 
" clip-path="url(#p9d386ecf76)" style="fill: none; stroke: #009e73; stroke-width: 2"/>
    <path d="M 375.804878 226.06702 
L 380.341463 235.003593 
" clip-path="url(#p9d386ecf76)" style="fill: none; stroke: #009e73; stroke-width: 2"/>
    <path d="M 380.341463 235.003593 
L 384.878049 247.545357 
" clip-path="url(#p9d386ecf76)" style="fill: none; stroke: #009e73; stroke-width: 2"/>
    <path d="M 384.878049 247.545357 
L 389.414634 261.302086 
" clip-path="url(#p9d386ecf76)" style="fill: none; stroke: #009e73; stroke-width: 2"/>
    <path d="M 389.414634 261.302086 
L 393.95122 268.896259 
" clip-path="url(#p9d386ecf76)" style="fill: none; stroke: #009e73; stroke-width: 2"/>
    <path d="M 393.95122 268.896259 
L 398.487805 273.184504 
" clip-path="url(#p9d386ecf76)" style="fill: none; stroke: #009e73; stroke-width: 2"/>
    <path d="M 398.487805 273.184504 
L 403.02439 275.744313 
" clip-path="url(#p9d386ecf76)" style="fill: none; stroke: #009e73; stroke-width: 2"/>
    <path d="M 403.02439 275.744313 
L 407.560976 276.324242 
" clip-path="url(#p9d386ecf76)" style="fill: none; stroke: #009e73; stroke-width: 2"/>
    <path d="M 407.560976 276.324242 
L 412.097561 271.8814 
" clip-path="url(#p9d386ecf76)" style="fill: none; stroke: #009e73; stroke-width: 2"/>
    <path d="M 412.097561 271.8814 
L 416.634146 270.859922 
" clip-path="url(#p9d386ecf76)" style="fill: none; stroke: #009e73; stroke-width: 2"/>
    <path d="M 416.634146 270.859922 
L 421.170732 273.140174 
" clip-path="url(#p9d386ecf76)" style="fill: none; stroke: #009e73; stroke-width: 2"/>
    <path d="M 421.170732 273.140174 
L 425.707317 273.045576 
" clip-path="url(#p9d386ecf76)" style="fill: none; stroke: #009e73; stroke-width: 2"/>
    <path d="M 425.707317 273.045576 
L 430.243902 270.764454 
" clip-path="url(#p9d386ecf76)" style="fill: none; stroke: #009e73; stroke-width: 2"/>
    <path d="M 430.243902 270.764454 
L 434.780488 284.030776 
" clip-path="url(#p9d386ecf76)" style="fill: none; stroke: #009e73; stroke-width: 2"/>
    <path d="M 434.780488 284.030776 
L 439.317073 287.843379 
" clip-path="url(#p9d386ecf76)" style="fill: none; stroke: #009e73; stroke-width: 2"/>
    <path d="M 439.317073 287.843379 
L 443.853659 286.713578 
" clip-path="url(#p9d386ecf76)" style="fill: none; stroke: #009e73; stroke-width: 2"/>
    <path d="M 443.853659 286.713578 
L 448.390244 285.48077 
" clip-path="url(#p9d386ecf76)" style="fill: none; stroke: #009e73; stroke-width: 2"/>
    <path d="M 448.390244 285.48077 
L 452.926829 285.190352 
" clip-path="url(#p9d386ecf76)" style="fill: none; stroke: #009e73; stroke-width: 2"/>
    <path d="M 452.926829 285.190352 
L 457.463415 284.50994 
" clip-path="url(#p9d386ecf76)" style="fill: none; stroke: #009e73; stroke-width: 2"/>
    <path d="M 457.463415 284.50994 
L 462 283.92544 
" clip-path="url(#p9d386ecf76)" style="fill: none; stroke: #009e73; stroke-width: 2"/>
    <path d="M 462 283.92544 
L 466.536585 273.769386 
" clip-path="url(#p9d386ecf76)" style="fill: none; stroke: #009e73; stroke-width: 2"/>
    <path d="M 466.536585 273.769386 
L 471.073171 270.346315 
" clip-path="url(#p9d386ecf76)" style="fill: none; stroke: #009e73; stroke-width: 2"/>
    <path d="M 471.073171 270.346315 
L 475.609756 262.483691 
" clip-path="url(#p9d386ecf76)" style="fill: none; stroke: #009e73; stroke-width: 2"/>
    <path d="M 475.609756 262.483691 
L 480.146341 263.128512 
" clip-path="url(#p9d386ecf76)" style="fill: none; stroke: #009e73; stroke-width: 2"/>
    <path d="M 480.146341 263.128512 
L 484.682927 263.883264 
" clip-path="url(#p9d386ecf76)" style="fill: none; stroke: #009e73; stroke-width: 2"/>
    <path d="M 484.682927 263.883264 
L 489.219512 264.91589 
" clip-path="url(#p9d386ecf76)" style="fill: none; stroke: #009e73; stroke-width: 2"/>
    <path d="M 489.219512 264.91589 
L 493.756098 266.17615 
" clip-path="url(#p9d386ecf76)" style="fill: none; stroke: #009e73; stroke-width: 2"/>
    <path d="M 493.756098 266.17615 
L 498.292683 251.310605 
" clip-path="url(#p9d386ecf76)" style="fill: none; stroke: #009e73; stroke-width: 2"/>
    <path d="M 498.292683 251.310605 
L 502.829268 248.392176 
" clip-path="url(#p9d386ecf76)" style="fill: none; stroke: #0072b2; stroke-width: 2"/>
    <path d="M 502.829268 248.392176 
L 507.365854 250.504809 
" clip-path="url(#p9d386ecf76)" style="fill: none; stroke: #0072b2; stroke-width: 2"/>
    <path d="M 507.365854 250.504809 
L 511.902439 251.164283 
" clip-path="url(#p9d386ecf76)" style="fill: none; stroke: #0072b2; stroke-width: 2"/>
    <path d="M 511.902439 251.164283 
L 516.439024 250.831376 
" clip-path="url(#p9d386ecf76)" style="fill: none; stroke: #0072b2; stroke-width: 2"/>
    <path d="M 516.439024 250.831376 
L 520.97561 251.227561 
" clip-path="url(#p9d386ecf76)" style="fill: none; stroke: #0072b2; stroke-width: 2"/>
    <path d="M 520.97561 251.227561 
L 525.512195 250.285286 
" clip-path="url(#p9d386ecf76)" style="fill: none; stroke: #0072b2; stroke-width: 2"/>
    <path d="M 525.512195 250.285286 
L 530.04878 251.237758 
" clip-path="url(#p9d386ecf76)" style="fill: none; stroke: #0072b2; stroke-width: 2"/>
    <path d="M 530.04878 251.237758 
L 534.585366 251.679887 
" clip-path="url(#p9d386ecf76)" style="fill: none; stroke: #0072b2; stroke-width: 2"/>
    <path d="M 534.585366 251.679887 
L 539.121951 250.86434 
" clip-path="url(#p9d386ecf76)" style="fill: none; stroke: #0072b2; stroke-width: 2"/>
    <path d="M 539.121951 250.86434 
L 543.658537 250.237407 
" clip-path="url(#p9d386ecf76)" style="fill: none; stroke: #0072b2; stroke-width: 2"/>
    <path d="M 543.658537 250.237407 
L 548.195122 249.760946 
" clip-path="url(#p9d386ecf76)" style="fill: none; stroke: #0072b2; stroke-width: 2"/>
    <path d="M 548.195122 249.760946 
L 552.731707 251.774287 
" clip-path="url(#p9d386ecf76)" style="fill: none; stroke: #0072b2; stroke-width: 2"/>
    <path d="M 552.731707 251.774287 
L 557.268293 249.936219 
" clip-path="url(#p9d386ecf76)" style="fill: none; stroke: #0072b2; stroke-width: 2"/>
    <path d="M 557.268293 249.936219 
L 561.804878 249.559123 
" clip-path="url(#p9d386ecf76)" style="fill: none; stroke: #0072b2; stroke-width: 2"/>
    <path d="M 561.804878 249.559123 
L 566.341463 249.469216 
" clip-path="url(#p9d386ecf76)" style="fill: none; stroke: #0072b2; stroke-width: 2"/>
    <path d="M 566.341463 249.469216 
L 570.878049 243.693582 
" clip-path="url(#p9d386ecf76)" style="fill: none; stroke: #0072b2; stroke-width: 2"/>
    <path d="M 570.878049 243.693582 
L 575.414634 249.413641 
" clip-path="url(#p9d386ecf76)" style="fill: none; stroke: #0072b2; stroke-width: 2"/>
    <path d="M 575.414634 249.413641 
L 579.95122 256.450712 
" clip-path="url(#p9d386ecf76)" style="fill: none; stroke: #0072b2; stroke-width: 2"/>
    <path d="M 579.95122 256.450712 
L 584.487805 253.55971 
" clip-path="url(#p9d386ecf76)" style="fill: none; stroke: #0072b2; stroke-width: 2"/>
    <path d="M 584.487805 253.55971 
L 589.02439 252.559766 
" clip-path="url(#p9d386ecf76)" style="fill: none; stroke: #0072b2; stroke-width: 2"/>
    <path d="M 589.02439 252.559766 
L 593.560976 251.269321 
" clip-path="url(#p9d386ecf76)" style="fill: none; stroke: #0072b2; stroke-width: 2"/>
    <path d="M 593.560976 251.269321 
L 598.097561 251.802338 
" clip-path="url(#p9d386ecf76)" style="fill: none; stroke: #0072b2; stroke-width: 2"/>
    <path d="M 598.097561 251.802338 
L 602.634146 251.946666 
" clip-path="url(#p9d386ecf76)" style="fill: none; stroke: #0072b2; stroke-width: 2"/>
    <path d="M 602.634146 251.946666 
L 607.170732 253.136068 
" clip-path="url(#p9d386ecf76)" style="fill: none; stroke: #0072b2; stroke-width: 2"/>
    <path d="M 607.170732 253.136068 
L 611.707317 259.897442 
" clip-path="url(#p9d386ecf76)" style="fill: none; stroke: #0072b2; stroke-width: 2"/>
    <path d="M 611.707317 259.897442 
L 616.243902 258.585686 
" clip-path="url(#p9d386ecf76)" style="fill: none; stroke: #0072b2; stroke-width: 2"/>
    <path d="M 616.243902 258.585686 
L 620.780488 258.089592 
" clip-path="url(#p9d386ecf76)" style="fill: none; stroke: #0072b2; stroke-width: 2"/>
    <path d="M 620.780488 258.089592 
L 625.317073 256.710821 
" clip-path="url(#p9d386ecf76)" style="fill: none; stroke: #0072b2; stroke-width: 2"/>
    <path d="M 625.317073 256.710821 
L 629.853659 255.711179 
" clip-path="url(#p9d386ecf76)" style="fill: none; stroke: #0072b2; stroke-width: 2"/>
    <path d="M 629.853659 255.711179 
L 634.390244 256.269407 
" clip-path="url(#p9d386ecf76)" style="fill: none; stroke: #0072b2; stroke-width: 2"/>
    <path d="M 634.390244 256.269407 
L 638.926829 261.567661 
" clip-path="url(#p9d386ecf76)" style="fill: none; stroke: #0072b2; stroke-width: 2"/>
   </g>
   <g id="patch_3">
    <path d="M 90 338.4 
L 90 86.4 
" style="fill: none; stroke: #262626; stroke-width: 1.25; stroke-linejoin: miter; stroke-linecap: square"/>
   </g>
   <g id="patch_4">
    <path d="M 648 338.4 
L 648 86.4 
" style="fill: none; stroke: #262626; stroke-width: 1.25; stroke-linejoin: miter; stroke-linecap: square"/>
   </g>
   <g id="patch_5">
    <path d="M 90 338.4 
L 648 338.4 
" style="fill: none; stroke: #262626; stroke-width: 1.25; stroke-linejoin: miter; stroke-linecap: square"/>
   </g>
   <g id="patch_6">
    <path d="M 90 86.4 
L 648 86.4 
" style="fill: none; stroke: #262626; stroke-width: 1.25; stroke-linejoin: miter; stroke-linecap: square"/>
   </g>
   <g id="text_13">
    <!-- Valence -->
    <g style="fill: #262626" transform="translate(342.925 80.4) scale(0.14 -0.14)">
     <defs>
      <path id="Arial-BoldMT-56" d="M 1634 0 
L -3 4581 
L 1000 4581 
L 2159 1191 
L 3281 4581 
L 4263 4581 
L 2622 0 
L 1634 0 
z
" transform="scale(0.015625)"/>
      <path id="Arial-BoldMT-61" d="M 1116 2306 
L 319 2450 
Q 453 2931 781 3162 
Q 1109 3394 1756 3394 
Q 2344 3394 2631 3255 
Q 2919 3116 3036 2902 
Q 3153 2688 3153 2116 
L 3144 1091 
Q 3144 653 3186 445 
Q 3228 238 3344 0 
L 2475 0 
Q 2441 88 2391 259 
Q 2369 338 2359 363 
Q 2134 144 1878 34 
Q 1622 -75 1331 -75 
Q 819 -75 523 203 
Q 228 481 228 906 
Q 228 1188 362 1408 
Q 497 1628 739 1745 
Q 981 1863 1438 1950 
Q 2053 2066 2291 2166 
L 2291 2253 
Q 2291 2506 2166 2614 
Q 2041 2722 1694 2722 
Q 1459 2722 1328 2630 
Q 1197 2538 1116 2306 
z
M 2291 1594 
Q 2122 1538 1756 1459 
Q 1391 1381 1278 1306 
Q 1106 1184 1106 997 
Q 1106 813 1243 678 
Q 1381 544 1594 544 
Q 1831 544 2047 700 
Q 2206 819 2256 991 
Q 2291 1103 2291 1419 
L 2291 1594 
z
" transform="scale(0.015625)"/>
      <path id="Arial-BoldMT-6c" d="M 459 0 
L 459 4581 
L 1338 4581 
L 1338 0 
L 459 0 
z
" transform="scale(0.015625)"/>
      <path id="Arial-BoldMT-65" d="M 2381 1056 
L 3256 909 
Q 3088 428 2723 176 
Q 2359 -75 1813 -75 
Q 947 -75 531 491 
Q 203 944 203 1634 
Q 203 2459 634 2926 
Q 1066 3394 1725 3394 
Q 2466 3394 2894 2905 
Q 3322 2416 3303 1406 
L 1103 1406 
Q 1113 1016 1316 798 
Q 1519 581 1822 581 
Q 2028 581 2168 693 
Q 2309 806 2381 1056 
z
M 2431 1944 
Q 2422 2325 2234 2523 
Q 2047 2722 1778 2722 
Q 1491 2722 1303 2513 
Q 1116 2303 1119 1944 
L 2431 1944 
z
" transform="scale(0.015625)"/>
      <path id="Arial-BoldMT-6e" d="M 3478 0 
L 2600 0 
L 2600 1694 
Q 2600 2231 2544 2389 
Q 2488 2547 2361 2634 
Q 2234 2722 2056 2722 
Q 1828 2722 1647 2597 
Q 1466 2472 1398 2265 
Q 1331 2059 1331 1503 
L 1331 0 
L 453 0 
L 453 3319 
L 1269 3319 
L 1269 2831 
Q 1703 3394 2363 3394 
Q 2653 3394 2893 3289 
Q 3134 3184 3257 3021 
Q 3381 2859 3429 2653 
Q 3478 2447 3478 2063 
L 3478 0 
z
" transform="scale(0.015625)"/>
      <path id="Arial-BoldMT-63" d="M 3353 2338 
L 2488 2181 
Q 2444 2441 2289 2572 
Q 2134 2703 1888 2703 
Q 1559 2703 1364 2476 
Q 1169 2250 1169 1719 
Q 1169 1128 1367 884 
Q 1566 641 1900 641 
Q 2150 641 2309 783 
Q 2469 925 2534 1272 
L 3397 1125 
Q 3263 531 2881 228 
Q 2500 -75 1859 -75 
Q 1131 -75 698 384 
Q 266 844 266 1656 
Q 266 2478 700 2936 
Q 1134 3394 1875 3394 
Q 2481 3394 2839 3133 
Q 3197 2872 3353 2338 
z
" transform="scale(0.015625)"/>
     </defs>
     <use xlink:href="#Arial-BoldMT-56"/>
     <use xlink:href="#Arial-BoldMT-61" x="61.199219"/>
     <use xlink:href="#Arial-BoldMT-6c" x="116.814453"/>
     <use xlink:href="#Arial-BoldMT-65" x="144.597656"/>
     <use xlink:href="#Arial-BoldMT-6e" x="200.212891"/>
     <use xlink:href="#Arial-BoldMT-63" x="261.296875"/>
     <use xlink:href="#Arial-BoldMT-65" x="316.912109"/>
    </g>
   </g>
   <g id="legend_1">
    <g id="patch_7">
     <path d="M 570.24375 141.879531 
L 640.3 141.879531 
Q 642.5 141.879531 642.5 139.679531 
L 642.5 94.1 
Q 642.5 91.9 640.3 91.9 
L 570.24375 91.9 
Q 568.04375 91.9 568.04375 94.1 
L 568.04375 139.679531 
Q 568.04375 141.879531 570.24375 141.879531 
z
" style="fill: #ffffff; opacity: 0.8; stroke: #cccccc; stroke-linejoin: miter"/>
    </g>
    <g id="line2d_12">
     <path d="M 572.44375 100.323594 
L 583.44375 100.323594 
L 594.44375 100.323594 
" style="fill: none; stroke: #d55e00; stroke-width: 2; stroke-linecap: round"/>
    </g>
    <g id="text_14">
     <!-- State 1 -->
     <g style="fill: #262626" transform="translate(603.24375 104.173594) scale(0.11 -0.11)">
      <defs>
       <path id="ArialMT-53" d="M 288 1472 
L 859 1522 
Q 900 1178 1048 958 
Q 1197 738 1509 602 
Q 1822 466 2213 466 
Q 2559 466 2825 569 
Q 3091 672 3220 851 
Q 3350 1031 3350 1244 
Q 3350 1459 3225 1620 
Q 3100 1781 2813 1891 
Q 2628 1963 1997 2114 
Q 1366 2266 1113 2400 
Q 784 2572 623 2826 
Q 463 3081 463 3397 
Q 463 3744 659 4045 
Q 856 4347 1234 4503 
Q 1613 4659 2075 4659 
Q 2584 4659 2973 4495 
Q 3363 4331 3572 4012 
Q 3781 3694 3797 3291 
L 3216 3247 
Q 3169 3681 2898 3903 
Q 2628 4125 2100 4125 
Q 1550 4125 1298 3923 
Q 1047 3722 1047 3438 
Q 1047 3191 1225 3031 
Q 1400 2872 2139 2705 
Q 2878 2538 3153 2413 
Q 3553 2228 3743 1945 
Q 3934 1663 3934 1294 
Q 3934 928 3725 604 
Q 3516 281 3123 101 
Q 2731 -78 2241 -78 
Q 1619 -78 1198 103 
Q 778 284 539 648 
Q 300 1013 288 1472 
z
" transform="scale(0.015625)"/>
       <path id="ArialMT-74" d="M 1650 503 
L 1731 6 
Q 1494 -44 1306 -44 
Q 1000 -44 831 53 
Q 663 150 594 308 
Q 525 466 525 972 
L 525 2881 
L 113 2881 
L 113 3319 
L 525 3319 
L 525 4141 
L 1084 4478 
L 1084 3319 
L 1650 3319 
L 1650 2881 
L 1084 2881 
L 1084 941 
Q 1084 700 1114 631 
Q 1144 563 1211 522 
Q 1278 481 1403 481 
Q 1497 481 1650 503 
z
" transform="scale(0.015625)"/>
       <path id="ArialMT-61" d="M 2588 409 
Q 2275 144 1986 34 
Q 1697 -75 1366 -75 
Q 819 -75 525 192 
Q 231 459 231 875 
Q 231 1119 342 1320 
Q 453 1522 633 1644 
Q 813 1766 1038 1828 
Q 1203 1872 1538 1913 
Q 2219 1994 2541 2106 
Q 2544 2222 2544 2253 
Q 2544 2597 2384 2738 
Q 2169 2928 1744 2928 
Q 1347 2928 1158 2789 
Q 969 2650 878 2297 
L 328 2372 
Q 403 2725 575 2942 
Q 747 3159 1072 3276 
Q 1397 3394 1825 3394 
Q 2250 3394 2515 3294 
Q 2781 3194 2906 3042 
Q 3031 2891 3081 2659 
Q 3109 2516 3109 2141 
L 3109 1391 
Q 3109 606 3145 398 
Q 3181 191 3288 0 
L 2700 0 
Q 2613 175 2588 409 
z
M 2541 1666 
Q 2234 1541 1622 1453 
Q 1275 1403 1131 1340 
Q 988 1278 909 1158 
Q 831 1038 831 891 
Q 831 666 1001 516 
Q 1172 366 1500 366 
Q 1825 366 2078 508 
Q 2331 650 2450 897 
Q 2541 1088 2541 1459 
L 2541 1666 
z
" transform="scale(0.015625)"/>
      </defs>
      <use xlink:href="#ArialMT-53"/>
      <use xlink:href="#ArialMT-74" x="66.699219"/>
      <use xlink:href="#ArialMT-61" x="94.482422"/>
      <use xlink:href="#ArialMT-74" x="150.097656"/>
      <use xlink:href="#ArialMT-65" x="177.880859"/>
      <use xlink:href="#ArialMT-20" x="233.496094"/>
      <use xlink:href="#ArialMT-31" x="261.279297"/>
     </g>
    </g>
    <g id="line2d_13">
     <path d="M 572.44375 115.883438 
L 583.44375 115.883438 
L 594.44375 115.883438 
" style="fill: none; stroke: #0072b2; stroke-width: 2; stroke-linecap: round"/>
    </g>
    <g id="text_15">
     <!-- State 2 -->
     <g style="fill: #262626" transform="translate(603.24375 119.733438) scale(0.11 -0.11)">
      <use xlink:href="#ArialMT-53"/>
      <use xlink:href="#ArialMT-74" x="66.699219"/>
      <use xlink:href="#ArialMT-61" x="94.482422"/>
      <use xlink:href="#ArialMT-74" x="150.097656"/>
      <use xlink:href="#ArialMT-65" x="177.880859"/>
      <use xlink:href="#ArialMT-20" x="233.496094"/>
      <use xlink:href="#ArialMT-32" x="261.279297"/>
     </g>
    </g>
    <g id="line2d_14">
     <path d="M 572.44375 131.443281 
L 583.44375 131.443281 
L 594.44375 131.443281 
" style="fill: none; stroke: #009e73; stroke-width: 2; stroke-linecap: round"/>
    </g>
    <g id="text_16">
     <!-- State 3 -->
     <g style="fill: #262626" transform="translate(603.24375 135.293281) scale(0.11 -0.11)">
      <defs>
       <path id="ArialMT-33" d="M 269 1209 
L 831 1284 
Q 928 806 1161 595 
Q 1394 384 1728 384 
Q 2125 384 2398 659 
Q 2672 934 2672 1341 
Q 2672 1728 2419 1979 
Q 2166 2231 1775 2231 
Q 1616 2231 1378 2169 
L 1441 2663 
Q 1497 2656 1531 2656 
Q 1891 2656 2178 2843 
Q 2466 3031 2466 3422 
Q 2466 3731 2256 3934 
Q 2047 4138 1716 4138 
Q 1388 4138 1169 3931 
Q 950 3725 888 3313 
L 325 3413 
Q 428 3978 793 4289 
Q 1159 4600 1703 4600 
Q 2078 4600 2393 4439 
Q 2709 4278 2876 4000 
Q 3044 3722 3044 3409 
Q 3044 3113 2884 2869 
Q 2725 2625 2413 2481 
Q 2819 2388 3044 2092 
Q 3269 1797 3269 1353 
Q 3269 753 2831 336 
Q 2394 -81 1725 -81 
Q 1122 -81 723 278 
Q 325 638 269 1209 
z
" transform="scale(0.015625)"/>
      </defs>
      <use xlink:href="#ArialMT-53"/>
      <use xlink:href="#ArialMT-74" x="66.699219"/>
      <use xlink:href="#ArialMT-61" x="94.482422"/>
      <use xlink:href="#ArialMT-74" x="150.097656"/>
      <use xlink:href="#ArialMT-65" x="177.880859"/>
      <use xlink:href="#ArialMT-20" x="233.496094"/>
      <use xlink:href="#ArialMT-33" x="261.279297"/>
     </g>
    </g>
   </g>
  </g>
  <g id="axes_2">
   <g id="patch_8">
    <path d="M 90 640.8 
L 648 640.8 
L 648 388.8 
L 90 388.8 
z
" style="fill: #ffffff"/>
   </g>
   <g id="matplotlib.axis_3">
    <g id="xtick_8">
     <g id="line2d_15">
      <g>
       <use xlink:href="#m5336b2b41a" x="94.536585" y="640.8" style="fill: #262626; stroke: #262626; stroke-width: 1.25"/>
      </g>
     </g>
     <g id="text_17">
      <!-- 0 -->
      <g style="fill: #262626" transform="translate(91.47807 658.173594) scale(0.11 -0.11)">
       <use xlink:href="#ArialMT-30"/>
      </g>
     </g>
    </g>
    <g id="xtick_9">
     <g id="line2d_16">
      <g>
       <use xlink:href="#m5336b2b41a" x="185.268293" y="640.8" style="fill: #262626; stroke: #262626; stroke-width: 1.25"/>
      </g>
     </g>
     <g id="text_18">
      <!-- 20 -->
      <g style="fill: #262626" transform="translate(179.151261 658.173594) scale(0.11 -0.11)">
       <use xlink:href="#ArialMT-32"/>
       <use xlink:href="#ArialMT-30" x="55.615234"/>
      </g>
     </g>
    </g>
    <g id="xtick_10">
     <g id="line2d_17">
      <g>
       <use xlink:href="#m5336b2b41a" x="276" y="640.8" style="fill: #262626; stroke: #262626; stroke-width: 1.25"/>
      </g>
     </g>
     <g id="text_19">
      <!-- 40 -->
      <g style="fill: #262626" transform="translate(269.882969 658.173594) scale(0.11 -0.11)">
       <use xlink:href="#ArialMT-34"/>
       <use xlink:href="#ArialMT-30" x="55.615234"/>
      </g>
     </g>
    </g>
    <g id="xtick_11">
     <g id="line2d_18">
      <g>
       <use xlink:href="#m5336b2b41a" x="366.731707" y="640.8" style="fill: #262626; stroke: #262626; stroke-width: 1.25"/>
      </g>
     </g>
     <g id="text_20">
      <!-- 60 -->
      <g style="fill: #262626" transform="translate(360.614676 658.173594) scale(0.11 -0.11)">
       <use xlink:href="#ArialMT-36"/>
       <use xlink:href="#ArialMT-30" x="55.615234"/>
      </g>
     </g>
    </g>
    <g id="xtick_12">
     <g id="line2d_19">
      <g>
       <use xlink:href="#m5336b2b41a" x="457.463415" y="640.8" style="fill: #262626; stroke: #262626; stroke-width: 1.25"/>
      </g>
     </g>
     <g id="text_21">
      <!-- 80 -->
      <g style="fill: #262626" transform="translate(451.346383 658.173594) scale(0.11 -0.11)">
       <use xlink:href="#ArialMT-38"/>
       <use xlink:href="#ArialMT-30" x="55.615234"/>
      </g>
     </g>
    </g>
    <g id="xtick_13">
     <g id="line2d_20">
      <g>
       <use xlink:href="#m5336b2b41a" x="548.195122" y="640.8" style="fill: #262626; stroke: #262626; stroke-width: 1.25"/>
      </g>
     </g>
     <g id="text_22">
      <!-- 100 -->
      <g style="fill: #262626" transform="translate(539.019575 658.173594) scale(0.11 -0.11)">
       <use xlink:href="#ArialMT-31"/>
       <use xlink:href="#ArialMT-30" x="55.615234"/>
       <use xlink:href="#ArialMT-30" x="111.230469"/>
      </g>
     </g>
    </g>
    <g id="xtick_14">
     <g id="line2d_21">
      <g>
       <use xlink:href="#m5336b2b41a" x="638.926829" y="640.8" style="fill: #262626; stroke: #262626; stroke-width: 1.25"/>
      </g>
     </g>
     <g id="text_23">
      <!-- 120 -->
      <g style="fill: #262626" transform="translate(629.751282 658.173594) scale(0.11 -0.11)">
       <use xlink:href="#ArialMT-31"/>
       <use xlink:href="#ArialMT-32" x="55.615234"/>
       <use xlink:href="#ArialMT-30" x="111.230469"/>
      </g>
     </g>
    </g>
    <g id="text_24">
     <!-- Time (s) -->
     <g style="fill: #262626" transform="translate(347.230313 673.095469) scale(0.12 -0.12)">
      <defs>
       <path id="ArialMT-54" d="M 1659 0 
L 1659 4041 
L 150 4041 
L 150 4581 
L 3781 4581 
L 3781 4041 
L 2266 4041 
L 2266 0 
L 1659 0 
z
" transform="scale(0.015625)"/>
       <path id="ArialMT-69" d="M 425 3934 
L 425 4581 
L 988 4581 
L 988 3934 
L 425 3934 
z
M 425 0 
L 425 3319 
L 988 3319 
L 988 0 
L 425 0 
z
" transform="scale(0.015625)"/>
       <path id="ArialMT-6d" d="M 422 0 
L 422 3319 
L 925 3319 
L 925 2853 
Q 1081 3097 1340 3245 
Q 1600 3394 1931 3394 
Q 2300 3394 2536 3241 
Q 2772 3088 2869 2813 
Q 3263 3394 3894 3394 
Q 4388 3394 4653 3120 
Q 4919 2847 4919 2278 
L 4919 0 
L 4359 0 
L 4359 2091 
Q 4359 2428 4304 2576 
Q 4250 2725 4106 2815 
Q 3963 2906 3769 2906 
Q 3419 2906 3187 2673 
Q 2956 2441 2956 1928 
L 2956 0 
L 2394 0 
L 2394 2156 
Q 2394 2531 2256 2718 
Q 2119 2906 1806 2906 
Q 1569 2906 1367 2781 
Q 1166 2656 1075 2415 
Q 984 2175 984 1722 
L 984 0 
L 422 0 
z
" transform="scale(0.015625)"/>
      </defs>
      <use xlink:href="#ArialMT-54"/>
      <use xlink:href="#ArialMT-69" x="57.333984"/>
      <use xlink:href="#ArialMT-6d" x="79.550781"/>
      <use xlink:href="#ArialMT-65" x="162.851562"/>
      <use xlink:href="#ArialMT-20" x="218.466797"/>
      <use xlink:href="#ArialMT-28" x="246.25"/>
      <use xlink:href="#ArialMT-73" x="279.550781"/>
      <use xlink:href="#ArialMT-29" x="329.550781"/>
     </g>
    </g>
   </g>
   <g id="matplotlib.axis_4">
    <g id="ytick_5">
     <g id="line2d_22">
      <g>
       <use xlink:href="#m5f6f47f4b2" x="90" y="626.849025" style="fill: #262626; stroke: #262626; stroke-width: 1.25"/>
      </g>
     </g>
     <g id="text_25">
      <!-- −1.5 -->
      <g style="fill: #262626" transform="translate(58.785313 630.785822) scale(0.11 -0.11)">
       <defs>
        <path id="ArialMT-2e" d="M 581 0 
L 581 641 
L 1222 641 
L 1222 0 
L 581 0 
z
" transform="scale(0.015625)"/>
        <path id="ArialMT-35" d="M 266 1200 
L 856 1250 
Q 922 819 1161 601 
Q 1400 384 1738 384 
Q 2144 384 2425 690 
Q 2706 997 2706 1503 
Q 2706 1984 2436 2262 
Q 2166 2541 1728 2541 
Q 1456 2541 1237 2417 
Q 1019 2294 894 2097 
L 366 2166 
L 809 4519 
L 3088 4519 
L 3088 3981 
L 1259 3981 
L 1013 2750 
Q 1425 3038 1878 3038 
Q 2478 3038 2890 2622 
Q 3303 2206 3303 1553 
Q 3303 931 2941 478 
Q 2500 -78 1738 -78 
Q 1113 -78 717 272 
Q 322 622 266 1200 
z
" transform="scale(0.015625)"/>
       </defs>
       <use xlink:href="#ArialMT-2212"/>
       <use xlink:href="#ArialMT-31" x="58.398438"/>
       <use xlink:href="#ArialMT-2e" x="114.013672"/>
       <use xlink:href="#ArialMT-35" x="141.796875"/>
      </g>
     </g>
    </g>
    <g id="ytick_6">
     <g id="line2d_23">
      <g>
       <use xlink:href="#m5f6f47f4b2" x="90" y="598.698477" style="fill: #262626; stroke: #262626; stroke-width: 1.25"/>
      </g>
     </g>
     <g id="text_26">
      <!-- −1.0 -->
      <g style="fill: #262626" transform="translate(58.785313 602.635274) scale(0.11 -0.11)">
       <use xlink:href="#ArialMT-2212"/>
       <use xlink:href="#ArialMT-31" x="58.398438"/>
       <use xlink:href="#ArialMT-2e" x="114.013672"/>
       <use xlink:href="#ArialMT-30" x="141.796875"/>
      </g>
     </g>
    </g>
    <g id="ytick_7">
     <g id="line2d_24">
      <g>
       <use xlink:href="#m5f6f47f4b2" x="90" y="570.547929" style="fill: #262626; stroke: #262626; stroke-width: 1.25"/>
      </g>
     </g>
     <g id="text_27">
      <!-- −0.5 -->
      <g style="fill: #262626" transform="translate(58.785313 574.484726) scale(0.11 -0.11)">
       <use xlink:href="#ArialMT-2212"/>
       <use xlink:href="#ArialMT-30" x="58.398438"/>
       <use xlink:href="#ArialMT-2e" x="114.013672"/>
       <use xlink:href="#ArialMT-35" x="141.796875"/>
      </g>
     </g>
    </g>
    <g id="ytick_8">
     <g id="line2d_25">
      <g>
       <use xlink:href="#m5f6f47f4b2" x="90" y="542.397381" style="fill: #262626; stroke: #262626; stroke-width: 1.25"/>
      </g>
     </g>
     <g id="text_28">
      <!-- 0.0 -->
      <g style="fill: #262626" transform="translate(65.21 546.334178) scale(0.11 -0.11)">
       <use xlink:href="#ArialMT-30"/>
       <use xlink:href="#ArialMT-2e" x="55.615234"/>
       <use xlink:href="#ArialMT-30" x="83.398438"/>
      </g>
     </g>
    </g>
    <g id="ytick_9">
     <g id="line2d_26">
      <g>
       <use xlink:href="#m5f6f47f4b2" x="90" y="514.246833" style="fill: #262626; stroke: #262626; stroke-width: 1.25"/>
      </g>
     </g>
     <g id="text_29">
      <!-- 0.5 -->
      <g style="fill: #262626" transform="translate(65.21 518.18363) scale(0.11 -0.11)">
       <use xlink:href="#ArialMT-30"/>
       <use xlink:href="#ArialMT-2e" x="55.615234"/>
       <use xlink:href="#ArialMT-35" x="83.398438"/>
      </g>
     </g>
    </g>
    <g id="ytick_10">
     <g id="line2d_27">
      <g>
       <use xlink:href="#m5f6f47f4b2" x="90" y="486.096285" style="fill: #262626; stroke: #262626; stroke-width: 1.25"/>
      </g>
     </g>
     <g id="text_30">
      <!-- 1.0 -->
      <g style="fill: #262626" transform="translate(65.21 490.033082) scale(0.11 -0.11)">
       <use xlink:href="#ArialMT-31"/>
       <use xlink:href="#ArialMT-2e" x="55.615234"/>
       <use xlink:href="#ArialMT-30" x="83.398438"/>
      </g>
     </g>
    </g>
    <g id="ytick_11">
     <g id="line2d_28">
      <g>
       <use xlink:href="#m5f6f47f4b2" x="90" y="457.945737" style="fill: #262626; stroke: #262626; stroke-width: 1.25"/>
      </g>
     </g>
     <g id="text_31">
      <!-- 1.5 -->
      <g style="fill: #262626" transform="translate(65.21 461.882534) scale(0.11 -0.11)">
       <use xlink:href="#ArialMT-31"/>
       <use xlink:href="#ArialMT-2e" x="55.615234"/>
       <use xlink:href="#ArialMT-35" x="83.398438"/>
      </g>
     </g>
    </g>
    <g id="ytick_12">
     <g id="line2d_29">
      <g>
       <use xlink:href="#m5f6f47f4b2" x="90" y="429.79519" style="fill: #262626; stroke: #262626; stroke-width: 1.25"/>
      </g>
     </g>
     <g id="text_32">
      <!-- 2.0 -->
      <g style="fill: #262626" transform="translate(65.21 433.731986) scale(0.11 -0.11)">
       <use xlink:href="#ArialMT-32"/>
       <use xlink:href="#ArialMT-2e" x="55.615234"/>
       <use xlink:href="#ArialMT-30" x="83.398438"/>
      </g>
     </g>
    </g>
    <g id="ytick_13">
     <g id="line2d_30">
      <g>
       <use xlink:href="#m5f6f47f4b2" x="90" y="401.644642" style="fill: #262626; stroke: #262626; stroke-width: 1.25"/>
      </g>
     </g>
     <g id="text_33">
      <!-- 2.5 -->
      <g style="fill: #262626" transform="translate(65.21 405.581438) scale(0.11 -0.11)">
       <use xlink:href="#ArialMT-32"/>
       <use xlink:href="#ArialMT-2e" x="55.615234"/>
       <use xlink:href="#ArialMT-35" x="83.398438"/>
      </g>
     </g>
    </g>
    <g id="text_34">
     <!-- Power (z-scored) -->
     <g style="fill: #262626" transform="translate(36.259687 560.474062) rotate(-90) scale(0.12 -0.12)">
      <use xlink:href="#ArialMT-50"/>
      <use xlink:href="#ArialMT-6f" x="66.699219"/>
      <use xlink:href="#ArialMT-77" x="122.314453"/>
      <use xlink:href="#ArialMT-65" x="194.53125"/>
      <use xlink:href="#ArialMT-72" x="250.146484"/>
      <use xlink:href="#ArialMT-20" x="283.447266"/>
      <use xlink:href="#ArialMT-28" x="311.230469"/>
      <use xlink:href="#ArialMT-7a" x="344.53125"/>
      <use xlink:href="#ArialMT-2d" x="394.53125"/>
      <use xlink:href="#ArialMT-73" x="427.832031"/>
      <use xlink:href="#ArialMT-63" x="477.832031"/>
      <use xlink:href="#ArialMT-6f" x="527.832031"/>
      <use xlink:href="#ArialMT-72" x="583.447266"/>
      <use xlink:href="#ArialMT-65" x="616.748047"/>
      <use xlink:href="#ArialMT-64" x="672.363281"/>
      <use xlink:href="#ArialMT-29" x="727.978516"/>
     </g>
    </g>
   </g>
   <g id="LineCollection_2">
    <path d="M 94.536585 584.498904 
L 99.073171 584.498904 
" clip-path="url(#pd4a5f1cfb5)" style="fill: none; stroke: #d55e00; stroke-width: 2"/>
    <path d="M 99.073171 584.498904 
L 103.609756 584.498904 
" clip-path="url(#pd4a5f1cfb5)" style="fill: none; stroke: #d55e00; stroke-width: 2"/>
    <path d="M 103.609756 584.498904 
L 108.146341 584.498904 
" clip-path="url(#pd4a5f1cfb5)" style="fill: none; stroke: #d55e00; stroke-width: 2"/>
    <path d="M 108.146341 584.498904 
L 112.682927 584.498904 
" clip-path="url(#pd4a5f1cfb5)" style="fill: none; stroke: #d55e00; stroke-width: 2"/>
    <path d="M 112.682927 584.498904 
L 117.219512 584.498904 
" clip-path="url(#pd4a5f1cfb5)" style="fill: none; stroke: #d55e00; stroke-width: 2"/>
    <path d="M 117.219512 584.498904 
L 121.756098 584.498904 
" clip-path="url(#pd4a5f1cfb5)" style="fill: none; stroke: #d55e00; stroke-width: 2"/>
    <path d="M 121.756098 584.498904 
L 126.292683 584.498904 
" clip-path="url(#pd4a5f1cfb5)" style="fill: none; stroke: #d55e00; stroke-width: 2"/>
    <path d="M 126.292683 584.498904 
L 130.829268 584.498904 
" clip-path="url(#pd4a5f1cfb5)" style="fill: none; stroke: #d55e00; stroke-width: 2"/>
    <path d="M 130.829268 584.498904 
L 135.365854 584.498904 
" clip-path="url(#pd4a5f1cfb5)" style="fill: none; stroke: #d55e00; stroke-width: 2"/>
    <path d="M 135.365854 584.498904 
L 139.902439 584.498904 
" clip-path="url(#pd4a5f1cfb5)" style="fill: none; stroke: #d55e00; stroke-width: 2"/>
    <path d="M 139.902439 584.498904 
L 144.439024 584.498904 
" clip-path="url(#pd4a5f1cfb5)" style="fill: none; stroke: #d55e00; stroke-width: 2"/>
    <path d="M 144.439024 584.498904 
L 148.97561 584.498904 
" clip-path="url(#pd4a5f1cfb5)" style="fill: none; stroke: #d55e00; stroke-width: 2"/>
    <path d="M 148.97561 584.498904 
L 153.512195 584.498904 
" clip-path="url(#pd4a5f1cfb5)" style="fill: none; stroke: #d55e00; stroke-width: 2"/>
    <path d="M 153.512195 584.498904 
L 158.04878 584.498904 
" clip-path="url(#pd4a5f1cfb5)" style="fill: none; stroke: #d55e00; stroke-width: 2"/>
    <path d="M 158.04878 584.498904 
L 162.585366 584.498904 
" clip-path="url(#pd4a5f1cfb5)" style="fill: none; stroke: #d55e00; stroke-width: 2"/>
    <path d="M 162.585366 584.498904 
L 167.121951 584.498904 
" clip-path="url(#pd4a5f1cfb5)" style="fill: none; stroke: #d55e00; stroke-width: 2"/>
    <path d="M 167.121951 584.498904 
L 171.658537 584.498904 
" clip-path="url(#pd4a5f1cfb5)" style="fill: none; stroke: #d55e00; stroke-width: 2"/>
    <path d="M 171.658537 584.498904 
L 176.195122 584.498904 
" clip-path="url(#pd4a5f1cfb5)" style="fill: none; stroke: #d55e00; stroke-width: 2"/>
    <path d="M 176.195122 584.498904 
L 180.731707 584.498904 
" clip-path="url(#pd4a5f1cfb5)" style="fill: none; stroke: #d55e00; stroke-width: 2"/>
    <path d="M 180.731707 584.498904 
L 185.268293 584.498904 
" clip-path="url(#pd4a5f1cfb5)" style="fill: none; stroke: #d55e00; stroke-width: 2"/>
    <path d="M 185.268293 584.498904 
L 189.804878 584.498904 
" clip-path="url(#pd4a5f1cfb5)" style="fill: none; stroke: #d55e00; stroke-width: 2"/>
    <path d="M 189.804878 584.498904 
L 194.341463 584.498904 
" clip-path="url(#pd4a5f1cfb5)" style="fill: none; stroke: #d55e00; stroke-width: 2"/>
    <path d="M 194.341463 584.498904 
L 198.878049 584.498904 
" clip-path="url(#pd4a5f1cfb5)" style="fill: none; stroke: #d55e00; stroke-width: 2"/>
    <path d="M 198.878049 584.498904 
L 203.414634 584.498904 
" clip-path="url(#pd4a5f1cfb5)" style="fill: none; stroke: #d55e00; stroke-width: 2"/>
    <path d="M 203.414634 584.498904 
L 207.95122 584.498904 
" clip-path="url(#pd4a5f1cfb5)" style="fill: none; stroke: #d55e00; stroke-width: 2"/>
    <path d="M 207.95122 584.498904 
L 212.487805 584.498904 
" clip-path="url(#pd4a5f1cfb5)" style="fill: none; stroke: #d55e00; stroke-width: 2"/>
    <path d="M 212.487805 584.498904 
L 217.02439 584.498904 
" clip-path="url(#pd4a5f1cfb5)" style="fill: none; stroke: #d55e00; stroke-width: 2"/>
    <path d="M 217.02439 584.498904 
L 221.560976 584.498904 
" clip-path="url(#pd4a5f1cfb5)" style="fill: none; stroke: #d55e00; stroke-width: 2"/>
    <path d="M 221.560976 584.498904 
L 226.097561 584.498904 
" clip-path="url(#pd4a5f1cfb5)" style="fill: none; stroke: #d55e00; stroke-width: 2"/>
    <path d="M 226.097561 584.498904 
L 230.634146 584.498904 
" clip-path="url(#pd4a5f1cfb5)" style="fill: none; stroke: #d55e00; stroke-width: 2"/>
    <path d="M 230.634146 584.498904 
L 235.170732 584.498904 
" clip-path="url(#pd4a5f1cfb5)" style="fill: none; stroke: #d55e00; stroke-width: 2"/>
    <path d="M 235.170732 584.498904 
L 239.707317 584.498904 
" clip-path="url(#pd4a5f1cfb5)" style="fill: none; stroke: #d55e00; stroke-width: 2"/>
    <path d="M 239.707317 584.498904 
L 244.243902 584.498904 
" clip-path="url(#pd4a5f1cfb5)" style="fill: none; stroke: #d55e00; stroke-width: 2"/>
    <path d="M 244.243902 584.498904 
L 248.780488 584.498904 
" clip-path="url(#pd4a5f1cfb5)" style="fill: none; stroke: #d55e00; stroke-width: 2"/>
    <path d="M 248.780488 584.498904 
L 253.317073 584.498904 
" clip-path="url(#pd4a5f1cfb5)" style="fill: none; stroke: #d55e00; stroke-width: 2"/>
    <path d="M 253.317073 584.498904 
L 257.853659 584.498904 
" clip-path="url(#pd4a5f1cfb5)" style="fill: none; stroke: #d55e00; stroke-width: 2"/>
    <path d="M 257.853659 584.498904 
L 262.390244 584.498904 
" clip-path="url(#pd4a5f1cfb5)" style="fill: none; stroke: #d55e00; stroke-width: 2"/>
    <path d="M 262.390244 584.498904 
L 266.926829 584.498904 
" clip-path="url(#pd4a5f1cfb5)" style="fill: none; stroke: #d55e00; stroke-width: 2"/>
    <path d="M 266.926829 584.498904 
L 271.463415 584.498904 
" clip-path="url(#pd4a5f1cfb5)" style="fill: none; stroke: #d55e00; stroke-width: 2"/>
    <path d="M 271.463415 584.498904 
L 276 584.498904 
" clip-path="url(#pd4a5f1cfb5)" style="fill: none; stroke: #d55e00; stroke-width: 2"/>
    <path d="M 276 584.498904 
L 280.536585 584.498904 
" clip-path="url(#pd4a5f1cfb5)" style="fill: none; stroke: #d55e00; stroke-width: 2"/>
    <path d="M 280.536585 584.498904 
L 285.073171 584.498904 
" clip-path="url(#pd4a5f1cfb5)" style="fill: none; stroke: #d55e00; stroke-width: 2"/>
    <path d="M 285.073171 584.498904 
L 289.609756 584.498904 
" clip-path="url(#pd4a5f1cfb5)" style="fill: none; stroke: #d55e00; stroke-width: 2"/>
    <path d="M 289.609756 584.498904 
L 294.146341 584.498904 
" clip-path="url(#pd4a5f1cfb5)" style="fill: none; stroke: #d55e00; stroke-width: 2"/>
    <path d="M 294.146341 584.498904 
L 298.682927 584.498904 
" clip-path="url(#pd4a5f1cfb5)" style="fill: none; stroke: #d55e00; stroke-width: 2"/>
    <path d="M 298.682927 584.498904 
L 303.219512 584.498904 
" clip-path="url(#pd4a5f1cfb5)" style="fill: none; stroke: #d55e00; stroke-width: 2"/>
    <path d="M 303.219512 584.498904 
L 307.756098 584.498904 
" clip-path="url(#pd4a5f1cfb5)" style="fill: none; stroke: #d55e00; stroke-width: 2"/>
    <path d="M 307.756098 584.498904 
L 312.292683 584.498904 
" clip-path="url(#pd4a5f1cfb5)" style="fill: none; stroke: #d55e00; stroke-width: 2"/>
    <path d="M 312.292683 584.498904 
L 316.829268 584.498904 
" clip-path="url(#pd4a5f1cfb5)" style="fill: none; stroke: #d55e00; stroke-width: 2"/>
    <path d="M 316.829268 584.498904 
L 321.365854 584.498904 
" clip-path="url(#pd4a5f1cfb5)" style="fill: none; stroke: #d55e00; stroke-width: 2"/>
    <path d="M 321.365854 584.498904 
L 325.902439 584.498904 
" clip-path="url(#pd4a5f1cfb5)" style="fill: none; stroke: #d55e00; stroke-width: 2"/>
    <path d="M 325.902439 584.498904 
L 330.439024 584.498904 
" clip-path="url(#pd4a5f1cfb5)" style="fill: none; stroke: #d55e00; stroke-width: 2"/>
    <path d="M 330.439024 584.498904 
L 334.97561 580.65217 
" clip-path="url(#pd4a5f1cfb5)" style="fill: none; stroke: #d55e00; stroke-width: 2"/>
    <path d="M 334.97561 580.65217 
L 339.512195 565.632184 
" clip-path="url(#pd4a5f1cfb5)" style="fill: none; stroke: #d55e00; stroke-width: 2"/>
    <path d="M 339.512195 565.632184 
L 344.04878 568.315344 
" clip-path="url(#pd4a5f1cfb5)" style="fill: none; stroke: #d55e00; stroke-width: 2"/>
    <path d="M 344.04878 568.315344 
L 348.585366 569.193293 
" clip-path="url(#pd4a5f1cfb5)" style="fill: none; stroke: #d55e00; stroke-width: 2"/>
    <path d="M 348.585366 569.193293 
L 353.121951 569.888317 
" clip-path="url(#pd4a5f1cfb5)" style="fill: none; stroke: #d55e00; stroke-width: 2"/>
    <path d="M 353.121951 569.888317 
L 357.658537 570.363729 
" clip-path="url(#pd4a5f1cfb5)" style="fill: none; stroke: #009e73; stroke-width: 2"/>
    <path d="M 357.658537 570.363729 
L 362.195122 570.151894 
" clip-path="url(#pd4a5f1cfb5)" style="fill: none; stroke: #009e73; stroke-width: 2"/>
    <path d="M 362.195122 570.151894 
L 366.731707 569.235502 
" clip-path="url(#pd4a5f1cfb5)" style="fill: none; stroke: #009e73; stroke-width: 2"/>
    <path d="M 366.731707 569.235502 
L 371.268293 530.271457 
" clip-path="url(#pd4a5f1cfb5)" style="fill: none; stroke: #009e73; stroke-width: 2"/>
    <path d="M 371.268293 530.271457 
L 375.804878 517.557022 
" clip-path="url(#pd4a5f1cfb5)" style="fill: none; stroke: #009e73; stroke-width: 2"/>
    <path d="M 375.804878 517.557022 
L 380.341463 550.443661 
" clip-path="url(#pd4a5f1cfb5)" style="fill: none; stroke: #009e73; stroke-width: 2"/>
    <path d="M 380.341463 550.443661 
L 384.878049 542.292469 
" clip-path="url(#pd4a5f1cfb5)" style="fill: none; stroke: #009e73; stroke-width: 2"/>
    <path d="M 384.878049 542.292469 
L 389.414634 529.057752 
" clip-path="url(#pd4a5f1cfb5)" style="fill: none; stroke: #009e73; stroke-width: 2"/>
    <path d="M 389.414634 529.057752 
L 393.95122 523.51277 
" clip-path="url(#pd4a5f1cfb5)" style="fill: none; stroke: #009e73; stroke-width: 2"/>
    <path d="M 393.95122 523.51277 
L 398.487805 516.100881 
" clip-path="url(#pd4a5f1cfb5)" style="fill: none; stroke: #009e73; stroke-width: 2"/>
    <path d="M 398.487805 516.100881 
L 403.02439 512.254351 
" clip-path="url(#pd4a5f1cfb5)" style="fill: none; stroke: #009e73; stroke-width: 2"/>
    <path d="M 403.02439 512.254351 
L 407.560976 502.534942 
" clip-path="url(#pd4a5f1cfb5)" style="fill: none; stroke: #009e73; stroke-width: 2"/>
    <path d="M 407.560976 502.534942 
L 412.097561 488.538307 
" clip-path="url(#pd4a5f1cfb5)" style="fill: none; stroke: #009e73; stroke-width: 2"/>
    <path d="M 412.097561 488.538307 
L 416.634146 485.198795 
" clip-path="url(#pd4a5f1cfb5)" style="fill: none; stroke: #009e73; stroke-width: 2"/>
    <path d="M 416.634146 485.198795 
L 421.170732 473.758572 
" clip-path="url(#pd4a5f1cfb5)" style="fill: none; stroke: #009e73; stroke-width: 2"/>
    <path d="M 421.170732 473.758572 
L 425.707317 473.196613 
" clip-path="url(#pd4a5f1cfb5)" style="fill: none; stroke: #009e73; stroke-width: 2"/>
    <path d="M 425.707317 473.196613 
L 430.243902 468.3679 
" clip-path="url(#pd4a5f1cfb5)" style="fill: none; stroke: #009e73; stroke-width: 2"/>
    <path d="M 430.243902 468.3679 
L 434.780488 487.648593 
" clip-path="url(#pd4a5f1cfb5)" style="fill: none; stroke: #009e73; stroke-width: 2"/>
    <path d="M 434.780488 487.648593 
L 439.317073 488.633052 
" clip-path="url(#pd4a5f1cfb5)" style="fill: none; stroke: #009e73; stroke-width: 2"/>
    <path d="M 439.317073 488.633052 
L 443.853659 486.795549 
" clip-path="url(#pd4a5f1cfb5)" style="fill: none; stroke: #009e73; stroke-width: 2"/>
    <path d="M 443.853659 486.795549 
L 448.390244 482.113096 
" clip-path="url(#pd4a5f1cfb5)" style="fill: none; stroke: #009e73; stroke-width: 2"/>
    <path d="M 448.390244 482.113096 
L 452.926829 484.103299 
" clip-path="url(#pd4a5f1cfb5)" style="fill: none; stroke: #009e73; stroke-width: 2"/>
    <path d="M 452.926829 484.103299 
L 457.463415 481.317394 
" clip-path="url(#pd4a5f1cfb5)" style="fill: none; stroke: #009e73; stroke-width: 2"/>
    <path d="M 457.463415 481.317394 
L 462 479.887429 
" clip-path="url(#pd4a5f1cfb5)" style="fill: none; stroke: #009e73; stroke-width: 2"/>
    <path d="M 462 479.887429 
L 466.536585 484.223922 
" clip-path="url(#pd4a5f1cfb5)" style="fill: none; stroke: #009e73; stroke-width: 2"/>
    <path d="M 466.536585 484.223922 
L 471.073171 466.56939 
" clip-path="url(#pd4a5f1cfb5)" style="fill: none; stroke: #009e73; stroke-width: 2"/>
    <path d="M 471.073171 466.56939 
L 475.609756 458.625332 
" clip-path="url(#pd4a5f1cfb5)" style="fill: none; stroke: #009e73; stroke-width: 2"/>
    <path d="M 475.609756 458.625332 
L 480.146341 456.915067 
" clip-path="url(#pd4a5f1cfb5)" style="fill: none; stroke: #009e73; stroke-width: 2"/>
    <path d="M 480.146341 456.915067 
L 484.682927 458.884863 
" clip-path="url(#pd4a5f1cfb5)" style="fill: none; stroke: #009e73; stroke-width: 2"/>
    <path d="M 484.682927 458.884863 
L 489.219512 458.46026 
" clip-path="url(#pd4a5f1cfb5)" style="fill: none; stroke: #009e73; stroke-width: 2"/>
    <path d="M 489.219512 458.46026 
L 493.756098 458.91889 
" clip-path="url(#pd4a5f1cfb5)" style="fill: none; stroke: #009e73; stroke-width: 2"/>
    <path d="M 493.756098 458.91889 
L 498.292683 451.469683 
" clip-path="url(#pd4a5f1cfb5)" style="fill: none; stroke: #009e73; stroke-width: 2"/>
    <path d="M 498.292683 451.469683 
L 502.829268 446.278178 
" clip-path="url(#pd4a5f1cfb5)" style="fill: none; stroke: #0072b2; stroke-width: 2"/>
    <path d="M 502.829268 446.278178 
L 507.365854 450.870123 
" clip-path="url(#pd4a5f1cfb5)" style="fill: none; stroke: #0072b2; stroke-width: 2"/>
    <path d="M 507.365854 450.870123 
L 511.902439 449.799325 
" clip-path="url(#pd4a5f1cfb5)" style="fill: none; stroke: #0072b2; stroke-width: 2"/>
    <path d="M 511.902439 449.799325 
L 516.439024 449.582104 
" clip-path="url(#pd4a5f1cfb5)" style="fill: none; stroke: #0072b2; stroke-width: 2"/>
    <path d="M 516.439024 449.582104 
L 520.97561 448.172918 
" clip-path="url(#pd4a5f1cfb5)" style="fill: none; stroke: #0072b2; stroke-width: 2"/>
    <path d="M 520.97561 448.172918 
L 525.512195 447.751222 
" clip-path="url(#pd4a5f1cfb5)" style="fill: none; stroke: #0072b2; stroke-width: 2"/>
    <path d="M 525.512195 447.751222 
L 530.04878 448.553185 
" clip-path="url(#pd4a5f1cfb5)" style="fill: none; stroke: #0072b2; stroke-width: 2"/>
    <path d="M 530.04878 448.553185 
L 534.585366 448.081393 
" clip-path="url(#pd4a5f1cfb5)" style="fill: none; stroke: #0072b2; stroke-width: 2"/>
    <path d="M 534.585366 448.081393 
L 539.121951 446.453129 
" clip-path="url(#pd4a5f1cfb5)" style="fill: none; stroke: #0072b2; stroke-width: 2"/>
    <path d="M 539.121951 446.453129 
L 543.658537 446.339213 
" clip-path="url(#pd4a5f1cfb5)" style="fill: none; stroke: #0072b2; stroke-width: 2"/>
    <path d="M 543.658537 446.339213 
L 548.195122 446.625745 
" clip-path="url(#pd4a5f1cfb5)" style="fill: none; stroke: #0072b2; stroke-width: 2"/>
    <path d="M 548.195122 446.625745 
L 552.731707 446.791712 
" clip-path="url(#pd4a5f1cfb5)" style="fill: none; stroke: #0072b2; stroke-width: 2"/>
    <path d="M 552.731707 446.791712 
L 557.268293 445.362149 
" clip-path="url(#pd4a5f1cfb5)" style="fill: none; stroke: #0072b2; stroke-width: 2"/>
    <path d="M 557.268293 445.362149 
L 561.804878 445.119549 
" clip-path="url(#pd4a5f1cfb5)" style="fill: none; stroke: #0072b2; stroke-width: 2"/>
    <path d="M 561.804878 445.119549 
L 566.341463 445.101096 
" clip-path="url(#pd4a5f1cfb5)" style="fill: none; stroke: #0072b2; stroke-width: 2"/>
    <path d="M 566.341463 445.101096 
L 570.878049 445.101096 
" clip-path="url(#pd4a5f1cfb5)" style="fill: none; stroke: #0072b2; stroke-width: 2"/>
    <path d="M 570.878049 445.101096 
L 575.414634 445.101096 
" clip-path="url(#pd4a5f1cfb5)" style="fill: none; stroke: #0072b2; stroke-width: 2"/>
    <path d="M 575.414634 445.101096 
L 579.95122 445.101096 
" clip-path="url(#pd4a5f1cfb5)" style="fill: none; stroke: #0072b2; stroke-width: 2"/>
    <path d="M 579.95122 445.101096 
L 584.487805 445.101096 
" clip-path="url(#pd4a5f1cfb5)" style="fill: none; stroke: #0072b2; stroke-width: 2"/>
    <path d="M 584.487805 445.101096 
L 589.02439 445.101096 
" clip-path="url(#pd4a5f1cfb5)" style="fill: none; stroke: #0072b2; stroke-width: 2"/>
    <path d="M 589.02439 445.101096 
L 593.560976 445.101096 
" clip-path="url(#pd4a5f1cfb5)" style="fill: none; stroke: #0072b2; stroke-width: 2"/>
    <path d="M 593.560976 445.101096 
L 598.097561 445.101096 
" clip-path="url(#pd4a5f1cfb5)" style="fill: none; stroke: #0072b2; stroke-width: 2"/>
    <path d="M 598.097561 445.101096 
L 602.634146 445.101096 
" clip-path="url(#pd4a5f1cfb5)" style="fill: none; stroke: #0072b2; stroke-width: 2"/>
    <path d="M 602.634146 445.101096 
L 607.170732 446.116198 
" clip-path="url(#pd4a5f1cfb5)" style="fill: none; stroke: #0072b2; stroke-width: 2"/>
    <path d="M 607.170732 446.116198 
L 611.707317 447.869139 
" clip-path="url(#pd4a5f1cfb5)" style="fill: none; stroke: #0072b2; stroke-width: 2"/>
    <path d="M 611.707317 447.869139 
L 616.243902 447.925609 
" clip-path="url(#pd4a5f1cfb5)" style="fill: none; stroke: #0072b2; stroke-width: 2"/>
    <path d="M 616.243902 447.925609 
L 620.780488 448.167548 
" clip-path="url(#pd4a5f1cfb5)" style="fill: none; stroke: #0072b2; stroke-width: 2"/>
    <path d="M 620.780488 448.167548 
L 625.317073 448.439857 
" clip-path="url(#pd4a5f1cfb5)" style="fill: none; stroke: #0072b2; stroke-width: 2"/>
    <path d="M 625.317073 448.439857 
L 629.853659 449.178837 
" clip-path="url(#pd4a5f1cfb5)" style="fill: none; stroke: #0072b2; stroke-width: 2"/>
    <path d="M 629.853659 449.178837 
L 634.390244 447.263044 
" clip-path="url(#pd4a5f1cfb5)" style="fill: none; stroke: #0072b2; stroke-width: 2"/>
    <path d="M 634.390244 447.263044 
L 638.926829 449.267364 
" clip-path="url(#pd4a5f1cfb5)" style="fill: none; stroke: #0072b2; stroke-width: 2"/>
   </g>
   <g id="patch_9">
    <path d="M 90 640.8 
L 90 388.8 
" style="fill: none; stroke: #262626; stroke-width: 1.25; stroke-linejoin: miter; stroke-linecap: square"/>
   </g>
   <g id="patch_10">
    <path d="M 648 640.8 
L 648 388.8 
" style="fill: none; stroke: #262626; stroke-width: 1.25; stroke-linejoin: miter; stroke-linecap: square"/>
   </g>
   <g id="patch_11">
    <path d="M 90 640.8 
L 648 640.8 
" style="fill: none; stroke: #262626; stroke-width: 1.25; stroke-linejoin: miter; stroke-linecap: square"/>
   </g>
   <g id="patch_12">
    <path d="M 90 388.8 
L 648 388.8 
" style="fill: none; stroke: #262626; stroke-width: 1.25; stroke-linejoin: miter; stroke-linecap: square"/>
   </g>
   <g id="text_35">
    <!-- Arousal -->
    <g style="fill: #262626" transform="translate(342.939219 382.8) scale(0.14 -0.14)">
     <defs>
      <path id="Arial-BoldMT-41" d="M 4597 0 
L 3591 0 
L 3191 1041 
L 1359 1041 
L 981 0 
L 0 0 
L 1784 4581 
L 2763 4581 
L 4597 0 
z
M 2894 1813 
L 2263 3513 
L 1644 1813 
L 2894 1813 
z
" transform="scale(0.015625)"/>
      <path id="Arial-BoldMT-72" d="M 1300 0 
L 422 0 
L 422 3319 
L 1238 3319 
L 1238 2847 
Q 1447 3181 1614 3287 
Q 1781 3394 1994 3394 
Q 2294 3394 2572 3228 
L 2300 2463 
Q 2078 2606 1888 2606 
Q 1703 2606 1575 2504 
Q 1447 2403 1373 2137 
Q 1300 1872 1300 1025 
L 1300 0 
z
" transform="scale(0.015625)"/>
      <path id="Arial-BoldMT-6f" d="M 256 1706 
Q 256 2144 472 2553 
Q 688 2963 1083 3178 
Q 1478 3394 1966 3394 
Q 2719 3394 3200 2905 
Q 3681 2416 3681 1669 
Q 3681 916 3195 420 
Q 2709 -75 1972 -75 
Q 1516 -75 1102 131 
Q 688 338 472 736 
Q 256 1134 256 1706 
z
M 1156 1659 
Q 1156 1166 1390 903 
Q 1625 641 1969 641 
Q 2313 641 2545 903 
Q 2778 1166 2778 1666 
Q 2778 2153 2545 2415 
Q 2313 2678 1969 2678 
Q 1625 2678 1390 2415 
Q 1156 2153 1156 1659 
z
" transform="scale(0.015625)"/>
      <path id="Arial-BoldMT-75" d="M 2644 0 
L 2644 497 
Q 2463 231 2167 78 
Q 1872 -75 1544 -75 
Q 1209 -75 943 72 
Q 678 219 559 484 
Q 441 750 441 1219 
L 441 3319 
L 1319 3319 
L 1319 1794 
Q 1319 1094 1367 936 
Q 1416 778 1544 686 
Q 1672 594 1869 594 
Q 2094 594 2272 717 
Q 2450 841 2515 1023 
Q 2581 1206 2581 1919 
L 2581 3319 
L 3459 3319 
L 3459 0 
L 2644 0 
z
" transform="scale(0.015625)"/>
      <path id="Arial-BoldMT-73" d="M 150 947 
L 1031 1081 
Q 1088 825 1259 692 
Q 1431 559 1741 559 
Q 2081 559 2253 684 
Q 2369 772 2369 919 
Q 2369 1019 2306 1084 
Q 2241 1147 2013 1200 
Q 950 1434 666 1628 
Q 272 1897 272 2375 
Q 272 2806 612 3100 
Q 953 3394 1669 3394 
Q 2350 3394 2681 3172 
Q 3013 2950 3138 2516 
L 2309 2363 
Q 2256 2556 2107 2659 
Q 1959 2763 1684 2763 
Q 1338 2763 1188 2666 
Q 1088 2597 1088 2488 
Q 1088 2394 1175 2328 
Q 1294 2241 1995 2081 
Q 2697 1922 2975 1691 
Q 3250 1456 3250 1038 
Q 3250 581 2869 253 
Q 2488 -75 1741 -75 
Q 1063 -75 667 200 
Q 272 475 150 947 
z
" transform="scale(0.015625)"/>
     </defs>
     <use xlink:href="#Arial-BoldMT-41"/>
     <use xlink:href="#Arial-BoldMT-72" x="72.216797"/>
     <use xlink:href="#Arial-BoldMT-6f" x="111.132812"/>
     <use xlink:href="#Arial-BoldMT-75" x="172.216797"/>
     <use xlink:href="#Arial-BoldMT-73" x="233.300781"/>
     <use xlink:href="#Arial-BoldMT-61" x="288.916016"/>
     <use xlink:href="#Arial-BoldMT-6c" x="344.53125"/>
    </g>
   </g>
   <g id="legend_2">
    <g id="patch_13">
     <path d="M 570.24375 444.279531 
L 640.3 444.279531 
Q 642.5 444.279531 642.5 442.079531 
L 642.5 396.5 
Q 642.5 394.3 640.3 394.3 
L 570.24375 394.3 
Q 568.04375 394.3 568.04375 396.5 
L 568.04375 442.079531 
Q 568.04375 444.279531 570.24375 444.279531 
z
" style="fill: #ffffff; opacity: 0.8; stroke: #cccccc; stroke-linejoin: miter"/>
    </g>
    <g id="line2d_31">
     <path d="M 572.44375 402.723594 
L 583.44375 402.723594 
L 594.44375 402.723594 
" style="fill: none; stroke: #d55e00; stroke-width: 2; stroke-linecap: round"/>
    </g>
    <g id="text_36">
     <!-- State 1 -->
     <g style="fill: #262626" transform="translate(603.24375 406.573594) scale(0.11 -0.11)">
      <use xlink:href="#ArialMT-53"/>
      <use xlink:href="#ArialMT-74" x="66.699219"/>
      <use xlink:href="#ArialMT-61" x="94.482422"/>
      <use xlink:href="#ArialMT-74" x="150.097656"/>
      <use xlink:href="#ArialMT-65" x="177.880859"/>
      <use xlink:href="#ArialMT-20" x="233.496094"/>
      <use xlink:href="#ArialMT-31" x="261.279297"/>
     </g>
    </g>
    <g id="line2d_32">
     <path d="M 572.44375 418.283437 
L 583.44375 418.283437 
L 594.44375 418.283437 
" style="fill: none; stroke: #0072b2; stroke-width: 2; stroke-linecap: round"/>
    </g>
    <g id="text_37">
     <!-- State 2 -->
     <g style="fill: #262626" transform="translate(603.24375 422.133438) scale(0.11 -0.11)">
      <use xlink:href="#ArialMT-53"/>
      <use xlink:href="#ArialMT-74" x="66.699219"/>
      <use xlink:href="#ArialMT-61" x="94.482422"/>
      <use xlink:href="#ArialMT-74" x="150.097656"/>
      <use xlink:href="#ArialMT-65" x="177.880859"/>
      <use xlink:href="#ArialMT-20" x="233.496094"/>
      <use xlink:href="#ArialMT-32" x="261.279297"/>
     </g>
    </g>
    <g id="line2d_33">
     <path d="M 572.44375 433.843281 
L 583.44375 433.843281 
L 594.44375 433.843281 
" style="fill: none; stroke: #009e73; stroke-width: 2; stroke-linecap: round"/>
    </g>
    <g id="text_38">
     <!-- State 3 -->
     <g style="fill: #262626" transform="translate(603.24375 437.693281) scale(0.11 -0.11)">
      <use xlink:href="#ArialMT-53"/>
      <use xlink:href="#ArialMT-74" x="66.699219"/>
      <use xlink:href="#ArialMT-61" x="94.482422"/>
      <use xlink:href="#ArialMT-74" x="150.097656"/>
      <use xlink:href="#ArialMT-65" x="177.880859"/>
      <use xlink:href="#ArialMT-20" x="233.496094"/>
      <use xlink:href="#ArialMT-33" x="261.279297"/>
     </g>
    </g>
   </g>
  </g>
 </g>
 <defs>
  <clipPath id="p9d386ecf76">
   <rect x="90" y="86.4" width="558" height="252"/>
  </clipPath>
  <clipPath id="pd4a5f1cfb5">
   <rect x="90" y="388.8" width="558" height="252"/>
  </clipPath>
 </defs>
</svg>
