<?xml version="1.0" encoding="utf-8" standalone="no"?>
<!DOCTYPE svg PUBLIC "-//W3C//DTD SVG 1.1//EN"
  "http://www.w3.org/Graphics/SVG/1.1/DTD/svg11.dtd">
<svg xmlns:xlink="http://www.w3.org/1999/xlink" width="720pt" height="1080pt" viewBox="0 0 720 1080" xmlns="http://www.w3.org/2000/svg" version="1.1">
 <metadata>
  <rdf:RDF xmlns:dc="http://purl.org/dc/elements/1.1/" xmlns:cc="http://creativecommons.org/ns#" xmlns:rdf="http://www.w3.org/1999/02/22-rdf-syntax-ns#">
   <cc:Work>
    <dc:type rdf:resource="http://purl.org/dc/dcmitype/StillImage"/>
    <dc:date>2024-09-02T13:04:29.724818</dc:date>
    <dc:format>image/svg+xml</dc:format>
    <dc:creator>
     <cc:Agent>
      <dc:title>Matplotlib v3.8.0, https://matplotlib.org/</dc:title>
     </cc:Agent>
    </dc:creator>
   </cc:Work>
  </rdf:RDF>
 </metadata>
 <defs>
  <style type="text/css">*{stroke-linejoin: round; stroke-linecap: butt}</style>
 </defs>
 <g id="figure_1">
  <g id="patch_1">
   <path d="M 0 1080 
L 720 1080 
L 720 0 
L 0 0 
z
" style="fill: #ffffff"/>
  </g>
  <g id="axes_1">
   <g id="patch_2">
    <path d="M 90 507.6 
L 648 507.6 
L 648 129.6 
L 90 129.6 
z
" style="fill: #ffffff"/>
   </g>
   <g id="matplotlib.axis_1">
    <g id="xtick_1">
     <g id="line2d_1">
      <defs>
       <path id="m42c7633d8b" d="M 0 0 
L 0 6 
" style="stroke: #262626; stroke-width: 1.25"/>
      </defs>
      <g>
       <use xlink:href="#m42c7633d8b" x="159.75" y="507.6" style="fill: #262626; stroke: #262626; stroke-width: 1.25"/>
      </g>
     </g>
     <g id="text_1">
      <!-- State 1 -->
      <g style="fill: #262626" transform="translate(142.321875 524.973594) scale(0.11 -0.11)">
       <defs>
        <path id="ArialMT-53" d="M 288 1472 
L 859 1522 
Q 900 1178 1048 958 
Q 1197 738 1509 602 
Q 1822 466 2213 466 
Q 2559 466 2825 569 
Q 3091 672 3220 851 
Q 3350 1031 3350 1244 
Q 3350 1459 3225 1620 
Q 3100 1781 2813 1891 
Q 2628 1963 1997 2114 
Q 1366 2266 1113 2400 
Q 784 2572 623 2826 
Q 463 3081 463 3397 
Q 463 3744 659 4045 
Q 856 4347 1234 4503 
Q 1613 4659 2075 4659 
Q 2584 4659 2973 4495 
Q 3363 4331 3572 4012 
Q 3781 3694 3797 3291 
L 3216 3247 
Q 3169 3681 2898 3903 
Q 2628 4125 2100 4125 
Q 1550 4125 1298 3923 
Q 1047 3722 1047 3438 
Q 1047 3191 1225 3031 
Q 1400 2872 2139 2705 
Q 2878 2538 3153 2413 
Q 3553 2228 3743 1945 
Q 3934 1663 3934 1294 
Q 3934 928 3725 604 
Q 3516 281 3123 101 
Q 2731 -78 2241 -78 
Q 1619 -78 1198 103 
Q 778 284 539 648 
Q 300 1013 288 1472 
z
" transform="scale(0.015625)"/>
        <path id="ArialMT-74" d="M 1650 503 
L 1731 6 
Q 1494 -44 1306 -44 
Q 1000 -44 831 53 
Q 663 150 594 308 
Q 525 466 525 972 
L 525 2881 
L 113 2881 
L 113 3319 
L 525 3319 
L 525 4141 
L 1084 4478 
L 1084 3319 
L 1650 3319 
L 1650 2881 
L 1084 2881 
L 1084 941 
Q 1084 700 1114 631 
Q 1144 563 1211 522 
Q 1278 481 1403 481 
Q 1497 481 1650 503 
z
" transform="scale(0.015625)"/>
        <path id="ArialMT-61" d="M 2588 409 
Q 2275 144 1986 34 
Q 1697 -75 1366 -75 
Q 819 -75 525 192 
Q 231 459 231 875 
Q 231 1119 342 1320 
Q 453 1522 633 1644 
Q 813 1766 1038 1828 
Q 1203 1872 1538 1913 
Q 2219 1994 2541 2106 
Q 2544 2222 2544 2253 
Q 2544 2597 2384 2738 
Q 2169 2928 1744 2928 
Q 1347 2928 1158 2789 
Q 969 2650 878 2297 
L 328 2372 
Q 403 2725 575 2942 
Q 747 3159 1072 3276 
Q 1397 3394 1825 3394 
Q 2250 3394 2515 3294 
Q 2781 3194 2906 3042 
Q 3031 2891 3081 2659 
Q 3109 2516 3109 2141 
L 3109 1391 
Q 3109 606 3145 398 
Q 3181 191 3288 0 
L 2700 0 
Q 2613 175 2588 409 
z
M 2541 1666 
Q 2234 1541 1622 1453 
Q 1275 1403 1131 1340 
Q 988 1278 909 1158 
Q 831 1038 831 891 
Q 831 666 1001 516 
Q 1172 366 1500 366 
Q 1825 366 2078 508 
Q 2331 650 2450 897 
Q 2541 1088 2541 1459 
L 2541 1666 
z
" transform="scale(0.015625)"/>
        <path id="ArialMT-65" d="M 2694 1069 
L 3275 997 
Q 3138 488 2766 206 
Q 2394 -75 1816 -75 
Q 1088 -75 661 373 
Q 234 822 234 1631 
Q 234 2469 665 2931 
Q 1097 3394 1784 3394 
Q 2450 3394 2872 2941 
Q 3294 2488 3294 1666 
Q 3294 1616 3291 1516 
L 816 1516 
Q 847 969 1125 678 
Q 1403 388 1819 388 
Q 2128 388 2347 550 
Q 2566 713 2694 1069 
z
M 847 1978 
L 2700 1978 
Q 2663 2397 2488 2606 
Q 2219 2931 1791 2931 
Q 1403 2931 1139 2672 
Q 875 2413 847 1978 
z
" transform="scale(0.015625)"/>
        <path id="ArialMT-20" transform="scale(0.015625)"/>
        <path id="ArialMT-31" d="M 2384 0 
L 1822 0 
L 1822 3584 
Q 1619 3391 1289 3197 
Q 959 3003 697 2906 
L 697 3450 
Q 1169 3672 1522 3987 
Q 1875 4303 2022 4600 
L 2384 4600 
L 2384 0 
z
" transform="scale(0.015625)"/>
       </defs>
       <use xlink:href="#ArialMT-53"/>
       <use xlink:href="#ArialMT-74" x="66.699219"/>
       <use xlink:href="#ArialMT-61" x="94.482422"/>
       <use xlink:href="#ArialMT-74" x="150.097656"/>
       <use xlink:href="#ArialMT-65" x="177.880859"/>
       <use xlink:href="#ArialMT-20" x="233.496094"/>
       <use xlink:href="#ArialMT-31" x="261.279297"/>
      </g>
     </g>
    </g>
    <g id="xtick_2">
     <g id="line2d_2">
      <g>
       <use xlink:href="#m42c7633d8b" x="299.25" y="507.6" style="fill: #262626; stroke: #262626; stroke-width: 1.25"/>
      </g>
     </g>
     <g id="text_2">
      <!-- State 2 -->
      <g style="fill: #262626" transform="translate(281.821875 524.973594) scale(0.11 -0.11)">
       <defs>
        <path id="ArialMT-32" d="M 3222 541 
L 3222 0 
L 194 0 
Q 188 203 259 391 
Q 375 700 629 1000 
Q 884 1300 1366 1694 
Q 2113 2306 2375 2664 
Q 2638 3022 2638 3341 
Q 2638 3675 2398 3904 
Q 2159 4134 1775 4134 
Q 1369 4134 1125 3890 
Q 881 3647 878 3216 
L 300 3275 
Q 359 3922 746 4261 
Q 1134 4600 1788 4600 
Q 2447 4600 2831 4234 
Q 3216 3869 3216 3328 
Q 3216 3053 3103 2787 
Q 2991 2522 2730 2228 
Q 2469 1934 1863 1422 
Q 1356 997 1212 845 
Q 1069 694 975 541 
L 3222 541 
z
" transform="scale(0.015625)"/>
       </defs>
       <use xlink:href="#ArialMT-53"/>
       <use xlink:href="#ArialMT-74" x="66.699219"/>
       <use xlink:href="#ArialMT-61" x="94.482422"/>
       <use xlink:href="#ArialMT-74" x="150.097656"/>
       <use xlink:href="#ArialMT-65" x="177.880859"/>
       <use xlink:href="#ArialMT-20" x="233.496094"/>
       <use xlink:href="#ArialMT-32" x="261.279297"/>
      </g>
     </g>
    </g>
    <g id="xtick_3">
     <g id="line2d_3">
      <g>
       <use xlink:href="#m42c7633d8b" x="438.75" y="507.6" style="fill: #262626; stroke: #262626; stroke-width: 1.25"/>
      </g>
     </g>
     <g id="text_3">
      <!-- State 3 -->
      <g style="fill: #262626" transform="translate(421.321875 524.973594) scale(0.11 -0.11)">
       <defs>
        <path id="ArialMT-33" d="M 269 1209 
L 831 1284 
Q 928 806 1161 595 
Q 1394 384 1728 384 
Q 2125 384 2398 659 
Q 2672 934 2672 1341 
Q 2672 1728 2419 1979 
Q 2166 2231 1775 2231 
Q 1616 2231 1378 2169 
L 1441 2663 
Q 1497 2656 1531 2656 
Q 1891 2656 2178 2843 
Q 2466 3031 2466 3422 
Q 2466 3731 2256 3934 
Q 2047 4138 1716 4138 
Q 1388 4138 1169 3931 
Q 950 3725 888 3313 
L 325 3413 
Q 428 3978 793 4289 
Q 1159 4600 1703 4600 
Q 2078 4600 2393 4439 
Q 2709 4278 2876 4000 
Q 3044 3722 3044 3409 
Q 3044 3113 2884 2869 
Q 2725 2625 2413 2481 
Q 2819 2388 3044 2092 
Q 3269 1797 3269 1353 
Q 3269 753 2831 336 
Q 2394 -81 1725 -81 
Q 1122 -81 723 278 
Q 325 638 269 1209 
z
" transform="scale(0.015625)"/>
       </defs>
       <use xlink:href="#ArialMT-53"/>
       <use xlink:href="#ArialMT-74" x="66.699219"/>
       <use xlink:href="#ArialMT-61" x="94.482422"/>
       <use xlink:href="#ArialMT-74" x="150.097656"/>
       <use xlink:href="#ArialMT-65" x="177.880859"/>
       <use xlink:href="#ArialMT-20" x="233.496094"/>
       <use xlink:href="#ArialMT-33" x="261.279297"/>
      </g>
     </g>
    </g>
    <g id="xtick_4">
     <g id="line2d_4">
      <g>
       <use xlink:href="#m42c7633d8b" x="578.25" y="507.6" style="fill: #262626; stroke: #262626; stroke-width: 1.25"/>
      </g>
     </g>
     <g id="text_4">
      <!-- State 4 -->
      <g style="fill: #262626" transform="translate(560.821875 524.973594) scale(0.11 -0.11)">
       <defs>
        <path id="ArialMT-34" d="M 2069 0 
L 2069 1097 
L 81 1097 
L 81 1613 
L 2172 4581 
L 2631 4581 
L 2631 1613 
L 3250 1613 
L 3250 1097 
L 2631 1097 
L 2631 0 
L 2069 0 
z
M 2069 1613 
L 2069 3678 
L 634 1613 
L 2069 1613 
z
" transform="scale(0.015625)"/>
       </defs>
       <use xlink:href="#ArialMT-53"/>
       <use xlink:href="#ArialMT-74" x="66.699219"/>
       <use xlink:href="#ArialMT-61" x="94.482422"/>
       <use xlink:href="#ArialMT-74" x="150.097656"/>
       <use xlink:href="#ArialMT-65" x="177.880859"/>
       <use xlink:href="#ArialMT-20" x="233.496094"/>
       <use xlink:href="#ArialMT-34" x="261.279297"/>
      </g>
     </g>
    </g>
   </g>
   <g id="matplotlib.axis_2">
    <g id="ytick_1">
     <g id="line2d_5">
      <defs>
       <path id="mf211165e66" d="M 0 0 
L -6 0 
" style="stroke: #262626; stroke-width: 1.25"/>
      </defs>
      <g>
       <use xlink:href="#mf211165e66" x="90" y="495.7875" style="fill: #262626; stroke: #262626; stroke-width: 1.25"/>
      </g>
     </g>
     <g id="text_5">
      <!-- −3 -->
      <g style="fill: #262626" transform="translate(67.958281 499.724297) scale(0.11 -0.11)">
       <defs>
        <path id="ArialMT-2212" d="M 3381 1997 
L 356 1997 
L 356 2522 
L 3381 2522 
L 3381 1997 
z
" transform="scale(0.015625)"/>
       </defs>
       <use xlink:href="#ArialMT-2212"/>
       <use xlink:href="#ArialMT-33" x="58.398438"/>
      </g>
     </g>
    </g>
    <g id="ytick_2">
     <g id="line2d_6">
      <g>
       <use xlink:href="#mf211165e66" x="90" y="436.725" style="fill: #262626; stroke: #262626; stroke-width: 1.25"/>
      </g>
     </g>
     <g id="text_6">
      <!-- −2 -->
      <g style="fill: #262626" transform="translate(67.958281 440.661797) scale(0.11 -0.11)">
       <use xlink:href="#ArialMT-2212"/>
       <use xlink:href="#ArialMT-32" x="58.398438"/>
      </g>
     </g>
    </g>
    <g id="ytick_3">
     <g id="line2d_7">
      <g>
       <use xlink:href="#mf211165e66" x="90" y="377.6625" style="fill: #262626; stroke: #262626; stroke-width: 1.25"/>
      </g>
     </g>
     <g id="text_7">
      <!-- −1 -->
      <g style="fill: #262626" transform="translate(67.958281 381.599297) scale(0.11 -0.11)">
       <use xlink:href="#ArialMT-2212"/>
       <use xlink:href="#ArialMT-31" x="58.398438"/>
      </g>
     </g>
    </g>
    <g id="ytick_4">
     <g id="line2d_8">
      <g>
       <use xlink:href="#mf211165e66" x="90" y="318.6" style="fill: #262626; stroke: #262626; stroke-width: 1.25"/>
      </g>
     </g>
     <g id="text_8">
      <!-- 0 -->
      <g style="fill: #262626" transform="translate(74.382969 322.536797) scale(0.11 -0.11)">
       <defs>
        <path id="ArialMT-30" d="M 266 2259 
Q 266 3072 433 3567 
Q 600 4063 929 4331 
Q 1259 4600 1759 4600 
Q 2128 4600 2406 4451 
Q 2684 4303 2865 4023 
Q 3047 3744 3150 3342 
Q 3253 2941 3253 2259 
Q 3253 1453 3087 958 
Q 2922 463 2592 192 
Q 2263 -78 1759 -78 
Q 1097 -78 719 397 
Q 266 969 266 2259 
z
M 844 2259 
Q 844 1131 1108 757 
Q 1372 384 1759 384 
Q 2147 384 2411 759 
Q 2675 1134 2675 2259 
Q 2675 3391 2411 3762 
Q 2147 4134 1753 4134 
Q 1366 4134 1134 3806 
Q 844 3388 844 2259 
z
" transform="scale(0.015625)"/>
       </defs>
       <use xlink:href="#ArialMT-30"/>
      </g>
     </g>
    </g>
    <g id="ytick_5">
     <g id="line2d_9">
      <g>
       <use xlink:href="#mf211165e66" x="90" y="259.5375" style="fill: #262626; stroke: #262626; stroke-width: 1.25"/>
      </g>
     </g>
     <g id="text_9">
      <!-- 1 -->
      <g style="fill: #262626" transform="translate(74.382969 263.474297) scale(0.11 -0.11)">
       <use xlink:href="#ArialMT-31"/>
      </g>
     </g>
    </g>
    <g id="ytick_6">
     <g id="line2d_10">
      <g>
       <use xlink:href="#mf211165e66" x="90" y="200.475" style="fill: #262626; stroke: #262626; stroke-width: 1.25"/>
      </g>
     </g>
     <g id="text_10">
      <!-- 2 -->
      <g style="fill: #262626" transform="translate(74.382969 204.411797) scale(0.11 -0.11)">
       <use xlink:href="#ArialMT-32"/>
      </g>
     </g>
    </g>
    <g id="ytick_7">
     <g id="line2d_11">
      <g>
       <use xlink:href="#mf211165e66" x="90" y="141.4125" style="fill: #262626; stroke: #262626; stroke-width: 1.25"/>
      </g>
     </g>
     <g id="text_11">
      <!-- 3 -->
      <g style="fill: #262626" transform="translate(74.382969 145.349297) scale(0.11 -0.11)">
       <use xlink:href="#ArialMT-33"/>
      </g>
     </g>
    </g>
    <g id="text_12">
     <!-- Value (z-scored) -->
     <g style="fill: #262626" transform="translate(61.432656 362.170313) rotate(-90) scale(0.12 -0.12)">
      <defs>
       <path id="ArialMT-56" d="M 1803 0 
L 28 4581 
L 684 4581 
L 1875 1253 
Q 2019 853 2116 503 
Q 2222 878 2363 1253 
L 3600 4581 
L 4219 4581 
L 2425 0 
L 1803 0 
z
" transform="scale(0.015625)"/>
       <path id="ArialMT-6c" d="M 409 0 
L 409 4581 
L 972 4581 
L 972 0 
L 409 0 
z
" transform="scale(0.015625)"/>
       <path id="ArialMT-75" d="M 2597 0 
L 2597 488 
Q 2209 -75 1544 -75 
Q 1250 -75 995 37 
Q 741 150 617 320 
Q 494 491 444 738 
Q 409 903 409 1263 
L 409 3319 
L 972 3319 
L 972 1478 
Q 972 1038 1006 884 
Q 1059 663 1231 536 
Q 1403 409 1656 409 
Q 1909 409 2131 539 
Q 2353 669 2445 892 
Q 2538 1116 2538 1541 
L 2538 3319 
L 3100 3319 
L 3100 0 
L 2597 0 
z
" transform="scale(0.015625)"/>
       <path id="ArialMT-28" d="M 1497 -1347 
Q 1031 -759 709 28 
Q 388 816 388 1659 
Q 388 2403 628 3084 
Q 909 3875 1497 4659 
L 1900 4659 
Q 1522 4009 1400 3731 
Q 1209 3300 1100 2831 
Q 966 2247 966 1656 
Q 966 153 1900 -1347 
L 1497 -1347 
z
" transform="scale(0.015625)"/>
       <path id="ArialMT-7a" d="M 125 0 
L 125 456 
L 2238 2881 
Q 1878 2863 1603 2863 
L 250 2863 
L 250 3319 
L 2963 3319 
L 2963 2947 
L 1166 841 
L 819 456 
Q 1197 484 1528 484 
L 3063 484 
L 3063 0 
L 125 0 
z
" transform="scale(0.015625)"/>
       <path id="ArialMT-2d" d="M 203 1375 
L 203 1941 
L 1931 1941 
L 1931 1375 
L 203 1375 
z
" transform="scale(0.015625)"/>
       <path id="ArialMT-73" d="M 197 991 
L 753 1078 
Q 800 744 1014 566 
Q 1228 388 1613 388 
Q 2000 388 2187 545 
Q 2375 703 2375 916 
Q 2375 1106 2209 1216 
Q 2094 1291 1634 1406 
Q 1016 1563 777 1677 
Q 538 1791 414 1992 
Q 291 2194 291 2438 
Q 291 2659 392 2848 
Q 494 3038 669 3163 
Q 800 3259 1026 3326 
Q 1253 3394 1513 3394 
Q 1903 3394 2198 3281 
Q 2494 3169 2634 2976 
Q 2775 2784 2828 2463 
L 2278 2388 
Q 2241 2644 2061 2787 
Q 1881 2931 1553 2931 
Q 1166 2931 1000 2803 
Q 834 2675 834 2503 
Q 834 2394 903 2306 
Q 972 2216 1119 2156 
Q 1203 2125 1616 2013 
Q 2213 1853 2448 1751 
Q 2684 1650 2818 1456 
Q 2953 1263 2953 975 
Q 2953 694 2789 445 
Q 2625 197 2315 61 
Q 2006 -75 1616 -75 
Q 969 -75 630 194 
Q 291 463 197 991 
z
" transform="scale(0.015625)"/>
       <path id="ArialMT-63" d="M 2588 1216 
L 3141 1144 
Q 3050 572 2676 248 
Q 2303 -75 1759 -75 
Q 1078 -75 664 370 
Q 250 816 250 1647 
Q 250 2184 428 2587 
Q 606 2991 970 3192 
Q 1334 3394 1763 3394 
Q 2303 3394 2647 3120 
Q 2991 2847 3088 2344 
L 2541 2259 
Q 2463 2594 2264 2762 
Q 2066 2931 1784 2931 
Q 1359 2931 1093 2626 
Q 828 2322 828 1663 
Q 828 994 1084 691 
Q 1341 388 1753 388 
Q 2084 388 2306 591 
Q 2528 794 2588 1216 
z
" transform="scale(0.015625)"/>
       <path id="ArialMT-6f" d="M 213 1659 
Q 213 2581 725 3025 
Q 1153 3394 1769 3394 
Q 2453 3394 2887 2945 
Q 3322 2497 3322 1706 
Q 3322 1066 3130 698 
Q 2938 331 2570 128 
Q 2203 -75 1769 -75 
Q 1072 -75 642 372 
Q 213 819 213 1659 
z
M 791 1659 
Q 791 1022 1069 705 
Q 1347 388 1769 388 
Q 2188 388 2466 706 
Q 2744 1025 2744 1678 
Q 2744 2294 2464 2611 
Q 2184 2928 1769 2928 
Q 1347 2928 1069 2612 
Q 791 2297 791 1659 
z
" transform="scale(0.015625)"/>
       <path id="ArialMT-72" d="M 416 0 
L 416 3319 
L 922 3319 
L 922 2816 
Q 1116 3169 1280 3281 
Q 1444 3394 1641 3394 
Q 1925 3394 2219 3213 
L 2025 2691 
Q 1819 2813 1613 2813 
Q 1428 2813 1281 2702 
Q 1134 2591 1072 2394 
Q 978 2094 978 1738 
L 978 0 
L 416 0 
z
" transform="scale(0.015625)"/>
       <path id="ArialMT-64" d="M 2575 0 
L 2575 419 
Q 2259 -75 1647 -75 
Q 1250 -75 917 144 
Q 584 363 401 755 
Q 219 1147 219 1656 
Q 219 2153 384 2558 
Q 550 2963 881 3178 
Q 1213 3394 1622 3394 
Q 1922 3394 2156 3267 
Q 2391 3141 2538 2938 
L 2538 4581 
L 3097 4581 
L 3097 0 
L 2575 0 
z
M 797 1656 
Q 797 1019 1065 703 
Q 1334 388 1700 388 
Q 2069 388 2326 689 
Q 2584 991 2584 1609 
Q 2584 2291 2321 2609 
Q 2059 2928 1675 2928 
Q 1300 2928 1048 2622 
Q 797 2316 797 1656 
z
" transform="scale(0.015625)"/>
       <path id="ArialMT-29" d="M 791 -1347 
L 388 -1347 
Q 1322 153 1322 1656 
Q 1322 2244 1188 2822 
Q 1081 3291 891 3722 
Q 769 4003 388 4659 
L 791 4659 
Q 1378 3875 1659 3084 
Q 1900 2403 1900 1659 
Q 1900 816 1576 28 
Q 1253 -759 791 -1347 
z
" transform="scale(0.015625)"/>
      </defs>
      <use xlink:href="#ArialMT-56"/>
      <use xlink:href="#ArialMT-61" x="59.324219"/>
      <use xlink:href="#ArialMT-6c" x="114.939453"/>
      <use xlink:href="#ArialMT-75" x="137.15625"/>
      <use xlink:href="#ArialMT-65" x="192.771484"/>
      <use xlink:href="#ArialMT-20" x="248.386719"/>
      <use xlink:href="#ArialMT-28" x="276.169922"/>
      <use xlink:href="#ArialMT-7a" x="309.470703"/>
      <use xlink:href="#ArialMT-2d" x="359.470703"/>
      <use xlink:href="#ArialMT-73" x="392.771484"/>
      <use xlink:href="#ArialMT-63" x="442.771484"/>
      <use xlink:href="#ArialMT-6f" x="492.771484"/>
      <use xlink:href="#ArialMT-72" x="548.386719"/>
      <use xlink:href="#ArialMT-65" x="581.6875"/>
      <use xlink:href="#ArialMT-64" x="637.302734"/>
      <use xlink:href="#ArialMT-29" x="692.917969"/>
     </g>
    </g>
   </g>
   <g id="PolyCollection_1">
    <defs>
     <path id="m28b9fb2478" d="M 169.140916 -745.689402 
L 160.025964 -745.689402 
L 160.025964 -747.001026 
L 160.025964 -748.312649 
L 160.025964 -749.624273 
L 160.025964 -750.935896 
L 160.025964 -752.24752 
L 160.025964 -753.559144 
L 160.025964 -754.870767 
L 160.025964 -756.182391 
L 160.025964 -757.494014 
L 160.025964 -758.805638 
L 160.025964 -760.117262 
L 160.025964 -761.428885 
L 160.025964 -762.740509 
L 160.025964 -764.052133 
L 160.025964 -765.363756 
L 160.025964 -766.67538 
L 160.025964 -767.987003 
L 160.025964 -769.298627 
L 160.025964 -770.610251 
L 160.025964 -771.921874 
L 160.025964 -773.233498 
L 160.025964 -774.545121 
L 160.025964 -775.856745 
L 160.025964 -777.168369 
L 160.025964 -778.479992 
L 160.025964 -779.791616 
L 160.025964 -781.103239 
L 160.025964 -782.414863 
L 160.025964 -783.726487 
L 160.025964 -785.03811 
L 160.025964 -786.349734 
L 160.025964 -787.661357 
L 160.025964 -788.972981 
L 160.025964 -790.284605 
L 160.025964 -791.596228 
L 160.025964 -792.907852 
L 160.025964 -794.219475 
L 160.025964 -795.531099 
L 163.321232 -795.531099 
L 163.321232 -795.531099 
L 163.911265 -794.219475 
L 164.551133 -792.907852 
L 165.265667 -791.596228 
L 166.079362 -790.284605 
L 167.006008 -788.972981 
L 168.039422 -787.661357 
L 169.149081 -786.349734 
L 170.283439 -785.03811 
L 171.381421 -783.726487 
L 172.38965 -782.414863 
L 173.280556 -781.103239 
L 174.065607 -779.791616 
L 174.799061 -778.479992 
L 175.570385 -777.168369 
L 176.48678 -775.856745 
L 177.649899 -774.545121 
L 179.132022 -773.233498 
L 180.956642 -771.921874 
L 183.087134 -770.610251 
L 185.425527 -769.298627 
L 187.821908 -767.987003 
L 190.093533 -766.67538 
L 192.0511 -765.363756 
L 193.527699 -764.052133 
L 194.404259 -762.740509 
L 194.625 -761.428885 
L 194.198521 -760.117262 
L 193.184581 -758.805638 
L 191.67186 -757.494014 
L 189.755282 -756.182391 
L 187.520965 -754.870767 
L 185.042626 -753.559144 
L 182.387438 -752.24752 
L 179.625252 -750.935896 
L 176.834527 -749.624273 
L 174.10128 -748.312649 
L 171.511535 -747.001026 
L 169.140916 -745.689402 
z
" style="stroke: #d55e00; stroke-opacity: 0.3"/>
    </defs>
    <g clip-path="url(#p3775a60260)">
     <use xlink:href="#m28b9fb2478" x="0" y="1080" style="fill: #d55e00; fill-opacity: 0.3; stroke: #d55e00; stroke-opacity: 0.3"/>
    </g>
   </g>
   <g id="PolyCollection_2">
    <defs>
     <path id="mffd70f008b" d="M 302.951243 -705.035672 
L 299.382435 -705.035672 
L 299.382435 -707.037402 
L 299.382435 -709.039133 
L 299.382435 -711.040864 
L 299.382435 -713.042594 
L 299.382435 -715.044325 
L 299.382435 -717.046056 
L 299.382435 -719.047787 
L 299.382435 -721.049517 
L 299.382435 -723.051248 
L 299.382435 -725.052979 
L 299.382435 -727.054709 
L 299.382435 -729.05644 
L 299.382435 -731.058171 
L 299.382435 -733.059901 
L 299.382435 -735.061632 
L 299.382435 -737.063363 
L 299.382435 -739.065093 
L 299.382435 -741.066824 
L 299.382435 -743.068555 
L 299.382435 -745.070285 
L 299.382435 -747.072016 
L 299.382435 -749.073747 
L 299.382435 -751.075478 
L 299.382435 -753.077208 
L 299.382435 -755.078939 
L 299.382435 -757.08067 
L 299.382435 -759.0824 
L 299.382435 -761.084131 
L 299.382435 -763.085862 
L 299.382435 -765.087592 
L 299.382435 -767.089323 
L 299.382435 -769.091054 
L 299.382435 -771.092784 
L 299.382435 -773.094515 
L 299.382435 -775.096246 
L 299.382435 -777.097976 
L 299.382435 -779.099707 
L 299.382435 -781.101438 
L 302.574743 -781.101438 
L 302.574743 -781.101438 
L 303.372012 -779.099707 
L 304.3794 -777.097976 
L 305.693507 -775.096246 
L 307.416569 -773.094515 
L 309.631182 -771.092784 
L 312.372272 -769.091054 
L 315.603019 -767.089323 
L 319.200853 -765.087592 
L 322.957686 -763.085862 
L 326.596369 -761.084131 
L 329.803145 -759.0824 
L 332.272945 -757.08067 
L 333.760369 -755.078939 
L 334.125 -753.077208 
L 333.358241 -751.075478 
L 331.582582 -749.073747 
L 329.022748 -747.072016 
L 325.957913 -745.070285 
L 322.670105 -743.068555 
L 319.403188 -741.066824 
L 316.340494 -739.065093 
L 313.601043 -737.063363 
L 311.248323 -735.061632 
L 309.303689 -733.059901 
L 307.758173 -731.058171 
L 306.580168 -729.05644 
L 305.720071 -727.054709 
L 305.114985 -725.052979 
L 304.696164 -723.051248 
L 304.399356 -721.049517 
L 304.174912 -719.047787 
L 303.992872 -717.046056 
L 303.839703 -715.044325 
L 303.707742 -713.042594 
L 303.582998 -711.040864 
L 303.438673 -709.039133 
L 303.238896 -707.037402 
L 302.951243 -705.035672 
z
" style="stroke: #0072b2; stroke-opacity: 0.3"/>
    </defs>
    <g clip-path="url(#p3775a60260)">
     <use xlink:href="#mffd70f008b" x="0" y="1080" style="fill: #0072b2; fill-opacity: 0.3; stroke: #0072b2; stroke-opacity: 0.3"/>
    </g>
   </g>
   <g id="PolyCollection_3">
    <defs>
     <path id="m4bdead2899" d="M 442.222499 -731.099775 
L 438.901347 -731.099775 
L 438.901347 -732.697485 
L 438.901347 -734.295195 
L 438.901347 -735.892905 
L 438.901347 -737.490614 
L 438.901347 -739.088324 
L 438.901347 -740.686034 
L 438.901347 -742.283744 
L 438.901347 -743.881453 
L 438.901347 -745.479163 
L 438.901347 -747.076873 
L 438.901347 -748.674583 
L 438.901347 -750.272292 
L 438.901347 -751.870002 
L 438.901347 -753.467712 
L 438.901347 -755.065422 
L 438.901347 -756.663131 
L 438.901347 -758.260841 
L 438.901347 -759.858551 
L 438.901347 -761.456261 
L 438.901347 -763.05397 
L 438.901347 -764.65168 
L 438.901347 -766.24939 
L 438.901347 -767.8471 
L 438.901347 -769.444809 
L 438.901347 -771.042519 
L 438.901347 -772.640229 
L 438.901347 -774.237939 
L 438.901347 -775.835648 
L 438.901347 -777.433358 
L 438.901347 -779.031068 
L 438.901347 -780.628777 
L 438.901347 -782.226487 
L 438.901347 -783.824197 
L 438.901347 -785.421907 
L 438.901347 -787.019616 
L 438.901347 -788.617326 
L 438.901347 -790.215036 
L 438.901347 -791.812746 
L 444.064118 -791.812746 
L 444.064118 -791.812746 
L 444.842994 -790.215036 
L 445.59399 -788.617326 
L 446.350585 -787.019616 
L 447.179745 -785.421907 
L 448.181271 -783.824197 
L 449.480615 -782.226487 
L 451.210685 -780.628777 
L 453.479704 -779.031068 
L 456.328013 -777.433358 
L 459.684977 -775.835648 
L 463.343363 -774.237939 
L 466.967937 -772.640229 
L 470.145529 -771.042519 
L 472.468052 -769.444809 
L 473.625 -767.8471 
L 473.475263 -766.24939 
L 472.074112 -764.65168 
L 469.647728 -763.05397 
L 466.527364 -761.456261 
L 463.068775 -759.858551 
L 459.584279 -758.260841 
L 456.304946 -756.663131 
L 453.375121 -755.065422 
L 450.8687 -753.467712 
L 448.811756 -751.870002 
L 447.199667 -750.272292 
L 446.004885 -748.674583 
L 445.178623 -747.076873 
L 444.652522 -745.479163 
L 444.344513 -743.881453 
L 444.168966 -742.283744 
L 444.047873 -740.686034 
L 443.919075 -739.088324 
L 443.739469 -737.490614 
L 443.483905 -735.892905 
L 443.14228 -734.295195 
L 442.71715 -732.697485 
L 442.222499 -731.099775 
z
" style="stroke: #009e73; stroke-opacity: 0.3"/>
    </defs>
    <g clip-path="url(#p3775a60260)">
     <use xlink:href="#m4bdead2899" x="0" y="1080" style="fill: #009e73; fill-opacity: 0.3; stroke: #009e73; stroke-opacity: 0.3"/>
    </g>
   </g>
   <g id="PolyCollection_4">
    <defs>
     <path id="mb318965890" d="M 581.136481 -721.852128 
L 578.353811 -721.852128 
L 578.353811 -723.993656 
L 578.353811 -726.135184 
L 578.353811 -728.276712 
L 578.353811 -730.41824 
L 578.353811 -732.559769 
L 578.353811 -734.701297 
L 578.353811 -736.842825 
L 578.353811 -738.984353 
L 578.353811 -741.125881 
L 578.353811 -743.267409 
L 578.353811 -745.408937 
L 578.353811 -747.550466 
L 578.353811 -749.691994 
L 578.353811 -751.833522 
L 578.353811 -753.97505 
L 578.353811 -756.116578 
L 578.353811 -758.258106 
L 578.353811 -760.399634 
L 578.353811 -762.541162 
L 578.353811 -764.682691 
L 578.353811 -766.824219 
L 578.353811 -768.965747 
L 578.353811 -771.107275 
L 578.353811 -773.248803 
L 578.353811 -775.390331 
L 578.353811 -777.531859 
L 578.353811 -779.673388 
L 578.353811 -781.814916 
L 578.353811 -783.956444 
L 578.353811 -786.097972 
L 578.353811 -788.2395 
L 578.353811 -790.381028 
L 578.353811 -792.522556 
L 578.353811 -794.664084 
L 578.353811 -796.805613 
L 578.353811 -798.947141 
L 578.353811 -801.088669 
L 578.353811 -803.230197 
L 580.885732 -803.230197 
L 580.885732 -803.230197 
L 581.355339 -801.088669 
L 582.049627 -798.947141 
L 583.155472 -796.805613 
L 584.861783 -794.664084 
L 587.302773 -792.522556 
L 590.503464 -790.381028 
L 594.344054 -788.2395 
L 598.55696 -786.097972 
L 602.764302 -783.956444 
L 606.553648 -781.814916 
L 609.57621 -779.673388 
L 611.638444 -777.531859 
L 612.753043 -775.390331 
L 613.125 -773.248803 
L 613.071423 -771.107275 
L 612.900656 -768.965747 
L 612.794336 -766.824219 
L 612.737375 -764.682691 
L 612.524373 -762.541162 
L 611.842213 -760.399634 
L 610.397847 -758.258106 
L 608.040992 -756.116578 
L 604.833686 -753.97505 
L 601.04253 -751.833522 
L 597.062421 -749.691994 
L 593.305751 -747.550466 
L 590.098202 -745.408937 
L 587.612916 -743.267409 
L 585.857179 -741.125881 
L 584.707522 -738.984353 
L 583.974699 -736.842825 
L 583.472336 -734.701297 
L 583.064768 -732.559769 
L 582.681192 -730.41824 
L 582.299858 -728.276712 
L 581.9192 -726.135184 
L 581.535324 -723.993656 
L 581.136481 -721.852128 
z
" style="stroke: #cc79a7; stroke-opacity: 0.3"/>
    </defs>
    <g clip-path="url(#p3775a60260)">
     <use xlink:href="#mb318965890" x="0" y="1080" style="fill: #cc79a7; fill-opacity: 0.3; stroke: #cc79a7; stroke-opacity: 0.3"/>
    </g>
   </g>
   <g id="PathCollection_1">
    <defs>
     <path id="m869b107cbc" d="M 0 0.866025 
C 0.229673 0.866025 0.449969 0.774776 0.612372 0.612372 
C 0.774776 0.449969 0.866025 0.229673 0.866025 0 
C 0.866025 -0.229673 0.774776 -0.449969 0.612372 -0.612372 
C 0.449969 -0.774776 0.229673 -0.866025 0 -0.866025 
C -0.229673 -0.866025 -0.449969 -0.774776 -0.612372 -0.612372 
C -0.774776 -0.449969 -0.866025 -0.229673 -0.866025 0 
C -0.866025 0.229673 -0.774776 0.449969 -0.612372 0.612372 
C -0.449969 0.774776 -0.229673 0.866025 0 0.866025 
z
" style="stroke: #d55e00"/>
    </defs>
    <g clip-path="url(#p3775a60260)">
     <use xlink:href="#m869b107cbc" x="126.819752" y="318.07618" style="fill: #d55e00; stroke: #d55e00"/>
     <use xlink:href="#m869b107cbc" x="136.753023" y="312.331196" style="fill: #d55e00; stroke: #d55e00"/>
     <use xlink:href="#m869b107cbc" x="135.620082" y="314.017558" style="fill: #d55e00; stroke: #d55e00"/>
     <use xlink:href="#m869b107cbc" x="127.114831" y="334.310598" style="fill: #d55e00; stroke: #d55e00"/>
     <use xlink:href="#m869b107cbc" x="127.321766" y="321.658736" style="fill: #d55e00; stroke: #d55e00"/>
     <use xlink:href="#m869b107cbc" x="128.302889" y="304.243403" style="fill: #d55e00; stroke: #d55e00"/>
     <use xlink:href="#m869b107cbc" x="137.692649" y="318.163662" style="fill: #d55e00; stroke: #d55e00"/>
     <use xlink:href="#m869b107cbc" x="130.768576" y="327.057217" style="fill: #d55e00; stroke: #d55e00"/>
     <use xlink:href="#m869b107cbc" x="125.063972" y="317.032127" style="fill: #d55e00; stroke: #d55e00"/>
     <use xlink:href="#m869b107cbc" x="131.286932" y="309.559358" style="fill: #d55e00; stroke: #d55e00"/>
     <use xlink:href="#m869b107cbc" x="128.13209" y="319.292466" style="fill: #d55e00; stroke: #d55e00"/>
     <use xlink:href="#m869b107cbc" x="129.106428" y="325.80459" style="fill: #d55e00; stroke: #d55e00"/>
     <use xlink:href="#m869b107cbc" x="133.28306" y="323.231252" style="fill: #d55e00; stroke: #d55e00"/>
     <use xlink:href="#m869b107cbc" x="133.217413" y="284.468901" style="fill: #d55e00; stroke: #d55e00"/>
     <use xlink:href="#m869b107cbc" x="136.305829" y="299.472753" style="fill: #d55e00; stroke: #d55e00"/>
     <use xlink:href="#m869b107cbc" x="134.953297" y="328.794435" style="fill: #d55e00; stroke: #d55e00"/>
     <use xlink:href="#m869b107cbc" x="129.589857" y="313.958906" style="fill: #d55e00; stroke: #d55e00"/>
     <use xlink:href="#m869b107cbc" x="125.703163" y="295.518904" style="fill: #d55e00; stroke: #d55e00"/>
     <use xlink:href="#m869b107cbc" x="129.957705" y="306.733174" style="fill: #d55e00; stroke: #d55e00"/>
     <use xlink:href="#m869b107cbc" x="129.53225" y="296.99358" style="fill: #d55e00; stroke: #d55e00"/>
     <use xlink:href="#m869b107cbc" x="128.6639" y="298.948932" style="fill: #d55e00; stroke: #d55e00"/>
     <use xlink:href="#m869b107cbc" x="125.181704" y="317.77644" style="fill: #d55e00; stroke: #d55e00"/>
     <use xlink:href="#m869b107cbc" x="134.258847" y="326.102948" style="fill: #d55e00; stroke: #d55e00"/>
     <use xlink:href="#m869b107cbc" x="126.54771" y="324.317662" style="fill: #d55e00; stroke: #d55e00"/>
     <use xlink:href="#m869b107cbc" x="126.218754" y="300.021825" style="fill: #d55e00; stroke: #d55e00"/>
     <use xlink:href="#m869b107cbc" x="126.644172" y="318.192165" style="fill: #d55e00; stroke: #d55e00"/>
     <use xlink:href="#m869b107cbc" x="133.793966" y="331.276862" style="fill: #d55e00; stroke: #d55e00"/>
     <use xlink:href="#m869b107cbc" x="132.251058" y="321.712631" style="fill: #d55e00; stroke: #d55e00"/>
     <use xlink:href="#m869b107cbc" x="134.990529" y="326.793759" style="fill: #d55e00; stroke: #d55e00"/>
     <use xlink:href="#m869b107cbc" x="138.008298" y="316.245382" style="fill: #d55e00; stroke: #d55e00"/>
     <use xlink:href="#m869b107cbc" x="132.938681" y="318.431007" style="fill: #d55e00; stroke: #d55e00"/>
     <use xlink:href="#m869b107cbc" x="137.555038" y="317.136868" style="fill: #d55e00; stroke: #d55e00"/>
     <use xlink:href="#m869b107cbc" x="132.782173" y="326.916147" style="fill: #d55e00; stroke: #d55e00"/>
     <use xlink:href="#m869b107cbc" x="134.49251" y="311.75663" style="fill: #d55e00; stroke: #d55e00"/>
     <use xlink:href="#m869b107cbc" x="130.907888" y="312.146109" style="fill: #d55e00; stroke: #d55e00"/>
     <use xlink:href="#m869b107cbc" x="138.036888" y="318.457275" style="fill: #d55e00; stroke: #d55e00"/>
     <use xlink:href="#m869b107cbc" x="127.680004" y="304.14707" style="fill: #d55e00; stroke: #d55e00"/>
     <use xlink:href="#m869b107cbc" x="132.442046" y="310.846307" style="fill: #d55e00; stroke: #d55e00"/>
     <use xlink:href="#m869b107cbc" x="136.896504" y="290.071694" style="fill: #d55e00; stroke: #d55e00"/>
    </g>
   </g>
   <g id="PathCollection_2">
    <defs>
     <path id="m104d2b67d2" d="M 0 0.866025 
C 0.229673 0.866025 0.449969 0.774776 0.612372 0.612372 
C 0.774776 0.449969 0.866025 0.229673 0.866025 0 
C 0.866025 -0.229673 0.774776 -0.449969 0.612372 -0.612372 
C 0.449969 -0.774776 0.229673 -0.866025 0 -0.866025 
C -0.229673 -0.866025 -0.449969 -0.774776 -0.612372 -0.612372 
C -0.774776 -0.449969 -0.866025 -0.229673 -0.866025 0 
C -0.866025 0.229673 -0.774776 0.449969 -0.612372 0.612372 
C -0.449969 0.774776 -0.229673 0.866025 0 0.866025 
z
" style="stroke: #0072b2"/>
    </defs>
    <g clip-path="url(#p3775a60260)">
     <use xlink:href="#m104d2b67d2" x="273.794996" y="344.373563" style="fill: #0072b2; stroke: #0072b2"/>
     <use xlink:href="#m104d2b67d2" x="276.460444" y="329.366841" style="fill: #0072b2; stroke: #0072b2"/>
     <use xlink:href="#m104d2b67d2" x="268.76504" y="319.8685" style="fill: #0072b2; stroke: #0072b2"/>
     <use xlink:href="#m104d2b67d2" x="268.894535" y="318.308761" style="fill: #0072b2; stroke: #0072b2"/>
     <use xlink:href="#m104d2b67d2" x="275.60408" y="316.453639" style="fill: #0072b2; stroke: #0072b2"/>
     <use xlink:href="#m104d2b67d2" x="266.787451" y="319.704159" style="fill: #0072b2; stroke: #0072b2"/>
     <use xlink:href="#m104d2b67d2" x="274.184868" y="325.512589" style="fill: #0072b2; stroke: #0072b2"/>
     <use xlink:href="#m104d2b67d2" x="266.911319" y="317.170747" style="fill: #0072b2; stroke: #0072b2"/>
     <use xlink:href="#m104d2b67d2" x="266.498236" y="298.898562" style="fill: #0072b2; stroke: #0072b2"/>
     <use xlink:href="#m104d2b67d2" x="272.328761" y="338.857139" style="fill: #0072b2; stroke: #0072b2"/>
     <use xlink:href="#m104d2b67d2" x="269.765618" y="331.633096" style="fill: #0072b2; stroke: #0072b2"/>
     <use xlink:href="#m104d2b67d2" x="274.455475" y="326.088033" style="fill: #0072b2; stroke: #0072b2"/>
     <use xlink:href="#m104d2b67d2" x="271.17923" y="316.775821" style="fill: #0072b2; stroke: #0072b2"/>
     <use xlink:href="#m104d2b67d2" x="267.190965" y="338.678776" style="fill: #0072b2; stroke: #0072b2"/>
     <use xlink:href="#m104d2b67d2" x="270.85279" y="359.810854" style="fill: #0072b2; stroke: #0072b2"/>
     <use xlink:href="#m104d2b67d2" x="274.307349" y="322.342101" style="fill: #0072b2; stroke: #0072b2"/>
     <use xlink:href="#m104d2b67d2" x="272.053672" y="326.054925" style="fill: #0072b2; stroke: #0072b2"/>
     <use xlink:href="#m104d2b67d2" x="269.317121" y="326.297644" style="fill: #0072b2; stroke: #0072b2"/>
     <use xlink:href="#m104d2b67d2" x="264.935506" y="351.456218" style="fill: #0072b2; stroke: #0072b2"/>
     <use xlink:href="#m104d2b67d2" x="274.059208" y="332.078864" style="fill: #0072b2; stroke: #0072b2"/>
     <use xlink:href="#m104d2b67d2" x="271.196399" y="361.738947" style="fill: #0072b2; stroke: #0072b2"/>
     <use xlink:href="#m104d2b67d2" x="272.04904" y="323.937895" style="fill: #0072b2; stroke: #0072b2"/>
     <use xlink:href="#m104d2b67d2" x="266.147536" y="332.629667" style="fill: #0072b2; stroke: #0072b2"/>
     <use xlink:href="#m104d2b67d2" x="273.198999" y="323.881408" style="fill: #0072b2; stroke: #0072b2"/>
     <use xlink:href="#m104d2b67d2" x="272.502502" y="374.011245" style="fill: #0072b2; stroke: #0072b2"/>
     <use xlink:href="#m104d2b67d2" x="269.544442" y="332.351613" style="fill: #0072b2; stroke: #0072b2"/>
     <use xlink:href="#m104d2b67d2" x="275.543711" y="326.699515" style="fill: #0072b2; stroke: #0072b2"/>
     <use xlink:href="#m104d2b67d2" x="273.789118" y="374.964328" style="fill: #0072b2; stroke: #0072b2"/>
     <use xlink:href="#m104d2b67d2" x="275.366066" y="306.341924" style="fill: #0072b2; stroke: #0072b2"/>
     <use xlink:href="#m104d2b67d2" x="275.503968" y="313.782832" style="fill: #0072b2; stroke: #0072b2"/>
     <use xlink:href="#m104d2b67d2" x="276.107462" y="326.966319" style="fill: #0072b2; stroke: #0072b2"/>
     <use xlink:href="#m104d2b67d2" x="275.226023" y="332.99478" style="fill: #0072b2; stroke: #0072b2"/>
     <use xlink:href="#m104d2b67d2" x="276.982682" y="323.815757" style="fill: #0072b2; stroke: #0072b2"/>
     <use xlink:href="#m104d2b67d2" x="265.759276" y="337.710857" style="fill: #0072b2; stroke: #0072b2"/>
     <use xlink:href="#m104d2b67d2" x="266.227943" y="336.219156" style="fill: #0072b2; stroke: #0072b2"/>
     <use xlink:href="#m104d2b67d2" x="274.775765" y="327.276356" style="fill: #0072b2; stroke: #0072b2"/>
     <use xlink:href="#m104d2b67d2" x="268.036854" y="344.940444" style="fill: #0072b2; stroke: #0072b2"/>
     <use xlink:href="#m104d2b67d2" x="268.55743" y="327.975367" style="fill: #0072b2; stroke: #0072b2"/>
     <use xlink:href="#m104d2b67d2" x="270.264214" y="326.087173" style="fill: #0072b2; stroke: #0072b2"/>
    </g>
   </g>
   <g id="PathCollection_3">
    <defs>
     <path id="m08dcb50ec3" d="M 0 0.866025 
C 0.229673 0.866025 0.449969 0.774776 0.612372 0.612372 
C 0.774776 0.449969 0.866025 0.229673 0.866025 0 
C 0.866025 -0.229673 0.774776 -0.449969 0.612372 -0.612372 
C 0.449969 -0.774776 0.229673 -0.866025 0 -0.866025 
C -0.229673 -0.866025 -0.449969 -0.774776 -0.612372 -0.612372 
C -0.774776 -0.449969 -0.866025 -0.229673 -0.866025 0 
C -0.866025 0.229673 -0.774776 0.449969 -0.612372 0.612372 
C -0.449969 0.774776 -0.229673 0.866025 0 0.866025 
z
" style="stroke: #009e73"/>
    </defs>
    <g clip-path="url(#p3775a60260)">
     <use xlink:href="#m08dcb50ec3" x="411.722462" y="300.124196" style="fill: #009e73; stroke: #009e73"/>
     <use xlink:href="#m08dcb50ec3" x="411.230581" y="314.141651" style="fill: #009e73; stroke: #009e73"/>
     <use xlink:href="#m08dcb50ec3" x="408.032884" y="312.365758" style="fill: #009e73; stroke: #009e73"/>
     <use xlink:href="#m08dcb50ec3" x="406.369766" y="323.457884" style="fill: #009e73; stroke: #009e73"/>
     <use xlink:href="#m08dcb50ec3" x="415.585475" y="309.088092" style="fill: #009e73; stroke: #009e73"/>
     <use xlink:href="#m08dcb50ec3" x="413.776854" y="336.76416" style="fill: #009e73; stroke: #009e73"/>
     <use xlink:href="#m08dcb50ec3" x="413.16474" y="294.918295" style="fill: #009e73; stroke: #009e73"/>
     <use xlink:href="#m08dcb50ec3" x="417.680503" y="310.594841" style="fill: #009e73; stroke: #009e73"/>
     <use xlink:href="#m08dcb50ec3" x="405.394709" y="316.677021" style="fill: #009e73; stroke: #009e73"/>
     <use xlink:href="#m08dcb50ec3" x="413.8726" y="307.942979" style="fill: #009e73; stroke: #009e73"/>
     <use xlink:href="#m08dcb50ec3" x="417.445404" y="329.362246" style="fill: #009e73; stroke: #009e73"/>
     <use xlink:href="#m08dcb50ec3" x="405.72842" y="322.825556" style="fill: #009e73; stroke: #009e73"/>
     <use xlink:href="#m08dcb50ec3" x="411.143564" y="313.849616" style="fill: #009e73; stroke: #009e73"/>
     <use xlink:href="#m08dcb50ec3" x="408.454855" y="316.32742" style="fill: #009e73; stroke: #009e73"/>
     <use xlink:href="#m08dcb50ec3" x="417.429672" y="300.604125" style="fill: #009e73; stroke: #009e73"/>
     <use xlink:href="#m08dcb50ec3" x="409.273954" y="315.539649" style="fill: #009e73; stroke: #009e73"/>
     <use xlink:href="#m08dcb50ec3" x="409.737778" y="309.608906" style="fill: #009e73; stroke: #009e73"/>
     <use xlink:href="#m08dcb50ec3" x="410.331847" y="344.524344" style="fill: #009e73; stroke: #009e73"/>
     <use xlink:href="#m08dcb50ec3" x="404.309678" y="338.93312" style="fill: #009e73; stroke: #009e73"/>
     <use xlink:href="#m08dcb50ec3" x="415.231022" y="311.560243" style="fill: #009e73; stroke: #009e73"/>
     <use xlink:href="#m08dcb50ec3" x="410.186988" y="288.525396" style="fill: #009e73; stroke: #009e73"/>
     <use xlink:href="#m08dcb50ec3" x="404.158992" y="305.637786" style="fill: #009e73; stroke: #009e73"/>
     <use xlink:href="#m08dcb50ec3" x="408.252199" y="311.836752" style="fill: #009e73; stroke: #009e73"/>
     <use xlink:href="#m08dcb50ec3" x="410.805369" y="311.627674" style="fill: #009e73; stroke: #009e73"/>
     <use xlink:href="#m08dcb50ec3" x="412.907369" y="288.187254" style="fill: #009e73; stroke: #009e73"/>
     <use xlink:href="#m08dcb50ec3" x="407.239806" y="322.811335" style="fill: #009e73; stroke: #009e73"/>
     <use xlink:href="#m08dcb50ec3" x="404.685619" y="310.914827" style="fill: #009e73; stroke: #009e73"/>
     <use xlink:href="#m08dcb50ec3" x="411.476406" y="311.141597" style="fill: #009e73; stroke: #009e73"/>
     <use xlink:href="#m08dcb50ec3" x="406.679878" y="315.938083" style="fill: #009e73; stroke: #009e73"/>
     <use xlink:href="#m08dcb50ec3" x="411.771664" y="319.337868" style="fill: #009e73; stroke: #009e73"/>
     <use xlink:href="#m08dcb50ec3" x="405.461012" y="315.935515" style="fill: #009e73; stroke: #009e73"/>
     <use xlink:href="#m08dcb50ec3" x="404.544557" y="311.909882" style="fill: #009e73; stroke: #009e73"/>
     <use xlink:href="#m08dcb50ec3" x="409.744288" y="312.682777" style="fill: #009e73; stroke: #009e73"/>
     <use xlink:href="#m08dcb50ec3" x="415.775295" y="307.503214" style="fill: #009e73; stroke: #009e73"/>
     <use xlink:href="#m08dcb50ec3" x="404.191257" y="315.418932" style="fill: #009e73; stroke: #009e73"/>
     <use xlink:href="#m08dcb50ec3" x="411.180696" y="309.852048" style="fill: #009e73; stroke: #009e73"/>
     <use xlink:href="#m08dcb50ec3" x="409.594296" y="295.696563" style="fill: #009e73; stroke: #009e73"/>
     <use xlink:href="#m08dcb50ec3" x="408.392168" y="324.316257" style="fill: #009e73; stroke: #009e73"/>
     <use xlink:href="#m08dcb50ec3" x="409.279072" y="348.900225" style="fill: #009e73; stroke: #009e73"/>
    </g>
   </g>
   <g id="PathCollection_4">
    <defs>
     <path id="mac32a7599b" d="M 0 0.866025 
C 0.229673 0.866025 0.449969 0.774776 0.612372 0.612372 
C 0.774776 0.449969 0.866025 0.229673 0.866025 0 
C 0.866025 -0.229673 0.774776 -0.449969 0.612372 -0.612372 
C 0.449969 -0.774776 0.229673 -0.866025 0 -0.866025 
C -0.229673 -0.866025 -0.449969 -0.774776 -0.612372 -0.612372 
C -0.774776 -0.449969 -0.866025 -0.229673 -0.866025 0 
C -0.866025 0.229673 -0.774776 0.449969 -0.612372 0.612372 
C -0.449969 0.774776 -0.229673 0.866025 0 0.866025 
z
" style="stroke: #cc79a7"/>
    </defs>
    <g clip-path="url(#p3775a60260)">
     <use xlink:href="#mac32a7599b" x="556.668123" y="303.756397" style="fill: #cc79a7; stroke: #cc79a7"/>
     <use xlink:href="#mac32a7599b" x="546.75451" y="320.163558" style="fill: #cc79a7; stroke: #cc79a7"/>
     <use xlink:href="#mac32a7599b" x="554.53475" y="330.197577" style="fill: #cc79a7; stroke: #cc79a7"/>
     <use xlink:href="#mac32a7599b" x="556.343481" y="301.12239" style="fill: #cc79a7; stroke: #cc79a7"/>
     <use xlink:href="#mac32a7599b" x="544.730792" y="324.119941" style="fill: #cc79a7; stroke: #cc79a7"/>
     <use xlink:href="#mac32a7599b" x="553.027938" y="302.674447" style="fill: #cc79a7; stroke: #cc79a7"/>
     <use xlink:href="#mac32a7599b" x="543.724906" y="320.653204" style="fill: #cc79a7; stroke: #cc79a7"/>
     <use xlink:href="#mac32a7599b" x="548.986861" y="323.446138" style="fill: #cc79a7; stroke: #cc79a7"/>
     <use xlink:href="#mac32a7599b" x="555.955873" y="346.400849" style="fill: #cc79a7; stroke: #cc79a7"/>
     <use xlink:href="#mac32a7599b" x="550.964265" y="305.196494" style="fill: #cc79a7; stroke: #cc79a7"/>
     <use xlink:href="#mac32a7599b" x="555.748122" y="276.769803" style="fill: #cc79a7; stroke: #cc79a7"/>
     <use xlink:href="#mac32a7599b" x="550.723591" y="305.740887" style="fill: #cc79a7; stroke: #cc79a7"/>
     <use xlink:href="#mac32a7599b" x="552.59024" y="320.236469" style="fill: #cc79a7; stroke: #cc79a7"/>
     <use xlink:href="#mac32a7599b" x="548.789956" y="319.705074" style="fill: #cc79a7; stroke: #cc79a7"/>
     <use xlink:href="#mac32a7599b" x="556.123828" y="311.895722" style="fill: #cc79a7; stroke: #cc79a7"/>
     <use xlink:href="#mac32a7599b" x="545.733592" y="311.764114" style="fill: #cc79a7; stroke: #cc79a7"/>
     <use xlink:href="#mac32a7599b" x="552.286061" y="327.884989" style="fill: #cc79a7; stroke: #cc79a7"/>
     <use xlink:href="#mac32a7599b" x="548.614137" y="312.954023" style="fill: #cc79a7; stroke: #cc79a7"/>
     <use xlink:href="#mac32a7599b" x="551.799629" y="299.186352" style="fill: #cc79a7; stroke: #cc79a7"/>
     <use xlink:href="#mac32a7599b" x="555.362601" y="320.399141" style="fill: #cc79a7; stroke: #cc79a7"/>
     <use xlink:href="#mac32a7599b" x="544.703436" y="329.024124" style="fill: #cc79a7; stroke: #cc79a7"/>
     <use xlink:href="#mac32a7599b" x="545.535193" y="321.191909" style="fill: #cc79a7; stroke: #cc79a7"/>
     <use xlink:href="#mac32a7599b" x="554.980622" y="292.465354" style="fill: #cc79a7; stroke: #cc79a7"/>
     <use xlink:href="#mac32a7599b" x="551.966755" y="306.275572" style="fill: #cc79a7; stroke: #cc79a7"/>
     <use xlink:href="#mac32a7599b" x="544.165203" y="294.317255" style="fill: #cc79a7; stroke: #cc79a7"/>
     <use xlink:href="#mac32a7599b" x="546.993802" y="299.868801" style="fill: #cc79a7; stroke: #cc79a7"/>
     <use xlink:href="#mac32a7599b" x="546.82882" y="312.108789" style="fill: #cc79a7; stroke: #cc79a7"/>
     <use xlink:href="#mac32a7599b" x="548.562594" y="295.694049" style="fill: #cc79a7; stroke: #cc79a7"/>
     <use xlink:href="#mac32a7599b" x="552.175583" y="321.140503" style="fill: #cc79a7; stroke: #cc79a7"/>
     <use xlink:href="#mac32a7599b" x="555.138654" y="358.147872" style="fill: #cc79a7; stroke: #cc79a7"/>
     <use xlink:href="#mac32a7599b" x="553.5397" y="325.115452" style="fill: #cc79a7; stroke: #cc79a7"/>
     <use xlink:href="#mac32a7599b" x="545.109865" y="298.247992" style="fill: #cc79a7; stroke: #cc79a7"/>
     <use xlink:href="#mac32a7599b" x="548.999313" y="301.106797" style="fill: #cc79a7; stroke: #cc79a7"/>
     <use xlink:href="#mac32a7599b" x="547.277159" y="313.483122" style="fill: #cc79a7; stroke: #cc79a7"/>
     <use xlink:href="#mac32a7599b" x="548.911447" y="302.856439" style="fill: #cc79a7; stroke: #cc79a7"/>
     <use xlink:href="#mac32a7599b" x="545.092778" y="308.971538" style="fill: #cc79a7; stroke: #cc79a7"/>
     <use xlink:href="#mac32a7599b" x="553.284844" y="342.384428" style="fill: #cc79a7; stroke: #cc79a7"/>
     <use xlink:href="#mac32a7599b" x="552.122483" y="301.970766" style="fill: #cc79a7; stroke: #cc79a7"/>
     <use xlink:href="#mac32a7599b" x="544.736381" y="319.43608" style="fill: #cc79a7; stroke: #cc79a7"/>
    </g>
   </g>
   <g id="patch_3">
    <path d="M 149.2875 322.471942 
L 170.2125 322.471942 
L 170.2125 308.146266 
L 149.2875 308.146266 
L 149.2875 322.471942 
z
" clip-path="url(#p3775a60260)" style="fill: #d55e00; opacity: 0.5; stroke: #000000; stroke-linejoin: miter"/>
   </g>
   <g id="line2d_12">
    <path d="M 159.75 322.471942 
L 159.75 334.310598 
" clip-path="url(#p3775a60260)" style="fill: none; stroke: #000000; stroke-linecap: round"/>
   </g>
   <g id="line2d_13">
    <path d="M 159.75 308.146266 
L 159.75 290.071694 
" clip-path="url(#p3775a60260)" style="fill: none; stroke: #000000; stroke-linecap: round"/>
   </g>
   <g id="line2d_14">
    <path d="M 154.51875 334.310598 
L 164.98125 334.310598 
" clip-path="url(#p3775a60260)" style="fill: none; stroke: #000000; stroke-linecap: round"/>
   </g>
   <g id="line2d_15">
    <path d="M 154.51875 290.071694 
L 164.98125 290.071694 
" clip-path="url(#p3775a60260)" style="fill: none; stroke: #000000; stroke-linecap: round"/>
   </g>
   <g id="patch_4">
    <path d="M 288.7875 336.965007 
L 309.7125 336.965007 
L 309.7125 323.078929 
L 288.7875 323.078929 
L 288.7875 336.965007 
z
" clip-path="url(#p3775a60260)" style="fill: #0072b2; opacity: 0.5; stroke: #000000; stroke-linejoin: miter"/>
   </g>
   <g id="line2d_16">
    <path d="M 299.25 336.965007 
L 299.25 351.456218 
" clip-path="url(#p3775a60260)" style="fill: none; stroke: #000000; stroke-linecap: round"/>
   </g>
   <g id="line2d_17">
    <path d="M 299.25 323.078929 
L 299.25 306.341924 
" clip-path="url(#p3775a60260)" style="fill: none; stroke: #000000; stroke-linecap: round"/>
   </g>
   <g id="line2d_18">
    <path d="M 294.01875 351.456218 
L 304.48125 351.456218 
" clip-path="url(#p3775a60260)" style="fill: none; stroke: #000000; stroke-linecap: round"/>
   </g>
   <g id="line2d_19">
    <path d="M 294.01875 306.341924 
L 304.48125 306.341924 
" clip-path="url(#p3775a60260)" style="fill: none; stroke: #000000; stroke-linecap: round"/>
   </g>
   <g id="patch_5">
    <path d="M 428.2875 318.007444 
L 449.2125 318.007444 
L 449.2125 309.348499 
L 428.2875 309.348499 
L 428.2875 318.007444 
z
" clip-path="url(#p3775a60260)" style="fill: #009e73; opacity: 0.5; stroke: #000000; stroke-linejoin: miter"/>
   </g>
   <g id="line2d_20">
    <path d="M 438.75 318.007444 
L 438.75 329.362246 
" clip-path="url(#p3775a60260)" style="fill: none; stroke: #000000; stroke-linecap: round"/>
   </g>
   <g id="line2d_21">
    <path d="M 438.75 309.348499 
L 438.75 300.124196 
" clip-path="url(#p3775a60260)" style="fill: none; stroke: #000000; stroke-linecap: round"/>
   </g>
   <g id="line2d_22">
    <path d="M 433.51875 329.362246 
L 443.98125 329.362246 
" clip-path="url(#p3775a60260)" style="fill: none; stroke: #000000; stroke-linecap: round"/>
   </g>
   <g id="line2d_23">
    <path d="M 433.51875 300.124196 
L 443.98125 300.124196 
" clip-path="url(#p3775a60260)" style="fill: none; stroke: #000000; stroke-linecap: round"/>
   </g>
   <g id="patch_6">
    <path d="M 567.7875 321.166206 
L 588.7125 321.166206 
L 588.7125 302.322606 
L 567.7875 302.322606 
L 567.7875 321.166206 
z
" clip-path="url(#p3775a60260)" style="fill: #cc79a7; opacity: 0.5; stroke: #000000; stroke-linejoin: miter"/>
   </g>
   <g id="line2d_24">
    <path d="M 578.25 321.166206 
L 578.25 346.400849 
" clip-path="url(#p3775a60260)" style="fill: none; stroke: #000000; stroke-linecap: round"/>
   </g>
   <g id="line2d_25">
    <path d="M 578.25 302.322606 
L 578.25 276.769803 
" clip-path="url(#p3775a60260)" style="fill: none; stroke: #000000; stroke-linecap: round"/>
   </g>
   <g id="line2d_26">
    <path d="M 573.01875 346.400849 
L 583.48125 346.400849 
" clip-path="url(#p3775a60260)" style="fill: none; stroke: #000000; stroke-linecap: round"/>
   </g>
   <g id="line2d_27">
    <path d="M 573.01875 276.769803 
L 583.48125 276.769803 
" clip-path="url(#p3775a60260)" style="fill: none; stroke: #000000; stroke-linecap: round"/>
   </g>
   <g id="line2d_28">
    <path d="M 159.75 264.957303 
L 299.25 264.957303 
" clip-path="url(#p3775a60260)" style="fill: none; stroke: #000000; stroke-width: 1.5; stroke-linecap: round"/>
   </g>
   <g id="line2d_29">
    <path d="M 299.25 253.144803 
L 438.75 253.144803 
" clip-path="url(#p3775a60260)" style="fill: none; stroke: #000000; stroke-width: 1.5; stroke-linecap: round"/>
   </g>
   <g id="line2d_30">
    <path d="M 299.25 241.332303 
L 578.25 241.332303 
" clip-path="url(#p3775a60260)" style="fill: none; stroke: #000000; stroke-width: 1.5; stroke-linecap: round"/>
   </g>
   <g id="line2d_31">
    <path d="M 149.2875 317.136868 
L 170.2125 317.136868 
" clip-path="url(#p3775a60260)" style="fill: none; stroke: #000000"/>
   </g>
   <g id="line2d_32">
    <path d="M 288.7875 326.966319 
L 309.7125 326.966319 
" clip-path="url(#p3775a60260)" style="fill: none; stroke: #000000"/>
   </g>
   <g id="line2d_33">
    <path d="M 428.2875 312.365758 
L 449.2125 312.365758 
" clip-path="url(#p3775a60260)" style="fill: none; stroke: #000000"/>
   </g>
   <g id="line2d_34">
    <path d="M 567.7875 312.108789 
L 588.7125 312.108789 
" clip-path="url(#p3775a60260)" style="fill: none; stroke: #000000"/>
   </g>
   <g id="patch_7">
    <path d="M 90 507.6 
L 90 129.6 
" style="fill: none; stroke: #262626; stroke-width: 1.25; stroke-linejoin: miter; stroke-linecap: square"/>
   </g>
   <g id="patch_8">
    <path d="M 648 507.6 
L 648 129.6 
" style="fill: none; stroke: #262626; stroke-width: 1.25; stroke-linejoin: miter; stroke-linecap: square"/>
   </g>
   <g id="patch_9">
    <path d="M 90 507.6 
L 648 507.6 
" style="fill: none; stroke: #262626; stroke-width: 1.25; stroke-linejoin: miter; stroke-linecap: square"/>
   </g>
   <g id="patch_10">
    <path d="M 90 129.6 
L 648 129.6 
" style="fill: none; stroke: #262626; stroke-width: 1.25; stroke-linejoin: miter; stroke-linecap: square"/>
   </g>
   <g id="text_13">
    <!-- * -->
    <g transform="translate(229.5 264.957303) scale(0.12 -0.12)">
     <defs>
      <path id="ArialMT-2a" d="M 200 3741 
L 344 4184 
Q 841 4009 1066 3881 
Q 1006 4447 1003 4659 
L 1456 4659 
Q 1447 4350 1384 3884 
Q 1706 4047 2122 4184 
L 2266 3741 
Q 1869 3609 1488 3566 
Q 1678 3400 2025 2975 
L 1650 2709 
Q 1469 2956 1222 3381 
Q 991 2941 816 2709 
L 447 2975 
Q 809 3422 966 3566 
Q 563 3644 200 3741 
z
" transform="scale(0.015625)"/>
     </defs>
     <use xlink:href="#ArialMT-2a"/>
    </g>
   </g>
   <g id="text_14">
    <!-- * -->
    <g transform="translate(369 253.144803) scale(0.12 -0.12)">
     <use xlink:href="#ArialMT-2a"/>
    </g>
   </g>
   <g id="text_15">
    <!-- * -->
    <g transform="translate(438.75 241.332303) scale(0.12 -0.12)">
     <use xlink:href="#ArialMT-2a"/>
    </g>
   </g>
   <g id="text_16">
    <!-- IBI -->
    <g style="fill: #262626" transform="translate(360.055313 109.6) scale(0.14 -0.14)">
     <defs>
      <path id="Arial-BoldMT-49" d="M 438 0 
L 438 4581 
L 1363 4581 
L 1363 0 
L 438 0 
z
" transform="scale(0.015625)"/>
      <path id="Arial-BoldMT-42" d="M 469 4581 
L 2300 4581 
Q 2844 4581 3111 4536 
Q 3378 4491 3589 4347 
Q 3800 4203 3940 3964 
Q 4081 3725 4081 3428 
Q 4081 3106 3907 2837 
Q 3734 2569 3438 2434 
Q 3856 2313 4081 2019 
Q 4306 1725 4306 1328 
Q 4306 1016 4161 720 
Q 4016 425 3764 248 
Q 3513 72 3144 31 
Q 2913 6 2028 0 
L 469 0 
L 469 4581 
z
M 1394 3819 
L 1394 2759 
L 2000 2759 
Q 2541 2759 2672 2775 
Q 2909 2803 3045 2939 
Q 3181 3075 3181 3297 
Q 3181 3509 3064 3642 
Q 2947 3775 2716 3803 
Q 2578 3819 1925 3819 
L 1394 3819 
z
M 1394 1997 
L 1394 772 
L 2250 772 
Q 2750 772 2884 800 
Q 3091 838 3220 983 
Q 3350 1128 3350 1372 
Q 3350 1578 3250 1722 
Q 3150 1866 2961 1931 
Q 2772 1997 2141 1997 
L 1394 1997 
z
" transform="scale(0.015625)"/>
     </defs>
     <use xlink:href="#Arial-BoldMT-49"/>
     <use xlink:href="#Arial-BoldMT-42" x="27.783203"/>
     <use xlink:href="#Arial-BoldMT-49" x="100"/>
    </g>
   </g>
  </g>
  <g id="axes_2">
   <g id="patch_11">
    <path d="M 90 961.2 
L 648 961.2 
L 648 583.2 
L 90 583.2 
z
" style="fill: #ffffff"/>
   </g>
   <g id="matplotlib.axis_3">
    <g id="xtick_5">
     <g id="line2d_35">
      <g>
       <use xlink:href="#m42c7633d8b" x="159.75" y="961.2" style="fill: #262626; stroke: #262626; stroke-width: 1.25"/>
      </g>
     </g>
     <g id="text_17">
      <!-- State 1 -->
      <g style="fill: #262626" transform="translate(142.321875 978.573594) scale(0.11 -0.11)">
       <use xlink:href="#ArialMT-53"/>
       <use xlink:href="#ArialMT-74" x="66.699219"/>
       <use xlink:href="#ArialMT-61" x="94.482422"/>
       <use xlink:href="#ArialMT-74" x="150.097656"/>
       <use xlink:href="#ArialMT-65" x="177.880859"/>
       <use xlink:href="#ArialMT-20" x="233.496094"/>
       <use xlink:href="#ArialMT-31" x="261.279297"/>
      </g>
     </g>
    </g>
    <g id="xtick_6">
     <g id="line2d_36">
      <g>
       <use xlink:href="#m42c7633d8b" x="299.25" y="961.2" style="fill: #262626; stroke: #262626; stroke-width: 1.25"/>
      </g>
     </g>
     <g id="text_18">
      <!-- State 2 -->
      <g style="fill: #262626" transform="translate(281.821875 978.573594) scale(0.11 -0.11)">
       <use xlink:href="#ArialMT-53"/>
       <use xlink:href="#ArialMT-74" x="66.699219"/>
       <use xlink:href="#ArialMT-61" x="94.482422"/>
       <use xlink:href="#ArialMT-74" x="150.097656"/>
       <use xlink:href="#ArialMT-65" x="177.880859"/>
       <use xlink:href="#ArialMT-20" x="233.496094"/>
       <use xlink:href="#ArialMT-32" x="261.279297"/>
      </g>
     </g>
    </g>
    <g id="xtick_7">
     <g id="line2d_37">
      <g>
       <use xlink:href="#m42c7633d8b" x="438.75" y="961.2" style="fill: #262626; stroke: #262626; stroke-width: 1.25"/>
      </g>
     </g>
     <g id="text_19">
      <!-- State 3 -->
      <g style="fill: #262626" transform="translate(421.321875 978.573594) scale(0.11 -0.11)">
       <use xlink:href="#ArialMT-53"/>
       <use xlink:href="#ArialMT-74" x="66.699219"/>
       <use xlink:href="#ArialMT-61" x="94.482422"/>
       <use xlink:href="#ArialMT-74" x="150.097656"/>
       <use xlink:href="#ArialMT-65" x="177.880859"/>
       <use xlink:href="#ArialMT-20" x="233.496094"/>
       <use xlink:href="#ArialMT-33" x="261.279297"/>
      </g>
     </g>
    </g>
    <g id="xtick_8">
     <g id="line2d_38">
      <g>
       <use xlink:href="#m42c7633d8b" x="578.25" y="961.2" style="fill: #262626; stroke: #262626; stroke-width: 1.25"/>
      </g>
     </g>
     <g id="text_20">
      <!-- State 4 -->
      <g style="fill: #262626" transform="translate(560.821875 978.573594) scale(0.11 -0.11)">
       <use xlink:href="#ArialMT-53"/>
       <use xlink:href="#ArialMT-74" x="66.699219"/>
       <use xlink:href="#ArialMT-61" x="94.482422"/>
       <use xlink:href="#ArialMT-74" x="150.097656"/>
       <use xlink:href="#ArialMT-65" x="177.880859"/>
       <use xlink:href="#ArialMT-20" x="233.496094"/>
       <use xlink:href="#ArialMT-34" x="261.279297"/>
      </g>
     </g>
    </g>
   </g>
   <g id="matplotlib.axis_4">
    <g id="ytick_8">
     <g id="line2d_39">
      <g>
       <use xlink:href="#mf211165e66" x="90" y="949.3875" style="fill: #262626; stroke: #262626; stroke-width: 1.25"/>
      </g>
     </g>
     <g id="text_21">
      <!-- −3 -->
      <g style="fill: #262626" transform="translate(67.958281 953.324297) scale(0.11 -0.11)">
       <use xlink:href="#ArialMT-2212"/>
       <use xlink:href="#ArialMT-33" x="58.398438"/>
      </g>
     </g>
    </g>
    <g id="ytick_9">
     <g id="line2d_40">
      <g>
       <use xlink:href="#mf211165e66" x="90" y="890.325" style="fill: #262626; stroke: #262626; stroke-width: 1.25"/>
      </g>
     </g>
     <g id="text_22">
      <!-- −2 -->
      <g style="fill: #262626" transform="translate(67.958281 894.261797) scale(0.11 -0.11)">
       <use xlink:href="#ArialMT-2212"/>
       <use xlink:href="#ArialMT-32" x="58.398438"/>
      </g>
     </g>
    </g>
    <g id="ytick_10">
     <g id="line2d_41">
      <g>
       <use xlink:href="#mf211165e66" x="90" y="831.2625" style="fill: #262626; stroke: #262626; stroke-width: 1.25"/>
      </g>
     </g>
     <g id="text_23">
      <!-- −1 -->
      <g style="fill: #262626" transform="translate(67.958281 835.199297) scale(0.11 -0.11)">
       <use xlink:href="#ArialMT-2212"/>
       <use xlink:href="#ArialMT-31" x="58.398438"/>
      </g>
     </g>
    </g>
    <g id="ytick_11">
     <g id="line2d_42">
      <g>
       <use xlink:href="#mf211165e66" x="90" y="772.2" style="fill: #262626; stroke: #262626; stroke-width: 1.25"/>
      </g>
     </g>
     <g id="text_24">
      <!-- 0 -->
      <g style="fill: #262626" transform="translate(74.382969 776.136797) scale(0.11 -0.11)">
       <use xlink:href="#ArialMT-30"/>
      </g>
     </g>
    </g>
    <g id="ytick_12">
     <g id="line2d_43">
      <g>
       <use xlink:href="#mf211165e66" x="90" y="713.1375" style="fill: #262626; stroke: #262626; stroke-width: 1.25"/>
      </g>
     </g>
     <g id="text_25">
      <!-- 1 -->
      <g style="fill: #262626" transform="translate(74.382969 717.074297) scale(0.11 -0.11)">
       <use xlink:href="#ArialMT-31"/>
      </g>
     </g>
    </g>
    <g id="ytick_13">
     <g id="line2d_44">
      <g>
       <use xlink:href="#mf211165e66" x="90" y="654.075" style="fill: #262626; stroke: #262626; stroke-width: 1.25"/>
      </g>
     </g>
     <g id="text_26">
      <!-- 2 -->
      <g style="fill: #262626" transform="translate(74.382969 658.011797) scale(0.11 -0.11)">
       <use xlink:href="#ArialMT-32"/>
      </g>
     </g>
    </g>
    <g id="ytick_14">
     <g id="line2d_45">
      <g>
       <use xlink:href="#mf211165e66" x="90" y="595.0125" style="fill: #262626; stroke: #262626; stroke-width: 1.25"/>
      </g>
     </g>
     <g id="text_27">
      <!-- 3 -->
      <g style="fill: #262626" transform="translate(74.382969 598.949297) scale(0.11 -0.11)">
       <use xlink:href="#ArialMT-33"/>
      </g>
     </g>
    </g>
    <g id="text_28">
     <!-- Value (z-scored) -->
     <g style="fill: #262626" transform="translate(61.432656 815.770313) rotate(-90) scale(0.12 -0.12)">
      <use xlink:href="#ArialMT-56"/>
      <use xlink:href="#ArialMT-61" x="59.324219"/>
      <use xlink:href="#ArialMT-6c" x="114.939453"/>
      <use xlink:href="#ArialMT-75" x="137.15625"/>
      <use xlink:href="#ArialMT-65" x="192.771484"/>
      <use xlink:href="#ArialMT-20" x="248.386719"/>
      <use xlink:href="#ArialMT-28" x="276.169922"/>
      <use xlink:href="#ArialMT-7a" x="309.470703"/>
      <use xlink:href="#ArialMT-2d" x="359.470703"/>
      <use xlink:href="#ArialMT-73" x="392.771484"/>
      <use xlink:href="#ArialMT-63" x="442.771484"/>
      <use xlink:href="#ArialMT-6f" x="492.771484"/>
      <use xlink:href="#ArialMT-72" x="548.386719"/>
      <use xlink:href="#ArialMT-65" x="581.6875"/>
      <use xlink:href="#ArialMT-64" x="637.302734"/>
      <use xlink:href="#ArialMT-29" x="692.917969"/>
     </g>
    </g>
   </g>
   <g id="PolyCollection_5">
    <defs>
     <path id="m5da8cdcdd0" d="M 167.709907 -289.890656 
L 159.968566 -289.890656 
L 159.968566 -291.896915 
L 159.968566 -293.903175 
L 159.968566 -295.909434 
L 159.968566 -297.915693 
L 159.968566 -299.921952 
L 159.968566 -301.928211 
L 159.968566 -303.934471 
L 159.968566 -305.94073 
L 159.968566 -307.946989 
L 159.968566 -309.953248 
L 159.968566 -311.959507 
L 159.968566 -313.965767 
L 159.968566 -315.972026 
L 159.968566 -317.978285 
L 159.968566 -319.984544 
L 159.968566 -321.990803 
L 159.968566 -323.997063 
L 159.968566 -326.003322 
L 159.968566 -328.009581 
L 159.968566 -330.01584 
L 159.968566 -332.022099 
L 159.968566 -334.028359 
L 159.968566 -336.034618 
L 159.968566 -338.040877 
L 159.968566 -340.047136 
L 159.968566 -342.053395 
L 159.968566 -344.059655 
L 159.968566 -346.065914 
L 159.968566 -348.072173 
L 159.968566 -350.078432 
L 159.968566 -352.084691 
L 159.968566 -354.090951 
L 159.968566 -356.09721 
L 159.968566 -358.103469 
L 159.968566 -360.109728 
L 159.968566 -362.115987 
L 159.968566 -364.122246 
L 159.968566 -366.128506 
L 161.534047 -366.128506 
L 161.534047 -366.128506 
L 161.556685 -364.122246 
L 161.518935 -362.115987 
L 161.468474 -360.109728 
L 161.457369 -358.103469 
L 161.525873 -356.09721 
L 161.693831 -354.090951 
L 161.964087 -352.084691 
L 162.336047 -350.078432 
L 162.821944 -348.072173 
L 163.456307 -346.065914 
L 164.29188 -344.059655 
L 165.381469 -342.053395 
L 166.752159 -340.047136 
L 168.382728 -338.040877 
L 170.195241 -336.034618 
L 172.067412 -334.028359 
L 173.864945 -332.022099 
L 175.485033 -330.01584 
L 176.896532 -328.009581 
L 178.161291 -326.003322 
L 179.425435 -323.997063 
L 180.877903 -321.990803 
L 182.68396 -319.984544 
L 184.911443 -317.978285 
L 187.474297 -315.972026 
L 190.117772 -313.965767 
L 192.459128 -311.959507 
L 194.077526 -309.953248 
L 194.625 -307.946989 
L 193.918802 -305.94073 
L 191.982442 -303.934471 
L 189.025327 -301.928211 
L 185.376468 -299.921952 
L 181.402191 -297.915693 
L 177.435909 -295.909434 
L 173.735028 -293.903175 
L 170.465967 -291.896915 
L 167.709907 -289.890656 
z
" style="stroke: #d55e00; stroke-opacity: 0.3"/>
    </defs>
    <g clip-path="url(#p52b70f0985)">
     <use xlink:href="#m5da8cdcdd0" x="0" y="1080" style="fill: #d55e00; fill-opacity: 0.3; stroke: #d55e00; stroke-opacity: 0.3"/>
    </g>
   </g>
   <g id="PolyCollection_6">
    <defs>
     <path id="ma405c1f1c6" d="M 304.946053 -254.460908 
L 299.427151 -254.460908 
L 299.427151 -256.985927 
L 299.427151 -259.510946 
L 299.427151 -262.035965 
L 299.427151 -264.560984 
L 299.427151 -267.086003 
L 299.427151 -269.611022 
L 299.427151 -272.136041 
L 299.427151 -274.66106 
L 299.427151 -277.186079 
L 299.427151 -279.711098 
L 299.427151 -282.236117 
L 299.427151 -284.761136 
L 299.427151 -287.286155 
L 299.427151 -289.811174 
L 299.427151 -292.336193 
L 299.427151 -294.861212 
L 299.427151 -297.386231 
L 299.427151 -299.91125 
L 299.427151 -302.436269 
L 299.427151 -304.961288 
L 299.427151 -307.486307 
L 299.427151 -310.011326 
L 299.427151 -312.536345 
L 299.427151 -315.061364 
L 299.427151 -317.586383 
L 299.427151 -320.111402 
L 299.427151 -322.636421 
L 299.427151 -325.16144 
L 299.427151 -327.686459 
L 299.427151 -330.211478 
L 299.427151 -332.736497 
L 299.427151 -335.261516 
L 299.427151 -337.786535 
L 299.427151 -340.311554 
L 299.427151 -342.836574 
L 299.427151 -345.361593 
L 299.427151 -347.886612 
L 299.427151 -350.411631 
L 302.207146 -350.411631 
L 302.207146 -350.411631 
L 302.461998 -347.886612 
L 302.592791 -345.361593 
L 302.619768 -342.836574 
L 302.59337 -340.311554 
L 302.583528 -337.786535 
L 302.664505 -335.261516 
L 302.901834 -332.736497 
L 303.347352 -330.211478 
L 304.044274 -327.686459 
L 305.038269 -325.16144 
L 306.385833 -322.636421 
L 308.151114 -320.111402 
L 310.387742 -317.586383 
L 313.110508 -315.061364 
L 316.268324 -312.536345 
L 319.730612 -310.011326 
L 323.293814 -307.486307 
L 326.706426 -304.961288 
L 329.704666 -302.436269 
L 332.049422 -299.91125 
L 333.55768 -297.386231 
L 334.125 -294.861212 
L 333.737329 -292.336193 
L 332.470494 -289.811174 
L 330.476413 -287.286155 
L 327.957809 -284.761136 
L 325.137127 -282.236117 
L 322.227258 -279.711098 
L 319.409672 -277.186079 
L 316.820903 -274.66106 
L 314.544973 -272.136041 
L 312.60983 -269.611022 
L 310.989272 -267.086003 
L 309.613866 -264.560984 
L 308.392144 -262.035965 
L 307.23781 -259.510946 
L 306.094039 -256.985927 
L 304.946053 -254.460908 
z
" style="stroke: #0072b2; stroke-opacity: 0.3"/>
    </defs>
    <g clip-path="url(#p52b70f0985)">
     <use xlink:href="#ma405c1f1c6" x="0" y="1080" style="fill: #0072b2; fill-opacity: 0.3; stroke: #0072b2; stroke-opacity: 0.3"/>
    </g>
   </g>
   <g id="PolyCollection_7">
    <defs>
     <path id="md00e4b8a60" d="M 443.507897 -265.716588 
L 438.898933 -265.716588 
L 438.898933 -268.226459 
L 438.898933 -270.73633 
L 438.898933 -273.246201 
L 438.898933 -275.756072 
L 438.898933 -278.265944 
L 438.898933 -280.775815 
L 438.898933 -283.285686 
L 438.898933 -285.795557 
L 438.898933 -288.305428 
L 438.898933 -290.815299 
L 438.898933 -293.325171 
L 438.898933 -295.835042 
L 438.898933 -298.344913 
L 438.898933 -300.854784 
L 438.898933 -303.364655 
L 438.898933 -305.874526 
L 438.898933 -308.384398 
L 438.898933 -310.894269 
L 438.898933 -313.40414 
L 438.898933 -315.914011 
L 438.898933 -318.423882 
L 438.898933 -320.933753 
L 438.898933 -323.443625 
L 438.898933 -325.953496 
L 438.898933 -328.463367 
L 438.898933 -330.973238 
L 438.898933 -333.483109 
L 438.898933 -335.99298 
L 438.898933 -338.502852 
L 438.898933 -341.012723 
L 438.898933 -343.522594 
L 438.898933 -346.032465 
L 438.898933 -348.542336 
L 438.898933 -351.052207 
L 438.898933 -353.562079 
L 438.898933 -356.07195 
L 438.898933 -358.581821 
L 438.898933 -361.091692 
L 441.297771 -361.091692 
L 441.297771 -361.091692 
L 441.640435 -358.581821 
L 441.982743 -356.07195 
L 442.337106 -353.562079 
L 442.705451 -351.052207 
L 443.079271 -348.542336 
L 443.452602 -346.032465 
L 443.842708 -343.522594 
L 444.307236 -341.012723 
L 444.947345 -338.502852 
L 445.893473 -335.99298 
L 447.278699 -333.483109 
L 449.208358 -330.973238 
L 451.732288 -328.463367 
L 454.821773 -325.953496 
L 458.352719 -323.443625 
L 462.101022 -320.933753 
L 465.760431 -318.423882 
L 468.989828 -315.914011 
L 471.483768 -313.40414 
L 473.044257 -310.894269 
L 473.625 -308.384398 
L 473.32854 -305.874526 
L 472.357797 -303.364655 
L 470.943938 -300.854784 
L 469.280647 -298.344913 
L 467.487574 -295.835042 
L 465.609358 -293.325171 
L 463.640994 -290.815299 
L 461.562574 -288.305428 
L 459.368024 -285.795557 
L 457.079783 -283.285686 
L 454.749175 -280.775815 
L 452.446909 -278.265944 
L 450.248965 -275.756072 
L 448.2222 -273.246201 
L 446.413119 -270.73633 
L 444.842591 -268.226459 
L 443.507897 -265.716588 
z
" style="stroke: #009e73; stroke-opacity: 0.3"/>
    </defs>
    <g clip-path="url(#p52b70f0985)">
     <use xlink:href="#md00e4b8a60" x="0" y="1080" style="fill: #009e73; fill-opacity: 0.3; stroke: #009e73; stroke-opacity: 0.3"/>
    </g>
   </g>
   <g id="PolyCollection_8">
    <defs>
     <path id="m8feb37e4fe" d="M 580.419833 -255.922389 
L 578.327568 -255.922389 
L 578.327568 -259.381092 
L 578.327568 -262.839795 
L 578.327568 -266.298498 
L 578.327568 -269.7572 
L 578.327568 -273.215903 
L 578.327568 -276.674606 
L 578.327568 -280.133309 
L 578.327568 -283.592011 
L 578.327568 -287.050714 
L 578.327568 -290.509417 
L 578.327568 -293.968119 
L 578.327568 -297.426822 
L 578.327568 -300.885525 
L 578.327568 -304.344228 
L 578.327568 -307.80293 
L 578.327568 -311.261633 
L 578.327568 -314.720336 
L 578.327568 -318.179039 
L 578.327568 -321.637741 
L 578.327568 -325.096444 
L 578.327568 -328.555147 
L 578.327568 -332.013849 
L 578.327568 -335.472552 
L 578.327568 -338.931255 
L 578.327568 -342.389958 
L 578.327568 -345.84866 
L 578.327568 -349.307363 
L 578.327568 -352.766066 
L 578.327568 -356.224769 
L 578.327568 -359.683471 
L 578.327568 -363.142174 
L 578.327568 -366.600877 
L 578.327568 -370.059579 
L 578.327568 -373.518282 
L 578.327568 -376.976985 
L 578.327568 -380.435688 
L 578.327568 -383.89439 
L 578.327568 -387.353093 
L 580.193318 -387.353093 
L 580.193318 -387.353093 
L 580.15593 -383.89439 
L 580.026065 -380.435688 
L 579.914109 -376.976985 
L 579.963315 -373.518282 
L 580.318263 -370.059579 
L 581.096016 -366.600877 
L 582.368209 -363.142174 
L 584.159244 -359.683471 
L 586.460996 -356.224769 
L 589.255017 -352.766066 
L 592.522246 -349.307363 
L 596.21977 -345.84866 
L 600.224228 -342.389958 
L 604.275181 -338.931255 
L 607.972893 -335.472552 
L 610.866654 -332.013849 
L 612.613078 -328.555147 
L 613.125 -325.096444 
L 612.618417 -321.637741 
L 611.515701 -318.179039 
L 610.24842 -314.720336 
L 609.064951 -311.261633 
L 607.944925 -307.80293 
L 606.65803 -304.344228 
L 604.922407 -300.885525 
L 602.56903 -297.426822 
L 599.628411 -293.968119 
L 596.311375 -290.509417 
L 592.916972 -287.050714 
L 589.730102 -283.592011 
L 586.957584 -280.133309 
L 584.713199 -276.674606 
L 583.031065 -273.215903 
L 581.881726 -269.7572 
L 581.181329 -266.298498 
L 580.801836 -262.839795 
L 580.593512 -259.381092 
L 580.419833 -255.922389 
z
" style="stroke: #cc79a7; stroke-opacity: 0.3"/>
    </defs>
    <g clip-path="url(#p52b70f0985)">
     <use xlink:href="#m8feb37e4fe" x="0" y="1080" style="fill: #cc79a7; fill-opacity: 0.3; stroke: #cc79a7; stroke-opacity: 0.3"/>
    </g>
   </g>
   <g id="PathCollection_5">
    <g clip-path="url(#p52b70f0985)">
     <use xlink:href="#m869b107cbc" x="131.135309" y="750.772499" style="fill: #d55e00; stroke: #d55e00"/>
     <use xlink:href="#m869b107cbc" x="130.96706" y="761.530922" style="fill: #d55e00; stroke: #d55e00"/>
     <use xlink:href="#m869b107cbc" x="135.959269" y="767.164197" style="fill: #d55e00; stroke: #d55e00"/>
     <use xlink:href="#m869b107cbc" x="132.922014" y="762.967464" style="fill: #d55e00; stroke: #d55e00"/>
     <use xlink:href="#m869b107cbc" x="136.427961" y="775.871402" style="fill: #d55e00; stroke: #d55e00"/>
     <use xlink:href="#m869b107cbc" x="132.420642" y="767.616521" style="fill: #d55e00; stroke: #d55e00"/>
     <use xlink:href="#m869b107cbc" x="129.889843" y="770.680038" style="fill: #d55e00; stroke: #d55e00"/>
     <use xlink:href="#m869b107cbc" x="129.610691" y="768.487391" style="fill: #d55e00; stroke: #d55e00"/>
     <use xlink:href="#m869b107cbc" x="130.551475" y="781.828315" style="fill: #d55e00; stroke: #d55e00"/>
     <use xlink:href="#m869b107cbc" x="136.327857" y="782.898367" style="fill: #d55e00; stroke: #d55e00"/>
     <use xlink:href="#m869b107cbc" x="126.589815" y="770.328789" style="fill: #d55e00; stroke: #d55e00"/>
     <use xlink:href="#m869b107cbc" x="134.752008" y="770.503191" style="fill: #d55e00; stroke: #d55e00"/>
     <use xlink:href="#m869b107cbc" x="128.169281" y="773.240561" style="fill: #d55e00; stroke: #d55e00"/>
     <use xlink:href="#m869b107cbc" x="136.19059" y="713.871494" style="fill: #d55e00; stroke: #d55e00"/>
     <use xlink:href="#m869b107cbc" x="126.459279" y="747.628464" style="fill: #d55e00; stroke: #d55e00"/>
     <use xlink:href="#m869b107cbc" x="126.306112" y="783.092848" style="fill: #d55e00; stroke: #d55e00"/>
     <use xlink:href="#m869b107cbc" x="129.573861" y="771.74781" style="fill: #d55e00; stroke: #d55e00"/>
     <use xlink:href="#m869b107cbc" x="126.261678" y="741.696569" style="fill: #d55e00; stroke: #d55e00"/>
     <use xlink:href="#m869b107cbc" x="133.461311" y="754.411658" style="fill: #d55e00; stroke: #d55e00"/>
     <use xlink:href="#m869b107cbc" x="135.999121" y="754.059818" style="fill: #d55e00; stroke: #d55e00"/>
     <use xlink:href="#m869b107cbc" x="134.8313" y="751.195894" style="fill: #d55e00; stroke: #d55e00"/>
     <use xlink:href="#m869b107cbc" x="134.005735" y="773.978644" style="fill: #d55e00; stroke: #d55e00"/>
     <use xlink:href="#m869b107cbc" x="130.467831" y="775.460538" style="fill: #d55e00; stroke: #d55e00"/>
     <use xlink:href="#m869b107cbc" x="137.857433" y="774.182521" style="fill: #d55e00; stroke: #d55e00"/>
     <use xlink:href="#m869b107cbc" x="138.373337" y="757.478387" style="fill: #d55e00; stroke: #d55e00"/>
     <use xlink:href="#m869b107cbc" x="132.508534" y="780.006936" style="fill: #d55e00; stroke: #d55e00"/>
     <use xlink:href="#m869b107cbc" x="134.419643" y="779.786634" style="fill: #d55e00; stroke: #d55e00"/>
     <use xlink:href="#m869b107cbc" x="128.629609" y="775.953855" style="fill: #d55e00; stroke: #d55e00"/>
     <use xlink:href="#m869b107cbc" x="134.402889" y="761.82209" style="fill: #d55e00; stroke: #d55e00"/>
     <use xlink:href="#m869b107cbc" x="134.643522" y="776.773785" style="fill: #d55e00; stroke: #d55e00"/>
     <use xlink:href="#m869b107cbc" x="130.864672" y="770.608224" style="fill: #d55e00; stroke: #d55e00"/>
     <use xlink:href="#m869b107cbc" x="125.623459" y="770.491144" style="fill: #d55e00; stroke: #d55e00"/>
     <use xlink:href="#m869b107cbc" x="128.945758" y="790.109344" style="fill: #d55e00; stroke: #d55e00"/>
     <use xlink:href="#m869b107cbc" x="134.432399" y="770.116411" style="fill: #d55e00; stroke: #d55e00"/>
     <use xlink:href="#m869b107cbc" x="132.613344" y="750.386949" style="fill: #d55e00; stroke: #d55e00"/>
     <use xlink:href="#m869b107cbc" x="131.520326" y="771.172519" style="fill: #d55e00; stroke: #d55e00"/>
     <use xlink:href="#m869b107cbc" x="129.014663" y="746.97595" style="fill: #d55e00; stroke: #d55e00"/>
     <use xlink:href="#m869b107cbc" x="134.490773" y="758.50933" style="fill: #d55e00; stroke: #d55e00"/>
     <use xlink:href="#m869b107cbc" x="126.072323" y="731.46337" style="fill: #d55e00; stroke: #d55e00"/>
    </g>
   </g>
   <g id="PathCollection_6">
    <g clip-path="url(#p52b70f0985)">
     <use xlink:href="#m104d2b67d2" x="278.296481" y="825.539092" style="fill: #0072b2; stroke: #0072b2"/>
     <use xlink:href="#m104d2b67d2" x="274.107924" y="775.828681" style="fill: #0072b2; stroke: #0072b2"/>
     <use xlink:href="#m104d2b67d2" x="265.026716" y="772.224473" style="fill: #0072b2; stroke: #0072b2"/>
     <use xlink:href="#m104d2b67d2" x="278.247682" y="769.768339" style="fill: #0072b2; stroke: #0072b2"/>
     <use xlink:href="#m104d2b67d2" x="272.607508" y="778.532697" style="fill: #0072b2; stroke: #0072b2"/>
     <use xlink:href="#m104d2b67d2" x="269.393176" y="770.50627" style="fill: #0072b2; stroke: #0072b2"/>
     <use xlink:href="#m104d2b67d2" x="272.963837" y="788.981546" style="fill: #0072b2; stroke: #0072b2"/>
     <use xlink:href="#m104d2b67d2" x="269.030444" y="781.276476" style="fill: #0072b2; stroke: #0072b2"/>
     <use xlink:href="#m104d2b67d2" x="273.195113" y="737.55968" style="fill: #0072b2; stroke: #0072b2"/>
     <use xlink:href="#m104d2b67d2" x="275.508197" y="790.024209" style="fill: #0072b2; stroke: #0072b2"/>
     <use xlink:href="#m104d2b67d2" x="267.622106" y="796.973978" style="fill: #0072b2; stroke: #0072b2"/>
     <use xlink:href="#m104d2b67d2" x="268.83594" y="782.468477" style="fill: #0072b2; stroke: #0072b2"/>
     <use xlink:href="#m104d2b67d2" x="264.521565" y="775.501289" style="fill: #0072b2; stroke: #0072b2"/>
     <use xlink:href="#m104d2b67d2" x="265.931467" y="790.375624" style="fill: #0072b2; stroke: #0072b2"/>
     <use xlink:href="#m104d2b67d2" x="274.149517" y="804.627876" style="fill: #0072b2; stroke: #0072b2"/>
     <use xlink:href="#m104d2b67d2" x="268.545145" y="754.291203" style="fill: #0072b2; stroke: #0072b2"/>
     <use xlink:href="#m104d2b67d2" x="269.860842" y="792.119929" style="fill: #0072b2; stroke: #0072b2"/>
     <use xlink:href="#m104d2b67d2" x="276.099966" y="792.982001" style="fill: #0072b2; stroke: #0072b2"/>
     <use xlink:href="#m104d2b67d2" x="266.591383" y="805.62759" style="fill: #0072b2; stroke: #0072b2"/>
     <use xlink:href="#m104d2b67d2" x="276.816984" y="784.355562" style="fill: #0072b2; stroke: #0072b2"/>
     <use xlink:href="#m104d2b67d2" x="273.012211" y="818.293187" style="fill: #0072b2; stroke: #0072b2"/>
     <use xlink:href="#m104d2b67d2" x="264.987575" y="772.3606" style="fill: #0072b2; stroke: #0072b2"/>
     <use xlink:href="#m104d2b67d2" x="273.507157" y="800.50053" style="fill: #0072b2; stroke: #0072b2"/>
     <use xlink:href="#m104d2b67d2" x="266.773238" y="759.983556" style="fill: #0072b2; stroke: #0072b2"/>
     <use xlink:href="#m104d2b67d2" x="271.434635" y="818.566138" style="fill: #0072b2; stroke: #0072b2"/>
     <use xlink:href="#m104d2b67d2" x="277.092047" y="788.389175" style="fill: #0072b2; stroke: #0072b2"/>
     <use xlink:href="#m104d2b67d2" x="274.724219" y="786.881264" style="fill: #0072b2; stroke: #0072b2"/>
     <use xlink:href="#m104d2b67d2" x="274.192873" y="814.384026" style="fill: #0072b2; stroke: #0072b2"/>
     <use xlink:href="#m104d2b67d2" x="269.407095" y="788.585659" style="fill: #0072b2; stroke: #0072b2"/>
     <use xlink:href="#m104d2b67d2" x="265.190766" y="778.520509" style="fill: #0072b2; stroke: #0072b2"/>
     <use xlink:href="#m104d2b67d2" x="274.351434" y="729.588369" style="fill: #0072b2; stroke: #0072b2"/>
     <use xlink:href="#m104d2b67d2" x="269.471217" y="784.158831" style="fill: #0072b2; stroke: #0072b2"/>
     <use xlink:href="#m104d2b67d2" x="273.713448" y="795.531217" style="fill: #0072b2; stroke: #0072b2"/>
     <use xlink:href="#m104d2b67d2" x="265.819126" y="782.21892" style="fill: #0072b2; stroke: #0072b2"/>
     <use xlink:href="#m104d2b67d2" x="277.134419" y="800.457985" style="fill: #0072b2; stroke: #0072b2"/>
     <use xlink:href="#m104d2b67d2" x="269.967768" y="778.358011" style="fill: #0072b2; stroke: #0072b2"/>
     <use xlink:href="#m104d2b67d2" x="266.255463" y="781.476278" style="fill: #0072b2; stroke: #0072b2"/>
     <use xlink:href="#m104d2b67d2" x="266.93574" y="789.926099" style="fill: #0072b2; stroke: #0072b2"/>
     <use xlink:href="#m104d2b67d2" x="272.250749" y="802.846127" style="fill: #0072b2; stroke: #0072b2"/>
    </g>
   </g>
   <g id="PathCollection_7">
    <g clip-path="url(#p52b70f0985)">
     <use xlink:href="#m08dcb50ec3" x="405.007166" y="755.256328" style="fill: #009e73; stroke: #009e73"/>
     <use xlink:href="#m08dcb50ec3" x="405.701713" y="800.022295" style="fill: #009e73; stroke: #009e73"/>
     <use xlink:href="#m08dcb50ec3" x="413.051124" y="777.863974" style="fill: #009e73; stroke: #009e73"/>
     <use xlink:href="#m08dcb50ec3" x="415.262469" y="790.961193" style="fill: #009e73; stroke: #009e73"/>
     <use xlink:href="#m08dcb50ec3" x="405.216642" y="779.856718" style="fill: #009e73; stroke: #009e73"/>
     <use xlink:href="#m08dcb50ec3" x="415.302245" y="792.139628" style="fill: #009e73; stroke: #009e73"/>
     <use xlink:href="#m08dcb50ec3" x="410.959152" y="718.908308" style="fill: #009e73; stroke: #009e73"/>
     <use xlink:href="#m08dcb50ec3" x="416.601416" y="766.695814" style="fill: #009e73; stroke: #009e73"/>
     <use xlink:href="#m08dcb50ec3" x="413.735483" y="778.281268" style="fill: #009e73; stroke: #009e73"/>
     <use xlink:href="#m08dcb50ec3" x="409.542155" y="765.6124" style="fill: #009e73; stroke: #009e73"/>
     <use xlink:href="#m08dcb50ec3" x="417.199661" y="799.825184" style="fill: #009e73; stroke: #009e73"/>
     <use xlink:href="#m08dcb50ec3" x="409.122067" y="784.831847" style="fill: #009e73; stroke: #009e73"/>
     <use xlink:href="#m08dcb50ec3" x="410.785049" y="754.906014" style="fill: #009e73; stroke: #009e73"/>
     <use xlink:href="#m08dcb50ec3" x="408.703858" y="775.080105" style="fill: #009e73; stroke: #009e73"/>
     <use xlink:href="#m08dcb50ec3" x="413.922654" y="764.33673" style="fill: #009e73; stroke: #009e73"/>
     <use xlink:href="#m08dcb50ec3" x="412.311024" y="782.086269" style="fill: #009e73; stroke: #009e73"/>
     <use xlink:href="#m08dcb50ec3" x="405.248606" y="776.538944" style="fill: #009e73; stroke: #009e73"/>
     <use xlink:href="#m08dcb50ec3" x="410.317913" y="797.651145" style="fill: #009e73; stroke: #009e73"/>
     <use xlink:href="#m08dcb50ec3" x="412.254502" y="814.283412" style="fill: #009e73; stroke: #009e73"/>
     <use xlink:href="#m08dcb50ec3" x="417.605796" y="768.668925" style="fill: #009e73; stroke: #009e73"/>
     <use xlink:href="#m08dcb50ec3" x="414.439078" y="734.292933" style="fill: #009e73; stroke: #009e73"/>
     <use xlink:href="#m08dcb50ec3" x="406.218647" y="768.792941" style="fill: #009e73; stroke: #009e73"/>
     <use xlink:href="#m08dcb50ec3" x="410.847402" y="766.74664" style="fill: #009e73; stroke: #009e73"/>
     <use xlink:href="#m08dcb50ec3" x="415.983471" y="770.462049" style="fill: #009e73; stroke: #009e73"/>
     <use xlink:href="#m08dcb50ec3" x="409.925582" y="737.49366" style="fill: #009e73; stroke: #009e73"/>
     <use xlink:href="#m08dcb50ec3" x="409.327393" y="766.492009" style="fill: #009e73; stroke: #009e73"/>
     <use xlink:href="#m08dcb50ec3" x="411.005541" y="791.008736" style="fill: #009e73; stroke: #009e73"/>
     <use xlink:href="#m08dcb50ec3" x="415.518045" y="772.563725" style="fill: #009e73; stroke: #009e73"/>
     <use xlink:href="#m08dcb50ec3" x="409.5584" y="772.414948" style="fill: #009e73; stroke: #009e73"/>
     <use xlink:href="#m08dcb50ec3" x="416.759052" y="761.221375" style="fill: #009e73; stroke: #009e73"/>
     <use xlink:href="#m08dcb50ec3" x="404.531801" y="781.457214" style="fill: #009e73; stroke: #009e73"/>
     <use xlink:href="#m08dcb50ec3" x="405.925264" y="768.592294" style="fill: #009e73; stroke: #009e73"/>
     <use xlink:href="#m08dcb50ec3" x="417.103114" y="751.178008" style="fill: #009e73; stroke: #009e73"/>
     <use xlink:href="#m08dcb50ec3" x="408.158435" y="767.443037" style="fill: #009e73; stroke: #009e73"/>
     <use xlink:href="#m08dcb50ec3" x="408.666732" y="804.479744" style="fill: #009e73; stroke: #009e73"/>
     <use xlink:href="#m08dcb50ec3" x="404.937837" y="763.029975" style="fill: #009e73; stroke: #009e73"/>
     <use xlink:href="#m08dcb50ec3" x="416.277786" y="788.554147" style="fill: #009e73; stroke: #009e73"/>
     <use xlink:href="#m08dcb50ec3" x="416.857287" y="789.351582" style="fill: #009e73; stroke: #009e73"/>
     <use xlink:href="#m08dcb50ec3" x="405.272908" y="786.664101" style="fill: #009e73; stroke: #009e73"/>
    </g>
   </g>
   <g id="PathCollection_8">
    <g clip-path="url(#p52b70f0985)">
     <use xlink:href="#mac32a7599b" x="555.118587" y="754.261832" style="fill: #cc79a7; stroke: #cc79a7"/>
     <use xlink:href="#mac32a7599b" x="545.873726" y="759.754657" style="fill: #cc79a7; stroke: #cc79a7"/>
     <use xlink:href="#mac32a7599b" x="549.753357" y="775.318346" style="fill: #cc79a7; stroke: #cc79a7"/>
     <use xlink:href="#mac32a7599b" x="544.186679" y="750.727588" style="fill: #cc79a7; stroke: #cc79a7"/>
     <use xlink:href="#mac32a7599b" x="547.286305" y="747.357967" style="fill: #cc79a7; stroke: #cc79a7"/>
     <use xlink:href="#mac32a7599b" x="554.340519" y="748.147583" style="fill: #cc79a7; stroke: #cc79a7"/>
     <use xlink:href="#mac32a7599b" x="544.600532" y="778.359284" style="fill: #cc79a7; stroke: #cc79a7"/>
     <use xlink:href="#mac32a7599b" x="547.611694" y="781.311701" style="fill: #cc79a7; stroke: #cc79a7"/>
     <use xlink:href="#mac32a7599b" x="553.691884" y="799.524986" style="fill: #cc79a7; stroke: #cc79a7"/>
     <use xlink:href="#mac32a7599b" x="550.814679" y="740.119182" style="fill: #cc79a7; stroke: #cc79a7"/>
     <use xlink:href="#mac32a7599b" x="548.724238" y="692.646907" style="fill: #cc79a7; stroke: #cc79a7"/>
     <use xlink:href="#mac32a7599b" x="555.151273" y="757.235787" style="fill: #cc79a7; stroke: #cc79a7"/>
     <use xlink:href="#mac32a7599b" x="553.077462" y="779.100315" style="fill: #cc79a7; stroke: #cc79a7"/>
     <use xlink:href="#mac32a7599b" x="550.626724" y="782.374841" style="fill: #cc79a7; stroke: #cc79a7"/>
     <use xlink:href="#mac32a7599b" x="553.668248" y="777.730744" style="fill: #cc79a7; stroke: #cc79a7"/>
     <use xlink:href="#mac32a7599b" x="552.2787" y="772.901255" style="fill: #cc79a7; stroke: #cc79a7"/>
     <use xlink:href="#mac32a7599b" x="552.970475" y="745.435123" style="fill: #cc79a7; stroke: #cc79a7"/>
     <use xlink:href="#mac32a7599b" x="548.069818" y="755.145685" style="fill: #cc79a7; stroke: #cc79a7"/>
     <use xlink:href="#mac32a7599b" x="547.281278" y="746.990011" style="fill: #cc79a7; stroke: #cc79a7"/>
     <use xlink:href="#mac32a7599b" x="551.863844" y="767.420405" style="fill: #cc79a7; stroke: #cc79a7"/>
     <use xlink:href="#mac32a7599b" x="548.664925" y="794.466415" style="fill: #cc79a7; stroke: #cc79a7"/>
     <use xlink:href="#mac32a7599b" x="553.613885" y="771.556875" style="fill: #cc79a7; stroke: #cc79a7"/>
     <use xlink:href="#mac32a7599b" x="544.948568" y="729.30471" style="fill: #cc79a7; stroke: #cc79a7"/>
     <use xlink:href="#mac32a7599b" x="552.922974" y="785.845376" style="fill: #cc79a7; stroke: #cc79a7"/>
     <use xlink:href="#mac32a7599b" x="546.336757" y="760.79618" style="fill: #cc79a7; stroke: #cc79a7"/>
     <use xlink:href="#mac32a7599b" x="547.814931" y="757.267526" style="fill: #cc79a7; stroke: #cc79a7"/>
     <use xlink:href="#mac32a7599b" x="549.399585" y="749.924362" style="fill: #cc79a7; stroke: #cc79a7"/>
     <use xlink:href="#mac32a7599b" x="552.641754" y="749.849511" style="fill: #cc79a7; stroke: #cc79a7"/>
     <use xlink:href="#mac32a7599b" x="547.204064" y="771.247909" style="fill: #cc79a7; stroke: #cc79a7"/>
     <use xlink:href="#mac32a7599b" x="556.660011" y="736.621186" style="fill: #cc79a7; stroke: #cc79a7"/>
     <use xlink:href="#mac32a7599b" x="552.591766" y="824.077611" style="fill: #cc79a7; stroke: #cc79a7"/>
     <use xlink:href="#mac32a7599b" x="544.573422" y="755.311687" style="fill: #cc79a7; stroke: #cc79a7"/>
     <use xlink:href="#mac32a7599b" x="552.06707" y="734.271548" style="fill: #cc79a7; stroke: #cc79a7"/>
     <use xlink:href="#mac32a7599b" x="553.004394" y="752.70324" style="fill: #cc79a7; stroke: #cc79a7"/>
     <use xlink:href="#mac32a7599b" x="547.118283" y="748.460248" style="fill: #cc79a7; stroke: #cc79a7"/>
     <use xlink:href="#mac32a7599b" x="555.335252" y="766.70455" style="fill: #cc79a7; stroke: #cc79a7"/>
     <use xlink:href="#mac32a7599b" x="556.811802" y="780.717876" style="fill: #cc79a7; stroke: #cc79a7"/>
     <use xlink:href="#mac32a7599b" x="544.632173" y="726.572037" style="fill: #cc79a7; stroke: #cc79a7"/>
     <use xlink:href="#mac32a7599b" x="554.435568" y="787.816467" style="fill: #cc79a7; stroke: #cc79a7"/>
    </g>
   </g>
   <g id="patch_12">
    <path d="M 149.2875 774.82153 
L 170.2125 774.82153 
L 170.2125 755.945023 
L 149.2875 755.945023 
L 149.2875 774.82153 
z
" clip-path="url(#p52b70f0985)" style="fill: #d55e00; opacity: 0.5; stroke: #000000; stroke-linejoin: miter"/>
   </g>
   <g id="line2d_46">
    <path d="M 159.75 774.82153 
L 159.75 790.109344 
" clip-path="url(#p52b70f0985)" style="fill: none; stroke: #000000; stroke-linecap: round"/>
   </g>
   <g id="line2d_47">
    <path d="M 159.75 755.945023 
L 159.75 731.46337 
" clip-path="url(#p52b70f0985)" style="fill: none; stroke: #000000; stroke-linecap: round"/>
   </g>
   <g id="line2d_48">
    <path d="M 154.51875 790.109344 
L 164.98125 790.109344 
" clip-path="url(#p52b70f0985)" style="fill: none; stroke: #000000; stroke-linecap: round"/>
   </g>
   <g id="line2d_49">
    <path d="M 154.51875 731.46337 
L 164.98125 731.46337 
" clip-path="url(#p52b70f0985)" style="fill: none; stroke: #000000; stroke-linecap: round"/>
   </g>
   <g id="patch_13">
    <path d="M 288.7875 796.252598 
L 309.7125 796.252598 
L 309.7125 777.093346 
L 288.7875 777.093346 
L 288.7875 796.252598 
z
" clip-path="url(#p52b70f0985)" style="fill: #0072b2; opacity: 0.5; stroke: #000000; stroke-linejoin: miter"/>
   </g>
   <g id="line2d_50">
    <path d="M 299.25 796.252598 
L 299.25 818.566138 
" clip-path="url(#p52b70f0985)" style="fill: none; stroke: #000000; stroke-linecap: round"/>
   </g>
   <g id="line2d_51">
    <path d="M 299.25 777.093346 
L 299.25 754.291203 
" clip-path="url(#p52b70f0985)" style="fill: none; stroke: #000000; stroke-linecap: round"/>
   </g>
   <g id="line2d_52">
    <path d="M 294.01875 818.566138 
L 304.48125 818.566138 
" clip-path="url(#p52b70f0985)" style="fill: none; stroke: #000000; stroke-linecap: round"/>
   </g>
   <g id="line2d_53">
    <path d="M 294.01875 754.291203 
L 304.48125 754.291203 
" clip-path="url(#p52b70f0985)" style="fill: none; stroke: #000000; stroke-linecap: round"/>
   </g>
   <g id="patch_14">
    <path d="M 428.2875 787.609124 
L 449.2125 787.609124 
L 449.2125 766.052205 
L 428.2875 766.052205 
L 428.2875 787.609124 
z
" clip-path="url(#p52b70f0985)" style="fill: #009e73; opacity: 0.5; stroke: #000000; stroke-linejoin: miter"/>
   </g>
   <g id="line2d_54">
    <path d="M 438.75 787.609124 
L 438.75 814.283412 
" clip-path="url(#p52b70f0985)" style="fill: none; stroke: #000000; stroke-linecap: round"/>
   </g>
   <g id="line2d_55">
    <path d="M 438.75 766.052205 
L 438.75 734.292933 
" clip-path="url(#p52b70f0985)" style="fill: none; stroke: #000000; stroke-linecap: round"/>
   </g>
   <g id="line2d_56">
    <path d="M 433.51875 814.283412 
L 443.98125 814.283412 
" clip-path="url(#p52b70f0985)" style="fill: none; stroke: #000000; stroke-linecap: round"/>
   </g>
   <g id="line2d_57">
    <path d="M 433.51875 734.292933 
L 443.98125 734.292933 
" clip-path="url(#p52b70f0985)" style="fill: none; stroke: #000000; stroke-linecap: round"/>
   </g>
   <g id="patch_15">
    <path d="M 567.7875 778.045014 
L 588.7125 778.045014 
L 588.7125 748.303916 
L 567.7875 748.303916 
L 567.7875 778.045014 
z
" clip-path="url(#p52b70f0985)" style="fill: #cc79a7; opacity: 0.5; stroke: #000000; stroke-linejoin: miter"/>
   </g>
   <g id="line2d_58">
    <path d="M 578.25 778.045014 
L 578.25 799.524986 
" clip-path="url(#p52b70f0985)" style="fill: none; stroke: #000000; stroke-linecap: round"/>
   </g>
   <g id="line2d_59">
    <path d="M 578.25 748.303916 
L 578.25 726.572037 
" clip-path="url(#p52b70f0985)" style="fill: none; stroke: #000000; stroke-linecap: round"/>
   </g>
   <g id="line2d_60">
    <path d="M 573.01875 799.524986 
L 583.48125 799.524986 
" clip-path="url(#p52b70f0985)" style="fill: none; stroke: #000000; stroke-linecap: round"/>
   </g>
   <g id="line2d_61">
    <path d="M 573.01875 726.572037 
L 583.48125 726.572037 
" clip-path="url(#p52b70f0985)" style="fill: none; stroke: #000000; stroke-linecap: round"/>
   </g>
   <g id="line2d_62">
    <path d="M 159.75 680.834407 
L 299.25 680.834407 
" clip-path="url(#p52b70f0985)" style="fill: none; stroke: #000000; stroke-width: 1.5; stroke-linecap: round"/>
   </g>
   <g id="line2d_63">
    <path d="M 299.25 669.021907 
L 438.75 669.021907 
" clip-path="url(#p52b70f0985)" style="fill: none; stroke: #000000; stroke-width: 1.5; stroke-linecap: round"/>
   </g>
   <g id="line2d_64">
    <path d="M 299.25 657.209407 
L 578.25 657.209407 
" clip-path="url(#p52b70f0985)" style="fill: none; stroke: #000000; stroke-width: 1.5; stroke-linecap: round"/>
   </g>
   <g id="line2d_65">
    <path d="M 149.2875 770.328789 
L 170.2125 770.328789 
" clip-path="url(#p52b70f0985)" style="fill: none; stroke: #000000"/>
   </g>
   <g id="line2d_66">
    <path d="M 288.7875 786.881264 
L 309.7125 786.881264 
" clip-path="url(#p52b70f0985)" style="fill: none; stroke: #000000"/>
   </g>
   <g id="line2d_67">
    <path d="M 428.2875 772.563725 
L 449.2125 772.563725 
" clip-path="url(#p52b70f0985)" style="fill: none; stroke: #000000"/>
   </g>
   <g id="line2d_68">
    <path d="M 567.7875 757.267526 
L 588.7125 757.267526 
" clip-path="url(#p52b70f0985)" style="fill: none; stroke: #000000"/>
   </g>
   <g id="patch_16">
    <path d="M 90 961.2 
L 90 583.2 
" style="fill: none; stroke: #262626; stroke-width: 1.25; stroke-linejoin: miter; stroke-linecap: square"/>
   </g>
   <g id="patch_17">
    <path d="M 648 961.2 
L 648 583.2 
" style="fill: none; stroke: #262626; stroke-width: 1.25; stroke-linejoin: miter; stroke-linecap: square"/>
   </g>
   <g id="patch_18">
    <path d="M 90 961.2 
L 648 961.2 
" style="fill: none; stroke: #262626; stroke-width: 1.25; stroke-linejoin: miter; stroke-linecap: square"/>
   </g>
   <g id="patch_19">
    <path d="M 90 583.2 
L 648 583.2 
" style="fill: none; stroke: #262626; stroke-width: 1.25; stroke-linejoin: miter; stroke-linecap: square"/>
   </g>
   <g id="text_29">
    <!-- * -->
    <g transform="translate(229.5 680.834407) scale(0.12 -0.12)">
     <use xlink:href="#ArialMT-2a"/>
    </g>
   </g>
   <g id="text_30">
    <!-- * -->
    <g transform="translate(369 669.021907) scale(0.12 -0.12)">
     <use xlink:href="#ArialMT-2a"/>
    </g>
   </g>
   <g id="text_31">
    <!-- * -->
    <g transform="translate(438.75 657.209407) scale(0.12 -0.12)">
     <use xlink:href="#ArialMT-2a"/>
    </g>
   </g>
   <g id="text_32">
    <!-- HF-HRV -->
    <g style="fill: #262626" transform="translate(342.681094 563.2) scale(0.14 -0.14)">
     <defs>
      <path id="Arial-BoldMT-48" d="M 469 0 
L 469 4581 
L 1394 4581 
L 1394 2778 
L 3206 2778 
L 3206 4581 
L 4131 4581 
L 4131 0 
L 3206 0 
L 3206 2003 
L 1394 2003 
L 1394 0 
L 469 0 
z
" transform="scale(0.015625)"/>
      <path id="Arial-BoldMT-46" d="M 472 0 
L 472 4581 
L 3613 4581 
L 3613 3806 
L 1397 3806 
L 1397 2722 
L 3309 2722 
L 3309 1947 
L 1397 1947 
L 1397 0 
L 472 0 
z
" transform="scale(0.015625)"/>
      <path id="Arial-BoldMT-2d" d="M 359 1222 
L 359 2100 
L 2084 2100 
L 2084 1222 
L 359 1222 
z
" transform="scale(0.015625)"/>
      <path id="Arial-BoldMT-52" d="M 469 0 
L 469 4581 
L 2416 4581 
Q 3150 4581 3483 4457 
Q 3816 4334 4016 4018 
Q 4216 3703 4216 3297 
Q 4216 2781 3912 2445 
Q 3609 2109 3006 2022 
Q 3306 1847 3501 1637 
Q 3697 1428 4028 894 
L 4588 0 
L 3481 0 
L 2813 997 
Q 2456 1531 2325 1670 
Q 2194 1809 2047 1861 
Q 1900 1913 1581 1913 
L 1394 1913 
L 1394 0 
L 469 0 
z
M 1394 2644 
L 2078 2644 
Q 2744 2644 2909 2700 
Q 3075 2756 3169 2893 
Q 3263 3031 3263 3238 
Q 3263 3469 3139 3611 
Q 3016 3753 2791 3791 
Q 2678 3806 2116 3806 
L 1394 3806 
L 1394 2644 
z
" transform="scale(0.015625)"/>
      <path id="Arial-BoldMT-56" d="M 1634 0 
L -3 4581 
L 1000 4581 
L 2159 1191 
L 3281 4581 
L 4263 4581 
L 2622 0 
L 1634 0 
z
" transform="scale(0.015625)"/>
     </defs>
     <use xlink:href="#Arial-BoldMT-48"/>
     <use xlink:href="#Arial-BoldMT-46" x="72.216797"/>
     <use xlink:href="#Arial-BoldMT-2d" x="133.300781"/>
     <use xlink:href="#Arial-BoldMT-48" x="166.601562"/>
     <use xlink:href="#Arial-BoldMT-52" x="238.818359"/>
     <use xlink:href="#Arial-BoldMT-56" x="309.285156"/>
    </g>
   </g>
  </g>
 </g>
 <defs>
  <clipPath id="p3775a60260">
   <rect x="90" y="129.6" width="558" height="378"/>
  </clipPath>
  <clipPath id="p52b70f0985">
   <rect x="90" y="583.2" width="558" height="378"/>
  </clipPath>
 </defs>
</svg>
