<?xml version="1.0" encoding="utf-8" standalone="no"?>
<!DOCTYPE svg PUBLIC "-//W3C//DTD SVG 1.1//EN"
  "http://www.w3.org/Graphics/SVG/1.1/DTD/svg11.dtd">
<svg xmlns:xlink="http://www.w3.org/1999/xlink" width="720pt" height="1080pt" viewBox="0 0 720 1080" xmlns="http://www.w3.org/2000/svg" version="1.1">
 <metadata>
  <rdf:RDF xmlns:dc="http://purl.org/dc/elements/1.1/" xmlns:cc="http://creativecommons.org/ns#" xmlns:rdf="http://www.w3.org/1999/02/22-rdf-syntax-ns#">
   <cc:Work>
    <dc:type rdf:resource="http://purl.org/dc/dcmitype/StillImage"/>
    <dc:date>2024-08-30T10:48:23.535616</dc:date>
    <dc:format>image/svg+xml</dc:format>
    <dc:creator>
     <cc:Agent>
      <dc:title>Matplotlib v3.8.0, https://matplotlib.org/</dc:title>
     </cc:Agent>
    </dc:creator>
   </cc:Work>
  </rdf:RDF>
 </metadata>
 <defs>
  <style type="text/css">*{stroke-linejoin: round; stroke-linecap: butt}</style>
 </defs>
 <g id="figure_1">
  <g id="patch_1">
   <path d="M 0 1080 
L 720 1080 
L 720 0 
L 0 0 
z
" style="fill: #ffffff"/>
  </g>
  <g id="axes_1">
   <g id="patch_2">
    <path d="M 90 507.6 
L 648 507.6 
L 648 129.6 
L 90 129.6 
z
" style="fill: #ffffff"/>
   </g>
   <g id="matplotlib.axis_1">
    <g id="xtick_1">
     <g id="line2d_1">
      <defs>
       <path id="m6b0c76e00e" d="M 0 0 
L 0 6 
" style="stroke: #262626; stroke-width: 1.25"/>
      </defs>
      <g>
       <use xlink:href="#m6b0c76e00e" x="159.75" y="507.6" style="fill: #262626; stroke: #262626; stroke-width: 1.25"/>
      </g>
     </g>
     <g id="text_1">
      <!-- State 1 -->
      <g style="fill: #262626" transform="translate(142.321875 524.973594) scale(0.11 -0.11)">
       <defs>
        <path id="ArialMT-53" d="M 288 1472 
L 859 1522 
Q 900 1178 1048 958 
Q 1197 738 1509 602 
Q 1822 466 2213 466 
Q 2559 466 2825 569 
Q 3091 672 3220 851 
Q 3350 1031 3350 1244 
Q 3350 1459 3225 1620 
Q 3100 1781 2813 1891 
Q 2628 1963 1997 2114 
Q 1366 2266 1113 2400 
Q 784 2572 623 2826 
Q 463 3081 463 3397 
Q 463 3744 659 4045 
Q 856 4347 1234 4503 
Q 1613 4659 2075 4659 
Q 2584 4659 2973 4495 
Q 3363 4331 3572 4012 
Q 3781 3694 3797 3291 
L 3216 3247 
Q 3169 3681 2898 3903 
Q 2628 4125 2100 4125 
Q 1550 4125 1298 3923 
Q 1047 3722 1047 3438 
Q 1047 3191 1225 3031 
Q 1400 2872 2139 2705 
Q 2878 2538 3153 2413 
Q 3553 2228 3743 1945 
Q 3934 1663 3934 1294 
Q 3934 928 3725 604 
Q 3516 281 3123 101 
Q 2731 -78 2241 -78 
Q 1619 -78 1198 103 
Q 778 284 539 648 
Q 300 1013 288 1472 
z
" transform="scale(0.015625)"/>
        <path id="ArialMT-74" d="M 1650 503 
L 1731 6 
Q 1494 -44 1306 -44 
Q 1000 -44 831 53 
Q 663 150 594 308 
Q 525 466 525 972 
L 525 2881 
L 113 2881 
L 113 3319 
L 525 3319 
L 525 4141 
L 1084 4478 
L 1084 3319 
L 1650 3319 
L 1650 2881 
L 1084 2881 
L 1084 941 
Q 1084 700 1114 631 
Q 1144 563 1211 522 
Q 1278 481 1403 481 
Q 1497 481 1650 503 
z
" transform="scale(0.015625)"/>
        <path id="ArialMT-61" d="M 2588 409 
Q 2275 144 1986 34 
Q 1697 -75 1366 -75 
Q 819 -75 525 192 
Q 231 459 231 875 
Q 231 1119 342 1320 
Q 453 1522 633 1644 
Q 813 1766 1038 1828 
Q 1203 1872 1538 1913 
Q 2219 1994 2541 2106 
Q 2544 2222 2544 2253 
Q 2544 2597 2384 2738 
Q 2169 2928 1744 2928 
Q 1347 2928 1158 2789 
Q 969 2650 878 2297 
L 328 2372 
Q 403 2725 575 2942 
Q 747 3159 1072 3276 
Q 1397 3394 1825 3394 
Q 2250 3394 2515 3294 
Q 2781 3194 2906 3042 
Q 3031 2891 3081 2659 
Q 3109 2516 3109 2141 
L 3109 1391 
Q 3109 606 3145 398 
Q 3181 191 3288 0 
L 2700 0 
Q 2613 175 2588 409 
z
M 2541 1666 
Q 2234 1541 1622 1453 
Q 1275 1403 1131 1340 
Q 988 1278 909 1158 
Q 831 1038 831 891 
Q 831 666 1001 516 
Q 1172 366 1500 366 
Q 1825 366 2078 508 
Q 2331 650 2450 897 
Q 2541 1088 2541 1459 
L 2541 1666 
z
" transform="scale(0.015625)"/>
        <path id="ArialMT-65" d="M 2694 1069 
L 3275 997 
Q 3138 488 2766 206 
Q 2394 -75 1816 -75 
Q 1088 -75 661 373 
Q 234 822 234 1631 
Q 234 2469 665 2931 
Q 1097 3394 1784 3394 
Q 2450 3394 2872 2941 
Q 3294 2488 3294 1666 
Q 3294 1616 3291 1516 
L 816 1516 
Q 847 969 1125 678 
Q 1403 388 1819 388 
Q 2128 388 2347 550 
Q 2566 713 2694 1069 
z
M 847 1978 
L 2700 1978 
Q 2663 2397 2488 2606 
Q 2219 2931 1791 2931 
Q 1403 2931 1139 2672 
Q 875 2413 847 1978 
z
" transform="scale(0.015625)"/>
        <path id="ArialMT-20" transform="scale(0.015625)"/>
        <path id="ArialMT-31" d="M 2384 0 
L 1822 0 
L 1822 3584 
Q 1619 3391 1289 3197 
Q 959 3003 697 2906 
L 697 3450 
Q 1169 3672 1522 3987 
Q 1875 4303 2022 4600 
L 2384 4600 
L 2384 0 
z
" transform="scale(0.015625)"/>
       </defs>
       <use xlink:href="#ArialMT-53"/>
       <use xlink:href="#ArialMT-74" x="66.699219"/>
       <use xlink:href="#ArialMT-61" x="94.482422"/>
       <use xlink:href="#ArialMT-74" x="150.097656"/>
       <use xlink:href="#ArialMT-65" x="177.880859"/>
       <use xlink:href="#ArialMT-20" x="233.496094"/>
       <use xlink:href="#ArialMT-31" x="261.279297"/>
      </g>
     </g>
    </g>
    <g id="xtick_2">
     <g id="line2d_2">
      <g>
       <use xlink:href="#m6b0c76e00e" x="299.25" y="507.6" style="fill: #262626; stroke: #262626; stroke-width: 1.25"/>
      </g>
     </g>
     <g id="text_2">
      <!-- State 2 -->
      <g style="fill: #262626" transform="translate(281.821875 524.973594) scale(0.11 -0.11)">
       <defs>
        <path id="ArialMT-32" d="M 3222 541 
L 3222 0 
L 194 0 
Q 188 203 259 391 
Q 375 700 629 1000 
Q 884 1300 1366 1694 
Q 2113 2306 2375 2664 
Q 2638 3022 2638 3341 
Q 2638 3675 2398 3904 
Q 2159 4134 1775 4134 
Q 1369 4134 1125 3890 
Q 881 3647 878 3216 
L 300 3275 
Q 359 3922 746 4261 
Q 1134 4600 1788 4600 
Q 2447 4600 2831 4234 
Q 3216 3869 3216 3328 
Q 3216 3053 3103 2787 
Q 2991 2522 2730 2228 
Q 2469 1934 1863 1422 
Q 1356 997 1212 845 
Q 1069 694 975 541 
L 3222 541 
z
" transform="scale(0.015625)"/>
       </defs>
       <use xlink:href="#ArialMT-53"/>
       <use xlink:href="#ArialMT-74" x="66.699219"/>
       <use xlink:href="#ArialMT-61" x="94.482422"/>
       <use xlink:href="#ArialMT-74" x="150.097656"/>
       <use xlink:href="#ArialMT-65" x="177.880859"/>
       <use xlink:href="#ArialMT-20" x="233.496094"/>
       <use xlink:href="#ArialMT-32" x="261.279297"/>
      </g>
     </g>
    </g>
    <g id="xtick_3">
     <g id="line2d_3">
      <g>
       <use xlink:href="#m6b0c76e00e" x="438.75" y="507.6" style="fill: #262626; stroke: #262626; stroke-width: 1.25"/>
      </g>
     </g>
     <g id="text_3">
      <!-- State 3 -->
      <g style="fill: #262626" transform="translate(421.321875 524.973594) scale(0.11 -0.11)">
       <defs>
        <path id="ArialMT-33" d="M 269 1209 
L 831 1284 
Q 928 806 1161 595 
Q 1394 384 1728 384 
Q 2125 384 2398 659 
Q 2672 934 2672 1341 
Q 2672 1728 2419 1979 
Q 2166 2231 1775 2231 
Q 1616 2231 1378 2169 
L 1441 2663 
Q 1497 2656 1531 2656 
Q 1891 2656 2178 2843 
Q 2466 3031 2466 3422 
Q 2466 3731 2256 3934 
Q 2047 4138 1716 4138 
Q 1388 4138 1169 3931 
Q 950 3725 888 3313 
L 325 3413 
Q 428 3978 793 4289 
Q 1159 4600 1703 4600 
Q 2078 4600 2393 4439 
Q 2709 4278 2876 4000 
Q 3044 3722 3044 3409 
Q 3044 3113 2884 2869 
Q 2725 2625 2413 2481 
Q 2819 2388 3044 2092 
Q 3269 1797 3269 1353 
Q 3269 753 2831 336 
Q 2394 -81 1725 -81 
Q 1122 -81 723 278 
Q 325 638 269 1209 
z
" transform="scale(0.015625)"/>
       </defs>
       <use xlink:href="#ArialMT-53"/>
       <use xlink:href="#ArialMT-74" x="66.699219"/>
       <use xlink:href="#ArialMT-61" x="94.482422"/>
       <use xlink:href="#ArialMT-74" x="150.097656"/>
       <use xlink:href="#ArialMT-65" x="177.880859"/>
       <use xlink:href="#ArialMT-20" x="233.496094"/>
       <use xlink:href="#ArialMT-33" x="261.279297"/>
      </g>
     </g>
    </g>
    <g id="xtick_4">
     <g id="line2d_4">
      <g>
       <use xlink:href="#m6b0c76e00e" x="578.25" y="507.6" style="fill: #262626; stroke: #262626; stroke-width: 1.25"/>
      </g>
     </g>
     <g id="text_4">
      <!-- State 4 -->
      <g style="fill: #262626" transform="translate(560.821875 524.973594) scale(0.11 -0.11)">
       <defs>
        <path id="ArialMT-34" d="M 2069 0 
L 2069 1097 
L 81 1097 
L 81 1613 
L 2172 4581 
L 2631 4581 
L 2631 1613 
L 3250 1613 
L 3250 1097 
L 2631 1097 
L 2631 0 
L 2069 0 
z
M 2069 1613 
L 2069 3678 
L 634 1613 
L 2069 1613 
z
" transform="scale(0.015625)"/>
       </defs>
       <use xlink:href="#ArialMT-53"/>
       <use xlink:href="#ArialMT-74" x="66.699219"/>
       <use xlink:href="#ArialMT-61" x="94.482422"/>
       <use xlink:href="#ArialMT-74" x="150.097656"/>
       <use xlink:href="#ArialMT-65" x="177.880859"/>
       <use xlink:href="#ArialMT-20" x="233.496094"/>
       <use xlink:href="#ArialMT-34" x="261.279297"/>
      </g>
     </g>
    </g>
   </g>
   <g id="matplotlib.axis_2">
    <g id="ytick_1">
     <g id="line2d_5">
      <defs>
       <path id="mf4bb975bc6" d="M 0 0 
L -6 0 
" style="stroke: #262626; stroke-width: 1.25"/>
      </defs>
      <g>
       <use xlink:href="#mf4bb975bc6" x="90" y="499.860561" style="fill: #262626; stroke: #262626; stroke-width: 1.25"/>
      </g>
     </g>
     <g id="text_5">
      <!-- −1.00 -->
      <g style="fill: #262626" transform="translate(52.668281 503.797358) scale(0.11 -0.11)">
       <defs>
        <path id="ArialMT-2212" d="M 3381 1997 
L 356 1997 
L 356 2522 
L 3381 2522 
L 3381 1997 
z
" transform="scale(0.015625)"/>
        <path id="ArialMT-2e" d="M 581 0 
L 581 641 
L 1222 641 
L 1222 0 
L 581 0 
z
" transform="scale(0.015625)"/>
        <path id="ArialMT-30" d="M 266 2259 
Q 266 3072 433 3567 
Q 600 4063 929 4331 
Q 1259 4600 1759 4600 
Q 2128 4600 2406 4451 
Q 2684 4303 2865 4023 
Q 3047 3744 3150 3342 
Q 3253 2941 3253 2259 
Q 3253 1453 3087 958 
Q 2922 463 2592 192 
Q 2263 -78 1759 -78 
Q 1097 -78 719 397 
Q 266 969 266 2259 
z
M 844 2259 
Q 844 1131 1108 757 
Q 1372 384 1759 384 
Q 2147 384 2411 759 
Q 2675 1134 2675 2259 
Q 2675 3391 2411 3762 
Q 2147 4134 1753 4134 
Q 1366 4134 1134 3806 
Q 844 3388 844 2259 
z
" transform="scale(0.015625)"/>
       </defs>
       <use xlink:href="#ArialMT-2212"/>
       <use xlink:href="#ArialMT-31" x="58.398438"/>
       <use xlink:href="#ArialMT-2e" x="114.013672"/>
       <use xlink:href="#ArialMT-30" x="141.796875"/>
       <use xlink:href="#ArialMT-30" x="197.412109"/>
      </g>
     </g>
    </g>
    <g id="ytick_2">
     <g id="line2d_6">
      <g>
       <use xlink:href="#mf4bb975bc6" x="90" y="448.187561" style="fill: #262626; stroke: #262626; stroke-width: 1.25"/>
      </g>
     </g>
     <g id="text_6">
      <!-- −0.75 -->
      <g style="fill: #262626" transform="translate(52.668281 452.124358) scale(0.11 -0.11)">
       <defs>
        <path id="ArialMT-37" d="M 303 3981 
L 303 4522 
L 3269 4522 
L 3269 4084 
Q 2831 3619 2401 2847 
Q 1972 2075 1738 1259 
Q 1569 684 1522 0 
L 944 0 
Q 953 541 1156 1306 
Q 1359 2072 1739 2783 
Q 2119 3494 2547 3981 
L 303 3981 
z
" transform="scale(0.015625)"/>
        <path id="ArialMT-35" d="M 266 1200 
L 856 1250 
Q 922 819 1161 601 
Q 1400 384 1738 384 
Q 2144 384 2425 690 
Q 2706 997 2706 1503 
Q 2706 1984 2436 2262 
Q 2166 2541 1728 2541 
Q 1456 2541 1237 2417 
Q 1019 2294 894 2097 
L 366 2166 
L 809 4519 
L 3088 4519 
L 3088 3981 
L 1259 3981 
L 1013 2750 
Q 1425 3038 1878 3038 
Q 2478 3038 2890 2622 
Q 3303 2206 3303 1553 
Q 3303 931 2941 478 
Q 2500 -78 1738 -78 
Q 1113 -78 717 272 
Q 322 622 266 1200 
z
" transform="scale(0.015625)"/>
       </defs>
       <use xlink:href="#ArialMT-2212"/>
       <use xlink:href="#ArialMT-30" x="58.398438"/>
       <use xlink:href="#ArialMT-2e" x="114.013672"/>
       <use xlink:href="#ArialMT-37" x="141.796875"/>
       <use xlink:href="#ArialMT-35" x="197.412109"/>
      </g>
     </g>
    </g>
    <g id="ytick_3">
     <g id="line2d_7">
      <g>
       <use xlink:href="#mf4bb975bc6" x="90" y="396.514561" style="fill: #262626; stroke: #262626; stroke-width: 1.25"/>
      </g>
     </g>
     <g id="text_7">
      <!-- −0.50 -->
      <g style="fill: #262626" transform="translate(52.668281 400.451358) scale(0.11 -0.11)">
       <use xlink:href="#ArialMT-2212"/>
       <use xlink:href="#ArialMT-30" x="58.398438"/>
       <use xlink:href="#ArialMT-2e" x="114.013672"/>
       <use xlink:href="#ArialMT-35" x="141.796875"/>
       <use xlink:href="#ArialMT-30" x="197.412109"/>
      </g>
     </g>
    </g>
    <g id="ytick_4">
     <g id="line2d_8">
      <g>
       <use xlink:href="#mf4bb975bc6" x="90" y="344.841562" style="fill: #262626; stroke: #262626; stroke-width: 1.25"/>
      </g>
     </g>
     <g id="text_8">
      <!-- −0.25 -->
      <g style="fill: #262626" transform="translate(52.668281 348.778358) scale(0.11 -0.11)">
       <use xlink:href="#ArialMT-2212"/>
       <use xlink:href="#ArialMT-30" x="58.398438"/>
       <use xlink:href="#ArialMT-2e" x="114.013672"/>
       <use xlink:href="#ArialMT-32" x="141.796875"/>
       <use xlink:href="#ArialMT-35" x="197.412109"/>
      </g>
     </g>
    </g>
    <g id="ytick_5">
     <g id="line2d_9">
      <g>
       <use xlink:href="#mf4bb975bc6" x="90" y="293.168562" style="fill: #262626; stroke: #262626; stroke-width: 1.25"/>
      </g>
     </g>
     <g id="text_9">
      <!-- 0.00 -->
      <g style="fill: #262626" transform="translate(59.092969 297.105359) scale(0.11 -0.11)">
       <use xlink:href="#ArialMT-30"/>
       <use xlink:href="#ArialMT-2e" x="55.615234"/>
       <use xlink:href="#ArialMT-30" x="83.398438"/>
       <use xlink:href="#ArialMT-30" x="139.013672"/>
      </g>
     </g>
    </g>
    <g id="ytick_6">
     <g id="line2d_10">
      <g>
       <use xlink:href="#mf4bb975bc6" x="90" y="241.495562" style="fill: #262626; stroke: #262626; stroke-width: 1.25"/>
      </g>
     </g>
     <g id="text_10">
      <!-- 0.25 -->
      <g style="fill: #262626" transform="translate(59.092969 245.432359) scale(0.11 -0.11)">
       <use xlink:href="#ArialMT-30"/>
       <use xlink:href="#ArialMT-2e" x="55.615234"/>
       <use xlink:href="#ArialMT-32" x="83.398438"/>
       <use xlink:href="#ArialMT-35" x="139.013672"/>
      </g>
     </g>
    </g>
    <g id="ytick_7">
     <g id="line2d_11">
      <g>
       <use xlink:href="#mf4bb975bc6" x="90" y="189.822562" style="fill: #262626; stroke: #262626; stroke-width: 1.25"/>
      </g>
     </g>
     <g id="text_11">
      <!-- 0.50 -->
      <g style="fill: #262626" transform="translate(59.092969 193.759359) scale(0.11 -0.11)">
       <use xlink:href="#ArialMT-30"/>
       <use xlink:href="#ArialMT-2e" x="55.615234"/>
       <use xlink:href="#ArialMT-35" x="83.398438"/>
       <use xlink:href="#ArialMT-30" x="139.013672"/>
      </g>
     </g>
    </g>
    <g id="ytick_8">
     <g id="line2d_12">
      <g>
       <use xlink:href="#mf4bb975bc6" x="90" y="138.149562" style="fill: #262626; stroke: #262626; stroke-width: 1.25"/>
      </g>
     </g>
     <g id="text_12">
      <!-- 0.75 -->
      <g style="fill: #262626" transform="translate(59.092969 142.086359) scale(0.11 -0.11)">
       <use xlink:href="#ArialMT-30"/>
       <use xlink:href="#ArialMT-2e" x="55.615234"/>
       <use xlink:href="#ArialMT-37" x="83.398438"/>
       <use xlink:href="#ArialMT-35" x="139.013672"/>
      </g>
     </g>
    </g>
    <g id="text_13">
     <!-- Value (z-scored) -->
     <g style="fill: #262626" transform="translate(46.142656 362.170313) rotate(-90) scale(0.12 -0.12)">
      <defs>
       <path id="ArialMT-56" d="M 1803 0 
L 28 4581 
L 684 4581 
L 1875 1253 
Q 2019 853 2116 503 
Q 2222 878 2363 1253 
L 3600 4581 
L 4219 4581 
L 2425 0 
L 1803 0 
z
" transform="scale(0.015625)"/>
       <path id="ArialMT-6c" d="M 409 0 
L 409 4581 
L 972 4581 
L 972 0 
L 409 0 
z
" transform="scale(0.015625)"/>
       <path id="ArialMT-75" d="M 2597 0 
L 2597 488 
Q 2209 -75 1544 -75 
Q 1250 -75 995 37 
Q 741 150 617 320 
Q 494 491 444 738 
Q 409 903 409 1263 
L 409 3319 
L 972 3319 
L 972 1478 
Q 972 1038 1006 884 
Q 1059 663 1231 536 
Q 1403 409 1656 409 
Q 1909 409 2131 539 
Q 2353 669 2445 892 
Q 2538 1116 2538 1541 
L 2538 3319 
L 3100 3319 
L 3100 0 
L 2597 0 
z
" transform="scale(0.015625)"/>
       <path id="ArialMT-28" d="M 1497 -1347 
Q 1031 -759 709 28 
Q 388 816 388 1659 
Q 388 2403 628 3084 
Q 909 3875 1497 4659 
L 1900 4659 
Q 1522 4009 1400 3731 
Q 1209 3300 1100 2831 
Q 966 2247 966 1656 
Q 966 153 1900 -1347 
L 1497 -1347 
z
" transform="scale(0.015625)"/>
       <path id="ArialMT-7a" d="M 125 0 
L 125 456 
L 2238 2881 
Q 1878 2863 1603 2863 
L 250 2863 
L 250 3319 
L 2963 3319 
L 2963 2947 
L 1166 841 
L 819 456 
Q 1197 484 1528 484 
L 3063 484 
L 3063 0 
L 125 0 
z
" transform="scale(0.015625)"/>
       <path id="ArialMT-2d" d="M 203 1375 
L 203 1941 
L 1931 1941 
L 1931 1375 
L 203 1375 
z
" transform="scale(0.015625)"/>
       <path id="ArialMT-73" d="M 197 991 
L 753 1078 
Q 800 744 1014 566 
Q 1228 388 1613 388 
Q 2000 388 2187 545 
Q 2375 703 2375 916 
Q 2375 1106 2209 1216 
Q 2094 1291 1634 1406 
Q 1016 1563 777 1677 
Q 538 1791 414 1992 
Q 291 2194 291 2438 
Q 291 2659 392 2848 
Q 494 3038 669 3163 
Q 800 3259 1026 3326 
Q 1253 3394 1513 3394 
Q 1903 3394 2198 3281 
Q 2494 3169 2634 2976 
Q 2775 2784 2828 2463 
L 2278 2388 
Q 2241 2644 2061 2787 
Q 1881 2931 1553 2931 
Q 1166 2931 1000 2803 
Q 834 2675 834 2503 
Q 834 2394 903 2306 
Q 972 2216 1119 2156 
Q 1203 2125 1616 2013 
Q 2213 1853 2448 1751 
Q 2684 1650 2818 1456 
Q 2953 1263 2953 975 
Q 2953 694 2789 445 
Q 2625 197 2315 61 
Q 2006 -75 1616 -75 
Q 969 -75 630 194 
Q 291 463 197 991 
z
" transform="scale(0.015625)"/>
       <path id="ArialMT-63" d="M 2588 1216 
L 3141 1144 
Q 3050 572 2676 248 
Q 2303 -75 1759 -75 
Q 1078 -75 664 370 
Q 250 816 250 1647 
Q 250 2184 428 2587 
Q 606 2991 970 3192 
Q 1334 3394 1763 3394 
Q 2303 3394 2647 3120 
Q 2991 2847 3088 2344 
L 2541 2259 
Q 2463 2594 2264 2762 
Q 2066 2931 1784 2931 
Q 1359 2931 1093 2626 
Q 828 2322 828 1663 
Q 828 994 1084 691 
Q 1341 388 1753 388 
Q 2084 388 2306 591 
Q 2528 794 2588 1216 
z
" transform="scale(0.015625)"/>
       <path id="ArialMT-6f" d="M 213 1659 
Q 213 2581 725 3025 
Q 1153 3394 1769 3394 
Q 2453 3394 2887 2945 
Q 3322 2497 3322 1706 
Q 3322 1066 3130 698 
Q 2938 331 2570 128 
Q 2203 -75 1769 -75 
Q 1072 -75 642 372 
Q 213 819 213 1659 
z
M 791 1659 
Q 791 1022 1069 705 
Q 1347 388 1769 388 
Q 2188 388 2466 706 
Q 2744 1025 2744 1678 
Q 2744 2294 2464 2611 
Q 2184 2928 1769 2928 
Q 1347 2928 1069 2612 
Q 791 2297 791 1659 
z
" transform="scale(0.015625)"/>
       <path id="ArialMT-72" d="M 416 0 
L 416 3319 
L 922 3319 
L 922 2816 
Q 1116 3169 1280 3281 
Q 1444 3394 1641 3394 
Q 1925 3394 2219 3213 
L 2025 2691 
Q 1819 2813 1613 2813 
Q 1428 2813 1281 2702 
Q 1134 2591 1072 2394 
Q 978 2094 978 1738 
L 978 0 
L 416 0 
z
" transform="scale(0.015625)"/>
       <path id="ArialMT-64" d="M 2575 0 
L 2575 419 
Q 2259 -75 1647 -75 
Q 1250 -75 917 144 
Q 584 363 401 755 
Q 219 1147 219 1656 
Q 219 2153 384 2558 
Q 550 2963 881 3178 
Q 1213 3394 1622 3394 
Q 1922 3394 2156 3267 
Q 2391 3141 2538 2938 
L 2538 4581 
L 3097 4581 
L 3097 0 
L 2575 0 
z
M 797 1656 
Q 797 1019 1065 703 
Q 1334 388 1700 388 
Q 2069 388 2326 689 
Q 2584 991 2584 1609 
Q 2584 2291 2321 2609 
Q 2059 2928 1675 2928 
Q 1300 2928 1048 2622 
Q 797 2316 797 1656 
z
" transform="scale(0.015625)"/>
       <path id="ArialMT-29" d="M 791 -1347 
L 388 -1347 
Q 1322 153 1322 1656 
Q 1322 2244 1188 2822 
Q 1081 3291 891 3722 
Q 769 4003 388 4659 
L 791 4659 
Q 1378 3875 1659 3084 
Q 1900 2403 1900 1659 
Q 1900 816 1576 28 
Q 1253 -759 791 -1347 
z
" transform="scale(0.015625)"/>
      </defs>
      <use xlink:href="#ArialMT-56"/>
      <use xlink:href="#ArialMT-61" x="59.324219"/>
      <use xlink:href="#ArialMT-6c" x="114.939453"/>
      <use xlink:href="#ArialMT-75" x="137.15625"/>
      <use xlink:href="#ArialMT-65" x="192.771484"/>
      <use xlink:href="#ArialMT-20" x="248.386719"/>
      <use xlink:href="#ArialMT-28" x="276.169922"/>
      <use xlink:href="#ArialMT-7a" x="309.470703"/>
      <use xlink:href="#ArialMT-2d" x="359.470703"/>
      <use xlink:href="#ArialMT-73" x="392.771484"/>
      <use xlink:href="#ArialMT-63" x="442.771484"/>
      <use xlink:href="#ArialMT-6f" x="492.771484"/>
      <use xlink:href="#ArialMT-72" x="548.386719"/>
      <use xlink:href="#ArialMT-65" x="581.6875"/>
      <use xlink:href="#ArialMT-64" x="637.302734"/>
      <use xlink:href="#ArialMT-29" x="692.917969"/>
     </g>
    </g>
   </g>
   <g id="PolyCollection_1">
    <defs>
     <path id="m8c07bfd51d" d="M 169.140916 -731.851461 
L 160.025964 -731.851461 
L 160.025964 -736.44155 
L 160.025964 -741.031638 
L 160.025964 -745.621727 
L 160.025964 -750.211815 
L 160.025964 -754.801904 
L 160.025964 -759.391992 
L 160.025964 -763.982081 
L 160.025964 -768.57217 
L 160.025964 -773.162258 
L 160.025964 -777.752347 
L 160.025964 -782.342435 
L 160.025964 -786.932524 
L 160.025964 -791.522612 
L 160.025964 -796.112701 
L 160.025964 -800.702789 
L 160.025964 -805.292878 
L 160.025964 -809.882967 
L 160.025964 -814.473055 
L 160.025964 -819.063144 
L 160.025964 -823.653232 
L 160.025964 -828.243321 
L 160.025964 -832.833409 
L 160.025964 -837.423498 
L 160.025964 -842.013586 
L 160.025964 -846.603675 
L 160.025964 -851.193764 
L 160.025964 -855.783852 
L 160.025964 -860.373941 
L 160.025964 -864.964029 
L 160.025964 -869.554118 
L 160.025964 -874.144206 
L 160.025964 -878.734295 
L 160.025964 -883.324383 
L 160.025964 -887.914472 
L 160.025964 -892.504561 
L 160.025964 -897.094649 
L 160.025964 -901.684738 
L 160.025964 -906.274826 
L 163.321232 -906.274826 
L 163.321232 -906.274826 
L 163.911265 -901.684738 
L 164.551133 -897.094649 
L 165.265667 -892.504561 
L 166.079362 -887.914472 
L 167.006008 -883.324383 
L 168.039422 -878.734295 
L 169.149081 -874.144206 
L 170.283439 -869.554118 
L 171.381421 -864.964029 
L 172.38965 -860.373941 
L 173.280556 -855.783852 
L 174.065607 -851.193764 
L 174.799061 -846.603675 
L 175.570385 -842.013586 
L 176.48678 -837.423498 
L 177.649899 -832.833409 
L 179.132022 -828.243321 
L 180.956642 -823.653232 
L 183.087134 -819.063144 
L 185.425527 -814.473055 
L 187.821908 -809.882967 
L 190.093533 -805.292878 
L 192.0511 -800.702789 
L 193.527699 -796.112701 
L 194.404259 -791.522612 
L 194.625 -786.932524 
L 194.198521 -782.342435 
L 193.184581 -777.752347 
L 191.67186 -773.162258 
L 189.755282 -768.57217 
L 187.520965 -763.982081 
L 185.042626 -759.391992 
L 182.387438 -754.801904 
L 179.625252 -750.211815 
L 176.834527 -745.621727 
L 174.10128 -741.031638 
L 171.511535 -736.44155 
L 169.140916 -731.851461 
z
" style="stroke: #d55e00; stroke-opacity: 0.3"/>
    </defs>
    <g clip-path="url(#p3717f6b004)">
     <use xlink:href="#m8c07bfd51d" x="0" y="1080" style="fill: #d55e00; fill-opacity: 0.3; stroke: #d55e00; stroke-opacity: 0.3"/>
    </g>
   </g>
   <g id="PolyCollection_2">
    <defs>
     <path id="mf03b9f97da" d="M 302.951243 -589.581818 
L 299.382435 -589.581818 
L 299.382435 -596.586969 
L 299.382435 -603.59212 
L 299.382435 -610.59727 
L 299.382435 -617.602421 
L 299.382435 -624.607572 
L 299.382435 -631.612723 
L 299.382435 -638.617874 
L 299.382435 -645.623024 
L 299.382435 -652.628175 
L 299.382435 -659.633326 
L 299.382435 -666.638477 
L 299.382435 -673.643627 
L 299.382435 -680.648778 
L 299.382435 -687.653929 
L 299.382435 -694.65908 
L 299.382435 -701.66423 
L 299.382435 -708.669381 
L 299.382435 -715.674532 
L 299.382435 -722.679683 
L 299.382435 -729.684833 
L 299.382435 -736.689984 
L 299.382435 -743.695135 
L 299.382435 -750.700286 
L 299.382435 -757.705437 
L 299.382435 -764.710587 
L 299.382435 -771.715738 
L 299.382435 -778.720889 
L 299.382435 -785.72604 
L 299.382435 -792.73119 
L 299.382435 -799.736341 
L 299.382435 -806.741492 
L 299.382435 -813.746643 
L 299.382435 -820.751793 
L 299.382435 -827.756944 
L 299.382435 -834.762095 
L 299.382435 -841.767246 
L 299.382435 -848.772396 
L 299.382435 -855.777547 
L 302.574743 -855.777547 
L 302.574743 -855.777547 
L 303.372012 -848.772396 
L 304.3794 -841.767246 
L 305.693507 -834.762095 
L 307.416569 -827.756944 
L 309.631182 -820.751793 
L 312.372272 -813.746643 
L 315.603019 -806.741492 
L 319.200853 -799.736341 
L 322.957686 -792.73119 
L 326.596369 -785.72604 
L 329.803145 -778.720889 
L 332.272945 -771.715738 
L 333.760369 -764.710587 
L 334.125 -757.705437 
L 333.358241 -750.700286 
L 331.582582 -743.695135 
L 329.022748 -736.689984 
L 325.957913 -729.684833 
L 322.670105 -722.679683 
L 319.403188 -715.674532 
L 316.340494 -708.669381 
L 313.601043 -701.66423 
L 311.248323 -694.65908 
L 309.303689 -687.653929 
L 307.758173 -680.648778 
L 306.580168 -673.643627 
L 305.720071 -666.638477 
L 305.114985 -659.633326 
L 304.696164 -652.628175 
L 304.399356 -645.623024 
L 304.174912 -638.617874 
L 303.992872 -631.612723 
L 303.839703 -624.607572 
L 303.707742 -617.602421 
L 303.582998 -610.59727 
L 303.438673 -603.59212 
L 303.238896 -596.586969 
L 302.951243 -589.581818 
z
" style="stroke: #0072b2; stroke-opacity: 0.3"/>
    </defs>
    <g clip-path="url(#p3717f6b004)">
     <use xlink:href="#mf03b9f97da" x="0" y="1080" style="fill: #0072b2; fill-opacity: 0.3; stroke: #0072b2; stroke-opacity: 0.3"/>
    </g>
   </g>
   <g id="PolyCollection_3">
    <defs>
     <path id="m4856c9c157" d="M 442.222499 -680.794376 
L 438.901347 -680.794376 
L 438.901347 -686.385636 
L 438.901347 -691.976897 
L 438.901347 -697.568157 
L 438.901347 -703.159418 
L 438.901347 -708.750678 
L 438.901347 -714.341939 
L 438.901347 -719.933199 
L 438.901347 -725.524459 
L 438.901347 -731.11572 
L 438.901347 -736.70698 
L 438.901347 -742.298241 
L 438.901347 -747.889501 
L 438.901347 -753.480762 
L 438.901347 -759.072022 
L 438.901347 -764.663283 
L 438.901347 -770.254543 
L 438.901347 -775.845804 
L 438.901347 -781.437064 
L 438.901347 -787.028325 
L 438.901347 -792.619585 
L 438.901347 -798.210846 
L 438.901347 -803.802106 
L 438.901347 -809.393367 
L 438.901347 -814.984627 
L 438.901347 -820.575887 
L 438.901347 -826.167148 
L 438.901347 -831.758408 
L 438.901347 -837.349669 
L 438.901347 -842.940929 
L 438.901347 -848.53219 
L 438.901347 -854.12345 
L 438.901347 -859.714711 
L 438.901347 -865.305971 
L 438.901347 -870.897232 
L 438.901347 -876.488492 
L 438.901347 -882.079753 
L 438.901347 -887.671013 
L 438.901347 -893.262274 
L 444.064118 -893.262274 
L 444.064118 -893.262274 
L 444.842994 -887.671013 
L 445.59399 -882.079753 
L 446.350585 -876.488492 
L 447.179745 -870.897232 
L 448.181271 -865.305971 
L 449.480615 -859.714711 
L 451.210685 -854.12345 
L 453.479704 -848.53219 
L 456.328013 -842.940929 
L 459.684977 -837.349669 
L 463.343363 -831.758408 
L 466.967937 -826.167148 
L 470.145529 -820.575887 
L 472.468052 -814.984627 
L 473.625 -809.393367 
L 473.475263 -803.802106 
L 472.074112 -798.210846 
L 469.647728 -792.619585 
L 466.527364 -787.028325 
L 463.068775 -781.437064 
L 459.584279 -775.845804 
L 456.304946 -770.254543 
L 453.375121 -764.663283 
L 450.8687 -759.072022 
L 448.811756 -753.480762 
L 447.199667 -747.889501 
L 446.004885 -742.298241 
L 445.178623 -736.70698 
L 444.652522 -731.11572 
L 444.344513 -725.524459 
L 444.168966 -719.933199 
L 444.047873 -714.341939 
L 443.919075 -708.750678 
L 443.739469 -703.159418 
L 443.483905 -697.568157 
L 443.14228 -691.976897 
L 442.71715 -686.385636 
L 442.222499 -680.794376 
z
" style="stroke: #009e73; stroke-opacity: 0.3"/>
    </defs>
    <g clip-path="url(#p3717f6b004)">
     <use xlink:href="#m4856c9c157" x="0" y="1080" style="fill: #009e73; fill-opacity: 0.3; stroke: #009e73; stroke-opacity: 0.3"/>
    </g>
   </g>
   <g id="PolyCollection_4">
    <defs>
     <path id="m08a4f79fdb" d="M 581.136481 -648.431798 
L 578.353811 -648.431798 
L 578.353811 -655.926177 
L 578.353811 -663.420555 
L 578.353811 -670.914934 
L 578.353811 -678.409312 
L 578.353811 -685.903691 
L 578.353811 -693.398069 
L 578.353811 -700.892448 
L 578.353811 -708.386826 
L 578.353811 -715.881205 
L 578.353811 -723.375583 
L 578.353811 -730.869962 
L 578.353811 -738.36434 
L 578.353811 -745.858719 
L 578.353811 -753.353097 
L 578.353811 -760.847476 
L 578.353811 -768.341854 
L 578.353811 -775.836233 
L 578.353811 -783.330612 
L 578.353811 -790.82499 
L 578.353811 -798.319369 
L 578.353811 -805.813747 
L 578.353811 -813.308126 
L 578.353811 -820.802504 
L 578.353811 -828.296883 
L 578.353811 -835.791261 
L 578.353811 -843.28564 
L 578.353811 -850.780018 
L 578.353811 -858.274397 
L 578.353811 -865.768775 
L 578.353811 -873.263154 
L 578.353811 -880.757532 
L 578.353811 -888.251911 
L 578.353811 -895.746289 
L 578.353811 -903.240668 
L 578.353811 -910.735046 
L 578.353811 -918.229425 
L 578.353811 -925.723803 
L 578.353811 -933.218182 
L 580.885732 -933.218182 
L 580.885732 -933.218182 
L 581.355339 -925.723803 
L 582.049627 -918.229425 
L 583.155472 -910.735046 
L 584.861783 -903.240668 
L 587.302773 -895.746289 
L 590.503464 -888.251911 
L 594.344054 -880.757532 
L 598.55696 -873.263154 
L 602.764302 -865.768775 
L 606.553648 -858.274397 
L 609.57621 -850.780018 
L 611.638444 -843.28564 
L 612.753043 -835.791261 
L 613.125 -828.296883 
L 613.071423 -820.802504 
L 612.900656 -813.308126 
L 612.794336 -805.813747 
L 612.737375 -798.319369 
L 612.524373 -790.82499 
L 611.842213 -783.330612 
L 610.397847 -775.836233 
L 608.040992 -768.341854 
L 604.833686 -760.847476 
L 601.04253 -753.353097 
L 597.062421 -745.858719 
L 593.305751 -738.36434 
L 590.098202 -730.869962 
L 587.612916 -723.375583 
L 585.857179 -715.881205 
L 584.707522 -708.386826 
L 583.974699 -700.892448 
L 583.472336 -693.398069 
L 583.064768 -685.903691 
L 582.681192 -678.409312 
L 582.299858 -670.914934 
L 581.9192 -663.420555 
L 581.535324 -655.926177 
L 581.136481 -648.431798 
z
" style="stroke: #cc79a7; stroke-opacity: 0.3"/>
    </defs>
    <g clip-path="url(#p3717f6b004)">
     <use xlink:href="#m08a4f79fdb" x="0" y="1080" style="fill: #cc79a7; fill-opacity: 0.3; stroke: #cc79a7; stroke-opacity: 0.3"/>
    </g>
   </g>
   <g id="PathCollection_1">
    <defs>
     <path id="m2de072447f" d="M 0 0.866025 
C 0.229673 0.866025 0.449969 0.774776 0.612372 0.612372 
C 0.774776 0.449969 0.866025 0.229673 0.866025 0 
C 0.866025 -0.229673 0.774776 -0.449969 0.612372 -0.612372 
C 0.449969 -0.774776 0.229673 -0.866025 0 -0.866025 
C -0.229673 -0.866025 -0.449969 -0.774776 -0.612372 -0.612372 
C -0.774776 -0.449969 -0.866025 -0.229673 -0.866025 0 
C -0.866025 0.229673 -0.774776 0.449969 -0.612372 0.612372 
C -0.449969 0.774776 -0.229673 0.866025 0 0.866025 
z
" style="stroke: #d55e00"/>
    </defs>
    <g clip-path="url(#p3717f6b004)">
     <use xlink:href="#m2de072447f" x="128.128658" y="291.335429" style="fill: #d55e00; stroke: #d55e00"/>
     <use xlink:href="#m2de072447f" x="131.391764" y="271.230588" style="fill: #d55e00; stroke: #d55e00"/>
     <use xlink:href="#m2de072447f" x="125.028434" y="277.132092" style="fill: #d55e00; stroke: #d55e00"/>
     <use xlink:href="#m2de072447f" x="137.027883" y="348.148539" style="fill: #d55e00; stroke: #d55e00"/>
     <use xlink:href="#m2de072447f" x="129.700865" y="303.872752" style="fill: #d55e00; stroke: #d55e00"/>
     <use xlink:href="#m2de072447f" x="129.189561" y="242.926974" style="fill: #d55e00; stroke: #d55e00"/>
     <use xlink:href="#m2de072447f" x="126.17603" y="291.641576" style="fill: #d55e00; stroke: #d55e00"/>
     <use xlink:href="#m2de072447f" x="129.933939" y="322.764989" style="fill: #d55e00; stroke: #d55e00"/>
     <use xlink:href="#m2de072447f" x="129.920359" y="287.681717" style="fill: #d55e00; stroke: #d55e00"/>
     <use xlink:href="#m2de072447f" x="125.111398" y="261.530411" style="fill: #d55e00; stroke: #d55e00"/>
     <use xlink:href="#m2de072447f" x="136.223985" y="295.59188" style="fill: #d55e00; stroke: #d55e00"/>
     <use xlink:href="#m2de072447f" x="128.179307" y="318.381365" style="fill: #d55e00; stroke: #d55e00"/>
     <use xlink:href="#m2de072447f" x="125.430282" y="309.375847" style="fill: #d55e00; stroke: #d55e00"/>
     <use xlink:href="#m2de072447f" x="128.49866" y="173.725174" style="fill: #d55e00; stroke: #d55e00"/>
     <use xlink:href="#m2de072447f" x="130.382627" y="226.23186" style="fill: #d55e00; stroke: #d55e00"/>
     <use xlink:href="#m2de072447f" x="132.29917" y="328.844466" style="fill: #d55e00; stroke: #d55e00"/>
     <use xlink:href="#m2de072447f" x="137.378679" y="276.926833" style="fill: #d55e00; stroke: #d55e00"/>
     <use xlink:href="#m2de072447f" x="134.079297" y="212.395178" style="fill: #d55e00; stroke: #d55e00"/>
     <use xlink:href="#m2de072447f" x="130.836136" y="251.640047" style="fill: #d55e00; stroke: #d55e00"/>
     <use xlink:href="#m2de072447f" x="134.152957" y="217.555879" style="fill: #d55e00; stroke: #d55e00"/>
     <use xlink:href="#m2de072447f" x="128.06348" y="224.398725" style="fill: #d55e00; stroke: #d55e00"/>
     <use xlink:href="#m2de072447f" x="125.875321" y="290.286476" style="fill: #d55e00; stroke: #d55e00"/>
     <use xlink:href="#m2de072447f" x="136.960832" y="319.425483" style="fill: #d55e00; stroke: #d55e00"/>
     <use xlink:href="#m2de072447f" x="131.766659" y="313.177791" style="fill: #d55e00; stroke: #d55e00"/>
     <use xlink:href="#m2de072447f" x="135.477306" y="228.153363" style="fill: #d55e00; stroke: #d55e00"/>
     <use xlink:href="#m2de072447f" x="132.963566" y="291.741324" style="fill: #d55e00; stroke: #d55e00"/>
     <use xlink:href="#m2de072447f" x="133.498396" y="337.531838" style="fill: #d55e00; stroke: #d55e00"/>
     <use xlink:href="#m2de072447f" x="129.713663" y="304.061361" style="fill: #d55e00; stroke: #d55e00"/>
     <use xlink:href="#m2de072447f" x="137.487442" y="321.843007" style="fill: #d55e00; stroke: #d55e00"/>
     <use xlink:href="#m2de072447f" x="126.30534" y="284.928465" style="fill: #d55e00; stroke: #d55e00"/>
     <use xlink:href="#m2de072447f" x="135.18187" y="292.577163" style="fill: #d55e00; stroke: #d55e00"/>
     <use xlink:href="#m2de072447f" x="132.949802" y="288.048261" style="fill: #d55e00; stroke: #d55e00"/>
     <use xlink:href="#m2de072447f" x="138.584357" y="322.27131" style="fill: #d55e00; stroke: #d55e00"/>
     <use xlink:href="#m2de072447f" x="135.880975" y="269.219867" style="fill: #d55e00; stroke: #d55e00"/>
     <use xlink:href="#m2de072447f" x="133.713777" y="270.582867" style="fill: #d55e00; stroke: #d55e00"/>
     <use xlink:href="#m2de072447f" x="134.227276" y="292.669089" style="fill: #d55e00; stroke: #d55e00"/>
     <use xlink:href="#m2de072447f" x="134.032124" y="242.589853" style="fill: #d55e00; stroke: #d55e00"/>
     <use xlink:href="#m2de072447f" x="137.419493" y="266.034147" style="fill: #d55e00; stroke: #d55e00"/>
     <use xlink:href="#m2de072447f" x="125.381205" y="193.33241" style="fill: #d55e00; stroke: #d55e00"/>
    </g>
   </g>
   <g id="PathCollection_2">
    <defs>
     <path id="meda336bef0" d="M 0 0.866025 
C 0.229673 0.866025 0.449969 0.774776 0.612372 0.612372 
C 0.774776 0.449969 0.866025 0.229673 0.866025 0 
C 0.866025 -0.229673 0.774776 -0.449969 0.612372 -0.612372 
C 0.449969 -0.774776 0.229673 -0.866025 0 -0.866025 
C -0.229673 -0.866025 -0.449969 -0.774776 -0.612372 -0.612372 
C -0.774776 -0.449969 -0.866025 -0.229673 -0.866025 0 
C -0.866025 0.229673 -0.774776 0.449969 -0.612372 0.612372 
C -0.449969 0.774776 -0.229673 0.866025 0 0.866025 
z
" style="stroke: #0072b2"/>
    </defs>
    <g clip-path="url(#p3717f6b004)">
     <use xlink:href="#meda336bef0" x="278.237176" y="383.364358" style="fill: #0072b2; stroke: #0072b2"/>
     <use xlink:href="#meda336bef0" x="277.847483" y="330.847629" style="fill: #0072b2; stroke: #0072b2"/>
     <use xlink:href="#meda336bef0" x="273.547965" y="297.607736" style="fill: #0072b2; stroke: #0072b2"/>
     <use xlink:href="#meda336bef0" x="271.302872" y="292.149357" style="fill: #0072b2; stroke: #0072b2"/>
     <use xlink:href="#meda336bef0" x="265.542807" y="285.657271" style="fill: #0072b2; stroke: #0072b2"/>
     <use xlink:href="#meda336bef0" x="271.075819" y="297.032617" style="fill: #0072b2; stroke: #0072b2"/>
     <use xlink:href="#meda336bef0" x="267.611927" y="317.359493" style="fill: #0072b2; stroke: #0072b2"/>
     <use xlink:href="#meda336bef0" x="276.728348" y="288.166823" style="fill: #0072b2; stroke: #0072b2"/>
     <use xlink:href="#meda336bef0" x="277.542417" y="224.222453" style="fill: #0072b2; stroke: #0072b2"/>
     <use xlink:href="#meda336bef0" x="269.768949" y="364.059373" style="fill: #0072b2; stroke: #0072b2"/>
     <use xlink:href="#meda336bef0" x="277.247807" y="338.778495" style="fill: #0072b2; stroke: #0072b2"/>
     <use xlink:href="#meda336bef0" x="270.597771" y="319.373285" style="fill: #0072b2; stroke: #0072b2"/>
     <use xlink:href="#meda336bef0" x="277.175376" y="286.784761" style="fill: #0072b2; stroke: #0072b2"/>
     <use xlink:href="#meda336bef0" x="277.601867" y="363.435185" style="fill: #0072b2; stroke: #0072b2"/>
     <use xlink:href="#meda336bef0" x="266.803173" y="437.387887" style="fill: #0072b2; stroke: #0072b2"/>
     <use xlink:href="#meda336bef0" x="278.006276" y="306.264221" style="fill: #0072b2; stroke: #0072b2"/>
     <use xlink:href="#meda336bef0" x="277.806539" y="319.257423" style="fill: #0072b2; stroke: #0072b2"/>
     <use xlink:href="#meda336bef0" x="267.238372" y="320.106831" style="fill: #0072b2; stroke: #0072b2"/>
     <use xlink:href="#meda336bef0" x="266.115033" y="408.150443" style="fill: #0072b2; stroke: #0072b2"/>
     <use xlink:href="#meda336bef0" x="272.418947" y="340.33848" style="fill: #0072b2; stroke: #0072b2"/>
     <use xlink:href="#meda336bef0" x="275.19038" y="444.135339" style="fill: #0072b2; stroke: #0072b2"/>
     <use xlink:href="#meda336bef0" x="265.962653" y="311.848776" style="fill: #0072b2; stroke: #0072b2"/>
     <use xlink:href="#meda336bef0" x="269.821331" y="342.266042" style="fill: #0072b2; stroke: #0072b2"/>
     <use xlink:href="#meda336bef0" x="266.583365" y="311.651096" style="fill: #0072b2; stroke: #0072b2"/>
     <use xlink:href="#meda336bef0" x="271.593951" y="487.082821" style="fill: #0072b2; stroke: #0072b2"/>
     <use xlink:href="#meda336bef0" x="271.830125" y="341.292979" style="fill: #0072b2; stroke: #0072b2"/>
     <use xlink:href="#meda336bef0" x="272.254345" y="321.513195" style="fill: #0072b2; stroke: #0072b2"/>
     <use xlink:href="#meda336bef0" x="270.970707" y="490.418182" style="fill: #0072b2; stroke: #0072b2"/>
     <use xlink:href="#meda336bef0" x="273.500831" y="250.270847" style="fill: #0072b2; stroke: #0072b2"/>
     <use xlink:href="#meda336bef0" x="268.396097" y="276.310655" style="fill: #0072b2; stroke: #0072b2"/>
     <use xlink:href="#meda336bef0" x="265.701781" y="322.44689" style="fill: #0072b2; stroke: #0072b2"/>
     <use xlink:href="#meda336bef0" x="276.644992" y="343.543773" style="fill: #0072b2; stroke: #0072b2"/>
     <use xlink:href="#meda336bef0" x="267.583988" y="311.421349" style="fill: #0072b2; stroke: #0072b2"/>
     <use xlink:href="#meda336bef0" x="267.55255" y="360.047907" style="fill: #0072b2; stroke: #0072b2"/>
     <use xlink:href="#meda336bef0" x="272.895509" y="354.827628" style="fill: #0072b2; stroke: #0072b2"/>
     <use xlink:href="#meda336bef0" x="274.789078" y="323.531878" style="fill: #0072b2; stroke: #0072b2"/>
     <use xlink:href="#meda336bef0" x="277.349483" y="385.348185" style="fill: #0072b2; stroke: #0072b2"/>
     <use xlink:href="#meda336bef0" x="275.295998" y="325.978099" style="fill: #0072b2; stroke: #0072b2"/>
     <use xlink:href="#meda336bef0" x="273.492136" y="319.370275" style="fill: #0072b2; stroke: #0072b2"/>
    </g>
   </g>
   <g id="PathCollection_3">
    <defs>
     <path id="m9c8636e638" d="M 0 0.866025 
C 0.229673 0.866025 0.449969 0.774776 0.612372 0.612372 
C 0.774776 0.449969 0.866025 0.229673 0.866025 0 
C 0.866025 -0.229673 0.774776 -0.449969 0.612372 -0.612372 
C 0.449969 -0.774776 0.229673 -0.866025 0 -0.866025 
C -0.229673 -0.866025 -0.449969 -0.774776 -0.612372 -0.612372 
C -0.774776 -0.449969 -0.866025 -0.229673 -0.866025 0 
C -0.866025 0.229673 -0.774776 0.449969 -0.612372 0.612372 
C -0.449969 0.774776 -0.229673 0.866025 0 0.866025 
z
" style="stroke: #009e73"/>
    </defs>
    <g clip-path="url(#p3717f6b004)">
     <use xlink:href="#m9c8636e638" x="415.885655" y="228.511617" style="fill: #009e73; stroke: #009e73"/>
     <use xlink:href="#m9c8636e638" x="409.581321" y="277.566359" style="fill: #009e73; stroke: #009e73"/>
     <use xlink:href="#m9c8636e638" x="406.577296" y="271.351537" style="fill: #009e73; stroke: #009e73"/>
     <use xlink:href="#m9c8636e638" x="416.184983" y="310.168955" style="fill: #009e73; stroke: #009e73"/>
     <use xlink:href="#m9c8636e638" x="416.247663" y="259.881193" style="fill: #009e73; stroke: #009e73"/>
     <use xlink:href="#m9c8636e638" x="406.796892" y="356.734896" style="fill: #009e73; stroke: #009e73"/>
     <use xlink:href="#m9c8636e638" x="406.667829" y="210.293319" style="fill: #009e73; stroke: #009e73"/>
     <use xlink:href="#m9c8636e638" x="415.423036" y="265.154131" style="fill: #009e73; stroke: #009e73"/>
     <use xlink:href="#m9c8636e638" x="416.817825" y="286.439005" style="fill: #009e73; stroke: #009e73"/>
     <use xlink:href="#m9c8636e638" x="413.068836" y="255.873816" style="fill: #009e73; stroke: #009e73"/>
     <use xlink:href="#m9c8636e638" x="416.317437" y="330.831547" style="fill: #009e73; stroke: #009e73"/>
     <use xlink:href="#m9c8636e638" x="404.37503" y="307.956094" style="fill: #009e73; stroke: #009e73"/>
     <use xlink:href="#m9c8636e638" x="415.813911" y="276.544369" style="fill: #009e73; stroke: #009e73"/>
     <use xlink:href="#m9c8636e638" x="406.432162" y="285.21556" style="fill: #009e73; stroke: #009e73"/>
     <use xlink:href="#m9c8636e638" x="404.669539" y="230.19115" style="fill: #009e73; stroke: #009e73"/>
     <use xlink:href="#m9c8636e638" x="407.641443" y="282.45872" style="fill: #009e73; stroke: #009e73"/>
     <use xlink:href="#m9c8636e638" x="411.727964" y="261.703804" style="fill: #009e73; stroke: #009e73"/>
     <use xlink:href="#m9c8636e638" x="408.350262" y="383.892024" style="fill: #009e73; stroke: #009e73"/>
     <use xlink:href="#m9c8636e638" x="406.275377" y="364.325271" style="fill: #009e73; stroke: #009e73"/>
     <use xlink:href="#m9c8636e638" x="404.37804" y="268.5326" style="fill: #009e73; stroke: #009e73"/>
     <use xlink:href="#m9c8636e638" x="411.924217" y="187.921069" style="fill: #009e73; stroke: #009e73"/>
     <use xlink:href="#m9c8636e638" x="410.301303" y="247.806682" style="fill: #009e73; stroke: #009e73"/>
     <use xlink:href="#m9c8636e638" x="410.91221" y="269.500258" style="fill: #009e73; stroke: #009e73"/>
     <use xlink:href="#m9c8636e638" x="413.121154" y="268.768579" style="fill: #009e73; stroke: #009e73"/>
     <use xlink:href="#m9c8636e638" x="414.454475" y="186.737726" style="fill: #009e73; stroke: #009e73"/>
     <use xlink:href="#m9c8636e638" x="406.473749" y="307.906327" style="fill: #009e73; stroke: #009e73"/>
     <use xlink:href="#m9c8636e638" x="408.983603" y="266.273936" style="fill: #009e73; stroke: #009e73"/>
     <use xlink:href="#m9c8636e638" x="406.120389" y="267.067529" style="fill: #009e73; stroke: #009e73"/>
     <use xlink:href="#m9c8636e638" x="407.912454" y="283.853059" style="fill: #009e73; stroke: #009e73"/>
     <use xlink:href="#m9c8636e638" x="411.392248" y="295.750767" style="fill: #009e73; stroke: #009e73"/>
     <use xlink:href="#m9c8636e638" x="410.617968" y="283.844071" style="fill: #009e73; stroke: #009e73"/>
     <use xlink:href="#m9c8636e638" x="406.510067" y="269.75618" style="fill: #009e73; stroke: #009e73"/>
     <use xlink:href="#m9c8636e638" x="405.032045" y="272.460961" style="fill: #009e73; stroke: #009e73"/>
     <use xlink:href="#m9c8636e638" x="408.884971" y="254.334838" style="fill: #009e73; stroke: #009e73"/>
     <use xlink:href="#m9c8636e638" x="411.906543" y="282.036266" style="fill: #009e73; stroke: #009e73"/>
     <use xlink:href="#m9c8636e638" x="405.966705" y="262.55469" style="fill: #009e73; stroke: #009e73"/>
     <use xlink:href="#m9c8636e638" x="407.441545" y="213.016904" style="fill: #009e73; stroke: #009e73"/>
     <use xlink:href="#m9c8636e638" x="417.1561" y="313.172871" style="fill: #009e73; stroke: #009e73"/>
     <use xlink:href="#m9c8636e638" x="414.396158" y="399.205624" style="fill: #009e73; stroke: #009e73"/>
    </g>
   </g>
   <g id="PathCollection_4">
    <defs>
     <path id="m386e0244c4" d="M 0 0.866025 
C 0.229673 0.866025 0.449969 0.774776 0.612372 0.612372 
C 0.774776 0.449969 0.866025 0.229673 0.866025 0 
C 0.866025 -0.229673 0.774776 -0.449969 0.612372 -0.612372 
C 0.449969 -0.774776 0.229673 -0.866025 0 -0.866025 
C -0.229673 -0.866025 -0.449969 -0.774776 -0.612372 -0.612372 
C -0.774776 -0.449969 -0.866025 -0.229673 -0.866025 0 
C -0.866025 0.229673 -0.774776 0.449969 -0.612372 0.612372 
C -0.449969 0.774776 -0.229673 0.866025 0 0.866025 
z
" style="stroke: #cc79a7"/>
    </defs>
    <g clip-path="url(#p3717f6b004)">
     <use xlink:href="#m386e0244c4" x="550.788415" y="241.222675" style="fill: #cc79a7; stroke: #cc79a7"/>
     <use xlink:href="#m386e0244c4" x="547.859326" y="298.640306" style="fill: #cc79a7; stroke: #cc79a7"/>
     <use xlink:href="#m386e0244c4" x="546.868865" y="333.754828" style="fill: #cc79a7; stroke: #cc79a7"/>
     <use xlink:href="#m386e0244c4" x="556.276215" y="232.004844" style="fill: #cc79a7; stroke: #cc79a7"/>
     <use xlink:href="#m386e0244c4" x="553.796389" y="312.485856" style="fill: #cc79a7; stroke: #cc79a7"/>
     <use xlink:href="#m386e0244c4" x="545.755132" y="237.436338" style="fill: #cc79a7; stroke: #cc79a7"/>
     <use xlink:href="#m386e0244c4" x="557.011272" y="300.353844" style="fill: #cc79a7; stroke: #cc79a7"/>
     <use xlink:href="#m386e0244c4" x="553.687113" y="310.12785" style="fill: #cc79a7; stroke: #cc79a7"/>
     <use xlink:href="#m386e0244c4" x="553.003504" y="390.45894" style="fill: #cc79a7; stroke: #cc79a7"/>
     <use xlink:href="#m386e0244c4" x="544.125458" y="246.26236" style="fill: #cc79a7; stroke: #cc79a7"/>
     <use xlink:href="#m386e0244c4" x="553.677997" y="146.781818" style="fill: #cc79a7; stroke: #cc79a7"/>
     <use xlink:href="#m386e0244c4" x="547.430941" y="248.167491" style="fill: #cc79a7; stroke: #cc79a7"/>
     <use xlink:href="#m386e0244c4" x="550.031669" y="298.895462" style="fill: #cc79a7; stroke: #cc79a7"/>
     <use xlink:href="#m386e0244c4" x="543.68617" y="297.035819" style="fill: #cc79a7; stroke: #cc79a7"/>
     <use xlink:href="#m386e0244c4" x="554.381652" y="269.706625" style="fill: #cc79a7; stroke: #cc79a7"/>
     <use xlink:href="#m386e0244c4" x="553.187385" y="269.246056" style="fill: #cc79a7; stroke: #cc79a7"/>
     <use xlink:href="#m386e0244c4" x="548.783017" y="325.661817" style="fill: #cc79a7; stroke: #cc79a7"/>
     <use xlink:href="#m386e0244c4" x="548.050107" y="273.4102" style="fill: #cc79a7; stroke: #cc79a7"/>
     <use xlink:href="#m386e0244c4" x="553.514348" y="225.229587" style="fill: #cc79a7; stroke: #cc79a7"/>
     <use xlink:href="#m386e0244c4" x="556.91045" y="299.464741" style="fill: #cc79a7; stroke: #cc79a7"/>
     <use xlink:href="#m386e0244c4" x="554.2685" y="329.648274" style="fill: #cc79a7; stroke: #cc79a7"/>
     <use xlink:href="#m386e0244c4" x="553.394338" y="302.23907" style="fill: #cc79a7; stroke: #cc79a7"/>
     <use xlink:href="#m386e0244c4" x="551.003676" y="201.709136" style="fill: #cc79a7; stroke: #cc79a7"/>
     <use xlink:href="#m386e0244c4" x="548.973312" y="250.038644" style="fill: #cc79a7; stroke: #cc79a7"/>
     <use xlink:href="#m386e0244c4" x="551.087777" y="208.189952" style="fill: #cc79a7; stroke: #cc79a7"/>
     <use xlink:href="#m386e0244c4" x="544.39681" y="227.61785" style="fill: #cc79a7; stroke: #cc79a7"/>
     <use xlink:href="#m386e0244c4" x="555.491228" y="270.452264" style="fill: #cc79a7; stroke: #cc79a7"/>
     <use xlink:href="#m386e0244c4" x="556.039014" y="213.008107" style="fill: #cc79a7; stroke: #cc79a7"/>
     <use xlink:href="#m386e0244c4" x="549.500288" y="302.05917" style="fill: #cc79a7; stroke: #cc79a7"/>
     <use xlink:href="#m386e0244c4" x="554.226839" y="431.568202" style="fill: #cc79a7; stroke: #cc79a7"/>
     <use xlink:href="#m386e0244c4" x="552.495665" y="315.969694" style="fill: #cc79a7; stroke: #cc79a7"/>
     <use xlink:href="#m386e0244c4" x="556.100796" y="221.945752" style="fill: #cc79a7; stroke: #cc79a7"/>
     <use xlink:href="#m386e0244c4" x="552.947919" y="231.950273" style="fill: #cc79a7; stroke: #cc79a7"/>
     <use xlink:href="#m386e0244c4" x="550.84801" y="275.261807" style="fill: #cc79a7; stroke: #cc79a7"/>
     <use xlink:href="#m386e0244c4" x="553.962683" y="238.07323" style="fill: #cc79a7; stroke: #cc79a7"/>
     <use xlink:href="#m386e0244c4" x="553.468007" y="259.473306" style="fill: #cc79a7; stroke: #cc79a7"/>
     <use xlink:href="#m386e0244c4" x="547.036255" y="376.403287" style="fill: #cc79a7; stroke: #cc79a7"/>
     <use xlink:href="#m386e0244c4" x="545.71391" y="234.973775" style="fill: #cc79a7; stroke: #cc79a7"/>
     <use xlink:href="#m386e0244c4" x="544.539726" y="296.094462" style="fill: #cc79a7; stroke: #cc79a7"/>
    </g>
   </g>
   <g id="patch_3">
    <path d="M 149.2875 306.718604 
L 170.2125 306.718604 
L 170.2125 256.585229 
L 149.2875 256.585229 
L 149.2875 306.718604 
z
" clip-path="url(#p3717f6b004)" style="fill: #d55e00; opacity: 0.5; stroke: #000000; stroke-linejoin: miter"/>
   </g>
   <g id="line2d_13">
    <path d="M 159.75 306.718604 
L 159.75 348.148539 
" clip-path="url(#p3717f6b004)" style="fill: none; stroke: #000000; stroke-linecap: round"/>
   </g>
   <g id="line2d_14">
    <path d="M 159.75 256.585229 
L 159.75 193.33241 
" clip-path="url(#p3717f6b004)" style="fill: none; stroke: #000000; stroke-linecap: round"/>
   </g>
   <g id="line2d_15">
    <path d="M 154.51875 348.148539 
L 164.98125 348.148539 
" clip-path="url(#p3717f6b004)" style="fill: none; stroke: #000000; stroke-linecap: round"/>
   </g>
   <g id="line2d_16">
    <path d="M 154.51875 193.33241 
L 164.98125 193.33241 
" clip-path="url(#p3717f6b004)" style="fill: none; stroke: #000000; stroke-linecap: round"/>
   </g>
   <g id="patch_4">
    <path d="M 288.7875 357.437767 
L 309.7125 357.437767 
L 309.7125 308.842785 
L 288.7875 308.842785 
L 288.7875 357.437767 
z
" clip-path="url(#p3717f6b004)" style="fill: #0072b2; opacity: 0.5; stroke: #000000; stroke-linejoin: miter"/>
   </g>
   <g id="line2d_17">
    <path d="M 299.25 357.437767 
L 299.25 408.150443 
" clip-path="url(#p3717f6b004)" style="fill: none; stroke: #000000; stroke-linecap: round"/>
   </g>
   <g id="line2d_18">
    <path d="M 299.25 308.842785 
L 299.25 250.270847 
" clip-path="url(#p3717f6b004)" style="fill: none; stroke: #000000; stroke-linecap: round"/>
   </g>
   <g id="line2d_19">
    <path d="M 294.01875 408.150443 
L 304.48125 408.150443 
" clip-path="url(#p3717f6b004)" style="fill: none; stroke: #000000; stroke-linecap: round"/>
   </g>
   <g id="line2d_20">
    <path d="M 294.01875 250.270847 
L 304.48125 250.270847 
" clip-path="url(#p3717f6b004)" style="fill: none; stroke: #000000; stroke-linecap: round"/>
   </g>
   <g id="patch_5">
    <path d="M 428.2875 291.094886 
L 449.2125 291.094886 
L 449.2125 260.792498 
L 428.2875 260.792498 
L 428.2875 291.094886 
z
" clip-path="url(#p3717f6b004)" style="fill: #009e73; opacity: 0.5; stroke: #000000; stroke-linejoin: miter"/>
   </g>
   <g id="line2d_21">
    <path d="M 438.75 291.094886 
L 438.75 330.831547 
" clip-path="url(#p3717f6b004)" style="fill: none; stroke: #000000; stroke-linecap: round"/>
   </g>
   <g id="line2d_22">
    <path d="M 438.75 260.792498 
L 438.75 228.511617 
" clip-path="url(#p3717f6b004)" style="fill: none; stroke: #000000; stroke-linecap: round"/>
   </g>
   <g id="line2d_23">
    <path d="M 433.51875 330.831547 
L 443.98125 330.831547 
" clip-path="url(#p3717f6b004)" style="fill: none; stroke: #000000; stroke-linecap: round"/>
   </g>
   <g id="line2d_24">
    <path d="M 433.51875 228.511617 
L 443.98125 228.511617 
" clip-path="url(#p3717f6b004)" style="fill: none; stroke: #000000; stroke-linecap: round"/>
   </g>
   <g id="patch_6">
    <path d="M 567.7875 302.14912 
L 588.7125 302.14912 
L 588.7125 236.205057 
L 567.7875 236.205057 
L 567.7875 302.14912 
z
" clip-path="url(#p3717f6b004)" style="fill: #cc79a7; opacity: 0.5; stroke: #000000; stroke-linejoin: miter"/>
   </g>
   <g id="line2d_25">
    <path d="M 578.25 302.14912 
L 578.25 390.45894 
" clip-path="url(#p3717f6b004)" style="fill: none; stroke: #000000; stroke-linecap: round"/>
   </g>
   <g id="line2d_26">
    <path d="M 578.25 236.205057 
L 578.25 146.781818 
" clip-path="url(#p3717f6b004)" style="fill: none; stroke: #000000; stroke-linecap: round"/>
   </g>
   <g id="line2d_27">
    <path d="M 573.01875 390.45894 
L 583.48125 390.45894 
" clip-path="url(#p3717f6b004)" style="fill: none; stroke: #000000; stroke-linecap: round"/>
   </g>
   <g id="line2d_28">
    <path d="M 573.01875 146.781818 
L 583.48125 146.781818 
" clip-path="url(#p3717f6b004)" style="fill: none; stroke: #000000; stroke-linecap: round"/>
   </g>
   <g id="line2d_29">
    <path d="M 149.2875 288.048261 
L 170.2125 288.048261 
" clip-path="url(#p3717f6b004)" style="fill: none; stroke: #000000"/>
   </g>
   <g id="line2d_30">
    <path d="M 288.7875 322.44689 
L 309.7125 322.44689 
" clip-path="url(#p3717f6b004)" style="fill: none; stroke: #000000"/>
   </g>
   <g id="line2d_31">
    <path d="M 428.2875 271.351537 
L 449.2125 271.351537 
" clip-path="url(#p3717f6b004)" style="fill: none; stroke: #000000"/>
   </g>
   <g id="line2d_32">
    <path d="M 567.7875 270.452264 
L 588.7125 270.452264 
" clip-path="url(#p3717f6b004)" style="fill: none; stroke: #000000"/>
   </g>
   <g id="patch_7">
    <path d="M 90 507.6 
L 90 129.6 
" style="fill: none; stroke: #262626; stroke-width: 1.25; stroke-linejoin: miter; stroke-linecap: square"/>
   </g>
   <g id="patch_8">
    <path d="M 648 507.6 
L 648 129.6 
" style="fill: none; stroke: #262626; stroke-width: 1.25; stroke-linejoin: miter; stroke-linecap: square"/>
   </g>
   <g id="patch_9">
    <path d="M 90 507.6 
L 648 507.6 
" style="fill: none; stroke: #262626; stroke-width: 1.25; stroke-linejoin: miter; stroke-linecap: square"/>
   </g>
   <g id="patch_10">
    <path d="M 90 129.6 
L 648 129.6 
" style="fill: none; stroke: #262626; stroke-width: 1.25; stroke-linejoin: miter; stroke-linecap: square"/>
   </g>
   <g id="text_14">
    <!-- IBI -->
    <g style="fill: #262626" transform="translate(360.055313 109.6) scale(0.14 -0.14)">
     <defs>
      <path id="Arial-BoldMT-49" d="M 438 0 
L 438 4581 
L 1363 4581 
L 1363 0 
L 438 0 
z
" transform="scale(0.015625)"/>
      <path id="Arial-BoldMT-42" d="M 469 4581 
L 2300 4581 
Q 2844 4581 3111 4536 
Q 3378 4491 3589 4347 
Q 3800 4203 3940 3964 
Q 4081 3725 4081 3428 
Q 4081 3106 3907 2837 
Q 3734 2569 3438 2434 
Q 3856 2313 4081 2019 
Q 4306 1725 4306 1328 
Q 4306 1016 4161 720 
Q 4016 425 3764 248 
Q 3513 72 3144 31 
Q 2913 6 2028 0 
L 469 0 
L 469 4581 
z
M 1394 3819 
L 1394 2759 
L 2000 2759 
Q 2541 2759 2672 2775 
Q 2909 2803 3045 2939 
Q 3181 3075 3181 3297 
Q 3181 3509 3064 3642 
Q 2947 3775 2716 3803 
Q 2578 3819 1925 3819 
L 1394 3819 
z
M 1394 1997 
L 1394 772 
L 2250 772 
Q 2750 772 2884 800 
Q 3091 838 3220 983 
Q 3350 1128 3350 1372 
Q 3350 1578 3250 1722 
Q 3150 1866 2961 1931 
Q 2772 1997 2141 1997 
L 1394 1997 
z
" transform="scale(0.015625)"/>
     </defs>
     <use xlink:href="#Arial-BoldMT-49"/>
     <use xlink:href="#Arial-BoldMT-42" x="27.783203"/>
     <use xlink:href="#Arial-BoldMT-49" x="100"/>
    </g>
   </g>
  </g>
  <g id="axes_2">
   <g id="patch_11">
    <path d="M 90 961.2 
L 648 961.2 
L 648 583.2 
L 90 583.2 
z
" style="fill: #ffffff"/>
   </g>
   <g id="matplotlib.axis_3">
    <g id="xtick_5">
     <g id="line2d_33">
      <g>
       <use xlink:href="#m6b0c76e00e" x="159.75" y="961.2" style="fill: #262626; stroke: #262626; stroke-width: 1.25"/>
      </g>
     </g>
     <g id="text_15">
      <!-- State 1 -->
      <g style="fill: #262626" transform="translate(142.321875 978.573594) scale(0.11 -0.11)">
       <use xlink:href="#ArialMT-53"/>
       <use xlink:href="#ArialMT-74" x="66.699219"/>
       <use xlink:href="#ArialMT-61" x="94.482422"/>
       <use xlink:href="#ArialMT-74" x="150.097656"/>
       <use xlink:href="#ArialMT-65" x="177.880859"/>
       <use xlink:href="#ArialMT-20" x="233.496094"/>
       <use xlink:href="#ArialMT-31" x="261.279297"/>
      </g>
     </g>
    </g>
    <g id="xtick_6">
     <g id="line2d_34">
      <g>
       <use xlink:href="#m6b0c76e00e" x="299.25" y="961.2" style="fill: #262626; stroke: #262626; stroke-width: 1.25"/>
      </g>
     </g>
     <g id="text_16">
      <!-- State 2 -->
      <g style="fill: #262626" transform="translate(281.821875 978.573594) scale(0.11 -0.11)">
       <use xlink:href="#ArialMT-53"/>
       <use xlink:href="#ArialMT-74" x="66.699219"/>
       <use xlink:href="#ArialMT-61" x="94.482422"/>
       <use xlink:href="#ArialMT-74" x="150.097656"/>
       <use xlink:href="#ArialMT-65" x="177.880859"/>
       <use xlink:href="#ArialMT-20" x="233.496094"/>
       <use xlink:href="#ArialMT-32" x="261.279297"/>
      </g>
     </g>
    </g>
    <g id="xtick_7">
     <g id="line2d_35">
      <g>
       <use xlink:href="#m6b0c76e00e" x="438.75" y="961.2" style="fill: #262626; stroke: #262626; stroke-width: 1.25"/>
      </g>
     </g>
     <g id="text_17">
      <!-- State 3 -->
      <g style="fill: #262626" transform="translate(421.321875 978.573594) scale(0.11 -0.11)">
       <use xlink:href="#ArialMT-53"/>
       <use xlink:href="#ArialMT-74" x="66.699219"/>
       <use xlink:href="#ArialMT-61" x="94.482422"/>
       <use xlink:href="#ArialMT-74" x="150.097656"/>
       <use xlink:href="#ArialMT-65" x="177.880859"/>
       <use xlink:href="#ArialMT-20" x="233.496094"/>
       <use xlink:href="#ArialMT-33" x="261.279297"/>
      </g>
     </g>
    </g>
    <g id="xtick_8">
     <g id="line2d_36">
      <g>
       <use xlink:href="#m6b0c76e00e" x="578.25" y="961.2" style="fill: #262626; stroke: #262626; stroke-width: 1.25"/>
      </g>
     </g>
     <g id="text_18">
      <!-- State 4 -->
      <g style="fill: #262626" transform="translate(560.821875 978.573594) scale(0.11 -0.11)">
       <use xlink:href="#ArialMT-53"/>
       <use xlink:href="#ArialMT-74" x="66.699219"/>
       <use xlink:href="#ArialMT-61" x="94.482422"/>
       <use xlink:href="#ArialMT-74" x="150.097656"/>
       <use xlink:href="#ArialMT-65" x="177.880859"/>
       <use xlink:href="#ArialMT-20" x="233.496094"/>
       <use xlink:href="#ArialMT-34" x="261.279297"/>
      </g>
     </g>
    </g>
   </g>
   <g id="matplotlib.axis_4">
    <g id="ytick_9">
     <g id="line2d_37">
      <g>
       <use xlink:href="#mf4bb975bc6" x="90" y="958.817931" style="fill: #262626; stroke: #262626; stroke-width: 1.25"/>
      </g>
     </g>
     <g id="text_19">
      <!-- −1.0 -->
      <g style="fill: #262626" transform="translate(58.785313 962.754728) scale(0.11 -0.11)">
       <use xlink:href="#ArialMT-2212"/>
       <use xlink:href="#ArialMT-31" x="58.398438"/>
       <use xlink:href="#ArialMT-2e" x="114.013672"/>
       <use xlink:href="#ArialMT-30" x="141.796875"/>
      </g>
     </g>
    </g>
    <g id="ytick_10">
     <g id="line2d_38">
      <g>
       <use xlink:href="#mf4bb975bc6" x="90" y="882.455191" style="fill: #262626; stroke: #262626; stroke-width: 1.25"/>
      </g>
     </g>
     <g id="text_20">
      <!-- −0.5 -->
      <g style="fill: #262626" transform="translate(58.785313 886.391988) scale(0.11 -0.11)">
       <use xlink:href="#ArialMT-2212"/>
       <use xlink:href="#ArialMT-30" x="58.398438"/>
       <use xlink:href="#ArialMT-2e" x="114.013672"/>
       <use xlink:href="#ArialMT-35" x="141.796875"/>
      </g>
     </g>
    </g>
    <g id="ytick_11">
     <g id="line2d_39">
      <g>
       <use xlink:href="#mf4bb975bc6" x="90" y="806.092451" style="fill: #262626; stroke: #262626; stroke-width: 1.25"/>
      </g>
     </g>
     <g id="text_21">
      <!-- 0.0 -->
      <g style="fill: #262626" transform="translate(65.21 810.029248) scale(0.11 -0.11)">
       <use xlink:href="#ArialMT-30"/>
       <use xlink:href="#ArialMT-2e" x="55.615234"/>
       <use xlink:href="#ArialMT-30" x="83.398438"/>
      </g>
     </g>
    </g>
    <g id="ytick_12">
     <g id="line2d_40">
      <g>
       <use xlink:href="#mf4bb975bc6" x="90" y="729.729712" style="fill: #262626; stroke: #262626; stroke-width: 1.25"/>
      </g>
     </g>
     <g id="text_22">
      <!-- 0.5 -->
      <g style="fill: #262626" transform="translate(65.21 733.666509) scale(0.11 -0.11)">
       <use xlink:href="#ArialMT-30"/>
       <use xlink:href="#ArialMT-2e" x="55.615234"/>
       <use xlink:href="#ArialMT-35" x="83.398438"/>
      </g>
     </g>
    </g>
    <g id="ytick_13">
     <g id="line2d_41">
      <g>
       <use xlink:href="#mf4bb975bc6" x="90" y="653.366972" style="fill: #262626; stroke: #262626; stroke-width: 1.25"/>
      </g>
     </g>
     <g id="text_23">
      <!-- 1.0 -->
      <g style="fill: #262626" transform="translate(65.21 657.303769) scale(0.11 -0.11)">
       <use xlink:href="#ArialMT-31"/>
       <use xlink:href="#ArialMT-2e" x="55.615234"/>
       <use xlink:href="#ArialMT-30" x="83.398438"/>
      </g>
     </g>
    </g>
    <g id="text_24">
     <!-- Value (z-scored) -->
     <g style="fill: #262626" transform="translate(52.259687 815.770313) rotate(-90) scale(0.12 -0.12)">
      <use xlink:href="#ArialMT-56"/>
      <use xlink:href="#ArialMT-61" x="59.324219"/>
      <use xlink:href="#ArialMT-6c" x="114.939453"/>
      <use xlink:href="#ArialMT-75" x="137.15625"/>
      <use xlink:href="#ArialMT-65" x="192.771484"/>
      <use xlink:href="#ArialMT-20" x="248.386719"/>
      <use xlink:href="#ArialMT-28" x="276.169922"/>
      <use xlink:href="#ArialMT-7a" x="309.470703"/>
      <use xlink:href="#ArialMT-2d" x="359.470703"/>
      <use xlink:href="#ArialMT-73" x="392.771484"/>
      <use xlink:href="#ArialMT-63" x="442.771484"/>
      <use xlink:href="#ArialMT-6f" x="492.771484"/>
      <use xlink:href="#ArialMT-72" x="548.386719"/>
      <use xlink:href="#ArialMT-65" x="581.6875"/>
      <use xlink:href="#ArialMT-64" x="637.302734"/>
      <use xlink:href="#ArialMT-29" x="692.917969"/>
     </g>
    </g>
   </g>
   <g id="PolyCollection_5">
    <defs>
     <path id="m14d44400e5" d="M 167.709907 -227.597062 
L 159.968566 -227.597062 
L 159.968566 -232.784904 
L 159.968566 -237.972745 
L 159.968566 -243.160587 
L 159.968566 -248.348429 
L 159.968566 -253.53627 
L 159.968566 -258.724112 
L 159.968566 -263.911953 
L 159.968566 -269.099795 
L 159.968566 -274.287637 
L 159.968566 -279.475478 
L 159.968566 -284.66332 
L 159.968566 -289.851162 
L 159.968566 -295.039003 
L 159.968566 -300.226845 
L 159.968566 -305.414687 
L 159.968566 -310.602528 
L 159.968566 -315.79037 
L 159.968566 -320.978212 
L 159.968566 -326.166053 
L 159.968566 -331.353895 
L 159.968566 -336.541737 
L 159.968566 -341.729578 
L 159.968566 -346.91742 
L 159.968566 -352.105262 
L 159.968566 -357.293103 
L 159.968566 -362.480945 
L 159.968566 -367.668787 
L 159.968566 -372.856628 
L 159.968566 -378.04447 
L 159.968566 -383.232312 
L 159.968566 -388.420153 
L 159.968566 -393.607995 
L 159.968566 -398.795837 
L 159.968566 -403.983678 
L 159.968566 -409.17152 
L 159.968566 -414.359362 
L 159.968566 -419.547203 
L 159.968566 -424.735045 
L 161.534047 -424.735045 
L 161.534047 -424.735045 
L 161.556685 -419.547203 
L 161.518935 -414.359362 
L 161.468474 -409.17152 
L 161.457369 -403.983678 
L 161.525873 -398.795837 
L 161.693831 -393.607995 
L 161.964087 -388.420153 
L 162.336047 -383.232312 
L 162.821944 -378.04447 
L 163.456307 -372.856628 
L 164.29188 -367.668787 
L 165.381469 -362.480945 
L 166.752159 -357.293103 
L 168.382728 -352.105262 
L 170.195241 -346.91742 
L 172.067412 -341.729578 
L 173.864945 -336.541737 
L 175.485033 -331.353895 
L 176.896532 -326.166053 
L 178.161291 -320.978212 
L 179.425435 -315.79037 
L 180.877903 -310.602528 
L 182.68396 -305.414687 
L 184.911443 -300.226845 
L 187.474297 -295.039003 
L 190.117772 -289.851162 
L 192.459128 -284.66332 
L 194.077526 -279.475478 
L 194.625 -274.287637 
L 193.918802 -269.099795 
L 191.982442 -263.911953 
L 189.025327 -258.724112 
L 185.376468 -253.53627 
L 181.402191 -248.348429 
L 177.435909 -243.160587 
L 173.735028 -237.972745 
L 170.465967 -232.784904 
L 167.709907 -227.597062 
z
" style="stroke: #d55e00; stroke-opacity: 0.3"/>
    </defs>
    <g clip-path="url(#p412c948686)">
     <use xlink:href="#m14d44400e5" x="0" y="1080" style="fill: #d55e00; fill-opacity: 0.3; stroke: #d55e00; stroke-opacity: 0.3"/>
    </g>
   </g>
   <g id="PolyCollection_6">
    <defs>
     <path id="mf72fdd1fa9" d="M 304.946053 -135.981818 
L 299.427151 -135.981818 
L 299.427151 -142.511084 
L 299.427151 -149.040349 
L 299.427151 -155.569615 
L 299.427151 -162.09888 
L 299.427151 -168.628145 
L 299.427151 -175.157411 
L 299.427151 -181.686676 
L 299.427151 -188.215942 
L 299.427151 -194.745207 
L 299.427151 -201.274473 
L 299.427151 -207.803738 
L 299.427151 -214.333004 
L 299.427151 -220.862269 
L 299.427151 -227.391535 
L 299.427151 -233.9208 
L 299.427151 -240.450066 
L 299.427151 -246.979331 
L 299.427151 -253.508596 
L 299.427151 -260.037862 
L 299.427151 -266.567127 
L 299.427151 -273.096393 
L 299.427151 -279.625658 
L 299.427151 -286.154924 
L 299.427151 -292.684189 
L 299.427151 -299.213455 
L 299.427151 -305.74272 
L 299.427151 -312.271986 
L 299.427151 -318.801251 
L 299.427151 -325.330517 
L 299.427151 -331.859782 
L 299.427151 -338.389047 
L 299.427151 -344.918313 
L 299.427151 -351.447578 
L 299.427151 -357.976844 
L 299.427151 -364.506109 
L 299.427151 -371.035375 
L 299.427151 -377.56464 
L 299.427151 -384.093906 
L 302.207146 -384.093906 
L 302.207146 -384.093906 
L 302.461998 -377.56464 
L 302.592791 -371.035375 
L 302.619768 -364.506109 
L 302.59337 -357.976844 
L 302.583528 -351.447578 
L 302.664505 -344.918313 
L 302.901834 -338.389047 
L 303.347352 -331.859782 
L 304.044274 -325.330517 
L 305.038269 -318.801251 
L 306.385833 -312.271986 
L 308.151114 -305.74272 
L 310.387742 -299.213455 
L 313.110508 -292.684189 
L 316.268324 -286.154924 
L 319.730612 -279.625658 
L 323.293814 -273.096393 
L 326.706426 -266.567127 
L 329.704666 -260.037862 
L 332.049422 -253.508596 
L 333.55768 -246.979331 
L 334.125 -240.450066 
L 333.737329 -233.9208 
L 332.470494 -227.391535 
L 330.476413 -220.862269 
L 327.957809 -214.333004 
L 325.137127 -207.803738 
L 322.227258 -201.274473 
L 319.409672 -194.745207 
L 316.820903 -188.215942 
L 314.544973 -181.686676 
L 312.60983 -175.157411 
L 310.989272 -168.628145 
L 309.613866 -162.09888 
L 308.392144 -155.569615 
L 307.23781 -149.040349 
L 306.094039 -142.511084 
L 304.946053 -135.981818 
z
" style="stroke: #0072b2; stroke-opacity: 0.3"/>
    </defs>
    <g clip-path="url(#p412c948686)">
     <use xlink:href="#mf72fdd1fa9" x="0" y="1080" style="fill: #0072b2; fill-opacity: 0.3; stroke: #0072b2; stroke-opacity: 0.3"/>
    </g>
   </g>
   <g id="PolyCollection_7">
    <defs>
     <path id="m960a575ef8" d="M 443.507897 -165.087073 
L 438.898933 -165.087073 
L 438.898933 -171.577169 
L 438.898933 -178.067265 
L 438.898933 -184.55736 
L 438.898933 -191.047456 
L 438.898933 -197.537552 
L 438.898933 -204.027648 
L 438.898933 -210.517743 
L 438.898933 -217.007839 
L 438.898933 -223.497935 
L 438.898933 -229.98803 
L 438.898933 -236.478126 
L 438.898933 -242.968222 
L 438.898933 -249.458317 
L 438.898933 -255.948413 
L 438.898933 -262.438509 
L 438.898933 -268.928605 
L 438.898933 -275.4187 
L 438.898933 -281.908796 
L 438.898933 -288.398892 
L 438.898933 -294.888987 
L 438.898933 -301.379083 
L 438.898933 -307.869179 
L 438.898933 -314.359274 
L 438.898933 -320.84937 
L 438.898933 -327.339466 
L 438.898933 -333.829562 
L 438.898933 -340.319657 
L 438.898933 -346.809753 
L 438.898933 -353.299849 
L 438.898933 -359.789944 
L 438.898933 -366.28004 
L 438.898933 -372.770136 
L 438.898933 -379.260231 
L 438.898933 -385.750327 
L 438.898933 -392.240423 
L 438.898933 -398.730519 
L 438.898933 -405.220614 
L 438.898933 -411.71071 
L 441.297771 -411.71071 
L 441.297771 -411.71071 
L 441.640435 -405.220614 
L 441.982743 -398.730519 
L 442.337106 -392.240423 
L 442.705451 -385.750327 
L 443.079271 -379.260231 
L 443.452602 -372.770136 
L 443.842708 -366.28004 
L 444.307236 -359.789944 
L 444.947345 -353.299849 
L 445.893473 -346.809753 
L 447.278699 -340.319657 
L 449.208358 -333.829562 
L 451.732288 -327.339466 
L 454.821773 -320.84937 
L 458.352719 -314.359274 
L 462.101022 -307.869179 
L 465.760431 -301.379083 
L 468.989828 -294.888987 
L 471.483768 -288.398892 
L 473.044257 -281.908796 
L 473.625 -275.4187 
L 473.32854 -268.928605 
L 472.357797 -262.438509 
L 470.943938 -255.948413 
L 469.280647 -249.458317 
L 467.487574 -242.968222 
L 465.609358 -236.478126 
L 463.640994 -229.98803 
L 461.562574 -223.497935 
L 459.368024 -217.007839 
L 457.079783 -210.517743 
L 454.749175 -204.027648 
L 452.446909 -197.537552 
L 450.248965 -191.047456 
L 448.2222 -184.55736 
L 446.413119 -178.067265 
L 444.842591 -171.577169 
L 443.507897 -165.087073 
z
" style="stroke: #009e73; stroke-opacity: 0.3"/>
    </defs>
    <g clip-path="url(#p412c948686)">
     <use xlink:href="#m960a575ef8" x="0" y="1080" style="fill: #009e73; fill-opacity: 0.3; stroke: #009e73; stroke-opacity: 0.3"/>
    </g>
   </g>
   <g id="PolyCollection_8">
    <defs>
     <path id="ma333947ada" d="M 580.419833 -139.760959 
L 578.327568 -139.760959 
L 578.327568 -148.70457 
L 578.327568 -157.648181 
L 578.327568 -166.591793 
L 578.327568 -175.535404 
L 578.327568 -184.479015 
L 578.327568 -193.422626 
L 578.327568 -202.366237 
L 578.327568 -211.309848 
L 578.327568 -220.253459 
L 578.327568 -229.19707 
L 578.327568 -238.140682 
L 578.327568 -247.084293 
L 578.327568 -256.027904 
L 578.327568 -264.971515 
L 578.327568 -273.915126 
L 578.327568 -282.858737 
L 578.327568 -291.802348 
L 578.327568 -300.745959 
L 578.327568 -309.689571 
L 578.327568 -318.633182 
L 578.327568 -327.576793 
L 578.327568 -336.520404 
L 578.327568 -345.464015 
L 578.327568 -354.407626 
L 578.327568 -363.351237 
L 578.327568 -372.294848 
L 578.327568 -381.238459 
L 578.327568 -390.182071 
L 578.327568 -399.125682 
L 578.327568 -408.069293 
L 578.327568 -417.012904 
L 578.327568 -425.956515 
L 578.327568 -434.900126 
L 578.327568 -443.843737 
L 578.327568 -452.787348 
L 578.327568 -461.73096 
L 578.327568 -470.674571 
L 578.327568 -479.618182 
L 580.193318 -479.618182 
L 580.193318 -479.618182 
L 580.15593 -470.674571 
L 580.026065 -461.73096 
L 579.914109 -452.787348 
L 579.963315 -443.843737 
L 580.318263 -434.900126 
L 581.096016 -425.956515 
L 582.368209 -417.012904 
L 584.159244 -408.069293 
L 586.460996 -399.125682 
L 589.255017 -390.182071 
L 592.522246 -381.238459 
L 596.21977 -372.294848 
L 600.224228 -363.351237 
L 604.275181 -354.407626 
L 607.972893 -345.464015 
L 610.866654 -336.520404 
L 612.613078 -327.576793 
L 613.125 -318.633182 
L 612.618417 -309.689571 
L 611.515701 -300.745959 
L 610.24842 -291.802348 
L 609.064951 -282.858737 
L 607.944925 -273.915126 
L 606.65803 -264.971515 
L 604.922407 -256.027904 
L 602.56903 -247.084293 
L 599.628411 -238.140682 
L 596.311375 -229.19707 
L 592.916972 -220.253459 
L 589.730102 -211.309848 
L 586.957584 -202.366237 
L 584.713199 -193.422626 
L 583.031065 -184.479015 
L 581.881726 -175.535404 
L 581.181329 -166.591793 
L 580.801836 -157.648181 
L 580.593512 -148.70457 
L 580.419833 -139.760959 
z
" style="stroke: #cc79a7; stroke-opacity: 0.3"/>
    </defs>
    <g clip-path="url(#p412c948686)">
     <use xlink:href="#ma333947ada" x="0" y="1080" style="fill: #cc79a7; fill-opacity: 0.3; stroke: #cc79a7; stroke-opacity: 0.3"/>
    </g>
   </g>
   <g id="PathCollection_5">
    <g clip-path="url(#p412c948686)">
     <use xlink:href="#m2de072447f" x="126.258474" y="750.684616" style="fill: #d55e00; stroke: #d55e00"/>
     <use xlink:href="#m2de072447f" x="128.044443" y="778.504049" style="fill: #d55e00; stroke: #d55e00"/>
     <use xlink:href="#m2de072447f" x="130.146156" y="793.070729" style="fill: #d55e00; stroke: #d55e00"/>
     <use xlink:href="#m2de072447f" x="133.143049" y="782.218698" style="fill: #d55e00; stroke: #d55e00"/>
     <use xlink:href="#m2de072447f" x="133.002676" y="815.586067" style="fill: #d55e00; stroke: #d55e00"/>
     <use xlink:href="#m2de072447f" x="130.399922" y="794.240362" style="fill: #d55e00; stroke: #d55e00"/>
     <use xlink:href="#m2de072447f" x="136.414009" y="802.162091" style="fill: #d55e00; stroke: #d55e00"/>
     <use xlink:href="#m2de072447f" x="131.955076" y="796.492283" style="fill: #d55e00; stroke: #d55e00"/>
     <use xlink:href="#m2de072447f" x="131.857019" y="830.989621" style="fill: #d55e00; stroke: #d55e00"/>
     <use xlink:href="#m2de072447f" x="132.313386" y="833.75659" style="fill: #d55e00; stroke: #d55e00"/>
     <use xlink:href="#m2de072447f" x="130.259792" y="801.25382" style="fill: #d55e00; stroke: #d55e00"/>
     <use xlink:href="#m2de072447f" x="136.773412" y="801.704794" style="fill: #d55e00; stroke: #d55e00"/>
     <use xlink:href="#m2de072447f" x="137.958292" y="808.783164" style="fill: #d55e00; stroke: #d55e00"/>
     <use xlink:href="#m2de072447f" x="133.142928" y="655.264955" style="fill: #d55e00; stroke: #d55e00"/>
     <use xlink:href="#m2de072447f" x="130.711783" y="742.55468" style="fill: #d55e00; stroke: #d55e00"/>
     <use xlink:href="#m2de072447f" x="130.467844" y="834.259486" style="fill: #d55e00; stroke: #d55e00"/>
     <use xlink:href="#m2de072447f" x="131.257324" y="804.923167" style="fill: #d55e00; stroke: #d55e00"/>
     <use xlink:href="#m2de072447f" x="130.865609" y="727.215818" style="fill: #d55e00; stroke: #d55e00"/>
     <use xlink:href="#m2de072447f" x="134.149811" y="760.094854" style="fill: #d55e00; stroke: #d55e00"/>
     <use xlink:href="#m2de072447f" x="133.712879" y="759.185058" style="fill: #d55e00; stroke: #d55e00"/>
     <use xlink:href="#m2de072447f" x="136.754249" y="751.779441" style="fill: #d55e00; stroke: #d55e00"/>
     <use xlink:href="#m2de072447f" x="133.827286" y="810.691718" style="fill: #d55e00; stroke: #d55e00"/>
     <use xlink:href="#m2de072447f" x="134.458978" y="814.523643" style="fill: #d55e00; stroke: #d55e00"/>
     <use xlink:href="#m2de072447f" x="125.52954" y="811.218909" style="fill: #d55e00; stroke: #d55e00"/>
     <use xlink:href="#m2de072447f" x="136.024814" y="768.02489" style="fill: #d55e00; stroke: #d55e00"/>
     <use xlink:href="#m2de072447f" x="126.394549" y="826.279846" style="fill: #d55e00; stroke: #d55e00"/>
     <use xlink:href="#m2de072447f" x="134.712658" y="825.710183" style="fill: #d55e00; stroke: #d55e00"/>
     <use xlink:href="#m2de072447f" x="136.057935" y="815.799275" style="fill: #d55e00; stroke: #d55e00"/>
     <use xlink:href="#m2de072447f" x="125.973077" y="779.256959" style="fill: #d55e00; stroke: #d55e00"/>
     <use xlink:href="#m2de072447f" x="137.540128" y="817.919473" style="fill: #d55e00; stroke: #d55e00"/>
     <use xlink:href="#m2de072447f" x="135.821407" y="801.976391" style="fill: #d55e00; stroke: #d55e00"/>
     <use xlink:href="#m2de072447f" x="135.730509" y="801.673643" style="fill: #d55e00; stroke: #d55e00"/>
     <use xlink:href="#m2de072447f" x="133.928735" y="852.402938" style="fill: #d55e00; stroke: #d55e00"/>
     <use xlink:href="#m2de072447f" x="126.170427" y="800.704649" style="fill: #d55e00; stroke: #d55e00"/>
     <use xlink:href="#m2de072447f" x="133.450575" y="749.687649" style="fill: #d55e00; stroke: #d55e00"/>
     <use xlink:href="#m2de072447f" x="138.507873" y="803.435562" style="fill: #d55e00; stroke: #d55e00"/>
     <use xlink:href="#m2de072447f" x="131.673813" y="740.86739" style="fill: #d55e00; stroke: #d55e00"/>
     <use xlink:href="#m2de072447f" x="135.72913" y="770.690729" style="fill: #d55e00; stroke: #d55e00"/>
     <use xlink:href="#m2de072447f" x="128.962032" y="700.754524" style="fill: #d55e00; stroke: #d55e00"/>
    </g>
   </g>
   <g id="PathCollection_6">
    <g clip-path="url(#p412c948686)">
     <use xlink:href="#meda336bef0" x="270.18757" y="944.018182" style="fill: #0072b2; stroke: #0072b2"/>
     <use xlink:href="#meda336bef0" x="273.200137" y="815.475597" style="fill: #0072b2; stroke: #0072b2"/>
     <use xlink:href="#meda336bef0" x="277.350418" y="806.155733" style="fill: #0072b2; stroke: #0072b2"/>
     <use xlink:href="#meda336bef0" x="268.515963" y="799.804595" style="fill: #0072b2; stroke: #0072b2"/>
     <use xlink:href="#meda336bef0" x="273.758025" y="822.467718" style="fill: #0072b2; stroke: #0072b2"/>
     <use xlink:href="#meda336bef0" x="274.303158" y="801.712755" style="fill: #0072b2; stroke: #0072b2"/>
     <use xlink:href="#meda336bef0" x="278.003068" y="849.486647" style="fill: #0072b2; stroke: #0072b2"/>
     <use xlink:href="#meda336bef0" x="265.652319" y="829.562659" style="fill: #0072b2; stroke: #0072b2"/>
     <use xlink:href="#meda336bef0" x="266.81905" y="716.518533" style="fill: #0072b2; stroke: #0072b2"/>
     <use xlink:href="#meda336bef0" x="272.740027" y="852.182794" style="fill: #0072b2; stroke: #0072b2"/>
     <use xlink:href="#meda336bef0" x="272.842492" y="870.153703" style="fill: #0072b2; stroke: #0072b2"/>
     <use xlink:href="#meda336bef0" x="268.799894" y="832.644969" style="fill: #0072b2; stroke: #0072b2"/>
     <use xlink:href="#meda336bef0" x="268.961056" y="814.629017" style="fill: #0072b2; stroke: #0072b2"/>
     <use xlink:href="#meda336bef0" x="276.431307" y="853.091493" style="fill: #0072b2; stroke: #0072b2"/>
     <use xlink:href="#meda336bef0" x="266.666438" y="889.945367" style="fill: #0072b2; stroke: #0072b2"/>
     <use xlink:href="#meda336bef0" x="267.118049" y="759.783379" style="fill: #0072b2; stroke: #0072b2"/>
     <use xlink:href="#meda336bef0" x="274.765044" y="857.601966" style="fill: #0072b2; stroke: #0072b2"/>
     <use xlink:href="#meda336bef0" x="275.284164" y="859.831137" style="fill: #0072b2; stroke: #0072b2"/>
     <use xlink:href="#meda336bef0" x="274.231532" y="892.530456" style="fill: #0072b2; stroke: #0072b2"/>
     <use xlink:href="#meda336bef0" x="265.092704" y="837.524646" style="fill: #0072b2; stroke: #0072b2"/>
     <use xlink:href="#meda336bef0" x="268.724944" y="925.281514" style="fill: #0072b2; stroke: #0072b2"/>
     <use xlink:href="#meda336bef0" x="266.591413" y="806.507736" style="fill: #0072b2; stroke: #0072b2"/>
     <use xlink:href="#meda336bef0" x="272.157376" y="879.27276" style="fill: #0072b2; stroke: #0072b2"/>
     <use xlink:href="#meda336bef0" x="275.446825" y="774.502826" style="fill: #0072b2; stroke: #0072b2"/>
     <use xlink:href="#meda336bef0" x="277.023643" y="925.987321" style="fill: #0072b2; stroke: #0072b2"/>
     <use xlink:href="#meda336bef0" x="268.565109" y="847.954876" style="fill: #0072b2; stroke: #0072b2"/>
     <use xlink:href="#meda336bef0" x="265.339026" y="844.055678" style="fill: #0072b2; stroke: #0072b2"/>
     <use xlink:href="#meda336bef0" x="264.545925" y="915.173096" style="fill: #0072b2; stroke: #0072b2"/>
     <use xlink:href="#meda336bef0" x="272.13665" y="848.46295" style="fill: #0072b2; stroke: #0072b2"/>
     <use xlink:href="#meda336bef0" x="272.022454" y="822.436202" style="fill: #0072b2; stroke: #0072b2"/>
     <use xlink:href="#meda336bef0" x="270.714927" y="695.906094" style="fill: #0072b2; stroke: #0072b2"/>
     <use xlink:href="#meda336bef0" x="274.843898" y="837.015935" style="fill: #0072b2; stroke: #0072b2"/>
     <use xlink:href="#meda336bef0" x="277.417341" y="866.422971" style="fill: #0072b2; stroke: #0072b2"/>
     <use xlink:href="#meda336bef0" x="269.680256" y="831.999659" style="fill: #0072b2; stroke: #0072b2"/>
     <use xlink:href="#meda336bef0" x="276.858374" y="879.162748" style="fill: #0072b2; stroke: #0072b2"/>
     <use xlink:href="#meda336bef0" x="266.460154" y="822.01601" style="fill: #0072b2; stroke: #0072b2"/>
     <use xlink:href="#meda336bef0" x="275.198652" y="830.079312" style="fill: #0072b2; stroke: #0072b2"/>
     <use xlink:href="#meda336bef0" x="271.13267" y="851.929098" style="fill: #0072b2; stroke: #0072b2"/>
     <use xlink:href="#meda336bef0" x="278.09447" y="885.338072" style="fill: #0072b2; stroke: #0072b2"/>
    </g>
   </g>
   <g id="PathCollection_7">
    <g clip-path="url(#p412c948686)">
     <use xlink:href="#m9c8636e638" x="408.394781" y="762.279027" style="fill: #009e73; stroke: #009e73"/>
     <use xlink:href="#m9c8636e638" x="417.70653" y="878.036128" style="fill: #009e73; stroke: #009e73"/>
     <use xlink:href="#m9c8636e638" x="411.975176" y="820.738515" style="fill: #009e73; stroke: #009e73"/>
     <use xlink:href="#m9c8636e638" x="406.029564" y="854.605673" style="fill: #009e73; stroke: #009e73"/>
     <use xlink:href="#m9c8636e638" x="408.2817" y="825.891408" style="fill: #009e73; stroke: #009e73"/>
     <use xlink:href="#m9c8636e638" x="414.276218" y="857.652905" style="fill: #009e73; stroke: #009e73"/>
     <use xlink:href="#m9c8636e638" x="406.868456" y="668.28929" style="fill: #009e73; stroke: #009e73"/>
     <use xlink:href="#m9c8636e638" x="404.976155" y="791.859573" style="fill: #009e73; stroke: #009e73"/>
     <use xlink:href="#m9c8636e638" x="408.604485" y="821.817565" style="fill: #009e73; stroke: #009e73"/>
     <use xlink:href="#m9c8636e638" x="413.516965" y="789.05805" style="fill: #009e73; stroke: #009e73"/>
     <use xlink:href="#m9c8636e638" x="406.485233" y="877.526433" style="fill: #009e73; stroke: #009e73"/>
     <use xlink:href="#m9c8636e638" x="407.261799" y="838.756237" style="fill: #009e73; stroke: #009e73"/>
     <use xlink:href="#m9c8636e638" x="407.911278" y="761.373175" style="fill: #009e73; stroke: #009e73"/>
     <use xlink:href="#m9c8636e638" x="404.735274" y="813.539909" style="fill: #009e73; stroke: #009e73"/>
     <use xlink:href="#m9c8636e638" x="405.953726" y="785.759385" style="fill: #009e73; stroke: #009e73"/>
     <use xlink:href="#m9c8636e638" x="411.89484" y="831.656644" style="fill: #009e73; stroke: #009e73"/>
     <use xlink:href="#m9c8636e638" x="411.650068" y="817.312216" style="fill: #009e73; stroke: #009e73"/>
     <use xlink:href="#m9c8636e638" x="415.765093" y="871.904741" style="fill: #009e73; stroke: #009e73"/>
     <use xlink:href="#m9c8636e638" x="412.113149" y="914.912927" style="fill: #009e73; stroke: #009e73"/>
     <use xlink:href="#m9c8636e638" x="417.403696" y="796.961699" style="fill: #009e73; stroke: #009e73"/>
     <use xlink:href="#m9c8636e638" x="408.684847" y="708.071289" style="fill: #009e73; stroke: #009e73"/>
     <use xlink:href="#m9c8636e638" x="415.976023" y="797.282383" style="fill: #009e73; stroke: #009e73"/>
     <use xlink:href="#m9c8636e638" x="408.773059" y="791.990998" style="fill: #009e73; stroke: #009e73"/>
     <use xlink:href="#m9c8636e638" x="405.49834" y="801.598408" style="fill: #009e73; stroke: #009e73"/>
     <use xlink:href="#m9c8636e638" x="412.614734" y="716.347817" style="fill: #009e73; stroke: #009e73"/>
     <use xlink:href="#m9c8636e638" x="415.129135" y="791.332568" style="fill: #009e73; stroke: #009e73"/>
     <use xlink:href="#m9c8636e638" x="412.308183" y="854.728612" style="fill: #009e73; stroke: #009e73"/>
     <use xlink:href="#m9c8636e638" x="414.927824" y="807.032983" style="fill: #009e73; stroke: #009e73"/>
     <use xlink:href="#m9c8636e638" x="415.977035" y="806.64827" style="fill: #009e73; stroke: #009e73"/>
     <use xlink:href="#m9c8636e638" x="408.667527" y="777.703612" style="fill: #009e73; stroke: #009e73"/>
     <use xlink:href="#m9c8636e638" x="411.071882" y="830.030016" style="fill: #009e73; stroke: #009e73"/>
     <use xlink:href="#m9c8636e638" x="410.926225" y="796.763544" style="fill: #009e73; stroke: #009e73"/>
     <use xlink:href="#m9c8636e638" x="408.125178" y="751.733191" style="fill: #009e73; stroke: #009e73"/>
     <use xlink:href="#m9c8636e638" x="405.669343" y="793.791761" style="fill: #009e73; stroke: #009e73"/>
     <use xlink:href="#m9c8636e638" x="403.912782" y="889.562325" style="fill: #009e73; stroke: #009e73"/>
     <use xlink:href="#m9c8636e638" x="415.901575" y="782.380342" style="fill: #009e73; stroke: #009e73"/>
     <use xlink:href="#m9c8636e638" x="410.199541" y="848.381467" style="fill: #009e73; stroke: #009e73"/>
     <use xlink:href="#m9c8636e638" x="416.125536" y="850.443495" style="fill: #009e73; stroke: #009e73"/>
     <use xlink:href="#m9c8636e638" x="408.168555" y="843.494133" style="fill: #009e73; stroke: #009e73"/>
    </g>
   </g>
   <g id="PathCollection_8">
    <g clip-path="url(#p412c948686)">
     <use xlink:href="#m386e0244c4" x="552.614535" y="759.70743" style="fill: #cc79a7; stroke: #cc79a7"/>
     <use xlink:href="#m386e0244c4" x="557.090149" y="773.910933" style="fill: #cc79a7; stroke: #cc79a7"/>
     <use xlink:href="#m386e0244c4" x="555.528544" y="814.155959" style="fill: #cc79a7; stroke: #cc79a7"/>
     <use xlink:href="#m386e0244c4" x="553.429066" y="750.568482" style="fill: #cc79a7; stroke: #cc79a7"/>
     <use xlink:href="#m386e0244c4" x="551.302234" y="741.855222" style="fill: #cc79a7; stroke: #cc79a7"/>
     <use xlink:href="#m386e0244c4" x="554.618267" y="743.897033" style="fill: #cc79a7; stroke: #cc79a7"/>
     <use xlink:href="#m386e0244c4" x="551.492879" y="822.019302" style="fill: #cc79a7; stroke: #cc79a7"/>
     <use xlink:href="#m386e0244c4" x="544.085814" y="829.653744" style="fill: #cc79a7; stroke: #cc79a7"/>
     <use xlink:href="#m386e0244c4" x="544.303071" y="876.750171" style="fill: #cc79a7; stroke: #cc79a7"/>
     <use xlink:href="#m386e0244c4" x="550.379094" y="723.136966" style="fill: #cc79a7; stroke: #cc79a7"/>
     <use xlink:href="#m386e0244c4" x="550.254102" y="600.381818" style="fill: #cc79a7; stroke: #cc79a7"/>
     <use xlink:href="#m386e0244c4" x="549.759211" y="767.397567" style="fill: #cc79a7; stroke: #cc79a7"/>
     <use xlink:href="#m386e0244c4" x="543.57544" y="823.93548" style="fill: #cc79a7; stroke: #cc79a7"/>
     <use xlink:href="#m386e0244c4" x="546.702613" y="832.402843" style="fill: #cc79a7; stroke: #cc79a7"/>
     <use xlink:href="#m386e0244c4" x="550.492932" y="820.394005" style="fill: #cc79a7; stroke: #cc79a7"/>
     <use xlink:href="#m386e0244c4" x="552.928146" y="807.905775" style="fill: #cc79a7; stroke: #cc79a7"/>
     <use xlink:href="#m386e0244c4" x="550.694457" y="736.883077" style="fill: #cc79a7; stroke: #cc79a7"/>
     <use xlink:href="#m386e0244c4" x="552.161734" y="761.992922" style="fill: #cc79a7; stroke: #cc79a7"/>
     <use xlink:href="#m386e0244c4" x="553.511716" y="740.903751" style="fill: #cc79a7; stroke: #cc79a7"/>
     <use xlink:href="#m386e0244c4" x="543.597106" y="793.733239" style="fill: #cc79a7; stroke: #cc79a7"/>
     <use xlink:href="#m386e0244c4" x="555.429506" y="863.669576" style="fill: #cc79a7; stroke: #cc79a7"/>
     <use xlink:href="#m386e0244c4" x="556.588586" y="804.42944" style="fill: #cc79a7; stroke: #cc79a7"/>
     <use xlink:href="#m386e0244c4" x="544.186562" y="695.1726" style="fill: #cc79a7; stroke: #cc79a7"/>
     <use xlink:href="#m386e0244c4" x="554.933946" y="841.377049" style="fill: #cc79a7; stroke: #cc79a7"/>
     <use xlink:href="#m386e0244c4" x="549.406251" y="776.604131" style="fill: #cc79a7; stroke: #cc79a7"/>
     <use xlink:href="#m386e0244c4" x="548.232838" y="767.47964" style="fill: #cc79a7; stroke: #cc79a7"/>
     <use xlink:href="#m386e0244c4" x="545.418184" y="748.491477" style="fill: #cc79a7; stroke: #cc79a7"/>
     <use xlink:href="#m386e0244c4" x="547.813861" y="748.297925" style="fill: #cc79a7; stroke: #cc79a7"/>
     <use xlink:href="#m386e0244c4" x="547.740711" y="803.630507" style="fill: #cc79a7; stroke: #cc79a7"/>
     <use xlink:href="#m386e0244c4" x="546.237009" y="714.091751" style="fill: #cc79a7; stroke: #cc79a7"/>
     <use xlink:href="#m386e0244c4" x="544.223618" y="940.239041" style="fill: #cc79a7; stroke: #cc79a7"/>
     <use xlink:href="#m386e0244c4" x="552.497422" y="762.422175" style="fill: #cc79a7; stroke: #cc79a7"/>
     <use xlink:href="#m386e0244c4" x="546.20858" y="708.01599" style="fill: #cc79a7; stroke: #cc79a7"/>
     <use xlink:href="#m386e0244c4" x="552.035156" y="755.677179" style="fill: #cc79a7; stroke: #cc79a7"/>
     <use xlink:href="#m386e0244c4" x="547.077108" y="744.70553" style="fill: #cc79a7; stroke: #cc79a7"/>
     <use xlink:href="#m386e0244c4" x="556.465848" y="791.882162" style="fill: #cc79a7; stroke: #cc79a7"/>
     <use xlink:href="#m386e0244c4" x="548.730249" y="828.118217" style="fill: #cc79a7; stroke: #cc79a7"/>
     <use xlink:href="#m386e0244c4" x="549.750193" y="688.106378" style="fill: #cc79a7; stroke: #cc79a7"/>
     <use xlink:href="#m386e0244c4" x="552.479549" y="846.473953" style="fill: #cc79a7; stroke: #cc79a7"/>
    </g>
   </g>
   <g id="patch_12">
    <path d="M 149.2875 812.871276 
L 170.2125 812.871276 
L 170.2125 764.059872 
L 149.2875 764.059872 
L 149.2875 812.871276 
z
" clip-path="url(#p412c948686)" style="fill: #d55e00; opacity: 0.5; stroke: #000000; stroke-linejoin: miter"/>
   </g>
   <g id="line2d_42">
    <path d="M 159.75 812.871276 
L 159.75 852.402938 
" clip-path="url(#p412c948686)" style="fill: none; stroke: #000000; stroke-linecap: round"/>
   </g>
   <g id="line2d_43">
    <path d="M 159.75 764.059872 
L 159.75 700.754524 
" clip-path="url(#p412c948686)" style="fill: none; stroke: #000000; stroke-linecap: round"/>
   </g>
   <g id="line2d_44">
    <path d="M 154.51875 852.402938 
L 164.98125 852.402938 
" clip-path="url(#p412c948686)" style="fill: none; stroke: #000000; stroke-linecap: round"/>
   </g>
   <g id="line2d_45">
    <path d="M 154.51875 700.754524 
L 164.98125 700.754524 
" clip-path="url(#p412c948686)" style="fill: none; stroke: #000000; stroke-linecap: round"/>
   </g>
   <g id="patch_13">
    <path d="M 288.7875 868.288337 
L 309.7125 868.288337 
L 309.7125 818.745804 
L 288.7875 818.745804 
L 288.7875 868.288337 
z
" clip-path="url(#p412c948686)" style="fill: #0072b2; opacity: 0.5; stroke: #000000; stroke-linejoin: miter"/>
   </g>
   <g id="line2d_46">
    <path d="M 299.25 868.288337 
L 299.25 925.987321 
" clip-path="url(#p412c948686)" style="fill: none; stroke: #000000; stroke-linecap: round"/>
   </g>
   <g id="line2d_47">
    <path d="M 299.25 818.745804 
L 299.25 759.783379 
" clip-path="url(#p412c948686)" style="fill: none; stroke: #000000; stroke-linecap: round"/>
   </g>
   <g id="line2d_48">
    <path d="M 294.01875 925.987321 
L 304.48125 925.987321 
" clip-path="url(#p412c948686)" style="fill: none; stroke: #000000; stroke-linecap: round"/>
   </g>
   <g id="line2d_49">
    <path d="M 294.01875 759.783379 
L 304.48125 759.783379 
" clip-path="url(#p412c948686)" style="fill: none; stroke: #000000; stroke-linecap: round"/>
   </g>
   <g id="patch_14">
    <path d="M 428.2875 845.9378 
L 449.2125 845.9378 
L 449.2125 790.195309 
L 428.2875 790.195309 
L 428.2875 845.9378 
z
" clip-path="url(#p412c948686)" style="fill: #009e73; opacity: 0.5; stroke: #000000; stroke-linejoin: miter"/>
   </g>
   <g id="line2d_50">
    <path d="M 438.75 845.9378 
L 438.75 914.912927 
" clip-path="url(#p412c948686)" style="fill: none; stroke: #000000; stroke-linecap: round"/>
   </g>
   <g id="line2d_51">
    <path d="M 438.75 790.195309 
L 438.75 708.071289 
" clip-path="url(#p412c948686)" style="fill: none; stroke: #000000; stroke-linecap: round"/>
   </g>
   <g id="line2d_52">
    <path d="M 433.51875 914.912927 
L 443.98125 914.912927 
" clip-path="url(#p412c948686)" style="fill: none; stroke: #000000; stroke-linecap: round"/>
   </g>
   <g id="line2d_53">
    <path d="M 433.51875 708.071289 
L 443.98125 708.071289 
" clip-path="url(#p412c948686)" style="fill: none; stroke: #000000; stroke-linecap: round"/>
   </g>
   <g id="patch_15">
    <path d="M 567.7875 821.206654 
L 588.7125 821.206654 
L 588.7125 744.301282 
L 567.7875 744.301282 
L 567.7875 821.206654 
z
" clip-path="url(#p412c948686)" style="fill: #cc79a7; opacity: 0.5; stroke: #000000; stroke-linejoin: miter"/>
   </g>
   <g id="line2d_54">
    <path d="M 578.25 821.206654 
L 578.25 876.750171 
" clip-path="url(#p412c948686)" style="fill: none; stroke: #000000; stroke-linecap: round"/>
   </g>
   <g id="line2d_55">
    <path d="M 578.25 744.301282 
L 578.25 688.106378 
" clip-path="url(#p412c948686)" style="fill: none; stroke: #000000; stroke-linecap: round"/>
   </g>
   <g id="line2d_56">
    <path d="M 573.01875 876.750171 
L 583.48125 876.750171 
" clip-path="url(#p412c948686)" style="fill: none; stroke: #000000; stroke-linecap: round"/>
   </g>
   <g id="line2d_57">
    <path d="M 573.01875 688.106378 
L 583.48125 688.106378 
" clip-path="url(#p412c948686)" style="fill: none; stroke: #000000; stroke-linecap: round"/>
   </g>
   <g id="line2d_58">
    <path d="M 149.2875 801.25382 
L 170.2125 801.25382 
" clip-path="url(#p412c948686)" style="fill: none; stroke: #000000"/>
   </g>
   <g id="line2d_59">
    <path d="M 288.7875 844.055678 
L 309.7125 844.055678 
" clip-path="url(#p412c948686)" style="fill: none; stroke: #000000"/>
   </g>
   <g id="line2d_60">
    <path d="M 428.2875 807.032983 
L 449.2125 807.032983 
" clip-path="url(#p412c948686)" style="fill: none; stroke: #000000"/>
   </g>
   <g id="line2d_61">
    <path d="M 567.7875 767.47964 
L 588.7125 767.47964 
" clip-path="url(#p412c948686)" style="fill: none; stroke: #000000"/>
   </g>
   <g id="patch_16">
    <path d="M 90 961.2 
L 90 583.2 
" style="fill: none; stroke: #262626; stroke-width: 1.25; stroke-linejoin: miter; stroke-linecap: square"/>
   </g>
   <g id="patch_17">
    <path d="M 648 961.2 
L 648 583.2 
" style="fill: none; stroke: #262626; stroke-width: 1.25; stroke-linejoin: miter; stroke-linecap: square"/>
   </g>
   <g id="patch_18">
    <path d="M 90 961.2 
L 648 961.2 
" style="fill: none; stroke: #262626; stroke-width: 1.25; stroke-linejoin: miter; stroke-linecap: square"/>
   </g>
   <g id="patch_19">
    <path d="M 90 583.2 
L 648 583.2 
" style="fill: none; stroke: #262626; stroke-width: 1.25; stroke-linejoin: miter; stroke-linecap: square"/>
   </g>
   <g id="text_25">
    <!-- HF-HRV -->
    <g style="fill: #262626" transform="translate(342.681094 563.2) scale(0.14 -0.14)">
     <defs>
      <path id="Arial-BoldMT-48" d="M 469 0 
L 469 4581 
L 1394 4581 
L 1394 2778 
L 3206 2778 
L 3206 4581 
L 4131 4581 
L 4131 0 
L 3206 0 
L 3206 2003 
L 1394 2003 
L 1394 0 
L 469 0 
z
" transform="scale(0.015625)"/>
      <path id="Arial-BoldMT-46" d="M 472 0 
L 472 4581 
L 3613 4581 
L 3613 3806 
L 1397 3806 
L 1397 2722 
L 3309 2722 
L 3309 1947 
L 1397 1947 
L 1397 0 
L 472 0 
z
" transform="scale(0.015625)"/>
      <path id="Arial-BoldMT-2d" d="M 359 1222 
L 359 2100 
L 2084 2100 
L 2084 1222 
L 359 1222 
z
" transform="scale(0.015625)"/>
      <path id="Arial-BoldMT-52" d="M 469 0 
L 469 4581 
L 2416 4581 
Q 3150 4581 3483 4457 
Q 3816 4334 4016 4018 
Q 4216 3703 4216 3297 
Q 4216 2781 3912 2445 
Q 3609 2109 3006 2022 
Q 3306 1847 3501 1637 
Q 3697 1428 4028 894 
L 4588 0 
L 3481 0 
L 2813 997 
Q 2456 1531 2325 1670 
Q 2194 1809 2047 1861 
Q 1900 1913 1581 1913 
L 1394 1913 
L 1394 0 
L 469 0 
z
M 1394 2644 
L 2078 2644 
Q 2744 2644 2909 2700 
Q 3075 2756 3169 2893 
Q 3263 3031 3263 3238 
Q 3263 3469 3139 3611 
Q 3016 3753 2791 3791 
Q 2678 3806 2116 3806 
L 1394 3806 
L 1394 2644 
z
" transform="scale(0.015625)"/>
      <path id="Arial-BoldMT-56" d="M 1634 0 
L -3 4581 
L 1000 4581 
L 2159 1191 
L 3281 4581 
L 4263 4581 
L 2622 0 
L 1634 0 
z
" transform="scale(0.015625)"/>
     </defs>
     <use xlink:href="#Arial-BoldMT-48"/>
     <use xlink:href="#Arial-BoldMT-46" x="72.216797"/>
     <use xlink:href="#Arial-BoldMT-2d" x="133.300781"/>
     <use xlink:href="#Arial-BoldMT-48" x="166.601562"/>
     <use xlink:href="#Arial-BoldMT-52" x="238.818359"/>
     <use xlink:href="#Arial-BoldMT-56" x="309.285156"/>
    </g>
   </g>
  </g>
 </g>
 <defs>
  <clipPath id="p3717f6b004">
   <rect x="90" y="129.6" width="558" height="378"/>
  </clipPath>
  <clipPath id="p412c948686">
   <rect x="90" y="583.2" width="558" height="378"/>
  </clipPath>
 </defs>
</svg>
