<?xml version="1.0" encoding="utf-8" standalone="no"?>
<!DOCTYPE svg PUBLIC "-//W3C//DTD SVG 1.1//EN"
  "http://www.w3.org/Graphics/SVG/1.1/DTD/svg11.dtd">
<svg xmlns:xlink="http://www.w3.org/1999/xlink" width="720pt" height="1080pt" viewBox="0 0 720 1080" xmlns="http://www.w3.org/2000/svg" version="1.1">
 <metadata>
  <rdf:RDF xmlns:dc="http://purl.org/dc/elements/1.1/" xmlns:cc="http://creativecommons.org/ns#" xmlns:rdf="http://www.w3.org/1999/02/22-rdf-syntax-ns#">
   <cc:Work>
    <dc:type rdf:resource="http://purl.org/dc/dcmitype/StillImage"/>
    <dc:date>2024-08-30T14:45:02.444214</dc:date>
    <dc:format>image/svg+xml</dc:format>
    <dc:creator>
     <cc:Agent>
      <dc:title>Matplotlib v3.8.0, https://matplotlib.org/</dc:title>
     </cc:Agent>
    </dc:creator>
   </cc:Work>
  </rdf:RDF>
 </metadata>
 <defs>
  <style type="text/css">*{stroke-linejoin: round; stroke-linecap: butt}</style>
 </defs>
 <g id="figure_1">
  <g id="patch_1">
   <path d="M 0 1080 
L 720 1080 
L 720 0 
L 0 0 
z
" style="fill: #ffffff"/>
  </g>
  <g id="axes_1">
   <g id="patch_2">
    <path d="M 90 507.6 
L 648 507.6 
L 648 129.6 
L 90 129.6 
z
" style="fill: #ffffff"/>
   </g>
   <g id="matplotlib.axis_1">
    <g id="xtick_1">
     <g id="line2d_1">
      <defs>
       <path id="mb5087b64c2" d="M 0 0 
L 0 6 
" style="stroke: #262626; stroke-width: 1.25"/>
      </defs>
      <g>
       <use xlink:href="#mb5087b64c2" x="159.75" y="507.6" style="fill: #262626; stroke: #262626; stroke-width: 1.25"/>
      </g>
     </g>
     <g id="text_1">
      <!-- State 1 -->
      <g style="fill: #262626" transform="translate(142.321875 524.973594) scale(0.11 -0.11)">
       <defs>
        <path id="ArialMT-53" d="M 288 1472 
L 859 1522 
Q 900 1178 1048 958 
Q 1197 738 1509 602 
Q 1822 466 2213 466 
Q 2559 466 2825 569 
Q 3091 672 3220 851 
Q 3350 1031 3350 1244 
Q 3350 1459 3225 1620 
Q 3100 1781 2813 1891 
Q 2628 1963 1997 2114 
Q 1366 2266 1113 2400 
Q 784 2572 623 2826 
Q 463 3081 463 3397 
Q 463 3744 659 4045 
Q 856 4347 1234 4503 
Q 1613 4659 2075 4659 
Q 2584 4659 2973 4495 
Q 3363 4331 3572 4012 
Q 3781 3694 3797 3291 
L 3216 3247 
Q 3169 3681 2898 3903 
Q 2628 4125 2100 4125 
Q 1550 4125 1298 3923 
Q 1047 3722 1047 3438 
Q 1047 3191 1225 3031 
Q 1400 2872 2139 2705 
Q 2878 2538 3153 2413 
Q 3553 2228 3743 1945 
Q 3934 1663 3934 1294 
Q 3934 928 3725 604 
Q 3516 281 3123 101 
Q 2731 -78 2241 -78 
Q 1619 -78 1198 103 
Q 778 284 539 648 
Q 300 1013 288 1472 
z
" transform="scale(0.015625)"/>
        <path id="ArialMT-74" d="M 1650 503 
L 1731 6 
Q 1494 -44 1306 -44 
Q 1000 -44 831 53 
Q 663 150 594 308 
Q 525 466 525 972 
L 525 2881 
L 113 2881 
L 113 3319 
L 525 3319 
L 525 4141 
L 1084 4478 
L 1084 3319 
L 1650 3319 
L 1650 2881 
L 1084 2881 
L 1084 941 
Q 1084 700 1114 631 
Q 1144 563 1211 522 
Q 1278 481 1403 481 
Q 1497 481 1650 503 
z
" transform="scale(0.015625)"/>
        <path id="ArialMT-61" d="M 2588 409 
Q 2275 144 1986 34 
Q 1697 -75 1366 -75 
Q 819 -75 525 192 
Q 231 459 231 875 
Q 231 1119 342 1320 
Q 453 1522 633 1644 
Q 813 1766 1038 1828 
Q 1203 1872 1538 1913 
Q 2219 1994 2541 2106 
Q 2544 2222 2544 2253 
Q 2544 2597 2384 2738 
Q 2169 2928 1744 2928 
Q 1347 2928 1158 2789 
Q 969 2650 878 2297 
L 328 2372 
Q 403 2725 575 2942 
Q 747 3159 1072 3276 
Q 1397 3394 1825 3394 
Q 2250 3394 2515 3294 
Q 2781 3194 2906 3042 
Q 3031 2891 3081 2659 
Q 3109 2516 3109 2141 
L 3109 1391 
Q 3109 606 3145 398 
Q 3181 191 3288 0 
L 2700 0 
Q 2613 175 2588 409 
z
M 2541 1666 
Q 2234 1541 1622 1453 
Q 1275 1403 1131 1340 
Q 988 1278 909 1158 
Q 831 1038 831 891 
Q 831 666 1001 516 
Q 1172 366 1500 366 
Q 1825 366 2078 508 
Q 2331 650 2450 897 
Q 2541 1088 2541 1459 
L 2541 1666 
z
" transform="scale(0.015625)"/>
        <path id="ArialMT-65" d="M 2694 1069 
L 3275 997 
Q 3138 488 2766 206 
Q 2394 -75 1816 -75 
Q 1088 -75 661 373 
Q 234 822 234 1631 
Q 234 2469 665 2931 
Q 1097 3394 1784 3394 
Q 2450 3394 2872 2941 
Q 3294 2488 3294 1666 
Q 3294 1616 3291 1516 
L 816 1516 
Q 847 969 1125 678 
Q 1403 388 1819 388 
Q 2128 388 2347 550 
Q 2566 713 2694 1069 
z
M 847 1978 
L 2700 1978 
Q 2663 2397 2488 2606 
Q 2219 2931 1791 2931 
Q 1403 2931 1139 2672 
Q 875 2413 847 1978 
z
" transform="scale(0.015625)"/>
        <path id="ArialMT-20" transform="scale(0.015625)"/>
        <path id="ArialMT-31" d="M 2384 0 
L 1822 0 
L 1822 3584 
Q 1619 3391 1289 3197 
Q 959 3003 697 2906 
L 697 3450 
Q 1169 3672 1522 3987 
Q 1875 4303 2022 4600 
L 2384 4600 
L 2384 0 
z
" transform="scale(0.015625)"/>
       </defs>
       <use xlink:href="#ArialMT-53"/>
       <use xlink:href="#ArialMT-74" x="66.699219"/>
       <use xlink:href="#ArialMT-61" x="94.482422"/>
       <use xlink:href="#ArialMT-74" x="150.097656"/>
       <use xlink:href="#ArialMT-65" x="177.880859"/>
       <use xlink:href="#ArialMT-20" x="233.496094"/>
       <use xlink:href="#ArialMT-31" x="261.279297"/>
      </g>
     </g>
    </g>
    <g id="xtick_2">
     <g id="line2d_2">
      <g>
       <use xlink:href="#mb5087b64c2" x="299.25" y="507.6" style="fill: #262626; stroke: #262626; stroke-width: 1.25"/>
      </g>
     </g>
     <g id="text_2">
      <!-- State 2 -->
      <g style="fill: #262626" transform="translate(281.821875 524.973594) scale(0.11 -0.11)">
       <defs>
        <path id="ArialMT-32" d="M 3222 541 
L 3222 0 
L 194 0 
Q 188 203 259 391 
Q 375 700 629 1000 
Q 884 1300 1366 1694 
Q 2113 2306 2375 2664 
Q 2638 3022 2638 3341 
Q 2638 3675 2398 3904 
Q 2159 4134 1775 4134 
Q 1369 4134 1125 3890 
Q 881 3647 878 3216 
L 300 3275 
Q 359 3922 746 4261 
Q 1134 4600 1788 4600 
Q 2447 4600 2831 4234 
Q 3216 3869 3216 3328 
Q 3216 3053 3103 2787 
Q 2991 2522 2730 2228 
Q 2469 1934 1863 1422 
Q 1356 997 1212 845 
Q 1069 694 975 541 
L 3222 541 
z
" transform="scale(0.015625)"/>
       </defs>
       <use xlink:href="#ArialMT-53"/>
       <use xlink:href="#ArialMT-74" x="66.699219"/>
       <use xlink:href="#ArialMT-61" x="94.482422"/>
       <use xlink:href="#ArialMT-74" x="150.097656"/>
       <use xlink:href="#ArialMT-65" x="177.880859"/>
       <use xlink:href="#ArialMT-20" x="233.496094"/>
       <use xlink:href="#ArialMT-32" x="261.279297"/>
      </g>
     </g>
    </g>
    <g id="xtick_3">
     <g id="line2d_3">
      <g>
       <use xlink:href="#mb5087b64c2" x="438.75" y="507.6" style="fill: #262626; stroke: #262626; stroke-width: 1.25"/>
      </g>
     </g>
     <g id="text_3">
      <!-- State 3 -->
      <g style="fill: #262626" transform="translate(421.321875 524.973594) scale(0.11 -0.11)">
       <defs>
        <path id="ArialMT-33" d="M 269 1209 
L 831 1284 
Q 928 806 1161 595 
Q 1394 384 1728 384 
Q 2125 384 2398 659 
Q 2672 934 2672 1341 
Q 2672 1728 2419 1979 
Q 2166 2231 1775 2231 
Q 1616 2231 1378 2169 
L 1441 2663 
Q 1497 2656 1531 2656 
Q 1891 2656 2178 2843 
Q 2466 3031 2466 3422 
Q 2466 3731 2256 3934 
Q 2047 4138 1716 4138 
Q 1388 4138 1169 3931 
Q 950 3725 888 3313 
L 325 3413 
Q 428 3978 793 4289 
Q 1159 4600 1703 4600 
Q 2078 4600 2393 4439 
Q 2709 4278 2876 4000 
Q 3044 3722 3044 3409 
Q 3044 3113 2884 2869 
Q 2725 2625 2413 2481 
Q 2819 2388 3044 2092 
Q 3269 1797 3269 1353 
Q 3269 753 2831 336 
Q 2394 -81 1725 -81 
Q 1122 -81 723 278 
Q 325 638 269 1209 
z
" transform="scale(0.015625)"/>
       </defs>
       <use xlink:href="#ArialMT-53"/>
       <use xlink:href="#ArialMT-74" x="66.699219"/>
       <use xlink:href="#ArialMT-61" x="94.482422"/>
       <use xlink:href="#ArialMT-74" x="150.097656"/>
       <use xlink:href="#ArialMT-65" x="177.880859"/>
       <use xlink:href="#ArialMT-20" x="233.496094"/>
       <use xlink:href="#ArialMT-33" x="261.279297"/>
      </g>
     </g>
    </g>
    <g id="xtick_4">
     <g id="line2d_4">
      <g>
       <use xlink:href="#mb5087b64c2" x="578.25" y="507.6" style="fill: #262626; stroke: #262626; stroke-width: 1.25"/>
      </g>
     </g>
     <g id="text_4">
      <!-- State 4 -->
      <g style="fill: #262626" transform="translate(560.821875 524.973594) scale(0.11 -0.11)">
       <defs>
        <path id="ArialMT-34" d="M 2069 0 
L 2069 1097 
L 81 1097 
L 81 1613 
L 2172 4581 
L 2631 4581 
L 2631 1613 
L 3250 1613 
L 3250 1097 
L 2631 1097 
L 2631 0 
L 2069 0 
z
M 2069 1613 
L 2069 3678 
L 634 1613 
L 2069 1613 
z
" transform="scale(0.015625)"/>
       </defs>
       <use xlink:href="#ArialMT-53"/>
       <use xlink:href="#ArialMT-74" x="66.699219"/>
       <use xlink:href="#ArialMT-61" x="94.482422"/>
       <use xlink:href="#ArialMT-74" x="150.097656"/>
       <use xlink:href="#ArialMT-65" x="177.880859"/>
       <use xlink:href="#ArialMT-20" x="233.496094"/>
       <use xlink:href="#ArialMT-34" x="261.279297"/>
      </g>
     </g>
    </g>
   </g>
   <g id="matplotlib.axis_2">
    <g id="ytick_1">
     <g id="line2d_5">
      <defs>
       <path id="m55b5e6be47" d="M 0 0 
L -6 0 
" style="stroke: #262626; stroke-width: 1.25"/>
      </defs>
      <g>
       <use xlink:href="#m55b5e6be47" x="90" y="469.8" style="fill: #262626; stroke: #262626; stroke-width: 1.25"/>
      </g>
     </g>
     <g id="text_5">
      <!-- −2 -->
      <g style="fill: #262626" transform="translate(67.958281 473.736797) scale(0.11 -0.11)">
       <defs>
        <path id="ArialMT-2212" d="M 3381 1997 
L 356 1997 
L 356 2522 
L 3381 2522 
L 3381 1997 
z
" transform="scale(0.015625)"/>
       </defs>
       <use xlink:href="#ArialMT-2212"/>
       <use xlink:href="#ArialMT-32" x="58.398438"/>
      </g>
     </g>
    </g>
    <g id="ytick_2">
     <g id="line2d_6">
      <g>
       <use xlink:href="#m55b5e6be47" x="90" y="394.2" style="fill: #262626; stroke: #262626; stroke-width: 1.25"/>
      </g>
     </g>
     <g id="text_6">
      <!-- −1 -->
      <g style="fill: #262626" transform="translate(67.958281 398.136797) scale(0.11 -0.11)">
       <use xlink:href="#ArialMT-2212"/>
       <use xlink:href="#ArialMT-31" x="58.398438"/>
      </g>
     </g>
    </g>
    <g id="ytick_3">
     <g id="line2d_7">
      <g>
       <use xlink:href="#m55b5e6be47" x="90" y="318.6" style="fill: #262626; stroke: #262626; stroke-width: 1.25"/>
      </g>
     </g>
     <g id="text_7">
      <!-- 0 -->
      <g style="fill: #262626" transform="translate(74.382969 322.536797) scale(0.11 -0.11)">
       <defs>
        <path id="ArialMT-30" d="M 266 2259 
Q 266 3072 433 3567 
Q 600 4063 929 4331 
Q 1259 4600 1759 4600 
Q 2128 4600 2406 4451 
Q 2684 4303 2865 4023 
Q 3047 3744 3150 3342 
Q 3253 2941 3253 2259 
Q 3253 1453 3087 958 
Q 2922 463 2592 192 
Q 2263 -78 1759 -78 
Q 1097 -78 719 397 
Q 266 969 266 2259 
z
M 844 2259 
Q 844 1131 1108 757 
Q 1372 384 1759 384 
Q 2147 384 2411 759 
Q 2675 1134 2675 2259 
Q 2675 3391 2411 3762 
Q 2147 4134 1753 4134 
Q 1366 4134 1134 3806 
Q 844 3388 844 2259 
z
" transform="scale(0.015625)"/>
       </defs>
       <use xlink:href="#ArialMT-30"/>
      </g>
     </g>
    </g>
    <g id="ytick_4">
     <g id="line2d_8">
      <g>
       <use xlink:href="#m55b5e6be47" x="90" y="243" style="fill: #262626; stroke: #262626; stroke-width: 1.25"/>
      </g>
     </g>
     <g id="text_8">
      <!-- 1 -->
      <g style="fill: #262626" transform="translate(74.382969 246.936797) scale(0.11 -0.11)">
       <use xlink:href="#ArialMT-31"/>
      </g>
     </g>
    </g>
    <g id="ytick_5">
     <g id="line2d_9">
      <g>
       <use xlink:href="#m55b5e6be47" x="90" y="167.4" style="fill: #262626; stroke: #262626; stroke-width: 1.25"/>
      </g>
     </g>
     <g id="text_9">
      <!-- 2 -->
      <g style="fill: #262626" transform="translate(74.382969 171.336797) scale(0.11 -0.11)">
       <use xlink:href="#ArialMT-32"/>
      </g>
     </g>
    </g>
    <g id="text_10">
     <!-- Value (z-scored) -->
     <g style="fill: #262626" transform="translate(61.432656 362.170313) rotate(-90) scale(0.12 -0.12)">
      <defs>
       <path id="ArialMT-56" d="M 1803 0 
L 28 4581 
L 684 4581 
L 1875 1253 
Q 2019 853 2116 503 
Q 2222 878 2363 1253 
L 3600 4581 
L 4219 4581 
L 2425 0 
L 1803 0 
z
" transform="scale(0.015625)"/>
       <path id="ArialMT-6c" d="M 409 0 
L 409 4581 
L 972 4581 
L 972 0 
L 409 0 
z
" transform="scale(0.015625)"/>
       <path id="ArialMT-75" d="M 2597 0 
L 2597 488 
Q 2209 -75 1544 -75 
Q 1250 -75 995 37 
Q 741 150 617 320 
Q 494 491 444 738 
Q 409 903 409 1263 
L 409 3319 
L 972 3319 
L 972 1478 
Q 972 1038 1006 884 
Q 1059 663 1231 536 
Q 1403 409 1656 409 
Q 1909 409 2131 539 
Q 2353 669 2445 892 
Q 2538 1116 2538 1541 
L 2538 3319 
L 3100 3319 
L 3100 0 
L 2597 0 
z
" transform="scale(0.015625)"/>
       <path id="ArialMT-28" d="M 1497 -1347 
Q 1031 -759 709 28 
Q 388 816 388 1659 
Q 388 2403 628 3084 
Q 909 3875 1497 4659 
L 1900 4659 
Q 1522 4009 1400 3731 
Q 1209 3300 1100 2831 
Q 966 2247 966 1656 
Q 966 153 1900 -1347 
L 1497 -1347 
z
" transform="scale(0.015625)"/>
       <path id="ArialMT-7a" d="M 125 0 
L 125 456 
L 2238 2881 
Q 1878 2863 1603 2863 
L 250 2863 
L 250 3319 
L 2963 3319 
L 2963 2947 
L 1166 841 
L 819 456 
Q 1197 484 1528 484 
L 3063 484 
L 3063 0 
L 125 0 
z
" transform="scale(0.015625)"/>
       <path id="ArialMT-2d" d="M 203 1375 
L 203 1941 
L 1931 1941 
L 1931 1375 
L 203 1375 
z
" transform="scale(0.015625)"/>
       <path id="ArialMT-73" d="M 197 991 
L 753 1078 
Q 800 744 1014 566 
Q 1228 388 1613 388 
Q 2000 388 2187 545 
Q 2375 703 2375 916 
Q 2375 1106 2209 1216 
Q 2094 1291 1634 1406 
Q 1016 1563 777 1677 
Q 538 1791 414 1992 
Q 291 2194 291 2438 
Q 291 2659 392 2848 
Q 494 3038 669 3163 
Q 800 3259 1026 3326 
Q 1253 3394 1513 3394 
Q 1903 3394 2198 3281 
Q 2494 3169 2634 2976 
Q 2775 2784 2828 2463 
L 2278 2388 
Q 2241 2644 2061 2787 
Q 1881 2931 1553 2931 
Q 1166 2931 1000 2803 
Q 834 2675 834 2503 
Q 834 2394 903 2306 
Q 972 2216 1119 2156 
Q 1203 2125 1616 2013 
Q 2213 1853 2448 1751 
Q 2684 1650 2818 1456 
Q 2953 1263 2953 975 
Q 2953 694 2789 445 
Q 2625 197 2315 61 
Q 2006 -75 1616 -75 
Q 969 -75 630 194 
Q 291 463 197 991 
z
" transform="scale(0.015625)"/>
       <path id="ArialMT-63" d="M 2588 1216 
L 3141 1144 
Q 3050 572 2676 248 
Q 2303 -75 1759 -75 
Q 1078 -75 664 370 
Q 250 816 250 1647 
Q 250 2184 428 2587 
Q 606 2991 970 3192 
Q 1334 3394 1763 3394 
Q 2303 3394 2647 3120 
Q 2991 2847 3088 2344 
L 2541 2259 
Q 2463 2594 2264 2762 
Q 2066 2931 1784 2931 
Q 1359 2931 1093 2626 
Q 828 2322 828 1663 
Q 828 994 1084 691 
Q 1341 388 1753 388 
Q 2084 388 2306 591 
Q 2528 794 2588 1216 
z
" transform="scale(0.015625)"/>
       <path id="ArialMT-6f" d="M 213 1659 
Q 213 2581 725 3025 
Q 1153 3394 1769 3394 
Q 2453 3394 2887 2945 
Q 3322 2497 3322 1706 
Q 3322 1066 3130 698 
Q 2938 331 2570 128 
Q 2203 -75 1769 -75 
Q 1072 -75 642 372 
Q 213 819 213 1659 
z
M 791 1659 
Q 791 1022 1069 705 
Q 1347 388 1769 388 
Q 2188 388 2466 706 
Q 2744 1025 2744 1678 
Q 2744 2294 2464 2611 
Q 2184 2928 1769 2928 
Q 1347 2928 1069 2612 
Q 791 2297 791 1659 
z
" transform="scale(0.015625)"/>
       <path id="ArialMT-72" d="M 416 0 
L 416 3319 
L 922 3319 
L 922 2816 
Q 1116 3169 1280 3281 
Q 1444 3394 1641 3394 
Q 1925 3394 2219 3213 
L 2025 2691 
Q 1819 2813 1613 2813 
Q 1428 2813 1281 2702 
Q 1134 2591 1072 2394 
Q 978 2094 978 1738 
L 978 0 
L 416 0 
z
" transform="scale(0.015625)"/>
       <path id="ArialMT-64" d="M 2575 0 
L 2575 419 
Q 2259 -75 1647 -75 
Q 1250 -75 917 144 
Q 584 363 401 755 
Q 219 1147 219 1656 
Q 219 2153 384 2558 
Q 550 2963 881 3178 
Q 1213 3394 1622 3394 
Q 1922 3394 2156 3267 
Q 2391 3141 2538 2938 
L 2538 4581 
L 3097 4581 
L 3097 0 
L 2575 0 
z
M 797 1656 
Q 797 1019 1065 703 
Q 1334 388 1700 388 
Q 2069 388 2326 689 
Q 2584 991 2584 1609 
Q 2584 2291 2321 2609 
Q 2059 2928 1675 2928 
Q 1300 2928 1048 2622 
Q 797 2316 797 1656 
z
" transform="scale(0.015625)"/>
       <path id="ArialMT-29" d="M 791 -1347 
L 388 -1347 
Q 1322 153 1322 1656 
Q 1322 2244 1188 2822 
Q 1081 3291 891 3722 
Q 769 4003 388 4659 
L 791 4659 
Q 1378 3875 1659 3084 
Q 1900 2403 1900 1659 
Q 1900 816 1576 28 
Q 1253 -759 791 -1347 
z
" transform="scale(0.015625)"/>
      </defs>
      <use xlink:href="#ArialMT-56"/>
      <use xlink:href="#ArialMT-61" x="59.324219"/>
      <use xlink:href="#ArialMT-6c" x="114.939453"/>
      <use xlink:href="#ArialMT-75" x="137.15625"/>
      <use xlink:href="#ArialMT-65" x="192.771484"/>
      <use xlink:href="#ArialMT-20" x="248.386719"/>
      <use xlink:href="#ArialMT-28" x="276.169922"/>
      <use xlink:href="#ArialMT-7a" x="309.470703"/>
      <use xlink:href="#ArialMT-2d" x="359.470703"/>
      <use xlink:href="#ArialMT-73" x="392.771484"/>
      <use xlink:href="#ArialMT-63" x="442.771484"/>
      <use xlink:href="#ArialMT-6f" x="492.771484"/>
      <use xlink:href="#ArialMT-72" x="548.386719"/>
      <use xlink:href="#ArialMT-65" x="581.6875"/>
      <use xlink:href="#ArialMT-64" x="637.302734"/>
      <use xlink:href="#ArialMT-29" x="692.917969"/>
     </g>
    </g>
   </g>
   <g id="PolyCollection_1">
    <defs>
     <path id="mf4afe51171" d="M 169.140916 -741.290435 
L 160.025964 -741.290435 
L 160.025964 -742.969313 
L 160.025964 -744.648191 
L 160.025964 -746.327069 
L 160.025964 -748.005947 
L 160.025964 -749.684826 
L 160.025964 -751.363704 
L 160.025964 -753.042582 
L 160.025964 -754.72146 
L 160.025964 -756.400339 
L 160.025964 -758.079217 
L 160.025964 -759.758095 
L 160.025964 -761.436973 
L 160.025964 -763.115851 
L 160.025964 -764.79473 
L 160.025964 -766.473608 
L 160.025964 -768.152486 
L 160.025964 -769.831364 
L 160.025964 -771.510242 
L 160.025964 -773.189121 
L 160.025964 -774.867999 
L 160.025964 -776.546877 
L 160.025964 -778.225755 
L 160.025964 -779.904634 
L 160.025964 -781.583512 
L 160.025964 -783.26239 
L 160.025964 -784.941268 
L 160.025964 -786.620146 
L 160.025964 -788.299025 
L 160.025964 -789.977903 
L 160.025964 -791.656781 
L 160.025964 -793.335659 
L 160.025964 -795.014538 
L 160.025964 -796.693416 
L 160.025964 -798.372294 
L 160.025964 -800.051172 
L 160.025964 -801.73005 
L 160.025964 -803.408929 
L 160.025964 -805.087807 
L 163.321232 -805.087807 
L 163.321232 -805.087807 
L 163.911265 -803.408929 
L 164.551133 -801.73005 
L 165.265667 -800.051172 
L 166.079362 -798.372294 
L 167.006008 -796.693416 
L 168.039422 -795.014538 
L 169.149081 -793.335659 
L 170.283439 -791.656781 
L 171.381421 -789.977903 
L 172.38965 -788.299025 
L 173.280556 -786.620146 
L 174.065607 -784.941268 
L 174.799061 -783.26239 
L 175.570385 -781.583512 
L 176.48678 -779.904634 
L 177.649899 -778.225755 
L 179.132022 -776.546877 
L 180.956642 -774.867999 
L 183.087134 -773.189121 
L 185.425527 -771.510242 
L 187.821908 -769.831364 
L 190.093533 -768.152486 
L 192.0511 -766.473608 
L 193.527699 -764.79473 
L 194.404259 -763.115851 
L 194.625 -761.436973 
L 194.198521 -759.758095 
L 193.184581 -758.079217 
L 191.67186 -756.400339 
L 189.755282 -754.72146 
L 187.520965 -753.042582 
L 185.042626 -751.363704 
L 182.387438 -749.684826 
L 179.625252 -748.005947 
L 176.834527 -746.327069 
L 174.10128 -744.648191 
L 171.511535 -742.969313 
L 169.140916 -741.290435 
z
" style="stroke: #d55e00; stroke-opacity: 0.3"/>
    </defs>
    <g clip-path="url(#p48c6ea40ab)">
     <use xlink:href="#mf4afe51171" x="0" y="1080" style="fill: #d55e00; fill-opacity: 0.3; stroke: #d55e00; stroke-opacity: 0.3"/>
    </g>
   </g>
   <g id="PolyCollection_2">
    <defs>
     <path id="m8bf1fbfcd6" d="M 302.951243 -689.25366 
L 299.382435 -689.25366 
L 299.382435 -691.815875 
L 299.382435 -694.37809 
L 299.382435 -696.940306 
L 299.382435 -699.502521 
L 299.382435 -702.064736 
L 299.382435 -704.626951 
L 299.382435 -707.189167 
L 299.382435 -709.751382 
L 299.382435 -712.313597 
L 299.382435 -714.875813 
L 299.382435 -717.438028 
L 299.382435 -720.000243 
L 299.382435 -722.562458 
L 299.382435 -725.124674 
L 299.382435 -727.686889 
L 299.382435 -730.249104 
L 299.382435 -732.81132 
L 299.382435 -735.373535 
L 299.382435 -737.93575 
L 299.382435 -740.497965 
L 299.382435 -743.060181 
L 299.382435 -745.622396 
L 299.382435 -748.184611 
L 299.382435 -750.746826 
L 299.382435 -753.309042 
L 299.382435 -755.871257 
L 299.382435 -758.433472 
L 299.382435 -760.995688 
L 299.382435 -763.557903 
L 299.382435 -766.120118 
L 299.382435 -768.682333 
L 299.382435 -771.244549 
L 299.382435 -773.806764 
L 299.382435 -776.368979 
L 299.382435 -778.931195 
L 299.382435 -781.49341 
L 299.382435 -784.055625 
L 299.382435 -786.61784 
L 302.574743 -786.61784 
L 302.574743 -786.61784 
L 303.372012 -784.055625 
L 304.3794 -781.49341 
L 305.693507 -778.931195 
L 307.416569 -776.368979 
L 309.631182 -773.806764 
L 312.372272 -771.244549 
L 315.603019 -768.682333 
L 319.200853 -766.120118 
L 322.957686 -763.557903 
L 326.596369 -760.995688 
L 329.803145 -758.433472 
L 332.272945 -755.871257 
L 333.760369 -753.309042 
L 334.125 -750.746826 
L 333.358241 -748.184611 
L 331.582582 -745.622396 
L 329.022748 -743.060181 
L 325.957913 -740.497965 
L 322.670105 -737.93575 
L 319.403188 -735.373535 
L 316.340494 -732.81132 
L 313.601043 -730.249104 
L 311.248323 -727.686889 
L 309.303689 -725.124674 
L 307.758173 -722.562458 
L 306.580168 -720.000243 
L 305.720071 -717.438028 
L 305.114985 -714.875813 
L 304.696164 -712.313597 
L 304.399356 -709.751382 
L 304.174912 -707.189167 
L 303.992872 -704.626951 
L 303.839703 -702.064736 
L 303.707742 -699.502521 
L 303.582998 -696.940306 
L 303.438673 -694.37809 
L 303.238896 -691.815875 
L 302.951243 -689.25366 
z
" style="stroke: #0072b2; stroke-opacity: 0.3"/>
    </defs>
    <g clip-path="url(#p48c6ea40ab)">
     <use xlink:href="#m8bf1fbfcd6" x="0" y="1080" style="fill: #0072b2; fill-opacity: 0.3; stroke: #0072b2; stroke-opacity: 0.3"/>
    </g>
   </g>
   <g id="PolyCollection_3">
    <defs>
     <path id="m96da34d9f9" d="M 442.222499 -722.615712 
L 438.901347 -722.615712 
L 438.901347 -724.660781 
L 438.901347 -726.705849 
L 438.901347 -728.750918 
L 438.901347 -730.795986 
L 438.901347 -732.841055 
L 438.901347 -734.886123 
L 438.901347 -736.931192 
L 438.901347 -738.97626 
L 438.901347 -741.021329 
L 438.901347 -743.066397 
L 438.901347 -745.111466 
L 438.901347 -747.156534 
L 438.901347 -749.201603 
L 438.901347 -751.246671 
L 438.901347 -753.29174 
L 438.901347 -755.336808 
L 438.901347 -757.381877 
L 438.901347 -759.426945 
L 438.901347 -761.472013 
L 438.901347 -763.517082 
L 438.901347 -765.56215 
L 438.901347 -767.607219 
L 438.901347 -769.652287 
L 438.901347 -771.697356 
L 438.901347 -773.742424 
L 438.901347 -775.787493 
L 438.901347 -777.832561 
L 438.901347 -779.87763 
L 438.901347 -781.922698 
L 438.901347 -783.967767 
L 438.901347 -786.012835 
L 438.901347 -788.057904 
L 438.901347 -790.102972 
L 438.901347 -792.148041 
L 438.901347 -794.193109 
L 438.901347 -796.238178 
L 438.901347 -798.283246 
L 438.901347 -800.328315 
L 444.064118 -800.328315 
L 444.064118 -800.328315 
L 444.842994 -798.283246 
L 445.59399 -796.238178 
L 446.350585 -794.193109 
L 447.179745 -792.148041 
L 448.181271 -790.102972 
L 449.480615 -788.057904 
L 451.210685 -786.012835 
L 453.479704 -783.967767 
L 456.328013 -781.922698 
L 459.684977 -779.87763 
L 463.343363 -777.832561 
L 466.967937 -775.787493 
L 470.145529 -773.742424 
L 472.468052 -771.697356 
L 473.625 -769.652287 
L 473.475263 -767.607219 
L 472.074112 -765.56215 
L 469.647728 -763.517082 
L 466.527364 -761.472013 
L 463.068775 -759.426945 
L 459.584279 -757.381877 
L 456.304946 -755.336808 
L 453.375121 -753.29174 
L 450.8687 -751.246671 
L 448.811756 -749.201603 
L 447.199667 -747.156534 
L 446.004885 -745.111466 
L 445.178623 -743.066397 
L 444.652522 -741.021329 
L 444.344513 -738.97626 
L 444.168966 -736.931192 
L 444.047873 -734.886123 
L 443.919075 -732.841055 
L 443.739469 -730.795986 
L 443.483905 -728.750918 
L 443.14228 -726.705849 
L 442.71715 -724.660781 
L 442.222499 -722.615712 
z
" style="stroke: #009e73; stroke-opacity: 0.3"/>
    </defs>
    <g clip-path="url(#p48c6ea40ab)">
     <use xlink:href="#m96da34d9f9" x="0" y="1080" style="fill: #009e73; fill-opacity: 0.3; stroke: #009e73; stroke-opacity: 0.3"/>
    </g>
   </g>
   <g id="PolyCollection_4">
    <defs>
     <path id="m13be318f7d" d="M 581.136481 -710.778724 
L 578.353811 -710.778724 
L 578.353811 -713.51988 
L 578.353811 -716.261036 
L 578.353811 -719.002192 
L 578.353811 -721.743348 
L 578.353811 -724.484504 
L 578.353811 -727.22566 
L 578.353811 -729.966816 
L 578.353811 -732.707972 
L 578.353811 -735.449128 
L 578.353811 -738.190284 
L 578.353811 -740.93144 
L 578.353811 -743.672596 
L 578.353811 -746.413752 
L 578.353811 -749.154908 
L 578.353811 -751.896064 
L 578.353811 -754.63722 
L 578.353811 -757.378376 
L 578.353811 -760.119532 
L 578.353811 -762.860688 
L 578.353811 -765.601844 
L 578.353811 -768.343 
L 578.353811 -771.084156 
L 578.353811 -773.825312 
L 578.353811 -776.566468 
L 578.353811 -779.307624 
L 578.353811 -782.04878 
L 578.353811 -784.789936 
L 578.353811 -787.531092 
L 578.353811 -790.272248 
L 578.353811 -793.013404 
L 578.353811 -795.75456 
L 578.353811 -798.495716 
L 578.353811 -801.236872 
L 578.353811 -803.978028 
L 578.353811 -806.719184 
L 578.353811 -809.46034 
L 578.353811 -812.201496 
L 578.353811 -814.942652 
L 580.885732 -814.942652 
L 580.885732 -814.942652 
L 581.355339 -812.201496 
L 582.049627 -809.46034 
L 583.155472 -806.719184 
L 584.861783 -803.978028 
L 587.302773 -801.236872 
L 590.503464 -798.495716 
L 594.344054 -795.75456 
L 598.55696 -793.013404 
L 602.764302 -790.272248 
L 606.553648 -787.531092 
L 609.57621 -784.789936 
L 611.638444 -782.04878 
L 612.753043 -779.307624 
L 613.125 -776.566468 
L 613.071423 -773.825312 
L 612.900656 -771.084156 
L 612.794336 -768.343 
L 612.737375 -765.601844 
L 612.524373 -762.860688 
L 611.842213 -760.119532 
L 610.397847 -757.378376 
L 608.040992 -754.63722 
L 604.833686 -751.896064 
L 601.04253 -749.154908 
L 597.062421 -746.413752 
L 593.305751 -743.672596 
L 590.098202 -740.93144 
L 587.612916 -738.190284 
L 585.857179 -735.449128 
L 584.707522 -732.707972 
L 583.974699 -729.966816 
L 583.472336 -727.22566 
L 583.064768 -724.484504 
L 582.681192 -721.743348 
L 582.299858 -719.002192 
L 581.9192 -716.261036 
L 581.535324 -713.51988 
L 581.136481 -710.778724 
z
" style="stroke: #cc79a7; stroke-opacity: 0.3"/>
    </defs>
    <g clip-path="url(#p48c6ea40ab)">
     <use xlink:href="#m13be318f7d" x="0" y="1080" style="fill: #cc79a7; fill-opacity: 0.3; stroke: #cc79a7; stroke-opacity: 0.3"/>
    </g>
   </g>
   <g id="PathCollection_1">
    <defs>
     <path id="mfe87ae89fe" d="M 0 0.866025 
C 0.229673 0.866025 0.449969 0.774776 0.612372 0.612372 
C 0.774776 0.449969 0.866025 0.229673 0.866025 0 
C 0.866025 -0.229673 0.774776 -0.449969 0.612372 -0.612372 
C 0.449969 -0.774776 0.229673 -0.866025 0 -0.866025 
C -0.229673 -0.866025 -0.449969 -0.774776 -0.612372 -0.612372 
C -0.774776 -0.449969 -0.866025 -0.229673 -0.866025 0 
C -0.866025 0.229673 -0.774776 0.449969 -0.612372 0.612372 
C -0.449969 0.774776 -0.229673 0.866025 0 0.866025 
z
" style="stroke: #d55e00"/>
    </defs>
    <g clip-path="url(#p48c6ea40ab)">
     <use xlink:href="#mfe87ae89fe" x="130.376041" y="317.92951" style="fill: #d55e00; stroke: #d55e00"/>
     <use xlink:href="#mfe87ae89fe" x="128.776021" y="310.575931" style="fill: #d55e00; stroke: #d55e00"/>
     <use xlink:href="#mfe87ae89fe" x="137.047372" y="312.734475" style="fill: #d55e00; stroke: #d55e00"/>
     <use xlink:href="#mfe87ae89fe" x="137.807527" y="338.709565" style="fill: #d55e00; stroke: #d55e00"/>
     <use xlink:href="#mfe87ae89fe" x="126.055361" y="322.515182" style="fill: #d55e00; stroke: #d55e00"/>
     <use xlink:href="#mfe87ae89fe" x="134.606853" y="300.223556" style="fill: #d55e00; stroke: #d55e00"/>
     <use xlink:href="#mfe87ae89fe" x="132.053621" y="318.041487" style="fill: #d55e00; stroke: #d55e00"/>
     <use xlink:href="#mfe87ae89fe" x="128.923682" y="329.425237" style="fill: #d55e00; stroke: #d55e00"/>
     <use xlink:href="#mfe87ae89fe" x="137.357148" y="316.593123" style="fill: #d55e00; stroke: #d55e00"/>
     <use xlink:href="#mfe87ae89fe" x="134.250674" y="307.027979" style="fill: #d55e00; stroke: #d55e00"/>
     <use xlink:href="#mfe87ae89fe" x="136.110823" y="319.486357" style="fill: #d55e00; stroke: #d55e00"/>
     <use xlink:href="#mfe87ae89fe" x="126.826197" y="327.821876" style="fill: #d55e00; stroke: #d55e00"/>
     <use xlink:href="#mfe87ae89fe" x="125.399272" y="324.528003" style="fill: #d55e00; stroke: #d55e00"/>
     <use xlink:href="#mfe87ae89fe" x="126.177126" y="274.912193" style="fill: #d55e00; stroke: #d55e00"/>
     <use xlink:href="#mfe87ae89fe" x="128.648363" y="294.117124" style="fill: #d55e00; stroke: #d55e00"/>
     <use xlink:href="#mfe87ae89fe" x="131.702566" y="331.648877" style="fill: #d55e00; stroke: #d55e00"/>
     <use xlink:href="#mfe87ae89fe" x="125.278102" y="312.659399" style="fill: #d55e00; stroke: #d55e00"/>
     <use xlink:href="#mfe87ae89fe" x="138.266308" y="289.056197" style="fill: #d55e00; stroke: #d55e00"/>
     <use xlink:href="#mfe87ae89fe" x="135.874218" y="303.410463" style="fill: #d55e00; stroke: #d55e00"/>
     <use xlink:href="#mfe87ae89fe" x="130.365679" y="290.943783" style="fill: #d55e00; stroke: #d55e00"/>
     <use xlink:href="#mfe87ae89fe" x="136.562305" y="293.446633" style="fill: #d55e00; stroke: #d55e00"/>
     <use xlink:href="#mfe87ae89fe" x="127.92735" y="317.545844" style="fill: #d55e00; stroke: #d55e00"/>
     <use xlink:href="#mfe87ae89fe" x="127.846972" y="328.203774" style="fill: #d55e00; stroke: #d55e00"/>
     <use xlink:href="#mfe87ae89fe" x="137.233693" y="325.918608" style="fill: #d55e00; stroke: #d55e00"/>
     <use xlink:href="#mfe87ae89fe" x="125.105161" y="294.819936" style="fill: #d55e00; stroke: #d55e00"/>
     <use xlink:href="#mfe87ae89fe" x="130.113203" y="318.077971" style="fill: #d55e00; stroke: #d55e00"/>
     <use xlink:href="#mfe87ae89fe" x="131.443914" y="334.826384" style="fill: #d55e00; stroke: #d55e00"/>
     <use xlink:href="#mfe87ae89fe" x="127.385155" y="322.584168" style="fill: #d55e00; stroke: #d55e00"/>
     <use xlink:href="#mfe87ae89fe" x="128.495706" y="329.088012" style="fill: #d55e00; stroke: #d55e00"/>
     <use xlink:href="#mfe87ae89fe" x="124.970715" y="315.586089" style="fill: #d55e00; stroke: #d55e00"/>
     <use xlink:href="#mfe87ae89fe" x="134.180146" y="318.383689" style="fill: #d55e00; stroke: #d55e00"/>
     <use xlink:href="#mfe87ae89fe" x="138.590735" y="316.727191" style="fill: #d55e00; stroke: #d55e00"/>
     <use xlink:href="#mfe87ae89fe" x="135.342559" y="329.244668" style="fill: #d55e00; stroke: #d55e00"/>
     <use xlink:href="#mfe87ae89fe" x="138.394393" y="309.840487" style="fill: #d55e00; stroke: #d55e00"/>
     <use xlink:href="#mfe87ae89fe" x="134.127786" y="310.33902" style="fill: #d55e00; stroke: #d55e00"/>
     <use xlink:href="#mfe87ae89fe" x="133.479674" y="318.417312" style="fill: #d55e00; stroke: #d55e00"/>
     <use xlink:href="#mfe87ae89fe" x="135.109566" y="300.10025" style="fill: #d55e00; stroke: #d55e00"/>
     <use xlink:href="#mfe87ae89fe" x="136.270271" y="308.675272" style="fill: #d55e00; stroke: #d55e00"/>
     <use xlink:href="#mfe87ae89fe" x="129.00226" y="282.083768" style="fill: #d55e00; stroke: #d55e00"/>
    </g>
   </g>
   <g id="PathCollection_2">
    <defs>
     <path id="m6edf18ff3a" d="M 0 0.866025 
C 0.229673 0.866025 0.449969 0.774776 0.612372 0.612372 
C 0.774776 0.449969 0.866025 0.229673 0.866025 0 
C 0.866025 -0.229673 0.774776 -0.449969 0.612372 -0.612372 
C 0.449969 -0.774776 0.229673 -0.866025 0 -0.866025 
C -0.229673 -0.866025 -0.449969 -0.774776 -0.612372 -0.612372 
C -0.774776 -0.449969 -0.866025 -0.229673 -0.866025 0 
C -0.866025 0.229673 -0.774776 0.449969 -0.612372 0.612372 
C -0.449969 0.774776 -0.229673 0.866025 0 0.866025 
z
" style="stroke: #0072b2"/>
    </defs>
    <g clip-path="url(#p48c6ea40ab)">
     <use xlink:href="#m6edf18ff3a" x="271.11749" y="351.59016" style="fill: #0072b2; stroke: #0072b2"/>
     <use xlink:href="#m6edf18ff3a" x="274.292106" y="332.381557" style="fill: #0072b2; stroke: #0072b2"/>
     <use xlink:href="#m6edf18ff3a" x="268.238711" y="320.22368" style="fill: #0072b2; stroke: #0072b2"/>
     <use xlink:href="#m6edf18ff3a" x="264.677935" y="318.227214" style="fill: #0072b2; stroke: #0072b2"/>
     <use xlink:href="#m6edf18ff3a" x="265.707435" y="315.852658" style="fill: #0072b2; stroke: #0072b2"/>
     <use xlink:href="#m6edf18ff3a" x="270.299123" y="320.013323" style="fill: #0072b2; stroke: #0072b2"/>
     <use xlink:href="#m6edf18ff3a" x="272.75559" y="327.448114" style="fill: #0072b2; stroke: #0072b2"/>
     <use xlink:href="#m6edf18ff3a" x="267.675367" y="316.770556" style="fill: #0072b2; stroke: #0072b2"/>
     <use xlink:href="#m6edf18ff3a" x="266.096727" y="293.38216" style="fill: #0072b2; stroke: #0072b2"/>
     <use xlink:href="#m6edf18ff3a" x="276.24495" y="344.529138" style="fill: #0072b2; stroke: #0072b2"/>
     <use xlink:href="#m6edf18ff3a" x="269.815011" y="335.282363" style="fill: #0072b2; stroke: #0072b2"/>
     <use xlink:href="#m6edf18ff3a" x="273.521484" y="328.184682" style="fill: #0072b2; stroke: #0072b2"/>
     <use xlink:href="#m6edf18ff3a" x="267.954479" y="316.265051" style="fill: #0072b2; stroke: #0072b2"/>
     <use xlink:href="#m6edf18ff3a" x="266.970957" y="344.300834" style="fill: #0072b2; stroke: #0072b2"/>
     <use xlink:href="#m6edf18ff3a" x="272.03772" y="371.349894" style="fill: #0072b2; stroke: #0072b2"/>
     <use xlink:href="#m6edf18ff3a" x="274.043325" y="323.38989" style="fill: #0072b2; stroke: #0072b2"/>
     <use xlink:href="#m6edf18ff3a" x="274.764593" y="328.142304" style="fill: #0072b2; stroke: #0072b2"/>
     <use xlink:href="#m6edf18ff3a" x="267.27231" y="328.452985" style="fill: #0072b2; stroke: #0072b2"/>
     <use xlink:href="#m6edf18ff3a" x="273.379671" y="360.655959" style="fill: #0072b2; stroke: #0072b2"/>
     <use xlink:href="#m6edf18ff3a" x="271.659854" y="335.852946" style="fill: #0072b2; stroke: #0072b2"/>
     <use xlink:href="#m6edf18ff3a" x="265.821882" y="373.817853" style="fill: #0072b2; stroke: #0072b2"/>
     <use xlink:href="#m6edf18ff3a" x="268.941727" y="325.432505" style="fill: #0072b2; stroke: #0072b2"/>
     <use xlink:href="#m6edf18ff3a" x="269.82457" y="336.557974" style="fill: #0072b2; stroke: #0072b2"/>
     <use xlink:href="#m6edf18ff3a" x="271.251316" y="325.360202" style="fill: #0072b2; stroke: #0072b2"/>
     <use xlink:href="#m6edf18ff3a" x="265.990029" y="389.526393" style="fill: #0072b2; stroke: #0072b2"/>
     <use xlink:href="#m6edf18ff3a" x="271.468182" y="336.202065" style="fill: #0072b2; stroke: #0072b2"/>
     <use xlink:href="#m6edf18ff3a" x="270.600307" y="328.967379" style="fill: #0072b2; stroke: #0072b2"/>
     <use xlink:href="#m6edf18ff3a" x="267.506383" y="390.74634" style="fill: #0072b2; stroke: #0072b2"/>
     <use xlink:href="#m6edf18ff3a" x="269.28847" y="302.909663" style="fill: #0072b2; stroke: #0072b2"/>
     <use xlink:href="#m6edf18ff3a" x="275.111359" y="312.434025" style="fill: #0072b2; stroke: #0072b2"/>
     <use xlink:href="#m6edf18ff3a" x="271.537008" y="329.308889" style="fill: #0072b2; stroke: #0072b2"/>
     <use xlink:href="#m6edf18ff3a" x="275.450227" y="337.025319" style="fill: #0072b2; stroke: #0072b2"/>
     <use xlink:href="#m6edf18ff3a" x="268.871032" y="325.276169" style="fill: #0072b2; stroke: #0072b2"/>
     <use xlink:href="#m6edf18ff3a" x="274.60718" y="343.061897" style="fill: #0072b2; stroke: #0072b2"/>
     <use xlink:href="#m6edf18ff3a" x="265.32415" y="341.15252" style="fill: #0072b2; stroke: #0072b2"/>
     <use xlink:href="#m6edf18ff3a" x="269.800873" y="329.705736" style="fill: #0072b2; stroke: #0072b2"/>
     <use xlink:href="#m6edf18ff3a" x="271.760873" y="352.315768" style="fill: #0072b2; stroke: #0072b2"/>
     <use xlink:href="#m6edf18ff3a" x="266.546983" y="330.600469" style="fill: #0072b2; stroke: #0072b2"/>
     <use xlink:href="#m6edf18ff3a" x="270.284695" y="328.183581" style="fill: #0072b2; stroke: #0072b2"/>
    </g>
   </g>
   <g id="PathCollection_3">
    <defs>
     <path id="m41ecf56609" d="M 0 0.866025 
C 0.229673 0.866025 0.449969 0.774776 0.612372 0.612372 
C 0.774776 0.449969 0.866025 0.229673 0.866025 0 
C 0.866025 -0.229673 0.774776 -0.449969 0.612372 -0.612372 
C 0.449969 -0.774776 0.229673 -0.866025 0 -0.866025 
C -0.229673 -0.866025 -0.449969 -0.774776 -0.612372 -0.612372 
C -0.774776 -0.449969 -0.866025 -0.229673 -0.866025 0 
C -0.866025 0.229673 -0.774776 0.449969 -0.612372 0.612372 
C -0.449969 0.774776 -0.229673 0.866025 0 0.866025 
z
" style="stroke: #009e73"/>
    </defs>
    <g clip-path="url(#p48c6ea40ab)">
     <use xlink:href="#m41ecf56609" x="410.887521" y="294.950971" style="fill: #009e73; stroke: #009e73"/>
     <use xlink:href="#m41ecf56609" x="412.490174" y="312.893313" style="fill: #009e73; stroke: #009e73"/>
     <use xlink:href="#m41ecf56609" x="409.443345" y="310.62017" style="fill: #009e73; stroke: #009e73"/>
     <use xlink:href="#m41ecf56609" x="405.053669" y="324.818091" style="fill: #009e73; stroke: #009e73"/>
     <use xlink:href="#m41ecf56609" x="416.938132" y="306.424758" style="fill: #009e73; stroke: #009e73"/>
     <use xlink:href="#m41ecf56609" x="405.364367" y="341.850125" style="fill: #009e73; stroke: #009e73"/>
     <use xlink:href="#m41ecf56609" x="411.899518" y="288.287417" style="fill: #009e73; stroke: #009e73"/>
     <use xlink:href="#m41ecf56609" x="410.998524" y="308.353396" style="fill: #009e73; stroke: #009e73"/>
     <use xlink:href="#m41ecf56609" x="410.647976" y="316.138586" style="fill: #009e73; stroke: #009e73"/>
     <use xlink:href="#m41ecf56609" x="404.790371" y="304.959013" style="fill: #009e73; stroke: #009e73"/>
     <use xlink:href="#m41ecf56609" x="406.95114" y="332.375674" style="fill: #009e73; stroke: #009e73"/>
     <use xlink:href="#m41ecf56609" x="411.452558" y="324.008712" style="fill: #009e73; stroke: #009e73"/>
     <use xlink:href="#m41ecf56609" x="407.414159" y="312.519508" style="fill: #009e73; stroke: #009e73"/>
     <use xlink:href="#m41ecf56609" x="412.254395" y="315.691097" style="fill: #009e73; stroke: #009e73"/>
     <use xlink:href="#m41ecf56609" x="415.611024" y="295.56528" style="fill: #009e73; stroke: #009e73"/>
     <use xlink:href="#m41ecf56609" x="405.862973" y="314.682751" style="fill: #009e73; stroke: #009e73"/>
     <use xlink:href="#m41ecf56609" x="407.021071" y="307.091399" style="fill: #009e73; stroke: #009e73"/>
     <use xlink:href="#m41ecf56609" x="416.148532" y="351.78316" style="fill: #009e73; stroke: #009e73"/>
     <use xlink:href="#m41ecf56609" x="412.122117" y="344.626393" style="fill: #009e73; stroke: #009e73"/>
     <use xlink:href="#m41ecf56609" x="409.990498" y="309.589111" style="fill: #009e73; stroke: #009e73"/>
     <use xlink:href="#m41ecf56609" x="405.094028" y="280.104507" style="fill: #009e73; stroke: #009e73"/>
     <use xlink:href="#m41ecf56609" x="414.643994" y="302.008366" style="fill: #009e73; stroke: #009e73"/>
     <use xlink:href="#m41ecf56609" x="405.025509" y="309.943043" style="fill: #009e73; stroke: #009e73"/>
     <use xlink:href="#m41ecf56609" x="413.868559" y="309.675423" style="fill: #009e73; stroke: #009e73"/>
     <use xlink:href="#m41ecf56609" x="411.514061" y="279.671685" style="fill: #009e73; stroke: #009e73"/>
     <use xlink:href="#m41ecf56609" x="409.013387" y="323.990509" style="fill: #009e73; stroke: #009e73"/>
     <use xlink:href="#m41ecf56609" x="406.217824" y="308.762978" style="fill: #009e73; stroke: #009e73"/>
     <use xlink:href="#m41ecf56609" x="412.83012" y="309.053244" style="fill: #009e73; stroke: #009e73"/>
     <use xlink:href="#m41ecf56609" x="415.166792" y="315.192747" style="fill: #009e73; stroke: #009e73"/>
     <use xlink:href="#m41ecf56609" x="404.902576" y="319.544471" style="fill: #009e73; stroke: #009e73"/>
     <use xlink:href="#m41ecf56609" x="408.449104" y="315.189459" style="fill: #009e73; stroke: #009e73"/>
     <use xlink:href="#m41ecf56609" x="412.794957" y="310.036649" style="fill: #009e73; stroke: #009e73"/>
     <use xlink:href="#m41ecf56609" x="412.144925" y="311.025955" style="fill: #009e73; stroke: #009e73"/>
     <use xlink:href="#m41ecf56609" x="416.870979" y="304.396114" style="fill: #009e73; stroke: #009e73"/>
     <use xlink:href="#m41ecf56609" x="404.354937" y="314.528234" style="fill: #009e73; stroke: #009e73"/>
     <use xlink:href="#m41ecf56609" x="408.758941" y="307.402621" style="fill: #009e73; stroke: #009e73"/>
     <use xlink:href="#m41ecf56609" x="412.210767" y="289.2836" style="fill: #009e73; stroke: #009e73"/>
     <use xlink:href="#m41ecf56609" x="406.266531" y="325.916809" style="fill: #009e73; stroke: #009e73"/>
     <use xlink:href="#m41ecf56609" x="408.607005" y="357.384288" style="fill: #009e73; stroke: #009e73"/>
    </g>
   </g>
   <g id="PathCollection_4">
    <defs>
     <path id="mbeecb0cb40" d="M 0 0.866025 
C 0.229673 0.866025 0.449969 0.774776 0.612372 0.612372 
C 0.774776 0.449969 0.866025 0.229673 0.866025 0 
C 0.866025 -0.229673 0.774776 -0.449969 0.612372 -0.612372 
C 0.449969 -0.774776 0.229673 -0.866025 0 -0.866025 
C -0.229673 -0.866025 -0.449969 -0.774776 -0.612372 -0.612372 
C -0.774776 -0.449969 -0.866025 -0.229673 -0.866025 0 
C -0.866025 0.229673 -0.774776 0.449969 -0.612372 0.612372 
C -0.449969 0.774776 -0.229673 0.866025 0 0.866025 
z
" style="stroke: #cc79a7"/>
    </defs>
    <g clip-path="url(#p48c6ea40ab)">
     <use xlink:href="#mbeecb0cb40" x="546.442381" y="299.600188" style="fill: #cc79a7; stroke: #cc79a7"/>
     <use xlink:href="#mbeecb0cb40" x="554.403031" y="320.601354" style="fill: #cc79a7; stroke: #cc79a7"/>
     <use xlink:href="#mbeecb0cb40" x="545.079516" y="333.444899" style="fill: #cc79a7; stroke: #cc79a7"/>
     <use xlink:href="#mbeecb0cb40" x="545.773188" y="296.22866" style="fill: #cc79a7; stroke: #cc79a7"/>
     <use xlink:href="#mbeecb0cb40" x="552.405677" y="325.665525" style="fill: #cc79a7; stroke: #cc79a7"/>
     <use xlink:href="#mbeecb0cb40" x="544.955233" y="298.215292" style="fill: #cc79a7; stroke: #cc79a7"/>
     <use xlink:href="#mbeecb0cb40" x="545.655011" y="321.228101" style="fill: #cc79a7; stroke: #cc79a7"/>
     <use xlink:href="#mbeecb0cb40" x="550.640718" y="324.803057" style="fill: #cc79a7; stroke: #cc79a7"/>
     <use xlink:href="#mbeecb0cb40" x="554.86743" y="354.185086" style="fill: #cc79a7; stroke: #cc79a7"/>
     <use xlink:href="#mbeecb0cb40" x="555.398663" y="301.443512" style="fill: #cc79a7; stroke: #cc79a7"/>
     <use xlink:href="#mbeecb0cb40" x="549.592985" y="265.057348" style="fill: #cc79a7; stroke: #cc79a7"/>
     <use xlink:href="#mbeecb0cb40" x="544.988638" y="302.140335" style="fill: #cc79a7; stroke: #cc79a7"/>
     <use xlink:href="#mbeecb0cb40" x="552.641175" y="320.69468" style="fill: #cc79a7; stroke: #cc79a7"/>
     <use xlink:href="#mbeecb0cb40" x="556.268415" y="320.014494" style="fill: #cc79a7; stroke: #cc79a7"/>
     <use xlink:href="#mbeecb0cb40" x="545.064865" y="310.018524" style="fill: #cc79a7; stroke: #cc79a7"/>
     <use xlink:href="#mbeecb0cb40" x="545.986105" y="309.850066" style="fill: #cc79a7; stroke: #cc79a7"/>
     <use xlink:href="#mbeecb0cb40" x="543.969809" y="330.484786" style="fill: #cc79a7; stroke: #cc79a7"/>
     <use xlink:href="#mbeecb0cb40" x="545.267821" y="311.37315" style="fill: #cc79a7; stroke: #cc79a7"/>
     <use xlink:href="#mbeecb0cb40" x="548.268591" y="293.750531" style="fill: #cc79a7; stroke: #cc79a7"/>
     <use xlink:href="#mbeecb0cb40" x="554.460282" y="320.902901" style="fill: #cc79a7; stroke: #cc79a7"/>
     <use xlink:href="#mbeecb0cb40" x="552.400892" y="331.942879" style="fill: #cc79a7; stroke: #cc79a7"/>
     <use xlink:href="#mbeecb0cb40" x="548.079513" y="321.917644" style="fill: #cc79a7; stroke: #cc79a7"/>
     <use xlink:href="#mbeecb0cb40" x="554.622599" y="285.147653" style="fill: #cc79a7; stroke: #cc79a7"/>
     <use xlink:href="#mbeecb0cb40" x="553.487222" y="302.824732" style="fill: #cc79a7; stroke: #cc79a7"/>
     <use xlink:href="#mbeecb0cb40" x="547.434193" y="287.518086" style="fill: #cc79a7; stroke: #cc79a7"/>
     <use xlink:href="#mbeecb0cb40" x="551.430154" y="294.624066" style="fill: #cc79a7; stroke: #cc79a7"/>
     <use xlink:href="#mbeecb0cb40" x="552.480914" y="310.29125" style="fill: #cc79a7; stroke: #cc79a7"/>
     <use xlink:href="#mbeecb0cb40" x="554.053" y="289.280382" style="fill: #cc79a7; stroke: #cc79a7"/>
     <use xlink:href="#mbeecb0cb40" x="555.086919" y="321.851843" style="fill: #cc79a7; stroke: #cc79a7"/>
     <use xlink:href="#mbeecb0cb40" x="552.394318" y="369.221276" style="fill: #cc79a7; stroke: #cc79a7"/>
     <use xlink:href="#mbeecb0cb40" x="543.471067" y="326.939779" style="fill: #cc79a7; stroke: #cc79a7"/>
     <use xlink:href="#mbeecb0cb40" x="556.805198" y="292.54943" style="fill: #cc79a7; stroke: #cc79a7"/>
     <use xlink:href="#mbeecb0cb40" x="552.718576" y="296.2087" style="fill: #cc79a7; stroke: #cc79a7"/>
     <use xlink:href="#mbeecb0cb40" x="548.368046" y="312.050397" style="fill: #cc79a7; stroke: #cc79a7"/>
     <use xlink:href="#mbeecb0cb40" x="550.447398" y="298.448242" style="fill: #cc79a7; stroke: #cc79a7"/>
     <use xlink:href="#mbeecb0cb40" x="544.941611" y="306.275569" style="fill: #cc79a7; stroke: #cc79a7"/>
     <use xlink:href="#mbeecb0cb40" x="552.471488" y="349.044068" style="fill: #cc79a7; stroke: #cc79a7"/>
     <use xlink:href="#mbeecb0cb40" x="549.683321" y="297.314581" style="fill: #cc79a7; stroke: #cc79a7"/>
     <use xlink:href="#mbeecb0cb40" x="555.384559" y="319.670182" style="fill: #cc79a7; stroke: #cc79a7"/>
    </g>
   </g>
   <g id="patch_3">
    <path d="M 149.2875 323.556085 
L 170.2125 323.556085 
L 170.2125 305.219221 
L 149.2875 305.219221 
L 149.2875 323.556085 
z
" clip-path="url(#p48c6ea40ab)" style="fill: #d55e00; opacity: 0.5; stroke: #000000; stroke-linejoin: miter"/>
   </g>
   <g id="line2d_10">
    <path d="M 159.75 323.556085 
L 159.75 338.709565 
" clip-path="url(#p48c6ea40ab)" style="fill: none; stroke: #000000; stroke-linecap: round"/>
   </g>
   <g id="line2d_11">
    <path d="M 159.75 305.219221 
L 159.75 282.083768 
" clip-path="url(#p48c6ea40ab)" style="fill: none; stroke: #000000; stroke-linecap: round"/>
   </g>
   <g id="line2d_12">
    <path d="M 154.51875 338.709565 
L 164.98125 338.709565 
" clip-path="url(#p48c6ea40ab)" style="fill: none; stroke: #000000; stroke-linecap: round"/>
   </g>
   <g id="line2d_13">
    <path d="M 154.51875 282.083768 
L 164.98125 282.083768 
" clip-path="url(#p48c6ea40ab)" style="fill: none; stroke: #000000; stroke-linecap: round"/>
   </g>
   <g id="patch_4">
    <path d="M 288.7875 342.107209 
L 309.7125 342.107209 
L 309.7125 324.333029 
L 288.7875 324.333029 
L 288.7875 342.107209 
z
" clip-path="url(#p48c6ea40ab)" style="fill: #0072b2; opacity: 0.5; stroke: #000000; stroke-linejoin: miter"/>
   </g>
   <g id="line2d_14">
    <path d="M 299.25 342.107209 
L 299.25 360.655959 
" clip-path="url(#p48c6ea40ab)" style="fill: none; stroke: #000000; stroke-linecap: round"/>
   </g>
   <g id="line2d_15">
    <path d="M 299.25 324.333029 
L 299.25 302.909663 
" clip-path="url(#p48c6ea40ab)" style="fill: none; stroke: #000000; stroke-linecap: round"/>
   </g>
   <g id="line2d_16">
    <path d="M 294.01875 360.655959 
L 304.48125 360.655959 
" clip-path="url(#p48c6ea40ab)" style="fill: none; stroke: #000000; stroke-linecap: round"/>
   </g>
   <g id="line2d_17">
    <path d="M 294.01875 302.909663 
L 304.48125 302.909663 
" clip-path="url(#p48c6ea40ab)" style="fill: none; stroke: #000000; stroke-linecap: round"/>
   </g>
   <g id="patch_5">
    <path d="M 428.2875 317.841529 
L 449.2125 317.841529 
L 449.2125 306.758079 
L 428.2875 306.758079 
L 428.2875 317.841529 
z
" clip-path="url(#p48c6ea40ab)" style="fill: #009e73; opacity: 0.5; stroke: #000000; stroke-linejoin: miter"/>
   </g>
   <g id="line2d_18">
    <path d="M 438.75 317.841529 
L 438.75 332.375674 
" clip-path="url(#p48c6ea40ab)" style="fill: none; stroke: #000000; stroke-linecap: round"/>
   </g>
   <g id="line2d_19">
    <path d="M 438.75 306.758079 
L 438.75 294.950971 
" clip-path="url(#p48c6ea40ab)" style="fill: none; stroke: #000000; stroke-linecap: round"/>
   </g>
   <g id="line2d_20">
    <path d="M 433.51875 332.375674 
L 443.98125 332.375674 
" clip-path="url(#p48c6ea40ab)" style="fill: none; stroke: #000000; stroke-linecap: round"/>
   </g>
   <g id="line2d_21">
    <path d="M 433.51875 294.950971 
L 443.98125 294.950971 
" clip-path="url(#p48c6ea40ab)" style="fill: none; stroke: #000000; stroke-linecap: round"/>
   </g>
   <g id="patch_6">
    <path d="M 567.7875 321.884744 
L 588.7125 321.884744 
L 588.7125 297.764936 
L 567.7875 297.764936 
L 567.7875 321.884744 
z
" clip-path="url(#p48c6ea40ab)" style="fill: #cc79a7; opacity: 0.5; stroke: #000000; stroke-linejoin: miter"/>
   </g>
   <g id="line2d_22">
    <path d="M 578.25 321.884744 
L 578.25 354.185086 
" clip-path="url(#p48c6ea40ab)" style="fill: none; stroke: #000000; stroke-linecap: round"/>
   </g>
   <g id="line2d_23">
    <path d="M 578.25 297.764936 
L 578.25 265.057348 
" clip-path="url(#p48c6ea40ab)" style="fill: none; stroke: #000000; stroke-linecap: round"/>
   </g>
   <g id="line2d_24">
    <path d="M 573.01875 354.185086 
L 583.48125 354.185086 
" clip-path="url(#p48c6ea40ab)" style="fill: none; stroke: #000000; stroke-linecap: round"/>
   </g>
   <g id="line2d_25">
    <path d="M 573.01875 265.057348 
L 583.48125 265.057348 
" clip-path="url(#p48c6ea40ab)" style="fill: none; stroke: #000000; stroke-linecap: round"/>
   </g>
   <g id="line2d_26">
    <path d="M 149.2875 316.727191 
L 170.2125 316.727191 
" clip-path="url(#p48c6ea40ab)" style="fill: none; stroke: #000000"/>
   </g>
   <g id="line2d_27">
    <path d="M 288.7875 329.308889 
L 309.7125 329.308889 
" clip-path="url(#p48c6ea40ab)" style="fill: none; stroke: #000000"/>
   </g>
   <g id="line2d_28">
    <path d="M 428.2875 310.62017 
L 449.2125 310.62017 
" clip-path="url(#p48c6ea40ab)" style="fill: none; stroke: #000000"/>
   </g>
   <g id="line2d_29">
    <path d="M 567.7875 310.29125 
L 588.7125 310.29125 
" clip-path="url(#p48c6ea40ab)" style="fill: none; stroke: #000000"/>
   </g>
   <g id="patch_7">
    <path d="M 90 507.6 
L 90 129.6 
" style="fill: none; stroke: #262626; stroke-width: 1.25; stroke-linejoin: miter; stroke-linecap: square"/>
   </g>
   <g id="patch_8">
    <path d="M 648 507.6 
L 648 129.6 
" style="fill: none; stroke: #262626; stroke-width: 1.25; stroke-linejoin: miter; stroke-linecap: square"/>
   </g>
   <g id="patch_9">
    <path d="M 90 507.6 
L 648 507.6 
" style="fill: none; stroke: #262626; stroke-width: 1.25; stroke-linejoin: miter; stroke-linecap: square"/>
   </g>
   <g id="patch_10">
    <path d="M 90 129.6 
L 648 129.6 
" style="fill: none; stroke: #262626; stroke-width: 1.25; stroke-linejoin: miter; stroke-linecap: square"/>
   </g>
   <g id="text_11">
    <!-- IBI -->
    <g style="fill: #262626" transform="translate(360.055313 109.6) scale(0.14 -0.14)">
     <defs>
      <path id="Arial-BoldMT-49" d="M 438 0 
L 438 4581 
L 1363 4581 
L 1363 0 
L 438 0 
z
" transform="scale(0.015625)"/>
      <path id="Arial-BoldMT-42" d="M 469 4581 
L 2300 4581 
Q 2844 4581 3111 4536 
Q 3378 4491 3589 4347 
Q 3800 4203 3940 3964 
Q 4081 3725 4081 3428 
Q 4081 3106 3907 2837 
Q 3734 2569 3438 2434 
Q 3856 2313 4081 2019 
Q 4306 1725 4306 1328 
Q 4306 1016 4161 720 
Q 4016 425 3764 248 
Q 3513 72 3144 31 
Q 2913 6 2028 0 
L 469 0 
L 469 4581 
z
M 1394 3819 
L 1394 2759 
L 2000 2759 
Q 2541 2759 2672 2775 
Q 2909 2803 3045 2939 
Q 3181 3075 3181 3297 
Q 3181 3509 3064 3642 
Q 2947 3775 2716 3803 
Q 2578 3819 1925 3819 
L 1394 3819 
z
M 1394 1997 
L 1394 772 
L 2250 772 
Q 2750 772 2884 800 
Q 3091 838 3220 983 
Q 3350 1128 3350 1372 
Q 3350 1578 3250 1722 
Q 3150 1866 2961 1931 
Q 2772 1997 2141 1997 
L 1394 1997 
z
" transform="scale(0.015625)"/>
     </defs>
     <use xlink:href="#Arial-BoldMT-49"/>
     <use xlink:href="#Arial-BoldMT-42" x="27.783203"/>
     <use xlink:href="#Arial-BoldMT-49" x="100"/>
    </g>
   </g>
  </g>
  <g id="axes_2">
   <g id="patch_11">
    <path d="M 90 961.2 
L 648 961.2 
L 648 583.2 
L 90 583.2 
z
" style="fill: #ffffff"/>
   </g>
   <g id="matplotlib.axis_3">
    <g id="xtick_5">
     <g id="line2d_30">
      <g>
       <use xlink:href="#mb5087b64c2" x="159.75" y="961.2" style="fill: #262626; stroke: #262626; stroke-width: 1.25"/>
      </g>
     </g>
     <g id="text_12">
      <!-- State 1 -->
      <g style="fill: #262626" transform="translate(142.321875 978.573594) scale(0.11 -0.11)">
       <use xlink:href="#ArialMT-53"/>
       <use xlink:href="#ArialMT-74" x="66.699219"/>
       <use xlink:href="#ArialMT-61" x="94.482422"/>
       <use xlink:href="#ArialMT-74" x="150.097656"/>
       <use xlink:href="#ArialMT-65" x="177.880859"/>
       <use xlink:href="#ArialMT-20" x="233.496094"/>
       <use xlink:href="#ArialMT-31" x="261.279297"/>
      </g>
     </g>
    </g>
    <g id="xtick_6">
     <g id="line2d_31">
      <g>
       <use xlink:href="#mb5087b64c2" x="299.25" y="961.2" style="fill: #262626; stroke: #262626; stroke-width: 1.25"/>
      </g>
     </g>
     <g id="text_13">
      <!-- State 2 -->
      <g style="fill: #262626" transform="translate(281.821875 978.573594) scale(0.11 -0.11)">
       <use xlink:href="#ArialMT-53"/>
       <use xlink:href="#ArialMT-74" x="66.699219"/>
       <use xlink:href="#ArialMT-61" x="94.482422"/>
       <use xlink:href="#ArialMT-74" x="150.097656"/>
       <use xlink:href="#ArialMT-65" x="177.880859"/>
       <use xlink:href="#ArialMT-20" x="233.496094"/>
       <use xlink:href="#ArialMT-32" x="261.279297"/>
      </g>
     </g>
    </g>
    <g id="xtick_7">
     <g id="line2d_32">
      <g>
       <use xlink:href="#mb5087b64c2" x="438.75" y="961.2" style="fill: #262626; stroke: #262626; stroke-width: 1.25"/>
      </g>
     </g>
     <g id="text_14">
      <!-- State 3 -->
      <g style="fill: #262626" transform="translate(421.321875 978.573594) scale(0.11 -0.11)">
       <use xlink:href="#ArialMT-53"/>
       <use xlink:href="#ArialMT-74" x="66.699219"/>
       <use xlink:href="#ArialMT-61" x="94.482422"/>
       <use xlink:href="#ArialMT-74" x="150.097656"/>
       <use xlink:href="#ArialMT-65" x="177.880859"/>
       <use xlink:href="#ArialMT-20" x="233.496094"/>
       <use xlink:href="#ArialMT-33" x="261.279297"/>
      </g>
     </g>
    </g>
    <g id="xtick_8">
     <g id="line2d_33">
      <g>
       <use xlink:href="#mb5087b64c2" x="578.25" y="961.2" style="fill: #262626; stroke: #262626; stroke-width: 1.25"/>
      </g>
     </g>
     <g id="text_15">
      <!-- State 4 -->
      <g style="fill: #262626" transform="translate(560.821875 978.573594) scale(0.11 -0.11)">
       <use xlink:href="#ArialMT-53"/>
       <use xlink:href="#ArialMT-74" x="66.699219"/>
       <use xlink:href="#ArialMT-61" x="94.482422"/>
       <use xlink:href="#ArialMT-74" x="150.097656"/>
       <use xlink:href="#ArialMT-65" x="177.880859"/>
       <use xlink:href="#ArialMT-20" x="233.496094"/>
       <use xlink:href="#ArialMT-34" x="261.279297"/>
      </g>
     </g>
    </g>
   </g>
   <g id="matplotlib.axis_4">
    <g id="ytick_6">
     <g id="line2d_34">
      <g>
       <use xlink:href="#m55b5e6be47" x="90" y="923.4" style="fill: #262626; stroke: #262626; stroke-width: 1.25"/>
      </g>
     </g>
     <g id="text_16">
      <!-- −2 -->
      <g style="fill: #262626" transform="translate(67.958281 927.336797) scale(0.11 -0.11)">
       <use xlink:href="#ArialMT-2212"/>
       <use xlink:href="#ArialMT-32" x="58.398438"/>
      </g>
     </g>
    </g>
    <g id="ytick_7">
     <g id="line2d_35">
      <g>
       <use xlink:href="#m55b5e6be47" x="90" y="847.8" style="fill: #262626; stroke: #262626; stroke-width: 1.25"/>
      </g>
     </g>
     <g id="text_17">
      <!-- −1 -->
      <g style="fill: #262626" transform="translate(67.958281 851.736797) scale(0.11 -0.11)">
       <use xlink:href="#ArialMT-2212"/>
       <use xlink:href="#ArialMT-31" x="58.398438"/>
      </g>
     </g>
    </g>
    <g id="ytick_8">
     <g id="line2d_36">
      <g>
       <use xlink:href="#m55b5e6be47" x="90" y="772.2" style="fill: #262626; stroke: #262626; stroke-width: 1.25"/>
      </g>
     </g>
     <g id="text_18">
      <!-- 0 -->
      <g style="fill: #262626" transform="translate(74.382969 776.136797) scale(0.11 -0.11)">
       <use xlink:href="#ArialMT-30"/>
      </g>
     </g>
    </g>
    <g id="ytick_9">
     <g id="line2d_37">
      <g>
       <use xlink:href="#m55b5e6be47" x="90" y="696.6" style="fill: #262626; stroke: #262626; stroke-width: 1.25"/>
      </g>
     </g>
     <g id="text_19">
      <!-- 1 -->
      <g style="fill: #262626" transform="translate(74.382969 700.536797) scale(0.11 -0.11)">
       <use xlink:href="#ArialMT-31"/>
      </g>
     </g>
    </g>
    <g id="ytick_10">
     <g id="line2d_38">
      <g>
       <use xlink:href="#m55b5e6be47" x="90" y="621" style="fill: #262626; stroke: #262626; stroke-width: 1.25"/>
      </g>
     </g>
     <g id="text_20">
      <!-- 2 -->
      <g style="fill: #262626" transform="translate(74.382969 624.936797) scale(0.11 -0.11)">
       <use xlink:href="#ArialMT-32"/>
      </g>
     </g>
    </g>
    <g id="text_21">
     <!-- Value (z-scored) -->
     <g style="fill: #262626" transform="translate(61.432656 815.770313) rotate(-90) scale(0.12 -0.12)">
      <use xlink:href="#ArialMT-56"/>
      <use xlink:href="#ArialMT-61" x="59.324219"/>
      <use xlink:href="#ArialMT-6c" x="114.939453"/>
      <use xlink:href="#ArialMT-75" x="137.15625"/>
      <use xlink:href="#ArialMT-65" x="192.771484"/>
      <use xlink:href="#ArialMT-20" x="248.386719"/>
      <use xlink:href="#ArialMT-28" x="276.169922"/>
      <use xlink:href="#ArialMT-7a" x="309.470703"/>
      <use xlink:href="#ArialMT-2d" x="359.470703"/>
      <use xlink:href="#ArialMT-73" x="392.771484"/>
      <use xlink:href="#ArialMT-63" x="442.771484"/>
      <use xlink:href="#ArialMT-6f" x="492.771484"/>
      <use xlink:href="#ArialMT-72" x="548.386719"/>
      <use xlink:href="#ArialMT-65" x="581.6875"/>
      <use xlink:href="#ArialMT-64" x="637.302734"/>
      <use xlink:href="#ArialMT-29" x="692.917969"/>
     </g>
    </g>
   </g>
   <g id="PolyCollection_5">
    <defs>
     <path id="m68ef2f7516" d="M 167.709907 -284.87604 
L 159.968566 -284.87604 
L 159.968566 -287.444052 
L 159.968566 -290.012063 
L 159.968566 -292.580075 
L 159.968566 -295.148087 
L 159.968566 -297.716099 
L 159.968566 -300.284111 
L 159.968566 -302.852122 
L 159.968566 -305.420134 
L 159.968566 -307.988146 
L 159.968566 -310.556158 
L 159.968566 -313.124169 
L 159.968566 -315.692181 
L 159.968566 -318.260193 
L 159.968566 -320.828205 
L 159.968566 -323.396216 
L 159.968566 -325.964228 
L 159.968566 -328.53224 
L 159.968566 -331.100252 
L 159.968566 -333.668264 
L 159.968566 -336.236275 
L 159.968566 -338.804287 
L 159.968566 -341.372299 
L 159.968566 -343.940311 
L 159.968566 -346.508322 
L 159.968566 -349.076334 
L 159.968566 -351.644346 
L 159.968566 -354.212358 
L 159.968566 -356.78037 
L 159.968566 -359.348381 
L 159.968566 -361.916393 
L 159.968566 -364.484405 
L 159.968566 -367.052417 
L 159.968566 -369.620428 
L 159.968566 -372.18844 
L 159.968566 -374.756452 
L 159.968566 -377.324464 
L 159.968566 -379.892476 
L 159.968566 -382.460487 
L 161.534047 -382.460487 
L 161.534047 -382.460487 
L 161.556685 -379.892476 
L 161.518935 -377.324464 
L 161.468474 -374.756452 
L 161.457369 -372.18844 
L 161.525873 -369.620428 
L 161.693831 -367.052417 
L 161.964087 -364.484405 
L 162.336047 -361.916393 
L 162.821944 -359.348381 
L 163.456307 -356.78037 
L 164.29188 -354.212358 
L 165.381469 -351.644346 
L 166.752159 -349.076334 
L 168.382728 -346.508322 
L 170.195241 -343.940311 
L 172.067412 -341.372299 
L 173.864945 -338.804287 
L 175.485033 -336.236275 
L 176.896532 -333.668264 
L 178.161291 -331.100252 
L 179.425435 -328.53224 
L 180.877903 -325.964228 
L 182.68396 -323.396216 
L 184.911443 -320.828205 
L 187.474297 -318.260193 
L 190.117772 -315.692181 
L 192.459128 -313.124169 
L 194.077526 -310.556158 
L 194.625 -307.988146 
L 193.918802 -305.420134 
L 191.982442 -302.852122 
L 189.025327 -300.284111 
L 185.376468 -297.716099 
L 181.402191 -295.148087 
L 177.435909 -292.580075 
L 173.735028 -290.012063 
L 170.465967 -287.444052 
L 167.709907 -284.87604 
z
" style="stroke: #d55e00; stroke-opacity: 0.3"/>
    </defs>
    <g clip-path="url(#p3e20b32218)">
     <use xlink:href="#m68ef2f7516" x="0" y="1080" style="fill: #d55e00; fill-opacity: 0.3; stroke: #d55e00; stroke-opacity: 0.3"/>
    </g>
   </g>
   <g id="PolyCollection_6">
    <defs>
     <path id="m323510fe91" d="M 304.946053 -239.525962 
L 299.427151 -239.525962 
L 299.427151 -242.757986 
L 299.427151 -245.99001 
L 299.427151 -249.222035 
L 299.427151 -252.454059 
L 299.427151 -255.686084 
L 299.427151 -258.918108 
L 299.427151 -262.150132 
L 299.427151 -265.382157 
L 299.427151 -268.614181 
L 299.427151 -271.846205 
L 299.427151 -275.07823 
L 299.427151 -278.310254 
L 299.427151 -281.542278 
L 299.427151 -284.774303 
L 299.427151 -288.006327 
L 299.427151 -291.238351 
L 299.427151 -294.470376 
L 299.427151 -297.7024 
L 299.427151 -300.934424 
L 299.427151 -304.166449 
L 299.427151 -307.398473 
L 299.427151 -310.630498 
L 299.427151 -313.862522 
L 299.427151 -317.094546 
L 299.427151 -320.326571 
L 299.427151 -323.558595 
L 299.427151 -326.790619 
L 299.427151 -330.022644 
L 299.427151 -333.254668 
L 299.427151 -336.486692 
L 299.427151 -339.718717 
L 299.427151 -342.950741 
L 299.427151 -346.182765 
L 299.427151 -349.41479 
L 299.427151 -352.646814 
L 299.427151 -355.878838 
L 299.427151 -359.110863 
L 299.427151 -362.342887 
L 302.207146 -362.342887 
L 302.207146 -362.342887 
L 302.461998 -359.110863 
L 302.592791 -355.878838 
L 302.619768 -352.646814 
L 302.59337 -349.41479 
L 302.583528 -346.182765 
L 302.664505 -342.950741 
L 302.901834 -339.718717 
L 303.347352 -336.486692 
L 304.044274 -333.254668 
L 305.038269 -330.022644 
L 306.385833 -326.790619 
L 308.151114 -323.558595 
L 310.387742 -320.326571 
L 313.110508 -317.094546 
L 316.268324 -313.862522 
L 319.730612 -310.630498 
L 323.293814 -307.398473 
L 326.706426 -304.166449 
L 329.704666 -300.934424 
L 332.049422 -297.7024 
L 333.55768 -294.470376 
L 334.125 -291.238351 
L 333.737329 -288.006327 
L 332.470494 -284.774303 
L 330.476413 -281.542278 
L 327.957809 -278.310254 
L 325.137127 -275.07823 
L 322.227258 -271.846205 
L 319.409672 -268.614181 
L 316.820903 -265.382157 
L 314.544973 -262.150132 
L 312.60983 -258.918108 
L 310.989272 -255.686084 
L 309.613866 -252.454059 
L 308.392144 -249.222035 
L 307.23781 -245.99001 
L 306.094039 -242.757986 
L 304.946053 -239.525962 
z
" style="stroke: #0072b2; stroke-opacity: 0.3"/>
    </defs>
    <g clip-path="url(#p3e20b32218)">
     <use xlink:href="#m323510fe91" x="0" y="1080" style="fill: #0072b2; fill-opacity: 0.3; stroke: #0072b2; stroke-opacity: 0.3"/>
    </g>
   </g>
   <g id="PolyCollection_7">
    <defs>
     <path id="m4cc06092a5" d="M 443.507897 -253.933232 
L 438.898933 -253.933232 
L 438.898933 -257.145867 
L 438.898933 -260.358502 
L 438.898933 -263.571138 
L 438.898933 -266.783773 
L 438.898933 -269.996408 
L 438.898933 -273.209043 
L 438.898933 -276.421678 
L 438.898933 -279.634313 
L 438.898933 -282.846948 
L 438.898933 -286.059583 
L 438.898933 -289.272218 
L 438.898933 -292.484853 
L 438.898933 -295.697488 
L 438.898933 -298.910124 
L 438.898933 -302.122759 
L 438.898933 -305.335394 
L 438.898933 -308.548029 
L 438.898933 -311.760664 
L 438.898933 -314.973299 
L 438.898933 -318.185934 
L 438.898933 -321.398569 
L 438.898933 -324.611204 
L 438.898933 -327.823839 
L 438.898933 -331.036474 
L 438.898933 -334.24911 
L 438.898933 -337.461745 
L 438.898933 -340.67438 
L 438.898933 -343.887015 
L 438.898933 -347.09965 
L 438.898933 -350.312285 
L 438.898933 -353.52492 
L 438.898933 -356.737555 
L 438.898933 -359.95019 
L 438.898933 -363.162825 
L 438.898933 -366.37546 
L 438.898933 -369.588096 
L 438.898933 -372.800731 
L 438.898933 -376.013366 
L 441.297771 -376.013366 
L 441.297771 -376.013366 
L 441.640435 -372.800731 
L 441.982743 -369.588096 
L 442.337106 -366.37546 
L 442.705451 -363.162825 
L 443.079271 -359.95019 
L 443.452602 -356.737555 
L 443.842708 -353.52492 
L 444.307236 -350.312285 
L 444.947345 -347.09965 
L 445.893473 -343.887015 
L 447.278699 -340.67438 
L 449.208358 -337.461745 
L 451.732288 -334.24911 
L 454.821773 -331.036474 
L 458.352719 -327.823839 
L 462.101022 -324.611204 
L 465.760431 -321.398569 
L 468.989828 -318.185934 
L 471.483768 -314.973299 
L 473.044257 -311.760664 
L 473.625 -308.548029 
L 473.32854 -305.335394 
L 472.357797 -302.122759 
L 470.943938 -298.910124 
L 469.280647 -295.697488 
L 467.487574 -292.484853 
L 465.609358 -289.272218 
L 463.640994 -286.059583 
L 461.562574 -282.846948 
L 459.368024 -279.634313 
L 457.079783 -276.421678 
L 454.749175 -273.209043 
L 452.446909 -269.996408 
L 450.248965 -266.783773 
L 448.2222 -263.571138 
L 446.413119 -260.358502 
L 444.842591 -257.145867 
L 443.507897 -253.933232 
z
" style="stroke: #009e73; stroke-opacity: 0.3"/>
    </defs>
    <g clip-path="url(#p3e20b32218)">
     <use xlink:href="#m4cc06092a5" x="0" y="1080" style="fill: #009e73; fill-opacity: 0.3; stroke: #009e73; stroke-opacity: 0.3"/>
    </g>
   </g>
   <g id="PolyCollection_8">
    <defs>
     <path id="m8619c1dfe0" d="M 580.419833 -241.396659 
L 578.327568 -241.396659 
L 578.327568 -245.823798 
L 578.327568 -250.250938 
L 578.327568 -254.678077 
L 578.327568 -259.105216 
L 578.327568 -263.532356 
L 578.327568 -267.959495 
L 578.327568 -272.386635 
L 578.327568 -276.813774 
L 578.327568 -281.240914 
L 578.327568 -285.668053 
L 578.327568 -290.095193 
L 578.327568 -294.522332 
L 578.327568 -298.949472 
L 578.327568 -303.376611 
L 578.327568 -307.803751 
L 578.327568 -312.23089 
L 578.327568 -316.65803 
L 578.327568 -321.085169 
L 578.327568 -325.512309 
L 578.327568 -329.939448 
L 578.327568 -334.366588 
L 578.327568 -338.793727 
L 578.327568 -343.220867 
L 578.327568 -347.648006 
L 578.327568 -352.075146 
L 578.327568 -356.502285 
L 578.327568 -360.929425 
L 578.327568 -365.356564 
L 578.327568 -369.783704 
L 578.327568 -374.210843 
L 578.327568 -378.637983 
L 578.327568 -383.065122 
L 578.327568 -387.492262 
L 578.327568 -391.919401 
L 578.327568 -396.346541 
L 578.327568 -400.77368 
L 578.327568 -405.20082 
L 578.327568 -409.627959 
L 580.193318 -409.627959 
L 580.193318 -409.627959 
L 580.15593 -405.20082 
L 580.026065 -400.77368 
L 579.914109 -396.346541 
L 579.963315 -391.919401 
L 580.318263 -387.492262 
L 581.096016 -383.065122 
L 582.368209 -378.637983 
L 584.159244 -374.210843 
L 586.460996 -369.783704 
L 589.255017 -365.356564 
L 592.522246 -360.929425 
L 596.21977 -356.502285 
L 600.224228 -352.075146 
L 604.275181 -347.648006 
L 607.972893 -343.220867 
L 610.866654 -338.793727 
L 612.613078 -334.366588 
L 613.125 -329.939448 
L 612.618417 -325.512309 
L 611.515701 -321.085169 
L 610.24842 -316.65803 
L 609.064951 -312.23089 
L 607.944925 -307.803751 
L 606.65803 -303.376611 
L 604.922407 -298.949472 
L 602.56903 -294.522332 
L 599.628411 -290.095193 
L 596.311375 -285.668053 
L 592.916972 -281.240914 
L 589.730102 -276.813774 
L 586.957584 -272.386635 
L 584.713199 -267.959495 
L 583.031065 -263.532356 
L 581.881726 -259.105216 
L 581.181329 -254.678077 
L 580.801836 -250.250938 
L 580.593512 -245.823798 
L 580.419833 -241.396659 
z
" style="stroke: #cc79a7; stroke-opacity: 0.3"/>
    </defs>
    <g clip-path="url(#p3e20b32218)">
     <use xlink:href="#m8619c1dfe0" x="0" y="1080" style="fill: #cc79a7; fill-opacity: 0.3; stroke: #cc79a7; stroke-opacity: 0.3"/>
    </g>
   </g>
   <g id="PathCollection_5">
    <g clip-path="url(#p3e20b32218)">
     <use xlink:href="#mfe87ae89fe" x="130.114999" y="744.772799" style="fill: #d55e00; stroke: #d55e00"/>
     <use xlink:href="#mfe87ae89fe" x="137.495617" y="758.54358" style="fill: #d55e00; stroke: #d55e00"/>
     <use xlink:href="#mfe87ae89fe" x="135.926565" y="765.754172" style="fill: #d55e00; stroke: #d55e00"/>
     <use xlink:href="#mfe87ae89fe" x="132.783448" y="760.382353" style="fill: #d55e00; stroke: #d55e00"/>
     <use xlink:href="#mfe87ae89fe" x="126.951129" y="776.899395" style="fill: #d55e00; stroke: #d55e00"/>
     <use xlink:href="#mfe87ae89fe" x="135.25453" y="766.333147" style="fill: #d55e00; stroke: #d55e00"/>
     <use xlink:href="#mfe87ae89fe" x="132.855148" y="770.254449" style="fill: #d55e00; stroke: #d55e00"/>
     <use xlink:href="#mfe87ae89fe" x="128.748888" y="767.447861" style="fill: #d55e00; stroke: #d55e00"/>
     <use xlink:href="#mfe87ae89fe" x="133.331195" y="784.524244" style="fill: #d55e00; stroke: #d55e00"/>
     <use xlink:href="#mfe87ae89fe" x="128.207769" y="785.893909" style="fill: #d55e00; stroke: #d55e00"/>
     <use xlink:href="#mfe87ae89fe" x="126.608276" y="769.804849" style="fill: #d55e00; stroke: #d55e00"/>
     <use xlink:href="#mfe87ae89fe" x="128.970817" y="770.028084" style="fill: #d55e00; stroke: #d55e00"/>
     <use xlink:href="#mfe87ae89fe" x="128.068101" y="773.531918" style="fill: #d55e00; stroke: #d55e00"/>
     <use xlink:href="#mfe87ae89fe" x="126.661111" y="697.539513" style="fill: #d55e00; stroke: #d55e00"/>
     <use xlink:href="#mfe87ae89fe" x="126.104018" y="740.748434" style="fill: #d55e00; stroke: #d55e00"/>
     <use xlink:href="#mfe87ae89fe" x="138.174325" y="786.142846" style="fill: #d55e00; stroke: #d55e00"/>
     <use xlink:href="#mfe87ae89fe" x="134.745546" y="771.621197" style="fill: #d55e00; stroke: #d55e00"/>
     <use xlink:href="#mfe87ae89fe" x="127.808045" y="733.155608" style="fill: #d55e00; stroke: #d55e00"/>
     <use xlink:href="#mfe87ae89fe" x="133.73554" y="749.430922" style="fill: #d55e00; stroke: #d55e00"/>
     <use xlink:href="#mfe87ae89fe" x="130.15853" y="748.980568" style="fill: #d55e00; stroke: #d55e00"/>
     <use xlink:href="#mfe87ae89fe" x="131.928638" y="745.314744" style="fill: #d55e00; stroke: #d55e00"/>
     <use xlink:href="#mfe87ae89fe" x="128.703969" y="774.476664" style="fill: #d55e00; stroke: #d55e00"/>
     <use xlink:href="#mfe87ae89fe" x="137.123494" y="776.373489" style="fill: #d55e00; stroke: #d55e00"/>
     <use xlink:href="#mfe87ae89fe" x="136.703035" y="774.737627" style="fill: #d55e00; stroke: #d55e00"/>
     <use xlink:href="#mfe87ae89fe" x="131.592055" y="753.356336" style="fill: #d55e00; stroke: #d55e00"/>
     <use xlink:href="#mfe87ae89fe" x="134.29594" y="782.192878" style="fill: #d55e00; stroke: #d55e00"/>
     <use xlink:href="#mfe87ae89fe" x="126.367224" y="781.910891" style="fill: #d55e00; stroke: #d55e00"/>
     <use xlink:href="#mfe87ae89fe" x="132.367831" y="777.004934" style="fill: #d55e00; stroke: #d55e00"/>
     <use xlink:href="#mfe87ae89fe" x="126.687903" y="758.916275" style="fill: #d55e00; stroke: #d55e00"/>
     <use xlink:href="#mfe87ae89fe" x="138.221658" y="778.054444" style="fill: #d55e00; stroke: #d55e00"/>
     <use xlink:href="#mfe87ae89fe" x="126.12009" y="770.162526" style="fill: #d55e00; stroke: #d55e00"/>
     <use xlink:href="#mfe87ae89fe" x="134.67009" y="770.012664" style="fill: #d55e00; stroke: #d55e00"/>
     <use xlink:href="#mfe87ae89fe" x="130.126836" y="795.12396" style="fill: #d55e00; stroke: #d55e00"/>
     <use xlink:href="#mfe87ae89fe" x="135.824406" y="769.533006" style="fill: #d55e00; stroke: #d55e00"/>
     <use xlink:href="#mfe87ae89fe" x="128.770993" y="744.279295" style="fill: #d55e00; stroke: #d55e00"/>
     <use xlink:href="#mfe87ae89fe" x="130.34977" y="770.884824" style="fill: #d55e00; stroke: #d55e00"/>
     <use xlink:href="#mfe87ae89fe" x="128.13141" y="739.913215" style="fill: #d55e00; stroke: #d55e00"/>
     <use xlink:href="#mfe87ae89fe" x="130.507361" y="754.675942" style="fill: #d55e00; stroke: #d55e00"/>
     <use xlink:href="#mfe87ae89fe" x="127.899804" y="720.057114" style="fill: #d55e00; stroke: #d55e00"/>
    </g>
   </g>
   <g id="PathCollection_6">
    <g clip-path="url(#p3e20b32218)">
     <use xlink:href="#m6edf18ff3a" x="278.107163" y="840.474038" style="fill: #0072b2; stroke: #0072b2"/>
     <use xlink:href="#m6edf18ff3a" x="266.562039" y="776.844712" style="fill: #0072b2; stroke: #0072b2"/>
     <use xlink:href="#m6edf18ff3a" x="274.073341" y="772.231325" style="fill: #0072b2; stroke: #0072b2"/>
     <use xlink:href="#m6edf18ff3a" x="266.357123" y="769.087474" style="fill: #0072b2; stroke: #0072b2"/>
     <use xlink:href="#m6edf18ff3a" x="273.332286" y="780.305852" style="fill: #0072b2; stroke: #0072b2"/>
     <use xlink:href="#m6edf18ff3a" x="273.854278" y="770.032025" style="fill: #0072b2; stroke: #0072b2"/>
     <use xlink:href="#m6edf18ff3a" x="271.155353" y="793.680379" style="fill: #0072b2; stroke: #0072b2"/>
     <use xlink:href="#m6edf18ff3a" x="264.881996" y="783.817889" style="fill: #0072b2; stroke: #0072b2"/>
     <use xlink:href="#m6edf18ff3a" x="277.82582" y="727.86039" style="fill: #0072b2; stroke: #0072b2"/>
     <use xlink:href="#m6edf18ff3a" x="277.551958" y="795.014987" style="fill: #0072b2; stroke: #0072b2"/>
     <use xlink:href="#m6edf18ff3a" x="266.9155" y="803.910692" style="fill: #0072b2; stroke: #0072b2"/>
     <use xlink:href="#m6edf18ff3a" x="267.066539" y="785.343651" style="fill: #0072b2; stroke: #0072b2"/>
     <use xlink:href="#m6edf18ff3a" x="274.993363" y="776.425649" style="fill: #0072b2; stroke: #0072b2"/>
     <use xlink:href="#m6edf18ff3a" x="275.357297" y="795.464799" style="fill: #0072b2; stroke: #0072b2"/>
     <use xlink:href="#m6edf18ff3a" x="264.860932" y="813.707681" style="fill: #0072b2; stroke: #0072b2"/>
     <use xlink:href="#m6edf18ff3a" x="275.302309" y="749.27674" style="fill: #0072b2; stroke: #0072b2"/>
     <use xlink:href="#m6edf18ff3a" x="270.270296" y="797.697509" style="fill: #0072b2; stroke: #0072b2"/>
     <use xlink:href="#m6edf18ff3a" x="266.185237" y="798.800962" style="fill: #0072b2; stroke: #0072b2"/>
     <use xlink:href="#m6edf18ff3a" x="267.269203" y="814.987315" style="fill: #0072b2; stroke: #0072b2"/>
     <use xlink:href="#m6edf18ff3a" x="270.220551" y="787.759119" style="fill: #0072b2; stroke: #0072b2"/>
     <use xlink:href="#m6edf18ff3a" x="268.015739" y="831.199279" style="fill: #0072b2; stroke: #0072b2"/>
     <use xlink:href="#m6edf18ff3a" x="271.576525" y="772.405568" style="fill: #0072b2; stroke: #0072b2"/>
     <use xlink:href="#m6edf18ff3a" x="274.143404" y="808.424678" style="fill: #0072b2; stroke: #0072b2"/>
     <use xlink:href="#m6edf18ff3a" x="271.132646" y="756.562952" style="fill: #0072b2; stroke: #0072b2"/>
     <use xlink:href="#m6edf18ff3a" x="272.157764" y="831.548657" style="fill: #0072b2; stroke: #0072b2"/>
     <use xlink:href="#m6edf18ff3a" x="274.248926" y="792.922144" style="fill: #0072b2; stroke: #0072b2"/>
     <use xlink:href="#m6edf18ff3a" x="270.572495" y="790.992018" style="fill: #0072b2; stroke: #0072b2"/>
     <use xlink:href="#m6edf18ff3a" x="265.957833" y="826.195553" style="fill: #0072b2; stroke: #0072b2"/>
     <use xlink:href="#m6edf18ff3a" x="268.601261" y="793.173643" style="fill: #0072b2; stroke: #0072b2"/>
     <use xlink:href="#m6edf18ff3a" x="265.651746" y="780.290252" style="fill: #0072b2; stroke: #0072b2"/>
     <use xlink:href="#m6edf18ff3a" x="270.421496" y="717.657113" style="fill: #0072b2; stroke: #0072b2"/>
     <use xlink:href="#m6edf18ff3a" x="266.383998" y="787.507304" style="fill: #0072b2; stroke: #0072b2"/>
     <use xlink:href="#m6edf18ff3a" x="268.445005" y="802.063958" style="fill: #0072b2; stroke: #0072b2"/>
     <use xlink:href="#m6edf18ff3a" x="274.125778" y="785.024218" style="fill: #0072b2; stroke: #0072b2"/>
     <use xlink:href="#m6edf18ff3a" x="269.773517" y="808.370221" style="fill: #0072b2; stroke: #0072b2"/>
     <use xlink:href="#m6edf18ff3a" x="268.45595" y="780.082254" style="fill: #0072b2; stroke: #0072b2"/>
     <use xlink:href="#m6edf18ff3a" x="274.424049" y="784.073635" style="fill: #0072b2; stroke: #0072b2"/>
     <use xlink:href="#m6edf18ff3a" x="273.774759" y="794.889406" style="fill: #0072b2; stroke: #0072b2"/>
     <use xlink:href="#m6edf18ff3a" x="277.654953" y="811.427043" style="fill: #0072b2; stroke: #0072b2"/>
    </g>
   </g>
   <g id="PathCollection_7">
    <g clip-path="url(#p3e20b32218)">
     <use xlink:href="#m41ecf56609" x="415.734614" y="750.5121" style="fill: #009e73; stroke: #009e73"/>
     <use xlink:href="#m41ecf56609" x="413.477932" y="807.812538" style="fill: #009e73; stroke: #009e73"/>
     <use xlink:href="#m41ecf56609" x="404.162205" y="779.449887" style="fill: #009e73; stroke: #009e73"/>
     <use xlink:href="#m41ecf56609" x="410.137505" y="796.214327" style="fill: #009e73; stroke: #009e73"/>
     <use xlink:href="#m41ecf56609" x="406.575266" y="782.000598" style="fill: #009e73; stroke: #009e73"/>
     <use xlink:href="#m41ecf56609" x="417.325099" y="797.722724" style="fill: #009e73; stroke: #009e73"/>
     <use xlink:href="#m41ecf56609" x="405.84305" y="703.986634" style="fill: #009e73; stroke: #009e73"/>
     <use xlink:href="#m41ecf56609" x="404.179083" y="765.154642" style="fill: #009e73; stroke: #009e73"/>
     <use xlink:href="#m41ecf56609" x="407.045535" y="779.984023" style="fill: #009e73; stroke: #009e73"/>
     <use xlink:href="#m41ecf56609" x="414.89508" y="763.767872" style="fill: #009e73; stroke: #009e73"/>
     <use xlink:href="#m41ecf56609" x="416.565191" y="807.560236" style="fill: #009e73; stroke: #009e73"/>
     <use xlink:href="#m41ecf56609" x="412.676606" y="788.368764" style="fill: #009e73; stroke: #009e73"/>
     <use xlink:href="#m41ecf56609" x="406.441436" y="750.063698" style="fill: #009e73; stroke: #009e73"/>
     <use xlink:href="#m41ecf56609" x="404.512718" y="775.886535" style="fill: #009e73; stroke: #009e73"/>
     <use xlink:href="#m41ecf56609" x="408.035671" y="762.135014" style="fill: #009e73; stroke: #009e73"/>
     <use xlink:href="#m41ecf56609" x="414.935925" y="784.854424" style="fill: #009e73; stroke: #009e73"/>
     <use xlink:href="#m41ecf56609" x="407.703185" y="777.753849" style="fill: #009e73; stroke: #009e73"/>
     <use xlink:href="#m41ecf56609" x="406.075187" y="804.777466" style="fill: #009e73; stroke: #009e73"/>
     <use xlink:href="#m41ecf56609" x="410.737292" y="826.066768" style="fill: #009e73; stroke: #009e73"/>
     <use xlink:href="#m41ecf56609" x="413.353699" y="767.680224" style="fill: #009e73; stroke: #009e73"/>
     <use xlink:href="#m41ecf56609" x="408.983277" y="723.678955" style="fill: #009e73; stroke: #009e73"/>
     <use xlink:href="#m41ecf56609" x="413.744196" y="767.838965" style="fill: #009e73; stroke: #009e73"/>
     <use xlink:href="#m41ecf56609" x="414.642915" y="765.219699" style="fill: #009e73; stroke: #009e73"/>
     <use xlink:href="#m41ecf56609" x="411.417124" y="769.975423" style="fill: #009e73; stroke: #009e73"/>
     <use xlink:href="#m41ecf56609" x="410.692913" y="727.775885" style="fill: #009e73; stroke: #009e73"/>
     <use xlink:href="#m41ecf56609" x="415.386205" y="764.893772" style="fill: #009e73; stroke: #009e73"/>
     <use xlink:href="#m41ecf56609" x="407.991764" y="796.275182" style="fill: #009e73; stroke: #009e73"/>
     <use xlink:href="#m41ecf56609" x="412.808301" y="772.665569" style="fill: #009e73; stroke: #009e73"/>
     <use xlink:href="#m41ecf56609" x="404.177525" y="772.475133" style="fill: #009e73; stroke: #009e73"/>
     <use xlink:href="#m41ecf56609" x="416.660158" y="758.14736" style="fill: #009e73; stroke: #009e73"/>
     <use xlink:href="#m41ecf56609" x="416.799514" y="784.049234" style="fill: #009e73; stroke: #009e73"/>
     <use xlink:href="#m41ecf56609" x="410.759842" y="767.582137" style="fill: #009e73; stroke: #009e73"/>
     <use xlink:href="#m41ecf56609" x="406.817632" y="745.29185" style="fill: #009e73; stroke: #009e73"/>
     <use xlink:href="#m41ecf56609" x="412.835652" y="766.111087" style="fill: #009e73; stroke: #009e73"/>
     <use xlink:href="#m41ecf56609" x="414.453086" y="813.518073" style="fill: #009e73; stroke: #009e73"/>
     <use xlink:href="#m41ecf56609" x="405.567787" y="760.462368" style="fill: #009e73; stroke: #009e73"/>
     <use xlink:href="#m41ecf56609" x="408.909225" y="793.133309" style="fill: #009e73; stroke: #009e73"/>
     <use xlink:href="#m41ecf56609" x="413.736206" y="794.154025" style="fill: #009e73; stroke: #009e73"/>
     <use xlink:href="#m41ecf56609" x="412.989992" y="790.71405" style="fill: #009e73; stroke: #009e73"/>
    </g>
   </g>
   <g id="PathCollection_8">
    <g clip-path="url(#p3e20b32218)">
     <use xlink:href="#mbeecb0cb40" x="554.954887" y="749.239145" style="fill: #cc79a7; stroke: #cc79a7"/>
     <use xlink:href="#mbeecb0cb40" x="547.015599" y="756.269962" style="fill: #cc79a7; stroke: #cc79a7"/>
     <use xlink:href="#mbeecb0cb40" x="550.161146" y="776.191483" style="fill: #cc79a7; stroke: #cc79a7"/>
     <use xlink:href="#mbeecb0cb40" x="544.705102" y="744.715312" style="fill: #cc79a7; stroke: #cc79a7"/>
     <use xlink:href="#mbeecb0cb40" x="552.723343" y="740.402198" style="fill: #cc79a7; stroke: #cc79a7"/>
     <use xlink:href="#mbeecb0cb40" x="547.683131" y="741.412906" style="fill: #cc79a7; stroke: #cc79a7"/>
     <use xlink:href="#mbeecb0cb40" x="550.152338" y="780.083884" style="fill: #cc79a7; stroke: #cc79a7"/>
     <use xlink:href="#mbeecb0cb40" x="547.187036" y="783.862977" style="fill: #cc79a7; stroke: #cc79a7"/>
     <use xlink:href="#mbeecb0cb40" x="553.272396" y="807.175982" style="fill: #cc79a7; stroke: #cc79a7"/>
     <use xlink:href="#mbeecb0cb40" x="549.475677" y="731.136552" style="fill: #cc79a7; stroke: #cc79a7"/>
     <use xlink:href="#mbeecb0cb40" x="553.428211" y="670.372041" style="fill: #cc79a7; stroke: #cc79a7"/>
     <use xlink:href="#mbeecb0cb40" x="551.976138" y="753.045807" style="fill: #cc79a7; stroke: #cc79a7"/>
     <use xlink:href="#mbeecb0cb40" x="544.941929" y="781.032403" style="fill: #cc79a7; stroke: #cc79a7"/>
     <use xlink:href="#mbeecb0cb40" x="548.116316" y="785.223797" style="fill: #cc79a7; stroke: #cc79a7"/>
     <use xlink:href="#mbeecb0cb40" x="547.549898" y="779.279352" style="fill: #cc79a7; stroke: #cc79a7"/>
     <use xlink:href="#mbeecb0cb40" x="551.38695" y="773.097606" style="fill: #cc79a7; stroke: #cc79a7"/>
     <use xlink:href="#mbeecb0cb40" x="547.565934" y="737.940957" style="fill: #cc79a7; stroke: #cc79a7"/>
     <use xlink:href="#mbeecb0cb40" x="550.351583" y="750.370477" style="fill: #cc79a7; stroke: #cc79a7"/>
     <use xlink:href="#mbeecb0cb40" x="553.99352" y="739.931214" style="fill: #cc79a7; stroke: #cc79a7"/>
     <use xlink:href="#mbeecb0cb40" x="551.931278" y="766.082118" style="fill: #cc79a7; stroke: #cc79a7"/>
     <use xlink:href="#mbeecb0cb40" x="553.119098" y="800.701011" style="fill: #cc79a7; stroke: #cc79a7"/>
     <use xlink:href="#mbeecb0cb40" x="545.802692" y="771.3768" style="fill: #cc79a7; stroke: #cc79a7"/>
     <use xlink:href="#mbeecb0cb40" x="557.118868" y="717.294029" style="fill: #cc79a7; stroke: #cc79a7"/>
     <use xlink:href="#mbeecb0cb40" x="554.047461" y="789.666081" style="fill: #cc79a7; stroke: #cc79a7"/>
     <use xlink:href="#mbeecb0cb40" x="544.780832" y="757.60311" style="fill: #cc79a7; stroke: #cc79a7"/>
     <use xlink:href="#mbeecb0cb40" x="547.904982" y="753.086434" style="fill: #cc79a7; stroke: #cc79a7"/>
     <use xlink:href="#mbeecb0cb40" x="554.408152" y="743.687183" style="fill: #cc79a7; stroke: #cc79a7"/>
     <use xlink:href="#mbeecb0cb40" x="555.787827" y="743.591374" style="fill: #cc79a7; stroke: #cc79a7"/>
     <use xlink:href="#mbeecb0cb40" x="549.643612" y="770.981323" style="fill: #cc79a7; stroke: #cc79a7"/>
     <use xlink:href="#mbeecb0cb40" x="555.803817" y="726.659118" style="fill: #cc79a7; stroke: #cc79a7"/>
     <use xlink:href="#mbeecb0cb40" x="544.36684" y="838.603341" style="fill: #cc79a7; stroke: #cc79a7"/>
     <use xlink:href="#mbeecb0cb40" x="553.834478" y="750.582959" style="fill: #cc79a7; stroke: #cc79a7"/>
     <use xlink:href="#mbeecb0cb40" x="556.062283" y="723.651582" style="fill: #cc79a7; stroke: #cc79a7"/>
     <use xlink:href="#mbeecb0cb40" x="545.756302" y="747.244147" style="fill: #cc79a7; stroke: #cc79a7"/>
     <use xlink:href="#mbeecb0cb40" x="551.729992" y="741.813117" style="fill: #cc79a7; stroke: #cc79a7"/>
     <use xlink:href="#mbeecb0cb40" x="553.991005" y="765.165824" style="fill: #cc79a7; stroke: #cc79a7"/>
     <use xlink:href="#mbeecb0cb40" x="546.813087" y="783.102882" style="fill: #cc79a7; stroke: #cc79a7"/>
     <use xlink:href="#mbeecb0cb40" x="555.876331" y="713.796208" style="fill: #cc79a7; stroke: #cc79a7"/>
     <use xlink:href="#mbeecb0cb40" x="552.137974" y="792.189078" style="fill: #cc79a7; stroke: #cc79a7"/>
    </g>
   </g>
   <g id="patch_12">
    <path d="M 149.2875 775.555558 
L 170.2125 775.555558 
L 170.2125 751.393629 
L 149.2875 751.393629 
L 149.2875 775.555558 
z
" clip-path="url(#p3e20b32218)" style="fill: #d55e00; opacity: 0.5; stroke: #000000; stroke-linejoin: miter"/>
   </g>
   <g id="line2d_39">
    <path d="M 159.75 775.555558 
L 159.75 795.12396 
" clip-path="url(#p3e20b32218)" style="fill: none; stroke: #000000; stroke-linecap: round"/>
   </g>
   <g id="line2d_40">
    <path d="M 159.75 751.393629 
L 159.75 720.057114 
" clip-path="url(#p3e20b32218)" style="fill: none; stroke: #000000; stroke-linecap: round"/>
   </g>
   <g id="line2d_41">
    <path d="M 154.51875 795.12396 
L 164.98125 795.12396 
" clip-path="url(#p3e20b32218)" style="fill: none; stroke: #000000; stroke-linecap: round"/>
   </g>
   <g id="line2d_42">
    <path d="M 154.51875 720.057114 
L 164.98125 720.057114 
" clip-path="url(#p3e20b32218)" style="fill: none; stroke: #000000; stroke-linecap: round"/>
   </g>
   <g id="patch_13">
    <path d="M 288.7875 802.987325 
L 309.7125 802.987325 
L 309.7125 778.463483 
L 288.7875 778.463483 
L 288.7875 802.987325 
z
" clip-path="url(#p3e20b32218)" style="fill: #0072b2; opacity: 0.5; stroke: #000000; stroke-linejoin: miter"/>
   </g>
   <g id="line2d_43">
    <path d="M 299.25 802.987325 
L 299.25 831.548657 
" clip-path="url(#p3e20b32218)" style="fill: none; stroke: #000000; stroke-linecap: round"/>
   </g>
   <g id="line2d_44">
    <path d="M 299.25 778.463483 
L 299.25 749.27674 
" clip-path="url(#p3e20b32218)" style="fill: none; stroke: #000000; stroke-linecap: round"/>
   </g>
   <g id="line2d_45">
    <path d="M 294.01875 831.548657 
L 304.48125 831.548657 
" clip-path="url(#p3e20b32218)" style="fill: none; stroke: #000000; stroke-linecap: round"/>
   </g>
   <g id="line2d_46">
    <path d="M 294.01875 749.27674 
L 304.48125 749.27674 
" clip-path="url(#p3e20b32218)" style="fill: none; stroke: #000000; stroke-linecap: round"/>
   </g>
   <g id="patch_14">
    <path d="M 428.2875 791.923679 
L 449.2125 791.923679 
L 449.2125 764.330822 
L 428.2875 764.330822 
L 428.2875 791.923679 
z
" clip-path="url(#p3e20b32218)" style="fill: #009e73; opacity: 0.5; stroke: #000000; stroke-linejoin: miter"/>
   </g>
   <g id="line2d_47">
    <path d="M 438.75 791.923679 
L 438.75 826.066768 
" clip-path="url(#p3e20b32218)" style="fill: none; stroke: #000000; stroke-linecap: round"/>
   </g>
   <g id="line2d_48">
    <path d="M 438.75 764.330822 
L 438.75 723.678955 
" clip-path="url(#p3e20b32218)" style="fill: none; stroke: #000000; stroke-linecap: round"/>
   </g>
   <g id="line2d_49">
    <path d="M 433.51875 826.066768 
L 443.98125 826.066768 
" clip-path="url(#p3e20b32218)" style="fill: none; stroke: #000000; stroke-linecap: round"/>
   </g>
   <g id="line2d_50">
    <path d="M 433.51875 723.678955 
L 443.98125 723.678955 
" clip-path="url(#p3e20b32218)" style="fill: none; stroke: #000000; stroke-linecap: round"/>
   </g>
   <g id="patch_15">
    <path d="M 567.7875 779.681618 
L 588.7125 779.681618 
L 588.7125 741.613012 
L 567.7875 741.613012 
L 567.7875 779.681618 
z
" clip-path="url(#p3e20b32218)" style="fill: #cc79a7; opacity: 0.5; stroke: #000000; stroke-linejoin: miter"/>
   </g>
   <g id="line2d_51">
    <path d="M 578.25 779.681618 
L 578.25 807.175982 
" clip-path="url(#p3e20b32218)" style="fill: none; stroke: #000000; stroke-linecap: round"/>
   </g>
   <g id="line2d_52">
    <path d="M 578.25 741.613012 
L 578.25 713.796208 
" clip-path="url(#p3e20b32218)" style="fill: none; stroke: #000000; stroke-linecap: round"/>
   </g>
   <g id="line2d_53">
    <path d="M 573.01875 807.175982 
L 583.48125 807.175982 
" clip-path="url(#p3e20b32218)" style="fill: none; stroke: #000000; stroke-linecap: round"/>
   </g>
   <g id="line2d_54">
    <path d="M 573.01875 713.796208 
L 583.48125 713.796208 
" clip-path="url(#p3e20b32218)" style="fill: none; stroke: #000000; stroke-linecap: round"/>
   </g>
   <g id="line2d_55">
    <path d="M 149.2875 769.804849 
L 170.2125 769.804849 
" clip-path="url(#p3e20b32218)" style="fill: none; stroke: #000000"/>
   </g>
   <g id="line2d_56">
    <path d="M 288.7875 790.992018 
L 309.7125 790.992018 
" clip-path="url(#p3e20b32218)" style="fill: none; stroke: #000000"/>
   </g>
   <g id="line2d_57">
    <path d="M 428.2875 772.665569 
L 449.2125 772.665569 
" clip-path="url(#p3e20b32218)" style="fill: none; stroke: #000000"/>
   </g>
   <g id="line2d_58">
    <path d="M 567.7875 753.086434 
L 588.7125 753.086434 
" clip-path="url(#p3e20b32218)" style="fill: none; stroke: #000000"/>
   </g>
   <g id="patch_16">
    <path d="M 90 961.2 
L 90 583.2 
" style="fill: none; stroke: #262626; stroke-width: 1.25; stroke-linejoin: miter; stroke-linecap: square"/>
   </g>
   <g id="patch_17">
    <path d="M 648 961.2 
L 648 583.2 
" style="fill: none; stroke: #262626; stroke-width: 1.25; stroke-linejoin: miter; stroke-linecap: square"/>
   </g>
   <g id="patch_18">
    <path d="M 90 961.2 
L 648 961.2 
" style="fill: none; stroke: #262626; stroke-width: 1.25; stroke-linejoin: miter; stroke-linecap: square"/>
   </g>
   <g id="patch_19">
    <path d="M 90 583.2 
L 648 583.2 
" style="fill: none; stroke: #262626; stroke-width: 1.25; stroke-linejoin: miter; stroke-linecap: square"/>
   </g>
   <g id="text_22">
    <!-- HF-HRV -->
    <g style="fill: #262626" transform="translate(342.681094 563.2) scale(0.14 -0.14)">
     <defs>
      <path id="Arial-BoldMT-48" d="M 469 0 
L 469 4581 
L 1394 4581 
L 1394 2778 
L 3206 2778 
L 3206 4581 
L 4131 4581 
L 4131 0 
L 3206 0 
L 3206 2003 
L 1394 2003 
L 1394 0 
L 469 0 
z
" transform="scale(0.015625)"/>
      <path id="Arial-BoldMT-46" d="M 472 0 
L 472 4581 
L 3613 4581 
L 3613 3806 
L 1397 3806 
L 1397 2722 
L 3309 2722 
L 3309 1947 
L 1397 1947 
L 1397 0 
L 472 0 
z
" transform="scale(0.015625)"/>
      <path id="Arial-BoldMT-2d" d="M 359 1222 
L 359 2100 
L 2084 2100 
L 2084 1222 
L 359 1222 
z
" transform="scale(0.015625)"/>
      <path id="Arial-BoldMT-52" d="M 469 0 
L 469 4581 
L 2416 4581 
Q 3150 4581 3483 4457 
Q 3816 4334 4016 4018 
Q 4216 3703 4216 3297 
Q 4216 2781 3912 2445 
Q 3609 2109 3006 2022 
Q 3306 1847 3501 1637 
Q 3697 1428 4028 894 
L 4588 0 
L 3481 0 
L 2813 997 
Q 2456 1531 2325 1670 
Q 2194 1809 2047 1861 
Q 1900 1913 1581 1913 
L 1394 1913 
L 1394 0 
L 469 0 
z
M 1394 2644 
L 2078 2644 
Q 2744 2644 2909 2700 
Q 3075 2756 3169 2893 
Q 3263 3031 3263 3238 
Q 3263 3469 3139 3611 
Q 3016 3753 2791 3791 
Q 2678 3806 2116 3806 
L 1394 3806 
L 1394 2644 
z
" transform="scale(0.015625)"/>
      <path id="Arial-BoldMT-56" d="M 1634 0 
L -3 4581 
L 1000 4581 
L 2159 1191 
L 3281 4581 
L 4263 4581 
L 2622 0 
L 1634 0 
z
" transform="scale(0.015625)"/>
     </defs>
     <use xlink:href="#Arial-BoldMT-48"/>
     <use xlink:href="#Arial-BoldMT-46" x="72.216797"/>
     <use xlink:href="#Arial-BoldMT-2d" x="133.300781"/>
     <use xlink:href="#Arial-BoldMT-48" x="166.601562"/>
     <use xlink:href="#Arial-BoldMT-52" x="238.818359"/>
     <use xlink:href="#Arial-BoldMT-56" x="309.285156"/>
    </g>
   </g>
  </g>
 </g>
 <defs>
  <clipPath id="p48c6ea40ab">
   <rect x="90" y="129.6" width="558" height="378"/>
  </clipPath>
  <clipPath id="p3e20b32218">
   <rect x="90" y="583.2" width="558" height="378"/>
  </clipPath>
 </defs>
</svg>
