<?xml version="1.0" encoding="utf-8" standalone="no"?>
<!DOCTYPE svg PUBLIC "-//W3C//DTD SVG 1.1//EN"
  "http://www.w3.org/Graphics/SVG/1.1/DTD/svg11.dtd">
<svg xmlns:xlink="http://www.w3.org/1999/xlink" width="720pt" height="288pt" viewBox="0 0 720 288" xmlns="http://www.w3.org/2000/svg" version="1.1">
 <metadata>
  <rdf:RDF xmlns:dc="http://purl.org/dc/elements/1.1/" xmlns:cc="http://creativecommons.org/ns#" xmlns:rdf="http://www.w3.org/1999/02/22-rdf-syntax-ns#">
   <cc:Work>
    <dc:type rdf:resource="http://purl.org/dc/dcmitype/StillImage"/>
    <dc:date>2024-08-30T10:48:32.174029</dc:date>
    <dc:format>image/svg+xml</dc:format>
    <dc:creator>
     <cc:Agent>
      <dc:title>Matplotlib v3.8.0, https://matplotlib.org/</dc:title>
     </cc:Agent>
    </dc:creator>
   </cc:Work>
  </rdf:RDF>
 </metadata>
 <defs>
  <style type="text/css">*{stroke-linejoin: round; stroke-linecap: butt}</style>
 </defs>
 <g id="figure_1">
  <g id="patch_1">
   <path d="M 0 288 
L 720 288 
L 720 0 
L 0 0 
z
" style="fill: #ffffff"/>
  </g>
  <g id="axes_1">
   <g id="patch_2">
    <path d="M 90 82.768696 
L 648 82.768696 
L 648 34.56 
L 90 34.56 
z
" style="fill: #ffffff"/>
   </g>
   <g id="matplotlib.axis_1">
    <g id="xtick_1">
     <g id="line2d_1">
      <defs>
       <path id="md65ffad017" d="M 0 0 
L 0 6 
" style="stroke: #262626; stroke-width: 1.25"/>
      </defs>
      <g>
       <use xlink:href="#md65ffad017" x="94.536585" y="82.768696" style="fill: #262626; stroke: #262626; stroke-width: 1.25"/>
      </g>
     </g>
     <g id="text_1">
      <!-- 0 -->
      <g style="fill: #262626" transform="translate(91.47807 100.142289) scale(0.11 -0.11)">
       <defs>
        <path id="ArialMT-30" d="M 266 2259 
Q 266 3072 433 3567 
Q 600 4063 929 4331 
Q 1259 4600 1759 4600 
Q 2128 4600 2406 4451 
Q 2684 4303 2865 4023 
Q 3047 3744 3150 3342 
Q 3253 2941 3253 2259 
Q 3253 1453 3087 958 
Q 2922 463 2592 192 
Q 2263 -78 1759 -78 
Q 1097 -78 719 397 
Q 266 969 266 2259 
z
M 844 2259 
Q 844 1131 1108 757 
Q 1372 384 1759 384 
Q 2147 384 2411 759 
Q 2675 1134 2675 2259 
Q 2675 3391 2411 3762 
Q 2147 4134 1753 4134 
Q 1366 4134 1134 3806 
Q 844 3388 844 2259 
z
" transform="scale(0.015625)"/>
       </defs>
       <use xlink:href="#ArialMT-30"/>
      </g>
     </g>
    </g>
    <g id="xtick_2">
     <g id="line2d_2">
      <g>
       <use xlink:href="#md65ffad017" x="185.268293" y="82.768696" style="fill: #262626; stroke: #262626; stroke-width: 1.25"/>
      </g>
     </g>
     <g id="text_2">
      <!-- 20 -->
      <g style="fill: #262626" transform="translate(179.151261 100.142289) scale(0.11 -0.11)">
       <defs>
        <path id="ArialMT-32" d="M 3222 541 
L 3222 0 
L 194 0 
Q 188 203 259 391 
Q 375 700 629 1000 
Q 884 1300 1366 1694 
Q 2113 2306 2375 2664 
Q 2638 3022 2638 3341 
Q 2638 3675 2398 3904 
Q 2159 4134 1775 4134 
Q 1369 4134 1125 3890 
Q 881 3647 878 3216 
L 300 3275 
Q 359 3922 746 4261 
Q 1134 4600 1788 4600 
Q 2447 4600 2831 4234 
Q 3216 3869 3216 3328 
Q 3216 3053 3103 2787 
Q 2991 2522 2730 2228 
Q 2469 1934 1863 1422 
Q 1356 997 1212 845 
Q 1069 694 975 541 
L 3222 541 
z
" transform="scale(0.015625)"/>
       </defs>
       <use xlink:href="#ArialMT-32"/>
       <use xlink:href="#ArialMT-30" x="55.615234"/>
      </g>
     </g>
    </g>
    <g id="xtick_3">
     <g id="line2d_3">
      <g>
       <use xlink:href="#md65ffad017" x="276" y="82.768696" style="fill: #262626; stroke: #262626; stroke-width: 1.25"/>
      </g>
     </g>
     <g id="text_3">
      <!-- 40 -->
      <g style="fill: #262626" transform="translate(269.882969 100.142289) scale(0.11 -0.11)">
       <defs>
        <path id="ArialMT-34" d="M 2069 0 
L 2069 1097 
L 81 1097 
L 81 1613 
L 2172 4581 
L 2631 4581 
L 2631 1613 
L 3250 1613 
L 3250 1097 
L 2631 1097 
L 2631 0 
L 2069 0 
z
M 2069 1613 
L 2069 3678 
L 634 1613 
L 2069 1613 
z
" transform="scale(0.015625)"/>
       </defs>
       <use xlink:href="#ArialMT-34"/>
       <use xlink:href="#ArialMT-30" x="55.615234"/>
      </g>
     </g>
    </g>
    <g id="xtick_4">
     <g id="line2d_4">
      <g>
       <use xlink:href="#md65ffad017" x="366.731707" y="82.768696" style="fill: #262626; stroke: #262626; stroke-width: 1.25"/>
      </g>
     </g>
     <g id="text_4">
      <!-- 60 -->
      <g style="fill: #262626" transform="translate(360.614676 100.142289) scale(0.11 -0.11)">
       <defs>
        <path id="ArialMT-36" d="M 3184 3459 
L 2625 3416 
Q 2550 3747 2413 3897 
Q 2184 4138 1850 4138 
Q 1581 4138 1378 3988 
Q 1113 3794 959 3422 
Q 806 3050 800 2363 
Q 1003 2672 1297 2822 
Q 1591 2972 1913 2972 
Q 2475 2972 2870 2558 
Q 3266 2144 3266 1488 
Q 3266 1056 3080 686 
Q 2894 316 2569 119 
Q 2244 -78 1831 -78 
Q 1128 -78 684 439 
Q 241 956 241 2144 
Q 241 3472 731 4075 
Q 1159 4600 1884 4600 
Q 2425 4600 2770 4297 
Q 3116 3994 3184 3459 
z
M 888 1484 
Q 888 1194 1011 928 
Q 1134 663 1356 523 
Q 1578 384 1822 384 
Q 2178 384 2434 671 
Q 2691 959 2691 1453 
Q 2691 1928 2437 2201 
Q 2184 2475 1800 2475 
Q 1419 2475 1153 2201 
Q 888 1928 888 1484 
z
" transform="scale(0.015625)"/>
       </defs>
       <use xlink:href="#ArialMT-36"/>
       <use xlink:href="#ArialMT-30" x="55.615234"/>
      </g>
     </g>
    </g>
    <g id="xtick_5">
     <g id="line2d_5">
      <g>
       <use xlink:href="#md65ffad017" x="457.463415" y="82.768696" style="fill: #262626; stroke: #262626; stroke-width: 1.25"/>
      </g>
     </g>
     <g id="text_5">
      <!-- 80 -->
      <g style="fill: #262626" transform="translate(451.346383 100.142289) scale(0.11 -0.11)">
       <defs>
        <path id="ArialMT-38" d="M 1131 2484 
Q 781 2613 612 2850 
Q 444 3088 444 3419 
Q 444 3919 803 4259 
Q 1163 4600 1759 4600 
Q 2359 4600 2725 4251 
Q 3091 3903 3091 3403 
Q 3091 3084 2923 2848 
Q 2756 2613 2416 2484 
Q 2838 2347 3058 2040 
Q 3278 1734 3278 1309 
Q 3278 722 2862 322 
Q 2447 -78 1769 -78 
Q 1091 -78 675 323 
Q 259 725 259 1325 
Q 259 1772 486 2073 
Q 713 2375 1131 2484 
z
M 1019 3438 
Q 1019 3113 1228 2906 
Q 1438 2700 1772 2700 
Q 2097 2700 2305 2904 
Q 2513 3109 2513 3406 
Q 2513 3716 2298 3927 
Q 2084 4138 1766 4138 
Q 1444 4138 1231 3931 
Q 1019 3725 1019 3438 
z
M 838 1322 
Q 838 1081 952 856 
Q 1066 631 1291 507 
Q 1516 384 1775 384 
Q 2178 384 2440 643 
Q 2703 903 2703 1303 
Q 2703 1709 2433 1975 
Q 2163 2241 1756 2241 
Q 1359 2241 1098 1978 
Q 838 1716 838 1322 
z
" transform="scale(0.015625)"/>
       </defs>
       <use xlink:href="#ArialMT-38"/>
       <use xlink:href="#ArialMT-30" x="55.615234"/>
      </g>
     </g>
    </g>
    <g id="xtick_6">
     <g id="line2d_6">
      <g>
       <use xlink:href="#md65ffad017" x="548.195122" y="82.768696" style="fill: #262626; stroke: #262626; stroke-width: 1.25"/>
      </g>
     </g>
     <g id="text_6">
      <!-- 100 -->
      <g style="fill: #262626" transform="translate(539.019575 100.142289) scale(0.11 -0.11)">
       <defs>
        <path id="ArialMT-31" d="M 2384 0 
L 1822 0 
L 1822 3584 
Q 1619 3391 1289 3197 
Q 959 3003 697 2906 
L 697 3450 
Q 1169 3672 1522 3987 
Q 1875 4303 2022 4600 
L 2384 4600 
L 2384 0 
z
" transform="scale(0.015625)"/>
       </defs>
       <use xlink:href="#ArialMT-31"/>
       <use xlink:href="#ArialMT-30" x="55.615234"/>
       <use xlink:href="#ArialMT-30" x="111.230469"/>
      </g>
     </g>
    </g>
    <g id="xtick_7">
     <g id="line2d_7">
      <g>
       <use xlink:href="#md65ffad017" x="638.926829" y="82.768696" style="fill: #262626; stroke: #262626; stroke-width: 1.25"/>
      </g>
     </g>
     <g id="text_7">
      <!-- 120 -->
      <g style="fill: #262626" transform="translate(629.751282 100.142289) scale(0.11 -0.11)">
       <use xlink:href="#ArialMT-31"/>
       <use xlink:href="#ArialMT-32" x="55.615234"/>
       <use xlink:href="#ArialMT-30" x="111.230469"/>
      </g>
     </g>
    </g>
   </g>
   <g id="matplotlib.axis_2">
    <g id="text_8">
     <!-- State 1 -->
     <g style="fill: #262626" transform="translate(40.9875 56.279348) scale(0.12 -0.12)">
      <defs>
       <path id="ArialMT-53" d="M 288 1472 
L 859 1522 
Q 900 1178 1048 958 
Q 1197 738 1509 602 
Q 1822 466 2213 466 
Q 2559 466 2825 569 
Q 3091 672 3220 851 
Q 3350 1031 3350 1244 
Q 3350 1459 3225 1620 
Q 3100 1781 2813 1891 
Q 2628 1963 1997 2114 
Q 1366 2266 1113 2400 
Q 784 2572 623 2826 
Q 463 3081 463 3397 
Q 463 3744 659 4045 
Q 856 4347 1234 4503 
Q 1613 4659 2075 4659 
Q 2584 4659 2973 4495 
Q 3363 4331 3572 4012 
Q 3781 3694 3797 3291 
L 3216 3247 
Q 3169 3681 2898 3903 
Q 2628 4125 2100 4125 
Q 1550 4125 1298 3923 
Q 1047 3722 1047 3438 
Q 1047 3191 1225 3031 
Q 1400 2872 2139 2705 
Q 2878 2538 3153 2413 
Q 3553 2228 3743 1945 
Q 3934 1663 3934 1294 
Q 3934 928 3725 604 
Q 3516 281 3123 101 
Q 2731 -78 2241 -78 
Q 1619 -78 1198 103 
Q 778 284 539 648 
Q 300 1013 288 1472 
z
" transform="scale(0.015625)"/>
       <path id="ArialMT-74" d="M 1650 503 
L 1731 6 
Q 1494 -44 1306 -44 
Q 1000 -44 831 53 
Q 663 150 594 308 
Q 525 466 525 972 
L 525 2881 
L 113 2881 
L 113 3319 
L 525 3319 
L 525 4141 
L 1084 4478 
L 1084 3319 
L 1650 3319 
L 1650 2881 
L 1084 2881 
L 1084 941 
Q 1084 700 1114 631 
Q 1144 563 1211 522 
Q 1278 481 1403 481 
Q 1497 481 1650 503 
z
" transform="scale(0.015625)"/>
       <path id="ArialMT-61" d="M 2588 409 
Q 2275 144 1986 34 
Q 1697 -75 1366 -75 
Q 819 -75 525 192 
Q 231 459 231 875 
Q 231 1119 342 1320 
Q 453 1522 633 1644 
Q 813 1766 1038 1828 
Q 1203 1872 1538 1913 
Q 2219 1994 2541 2106 
Q 2544 2222 2544 2253 
Q 2544 2597 2384 2738 
Q 2169 2928 1744 2928 
Q 1347 2928 1158 2789 
Q 969 2650 878 2297 
L 328 2372 
Q 403 2725 575 2942 
Q 747 3159 1072 3276 
Q 1397 3394 1825 3394 
Q 2250 3394 2515 3294 
Q 2781 3194 2906 3042 
Q 3031 2891 3081 2659 
Q 3109 2516 3109 2141 
L 3109 1391 
Q 3109 606 3145 398 
Q 3181 191 3288 0 
L 2700 0 
Q 2613 175 2588 409 
z
M 2541 1666 
Q 2234 1541 1622 1453 
Q 1275 1403 1131 1340 
Q 988 1278 909 1158 
Q 831 1038 831 891 
Q 831 666 1001 516 
Q 1172 366 1500 366 
Q 1825 366 2078 508 
Q 2331 650 2450 897 
Q 2541 1088 2541 1459 
L 2541 1666 
z
" transform="scale(0.015625)"/>
       <path id="ArialMT-65" d="M 2694 1069 
L 3275 997 
Q 3138 488 2766 206 
Q 2394 -75 1816 -75 
Q 1088 -75 661 373 
Q 234 822 234 1631 
Q 234 2469 665 2931 
Q 1097 3394 1784 3394 
Q 2450 3394 2872 2941 
Q 3294 2488 3294 1666 
Q 3294 1616 3291 1516 
L 816 1516 
Q 847 969 1125 678 
Q 1403 388 1819 388 
Q 2128 388 2347 550 
Q 2566 713 2694 1069 
z
M 847 1978 
L 2700 1978 
Q 2663 2397 2488 2606 
Q 2219 2931 1791 2931 
Q 1403 2931 1139 2672 
Q 875 2413 847 1978 
z
" transform="scale(0.015625)"/>
       <path id="ArialMT-20" transform="scale(0.015625)"/>
      </defs>
      <use xlink:href="#ArialMT-53"/>
      <use xlink:href="#ArialMT-74" x="66.699219"/>
      <use xlink:href="#ArialMT-61" x="94.482422"/>
      <use xlink:href="#ArialMT-74" x="150.097656"/>
      <use xlink:href="#ArialMT-65" x="177.880859"/>
      <use xlink:href="#ArialMT-20" x="233.496094"/>
      <use xlink:href="#ArialMT-31" x="261.279297"/>
     </g>
    </g>
   </g>
   <g id="PolyCollection_1">
    <defs>
     <path id="mbee3312a60" d="M 94.536585 -207.422609 
L 94.536585 -207.422609 
L 99.073171 -207.422609 
L 103.609756 -207.422609 
L 108.146341 -207.422609 
L 112.682927 -207.422609 
L 117.219512 -207.422609 
L 121.756098 -207.422609 
L 126.292683 -207.422609 
L 130.829268 -251.248696 
L 135.365854 -251.248696 
L 139.902439 -251.248696 
L 144.439024 -251.248696 
L 148.97561 -207.422609 
L 153.512195 -207.422609 
L 158.04878 -207.422609 
L 162.585366 -207.422609 
L 167.121951 -207.422609 
L 171.658537 -207.422609 
L 176.195122 -207.422609 
L 180.731707 -251.248696 
L 185.268293 -251.248696 
L 189.804878 -251.248696 
L 194.341463 -251.248696 
L 198.878049 -251.248696 
L 203.414634 -251.248696 
L 207.95122 -251.248696 
L 212.487805 -251.248696 
L 217.02439 -251.248696 
L 221.560976 -251.248696 
L 226.097561 -251.248696 
L 230.634146 -207.422609 
L 235.170732 -207.422609 
L 239.707317 -251.248696 
L 244.243902 -251.248696 
L 248.780488 -251.248696 
L 253.317073 -207.422609 
L 257.853659 -207.422609 
L 262.390244 -207.422609 
L 266.926829 -251.248696 
L 271.463415 -251.248696 
L 276 -251.248696 
L 280.536585 -251.248696 
L 285.073171 -251.248696 
L 289.609756 -251.248696 
L 294.146341 -251.248696 
L 298.682927 -251.248696 
L 303.219512 -251.248696 
L 307.756098 -251.248696 
L 312.292683 -251.248696 
L 316.829268 -251.248696 
L 321.365854 -207.422609 
L 325.902439 -207.422609 
L 330.439024 -207.422609 
L 334.97561 -207.422609 
L 339.512195 -207.422609 
L 344.04878 -207.422609 
L 348.585366 -207.422609 
L 353.121951 -207.422609 
L 357.658537 -207.422609 
L 362.195122 -207.422609 
L 366.731707 -207.422609 
L 371.268293 -207.422609 
L 375.804878 -207.422609 
L 380.341463 -207.422609 
L 384.878049 -207.422609 
L 389.414634 -207.422609 
L 393.95122 -207.422609 
L 398.487805 -207.422609 
L 403.02439 -251.248696 
L 407.560976 -207.422609 
L 412.097561 -207.422609 
L 416.634146 -207.422609 
L 421.170732 -207.422609 
L 425.707317 -207.422609 
L 430.243902 -207.422609 
L 434.780488 -207.422609 
L 439.317073 -207.422609 
L 443.853659 -207.422609 
L 448.390244 -207.422609 
L 452.926829 -207.422609 
L 457.463415 -207.422609 
L 462 -207.422609 
L 466.536585 -207.422609 
L 471.073171 -207.422609 
L 475.609756 -207.422609 
L 480.146341 -207.422609 
L 484.682927 -207.422609 
L 489.219512 -207.422609 
L 493.756098 -207.422609 
L 498.292683 -207.422609 
L 502.829268 -207.422609 
L 507.365854 -207.422609 
L 511.902439 -207.422609 
L 516.439024 -207.422609 
L 520.97561 -207.422609 
L 525.512195 -207.422609 
L 530.04878 -207.422609 
L 534.585366 -207.422609 
L 539.121951 -207.422609 
L 543.658537 -207.422609 
L 548.195122 -207.422609 
L 552.731707 -207.422609 
L 557.268293 -207.422609 
L 561.804878 -207.422609 
L 566.341463 -207.422609 
L 570.878049 -207.422609 
L 575.414634 -207.422609 
L 579.95122 -207.422609 
L 584.487805 -207.422609 
L 589.02439 -207.422609 
L 593.560976 -207.422609 
L 598.097561 -207.422609 
L 602.634146 -207.422609 
L 607.170732 -207.422609 
L 611.707317 -207.422609 
L 616.243902 -207.422609 
L 620.780488 -207.422609 
L 625.317073 -207.422609 
L 629.853659 -207.422609 
L 634.390244 -207.422609 
L 638.926829 -207.422609 
L 638.926829 -207.422609 
L 638.926829 -207.422609 
L 634.390244 -207.422609 
L 629.853659 -207.422609 
L 625.317073 -207.422609 
L 620.780488 -207.422609 
L 616.243902 -207.422609 
L 611.707317 -207.422609 
L 607.170732 -207.422609 
L 602.634146 -207.422609 
L 598.097561 -207.422609 
L 593.560976 -207.422609 
L 589.02439 -207.422609 
L 584.487805 -207.422609 
L 579.95122 -207.422609 
L 575.414634 -207.422609 
L 570.878049 -207.422609 
L 566.341463 -207.422609 
L 561.804878 -207.422609 
L 557.268293 -207.422609 
L 552.731707 -207.422609 
L 548.195122 -207.422609 
L 543.658537 -207.422609 
L 539.121951 -207.422609 
L 534.585366 -207.422609 
L 530.04878 -207.422609 
L 525.512195 -207.422609 
L 520.97561 -207.422609 
L 516.439024 -207.422609 
L 511.902439 -207.422609 
L 507.365854 -207.422609 
L 502.829268 -207.422609 
L 498.292683 -207.422609 
L 493.756098 -207.422609 
L 489.219512 -207.422609 
L 484.682927 -207.422609 
L 480.146341 -207.422609 
L 475.609756 -207.422609 
L 471.073171 -207.422609 
L 466.536585 -207.422609 
L 462 -207.422609 
L 457.463415 -207.422609 
L 452.926829 -207.422609 
L 448.390244 -207.422609 
L 443.853659 -207.422609 
L 439.317073 -207.422609 
L 434.780488 -207.422609 
L 430.243902 -207.422609 
L 425.707317 -207.422609 
L 421.170732 -207.422609 
L 416.634146 -207.422609 
L 412.097561 -207.422609 
L 407.560976 -207.422609 
L 403.02439 -207.422609 
L 398.487805 -207.422609 
L 393.95122 -207.422609 
L 389.414634 -207.422609 
L 384.878049 -207.422609 
L 380.341463 -207.422609 
L 375.804878 -207.422609 
L 371.268293 -207.422609 
L 366.731707 -207.422609 
L 362.195122 -207.422609 
L 357.658537 -207.422609 
L 353.121951 -207.422609 
L 348.585366 -207.422609 
L 344.04878 -207.422609 
L 339.512195 -207.422609 
L 334.97561 -207.422609 
L 330.439024 -207.422609 
L 325.902439 -207.422609 
L 321.365854 -207.422609 
L 316.829268 -207.422609 
L 312.292683 -207.422609 
L 307.756098 -207.422609 
L 303.219512 -207.422609 
L 298.682927 -207.422609 
L 294.146341 -207.422609 
L 289.609756 -207.422609 
L 285.073171 -207.422609 
L 280.536585 -207.422609 
L 276 -207.422609 
L 271.463415 -207.422609 
L 266.926829 -207.422609 
L 262.390244 -207.422609 
L 257.853659 -207.422609 
L 253.317073 -207.422609 
L 248.780488 -207.422609 
L 244.243902 -207.422609 
L 239.707317 -207.422609 
L 235.170732 -207.422609 
L 230.634146 -207.422609 
L 226.097561 -207.422609 
L 221.560976 -207.422609 
L 217.02439 -207.422609 
L 212.487805 -207.422609 
L 207.95122 -207.422609 
L 203.414634 -207.422609 
L 198.878049 -207.422609 
L 194.341463 -207.422609 
L 189.804878 -207.422609 
L 185.268293 -207.422609 
L 180.731707 -207.422609 
L 176.195122 -207.422609 
L 171.658537 -207.422609 
L 167.121951 -207.422609 
L 162.585366 -207.422609 
L 158.04878 -207.422609 
L 153.512195 -207.422609 
L 148.97561 -207.422609 
L 144.439024 -207.422609 
L 139.902439 -207.422609 
L 135.365854 -207.422609 
L 130.829268 -207.422609 
L 126.292683 -207.422609 
L 121.756098 -207.422609 
L 117.219512 -207.422609 
L 112.682927 -207.422609 
L 108.146341 -207.422609 
L 103.609756 -207.422609 
L 99.073171 -207.422609 
L 94.536585 -207.422609 
z
" style="stroke: #d55e00; stroke-opacity: 0.3"/>
    </defs>
    <g clip-path="url(#pf323a2816f)">
     <use xlink:href="#mbee3312a60" x="0" y="288" style="fill: #d55e00; fill-opacity: 0.3; stroke: #d55e00; stroke-opacity: 0.3"/>
    </g>
   </g>
   <g id="line2d_8">
    <path d="M 94.536585 80.577391 
L 99.073171 80.577391 
L 103.609756 80.577391 
L 108.146341 80.577391 
L 112.682927 80.577391 
L 117.219512 80.577391 
L 121.756098 80.577391 
L 126.292683 80.577391 
L 130.829268 36.751304 
L 135.365854 36.751304 
L 139.902439 36.751304 
L 144.439024 36.751304 
L 148.97561 80.577391 
L 153.512195 80.577391 
L 158.04878 80.577391 
L 162.585366 80.577391 
L 167.121951 80.577391 
L 171.658537 80.577391 
L 176.195122 80.577391 
L 180.731707 36.751304 
L 185.268293 36.751304 
L 189.804878 36.751304 
L 194.341463 36.751304 
L 198.878049 36.751304 
L 203.414634 36.751304 
L 207.95122 36.751304 
L 212.487805 36.751304 
L 217.02439 36.751304 
L 221.560976 36.751304 
L 226.097561 36.751304 
L 230.634146 80.577391 
L 235.170732 80.577391 
L 239.707317 36.751304 
L 244.243902 36.751304 
L 248.780488 36.751304 
L 253.317073 80.577391 
L 257.853659 80.577391 
L 262.390244 80.577391 
L 266.926829 36.751304 
L 271.463415 36.751304 
L 276 36.751304 
L 280.536585 36.751304 
L 285.073171 36.751304 
L 289.609756 36.751304 
L 294.146341 36.751304 
L 298.682927 36.751304 
L 303.219512 36.751304 
L 307.756098 36.751304 
L 312.292683 36.751304 
L 316.829268 36.751304 
L 321.365854 80.577391 
L 325.902439 80.577391 
L 330.439024 80.577391 
L 334.97561 80.577391 
L 339.512195 80.577391 
L 344.04878 80.577391 
L 348.585366 80.577391 
L 353.121951 80.577391 
L 357.658537 80.577391 
L 362.195122 80.577391 
L 366.731707 80.577391 
L 371.268293 80.577391 
L 375.804878 80.577391 
L 380.341463 80.577391 
L 384.878049 80.577391 
L 389.414634 80.577391 
L 393.95122 80.577391 
L 398.487805 80.577391 
L 403.02439 36.751304 
L 407.560976 80.577391 
L 412.097561 80.577391 
L 416.634146 80.577391 
L 421.170732 80.577391 
L 425.707317 80.577391 
L 430.243902 80.577391 
L 434.780488 80.577391 
L 439.317073 80.577391 
L 443.853659 80.577391 
L 448.390244 80.577391 
L 452.926829 80.577391 
L 457.463415 80.577391 
L 462 80.577391 
L 466.536585 80.577391 
L 471.073171 80.577391 
L 475.609756 80.577391 
L 480.146341 80.577391 
L 484.682927 80.577391 
L 489.219512 80.577391 
L 493.756098 80.577391 
L 498.292683 80.577391 
L 502.829268 80.577391 
L 507.365854 80.577391 
L 511.902439 80.577391 
L 516.439024 80.577391 
L 520.97561 80.577391 
L 525.512195 80.577391 
L 530.04878 80.577391 
L 534.585366 80.577391 
L 539.121951 80.577391 
L 543.658537 80.577391 
L 548.195122 80.577391 
L 552.731707 80.577391 
L 557.268293 80.577391 
L 561.804878 80.577391 
L 566.341463 80.577391 
L 570.878049 80.577391 
L 575.414634 80.577391 
L 579.95122 80.577391 
L 584.487805 80.577391 
L 589.02439 80.577391 
L 593.560976 80.577391 
L 598.097561 80.577391 
L 602.634146 80.577391 
L 607.170732 80.577391 
L 611.707317 80.577391 
L 616.243902 80.577391 
L 620.780488 80.577391 
L 625.317073 80.577391 
L 629.853659 80.577391 
L 634.390244 80.577391 
L 638.926829 80.577391 
" clip-path="url(#pf323a2816f)" style="fill: none; stroke: #d55e00; stroke-width: 1.5; stroke-linecap: round"/>
   </g>
   <g id="patch_3">
    <path d="M 90 82.768696 
L 90 34.56 
" style="fill: none; stroke: #262626; stroke-width: 1.25; stroke-linejoin: miter; stroke-linecap: square"/>
   </g>
   <g id="patch_4">
    <path d="M 648 82.768696 
L 648 34.56 
" style="fill: none; stroke: #262626; stroke-width: 1.25; stroke-linejoin: miter; stroke-linecap: square"/>
   </g>
   <g id="patch_5">
    <path d="M 90 82.768696 
L 648 82.768696 
" style="fill: none; stroke: #262626; stroke-width: 1.25; stroke-linejoin: miter; stroke-linecap: square"/>
   </g>
   <g id="patch_6">
    <path d="M 90 34.56 
L 648 34.56 
" style="fill: none; stroke: #262626; stroke-width: 1.25; stroke-linejoin: miter; stroke-linecap: square"/>
   </g>
  </g>
  <g id="axes_2">
   <g id="patch_7">
    <path d="M 90 140.61913 
L 648 140.61913 
L 648 92.410435 
L 90 92.410435 
z
" style="fill: #ffffff"/>
   </g>
   <g id="matplotlib.axis_3">
    <g id="xtick_8">
     <g id="line2d_9">
      <g>
       <use xlink:href="#md65ffad017" x="94.536585" y="140.61913" style="fill: #262626; stroke: #262626; stroke-width: 1.25"/>
      </g>
     </g>
     <g id="text_9">
      <!-- 0 -->
      <g style="fill: #262626" transform="translate(91.47807 157.992724) scale(0.11 -0.11)">
       <use xlink:href="#ArialMT-30"/>
      </g>
     </g>
    </g>
    <g id="xtick_9">
     <g id="line2d_10">
      <g>
       <use xlink:href="#md65ffad017" x="185.268293" y="140.61913" style="fill: #262626; stroke: #262626; stroke-width: 1.25"/>
      </g>
     </g>
     <g id="text_10">
      <!-- 20 -->
      <g style="fill: #262626" transform="translate(179.151261 157.992724) scale(0.11 -0.11)">
       <use xlink:href="#ArialMT-32"/>
       <use xlink:href="#ArialMT-30" x="55.615234"/>
      </g>
     </g>
    </g>
    <g id="xtick_10">
     <g id="line2d_11">
      <g>
       <use xlink:href="#md65ffad017" x="276" y="140.61913" style="fill: #262626; stroke: #262626; stroke-width: 1.25"/>
      </g>
     </g>
     <g id="text_11">
      <!-- 40 -->
      <g style="fill: #262626" transform="translate(269.882969 157.992724) scale(0.11 -0.11)">
       <use xlink:href="#ArialMT-34"/>
       <use xlink:href="#ArialMT-30" x="55.615234"/>
      </g>
     </g>
    </g>
    <g id="xtick_11">
     <g id="line2d_12">
      <g>
       <use xlink:href="#md65ffad017" x="366.731707" y="140.61913" style="fill: #262626; stroke: #262626; stroke-width: 1.25"/>
      </g>
     </g>
     <g id="text_12">
      <!-- 60 -->
      <g style="fill: #262626" transform="translate(360.614676 157.992724) scale(0.11 -0.11)">
       <use xlink:href="#ArialMT-36"/>
       <use xlink:href="#ArialMT-30" x="55.615234"/>
      </g>
     </g>
    </g>
    <g id="xtick_12">
     <g id="line2d_13">
      <g>
       <use xlink:href="#md65ffad017" x="457.463415" y="140.61913" style="fill: #262626; stroke: #262626; stroke-width: 1.25"/>
      </g>
     </g>
     <g id="text_13">
      <!-- 80 -->
      <g style="fill: #262626" transform="translate(451.346383 157.992724) scale(0.11 -0.11)">
       <use xlink:href="#ArialMT-38"/>
       <use xlink:href="#ArialMT-30" x="55.615234"/>
      </g>
     </g>
    </g>
    <g id="xtick_13">
     <g id="line2d_14">
      <g>
       <use xlink:href="#md65ffad017" x="548.195122" y="140.61913" style="fill: #262626; stroke: #262626; stroke-width: 1.25"/>
      </g>
     </g>
     <g id="text_14">
      <!-- 100 -->
      <g style="fill: #262626" transform="translate(539.019575 157.992724) scale(0.11 -0.11)">
       <use xlink:href="#ArialMT-31"/>
       <use xlink:href="#ArialMT-30" x="55.615234"/>
       <use xlink:href="#ArialMT-30" x="111.230469"/>
      </g>
     </g>
    </g>
    <g id="xtick_14">
     <g id="line2d_15">
      <g>
       <use xlink:href="#md65ffad017" x="638.926829" y="140.61913" style="fill: #262626; stroke: #262626; stroke-width: 1.25"/>
      </g>
     </g>
     <g id="text_15">
      <!-- 120 -->
      <g style="fill: #262626" transform="translate(629.751282 157.992724) scale(0.11 -0.11)">
       <use xlink:href="#ArialMT-31"/>
       <use xlink:href="#ArialMT-32" x="55.615234"/>
       <use xlink:href="#ArialMT-30" x="111.230469"/>
      </g>
     </g>
    </g>
   </g>
   <g id="matplotlib.axis_4">
    <g id="text_16">
     <!-- State 2 -->
     <g style="fill: #262626" transform="translate(40.9875 114.129783) scale(0.12 -0.12)">
      <use xlink:href="#ArialMT-53"/>
      <use xlink:href="#ArialMT-74" x="66.699219"/>
      <use xlink:href="#ArialMT-61" x="94.482422"/>
      <use xlink:href="#ArialMT-74" x="150.097656"/>
      <use xlink:href="#ArialMT-65" x="177.880859"/>
      <use xlink:href="#ArialMT-20" x="233.496094"/>
      <use xlink:href="#ArialMT-32" x="261.279297"/>
     </g>
    </g>
   </g>
   <g id="PolyCollection_2">
    <defs>
     <path id="ma43dbeab47" d="M 94.536585 -149.572174 
L 94.536585 -149.572174 
L 99.073171 -149.572174 
L 103.609756 -149.572174 
L 108.146341 -149.572174 
L 112.682927 -149.572174 
L 117.219512 -149.572174 
L 121.756098 -149.572174 
L 126.292683 -149.572174 
L 130.829268 -149.572174 
L 135.365854 -149.572174 
L 139.902439 -149.572174 
L 144.439024 -149.572174 
L 148.97561 -149.572174 
L 153.512195 -149.572174 
L 158.04878 -149.572174 
L 162.585366 -149.572174 
L 167.121951 -149.572174 
L 171.658537 -149.572174 
L 176.195122 -149.572174 
L 180.731707 -149.572174 
L 185.268293 -149.572174 
L 189.804878 -149.572174 
L 194.341463 -149.572174 
L 198.878049 -149.572174 
L 203.414634 -149.572174 
L 207.95122 -149.572174 
L 212.487805 -149.572174 
L 217.02439 -149.572174 
L 221.560976 -149.572174 
L 226.097561 -149.572174 
L 230.634146 -149.572174 
L 235.170732 -149.572174 
L 239.707317 -149.572174 
L 244.243902 -149.572174 
L 248.780488 -149.572174 
L 253.317073 -149.572174 
L 257.853659 -149.572174 
L 262.390244 -149.572174 
L 266.926829 -149.572174 
L 271.463415 -149.572174 
L 276 -149.572174 
L 280.536585 -149.572174 
L 285.073171 -149.572174 
L 289.609756 -149.572174 
L 294.146341 -149.572174 
L 298.682927 -149.572174 
L 303.219512 -149.572174 
L 307.756098 -149.572174 
L 312.292683 -149.572174 
L 316.829268 -149.572174 
L 321.365854 -149.572174 
L 325.902439 -149.572174 
L 330.439024 -149.572174 
L 334.97561 -149.572174 
L 339.512195 -149.572174 
L 344.04878 -149.572174 
L 348.585366 -149.572174 
L 353.121951 -149.572174 
L 357.658537 -149.572174 
L 362.195122 -149.572174 
L 366.731707 -149.572174 
L 371.268293 -149.572174 
L 375.804878 -149.572174 
L 380.341463 -149.572174 
L 384.878049 -149.572174 
L 389.414634 -149.572174 
L 393.95122 -149.572174 
L 398.487805 -149.572174 
L 403.02439 -149.572174 
L 407.560976 -149.572174 
L 412.097561 -149.572174 
L 416.634146 -149.572174 
L 421.170732 -149.572174 
L 425.707317 -149.572174 
L 430.243902 -149.572174 
L 434.780488 -149.572174 
L 439.317073 -149.572174 
L 443.853659 -149.572174 
L 448.390244 -149.572174 
L 452.926829 -149.572174 
L 457.463415 -149.572174 
L 462 -149.572174 
L 466.536585 -149.572174 
L 471.073171 -149.572174 
L 475.609756 -149.572174 
L 480.146341 -149.572174 
L 484.682927 -149.572174 
L 489.219512 -149.572174 
L 493.756098 -149.572174 
L 498.292683 -149.572174 
L 502.829268 -149.572174 
L 507.365854 -149.572174 
L 511.902439 -149.572174 
L 516.439024 -193.398261 
L 520.97561 -193.398261 
L 525.512195 -193.398261 
L 530.04878 -193.398261 
L 534.585366 -193.398261 
L 539.121951 -193.398261 
L 543.658537 -193.398261 
L 548.195122 -193.398261 
L 552.731707 -193.398261 
L 557.268293 -193.398261 
L 561.804878 -193.398261 
L 566.341463 -193.398261 
L 570.878049 -193.398261 
L 575.414634 -149.572174 
L 579.95122 -193.398261 
L 584.487805 -193.398261 
L 589.02439 -193.398261 
L 593.560976 -193.398261 
L 598.097561 -193.398261 
L 602.634146 -193.398261 
L 607.170732 -193.398261 
L 611.707317 -193.398261 
L 616.243902 -193.398261 
L 620.780488 -193.398261 
L 625.317073 -193.398261 
L 629.853659 -193.398261 
L 634.390244 -193.398261 
L 638.926829 -193.398261 
L 638.926829 -149.572174 
L 638.926829 -149.572174 
L 634.390244 -149.572174 
L 629.853659 -149.572174 
L 625.317073 -149.572174 
L 620.780488 -149.572174 
L 616.243902 -149.572174 
L 611.707317 -149.572174 
L 607.170732 -149.572174 
L 602.634146 -149.572174 
L 598.097561 -149.572174 
L 593.560976 -149.572174 
L 589.02439 -149.572174 
L 584.487805 -149.572174 
L 579.95122 -149.572174 
L 575.414634 -149.572174 
L 570.878049 -149.572174 
L 566.341463 -149.572174 
L 561.804878 -149.572174 
L 557.268293 -149.572174 
L 552.731707 -149.572174 
L 548.195122 -149.572174 
L 543.658537 -149.572174 
L 539.121951 -149.572174 
L 534.585366 -149.572174 
L 530.04878 -149.572174 
L 525.512195 -149.572174 
L 520.97561 -149.572174 
L 516.439024 -149.572174 
L 511.902439 -149.572174 
L 507.365854 -149.572174 
L 502.829268 -149.572174 
L 498.292683 -149.572174 
L 493.756098 -149.572174 
L 489.219512 -149.572174 
L 484.682927 -149.572174 
L 480.146341 -149.572174 
L 475.609756 -149.572174 
L 471.073171 -149.572174 
L 466.536585 -149.572174 
L 462 -149.572174 
L 457.463415 -149.572174 
L 452.926829 -149.572174 
L 448.390244 -149.572174 
L 443.853659 -149.572174 
L 439.317073 -149.572174 
L 434.780488 -149.572174 
L 430.243902 -149.572174 
L 425.707317 -149.572174 
L 421.170732 -149.572174 
L 416.634146 -149.572174 
L 412.097561 -149.572174 
L 407.560976 -149.572174 
L 403.02439 -149.572174 
L 398.487805 -149.572174 
L 393.95122 -149.572174 
L 389.414634 -149.572174 
L 384.878049 -149.572174 
L 380.341463 -149.572174 
L 375.804878 -149.572174 
L 371.268293 -149.572174 
L 366.731707 -149.572174 
L 362.195122 -149.572174 
L 357.658537 -149.572174 
L 353.121951 -149.572174 
L 348.585366 -149.572174 
L 344.04878 -149.572174 
L 339.512195 -149.572174 
L 334.97561 -149.572174 
L 330.439024 -149.572174 
L 325.902439 -149.572174 
L 321.365854 -149.572174 
L 316.829268 -149.572174 
L 312.292683 -149.572174 
L 307.756098 -149.572174 
L 303.219512 -149.572174 
L 298.682927 -149.572174 
L 294.146341 -149.572174 
L 289.609756 -149.572174 
L 285.073171 -149.572174 
L 280.536585 -149.572174 
L 276 -149.572174 
L 271.463415 -149.572174 
L 266.926829 -149.572174 
L 262.390244 -149.572174 
L 257.853659 -149.572174 
L 253.317073 -149.572174 
L 248.780488 -149.572174 
L 244.243902 -149.572174 
L 239.707317 -149.572174 
L 235.170732 -149.572174 
L 230.634146 -149.572174 
L 226.097561 -149.572174 
L 221.560976 -149.572174 
L 217.02439 -149.572174 
L 212.487805 -149.572174 
L 207.95122 -149.572174 
L 203.414634 -149.572174 
L 198.878049 -149.572174 
L 194.341463 -149.572174 
L 189.804878 -149.572174 
L 185.268293 -149.572174 
L 180.731707 -149.572174 
L 176.195122 -149.572174 
L 171.658537 -149.572174 
L 167.121951 -149.572174 
L 162.585366 -149.572174 
L 158.04878 -149.572174 
L 153.512195 -149.572174 
L 148.97561 -149.572174 
L 144.439024 -149.572174 
L 139.902439 -149.572174 
L 135.365854 -149.572174 
L 130.829268 -149.572174 
L 126.292683 -149.572174 
L 121.756098 -149.572174 
L 117.219512 -149.572174 
L 112.682927 -149.572174 
L 108.146341 -149.572174 
L 103.609756 -149.572174 
L 99.073171 -149.572174 
L 94.536585 -149.572174 
z
" style="stroke: #0072b2; stroke-opacity: 0.3"/>
    </defs>
    <g clip-path="url(#pe4901829b7)">
     <use xlink:href="#ma43dbeab47" x="0" y="288" style="fill: #0072b2; fill-opacity: 0.3; stroke: #0072b2; stroke-opacity: 0.3"/>
    </g>
   </g>
   <g id="line2d_16">
    <path d="M 94.536585 138.427826 
L 99.073171 138.427826 
L 103.609756 138.427826 
L 108.146341 138.427826 
L 112.682927 138.427826 
L 117.219512 138.427826 
L 121.756098 138.427826 
L 126.292683 138.427826 
L 130.829268 138.427826 
L 135.365854 138.427826 
L 139.902439 138.427826 
L 144.439024 138.427826 
L 148.97561 138.427826 
L 153.512195 138.427826 
L 158.04878 138.427826 
L 162.585366 138.427826 
L 167.121951 138.427826 
L 171.658537 138.427826 
L 176.195122 138.427826 
L 180.731707 138.427826 
L 185.268293 138.427826 
L 189.804878 138.427826 
L 194.341463 138.427826 
L 198.878049 138.427826 
L 203.414634 138.427826 
L 207.95122 138.427826 
L 212.487805 138.427826 
L 217.02439 138.427826 
L 221.560976 138.427826 
L 226.097561 138.427826 
L 230.634146 138.427826 
L 235.170732 138.427826 
L 239.707317 138.427826 
L 244.243902 138.427826 
L 248.780488 138.427826 
L 253.317073 138.427826 
L 257.853659 138.427826 
L 262.390244 138.427826 
L 266.926829 138.427826 
L 271.463415 138.427826 
L 276 138.427826 
L 280.536585 138.427826 
L 285.073171 138.427826 
L 289.609756 138.427826 
L 294.146341 138.427826 
L 298.682927 138.427826 
L 303.219512 138.427826 
L 307.756098 138.427826 
L 312.292683 138.427826 
L 316.829268 138.427826 
L 321.365854 138.427826 
L 325.902439 138.427826 
L 330.439024 138.427826 
L 334.97561 138.427826 
L 339.512195 138.427826 
L 344.04878 138.427826 
L 348.585366 138.427826 
L 353.121951 138.427826 
L 357.658537 138.427826 
L 362.195122 138.427826 
L 366.731707 138.427826 
L 371.268293 138.427826 
L 375.804878 138.427826 
L 380.341463 138.427826 
L 384.878049 138.427826 
L 389.414634 138.427826 
L 393.95122 138.427826 
L 398.487805 138.427826 
L 403.02439 138.427826 
L 407.560976 138.427826 
L 412.097561 138.427826 
L 416.634146 138.427826 
L 421.170732 138.427826 
L 425.707317 138.427826 
L 430.243902 138.427826 
L 434.780488 138.427826 
L 439.317073 138.427826 
L 443.853659 138.427826 
L 448.390244 138.427826 
L 452.926829 138.427826 
L 457.463415 138.427826 
L 462 138.427826 
L 466.536585 138.427826 
L 471.073171 138.427826 
L 475.609756 138.427826 
L 480.146341 138.427826 
L 484.682927 138.427826 
L 489.219512 138.427826 
L 493.756098 138.427826 
L 498.292683 138.427826 
L 502.829268 138.427826 
L 507.365854 138.427826 
L 511.902439 138.427826 
L 516.439024 94.601739 
L 520.97561 94.601739 
L 525.512195 94.601739 
L 530.04878 94.601739 
L 534.585366 94.601739 
L 539.121951 94.601739 
L 543.658537 94.601739 
L 548.195122 94.601739 
L 552.731707 94.601739 
L 557.268293 94.601739 
L 561.804878 94.601739 
L 566.341463 94.601739 
L 570.878049 94.601739 
L 575.414634 138.427826 
L 579.95122 94.601739 
L 584.487805 94.601739 
L 589.02439 94.601739 
L 593.560976 94.601739 
L 598.097561 94.601739 
L 602.634146 94.601739 
L 607.170732 94.601739 
L 611.707317 94.601739 
L 616.243902 94.601739 
L 620.780488 94.601739 
L 625.317073 94.601739 
L 629.853659 94.601739 
L 634.390244 94.601739 
L 638.926829 94.601739 
" clip-path="url(#pe4901829b7)" style="fill: none; stroke: #0072b2; stroke-width: 1.5; stroke-linecap: round"/>
   </g>
   <g id="patch_8">
    <path d="M 90 140.61913 
L 90 92.410435 
" style="fill: none; stroke: #262626; stroke-width: 1.25; stroke-linejoin: miter; stroke-linecap: square"/>
   </g>
   <g id="patch_9">
    <path d="M 648 140.61913 
L 648 92.410435 
" style="fill: none; stroke: #262626; stroke-width: 1.25; stroke-linejoin: miter; stroke-linecap: square"/>
   </g>
   <g id="patch_10">
    <path d="M 90 140.61913 
L 648 140.61913 
" style="fill: none; stroke: #262626; stroke-width: 1.25; stroke-linejoin: miter; stroke-linecap: square"/>
   </g>
   <g id="patch_11">
    <path d="M 90 92.410435 
L 648 92.410435 
" style="fill: none; stroke: #262626; stroke-width: 1.25; stroke-linejoin: miter; stroke-linecap: square"/>
   </g>
  </g>
  <g id="axes_3">
   <g id="patch_12">
    <path d="M 90 198.469565 
L 648 198.469565 
L 648 150.26087 
L 90 150.26087 
z
" style="fill: #ffffff"/>
   </g>
   <g id="matplotlib.axis_5">
    <g id="xtick_15">
     <g id="line2d_17">
      <g>
       <use xlink:href="#md65ffad017" x="94.536585" y="198.469565" style="fill: #262626; stroke: #262626; stroke-width: 1.25"/>
      </g>
     </g>
     <g id="text_17">
      <!-- 0 -->
      <g style="fill: #262626" transform="translate(91.47807 215.843159) scale(0.11 -0.11)">
       <use xlink:href="#ArialMT-30"/>
      </g>
     </g>
    </g>
    <g id="xtick_16">
     <g id="line2d_18">
      <g>
       <use xlink:href="#md65ffad017" x="185.268293" y="198.469565" style="fill: #262626; stroke: #262626; stroke-width: 1.25"/>
      </g>
     </g>
     <g id="text_18">
      <!-- 20 -->
      <g style="fill: #262626" transform="translate(179.151261 215.843159) scale(0.11 -0.11)">
       <use xlink:href="#ArialMT-32"/>
       <use xlink:href="#ArialMT-30" x="55.615234"/>
      </g>
     </g>
    </g>
    <g id="xtick_17">
     <g id="line2d_19">
      <g>
       <use xlink:href="#md65ffad017" x="276" y="198.469565" style="fill: #262626; stroke: #262626; stroke-width: 1.25"/>
      </g>
     </g>
     <g id="text_19">
      <!-- 40 -->
      <g style="fill: #262626" transform="translate(269.882969 215.843159) scale(0.11 -0.11)">
       <use xlink:href="#ArialMT-34"/>
       <use xlink:href="#ArialMT-30" x="55.615234"/>
      </g>
     </g>
    </g>
    <g id="xtick_18">
     <g id="line2d_20">
      <g>
       <use xlink:href="#md65ffad017" x="366.731707" y="198.469565" style="fill: #262626; stroke: #262626; stroke-width: 1.25"/>
      </g>
     </g>
     <g id="text_20">
      <!-- 60 -->
      <g style="fill: #262626" transform="translate(360.614676 215.843159) scale(0.11 -0.11)">
       <use xlink:href="#ArialMT-36"/>
       <use xlink:href="#ArialMT-30" x="55.615234"/>
      </g>
     </g>
    </g>
    <g id="xtick_19">
     <g id="line2d_21">
      <g>
       <use xlink:href="#md65ffad017" x="457.463415" y="198.469565" style="fill: #262626; stroke: #262626; stroke-width: 1.25"/>
      </g>
     </g>
     <g id="text_21">
      <!-- 80 -->
      <g style="fill: #262626" transform="translate(451.346383 215.843159) scale(0.11 -0.11)">
       <use xlink:href="#ArialMT-38"/>
       <use xlink:href="#ArialMT-30" x="55.615234"/>
      </g>
     </g>
    </g>
    <g id="xtick_20">
     <g id="line2d_22">
      <g>
       <use xlink:href="#md65ffad017" x="548.195122" y="198.469565" style="fill: #262626; stroke: #262626; stroke-width: 1.25"/>
      </g>
     </g>
     <g id="text_22">
      <!-- 100 -->
      <g style="fill: #262626" transform="translate(539.019575 215.843159) scale(0.11 -0.11)">
       <use xlink:href="#ArialMT-31"/>
       <use xlink:href="#ArialMT-30" x="55.615234"/>
       <use xlink:href="#ArialMT-30" x="111.230469"/>
      </g>
     </g>
    </g>
    <g id="xtick_21">
     <g id="line2d_23">
      <g>
       <use xlink:href="#md65ffad017" x="638.926829" y="198.469565" style="fill: #262626; stroke: #262626; stroke-width: 1.25"/>
      </g>
     </g>
     <g id="text_23">
      <!-- 120 -->
      <g style="fill: #262626" transform="translate(629.751282 215.843159) scale(0.11 -0.11)">
       <use xlink:href="#ArialMT-31"/>
       <use xlink:href="#ArialMT-32" x="55.615234"/>
       <use xlink:href="#ArialMT-30" x="111.230469"/>
      </g>
     </g>
    </g>
   </g>
   <g id="matplotlib.axis_6">
    <g id="text_24">
     <!-- State 3 -->
     <g style="fill: #262626" transform="translate(40.9875 171.980217) scale(0.12 -0.12)">
      <defs>
       <path id="ArialMT-33" d="M 269 1209 
L 831 1284 
Q 928 806 1161 595 
Q 1394 384 1728 384 
Q 2125 384 2398 659 
Q 2672 934 2672 1341 
Q 2672 1728 2419 1979 
Q 2166 2231 1775 2231 
Q 1616 2231 1378 2169 
L 1441 2663 
Q 1497 2656 1531 2656 
Q 1891 2656 2178 2843 
Q 2466 3031 2466 3422 
Q 2466 3731 2256 3934 
Q 2047 4138 1716 4138 
Q 1388 4138 1169 3931 
Q 950 3725 888 3313 
L 325 3413 
Q 428 3978 793 4289 
Q 1159 4600 1703 4600 
Q 2078 4600 2393 4439 
Q 2709 4278 2876 4000 
Q 3044 3722 3044 3409 
Q 3044 3113 2884 2869 
Q 2725 2625 2413 2481 
Q 2819 2388 3044 2092 
Q 3269 1797 3269 1353 
Q 3269 753 2831 336 
Q 2394 -81 1725 -81 
Q 1122 -81 723 278 
Q 325 638 269 1209 
z
" transform="scale(0.015625)"/>
      </defs>
      <use xlink:href="#ArialMT-53"/>
      <use xlink:href="#ArialMT-74" x="66.699219"/>
      <use xlink:href="#ArialMT-61" x="94.482422"/>
      <use xlink:href="#ArialMT-74" x="150.097656"/>
      <use xlink:href="#ArialMT-65" x="177.880859"/>
      <use xlink:href="#ArialMT-20" x="233.496094"/>
      <use xlink:href="#ArialMT-33" x="261.279297"/>
     </g>
    </g>
   </g>
   <g id="PolyCollection_3">
    <defs>
     <path id="m3a7412f53d" d="M 94.536585 -91.721739 
L 94.536585 -91.721739 
L 99.073171 -91.721739 
L 103.609756 -91.721739 
L 108.146341 -91.721739 
L 112.682927 -91.721739 
L 117.219512 -91.721739 
L 121.756098 -91.721739 
L 126.292683 -91.721739 
L 130.829268 -91.721739 
L 135.365854 -91.721739 
L 139.902439 -91.721739 
L 144.439024 -91.721739 
L 148.97561 -91.721739 
L 153.512195 -91.721739 
L 158.04878 -91.721739 
L 162.585366 -91.721739 
L 167.121951 -135.547826 
L 171.658537 -135.547826 
L 176.195122 -135.547826 
L 180.731707 -91.721739 
L 185.268293 -91.721739 
L 189.804878 -91.721739 
L 194.341463 -91.721739 
L 198.878049 -91.721739 
L 203.414634 -91.721739 
L 207.95122 -91.721739 
L 212.487805 -91.721739 
L 217.02439 -91.721739 
L 221.560976 -91.721739 
L 226.097561 -91.721739 
L 230.634146 -91.721739 
L 235.170732 -91.721739 
L 239.707317 -91.721739 
L 244.243902 -91.721739 
L 248.780488 -91.721739 
L 253.317073 -91.721739 
L 257.853659 -91.721739 
L 262.390244 -91.721739 
L 266.926829 -91.721739 
L 271.463415 -91.721739 
L 276 -91.721739 
L 280.536585 -91.721739 
L 285.073171 -91.721739 
L 289.609756 -91.721739 
L 294.146341 -91.721739 
L 298.682927 -91.721739 
L 303.219512 -91.721739 
L 307.756098 -91.721739 
L 312.292683 -91.721739 
L 316.829268 -91.721739 
L 321.365854 -91.721739 
L 325.902439 -91.721739 
L 330.439024 -91.721739 
L 334.97561 -91.721739 
L 339.512195 -91.721739 
L 344.04878 -91.721739 
L 348.585366 -91.721739 
L 353.121951 -91.721739 
L 357.658537 -91.721739 
L 362.195122 -91.721739 
L 366.731707 -91.721739 
L 371.268293 -91.721739 
L 375.804878 -91.721739 
L 380.341463 -91.721739 
L 384.878049 -91.721739 
L 389.414634 -91.721739 
L 393.95122 -91.721739 
L 398.487805 -91.721739 
L 403.02439 -91.721739 
L 407.560976 -91.721739 
L 412.097561 -91.721739 
L 416.634146 -91.721739 
L 421.170732 -91.721739 
L 425.707317 -91.721739 
L 430.243902 -91.721739 
L 434.780488 -91.721739 
L 439.317073 -91.721739 
L 443.853659 -91.721739 
L 448.390244 -91.721739 
L 452.926829 -91.721739 
L 457.463415 -91.721739 
L 462 -91.721739 
L 466.536585 -91.721739 
L 471.073171 -91.721739 
L 475.609756 -91.721739 
L 480.146341 -91.721739 
L 484.682927 -91.721739 
L 489.219512 -91.721739 
L 493.756098 -91.721739 
L 498.292683 -91.721739 
L 502.829268 -91.721739 
L 507.365854 -91.721739 
L 511.902439 -91.721739 
L 516.439024 -91.721739 
L 520.97561 -91.721739 
L 525.512195 -91.721739 
L 530.04878 -91.721739 
L 534.585366 -91.721739 
L 539.121951 -91.721739 
L 543.658537 -91.721739 
L 548.195122 -91.721739 
L 552.731707 -91.721739 
L 557.268293 -91.721739 
L 561.804878 -91.721739 
L 566.341463 -91.721739 
L 570.878049 -91.721739 
L 575.414634 -135.547826 
L 579.95122 -91.721739 
L 584.487805 -91.721739 
L 589.02439 -91.721739 
L 593.560976 -91.721739 
L 598.097561 -91.721739 
L 602.634146 -91.721739 
L 607.170732 -91.721739 
L 611.707317 -91.721739 
L 616.243902 -91.721739 
L 620.780488 -91.721739 
L 625.317073 -91.721739 
L 629.853659 -91.721739 
L 634.390244 -91.721739 
L 638.926829 -91.721739 
L 638.926829 -91.721739 
L 638.926829 -91.721739 
L 634.390244 -91.721739 
L 629.853659 -91.721739 
L 625.317073 -91.721739 
L 620.780488 -91.721739 
L 616.243902 -91.721739 
L 611.707317 -91.721739 
L 607.170732 -91.721739 
L 602.634146 -91.721739 
L 598.097561 -91.721739 
L 593.560976 -91.721739 
L 589.02439 -91.721739 
L 584.487805 -91.721739 
L 579.95122 -91.721739 
L 575.414634 -91.721739 
L 570.878049 -91.721739 
L 566.341463 -91.721739 
L 561.804878 -91.721739 
L 557.268293 -91.721739 
L 552.731707 -91.721739 
L 548.195122 -91.721739 
L 543.658537 -91.721739 
L 539.121951 -91.721739 
L 534.585366 -91.721739 
L 530.04878 -91.721739 
L 525.512195 -91.721739 
L 520.97561 -91.721739 
L 516.439024 -91.721739 
L 511.902439 -91.721739 
L 507.365854 -91.721739 
L 502.829268 -91.721739 
L 498.292683 -91.721739 
L 493.756098 -91.721739 
L 489.219512 -91.721739 
L 484.682927 -91.721739 
L 480.146341 -91.721739 
L 475.609756 -91.721739 
L 471.073171 -91.721739 
L 466.536585 -91.721739 
L 462 -91.721739 
L 457.463415 -91.721739 
L 452.926829 -91.721739 
L 448.390244 -91.721739 
L 443.853659 -91.721739 
L 439.317073 -91.721739 
L 434.780488 -91.721739 
L 430.243902 -91.721739 
L 425.707317 -91.721739 
L 421.170732 -91.721739 
L 416.634146 -91.721739 
L 412.097561 -91.721739 
L 407.560976 -91.721739 
L 403.02439 -91.721739 
L 398.487805 -91.721739 
L 393.95122 -91.721739 
L 389.414634 -91.721739 
L 384.878049 -91.721739 
L 380.341463 -91.721739 
L 375.804878 -91.721739 
L 371.268293 -91.721739 
L 366.731707 -91.721739 
L 362.195122 -91.721739 
L 357.658537 -91.721739 
L 353.121951 -91.721739 
L 348.585366 -91.721739 
L 344.04878 -91.721739 
L 339.512195 -91.721739 
L 334.97561 -91.721739 
L 330.439024 -91.721739 
L 325.902439 -91.721739 
L 321.365854 -91.721739 
L 316.829268 -91.721739 
L 312.292683 -91.721739 
L 307.756098 -91.721739 
L 303.219512 -91.721739 
L 298.682927 -91.721739 
L 294.146341 -91.721739 
L 289.609756 -91.721739 
L 285.073171 -91.721739 
L 280.536585 -91.721739 
L 276 -91.721739 
L 271.463415 -91.721739 
L 266.926829 -91.721739 
L 262.390244 -91.721739 
L 257.853659 -91.721739 
L 253.317073 -91.721739 
L 248.780488 -91.721739 
L 244.243902 -91.721739 
L 239.707317 -91.721739 
L 235.170732 -91.721739 
L 230.634146 -91.721739 
L 226.097561 -91.721739 
L 221.560976 -91.721739 
L 217.02439 -91.721739 
L 212.487805 -91.721739 
L 207.95122 -91.721739 
L 203.414634 -91.721739 
L 198.878049 -91.721739 
L 194.341463 -91.721739 
L 189.804878 -91.721739 
L 185.268293 -91.721739 
L 180.731707 -91.721739 
L 176.195122 -91.721739 
L 171.658537 -91.721739 
L 167.121951 -91.721739 
L 162.585366 -91.721739 
L 158.04878 -91.721739 
L 153.512195 -91.721739 
L 148.97561 -91.721739 
L 144.439024 -91.721739 
L 139.902439 -91.721739 
L 135.365854 -91.721739 
L 130.829268 -91.721739 
L 126.292683 -91.721739 
L 121.756098 -91.721739 
L 117.219512 -91.721739 
L 112.682927 -91.721739 
L 108.146341 -91.721739 
L 103.609756 -91.721739 
L 99.073171 -91.721739 
L 94.536585 -91.721739 
z
" style="stroke: #009e73; stroke-opacity: 0.3"/>
    </defs>
    <g clip-path="url(#pb681ca1988)">
     <use xlink:href="#m3a7412f53d" x="0" y="288" style="fill: #009e73; fill-opacity: 0.3; stroke: #009e73; stroke-opacity: 0.3"/>
    </g>
   </g>
   <g id="line2d_24">
    <path d="M 94.536585 196.278261 
L 99.073171 196.278261 
L 103.609756 196.278261 
L 108.146341 196.278261 
L 112.682927 196.278261 
L 117.219512 196.278261 
L 121.756098 196.278261 
L 126.292683 196.278261 
L 130.829268 196.278261 
L 135.365854 196.278261 
L 139.902439 196.278261 
L 144.439024 196.278261 
L 148.97561 196.278261 
L 153.512195 196.278261 
L 158.04878 196.278261 
L 162.585366 196.278261 
L 167.121951 152.452174 
L 171.658537 152.452174 
L 176.195122 152.452174 
L 180.731707 196.278261 
L 185.268293 196.278261 
L 189.804878 196.278261 
L 194.341463 196.278261 
L 198.878049 196.278261 
L 203.414634 196.278261 
L 207.95122 196.278261 
L 212.487805 196.278261 
L 217.02439 196.278261 
L 221.560976 196.278261 
L 226.097561 196.278261 
L 230.634146 196.278261 
L 235.170732 196.278261 
L 239.707317 196.278261 
L 244.243902 196.278261 
L 248.780488 196.278261 
L 253.317073 196.278261 
L 257.853659 196.278261 
L 262.390244 196.278261 
L 266.926829 196.278261 
L 271.463415 196.278261 
L 276 196.278261 
L 280.536585 196.278261 
L 285.073171 196.278261 
L 289.609756 196.278261 
L 294.146341 196.278261 
L 298.682927 196.278261 
L 303.219512 196.278261 
L 307.756098 196.278261 
L 312.292683 196.278261 
L 316.829268 196.278261 
L 321.365854 196.278261 
L 325.902439 196.278261 
L 330.439024 196.278261 
L 334.97561 196.278261 
L 339.512195 196.278261 
L 344.04878 196.278261 
L 348.585366 196.278261 
L 353.121951 196.278261 
L 357.658537 196.278261 
L 362.195122 196.278261 
L 366.731707 196.278261 
L 371.268293 196.278261 
L 375.804878 196.278261 
L 380.341463 196.278261 
L 384.878049 196.278261 
L 389.414634 196.278261 
L 393.95122 196.278261 
L 398.487805 196.278261 
L 403.02439 196.278261 
L 407.560976 196.278261 
L 412.097561 196.278261 
L 416.634146 196.278261 
L 421.170732 196.278261 
L 425.707317 196.278261 
L 430.243902 196.278261 
L 434.780488 196.278261 
L 439.317073 196.278261 
L 443.853659 196.278261 
L 448.390244 196.278261 
L 452.926829 196.278261 
L 457.463415 196.278261 
L 462 196.278261 
L 466.536585 196.278261 
L 471.073171 196.278261 
L 475.609756 196.278261 
L 480.146341 196.278261 
L 484.682927 196.278261 
L 489.219512 196.278261 
L 493.756098 196.278261 
L 498.292683 196.278261 
L 502.829268 196.278261 
L 507.365854 196.278261 
L 511.902439 196.278261 
L 516.439024 196.278261 
L 520.97561 196.278261 
L 525.512195 196.278261 
L 530.04878 196.278261 
L 534.585366 196.278261 
L 539.121951 196.278261 
L 543.658537 196.278261 
L 548.195122 196.278261 
L 552.731707 196.278261 
L 557.268293 196.278261 
L 561.804878 196.278261 
L 566.341463 196.278261 
L 570.878049 196.278261 
L 575.414634 152.452174 
L 579.95122 196.278261 
L 584.487805 196.278261 
L 589.02439 196.278261 
L 593.560976 196.278261 
L 598.097561 196.278261 
L 602.634146 196.278261 
L 607.170732 196.278261 
L 611.707317 196.278261 
L 616.243902 196.278261 
L 620.780488 196.278261 
L 625.317073 196.278261 
L 629.853659 196.278261 
L 634.390244 196.278261 
L 638.926829 196.278261 
" clip-path="url(#pb681ca1988)" style="fill: none; stroke: #009e73; stroke-width: 1.5; stroke-linecap: round"/>
   </g>
   <g id="patch_13">
    <path d="M 90 198.469565 
L 90 150.26087 
" style="fill: none; stroke: #262626; stroke-width: 1.25; stroke-linejoin: miter; stroke-linecap: square"/>
   </g>
   <g id="patch_14">
    <path d="M 648 198.469565 
L 648 150.26087 
" style="fill: none; stroke: #262626; stroke-width: 1.25; stroke-linejoin: miter; stroke-linecap: square"/>
   </g>
   <g id="patch_15">
    <path d="M 90 198.469565 
L 648 198.469565 
" style="fill: none; stroke: #262626; stroke-width: 1.25; stroke-linejoin: miter; stroke-linecap: square"/>
   </g>
   <g id="patch_16">
    <path d="M 90 150.26087 
L 648 150.26087 
" style="fill: none; stroke: #262626; stroke-width: 1.25; stroke-linejoin: miter; stroke-linecap: square"/>
   </g>
  </g>
  <g id="axes_4">
   <g id="patch_17">
    <path d="M 90 256.32 
L 648 256.32 
L 648 208.111304 
L 90 208.111304 
z
" style="fill: #ffffff"/>
   </g>
   <g id="matplotlib.axis_7">
    <g id="xtick_22">
     <g id="line2d_25">
      <g>
       <use xlink:href="#md65ffad017" x="94.536585" y="256.32" style="fill: #262626; stroke: #262626; stroke-width: 1.25"/>
      </g>
     </g>
     <g id="text_25">
      <!-- 0 -->
      <g style="fill: #262626" transform="translate(91.47807 273.693594) scale(0.11 -0.11)">
       <use xlink:href="#ArialMT-30"/>
      </g>
     </g>
    </g>
    <g id="xtick_23">
     <g id="line2d_26">
      <g>
       <use xlink:href="#md65ffad017" x="185.268293" y="256.32" style="fill: #262626; stroke: #262626; stroke-width: 1.25"/>
      </g>
     </g>
     <g id="text_26">
      <!-- 20 -->
      <g style="fill: #262626" transform="translate(179.151261 273.693594) scale(0.11 -0.11)">
       <use xlink:href="#ArialMT-32"/>
       <use xlink:href="#ArialMT-30" x="55.615234"/>
      </g>
     </g>
    </g>
    <g id="xtick_24">
     <g id="line2d_27">
      <g>
       <use xlink:href="#md65ffad017" x="276" y="256.32" style="fill: #262626; stroke: #262626; stroke-width: 1.25"/>
      </g>
     </g>
     <g id="text_27">
      <!-- 40 -->
      <g style="fill: #262626" transform="translate(269.882969 273.693594) scale(0.11 -0.11)">
       <use xlink:href="#ArialMT-34"/>
       <use xlink:href="#ArialMT-30" x="55.615234"/>
      </g>
     </g>
    </g>
    <g id="xtick_25">
     <g id="line2d_28">
      <g>
       <use xlink:href="#md65ffad017" x="366.731707" y="256.32" style="fill: #262626; stroke: #262626; stroke-width: 1.25"/>
      </g>
     </g>
     <g id="text_28">
      <!-- 60 -->
      <g style="fill: #262626" transform="translate(360.614676 273.693594) scale(0.11 -0.11)">
       <use xlink:href="#ArialMT-36"/>
       <use xlink:href="#ArialMT-30" x="55.615234"/>
      </g>
     </g>
    </g>
    <g id="xtick_26">
     <g id="line2d_29">
      <g>
       <use xlink:href="#md65ffad017" x="457.463415" y="256.32" style="fill: #262626; stroke: #262626; stroke-width: 1.25"/>
      </g>
     </g>
     <g id="text_29">
      <!-- 80 -->
      <g style="fill: #262626" transform="translate(451.346383 273.693594) scale(0.11 -0.11)">
       <use xlink:href="#ArialMT-38"/>
       <use xlink:href="#ArialMT-30" x="55.615234"/>
      </g>
     </g>
    </g>
    <g id="xtick_27">
     <g id="line2d_30">
      <g>
       <use xlink:href="#md65ffad017" x="548.195122" y="256.32" style="fill: #262626; stroke: #262626; stroke-width: 1.25"/>
      </g>
     </g>
     <g id="text_30">
      <!-- 100 -->
      <g style="fill: #262626" transform="translate(539.019575 273.693594) scale(0.11 -0.11)">
       <use xlink:href="#ArialMT-31"/>
       <use xlink:href="#ArialMT-30" x="55.615234"/>
       <use xlink:href="#ArialMT-30" x="111.230469"/>
      </g>
     </g>
    </g>
    <g id="xtick_28">
     <g id="line2d_31">
      <g>
       <use xlink:href="#md65ffad017" x="638.926829" y="256.32" style="fill: #262626; stroke: #262626; stroke-width: 1.25"/>
      </g>
     </g>
     <g id="text_31">
      <!-- 120 -->
      <g style="fill: #262626" transform="translate(629.751282 273.693594) scale(0.11 -0.11)">
       <use xlink:href="#ArialMT-31"/>
       <use xlink:href="#ArialMT-32" x="55.615234"/>
       <use xlink:href="#ArialMT-30" x="111.230469"/>
      </g>
     </g>
    </g>
    <g id="text_32">
     <!-- Time (s) -->
     <g style="fill: #262626" transform="translate(347.230313 288.615469) scale(0.12 -0.12)">
      <defs>
       <path id="ArialMT-54" d="M 1659 0 
L 1659 4041 
L 150 4041 
L 150 4581 
L 3781 4581 
L 3781 4041 
L 2266 4041 
L 2266 0 
L 1659 0 
z
" transform="scale(0.015625)"/>
       <path id="ArialMT-69" d="M 425 3934 
L 425 4581 
L 988 4581 
L 988 3934 
L 425 3934 
z
M 425 0 
L 425 3319 
L 988 3319 
L 988 0 
L 425 0 
z
" transform="scale(0.015625)"/>
       <path id="ArialMT-6d" d="M 422 0 
L 422 3319 
L 925 3319 
L 925 2853 
Q 1081 3097 1340 3245 
Q 1600 3394 1931 3394 
Q 2300 3394 2536 3241 
Q 2772 3088 2869 2813 
Q 3263 3394 3894 3394 
Q 4388 3394 4653 3120 
Q 4919 2847 4919 2278 
L 4919 0 
L 4359 0 
L 4359 2091 
Q 4359 2428 4304 2576 
Q 4250 2725 4106 2815 
Q 3963 2906 3769 2906 
Q 3419 2906 3187 2673 
Q 2956 2441 2956 1928 
L 2956 0 
L 2394 0 
L 2394 2156 
Q 2394 2531 2256 2718 
Q 2119 2906 1806 2906 
Q 1569 2906 1367 2781 
Q 1166 2656 1075 2415 
Q 984 2175 984 1722 
L 984 0 
L 422 0 
z
" transform="scale(0.015625)"/>
       <path id="ArialMT-28" d="M 1497 -1347 
Q 1031 -759 709 28 
Q 388 816 388 1659 
Q 388 2403 628 3084 
Q 909 3875 1497 4659 
L 1900 4659 
Q 1522 4009 1400 3731 
Q 1209 3300 1100 2831 
Q 966 2247 966 1656 
Q 966 153 1900 -1347 
L 1497 -1347 
z
" transform="scale(0.015625)"/>
       <path id="ArialMT-73" d="M 197 991 
L 753 1078 
Q 800 744 1014 566 
Q 1228 388 1613 388 
Q 2000 388 2187 545 
Q 2375 703 2375 916 
Q 2375 1106 2209 1216 
Q 2094 1291 1634 1406 
Q 1016 1563 777 1677 
Q 538 1791 414 1992 
Q 291 2194 291 2438 
Q 291 2659 392 2848 
Q 494 3038 669 3163 
Q 800 3259 1026 3326 
Q 1253 3394 1513 3394 
Q 1903 3394 2198 3281 
Q 2494 3169 2634 2976 
Q 2775 2784 2828 2463 
L 2278 2388 
Q 2241 2644 2061 2787 
Q 1881 2931 1553 2931 
Q 1166 2931 1000 2803 
Q 834 2675 834 2503 
Q 834 2394 903 2306 
Q 972 2216 1119 2156 
Q 1203 2125 1616 2013 
Q 2213 1853 2448 1751 
Q 2684 1650 2818 1456 
Q 2953 1263 2953 975 
Q 2953 694 2789 445 
Q 2625 197 2315 61 
Q 2006 -75 1616 -75 
Q 969 -75 630 194 
Q 291 463 197 991 
z
" transform="scale(0.015625)"/>
       <path id="ArialMT-29" d="M 791 -1347 
L 388 -1347 
Q 1322 153 1322 1656 
Q 1322 2244 1188 2822 
Q 1081 3291 891 3722 
Q 769 4003 388 4659 
L 791 4659 
Q 1378 3875 1659 3084 
Q 1900 2403 1900 1659 
Q 1900 816 1576 28 
Q 1253 -759 791 -1347 
z
" transform="scale(0.015625)"/>
      </defs>
      <use xlink:href="#ArialMT-54"/>
      <use xlink:href="#ArialMT-69" x="57.333984"/>
      <use xlink:href="#ArialMT-6d" x="79.550781"/>
      <use xlink:href="#ArialMT-65" x="162.851562"/>
      <use xlink:href="#ArialMT-20" x="218.466797"/>
      <use xlink:href="#ArialMT-28" x="246.25"/>
      <use xlink:href="#ArialMT-73" x="279.550781"/>
      <use xlink:href="#ArialMT-29" x="329.550781"/>
     </g>
    </g>
   </g>
   <g id="matplotlib.axis_8">
    <g id="text_33">
     <!-- State 4 -->
     <g style="fill: #262626" transform="translate(40.9875 229.830652) scale(0.12 -0.12)">
      <use xlink:href="#ArialMT-53"/>
      <use xlink:href="#ArialMT-74" x="66.699219"/>
      <use xlink:href="#ArialMT-61" x="94.482422"/>
      <use xlink:href="#ArialMT-74" x="150.097656"/>
      <use xlink:href="#ArialMT-65" x="177.880859"/>
      <use xlink:href="#ArialMT-20" x="233.496094"/>
      <use xlink:href="#ArialMT-34" x="261.279297"/>
     </g>
    </g>
   </g>
   <g id="PolyCollection_4">
    <defs>
     <path id="m4f2b0b1816" d="M 94.536585 -33.871304 
L 94.536585 -77.697391 
L 99.073171 -77.697391 
L 103.609756 -77.697391 
L 108.146341 -77.697391 
L 112.682927 -77.697391 
L 117.219512 -77.697391 
L 121.756098 -77.697391 
L 126.292683 -77.697391 
L 130.829268 -33.871304 
L 135.365854 -33.871304 
L 139.902439 -33.871304 
L 144.439024 -33.871304 
L 148.97561 -77.697391 
L 153.512195 -77.697391 
L 158.04878 -77.697391 
L 162.585366 -77.697391 
L 167.121951 -33.871304 
L 171.658537 -33.871304 
L 176.195122 -33.871304 
L 180.731707 -33.871304 
L 185.268293 -33.871304 
L 189.804878 -33.871304 
L 194.341463 -33.871304 
L 198.878049 -33.871304 
L 203.414634 -33.871304 
L 207.95122 -33.871304 
L 212.487805 -33.871304 
L 217.02439 -33.871304 
L 221.560976 -33.871304 
L 226.097561 -33.871304 
L 230.634146 -77.697391 
L 235.170732 -77.697391 
L 239.707317 -33.871304 
L 244.243902 -33.871304 
L 248.780488 -33.871304 
L 253.317073 -77.697391 
L 257.853659 -77.697391 
L 262.390244 -77.697391 
L 266.926829 -33.871304 
L 271.463415 -33.871304 
L 276 -33.871304 
L 280.536585 -33.871304 
L 285.073171 -33.871304 
L 289.609756 -33.871304 
L 294.146341 -33.871304 
L 298.682927 -33.871304 
L 303.219512 -33.871304 
L 307.756098 -33.871304 
L 312.292683 -33.871304 
L 316.829268 -33.871304 
L 321.365854 -77.697391 
L 325.902439 -77.697391 
L 330.439024 -77.697391 
L 334.97561 -77.697391 
L 339.512195 -77.697391 
L 344.04878 -77.697391 
L 348.585366 -77.697391 
L 353.121951 -77.697391 
L 357.658537 -77.697391 
L 362.195122 -77.697391 
L 366.731707 -77.697391 
L 371.268293 -77.697391 
L 375.804878 -77.697391 
L 380.341463 -77.697391 
L 384.878049 -77.697391 
L 389.414634 -77.697391 
L 393.95122 -77.697391 
L 398.487805 -77.697391 
L 403.02439 -33.871304 
L 407.560976 -77.697391 
L 412.097561 -77.697391 
L 416.634146 -77.697391 
L 421.170732 -77.697391 
L 425.707317 -77.697391 
L 430.243902 -77.697391 
L 434.780488 -77.697391 
L 439.317073 -77.697391 
L 443.853659 -77.697391 
L 448.390244 -77.697391 
L 452.926829 -77.697391 
L 457.463415 -77.697391 
L 462 -77.697391 
L 466.536585 -77.697391 
L 471.073171 -77.697391 
L 475.609756 -77.697391 
L 480.146341 -77.697391 
L 484.682927 -77.697391 
L 489.219512 -77.697391 
L 493.756098 -77.697391 
L 498.292683 -77.697391 
L 502.829268 -77.697391 
L 507.365854 -77.697391 
L 511.902439 -77.697391 
L 516.439024 -33.871304 
L 520.97561 -33.871304 
L 525.512195 -33.871304 
L 530.04878 -33.871304 
L 534.585366 -33.871304 
L 539.121951 -33.871304 
L 543.658537 -33.871304 
L 548.195122 -33.871304 
L 552.731707 -33.871304 
L 557.268293 -33.871304 
L 561.804878 -33.871304 
L 566.341463 -33.871304 
L 570.878049 -33.871304 
L 575.414634 -33.871304 
L 579.95122 -33.871304 
L 584.487805 -33.871304 
L 589.02439 -33.871304 
L 593.560976 -33.871304 
L 598.097561 -33.871304 
L 602.634146 -33.871304 
L 607.170732 -33.871304 
L 611.707317 -33.871304 
L 616.243902 -33.871304 
L 620.780488 -33.871304 
L 625.317073 -33.871304 
L 629.853659 -33.871304 
L 634.390244 -33.871304 
L 638.926829 -33.871304 
L 638.926829 -33.871304 
L 638.926829 -33.871304 
L 634.390244 -33.871304 
L 629.853659 -33.871304 
L 625.317073 -33.871304 
L 620.780488 -33.871304 
L 616.243902 -33.871304 
L 611.707317 -33.871304 
L 607.170732 -33.871304 
L 602.634146 -33.871304 
L 598.097561 -33.871304 
L 593.560976 -33.871304 
L 589.02439 -33.871304 
L 584.487805 -33.871304 
L 579.95122 -33.871304 
L 575.414634 -33.871304 
L 570.878049 -33.871304 
L 566.341463 -33.871304 
L 561.804878 -33.871304 
L 557.268293 -33.871304 
L 552.731707 -33.871304 
L 548.195122 -33.871304 
L 543.658537 -33.871304 
L 539.121951 -33.871304 
L 534.585366 -33.871304 
L 530.04878 -33.871304 
L 525.512195 -33.871304 
L 520.97561 -33.871304 
L 516.439024 -33.871304 
L 511.902439 -33.871304 
L 507.365854 -33.871304 
L 502.829268 -33.871304 
L 498.292683 -33.871304 
L 493.756098 -33.871304 
L 489.219512 -33.871304 
L 484.682927 -33.871304 
L 480.146341 -33.871304 
L 475.609756 -33.871304 
L 471.073171 -33.871304 
L 466.536585 -33.871304 
L 462 -33.871304 
L 457.463415 -33.871304 
L 452.926829 -33.871304 
L 448.390244 -33.871304 
L 443.853659 -33.871304 
L 439.317073 -33.871304 
L 434.780488 -33.871304 
L 430.243902 -33.871304 
L 425.707317 -33.871304 
L 421.170732 -33.871304 
L 416.634146 -33.871304 
L 412.097561 -33.871304 
L 407.560976 -33.871304 
L 403.02439 -33.871304 
L 398.487805 -33.871304 
L 393.95122 -33.871304 
L 389.414634 -33.871304 
L 384.878049 -33.871304 
L 380.341463 -33.871304 
L 375.804878 -33.871304 
L 371.268293 -33.871304 
L 366.731707 -33.871304 
L 362.195122 -33.871304 
L 357.658537 -33.871304 
L 353.121951 -33.871304 
L 348.585366 -33.871304 
L 344.04878 -33.871304 
L 339.512195 -33.871304 
L 334.97561 -33.871304 
L 330.439024 -33.871304 
L 325.902439 -33.871304 
L 321.365854 -33.871304 
L 316.829268 -33.871304 
L 312.292683 -33.871304 
L 307.756098 -33.871304 
L 303.219512 -33.871304 
L 298.682927 -33.871304 
L 294.146341 -33.871304 
L 289.609756 -33.871304 
L 285.073171 -33.871304 
L 280.536585 -33.871304 
L 276 -33.871304 
L 271.463415 -33.871304 
L 266.926829 -33.871304 
L 262.390244 -33.871304 
L 257.853659 -33.871304 
L 253.317073 -33.871304 
L 248.780488 -33.871304 
L 244.243902 -33.871304 
L 239.707317 -33.871304 
L 235.170732 -33.871304 
L 230.634146 -33.871304 
L 226.097561 -33.871304 
L 221.560976 -33.871304 
L 217.02439 -33.871304 
L 212.487805 -33.871304 
L 207.95122 -33.871304 
L 203.414634 -33.871304 
L 198.878049 -33.871304 
L 194.341463 -33.871304 
L 189.804878 -33.871304 
L 185.268293 -33.871304 
L 180.731707 -33.871304 
L 176.195122 -33.871304 
L 171.658537 -33.871304 
L 167.121951 -33.871304 
L 162.585366 -33.871304 
L 158.04878 -33.871304 
L 153.512195 -33.871304 
L 148.97561 -33.871304 
L 144.439024 -33.871304 
L 139.902439 -33.871304 
L 135.365854 -33.871304 
L 130.829268 -33.871304 
L 126.292683 -33.871304 
L 121.756098 -33.871304 
L 117.219512 -33.871304 
L 112.682927 -33.871304 
L 108.146341 -33.871304 
L 103.609756 -33.871304 
L 99.073171 -33.871304 
L 94.536585 -33.871304 
z
" style="stroke: #cc79a7; stroke-opacity: 0.3"/>
    </defs>
    <g clip-path="url(#p8f8c880132)">
     <use xlink:href="#m4f2b0b1816" x="0" y="288" style="fill: #cc79a7; fill-opacity: 0.3; stroke: #cc79a7; stroke-opacity: 0.3"/>
    </g>
   </g>
   <g id="line2d_32">
    <path d="M 94.536585 210.302609 
L 99.073171 210.302609 
L 103.609756 210.302609 
L 108.146341 210.302609 
L 112.682927 210.302609 
L 117.219512 210.302609 
L 121.756098 210.302609 
L 126.292683 210.302609 
L 130.829268 254.128696 
L 135.365854 254.128696 
L 139.902439 254.128696 
L 144.439024 254.128696 
L 148.97561 210.302609 
L 153.512195 210.302609 
L 158.04878 210.302609 
L 162.585366 210.302609 
L 167.121951 254.128696 
L 171.658537 254.128696 
L 176.195122 254.128696 
L 180.731707 254.128696 
L 185.268293 254.128696 
L 189.804878 254.128696 
L 194.341463 254.128696 
L 198.878049 254.128696 
L 203.414634 254.128696 
L 207.95122 254.128696 
L 212.487805 254.128696 
L 217.02439 254.128696 
L 221.560976 254.128696 
L 226.097561 254.128696 
L 230.634146 210.302609 
L 235.170732 210.302609 
L 239.707317 254.128696 
L 244.243902 254.128696 
L 248.780488 254.128696 
L 253.317073 210.302609 
L 257.853659 210.302609 
L 262.390244 210.302609 
L 266.926829 254.128696 
L 271.463415 254.128696 
L 276 254.128696 
L 280.536585 254.128696 
L 285.073171 254.128696 
L 289.609756 254.128696 
L 294.146341 254.128696 
L 298.682927 254.128696 
L 303.219512 254.128696 
L 307.756098 254.128696 
L 312.292683 254.128696 
L 316.829268 254.128696 
L 321.365854 210.302609 
L 325.902439 210.302609 
L 330.439024 210.302609 
L 334.97561 210.302609 
L 339.512195 210.302609 
L 344.04878 210.302609 
L 348.585366 210.302609 
L 353.121951 210.302609 
L 357.658537 210.302609 
L 362.195122 210.302609 
L 366.731707 210.302609 
L 371.268293 210.302609 
L 375.804878 210.302609 
L 380.341463 210.302609 
L 384.878049 210.302609 
L 389.414634 210.302609 
L 393.95122 210.302609 
L 398.487805 210.302609 
L 403.02439 254.128696 
L 407.560976 210.302609 
L 412.097561 210.302609 
L 416.634146 210.302609 
L 421.170732 210.302609 
L 425.707317 210.302609 
L 430.243902 210.302609 
L 434.780488 210.302609 
L 439.317073 210.302609 
L 443.853659 210.302609 
L 448.390244 210.302609 
L 452.926829 210.302609 
L 457.463415 210.302609 
L 462 210.302609 
L 466.536585 210.302609 
L 471.073171 210.302609 
L 475.609756 210.302609 
L 480.146341 210.302609 
L 484.682927 210.302609 
L 489.219512 210.302609 
L 493.756098 210.302609 
L 498.292683 210.302609 
L 502.829268 210.302609 
L 507.365854 210.302609 
L 511.902439 210.302609 
L 516.439024 254.128696 
L 520.97561 254.128696 
L 525.512195 254.128696 
L 530.04878 254.128696 
L 534.585366 254.128696 
L 539.121951 254.128696 
L 543.658537 254.128696 
L 548.195122 254.128696 
L 552.731707 254.128696 
L 557.268293 254.128696 
L 561.804878 254.128696 
L 566.341463 254.128696 
L 570.878049 254.128696 
L 575.414634 254.128696 
L 579.95122 254.128696 
L 584.487805 254.128696 
L 589.02439 254.128696 
L 593.560976 254.128696 
L 598.097561 254.128696 
L 602.634146 254.128696 
L 607.170732 254.128696 
L 611.707317 254.128696 
L 616.243902 254.128696 
L 620.780488 254.128696 
L 625.317073 254.128696 
L 629.853659 254.128696 
L 634.390244 254.128696 
L 638.926829 254.128696 
" clip-path="url(#p8f8c880132)" style="fill: none; stroke: #cc79a7; stroke-width: 1.5; stroke-linecap: round"/>
   </g>
   <g id="patch_18">
    <path d="M 90 256.32 
L 90 208.111304 
" style="fill: none; stroke: #262626; stroke-width: 1.25; stroke-linejoin: miter; stroke-linecap: square"/>
   </g>
   <g id="patch_19">
    <path d="M 648 256.32 
L 648 208.111304 
" style="fill: none; stroke: #262626; stroke-width: 1.25; stroke-linejoin: miter; stroke-linecap: square"/>
   </g>
   <g id="patch_20">
    <path d="M 90 256.32 
L 648 256.32 
" style="fill: none; stroke: #262626; stroke-width: 1.25; stroke-linejoin: miter; stroke-linecap: square"/>
   </g>
   <g id="patch_21">
    <path d="M 90 208.111304 
L 648 208.111304 
" style="fill: none; stroke: #262626; stroke-width: 1.25; stroke-linejoin: miter; stroke-linecap: square"/>
   </g>
  </g>
 </g>
 <defs>
  <clipPath id="pf323a2816f">
   <rect x="90" y="34.56" width="558" height="48.208696"/>
  </clipPath>
  <clipPath id="pe4901829b7">
   <rect x="90" y="92.410435" width="558" height="48.208696"/>
  </clipPath>
  <clipPath id="pb681ca1988">
   <rect x="90" y="150.26087" width="558" height="48.208696"/>
  </clipPath>
  <clipPath id="p8f8c880132">
   <rect x="90" y="208.111304" width="558" height="48.208696"/>
  </clipPath>
 </defs>
</svg>
