<?xml version="1.0" encoding="utf-8" standalone="no"?>
<!DOCTYPE svg PUBLIC "-//W3C//DTD SVG 1.1//EN"
  "http://www.w3.org/Graphics/SVG/1.1/DTD/svg11.dtd">
<svg xmlns:xlink="http://www.w3.org/1999/xlink" width="720pt" height="1080pt" viewBox="0 0 720 1080" xmlns="http://www.w3.org/2000/svg" version="1.1">
 <metadata>
  <rdf:RDF xmlns:dc="http://purl.org/dc/elements/1.1/" xmlns:cc="http://creativecommons.org/ns#" xmlns:rdf="http://www.w3.org/1999/02/22-rdf-syntax-ns#">
   <cc:Work>
    <dc:type rdf:resource="http://purl.org/dc/dcmitype/StillImage"/>
    <dc:date>2024-09-02T13:04:38.688011</dc:date>
    <dc:format>image/svg+xml</dc:format>
    <dc:creator>
     <cc:Agent>
      <dc:title>Matplotlib v3.8.0, https://matplotlib.org/</dc:title>
     </cc:Agent>
    </dc:creator>
   </cc:Work>
  </rdf:RDF>
 </metadata>
 <defs>
  <style type="text/css">*{stroke-linejoin: round; stroke-linecap: butt}</style>
 </defs>
 <g id="figure_1">
  <g id="patch_1">
   <path d="M 0 1080 
L 720 1080 
L 720 0 
L 0 0 
z
" style="fill: #ffffff"/>
  </g>
  <g id="axes_1">
   <g id="patch_2">
    <path d="M 90 507.6 
L 648 507.6 
L 648 129.6 
L 90 129.6 
z
" style="fill: #ffffff"/>
   </g>
   <g id="matplotlib.axis_1">
    <g id="xtick_1">
     <g id="line2d_1">
      <defs>
       <path id="mc74b944dc4" d="M 0 0 
L 0 6 
" style="stroke: #262626; stroke-width: 1.25"/>
      </defs>
      <g>
       <use xlink:href="#mc74b944dc4" x="159.75" y="507.6" style="fill: #262626; stroke: #262626; stroke-width: 1.25"/>
      </g>
     </g>
     <g id="text_1">
      <!-- State 1 -->
      <g style="fill: #262626" transform="translate(142.321875 524.973594) scale(0.11 -0.11)">
       <defs>
        <path id="ArialMT-53" d="M 288 1472 
L 859 1522 
Q 900 1178 1048 958 
Q 1197 738 1509 602 
Q 1822 466 2213 466 
Q 2559 466 2825 569 
Q 3091 672 3220 851 
Q 3350 1031 3350 1244 
Q 3350 1459 3225 1620 
Q 3100 1781 2813 1891 
Q 2628 1963 1997 2114 
Q 1366 2266 1113 2400 
Q 784 2572 623 2826 
Q 463 3081 463 3397 
Q 463 3744 659 4045 
Q 856 4347 1234 4503 
Q 1613 4659 2075 4659 
Q 2584 4659 2973 4495 
Q 3363 4331 3572 4012 
Q 3781 3694 3797 3291 
L 3216 3247 
Q 3169 3681 2898 3903 
Q 2628 4125 2100 4125 
Q 1550 4125 1298 3923 
Q 1047 3722 1047 3438 
Q 1047 3191 1225 3031 
Q 1400 2872 2139 2705 
Q 2878 2538 3153 2413 
Q 3553 2228 3743 1945 
Q 3934 1663 3934 1294 
Q 3934 928 3725 604 
Q 3516 281 3123 101 
Q 2731 -78 2241 -78 
Q 1619 -78 1198 103 
Q 778 284 539 648 
Q 300 1013 288 1472 
z
" transform="scale(0.015625)"/>
        <path id="ArialMT-74" d="M 1650 503 
L 1731 6 
Q 1494 -44 1306 -44 
Q 1000 -44 831 53 
Q 663 150 594 308 
Q 525 466 525 972 
L 525 2881 
L 113 2881 
L 113 3319 
L 525 3319 
L 525 4141 
L 1084 4478 
L 1084 3319 
L 1650 3319 
L 1650 2881 
L 1084 2881 
L 1084 941 
Q 1084 700 1114 631 
Q 1144 563 1211 522 
Q 1278 481 1403 481 
Q 1497 481 1650 503 
z
" transform="scale(0.015625)"/>
        <path id="ArialMT-61" d="M 2588 409 
Q 2275 144 1986 34 
Q 1697 -75 1366 -75 
Q 819 -75 525 192 
Q 231 459 231 875 
Q 231 1119 342 1320 
Q 453 1522 633 1644 
Q 813 1766 1038 1828 
Q 1203 1872 1538 1913 
Q 2219 1994 2541 2106 
Q 2544 2222 2544 2253 
Q 2544 2597 2384 2738 
Q 2169 2928 1744 2928 
Q 1347 2928 1158 2789 
Q 969 2650 878 2297 
L 328 2372 
Q 403 2725 575 2942 
Q 747 3159 1072 3276 
Q 1397 3394 1825 3394 
Q 2250 3394 2515 3294 
Q 2781 3194 2906 3042 
Q 3031 2891 3081 2659 
Q 3109 2516 3109 2141 
L 3109 1391 
Q 3109 606 3145 398 
Q 3181 191 3288 0 
L 2700 0 
Q 2613 175 2588 409 
z
M 2541 1666 
Q 2234 1541 1622 1453 
Q 1275 1403 1131 1340 
Q 988 1278 909 1158 
Q 831 1038 831 891 
Q 831 666 1001 516 
Q 1172 366 1500 366 
Q 1825 366 2078 508 
Q 2331 650 2450 897 
Q 2541 1088 2541 1459 
L 2541 1666 
z
" transform="scale(0.015625)"/>
        <path id="ArialMT-65" d="M 2694 1069 
L 3275 997 
Q 3138 488 2766 206 
Q 2394 -75 1816 -75 
Q 1088 -75 661 373 
Q 234 822 234 1631 
Q 234 2469 665 2931 
Q 1097 3394 1784 3394 
Q 2450 3394 2872 2941 
Q 3294 2488 3294 1666 
Q 3294 1616 3291 1516 
L 816 1516 
Q 847 969 1125 678 
Q 1403 388 1819 388 
Q 2128 388 2347 550 
Q 2566 713 2694 1069 
z
M 847 1978 
L 2700 1978 
Q 2663 2397 2488 2606 
Q 2219 2931 1791 2931 
Q 1403 2931 1139 2672 
Q 875 2413 847 1978 
z
" transform="scale(0.015625)"/>
        <path id="ArialMT-20" transform="scale(0.015625)"/>
        <path id="ArialMT-31" d="M 2384 0 
L 1822 0 
L 1822 3584 
Q 1619 3391 1289 3197 
Q 959 3003 697 2906 
L 697 3450 
Q 1169 3672 1522 3987 
Q 1875 4303 2022 4600 
L 2384 4600 
L 2384 0 
z
" transform="scale(0.015625)"/>
       </defs>
       <use xlink:href="#ArialMT-53"/>
       <use xlink:href="#ArialMT-74" x="66.699219"/>
       <use xlink:href="#ArialMT-61" x="94.482422"/>
       <use xlink:href="#ArialMT-74" x="150.097656"/>
       <use xlink:href="#ArialMT-65" x="177.880859"/>
       <use xlink:href="#ArialMT-20" x="233.496094"/>
       <use xlink:href="#ArialMT-31" x="261.279297"/>
      </g>
     </g>
    </g>
    <g id="xtick_2">
     <g id="line2d_2">
      <g>
       <use xlink:href="#mc74b944dc4" x="299.25" y="507.6" style="fill: #262626; stroke: #262626; stroke-width: 1.25"/>
      </g>
     </g>
     <g id="text_2">
      <!-- State 2 -->
      <g style="fill: #262626" transform="translate(281.821875 524.973594) scale(0.11 -0.11)">
       <defs>
        <path id="ArialMT-32" d="M 3222 541 
L 3222 0 
L 194 0 
Q 188 203 259 391 
Q 375 700 629 1000 
Q 884 1300 1366 1694 
Q 2113 2306 2375 2664 
Q 2638 3022 2638 3341 
Q 2638 3675 2398 3904 
Q 2159 4134 1775 4134 
Q 1369 4134 1125 3890 
Q 881 3647 878 3216 
L 300 3275 
Q 359 3922 746 4261 
Q 1134 4600 1788 4600 
Q 2447 4600 2831 4234 
Q 3216 3869 3216 3328 
Q 3216 3053 3103 2787 
Q 2991 2522 2730 2228 
Q 2469 1934 1863 1422 
Q 1356 997 1212 845 
Q 1069 694 975 541 
L 3222 541 
z
" transform="scale(0.015625)"/>
       </defs>
       <use xlink:href="#ArialMT-53"/>
       <use xlink:href="#ArialMT-74" x="66.699219"/>
       <use xlink:href="#ArialMT-61" x="94.482422"/>
       <use xlink:href="#ArialMT-74" x="150.097656"/>
       <use xlink:href="#ArialMT-65" x="177.880859"/>
       <use xlink:href="#ArialMT-20" x="233.496094"/>
       <use xlink:href="#ArialMT-32" x="261.279297"/>
      </g>
     </g>
    </g>
    <g id="xtick_3">
     <g id="line2d_3">
      <g>
       <use xlink:href="#mc74b944dc4" x="438.75" y="507.6" style="fill: #262626; stroke: #262626; stroke-width: 1.25"/>
      </g>
     </g>
     <g id="text_3">
      <!-- State 3 -->
      <g style="fill: #262626" transform="translate(421.321875 524.973594) scale(0.11 -0.11)">
       <defs>
        <path id="ArialMT-33" d="M 269 1209 
L 831 1284 
Q 928 806 1161 595 
Q 1394 384 1728 384 
Q 2125 384 2398 659 
Q 2672 934 2672 1341 
Q 2672 1728 2419 1979 
Q 2166 2231 1775 2231 
Q 1616 2231 1378 2169 
L 1441 2663 
Q 1497 2656 1531 2656 
Q 1891 2656 2178 2843 
Q 2466 3031 2466 3422 
Q 2466 3731 2256 3934 
Q 2047 4138 1716 4138 
Q 1388 4138 1169 3931 
Q 950 3725 888 3313 
L 325 3413 
Q 428 3978 793 4289 
Q 1159 4600 1703 4600 
Q 2078 4600 2393 4439 
Q 2709 4278 2876 4000 
Q 3044 3722 3044 3409 
Q 3044 3113 2884 2869 
Q 2725 2625 2413 2481 
Q 2819 2388 3044 2092 
Q 3269 1797 3269 1353 
Q 3269 753 2831 336 
Q 2394 -81 1725 -81 
Q 1122 -81 723 278 
Q 325 638 269 1209 
z
" transform="scale(0.015625)"/>
       </defs>
       <use xlink:href="#ArialMT-53"/>
       <use xlink:href="#ArialMT-74" x="66.699219"/>
       <use xlink:href="#ArialMT-61" x="94.482422"/>
       <use xlink:href="#ArialMT-74" x="150.097656"/>
       <use xlink:href="#ArialMT-65" x="177.880859"/>
       <use xlink:href="#ArialMT-20" x="233.496094"/>
       <use xlink:href="#ArialMT-33" x="261.279297"/>
      </g>
     </g>
    </g>
    <g id="xtick_4">
     <g id="line2d_4">
      <g>
       <use xlink:href="#mc74b944dc4" x="578.25" y="507.6" style="fill: #262626; stroke: #262626; stroke-width: 1.25"/>
      </g>
     </g>
     <g id="text_4">
      <!-- State 4 -->
      <g style="fill: #262626" transform="translate(560.821875 524.973594) scale(0.11 -0.11)">
       <defs>
        <path id="ArialMT-34" d="M 2069 0 
L 2069 1097 
L 81 1097 
L 81 1613 
L 2172 4581 
L 2631 4581 
L 2631 1613 
L 3250 1613 
L 3250 1097 
L 2631 1097 
L 2631 0 
L 2069 0 
z
M 2069 1613 
L 2069 3678 
L 634 1613 
L 2069 1613 
z
" transform="scale(0.015625)"/>
       </defs>
       <use xlink:href="#ArialMT-53"/>
       <use xlink:href="#ArialMT-74" x="66.699219"/>
       <use xlink:href="#ArialMT-61" x="94.482422"/>
       <use xlink:href="#ArialMT-74" x="150.097656"/>
       <use xlink:href="#ArialMT-65" x="177.880859"/>
       <use xlink:href="#ArialMT-20" x="233.496094"/>
       <use xlink:href="#ArialMT-34" x="261.279297"/>
      </g>
     </g>
    </g>
   </g>
   <g id="matplotlib.axis_2">
    <g id="ytick_1">
     <g id="line2d_5">
      <defs>
       <path id="mdebc0a5134" d="M 0 0 
L -6 0 
" style="stroke: #262626; stroke-width: 1.25"/>
      </defs>
      <g>
       <use xlink:href="#mdebc0a5134" x="90" y="495.7875" style="fill: #262626; stroke: #262626; stroke-width: 1.25"/>
      </g>
     </g>
     <g id="text_5">
      <!-- −3 -->
      <g style="fill: #262626" transform="translate(67.958281 499.724297) scale(0.11 -0.11)">
       <defs>
        <path id="ArialMT-2212" d="M 3381 1997 
L 356 1997 
L 356 2522 
L 3381 2522 
L 3381 1997 
z
" transform="scale(0.015625)"/>
       </defs>
       <use xlink:href="#ArialMT-2212"/>
       <use xlink:href="#ArialMT-33" x="58.398438"/>
      </g>
     </g>
    </g>
    <g id="ytick_2">
     <g id="line2d_6">
      <g>
       <use xlink:href="#mdebc0a5134" x="90" y="436.725" style="fill: #262626; stroke: #262626; stroke-width: 1.25"/>
      </g>
     </g>
     <g id="text_6">
      <!-- −2 -->
      <g style="fill: #262626" transform="translate(67.958281 440.661797) scale(0.11 -0.11)">
       <use xlink:href="#ArialMT-2212"/>
       <use xlink:href="#ArialMT-32" x="58.398438"/>
      </g>
     </g>
    </g>
    <g id="ytick_3">
     <g id="line2d_7">
      <g>
       <use xlink:href="#mdebc0a5134" x="90" y="377.6625" style="fill: #262626; stroke: #262626; stroke-width: 1.25"/>
      </g>
     </g>
     <g id="text_7">
      <!-- −1 -->
      <g style="fill: #262626" transform="translate(67.958281 381.599297) scale(0.11 -0.11)">
       <use xlink:href="#ArialMT-2212"/>
       <use xlink:href="#ArialMT-31" x="58.398438"/>
      </g>
     </g>
    </g>
    <g id="ytick_4">
     <g id="line2d_8">
      <g>
       <use xlink:href="#mdebc0a5134" x="90" y="318.6" style="fill: #262626; stroke: #262626; stroke-width: 1.25"/>
      </g>
     </g>
     <g id="text_8">
      <!-- 0 -->
      <g style="fill: #262626" transform="translate(74.382969 322.536797) scale(0.11 -0.11)">
       <defs>
        <path id="ArialMT-30" d="M 266 2259 
Q 266 3072 433 3567 
Q 600 4063 929 4331 
Q 1259 4600 1759 4600 
Q 2128 4600 2406 4451 
Q 2684 4303 2865 4023 
Q 3047 3744 3150 3342 
Q 3253 2941 3253 2259 
Q 3253 1453 3087 958 
Q 2922 463 2592 192 
Q 2263 -78 1759 -78 
Q 1097 -78 719 397 
Q 266 969 266 2259 
z
M 844 2259 
Q 844 1131 1108 757 
Q 1372 384 1759 384 
Q 2147 384 2411 759 
Q 2675 1134 2675 2259 
Q 2675 3391 2411 3762 
Q 2147 4134 1753 4134 
Q 1366 4134 1134 3806 
Q 844 3388 844 2259 
z
" transform="scale(0.015625)"/>
       </defs>
       <use xlink:href="#ArialMT-30"/>
      </g>
     </g>
    </g>
    <g id="ytick_5">
     <g id="line2d_9">
      <g>
       <use xlink:href="#mdebc0a5134" x="90" y="259.5375" style="fill: #262626; stroke: #262626; stroke-width: 1.25"/>
      </g>
     </g>
     <g id="text_9">
      <!-- 1 -->
      <g style="fill: #262626" transform="translate(74.382969 263.474297) scale(0.11 -0.11)">
       <use xlink:href="#ArialMT-31"/>
      </g>
     </g>
    </g>
    <g id="ytick_6">
     <g id="line2d_10">
      <g>
       <use xlink:href="#mdebc0a5134" x="90" y="200.475" style="fill: #262626; stroke: #262626; stroke-width: 1.25"/>
      </g>
     </g>
     <g id="text_10">
      <!-- 2 -->
      <g style="fill: #262626" transform="translate(74.382969 204.411797) scale(0.11 -0.11)">
       <use xlink:href="#ArialMT-32"/>
      </g>
     </g>
    </g>
    <g id="ytick_7">
     <g id="line2d_11">
      <g>
       <use xlink:href="#mdebc0a5134" x="90" y="141.4125" style="fill: #262626; stroke: #262626; stroke-width: 1.25"/>
      </g>
     </g>
     <g id="text_11">
      <!-- 3 -->
      <g style="fill: #262626" transform="translate(74.382969 145.349297) scale(0.11 -0.11)">
       <use xlink:href="#ArialMT-33"/>
      </g>
     </g>
    </g>
    <g id="text_12">
     <!-- Value (z-scored) -->
     <g style="fill: #262626" transform="translate(61.432656 362.170313) rotate(-90) scale(0.12 -0.12)">
      <defs>
       <path id="ArialMT-56" d="M 1803 0 
L 28 4581 
L 684 4581 
L 1875 1253 
Q 2019 853 2116 503 
Q 2222 878 2363 1253 
L 3600 4581 
L 4219 4581 
L 2425 0 
L 1803 0 
z
" transform="scale(0.015625)"/>
       <path id="ArialMT-6c" d="M 409 0 
L 409 4581 
L 972 4581 
L 972 0 
L 409 0 
z
" transform="scale(0.015625)"/>
       <path id="ArialMT-75" d="M 2597 0 
L 2597 488 
Q 2209 -75 1544 -75 
Q 1250 -75 995 37 
Q 741 150 617 320 
Q 494 491 444 738 
Q 409 903 409 1263 
L 409 3319 
L 972 3319 
L 972 1478 
Q 972 1038 1006 884 
Q 1059 663 1231 536 
Q 1403 409 1656 409 
Q 1909 409 2131 539 
Q 2353 669 2445 892 
Q 2538 1116 2538 1541 
L 2538 3319 
L 3100 3319 
L 3100 0 
L 2597 0 
z
" transform="scale(0.015625)"/>
       <path id="ArialMT-28" d="M 1497 -1347 
Q 1031 -759 709 28 
Q 388 816 388 1659 
Q 388 2403 628 3084 
Q 909 3875 1497 4659 
L 1900 4659 
Q 1522 4009 1400 3731 
Q 1209 3300 1100 2831 
Q 966 2247 966 1656 
Q 966 153 1900 -1347 
L 1497 -1347 
z
" transform="scale(0.015625)"/>
       <path id="ArialMT-7a" d="M 125 0 
L 125 456 
L 2238 2881 
Q 1878 2863 1603 2863 
L 250 2863 
L 250 3319 
L 2963 3319 
L 2963 2947 
L 1166 841 
L 819 456 
Q 1197 484 1528 484 
L 3063 484 
L 3063 0 
L 125 0 
z
" transform="scale(0.015625)"/>
       <path id="ArialMT-2d" d="M 203 1375 
L 203 1941 
L 1931 1941 
L 1931 1375 
L 203 1375 
z
" transform="scale(0.015625)"/>
       <path id="ArialMT-73" d="M 197 991 
L 753 1078 
Q 800 744 1014 566 
Q 1228 388 1613 388 
Q 2000 388 2187 545 
Q 2375 703 2375 916 
Q 2375 1106 2209 1216 
Q 2094 1291 1634 1406 
Q 1016 1563 777 1677 
Q 538 1791 414 1992 
Q 291 2194 291 2438 
Q 291 2659 392 2848 
Q 494 3038 669 3163 
Q 800 3259 1026 3326 
Q 1253 3394 1513 3394 
Q 1903 3394 2198 3281 
Q 2494 3169 2634 2976 
Q 2775 2784 2828 2463 
L 2278 2388 
Q 2241 2644 2061 2787 
Q 1881 2931 1553 2931 
Q 1166 2931 1000 2803 
Q 834 2675 834 2503 
Q 834 2394 903 2306 
Q 972 2216 1119 2156 
Q 1203 2125 1616 2013 
Q 2213 1853 2448 1751 
Q 2684 1650 2818 1456 
Q 2953 1263 2953 975 
Q 2953 694 2789 445 
Q 2625 197 2315 61 
Q 2006 -75 1616 -75 
Q 969 -75 630 194 
Q 291 463 197 991 
z
" transform="scale(0.015625)"/>
       <path id="ArialMT-63" d="M 2588 1216 
L 3141 1144 
Q 3050 572 2676 248 
Q 2303 -75 1759 -75 
Q 1078 -75 664 370 
Q 250 816 250 1647 
Q 250 2184 428 2587 
Q 606 2991 970 3192 
Q 1334 3394 1763 3394 
Q 2303 3394 2647 3120 
Q 2991 2847 3088 2344 
L 2541 2259 
Q 2463 2594 2264 2762 
Q 2066 2931 1784 2931 
Q 1359 2931 1093 2626 
Q 828 2322 828 1663 
Q 828 994 1084 691 
Q 1341 388 1753 388 
Q 2084 388 2306 591 
Q 2528 794 2588 1216 
z
" transform="scale(0.015625)"/>
       <path id="ArialMT-6f" d="M 213 1659 
Q 213 2581 725 3025 
Q 1153 3394 1769 3394 
Q 2453 3394 2887 2945 
Q 3322 2497 3322 1706 
Q 3322 1066 3130 698 
Q 2938 331 2570 128 
Q 2203 -75 1769 -75 
Q 1072 -75 642 372 
Q 213 819 213 1659 
z
M 791 1659 
Q 791 1022 1069 705 
Q 1347 388 1769 388 
Q 2188 388 2466 706 
Q 2744 1025 2744 1678 
Q 2744 2294 2464 2611 
Q 2184 2928 1769 2928 
Q 1347 2928 1069 2612 
Q 791 2297 791 1659 
z
" transform="scale(0.015625)"/>
       <path id="ArialMT-72" d="M 416 0 
L 416 3319 
L 922 3319 
L 922 2816 
Q 1116 3169 1280 3281 
Q 1444 3394 1641 3394 
Q 1925 3394 2219 3213 
L 2025 2691 
Q 1819 2813 1613 2813 
Q 1428 2813 1281 2702 
Q 1134 2591 1072 2394 
Q 978 2094 978 1738 
L 978 0 
L 416 0 
z
" transform="scale(0.015625)"/>
       <path id="ArialMT-64" d="M 2575 0 
L 2575 419 
Q 2259 -75 1647 -75 
Q 1250 -75 917 144 
Q 584 363 401 755 
Q 219 1147 219 1656 
Q 219 2153 384 2558 
Q 550 2963 881 3178 
Q 1213 3394 1622 3394 
Q 1922 3394 2156 3267 
Q 2391 3141 2538 2938 
L 2538 4581 
L 3097 4581 
L 3097 0 
L 2575 0 
z
M 797 1656 
Q 797 1019 1065 703 
Q 1334 388 1700 388 
Q 2069 388 2326 689 
Q 2584 991 2584 1609 
Q 2584 2291 2321 2609 
Q 2059 2928 1675 2928 
Q 1300 2928 1048 2622 
Q 797 2316 797 1656 
z
" transform="scale(0.015625)"/>
       <path id="ArialMT-29" d="M 791 -1347 
L 388 -1347 
Q 1322 153 1322 1656 
Q 1322 2244 1188 2822 
Q 1081 3291 891 3722 
Q 769 4003 388 4659 
L 791 4659 
Q 1378 3875 1659 3084 
Q 1900 2403 1900 1659 
Q 1900 816 1576 28 
Q 1253 -759 791 -1347 
z
" transform="scale(0.015625)"/>
      </defs>
      <use xlink:href="#ArialMT-56"/>
      <use xlink:href="#ArialMT-61" x="59.324219"/>
      <use xlink:href="#ArialMT-6c" x="114.939453"/>
      <use xlink:href="#ArialMT-75" x="137.15625"/>
      <use xlink:href="#ArialMT-65" x="192.771484"/>
      <use xlink:href="#ArialMT-20" x="248.386719"/>
      <use xlink:href="#ArialMT-28" x="276.169922"/>
      <use xlink:href="#ArialMT-7a" x="309.470703"/>
      <use xlink:href="#ArialMT-2d" x="359.470703"/>
      <use xlink:href="#ArialMT-73" x="392.771484"/>
      <use xlink:href="#ArialMT-63" x="442.771484"/>
      <use xlink:href="#ArialMT-6f" x="492.771484"/>
      <use xlink:href="#ArialMT-72" x="548.386719"/>
      <use xlink:href="#ArialMT-65" x="581.6875"/>
      <use xlink:href="#ArialMT-64" x="637.302734"/>
      <use xlink:href="#ArialMT-29" x="692.917969"/>
     </g>
    </g>
   </g>
   <g id="PolyCollection_1">
    <defs>
     <path id="m415a9f88ca" d="M 161.610647 -734.734839 
L 159.860797 -734.734839 
L 159.860797 -735.964604 
L 159.860797 -737.19437 
L 159.860797 -738.424136 
L 159.860797 -739.653902 
L 159.860797 -740.883668 
L 159.860797 -742.113433 
L 159.860797 -743.343199 
L 159.860797 -744.572965 
L 159.860797 -745.802731 
L 159.860797 -747.032497 
L 159.860797 -748.262262 
L 159.860797 -749.492028 
L 159.860797 -750.721794 
L 159.860797 -751.95156 
L 159.860797 -753.181326 
L 159.860797 -754.411092 
L 159.860797 -755.640857 
L 159.860797 -756.870623 
L 159.860797 -758.100389 
L 159.860797 -759.330155 
L 159.860797 -760.559921 
L 159.860797 -761.789686 
L 159.860797 -763.019452 
L 159.860797 -764.249218 
L 159.860797 -765.478984 
L 159.860797 -766.70875 
L 159.860797 -767.938516 
L 159.860797 -769.168281 
L 159.860797 -770.398047 
L 159.860797 -771.627813 
L 159.860797 -772.857579 
L 159.860797 -774.087345 
L 159.860797 -775.31711 
L 159.860797 -776.546876 
L 159.860797 -777.776642 
L 159.860797 -779.006408 
L 159.860797 -780.236174 
L 159.860797 -781.46594 
L 165.003265 -781.46594 
L 165.003265 -781.46594 
L 165.876469 -780.236174 
L 166.570427 -779.006408 
L 167.086953 -777.776642 
L 167.524101 -776.546876 
L 168.077755 -775.31711 
L 169.00818 -774.087345 
L 170.573049 -772.857579 
L 172.942518 -771.627813 
L 176.123068 -770.398047 
L 179.919573 -769.168281 
L 183.957192 -767.938516 
L 187.766508 -766.70875 
L 190.91024 -765.478984 
L 193.106688 -764.249218 
L 194.297361 -763.019452 
L 194.625 -761.789686 
L 194.329924 -760.559921 
L 193.616026 -759.330155 
L 192.555553 -758.100389 
L 191.08039 -756.870623 
L 189.058491 -755.640857 
L 186.407222 -754.411092 
L 183.178744 -753.181326 
L 179.573989 -751.95156 
L 175.885324 -750.721794 
L 172.405367 -749.492028 
L 169.350099 -748.262262 
L 166.8269 -747.032497 
L 164.848465 -745.802731 
L 163.371301 -744.572965 
L 162.332843 -743.343199 
L 161.671244 -742.113433 
L 161.326441 -740.883668 
L 161.231228 -739.653902 
L 161.303821 -738.424136 
L 161.450005 -737.19437 
L 161.576517 -735.964604 
L 161.610647 -734.734839 
z
" style="stroke: #d55e00; stroke-opacity: 0.3"/>
    </defs>
    <g clip-path="url(#p3699310b6b)">
     <use xlink:href="#m415a9f88ca" x="0" y="1080" style="fill: #d55e00; fill-opacity: 0.3; stroke: #d55e00; stroke-opacity: 0.3"/>
    </g>
   </g>
   <g id="PolyCollection_2">
    <defs>
     <path id="m1128d89e4f" d="M 300.795679 -712.979164 
L 299.306653 -712.979164 
L 299.306653 -714.684667 
L 299.306653 -716.39017 
L 299.306653 -718.095673 
L 299.306653 -719.801176 
L 299.306653 -721.506679 
L 299.306653 -723.212182 
L 299.306653 -724.917685 
L 299.306653 -726.623188 
L 299.306653 -728.328691 
L 299.306653 -730.034194 
L 299.306653 -731.739697 
L 299.306653 -733.4452 
L 299.306653 -735.150703 
L 299.306653 -736.856206 
L 299.306653 -738.561709 
L 299.306653 -740.267212 
L 299.306653 -741.972715 
L 299.306653 -743.678218 
L 299.306653 -745.383721 
L 299.306653 -747.089224 
L 299.306653 -748.794727 
L 299.306653 -750.50023 
L 299.306653 -752.205733 
L 299.306653 -753.911236 
L 299.306653 -755.616739 
L 299.306653 -757.322242 
L 299.306653 -759.027745 
L 299.306653 -760.733248 
L 299.306653 -762.438751 
L 299.306653 -764.144254 
L 299.306653 -765.849757 
L 299.306653 -767.55526 
L 299.306653 -769.260763 
L 299.306653 -770.966266 
L 299.306653 -772.67177 
L 299.306653 -774.377273 
L 299.306653 -776.082776 
L 299.306653 -777.788279 
L 300.747529 -777.788279 
L 300.747529 -777.788279 
L 300.822551 -776.082776 
L 300.942873 -774.377273 
L 301.289752 -772.67177 
L 302.094229 -770.966266 
L 303.590659 -769.260763 
L 305.963075 -767.55526 
L 309.295138 -765.849757 
L 313.529127 -764.144254 
L 318.434068 -762.438751 
L 323.586172 -760.733248 
L 328.380871 -759.027745 
L 332.110353 -757.322242 
L 334.125 -755.616739 
L 334.041744 -753.911236 
L 331.903074 -752.205733 
L 328.186791 -750.50023 
L 323.641322 -748.794727 
L 319.026337 -747.089224 
L 314.892147 -745.383721 
L 311.493654 -743.678218 
L 308.841524 -741.972715 
L 306.819182 -740.267212 
L 305.285131 -738.561709 
L 304.12271 -736.856206 
L 303.246766 -735.150703 
L 302.59481 -733.4452 
L 302.119565 -731.739697 
L 301.783438 -730.034194 
L 301.551378 -728.328691 
L 301.385527 -726.623188 
L 301.249105 -724.917685 
L 301.119503 -723.212182 
L 300.99879 -721.506679 
L 300.908063 -719.801176 
L 300.865076 -718.095673 
L 300.860952 -716.39017 
L 300.855322 -714.684667 
L 300.795679 -712.979164 
z
" style="stroke: #0072b2; stroke-opacity: 0.3"/>
    </defs>
    <g clip-path="url(#p3699310b6b)">
     <use xlink:href="#m1128d89e4f" x="0" y="1080" style="fill: #0072b2; fill-opacity: 0.3; stroke: #0072b2; stroke-opacity: 0.3"/>
    </g>
   </g>
   <g id="PolyCollection_3">
    <defs>
     <path id="mfcf006fc0b" d="M 440.57395 -681.220115 
L 438.892347 -681.220115 
L 438.892347 -684.319913 
L 438.892347 -687.419711 
L 438.892347 -690.519509 
L 438.892347 -693.619308 
L 438.892347 -696.719106 
L 438.892347 -699.818904 
L 438.892347 -702.918702 
L 438.892347 -706.018501 
L 438.892347 -709.118299 
L 438.892347 -712.218097 
L 438.892347 -715.317895 
L 438.892347 -718.417693 
L 438.892347 -721.517492 
L 438.892347 -724.61729 
L 438.892347 -727.717088 
L 438.892347 -730.816886 
L 438.892347 -733.916685 
L 438.892347 -737.016483 
L 438.892347 -740.116281 
L 438.892347 -743.216079 
L 438.892347 -746.315877 
L 438.892347 -749.415676 
L 438.892347 -752.515474 
L 438.892347 -755.615272 
L 438.892347 -758.71507 
L 438.892347 -761.814868 
L 438.892347 -764.914667 
L 438.892347 -768.014465 
L 438.892347 -771.114263 
L 438.892347 -774.214061 
L 438.892347 -777.31386 
L 438.892347 -780.413658 
L 438.892347 -783.513456 
L 438.892347 -786.613254 
L 438.892347 -789.713052 
L 438.892347 -792.812851 
L 438.892347 -795.912649 
L 438.892347 -799.012447 
L 446.632204 -799.012447 
L 446.632204 -799.012447 
L 449.119892 -795.912649 
L 452.019744 -792.812851 
L 455.29303 -789.713052 
L 458.843996 -786.613254 
L 462.503726 -783.513456 
L 466.030928 -780.413658 
L 469.139407 -777.31386 
L 471.552453 -774.214061 
L 473.070308 -771.114263 
L 473.625 -768.014465 
L 473.295872 -764.914667 
L 472.273776 -761.814868 
L 470.787156 -758.71507 
L 469.024572 -755.615272 
L 467.090763 -752.515474 
L 465.013888 -749.415676 
L 462.792073 -746.315877 
L 460.446681 -743.216079 
L 458.04998 -740.116281 
L 455.713531 -737.016483 
L 453.547576 -733.916685 
L 451.616984 -730.816886 
L 449.918972 -727.717088 
L 448.394107 -724.61729 
L 446.963504 -721.517492 
L 445.571829 -718.417693 
L 444.214435 -715.317895 
L 442.937533 -712.218097 
L 441.815491 -709.118299 
L 440.919795 -706.018501 
L 440.294594 -702.918702 
L 439.946063 -699.818904 
L 439.843945 -696.719106 
L 439.929435 -693.619308 
L 440.125123 -690.519509 
L 440.34636 -687.419711 
L 440.514941 -684.319913 
L 440.57395 -681.220115 
z
" style="stroke: #009e73; stroke-opacity: 0.3"/>
    </defs>
    <g clip-path="url(#p3699310b6b)">
     <use xlink:href="#mfcf006fc0b" x="0" y="1080" style="fill: #009e73; fill-opacity: 0.3; stroke: #009e73; stroke-opacity: 0.3"/>
    </g>
   </g>
   <g id="PolyCollection_4">
    <defs>
     <path id="m3a80db6ab8" d="M 589.189334 -752.461229 
L 578.600687 -752.461229 
L 578.600687 -753.379496 
L 578.600687 -754.297762 
L 578.600687 -755.216029 
L 578.600687 -756.134296 
L 578.600687 -757.052563 
L 578.600687 -757.97083 
L 578.600687 -758.889097 
L 578.600687 -759.807364 
L 578.600687 -760.72563 
L 578.600687 -761.643897 
L 578.600687 -762.562164 
L 578.600687 -763.480431 
L 578.600687 -764.398698 
L 578.600687 -765.316965 
L 578.600687 -766.235232 
L 578.600687 -767.153498 
L 578.600687 -768.071765 
L 578.600687 -768.990032 
L 578.600687 -769.908299 
L 578.600687 -770.826566 
L 578.600687 -771.744833 
L 578.600687 -772.6631 
L 578.600687 -773.581366 
L 578.600687 -774.499633 
L 578.600687 -775.4179 
L 578.600687 -776.336167 
L 578.600687 -777.254434 
L 578.600687 -778.172701 
L 578.600687 -779.090968 
L 578.600687 -780.009234 
L 578.600687 -780.927501 
L 578.600687 -781.845768 
L 578.600687 -782.764035 
L 578.600687 -783.682302 
L 578.600687 -784.600569 
L 578.600687 -785.518836 
L 578.600687 -786.437102 
L 578.600687 -787.355369 
L 584.777008 -787.355369 
L 584.777008 -787.355369 
L 586.202995 -786.437102 
L 587.878256 -785.518836 
L 589.838074 -784.600569 
L 592.093896 -783.682302 
L 594.61779 -782.764035 
L 597.334155 -781.845768 
L 600.12355 -780.927501 
L 602.839736 -780.009234 
L 605.33603 -779.090968 
L 607.49301 -778.172701 
L 609.238492 -777.254434 
L 610.553481 -776.336167 
L 611.463396 -775.4179 
L 612.019864 -774.499633 
L 612.281787 -773.581366 
L 612.303714 -772.6631 
L 612.135046 -771.744833 
L 611.827789 -770.826566 
L 611.446194 -769.908299 
L 611.070824 -768.990032 
L 610.792311 -768.071765 
L 610.694818 -767.153498 
L 610.833655 -766.235232 
L 611.214001 -765.316965 
L 611.777632 -764.398698 
L 612.402473 -763.480431 
L 612.916622 -762.562164 
L 613.125 -761.643897 
L 612.84373 -760.72563 
L 611.935079 -759.807364 
L 610.335135 -758.889097 
L 608.067555 -757.97083 
L 605.23997 -757.052563 
L 602.024021 -756.134296 
L 598.624342 -755.216029 
L 595.244472 -754.297762 
L 592.057811 -753.379496 
L 589.189334 -752.461229 
z
" style="stroke: #cc79a7; stroke-opacity: 0.3"/>
    </defs>
    <g clip-path="url(#p3699310b6b)">
     <use xlink:href="#m3a80db6ab8" x="0" y="1080" style="fill: #cc79a7; fill-opacity: 0.3; stroke: #cc79a7; stroke-opacity: 0.3"/>
    </g>
   </g>
   <g id="PathCollection_1">
    <defs>
     <path id="m071521f773" d="M 0 0.866025 
C 0.229673 0.866025 0.449969 0.774776 0.612372 0.612372 
C 0.774776 0.449969 0.866025 0.229673 0.866025 0 
C 0.866025 -0.229673 0.774776 -0.449969 0.612372 -0.612372 
C 0.449969 -0.774776 0.229673 -0.866025 0 -0.866025 
C -0.229673 -0.866025 -0.449969 -0.774776 -0.612372 -0.612372 
C -0.774776 -0.449969 -0.866025 -0.229673 -0.866025 0 
C -0.866025 0.229673 -0.774776 0.449969 -0.612372 0.612372 
C -0.449969 0.774776 -0.229673 0.866025 0 0.866025 
z
" style="stroke: #d55e00"/>
    </defs>
    <g clip-path="url(#p3699310b6b)">
     <use xlink:href="#m071521f773" x="136.269062" y="325.536779" style="fill: #d55e00; stroke: #d55e00"/>
     <use xlink:href="#m071521f773" x="130.020126" y="315.399332" style="fill: #d55e00; stroke: #d55e00"/>
     <use xlink:href="#m071521f773" x="136.107661" y="333.042473" style="fill: #d55e00; stroke: #d55e00"/>
     <use xlink:href="#m071521f773" x="131.916847" y="325.249129" style="fill: #d55e00; stroke: #d55e00"/>
     <use xlink:href="#m071521f773" x="127.625797" y="320.073594" style="fill: #d55e00; stroke: #d55e00"/>
     <use xlink:href="#m071521f773" x="138.025358" y="315.232089" style="fill: #d55e00; stroke: #d55e00"/>
     <use xlink:href="#m071521f773" x="131.624127" y="324.133421" style="fill: #d55e00; stroke: #d55e00"/>
     <use xlink:href="#m071521f773" x="128.105723" y="319.330317" style="fill: #d55e00; stroke: #d55e00"/>
     <use xlink:href="#m071521f773" x="133.225279" y="311.409455" style="fill: #d55e00; stroke: #d55e00"/>
     <use xlink:href="#m071521f773" x="131.085252" y="322.749154" style="fill: #d55e00; stroke: #d55e00"/>
     <use xlink:href="#m071521f773" x="135.133058" y="323.46944" style="fill: #d55e00; stroke: #d55e00"/>
     <use xlink:href="#m071521f773" x="127.541432" y="321.787046" style="fill: #d55e00; stroke: #d55e00"/>
     <use xlink:href="#m071521f773" x="138.004921" y="315.204858" style="fill: #d55e00; stroke: #d55e00"/>
     <use xlink:href="#m071521f773" x="126.97345" y="320.766694" style="fill: #d55e00; stroke: #d55e00"/>
     <use xlink:href="#m071521f773" x="131.754814" y="300.885394" style="fill: #d55e00; stroke: #d55e00"/>
     <use xlink:href="#m071521f773" x="126.036733" y="317.906554" style="fill: #d55e00; stroke: #d55e00"/>
     <use xlink:href="#m071521f773" x="133.727083" y="315.272367" style="fill: #d55e00; stroke: #d55e00"/>
     <use xlink:href="#m071521f773" x="138.450119" y="315.697303" style="fill: #d55e00; stroke: #d55e00"/>
     <use xlink:href="#m071521f773" x="133.943313" y="312.139115" style="fill: #d55e00; stroke: #d55e00"/>
     <use xlink:href="#m071521f773" x="136.612149" y="327.825011" style="fill: #d55e00; stroke: #d55e00"/>
     <use xlink:href="#m071521f773" x="126.652459" y="303.52108" style="fill: #d55e00; stroke: #d55e00"/>
     <use xlink:href="#m071521f773" x="133.263711" y="315.429098" style="fill: #d55e00; stroke: #d55e00"/>
     <use xlink:href="#m071521f773" x="134.299379" y="324.888128" style="fill: #d55e00; stroke: #d55e00"/>
     <use xlink:href="#m071521f773" x="129.601791" y="312.577965" style="fill: #d55e00; stroke: #d55e00"/>
     <use xlink:href="#m071521f773" x="136.219259" y="298.53406" style="fill: #d55e00; stroke: #d55e00"/>
     <use xlink:href="#m071521f773" x="129.571866" y="323.532775" style="fill: #d55e00; stroke: #d55e00"/>
     <use xlink:href="#m071521f773" x="128.892887" y="314.237024" style="fill: #d55e00; stroke: #d55e00"/>
     <use xlink:href="#m071521f773" x="125.321433" y="326.209859" style="fill: #d55e00; stroke: #d55e00"/>
     <use xlink:href="#m071521f773" x="130.271329" y="324.270486" style="fill: #d55e00; stroke: #d55e00"/>
     <use xlink:href="#m071521f773" x="135.536862" y="315.412894" style="fill: #d55e00; stroke: #d55e00"/>
     <use xlink:href="#m071521f773" x="126.839625" y="310.089802" style="fill: #d55e00; stroke: #d55e00"/>
     <use xlink:href="#m071521f773" x="131.128189" y="329.490653" style="fill: #d55e00; stroke: #d55e00"/>
     <use xlink:href="#m071521f773" x="134.602801" y="316.873158" style="fill: #d55e00; stroke: #d55e00"/>
     <use xlink:href="#m071521f773" x="130.494167" y="315.661297" style="fill: #d55e00; stroke: #d55e00"/>
     <use xlink:href="#m071521f773" x="134.877182" y="317.614934" style="fill: #d55e00; stroke: #d55e00"/>
     <use xlink:href="#m071521f773" x="138.048352" y="319.984651" style="fill: #d55e00; stroke: #d55e00"/>
     <use xlink:href="#m071521f773" x="135.17568" y="303.835207" style="fill: #d55e00; stroke: #d55e00"/>
     <use xlink:href="#m071521f773" x="128.630111" y="325.884679" style="fill: #d55e00; stroke: #d55e00"/>
     <use xlink:href="#m071521f773" x="135.816538" y="345.265161" style="fill: #d55e00; stroke: #d55e00"/>
    </g>
   </g>
   <g id="PathCollection_2">
    <defs>
     <path id="m5129ab317f" d="M 0 0.866025 
C 0.229673 0.866025 0.449969 0.774776 0.612372 0.612372 
C 0.774776 0.449969 0.866025 0.229673 0.866025 0 
C 0.866025 -0.229673 0.774776 -0.449969 0.612372 -0.612372 
C 0.449969 -0.774776 0.229673 -0.866025 0 -0.866025 
C -0.229673 -0.866025 -0.449969 -0.774776 -0.612372 -0.612372 
C -0.774776 -0.449969 -0.866025 -0.229673 -0.866025 0 
C -0.866025 0.229673 -0.774776 0.449969 -0.612372 0.612372 
C -0.449969 0.774776 -0.229673 0.866025 0 0.866025 
z
" style="stroke: #0072b2"/>
    </defs>
    <g clip-path="url(#p3699310b6b)">
     <use xlink:href="#m5129ab317f" x="272.24466" y="333.599857" style="fill: #0072b2; stroke: #0072b2"/>
     <use xlink:href="#m5129ab317f" x="269.167734" y="322.987789" style="fill: #0072b2; stroke: #0072b2"/>
     <use xlink:href="#m5129ab317f" x="270.399523" y="326.007221" style="fill: #0072b2; stroke: #0072b2"/>
     <use xlink:href="#m5129ab317f" x="275.540877" y="302.211721" style="fill: #0072b2; stroke: #0072b2"/>
     <use xlink:href="#m5129ab317f" x="275.007607" y="322.541139" style="fill: #0072b2; stroke: #0072b2"/>
     <use xlink:href="#m5129ab317f" x="268.391479" y="319.221226" style="fill: #0072b2; stroke: #0072b2"/>
     <use xlink:href="#m5129ab317f" x="272.006066" y="326.797114" style="fill: #0072b2; stroke: #0072b2"/>
     <use xlink:href="#m5129ab317f" x="274.637242" y="327.930778" style="fill: #0072b2; stroke: #0072b2"/>
     <use xlink:href="#m5129ab317f" x="265.254595" y="322.008548" style="fill: #0072b2; stroke: #0072b2"/>
     <use xlink:href="#m5129ab317f" x="269.61059" y="330.290964" style="fill: #0072b2; stroke: #0072b2"/>
     <use xlink:href="#m5129ab317f" x="264.441051" y="324.511842" style="fill: #0072b2; stroke: #0072b2"/>
     <use xlink:href="#m5129ab317f" x="276.6173" y="321.032207" style="fill: #0072b2; stroke: #0072b2"/>
     <use xlink:href="#m5129ab317f" x="268.361541" y="325.873065" style="fill: #0072b2; stroke: #0072b2"/>
     <use xlink:href="#m5129ab317f" x="274.594434" y="337.275431" style="fill: #0072b2; stroke: #0072b2"/>
     <use xlink:href="#m5129ab317f" x="271.437824" y="347.117056" style="fill: #0072b2; stroke: #0072b2"/>
     <use xlink:href="#m5129ab317f" x="277.859008" y="318.394117" style="fill: #0072b2; stroke: #0072b2"/>
     <use xlink:href="#m5129ab317f" x="268.072129" y="328.781844" style="fill: #0072b2; stroke: #0072b2"/>
     <use xlink:href="#m5129ab317f" x="275.609726" y="324.539629" style="fill: #0072b2; stroke: #0072b2"/>
     <use xlink:href="#m5129ab317f" x="264.534682" y="326.540209" style="fill: #0072b2; stroke: #0072b2"/>
     <use xlink:href="#m5129ab317f" x="265.237736" y="325.523529" style="fill: #0072b2; stroke: #0072b2"/>
     <use xlink:href="#m5129ab317f" x="271.693706" y="355.800408" style="fill: #0072b2; stroke: #0072b2"/>
     <use xlink:href="#m5129ab317f" x="272.150788" y="325.41338" style="fill: #0072b2; stroke: #0072b2"/>
     <use xlink:href="#m5129ab317f" x="276.836069" y="325.350548" style="fill: #0072b2; stroke: #0072b2"/>
     <use xlink:href="#m5129ab317f" x="277.533265" y="326.670268" style="fill: #0072b2; stroke: #0072b2"/>
     <use xlink:href="#m5129ab317f" x="267.502235" y="367.020836" style="fill: #0072b2; stroke: #0072b2"/>
     <use xlink:href="#m5129ab317f" x="275.861705" y="318.239709" style="fill: #0072b2; stroke: #0072b2"/>
     <use xlink:href="#m5129ab317f" x="270.379225" y="323.705034" style="fill: #0072b2; stroke: #0072b2"/>
     <use xlink:href="#m5129ab317f" x="277.546828" y="316.97558" style="fill: #0072b2; stroke: #0072b2"/>
     <use xlink:href="#m5129ab317f" x="276.993866" y="316.903394" style="fill: #0072b2; stroke: #0072b2"/>
     <use xlink:href="#m5129ab317f" x="278.131978" y="329.04025" style="fill: #0072b2; stroke: #0072b2"/>
     <use xlink:href="#m5129ab317f" x="275.95357" y="334.621683" style="fill: #0072b2; stroke: #0072b2"/>
     <use xlink:href="#m5129ab317f" x="264.655706" y="325.223246" style="fill: #0072b2; stroke: #0072b2"/>
     <use xlink:href="#m5129ab317f" x="265.264815" y="323.011246" style="fill: #0072b2; stroke: #0072b2"/>
     <use xlink:href="#m5129ab317f" x="276.363717" y="336.784317" style="fill: #0072b2; stroke: #0072b2"/>
     <use xlink:href="#m5129ab317f" x="269.936404" y="328.221141" style="fill: #0072b2; stroke: #0072b2"/>
     <use xlink:href="#m5129ab317f" x="269.374929" y="321.973517" style="fill: #0072b2; stroke: #0072b2"/>
     <use xlink:href="#m5129ab317f" x="265.164136" y="341.528126" style="fill: #0072b2; stroke: #0072b2"/>
     <use xlink:href="#m5129ab317f" x="277.827826" y="326.331089" style="fill: #0072b2; stroke: #0072b2"/>
     <use xlink:href="#m5129ab317f" x="277.822433" y="329.948945" style="fill: #0072b2; stroke: #0072b2"/>
    </g>
   </g>
   <g id="PathCollection_3">
    <defs>
     <path id="m6e3df4e064" d="M 0 0.866025 
C 0.229673 0.866025 0.449969 0.774776 0.612372 0.612372 
C 0.774776 0.449969 0.866025 0.229673 0.866025 0 
C 0.866025 -0.229673 0.774776 -0.449969 0.612372 -0.612372 
C 0.449969 -0.774776 0.229673 -0.866025 0 -0.866025 
C -0.229673 -0.866025 -0.449969 -0.774776 -0.612372 -0.612372 
C -0.774776 -0.449969 -0.866025 -0.229673 -0.866025 0 
C -0.866025 0.229673 -0.774776 0.449969 -0.612372 0.612372 
C -0.449969 0.774776 -0.229673 0.866025 0 0.866025 
z
" style="stroke: #009e73"/>
    </defs>
    <g clip-path="url(#p3699310b6b)">
     <use xlink:href="#m6e3df4e064" x="410.239765" y="304.482184" style="fill: #009e73; stroke: #009e73"/>
     <use xlink:href="#m6e3df4e064" x="416.439251" y="333.44808" style="fill: #009e73; stroke: #009e73"/>
     <use xlink:href="#m6e3df4e064" x="416.64304" y="328.319072" style="fill: #009e73; stroke: #009e73"/>
     <use xlink:href="#m6e3df4e064" x="408.602609" y="311.609245" style="fill: #009e73; stroke: #009e73"/>
     <use xlink:href="#m6e3df4e064" x="417.113865" y="299.445335" style="fill: #009e73; stroke: #009e73"/>
     <use xlink:href="#m6e3df4e064" x="416.826587" y="308.907855" style="fill: #009e73; stroke: #009e73"/>
     <use xlink:href="#m6e3df4e064" x="407.869371" y="315.742929" style="fill: #009e73; stroke: #009e73"/>
     <use xlink:href="#m6e3df4e064" x="404.82037" y="357.84901" style="fill: #009e73; stroke: #009e73"/>
     <use xlink:href="#m6e3df4e064" x="410.799018" y="289.345014" style="fill: #009e73; stroke: #009e73"/>
     <use xlink:href="#m6e3df4e064" x="416.764546" y="323.937036" style="fill: #009e73; stroke: #009e73"/>
     <use xlink:href="#m6e3df4e064" x="412.871395" y="280.987553" style="fill: #009e73; stroke: #009e73"/>
     <use xlink:href="#m6e3df4e064" x="415.642155" y="295.010132" style="fill: #009e73; stroke: #009e73"/>
     <use xlink:href="#m6e3df4e064" x="408.87469" y="315.103635" style="fill: #009e73; stroke: #009e73"/>
     <use xlink:href="#m6e3df4e064" x="405.702366" y="299.593882" style="fill: #009e73; stroke: #009e73"/>
     <use xlink:href="#m6e3df4e064" x="416.133747" y="312.516318" style="fill: #009e73; stroke: #009e73"/>
     <use xlink:href="#m6e3df4e064" x="415.026165" y="311.482529" style="fill: #009e73; stroke: #009e73"/>
     <use xlink:href="#m6e3df4e064" x="404.432256" y="325.577021" style="fill: #009e73; stroke: #009e73"/>
     <use xlink:href="#m6e3df4e064" x="416.583998" y="315.008959" style="fill: #009e73; stroke: #009e73"/>
     <use xlink:href="#m6e3df4e064" x="410.588609" y="345.624326" style="fill: #009e73; stroke: #009e73"/>
     <use xlink:href="#m6e3df4e064" x="416.728551" y="332.224677" style="fill: #009e73; stroke: #009e73"/>
     <use xlink:href="#m6e3df4e064" x="411.056548" y="398.779885" style="fill: #009e73; stroke: #009e73"/>
     <use xlink:href="#m6e3df4e064" x="413.298421" y="343.428623" style="fill: #009e73; stroke: #009e73"/>
     <use xlink:href="#m6e3df4e064" x="411.515436" y="307.690535" style="fill: #009e73; stroke: #009e73"/>
     <use xlink:href="#m6e3df4e064" x="406.167877" y="303.158558" style="fill: #009e73; stroke: #009e73"/>
     <use xlink:href="#m6e3df4e064" x="412.243515" y="355.246848" style="fill: #009e73; stroke: #009e73"/>
     <use xlink:href="#m6e3df4e064" x="417.619535" y="333.18961" style="fill: #009e73; stroke: #009e73"/>
     <use xlink:href="#m6e3df4e064" x="404.580017" y="301.267714" style="fill: #009e73; stroke: #009e73"/>
     <use xlink:href="#m6e3df4e064" x="414.459759" y="309.515071" style="fill: #009e73; stroke: #009e73"/>
     <use xlink:href="#m6e3df4e064" x="405.569912" y="309.428446" style="fill: #009e73; stroke: #009e73"/>
     <use xlink:href="#m6e3df4e064" x="411.348321" y="289.525158" style="fill: #009e73; stroke: #009e73"/>
     <use xlink:href="#m6e3df4e064" x="417.234554" y="337.50522" style="fill: #009e73; stroke: #009e73"/>
     <use xlink:href="#m6e3df4e064" x="407.624074" y="331.20546" style="fill: #009e73; stroke: #009e73"/>
     <use xlink:href="#m6e3df4e064" x="413.00402" y="300.487647" style="fill: #009e73; stroke: #009e73"/>
     <use xlink:href="#m6e3df4e064" x="407.557746" y="325.488829" style="fill: #009e73; stroke: #009e73"/>
     <use xlink:href="#m6e3df4e064" x="404.108718" y="312.327684" style="fill: #009e73; stroke: #009e73"/>
     <use xlink:href="#m6e3df4e064" x="407.286049" y="316.786542" style="fill: #009e73; stroke: #009e73"/>
     <use xlink:href="#m6e3df4e064" x="405.817602" y="360.220689" style="fill: #009e73; stroke: #009e73"/>
     <use xlink:href="#m6e3df4e064" x="408.764998" y="324.750135" style="fill: #009e73; stroke: #009e73"/>
     <use xlink:href="#m6e3df4e064" x="405.691707" y="338.170346" style="fill: #009e73; stroke: #009e73"/>
    </g>
   </g>
   <g id="PathCollection_4">
    <defs>
     <path id="m0b4985e488" d="M 0 0.866025 
C 0.229673 0.866025 0.449969 0.774776 0.612372 0.612372 
C 0.774776 0.449969 0.866025 0.229673 0.866025 0 
C 0.866025 -0.229673 0.774776 -0.449969 0.612372 -0.612372 
C 0.449969 -0.774776 0.229673 -0.866025 0 -0.866025 
C -0.229673 -0.866025 -0.449969 -0.774776 -0.612372 -0.612372 
C -0.774776 -0.449969 -0.866025 -0.229673 -0.866025 0 
C -0.866025 0.229673 -0.774776 0.449969 -0.612372 0.612372 
C -0.449969 0.774776 -0.229673 0.866025 0 0.866025 
z
" style="stroke: #cc79a7"/>
    </defs>
    <g clip-path="url(#p3699310b6b)">
     <use xlink:href="#m0b4985e488" x="553.036901" y="308.915742" style="fill: #cc79a7; stroke: #cc79a7"/>
     <use xlink:href="#m0b4985e488" x="546.933891" y="314.899925" style="fill: #cc79a7; stroke: #cc79a7"/>
     <use xlink:href="#m0b4985e488" x="552.078898" y="302.012829" style="fill: #cc79a7; stroke: #cc79a7"/>
     <use xlink:href="#m0b4985e488" x="545.444319" y="327.538771" style="fill: #cc79a7; stroke: #cc79a7"/>
     <use xlink:href="#m0b4985e488" x="545.800274" y="317.575793" style="fill: #cc79a7; stroke: #cc79a7"/>
     <use xlink:href="#m0b4985e488" x="554.257937" y="323.544568" style="fill: #cc79a7; stroke: #cc79a7"/>
     <use xlink:href="#m0b4985e488" x="554.825268" y="308.054449" style="fill: #cc79a7; stroke: #cc79a7"/>
     <use xlink:href="#m0b4985e488" x="551.642167" y="309.715314" style="fill: #cc79a7; stroke: #cc79a7"/>
     <use xlink:href="#m0b4985e488" x="544.485343" y="323.209677" style="fill: #cc79a7; stroke: #cc79a7"/>
     <use xlink:href="#m0b4985e488" x="544.471521" y="302.097388" style="fill: #cc79a7; stroke: #cc79a7"/>
     <use xlink:href="#m0b4985e488" x="546.130601" y="321.378522" style="fill: #cc79a7; stroke: #cc79a7"/>
     <use xlink:href="#m0b4985e488" x="544.853572" y="320.425079" style="fill: #cc79a7; stroke: #cc79a7"/>
     <use xlink:href="#m0b4985e488" x="553.944572" y="310.061854" style="fill: #cc79a7; stroke: #cc79a7"/>
     <use xlink:href="#m0b4985e488" x="553.557345" y="302.638049" style="fill: #cc79a7; stroke: #cc79a7"/>
     <use xlink:href="#m0b4985e488" x="549.835295" y="301.999884" style="fill: #cc79a7; stroke: #cc79a7"/>
     <use xlink:href="#m0b4985e488" x="556.496366" y="321.178589" style="fill: #cc79a7; stroke: #cc79a7"/>
     <use xlink:href="#m0b4985e488" x="551.305566" y="309.14654" style="fill: #cc79a7; stroke: #cc79a7"/>
     <use xlink:href="#m0b4985e488" x="550.460355" y="312.881238" style="fill: #cc79a7; stroke: #cc79a7"/>
     <use xlink:href="#m0b4985e488" x="552.070084" y="305.108315" style="fill: #cc79a7; stroke: #cc79a7"/>
     <use xlink:href="#m0b4985e488" x="544.591033" y="307.5929" style="fill: #cc79a7; stroke: #cc79a7"/>
     <use xlink:href="#m0b4985e488" x="551.742437" y="292.644631" style="fill: #cc79a7; stroke: #cc79a7"/>
     <use xlink:href="#m0b4985e488" x="553.744233" y="300.930915" style="fill: #cc79a7; stroke: #cc79a7"/>
     <use xlink:href="#m0b4985e488" x="552.635608" y="312.746682" style="fill: #cc79a7; stroke: #cc79a7"/>
     <use xlink:href="#m0b4985e488" x="545.756955" y="320.662621" style="fill: #cc79a7; stroke: #cc79a7"/>
     <use xlink:href="#m0b4985e488" x="552.389604" y="295.722673" style="fill: #cc79a7; stroke: #cc79a7"/>
     <use xlink:href="#m0b4985e488" x="557.197761" y="313.833412" style="fill: #cc79a7; stroke: #cc79a7"/>
     <use xlink:href="#m0b4985e488" x="553.697672" y="317.837741" style="fill: #cc79a7; stroke: #cc79a7"/>
     <use xlink:href="#m0b4985e488" x="546.343716" y="318.89824" style="fill: #cc79a7; stroke: #cc79a7"/>
     <use xlink:href="#m0b4985e488" x="553.040484" y="321.287215" style="fill: #cc79a7; stroke: #cc79a7"/>
     <use xlink:href="#m0b4985e488" x="549.978816" y="318.821111" style="fill: #cc79a7; stroke: #cc79a7"/>
     <use xlink:href="#m0b4985e488" x="544.225519" y="317.666007" style="fill: #cc79a7; stroke: #cc79a7"/>
     <use xlink:href="#m0b4985e488" x="549.072849" y="303.662275" style="fill: #cc79a7; stroke: #cc79a7"/>
     <use xlink:href="#m0b4985e488" x="544.291123" y="321.404318" style="fill: #cc79a7; stroke: #cc79a7"/>
     <use xlink:href="#m0b4985e488" x="549.843518" y="308.249919" style="fill: #cc79a7; stroke: #cc79a7"/>
     <use xlink:href="#m0b4985e488" x="553.035673" y="307.970526" style="fill: #cc79a7; stroke: #cc79a7"/>
     <use xlink:href="#m0b4985e488" x="548.573417" y="315.411574" style="fill: #cc79a7; stroke: #cc79a7"/>
     <use xlink:href="#m0b4985e488" x="545.339" y="299.899423" style="fill: #cc79a7; stroke: #cc79a7"/>
     <use xlink:href="#m0b4985e488" x="546.892708" y="303.320796" style="fill: #cc79a7; stroke: #cc79a7"/>
     <use xlink:href="#m0b4985e488" x="545.046248" y="300.547689" style="fill: #cc79a7; stroke: #cc79a7"/>
    </g>
   </g>
   <g id="patch_3">
    <path d="M 149.2875 324.201954 
L 170.2125 324.201954 
L 170.2125 315.218474 
L 149.2875 315.218474 
L 149.2875 324.201954 
z
" clip-path="url(#p3699310b6b)" style="fill: #d55e00; opacity: 0.5; stroke: #000000; stroke-linejoin: miter"/>
   </g>
   <g id="line2d_12">
    <path d="M 159.75 324.201954 
L 159.75 333.042473 
" clip-path="url(#p3699310b6b)" style="fill: none; stroke: #000000; stroke-linecap: round"/>
   </g>
   <g id="line2d_13">
    <path d="M 159.75 315.218474 
L 159.75 303.52108 
" clip-path="url(#p3699310b6b)" style="fill: none; stroke: #000000; stroke-linecap: round"/>
   </g>
   <g id="line2d_14">
    <path d="M 154.51875 333.042473 
L 164.98125 333.042473 
" clip-path="url(#p3699310b6b)" style="fill: none; stroke: #000000; stroke-linecap: round"/>
   </g>
   <g id="line2d_15">
    <path d="M 154.51875 303.52108 
L 164.98125 303.52108 
" clip-path="url(#p3699310b6b)" style="fill: none; stroke: #000000; stroke-linecap: round"/>
   </g>
   <g id="patch_4">
    <path d="M 288.7875 329.494597 
L 309.7125 329.494597 
L 309.7125 322.764464 
L 288.7875 322.764464 
L 288.7875 329.494597 
z
" clip-path="url(#p3699310b6b)" style="fill: #0072b2; opacity: 0.5; stroke: #000000; stroke-linejoin: miter"/>
   </g>
   <g id="line2d_16">
    <path d="M 299.25 329.494597 
L 299.25 337.275431 
" clip-path="url(#p3699310b6b)" style="fill: none; stroke: #000000; stroke-linecap: round"/>
   </g>
   <g id="line2d_17">
    <path d="M 299.25 322.764464 
L 299.25 316.903394 
" clip-path="url(#p3699310b6b)" style="fill: none; stroke: #000000; stroke-linecap: round"/>
   </g>
   <g id="line2d_18">
    <path d="M 294.01875 337.275431 
L 304.48125 337.275431 
" clip-path="url(#p3699310b6b)" style="fill: none; stroke: #000000; stroke-linecap: round"/>
   </g>
   <g id="line2d_19">
    <path d="M 294.01875 316.903394 
L 304.48125 316.903394 
" clip-path="url(#p3699310b6b)" style="fill: none; stroke: #000000; stroke-linecap: round"/>
   </g>
   <g id="patch_5">
    <path d="M 428.2875 332.707143 
L 449.2125 332.707143 
L 449.2125 306.086359 
L 428.2875 306.086359 
L 428.2875 332.707143 
z
" clip-path="url(#p3699310b6b)" style="fill: #009e73; opacity: 0.5; stroke: #000000; stroke-linejoin: miter"/>
   </g>
   <g id="line2d_20">
    <path d="M 438.75 332.707143 
L 438.75 360.220689 
" clip-path="url(#p3699310b6b)" style="fill: none; stroke: #000000; stroke-linecap: round"/>
   </g>
   <g id="line2d_21">
    <path d="M 438.75 306.086359 
L 438.75 280.987553 
" clip-path="url(#p3699310b6b)" style="fill: none; stroke: #000000; stroke-linecap: round"/>
   </g>
   <g id="line2d_22">
    <path d="M 433.51875 360.220689 
L 443.98125 360.220689 
" clip-path="url(#p3699310b6b)" style="fill: none; stroke: #000000; stroke-linecap: round"/>
   </g>
   <g id="line2d_23">
    <path d="M 433.51875 280.987553 
L 443.98125 280.987553 
" clip-path="url(#p3699310b6b)" style="fill: none; stroke: #000000; stroke-linecap: round"/>
   </g>
   <g id="patch_6">
    <path d="M 567.7875 318.859676 
L 588.7125 318.859676 
L 588.7125 303.491535 
L 567.7875 303.491535 
L 567.7875 318.859676 
z
" clip-path="url(#p3699310b6b)" style="fill: #cc79a7; opacity: 0.5; stroke: #000000; stroke-linejoin: miter"/>
   </g>
   <g id="line2d_24">
    <path d="M 578.25 318.859676 
L 578.25 327.538771 
" clip-path="url(#p3699310b6b)" style="fill: none; stroke: #000000; stroke-linecap: round"/>
   </g>
   <g id="line2d_25">
    <path d="M 578.25 303.491535 
L 578.25 292.644631 
" clip-path="url(#p3699310b6b)" style="fill: none; stroke: #000000; stroke-linecap: round"/>
   </g>
   <g id="line2d_26">
    <path d="M 573.01875 327.538771 
L 583.48125 327.538771 
" clip-path="url(#p3699310b6b)" style="fill: none; stroke: #000000; stroke-linecap: round"/>
   </g>
   <g id="line2d_27">
    <path d="M 573.01875 292.644631 
L 583.48125 292.644631 
" clip-path="url(#p3699310b6b)" style="fill: none; stroke: #000000; stroke-linecap: round"/>
   </g>
   <g id="line2d_28">
    <path d="M 299.25 269.175053 
L 438.75 269.175053 
" clip-path="url(#p3699310b6b)" style="fill: none; stroke: #000000; stroke-width: 1.5; stroke-linecap: round"/>
   </g>
   <g id="line2d_29">
    <path d="M 299.25 257.362553 
L 578.25 257.362553 
" clip-path="url(#p3699310b6b)" style="fill: none; stroke: #000000; stroke-width: 1.5; stroke-linecap: round"/>
   </g>
   <g id="line2d_30">
    <path d="M 149.2875 317.906554 
L 170.2125 317.906554 
" clip-path="url(#p3699310b6b)" style="fill: none; stroke: #000000"/>
   </g>
   <g id="line2d_31">
    <path d="M 288.7875 325.873065 
L 309.7125 325.873065 
" clip-path="url(#p3699310b6b)" style="fill: none; stroke: #000000"/>
   </g>
   <g id="line2d_32">
    <path d="M 428.2875 315.103635 
L 449.2125 315.103635 
" clip-path="url(#p3699310b6b)" style="fill: none; stroke: #000000"/>
   </g>
   <g id="line2d_33">
    <path d="M 567.7875 310.061854 
L 588.7125 310.061854 
" clip-path="url(#p3699310b6b)" style="fill: none; stroke: #000000"/>
   </g>
   <g id="patch_7">
    <path d="M 90 507.6 
L 90 129.6 
" style="fill: none; stroke: #262626; stroke-width: 1.25; stroke-linejoin: miter; stroke-linecap: square"/>
   </g>
   <g id="patch_8">
    <path d="M 648 507.6 
L 648 129.6 
" style="fill: none; stroke: #262626; stroke-width: 1.25; stroke-linejoin: miter; stroke-linecap: square"/>
   </g>
   <g id="patch_9">
    <path d="M 90 507.6 
L 648 507.6 
" style="fill: none; stroke: #262626; stroke-width: 1.25; stroke-linejoin: miter; stroke-linecap: square"/>
   </g>
   <g id="patch_10">
    <path d="M 90 129.6 
L 648 129.6 
" style="fill: none; stroke: #262626; stroke-width: 1.25; stroke-linejoin: miter; stroke-linecap: square"/>
   </g>
   <g id="text_13">
    <!-- * -->
    <g transform="translate(369 269.175053) scale(0.12 -0.12)">
     <defs>
      <path id="ArialMT-2a" d="M 200 3741 
L 344 4184 
Q 841 4009 1066 3881 
Q 1006 4447 1003 4659 
L 1456 4659 
Q 1447 4350 1384 3884 
Q 1706 4047 2122 4184 
L 2266 3741 
Q 1869 3609 1488 3566 
Q 1678 3400 2025 2975 
L 1650 2709 
Q 1469 2956 1222 3381 
Q 991 2941 816 2709 
L 447 2975 
Q 809 3422 966 3566 
Q 563 3644 200 3741 
z
" transform="scale(0.015625)"/>
     </defs>
     <use xlink:href="#ArialMT-2a"/>
    </g>
   </g>
   <g id="text_14">
    <!-- * -->
    <g transform="translate(438.75 257.362553) scale(0.12 -0.12)">
     <use xlink:href="#ArialMT-2a"/>
    </g>
   </g>
   <g id="text_15">
    <!-- IBI -->
    <g style="fill: #262626" transform="translate(360.055313 109.6) scale(0.14 -0.14)">
     <defs>
      <path id="Arial-BoldMT-49" d="M 438 0 
L 438 4581 
L 1363 4581 
L 1363 0 
L 438 0 
z
" transform="scale(0.015625)"/>
      <path id="Arial-BoldMT-42" d="M 469 4581 
L 2300 4581 
Q 2844 4581 3111 4536 
Q 3378 4491 3589 4347 
Q 3800 4203 3940 3964 
Q 4081 3725 4081 3428 
Q 4081 3106 3907 2837 
Q 3734 2569 3438 2434 
Q 3856 2313 4081 2019 
Q 4306 1725 4306 1328 
Q 4306 1016 4161 720 
Q 4016 425 3764 248 
Q 3513 72 3144 31 
Q 2913 6 2028 0 
L 469 0 
L 469 4581 
z
M 1394 3819 
L 1394 2759 
L 2000 2759 
Q 2541 2759 2672 2775 
Q 2909 2803 3045 2939 
Q 3181 3075 3181 3297 
Q 3181 3509 3064 3642 
Q 2947 3775 2716 3803 
Q 2578 3819 1925 3819 
L 1394 3819 
z
M 1394 1997 
L 1394 772 
L 2250 772 
Q 2750 772 2884 800 
Q 3091 838 3220 983 
Q 3350 1128 3350 1372 
Q 3350 1578 3250 1722 
Q 3150 1866 2961 1931 
Q 2772 1997 2141 1997 
L 1394 1997 
z
" transform="scale(0.015625)"/>
     </defs>
     <use xlink:href="#Arial-BoldMT-49"/>
     <use xlink:href="#Arial-BoldMT-42" x="27.783203"/>
     <use xlink:href="#Arial-BoldMT-49" x="100"/>
    </g>
   </g>
  </g>
  <g id="axes_2">
   <g id="patch_11">
    <path d="M 90 961.2 
L 648 961.2 
L 648 583.2 
L 90 583.2 
z
" style="fill: #ffffff"/>
   </g>
   <g id="matplotlib.axis_3">
    <g id="xtick_5">
     <g id="line2d_34">
      <g>
       <use xlink:href="#mc74b944dc4" x="159.75" y="961.2" style="fill: #262626; stroke: #262626; stroke-width: 1.25"/>
      </g>
     </g>
     <g id="text_16">
      <!-- State 1 -->
      <g style="fill: #262626" transform="translate(142.321875 978.573594) scale(0.11 -0.11)">
       <use xlink:href="#ArialMT-53"/>
       <use xlink:href="#ArialMT-74" x="66.699219"/>
       <use xlink:href="#ArialMT-61" x="94.482422"/>
       <use xlink:href="#ArialMT-74" x="150.097656"/>
       <use xlink:href="#ArialMT-65" x="177.880859"/>
       <use xlink:href="#ArialMT-20" x="233.496094"/>
       <use xlink:href="#ArialMT-31" x="261.279297"/>
      </g>
     </g>
    </g>
    <g id="xtick_6">
     <g id="line2d_35">
      <g>
       <use xlink:href="#mc74b944dc4" x="299.25" y="961.2" style="fill: #262626; stroke: #262626; stroke-width: 1.25"/>
      </g>
     </g>
     <g id="text_17">
      <!-- State 2 -->
      <g style="fill: #262626" transform="translate(281.821875 978.573594) scale(0.11 -0.11)">
       <use xlink:href="#ArialMT-53"/>
       <use xlink:href="#ArialMT-74" x="66.699219"/>
       <use xlink:href="#ArialMT-61" x="94.482422"/>
       <use xlink:href="#ArialMT-74" x="150.097656"/>
       <use xlink:href="#ArialMT-65" x="177.880859"/>
       <use xlink:href="#ArialMT-20" x="233.496094"/>
       <use xlink:href="#ArialMT-32" x="261.279297"/>
      </g>
     </g>
    </g>
    <g id="xtick_7">
     <g id="line2d_36">
      <g>
       <use xlink:href="#mc74b944dc4" x="438.75" y="961.2" style="fill: #262626; stroke: #262626; stroke-width: 1.25"/>
      </g>
     </g>
     <g id="text_18">
      <!-- State 3 -->
      <g style="fill: #262626" transform="translate(421.321875 978.573594) scale(0.11 -0.11)">
       <use xlink:href="#ArialMT-53"/>
       <use xlink:href="#ArialMT-74" x="66.699219"/>
       <use xlink:href="#ArialMT-61" x="94.482422"/>
       <use xlink:href="#ArialMT-74" x="150.097656"/>
       <use xlink:href="#ArialMT-65" x="177.880859"/>
       <use xlink:href="#ArialMT-20" x="233.496094"/>
       <use xlink:href="#ArialMT-33" x="261.279297"/>
      </g>
     </g>
    </g>
    <g id="xtick_8">
     <g id="line2d_37">
      <g>
       <use xlink:href="#mc74b944dc4" x="578.25" y="961.2" style="fill: #262626; stroke: #262626; stroke-width: 1.25"/>
      </g>
     </g>
     <g id="text_19">
      <!-- State 4 -->
      <g style="fill: #262626" transform="translate(560.821875 978.573594) scale(0.11 -0.11)">
       <use xlink:href="#ArialMT-53"/>
       <use xlink:href="#ArialMT-74" x="66.699219"/>
       <use xlink:href="#ArialMT-61" x="94.482422"/>
       <use xlink:href="#ArialMT-74" x="150.097656"/>
       <use xlink:href="#ArialMT-65" x="177.880859"/>
       <use xlink:href="#ArialMT-20" x="233.496094"/>
       <use xlink:href="#ArialMT-34" x="261.279297"/>
      </g>
     </g>
    </g>
   </g>
   <g id="matplotlib.axis_4">
    <g id="ytick_8">
     <g id="line2d_38">
      <g>
       <use xlink:href="#mdebc0a5134" x="90" y="949.3875" style="fill: #262626; stroke: #262626; stroke-width: 1.25"/>
      </g>
     </g>
     <g id="text_20">
      <!-- −3 -->
      <g style="fill: #262626" transform="translate(67.958281 953.324297) scale(0.11 -0.11)">
       <use xlink:href="#ArialMT-2212"/>
       <use xlink:href="#ArialMT-33" x="58.398438"/>
      </g>
     </g>
    </g>
    <g id="ytick_9">
     <g id="line2d_39">
      <g>
       <use xlink:href="#mdebc0a5134" x="90" y="890.325" style="fill: #262626; stroke: #262626; stroke-width: 1.25"/>
      </g>
     </g>
     <g id="text_21">
      <!-- −2 -->
      <g style="fill: #262626" transform="translate(67.958281 894.261797) scale(0.11 -0.11)">
       <use xlink:href="#ArialMT-2212"/>
       <use xlink:href="#ArialMT-32" x="58.398438"/>
      </g>
     </g>
    </g>
    <g id="ytick_10">
     <g id="line2d_40">
      <g>
       <use xlink:href="#mdebc0a5134" x="90" y="831.2625" style="fill: #262626; stroke: #262626; stroke-width: 1.25"/>
      </g>
     </g>
     <g id="text_22">
      <!-- −1 -->
      <g style="fill: #262626" transform="translate(67.958281 835.199297) scale(0.11 -0.11)">
       <use xlink:href="#ArialMT-2212"/>
       <use xlink:href="#ArialMT-31" x="58.398438"/>
      </g>
     </g>
    </g>
    <g id="ytick_11">
     <g id="line2d_41">
      <g>
       <use xlink:href="#mdebc0a5134" x="90" y="772.2" style="fill: #262626; stroke: #262626; stroke-width: 1.25"/>
      </g>
     </g>
     <g id="text_23">
      <!-- 0 -->
      <g style="fill: #262626" transform="translate(74.382969 776.136797) scale(0.11 -0.11)">
       <use xlink:href="#ArialMT-30"/>
      </g>
     </g>
    </g>
    <g id="ytick_12">
     <g id="line2d_42">
      <g>
       <use xlink:href="#mdebc0a5134" x="90" y="713.1375" style="fill: #262626; stroke: #262626; stroke-width: 1.25"/>
      </g>
     </g>
     <g id="text_24">
      <!-- 1 -->
      <g style="fill: #262626" transform="translate(74.382969 717.074297) scale(0.11 -0.11)">
       <use xlink:href="#ArialMT-31"/>
      </g>
     </g>
    </g>
    <g id="ytick_13">
     <g id="line2d_43">
      <g>
       <use xlink:href="#mdebc0a5134" x="90" y="654.075" style="fill: #262626; stroke: #262626; stroke-width: 1.25"/>
      </g>
     </g>
     <g id="text_25">
      <!-- 2 -->
      <g style="fill: #262626" transform="translate(74.382969 658.011797) scale(0.11 -0.11)">
       <use xlink:href="#ArialMT-32"/>
      </g>
     </g>
    </g>
    <g id="ytick_14">
     <g id="line2d_44">
      <g>
       <use xlink:href="#mdebc0a5134" x="90" y="595.0125" style="fill: #262626; stroke: #262626; stroke-width: 1.25"/>
      </g>
     </g>
     <g id="text_26">
      <!-- 3 -->
      <g style="fill: #262626" transform="translate(74.382969 598.949297) scale(0.11 -0.11)">
       <use xlink:href="#ArialMT-33"/>
      </g>
     </g>
    </g>
    <g id="text_27">
     <!-- Value (z-scored) -->
     <g style="fill: #262626" transform="translate(61.432656 815.770313) rotate(-90) scale(0.12 -0.12)">
      <use xlink:href="#ArialMT-56"/>
      <use xlink:href="#ArialMT-61" x="59.324219"/>
      <use xlink:href="#ArialMT-6c" x="114.939453"/>
      <use xlink:href="#ArialMT-75" x="137.15625"/>
      <use xlink:href="#ArialMT-65" x="192.771484"/>
      <use xlink:href="#ArialMT-20" x="248.386719"/>
      <use xlink:href="#ArialMT-28" x="276.169922"/>
      <use xlink:href="#ArialMT-7a" x="309.470703"/>
      <use xlink:href="#ArialMT-2d" x="359.470703"/>
      <use xlink:href="#ArialMT-73" x="392.771484"/>
      <use xlink:href="#ArialMT-63" x="442.771484"/>
      <use xlink:href="#ArialMT-6f" x="492.771484"/>
      <use xlink:href="#ArialMT-72" x="548.386719"/>
      <use xlink:href="#ArialMT-65" x="581.6875"/>
      <use xlink:href="#ArialMT-64" x="637.302734"/>
      <use xlink:href="#ArialMT-29" x="692.917969"/>
     </g>
    </g>
   </g>
   <g id="PolyCollection_5">
    <defs>
     <path id="mebc3ffee02" d="M 163.28494 -277.87373 
L 159.885452 -277.87373 
L 159.885452 -279.160958 
L 159.885452 -280.448186 
L 159.885452 -281.735415 
L 159.885452 -283.022643 
L 159.885452 -284.309872 
L 159.885452 -285.5971 
L 159.885452 -286.884329 
L 159.885452 -288.171557 
L 159.885452 -289.458786 
L 159.885452 -290.746014 
L 159.885452 -292.033242 
L 159.885452 -293.320471 
L 159.885452 -294.607699 
L 159.885452 -295.894928 
L 159.885452 -297.182156 
L 159.885452 -298.469385 
L 159.885452 -299.756613 
L 159.885452 -301.043842 
L 159.885452 -302.33107 
L 159.885452 -303.618299 
L 159.885452 -304.905527 
L 159.885452 -306.192755 
L 159.885452 -307.479984 
L 159.885452 -308.767212 
L 159.885452 -310.054441 
L 159.885452 -311.341669 
L 159.885452 -312.628898 
L 159.885452 -313.916126 
L 159.885452 -315.203355 
L 159.885452 -316.490583 
L 159.885452 -317.777811 
L 159.885452 -319.06504 
L 159.885452 -320.352268 
L 159.885452 -321.639497 
L 159.885452 -322.926725 
L 159.885452 -324.213954 
L 159.885452 -325.501182 
L 159.885452 -326.788411 
L 163.651736 -326.788411 
L 163.651736 -326.788411 
L 164.582837 -325.501182 
L 165.746584 -324.213954 
L 167.208498 -322.926725 
L 169.008534 -321.639497 
L 171.13836 -320.352268 
L 173.530105 -319.06504 
L 176.064367 -317.777811 
L 178.598494 -316.490583 
L 181.006974 -315.203355 
L 183.218033 -313.916126 
L 185.229064 -312.628898 
L 187.090791 -311.341669 
L 188.864241 -310.054441 
L 190.56892 -308.767212 
L 192.147095 -307.479984 
L 193.463156 -306.192755 
L 194.341065 -304.905527 
L 194.625 -303.618299 
L 194.237809 -302.33107 
L 193.213537 -301.043842 
L 191.692277 -299.756613 
L 189.881021 -298.469385 
L 187.995982 -297.182156 
L 186.206148 -295.894928 
L 184.594891 -294.607699 
L 183.149188 -293.320471 
L 181.777543 -292.033242 
L 180.349987 -290.746014 
L 178.747732 -289.458786 
L 176.907251 -288.171557 
L 174.844812 -286.884329 
L 172.653622 -285.5971 
L 170.475208 -284.309872 
L 168.456249 -283.022643 
L 166.707282 -281.735415 
L 165.277995 -280.448186 
L 164.155888 -279.160958 
L 163.28494 -277.87373 
z
" style="stroke: #d55e00; stroke-opacity: 0.3"/>
    </defs>
    <g clip-path="url(#pbc5fc79ac7)">
     <use xlink:href="#mebc3ffee02" x="0" y="1080" style="fill: #d55e00; fill-opacity: 0.3; stroke: #d55e00; stroke-opacity: 0.3"/>
    </g>
   </g>
   <g id="PolyCollection_6">
    <defs>
     <path id="mf8c011f818" d="M 303.998496 -264.452229 
L 299.484765 -264.452229 
L 299.484765 -265.973594 
L 299.484765 -267.49496 
L 299.484765 -269.016325 
L 299.484765 -270.537691 
L 299.484765 -272.059057 
L 299.484765 -273.580422 
L 299.484765 -275.101788 
L 299.484765 -276.623153 
L 299.484765 -278.144519 
L 299.484765 -279.665884 
L 299.484765 -281.18725 
L 299.484765 -282.708615 
L 299.484765 -284.229981 
L 299.484765 -285.751346 
L 299.484765 -287.272712 
L 299.484765 -288.794077 
L 299.484765 -290.315443 
L 299.484765 -291.836808 
L 299.484765 -293.358174 
L 299.484765 -294.87954 
L 299.484765 -296.400905 
L 299.484765 -297.922271 
L 299.484765 -299.443636 
L 299.484765 -300.965002 
L 299.484765 -302.486367 
L 299.484765 -304.007733 
L 299.484765 -305.529098 
L 299.484765 -307.050464 
L 299.484765 -308.571829 
L 299.484765 -310.093195 
L 299.484765 -311.61456 
L 299.484765 -313.135926 
L 299.484765 -314.657292 
L 299.484765 -316.178657 
L 299.484765 -317.700023 
L 299.484765 -319.221388 
L 299.484765 -320.742754 
L 299.484765 -322.264119 
L 308.769009 -322.264119 
L 308.769009 -322.264119 
L 310.908743 -320.742754 
L 313.1814 -319.221388 
L 315.534509 -317.700023 
L 317.918239 -316.178657 
L 320.287565 -314.657292 
L 322.601945 -313.135926 
L 324.823498 -311.61456 
L 326.914882 -310.093195 
L 328.837309 -308.571829 
L 330.54825 -307.050464 
L 331.998205 -305.529098 
L 333.127107 -304.007733 
L 333.862771 -302.486367 
L 334.125 -300.965002 
L 333.837878 -299.443636 
L 332.949352 -297.922271 
L 331.452852 -296.400905 
L 329.402911 -294.87954 
L 326.917465 -293.358174 
L 324.163925 -291.836808 
L 321.332225 -290.315443 
L 318.602999 -288.794077 
L 316.120435 -287.272712 
L 313.97685 -285.751346 
L 312.210962 -284.229981 
L 310.816847 -282.708615 
L 309.757743 -281.18725 
L 308.979096 -279.665884 
L 308.417689 -278.144519 
L 308.006814 -276.623153 
L 307.679512 -275.101788 
L 307.372151 -273.580422 
L 307.029374 -272.059057 
L 306.60976 -270.537691 
L 306.090425 -269.016325 
L 305.468886 -267.49496 
L 304.761435 -265.973594 
L 303.998496 -264.452229 
z
" style="stroke: #0072b2; stroke-opacity: 0.3"/>
    </defs>
    <g clip-path="url(#pbc5fc79ac7)">
     <use xlink:href="#mf8c011f818" x="0" y="1080" style="fill: #0072b2; fill-opacity: 0.3; stroke: #0072b2; stroke-opacity: 0.3"/>
    </g>
   </g>
   <g id="PolyCollection_7">
    <defs>
     <path id="m1255c893c6" d="M 440.794801 -222.412176 
L 438.840188 -222.412176 
L 438.840188 -226.93886 
L 438.840188 -231.465545 
L 438.840188 -235.99223 
L 438.840188 -240.518914 
L 438.840188 -245.045599 
L 438.840188 -249.572284 
L 438.840188 -254.098969 
L 438.840188 -258.625653 
L 438.840188 -263.152338 
L 438.840188 -267.679023 
L 438.840188 -272.205708 
L 438.840188 -276.732392 
L 438.840188 -281.259077 
L 438.840188 -285.785762 
L 438.840188 -290.312447 
L 438.840188 -294.839131 
L 438.840188 -299.365816 
L 438.840188 -303.892501 
L 438.840188 -308.419185 
L 438.840188 -312.94587 
L 438.840188 -317.472555 
L 438.840188 -321.99924 
L 438.840188 -326.525924 
L 438.840188 -331.052609 
L 438.840188 -335.579294 
L 438.840188 -340.105979 
L 438.840188 -344.632663 
L 438.840188 -349.159348 
L 438.840188 -353.686033 
L 438.840188 -358.212718 
L 438.840188 -362.739402 
L 438.840188 -367.266087 
L 438.840188 -371.792772 
L 438.840188 -376.319457 
L 438.840188 -380.846141 
L 438.840188 -385.372826 
L 438.840188 -389.899511 
L 438.840188 -394.426195 
L 441.965606 -394.426195 
L 441.965606 -394.426195 
L 442.617044 -389.899511 
L 443.404717 -385.372826 
L 444.42122 -380.846141 
L 445.767556 -376.319457 
L 447.531784 -371.792772 
L 449.77022 -367.266087 
L 452.493262 -362.739402 
L 455.653778 -358.212718 
L 459.135906 -353.686033 
L 462.747602 -349.159348 
L 466.227633 -344.632663 
L 469.278623 -340.105979 
L 471.626718 -335.579294 
L 473.089925 -331.052609 
L 473.625 -326.525924 
L 473.328863 -321.99924 
L 472.393495 -317.472555 
L 471.037638 -312.94587 
L 469.447465 -308.419185 
L 467.747227 -303.892501 
L 466.000115 -299.365816 
L 464.224731 -294.839131 
L 462.411605 -290.312447 
L 460.533571 -285.785762 
L 458.553887 -281.259077 
L 456.439118 -276.732392 
L 454.178892 -272.205708 
L 451.806482 -267.679023 
L 449.409101 -263.152338 
L 447.118919 -258.625653 
L 445.084377 -254.098969 
L 443.431166 -249.572284 
L 442.227484 -245.045599 
L 441.466229 -240.518914 
L 441.069524 -235.99223 
L 440.91275 -231.465545 
L 440.859291 -226.93886 
L 440.794801 -222.412176 
z
" style="stroke: #009e73; stroke-opacity: 0.3"/>
    </defs>
    <g clip-path="url(#pbc5fc79ac7)">
     <use xlink:href="#m1255c893c6" x="0" y="1080" style="fill: #009e73; fill-opacity: 0.3; stroke: #009e73; stroke-opacity: 0.3"/>
    </g>
   </g>
   <g id="PolyCollection_8">
    <defs>
     <path id="m57953fbbea" d="M 588.940913 -293.365952 
L 578.607034 -293.365952 
L 578.607034 -294.524421 
L 578.607034 -295.68289 
L 578.607034 -296.84136 
L 578.607034 -297.999829 
L 578.607034 -299.158298 
L 578.607034 -300.316768 
L 578.607034 -301.475237 
L 578.607034 -302.633707 
L 578.607034 -303.792176 
L 578.607034 -304.950645 
L 578.607034 -306.109115 
L 578.607034 -307.267584 
L 578.607034 -308.426053 
L 578.607034 -309.584523 
L 578.607034 -310.742992 
L 578.607034 -311.901462 
L 578.607034 -313.059931 
L 578.607034 -314.2184 
L 578.607034 -315.37687 
L 578.607034 -316.535339 
L 578.607034 -317.693809 
L 578.607034 -318.852278 
L 578.607034 -320.010747 
L 578.607034 -321.169217 
L 578.607034 -322.327686 
L 578.607034 -323.486155 
L 578.607034 -324.644625 
L 578.607034 -325.803094 
L 578.607034 -326.961564 
L 578.607034 -328.120033 
L 578.607034 -329.278502 
L 578.607034 -330.436972 
L 578.607034 -331.595441 
L 578.607034 -332.75391 
L 578.607034 -333.91238 
L 578.607034 -335.070849 
L 578.607034 -336.229319 
L 578.607034 -337.387788 
L 585.787908 -337.387788 
L 585.787908 -337.387788 
L 586.88305 -336.229319 
L 587.981242 -335.070849 
L 589.125248 -333.91238 
L 590.387615 -332.75391 
L 591.856558 -331.595441 
L 593.613051 -330.436972 
L 595.704225 -329.278502 
L 598.120481 -328.120033 
L 600.783866 -326.961564 
L 603.552694 -325.803094 
L 606.242711 -324.644625 
L 608.659834 -323.486155 
L 610.635688 -322.327686 
L 612.056417 -321.169217 
L 612.877855 -320.010747 
L 613.125 -318.852278 
L 612.87872 -317.693809 
L 612.255633 -316.535339 
L 611.38739 -315.37687 
L 610.403435 -314.2184 
L 609.418481 -313.059931 
L 608.52379 -311.901462 
L 607.780829 -310.742992 
L 607.216634 -309.584523 
L 606.821362 -308.426053 
L 606.54918 -307.267584 
L 606.32346 -306.109115 
L 606.046382 -304.950645 
L 605.612112 -303.792176 
L 604.921932 -302.633707 
L 603.899274 -301.475237 
L 602.502346 -300.316768 
L 600.732123 -299.158298 
L 598.633897 -297.999829 
L 596.291618 -296.84136 
L 593.815798 -295.68289 
L 591.327369 -294.524421 
L 588.940913 -293.365952 
z
" style="stroke: #cc79a7; stroke-opacity: 0.3"/>
    </defs>
    <g clip-path="url(#pbc5fc79ac7)">
     <use xlink:href="#m57953fbbea" x="0" y="1080" style="fill: #cc79a7; fill-opacity: 0.3; stroke: #cc79a7; stroke-opacity: 0.3"/>
    </g>
   </g>
   <g id="PathCollection_5">
    <g clip-path="url(#pbc5fc79ac7)">
     <use xlink:href="#m071521f773" x="135.922524" y="766.970603" style="fill: #d55e00; stroke: #d55e00"/>
     <use xlink:href="#m071521f773" x="129.354438" y="777.161233" style="fill: #d55e00; stroke: #d55e00"/>
     <use xlink:href="#m071521f773" x="135.973746" y="782.76808" style="fill: #d55e00; stroke: #d55e00"/>
     <use xlink:href="#m071521f773" x="125.850451" y="780.204287" style="fill: #d55e00; stroke: #d55e00"/>
     <use xlink:href="#m071521f773" x="132.359724" y="792.86216" style="fill: #d55e00; stroke: #d55e00"/>
     <use xlink:href="#m071521f773" x="133.24997" y="783.467262" style="fill: #d55e00; stroke: #d55e00"/>
     <use xlink:href="#m071521f773" x="132.967094" y="786.034323" style="fill: #d55e00; stroke: #d55e00"/>
     <use xlink:href="#m071521f773" x="131.471301" y="765.904688" style="fill: #d55e00; stroke: #d55e00"/>
     <use xlink:href="#m071521f773" x="131.574278" y="774.702402" style="fill: #d55e00; stroke: #d55e00"/>
     <use xlink:href="#m071521f773" x="134.183373" y="777.150655" style="fill: #d55e00; stroke: #d55e00"/>
     <use xlink:href="#m071521f773" x="134.497443" y="779.079698" style="fill: #d55e00; stroke: #d55e00"/>
     <use xlink:href="#m071521f773" x="137.243942" y="788.818173" style="fill: #d55e00; stroke: #d55e00"/>
     <use xlink:href="#m071521f773" x="127.51232" y="765.668677" style="fill: #d55e00; stroke: #d55e00"/>
     <use xlink:href="#m071521f773" x="138.670295" y="772.046913" style="fill: #d55e00; stroke: #d55e00"/>
     <use xlink:href="#m071521f773" x="134.978892" y="753.211589" style="fill: #d55e00; stroke: #d55e00"/>
     <use xlink:href="#m071521f773" x="134.028431" y="787.260171" style="fill: #d55e00; stroke: #d55e00"/>
     <use xlink:href="#m071521f773" x="132.017558" y="774.053828" style="fill: #d55e00; stroke: #d55e00"/>
     <use xlink:href="#m071521f773" x="136.377125" y="768.247652" style="fill: #d55e00; stroke: #d55e00"/>
     <use xlink:href="#m071521f773" x="131.389623" y="774.106473" style="fill: #d55e00; stroke: #d55e00"/>
     <use xlink:href="#m071521f773" x="130.472226" y="790.792617" style="fill: #d55e00; stroke: #d55e00"/>
     <use xlink:href="#m071521f773" x="126.603842" y="759.621212" style="fill: #d55e00; stroke: #d55e00"/>
     <use xlink:href="#m071521f773" x="125.363826" y="793.064687" style="fill: #d55e00; stroke: #d55e00"/>
     <use xlink:href="#m071521f773" x="128.80509" y="775.503927" style="fill: #d55e00; stroke: #d55e00"/>
     <use xlink:href="#m071521f773" x="138.785225" y="775.831635" style="fill: #d55e00; stroke: #d55e00"/>
     <use xlink:href="#m071521f773" x="125.507865" y="764.826386" style="fill: #d55e00; stroke: #d55e00"/>
     <use xlink:href="#m071521f773" x="137.984521" y="802.12627" style="fill: #d55e00; stroke: #d55e00"/>
     <use xlink:href="#m071521f773" x="135.463318" y="764.644899" style="fill: #d55e00; stroke: #d55e00"/>
     <use xlink:href="#m071521f773" x="129.83717" y="791.495889" style="fill: #d55e00; stroke: #d55e00"/>
     <use xlink:href="#m071521f773" x="131.679296" y="777.069717" style="fill: #d55e00; stroke: #d55e00"/>
     <use xlink:href="#m071521f773" x="135.134533" y="778.824845" style="fill: #d55e00; stroke: #d55e00"/>
     <use xlink:href="#m071521f773" x="135.318948" y="769.363511" style="fill: #d55e00; stroke: #d55e00"/>
     <use xlink:href="#m071521f773" x="125.880553" y="774.042131" style="fill: #d55e00; stroke: #d55e00"/>
     <use xlink:href="#m071521f773" x="129.782547" y="768.102427" style="fill: #d55e00; stroke: #d55e00"/>
     <use xlink:href="#m071521f773" x="128.646839" y="763.02394" style="fill: #d55e00; stroke: #d55e00"/>
     <use xlink:href="#m071521f773" x="126.833663" y="780.937424" style="fill: #d55e00; stroke: #d55e00"/>
     <use xlink:href="#m071521f773" x="124.974983" y="774.627606" style="fill: #d55e00; stroke: #d55e00"/>
     <use xlink:href="#m071521f773" x="132.545273" y="785.785937" style="fill: #d55e00; stroke: #d55e00"/>
     <use xlink:href="#m071521f773" x="126.528248" y="779.968477" style="fill: #d55e00; stroke: #d55e00"/>
     <use xlink:href="#m071521f773" x="136.8185" y="790.806091" style="fill: #d55e00; stroke: #d55e00"/>
    </g>
   </g>
   <g id="PathCollection_6">
    <g clip-path="url(#pbc5fc79ac7)">
     <use xlink:href="#m5129ab317f" x="275.008927" y="808.264855" style="fill: #0072b2; stroke: #0072b2"/>
     <use xlink:href="#m5129ab317f" x="266.651336" y="764.921612" style="fill: #0072b2; stroke: #0072b2"/>
     <use xlink:href="#m5129ab317f" x="269.485494" y="779.394504" style="fill: #0072b2; stroke: #0072b2"/>
     <use xlink:href="#m5129ab317f" x="269.113427" y="760.936667" style="fill: #0072b2; stroke: #0072b2"/>
     <use xlink:href="#m5129ab317f" x="277.676966" y="773.668755" style="fill: #0072b2; stroke: #0072b2"/>
     <use xlink:href="#m5129ab317f" x="268.93993" y="763.233906" style="fill: #0072b2; stroke: #0072b2"/>
     <use xlink:href="#m5129ab317f" x="266.544457" y="788.817912" style="fill: #0072b2; stroke: #0072b2"/>
     <use xlink:href="#m5129ab317f" x="265.102564" y="799.253506" style="fill: #0072b2; stroke: #0072b2"/>
     <use xlink:href="#m5129ab317f" x="272.665422" y="771.949017" style="fill: #0072b2; stroke: #0072b2"/>
     <use xlink:href="#m5129ab317f" x="269.842729" y="779.759361" style="fill: #0072b2; stroke: #0072b2"/>
     <use xlink:href="#m5129ab317f" x="264.569621" y="783.707652" style="fill: #0072b2; stroke: #0072b2"/>
     <use xlink:href="#m5129ab317f" x="268.023848" y="776.053186" style="fill: #0072b2; stroke: #0072b2"/>
     <use xlink:href="#m5129ab317f" x="272.985592" y="782.083137" style="fill: #0072b2; stroke: #0072b2"/>
     <use xlink:href="#m5129ab317f" x="267.174001" y="794.098804" style="fill: #0072b2; stroke: #0072b2"/>
     <use xlink:href="#m5129ab317f" x="265.980539" y="796.939526" style="fill: #0072b2; stroke: #0072b2"/>
     <use xlink:href="#m5129ab317f" x="268.540028" y="772.599794" style="fill: #0072b2; stroke: #0072b2"/>
     <use xlink:href="#m5129ab317f" x="264.962953" y="770.297144" style="fill: #0072b2; stroke: #0072b2"/>
     <use xlink:href="#m5129ab317f" x="274.381856" y="784.34881" style="fill: #0072b2; stroke: #0072b2"/>
     <use xlink:href="#m5129ab317f" x="266.122464" y="777.721323" style="fill: #0072b2; stroke: #0072b2"/>
     <use xlink:href="#m5129ab317f" x="269.610287" y="773.990321" style="fill: #0072b2; stroke: #0072b2"/>
     <use xlink:href="#m5129ab317f" x="276.04663" y="809.828452" style="fill: #0072b2; stroke: #0072b2"/>
     <use xlink:href="#m5129ab317f" x="278.263883" y="769.907146" style="fill: #0072b2; stroke: #0072b2"/>
     <use xlink:href="#m5129ab317f" x="265.219386" y="786.196864" style="fill: #0072b2; stroke: #0072b2"/>
     <use xlink:href="#m5129ab317f" x="269.926945" y="774.312943" style="fill: #0072b2; stroke: #0072b2"/>
     <use xlink:href="#m5129ab317f" x="272.878887" y="815.547771" style="fill: #0072b2; stroke: #0072b2"/>
     <use xlink:href="#m5129ab317f" x="266.871146" y="774.336492" style="fill: #0072b2; stroke: #0072b2"/>
     <use xlink:href="#m5129ab317f" x="277.555105" y="769.410474" style="fill: #0072b2; stroke: #0072b2"/>
     <use xlink:href="#m5129ab317f" x="276.097293" y="764.990217" style="fill: #0072b2; stroke: #0072b2"/>
     <use xlink:href="#m5129ab317f" x="276.347348" y="785.920946" style="fill: #0072b2; stroke: #0072b2"/>
     <use xlink:href="#m5129ab317f" x="268.899752" y="765.40816" style="fill: #0072b2; stroke: #0072b2"/>
     <use xlink:href="#m5129ab317f" x="275.375433" y="757.735881" style="fill: #0072b2; stroke: #0072b2"/>
     <use xlink:href="#m5129ab317f" x="278.019718" y="782.995346" style="fill: #0072b2; stroke: #0072b2"/>
     <use xlink:href="#m5129ab317f" x="274.146777" y="784.538687" style="fill: #0072b2; stroke: #0072b2"/>
     <use xlink:href="#m5129ab317f" x="272.403268" y="790.842146" style="fill: #0072b2; stroke: #0072b2"/>
     <use xlink:href="#m5129ab317f" x="273.216136" y="781.010903" style="fill: #0072b2; stroke: #0072b2"/>
     <use xlink:href="#m5129ab317f" x="270.791771" y="781.72178" style="fill: #0072b2; stroke: #0072b2"/>
     <use xlink:href="#m5129ab317f" x="271.530178" y="780.17758" style="fill: #0072b2; stroke: #0072b2"/>
     <use xlink:href="#m5129ab317f" x="266.563498" y="784.492032" style="fill: #0072b2; stroke: #0072b2"/>
     <use xlink:href="#m5129ab317f" x="266.390781" y="804.935586" style="fill: #0072b2; stroke: #0072b2"/>
    </g>
   </g>
   <g id="PathCollection_7">
    <g clip-path="url(#pbc5fc79ac7)">
     <use xlink:href="#m6e3df4e064" x="405.213973" y="774.71711" style="fill: #009e73; stroke: #009e73"/>
     <use xlink:href="#m6e3df4e064" x="415.042601" y="785.55369" style="fill: #009e73; stroke: #009e73"/>
     <use xlink:href="#m6e3df4e064" x="413.398226" y="776.814351" style="fill: #009e73; stroke: #009e73"/>
     <use xlink:href="#m6e3df4e064" x="405.016109" y="721.840734" style="fill: #009e73; stroke: #009e73"/>
     <use xlink:href="#m6e3df4e064" x="405.144945" y="748.439393" style="fill: #009e73; stroke: #009e73"/>
     <use xlink:href="#m6e3df4e064" x="411.416806" y="756.442817" style="fill: #009e73; stroke: #009e73"/>
     <use xlink:href="#m6e3df4e064" x="405.9642" y="741.577361" style="fill: #009e73; stroke: #009e73"/>
     <use xlink:href="#m6e3df4e064" x="411.616152" y="813.631546" style="fill: #009e73; stroke: #009e73"/>
     <use xlink:href="#m6e3df4e064" x="404.404364" y="705.818139" style="fill: #009e73; stroke: #009e73"/>
     <use xlink:href="#m6e3df4e064" x="405.446614" y="769.12676" style="fill: #009e73; stroke: #009e73"/>
     <use xlink:href="#m6e3df4e064" x="405.813426" y="685.573805" style="fill: #009e73; stroke: #009e73"/>
     <use xlink:href="#m6e3df4e064" x="412.363453" y="740.17175" style="fill: #009e73; stroke: #009e73"/>
     <use xlink:href="#m6e3df4e064" x="412.926378" y="773.0894" style="fill: #009e73; stroke: #009e73"/>
     <use xlink:href="#m6e3df4e064" x="409.619324" y="742.288056" style="fill: #009e73; stroke: #009e73"/>
     <use xlink:href="#m6e3df4e064" x="405.647413" y="753.533539" style="fill: #009e73; stroke: #009e73"/>
     <use xlink:href="#m6e3df4e064" x="409.285445" y="726.565907" style="fill: #009e73; stroke: #009e73"/>
     <use xlink:href="#m6e3df4e064" x="408.963717" y="761.067522" style="fill: #009e73; stroke: #009e73"/>
     <use xlink:href="#m6e3df4e064" x="411.759262" y="766.72265" style="fill: #009e73; stroke: #009e73"/>
     <use xlink:href="#m6e3df4e064" x="412.220196" y="804.801037" style="fill: #009e73; stroke: #009e73"/>
     <use xlink:href="#m6e3df4e064" x="413.02534" y="785.886014" style="fill: #009e73; stroke: #009e73"/>
     <use xlink:href="#m6e3df4e064" x="412.357237" y="857.587824" style="fill: #009e73; stroke: #009e73"/>
     <use xlink:href="#m6e3df4e064" x="413.85888" y="760.278246" style="fill: #009e73; stroke: #009e73"/>
     <use xlink:href="#m6e3df4e064" x="414.590654" y="752.331841" style="fill: #009e73; stroke: #009e73"/>
     <use xlink:href="#m6e3df4e064" x="416.059981" y="740.259053" style="fill: #009e73; stroke: #009e73"/>
     <use xlink:href="#m6e3df4e064" x="411.583208" y="797.525836" style="fill: #009e73; stroke: #009e73"/>
     <use xlink:href="#m6e3df4e064" x="409.204611" y="792.30627" style="fill: #009e73; stroke: #009e73"/>
     <use xlink:href="#m6e3df4e064" x="409.162739" y="748.051567" style="fill: #009e73; stroke: #009e73"/>
     <use xlink:href="#m6e3df4e064" x="413.034776" y="752.890415" style="fill: #009e73; stroke: #009e73"/>
     <use xlink:href="#m6e3df4e064" x="405.20826" y="727.615073" style="fill: #009e73; stroke: #009e73"/>
     <use xlink:href="#m6e3df4e064" x="409.008227" y="807.669398" style="fill: #009e73; stroke: #009e73"/>
     <use xlink:href="#m6e3df4e064" x="412.037787" y="797.464428" style="fill: #009e73; stroke: #009e73"/>
     <use xlink:href="#m6e3df4e064" x="417.562072" y="723.597596" style="fill: #009e73; stroke: #009e73"/>
     <use xlink:href="#m6e3df4e064" x="415.06252" y="748.452766" style="fill: #009e73; stroke: #009e73"/>
     <use xlink:href="#m6e3df4e064" x="414.877841" y="745.146712" style="fill: #009e73; stroke: #009e73"/>
     <use xlink:href="#m6e3df4e064" x="405.753814" y="768.472092" style="fill: #009e73; stroke: #009e73"/>
     <use xlink:href="#m6e3df4e064" x="406.382931" y="742.029949" style="fill: #009e73; stroke: #009e73"/>
     <use xlink:href="#m6e3df4e064" x="413.000064" y="786.994147" style="fill: #009e73; stroke: #009e73"/>
     <use xlink:href="#m6e3df4e064" x="412.992219" y="776.981592" style="fill: #009e73; stroke: #009e73"/>
     <use xlink:href="#m6e3df4e064" x="410.614734" y="814.148425" style="fill: #009e73; stroke: #009e73"/>
    </g>
   </g>
   <g id="PathCollection_8">
    <g clip-path="url(#pbc5fc79ac7)">
     <use xlink:href="#m0b4985e488" x="550.07494" y="746.554002" style="fill: #cc79a7; stroke: #cc79a7"/>
     <use xlink:href="#m0b4985e488" x="548.159439" y="773.458467" style="fill: #cc79a7; stroke: #cc79a7"/>
     <use xlink:href="#m0b4985e488" x="551.248273" y="758.918553" style="fill: #cc79a7; stroke: #cc79a7"/>
     <use xlink:href="#m0b4985e488" x="556.267973" y="779.289101" style="fill: #cc79a7; stroke: #cc79a7"/>
     <use xlink:href="#m0b4985e488" x="550.228647" y="769.03807" style="fill: #cc79a7; stroke: #cc79a7"/>
     <use xlink:href="#m0b4985e488" x="544.720455" y="779.793105" style="fill: #cc79a7; stroke: #cc79a7"/>
     <use xlink:href="#m0b4985e488" x="553.408239" y="755.959877" style="fill: #cc79a7; stroke: #cc79a7"/>
     <use xlink:href="#m0b4985e488" x="554.894122" y="759.087194" style="fill: #cc79a7; stroke: #cc79a7"/>
     <use xlink:href="#m0b4985e488" x="556.98004" y="786.634048" style="fill: #cc79a7; stroke: #cc79a7"/>
     <use xlink:href="#m0b4985e488" x="554.485107" y="763.737457" style="fill: #cc79a7; stroke: #cc79a7"/>
     <use xlink:href="#m0b4985e488" x="546.565511" y="781.447702" style="fill: #cc79a7; stroke: #cc79a7"/>
     <use xlink:href="#m0b4985e488" x="551.035414" y="769.179628" style="fill: #cc79a7; stroke: #cc79a7"/>
     <use xlink:href="#m0b4985e488" x="549.799095" y="759.219409" style="fill: #cc79a7; stroke: #cc79a7"/>
     <use xlink:href="#m0b4985e488" x="549.075026" y="756.804507" style="fill: #cc79a7; stroke: #cc79a7"/>
     <use xlink:href="#m0b4985e488" x="554.420641" y="764.87186" style="fill: #cc79a7; stroke: #cc79a7"/>
     <use xlink:href="#m0b4985e488" x="556.303611" y="780.61753" style="fill: #cc79a7; stroke: #cc79a7"/>
     <use xlink:href="#m0b4985e488" x="551.467689" y="777.026819" style="fill: #cc79a7; stroke: #cc79a7"/>
     <use xlink:href="#m0b4985e488" x="546.83913" y="757.910727" style="fill: #cc79a7; stroke: #cc79a7"/>
     <use xlink:href="#m0b4985e488" x="551.664168" y="757.087161" style="fill: #cc79a7; stroke: #cc79a7"/>
     <use xlink:href="#m0b4985e488" x="548.700421" y="763.463958" style="fill: #cc79a7; stroke: #cc79a7"/>
     <use xlink:href="#m0b4985e488" x="545.260342" y="745.016099" style="fill: #cc79a7; stroke: #cc79a7"/>
     <use xlink:href="#m0b4985e488" x="555.082615" y="762.54275" style="fill: #cc79a7; stroke: #cc79a7"/>
     <use xlink:href="#m0b4985e488" x="547.487489" y="765.697048" style="fill: #cc79a7; stroke: #cc79a7"/>
     <use xlink:href="#m0b4985e488" x="555.294627" y="781.381423" style="fill: #cc79a7; stroke: #cc79a7"/>
     <use xlink:href="#m0b4985e488" x="549.56916" y="749.063907" style="fill: #cc79a7; stroke: #cc79a7"/>
     <use xlink:href="#m0b4985e488" x="548.569128" y="757.252745" style="fill: #cc79a7; stroke: #cc79a7"/>
     <use xlink:href="#m0b4985e488" x="546.502442" y="781.407222" style="fill: #cc79a7; stroke: #cc79a7"/>
     <use xlink:href="#m0b4985e488" x="547.065989" y="775.817331" style="fill: #cc79a7; stroke: #cc79a7"/>
     <use xlink:href="#m0b4985e488" x="554.436552" y="775.883653" style="fill: #cc79a7; stroke: #cc79a7"/>
     <use xlink:href="#m0b4985e488" x="549.594951" y="767.496756" style="fill: #cc79a7; stroke: #cc79a7"/>
     <use xlink:href="#m0b4985e488" x="546.812729" y="774.102076" style="fill: #cc79a7; stroke: #cc79a7"/>
     <use xlink:href="#m0b4985e488" x="549.614628" y="766.08922" style="fill: #cc79a7; stroke: #cc79a7"/>
     <use xlink:href="#m0b4985e488" x="556.518509" y="773.018459" style="fill: #cc79a7; stroke: #cc79a7"/>
     <use xlink:href="#m0b4985e488" x="555.150104" y="772.402147" style="fill: #cc79a7; stroke: #cc79a7"/>
     <use xlink:href="#m0b4985e488" x="545.623941" y="758.352058" style="fill: #cc79a7; stroke: #cc79a7"/>
     <use xlink:href="#m0b4985e488" x="554.39338" y="763.518992" style="fill: #cc79a7; stroke: #cc79a7"/>
     <use xlink:href="#m0b4985e488" x="550.049879" y="757.122863" style="fill: #cc79a7; stroke: #cc79a7"/>
     <use xlink:href="#m0b4985e488" x="548.826413" y="754.237464" style="fill: #cc79a7; stroke: #cc79a7"/>
     <use xlink:href="#m0b4985e488" x="548.120797" y="742.612212" style="fill: #cc79a7; stroke: #cc79a7"/>
    </g>
   </g>
   <g id="patch_12">
    <path d="M 149.2875 784.626599 
L 170.2125 784.626599 
L 170.2125 768.805582 
L 149.2875 768.805582 
L 149.2875 784.626599 
z
" clip-path="url(#pbc5fc79ac7)" style="fill: #d55e00; opacity: 0.5; stroke: #000000; stroke-linejoin: miter"/>
   </g>
   <g id="line2d_45">
    <path d="M 159.75 784.626599 
L 159.75 802.12627 
" clip-path="url(#pbc5fc79ac7)" style="fill: none; stroke: #000000; stroke-linecap: round"/>
   </g>
   <g id="line2d_46">
    <path d="M 159.75 768.805582 
L 159.75 753.211589 
" clip-path="url(#pbc5fc79ac7)" style="fill: none; stroke: #000000; stroke-linecap: round"/>
   </g>
   <g id="line2d_47">
    <path d="M 154.51875 802.12627 
L 164.98125 802.12627 
" clip-path="url(#pbc5fc79ac7)" style="fill: none; stroke: #000000; stroke-linecap: round"/>
   </g>
   <g id="line2d_48">
    <path d="M 154.51875 753.211589 
L 164.98125 753.211589 
" clip-path="url(#pbc5fc79ac7)" style="fill: none; stroke: #000000; stroke-linecap: round"/>
   </g>
   <g id="patch_13">
    <path d="M 288.7875 786.058905 
L 309.7125 786.058905 
L 309.7125 772.274406 
L 288.7875 772.274406 
L 288.7875 786.058905 
z
" clip-path="url(#pbc5fc79ac7)" style="fill: #0072b2; opacity: 0.5; stroke: #000000; stroke-linejoin: miter"/>
   </g>
   <g id="line2d_49">
    <path d="M 299.25 786.058905 
L 299.25 804.935586 
" clip-path="url(#pbc5fc79ac7)" style="fill: none; stroke: #000000; stroke-linecap: round"/>
   </g>
   <g id="line2d_50">
    <path d="M 299.25 772.274406 
L 299.25 757.735881 
" clip-path="url(#pbc5fc79ac7)" style="fill: none; stroke: #000000; stroke-linecap: round"/>
   </g>
   <g id="line2d_51">
    <path d="M 294.01875 804.935586 
L 304.48125 804.935586 
" clip-path="url(#pbc5fc79ac7)" style="fill: none; stroke: #000000; stroke-linecap: round"/>
   </g>
   <g id="line2d_52">
    <path d="M 294.01875 757.735881 
L 304.48125 757.735881 
" clip-path="url(#pbc5fc79ac7)" style="fill: none; stroke: #000000; stroke-linecap: round"/>
   </g>
   <g id="patch_14">
    <path d="M 428.2875 785.719852 
L 449.2125 785.719852 
L 449.2125 742.159003 
L 428.2875 742.159003 
L 428.2875 785.719852 
z
" clip-path="url(#pbc5fc79ac7)" style="fill: #009e73; opacity: 0.5; stroke: #000000; stroke-linejoin: miter"/>
   </g>
   <g id="line2d_53">
    <path d="M 438.75 785.719852 
L 438.75 814.148425 
" clip-path="url(#pbc5fc79ac7)" style="fill: none; stroke: #000000; stroke-linecap: round"/>
   </g>
   <g id="line2d_54">
    <path d="M 438.75 742.159003 
L 438.75 685.573805 
" clip-path="url(#pbc5fc79ac7)" style="fill: none; stroke: #000000; stroke-linecap: round"/>
   </g>
   <g id="line2d_55">
    <path d="M 433.51875 814.148425 
L 443.98125 814.148425 
" clip-path="url(#pbc5fc79ac7)" style="fill: none; stroke: #000000; stroke-linecap: round"/>
   </g>
   <g id="line2d_56">
    <path d="M 433.51875 685.573805 
L 443.98125 685.573805 
" clip-path="url(#pbc5fc79ac7)" style="fill: none; stroke: #000000; stroke-linecap: round"/>
   </g>
   <g id="patch_15">
    <path d="M 567.7875 774.959704 
L 588.7125 774.959704 
L 588.7125 757.581736 
L 567.7875 757.581736 
L 567.7875 774.959704 
z
" clip-path="url(#pbc5fc79ac7)" style="fill: #cc79a7; opacity: 0.5; stroke: #000000; stroke-linejoin: miter"/>
   </g>
   <g id="line2d_57">
    <path d="M 578.25 774.959704 
L 578.25 786.634048 
" clip-path="url(#pbc5fc79ac7)" style="fill: none; stroke: #000000; stroke-linecap: round"/>
   </g>
   <g id="line2d_58">
    <path d="M 578.25 757.581736 
L 578.25 742.612212 
" clip-path="url(#pbc5fc79ac7)" style="fill: none; stroke: #000000; stroke-linecap: round"/>
   </g>
   <g id="line2d_59">
    <path d="M 573.01875 786.634048 
L 583.48125 786.634048 
" clip-path="url(#pbc5fc79ac7)" style="fill: none; stroke: #000000; stroke-linecap: round"/>
   </g>
   <g id="line2d_60">
    <path d="M 573.01875 742.612212 
L 583.48125 742.612212 
" clip-path="url(#pbc5fc79ac7)" style="fill: none; stroke: #000000; stroke-linecap: round"/>
   </g>
   <g id="line2d_61">
    <path d="M 159.75 673.761305 
L 299.25 673.761305 
" clip-path="url(#pbc5fc79ac7)" style="fill: none; stroke: #000000; stroke-width: 1.5; stroke-linecap: round"/>
   </g>
   <g id="line2d_62">
    <path d="M 299.25 661.948805 
L 578.25 661.948805 
" clip-path="url(#pbc5fc79ac7)" style="fill: none; stroke: #000000; stroke-width: 1.5; stroke-linecap: round"/>
   </g>
   <g id="line2d_63">
    <path d="M 149.2875 777.069717 
L 170.2125 777.069717 
" clip-path="url(#pbc5fc79ac7)" style="fill: none; stroke: #000000"/>
   </g>
   <g id="line2d_64">
    <path d="M 288.7875 780.17758 
L 309.7125 780.17758 
" clip-path="url(#pbc5fc79ac7)" style="fill: none; stroke: #000000"/>
   </g>
   <g id="line2d_65">
    <path d="M 428.2875 760.278246 
L 449.2125 760.278246 
" clip-path="url(#pbc5fc79ac7)" style="fill: none; stroke: #000000"/>
   </g>
   <g id="line2d_66">
    <path d="M 567.7875 764.87186 
L 588.7125 764.87186 
" clip-path="url(#pbc5fc79ac7)" style="fill: none; stroke: #000000"/>
   </g>
   <g id="patch_16">
    <path d="M 90 961.2 
L 90 583.2 
" style="fill: none; stroke: #262626; stroke-width: 1.25; stroke-linejoin: miter; stroke-linecap: square"/>
   </g>
   <g id="patch_17">
    <path d="M 648 961.2 
L 648 583.2 
" style="fill: none; stroke: #262626; stroke-width: 1.25; stroke-linejoin: miter; stroke-linecap: square"/>
   </g>
   <g id="patch_18">
    <path d="M 90 961.2 
L 648 961.2 
" style="fill: none; stroke: #262626; stroke-width: 1.25; stroke-linejoin: miter; stroke-linecap: square"/>
   </g>
   <g id="patch_19">
    <path d="M 90 583.2 
L 648 583.2 
" style="fill: none; stroke: #262626; stroke-width: 1.25; stroke-linejoin: miter; stroke-linecap: square"/>
   </g>
   <g id="text_28">
    <!-- * -->
    <g transform="translate(229.5 673.761305) scale(0.12 -0.12)">
     <use xlink:href="#ArialMT-2a"/>
    </g>
   </g>
   <g id="text_29">
    <!-- * -->
    <g transform="translate(438.75 661.948805) scale(0.12 -0.12)">
     <use xlink:href="#ArialMT-2a"/>
    </g>
   </g>
   <g id="text_30">
    <!-- HF-HRV -->
    <g style="fill: #262626" transform="translate(342.681094 563.2) scale(0.14 -0.14)">
     <defs>
      <path id="Arial-BoldMT-48" d="M 469 0 
L 469 4581 
L 1394 4581 
L 1394 2778 
L 3206 2778 
L 3206 4581 
L 4131 4581 
L 4131 0 
L 3206 0 
L 3206 2003 
L 1394 2003 
L 1394 0 
L 469 0 
z
" transform="scale(0.015625)"/>
      <path id="Arial-BoldMT-46" d="M 472 0 
L 472 4581 
L 3613 4581 
L 3613 3806 
L 1397 3806 
L 1397 2722 
L 3309 2722 
L 3309 1947 
L 1397 1947 
L 1397 0 
L 472 0 
z
" transform="scale(0.015625)"/>
      <path id="Arial-BoldMT-2d" d="M 359 1222 
L 359 2100 
L 2084 2100 
L 2084 1222 
L 359 1222 
z
" transform="scale(0.015625)"/>
      <path id="Arial-BoldMT-52" d="M 469 0 
L 469 4581 
L 2416 4581 
Q 3150 4581 3483 4457 
Q 3816 4334 4016 4018 
Q 4216 3703 4216 3297 
Q 4216 2781 3912 2445 
Q 3609 2109 3006 2022 
Q 3306 1847 3501 1637 
Q 3697 1428 4028 894 
L 4588 0 
L 3481 0 
L 2813 997 
Q 2456 1531 2325 1670 
Q 2194 1809 2047 1861 
Q 1900 1913 1581 1913 
L 1394 1913 
L 1394 0 
L 469 0 
z
M 1394 2644 
L 2078 2644 
Q 2744 2644 2909 2700 
Q 3075 2756 3169 2893 
Q 3263 3031 3263 3238 
Q 3263 3469 3139 3611 
Q 3016 3753 2791 3791 
Q 2678 3806 2116 3806 
L 1394 3806 
L 1394 2644 
z
" transform="scale(0.015625)"/>
      <path id="Arial-BoldMT-56" d="M 1634 0 
L -3 4581 
L 1000 4581 
L 2159 1191 
L 3281 4581 
L 4263 4581 
L 2622 0 
L 1634 0 
z
" transform="scale(0.015625)"/>
     </defs>
     <use xlink:href="#Arial-BoldMT-48"/>
     <use xlink:href="#Arial-BoldMT-46" x="72.216797"/>
     <use xlink:href="#Arial-BoldMT-2d" x="133.300781"/>
     <use xlink:href="#Arial-BoldMT-48" x="166.601562"/>
     <use xlink:href="#Arial-BoldMT-52" x="238.818359"/>
     <use xlink:href="#Arial-BoldMT-56" x="309.285156"/>
    </g>
   </g>
  </g>
 </g>
 <defs>
  <clipPath id="p3699310b6b">
   <rect x="90" y="129.6" width="558" height="378"/>
  </clipPath>
  <clipPath id="pbc5fc79ac7">
   <rect x="90" y="583.2" width="558" height="378"/>
  </clipPath>
 </defs>
</svg>
