<?xml version="1.0" encoding="utf-8" standalone="no"?>
<!DOCTYPE svg PUBLIC "-//W3C//DTD SVG 1.1//EN"
  "http://www.w3.org/Graphics/SVG/1.1/DTD/svg11.dtd">
<svg xmlns:xlink="http://www.w3.org/1999/xlink" width="720pt" height="1080pt" viewBox="0 0 720 1080" xmlns="http://www.w3.org/2000/svg" version="1.1">
 <metadata>
  <rdf:RDF xmlns:dc="http://purl.org/dc/elements/1.1/" xmlns:cc="http://creativecommons.org/ns#" xmlns:rdf="http://www.w3.org/1999/02/22-rdf-syntax-ns#">
   <cc:Work>
    <dc:type rdf:resource="http://purl.org/dc/dcmitype/StillImage"/>
    <dc:date>2024-08-30T10:48:32.494737</dc:date>
    <dc:format>image/svg+xml</dc:format>
    <dc:creator>
     <cc:Agent>
      <dc:title>Matplotlib v3.8.0, https://matplotlib.org/</dc:title>
     </cc:Agent>
    </dc:creator>
   </cc:Work>
  </rdf:RDF>
 </metadata>
 <defs>
  <style type="text/css">*{stroke-linejoin: round; stroke-linecap: butt}</style>
 </defs>
 <g id="figure_1">
  <g id="patch_1">
   <path d="M 0 1080 
L 720 1080 
L 720 0 
L 0 0 
z
" style="fill: #ffffff"/>
  </g>
  <g id="axes_1">
   <g id="patch_2">
    <path d="M 90 507.6 
L 648 507.6 
L 648 129.6 
L 90 129.6 
z
" style="fill: #ffffff"/>
   </g>
   <g id="matplotlib.axis_1">
    <g id="xtick_1">
     <g id="line2d_1">
      <defs>
       <path id="m7d8d192f5a" d="M 0 0 
L 0 6 
" style="stroke: #262626; stroke-width: 1.25"/>
      </defs>
      <g>
       <use xlink:href="#m7d8d192f5a" x="159.75" y="507.6" style="fill: #262626; stroke: #262626; stroke-width: 1.25"/>
      </g>
     </g>
     <g id="text_1">
      <!-- State 1 -->
      <g style="fill: #262626" transform="translate(142.321875 524.973594) scale(0.11 -0.11)">
       <defs>
        <path id="ArialMT-53" d="M 288 1472 
L 859 1522 
Q 900 1178 1048 958 
Q 1197 738 1509 602 
Q 1822 466 2213 466 
Q 2559 466 2825 569 
Q 3091 672 3220 851 
Q 3350 1031 3350 1244 
Q 3350 1459 3225 1620 
Q 3100 1781 2813 1891 
Q 2628 1963 1997 2114 
Q 1366 2266 1113 2400 
Q 784 2572 623 2826 
Q 463 3081 463 3397 
Q 463 3744 659 4045 
Q 856 4347 1234 4503 
Q 1613 4659 2075 4659 
Q 2584 4659 2973 4495 
Q 3363 4331 3572 4012 
Q 3781 3694 3797 3291 
L 3216 3247 
Q 3169 3681 2898 3903 
Q 2628 4125 2100 4125 
Q 1550 4125 1298 3923 
Q 1047 3722 1047 3438 
Q 1047 3191 1225 3031 
Q 1400 2872 2139 2705 
Q 2878 2538 3153 2413 
Q 3553 2228 3743 1945 
Q 3934 1663 3934 1294 
Q 3934 928 3725 604 
Q 3516 281 3123 101 
Q 2731 -78 2241 -78 
Q 1619 -78 1198 103 
Q 778 284 539 648 
Q 300 1013 288 1472 
z
" transform="scale(0.015625)"/>
        <path id="ArialMT-74" d="M 1650 503 
L 1731 6 
Q 1494 -44 1306 -44 
Q 1000 -44 831 53 
Q 663 150 594 308 
Q 525 466 525 972 
L 525 2881 
L 113 2881 
L 113 3319 
L 525 3319 
L 525 4141 
L 1084 4478 
L 1084 3319 
L 1650 3319 
L 1650 2881 
L 1084 2881 
L 1084 941 
Q 1084 700 1114 631 
Q 1144 563 1211 522 
Q 1278 481 1403 481 
Q 1497 481 1650 503 
z
" transform="scale(0.015625)"/>
        <path id="ArialMT-61" d="M 2588 409 
Q 2275 144 1986 34 
Q 1697 -75 1366 -75 
Q 819 -75 525 192 
Q 231 459 231 875 
Q 231 1119 342 1320 
Q 453 1522 633 1644 
Q 813 1766 1038 1828 
Q 1203 1872 1538 1913 
Q 2219 1994 2541 2106 
Q 2544 2222 2544 2253 
Q 2544 2597 2384 2738 
Q 2169 2928 1744 2928 
Q 1347 2928 1158 2789 
Q 969 2650 878 2297 
L 328 2372 
Q 403 2725 575 2942 
Q 747 3159 1072 3276 
Q 1397 3394 1825 3394 
Q 2250 3394 2515 3294 
Q 2781 3194 2906 3042 
Q 3031 2891 3081 2659 
Q 3109 2516 3109 2141 
L 3109 1391 
Q 3109 606 3145 398 
Q 3181 191 3288 0 
L 2700 0 
Q 2613 175 2588 409 
z
M 2541 1666 
Q 2234 1541 1622 1453 
Q 1275 1403 1131 1340 
Q 988 1278 909 1158 
Q 831 1038 831 891 
Q 831 666 1001 516 
Q 1172 366 1500 366 
Q 1825 366 2078 508 
Q 2331 650 2450 897 
Q 2541 1088 2541 1459 
L 2541 1666 
z
" transform="scale(0.015625)"/>
        <path id="ArialMT-65" d="M 2694 1069 
L 3275 997 
Q 3138 488 2766 206 
Q 2394 -75 1816 -75 
Q 1088 -75 661 373 
Q 234 822 234 1631 
Q 234 2469 665 2931 
Q 1097 3394 1784 3394 
Q 2450 3394 2872 2941 
Q 3294 2488 3294 1666 
Q 3294 1616 3291 1516 
L 816 1516 
Q 847 969 1125 678 
Q 1403 388 1819 388 
Q 2128 388 2347 550 
Q 2566 713 2694 1069 
z
M 847 1978 
L 2700 1978 
Q 2663 2397 2488 2606 
Q 2219 2931 1791 2931 
Q 1403 2931 1139 2672 
Q 875 2413 847 1978 
z
" transform="scale(0.015625)"/>
        <path id="ArialMT-20" transform="scale(0.015625)"/>
        <path id="ArialMT-31" d="M 2384 0 
L 1822 0 
L 1822 3584 
Q 1619 3391 1289 3197 
Q 959 3003 697 2906 
L 697 3450 
Q 1169 3672 1522 3987 
Q 1875 4303 2022 4600 
L 2384 4600 
L 2384 0 
z
" transform="scale(0.015625)"/>
       </defs>
       <use xlink:href="#ArialMT-53"/>
       <use xlink:href="#ArialMT-74" x="66.699219"/>
       <use xlink:href="#ArialMT-61" x="94.482422"/>
       <use xlink:href="#ArialMT-74" x="150.097656"/>
       <use xlink:href="#ArialMT-65" x="177.880859"/>
       <use xlink:href="#ArialMT-20" x="233.496094"/>
       <use xlink:href="#ArialMT-31" x="261.279297"/>
      </g>
     </g>
    </g>
    <g id="xtick_2">
     <g id="line2d_2">
      <g>
       <use xlink:href="#m7d8d192f5a" x="299.25" y="507.6" style="fill: #262626; stroke: #262626; stroke-width: 1.25"/>
      </g>
     </g>
     <g id="text_2">
      <!-- State 2 -->
      <g style="fill: #262626" transform="translate(281.821875 524.973594) scale(0.11 -0.11)">
       <defs>
        <path id="ArialMT-32" d="M 3222 541 
L 3222 0 
L 194 0 
Q 188 203 259 391 
Q 375 700 629 1000 
Q 884 1300 1366 1694 
Q 2113 2306 2375 2664 
Q 2638 3022 2638 3341 
Q 2638 3675 2398 3904 
Q 2159 4134 1775 4134 
Q 1369 4134 1125 3890 
Q 881 3647 878 3216 
L 300 3275 
Q 359 3922 746 4261 
Q 1134 4600 1788 4600 
Q 2447 4600 2831 4234 
Q 3216 3869 3216 3328 
Q 3216 3053 3103 2787 
Q 2991 2522 2730 2228 
Q 2469 1934 1863 1422 
Q 1356 997 1212 845 
Q 1069 694 975 541 
L 3222 541 
z
" transform="scale(0.015625)"/>
       </defs>
       <use xlink:href="#ArialMT-53"/>
       <use xlink:href="#ArialMT-74" x="66.699219"/>
       <use xlink:href="#ArialMT-61" x="94.482422"/>
       <use xlink:href="#ArialMT-74" x="150.097656"/>
       <use xlink:href="#ArialMT-65" x="177.880859"/>
       <use xlink:href="#ArialMT-20" x="233.496094"/>
       <use xlink:href="#ArialMT-32" x="261.279297"/>
      </g>
     </g>
    </g>
    <g id="xtick_3">
     <g id="line2d_3">
      <g>
       <use xlink:href="#m7d8d192f5a" x="438.75" y="507.6" style="fill: #262626; stroke: #262626; stroke-width: 1.25"/>
      </g>
     </g>
     <g id="text_3">
      <!-- State 3 -->
      <g style="fill: #262626" transform="translate(421.321875 524.973594) scale(0.11 -0.11)">
       <defs>
        <path id="ArialMT-33" d="M 269 1209 
L 831 1284 
Q 928 806 1161 595 
Q 1394 384 1728 384 
Q 2125 384 2398 659 
Q 2672 934 2672 1341 
Q 2672 1728 2419 1979 
Q 2166 2231 1775 2231 
Q 1616 2231 1378 2169 
L 1441 2663 
Q 1497 2656 1531 2656 
Q 1891 2656 2178 2843 
Q 2466 3031 2466 3422 
Q 2466 3731 2256 3934 
Q 2047 4138 1716 4138 
Q 1388 4138 1169 3931 
Q 950 3725 888 3313 
L 325 3413 
Q 428 3978 793 4289 
Q 1159 4600 1703 4600 
Q 2078 4600 2393 4439 
Q 2709 4278 2876 4000 
Q 3044 3722 3044 3409 
Q 3044 3113 2884 2869 
Q 2725 2625 2413 2481 
Q 2819 2388 3044 2092 
Q 3269 1797 3269 1353 
Q 3269 753 2831 336 
Q 2394 -81 1725 -81 
Q 1122 -81 723 278 
Q 325 638 269 1209 
z
" transform="scale(0.015625)"/>
       </defs>
       <use xlink:href="#ArialMT-53"/>
       <use xlink:href="#ArialMT-74" x="66.699219"/>
       <use xlink:href="#ArialMT-61" x="94.482422"/>
       <use xlink:href="#ArialMT-74" x="150.097656"/>
       <use xlink:href="#ArialMT-65" x="177.880859"/>
       <use xlink:href="#ArialMT-20" x="233.496094"/>
       <use xlink:href="#ArialMT-33" x="261.279297"/>
      </g>
     </g>
    </g>
    <g id="xtick_4">
     <g id="line2d_4">
      <g>
       <use xlink:href="#m7d8d192f5a" x="578.25" y="507.6" style="fill: #262626; stroke: #262626; stroke-width: 1.25"/>
      </g>
     </g>
     <g id="text_4">
      <!-- State 4 -->
      <g style="fill: #262626" transform="translate(560.821875 524.973594) scale(0.11 -0.11)">
       <defs>
        <path id="ArialMT-34" d="M 2069 0 
L 2069 1097 
L 81 1097 
L 81 1613 
L 2172 4581 
L 2631 4581 
L 2631 1613 
L 3250 1613 
L 3250 1097 
L 2631 1097 
L 2631 0 
L 2069 0 
z
M 2069 1613 
L 2069 3678 
L 634 1613 
L 2069 1613 
z
" transform="scale(0.015625)"/>
       </defs>
       <use xlink:href="#ArialMT-53"/>
       <use xlink:href="#ArialMT-74" x="66.699219"/>
       <use xlink:href="#ArialMT-61" x="94.482422"/>
       <use xlink:href="#ArialMT-74" x="150.097656"/>
       <use xlink:href="#ArialMT-65" x="177.880859"/>
       <use xlink:href="#ArialMT-20" x="233.496094"/>
       <use xlink:href="#ArialMT-34" x="261.279297"/>
      </g>
     </g>
    </g>
   </g>
   <g id="matplotlib.axis_2">
    <g id="ytick_1">
     <g id="line2d_5">
      <defs>
       <path id="m45b6a49304" d="M 0 0 
L -6 0 
" style="stroke: #262626; stroke-width: 1.25"/>
      </defs>
      <g>
       <use xlink:href="#m45b6a49304" x="90" y="471.888149" style="fill: #262626; stroke: #262626; stroke-width: 1.25"/>
      </g>
     </g>
     <g id="text_5">
      <!-- −1.25 -->
      <g style="fill: #262626" transform="translate(52.668281 475.824946) scale(0.11 -0.11)">
       <defs>
        <path id="ArialMT-2212" d="M 3381 1997 
L 356 1997 
L 356 2522 
L 3381 2522 
L 3381 1997 
z
" transform="scale(0.015625)"/>
        <path id="ArialMT-2e" d="M 581 0 
L 581 641 
L 1222 641 
L 1222 0 
L 581 0 
z
" transform="scale(0.015625)"/>
        <path id="ArialMT-35" d="M 266 1200 
L 856 1250 
Q 922 819 1161 601 
Q 1400 384 1738 384 
Q 2144 384 2425 690 
Q 2706 997 2706 1503 
Q 2706 1984 2436 2262 
Q 2166 2541 1728 2541 
Q 1456 2541 1237 2417 
Q 1019 2294 894 2097 
L 366 2166 
L 809 4519 
L 3088 4519 
L 3088 3981 
L 1259 3981 
L 1013 2750 
Q 1425 3038 1878 3038 
Q 2478 3038 2890 2622 
Q 3303 2206 3303 1553 
Q 3303 931 2941 478 
Q 2500 -78 1738 -78 
Q 1113 -78 717 272 
Q 322 622 266 1200 
z
" transform="scale(0.015625)"/>
       </defs>
       <use xlink:href="#ArialMT-2212"/>
       <use xlink:href="#ArialMT-31" x="58.398438"/>
       <use xlink:href="#ArialMT-2e" x="114.013672"/>
       <use xlink:href="#ArialMT-32" x="141.796875"/>
       <use xlink:href="#ArialMT-35" x="197.412109"/>
      </g>
     </g>
    </g>
    <g id="ytick_2">
     <g id="line2d_6">
      <g>
       <use xlink:href="#m45b6a49304" x="90" y="428.812292" style="fill: #262626; stroke: #262626; stroke-width: 1.25"/>
      </g>
     </g>
     <g id="text_6">
      <!-- −1.00 -->
      <g style="fill: #262626" transform="translate(52.668281 432.749089) scale(0.11 -0.11)">
       <defs>
        <path id="ArialMT-30" d="M 266 2259 
Q 266 3072 433 3567 
Q 600 4063 929 4331 
Q 1259 4600 1759 4600 
Q 2128 4600 2406 4451 
Q 2684 4303 2865 4023 
Q 3047 3744 3150 3342 
Q 3253 2941 3253 2259 
Q 3253 1453 3087 958 
Q 2922 463 2592 192 
Q 2263 -78 1759 -78 
Q 1097 -78 719 397 
Q 266 969 266 2259 
z
M 844 2259 
Q 844 1131 1108 757 
Q 1372 384 1759 384 
Q 2147 384 2411 759 
Q 2675 1134 2675 2259 
Q 2675 3391 2411 3762 
Q 2147 4134 1753 4134 
Q 1366 4134 1134 3806 
Q 844 3388 844 2259 
z
" transform="scale(0.015625)"/>
       </defs>
       <use xlink:href="#ArialMT-2212"/>
       <use xlink:href="#ArialMT-31" x="58.398438"/>
       <use xlink:href="#ArialMT-2e" x="114.013672"/>
       <use xlink:href="#ArialMT-30" x="141.796875"/>
       <use xlink:href="#ArialMT-30" x="197.412109"/>
      </g>
     </g>
    </g>
    <g id="ytick_3">
     <g id="line2d_7">
      <g>
       <use xlink:href="#m45b6a49304" x="90" y="385.736435" style="fill: #262626; stroke: #262626; stroke-width: 1.25"/>
      </g>
     </g>
     <g id="text_7">
      <!-- −0.75 -->
      <g style="fill: #262626" transform="translate(52.668281 389.673231) scale(0.11 -0.11)">
       <defs>
        <path id="ArialMT-37" d="M 303 3981 
L 303 4522 
L 3269 4522 
L 3269 4084 
Q 2831 3619 2401 2847 
Q 1972 2075 1738 1259 
Q 1569 684 1522 0 
L 944 0 
Q 953 541 1156 1306 
Q 1359 2072 1739 2783 
Q 2119 3494 2547 3981 
L 303 3981 
z
" transform="scale(0.015625)"/>
       </defs>
       <use xlink:href="#ArialMT-2212"/>
       <use xlink:href="#ArialMT-30" x="58.398438"/>
       <use xlink:href="#ArialMT-2e" x="114.013672"/>
       <use xlink:href="#ArialMT-37" x="141.796875"/>
       <use xlink:href="#ArialMT-35" x="197.412109"/>
      </g>
     </g>
    </g>
    <g id="ytick_4">
     <g id="line2d_8">
      <g>
       <use xlink:href="#m45b6a49304" x="90" y="342.660577" style="fill: #262626; stroke: #262626; stroke-width: 1.25"/>
      </g>
     </g>
     <g id="text_8">
      <!-- −0.50 -->
      <g style="fill: #262626" transform="translate(52.668281 346.597374) scale(0.11 -0.11)">
       <use xlink:href="#ArialMT-2212"/>
       <use xlink:href="#ArialMT-30" x="58.398438"/>
       <use xlink:href="#ArialMT-2e" x="114.013672"/>
       <use xlink:href="#ArialMT-35" x="141.796875"/>
       <use xlink:href="#ArialMT-30" x="197.412109"/>
      </g>
     </g>
    </g>
    <g id="ytick_5">
     <g id="line2d_9">
      <g>
       <use xlink:href="#m45b6a49304" x="90" y="299.58472" style="fill: #262626; stroke: #262626; stroke-width: 1.25"/>
      </g>
     </g>
     <g id="text_9">
      <!-- −0.25 -->
      <g style="fill: #262626" transform="translate(52.668281 303.521517) scale(0.11 -0.11)">
       <use xlink:href="#ArialMT-2212"/>
       <use xlink:href="#ArialMT-30" x="58.398438"/>
       <use xlink:href="#ArialMT-2e" x="114.013672"/>
       <use xlink:href="#ArialMT-32" x="141.796875"/>
       <use xlink:href="#ArialMT-35" x="197.412109"/>
      </g>
     </g>
    </g>
    <g id="ytick_6">
     <g id="line2d_10">
      <g>
       <use xlink:href="#m45b6a49304" x="90" y="256.508863" style="fill: #262626; stroke: #262626; stroke-width: 1.25"/>
      </g>
     </g>
     <g id="text_10">
      <!-- 0.00 -->
      <g style="fill: #262626" transform="translate(59.092969 260.44566) scale(0.11 -0.11)">
       <use xlink:href="#ArialMT-30"/>
       <use xlink:href="#ArialMT-2e" x="55.615234"/>
       <use xlink:href="#ArialMT-30" x="83.398438"/>
       <use xlink:href="#ArialMT-30" x="139.013672"/>
      </g>
     </g>
    </g>
    <g id="ytick_7">
     <g id="line2d_11">
      <g>
       <use xlink:href="#m45b6a49304" x="90" y="213.433006" style="fill: #262626; stroke: #262626; stroke-width: 1.25"/>
      </g>
     </g>
     <g id="text_11">
      <!-- 0.25 -->
      <g style="fill: #262626" transform="translate(59.092969 217.369803) scale(0.11 -0.11)">
       <use xlink:href="#ArialMT-30"/>
       <use xlink:href="#ArialMT-2e" x="55.615234"/>
       <use xlink:href="#ArialMT-32" x="83.398438"/>
       <use xlink:href="#ArialMT-35" x="139.013672"/>
      </g>
     </g>
    </g>
    <g id="ytick_8">
     <g id="line2d_12">
      <g>
       <use xlink:href="#m45b6a49304" x="90" y="170.357149" style="fill: #262626; stroke: #262626; stroke-width: 1.25"/>
      </g>
     </g>
     <g id="text_12">
      <!-- 0.50 -->
      <g style="fill: #262626" transform="translate(59.092969 174.293946) scale(0.11 -0.11)">
       <use xlink:href="#ArialMT-30"/>
       <use xlink:href="#ArialMT-2e" x="55.615234"/>
       <use xlink:href="#ArialMT-35" x="83.398438"/>
       <use xlink:href="#ArialMT-30" x="139.013672"/>
      </g>
     </g>
    </g>
    <g id="text_13">
     <!-- Value (z-scored) -->
     <g style="fill: #262626" transform="translate(46.142656 362.170313) rotate(-90) scale(0.12 -0.12)">
      <defs>
       <path id="ArialMT-56" d="M 1803 0 
L 28 4581 
L 684 4581 
L 1875 1253 
Q 2019 853 2116 503 
Q 2222 878 2363 1253 
L 3600 4581 
L 4219 4581 
L 2425 0 
L 1803 0 
z
" transform="scale(0.015625)"/>
       <path id="ArialMT-6c" d="M 409 0 
L 409 4581 
L 972 4581 
L 972 0 
L 409 0 
z
" transform="scale(0.015625)"/>
       <path id="ArialMT-75" d="M 2597 0 
L 2597 488 
Q 2209 -75 1544 -75 
Q 1250 -75 995 37 
Q 741 150 617 320 
Q 494 491 444 738 
Q 409 903 409 1263 
L 409 3319 
L 972 3319 
L 972 1478 
Q 972 1038 1006 884 
Q 1059 663 1231 536 
Q 1403 409 1656 409 
Q 1909 409 2131 539 
Q 2353 669 2445 892 
Q 2538 1116 2538 1541 
L 2538 3319 
L 3100 3319 
L 3100 0 
L 2597 0 
z
" transform="scale(0.015625)"/>
       <path id="ArialMT-28" d="M 1497 -1347 
Q 1031 -759 709 28 
Q 388 816 388 1659 
Q 388 2403 628 3084 
Q 909 3875 1497 4659 
L 1900 4659 
Q 1522 4009 1400 3731 
Q 1209 3300 1100 2831 
Q 966 2247 966 1656 
Q 966 153 1900 -1347 
L 1497 -1347 
z
" transform="scale(0.015625)"/>
       <path id="ArialMT-7a" d="M 125 0 
L 125 456 
L 2238 2881 
Q 1878 2863 1603 2863 
L 250 2863 
L 250 3319 
L 2963 3319 
L 2963 2947 
L 1166 841 
L 819 456 
Q 1197 484 1528 484 
L 3063 484 
L 3063 0 
L 125 0 
z
" transform="scale(0.015625)"/>
       <path id="ArialMT-2d" d="M 203 1375 
L 203 1941 
L 1931 1941 
L 1931 1375 
L 203 1375 
z
" transform="scale(0.015625)"/>
       <path id="ArialMT-73" d="M 197 991 
L 753 1078 
Q 800 744 1014 566 
Q 1228 388 1613 388 
Q 2000 388 2187 545 
Q 2375 703 2375 916 
Q 2375 1106 2209 1216 
Q 2094 1291 1634 1406 
Q 1016 1563 777 1677 
Q 538 1791 414 1992 
Q 291 2194 291 2438 
Q 291 2659 392 2848 
Q 494 3038 669 3163 
Q 800 3259 1026 3326 
Q 1253 3394 1513 3394 
Q 1903 3394 2198 3281 
Q 2494 3169 2634 2976 
Q 2775 2784 2828 2463 
L 2278 2388 
Q 2241 2644 2061 2787 
Q 1881 2931 1553 2931 
Q 1166 2931 1000 2803 
Q 834 2675 834 2503 
Q 834 2394 903 2306 
Q 972 2216 1119 2156 
Q 1203 2125 1616 2013 
Q 2213 1853 2448 1751 
Q 2684 1650 2818 1456 
Q 2953 1263 2953 975 
Q 2953 694 2789 445 
Q 2625 197 2315 61 
Q 2006 -75 1616 -75 
Q 969 -75 630 194 
Q 291 463 197 991 
z
" transform="scale(0.015625)"/>
       <path id="ArialMT-63" d="M 2588 1216 
L 3141 1144 
Q 3050 572 2676 248 
Q 2303 -75 1759 -75 
Q 1078 -75 664 370 
Q 250 816 250 1647 
Q 250 2184 428 2587 
Q 606 2991 970 3192 
Q 1334 3394 1763 3394 
Q 2303 3394 2647 3120 
Q 2991 2847 3088 2344 
L 2541 2259 
Q 2463 2594 2264 2762 
Q 2066 2931 1784 2931 
Q 1359 2931 1093 2626 
Q 828 2322 828 1663 
Q 828 994 1084 691 
Q 1341 388 1753 388 
Q 2084 388 2306 591 
Q 2528 794 2588 1216 
z
" transform="scale(0.015625)"/>
       <path id="ArialMT-6f" d="M 213 1659 
Q 213 2581 725 3025 
Q 1153 3394 1769 3394 
Q 2453 3394 2887 2945 
Q 3322 2497 3322 1706 
Q 3322 1066 3130 698 
Q 2938 331 2570 128 
Q 2203 -75 1769 -75 
Q 1072 -75 642 372 
Q 213 819 213 1659 
z
M 791 1659 
Q 791 1022 1069 705 
Q 1347 388 1769 388 
Q 2188 388 2466 706 
Q 2744 1025 2744 1678 
Q 2744 2294 2464 2611 
Q 2184 2928 1769 2928 
Q 1347 2928 1069 2612 
Q 791 2297 791 1659 
z
" transform="scale(0.015625)"/>
       <path id="ArialMT-72" d="M 416 0 
L 416 3319 
L 922 3319 
L 922 2816 
Q 1116 3169 1280 3281 
Q 1444 3394 1641 3394 
Q 1925 3394 2219 3213 
L 2025 2691 
Q 1819 2813 1613 2813 
Q 1428 2813 1281 2702 
Q 1134 2591 1072 2394 
Q 978 2094 978 1738 
L 978 0 
L 416 0 
z
" transform="scale(0.015625)"/>
       <path id="ArialMT-64" d="M 2575 0 
L 2575 419 
Q 2259 -75 1647 -75 
Q 1250 -75 917 144 
Q 584 363 401 755 
Q 219 1147 219 1656 
Q 219 2153 384 2558 
Q 550 2963 881 3178 
Q 1213 3394 1622 3394 
Q 1922 3394 2156 3267 
Q 2391 3141 2538 2938 
L 2538 4581 
L 3097 4581 
L 3097 0 
L 2575 0 
z
M 797 1656 
Q 797 1019 1065 703 
Q 1334 388 1700 388 
Q 2069 388 2326 689 
Q 2584 991 2584 1609 
Q 2584 2291 2321 2609 
Q 2059 2928 1675 2928 
Q 1300 2928 1048 2622 
Q 797 2316 797 1656 
z
" transform="scale(0.015625)"/>
       <path id="ArialMT-29" d="M 791 -1347 
L 388 -1347 
Q 1322 153 1322 1656 
Q 1322 2244 1188 2822 
Q 1081 3291 891 3722 
Q 769 4003 388 4659 
L 791 4659 
Q 1378 3875 1659 3084 
Q 1900 2403 1900 1659 
Q 1900 816 1576 28 
Q 1253 -759 791 -1347 
z
" transform="scale(0.015625)"/>
      </defs>
      <use xlink:href="#ArialMT-56"/>
      <use xlink:href="#ArialMT-61" x="59.324219"/>
      <use xlink:href="#ArialMT-6c" x="114.939453"/>
      <use xlink:href="#ArialMT-75" x="137.15625"/>
      <use xlink:href="#ArialMT-65" x="192.771484"/>
      <use xlink:href="#ArialMT-20" x="248.386719"/>
      <use xlink:href="#ArialMT-28" x="276.169922"/>
      <use xlink:href="#ArialMT-7a" x="309.470703"/>
      <use xlink:href="#ArialMT-2d" x="359.470703"/>
      <use xlink:href="#ArialMT-73" x="392.771484"/>
      <use xlink:href="#ArialMT-63" x="442.771484"/>
      <use xlink:href="#ArialMT-6f" x="492.771484"/>
      <use xlink:href="#ArialMT-72" x="548.386719"/>
      <use xlink:href="#ArialMT-65" x="581.6875"/>
      <use xlink:href="#ArialMT-64" x="637.302734"/>
      <use xlink:href="#ArialMT-29" x="692.917969"/>
     </g>
    </g>
   </g>
   <g id="PolyCollection_1">
    <defs>
     <path id="m87eacda954" d="M 161.610647 -745.700682 
L 159.860797 -745.700682 
L 159.860797 -749.288286 
L 159.860797 -752.87589 
L 159.860797 -756.463494 
L 159.860797 -760.051098 
L 159.860797 -763.638702 
L 159.860797 -767.226306 
L 159.860797 -770.81391 
L 159.860797 -774.401514 
L 159.860797 -777.989119 
L 159.860797 -781.576723 
L 159.860797 -785.164327 
L 159.860797 -788.751931 
L 159.860797 -792.339535 
L 159.860797 -795.927139 
L 159.860797 -799.514743 
L 159.860797 -803.102347 
L 159.860797 -806.689951 
L 159.860797 -810.277555 
L 159.860797 -813.865159 
L 159.860797 -817.452764 
L 159.860797 -821.040368 
L 159.860797 -824.627972 
L 159.860797 -828.215576 
L 159.860797 -831.80318 
L 159.860797 -835.390784 
L 159.860797 -838.978388 
L 159.860797 -842.565992 
L 159.860797 -846.153596 
L 159.860797 -849.7412 
L 159.860797 -853.328804 
L 159.860797 -856.916409 
L 159.860797 -860.504013 
L 159.860797 -864.091617 
L 159.860797 -867.679221 
L 159.860797 -871.266825 
L 159.860797 -874.854429 
L 159.860797 -878.442033 
L 159.860797 -882.029637 
L 165.003265 -882.029637 
L 165.003265 -882.029637 
L 165.876469 -878.442033 
L 166.570427 -874.854429 
L 167.086953 -871.266825 
L 167.524101 -867.679221 
L 168.077755 -864.091617 
L 169.00818 -860.504013 
L 170.573049 -856.916409 
L 172.942518 -853.328804 
L 176.123068 -849.7412 
L 179.919573 -846.153596 
L 183.957192 -842.565992 
L 187.766508 -838.978388 
L 190.91024 -835.390784 
L 193.106688 -831.80318 
L 194.297361 -828.215576 
L 194.625 -824.627972 
L 194.329924 -821.040368 
L 193.616026 -817.452764 
L 192.555553 -813.865159 
L 191.08039 -810.277555 
L 189.058491 -806.689951 
L 186.407222 -803.102347 
L 183.178744 -799.514743 
L 179.573989 -795.927139 
L 175.885324 -792.339535 
L 172.405367 -788.751931 
L 169.350099 -785.164327 
L 166.8269 -781.576723 
L 164.848465 -777.989119 
L 163.371301 -774.401514 
L 162.332843 -770.81391 
L 161.671244 -767.226306 
L 161.326441 -763.638702 
L 161.231228 -760.051098 
L 161.303821 -756.463494 
L 161.450005 -752.87589 
L 161.576517 -749.288286 
L 161.610647 -745.700682 
z
" style="stroke: #d55e00; stroke-opacity: 0.3"/>
    </defs>
    <g clip-path="url(#p9bb23aa984)">
     <use xlink:href="#m87eacda954" x="0" y="1080" style="fill: #d55e00; fill-opacity: 0.3; stroke: #d55e00; stroke-opacity: 0.3"/>
    </g>
   </g>
   <g id="PolyCollection_2">
    <defs>
     <path id="m007055f45a" d="M 300.795679 -682.232707 
L 299.306653 -682.232707 
L 299.306653 -687.208182 
L 299.306653 -692.183658 
L 299.306653 -697.159133 
L 299.306653 -702.134608 
L 299.306653 -707.110084 
L 299.306653 -712.085559 
L 299.306653 -717.061035 
L 299.306653 -722.03651 
L 299.306653 -727.011985 
L 299.306653 -731.987461 
L 299.306653 -736.962936 
L 299.306653 -741.938412 
L 299.306653 -746.913887 
L 299.306653 -751.889362 
L 299.306653 -756.864838 
L 299.306653 -761.840313 
L 299.306653 -766.815789 
L 299.306653 -771.791264 
L 299.306653 -776.766739 
L 299.306653 -781.742215 
L 299.306653 -786.71769 
L 299.306653 -791.693166 
L 299.306653 -796.668641 
L 299.306653 -801.644116 
L 299.306653 -806.619592 
L 299.306653 -811.595067 
L 299.306653 -816.570543 
L 299.306653 -821.546018 
L 299.306653 -826.521493 
L 299.306653 -831.496969 
L 299.306653 -836.472444 
L 299.306653 -841.44792 
L 299.306653 -846.423395 
L 299.306653 -851.39887 
L 299.306653 -856.374346 
L 299.306653 -861.349821 
L 299.306653 -866.325297 
L 299.306653 -871.300772 
L 300.747529 -871.300772 
L 300.747529 -871.300772 
L 300.822551 -866.325297 
L 300.942873 -861.349821 
L 301.289752 -856.374346 
L 302.094229 -851.39887 
L 303.590659 -846.423395 
L 305.963075 -841.44792 
L 309.295138 -836.472444 
L 313.529127 -831.496969 
L 318.434068 -826.521493 
L 323.586172 -821.546018 
L 328.380871 -816.570543 
L 332.110353 -811.595067 
L 334.125 -806.619592 
L 334.041744 -801.644116 
L 331.903074 -796.668641 
L 328.186791 -791.693166 
L 323.641322 -786.71769 
L 319.026337 -781.742215 
L 314.892147 -776.766739 
L 311.493654 -771.791264 
L 308.841524 -766.815789 
L 306.819182 -761.840313 
L 305.285131 -756.864838 
L 304.12271 -751.889362 
L 303.246766 -746.913887 
L 302.59481 -741.938412 
L 302.119565 -736.962936 
L 301.783438 -731.987461 
L 301.551378 -727.011985 
L 301.385527 -722.03651 
L 301.249105 -717.061035 
L 301.119503 -712.085559 
L 300.99879 -707.110084 
L 300.908063 -702.134608 
L 300.865076 -697.159133 
L 300.860952 -692.183658 
L 300.855322 -687.208182 
L 300.795679 -682.232707 
z
" style="stroke: #0072b2; stroke-opacity: 0.3"/>
    </defs>
    <g clip-path="url(#p9bb23aa984)">
     <use xlink:href="#m007055f45a" x="0" y="1080" style="fill: #0072b2; fill-opacity: 0.3; stroke: #0072b2; stroke-opacity: 0.3"/>
    </g>
   </g>
   <g id="PolyCollection_3">
    <defs>
     <path id="m729a0d0314" d="M 440.57395 -589.581818 
L 438.892347 -589.581818 
L 438.892347 -598.62488 
L 438.892347 -607.667943 
L 438.892347 -616.711005 
L 438.892347 -625.754067 
L 438.892347 -634.797129 
L 438.892347 -643.840191 
L 438.892347 -652.883254 
L 438.892347 -661.926316 
L 438.892347 -670.969378 
L 438.892347 -680.01244 
L 438.892347 -689.055502 
L 438.892347 -698.098565 
L 438.892347 -707.141627 
L 438.892347 -716.184689 
L 438.892347 -725.227751 
L 438.892347 -734.270813 
L 438.892347 -743.313876 
L 438.892347 -752.356938 
L 438.892347 -761.4 
L 438.892347 -770.443062 
L 438.892347 -779.486124 
L 438.892347 -788.529187 
L 438.892347 -797.572249 
L 438.892347 -806.615311 
L 438.892347 -815.658373 
L 438.892347 -824.701435 
L 438.892347 -833.744498 
L 438.892347 -842.78756 
L 438.892347 -851.830622 
L 438.892347 -860.873684 
L 438.892347 -869.916746 
L 438.892347 -878.959809 
L 438.892347 -888.002871 
L 438.892347 -897.045933 
L 438.892347 -906.088995 
L 438.892347 -915.132057 
L 438.892347 -924.17512 
L 438.892347 -933.218182 
L 446.632204 -933.218182 
L 446.632204 -933.218182 
L 449.119892 -924.17512 
L 452.019744 -915.132057 
L 455.29303 -906.088995 
L 458.843996 -897.045933 
L 462.503726 -888.002871 
L 466.030928 -878.959809 
L 469.139407 -869.916746 
L 471.552453 -860.873684 
L 473.070308 -851.830622 
L 473.625 -842.78756 
L 473.295872 -833.744498 
L 472.273776 -824.701435 
L 470.787156 -815.658373 
L 469.024572 -806.615311 
L 467.090763 -797.572249 
L 465.013888 -788.529187 
L 462.792073 -779.486124 
L 460.446681 -770.443062 
L 458.04998 -761.4 
L 455.713531 -752.356938 
L 453.547576 -743.313876 
L 451.616984 -734.270813 
L 449.918972 -725.227751 
L 448.394107 -716.184689 
L 446.963504 -707.141627 
L 445.571829 -698.098565 
L 444.214435 -689.055502 
L 442.937533 -680.01244 
L 441.815491 -670.969378 
L 440.919795 -661.926316 
L 440.294594 -652.883254 
L 439.946063 -643.840191 
L 439.843945 -634.797129 
L 439.929435 -625.754067 
L 440.125123 -616.711005 
L 440.34636 -607.667943 
L 440.514941 -598.62488 
L 440.57395 -589.581818 
z
" style="stroke: #009e73; stroke-opacity: 0.3"/>
    </defs>
    <g clip-path="url(#p9bb23aa984)">
     <use xlink:href="#m729a0d0314" x="0" y="1080" style="fill: #009e73; fill-opacity: 0.3; stroke: #009e73; stroke-opacity: 0.3"/>
    </g>
   </g>
   <g id="PolyCollection_4">
    <defs>
     <path id="mf7f67d9e60" d="M 589.189334 -797.413999 
L 578.600687 -797.413999 
L 578.600687 -800.092865 
L 578.600687 -802.771731 
L 578.600687 -805.450597 
L 578.600687 -808.129464 
L 578.600687 -810.80833 
L 578.600687 -813.487196 
L 578.600687 -816.166062 
L 578.600687 -818.844928 
L 578.600687 -821.523794 
L 578.600687 -824.20266 
L 578.600687 -826.881526 
L 578.600687 -829.560392 
L 578.600687 -832.239258 
L 578.600687 -834.918124 
L 578.600687 -837.59699 
L 578.600687 -840.275857 
L 578.600687 -842.954723 
L 578.600687 -845.633589 
L 578.600687 -848.312455 
L 578.600687 -850.991321 
L 578.600687 -853.670187 
L 578.600687 -856.349053 
L 578.600687 -859.027919 
L 578.600687 -861.706785 
L 578.600687 -864.385651 
L 578.600687 -867.064517 
L 578.600687 -869.743383 
L 578.600687 -872.422249 
L 578.600687 -875.101116 
L 578.600687 -877.779982 
L 578.600687 -880.458848 
L 578.600687 -883.137714 
L 578.600687 -885.81658 
L 578.600687 -888.495446 
L 578.600687 -891.174312 
L 578.600687 -893.853178 
L 578.600687 -896.532044 
L 578.600687 -899.21091 
L 584.777008 -899.21091 
L 584.777008 -899.21091 
L 586.202995 -896.532044 
L 587.878256 -893.853178 
L 589.838074 -891.174312 
L 592.093896 -888.495446 
L 594.61779 -885.81658 
L 597.334155 -883.137714 
L 600.12355 -880.458848 
L 602.839736 -877.779982 
L 605.33603 -875.101116 
L 607.49301 -872.422249 
L 609.238492 -869.743383 
L 610.553481 -867.064517 
L 611.463396 -864.385651 
L 612.019864 -861.706785 
L 612.281787 -859.027919 
L 612.303714 -856.349053 
L 612.135046 -853.670187 
L 611.827789 -850.991321 
L 611.446194 -848.312455 
L 611.070824 -845.633589 
L 610.792311 -842.954723 
L 610.694818 -840.275857 
L 610.833655 -837.59699 
L 611.214001 -834.918124 
L 611.777632 -832.239258 
L 612.402473 -829.560392 
L 612.916622 -826.881526 
L 613.125 -824.20266 
L 612.84373 -821.523794 
L 611.935079 -818.844928 
L 610.335135 -816.166062 
L 608.067555 -813.487196 
L 605.23997 -810.80833 
L 602.024021 -808.129464 
L 598.624342 -805.450597 
L 595.244472 -802.771731 
L 592.057811 -800.092865 
L 589.189334 -797.413999 
z
" style="stroke: #cc79a7; stroke-opacity: 0.3"/>
    </defs>
    <g clip-path="url(#p9bb23aa984)">
     <use xlink:href="#mf7f67d9e60" x="0" y="1080" style="fill: #cc79a7; fill-opacity: 0.3; stroke: #cc79a7; stroke-opacity: 0.3"/>
    </g>
   </g>
   <g id="PathCollection_1">
    <defs>
     <path id="mcd5a1c1f02" d="M 0 0.866025 
C 0.229673 0.866025 0.449969 0.774776 0.612372 0.612372 
C 0.774776 0.449969 0.866025 0.229673 0.866025 0 
C 0.866025 -0.229673 0.774776 -0.449969 0.612372 -0.612372 
C 0.449969 -0.774776 0.229673 -0.866025 0 -0.866025 
C -0.229673 -0.866025 -0.449969 -0.774776 -0.612372 -0.612372 
C -0.774776 -0.449969 -0.866025 -0.229673 -0.866025 0 
C -0.866025 0.229673 -0.774776 0.449969 -0.612372 0.612372 
C -0.449969 0.774776 -0.229673 0.866025 0 0.866025 
z
" style="stroke: #d55e00"/>
    </defs>
    <g clip-path="url(#p9bb23aa984)">
     <use xlink:href="#mcd5a1c1f02" x="129.333722" y="276.745577" style="fill: #d55e00; stroke: #d55e00"/>
     <use xlink:href="#mcd5a1c1f02" x="129.790614" y="247.171533" style="fill: #d55e00; stroke: #d55e00"/>
     <use xlink:href="#mcd5a1c1f02" x="129.337266" y="298.641988" style="fill: #d55e00; stroke: #d55e00"/>
     <use xlink:href="#mcd5a1c1f02" x="134.799752" y="275.906413" style="fill: #d55e00; stroke: #d55e00"/>
     <use xlink:href="#mcd5a1c1f02" x="129.283097" y="260.807789" style="fill: #d55e00; stroke: #d55e00"/>
     <use xlink:href="#mcd5a1c1f02" x="130.497163" y="246.683634" style="fill: #d55e00; stroke: #d55e00"/>
     <use xlink:href="#mcd5a1c1f02" x="132.699902" y="272.651551" style="fill: #d55e00; stroke: #d55e00"/>
     <use xlink:href="#mcd5a1c1f02" x="138.521234" y="258.639421" style="fill: #d55e00; stroke: #d55e00"/>
     <use xlink:href="#mcd5a1c1f02" x="132.854959" y="235.531838" style="fill: #d55e00; stroke: #d55e00"/>
     <use xlink:href="#mcd5a1c1f02" x="132.645317" y="268.613219" style="fill: #d55e00; stroke: #d55e00"/>
     <use xlink:href="#mcd5a1c1f02" x="136.927718" y="270.714512" style="fill: #d55e00; stroke: #d55e00"/>
     <use xlink:href="#mcd5a1c1f02" x="125.001428" y="265.806454" style="fill: #d55e00; stroke: #d55e00"/>
     <use xlink:href="#mcd5a1c1f02" x="136.482594" y="246.604193" style="fill: #d55e00; stroke: #d55e00"/>
     <use xlink:href="#mcd5a1c1f02" x="132.52744" y="262.829774" style="fill: #d55e00; stroke: #d55e00"/>
     <use xlink:href="#mcd5a1c1f02" x="128.353252" y="204.829925" style="fill: #d55e00; stroke: #d55e00"/>
     <use xlink:href="#mcd5a1c1f02" x="134.534658" y="254.48587" style="fill: #d55e00; stroke: #d55e00"/>
     <use xlink:href="#mcd5a1c1f02" x="134.821672" y="246.801137" style="fill: #d55e00; stroke: #d55e00"/>
     <use xlink:href="#mcd5a1c1f02" x="133.99713" y="248.040805" style="fill: #d55e00; stroke: #d55e00"/>
     <use xlink:href="#mcd5a1c1f02" x="130.727469" y="237.660479" style="fill: #d55e00; stroke: #d55e00"/>
     <use xlink:href="#mcd5a1c1f02" x="135.602231" y="283.421049" style="fill: #d55e00; stroke: #d55e00"/>
     <use xlink:href="#mcd5a1c1f02" x="129.306322" y="212.519028" style="fill: #d55e00; stroke: #d55e00"/>
     <use xlink:href="#mcd5a1c1f02" x="127.802852" y="247.258368" style="fill: #d55e00; stroke: #d55e00"/>
     <use xlink:href="#mcd5a1c1f02" x="132.177433" y="274.853262" style="fill: #d55e00; stroke: #d55e00"/>
     <use xlink:href="#mcd5a1c1f02" x="138.29682" y="238.940739" style="fill: #d55e00; stroke: #d55e00"/>
     <use xlink:href="#mcd5a1c1f02" x="127.527713" y="197.970363" style="fill: #d55e00; stroke: #d55e00"/>
     <use xlink:href="#mcd5a1c1f02" x="128.71482" y="270.89928" style="fill: #d55e00; stroke: #d55e00"/>
     <use xlink:href="#mcd5a1c1f02" x="126.801643" y="243.780723" style="fill: #d55e00; stroke: #d55e00"/>
     <use xlink:href="#mcd5a1c1f02" x="127.343734" y="278.709155" style="fill: #d55e00; stroke: #d55e00"/>
     <use xlink:href="#mcd5a1c1f02" x="130.129838" y="273.05141" style="fill: #d55e00; stroke: #d55e00"/>
     <use xlink:href="#mcd5a1c1f02" x="132.931321" y="247.211098" style="fill: #d55e00; stroke: #d55e00"/>
     <use xlink:href="#mcd5a1c1f02" x="138.693853" y="231.682005" style="fill: #d55e00; stroke: #d55e00"/>
     <use xlink:href="#mcd5a1c1f02" x="134.479574" y="288.280237" style="fill: #d55e00; stroke: #d55e00"/>
     <use xlink:href="#mcd5a1c1f02" x="131.0434" y="251.471135" style="fill: #d55e00; stroke: #d55e00"/>
     <use xlink:href="#mcd5a1c1f02" x="133.274016" y="247.935766" style="fill: #d55e00; stroke: #d55e00"/>
     <use xlink:href="#mcd5a1c1f02" x="136.266827" y="253.635124" style="fill: #d55e00; stroke: #d55e00"/>
     <use xlink:href="#mcd5a1c1f02" x="135.148181" y="260.548316" style="fill: #d55e00; stroke: #d55e00"/>
     <use xlink:href="#mcd5a1c1f02" x="133.943607" y="213.435432" style="fill: #d55e00; stroke: #d55e00"/>
     <use xlink:href="#mcd5a1c1f02" x="125.748113" y="277.760505" style="fill: #d55e00; stroke: #d55e00"/>
     <use xlink:href="#mcd5a1c1f02" x="127.742947" y="334.299318" style="fill: #d55e00; stroke: #d55e00"/>
    </g>
   </g>
   <g id="PathCollection_2">
    <defs>
     <path id="m02851739a7" d="M 0 0.866025 
C 0.229673 0.866025 0.449969 0.774776 0.612372 0.612372 
C 0.774776 0.449969 0.866025 0.229673 0.866025 0 
C 0.866025 -0.229673 0.774776 -0.449969 0.612372 -0.612372 
C 0.449969 -0.774776 0.229673 -0.866025 0 -0.866025 
C -0.229673 -0.866025 -0.449969 -0.774776 -0.612372 -0.612372 
C -0.774776 -0.449969 -0.866025 -0.229673 -0.866025 0 
C -0.866025 0.229673 -0.774776 0.449969 -0.612372 0.612372 
C -0.449969 0.774776 -0.229673 0.866025 0 0.866025 
z
" style="stroke: #0072b2"/>
    </defs>
    <g clip-path="url(#p9bb23aa984)">
     <use xlink:href="#m02851739a7" x="266.973058" y="300.268047" style="fill: #0072b2; stroke: #0072b2"/>
     <use xlink:href="#m02851739a7" x="277.716412" y="269.309389" style="fill: #0072b2; stroke: #0072b2"/>
     <use xlink:href="#m02851739a7" x="266.275508" y="278.117999" style="fill: #0072b2; stroke: #0072b2"/>
     <use xlink:href="#m02851739a7" x="275.709689" y="208.699228" style="fill: #0072b2; stroke: #0072b2"/>
     <use xlink:href="#m02851739a7" x="276.5752" y="268.006373" style="fill: #0072b2; stroke: #0072b2"/>
     <use xlink:href="#m02851739a7" x="270.184324" y="258.321169" style="fill: #0072b2; stroke: #0072b2"/>
     <use xlink:href="#m02851739a7" x="269.345666" y="280.422358" style="fill: #0072b2; stroke: #0072b2"/>
     <use xlink:href="#m02851739a7" x="267.490935" y="283.729604" style="fill: #0072b2; stroke: #0072b2"/>
     <use xlink:href="#m02851739a7" x="270.636933" y="266.452642" style="fill: #0072b2; stroke: #0072b2"/>
     <use xlink:href="#m02851739a7" x="277.850537" y="290.614991" style="fill: #0072b2; stroke: #0072b2"/>
     <use xlink:href="#m02851739a7" x="271.208301" y="273.75552" style="fill: #0072b2; stroke: #0072b2"/>
     <use xlink:href="#m02851739a7" x="266.85118" y="263.604356" style="fill: #0072b2; stroke: #0072b2"/>
     <use xlink:href="#m02851739a7" x="274.641686" y="277.726624" style="fill: #0072b2; stroke: #0072b2"/>
     <use xlink:href="#m02851739a7" x="267.981141" y="310.990825" style="fill: #0072b2; stroke: #0072b2"/>
     <use xlink:href="#m02851739a7" x="266.92215" y="339.701862" style="fill: #0072b2; stroke: #0072b2"/>
     <use xlink:href="#m02851739a7" x="266.004556" y="255.908239" style="fill: #0072b2; stroke: #0072b2"/>
     <use xlink:href="#m02851739a7" x="274.037173" y="286.212425" style="fill: #0072b2; stroke: #0072b2"/>
     <use xlink:href="#m02851739a7" x="274.788371" y="273.836584" style="fill: #0072b2; stroke: #0072b2"/>
     <use xlink:href="#m02851739a7" x="273.067003" y="279.672888" style="fill: #0072b2; stroke: #0072b2"/>
     <use xlink:href="#m02851739a7" x="272.904641" y="276.706922" style="fill: #0072b2; stroke: #0072b2"/>
     <use xlink:href="#m02851739a7" x="271.930611" y="365.033864" style="fill: #0072b2; stroke: #0072b2"/>
     <use xlink:href="#m02851739a7" x="267.543809" y="276.385581" style="fill: #0072b2; stroke: #0072b2"/>
     <use xlink:href="#m02851739a7" x="264.516519" y="276.202283" style="fill: #0072b2; stroke: #0072b2"/>
     <use xlink:href="#m02851739a7" x="277.190036" y="280.052311" style="fill: #0072b2; stroke: #0072b2"/>
     <use xlink:href="#m02851739a7" x="266.41684" y="397.767293" style="fill: #0072b2; stroke: #0072b2"/>
     <use xlink:href="#m02851739a7" x="276.773431" y="255.457785" style="fill: #0072b2; stroke: #0072b2"/>
     <use xlink:href="#m02851739a7" x="265.99895" y="271.401814" style="fill: #0072b2; stroke: #0072b2"/>
     <use xlink:href="#m02851739a7" x="270.287048" y="251.769933" style="fill: #0072b2; stroke: #0072b2"/>
     <use xlink:href="#m02851739a7" x="272.551556" y="251.559342" style="fill: #0072b2; stroke: #0072b2"/>
     <use xlink:href="#m02851739a7" x="277.807852" y="286.966275" style="fill: #0072b2; stroke: #0072b2"/>
     <use xlink:href="#m02851739a7" x="264.792915" y="303.249026" style="fill: #0072b2; stroke: #0072b2"/>
     <use xlink:href="#m02851739a7" x="264.713709" y="275.830903" style="fill: #0072b2; stroke: #0072b2"/>
     <use xlink:href="#m02851739a7" x="272.749861" y="269.377822" style="fill: #0072b2; stroke: #0072b2"/>
     <use xlink:href="#m02851739a7" x="267.587344" y="309.558093" style="fill: #0072b2; stroke: #0072b2"/>
     <use xlink:href="#m02851739a7" x="267.839836" y="284.576683" style="fill: #0072b2; stroke: #0072b2"/>
     <use xlink:href="#m02851739a7" x="271.888433" y="266.350447" style="fill: #0072b2; stroke: #0072b2"/>
     <use xlink:href="#m02851739a7" x="275.31825" y="323.397241" style="fill: #0072b2; stroke: #0072b2"/>
     <use xlink:href="#m02851739a7" x="268.506543" y="279.062821" style="fill: #0072b2; stroke: #0072b2"/>
     <use xlink:href="#m02851739a7" x="276.012866" y="289.617217" style="fill: #0072b2; stroke: #0072b2"/>
    </g>
   </g>
   <g id="PathCollection_3">
    <defs>
     <path id="m982dcce23a" d="M 0 0.866025 
C 0.229673 0.866025 0.449969 0.774776 0.612372 0.612372 
C 0.774776 0.449969 0.866025 0.229673 0.866025 0 
C 0.866025 -0.229673 0.774776 -0.449969 0.612372 -0.612372 
C 0.449969 -0.774776 0.229673 -0.866025 0 -0.866025 
C -0.229673 -0.866025 -0.449969 -0.774776 -0.612372 -0.612372 
C -0.774776 -0.449969 -0.866025 -0.229673 -0.866025 0 
C -0.866025 0.229673 -0.774776 0.449969 -0.612372 0.612372 
C -0.449969 0.774776 -0.229673 0.866025 0 0.866025 
z
" style="stroke: #009e73"/>
    </defs>
    <g clip-path="url(#p9bb23aa984)">
     <use xlink:href="#m982dcce23a" x="403.89665" y="215.322863" style="fill: #009e73; stroke: #009e73"/>
     <use xlink:href="#m982dcce23a" x="410.952726" y="299.825266" style="fill: #009e73; stroke: #009e73"/>
     <use xlink:href="#m982dcce23a" x="405.736497" y="284.862378" style="fill: #009e73; stroke: #009e73"/>
     <use xlink:href="#m982dcce23a" x="409.431457" y="236.114686" style="fill: #009e73; stroke: #009e73"/>
     <use xlink:href="#m982dcce23a" x="413.29057" y="200.628829" style="fill: #009e73; stroke: #009e73"/>
     <use xlink:href="#m982dcce23a" x="411.330792" y="228.233903" style="fill: #009e73; stroke: #009e73"/>
     <use xlink:href="#m982dcce23a" x="412.894745" y="248.173912" style="fill: #009e73; stroke: #009e73"/>
     <use xlink:href="#m982dcce23a" x="406.789352" y="371.010265" style="fill: #009e73; stroke: #009e73"/>
     <use xlink:href="#m982dcce23a" x="415.763772" y="171.163095" style="fill: #009e73; stroke: #009e73"/>
     <use xlink:href="#m982dcce23a" x="404.146183" y="272.078635" style="fill: #009e73; stroke: #009e73"/>
     <use xlink:href="#m982dcce23a" x="406.948014" y="146.781818" style="fill: #009e73; stroke: #009e73"/>
     <use xlink:href="#m982dcce23a" x="406.686791" y="187.689982" style="fill: #009e73; stroke: #009e73"/>
     <use xlink:href="#m982dcce23a" x="410.357626" y="246.308895" style="fill: #009e73; stroke: #009e73"/>
     <use xlink:href="#m982dcce23a" x="405.133131" y="201.062186" style="fill: #009e73; stroke: #009e73"/>
     <use xlink:href="#m982dcce23a" x="406.845976" y="238.760898" style="fill: #009e73; stroke: #009e73"/>
     <use xlink:href="#m982dcce23a" x="410.567115" y="235.745018" style="fill: #009e73; stroke: #009e73"/>
     <use xlink:href="#m982dcce23a" x="407.142025" y="276.862974" style="fill: #009e73; stroke: #009e73"/>
     <use xlink:href="#m982dcce23a" x="411.564688" y="246.032695" style="fill: #009e73; stroke: #009e73"/>
     <use xlink:href="#m982dcce23a" x="406.123731" y="335.347111" style="fill: #009e73; stroke: #009e73"/>
     <use xlink:href="#m982dcce23a" x="408.308811" y="296.256226" style="fill: #009e73; stroke: #009e73"/>
     <use xlink:href="#m982dcce23a" x="414.72363" y="490.418182" style="fill: #009e73; stroke: #009e73"/>
     <use xlink:href="#m982dcce23a" x="404.282468" y="328.941572" style="fill: #009e73; stroke: #009e73"/>
     <use xlink:href="#m982dcce23a" x="417.052134" y="224.682607" style="fill: #009e73; stroke: #009e73"/>
     <use xlink:href="#m982dcce23a" x="416.464325" y="211.46144" style="fill: #009e73; stroke: #009e73"/>
     <use xlink:href="#m982dcce23a" x="415.447781" y="363.418958" style="fill: #009e73; stroke: #009e73"/>
     <use xlink:href="#m982dcce23a" x="409.019276" y="299.071229" style="fill: #009e73; stroke: #009e73"/>
     <use xlink:href="#m982dcce23a" x="416.93043" y="205.945269" style="fill: #009e73; stroke: #009e73"/>
     <use xlink:href="#m982dcce23a" x="407.477057" y="230.005339" style="fill: #009e73; stroke: #009e73"/>
     <use xlink:href="#m982dcce23a" x="408.650193" y="229.752628" style="fill: #009e73; stroke: #009e73"/>
     <use xlink:href="#m982dcce23a" x="409.345075" y="171.688631" style="fill: #009e73; stroke: #009e73"/>
     <use xlink:href="#m982dcce23a" x="404.804814" y="311.66119" style="fill: #009e73; stroke: #009e73"/>
     <use xlink:href="#m982dcce23a" x="415.2247" y="293.282856" style="fill: #009e73; stroke: #009e73"/>
     <use xlink:href="#m982dcce23a" x="404.856068" y="203.669573" style="fill: #009e73; stroke: #009e73"/>
     <use xlink:href="#m982dcce23a" x="410.947354" y="276.605689" style="fill: #009e73; stroke: #009e73"/>
     <use xlink:href="#m982dcce23a" x="408.16741" y="238.210594" style="fill: #009e73; stroke: #009e73"/>
     <use xlink:href="#m982dcce23a" x="416.978068" y="251.218449" style="fill: #009e73; stroke: #009e73"/>
     <use xlink:href="#m982dcce23a" x="412.823234" y="377.92918" style="fill: #009e73; stroke: #009e73"/>
     <use xlink:href="#m982dcce23a" x="408.200707" y="274.450692" style="fill: #009e73; stroke: #009e73"/>
     <use xlink:href="#m982dcce23a" x="414.014565" y="313.601565" style="fill: #009e73; stroke: #009e73"/>
    </g>
   </g>
   <g id="PathCollection_4">
    <defs>
     <path id="m94ba954097" d="M 0 0.866025 
C 0.229673 0.866025 0.449969 0.774776 0.612372 0.612372 
C 0.774776 0.449969 0.866025 0.229673 0.866025 0 
C 0.866025 -0.229673 0.774776 -0.449969 0.612372 -0.612372 
C 0.449969 -0.774776 0.229673 -0.866025 0 -0.866025 
C -0.229673 -0.866025 -0.449969 -0.774776 -0.612372 -0.612372 
C -0.774776 -0.449969 -0.866025 -0.229673 -0.866025 0 
C -0.866025 0.229673 -0.774776 0.449969 -0.612372 0.612372 
C -0.449969 0.774776 -0.229673 0.866025 0 0.866025 
z
" style="stroke: #cc79a7"/>
    </defs>
    <g clip-path="url(#p9bb23aa984)">
     <use xlink:href="#m94ba954097" x="550.517855" y="228.256913" style="fill: #cc79a7; stroke: #cc79a7"/>
     <use xlink:href="#m94ba954097" x="555.981099" y="245.71461" style="fill: #cc79a7; stroke: #cc79a7"/>
     <use xlink:href="#m94ba954097" x="554.808113" y="208.118998" style="fill: #cc79a7; stroke: #cc79a7"/>
     <use xlink:href="#m94ba954097" x="549.561495" y="282.586001" style="fill: #cc79a7; stroke: #cc79a7"/>
     <use xlink:href="#m94ba954097" x="555.670265" y="253.520937" style="fill: #cc79a7; stroke: #cc79a7"/>
     <use xlink:href="#m94ba954097" x="555.319055" y="270.933685" style="fill: #cc79a7; stroke: #cc79a7"/>
     <use xlink:href="#m94ba954097" x="556.255948" y="225.744256" style="fill: #cc79a7; stroke: #cc79a7"/>
     <use xlink:href="#m94ba954097" x="547.310847" y="230.589508" style="fill: #cc79a7; stroke: #cc79a7"/>
     <use xlink:href="#m94ba954097" x="554.761556" y="269.956705" style="fill: #cc79a7; stroke: #cc79a7"/>
     <use xlink:href="#m94ba954097" x="552.016689" y="208.365682" style="fill: #cc79a7; stroke: #cc79a7"/>
     <use xlink:href="#m94ba954097" x="555.357456" y="264.614665" style="fill: #cc79a7; stroke: #cc79a7"/>
     <use xlink:href="#m94ba954097" x="553.14019" y="261.83318" style="fill: #cc79a7; stroke: #cc79a7"/>
     <use xlink:href="#m94ba954097" x="555.773617" y="231.600473" style="fill: #cc79a7; stroke: #cc79a7"/>
     <use xlink:href="#m94ba954097" x="556.259121" y="209.942956" style="fill: #cc79a7; stroke: #cc79a7"/>
     <use xlink:href="#m94ba954097" x="547.318961" y="208.081234" style="fill: #cc79a7; stroke: #cc79a7"/>
     <use xlink:href="#m94ba954097" x="549.971331" y="264.031399" style="fill: #cc79a7; stroke: #cc79a7"/>
     <use xlink:href="#m94ba954097" x="549.130025" y="228.930222" style="fill: #cc79a7; stroke: #cc79a7"/>
     <use xlink:href="#m94ba954097" x="549.552962" y="239.825481" style="fill: #cc79a7; stroke: #cc79a7"/>
     <use xlink:href="#m94ba954097" x="552.973462" y="217.149479" style="fill: #cc79a7; stroke: #cc79a7"/>
     <use xlink:href="#m94ba954097" x="553.919166" y="224.397776" style="fill: #cc79a7; stroke: #cc79a7"/>
     <use xlink:href="#m94ba954097" x="545.461538" y="180.78909" style="fill: #cc79a7; stroke: #cc79a7"/>
     <use xlink:href="#m94ba954097" x="554.479671" y="204.962724" style="fill: #cc79a7; stroke: #cc79a7"/>
     <use xlink:href="#m94ba954097" x="547.153004" y="239.43294" style="fill: #cc79a7; stroke: #cc79a7"/>
     <use xlink:href="#m94ba954097" x="551.19733" y="262.526161" style="fill: #cc79a7; stroke: #cc79a7"/>
     <use xlink:href="#m94ba954097" x="552.32783" y="189.768684" style="fill: #cc79a7; stroke: #cc79a7"/>
     <use xlink:href="#m94ba954097" x="553.50217" y="242.603265" style="fill: #cc79a7; stroke: #cc79a7"/>
     <use xlink:href="#m94ba954097" x="556.295812" y="254.285119" style="fill: #cc79a7; stroke: #cc79a7"/>
     <use xlink:href="#m94ba954097" x="544.320738" y="257.378922" style="fill: #cc79a7; stroke: #cc79a7"/>
     <use xlink:href="#m94ba954097" x="555.069892" y="264.348294" style="fill: #cc79a7; stroke: #cc79a7"/>
     <use xlink:href="#m94ba954097" x="551.287059" y="257.153912" style="fill: #cc79a7; stroke: #cc79a7"/>
     <use xlink:href="#m94ba954097" x="554.135673" y="253.784118" style="fill: #cc79a7; stroke: #cc79a7"/>
     <use xlink:href="#m94ba954097" x="557.250994" y="212.930937" style="fill: #cc79a7; stroke: #cc79a7"/>
     <use xlink:href="#m94ba954097" x="551.446693" y="264.68992" style="fill: #cc79a7; stroke: #cc79a7"/>
     <use xlink:href="#m94ba954097" x="553.849337" y="226.314503" style="fill: #cc79a7; stroke: #cc79a7"/>
     <use xlink:href="#m94ba954097" x="544.021392" y="225.499426" style="fill: #cc79a7; stroke: #cc79a7"/>
     <use xlink:href="#m94ba954097" x="549.519187" y="247.207247" style="fill: #cc79a7; stroke: #cc79a7"/>
     <use xlink:href="#m94ba954097" x="555.338934" y="201.953543" style="fill: #cc79a7; stroke: #cc79a7"/>
     <use xlink:href="#m94ba954097" x="547.204942" y="211.93474" style="fill: #cc79a7; stroke: #cc79a7"/>
     <use xlink:href="#m94ba954097" x="553.398352" y="203.844734" style="fill: #cc79a7; stroke: #cc79a7"/>
    </g>
   </g>
   <g id="patch_3">
    <path d="M 149.2875 272.85148 
L 170.2125 272.85148 
L 170.2125 246.643914 
L 149.2875 246.643914 
L 149.2875 272.85148 
z
" clip-path="url(#p9bb23aa984)" style="fill: #d55e00; opacity: 0.5; stroke: #000000; stroke-linejoin: miter"/>
   </g>
   <g id="line2d_13">
    <path d="M 159.75 272.85148 
L 159.75 298.641988 
" clip-path="url(#p9bb23aa984)" style="fill: none; stroke: #000000; stroke-linecap: round"/>
   </g>
   <g id="line2d_14">
    <path d="M 159.75 246.643914 
L 159.75 212.519028 
" clip-path="url(#p9bb23aa984)" style="fill: none; stroke: #000000; stroke-linecap: round"/>
   </g>
   <g id="line2d_15">
    <path d="M 154.51875 298.641988 
L 164.98125 298.641988 
" clip-path="url(#p9bb23aa984)" style="fill: none; stroke: #000000; stroke-linecap: round"/>
   </g>
   <g id="line2d_16">
    <path d="M 154.51875 212.519028 
L 164.98125 212.519028 
" clip-path="url(#p9bb23aa984)" style="fill: none; stroke: #000000; stroke-linecap: round"/>
   </g>
   <g id="patch_4">
    <path d="M 288.7875 288.291746 
L 309.7125 288.291746 
L 309.7125 268.657881 
L 288.7875 268.657881 
L 288.7875 288.291746 
z
" clip-path="url(#p9bb23aa984)" style="fill: #0072b2; opacity: 0.5; stroke: #000000; stroke-linejoin: miter"/>
   </g>
   <g id="line2d_17">
    <path d="M 299.25 288.291746 
L 299.25 310.990825 
" clip-path="url(#p9bb23aa984)" style="fill: none; stroke: #000000; stroke-linecap: round"/>
   </g>
   <g id="line2d_18">
    <path d="M 299.25 268.657881 
L 299.25 251.559342 
" clip-path="url(#p9bb23aa984)" style="fill: none; stroke: #000000; stroke-linecap: round"/>
   </g>
   <g id="line2d_19">
    <path d="M 294.01875 310.990825 
L 304.48125 310.990825 
" clip-path="url(#p9bb23aa984)" style="fill: none; stroke: #000000; stroke-linecap: round"/>
   </g>
   <g id="line2d_20">
    <path d="M 294.01875 251.559342 
L 304.48125 251.559342 
" clip-path="url(#p9bb23aa984)" style="fill: none; stroke: #000000; stroke-linecap: round"/>
   </g>
   <g id="patch_5">
    <path d="M 428.2875 297.663728 
L 449.2125 297.663728 
L 449.2125 220.002735 
L 428.2875 220.002735 
L 428.2875 297.663728 
z
" clip-path="url(#p9bb23aa984)" style="fill: #009e73; opacity: 0.5; stroke: #000000; stroke-linejoin: miter"/>
   </g>
   <g id="line2d_21">
    <path d="M 438.75 297.663728 
L 438.75 377.92918 
" clip-path="url(#p9bb23aa984)" style="fill: none; stroke: #000000; stroke-linecap: round"/>
   </g>
   <g id="line2d_22">
    <path d="M 438.75 220.002735 
L 438.75 146.781818 
" clip-path="url(#p9bb23aa984)" style="fill: none; stroke: #000000; stroke-linecap: round"/>
   </g>
   <g id="line2d_23">
    <path d="M 433.51875 377.92918 
L 443.98125 377.92918 
" clip-path="url(#p9bb23aa984)" style="fill: none; stroke: #000000; stroke-linecap: round"/>
   </g>
   <g id="line2d_24">
    <path d="M 433.51875 146.781818 
L 443.98125 146.781818 
" clip-path="url(#p9bb23aa984)" style="fill: none; stroke: #000000; stroke-linecap: round"/>
   </g>
   <g id="patch_6">
    <path d="M 567.7875 257.266417 
L 588.7125 257.266417 
L 588.7125 212.432838 
L 567.7875 212.432838 
L 567.7875 257.266417 
z
" clip-path="url(#p9bb23aa984)" style="fill: #cc79a7; opacity: 0.5; stroke: #000000; stroke-linejoin: miter"/>
   </g>
   <g id="line2d_25">
    <path d="M 578.25 257.266417 
L 578.25 282.586001 
" clip-path="url(#p9bb23aa984)" style="fill: none; stroke: #000000; stroke-linecap: round"/>
   </g>
   <g id="line2d_26">
    <path d="M 578.25 212.432838 
L 578.25 180.78909 
" clip-path="url(#p9bb23aa984)" style="fill: none; stroke: #000000; stroke-linecap: round"/>
   </g>
   <g id="line2d_27">
    <path d="M 573.01875 282.586001 
L 583.48125 282.586001 
" clip-path="url(#p9bb23aa984)" style="fill: none; stroke: #000000; stroke-linecap: round"/>
   </g>
   <g id="line2d_28">
    <path d="M 573.01875 180.78909 
L 583.48125 180.78909 
" clip-path="url(#p9bb23aa984)" style="fill: none; stroke: #000000; stroke-linecap: round"/>
   </g>
   <g id="line2d_29">
    <path d="M 149.2875 254.48587 
L 170.2125 254.48587 
" clip-path="url(#p9bb23aa984)" style="fill: none; stroke: #000000"/>
   </g>
   <g id="line2d_30">
    <path d="M 288.7875 277.726624 
L 309.7125 277.726624 
" clip-path="url(#p9bb23aa984)" style="fill: none; stroke: #000000"/>
   </g>
   <g id="line2d_31">
    <path d="M 428.2875 246.308895 
L 449.2125 246.308895 
" clip-path="url(#p9bb23aa984)" style="fill: none; stroke: #000000"/>
   </g>
   <g id="line2d_32">
    <path d="M 567.7875 231.600473 
L 588.7125 231.600473 
" clip-path="url(#p9bb23aa984)" style="fill: none; stroke: #000000"/>
   </g>
   <g id="patch_7">
    <path d="M 90 507.6 
L 90 129.6 
" style="fill: none; stroke: #262626; stroke-width: 1.25; stroke-linejoin: miter; stroke-linecap: square"/>
   </g>
   <g id="patch_8">
    <path d="M 648 507.6 
L 648 129.6 
" style="fill: none; stroke: #262626; stroke-width: 1.25; stroke-linejoin: miter; stroke-linecap: square"/>
   </g>
   <g id="patch_9">
    <path d="M 90 507.6 
L 648 507.6 
" style="fill: none; stroke: #262626; stroke-width: 1.25; stroke-linejoin: miter; stroke-linecap: square"/>
   </g>
   <g id="patch_10">
    <path d="M 90 129.6 
L 648 129.6 
" style="fill: none; stroke: #262626; stroke-width: 1.25; stroke-linejoin: miter; stroke-linecap: square"/>
   </g>
   <g id="text_14">
    <!-- IBI -->
    <g style="fill: #262626" transform="translate(360.055313 109.6) scale(0.14 -0.14)">
     <defs>
      <path id="Arial-BoldMT-49" d="M 438 0 
L 438 4581 
L 1363 4581 
L 1363 0 
L 438 0 
z
" transform="scale(0.015625)"/>
      <path id="Arial-BoldMT-42" d="M 469 4581 
L 2300 4581 
Q 2844 4581 3111 4536 
Q 3378 4491 3589 4347 
Q 3800 4203 3940 3964 
Q 4081 3725 4081 3428 
Q 4081 3106 3907 2837 
Q 3734 2569 3438 2434 
Q 3856 2313 4081 2019 
Q 4306 1725 4306 1328 
Q 4306 1016 4161 720 
Q 4016 425 3764 248 
Q 3513 72 3144 31 
Q 2913 6 2028 0 
L 469 0 
L 469 4581 
z
M 1394 3819 
L 1394 2759 
L 2000 2759 
Q 2541 2759 2672 2775 
Q 2909 2803 3045 2939 
Q 3181 3075 3181 3297 
Q 3181 3509 3064 3642 
Q 2947 3775 2716 3803 
Q 2578 3819 1925 3819 
L 1394 3819 
z
M 1394 1997 
L 1394 772 
L 2250 772 
Q 2750 772 2884 800 
Q 3091 838 3220 983 
Q 3350 1128 3350 1372 
Q 3350 1578 3250 1722 
Q 3150 1866 2961 1931 
Q 2772 1997 2141 1997 
L 1394 1997 
z
" transform="scale(0.015625)"/>
     </defs>
     <use xlink:href="#Arial-BoldMT-49"/>
     <use xlink:href="#Arial-BoldMT-42" x="27.783203"/>
     <use xlink:href="#Arial-BoldMT-49" x="100"/>
    </g>
   </g>
  </g>
  <g id="axes_2">
   <g id="patch_11">
    <path d="M 90 961.2 
L 648 961.2 
L 648 583.2 
L 90 583.2 
z
" style="fill: #ffffff"/>
   </g>
   <g id="matplotlib.axis_3">
    <g id="xtick_5">
     <g id="line2d_33">
      <g>
       <use xlink:href="#m7d8d192f5a" x="159.75" y="961.2" style="fill: #262626; stroke: #262626; stroke-width: 1.25"/>
      </g>
     </g>
     <g id="text_15">
      <!-- State 1 -->
      <g style="fill: #262626" transform="translate(142.321875 978.573594) scale(0.11 -0.11)">
       <use xlink:href="#ArialMT-53"/>
       <use xlink:href="#ArialMT-74" x="66.699219"/>
       <use xlink:href="#ArialMT-61" x="94.482422"/>
       <use xlink:href="#ArialMT-74" x="150.097656"/>
       <use xlink:href="#ArialMT-65" x="177.880859"/>
       <use xlink:href="#ArialMT-20" x="233.496094"/>
       <use xlink:href="#ArialMT-31" x="261.279297"/>
      </g>
     </g>
    </g>
    <g id="xtick_6">
     <g id="line2d_34">
      <g>
       <use xlink:href="#m7d8d192f5a" x="299.25" y="961.2" style="fill: #262626; stroke: #262626; stroke-width: 1.25"/>
      </g>
     </g>
     <g id="text_16">
      <!-- State 2 -->
      <g style="fill: #262626" transform="translate(281.821875 978.573594) scale(0.11 -0.11)">
       <use xlink:href="#ArialMT-53"/>
       <use xlink:href="#ArialMT-74" x="66.699219"/>
       <use xlink:href="#ArialMT-61" x="94.482422"/>
       <use xlink:href="#ArialMT-74" x="150.097656"/>
       <use xlink:href="#ArialMT-65" x="177.880859"/>
       <use xlink:href="#ArialMT-20" x="233.496094"/>
       <use xlink:href="#ArialMT-32" x="261.279297"/>
      </g>
     </g>
    </g>
    <g id="xtick_7">
     <g id="line2d_35">
      <g>
       <use xlink:href="#m7d8d192f5a" x="438.75" y="961.2" style="fill: #262626; stroke: #262626; stroke-width: 1.25"/>
      </g>
     </g>
     <g id="text_17">
      <!-- State 3 -->
      <g style="fill: #262626" transform="translate(421.321875 978.573594) scale(0.11 -0.11)">
       <use xlink:href="#ArialMT-53"/>
       <use xlink:href="#ArialMT-74" x="66.699219"/>
       <use xlink:href="#ArialMT-61" x="94.482422"/>
       <use xlink:href="#ArialMT-74" x="150.097656"/>
       <use xlink:href="#ArialMT-65" x="177.880859"/>
       <use xlink:href="#ArialMT-20" x="233.496094"/>
       <use xlink:href="#ArialMT-33" x="261.279297"/>
      </g>
     </g>
    </g>
    <g id="xtick_8">
     <g id="line2d_36">
      <g>
       <use xlink:href="#m7d8d192f5a" x="578.25" y="961.2" style="fill: #262626; stroke: #262626; stroke-width: 1.25"/>
      </g>
     </g>
     <g id="text_18">
      <!-- State 4 -->
      <g style="fill: #262626" transform="translate(560.821875 978.573594) scale(0.11 -0.11)">
       <use xlink:href="#ArialMT-53"/>
       <use xlink:href="#ArialMT-74" x="66.699219"/>
       <use xlink:href="#ArialMT-61" x="94.482422"/>
       <use xlink:href="#ArialMT-74" x="150.097656"/>
       <use xlink:href="#ArialMT-65" x="177.880859"/>
       <use xlink:href="#ArialMT-20" x="233.496094"/>
       <use xlink:href="#ArialMT-34" x="261.279297"/>
      </g>
     </g>
    </g>
   </g>
   <g id="matplotlib.axis_4">
    <g id="ytick_9">
     <g id="line2d_37">
      <g>
       <use xlink:href="#m45b6a49304" x="90" y="950.422733" style="fill: #262626; stroke: #262626; stroke-width: 1.25"/>
      </g>
     </g>
     <g id="text_19">
      <!-- −1.5 -->
      <g style="fill: #262626" transform="translate(58.785313 954.35953) scale(0.11 -0.11)">
       <use xlink:href="#ArialMT-2212"/>
       <use xlink:href="#ArialMT-31" x="58.398438"/>
       <use xlink:href="#ArialMT-2e" x="114.013672"/>
       <use xlink:href="#ArialMT-35" x="141.796875"/>
      </g>
     </g>
    </g>
    <g id="ytick_10">
     <g id="line2d_38">
      <g>
       <use xlink:href="#m45b6a49304" x="90" y="891.427476" style="fill: #262626; stroke: #262626; stroke-width: 1.25"/>
      </g>
     </g>
     <g id="text_20">
      <!-- −1.0 -->
      <g style="fill: #262626" transform="translate(58.785313 895.364273) scale(0.11 -0.11)">
       <use xlink:href="#ArialMT-2212"/>
       <use xlink:href="#ArialMT-31" x="58.398438"/>
       <use xlink:href="#ArialMT-2e" x="114.013672"/>
       <use xlink:href="#ArialMT-30" x="141.796875"/>
      </g>
     </g>
    </g>
    <g id="ytick_11">
     <g id="line2d_39">
      <g>
       <use xlink:href="#m45b6a49304" x="90" y="832.432218" style="fill: #262626; stroke: #262626; stroke-width: 1.25"/>
      </g>
     </g>
     <g id="text_21">
      <!-- −0.5 -->
      <g style="fill: #262626" transform="translate(58.785313 836.369015) scale(0.11 -0.11)">
       <use xlink:href="#ArialMT-2212"/>
       <use xlink:href="#ArialMT-30" x="58.398438"/>
       <use xlink:href="#ArialMT-2e" x="114.013672"/>
       <use xlink:href="#ArialMT-35" x="141.796875"/>
      </g>
     </g>
    </g>
    <g id="ytick_12">
     <g id="line2d_40">
      <g>
       <use xlink:href="#m45b6a49304" x="90" y="773.436961" style="fill: #262626; stroke: #262626; stroke-width: 1.25"/>
      </g>
     </g>
     <g id="text_22">
      <!-- 0.0 -->
      <g style="fill: #262626" transform="translate(65.21 777.373758) scale(0.11 -0.11)">
       <use xlink:href="#ArialMT-30"/>
       <use xlink:href="#ArialMT-2e" x="55.615234"/>
       <use xlink:href="#ArialMT-30" x="83.398438"/>
      </g>
     </g>
    </g>
    <g id="ytick_13">
     <g id="line2d_41">
      <g>
       <use xlink:href="#m45b6a49304" x="90" y="714.441704" style="fill: #262626; stroke: #262626; stroke-width: 1.25"/>
      </g>
     </g>
     <g id="text_23">
      <!-- 0.5 -->
      <g style="fill: #262626" transform="translate(65.21 718.378501) scale(0.11 -0.11)">
       <use xlink:href="#ArialMT-30"/>
       <use xlink:href="#ArialMT-2e" x="55.615234"/>
       <use xlink:href="#ArialMT-35" x="83.398438"/>
      </g>
     </g>
    </g>
    <g id="ytick_14">
     <g id="line2d_42">
      <g>
       <use xlink:href="#m45b6a49304" x="90" y="655.446446" style="fill: #262626; stroke: #262626; stroke-width: 1.25"/>
      </g>
     </g>
     <g id="text_24">
      <!-- 1.0 -->
      <g style="fill: #262626" transform="translate(65.21 659.383243) scale(0.11 -0.11)">
       <use xlink:href="#ArialMT-31"/>
       <use xlink:href="#ArialMT-2e" x="55.615234"/>
       <use xlink:href="#ArialMT-30" x="83.398438"/>
      </g>
     </g>
    </g>
    <g id="ytick_15">
     <g id="line2d_43">
      <g>
       <use xlink:href="#m45b6a49304" x="90" y="596.451189" style="fill: #262626; stroke: #262626; stroke-width: 1.25"/>
      </g>
     </g>
     <g id="text_25">
      <!-- 1.5 -->
      <g style="fill: #262626" transform="translate(65.21 600.387986) scale(0.11 -0.11)">
       <use xlink:href="#ArialMT-31"/>
       <use xlink:href="#ArialMT-2e" x="55.615234"/>
       <use xlink:href="#ArialMT-35" x="83.398438"/>
      </g>
     </g>
    </g>
    <g id="text_26">
     <!-- Value (z-scored) -->
     <g style="fill: #262626" transform="translate(52.259687 815.770313) rotate(-90) scale(0.12 -0.12)">
      <use xlink:href="#ArialMT-56"/>
      <use xlink:href="#ArialMT-61" x="59.324219"/>
      <use xlink:href="#ArialMT-6c" x="114.939453"/>
      <use xlink:href="#ArialMT-75" x="137.15625"/>
      <use xlink:href="#ArialMT-65" x="192.771484"/>
      <use xlink:href="#ArialMT-20" x="248.386719"/>
      <use xlink:href="#ArialMT-28" x="276.169922"/>
      <use xlink:href="#ArialMT-7a" x="309.470703"/>
      <use xlink:href="#ArialMT-2d" x="359.470703"/>
      <use xlink:href="#ArialMT-73" x="392.771484"/>
      <use xlink:href="#ArialMT-63" x="442.771484"/>
      <use xlink:href="#ArialMT-6f" x="492.771484"/>
      <use xlink:href="#ArialMT-72" x="548.386719"/>
      <use xlink:href="#ArialMT-65" x="581.6875"/>
      <use xlink:href="#ArialMT-64" x="637.302734"/>
      <use xlink:href="#ArialMT-29" x="692.917969"/>
     </g>
    </g>
   </g>
   <g id="PolyCollection_5">
    <defs>
     <path id="m7d2dec8479" d="M 163.28494 -246.77864 
L 159.885452 -246.77864 
L 159.885452 -249.350166 
L 159.885452 -251.921692 
L 159.885452 -254.493218 
L 159.885452 -257.064744 
L 159.885452 -259.63627 
L 159.885452 -262.207795 
L 159.885452 -264.779321 
L 159.885452 -267.350847 
L 159.885452 -269.922373 
L 159.885452 -272.493899 
L 159.885452 -275.065425 
L 159.885452 -277.636951 
L 159.885452 -280.208477 
L 159.885452 -282.780002 
L 159.885452 -285.351528 
L 159.885452 -287.923054 
L 159.885452 -290.49458 
L 159.885452 -293.066106 
L 159.885452 -295.637632 
L 159.885452 -298.209158 
L 159.885452 -300.780684 
L 159.885452 -303.352209 
L 159.885452 -305.923735 
L 159.885452 -308.495261 
L 159.885452 -311.066787 
L 159.885452 -313.638313 
L 159.885452 -316.209839 
L 159.885452 -318.781365 
L 159.885452 -321.352891 
L 159.885452 -323.924416 
L 159.885452 -326.495942 
L 159.885452 -329.067468 
L 159.885452 -331.638994 
L 159.885452 -334.21052 
L 159.885452 -336.782046 
L 159.885452 -339.353572 
L 159.885452 -341.925098 
L 159.885452 -344.496623 
L 163.651736 -344.496623 
L 163.651736 -344.496623 
L 164.582837 -341.925098 
L 165.746584 -339.353572 
L 167.208498 -336.782046 
L 169.008534 -334.21052 
L 171.13836 -331.638994 
L 173.530105 -329.067468 
L 176.064367 -326.495942 
L 178.598494 -323.924416 
L 181.006974 -321.352891 
L 183.218033 -318.781365 
L 185.229064 -316.209839 
L 187.090791 -313.638313 
L 188.864241 -311.066787 
L 190.56892 -308.495261 
L 192.147095 -305.923735 
L 193.463156 -303.352209 
L 194.341065 -300.780684 
L 194.625 -298.209158 
L 194.237809 -295.637632 
L 193.213537 -293.066106 
L 191.692277 -290.49458 
L 189.881021 -287.923054 
L 187.995982 -285.351528 
L 186.206148 -282.780002 
L 184.594891 -280.208477 
L 183.149188 -277.636951 
L 181.777543 -275.065425 
L 180.349987 -272.493899 
L 178.747732 -269.922373 
L 176.907251 -267.350847 
L 174.844812 -264.779321 
L 172.653622 -262.207795 
L 170.475208 -259.63627 
L 168.456249 -257.064744 
L 166.707282 -254.493218 
L 165.277995 -251.921692 
L 164.155888 -249.350166 
L 163.28494 -246.77864 
z
" style="stroke: #d55e00; stroke-opacity: 0.3"/>
    </defs>
    <g clip-path="url(#p3bfbb3458a)">
     <use xlink:href="#m7d2dec8479" x="0" y="1080" style="fill: #d55e00; fill-opacity: 0.3; stroke: #d55e00; stroke-opacity: 0.3"/>
    </g>
   </g>
   <g id="PolyCollection_6">
    <defs>
     <path id="m422dd69e06" d="M 303.998496 -219.9662 
L 299.484765 -219.9662 
L 299.484765 -223.005466 
L 299.484765 -226.044733 
L 299.484765 -229.084 
L 299.484765 -232.123267 
L 299.484765 -235.162534 
L 299.484765 -238.201801 
L 299.484765 -241.241068 
L 299.484765 -244.280335 
L 299.484765 -247.319602 
L 299.484765 -250.358869 
L 299.484765 -253.398136 
L 299.484765 -256.437403 
L 299.484765 -259.476669 
L 299.484765 -262.515936 
L 299.484765 -265.555203 
L 299.484765 -268.59447 
L 299.484765 -271.633737 
L 299.484765 -274.673004 
L 299.484765 -277.712271 
L 299.484765 -280.751538 
L 299.484765 -283.790805 
L 299.484765 -286.830072 
L 299.484765 -289.869339 
L 299.484765 -292.908606 
L 299.484765 -295.947873 
L 299.484765 -298.987139 
L 299.484765 -302.026406 
L 299.484765 -305.065673 
L 299.484765 -308.10494 
L 299.484765 -311.144207 
L 299.484765 -314.183474 
L 299.484765 -317.222741 
L 299.484765 -320.262008 
L 299.484765 -323.301275 
L 299.484765 -326.340542 
L 299.484765 -329.379809 
L 299.484765 -332.419076 
L 299.484765 -335.458342 
L 308.769009 -335.458342 
L 308.769009 -335.458342 
L 310.908743 -332.419076 
L 313.1814 -329.379809 
L 315.534509 -326.340542 
L 317.918239 -323.301275 
L 320.287565 -320.262008 
L 322.601945 -317.222741 
L 324.823498 -314.183474 
L 326.914882 -311.144207 
L 328.837309 -308.10494 
L 330.54825 -305.065673 
L 331.998205 -302.026406 
L 333.127107 -298.987139 
L 333.862771 -295.947873 
L 334.125 -292.908606 
L 333.837878 -289.869339 
L 332.949352 -286.830072 
L 331.452852 -283.790805 
L 329.402911 -280.751538 
L 326.917465 -277.712271 
L 324.163925 -274.673004 
L 321.332225 -271.633737 
L 318.602999 -268.59447 
L 316.120435 -265.555203 
L 313.97685 -262.515936 
L 312.210962 -259.476669 
L 310.816847 -256.437403 
L 309.757743 -253.398136 
L 308.979096 -250.358869 
L 308.417689 -247.319602 
L 308.006814 -244.280335 
L 307.679512 -241.241068 
L 307.372151 -238.201801 
L 307.029374 -235.162534 
L 306.60976 -232.123267 
L 306.090425 -229.084 
L 305.468886 -226.044733 
L 304.761435 -223.005466 
L 303.998496 -219.9662 
z
" style="stroke: #0072b2; stroke-opacity: 0.3"/>
    </defs>
    <g clip-path="url(#p3bfbb3458a)">
     <use xlink:href="#m422dd69e06" x="0" y="1080" style="fill: #0072b2; fill-opacity: 0.3; stroke: #0072b2; stroke-opacity: 0.3"/>
    </g>
   </g>
   <g id="PolyCollection_7">
    <defs>
     <path id="m8908826aa8" d="M 440.794801 -135.981818 
L 438.840188 -135.981818 
L 438.840188 -145.02488 
L 438.840188 -154.067943 
L 438.840188 -163.111005 
L 438.840188 -172.154067 
L 438.840188 -181.197129 
L 438.840188 -190.240191 
L 438.840188 -199.283254 
L 438.840188 -208.326316 
L 438.840188 -217.369378 
L 438.840188 -226.41244 
L 438.840188 -235.455502 
L 438.840188 -244.498565 
L 438.840188 -253.541627 
L 438.840188 -262.584689 
L 438.840188 -271.627751 
L 438.840188 -280.670813 
L 438.840188 -289.713876 
L 438.840188 -298.756938 
L 438.840188 -307.8 
L 438.840188 -316.843062 
L 438.840188 -325.886124 
L 438.840188 -334.929187 
L 438.840188 -343.972249 
L 438.840188 -353.015311 
L 438.840188 -362.058373 
L 438.840188 -371.101435 
L 438.840188 -380.144498 
L 438.840188 -389.18756 
L 438.840188 -398.230622 
L 438.840188 -407.273684 
L 438.840188 -416.316746 
L 438.840188 -425.359809 
L 438.840188 -434.402871 
L 438.840188 -443.445933 
L 438.840188 -452.488995 
L 438.840188 -461.532057 
L 438.840188 -470.57512 
L 438.840188 -479.618182 
L 441.965606 -479.618182 
L 441.965606 -479.618182 
L 442.617044 -470.57512 
L 443.404717 -461.532057 
L 444.42122 -452.488995 
L 445.767556 -443.445933 
L 447.531784 -434.402871 
L 449.77022 -425.359809 
L 452.493262 -416.316746 
L 455.653778 -407.273684 
L 459.135906 -398.230622 
L 462.747602 -389.18756 
L 466.227633 -380.144498 
L 469.278623 -371.101435 
L 471.626718 -362.058373 
L 473.089925 -353.015311 
L 473.625 -343.972249 
L 473.328863 -334.929187 
L 472.393495 -325.886124 
L 471.037638 -316.843062 
L 469.447465 -307.8 
L 467.747227 -298.756938 
L 466.000115 -289.713876 
L 464.224731 -280.670813 
L 462.411605 -271.627751 
L 460.533571 -262.584689 
L 458.553887 -253.541627 
L 456.439118 -244.498565 
L 454.178892 -235.455502 
L 451.806482 -226.41244 
L 449.409101 -217.369378 
L 447.118919 -208.326316 
L 445.084377 -199.283254 
L 443.431166 -190.240191 
L 442.227484 -181.197129 
L 441.466229 -172.154067 
L 441.069524 -163.111005 
L 440.91275 -154.067943 
L 440.859291 -145.02488 
L 440.794801 -135.981818 
z
" style="stroke: #009e73; stroke-opacity: 0.3"/>
    </defs>
    <g clip-path="url(#p3bfbb3458a)">
     <use xlink:href="#m8908826aa8" x="0" y="1080" style="fill: #009e73; fill-opacity: 0.3; stroke: #009e73; stroke-opacity: 0.3"/>
    </g>
   </g>
   <g id="PolyCollection_8">
    <defs>
     <path id="m62561b8322" d="M 588.940913 -277.727808 
L 578.607034 -277.727808 
L 578.607034 -280.042109 
L 578.607034 -282.35641 
L 578.607034 -284.670711 
L 578.607034 -286.985012 
L 578.607034 -289.299313 
L 578.607034 -291.613614 
L 578.607034 -293.927915 
L 578.607034 -296.242216 
L 578.607034 -298.556517 
L 578.607034 -300.870818 
L 578.607034 -303.185118 
L 578.607034 -305.499419 
L 578.607034 -307.81372 
L 578.607034 -310.128021 
L 578.607034 -312.442322 
L 578.607034 -314.756623 
L 578.607034 -317.070924 
L 578.607034 -319.385225 
L 578.607034 -321.699526 
L 578.607034 -324.013827 
L 578.607034 -326.328128 
L 578.607034 -328.642429 
L 578.607034 -330.95673 
L 578.607034 -333.27103 
L 578.607034 -335.585331 
L 578.607034 -337.899632 
L 578.607034 -340.213933 
L 578.607034 -342.528234 
L 578.607034 -344.842535 
L 578.607034 -347.156836 
L 578.607034 -349.471137 
L 578.607034 -351.785438 
L 578.607034 -354.099739 
L 578.607034 -356.41404 
L 578.607034 -358.728341 
L 578.607034 -361.042642 
L 578.607034 -363.356942 
L 578.607034 -365.671243 
L 585.787908 -365.671243 
L 585.787908 -365.671243 
L 586.88305 -363.356942 
L 587.981242 -361.042642 
L 589.125248 -358.728341 
L 590.387615 -356.41404 
L 591.856558 -354.099739 
L 593.613051 -351.785438 
L 595.704225 -349.471137 
L 598.120481 -347.156836 
L 600.783866 -344.842535 
L 603.552694 -342.528234 
L 606.242711 -340.213933 
L 608.659834 -337.899632 
L 610.635688 -335.585331 
L 612.056417 -333.27103 
L 612.877855 -330.95673 
L 613.125 -328.642429 
L 612.87872 -326.328128 
L 612.255633 -324.013827 
L 611.38739 -321.699526 
L 610.403435 -319.385225 
L 609.418481 -317.070924 
L 608.52379 -314.756623 
L 607.780829 -312.442322 
L 607.216634 -310.128021 
L 606.821362 -307.81372 
L 606.54918 -305.499419 
L 606.32346 -303.185118 
L 606.046382 -300.870818 
L 605.612112 -298.556517 
L 604.921932 -296.242216 
L 603.899274 -293.927915 
L 602.502346 -291.613614 
L 600.732123 -289.299313 
L 598.633897 -286.985012 
L 596.291618 -284.670711 
L 593.815798 -282.35641 
L 591.327369 -280.042109 
L 588.940913 -277.727808 
z
" style="stroke: #cc79a7; stroke-opacity: 0.3"/>
    </defs>
    <g clip-path="url(#p3bfbb3458a)">
     <use xlink:href="#m62561b8322" x="0" y="1080" style="fill: #cc79a7; fill-opacity: 0.3; stroke: #cc79a7; stroke-opacity: 0.3"/>
    </g>
   </g>
   <g id="PathCollection_5">
    <g clip-path="url(#p3bfbb3458a)">
     <use xlink:href="#mcd5a1c1f02" x="137.52067" y="762.990075" style="fill: #d55e00; stroke: #d55e00"/>
     <use xlink:href="#mcd5a1c1f02" x="134.461327" y="783.348131" style="fill: #d55e00; stroke: #d55e00"/>
     <use xlink:href="#mcd5a1c1f02" x="134.138608" y="794.549057" style="fill: #d55e00; stroke: #d55e00"/>
     <use xlink:href="#mcd5a1c1f02" x="128.573516" y="789.427309" style="fill: #d55e00; stroke: #d55e00"/>
     <use xlink:href="#mcd5a1c1f02" x="135.280708" y="814.714234" style="fill: #d55e00; stroke: #d55e00"/>
     <use xlink:href="#mcd5a1c1f02" x="131.88063" y="795.94583" style="fill: #d55e00; stroke: #d55e00"/>
     <use xlink:href="#mcd5a1c1f02" x="131.265407" y="801.074106" style="fill: #d55e00; stroke: #d55e00"/>
     <use xlink:href="#mcd5a1c1f02" x="134.982531" y="760.860671" style="fill: #d55e00; stroke: #d55e00"/>
     <use xlink:href="#mcd5a1c1f02" x="138.78092" y="778.436068" style="fill: #d55e00; stroke: #d55e00"/>
     <use xlink:href="#mcd5a1c1f02" x="136.74538" y="783.326998" style="fill: #d55e00; stroke: #d55e00"/>
     <use xlink:href="#mcd5a1c1f02" x="134.553841" y="787.180692" style="fill: #d55e00; stroke: #d55e00"/>
     <use xlink:href="#mcd5a1c1f02" x="132.711153" y="806.635467" style="fill: #d55e00; stroke: #d55e00"/>
     <use xlink:href="#mcd5a1c1f02" x="129.341851" y="760.389187" style="fill: #d55e00; stroke: #d55e00"/>
     <use xlink:href="#mcd5a1c1f02" x="126.080509" y="773.131135" style="fill: #d55e00; stroke: #d55e00"/>
     <use xlink:href="#mcd5a1c1f02" x="129.760189" y="735.503377" style="fill: #d55e00; stroke: #d55e00"/>
     <use xlink:href="#mcd5a1c1f02" x="131.87061" y="803.52301" style="fill: #d55e00; stroke: #d55e00"/>
     <use xlink:href="#mcd5a1c1f02" x="135.454716" y="777.140396" style="fill: #d55e00; stroke: #d55e00"/>
     <use xlink:href="#mcd5a1c1f02" x="133.629863" y="765.541264" style="fill: #d55e00; stroke: #d55e00"/>
     <use xlink:href="#mcd5a1c1f02" x="131.996837" y="777.245566" style="fill: #d55e00; stroke: #d55e00"/>
     <use xlink:href="#mcd5a1c1f02" x="133.799501" y="810.57986" style="fill: #d55e00; stroke: #d55e00"/>
     <use xlink:href="#mcd5a1c1f02" x="132.161643" y="748.308027" style="fill: #d55e00; stroke: #d55e00"/>
     <use xlink:href="#mcd5a1c1f02" x="130.850248" y="815.118827" style="fill: #d55e00; stroke: #d55e00"/>
     <use xlink:href="#mcd5a1c1f02" x="131.00537" y="780.037293" style="fill: #d55e00; stroke: #d55e00"/>
     <use xlink:href="#mcd5a1c1f02" x="125.994905" y="780.691963" style="fill: #d55e00; stroke: #d55e00"/>
     <use xlink:href="#mcd5a1c1f02" x="135.152283" y="758.706522" style="fill: #d55e00; stroke: #d55e00"/>
     <use xlink:href="#mcd5a1c1f02" x="133.484474" y="833.22136" style="fill: #d55e00; stroke: #d55e00"/>
     <use xlink:href="#mcd5a1c1f02" x="126.151482" y="758.343961" style="fill: #d55e00; stroke: #d55e00"/>
     <use xlink:href="#mcd5a1c1f02" x="130.076239" y="811.984803" style="fill: #d55e00; stroke: #d55e00"/>
     <use xlink:href="#mcd5a1c1f02" x="127.148865" y="783.165307" style="fill: #d55e00; stroke: #d55e00"/>
     <use xlink:href="#mcd5a1c1f02" x="129.015873" y="786.671567" style="fill: #d55e00; stroke: #d55e00"/>
     <use xlink:href="#mcd5a1c1f02" x="134.522242" y="767.770443" style="fill: #d55e00; stroke: #d55e00"/>
     <use xlink:href="#mcd5a1c1f02" x="134.899139" y="777.117028" style="fill: #d55e00; stroke: #d55e00"/>
     <use xlink:href="#mcd5a1c1f02" x="136.121613" y="765.251146" style="fill: #d55e00; stroke: #d55e00"/>
     <use xlink:href="#mcd5a1c1f02" x="130.862192" y="755.105735" style="fill: #d55e00; stroke: #d55e00"/>
     <use xlink:href="#mcd5a1c1f02" x="137.135136" y="790.891914" style="fill: #d55e00; stroke: #d55e00"/>
     <use xlink:href="#mcd5a1c1f02" x="126.736257" y="778.286646" style="fill: #d55e00; stroke: #d55e00"/>
     <use xlink:href="#mcd5a1c1f02" x="138.514208" y="800.5779" style="fill: #d55e00; stroke: #d55e00"/>
     <use xlink:href="#mcd5a1c1f02" x="128.42016" y="788.956226" style="fill: #d55e00; stroke: #d55e00"/>
     <use xlink:href="#mcd5a1c1f02" x="134.663264" y="810.606778" style="fill: #d55e00; stroke: #d55e00"/>
    </g>
   </g>
   <g id="PathCollection_6">
    <g clip-path="url(#p3bfbb3458a)">
     <use xlink:href="#m02851739a7" x="267.25955" y="845.48455" style="fill: #0072b2; stroke: #0072b2"/>
     <use xlink:href="#m02851739a7" x="275.926163" y="758.896757" style="fill: #0072b2; stroke: #0072b2"/>
     <use xlink:href="#m02851739a7" x="275.187727" y="787.809587" style="fill: #0072b2; stroke: #0072b2"/>
     <use xlink:href="#m02851739a7" x="275.057556" y="750.935942" style="fill: #0072b2; stroke: #0072b2"/>
     <use xlink:href="#m02851739a7" x="271.277023" y="776.371127" style="fill: #0072b2; stroke: #0072b2"/>
     <use xlink:href="#m02851739a7" x="277.517007" y="755.525189" style="fill: #0072b2; stroke: #0072b2"/>
     <use xlink:href="#m02851739a7" x="275.137039" y="806.634945" style="fill: #0072b2; stroke: #0072b2"/>
     <use xlink:href="#m02851739a7" x="271.320403" y="827.482373" style="fill: #0072b2; stroke: #0072b2"/>
     <use xlink:href="#m02851739a7" x="271.221851" y="772.935567" style="fill: #0072b2; stroke: #0072b2"/>
     <use xlink:href="#m02851739a7" x="270.599853" y="788.53847" style="fill: #0072b2; stroke: #0072b2"/>
     <use xlink:href="#m02851739a7" x="273.462871" y="796.426062" style="fill: #0072b2; stroke: #0072b2"/>
     <use xlink:href="#m02851739a7" x="273.341036" y="781.13456" style="fill: #0072b2; stroke: #0072b2"/>
     <use xlink:href="#m02851739a7" x="264.446173" y="793.180732" style="fill: #0072b2; stroke: #0072b2"/>
     <use xlink:href="#m02851739a7" x="274.489383" y="817.184706" style="fill: #0072b2; stroke: #0072b2"/>
     <use xlink:href="#m02851739a7" x="276.108608" y="822.859682" style="fill: #0072b2; stroke: #0072b2"/>
     <use xlink:href="#m02851739a7" x="268.816522" y="774.235638" style="fill: #0072b2; stroke: #0072b2"/>
     <use xlink:href="#m02851739a7" x="268.793855" y="769.635582" style="fill: #0072b2; stroke: #0072b2"/>
     <use xlink:href="#m02851739a7" x="268.820699" y="797.706919" style="fill: #0072b2; stroke: #0072b2"/>
     <use xlink:href="#m02851739a7" x="269.879179" y="784.467034" style="fill: #0072b2; stroke: #0072b2"/>
     <use xlink:href="#m02851739a7" x="271.684195" y="777.013527" style="fill: #0072b2; stroke: #0072b2"/>
     <use xlink:href="#m02851739a7" x="265.376604" y="848.608185" style="fill: #0072b2; stroke: #0072b2"/>
     <use xlink:href="#m02851739a7" x="265.481365" y="768.856474" style="fill: #0072b2; stroke: #0072b2"/>
     <use xlink:href="#m02851739a7" x="276.484458" y="801.398819" style="fill: #0072b2; stroke: #0072b2"/>
     <use xlink:href="#m02851739a7" x="266.043765" y="777.658035" style="fill: #0072b2; stroke: #0072b2"/>
     <use xlink:href="#m02851739a7" x="272.514078" y="860.0338" style="fill: #0072b2; stroke: #0072b2"/>
     <use xlink:href="#m02851739a7" x="266.063192" y="777.705081" style="fill: #0072b2; stroke: #0072b2"/>
     <use xlink:href="#m02851739a7" x="276.597388" y="767.86426" style="fill: #0072b2; stroke: #0072b2"/>
     <use xlink:href="#m02851739a7" x="272.640079" y="759.033811" style="fill: #0072b2; stroke: #0072b2"/>
     <use xlink:href="#m02851739a7" x="275.969626" y="800.84761" style="fill: #0072b2; stroke: #0072b2"/>
     <use xlink:href="#m02851739a7" x="275.283553" y="759.868745" style="fill: #0072b2; stroke: #0072b2"/>
     <use xlink:href="#m02851739a7" x="275.382623" y="744.541658" style="fill: #0072b2; stroke: #0072b2"/>
     <use xlink:href="#m02851739a7" x="276.915014" y="795.003072" style="fill: #0072b2; stroke: #0072b2"/>
     <use xlink:href="#m02851739a7" x="268.831848" y="798.08624" style="fill: #0072b2; stroke: #0072b2"/>
     <use xlink:href="#m02851739a7" x="270.731612" y="810.678805" style="fill: #0072b2; stroke: #0072b2"/>
     <use xlink:href="#m02851739a7" x="267.995491" y="791.038705" style="fill: #0072b2; stroke: #0072b2"/>
     <use xlink:href="#m02851739a7" x="270.076181" y="792.45884" style="fill: #0072b2; stroke: #0072b2"/>
     <use xlink:href="#m02851739a7" x="276.964429" y="789.373956" style="fill: #0072b2; stroke: #0072b2"/>
     <use xlink:href="#m02851739a7" x="275.213172" y="797.993037" style="fill: #0072b2; stroke: #0072b2"/>
     <use xlink:href="#m02851739a7" x="273.144549" y="838.833593" style="fill: #0072b2; stroke: #0072b2"/>
    </g>
   </g>
   <g id="PathCollection_7">
    <g clip-path="url(#p3bfbb3458a)">
     <use xlink:href="#m982dcce23a" x="405.766898" y="778.46545" style="fill: #009e73; stroke: #009e73"/>
     <use xlink:href="#m982dcce23a" x="404.35302" y="800.113934" style="fill: #009e73; stroke: #009e73"/>
     <use xlink:href="#m982dcce23a" x="413.189755" y="782.655156" style="fill: #009e73; stroke: #009e73"/>
     <use xlink:href="#m982dcce23a" x="405.570183" y="672.833098" style="fill: #009e73; stroke: #009e73"/>
     <use xlink:href="#m982dcce23a" x="404.23649" y="725.96985" style="fill: #009e73; stroke: #009e73"/>
     <use xlink:href="#m982dcce23a" x="408.750209" y="741.958475" style="fill: #009e73; stroke: #009e73"/>
     <use xlink:href="#m982dcce23a" x="408.385578" y="712.26141" style="fill: #009e73; stroke: #009e73"/>
     <use xlink:href="#m982dcce23a" x="413.563825" y="856.205713" style="fill: #009e73; stroke: #009e73"/>
     <use xlink:href="#m982dcce23a" x="407.255168" y="640.82439" style="fill: #009e73; stroke: #009e73"/>
     <use xlink:href="#m982dcce23a" x="416.7019" y="767.297479" style="fill: #009e73; stroke: #009e73"/>
     <use xlink:href="#m982dcce23a" x="415.393673" y="600.381818" style="fill: #009e73; stroke: #009e73"/>
     <use xlink:href="#m982dcce23a" x="415.122748" y="709.453389" style="fill: #009e73; stroke: #009e73"/>
     <use xlink:href="#m982dcce23a" x="409.766093" y="775.213735" style="fill: #009e73; stroke: #009e73"/>
     <use xlink:href="#m982dcce23a" x="404.854361" y="713.681184" style="fill: #009e73; stroke: #009e73"/>
     <use xlink:href="#m982dcce23a" x="411.422532" y="736.146542" style="fill: #009e73; stroke: #009e73"/>
     <use xlink:href="#m982dcce23a" x="405.349244" y="682.272684" style="fill: #009e73; stroke: #009e73"/>
     <use xlink:href="#m982dcce23a" x="406.289096" y="751.197353" style="fill: #009e73; stroke: #009e73"/>
     <use xlink:href="#m982dcce23a" x="406.273818" y="762.494733" style="fill: #009e73; stroke: #009e73"/>
     <use xlink:href="#m982dcce23a" x="415.854176" y="838.564803" style="fill: #009e73; stroke: #009e73"/>
     <use xlink:href="#m982dcce23a" x="409.929619" y="800.777827" style="fill: #009e73; stroke: #009e73"/>
     <use xlink:href="#m982dcce23a" x="414.507052" y="944.018182" style="fill: #009e73; stroke: #009e73"/>
     <use xlink:href="#m982dcce23a" x="411.552332" y="749.6206" style="fill: #009e73; stroke: #009e73"/>
     <use xlink:href="#m982dcce23a" x="413.1393" y="733.745884" style="fill: #009e73; stroke: #009e73"/>
     <use xlink:href="#m982dcce23a" x="414.931306" y="709.627797" style="fill: #009e73; stroke: #009e73"/>
     <use xlink:href="#m982dcce23a" x="409.691608" y="824.030965" style="fill: #009e73; stroke: #009e73"/>
     <use xlink:href="#m982dcce23a" x="410.126874" y="813.603719" style="fill: #009e73; stroke: #009e73"/>
     <use xlink:href="#m982dcce23a" x="405.266772" y="725.195081" style="fill: #009e73; stroke: #009e73"/>
     <use xlink:href="#m982dcce23a" x="414.619319" y="734.86176" style="fill: #009e73; stroke: #009e73"/>
     <use xlink:href="#m982dcce23a" x="413.985465" y="684.368628" style="fill: #009e73; stroke: #009e73"/>
     <use xlink:href="#m982dcce23a" x="411.558367" y="844.294993" style="fill: #009e73; stroke: #009e73"/>
     <use xlink:href="#m982dcce23a" x="407.915494" y="823.908289" style="fill: #009e73; stroke: #009e73"/>
     <use xlink:href="#m982dcce23a" x="406.451373" y="676.34282" style="fill: #009e73; stroke: #009e73"/>
     <use xlink:href="#m982dcce23a" x="409.161934" y="725.996565" style="fill: #009e73; stroke: #009e73"/>
     <use xlink:href="#m982dcce23a" x="409.645091" y="719.391985" style="fill: #009e73; stroke: #009e73"/>
     <use xlink:href="#m982dcce23a" x="413.490185" y="765.989633" style="fill: #009e73; stroke: #009e73"/>
     <use xlink:href="#m982dcce23a" x="412.217742" y="713.165556" style="fill: #009e73; stroke: #009e73"/>
     <use xlink:href="#m982dcce23a" x="413.268385" y="802.991568" style="fill: #009e73; stroke: #009e73"/>
     <use xlink:href="#m982dcce23a" x="404.557664" y="782.989257" style="fill: #009e73; stroke: #009e73"/>
     <use xlink:href="#m982dcce23a" x="410.991389" y="857.238295" style="fill: #009e73; stroke: #009e73"/>
    </g>
   </g>
   <g id="PathCollection_8">
    <g clip-path="url(#p3bfbb3458a)">
     <use xlink:href="#m94ba954097" x="547.654547" y="722.203362" style="fill: #cc79a7; stroke: #cc79a7"/>
     <use xlink:href="#m94ba954097" x="555.613009" y="775.951029" style="fill: #cc79a7; stroke: #cc79a7"/>
     <use xlink:href="#m94ba954097" x="547.701358" y="746.904309" style="fill: #cc79a7; stroke: #cc79a7"/>
     <use xlink:href="#m94ba954097" x="545.790815" y="787.599021" style="fill: #cc79a7; stroke: #cc79a7"/>
     <use xlink:href="#m94ba954097" x="556.928884" y="767.120302" style="fill: #cc79a7; stroke: #cc79a7"/>
     <use xlink:href="#m94ba954097" x="547.621132" y="788.605882" style="fill: #cc79a7; stroke: #cc79a7"/>
     <use xlink:href="#m94ba954097" x="553.907408" y="740.993693" style="fill: #cc79a7; stroke: #cc79a7"/>
     <use xlink:href="#m94ba954097" x="544.104794" y="747.241208" style="fill: #cc79a7; stroke: #cc79a7"/>
     <use xlink:href="#m94ba954097" x="549.918168" y="802.272192" style="fill: #cc79a7; stroke: #cc79a7"/>
     <use xlink:href="#m94ba954097" x="557.299998" y="756.531145" style="fill: #cc79a7; stroke: #cc79a7"/>
     <use xlink:href="#m94ba954097" x="550.520209" y="791.911307" style="fill: #cc79a7; stroke: #cc79a7"/>
     <use xlink:href="#m94ba954097" x="554.26651" y="767.403094" style="fill: #cc79a7; stroke: #cc79a7"/>
     <use xlink:href="#m94ba954097" x="549.983794" y="747.505336" style="fill: #cc79a7; stroke: #cc79a7"/>
     <use xlink:href="#m94ba954097" x="556.55228" y="742.681031" style="fill: #cc79a7; stroke: #cc79a7"/>
     <use xlink:href="#m94ba954097" x="553.849122" y="758.797367" style="fill: #cc79a7; stroke: #cc79a7"/>
     <use xlink:href="#m94ba954097" x="550.463873" y="790.252855" style="fill: #cc79a7; stroke: #cc79a7"/>
     <use xlink:href="#m94ba954097" x="545.801276" y="783.079608" style="fill: #cc79a7; stroke: #cc79a7"/>
     <use xlink:href="#m94ba954097" x="549.855914" y="744.890951" style="fill: #cc79a7; stroke: #cc79a7"/>
     <use xlink:href="#m94ba954097" x="548.146108" y="743.245696" style="fill: #cc79a7; stroke: #cc79a7"/>
     <use xlink:href="#m94ba954097" x="547.775492" y="755.984768" style="fill: #cc79a7; stroke: #cc79a7"/>
     <use xlink:href="#m94ba954097" x="550.330277" y="719.131056" style="fill: #cc79a7; stroke: #cc79a7"/>
     <use xlink:href="#m94ba954097" x="548.634367" y="754.144451" style="fill: #cc79a7; stroke: #cc79a7"/>
     <use xlink:href="#m94ba954097" x="548.314348" y="760.445865" style="fill: #cc79a7; stroke: #cc79a7"/>
     <use xlink:href="#m94ba954097" x="547.721921" y="791.778902" style="fill: #cc79a7; stroke: #cc79a7"/>
     <use xlink:href="#m94ba954097" x="554.250931" y="727.217457" style="fill: #cc79a7; stroke: #cc79a7"/>
     <use xlink:href="#m94ba954097" x="553.155161" y="743.576486" style="fill: #cc79a7; stroke: #cc79a7"/>
     <use xlink:href="#m94ba954097" x="544.626394" y="791.83044" style="fill: #cc79a7; stroke: #cc79a7"/>
     <use xlink:href="#m94ba954097" x="550.411674" y="780.663387" style="fill: #cc79a7; stroke: #cc79a7"/>
     <use xlink:href="#m94ba954097" x="547.192803" y="780.79588" style="fill: #cc79a7; stroke: #cc79a7"/>
     <use xlink:href="#m94ba954097" x="556.537914" y="764.041182" style="fill: #cc79a7; stroke: #cc79a7"/>
     <use xlink:href="#m94ba954097" x="549.594747" y="777.236782" style="fill: #cc79a7; stroke: #cc79a7"/>
     <use xlink:href="#m94ba954097" x="556.671263" y="761.229315" style="fill: #cc79a7; stroke: #cc79a7"/>
     <use xlink:href="#m94ba954097" x="544.872839" y="775.072016" style="fill: #cc79a7; stroke: #cc79a7"/>
     <use xlink:href="#m94ba954097" x="556.182689" y="773.840795" style="fill: #cc79a7; stroke: #cc79a7"/>
     <use xlink:href="#m94ba954097" x="549.677197" y="745.772609" style="fill: #cc79a7; stroke: #cc79a7"/>
     <use xlink:href="#m94ba954097" x="556.456861" y="756.094712" style="fill: #cc79a7; stroke: #cc79a7"/>
     <use xlink:href="#m94ba954097" x="548.344035" y="743.317017" style="fill: #cc79a7; stroke: #cc79a7"/>
     <use xlink:href="#m94ba954097" x="551.215554" y="737.55279" style="fill: #cc79a7; stroke: #cc79a7"/>
     <use xlink:href="#m94ba954097" x="550.187009" y="714.328757" style="fill: #cc79a7; stroke: #cc79a7"/>
    </g>
   </g>
   <g id="patch_12">
    <path d="M 149.2875 798.261865 
L 170.2125 798.261865 
L 170.2125 766.655853 
L 149.2875 766.655853 
L 149.2875 798.261865 
z
" clip-path="url(#p3bfbb3458a)" style="fill: #d55e00; opacity: 0.5; stroke: #000000; stroke-linejoin: miter"/>
   </g>
   <g id="line2d_44">
    <path d="M 159.75 798.261865 
L 159.75 833.22136 
" clip-path="url(#p3bfbb3458a)" style="fill: none; stroke: #000000; stroke-linecap: round"/>
   </g>
   <g id="line2d_45">
    <path d="M 159.75 766.655853 
L 159.75 735.503377 
" clip-path="url(#p3bfbb3458a)" style="fill: none; stroke: #000000; stroke-linecap: round"/>
   </g>
   <g id="line2d_46">
    <path d="M 154.51875 833.22136 
L 164.98125 833.22136 
" clip-path="url(#p3bfbb3458a)" style="fill: none; stroke: #000000; stroke-linecap: round"/>
   </g>
   <g id="line2d_47">
    <path d="M 154.51875 735.503377 
L 164.98125 735.503377 
" clip-path="url(#p3bfbb3458a)" style="fill: none; stroke: #000000; stroke-linecap: round"/>
   </g>
   <g id="patch_13">
    <path d="M 288.7875 801.123214 
L 309.7125 801.123214 
L 309.7125 773.585603 
L 288.7875 773.585603 
L 288.7875 801.123214 
z
" clip-path="url(#p3bfbb3458a)" style="fill: #0072b2; opacity: 0.5; stroke: #000000; stroke-linejoin: miter"/>
   </g>
   <g id="line2d_48">
    <path d="M 299.25 801.123214 
L 299.25 838.833593 
" clip-path="url(#p3bfbb3458a)" style="fill: none; stroke: #000000; stroke-linecap: round"/>
   </g>
   <g id="line2d_49">
    <path d="M 299.25 773.585603 
L 299.25 744.541658 
" clip-path="url(#p3bfbb3458a)" style="fill: none; stroke: #000000; stroke-linecap: round"/>
   </g>
   <g id="line2d_50">
    <path d="M 294.01875 838.833593 
L 304.48125 838.833593 
" clip-path="url(#p3bfbb3458a)" style="fill: none; stroke: #000000; stroke-linecap: round"/>
   </g>
   <g id="line2d_51">
    <path d="M 294.01875 744.541658 
L 304.48125 744.541658 
" clip-path="url(#p3bfbb3458a)" style="fill: none; stroke: #000000; stroke-linecap: round"/>
   </g>
   <g id="patch_14">
    <path d="M 428.2875 800.44588 
L 449.2125 800.44588 
L 449.2125 713.42337 
L 428.2875 713.42337 
L 428.2875 800.44588 
z
" clip-path="url(#p3bfbb3458a)" style="fill: #009e73; opacity: 0.5; stroke: #000000; stroke-linejoin: miter"/>
   </g>
   <g id="line2d_52">
    <path d="M 438.75 800.44588 
L 438.75 857.238295 
" clip-path="url(#p3bfbb3458a)" style="fill: none; stroke: #000000; stroke-linecap: round"/>
   </g>
   <g id="line2d_53">
    <path d="M 438.75 713.42337 
L 438.75 600.381818 
" clip-path="url(#p3bfbb3458a)" style="fill: none; stroke: #000000; stroke-linecap: round"/>
   </g>
   <g id="line2d_54">
    <path d="M 433.51875 857.238295 
L 443.98125 857.238295 
" clip-path="url(#p3bfbb3458a)" style="fill: none; stroke: #000000; stroke-linecap: round"/>
   </g>
   <g id="line2d_55">
    <path d="M 433.51875 600.381818 
L 443.98125 600.381818 
" clip-path="url(#p3bfbb3458a)" style="fill: none; stroke: #000000; stroke-linecap: round"/>
   </g>
   <g id="patch_15">
    <path d="M 567.7875 778.950085 
L 588.7125 778.950085 
L 588.7125 744.233719 
L 567.7875 744.233719 
L 567.7875 778.950085 
z
" clip-path="url(#p3bfbb3458a)" style="fill: #cc79a7; opacity: 0.5; stroke: #000000; stroke-linejoin: miter"/>
   </g>
   <g id="line2d_56">
    <path d="M 578.25 778.950085 
L 578.25 802.272192 
" clip-path="url(#p3bfbb3458a)" style="fill: none; stroke: #000000; stroke-linecap: round"/>
   </g>
   <g id="line2d_57">
    <path d="M 578.25 744.233719 
L 578.25 714.328757 
" clip-path="url(#p3bfbb3458a)" style="fill: none; stroke: #000000; stroke-linecap: round"/>
   </g>
   <g id="line2d_58">
    <path d="M 573.01875 802.272192 
L 583.48125 802.272192 
" clip-path="url(#p3bfbb3458a)" style="fill: none; stroke: #000000; stroke-linecap: round"/>
   </g>
   <g id="line2d_59">
    <path d="M 573.01875 714.328757 
L 583.48125 714.328757 
" clip-path="url(#p3bfbb3458a)" style="fill: none; stroke: #000000; stroke-linecap: round"/>
   </g>
   <g id="line2d_60">
    <path d="M 149.2875 783.165307 
L 170.2125 783.165307 
" clip-path="url(#p3bfbb3458a)" style="fill: none; stroke: #000000"/>
   </g>
   <g id="line2d_61">
    <path d="M 288.7875 789.373956 
L 309.7125 789.373956 
" clip-path="url(#p3bfbb3458a)" style="fill: none; stroke: #000000"/>
   </g>
   <g id="line2d_62">
    <path d="M 428.2875 749.6206 
L 449.2125 749.6206 
" clip-path="url(#p3bfbb3458a)" style="fill: none; stroke: #000000"/>
   </g>
   <g id="line2d_63">
    <path d="M 567.7875 758.797367 
L 588.7125 758.797367 
" clip-path="url(#p3bfbb3458a)" style="fill: none; stroke: #000000"/>
   </g>
   <g id="patch_16">
    <path d="M 90 961.2 
L 90 583.2 
" style="fill: none; stroke: #262626; stroke-width: 1.25; stroke-linejoin: miter; stroke-linecap: square"/>
   </g>
   <g id="patch_17">
    <path d="M 648 961.2 
L 648 583.2 
" style="fill: none; stroke: #262626; stroke-width: 1.25; stroke-linejoin: miter; stroke-linecap: square"/>
   </g>
   <g id="patch_18">
    <path d="M 90 961.2 
L 648 961.2 
" style="fill: none; stroke: #262626; stroke-width: 1.25; stroke-linejoin: miter; stroke-linecap: square"/>
   </g>
   <g id="patch_19">
    <path d="M 90 583.2 
L 648 583.2 
" style="fill: none; stroke: #262626; stroke-width: 1.25; stroke-linejoin: miter; stroke-linecap: square"/>
   </g>
   <g id="text_27">
    <!-- HF-HRV -->
    <g style="fill: #262626" transform="translate(342.681094 563.2) scale(0.14 -0.14)">
     <defs>
      <path id="Arial-BoldMT-48" d="M 469 0 
L 469 4581 
L 1394 4581 
L 1394 2778 
L 3206 2778 
L 3206 4581 
L 4131 4581 
L 4131 0 
L 3206 0 
L 3206 2003 
L 1394 2003 
L 1394 0 
L 469 0 
z
" transform="scale(0.015625)"/>
      <path id="Arial-BoldMT-46" d="M 472 0 
L 472 4581 
L 3613 4581 
L 3613 3806 
L 1397 3806 
L 1397 2722 
L 3309 2722 
L 3309 1947 
L 1397 1947 
L 1397 0 
L 472 0 
z
" transform="scale(0.015625)"/>
      <path id="Arial-BoldMT-2d" d="M 359 1222 
L 359 2100 
L 2084 2100 
L 2084 1222 
L 359 1222 
z
" transform="scale(0.015625)"/>
      <path id="Arial-BoldMT-52" d="M 469 0 
L 469 4581 
L 2416 4581 
Q 3150 4581 3483 4457 
Q 3816 4334 4016 4018 
Q 4216 3703 4216 3297 
Q 4216 2781 3912 2445 
Q 3609 2109 3006 2022 
Q 3306 1847 3501 1637 
Q 3697 1428 4028 894 
L 4588 0 
L 3481 0 
L 2813 997 
Q 2456 1531 2325 1670 
Q 2194 1809 2047 1861 
Q 1900 1913 1581 1913 
L 1394 1913 
L 1394 0 
L 469 0 
z
M 1394 2644 
L 2078 2644 
Q 2744 2644 2909 2700 
Q 3075 2756 3169 2893 
Q 3263 3031 3263 3238 
Q 3263 3469 3139 3611 
Q 3016 3753 2791 3791 
Q 2678 3806 2116 3806 
L 1394 3806 
L 1394 2644 
z
" transform="scale(0.015625)"/>
      <path id="Arial-BoldMT-56" d="M 1634 0 
L -3 4581 
L 1000 4581 
L 2159 1191 
L 3281 4581 
L 4263 4581 
L 2622 0 
L 1634 0 
z
" transform="scale(0.015625)"/>
     </defs>
     <use xlink:href="#Arial-BoldMT-48"/>
     <use xlink:href="#Arial-BoldMT-46" x="72.216797"/>
     <use xlink:href="#Arial-BoldMT-2d" x="133.300781"/>
     <use xlink:href="#Arial-BoldMT-48" x="166.601562"/>
     <use xlink:href="#Arial-BoldMT-52" x="238.818359"/>
     <use xlink:href="#Arial-BoldMT-56" x="309.285156"/>
    </g>
   </g>
  </g>
 </g>
 <defs>
  <clipPath id="p9bb23aa984">
   <rect x="90" y="129.6" width="558" height="378"/>
  </clipPath>
  <clipPath id="p3bfbb3458a">
   <rect x="90" y="583.2" width="558" height="378"/>
  </clipPath>
 </defs>
</svg>
