<?xml version="1.0" encoding="utf-8" standalone="no"?>
<!DOCTYPE svg PUBLIC "-//W3C//DTD SVG 1.1//EN"
  "http://www.w3.org/Graphics/SVG/1.1/DTD/svg11.dtd">
<svg xmlns:xlink="http://www.w3.org/1999/xlink" width="720pt" height="1080pt" viewBox="0 0 720 1080" xmlns="http://www.w3.org/2000/svg" version="1.1">
 <metadata>
  <rdf:RDF xmlns:dc="http://purl.org/dc/elements/1.1/" xmlns:cc="http://creativecommons.org/ns#" xmlns:rdf="http://www.w3.org/1999/02/22-rdf-syntax-ns#">
   <cc:Work>
    <dc:type rdf:resource="http://purl.org/dc/dcmitype/StillImage"/>
    <dc:date>2024-08-30T14:45:11.740594</dc:date>
    <dc:format>image/svg+xml</dc:format>
    <dc:creator>
     <cc:Agent>
      <dc:title>Matplotlib v3.8.0, https://matplotlib.org/</dc:title>
     </cc:Agent>
    </dc:creator>
   </cc:Work>
  </rdf:RDF>
 </metadata>
 <defs>
  <style type="text/css">*{stroke-linejoin: round; stroke-linecap: butt}</style>
 </defs>
 <g id="figure_1">
  <g id="patch_1">
   <path d="M 0 1080 
L 720 1080 
L 720 0 
L 0 0 
z
" style="fill: #ffffff"/>
  </g>
  <g id="axes_1">
   <g id="patch_2">
    <path d="M 90 507.6 
L 648 507.6 
L 648 129.6 
L 90 129.6 
z
" style="fill: #ffffff"/>
   </g>
   <g id="matplotlib.axis_1">
    <g id="xtick_1">
     <g id="line2d_1">
      <defs>
       <path id="me2d14ed85a" d="M 0 0 
L 0 6 
" style="stroke: #262626; stroke-width: 1.25"/>
      </defs>
      <g>
       <use xlink:href="#me2d14ed85a" x="159.75" y="507.6" style="fill: #262626; stroke: #262626; stroke-width: 1.25"/>
      </g>
     </g>
     <g id="text_1">
      <!-- State 1 -->
      <g style="fill: #262626" transform="translate(142.321875 524.973594) scale(0.11 -0.11)">
       <defs>
        <path id="ArialMT-53" d="M 288 1472 
L 859 1522 
Q 900 1178 1048 958 
Q 1197 738 1509 602 
Q 1822 466 2213 466 
Q 2559 466 2825 569 
Q 3091 672 3220 851 
Q 3350 1031 3350 1244 
Q 3350 1459 3225 1620 
Q 3100 1781 2813 1891 
Q 2628 1963 1997 2114 
Q 1366 2266 1113 2400 
Q 784 2572 623 2826 
Q 463 3081 463 3397 
Q 463 3744 659 4045 
Q 856 4347 1234 4503 
Q 1613 4659 2075 4659 
Q 2584 4659 2973 4495 
Q 3363 4331 3572 4012 
Q 3781 3694 3797 3291 
L 3216 3247 
Q 3169 3681 2898 3903 
Q 2628 4125 2100 4125 
Q 1550 4125 1298 3923 
Q 1047 3722 1047 3438 
Q 1047 3191 1225 3031 
Q 1400 2872 2139 2705 
Q 2878 2538 3153 2413 
Q 3553 2228 3743 1945 
Q 3934 1663 3934 1294 
Q 3934 928 3725 604 
Q 3516 281 3123 101 
Q 2731 -78 2241 -78 
Q 1619 -78 1198 103 
Q 778 284 539 648 
Q 300 1013 288 1472 
z
" transform="scale(0.015625)"/>
        <path id="ArialMT-74" d="M 1650 503 
L 1731 6 
Q 1494 -44 1306 -44 
Q 1000 -44 831 53 
Q 663 150 594 308 
Q 525 466 525 972 
L 525 2881 
L 113 2881 
L 113 3319 
L 525 3319 
L 525 4141 
L 1084 4478 
L 1084 3319 
L 1650 3319 
L 1650 2881 
L 1084 2881 
L 1084 941 
Q 1084 700 1114 631 
Q 1144 563 1211 522 
Q 1278 481 1403 481 
Q 1497 481 1650 503 
z
" transform="scale(0.015625)"/>
        <path id="ArialMT-61" d="M 2588 409 
Q 2275 144 1986 34 
Q 1697 -75 1366 -75 
Q 819 -75 525 192 
Q 231 459 231 875 
Q 231 1119 342 1320 
Q 453 1522 633 1644 
Q 813 1766 1038 1828 
Q 1203 1872 1538 1913 
Q 2219 1994 2541 2106 
Q 2544 2222 2544 2253 
Q 2544 2597 2384 2738 
Q 2169 2928 1744 2928 
Q 1347 2928 1158 2789 
Q 969 2650 878 2297 
L 328 2372 
Q 403 2725 575 2942 
Q 747 3159 1072 3276 
Q 1397 3394 1825 3394 
Q 2250 3394 2515 3294 
Q 2781 3194 2906 3042 
Q 3031 2891 3081 2659 
Q 3109 2516 3109 2141 
L 3109 1391 
Q 3109 606 3145 398 
Q 3181 191 3288 0 
L 2700 0 
Q 2613 175 2588 409 
z
M 2541 1666 
Q 2234 1541 1622 1453 
Q 1275 1403 1131 1340 
Q 988 1278 909 1158 
Q 831 1038 831 891 
Q 831 666 1001 516 
Q 1172 366 1500 366 
Q 1825 366 2078 508 
Q 2331 650 2450 897 
Q 2541 1088 2541 1459 
L 2541 1666 
z
" transform="scale(0.015625)"/>
        <path id="ArialMT-65" d="M 2694 1069 
L 3275 997 
Q 3138 488 2766 206 
Q 2394 -75 1816 -75 
Q 1088 -75 661 373 
Q 234 822 234 1631 
Q 234 2469 665 2931 
Q 1097 3394 1784 3394 
Q 2450 3394 2872 2941 
Q 3294 2488 3294 1666 
Q 3294 1616 3291 1516 
L 816 1516 
Q 847 969 1125 678 
Q 1403 388 1819 388 
Q 2128 388 2347 550 
Q 2566 713 2694 1069 
z
M 847 1978 
L 2700 1978 
Q 2663 2397 2488 2606 
Q 2219 2931 1791 2931 
Q 1403 2931 1139 2672 
Q 875 2413 847 1978 
z
" transform="scale(0.015625)"/>
        <path id="ArialMT-20" transform="scale(0.015625)"/>
        <path id="ArialMT-31" d="M 2384 0 
L 1822 0 
L 1822 3584 
Q 1619 3391 1289 3197 
Q 959 3003 697 2906 
L 697 3450 
Q 1169 3672 1522 3987 
Q 1875 4303 2022 4600 
L 2384 4600 
L 2384 0 
z
" transform="scale(0.015625)"/>
       </defs>
       <use xlink:href="#ArialMT-53"/>
       <use xlink:href="#ArialMT-74" x="66.699219"/>
       <use xlink:href="#ArialMT-61" x="94.482422"/>
       <use xlink:href="#ArialMT-74" x="150.097656"/>
       <use xlink:href="#ArialMT-65" x="177.880859"/>
       <use xlink:href="#ArialMT-20" x="233.496094"/>
       <use xlink:href="#ArialMT-31" x="261.279297"/>
      </g>
     </g>
    </g>
    <g id="xtick_2">
     <g id="line2d_2">
      <g>
       <use xlink:href="#me2d14ed85a" x="299.25" y="507.6" style="fill: #262626; stroke: #262626; stroke-width: 1.25"/>
      </g>
     </g>
     <g id="text_2">
      <!-- State 2 -->
      <g style="fill: #262626" transform="translate(281.821875 524.973594) scale(0.11 -0.11)">
       <defs>
        <path id="ArialMT-32" d="M 3222 541 
L 3222 0 
L 194 0 
Q 188 203 259 391 
Q 375 700 629 1000 
Q 884 1300 1366 1694 
Q 2113 2306 2375 2664 
Q 2638 3022 2638 3341 
Q 2638 3675 2398 3904 
Q 2159 4134 1775 4134 
Q 1369 4134 1125 3890 
Q 881 3647 878 3216 
L 300 3275 
Q 359 3922 746 4261 
Q 1134 4600 1788 4600 
Q 2447 4600 2831 4234 
Q 3216 3869 3216 3328 
Q 3216 3053 3103 2787 
Q 2991 2522 2730 2228 
Q 2469 1934 1863 1422 
Q 1356 997 1212 845 
Q 1069 694 975 541 
L 3222 541 
z
" transform="scale(0.015625)"/>
       </defs>
       <use xlink:href="#ArialMT-53"/>
       <use xlink:href="#ArialMT-74" x="66.699219"/>
       <use xlink:href="#ArialMT-61" x="94.482422"/>
       <use xlink:href="#ArialMT-74" x="150.097656"/>
       <use xlink:href="#ArialMT-65" x="177.880859"/>
       <use xlink:href="#ArialMT-20" x="233.496094"/>
       <use xlink:href="#ArialMT-32" x="261.279297"/>
      </g>
     </g>
    </g>
    <g id="xtick_3">
     <g id="line2d_3">
      <g>
       <use xlink:href="#me2d14ed85a" x="438.75" y="507.6" style="fill: #262626; stroke: #262626; stroke-width: 1.25"/>
      </g>
     </g>
     <g id="text_3">
      <!-- State 3 -->
      <g style="fill: #262626" transform="translate(421.321875 524.973594) scale(0.11 -0.11)">
       <defs>
        <path id="ArialMT-33" d="M 269 1209 
L 831 1284 
Q 928 806 1161 595 
Q 1394 384 1728 384 
Q 2125 384 2398 659 
Q 2672 934 2672 1341 
Q 2672 1728 2419 1979 
Q 2166 2231 1775 2231 
Q 1616 2231 1378 2169 
L 1441 2663 
Q 1497 2656 1531 2656 
Q 1891 2656 2178 2843 
Q 2466 3031 2466 3422 
Q 2466 3731 2256 3934 
Q 2047 4138 1716 4138 
Q 1388 4138 1169 3931 
Q 950 3725 888 3313 
L 325 3413 
Q 428 3978 793 4289 
Q 1159 4600 1703 4600 
Q 2078 4600 2393 4439 
Q 2709 4278 2876 4000 
Q 3044 3722 3044 3409 
Q 3044 3113 2884 2869 
Q 2725 2625 2413 2481 
Q 2819 2388 3044 2092 
Q 3269 1797 3269 1353 
Q 3269 753 2831 336 
Q 2394 -81 1725 -81 
Q 1122 -81 723 278 
Q 325 638 269 1209 
z
" transform="scale(0.015625)"/>
       </defs>
       <use xlink:href="#ArialMT-53"/>
       <use xlink:href="#ArialMT-74" x="66.699219"/>
       <use xlink:href="#ArialMT-61" x="94.482422"/>
       <use xlink:href="#ArialMT-74" x="150.097656"/>
       <use xlink:href="#ArialMT-65" x="177.880859"/>
       <use xlink:href="#ArialMT-20" x="233.496094"/>
       <use xlink:href="#ArialMT-33" x="261.279297"/>
      </g>
     </g>
    </g>
    <g id="xtick_4">
     <g id="line2d_4">
      <g>
       <use xlink:href="#me2d14ed85a" x="578.25" y="507.6" style="fill: #262626; stroke: #262626; stroke-width: 1.25"/>
      </g>
     </g>
     <g id="text_4">
      <!-- State 4 -->
      <g style="fill: #262626" transform="translate(560.821875 524.973594) scale(0.11 -0.11)">
       <defs>
        <path id="ArialMT-34" d="M 2069 0 
L 2069 1097 
L 81 1097 
L 81 1613 
L 2172 4581 
L 2631 4581 
L 2631 1613 
L 3250 1613 
L 3250 1097 
L 2631 1097 
L 2631 0 
L 2069 0 
z
M 2069 1613 
L 2069 3678 
L 634 1613 
L 2069 1613 
z
" transform="scale(0.015625)"/>
       </defs>
       <use xlink:href="#ArialMT-53"/>
       <use xlink:href="#ArialMT-74" x="66.699219"/>
       <use xlink:href="#ArialMT-61" x="94.482422"/>
       <use xlink:href="#ArialMT-74" x="150.097656"/>
       <use xlink:href="#ArialMT-65" x="177.880859"/>
       <use xlink:href="#ArialMT-20" x="233.496094"/>
       <use xlink:href="#ArialMT-34" x="261.279297"/>
      </g>
     </g>
    </g>
   </g>
   <g id="matplotlib.axis_2">
    <g id="ytick_1">
     <g id="line2d_5">
      <defs>
       <path id="mf2af5cc933" d="M 0 0 
L -6 0 
" style="stroke: #262626; stroke-width: 1.25"/>
      </defs>
      <g>
       <use xlink:href="#mf2af5cc933" x="90" y="469.8" style="fill: #262626; stroke: #262626; stroke-width: 1.25"/>
      </g>
     </g>
     <g id="text_5">
      <!-- −2 -->
      <g style="fill: #262626" transform="translate(67.958281 473.736797) scale(0.11 -0.11)">
       <defs>
        <path id="ArialMT-2212" d="M 3381 1997 
L 356 1997 
L 356 2522 
L 3381 2522 
L 3381 1997 
z
" transform="scale(0.015625)"/>
       </defs>
       <use xlink:href="#ArialMT-2212"/>
       <use xlink:href="#ArialMT-32" x="58.398438"/>
      </g>
     </g>
    </g>
    <g id="ytick_2">
     <g id="line2d_6">
      <g>
       <use xlink:href="#mf2af5cc933" x="90" y="394.2" style="fill: #262626; stroke: #262626; stroke-width: 1.25"/>
      </g>
     </g>
     <g id="text_6">
      <!-- −1 -->
      <g style="fill: #262626" transform="translate(67.958281 398.136797) scale(0.11 -0.11)">
       <use xlink:href="#ArialMT-2212"/>
       <use xlink:href="#ArialMT-31" x="58.398438"/>
      </g>
     </g>
    </g>
    <g id="ytick_3">
     <g id="line2d_7">
      <g>
       <use xlink:href="#mf2af5cc933" x="90" y="318.6" style="fill: #262626; stroke: #262626; stroke-width: 1.25"/>
      </g>
     </g>
     <g id="text_7">
      <!-- 0 -->
      <g style="fill: #262626" transform="translate(74.382969 322.536797) scale(0.11 -0.11)">
       <defs>
        <path id="ArialMT-30" d="M 266 2259 
Q 266 3072 433 3567 
Q 600 4063 929 4331 
Q 1259 4600 1759 4600 
Q 2128 4600 2406 4451 
Q 2684 4303 2865 4023 
Q 3047 3744 3150 3342 
Q 3253 2941 3253 2259 
Q 3253 1453 3087 958 
Q 2922 463 2592 192 
Q 2263 -78 1759 -78 
Q 1097 -78 719 397 
Q 266 969 266 2259 
z
M 844 2259 
Q 844 1131 1108 757 
Q 1372 384 1759 384 
Q 2147 384 2411 759 
Q 2675 1134 2675 2259 
Q 2675 3391 2411 3762 
Q 2147 4134 1753 4134 
Q 1366 4134 1134 3806 
Q 844 3388 844 2259 
z
" transform="scale(0.015625)"/>
       </defs>
       <use xlink:href="#ArialMT-30"/>
      </g>
     </g>
    </g>
    <g id="ytick_4">
     <g id="line2d_8">
      <g>
       <use xlink:href="#mf2af5cc933" x="90" y="243" style="fill: #262626; stroke: #262626; stroke-width: 1.25"/>
      </g>
     </g>
     <g id="text_8">
      <!-- 1 -->
      <g style="fill: #262626" transform="translate(74.382969 246.936797) scale(0.11 -0.11)">
       <use xlink:href="#ArialMT-31"/>
      </g>
     </g>
    </g>
    <g id="ytick_5">
     <g id="line2d_9">
      <g>
       <use xlink:href="#mf2af5cc933" x="90" y="167.4" style="fill: #262626; stroke: #262626; stroke-width: 1.25"/>
      </g>
     </g>
     <g id="text_9">
      <!-- 2 -->
      <g style="fill: #262626" transform="translate(74.382969 171.336797) scale(0.11 -0.11)">
       <use xlink:href="#ArialMT-32"/>
      </g>
     </g>
    </g>
    <g id="text_10">
     <!-- Value (z-scored) -->
     <g style="fill: #262626" transform="translate(61.432656 362.170313) rotate(-90) scale(0.12 -0.12)">
      <defs>
       <path id="ArialMT-56" d="M 1803 0 
L 28 4581 
L 684 4581 
L 1875 1253 
Q 2019 853 2116 503 
Q 2222 878 2363 1253 
L 3600 4581 
L 4219 4581 
L 2425 0 
L 1803 0 
z
" transform="scale(0.015625)"/>
       <path id="ArialMT-6c" d="M 409 0 
L 409 4581 
L 972 4581 
L 972 0 
L 409 0 
z
" transform="scale(0.015625)"/>
       <path id="ArialMT-75" d="M 2597 0 
L 2597 488 
Q 2209 -75 1544 -75 
Q 1250 -75 995 37 
Q 741 150 617 320 
Q 494 491 444 738 
Q 409 903 409 1263 
L 409 3319 
L 972 3319 
L 972 1478 
Q 972 1038 1006 884 
Q 1059 663 1231 536 
Q 1403 409 1656 409 
Q 1909 409 2131 539 
Q 2353 669 2445 892 
Q 2538 1116 2538 1541 
L 2538 3319 
L 3100 3319 
L 3100 0 
L 2597 0 
z
" transform="scale(0.015625)"/>
       <path id="ArialMT-28" d="M 1497 -1347 
Q 1031 -759 709 28 
Q 388 816 388 1659 
Q 388 2403 628 3084 
Q 909 3875 1497 4659 
L 1900 4659 
Q 1522 4009 1400 3731 
Q 1209 3300 1100 2831 
Q 966 2247 966 1656 
Q 966 153 1900 -1347 
L 1497 -1347 
z
" transform="scale(0.015625)"/>
       <path id="ArialMT-7a" d="M 125 0 
L 125 456 
L 2238 2881 
Q 1878 2863 1603 2863 
L 250 2863 
L 250 3319 
L 2963 3319 
L 2963 2947 
L 1166 841 
L 819 456 
Q 1197 484 1528 484 
L 3063 484 
L 3063 0 
L 125 0 
z
" transform="scale(0.015625)"/>
       <path id="ArialMT-2d" d="M 203 1375 
L 203 1941 
L 1931 1941 
L 1931 1375 
L 203 1375 
z
" transform="scale(0.015625)"/>
       <path id="ArialMT-73" d="M 197 991 
L 753 1078 
Q 800 744 1014 566 
Q 1228 388 1613 388 
Q 2000 388 2187 545 
Q 2375 703 2375 916 
Q 2375 1106 2209 1216 
Q 2094 1291 1634 1406 
Q 1016 1563 777 1677 
Q 538 1791 414 1992 
Q 291 2194 291 2438 
Q 291 2659 392 2848 
Q 494 3038 669 3163 
Q 800 3259 1026 3326 
Q 1253 3394 1513 3394 
Q 1903 3394 2198 3281 
Q 2494 3169 2634 2976 
Q 2775 2784 2828 2463 
L 2278 2388 
Q 2241 2644 2061 2787 
Q 1881 2931 1553 2931 
Q 1166 2931 1000 2803 
Q 834 2675 834 2503 
Q 834 2394 903 2306 
Q 972 2216 1119 2156 
Q 1203 2125 1616 2013 
Q 2213 1853 2448 1751 
Q 2684 1650 2818 1456 
Q 2953 1263 2953 975 
Q 2953 694 2789 445 
Q 2625 197 2315 61 
Q 2006 -75 1616 -75 
Q 969 -75 630 194 
Q 291 463 197 991 
z
" transform="scale(0.015625)"/>
       <path id="ArialMT-63" d="M 2588 1216 
L 3141 1144 
Q 3050 572 2676 248 
Q 2303 -75 1759 -75 
Q 1078 -75 664 370 
Q 250 816 250 1647 
Q 250 2184 428 2587 
Q 606 2991 970 3192 
Q 1334 3394 1763 3394 
Q 2303 3394 2647 3120 
Q 2991 2847 3088 2344 
L 2541 2259 
Q 2463 2594 2264 2762 
Q 2066 2931 1784 2931 
Q 1359 2931 1093 2626 
Q 828 2322 828 1663 
Q 828 994 1084 691 
Q 1341 388 1753 388 
Q 2084 388 2306 591 
Q 2528 794 2588 1216 
z
" transform="scale(0.015625)"/>
       <path id="ArialMT-6f" d="M 213 1659 
Q 213 2581 725 3025 
Q 1153 3394 1769 3394 
Q 2453 3394 2887 2945 
Q 3322 2497 3322 1706 
Q 3322 1066 3130 698 
Q 2938 331 2570 128 
Q 2203 -75 1769 -75 
Q 1072 -75 642 372 
Q 213 819 213 1659 
z
M 791 1659 
Q 791 1022 1069 705 
Q 1347 388 1769 388 
Q 2188 388 2466 706 
Q 2744 1025 2744 1678 
Q 2744 2294 2464 2611 
Q 2184 2928 1769 2928 
Q 1347 2928 1069 2612 
Q 791 2297 791 1659 
z
" transform="scale(0.015625)"/>
       <path id="ArialMT-72" d="M 416 0 
L 416 3319 
L 922 3319 
L 922 2816 
Q 1116 3169 1280 3281 
Q 1444 3394 1641 3394 
Q 1925 3394 2219 3213 
L 2025 2691 
Q 1819 2813 1613 2813 
Q 1428 2813 1281 2702 
Q 1134 2591 1072 2394 
Q 978 2094 978 1738 
L 978 0 
L 416 0 
z
" transform="scale(0.015625)"/>
       <path id="ArialMT-64" d="M 2575 0 
L 2575 419 
Q 2259 -75 1647 -75 
Q 1250 -75 917 144 
Q 584 363 401 755 
Q 219 1147 219 1656 
Q 219 2153 384 2558 
Q 550 2963 881 3178 
Q 1213 3394 1622 3394 
Q 1922 3394 2156 3267 
Q 2391 3141 2538 2938 
L 2538 4581 
L 3097 4581 
L 3097 0 
L 2575 0 
z
M 797 1656 
Q 797 1019 1065 703 
Q 1334 388 1700 388 
Q 2069 388 2326 689 
Q 2584 991 2584 1609 
Q 2584 2291 2321 2609 
Q 2059 2928 1675 2928 
Q 1300 2928 1048 2622 
Q 797 2316 797 1656 
z
" transform="scale(0.015625)"/>
       <path id="ArialMT-29" d="M 791 -1347 
L 388 -1347 
Q 1322 153 1322 1656 
Q 1322 2244 1188 2822 
Q 1081 3291 891 3722 
Q 769 4003 388 4659 
L 791 4659 
Q 1378 3875 1659 3084 
Q 1900 2403 1900 1659 
Q 1900 816 1576 28 
Q 1253 -759 791 -1347 
z
" transform="scale(0.015625)"/>
      </defs>
      <use xlink:href="#ArialMT-56"/>
      <use xlink:href="#ArialMT-61" x="59.324219"/>
      <use xlink:href="#ArialMT-6c" x="114.939453"/>
      <use xlink:href="#ArialMT-75" x="137.15625"/>
      <use xlink:href="#ArialMT-65" x="192.771484"/>
      <use xlink:href="#ArialMT-20" x="248.386719"/>
      <use xlink:href="#ArialMT-28" x="276.169922"/>
      <use xlink:href="#ArialMT-7a" x="309.470703"/>
      <use xlink:href="#ArialMT-2d" x="359.470703"/>
      <use xlink:href="#ArialMT-73" x="392.771484"/>
      <use xlink:href="#ArialMT-63" x="442.771484"/>
      <use xlink:href="#ArialMT-6f" x="492.771484"/>
      <use xlink:href="#ArialMT-72" x="548.386719"/>
      <use xlink:href="#ArialMT-65" x="581.6875"/>
      <use xlink:href="#ArialMT-64" x="637.302734"/>
      <use xlink:href="#ArialMT-29" x="692.917969"/>
     </g>
    </g>
   </g>
   <g id="PolyCollection_1">
    <defs>
     <path id="m47cd0c606b" d="M 161.610647 -727.268593 
L 159.860797 -727.268593 
L 159.860797 -728.842694 
L 159.860797 -730.416794 
L 159.860797 -731.990894 
L 159.860797 -733.564994 
L 159.860797 -735.139095 
L 159.860797 -736.713195 
L 159.860797 -738.287295 
L 159.860797 -739.861395 
L 159.860797 -741.435495 
L 159.860797 -743.009596 
L 159.860797 -744.583696 
L 159.860797 -746.157796 
L 159.860797 -747.731896 
L 159.860797 -749.305997 
L 159.860797 -750.880097 
L 159.860797 -752.454197 
L 159.860797 -754.028297 
L 159.860797 -755.602398 
L 159.860797 -757.176498 
L 159.860797 -758.750598 
L 159.860797 -760.324698 
L 159.860797 -761.898799 
L 159.860797 -763.472899 
L 159.860797 -765.046999 
L 159.860797 -766.621099 
L 159.860797 -768.1952 
L 159.860797 -769.7693 
L 159.860797 -771.3434 
L 159.860797 -772.9175 
L 159.860797 -774.491601 
L 159.860797 -776.065701 
L 159.860797 -777.639801 
L 159.860797 -779.213901 
L 159.860797 -780.788002 
L 159.860797 -782.362102 
L 159.860797 -783.936202 
L 159.860797 -785.510302 
L 159.860797 -787.084403 
L 165.003265 -787.084403 
L 165.003265 -787.084403 
L 165.876469 -785.510302 
L 166.570427 -783.936202 
L 167.086953 -782.362102 
L 167.524101 -780.788002 
L 168.077755 -779.213901 
L 169.00818 -777.639801 
L 170.573049 -776.065701 
L 172.942518 -774.491601 
L 176.123068 -772.9175 
L 179.919573 -771.3434 
L 183.957192 -769.7693 
L 187.766508 -768.1952 
L 190.91024 -766.621099 
L 193.106688 -765.046999 
L 194.297361 -763.472899 
L 194.625 -761.898799 
L 194.329924 -760.324698 
L 193.616026 -758.750598 
L 192.555553 -757.176498 
L 191.08039 -755.602398 
L 189.058491 -754.028297 
L 186.407222 -752.454197 
L 183.178744 -750.880097 
L 179.573989 -749.305997 
L 175.885324 -747.731896 
L 172.405367 -746.157796 
L 169.350099 -744.583696 
L 166.8269 -743.009596 
L 164.848465 -741.435495 
L 163.371301 -739.861395 
L 162.332843 -738.287295 
L 161.671244 -736.713195 
L 161.326441 -735.139095 
L 161.231228 -733.564994 
L 161.303821 -731.990894 
L 161.450005 -730.416794 
L 161.576517 -728.842694 
L 161.610647 -727.268593 
z
" style="stroke: #d55e00; stroke-opacity: 0.3"/>
    </defs>
    <g clip-path="url(#p75a4c1d361)">
     <use xlink:href="#m47cd0c606b" x="0" y="1080" style="fill: #d55e00; fill-opacity: 0.3; stroke: #d55e00; stroke-opacity: 0.3"/>
    </g>
   </g>
   <g id="PolyCollection_2">
    <defs>
     <path id="mcdc2b17d73" d="M 300.795679 -699.42133 
L 299.306653 -699.42133 
L 299.306653 -701.604374 
L 299.306653 -703.787418 
L 299.306653 -705.970462 
L 299.306653 -708.153506 
L 299.306653 -710.336549 
L 299.306653 -712.519593 
L 299.306653 -714.702637 
L 299.306653 -716.885681 
L 299.306653 -719.068725 
L 299.306653 -721.251769 
L 299.306653 -723.434813 
L 299.306653 -725.617856 
L 299.306653 -727.8009 
L 299.306653 -729.983944 
L 299.306653 -732.166988 
L 299.306653 -734.350032 
L 299.306653 -736.533076 
L 299.306653 -738.716119 
L 299.306653 -740.899163 
L 299.306653 -743.082207 
L 299.306653 -745.265251 
L 299.306653 -747.448295 
L 299.306653 -749.631339 
L 299.306653 -751.814383 
L 299.306653 -753.997426 
L 299.306653 -756.18047 
L 299.306653 -758.363514 
L 299.306653 -760.546558 
L 299.306653 -762.729602 
L 299.306653 -764.912646 
L 299.306653 -767.09569 
L 299.306653 -769.278733 
L 299.306653 -771.461777 
L 299.306653 -773.644821 
L 299.306653 -775.827865 
L 299.306653 -778.010909 
L 299.306653 -780.193953 
L 299.306653 -782.376997 
L 300.747529 -782.376997 
L 300.747529 -782.376997 
L 300.822551 -780.193953 
L 300.942873 -778.010909 
L 301.289752 -775.827865 
L 302.094229 -773.644821 
L 303.590659 -771.461777 
L 305.963075 -769.278733 
L 309.295138 -767.09569 
L 313.529127 -764.912646 
L 318.434068 -762.729602 
L 323.586172 -760.546558 
L 328.380871 -758.363514 
L 332.110353 -756.18047 
L 334.125 -753.997426 
L 334.041744 -751.814383 
L 331.903074 -749.631339 
L 328.186791 -747.448295 
L 323.641322 -745.265251 
L 319.026337 -743.082207 
L 314.892147 -740.899163 
L 311.493654 -738.716119 
L 308.841524 -736.533076 
L 306.819182 -734.350032 
L 305.285131 -732.166988 
L 304.12271 -729.983944 
L 303.246766 -727.8009 
L 302.59481 -725.617856 
L 302.119565 -723.434813 
L 301.783438 -721.251769 
L 301.551378 -719.068725 
L 301.385527 -716.885681 
L 301.249105 -714.702637 
L 301.119503 -712.519593 
L 300.99879 -710.336549 
L 300.908063 -708.153506 
L 300.865076 -705.970462 
L 300.860952 -703.787418 
L 300.855322 -701.604374 
L 300.795679 -699.42133 
z
" style="stroke: #0072b2; stroke-opacity: 0.3"/>
    </defs>
    <g clip-path="url(#p75a4c1d361)">
     <use xlink:href="#mcdc2b17d73" x="0" y="1080" style="fill: #0072b2; fill-opacity: 0.3; stroke: #0072b2; stroke-opacity: 0.3"/>
    </g>
   </g>
   <g id="PolyCollection_3">
    <defs>
     <path id="mcf1dfb33c2" d="M 440.57395 -658.769747 
L 438.892347 -658.769747 
L 438.892347 -662.737489 
L 438.892347 -666.70523 
L 438.892347 -670.672972 
L 438.892347 -674.640714 
L 438.892347 -678.608455 
L 438.892347 -682.576197 
L 438.892347 -686.543939 
L 438.892347 -690.511681 
L 438.892347 -694.479422 
L 438.892347 -698.447164 
L 438.892347 -702.414906 
L 438.892347 -706.382648 
L 438.892347 -710.350389 
L 438.892347 -714.318131 
L 438.892347 -718.285873 
L 438.892347 -722.253614 
L 438.892347 -726.221356 
L 438.892347 -730.189098 
L 438.892347 -734.15684 
L 438.892347 -738.124581 
L 438.892347 -742.092323 
L 438.892347 -746.060065 
L 438.892347 -750.027807 
L 438.892347 -753.995548 
L 438.892347 -757.96329 
L 438.892347 -761.931032 
L 438.892347 -765.898773 
L 438.892347 -769.866515 
L 438.892347 -773.834257 
L 438.892347 -777.801999 
L 438.892347 -781.76974 
L 438.892347 -785.737482 
L 438.892347 -789.705224 
L 438.892347 -793.672965 
L 438.892347 -797.640707 
L 438.892347 -801.608449 
L 438.892347 -805.576191 
L 438.892347 -809.543932 
L 446.632204 -809.543932 
L 446.632204 -809.543932 
L 449.119892 -805.576191 
L 452.019744 -801.608449 
L 455.29303 -797.640707 
L 458.843996 -793.672965 
L 462.503726 -789.705224 
L 466.030928 -785.737482 
L 469.139407 -781.76974 
L 471.552453 -777.801999 
L 473.070308 -773.834257 
L 473.625 -769.866515 
L 473.295872 -765.898773 
L 472.273776 -761.931032 
L 470.787156 -757.96329 
L 469.024572 -753.995548 
L 467.090763 -750.027807 
L 465.013888 -746.060065 
L 462.792073 -742.092323 
L 460.446681 -738.124581 
L 458.04998 -734.15684 
L 455.713531 -730.189098 
L 453.547576 -726.221356 
L 451.616984 -722.253614 
L 449.918972 -718.285873 
L 448.394107 -714.318131 
L 446.963504 -710.350389 
L 445.571829 -706.382648 
L 444.214435 -702.414906 
L 442.937533 -698.447164 
L 441.815491 -694.479422 
L 440.919795 -690.511681 
L 440.294594 -686.543939 
L 439.946063 -682.576197 
L 439.843945 -678.608455 
L 439.929435 -674.640714 
L 440.125123 -670.672972 
L 440.34636 -666.70523 
L 440.514941 -662.737489 
L 440.57395 -658.769747 
z
" style="stroke: #009e73; stroke-opacity: 0.3"/>
    </defs>
    <g clip-path="url(#p75a4c1d361)">
     <use xlink:href="#mcf1dfb33c2" x="0" y="1080" style="fill: #009e73; fill-opacity: 0.3; stroke: #009e73; stroke-opacity: 0.3"/>
    </g>
   </g>
   <g id="PolyCollection_4">
    <defs>
     <path id="mfb67d164ab" d="M 589.189334 -749.958373 
L 578.600687 -749.958373 
L 578.600687 -751.133754 
L 578.600687 -752.309136 
L 578.600687 -753.484518 
L 578.600687 -754.659899 
L 578.600687 -755.835281 
L 578.600687 -757.010662 
L 578.600687 -758.186044 
L 578.600687 -759.361425 
L 578.600687 -760.536807 
L 578.600687 -761.712189 
L 578.600687 -762.88757 
L 578.600687 -764.062952 
L 578.600687 -765.238333 
L 578.600687 -766.413715 
L 578.600687 -767.589096 
L 578.600687 -768.764478 
L 578.600687 -769.93986 
L 578.600687 -771.115241 
L 578.600687 -772.290623 
L 578.600687 -773.466004 
L 578.600687 -774.641386 
L 578.600687 -775.816768 
L 578.600687 -776.992149 
L 578.600687 -778.167531 
L 578.600687 -779.342912 
L 578.600687 -780.518294 
L 578.600687 -781.693675 
L 578.600687 -782.869057 
L 578.600687 -784.044439 
L 578.600687 -785.21982 
L 578.600687 -786.395202 
L 578.600687 -787.570583 
L 578.600687 -788.745965 
L 578.600687 -789.921346 
L 578.600687 -791.096728 
L 578.600687 -792.27211 
L 578.600687 -793.447491 
L 578.600687 -794.622873 
L 584.777008 -794.622873 
L 584.777008 -794.622873 
L 586.202995 -793.447491 
L 587.878256 -792.27211 
L 589.838074 -791.096728 
L 592.093896 -789.921346 
L 594.61779 -788.745965 
L 597.334155 -787.570583 
L 600.12355 -786.395202 
L 602.839736 -785.21982 
L 605.33603 -784.044439 
L 607.49301 -782.869057 
L 609.238492 -781.693675 
L 610.553481 -780.518294 
L 611.463396 -779.342912 
L 612.019864 -778.167531 
L 612.281787 -776.992149 
L 612.303714 -775.816768 
L 612.135046 -774.641386 
L 611.827789 -773.466004 
L 611.446194 -772.290623 
L 611.070824 -771.115241 
L 610.792311 -769.93986 
L 610.694818 -768.764478 
L 610.833655 -767.589096 
L 611.214001 -766.413715 
L 611.777632 -765.238333 
L 612.402473 -764.062952 
L 612.916622 -762.88757 
L 613.125 -761.712189 
L 612.84373 -760.536807 
L 611.935079 -759.361425 
L 610.335135 -758.186044 
L 608.067555 -757.010662 
L 605.23997 -755.835281 
L 602.024021 -754.659899 
L 598.624342 -753.484518 
L 595.244472 -752.309136 
L 592.057811 -751.133754 
L 589.189334 -749.958373 
z
" style="stroke: #cc79a7; stroke-opacity: 0.3"/>
    </defs>
    <g clip-path="url(#p75a4c1d361)">
     <use xlink:href="#mfb67d164ab" x="0" y="1080" style="fill: #cc79a7; fill-opacity: 0.3; stroke: #cc79a7; stroke-opacity: 0.3"/>
    </g>
   </g>
   <g id="PathCollection_1">
    <defs>
     <path id="m4c5f1116a6" d="M 0 0.866025 
C 0.229673 0.866025 0.449969 0.774776 0.612372 0.612372 
C 0.774776 0.449969 0.866025 0.229673 0.866025 0 
C 0.866025 -0.229673 0.774776 -0.449969 0.612372 -0.612372 
C 0.449969 -0.774776 0.229673 -0.866025 0 -0.866025 
C -0.229673 -0.866025 -0.449969 -0.774776 -0.612372 -0.612372 
C -0.774776 -0.449969 -0.866025 -0.229673 -0.866025 0 
C -0.866025 0.229673 -0.774776 0.449969 -0.612372 0.612372 
C -0.449969 0.774776 -0.229673 0.866025 0 0.866025 
z
" style="stroke: #d55e00"/>
    </defs>
    <g clip-path="url(#p75a4c1d361)">
     <use xlink:href="#m4c5f1116a6" x="138.621048" y="327.479078" style="fill: #d55e00; stroke: #d55e00"/>
     <use xlink:href="#m4c5f1116a6" x="125.076845" y="314.503145" style="fill: #d55e00; stroke: #d55e00"/>
     <use xlink:href="#m4c5f1116a6" x="129.909236" y="337.086366" style="fill: #d55e00; stroke: #d55e00"/>
     <use xlink:href="#m4c5f1116a6" x="136.947262" y="327.110886" style="fill: #d55e00; stroke: #d55e00"/>
     <use xlink:href="#m4c5f1116a6" x="136.444403" y="320.4862" style="fill: #d55e00; stroke: #d55e00"/>
     <use xlink:href="#m4c5f1116a6" x="130.576267" y="314.289074" style="fill: #d55e00; stroke: #d55e00"/>
     <use xlink:href="#m4c5f1116a6" x="132.705203" y="325.682779" style="fill: #d55e00; stroke: #d55e00"/>
     <use xlink:href="#m4c5f1116a6" x="136.45404" y="319.534805" style="fill: #d55e00; stroke: #d55e00"/>
     <use xlink:href="#m4c5f1116a6" x="130.325059" y="309.396102" style="fill: #d55e00; stroke: #d55e00"/>
     <use xlink:href="#m4c5f1116a6" x="129.002757" y="323.910917" style="fill: #d55e00; stroke: #d55e00"/>
     <use xlink:href="#m4c5f1116a6" x="135.406829" y="324.832883" style="fill: #d55e00; stroke: #d55e00"/>
     <use xlink:href="#m4c5f1116a6" x="130.927715" y="322.679419" style="fill: #d55e00; stroke: #d55e00"/>
     <use xlink:href="#m4c5f1116a6" x="133.729793" y="314.254219" style="fill: #d55e00; stroke: #d55e00"/>
     <use xlink:href="#m4c5f1116a6" x="131.214434" y="321.373368" style="fill: #d55e00; stroke: #d55e00"/>
     <use xlink:href="#m4c5f1116a6" x="137.319918" y="295.925305" style="fill: #d55e00; stroke: #d55e00"/>
     <use xlink:href="#m4c5f1116a6" x="128.735392" y="317.71239" style="fill: #d55e00; stroke: #d55e00"/>
     <use xlink:href="#m4c5f1116a6" x="133.726051" y="314.34063" style="fill: #d55e00; stroke: #d55e00"/>
     <use xlink:href="#m4c5f1116a6" x="129.713123" y="314.884548" style="fill: #d55e00; stroke: #d55e00"/>
     <use xlink:href="#m4c5f1116a6" x="128.518918" y="310.330067" style="fill: #d55e00; stroke: #d55e00"/>
     <use xlink:href="#m4c5f1116a6" x="134.77175" y="330.408014" style="fill: #d55e00; stroke: #d55e00"/>
     <use xlink:href="#m4c5f1116a6" x="136.356907" y="299.298982" style="fill: #d55e00; stroke: #d55e00"/>
     <use xlink:href="#m4c5f1116a6" x="131.703702" y="314.541245" style="fill: #d55e00; stroke: #d55e00"/>
     <use xlink:href="#m4c5f1116a6" x="129.737961" y="326.648804" style="fill: #d55e00; stroke: #d55e00"/>
     <use xlink:href="#m4c5f1116a6" x="137.2704" y="310.891795" style="fill: #d55e00; stroke: #d55e00"/>
     <use xlink:href="#m4c5f1116a6" x="125.106916" y="292.915597" style="fill: #d55e00; stroke: #d55e00"/>
     <use xlink:href="#m4c5f1116a6" x="133.802266" y="324.913952" style="fill: #d55e00; stroke: #d55e00"/>
     <use xlink:href="#m4c5f1116a6" x="130.374298" y="313.01539" style="fill: #d55e00; stroke: #d55e00"/>
     <use xlink:href="#m4c5f1116a6" x="130.293443" y="328.340619" style="fill: #d55e00; stroke: #d55e00"/>
     <use xlink:href="#m4c5f1116a6" x="132.467587" y="325.858222" style="fill: #d55e00; stroke: #d55e00"/>
     <use xlink:href="#m4c5f1116a6" x="137.814508" y="314.520504" style="fill: #d55e00; stroke: #d55e00"/>
     <use xlink:href="#m4c5f1116a6" x="130.348306" y="307.706946" style="fill: #d55e00; stroke: #d55e00"/>
     <use xlink:href="#m4c5f1116a6" x="129.252263" y="332.540035" style="fill: #d55e00; stroke: #d55e00"/>
     <use xlink:href="#m4c5f1116a6" x="136.309959" y="316.389642" style="fill: #d55e00; stroke: #d55e00"/>
     <use xlink:href="#m4c5f1116a6" x="131.980165" y="314.838461" style="fill: #d55e00; stroke: #d55e00"/>
     <use xlink:href="#m4c5f1116a6" x="125.567495" y="317.339116" style="fill: #d55e00; stroke: #d55e00"/>
     <use xlink:href="#m4c5f1116a6" x="126.407266" y="320.372354" style="fill: #d55e00; stroke: #d55e00"/>
     <use xlink:href="#m4c5f1116a6" x="126.112331" y="299.701064" style="fill: #d55e00; stroke: #d55e00"/>
     <use xlink:href="#m4c5f1116a6" x="125.018772" y="327.924389" style="fill: #d55e00; stroke: #d55e00"/>
     <use xlink:href="#m4c5f1116a6" x="137.665378" y="352.731407" style="fill: #d55e00; stroke: #d55e00"/>
    </g>
   </g>
   <g id="PathCollection_2">
    <defs>
     <path id="m0cf03df517" d="M 0 0.866025 
C 0.229673 0.866025 0.449969 0.774776 0.612372 0.612372 
C 0.774776 0.449969 0.866025 0.229673 0.866025 0 
C 0.866025 -0.229673 0.774776 -0.449969 0.612372 -0.612372 
C 0.449969 -0.774776 0.229673 -0.866025 0 -0.866025 
C -0.229673 -0.866025 -0.449969 -0.774776 -0.612372 -0.612372 
C -0.774776 -0.449969 -0.866025 -0.229673 -0.866025 0 
C -0.866025 0.229673 -0.774776 0.449969 -0.612372 0.612372 
C -0.449969 0.774776 -0.229673 0.866025 0 0.866025 
z
" style="stroke: #0072b2"/>
    </defs>
    <g clip-path="url(#p75a4c1d361)">
     <use xlink:href="#m0cf03df517" x="266.491064" y="337.799817" style="fill: #0072b2; stroke: #0072b2"/>
     <use xlink:href="#m0cf03df517" x="270.483932" y="324.21637" style="fill: #0072b2; stroke: #0072b2"/>
     <use xlink:href="#m0cf03df517" x="276.224366" y="328.081243" style="fill: #0072b2; stroke: #0072b2"/>
     <use xlink:href="#m0cf03df517" x="275.150336" y="297.623003" style="fill: #0072b2; stroke: #0072b2"/>
     <use xlink:href="#m0cf03df517" x="269.986585" y="323.644657" style="fill: #0072b2; stroke: #0072b2"/>
     <use xlink:href="#m0cf03df517" x="272.603815" y="319.395169" style="fill: #0072b2; stroke: #0072b2"/>
     <use xlink:href="#m0cf03df517" x="273.77726" y="329.092306" style="fill: #0072b2; stroke: #0072b2"/>
     <use xlink:href="#m0cf03df517" x="276.72073" y="330.543396" style="fill: #0072b2; stroke: #0072b2"/>
     <use xlink:href="#m0cf03df517" x="277.725057" y="322.962941" style="fill: #0072b2; stroke: #0072b2"/>
     <use xlink:href="#m0cf03df517" x="270.073727" y="333.564434" style="fill: #0072b2; stroke: #0072b2"/>
     <use xlink:href="#m0cf03df517" x="271.653088" y="326.167158" style="fill: #0072b2; stroke: #0072b2"/>
     <use xlink:href="#m0cf03df517" x="265.724613" y="321.713225" style="fill: #0072b2; stroke: #0072b2"/>
     <use xlink:href="#m0cf03df517" x="267.832995" y="327.909523" style="fill: #0072b2; stroke: #0072b2"/>
     <use xlink:href="#m0cf03df517" x="271.219688" y="342.504552" style="fill: #0072b2; stroke: #0072b2"/>
     <use xlink:href="#m0cf03df517" x="272.664718" y="355.101832" style="fill: #0072b2; stroke: #0072b2"/>
     <use xlink:href="#m0cf03df517" x="266.084084" y="318.33647" style="fill: #0072b2; stroke: #0072b2"/>
     <use xlink:href="#m0cf03df517" x="268.08393" y="331.63276" style="fill: #0072b2; stroke: #0072b2"/>
     <use xlink:href="#m0cf03df517" x="276.296731" y="326.202725" style="fill: #0072b2; stroke: #0072b2"/>
     <use xlink:href="#m0cf03df517" x="266.132052" y="328.763467" style="fill: #0072b2; stroke: #0072b2"/>
     <use xlink:href="#m0cf03df517" x="270.314443" y="327.462117" style="fill: #0072b2; stroke: #0072b2"/>
     <use xlink:href="#m0cf03df517" x="270.800143" y="366.216523" style="fill: #0072b2; stroke: #0072b2"/>
     <use xlink:href="#m0cf03df517" x="264.941117" y="327.321126" style="fill: #0072b2; stroke: #0072b2"/>
     <use xlink:href="#m0cf03df517" x="269.937063" y="327.240702" style="fill: #0072b2; stroke: #0072b2"/>
     <use xlink:href="#m0cf03df517" x="266.296994" y="328.929943" style="fill: #0072b2; stroke: #0072b2"/>
     <use xlink:href="#m0cf03df517" x="264.678568" y="380.57867" style="fill: #0072b2; stroke: #0072b2"/>
     <use xlink:href="#m0cf03df517" x="265.902489" y="318.138828" style="fill: #0072b2; stroke: #0072b2"/>
     <use xlink:href="#m0cf03df517" x="276.769515" y="325.134444" style="fill: #0072b2; stroke: #0072b2"/>
     <use xlink:href="#m0cf03df517" x="271.301109" y="316.520743" style="fill: #0072b2; stroke: #0072b2"/>
     <use xlink:href="#m0cf03df517" x="274.972033" y="316.428344" style="fill: #0072b2; stroke: #0072b2"/>
     <use xlink:href="#m0cf03df517" x="270.17585" y="331.96352" style="fill: #0072b2; stroke: #0072b2"/>
     <use xlink:href="#m0cf03df517" x="276.20219" y="339.107754" style="fill: #0072b2; stroke: #0072b2"/>
     <use xlink:href="#m0cf03df517" x="277.289577" y="327.077755" style="fill: #0072b2; stroke: #0072b2"/>
     <use xlink:href="#m0cf03df517" x="265.684139" y="324.246395" style="fill: #0072b2; stroke: #0072b2"/>
     <use xlink:href="#m0cf03df517" x="275.385192" y="341.875926" style="fill: #0072b2; stroke: #0072b2"/>
     <use xlink:href="#m0cf03df517" x="267.248482" y="330.91506" style="fill: #0072b2; stroke: #0072b2"/>
     <use xlink:href="#m0cf03df517" x="271.882078" y="322.918102" style="fill: #0072b2; stroke: #0072b2"/>
     <use xlink:href="#m0cf03df517" x="271.929631" y="347.948002" style="fill: #0072b2; stroke: #0072b2"/>
     <use xlink:href="#m0cf03df517" x="272.707714" y="328.495794" style="fill: #0072b2; stroke: #0072b2"/>
     <use xlink:href="#m0cf03df517" x="274.392971" y="333.12665" style="fill: #0072b2; stroke: #0072b2"/>
    </g>
   </g>
   <g id="PathCollection_3">
    <defs>
     <path id="m7640ac55f5" d="M 0 0.866025 
C 0.229673 0.866025 0.449969 0.774776 0.612372 0.612372 
C 0.774776 0.449969 0.866025 0.229673 0.866025 0 
C 0.866025 -0.229673 0.774776 -0.449969 0.612372 -0.612372 
C 0.449969 -0.774776 0.229673 -0.866025 0 -0.866025 
C -0.229673 -0.866025 -0.449969 -0.774776 -0.612372 -0.612372 
C -0.774776 -0.449969 -0.866025 -0.229673 -0.866025 0 
C -0.866025 0.229673 -0.774776 0.449969 -0.612372 0.612372 
C -0.449969 0.774776 -0.229673 0.866025 0 0.866025 
z
" style="stroke: #009e73"/>
    </defs>
    <g clip-path="url(#p75a4c1d361)">
     <use xlink:href="#m7640ac55f5" x="411.265862" y="300.529195" style="fill: #009e73; stroke: #009e73"/>
     <use xlink:href="#m7640ac55f5" x="417.581571" y="337.605542" style="fill: #009e73; stroke: #009e73"/>
     <use xlink:href="#m7640ac55f5" x="409.960068" y="331.040413" style="fill: #009e73; stroke: #009e73"/>
     <use xlink:href="#m7640ac55f5" x="409.53803" y="309.651833" style="fill: #009e73; stroke: #009e73"/>
     <use xlink:href="#m7640ac55f5" x="410.744579" y="294.082028" style="fill: #009e73; stroke: #009e73"/>
     <use xlink:href="#m7640ac55f5" x="416.939957" y="306.194054" style="fill: #009e73; stroke: #009e73"/>
     <use xlink:href="#m7640ac55f5" x="407.810349" y="314.942949" style="fill: #009e73; stroke: #009e73"/>
     <use xlink:href="#m7640ac55f5" x="411.12511" y="368.838733" style="fill: #009e73; stroke: #009e73"/>
     <use xlink:href="#m7640ac55f5" x="415.259801" y="281.153618" style="fill: #009e73; stroke: #009e73"/>
     <use xlink:href="#m7640ac55f5" x="411.132334" y="325.431407" style="fill: #009e73; stroke: #009e73"/>
     <use xlink:href="#m7640ac55f5" x="414.286035" y="270.456068" style="fill: #009e73; stroke: #009e73"/>
     <use xlink:href="#m7640ac55f5" x="407.688257" y="288.404968" style="fill: #009e73; stroke: #009e73"/>
     <use xlink:href="#m7640ac55f5" x="406.272898" y="314.124653" style="fill: #009e73; stroke: #009e73"/>
     <use xlink:href="#m7640ac55f5" x="404.301277" y="294.272168" style="fill: #009e73; stroke: #009e73"/>
     <use xlink:href="#m7640ac55f5" x="408.976725" y="310.812888" style="fill: #009e73; stroke: #009e73"/>
     <use xlink:href="#m7640ac55f5" x="415.208597" y="309.489637" style="fill: #009e73; stroke: #009e73"/>
     <use xlink:href="#m7640ac55f5" x="404.002764" y="327.530587" style="fill: #009e73; stroke: #009e73"/>
     <use xlink:href="#m7640ac55f5" x="414.0498" y="314.003467" style="fill: #009e73; stroke: #009e73"/>
     <use xlink:href="#m7640ac55f5" x="411.349101" y="353.191137" style="fill: #009e73; stroke: #009e73"/>
     <use xlink:href="#m7640ac55f5" x="414.523418" y="336.039587" style="fill: #009e73; stroke: #009e73"/>
     <use xlink:href="#m7640ac55f5" x="417.032633" y="421.230253" style="fill: #009e73; stroke: #009e73"/>
     <use xlink:href="#m7640ac55f5" x="408.910255" y="350.380637" style="fill: #009e73; stroke: #009e73"/>
     <use xlink:href="#m7640ac55f5" x="408.375271" y="304.635885" style="fill: #009e73; stroke: #009e73"/>
     <use xlink:href="#m7640ac55f5" x="410.252809" y="298.834954" style="fill: #009e73; stroke: #009e73"/>
     <use xlink:href="#m7640ac55f5" x="411.423894" y="365.507965" style="fill: #009e73; stroke: #009e73"/>
     <use xlink:href="#m7640ac55f5" x="417.470432" y="337.2747" style="fill: #009e73; stroke: #009e73"/>
     <use xlink:href="#m7640ac55f5" x="416.720493" y="296.414674" style="fill: #009e73; stroke: #009e73"/>
     <use xlink:href="#m7640ac55f5" x="406.74167" y="306.971291" style="fill: #009e73; stroke: #009e73"/>
     <use xlink:href="#m7640ac55f5" x="411.558839" y="306.860411" style="fill: #009e73; stroke: #009e73"/>
     <use xlink:href="#m7640ac55f5" x="411.599115" y="281.384202" style="fill: #009e73; stroke: #009e73"/>
     <use xlink:href="#m7640ac55f5" x="405.343402" y="342.798682" style="fill: #009e73; stroke: #009e73"/>
     <use xlink:href="#m7640ac55f5" x="414.82257" y="334.734989" style="fill: #009e73; stroke: #009e73"/>
     <use xlink:href="#m7640ac55f5" x="414.683165" y="295.416188" style="fill: #009e73; stroke: #009e73"/>
     <use xlink:href="#m7640ac55f5" x="409.520915" y="327.4177" style="fill: #009e73; stroke: #009e73"/>
     <use xlink:href="#m7640ac55f5" x="416.348481" y="310.571436" style="fill: #009e73; stroke: #009e73"/>
     <use xlink:href="#m7640ac55f5" x="412.032092" y="316.278773" style="fill: #009e73; stroke: #009e73"/>
     <use xlink:href="#m7640ac55f5" x="415.416464" y="371.874482" style="fill: #009e73; stroke: #009e73"/>
     <use xlink:href="#m7640ac55f5" x="407.455239" y="326.472172" style="fill: #009e73; stroke: #009e73"/>
     <use xlink:href="#m7640ac55f5" x="407.794294" y="343.650043" style="fill: #009e73; stroke: #009e73"/>
    </g>
   </g>
   <g id="PathCollection_4">
    <defs>
     <path id="m3e90664df9" d="M 0 0.866025 
C 0.229673 0.866025 0.449969 0.774776 0.612372 0.612372 
C 0.774776 0.449969 0.866025 0.229673 0.866025 0 
C 0.866025 -0.229673 0.774776 -0.449969 0.612372 -0.612372 
C 0.449969 -0.774776 0.229673 -0.866025 0 -0.866025 
C -0.229673 -0.866025 -0.449969 -0.774776 -0.612372 -0.612372 
C -0.774776 -0.449969 -0.866025 -0.229673 -0.866025 0 
C -0.866025 0.229673 -0.774776 0.449969 -0.612372 0.612372 
C -0.449969 0.774776 -0.229673 0.866025 0 0.866025 
z
" style="stroke: #cc79a7"/>
    </defs>
    <g clip-path="url(#p75a4c1d361)">
     <use xlink:href="#m3e90664df9" x="553.108277" y="306.20415" style="fill: #cc79a7; stroke: #cc79a7"/>
     <use xlink:href="#m3e90664df9" x="552.278818" y="313.863904" style="fill: #cc79a7; stroke: #cc79a7"/>
     <use xlink:href="#m3e90664df9" x="554.445619" y="297.368421" style="fill: #cc79a7; stroke: #cc79a7"/>
     <use xlink:href="#m3e90664df9" x="550.017664" y="330.041627" style="fill: #cc79a7; stroke: #cc79a7"/>
     <use xlink:href="#m3e90664df9" x="546.285888" y="317.289015" style="fill: #cc79a7; stroke: #cc79a7"/>
     <use xlink:href="#m3e90664df9" x="546.191771" y="324.929047" style="fill: #cc79a7; stroke: #cc79a7"/>
     <use xlink:href="#m3e90664df9" x="545.35672" y="305.101694" style="fill: #cc79a7; stroke: #cc79a7"/>
     <use xlink:href="#m3e90664df9" x="553.168455" y="307.227602" style="fill: #cc79a7; stroke: #cc79a7"/>
     <use xlink:href="#m3e90664df9" x="547.543377" y="324.500386" style="fill: #cc79a7; stroke: #cc79a7"/>
     <use xlink:href="#m3e90664df9" x="547.409392" y="297.476657" style="fill: #cc79a7; stroke: #cc79a7"/>
     <use xlink:href="#m3e90664df9" x="552.80796" y="322.156509" style="fill: #cc79a7; stroke: #cc79a7"/>
     <use xlink:href="#m3e90664df9" x="550.487116" y="320.936102" style="fill: #cc79a7; stroke: #cc79a7"/>
     <use xlink:href="#m3e90664df9" x="550.587375" y="307.671173" style="fill: #cc79a7; stroke: #cc79a7"/>
     <use xlink:href="#m3e90664df9" x="548.588482" y="298.168703" style="fill: #cc79a7; stroke: #cc79a7"/>
     <use xlink:href="#m3e90664df9" x="547.285277" y="297.351852" style="fill: #cc79a7; stroke: #cc79a7"/>
     <use xlink:href="#m3e90664df9" x="548.78078" y="321.900594" style="fill: #cc79a7; stroke: #cc79a7"/>
     <use xlink:href="#m3e90664df9" x="549.871981" y="306.499572" style="fill: #cc79a7; stroke: #cc79a7"/>
     <use xlink:href="#m3e90664df9" x="547.625515" y="311.279985" style="fill: #cc79a7; stroke: #cc79a7"/>
     <use xlink:href="#m3e90664df9" x="557.052675" y="301.330643" style="fill: #cc79a7; stroke: #cc79a7"/>
     <use xlink:href="#m3e90664df9" x="556.054995" y="304.510912" style="fill: #cc79a7; stroke: #cc79a7"/>
     <use xlink:href="#m3e90664df9" x="543.638662" y="285.377127" style="fill: #cc79a7; stroke: #cc79a7"/>
     <use xlink:href="#m3e90664df9" x="545.268645" y="295.983572" style="fill: #cc79a7; stroke: #cc79a7"/>
     <use xlink:href="#m3e90664df9" x="556.932102" y="311.107753" style="fill: #cc79a7; stroke: #cc79a7"/>
     <use xlink:href="#m3e90664df9" x="543.708336" y="321.240155" style="fill: #cc79a7; stroke: #cc79a7"/>
     <use xlink:href="#m3e90664df9" x="544.641067" y="289.317022" style="fill: #cc79a7; stroke: #cc79a7"/>
     <use xlink:href="#m3e90664df9" x="552.997128" y="312.498768" style="fill: #cc79a7; stroke: #cc79a7"/>
     <use xlink:href="#m3e90664df9" x="547.926017" y="317.624308" style="fill: #cc79a7; stroke: #cc79a7"/>
     <use xlink:href="#m3e90664df9" x="556.761121" y="318.981748" style="fill: #cc79a7; stroke: #cc79a7"/>
     <use xlink:href="#m3e90664df9" x="554.857875" y="322.039635" style="fill: #cc79a7; stroke: #cc79a7"/>
     <use xlink:href="#m3e90664df9" x="552.022826" y="318.883022" style="fill: #cc79a7; stroke: #cc79a7"/>
     <use xlink:href="#m3e90664df9" x="549.943113" y="317.404488" style="fill: #cc79a7; stroke: #cc79a7"/>
     <use xlink:href="#m3e90664df9" x="554.380033" y="299.479712" style="fill: #cc79a7; stroke: #cc79a7"/>
     <use xlink:href="#m3e90664df9" x="553.707805" y="322.189527" style="fill: #cc79a7; stroke: #cc79a7"/>
     <use xlink:href="#m3e90664df9" x="552.283828" y="305.351896" style="fill: #cc79a7; stroke: #cc79a7"/>
     <use xlink:href="#m3e90664df9" x="551.957858" y="304.994273" style="fill: #cc79a7; stroke: #cc79a7"/>
     <use xlink:href="#m3e90664df9" x="556.120921" y="314.518815" style="fill: #cc79a7; stroke: #cc79a7"/>
     <use xlink:href="#m3e90664df9" x="544.345924" y="294.663261" style="fill: #cc79a7; stroke: #cc79a7"/>
     <use xlink:href="#m3e90664df9" x="550.901169" y="299.042619" style="fill: #cc79a7; stroke: #cc79a7"/>
     <use xlink:href="#m3e90664df9" x="549.268193" y="295.493042" style="fill: #cc79a7; stroke: #cc79a7"/>
    </g>
   </g>
   <g id="patch_3">
    <path d="M 149.2875 325.770501 
L 170.2125 325.770501 
L 170.2125 314.271646 
L 149.2875 314.271646 
L 149.2875 325.770501 
z
" clip-path="url(#p75a4c1d361)" style="fill: #d55e00; opacity: 0.5; stroke: #000000; stroke-linejoin: miter"/>
   </g>
   <g id="line2d_10">
    <path d="M 159.75 325.770501 
L 159.75 337.086366 
" clip-path="url(#p75a4c1d361)" style="fill: none; stroke: #000000; stroke-linecap: round"/>
   </g>
   <g id="line2d_11">
    <path d="M 159.75 314.271646 
L 159.75 299.298982 
" clip-path="url(#p75a4c1d361)" style="fill: none; stroke: #000000; stroke-linecap: round"/>
   </g>
   <g id="line2d_12">
    <path d="M 154.51875 337.086366 
L 164.98125 337.086366 
" clip-path="url(#p75a4c1d361)" style="fill: none; stroke: #000000; stroke-linecap: round"/>
   </g>
   <g id="line2d_13">
    <path d="M 154.51875 299.298982 
L 164.98125 299.298982 
" clip-path="url(#p75a4c1d361)" style="fill: none; stroke: #000000; stroke-linecap: round"/>
   </g>
   <g id="patch_4">
    <path d="M 288.7875 332.545085 
L 309.7125 332.545085 
L 309.7125 323.930514 
L 288.7875 323.930514 
L 288.7875 332.545085 
z
" clip-path="url(#p75a4c1d361)" style="fill: #0072b2; opacity: 0.5; stroke: #000000; stroke-linejoin: miter"/>
   </g>
   <g id="line2d_14">
    <path d="M 299.25 332.545085 
L 299.25 342.504552 
" clip-path="url(#p75a4c1d361)" style="fill: none; stroke: #000000; stroke-linecap: round"/>
   </g>
   <g id="line2d_15">
    <path d="M 299.25 323.930514 
L 299.25 316.428344 
" clip-path="url(#p75a4c1d361)" style="fill: none; stroke: #000000; stroke-linecap: round"/>
   </g>
   <g id="line2d_16">
    <path d="M 294.01875 342.504552 
L 304.48125 342.504552 
" clip-path="url(#p75a4c1d361)" style="fill: none; stroke: #000000; stroke-linecap: round"/>
   </g>
   <g id="line2d_17">
    <path d="M 294.01875 316.428344 
L 304.48125 316.428344 
" clip-path="url(#p75a4c1d361)" style="fill: none; stroke: #000000; stroke-linecap: round"/>
   </g>
   <g id="patch_5">
    <path d="M 428.2875 336.657144 
L 449.2125 336.657144 
L 449.2125 302.58254 
L 428.2875 302.58254 
L 428.2875 336.657144 
z
" clip-path="url(#p75a4c1d361)" style="fill: #009e73; opacity: 0.5; stroke: #000000; stroke-linejoin: miter"/>
   </g>
   <g id="line2d_18">
    <path d="M 438.75 336.657144 
L 438.75 371.874482 
" clip-path="url(#p75a4c1d361)" style="fill: none; stroke: #000000; stroke-linecap: round"/>
   </g>
   <g id="line2d_19">
    <path d="M 438.75 302.58254 
L 438.75 270.456068 
" clip-path="url(#p75a4c1d361)" style="fill: none; stroke: #000000; stroke-linecap: round"/>
   </g>
   <g id="line2d_20">
    <path d="M 433.51875 371.874482 
L 443.98125 371.874482 
" clip-path="url(#p75a4c1d361)" style="fill: none; stroke: #000000; stroke-linecap: round"/>
   </g>
   <g id="line2d_21">
    <path d="M 433.51875 270.456068 
L 443.98125 270.456068 
" clip-path="url(#p75a4c1d361)" style="fill: none; stroke: #000000; stroke-linecap: round"/>
   </g>
   <g id="patch_6">
    <path d="M 567.7875 318.932385 
L 588.7125 318.932385 
L 588.7125 299.261165 
L 567.7875 299.261165 
L 567.7875 318.932385 
z
" clip-path="url(#p75a4c1d361)" style="fill: #cc79a7; opacity: 0.5; stroke: #000000; stroke-linejoin: miter"/>
   </g>
   <g id="line2d_22">
    <path d="M 578.25 318.932385 
L 578.25 330.041627 
" clip-path="url(#p75a4c1d361)" style="fill: none; stroke: #000000; stroke-linecap: round"/>
   </g>
   <g id="line2d_23">
    <path d="M 578.25 299.261165 
L 578.25 285.377127 
" clip-path="url(#p75a4c1d361)" style="fill: none; stroke: #000000; stroke-linecap: round"/>
   </g>
   <g id="line2d_24">
    <path d="M 573.01875 330.041627 
L 583.48125 330.041627 
" clip-path="url(#p75a4c1d361)" style="fill: none; stroke: #000000; stroke-linecap: round"/>
   </g>
   <g id="line2d_25">
    <path d="M 573.01875 285.377127 
L 583.48125 285.377127 
" clip-path="url(#p75a4c1d361)" style="fill: none; stroke: #000000; stroke-linecap: round"/>
   </g>
   <g id="line2d_26">
    <path d="M 149.2875 317.71239 
L 170.2125 317.71239 
" clip-path="url(#p75a4c1d361)" style="fill: none; stroke: #000000"/>
   </g>
   <g id="line2d_27">
    <path d="M 288.7875 327.909523 
L 309.7125 327.909523 
" clip-path="url(#p75a4c1d361)" style="fill: none; stroke: #000000"/>
   </g>
   <g id="line2d_28">
    <path d="M 428.2875 314.124653 
L 449.2125 314.124653 
" clip-path="url(#p75a4c1d361)" style="fill: none; stroke: #000000"/>
   </g>
   <g id="line2d_29">
    <path d="M 567.7875 307.671173 
L 588.7125 307.671173 
" clip-path="url(#p75a4c1d361)" style="fill: none; stroke: #000000"/>
   </g>
   <g id="patch_7">
    <path d="M 90 507.6 
L 90 129.6 
" style="fill: none; stroke: #262626; stroke-width: 1.25; stroke-linejoin: miter; stroke-linecap: square"/>
   </g>
   <g id="patch_8">
    <path d="M 648 507.6 
L 648 129.6 
" style="fill: none; stroke: #262626; stroke-width: 1.25; stroke-linejoin: miter; stroke-linecap: square"/>
   </g>
   <g id="patch_9">
    <path d="M 90 507.6 
L 648 507.6 
" style="fill: none; stroke: #262626; stroke-width: 1.25; stroke-linejoin: miter; stroke-linecap: square"/>
   </g>
   <g id="patch_10">
    <path d="M 90 129.6 
L 648 129.6 
" style="fill: none; stroke: #262626; stroke-width: 1.25; stroke-linejoin: miter; stroke-linecap: square"/>
   </g>
   <g id="text_11">
    <!-- IBI -->
    <g style="fill: #262626" transform="translate(360.055313 109.6) scale(0.14 -0.14)">
     <defs>
      <path id="Arial-BoldMT-49" d="M 438 0 
L 438 4581 
L 1363 4581 
L 1363 0 
L 438 0 
z
" transform="scale(0.015625)"/>
      <path id="Arial-BoldMT-42" d="M 469 4581 
L 2300 4581 
Q 2844 4581 3111 4536 
Q 3378 4491 3589 4347 
Q 3800 4203 3940 3964 
Q 4081 3725 4081 3428 
Q 4081 3106 3907 2837 
Q 3734 2569 3438 2434 
Q 3856 2313 4081 2019 
Q 4306 1725 4306 1328 
Q 4306 1016 4161 720 
Q 4016 425 3764 248 
Q 3513 72 3144 31 
Q 2913 6 2028 0 
L 469 0 
L 469 4581 
z
M 1394 3819 
L 1394 2759 
L 2000 2759 
Q 2541 2759 2672 2775 
Q 2909 2803 3045 2939 
Q 3181 3075 3181 3297 
Q 3181 3509 3064 3642 
Q 2947 3775 2716 3803 
Q 2578 3819 1925 3819 
L 1394 3819 
z
M 1394 1997 
L 1394 772 
L 2250 772 
Q 2750 772 2884 800 
Q 3091 838 3220 983 
Q 3350 1128 3350 1372 
Q 3350 1578 3250 1722 
Q 3150 1866 2961 1931 
Q 2772 1997 2141 1997 
L 1394 1997 
z
" transform="scale(0.015625)"/>
     </defs>
     <use xlink:href="#Arial-BoldMT-49"/>
     <use xlink:href="#Arial-BoldMT-42" x="27.783203"/>
     <use xlink:href="#Arial-BoldMT-49" x="100"/>
    </g>
   </g>
  </g>
  <g id="axes_2">
   <g id="patch_11">
    <path d="M 90 961.2 
L 648 961.2 
L 648 583.2 
L 90 583.2 
z
" style="fill: #ffffff"/>
   </g>
   <g id="matplotlib.axis_3">
    <g id="xtick_5">
     <g id="line2d_30">
      <g>
       <use xlink:href="#me2d14ed85a" x="159.75" y="961.2" style="fill: #262626; stroke: #262626; stroke-width: 1.25"/>
      </g>
     </g>
     <g id="text_12">
      <!-- State 1 -->
      <g style="fill: #262626" transform="translate(142.321875 978.573594) scale(0.11 -0.11)">
       <use xlink:href="#ArialMT-53"/>
       <use xlink:href="#ArialMT-74" x="66.699219"/>
       <use xlink:href="#ArialMT-61" x="94.482422"/>
       <use xlink:href="#ArialMT-74" x="150.097656"/>
       <use xlink:href="#ArialMT-65" x="177.880859"/>
       <use xlink:href="#ArialMT-20" x="233.496094"/>
       <use xlink:href="#ArialMT-31" x="261.279297"/>
      </g>
     </g>
    </g>
    <g id="xtick_6">
     <g id="line2d_31">
      <g>
       <use xlink:href="#me2d14ed85a" x="299.25" y="961.2" style="fill: #262626; stroke: #262626; stroke-width: 1.25"/>
      </g>
     </g>
     <g id="text_13">
      <!-- State 2 -->
      <g style="fill: #262626" transform="translate(281.821875 978.573594) scale(0.11 -0.11)">
       <use xlink:href="#ArialMT-53"/>
       <use xlink:href="#ArialMT-74" x="66.699219"/>
       <use xlink:href="#ArialMT-61" x="94.482422"/>
       <use xlink:href="#ArialMT-74" x="150.097656"/>
       <use xlink:href="#ArialMT-65" x="177.880859"/>
       <use xlink:href="#ArialMT-20" x="233.496094"/>
       <use xlink:href="#ArialMT-32" x="261.279297"/>
      </g>
     </g>
    </g>
    <g id="xtick_7">
     <g id="line2d_32">
      <g>
       <use xlink:href="#me2d14ed85a" x="438.75" y="961.2" style="fill: #262626; stroke: #262626; stroke-width: 1.25"/>
      </g>
     </g>
     <g id="text_14">
      <!-- State 3 -->
      <g style="fill: #262626" transform="translate(421.321875 978.573594) scale(0.11 -0.11)">
       <use xlink:href="#ArialMT-53"/>
       <use xlink:href="#ArialMT-74" x="66.699219"/>
       <use xlink:href="#ArialMT-61" x="94.482422"/>
       <use xlink:href="#ArialMT-74" x="150.097656"/>
       <use xlink:href="#ArialMT-65" x="177.880859"/>
       <use xlink:href="#ArialMT-20" x="233.496094"/>
       <use xlink:href="#ArialMT-33" x="261.279297"/>
      </g>
     </g>
    </g>
    <g id="xtick_8">
     <g id="line2d_33">
      <g>
       <use xlink:href="#me2d14ed85a" x="578.25" y="961.2" style="fill: #262626; stroke: #262626; stroke-width: 1.25"/>
      </g>
     </g>
     <g id="text_15">
      <!-- State 4 -->
      <g style="fill: #262626" transform="translate(560.821875 978.573594) scale(0.11 -0.11)">
       <use xlink:href="#ArialMT-53"/>
       <use xlink:href="#ArialMT-74" x="66.699219"/>
       <use xlink:href="#ArialMT-61" x="94.482422"/>
       <use xlink:href="#ArialMT-74" x="150.097656"/>
       <use xlink:href="#ArialMT-65" x="177.880859"/>
       <use xlink:href="#ArialMT-20" x="233.496094"/>
       <use xlink:href="#ArialMT-34" x="261.279297"/>
      </g>
     </g>
    </g>
   </g>
   <g id="matplotlib.axis_4">
    <g id="ytick_6">
     <g id="line2d_34">
      <g>
       <use xlink:href="#mf2af5cc933" x="90" y="923.4" style="fill: #262626; stroke: #262626; stroke-width: 1.25"/>
      </g>
     </g>
     <g id="text_16">
      <!-- −2 -->
      <g style="fill: #262626" transform="translate(67.958281 927.336797) scale(0.11 -0.11)">
       <use xlink:href="#ArialMT-2212"/>
       <use xlink:href="#ArialMT-32" x="58.398438"/>
      </g>
     </g>
    </g>
    <g id="ytick_7">
     <g id="line2d_35">
      <g>
       <use xlink:href="#mf2af5cc933" x="90" y="847.8" style="fill: #262626; stroke: #262626; stroke-width: 1.25"/>
      </g>
     </g>
     <g id="text_17">
      <!-- −1 -->
      <g style="fill: #262626" transform="translate(67.958281 851.736797) scale(0.11 -0.11)">
       <use xlink:href="#ArialMT-2212"/>
       <use xlink:href="#ArialMT-31" x="58.398438"/>
      </g>
     </g>
    </g>
    <g id="ytick_8">
     <g id="line2d_36">
      <g>
       <use xlink:href="#mf2af5cc933" x="90" y="772.2" style="fill: #262626; stroke: #262626; stroke-width: 1.25"/>
      </g>
     </g>
     <g id="text_18">
      <!-- 0 -->
      <g style="fill: #262626" transform="translate(74.382969 776.136797) scale(0.11 -0.11)">
       <use xlink:href="#ArialMT-30"/>
      </g>
     </g>
    </g>
    <g id="ytick_9">
     <g id="line2d_37">
      <g>
       <use xlink:href="#mf2af5cc933" x="90" y="696.6" style="fill: #262626; stroke: #262626; stroke-width: 1.25"/>
      </g>
     </g>
     <g id="text_19">
      <!-- 1 -->
      <g style="fill: #262626" transform="translate(74.382969 700.536797) scale(0.11 -0.11)">
       <use xlink:href="#ArialMT-31"/>
      </g>
     </g>
    </g>
    <g id="ytick_10">
     <g id="line2d_38">
      <g>
       <use xlink:href="#mf2af5cc933" x="90" y="621" style="fill: #262626; stroke: #262626; stroke-width: 1.25"/>
      </g>
     </g>
     <g id="text_20">
      <!-- 2 -->
      <g style="fill: #262626" transform="translate(74.382969 624.936797) scale(0.11 -0.11)">
       <use xlink:href="#ArialMT-32"/>
      </g>
     </g>
    </g>
    <g id="text_21">
     <!-- Value (z-scored) -->
     <g style="fill: #262626" transform="translate(61.432656 815.770313) rotate(-90) scale(0.12 -0.12)">
      <use xlink:href="#ArialMT-56"/>
      <use xlink:href="#ArialMT-61" x="59.324219"/>
      <use xlink:href="#ArialMT-6c" x="114.939453"/>
      <use xlink:href="#ArialMT-75" x="137.15625"/>
      <use xlink:href="#ArialMT-65" x="192.771484"/>
      <use xlink:href="#ArialMT-20" x="248.386719"/>
      <use xlink:href="#ArialMT-28" x="276.169922"/>
      <use xlink:href="#ArialMT-7a" x="309.470703"/>
      <use xlink:href="#ArialMT-2d" x="359.470703"/>
      <use xlink:href="#ArialMT-73" x="392.771484"/>
      <use xlink:href="#ArialMT-63" x="442.771484"/>
      <use xlink:href="#ArialMT-6f" x="492.771484"/>
      <use xlink:href="#ArialMT-72" x="548.386719"/>
      <use xlink:href="#ArialMT-65" x="581.6875"/>
      <use xlink:href="#ArialMT-64" x="637.302734"/>
      <use xlink:href="#ArialMT-29" x="692.917969"/>
     </g>
    </g>
   </g>
   <g id="PolyCollection_5">
    <defs>
     <path id="mb6c019c1a1" d="M 163.28494 -269.494374 
L 159.885452 -269.494374 
L 159.885452 -271.142026 
L 159.885452 -272.789679 
L 159.885452 -274.437331 
L 159.885452 -276.084983 
L 159.885452 -277.732636 
L 159.885452 -279.380288 
L 159.885452 -281.027941 
L 159.885452 -282.675593 
L 159.885452 -284.323246 
L 159.885452 -285.970898 
L 159.885452 -287.61855 
L 159.885452 -289.266203 
L 159.885452 -290.913855 
L 159.885452 -292.561508 
L 159.885452 -294.20916 
L 159.885452 -295.856812 
L 159.885452 -297.504465 
L 159.885452 -299.152117 
L 159.885452 -300.79977 
L 159.885452 -302.447422 
L 159.885452 -304.095074 
L 159.885452 -305.742727 
L 159.885452 -307.390379 
L 159.885452 -309.038032 
L 159.885452 -310.685684 
L 159.885452 -312.333337 
L 159.885452 -313.980989 
L 159.885452 -315.628641 
L 159.885452 -317.276294 
L 159.885452 -318.923946 
L 159.885452 -320.571599 
L 159.885452 -322.219251 
L 159.885452 -323.866903 
L 159.885452 -325.514556 
L 159.885452 -327.162208 
L 159.885452 -328.809861 
L 159.885452 -330.457513 
L 159.885452 -332.105166 
L 163.651736 -332.105166 
L 163.651736 -332.105166 
L 164.582837 -330.457513 
L 165.746584 -328.809861 
L 167.208498 -327.162208 
L 169.008534 -325.514556 
L 171.13836 -323.866903 
L 173.530105 -322.219251 
L 176.064367 -320.571599 
L 178.598494 -318.923946 
L 181.006974 -317.276294 
L 183.218033 -315.628641 
L 185.229064 -313.980989 
L 187.090791 -312.333337 
L 188.864241 -310.685684 
L 190.56892 -309.038032 
L 192.147095 -307.390379 
L 193.463156 -305.742727 
L 194.341065 -304.095074 
L 194.625 -302.447422 
L 194.237809 -300.79977 
L 193.213537 -299.152117 
L 191.692277 -297.504465 
L 189.881021 -295.856812 
L 187.995982 -294.20916 
L 186.206148 -292.561508 
L 184.594891 -290.913855 
L 183.149188 -289.266203 
L 181.777543 -287.61855 
L 180.349987 -285.970898 
L 178.747732 -284.323246 
L 176.907251 -282.675593 
L 174.844812 -281.027941 
L 172.653622 -279.380288 
L 170.475208 -277.732636 
L 168.456249 -276.084983 
L 166.707282 -274.437331 
L 165.277995 -272.789679 
L 164.155888 -271.142026 
L 163.28494 -269.494374 
z
" style="stroke: #d55e00; stroke-opacity: 0.3"/>
    </defs>
    <g clip-path="url(#p9e990b484a)">
     <use xlink:href="#mb6c019c1a1" x="0" y="1080" style="fill: #d55e00; fill-opacity: 0.3; stroke: #d55e00; stroke-opacity: 0.3"/>
    </g>
   </g>
   <g id="PolyCollection_6">
    <defs>
     <path id="m54e25c7c9c" d="M 303.998496 -252.314853 
L 299.484765 -252.314853 
L 299.484765 -254.262201 
L 299.484765 -256.209549 
L 299.484765 -258.156897 
L 299.484765 -260.104244 
L 299.484765 -262.051592 
L 299.484765 -263.99894 
L 299.484765 -265.946288 
L 299.484765 -267.893636 
L 299.484765 -269.840984 
L 299.484765 -271.788332 
L 299.484765 -273.73568 
L 299.484765 -275.683028 
L 299.484765 -277.630375 
L 299.484765 -279.577723 
L 299.484765 -281.525071 
L 299.484765 -283.472419 
L 299.484765 -285.419767 
L 299.484765 -287.367115 
L 299.484765 -289.314463 
L 299.484765 -291.261811 
L 299.484765 -293.209158 
L 299.484765 -295.156506 
L 299.484765 -297.103854 
L 299.484765 -299.051202 
L 299.484765 -300.99855 
L 299.484765 -302.945898 
L 299.484765 -304.893246 
L 299.484765 -306.840594 
L 299.484765 -308.787942 
L 299.484765 -310.735289 
L 299.484765 -312.682637 
L 299.484765 -314.629985 
L 299.484765 -316.577333 
L 299.484765 -318.524681 
L 299.484765 -320.472029 
L 299.484765 -322.419377 
L 299.484765 -324.366725 
L 299.484765 -326.314073 
L 308.769009 -326.314073 
L 308.769009 -326.314073 
L 310.908743 -324.366725 
L 313.1814 -322.419377 
L 315.534509 -320.472029 
L 317.918239 -318.524681 
L 320.287565 -316.577333 
L 322.601945 -314.629985 
L 324.823498 -312.682637 
L 326.914882 -310.735289 
L 328.837309 -308.787942 
L 330.54825 -306.840594 
L 331.998205 -304.893246 
L 333.127107 -302.945898 
L 333.862771 -300.99855 
L 334.125 -299.051202 
L 333.837878 -297.103854 
L 332.949352 -295.156506 
L 331.452852 -293.209158 
L 329.402911 -291.261811 
L 326.917465 -289.314463 
L 324.163925 -287.367115 
L 321.332225 -285.419767 
L 318.602999 -283.472419 
L 316.120435 -281.525071 
L 313.97685 -279.577723 
L 312.210962 -277.630375 
L 310.816847 -275.683028 
L 309.757743 -273.73568 
L 308.979096 -271.788332 
L 308.417689 -269.840984 
L 308.006814 -267.893636 
L 307.679512 -265.946288 
L 307.372151 -263.99894 
L 307.029374 -262.051592 
L 306.60976 -260.104244 
L 306.090425 -258.156897 
L 305.468886 -256.209549 
L 304.761435 -254.262201 
L 303.998496 -252.314853 
z
" style="stroke: #0072b2; stroke-opacity: 0.3"/>
    </defs>
    <g clip-path="url(#p9e990b484a)">
     <use xlink:href="#m54e25c7c9c" x="0" y="1080" style="fill: #0072b2; fill-opacity: 0.3; stroke: #0072b2; stroke-opacity: 0.3"/>
    </g>
   </g>
   <g id="PolyCollection_7">
    <defs>
     <path id="mbbf04661be" d="M 440.794801 -198.503585 
L 438.840188 -198.503585 
L 438.840188 -204.297741 
L 438.840188 -210.091898 
L 438.840188 -215.886054 
L 438.840188 -221.68021 
L 438.840188 -227.474367 
L 438.840188 -233.268523 
L 438.840188 -239.06268 
L 438.840188 -244.856836 
L 438.840188 -250.650993 
L 438.840188 -256.445149 
L 438.840188 -262.239306 
L 438.840188 -268.033462 
L 438.840188 -273.827619 
L 438.840188 -279.621775 
L 438.840188 -285.415932 
L 438.840188 -291.210088 
L 438.840188 -297.004244 
L 438.840188 -302.798401 
L 438.840188 -308.592557 
L 438.840188 -314.386714 
L 438.840188 -320.18087 
L 438.840188 -325.975027 
L 438.840188 -331.769183 
L 438.840188 -337.56334 
L 438.840188 -343.357496 
L 438.840188 -349.151653 
L 438.840188 -354.945809 
L 438.840188 -360.739966 
L 438.840188 -366.534122 
L 438.840188 -372.328278 
L 438.840188 -378.122435 
L 438.840188 -383.916591 
L 438.840188 -389.710748 
L 438.840188 -395.504904 
L 438.840188 -401.299061 
L 438.840188 -407.093217 
L 438.840188 -412.887374 
L 438.840188 -418.68153 
L 441.965606 -418.68153 
L 441.965606 -418.68153 
L 442.617044 -412.887374 
L 443.404717 -407.093217 
L 444.42122 -401.299061 
L 445.767556 -395.504904 
L 447.531784 -389.710748 
L 449.77022 -383.916591 
L 452.493262 -378.122435 
L 455.653778 -372.328278 
L 459.135906 -366.534122 
L 462.747602 -360.739966 
L 466.227633 -354.945809 
L 469.278623 -349.151653 
L 471.626718 -343.357496 
L 473.089925 -337.56334 
L 473.625 -331.769183 
L 473.328863 -325.975027 
L 472.393495 -320.18087 
L 471.037638 -314.386714 
L 469.447465 -308.592557 
L 467.747227 -302.798401 
L 466.000115 -297.004244 
L 464.224731 -291.210088 
L 462.411605 -285.415932 
L 460.533571 -279.621775 
L 458.553887 -273.827619 
L 456.439118 -268.033462 
L 454.178892 -262.239306 
L 451.806482 -256.445149 
L 449.409101 -250.650993 
L 447.118919 -244.856836 
L 445.084377 -239.06268 
L 443.431166 -233.268523 
L 442.227484 -227.474367 
L 441.466229 -221.68021 
L 441.069524 -215.886054 
L 440.91275 -210.091898 
L 440.859291 -204.297741 
L 440.794801 -198.503585 
z
" style="stroke: #009e73; stroke-opacity: 0.3"/>
    </defs>
    <g clip-path="url(#p9e990b484a)">
     <use xlink:href="#mbbf04661be" x="0" y="1080" style="fill: #009e73; fill-opacity: 0.3; stroke: #009e73; stroke-opacity: 0.3"/>
    </g>
   </g>
   <g id="PolyCollection_8">
    <defs>
     <path id="m3d848e763f" d="M 588.940913 -289.324418 
L 578.607034 -289.324418 
L 578.607034 -290.807259 
L 578.607034 -292.2901 
L 578.607034 -293.77294 
L 578.607034 -295.255781 
L 578.607034 -296.738622 
L 578.607034 -298.221463 
L 578.607034 -299.704304 
L 578.607034 -301.187144 
L 578.607034 -302.669985 
L 578.607034 -304.152826 
L 578.607034 -305.635667 
L 578.607034 -307.118508 
L 578.607034 -308.601348 
L 578.607034 -310.084189 
L 578.607034 -311.56703 
L 578.607034 -313.049871 
L 578.607034 -314.532712 
L 578.607034 -316.015552 
L 578.607034 -317.498393 
L 578.607034 -318.981234 
L 578.607034 -320.464075 
L 578.607034 -321.946916 
L 578.607034 -323.429757 
L 578.607034 -324.912597 
L 578.607034 -326.395438 
L 578.607034 -327.878279 
L 578.607034 -329.36112 
L 578.607034 -330.843961 
L 578.607034 -332.326801 
L 578.607034 -333.809642 
L 578.607034 -335.292483 
L 578.607034 -336.775324 
L 578.607034 -338.258165 
L 578.607034 -339.741005 
L 578.607034 -341.223846 
L 578.607034 -342.706687 
L 578.607034 -344.189528 
L 578.607034 -345.672369 
L 585.787908 -345.672369 
L 585.787908 -345.672369 
L 586.88305 -344.189528 
L 587.981242 -342.706687 
L 589.125248 -341.223846 
L 590.387615 -339.741005 
L 591.856558 -338.258165 
L 593.613051 -336.775324 
L 595.704225 -335.292483 
L 598.120481 -333.809642 
L 600.783866 -332.326801 
L 603.552694 -330.843961 
L 606.242711 -329.36112 
L 608.659834 -327.878279 
L 610.635688 -326.395438 
L 612.056417 -324.912597 
L 612.877855 -323.429757 
L 613.125 -321.946916 
L 612.87872 -320.464075 
L 612.255633 -318.981234 
L 611.38739 -317.498393 
L 610.403435 -316.015552 
L 609.418481 -314.532712 
L 608.52379 -313.049871 
L 607.780829 -311.56703 
L 607.216634 -310.084189 
L 606.821362 -308.601348 
L 606.54918 -307.118508 
L 606.32346 -305.635667 
L 606.046382 -304.152826 
L 605.612112 -302.669985 
L 604.921932 -301.187144 
L 603.899274 -299.704304 
L 602.502346 -298.221463 
L 600.732123 -296.738622 
L 598.633897 -295.255781 
L 596.291618 -293.77294 
L 593.815798 -292.2901 
L 591.327369 -290.807259 
L 588.940913 -289.324418 
z
" style="stroke: #cc79a7; stroke-opacity: 0.3"/>
    </defs>
    <g clip-path="url(#p9e990b484a)">
     <use xlink:href="#m3d848e763f" x="0" y="1080" style="fill: #cc79a7; fill-opacity: 0.3; stroke: #cc79a7; stroke-opacity: 0.3"/>
    </g>
   </g>
   <g id="PathCollection_5">
    <g clip-path="url(#p9e990b484a)">
     <use xlink:href="#m4c5f1116a6" x="132.285994" y="765.506372" style="fill: #d55e00; stroke: #d55e00"/>
     <use xlink:href="#m4c5f1116a6" x="125.060356" y="778.550378" style="fill: #d55e00; stroke: #d55e00"/>
     <use xlink:href="#m4c5f1116a6" x="135.828446" y="785.727142" style="fill: #d55e00; stroke: #d55e00"/>
     <use xlink:href="#m4c5f1116a6" x="125.815195" y="782.445487" style="fill: #d55e00; stroke: #d55e00"/>
     <use xlink:href="#m4c5f1116a6" x="125.340102" y="798.647565" style="fill: #d55e00; stroke: #d55e00"/>
     <use xlink:href="#m4c5f1116a6" x="131.031062" y="786.622095" style="fill: #d55e00; stroke: #d55e00"/>
     <use xlink:href="#m4c5f1116a6" x="129.005487" y="789.907933" style="fill: #d55e00; stroke: #d55e00"/>
     <use xlink:href="#m4c5f1116a6" x="129.71949" y="764.142" style="fill: #d55e00; stroke: #d55e00"/>
     <use xlink:href="#m4c5f1116a6" x="126.459336" y="775.403075" style="fill: #d55e00; stroke: #d55e00"/>
     <use xlink:href="#m4c5f1116a6" x="127.157985" y="778.536838" style="fill: #d55e00; stroke: #d55e00"/>
     <use xlink:href="#m4c5f1116a6" x="130.653789" y="781.006013" style="fill: #d55e00; stroke: #d55e00"/>
     <use xlink:href="#m4c5f1116a6" x="130.288973" y="793.471261" style="fill: #d55e00; stroke: #d55e00"/>
     <use xlink:href="#m4c5f1116a6" x="126.151626" y="763.839906" style="fill: #d55e00; stroke: #d55e00"/>
     <use xlink:href="#m4c5f1116a6" x="134.754766" y="772.004048" style="fill: #d55e00; stroke: #d55e00"/>
     <use xlink:href="#m4c5f1116a6" x="135.090979" y="747.894834" style="fill: #d55e00; stroke: #d55e00"/>
     <use xlink:href="#m4c5f1116a6" x="129.183012" y="791.477018" style="fill: #d55e00; stroke: #d55e00"/>
     <use xlink:href="#m4c5f1116a6" x="125.642839" y="774.5729" style="fill: #d55e00; stroke: #d55e00"/>
     <use xlink:href="#m4c5f1116a6" x="127.04684" y="767.140994" style="fill: #d55e00; stroke: #d55e00"/>
     <use xlink:href="#m4c5f1116a6" x="131.298261" y="774.640285" style="fill: #d55e00; stroke: #d55e00"/>
     <use xlink:href="#m4c5f1116a6" x="126.795066" y="795.99855" style="fill: #d55e00; stroke: #d55e00"/>
     <use xlink:href="#m4c5f1116a6" x="129.852666" y="756.099151" style="fill: #d55e00; stroke: #d55e00"/>
     <use xlink:href="#m4c5f1116a6" x="129.226897" y="798.9068" style="fill: #d55e00; stroke: #d55e00"/>
     <use xlink:href="#m4c5f1116a6" x="127.362791" y="776.429027" style="fill: #d55e00; stroke: #d55e00"/>
     <use xlink:href="#m4c5f1116a6" x="125.191869" y="776.848493" style="fill: #d55e00; stroke: #d55e00"/>
     <use xlink:href="#m4c5f1116a6" x="133.705372" y="762.761774" style="fill: #d55e00; stroke: #d55e00"/>
     <use xlink:href="#m4c5f1116a6" x="127.203932" y="810.505626" style="fill: #d55e00; stroke: #d55e00"/>
     <use xlink:href="#m4c5f1116a6" x="138.549811" y="762.52947" style="fill: #d55e00; stroke: #d55e00"/>
     <use xlink:href="#m4c5f1116a6" x="137.91052" y="796.898739" style="fill: #d55e00; stroke: #d55e00"/>
     <use xlink:href="#m4c5f1116a6" x="127.96253" y="778.433238" style="fill: #d55e00; stroke: #d55e00"/>
     <use xlink:href="#m4c5f1116a6" x="126.382306" y="780.679802" style="fill: #d55e00; stroke: #d55e00"/>
     <use xlink:href="#m4c5f1116a6" x="138.548018" y="768.569295" style="fill: #d55e00; stroke: #d55e00"/>
     <use xlink:href="#m4c5f1116a6" x="126.894963" y="774.557928" style="fill: #d55e00; stroke: #d55e00"/>
     <use xlink:href="#m4c5f1116a6" x="136.986252" y="766.955107" style="fill: #d55e00; stroke: #d55e00"/>
     <use xlink:href="#m4c5f1116a6" x="127.328534" y="760.454643" style="fill: #d55e00; stroke: #d55e00"/>
     <use xlink:href="#m4c5f1116a6" x="138.704542" y="783.383903" style="fill: #d55e00; stroke: #d55e00"/>
     <use xlink:href="#m4c5f1116a6" x="133.206569" y="775.307336" style="fill: #d55e00; stroke: #d55e00"/>
     <use xlink:href="#m4c5f1116a6" x="125.709814" y="789.589999" style="fill: #d55e00; stroke: #d55e00"/>
     <use xlink:href="#m4c5f1116a6" x="127.696814" y="782.14365" style="fill: #d55e00; stroke: #d55e00"/>
     <use xlink:href="#m4c5f1116a6" x="138.508214" y="796.015797" style="fill: #d55e00; stroke: #d55e00"/>
    </g>
   </g>
   <g id="PathCollection_6">
    <g clip-path="url(#p9e990b484a)">
     <use xlink:href="#m0cf03df517" x="269.055261" y="818.363014" style="fill: #0072b2; stroke: #0072b2"/>
     <use xlink:href="#m0cf03df517" x="268.708253" y="762.883663" style="fill: #0072b2; stroke: #0072b2"/>
     <use xlink:href="#m0cf03df517" x="265.828579" y="781.408965" style="fill: #0072b2; stroke: #0072b2"/>
     <use xlink:href="#m0cf03df517" x="264.846897" y="757.782934" style="fill: #0072b2; stroke: #0072b2"/>
     <use xlink:href="#m0cf03df517" x="267.698245" y="774.080006" style="fill: #0072b2; stroke: #0072b2"/>
     <use xlink:href="#m0cf03df517" x="274.9155" y="760.7234" style="fill: #0072b2; stroke: #0072b2"/>
     <use xlink:href="#m0cf03df517" x="264.649793" y="793.470927" style="fill: #0072b2; stroke: #0072b2"/>
     <use xlink:href="#m0cf03df517" x="271.003964" y="806.828488" style="fill: #0072b2; stroke: #0072b2"/>
     <use xlink:href="#m0cf03df517" x="265.704868" y="771.878742" style="fill: #0072b2; stroke: #0072b2"/>
     <use xlink:href="#m0cf03df517" x="278.080105" y="781.875982" style="fill: #0072b2; stroke: #0072b2"/>
     <use xlink:href="#m0cf03df517" x="273.57128" y="786.929795" style="fill: #0072b2; stroke: #0072b2"/>
     <use xlink:href="#m0cf03df517" x="268.966447" y="777.132079" style="fill: #0072b2; stroke: #0072b2"/>
     <use xlink:href="#m0cf03df517" x="264.692723" y="784.850416" style="fill: #0072b2; stroke: #0072b2"/>
     <use xlink:href="#m0cf03df517" x="266.418333" y="800.23047" style="fill: #0072b2; stroke: #0072b2"/>
     <use xlink:href="#m0cf03df517" x="277.680044" y="803.866594" style="fill: #0072b2; stroke: #0072b2"/>
     <use xlink:href="#m0cf03df517" x="277.803148" y="772.711736" style="fill: #0072b2; stroke: #0072b2"/>
     <use xlink:href="#m0cf03df517" x="264.899388" y="769.764345" style="fill: #0072b2; stroke: #0072b2"/>
     <use xlink:href="#m0cf03df517" x="269.458583" y="787.750477" style="fill: #0072b2; stroke: #0072b2"/>
     <use xlink:href="#m0cf03df517" x="266.35855" y="779.267293" style="fill: #0072b2; stroke: #0072b2"/>
     <use xlink:href="#m0cf03df517" x="269.444855" y="774.491611" style="fill: #0072b2; stroke: #0072b2"/>
     <use xlink:href="#m0cf03df517" x="275.433524" y="820.364418" style="fill: #0072b2; stroke: #0072b2"/>
     <use xlink:href="#m0cf03df517" x="275.435217" y="769.265147" style="fill: #0072b2; stroke: #0072b2"/>
     <use xlink:href="#m0cf03df517" x="271.38822" y="790.115986" style="fill: #0072b2; stroke: #0072b2"/>
     <use xlink:href="#m0cf03df517" x="265.687587" y="774.904567" style="fill: #0072b2; stroke: #0072b2"/>
     <use xlink:href="#m0cf03df517" x="270.299053" y="827.685147" style="fill: #0072b2; stroke: #0072b2"/>
     <use xlink:href="#m0cf03df517" x="266.989399" y="774.93471" style="fill: #0072b2; stroke: #0072b2"/>
     <use xlink:href="#m0cf03df517" x="269.498207" y="768.629406" style="fill: #0072b2; stroke: #0072b2"/>
     <use xlink:href="#m0cf03df517" x="268.708545" y="762.971477" style="fill: #0072b2; stroke: #0072b2"/>
     <use xlink:href="#m0cf03df517" x="267.523248" y="789.762811" style="fill: #0072b2; stroke: #0072b2"/>
     <use xlink:href="#m0cf03df517" x="270.904774" y="763.506444" style="fill: #0072b2; stroke: #0072b2"/>
     <use xlink:href="#m0cf03df517" x="274.182783" y="753.685927" style="fill: #0072b2; stroke: #0072b2"/>
     <use xlink:href="#m0cf03df517" x="271.304447" y="786.018043" style="fill: #0072b2; stroke: #0072b2"/>
     <use xlink:href="#m0cf03df517" x="273.249343" y="787.99352" style="fill: #0072b2; stroke: #0072b2"/>
     <use xlink:href="#m0cf03df517" x="269.287633" y="796.061947" style="fill: #0072b2; stroke: #0072b2"/>
     <use xlink:href="#m0cf03df517" x="264.934029" y="783.477956" style="fill: #0072b2; stroke: #0072b2"/>
     <use xlink:href="#m0cf03df517" x="273.299383" y="784.387878" style="fill: #0072b2; stroke: #0072b2"/>
     <use xlink:href="#m0cf03df517" x="275.45684" y="782.411302" style="fill: #0072b2; stroke: #0072b2"/>
     <use xlink:href="#m0cf03df517" x="265.028441" y="787.933801" style="fill: #0072b2; stroke: #0072b2"/>
     <use xlink:href="#m0cf03df517" x="275.842722" y="814.101549" style="fill: #0072b2; stroke: #0072b2"/>
    </g>
   </g>
   <g id="PathCollection_7">
    <g clip-path="url(#p9e990b484a)">
     <use xlink:href="#m7640ac55f5" x="407.443441" y="775.421901" style="fill: #009e73; stroke: #009e73"/>
     <use xlink:href="#m7640ac55f5" x="414.399674" y="789.292723" style="fill: #009e73; stroke: #009e73"/>
     <use xlink:href="#m7640ac55f5" x="414.978703" y="778.106369" style="fill: #009e73; stroke: #009e73"/>
     <use xlink:href="#m7640ac55f5" x="411.85494" y="707.74014" style="fill: #009e73; stroke: #009e73"/>
     <use xlink:href="#m7640ac55f5" x="406.949661" y="741.786423" style="fill: #009e73; stroke: #009e73"/>
     <use xlink:href="#m7640ac55f5" x="410.708517" y="752.030806" style="fill: #009e73; stroke: #009e73"/>
     <use xlink:href="#m7640ac55f5" x="415.140556" y="733.003022" style="fill: #009e73; stroke: #009e73"/>
     <use xlink:href="#m7640ac55f5" x="412.665454" y="825.232379" style="fill: #009e73; stroke: #009e73"/>
     <use xlink:href="#m7640ac55f5" x="405.753241" y="687.231218" style="fill: #009e73; stroke: #009e73"/>
     <use xlink:href="#m7640ac55f5" x="413.946565" y="768.266253" style="fill: #009e73; stroke: #009e73"/>
     <use xlink:href="#m7640ac55f5" x="409.476715" y="661.31847" style="fill: #009e73; stroke: #009e73"/>
     <use xlink:href="#m7640ac55f5" x="412.896444" y="731.20384" style="fill: #009e73; stroke: #009e73"/>
     <use xlink:href="#m7640ac55f5" x="406.852431" y="773.338432" style="fill: #009e73; stroke: #009e73"/>
     <use xlink:href="#m7640ac55f5" x="414.543691" y="733.912712" style="fill: #009e73; stroke: #009e73"/>
     <use xlink:href="#m7640ac55f5" x="405.188525" y="748.30693" style="fill: #009e73; stroke: #009e73"/>
     <use xlink:href="#m7640ac55f5" x="406.344949" y="713.788361" style="fill: #009e73; stroke: #009e73"/>
     <use xlink:href="#m7640ac55f5" x="416.563058" y="757.950428" style="fill: #009e73; stroke: #009e73"/>
     <use xlink:href="#m7640ac55f5" x="410.776872" y="765.188992" style="fill: #009e73; stroke: #009e73"/>
     <use xlink:href="#m7640ac55f5" x="409.499644" y="813.929327" style="fill: #009e73; stroke: #009e73"/>
     <use xlink:href="#m7640ac55f5" x="410.127853" y="789.718098" style="fill: #009e73; stroke: #009e73"/>
     <use xlink:href="#m7640ac55f5" x="411.262553" y="881.496415" style="fill: #009e73; stroke: #009e73"/>
     <use xlink:href="#m7640ac55f5" x="415.304367" y="756.940155" style="fill: #009e73; stroke: #009e73"/>
     <use xlink:href="#m7640ac55f5" x="407.152873" y="746.768757" style="fill: #009e73; stroke: #009e73"/>
     <use xlink:href="#m7640ac55f5" x="410.178022" y="731.315588" style="fill: #009e73; stroke: #009e73"/>
     <use xlink:href="#m7640ac55f5" x="408.221351" y="804.61707" style="fill: #009e73; stroke: #009e73"/>
     <use xlink:href="#m7640ac55f5" x="416.648111" y="797.936026" style="fill: #009e73; stroke: #009e73"/>
     <use xlink:href="#m7640ac55f5" x="407.413975" y="741.290005" style="fill: #009e73; stroke: #009e73"/>
     <use xlink:href="#m7640ac55f5" x="412.151786" y="747.483732" style="fill: #009e73; stroke: #009e73"/>
     <use xlink:href="#m7640ac55f5" x="405.191294" y="715.131294" style="fill: #009e73; stroke: #009e73"/>
     <use xlink:href="#m7640ac55f5" x="408.956772" y="817.600829" style="fill: #009e73; stroke: #009e73"/>
     <use xlink:href="#m7640ac55f5" x="414.66868" y="804.538467" style="fill: #009e73; stroke: #009e73"/>
     <use xlink:href="#m7640ac55f5" x="415.426618" y="709.988923" style="fill: #009e73; stroke: #009e73"/>
     <use xlink:href="#m7640ac55f5" x="408.198917" y="741.80354" style="fill: #009e73; stroke: #009e73"/>
     <use xlink:href="#m7640ac55f5" x="406.03128" y="737.571791" style="fill: #009e73; stroke: #009e73"/>
     <use xlink:href="#m7640ac55f5" x="412.589523" y="767.428277" style="fill: #009e73; stroke: #009e73"/>
     <use xlink:href="#m7640ac55f5" x="414.250805" y="733.582334" style="fill: #009e73; stroke: #009e73"/>
     <use xlink:href="#m7640ac55f5" x="412.642061" y="791.136508" style="fill: #009e73; stroke: #009e73"/>
     <use xlink:href="#m7640ac55f5" x="407.522429" y="778.320437" style="fill: #009e73; stroke: #009e73"/>
     <use xlink:href="#m7640ac55f5" x="414.22589" y="825.893984" style="fill: #009e73; stroke: #009e73"/>
    </g>
   </g>
   <g id="PathCollection_8">
    <g clip-path="url(#p9e990b484a)">
     <use xlink:href="#m3e90664df9" x="555.603288" y="739.373123" style="fill: #cc79a7; stroke: #cc79a7"/>
     <use xlink:href="#m3e90664df9" x="555.760243" y="773.810838" style="fill: #cc79a7; stroke: #cc79a7"/>
     <use xlink:href="#m3e90664df9" x="555.869528" y="755.199748" style="fill: #cc79a7; stroke: #cc79a7"/>
     <use xlink:href="#m3e90664df9" x="552.457257" y="781.274049" style="fill: #cc79a7; stroke: #cc79a7"/>
     <use xlink:href="#m3e90664df9" x="544.65943" y="768.15273" style="fill: #cc79a7; stroke: #cc79a7"/>
     <use xlink:href="#m3e90664df9" x="546.078817" y="781.919175" style="fill: #cc79a7; stroke: #cc79a7"/>
     <use xlink:href="#m3e90664df9" x="551.012489" y="751.412642" style="fill: #cc79a7; stroke: #cc79a7"/>
     <use xlink:href="#m3e90664df9" x="545.002979" y="755.415609" style="fill: #cc79a7; stroke: #cc79a7"/>
     <use xlink:href="#m3e90664df9" x="548.726367" y="790.675582" style="fill: #cc79a7; stroke: #cc79a7"/>
     <use xlink:href="#m3e90664df9" x="546.281272" y="761.367946" style="fill: #cc79a7; stroke: #cc79a7"/>
     <use xlink:href="#m3e90664df9" x="554.603153" y="784.037058" style="fill: #cc79a7; stroke: #cc79a7"/>
     <use xlink:href="#m3e90664df9" x="555.747505" y="768.333924" style="fill: #cc79a7; stroke: #cc79a7"/>
     <use xlink:href="#m3e90664df9" x="545.808607" y="755.584844" style="fill: #cc79a7; stroke: #cc79a7"/>
     <use xlink:href="#m3e90664df9" x="557.209013" y="752.493769" style="fill: #cc79a7; stroke: #cc79a7"/>
     <use xlink:href="#m3e90664df9" x="546.349416" y="762.819981" style="fill: #cc79a7; stroke: #cc79a7"/>
     <use xlink:href="#m3e90664df9" x="555.491061" y="782.974439" style="fill: #cc79a7; stroke: #cc79a7"/>
     <use xlink:href="#m3e90664df9" x="544.339431" y="778.378328" style="fill: #cc79a7; stroke: #cc79a7"/>
     <use xlink:href="#m3e90664df9" x="549.974594" y="753.90973" style="fill: #cc79a7; stroke: #cc79a7"/>
     <use xlink:href="#m3e90664df9" x="556.336581" y="752.855566" style="fill: #cc79a7; stroke: #cc79a7"/>
     <use xlink:href="#m3e90664df9" x="550.604232" y="761.017866" style="fill: #cc79a7; stroke: #cc79a7"/>
     <use xlink:href="#m3e90664df9" x="546.433719" y="737.404606" style="fill: #cc79a7; stroke: #cc79a7"/>
     <use xlink:href="#m3e90664df9" x="555.456981" y="759.83872" style="fill: #cc79a7; stroke: #cc79a7"/>
     <use xlink:href="#m3e90664df9" x="544.495683" y="763.876222" style="fill: #cc79a7; stroke: #cc79a7"/>
     <use xlink:href="#m3e90664df9" x="554.163265" y="783.952222" style="fill: #cc79a7; stroke: #cc79a7"/>
     <use xlink:href="#m3e90664df9" x="553.299321" y="742.585802" style="fill: #cc79a7; stroke: #cc79a7"/>
     <use xlink:href="#m3e90664df9" x="554.332522" y="753.067514" style="fill: #cc79a7; stroke: #cc79a7"/>
     <use xlink:href="#m3e90664df9" x="556.840932" y="783.985244" style="fill: #cc79a7; stroke: #cc79a7"/>
     <use xlink:href="#m3e90664df9" x="554.629543" y="776.830184" style="fill: #cc79a7; stroke: #cc79a7"/>
     <use xlink:href="#m3e90664df9" x="548.293563" y="776.915076" style="fill: #cc79a7; stroke: #cc79a7"/>
     <use xlink:href="#m3e90664df9" x="548.763506" y="766.179848" style="fill: #cc79a7; stroke: #cc79a7"/>
     <use xlink:href="#m3e90664df9" x="553.284092" y="774.634657" style="fill: #cc79a7; stroke: #cc79a7"/>
     <use xlink:href="#m3e90664df9" x="556.54035" y="764.378201" style="fill: #cc79a7; stroke: #cc79a7"/>
     <use xlink:href="#m3e90664df9" x="549.889309" y="773.247628" style="fill: #cc79a7; stroke: #cc79a7"/>
     <use xlink:href="#m3e90664df9" x="550.244894" y="772.458748" style="fill: #cc79a7; stroke: #cc79a7"/>
     <use xlink:href="#m3e90664df9" x="554.50959" y="754.474634" style="fill: #cc79a7; stroke: #cc79a7"/>
     <use xlink:href="#m3e90664df9" x="552.316134" y="761.08831" style="fill: #cc79a7; stroke: #cc79a7"/>
     <use xlink:href="#m3e90664df9" x="556.7216" y="752.901264" style="fill: #cc79a7; stroke: #cc79a7"/>
     <use xlink:href="#m3e90664df9" x="545.276156" y="749.207954" style="fill: #cc79a7; stroke: #cc79a7"/>
     <use xlink:href="#m3e90664df9" x="544.861583" y="734.327631" style="fill: #cc79a7; stroke: #cc79a7"/>
    </g>
   </g>
   <g id="patch_12">
    <path d="M 149.2875 788.106047 
L 170.2125 788.106047 
L 170.2125 767.855144 
L 149.2875 767.855144 
L 149.2875 788.106047 
z
" clip-path="url(#p9e990b484a)" style="fill: #d55e00; opacity: 0.5; stroke: #000000; stroke-linejoin: miter"/>
   </g>
   <g id="line2d_39">
    <path d="M 159.75 788.106047 
L 159.75 810.505626 
" clip-path="url(#p9e990b484a)" style="fill: none; stroke: #000000; stroke-linecap: round"/>
   </g>
   <g id="line2d_40">
    <path d="M 159.75 767.855144 
L 159.75 747.894834 
" clip-path="url(#p9e990b484a)" style="fill: none; stroke: #000000; stroke-linecap: round"/>
   </g>
   <g id="line2d_41">
    <path d="M 154.51875 810.505626 
L 164.98125 810.505626 
" clip-path="url(#p9e990b484a)" style="fill: none; stroke: #000000; stroke-linecap: round"/>
   </g>
   <g id="line2d_42">
    <path d="M 154.51875 747.894834 
L 164.98125 747.894834 
" clip-path="url(#p9e990b484a)" style="fill: none; stroke: #000000; stroke-linecap: round"/>
   </g>
   <g id="patch_13">
    <path d="M 288.7875 789.939398 
L 309.7125 789.939398 
L 309.7125 772.295239 
L 288.7875 772.295239 
L 288.7875 789.939398 
z
" clip-path="url(#p9e990b484a)" style="fill: #0072b2; opacity: 0.5; stroke: #000000; stroke-linejoin: miter"/>
   </g>
   <g id="line2d_43">
    <path d="M 299.25 789.939398 
L 299.25 814.101549 
" clip-path="url(#p9e990b484a)" style="fill: none; stroke: #000000; stroke-linecap: round"/>
   </g>
   <g id="line2d_44">
    <path d="M 299.25 772.295239 
L 299.25 753.685927 
" clip-path="url(#p9e990b484a)" style="fill: none; stroke: #000000; stroke-linecap: round"/>
   </g>
   <g id="line2d_45">
    <path d="M 294.01875 814.101549 
L 304.48125 814.101549 
" clip-path="url(#p9e990b484a)" style="fill: none; stroke: #000000; stroke-linecap: round"/>
   </g>
   <g id="line2d_46">
    <path d="M 294.01875 753.685927 
L 304.48125 753.685927 
" clip-path="url(#p9e990b484a)" style="fill: none; stroke: #000000; stroke-linecap: round"/>
   </g>
   <g id="patch_14">
    <path d="M 428.2875 789.505411 
L 449.2125 789.505411 
L 449.2125 733.747523 
L 428.2875 733.747523 
L 428.2875 789.505411 
z
" clip-path="url(#p9e990b484a)" style="fill: #009e73; opacity: 0.5; stroke: #000000; stroke-linejoin: miter"/>
   </g>
   <g id="line2d_47">
    <path d="M 438.75 789.505411 
L 438.75 825.893984 
" clip-path="url(#p9e990b484a)" style="fill: none; stroke: #000000; stroke-linecap: round"/>
   </g>
   <g id="line2d_48">
    <path d="M 438.75 733.747523 
L 438.75 661.31847 
" clip-path="url(#p9e990b484a)" style="fill: none; stroke: #000000; stroke-linecap: round"/>
   </g>
   <g id="line2d_49">
    <path d="M 433.51875 825.893984 
L 443.98125 825.893984 
" clip-path="url(#p9e990b484a)" style="fill: none; stroke: #000000; stroke-linecap: round"/>
   </g>
   <g id="line2d_50">
    <path d="M 433.51875 661.31847 
L 443.98125 661.31847 
" clip-path="url(#p9e990b484a)" style="fill: none; stroke: #000000; stroke-linecap: round"/>
   </g>
   <g id="patch_15">
    <path d="M 567.7875 775.732421 
L 588.7125 775.732421 
L 588.7125 753.488622 
L 567.7875 753.488622 
L 567.7875 775.732421 
z
" clip-path="url(#p9e990b484a)" style="fill: #cc79a7; opacity: 0.5; stroke: #000000; stroke-linejoin: miter"/>
   </g>
   <g id="line2d_51">
    <path d="M 578.25 775.732421 
L 578.25 790.675582 
" clip-path="url(#p9e990b484a)" style="fill: none; stroke: #000000; stroke-linecap: round"/>
   </g>
   <g id="line2d_52">
    <path d="M 578.25 753.488622 
L 578.25 734.327631 
" clip-path="url(#p9e990b484a)" style="fill: none; stroke: #000000; stroke-linecap: round"/>
   </g>
   <g id="line2d_53">
    <path d="M 573.01875 790.675582 
L 583.48125 790.675582 
" clip-path="url(#p9e990b484a)" style="fill: none; stroke: #000000; stroke-linecap: round"/>
   </g>
   <g id="line2d_54">
    <path d="M 573.01875 734.327631 
L 583.48125 734.327631 
" clip-path="url(#p9e990b484a)" style="fill: none; stroke: #000000; stroke-linecap: round"/>
   </g>
   <g id="line2d_55">
    <path d="M 149.2875 778.433238 
L 170.2125 778.433238 
" clip-path="url(#p9e990b484a)" style="fill: none; stroke: #000000"/>
   </g>
   <g id="line2d_56">
    <path d="M 288.7875 782.411302 
L 309.7125 782.411302 
" clip-path="url(#p9e990b484a)" style="fill: none; stroke: #000000"/>
   </g>
   <g id="line2d_57">
    <path d="M 428.2875 756.940155 
L 449.2125 756.940155 
" clip-path="url(#p9e990b484a)" style="fill: none; stroke: #000000"/>
   </g>
   <g id="line2d_58">
    <path d="M 567.7875 762.819981 
L 588.7125 762.819981 
" clip-path="url(#p9e990b484a)" style="fill: none; stroke: #000000"/>
   </g>
   <g id="patch_16">
    <path d="M 90 961.2 
L 90 583.2 
" style="fill: none; stroke: #262626; stroke-width: 1.25; stroke-linejoin: miter; stroke-linecap: square"/>
   </g>
   <g id="patch_17">
    <path d="M 648 961.2 
L 648 583.2 
" style="fill: none; stroke: #262626; stroke-width: 1.25; stroke-linejoin: miter; stroke-linecap: square"/>
   </g>
   <g id="patch_18">
    <path d="M 90 961.2 
L 648 961.2 
" style="fill: none; stroke: #262626; stroke-width: 1.25; stroke-linejoin: miter; stroke-linecap: square"/>
   </g>
   <g id="patch_19">
    <path d="M 90 583.2 
L 648 583.2 
" style="fill: none; stroke: #262626; stroke-width: 1.25; stroke-linejoin: miter; stroke-linecap: square"/>
   </g>
   <g id="text_22">
    <!-- HF-HRV -->
    <g style="fill: #262626" transform="translate(342.681094 563.2) scale(0.14 -0.14)">
     <defs>
      <path id="Arial-BoldMT-48" d="M 469 0 
L 469 4581 
L 1394 4581 
L 1394 2778 
L 3206 2778 
L 3206 4581 
L 4131 4581 
L 4131 0 
L 3206 0 
L 3206 2003 
L 1394 2003 
L 1394 0 
L 469 0 
z
" transform="scale(0.015625)"/>
      <path id="Arial-BoldMT-46" d="M 472 0 
L 472 4581 
L 3613 4581 
L 3613 3806 
L 1397 3806 
L 1397 2722 
L 3309 2722 
L 3309 1947 
L 1397 1947 
L 1397 0 
L 472 0 
z
" transform="scale(0.015625)"/>
      <path id="Arial-BoldMT-2d" d="M 359 1222 
L 359 2100 
L 2084 2100 
L 2084 1222 
L 359 1222 
z
" transform="scale(0.015625)"/>
      <path id="Arial-BoldMT-52" d="M 469 0 
L 469 4581 
L 2416 4581 
Q 3150 4581 3483 4457 
Q 3816 4334 4016 4018 
Q 4216 3703 4216 3297 
Q 4216 2781 3912 2445 
Q 3609 2109 3006 2022 
Q 3306 1847 3501 1637 
Q 3697 1428 4028 894 
L 4588 0 
L 3481 0 
L 2813 997 
Q 2456 1531 2325 1670 
Q 2194 1809 2047 1861 
Q 1900 1913 1581 1913 
L 1394 1913 
L 1394 0 
L 469 0 
z
M 1394 2644 
L 2078 2644 
Q 2744 2644 2909 2700 
Q 3075 2756 3169 2893 
Q 3263 3031 3263 3238 
Q 3263 3469 3139 3611 
Q 3016 3753 2791 3791 
Q 2678 3806 2116 3806 
L 1394 3806 
L 1394 2644 
z
" transform="scale(0.015625)"/>
      <path id="Arial-BoldMT-56" d="M 1634 0 
L -3 4581 
L 1000 4581 
L 2159 1191 
L 3281 4581 
L 4263 4581 
L 2622 0 
L 1634 0 
z
" transform="scale(0.015625)"/>
     </defs>
     <use xlink:href="#Arial-BoldMT-48"/>
     <use xlink:href="#Arial-BoldMT-46" x="72.216797"/>
     <use xlink:href="#Arial-BoldMT-2d" x="133.300781"/>
     <use xlink:href="#Arial-BoldMT-48" x="166.601562"/>
     <use xlink:href="#Arial-BoldMT-52" x="238.818359"/>
     <use xlink:href="#Arial-BoldMT-56" x="309.285156"/>
    </g>
   </g>
  </g>
 </g>
 <defs>
  <clipPath id="p75a4c1d361">
   <rect x="90" y="129.6" width="558" height="378"/>
  </clipPath>
  <clipPath id="p9e990b484a">
   <rect x="90" y="583.2" width="558" height="378"/>
  </clipPath>
 </defs>
</svg>
