<?xml version="1.0" encoding="utf-8" standalone="no"?>
<!DOCTYPE svg PUBLIC "-//W3C//DTD SVG 1.1//EN"
  "http://www.w3.org/Graphics/SVG/1.1/DTD/svg11.dtd">
<svg xmlns:xlink="http://www.w3.org/1999/xlink" width="720pt" height="360pt" viewBox="0 0 720 360" xmlns="http://www.w3.org/2000/svg" version="1.1">
 <metadata>
  <rdf:RDF xmlns:dc="http://purl.org/dc/elements/1.1/" xmlns:cc="http://creativecommons.org/ns#" xmlns:rdf="http://www.w3.org/1999/02/22-rdf-syntax-ns#">
   <cc:Work>
    <dc:type rdf:resource="http://purl.org/dc/dcmitype/StillImage"/>
    <dc:date>2024-08-20T17:45:35.634938</dc:date>
    <dc:format>image/svg+xml</dc:format>
    <dc:creator>
     <cc:Agent>
      <dc:title>Matplotlib v3.8.0, https://matplotlib.org/</dc:title>
     </cc:Agent>
    </dc:creator>
   </cc:Work>
  </rdf:RDF>
 </metadata>
 <defs>
  <style type="text/css">*{stroke-linejoin: round; stroke-linecap: butt}</style>
 </defs>
 <g id="figure_1">
  <g id="patch_1">
   <path d="M 0 360 
L 720 360 
L 720 0 
L 0 0 
z
" style="fill: #ffffff"/>
  </g>
  <g id="axes_1">
   <g id="patch_2">
    <path d="M 90 320.4 
L 648 320.4 
L 648 43.2 
L 90 43.2 
z
" style="fill: #ffffff"/>
   </g>
   <g id="matplotlib.axis_1">
    <g id="xtick_1">
     <g id="line2d_1">
      <defs>
       <path id="mdce171153f" d="M 0 0 
L 0 6 
" style="stroke: #262626; stroke-width: 1.25"/>
      </defs>
      <g>
       <use xlink:href="#mdce171153f" x="159.75" y="320.4" style="fill: #262626; stroke: #262626; stroke-width: 1.25"/>
      </g>
     </g>
     <g id="text_1">
      <!-- State 1 -->
      <g style="fill: #262626" transform="translate(140.7375 338.489375) scale(0.12 -0.12)">
       <defs>
        <path id="ArialMT-53" d="M 288 1472 
L 859 1522 
Q 900 1178 1048 958 
Q 1197 738 1509 602 
Q 1822 466 2213 466 
Q 2559 466 2825 569 
Q 3091 672 3220 851 
Q 3350 1031 3350 1244 
Q 3350 1459 3225 1620 
Q 3100 1781 2813 1891 
Q 2628 1963 1997 2114 
Q 1366 2266 1113 2400 
Q 784 2572 623 2826 
Q 463 3081 463 3397 
Q 463 3744 659 4045 
Q 856 4347 1234 4503 
Q 1613 4659 2075 4659 
Q 2584 4659 2973 4495 
Q 3363 4331 3572 4012 
Q 3781 3694 3797 3291 
L 3216 3247 
Q 3169 3681 2898 3903 
Q 2628 4125 2100 4125 
Q 1550 4125 1298 3923 
Q 1047 3722 1047 3438 
Q 1047 3191 1225 3031 
Q 1400 2872 2139 2705 
Q 2878 2538 3153 2413 
Q 3553 2228 3743 1945 
Q 3934 1663 3934 1294 
Q 3934 928 3725 604 
Q 3516 281 3123 101 
Q 2731 -78 2241 -78 
Q 1619 -78 1198 103 
Q 778 284 539 648 
Q 300 1013 288 1472 
z
" transform="scale(0.015625)"/>
        <path id="ArialMT-74" d="M 1650 503 
L 1731 6 
Q 1494 -44 1306 -44 
Q 1000 -44 831 53 
Q 663 150 594 308 
Q 525 466 525 972 
L 525 2881 
L 113 2881 
L 113 3319 
L 525 3319 
L 525 4141 
L 1084 4478 
L 1084 3319 
L 1650 3319 
L 1650 2881 
L 1084 2881 
L 1084 941 
Q 1084 700 1114 631 
Q 1144 563 1211 522 
Q 1278 481 1403 481 
Q 1497 481 1650 503 
z
" transform="scale(0.015625)"/>
        <path id="ArialMT-61" d="M 2588 409 
Q 2275 144 1986 34 
Q 1697 -75 1366 -75 
Q 819 -75 525 192 
Q 231 459 231 875 
Q 231 1119 342 1320 
Q 453 1522 633 1644 
Q 813 1766 1038 1828 
Q 1203 1872 1538 1913 
Q 2219 1994 2541 2106 
Q 2544 2222 2544 2253 
Q 2544 2597 2384 2738 
Q 2169 2928 1744 2928 
Q 1347 2928 1158 2789 
Q 969 2650 878 2297 
L 328 2372 
Q 403 2725 575 2942 
Q 747 3159 1072 3276 
Q 1397 3394 1825 3394 
Q 2250 3394 2515 3294 
Q 2781 3194 2906 3042 
Q 3031 2891 3081 2659 
Q 3109 2516 3109 2141 
L 3109 1391 
Q 3109 606 3145 398 
Q 3181 191 3288 0 
L 2700 0 
Q 2613 175 2588 409 
z
M 2541 1666 
Q 2234 1541 1622 1453 
Q 1275 1403 1131 1340 
Q 988 1278 909 1158 
Q 831 1038 831 891 
Q 831 666 1001 516 
Q 1172 366 1500 366 
Q 1825 366 2078 508 
Q 2331 650 2450 897 
Q 2541 1088 2541 1459 
L 2541 1666 
z
" transform="scale(0.015625)"/>
        <path id="ArialMT-65" d="M 2694 1069 
L 3275 997 
Q 3138 488 2766 206 
Q 2394 -75 1816 -75 
Q 1088 -75 661 373 
Q 234 822 234 1631 
Q 234 2469 665 2931 
Q 1097 3394 1784 3394 
Q 2450 3394 2872 2941 
Q 3294 2488 3294 1666 
Q 3294 1616 3291 1516 
L 816 1516 
Q 847 969 1125 678 
Q 1403 388 1819 388 
Q 2128 388 2347 550 
Q 2566 713 2694 1069 
z
M 847 1978 
L 2700 1978 
Q 2663 2397 2488 2606 
Q 2219 2931 1791 2931 
Q 1403 2931 1139 2672 
Q 875 2413 847 1978 
z
" transform="scale(0.015625)"/>
        <path id="ArialMT-20" transform="scale(0.015625)"/>
        <path id="ArialMT-31" d="M 2384 0 
L 1822 0 
L 1822 3584 
Q 1619 3391 1289 3197 
Q 959 3003 697 2906 
L 697 3450 
Q 1169 3672 1522 3987 
Q 1875 4303 2022 4600 
L 2384 4600 
L 2384 0 
z
" transform="scale(0.015625)"/>
       </defs>
       <use xlink:href="#ArialMT-53"/>
       <use xlink:href="#ArialMT-74" x="66.699219"/>
       <use xlink:href="#ArialMT-61" x="94.482422"/>
       <use xlink:href="#ArialMT-74" x="150.097656"/>
       <use xlink:href="#ArialMT-65" x="177.880859"/>
       <use xlink:href="#ArialMT-20" x="233.496094"/>
       <use xlink:href="#ArialMT-31" x="261.279297"/>
      </g>
     </g>
    </g>
    <g id="xtick_2">
     <g id="line2d_2">
      <g>
       <use xlink:href="#mdce171153f" x="299.25" y="320.4" style="fill: #262626; stroke: #262626; stroke-width: 1.25"/>
      </g>
     </g>
     <g id="text_2">
      <!-- State 2 -->
      <g style="fill: #262626" transform="translate(280.2375 338.489375) scale(0.12 -0.12)">
       <defs>
        <path id="ArialMT-32" d="M 3222 541 
L 3222 0 
L 194 0 
Q 188 203 259 391 
Q 375 700 629 1000 
Q 884 1300 1366 1694 
Q 2113 2306 2375 2664 
Q 2638 3022 2638 3341 
Q 2638 3675 2398 3904 
Q 2159 4134 1775 4134 
Q 1369 4134 1125 3890 
Q 881 3647 878 3216 
L 300 3275 
Q 359 3922 746 4261 
Q 1134 4600 1788 4600 
Q 2447 4600 2831 4234 
Q 3216 3869 3216 3328 
Q 3216 3053 3103 2787 
Q 2991 2522 2730 2228 
Q 2469 1934 1863 1422 
Q 1356 997 1212 845 
Q 1069 694 975 541 
L 3222 541 
z
" transform="scale(0.015625)"/>
       </defs>
       <use xlink:href="#ArialMT-53"/>
       <use xlink:href="#ArialMT-74" x="66.699219"/>
       <use xlink:href="#ArialMT-61" x="94.482422"/>
       <use xlink:href="#ArialMT-74" x="150.097656"/>
       <use xlink:href="#ArialMT-65" x="177.880859"/>
       <use xlink:href="#ArialMT-20" x="233.496094"/>
       <use xlink:href="#ArialMT-32" x="261.279297"/>
      </g>
     </g>
    </g>
    <g id="xtick_3">
     <g id="line2d_3">
      <g>
       <use xlink:href="#mdce171153f" x="438.75" y="320.4" style="fill: #262626; stroke: #262626; stroke-width: 1.25"/>
      </g>
     </g>
     <g id="text_3">
      <!-- State 3 -->
      <g style="fill: #262626" transform="translate(419.7375 338.489375) scale(0.12 -0.12)">
       <defs>
        <path id="ArialMT-33" d="M 269 1209 
L 831 1284 
Q 928 806 1161 595 
Q 1394 384 1728 384 
Q 2125 384 2398 659 
Q 2672 934 2672 1341 
Q 2672 1728 2419 1979 
Q 2166 2231 1775 2231 
Q 1616 2231 1378 2169 
L 1441 2663 
Q 1497 2656 1531 2656 
Q 1891 2656 2178 2843 
Q 2466 3031 2466 3422 
Q 2466 3731 2256 3934 
Q 2047 4138 1716 4138 
Q 1388 4138 1169 3931 
Q 950 3725 888 3313 
L 325 3413 
Q 428 3978 793 4289 
Q 1159 4600 1703 4600 
Q 2078 4600 2393 4439 
Q 2709 4278 2876 4000 
Q 3044 3722 3044 3409 
Q 3044 3113 2884 2869 
Q 2725 2625 2413 2481 
Q 2819 2388 3044 2092 
Q 3269 1797 3269 1353 
Q 3269 753 2831 336 
Q 2394 -81 1725 -81 
Q 1122 -81 723 278 
Q 325 638 269 1209 
z
" transform="scale(0.015625)"/>
       </defs>
       <use xlink:href="#ArialMT-53"/>
       <use xlink:href="#ArialMT-74" x="66.699219"/>
       <use xlink:href="#ArialMT-61" x="94.482422"/>
       <use xlink:href="#ArialMT-74" x="150.097656"/>
       <use xlink:href="#ArialMT-65" x="177.880859"/>
       <use xlink:href="#ArialMT-20" x="233.496094"/>
       <use xlink:href="#ArialMT-33" x="261.279297"/>
      </g>
     </g>
    </g>
    <g id="xtick_4">
     <g id="line2d_4">
      <g>
       <use xlink:href="#mdce171153f" x="578.25" y="320.4" style="fill: #262626; stroke: #262626; stroke-width: 1.25"/>
      </g>
     </g>
     <g id="text_4">
      <!-- State 4 -->
      <g style="fill: #262626" transform="translate(559.2375 338.489375) scale(0.12 -0.12)">
       <defs>
        <path id="ArialMT-34" d="M 2069 0 
L 2069 1097 
L 81 1097 
L 81 1613 
L 2172 4581 
L 2631 4581 
L 2631 1613 
L 3250 1613 
L 3250 1097 
L 2631 1097 
L 2631 0 
L 2069 0 
z
M 2069 1613 
L 2069 3678 
L 634 1613 
L 2069 1613 
z
" transform="scale(0.015625)"/>
       </defs>
       <use xlink:href="#ArialMT-53"/>
       <use xlink:href="#ArialMT-74" x="66.699219"/>
       <use xlink:href="#ArialMT-61" x="94.482422"/>
       <use xlink:href="#ArialMT-74" x="150.097656"/>
       <use xlink:href="#ArialMT-65" x="177.880859"/>
       <use xlink:href="#ArialMT-20" x="233.496094"/>
       <use xlink:href="#ArialMT-34" x="261.279297"/>
      </g>
     </g>
    </g>
   </g>
   <g id="matplotlib.axis_2">
    <g id="ytick_1">
     <g id="line2d_5">
      <defs>
       <path id="m91066f75ed" d="M 0 0 
L -6 0 
" style="stroke: #262626; stroke-width: 1.25"/>
      </defs>
      <g>
       <use xlink:href="#m91066f75ed" x="90" y="320.4" style="fill: #262626; stroke: #262626; stroke-width: 1.25"/>
      </g>
     </g>
     <g id="text_5">
      <!-- 0.0 -->
      <g style="fill: #262626" transform="translate(65.21 324.336797) scale(0.11 -0.11)">
       <defs>
        <path id="ArialMT-30" d="M 266 2259 
Q 266 3072 433 3567 
Q 600 4063 929 4331 
Q 1259 4600 1759 4600 
Q 2128 4600 2406 4451 
Q 2684 4303 2865 4023 
Q 3047 3744 3150 3342 
Q 3253 2941 3253 2259 
Q 3253 1453 3087 958 
Q 2922 463 2592 192 
Q 2263 -78 1759 -78 
Q 1097 -78 719 397 
Q 266 969 266 2259 
z
M 844 2259 
Q 844 1131 1108 757 
Q 1372 384 1759 384 
Q 2147 384 2411 759 
Q 2675 1134 2675 2259 
Q 2675 3391 2411 3762 
Q 2147 4134 1753 4134 
Q 1366 4134 1134 3806 
Q 844 3388 844 2259 
z
" transform="scale(0.015625)"/>
        <path id="ArialMT-2e" d="M 581 0 
L 581 641 
L 1222 641 
L 1222 0 
L 581 0 
z
" transform="scale(0.015625)"/>
       </defs>
       <use xlink:href="#ArialMT-30"/>
       <use xlink:href="#ArialMT-2e" x="55.615234"/>
       <use xlink:href="#ArialMT-30" x="83.398438"/>
      </g>
     </g>
    </g>
    <g id="ytick_2">
     <g id="line2d_6">
      <g>
       <use xlink:href="#m91066f75ed" x="90" y="264.96" style="fill: #262626; stroke: #262626; stroke-width: 1.25"/>
      </g>
     </g>
     <g id="text_6">
      <!-- 0.2 -->
      <g style="fill: #262626" transform="translate(65.21 268.896797) scale(0.11 -0.11)">
       <use xlink:href="#ArialMT-30"/>
       <use xlink:href="#ArialMT-2e" x="55.615234"/>
       <use xlink:href="#ArialMT-32" x="83.398438"/>
      </g>
     </g>
    </g>
    <g id="ytick_3">
     <g id="line2d_7">
      <g>
       <use xlink:href="#m91066f75ed" x="90" y="209.52" style="fill: #262626; stroke: #262626; stroke-width: 1.25"/>
      </g>
     </g>
     <g id="text_7">
      <!-- 0.4 -->
      <g style="fill: #262626" transform="translate(65.21 213.456797) scale(0.11 -0.11)">
       <use xlink:href="#ArialMT-30"/>
       <use xlink:href="#ArialMT-2e" x="55.615234"/>
       <use xlink:href="#ArialMT-34" x="83.398438"/>
      </g>
     </g>
    </g>
    <g id="ytick_4">
     <g id="line2d_8">
      <g>
       <use xlink:href="#m91066f75ed" x="90" y="154.08" style="fill: #262626; stroke: #262626; stroke-width: 1.25"/>
      </g>
     </g>
     <g id="text_8">
      <!-- 0.6 -->
      <g style="fill: #262626" transform="translate(65.21 158.016797) scale(0.11 -0.11)">
       <defs>
        <path id="ArialMT-36" d="M 3184 3459 
L 2625 3416 
Q 2550 3747 2413 3897 
Q 2184 4138 1850 4138 
Q 1581 4138 1378 3988 
Q 1113 3794 959 3422 
Q 806 3050 800 2363 
Q 1003 2672 1297 2822 
Q 1591 2972 1913 2972 
Q 2475 2972 2870 2558 
Q 3266 2144 3266 1488 
Q 3266 1056 3080 686 
Q 2894 316 2569 119 
Q 2244 -78 1831 -78 
Q 1128 -78 684 439 
Q 241 956 241 2144 
Q 241 3472 731 4075 
Q 1159 4600 1884 4600 
Q 2425 4600 2770 4297 
Q 3116 3994 3184 3459 
z
M 888 1484 
Q 888 1194 1011 928 
Q 1134 663 1356 523 
Q 1578 384 1822 384 
Q 2178 384 2434 671 
Q 2691 959 2691 1453 
Q 2691 1928 2437 2201 
Q 2184 2475 1800 2475 
Q 1419 2475 1153 2201 
Q 888 1928 888 1484 
z
" transform="scale(0.015625)"/>
       </defs>
       <use xlink:href="#ArialMT-30"/>
       <use xlink:href="#ArialMT-2e" x="55.615234"/>
       <use xlink:href="#ArialMT-36" x="83.398438"/>
      </g>
     </g>
    </g>
    <g id="ytick_5">
     <g id="line2d_9">
      <g>
       <use xlink:href="#m91066f75ed" x="90" y="98.64" style="fill: #262626; stroke: #262626; stroke-width: 1.25"/>
      </g>
     </g>
     <g id="text_9">
      <!-- 0.8 -->
      <g style="fill: #262626" transform="translate(65.21 102.576797) scale(0.11 -0.11)">
       <defs>
        <path id="ArialMT-38" d="M 1131 2484 
Q 781 2613 612 2850 
Q 444 3088 444 3419 
Q 444 3919 803 4259 
Q 1163 4600 1759 4600 
Q 2359 4600 2725 4251 
Q 3091 3903 3091 3403 
Q 3091 3084 2923 2848 
Q 2756 2613 2416 2484 
Q 2838 2347 3058 2040 
Q 3278 1734 3278 1309 
Q 3278 722 2862 322 
Q 2447 -78 1769 -78 
Q 1091 -78 675 323 
Q 259 725 259 1325 
Q 259 1772 486 2073 
Q 713 2375 1131 2484 
z
M 1019 3438 
Q 1019 3113 1228 2906 
Q 1438 2700 1772 2700 
Q 2097 2700 2305 2904 
Q 2513 3109 2513 3406 
Q 2513 3716 2298 3927 
Q 2084 4138 1766 4138 
Q 1444 4138 1231 3931 
Q 1019 3725 1019 3438 
z
M 838 1322 
Q 838 1081 952 856 
Q 1066 631 1291 507 
Q 1516 384 1775 384 
Q 2178 384 2440 643 
Q 2703 903 2703 1303 
Q 2703 1709 2433 1975 
Q 2163 2241 1756 2241 
Q 1359 2241 1098 1978 
Q 838 1716 838 1322 
z
" transform="scale(0.015625)"/>
       </defs>
       <use xlink:href="#ArialMT-30"/>
       <use xlink:href="#ArialMT-2e" x="55.615234"/>
       <use xlink:href="#ArialMT-38" x="83.398438"/>
      </g>
     </g>
    </g>
    <g id="ytick_6">
     <g id="line2d_10">
      <g>
       <use xlink:href="#m91066f75ed" x="90" y="43.2" style="fill: #262626; stroke: #262626; stroke-width: 1.25"/>
      </g>
     </g>
     <g id="text_10">
      <!-- 1.0 -->
      <g style="fill: #262626" transform="translate(65.21 47.136797) scale(0.11 -0.11)">
       <use xlink:href="#ArialMT-31"/>
       <use xlink:href="#ArialMT-2e" x="55.615234"/>
       <use xlink:href="#ArialMT-30" x="83.398438"/>
      </g>
     </g>
    </g>
    <g id="text_11">
     <!-- Proportion -->
     <g style="fill: #262626" transform="translate(58.825 209.480625) rotate(-90) scale(0.12 -0.12)">
      <defs>
       <path id="ArialMT-50" d="M 494 0 
L 494 4581 
L 2222 4581 
Q 2678 4581 2919 4538 
Q 3256 4481 3484 4323 
Q 3713 4166 3852 3881 
Q 3991 3597 3991 3256 
Q 3991 2672 3619 2267 
Q 3247 1863 2275 1863 
L 1100 1863 
L 1100 0 
L 494 0 
z
M 1100 2403 
L 2284 2403 
Q 2872 2403 3119 2622 
Q 3366 2841 3366 3238 
Q 3366 3525 3220 3729 
Q 3075 3934 2838 4000 
Q 2684 4041 2272 4041 
L 1100 4041 
L 1100 2403 
z
" transform="scale(0.015625)"/>
       <path id="ArialMT-72" d="M 416 0 
L 416 3319 
L 922 3319 
L 922 2816 
Q 1116 3169 1280 3281 
Q 1444 3394 1641 3394 
Q 1925 3394 2219 3213 
L 2025 2691 
Q 1819 2813 1613 2813 
Q 1428 2813 1281 2702 
Q 1134 2591 1072 2394 
Q 978 2094 978 1738 
L 978 0 
L 416 0 
z
" transform="scale(0.015625)"/>
       <path id="ArialMT-6f" d="M 213 1659 
Q 213 2581 725 3025 
Q 1153 3394 1769 3394 
Q 2453 3394 2887 2945 
Q 3322 2497 3322 1706 
Q 3322 1066 3130 698 
Q 2938 331 2570 128 
Q 2203 -75 1769 -75 
Q 1072 -75 642 372 
Q 213 819 213 1659 
z
M 791 1659 
Q 791 1022 1069 705 
Q 1347 388 1769 388 
Q 2188 388 2466 706 
Q 2744 1025 2744 1678 
Q 2744 2294 2464 2611 
Q 2184 2928 1769 2928 
Q 1347 2928 1069 2612 
Q 791 2297 791 1659 
z
" transform="scale(0.015625)"/>
       <path id="ArialMT-70" d="M 422 -1272 
L 422 3319 
L 934 3319 
L 934 2888 
Q 1116 3141 1344 3267 
Q 1572 3394 1897 3394 
Q 2322 3394 2647 3175 
Q 2972 2956 3137 2557 
Q 3303 2159 3303 1684 
Q 3303 1175 3120 767 
Q 2938 359 2589 142 
Q 2241 -75 1856 -75 
Q 1575 -75 1351 44 
Q 1128 163 984 344 
L 984 -1272 
L 422 -1272 
z
M 931 1641 
Q 931 1000 1190 694 
Q 1450 388 1819 388 
Q 2194 388 2461 705 
Q 2728 1022 2728 1688 
Q 2728 2322 2467 2637 
Q 2206 2953 1844 2953 
Q 1484 2953 1207 2617 
Q 931 2281 931 1641 
z
" transform="scale(0.015625)"/>
       <path id="ArialMT-69" d="M 425 3934 
L 425 4581 
L 988 4581 
L 988 3934 
L 425 3934 
z
M 425 0 
L 425 3319 
L 988 3319 
L 988 0 
L 425 0 
z
" transform="scale(0.015625)"/>
       <path id="ArialMT-6e" d="M 422 0 
L 422 3319 
L 928 3319 
L 928 2847 
Q 1294 3394 1984 3394 
Q 2284 3394 2536 3286 
Q 2788 3178 2913 3003 
Q 3038 2828 3088 2588 
Q 3119 2431 3119 2041 
L 3119 0 
L 2556 0 
L 2556 2019 
Q 2556 2363 2490 2533 
Q 2425 2703 2258 2804 
Q 2091 2906 1866 2906 
Q 1506 2906 1245 2678 
Q 984 2450 984 1813 
L 984 0 
L 422 0 
z
" transform="scale(0.015625)"/>
      </defs>
      <use xlink:href="#ArialMT-50"/>
      <use xlink:href="#ArialMT-72" x="66.699219"/>
      <use xlink:href="#ArialMT-6f" x="100"/>
      <use xlink:href="#ArialMT-70" x="155.615234"/>
      <use xlink:href="#ArialMT-6f" x="211.230469"/>
      <use xlink:href="#ArialMT-72" x="266.845703"/>
      <use xlink:href="#ArialMT-74" x="300.146484"/>
      <use xlink:href="#ArialMT-69" x="327.929688"/>
      <use xlink:href="#ArialMT-6f" x="350.146484"/>
      <use xlink:href="#ArialMT-6e" x="405.761719"/>
     </g>
    </g>
   </g>
   <g id="PolyCollection_1">
    <defs>
     <path id="m4a03e34fce" d="M 159.880275 -97.803878 
L 159.619725 -97.803878 
L 159.581175 -99.333366 
L 159.534953 -100.862854 
L 159.480709 -102.392341 
L 159.418412 -103.921829 
L 159.348404 -105.451317 
L 159.271417 -106.980805 
L 159.188542 -108.510293 
L 159.101143 -110.03978 
L 159.010713 -111.569268 
L 158.918682 -113.098756 
L 158.826174 -114.628244 
L 158.733767 -116.157732 
L 158.64125 -117.68722 
L 158.547443 -119.216707 
L 158.450085 -120.746195 
L 158.345836 -122.275683 
L 158.230394 -123.805171 
L 158.098737 -125.334659 
L 157.945469 -126.864147 
L 157.765234 -128.393634 
L 157.553169 -129.923122 
L 157.305323 -131.45261 
L 157.019009 -132.982098 
L 156.693026 -134.511586 
L 156.327735 -136.041073 
L 155.924963 -137.570561 
L 155.487751 -139.100049 
L 155.019973 -140.629537 
L 154.525887 -142.159025 
L 154.009657 -143.688513 
L 153.474935 -145.218 
L 152.924554 -146.747488 
L 152.360373 -148.276976 
L 151.783314 -149.806464 
L 151.193581 -151.335952 
L 150.591051 -152.86544 
L 149.975783 -154.394927 
L 149.348593 -155.924415 
L 148.711619 -157.453903 
L 148.068817 -158.983391 
L 147.42632 -160.512879 
L 146.792615 -162.042366 
L 146.178504 -163.571854 
L 145.596847 -165.101342 
L 145.062076 -166.63083 
L 144.589527 -168.160318 
L 144.194604 -169.689806 
L 143.891841 -171.219293 
L 143.693916 -172.748781 
L 143.610683 -174.278269 
L 143.648307 -175.807757 
L 143.808559 -177.337245 
L 144.088368 -178.866733 
L 144.479673 -180.39622 
L 144.96963 -181.925708 
L 145.541185 -183.455196 
L 146.173999 -184.984684 
L 146.845664 -186.514172 
L 147.533126 -188.04366 
L 148.214186 -189.573147 
L 148.868953 -191.102635 
L 149.481091 -192.632123 
L 150.03877 -194.161611 
L 150.535196 -195.691099 
L 150.968704 -197.220586 
L 151.342402 -198.750074 
L 151.663431 -200.279562 
L 151.94193 -201.80905 
L 152.189828 -203.338538 
L 152.419615 -204.868026 
L 152.643191 -206.397513 
L 152.870925 -207.927001 
L 153.110986 -209.456489 
L 153.368976 -210.985977 
L 153.647861 -212.515465 
L 153.948158 -214.044953 
L 154.268322 -215.57444 
L 154.605232 -217.103928 
L 154.954723 -218.633416 
L 155.312084 -220.162904 
L 155.672478 -221.692392 
L 156.031255 -223.221879 
L 156.38415 -224.751367 
L 156.727394 -226.280855 
L 157.057737 -227.810343 
L 157.372435 -229.339831 
L 157.669211 -230.869319 
L 157.946228 -232.398806 
L 158.202061 -233.928294 
L 158.435701 -235.457782 
L 158.646557 -236.98727 
L 158.834476 -238.516758 
L 158.999739 -240.046246 
L 159.143057 -241.575733 
L 159.265537 -243.105221 
L 159.368625 -244.634709 
L 159.454033 -246.164197 
L 159.523656 -247.693685 
L 159.579477 -249.223173 
L 159.920523 -249.223173 
L 159.920523 -249.223173 
L 159.976344 -247.693685 
L 160.045967 -246.164197 
L 160.131375 -244.634709 
L 160.234463 -243.105221 
L 160.356943 -241.575733 
L 160.500261 -240.046246 
L 160.665524 -238.516758 
L 160.853443 -236.98727 
L 161.064299 -235.457782 
L 161.297939 -233.928294 
L 161.553772 -232.398806 
L 161.830789 -230.869319 
L 162.127565 -229.339831 
L 162.442263 -227.810343 
L 162.772606 -226.280855 
L 163.11585 -224.751367 
L 163.468745 -223.221879 
L 163.827522 -221.692392 
L 164.187916 -220.162904 
L 164.545277 -218.633416 
L 164.894768 -217.103928 
L 165.231678 -215.57444 
L 165.551842 -214.044953 
L 165.852139 -212.515465 
L 166.131024 -210.985977 
L 166.389014 -209.456489 
L 166.629075 -207.927001 
L 166.856809 -206.397513 
L 167.080385 -204.868026 
L 167.310172 -203.338538 
L 167.55807 -201.80905 
L 167.836569 -200.279562 
L 168.157598 -198.750074 
L 168.531296 -197.220586 
L 168.964804 -195.691099 
L 169.46123 -194.161611 
L 170.018909 -192.632123 
L 170.631047 -191.102635 
L 171.285814 -189.573147 
L 171.966874 -188.04366 
L 172.654336 -186.514172 
L 173.326001 -184.984684 
L 173.958815 -183.455196 
L 174.53037 -181.925708 
L 175.020327 -180.39622 
L 175.411632 -178.866733 
L 175.691441 -177.337245 
L 175.851693 -175.807757 
L 175.889317 -174.278269 
L 175.806084 -172.748781 
L 175.608159 -171.219293 
L 175.305396 -169.689806 
L 174.910473 -168.160318 
L 174.437924 -166.63083 
L 173.903153 -165.101342 
L 173.321496 -163.571854 
L 172.707385 -162.042366 
L 172.07368 -160.512879 
L 171.431183 -158.983391 
L 170.788381 -157.453903 
L 170.151407 -155.924415 
L 169.524217 -154.394927 
L 168.908949 -152.86544 
L 168.306419 -151.335952 
L 167.716686 -149.806464 
L 167.139627 -148.276976 
L 166.575446 -146.747488 
L 166.025065 -145.218 
L 165.490343 -143.688513 
L 164.974113 -142.159025 
L 164.480027 -140.629537 
L 164.012249 -139.100049 
L 163.575037 -137.570561 
L 163.172265 -136.041073 
L 162.806974 -134.511586 
L 162.480991 -132.982098 
L 162.194677 -131.45261 
L 161.946831 -129.923122 
L 161.734766 -128.393634 
L 161.554531 -126.864147 
L 161.401263 -125.334659 
L 161.269606 -123.805171 
L 161.154164 -122.275683 
L 161.049915 -120.746195 
L 160.952557 -119.216707 
L 160.85875 -117.68722 
L 160.766233 -116.157732 
L 160.673826 -114.628244 
L 160.581318 -113.098756 
L 160.489287 -111.569268 
L 160.398857 -110.03978 
L 160.311458 -108.510293 
L 160.228583 -106.980805 
L 160.151596 -105.451317 
L 160.081588 -103.921829 
L 160.019291 -102.392341 
L 159.965047 -100.862854 
L 159.918825 -99.333366 
L 159.880275 -97.803878 
z
" style="stroke: #d55e00; stroke-width: 2"/>
    </defs>
    <g clip-path="url(#p75f7d3aa1f)">
     <use xlink:href="#m4a03e34fce" x="0" y="360" style="fill: #d55e00; fill-opacity: 0.3; stroke: #d55e00; stroke-width: 2"/>
    </g>
   </g>
   <g id="PolyCollection_2">
    <defs>
     <path id="mc776415b9c" d="M 300.151859 -43.798317 
L 298.348141 -43.798317 
L 298.034824 -44.168754 
L 297.633874 -44.539191 
L 297.128282 -44.909629 
L 296.50012 -45.280066 
L 295.731271 -45.650503 
L 294.804374 -46.020941 
L 293.703981 -46.391378 
L 292.41787 -46.761815 
L 290.938434 -47.132253 
L 289.264034 -47.50269 
L 287.400171 -47.873127 
L 285.360332 -48.243565 
L 283.166332 -48.614002 
L 280.848035 -48.984439 
L 278.442344 -49.354876 
L 275.991458 -49.725314 
L 273.540442 -50.095751 
L 271.134275 -50.466188 
L 268.814624 -50.836626 
L 266.616671 -51.207063 
L 264.566333 -51.5775 
L 262.678245 -51.947938 
L 260.954792 -52.318375 
L 259.386384 -52.688812 
L 257.953029 -53.05925 
L 256.627086 -53.429687 
L 255.376961 -53.800124 
L 254.171312 -54.170562 
L 252.983322 -54.540999 
L 251.794493 -54.911436 
L 250.597535 -55.281874 
L 249.397957 -55.652311 
L 248.214159 -56.022748 
L 247.076007 -56.393186 
L 246.022026 -56.763623 
L 245.095543 -57.13406 
L 244.340217 -57.504498 
L 243.795469 -57.874935 
L 243.492305 -58.245372 
L 243.45 -58.615809 
L 243.673977 -58.986247 
L 244.155071 -59.356684 
L 244.870229 -59.727121 
L 245.784527 -60.097559 
L 246.854256 -60.467996 
L 248.030748 -60.838433 
L 249.264552 -61.208871 
L 250.509564 -61.579308 
L 251.726739 -61.949745 
L 252.887093 -62.320183 
L 253.973768 -62.69062 
L 254.983011 -63.061057 
L 255.924044 -63.431495 
L 256.817852 -63.801932 
L 257.695002 -64.172369 
L 258.592701 -64.542807 
L 259.551294 -64.913244 
L 260.610518 -65.283681 
L 261.805782 -65.654119 
L 263.164794 -66.024556 
L 264.704806 -66.394993 
L 266.430728 -66.765431 
L 268.334256 -67.135868 
L 270.394111 -67.506305 
L 272.577348 -67.876742 
L 274.841621 -68.24718 
L 277.138176 -68.617617 
L 279.415297 -68.988054 
L 281.621892 -69.358492 
L 283.710883 -69.728929 
L 285.642145 -70.099366 
L 287.384743 -70.469804 
L 288.918346 -70.840241 
L 290.233763 -71.210678 
L 291.332616 -71.581116 
L 292.226273 -71.951553 
L 292.934184 -72.32199 
L 293.481817 -72.692428 
L 293.898384 -73.062865 
L 294.214565 -73.433302 
L 294.460396 -73.80374 
L 294.663448 -74.174177 
L 294.847426 -74.544614 
L 295.031213 -74.915052 
L 295.228403 -75.285489 
L 295.44728 -75.655926 
L 295.691195 -76.026364 
L 295.95926 -76.396801 
L 296.247254 -76.767238 
L 296.548638 -77.137675 
L 296.855582 -77.508113 
L 297.15991 -77.87855 
L 297.453895 -78.248987 
L 297.730864 -78.619425 
L 297.985596 -78.989862 
L 298.214506 -79.360299 
L 298.415657 -79.730737 
L 298.588619 -80.101174 
L 298.734237 -80.471611 
L 299.765763 -80.471611 
L 299.765763 -80.471611 
L 299.911381 -80.101174 
L 300.084343 -79.730737 
L 300.285494 -79.360299 
L 300.514404 -78.989862 
L 300.769136 -78.619425 
L 301.046105 -78.248987 
L 301.34009 -77.87855 
L 301.644418 -77.508113 
L 301.951362 -77.137675 
L 302.252746 -76.767238 
L 302.54074 -76.396801 
L 302.808805 -76.026364 
L 303.05272 -75.655926 
L 303.271597 -75.285489 
L 303.468787 -74.915052 
L 303.652574 -74.544614 
L 303.836552 -74.174177 
L 304.039604 -73.80374 
L 304.285435 -73.433302 
L 304.601616 -73.062865 
L 305.018183 -72.692428 
L 305.565816 -72.32199 
L 306.273727 -71.951553 
L 307.167384 -71.581116 
L 308.266237 -71.210678 
L 309.581654 -70.840241 
L 311.115257 -70.469804 
L 312.857855 -70.099366 
L 314.789117 -69.728929 
L 316.878108 -69.358492 
L 319.084703 -68.988054 
L 321.361824 -68.617617 
L 323.658379 -68.24718 
L 325.922652 -67.876742 
L 328.105889 -67.506305 
L 330.165744 -67.135868 
L 332.069272 -66.765431 
L 333.795194 -66.394993 
L 335.335206 -66.024556 
L 336.694218 -65.654119 
L 337.889482 -65.283681 
L 338.948706 -64.913244 
L 339.907299 -64.542807 
L 340.804998 -64.172369 
L 341.682148 -63.801932 
L 342.575956 -63.431495 
L 343.516989 -63.061057 
L 344.526232 -62.69062 
L 345.612907 -62.320183 
L 346.773261 -61.949745 
L 347.990436 -61.579308 
L 349.235448 -61.208871 
L 350.469252 -60.838433 
L 351.645744 -60.467996 
L 352.715473 -60.097559 
L 353.629771 -59.727121 
L 354.344929 -59.356684 
L 354.826023 -58.986247 
L 355.05 -58.615809 
L 355.007695 -58.245372 
L 354.704531 -57.874935 
L 354.159783 -57.504498 
L 353.404457 -57.13406 
L 352.477974 -56.763623 
L 351.423993 -56.393186 
L 350.285841 -56.022748 
L 349.102043 -55.652311 
L 347.902465 -55.281874 
L 346.705507 -54.911436 
L 345.516678 -54.540999 
L 344.328688 -54.170562 
L 343.123039 -53.800124 
L 341.872914 -53.429687 
L 340.546971 -53.05925 
L 339.113616 -52.688812 
L 337.545208 -52.318375 
L 335.821755 -51.947938 
L 333.933667 -51.5775 
L 331.883329 -51.207063 
L 329.685376 -50.836626 
L 327.365725 -50.466188 
L 324.959558 -50.095751 
L 322.508542 -49.725314 
L 320.057656 -49.354876 
L 317.651965 -48.984439 
L 315.333668 -48.614002 
L 313.139668 -48.243565 
L 311.099829 -47.873127 
L 309.235966 -47.50269 
L 307.561566 -47.132253 
L 306.08213 -46.761815 
L 304.796019 -46.391378 
L 303.695626 -46.020941 
L 302.768729 -45.650503 
L 301.99988 -45.280066 
L 301.371718 -44.909629 
L 300.866126 -44.539191 
L 300.465176 -44.168754 
L 300.151859 -43.798317 
z
" style="stroke: #0072b2; stroke-width: 2"/>
    </defs>
    <g clip-path="url(#p75f7d3aa1f)">
     <use xlink:href="#mc776415b9c" x="0" y="360" style="fill: #0072b2; fill-opacity: 0.3; stroke: #0072b2; stroke-width: 2"/>
    </g>
   </g>
   <g id="PolyCollection_3">
    <defs>
     <path id="ma64f2e0433" d="M 438.911206 -27.855301 
L 438.588794 -27.855301 
L 438.541684 -29.119905 
L 438.484725 -30.38451 
L 438.417038 -31.649115 
L 438.337979 -32.91372 
L 438.247206 -34.178324 
L 438.144734 -35.442929 
L 438.030968 -36.707534 
L 437.906703 -37.972139 
L 437.77308 -39.236744 
L 437.631508 -40.501348 
L 437.483543 -41.765953 
L 437.330737 -43.030558 
L 437.174461 -44.295163 
L 437.015726 -45.559768 
L 436.855007 -46.824372 
L 436.692103 -48.088977 
L 436.526034 -49.353582 
L 436.354999 -50.618187 
L 436.176398 -51.882791 
L 435.986924 -53.147396 
L 435.782722 -54.412001 
L 435.559591 -55.676606 
L 435.31324 -56.941211 
L 435.03954 -58.205815 
L 434.734791 -59.47042 
L 434.395947 -60.735025 
L 434.020807 -61.99963 
L 433.60815 -63.264235 
L 433.15781 -64.528839 
L 432.670704 -65.793444 
L 432.148811 -67.058049 
L 431.595136 -68.322654 
L 431.013644 -69.587258 
L 430.409211 -70.851863 
L 429.787562 -72.116468 
L 429.155218 -73.381073 
L 428.519417 -74.645678 
L 427.88801 -75.910282 
L 427.269297 -77.174887 
L 426.671789 -78.439492 
L 426.103902 -79.704097 
L 425.573568 -80.968702 
L 425.08781 -82.233306 
L 424.652306 -83.497911 
L 424.270996 -84.762516 
L 423.945782 -86.027121 
L 423.676378 -87.291725 
L 423.460335 -88.55633 
L 423.293271 -89.820935 
L 423.169285 -91.08554 
L 423.081536 -92.350145 
L 423.022923 -93.614749 
L 422.986809 -94.879354 
L 422.967702 -96.143959 
L 422.961829 -97.408564 
L 422.967536 -98.673169 
L 422.985475 -99.937773 
L 423.018541 -101.202378 
L 423.071592 -102.466983 
L 423.150952 -103.731588 
L 423.26376 -104.996192 
L 423.417237 -106.260797 
L 423.617931 -107.525402 
L 423.871026 -108.790007 
L 424.179781 -110.054612 
L 424.545155 -111.319216 
L 424.965646 -112.583821 
L 425.437362 -113.848426 
L 425.954317 -115.113031 
L 426.508891 -116.377636 
L 427.092428 -117.64224 
L 427.695885 -118.906845 
L 428.310463 -120.17145 
L 428.928158 -121.436055 
L 429.542182 -122.700659 
L 430.1472 -123.965264 
L 430.739398 -125.229869 
L 431.316371 -126.494474 
L 431.876872 -127.759079 
L 432.420474 -129.023683 
L 432.947184 -130.288288 
L 433.45708 -131.552893 
L 433.950007 -132.817498 
L 434.425366 -134.082102 
L 434.882025 -135.346707 
L 435.318337 -136.611312 
L 435.732256 -137.875917 
L 436.121528 -139.140522 
L 436.483919 -140.405126 
L 436.817453 -141.669731 
L 437.12061 -142.934336 
L 437.39249 -144.198941 
L 437.632903 -145.463546 
L 437.842392 -146.72815 
L 438.022193 -147.992755 
L 438.174146 -149.25736 
L 438.300559 -150.521965 
L 438.404064 -151.786569 
L 438.48746 -153.051174 
L 439.01254 -153.051174 
L 439.01254 -153.051174 
L 439.095936 -151.786569 
L 439.199441 -150.521965 
L 439.325854 -149.25736 
L 439.477807 -147.992755 
L 439.657608 -146.72815 
L 439.867097 -145.463546 
L 440.10751 -144.198941 
L 440.37939 -142.934336 
L 440.682547 -141.669731 
L 441.016081 -140.405126 
L 441.378472 -139.140522 
L 441.767744 -137.875917 
L 442.181663 -136.611312 
L 442.617975 -135.346707 
L 443.074634 -134.082102 
L 443.549993 -132.817498 
L 444.04292 -131.552893 
L 444.552816 -130.288288 
L 445.079526 -129.023683 
L 445.623128 -127.759079 
L 446.183629 -126.494474 
L 446.760602 -125.229869 
L 447.3528 -123.965264 
L 447.957818 -122.700659 
L 448.571842 -121.436055 
L 449.189537 -120.17145 
L 449.804115 -118.906845 
L 450.407572 -117.64224 
L 450.991109 -116.377636 
L 451.545683 -115.113031 
L 452.062638 -113.848426 
L 452.534354 -112.583821 
L 452.954845 -111.319216 
L 453.320219 -110.054612 
L 453.628974 -108.790007 
L 453.882069 -107.525402 
L 454.082763 -106.260797 
L 454.23624 -104.996192 
L 454.349048 -103.731588 
L 454.428408 -102.466983 
L 454.481459 -101.202378 
L 454.514525 -99.937773 
L 454.532464 -98.673169 
L 454.538171 -97.408564 
L 454.532298 -96.143959 
L 454.513191 -94.879354 
L 454.477077 -93.614749 
L 454.418464 -92.350145 
L 454.330715 -91.08554 
L 454.206729 -89.820935 
L 454.039665 -88.55633 
L 453.823622 -87.291725 
L 453.554218 -86.027121 
L 453.229004 -84.762516 
L 452.847694 -83.497911 
L 452.41219 -82.233306 
L 451.926432 -80.968702 
L 451.396098 -79.704097 
L 450.828211 -78.439492 
L 450.230703 -77.174887 
L 449.61199 -75.910282 
L 448.980583 -74.645678 
L 448.344782 -73.381073 
L 447.712438 -72.116468 
L 447.090789 -70.851863 
L 446.486356 -69.587258 
L 445.904864 -68.322654 
L 445.351189 -67.058049 
L 444.829296 -65.793444 
L 444.34219 -64.528839 
L 443.89185 -63.264235 
L 443.479193 -61.99963 
L 443.104053 -60.735025 
L 442.765209 -59.47042 
L 442.46046 -58.205815 
L 442.18676 -56.941211 
L 441.940409 -55.676606 
L 441.717278 -54.412001 
L 441.513076 -53.147396 
L 441.323602 -51.882791 
L 441.145001 -50.618187 
L 440.973966 -49.353582 
L 440.807897 -48.088977 
L 440.644993 -46.824372 
L 440.484274 -45.559768 
L 440.325539 -44.295163 
L 440.169263 -43.030558 
L 440.016457 -41.765953 
L 439.868492 -40.501348 
L 439.72692 -39.236744 
L 439.593297 -37.972139 
L 439.469032 -36.707534 
L 439.355266 -35.442929 
L 439.252794 -34.178324 
L 439.162021 -32.91372 
L 439.082962 -31.649115 
L 439.015275 -30.38451 
L 438.958316 -29.119905 
L 438.911206 -27.855301 
z
" style="stroke: #009e73; stroke-width: 2"/>
    </defs>
    <g clip-path="url(#p75f7d3aa1f)">
     <use xlink:href="#ma64f2e0433" x="0" y="360" style="fill: #009e73; fill-opacity: 0.3; stroke: #009e73; stroke-width: 2"/>
    </g>
   </g>
   <g id="PolyCollection_4">
    <defs>
     <path id="m12d8b648ea" d="M 578.48315 -40.872269 
L 578.01685 -40.872269 
L 577.939182 -42.292898 
L 577.841654 -43.713526 
L 577.721219 -45.134155 
L 577.574956 -46.554783 
L 577.400243 -47.975412 
L 577.194941 -49.39604 
L 576.957562 -50.816669 
L 576.687403 -52.237297 
L 576.384617 -53.657926 
L 576.050213 -55.078554 
L 575.685959 -56.499183 
L 575.294198 -57.919811 
L 574.877585 -59.34044 
L 574.438771 -60.761068 
L 573.98008 -62.181697 
L 573.503224 -63.602326 
L 573.009118 -65.022954 
L 572.497834 -66.443583 
L 571.968741 -67.864211 
L 571.420829 -69.28484 
L 570.853216 -70.705468 
L 570.265775 -72.126097 
L 569.65982 -73.546725 
L 569.038737 -74.967354 
L 568.408471 -76.387982 
L 567.777754 -77.808611 
L 567.158009 -79.229239 
L 566.562883 -80.649868 
L 566.00741 -82.070496 
L 565.506883 -83.491125 
L 565.075512 -84.911753 
L 564.725028 -86.332382 
L 564.463392 -87.753011 
L 564.293763 -89.173639 
L 564.213873 -90.594268 
L 564.215896 -92.014896 
L 564.286862 -93.435525 
L 564.409591 -94.856153 
L 564.564068 -96.276782 
L 564.729134 -97.69741 
L 564.884317 -99.118039 
L 565.011627 -100.538667 
L 565.097154 -101.959296 
L 565.132288 -103.379924 
L 565.114488 -104.800553 
L 565.04751 -106.221181 
L 564.941106 -107.64181 
L 564.81022 -109.062438 
L 564.673784 -110.483067 
L 564.553207 -111.903696 
L 564.470706 -113.324324 
L 564.447605 -114.744953 
L 564.502746 -116.165581 
L 564.651118 -117.58621 
L 564.902806 -119.006838 
L 565.262318 -120.427467 
L 565.728333 -121.848095 
L 566.293876 -123.268724 
L 566.946874 -124.689352 
L 567.671061 -126.109981 
L 568.447124 -127.530609 
L 569.254017 -128.951238 
L 570.070305 -130.371866 
L 570.875457 -131.792495 
L 571.650964 -133.213124 
L 572.381233 -134.633752 
L 573.054174 -136.054381 
L 573.66149 -137.475009 
L 574.198659 -138.895638 
L 574.664668 -140.316266 
L 575.06154 -141.736895 
L 575.393738 -143.157523 
L 575.667515 -144.578152 
L 575.89027 -145.99878 
L 576.069974 -147.419409 
L 576.214676 -148.840037 
L 576.332129 -150.260666 
L 576.429512 -151.681294 
L 576.513241 -153.101923 
L 576.588859 -154.522551 
L 576.660974 -155.94318 
L 576.733231 -157.363809 
L 576.808315 -158.784437 
L 576.887973 -160.205066 
L 576.973066 -161.625694 
L 577.06364 -163.046323 
L 577.159031 -164.466951 
L 577.257995 -165.88758 
L 577.358868 -167.308208 
L 577.459732 -168.728837 
L 577.558588 -170.149465 
L 577.653519 -171.570094 
L 577.742827 -172.990722 
L 577.825139 -174.411351 
L 577.899466 -175.831979 
L 577.965236 -177.252608 
L 578.022275 -178.673236 
L 578.070764 -180.093865 
L 578.111178 -181.514494 
L 578.388822 -181.514494 
L 578.388822 -181.514494 
L 578.429236 -180.093865 
L 578.477725 -178.673236 
L 578.534764 -177.252608 
L 578.600534 -175.831979 
L 578.674861 -174.411351 
L 578.757173 -172.990722 
L 578.846481 -171.570094 
L 578.941412 -170.149465 
L 579.040268 -168.728837 
L 579.141132 -167.308208 
L 579.242005 -165.88758 
L 579.340969 -164.466951 
L 579.43636 -163.046323 
L 579.526934 -161.625694 
L 579.612027 -160.205066 
L 579.691685 -158.784437 
L 579.766769 -157.363809 
L 579.839026 -155.94318 
L 579.911141 -154.522551 
L 579.986759 -153.101923 
L 580.070488 -151.681294 
L 580.167871 -150.260666 
L 580.285324 -148.840037 
L 580.430026 -147.419409 
L 580.60973 -145.99878 
L 580.832485 -144.578152 
L 581.106262 -143.157523 
L 581.43846 -141.736895 
L 581.835332 -140.316266 
L 582.301341 -138.895638 
L 582.83851 -137.475009 
L 583.445826 -136.054381 
L 584.118767 -134.633752 
L 584.849036 -133.213124 
L 585.624543 -131.792495 
L 586.429695 -130.371866 
L 587.245983 -128.951238 
L 588.052876 -127.530609 
L 588.828939 -126.109981 
L 589.553126 -124.689352 
L 590.206124 -123.268724 
L 590.771667 -121.848095 
L 591.237682 -120.427467 
L 591.597194 -119.006838 
L 591.848882 -117.58621 
L 591.997254 -116.165581 
L 592.052395 -114.744953 
L 592.029294 -113.324324 
L 591.946793 -111.903696 
L 591.826216 -110.483067 
L 591.68978 -109.062438 
L 591.558894 -107.64181 
L 591.45249 -106.221181 
L 591.385512 -104.800553 
L 591.367712 -103.379924 
L 591.402846 -101.959296 
L 591.488373 -100.538667 
L 591.615683 -99.118039 
L 591.770866 -97.69741 
L 591.935932 -96.276782 
L 592.090409 -94.856153 
L 592.213138 -93.435525 
L 592.284104 -92.014896 
L 592.286127 -90.594268 
L 592.206237 -89.173639 
L 592.036608 -87.753011 
L 591.774972 -86.332382 
L 591.424488 -84.911753 
L 590.993117 -83.491125 
L 590.49259 -82.070496 
L 589.937117 -80.649868 
L 589.341991 -79.229239 
L 588.722246 -77.808611 
L 588.091529 -76.387982 
L 587.461263 -74.967354 
L 586.84018 -73.546725 
L 586.234225 -72.126097 
L 585.646784 -70.705468 
L 585.079171 -69.28484 
L 584.531259 -67.864211 
L 584.002166 -66.443583 
L 583.490882 -65.022954 
L 582.996776 -63.602326 
L 582.51992 -62.181697 
L 582.061229 -60.761068 
L 581.622415 -59.34044 
L 581.205802 -57.919811 
L 580.814041 -56.499183 
L 580.449787 -55.078554 
L 580.115383 -53.657926 
L 579.812597 -52.237297 
L 579.542438 -50.816669 
L 579.305059 -49.39604 
L 579.099757 -47.975412 
L 578.925044 -46.554783 
L 578.778781 -45.134155 
L 578.658346 -43.713526 
L 578.560818 -42.292898 
L 578.48315 -40.872269 
z
" style="stroke: #cc79a7; stroke-width: 2"/>
    </defs>
    <g clip-path="url(#p75f7d3aa1f)">
     <use xlink:href="#m12d8b648ea" x="0" y="360" style="fill: #cc79a7; fill-opacity: 0.3; stroke: #cc79a7; stroke-width: 2"/>
    </g>
   </g>
   <g id="patch_3">
    <path d="M 90 320.4 
L 90 43.2 
" style="fill: none; stroke: #262626; stroke-width: 1.25; stroke-linejoin: miter; stroke-linecap: square"/>
   </g>
   <g id="patch_4">
    <path d="M 648 320.4 
L 648 43.2 
" style="fill: none; stroke: #262626; stroke-width: 1.25; stroke-linejoin: miter; stroke-linecap: square"/>
   </g>
   <g id="patch_5">
    <path d="M 90 320.4 
L 648 320.4 
" style="fill: none; stroke: #262626; stroke-width: 1.25; stroke-linejoin: miter; stroke-linecap: square"/>
   </g>
   <g id="patch_6">
    <path d="M 90 43.2 
L 648 43.2 
" style="fill: none; stroke: #262626; stroke-width: 1.25; stroke-linejoin: miter; stroke-linecap: square"/>
   </g>
   <g id="text_12">
    <!-- Fractional Occupancy -->
    <g style="fill: #262626" transform="translate(295.871875 37.2) scale(0.14 -0.14)">
     <defs>
      <path id="Arial-BoldMT-46" d="M 472 0 
L 472 4581 
L 3613 4581 
L 3613 3806 
L 1397 3806 
L 1397 2722 
L 3309 2722 
L 3309 1947 
L 1397 1947 
L 1397 0 
L 472 0 
z
" transform="scale(0.015625)"/>
      <path id="Arial-BoldMT-72" d="M 1300 0 
L 422 0 
L 422 3319 
L 1238 3319 
L 1238 2847 
Q 1447 3181 1614 3287 
Q 1781 3394 1994 3394 
Q 2294 3394 2572 3228 
L 2300 2463 
Q 2078 2606 1888 2606 
Q 1703 2606 1575 2504 
Q 1447 2403 1373 2137 
Q 1300 1872 1300 1025 
L 1300 0 
z
" transform="scale(0.015625)"/>
      <path id="Arial-BoldMT-61" d="M 1116 2306 
L 319 2450 
Q 453 2931 781 3162 
Q 1109 3394 1756 3394 
Q 2344 3394 2631 3255 
Q 2919 3116 3036 2902 
Q 3153 2688 3153 2116 
L 3144 1091 
Q 3144 653 3186 445 
Q 3228 238 3344 0 
L 2475 0 
Q 2441 88 2391 259 
Q 2369 338 2359 363 
Q 2134 144 1878 34 
Q 1622 -75 1331 -75 
Q 819 -75 523 203 
Q 228 481 228 906 
Q 228 1188 362 1408 
Q 497 1628 739 1745 
Q 981 1863 1438 1950 
Q 2053 2066 2291 2166 
L 2291 2253 
Q 2291 2506 2166 2614 
Q 2041 2722 1694 2722 
Q 1459 2722 1328 2630 
Q 1197 2538 1116 2306 
z
M 2291 1594 
Q 2122 1538 1756 1459 
Q 1391 1381 1278 1306 
Q 1106 1184 1106 997 
Q 1106 813 1243 678 
Q 1381 544 1594 544 
Q 1831 544 2047 700 
Q 2206 819 2256 991 
Q 2291 1103 2291 1419 
L 2291 1594 
z
" transform="scale(0.015625)"/>
      <path id="Arial-BoldMT-63" d="M 3353 2338 
L 2488 2181 
Q 2444 2441 2289 2572 
Q 2134 2703 1888 2703 
Q 1559 2703 1364 2476 
Q 1169 2250 1169 1719 
Q 1169 1128 1367 884 
Q 1566 641 1900 641 
Q 2150 641 2309 783 
Q 2469 925 2534 1272 
L 3397 1125 
Q 3263 531 2881 228 
Q 2500 -75 1859 -75 
Q 1131 -75 698 384 
Q 266 844 266 1656 
Q 266 2478 700 2936 
Q 1134 3394 1875 3394 
Q 2481 3394 2839 3133 
Q 3197 2872 3353 2338 
z
" transform="scale(0.015625)"/>
      <path id="Arial-BoldMT-74" d="M 1981 3319 
L 1981 2619 
L 1381 2619 
L 1381 1281 
Q 1381 875 1398 808 
Q 1416 741 1477 697 
Q 1538 653 1625 653 
Q 1747 653 1978 738 
L 2053 56 
Q 1747 -75 1359 -75 
Q 1122 -75 931 4 
Q 741 84 652 211 
Q 563 338 528 553 
Q 500 706 500 1172 
L 500 2619 
L 97 2619 
L 97 3319 
L 500 3319 
L 500 3978 
L 1381 4491 
L 1381 3319 
L 1981 3319 
z
" transform="scale(0.015625)"/>
      <path id="Arial-BoldMT-69" d="M 459 3769 
L 459 4581 
L 1338 4581 
L 1338 3769 
L 459 3769 
z
M 459 0 
L 459 3319 
L 1338 3319 
L 1338 0 
L 459 0 
z
" transform="scale(0.015625)"/>
      <path id="Arial-BoldMT-6f" d="M 256 1706 
Q 256 2144 472 2553 
Q 688 2963 1083 3178 
Q 1478 3394 1966 3394 
Q 2719 3394 3200 2905 
Q 3681 2416 3681 1669 
Q 3681 916 3195 420 
Q 2709 -75 1972 -75 
Q 1516 -75 1102 131 
Q 688 338 472 736 
Q 256 1134 256 1706 
z
M 1156 1659 
Q 1156 1166 1390 903 
Q 1625 641 1969 641 
Q 2313 641 2545 903 
Q 2778 1166 2778 1666 
Q 2778 2153 2545 2415 
Q 2313 2678 1969 2678 
Q 1625 2678 1390 2415 
Q 1156 2153 1156 1659 
z
" transform="scale(0.015625)"/>
      <path id="Arial-BoldMT-6e" d="M 3478 0 
L 2600 0 
L 2600 1694 
Q 2600 2231 2544 2389 
Q 2488 2547 2361 2634 
Q 2234 2722 2056 2722 
Q 1828 2722 1647 2597 
Q 1466 2472 1398 2265 
Q 1331 2059 1331 1503 
L 1331 0 
L 453 0 
L 453 3319 
L 1269 3319 
L 1269 2831 
Q 1703 3394 2363 3394 
Q 2653 3394 2893 3289 
Q 3134 3184 3257 3021 
Q 3381 2859 3429 2653 
Q 3478 2447 3478 2063 
L 3478 0 
z
" transform="scale(0.015625)"/>
      <path id="Arial-BoldMT-6c" d="M 459 0 
L 459 4581 
L 1338 4581 
L 1338 0 
L 459 0 
z
" transform="scale(0.015625)"/>
      <path id="Arial-BoldMT-20" transform="scale(0.015625)"/>
      <path id="Arial-BoldMT-4f" d="M 278 2263 
Q 278 2963 488 3438 
Q 644 3788 914 4066 
Q 1184 4344 1506 4478 
Q 1934 4659 2494 4659 
Q 3506 4659 4114 4031 
Q 4722 3403 4722 2284 
Q 4722 1175 4119 548 
Q 3516 -78 2506 -78 
Q 1484 -78 881 545 
Q 278 1169 278 2263 
z
M 1231 2294 
Q 1231 1516 1590 1114 
Q 1950 713 2503 713 
Q 3056 713 3411 1111 
Q 3766 1509 3766 2306 
Q 3766 3094 3420 3481 
Q 3075 3869 2503 3869 
Q 1931 3869 1581 3476 
Q 1231 3084 1231 2294 
z
" transform="scale(0.015625)"/>
      <path id="Arial-BoldMT-75" d="M 2644 0 
L 2644 497 
Q 2463 231 2167 78 
Q 1872 -75 1544 -75 
Q 1209 -75 943 72 
Q 678 219 559 484 
Q 441 750 441 1219 
L 441 3319 
L 1319 3319 
L 1319 1794 
Q 1319 1094 1367 936 
Q 1416 778 1544 686 
Q 1672 594 1869 594 
Q 2094 594 2272 717 
Q 2450 841 2515 1023 
Q 2581 1206 2581 1919 
L 2581 3319 
L 3459 3319 
L 3459 0 
L 2644 0 
z
" transform="scale(0.015625)"/>
      <path id="Arial-BoldMT-70" d="M 434 3319 
L 1253 3319 
L 1253 2831 
Q 1413 3081 1684 3237 
Q 1956 3394 2288 3394 
Q 2866 3394 3269 2941 
Q 3672 2488 3672 1678 
Q 3672 847 3265 386 
Q 2859 -75 2281 -75 
Q 2006 -75 1782 34 
Q 1559 144 1313 409 
L 1313 -1263 
L 434 -1263 
L 434 3319 
z
M 1303 1716 
Q 1303 1156 1525 889 
Q 1747 622 2066 622 
Q 2372 622 2575 867 
Q 2778 1113 2778 1672 
Q 2778 2194 2568 2447 
Q 2359 2700 2050 2700 
Q 1728 2700 1515 2451 
Q 1303 2203 1303 1716 
z
" transform="scale(0.015625)"/>
      <path id="Arial-BoldMT-79" d="M 44 3319 
L 978 3319 
L 1772 963 
L 2547 3319 
L 3456 3319 
L 2284 125 
L 2075 -453 
Q 1959 -744 1854 -897 
Q 1750 -1050 1614 -1145 
Q 1478 -1241 1279 -1294 
Q 1081 -1347 831 -1347 
Q 578 -1347 334 -1294 
L 256 -606 
Q 463 -647 628 -647 
Q 934 -647 1081 -467 
Q 1228 -288 1306 -9 
L 44 3319 
z
" transform="scale(0.015625)"/>
     </defs>
     <use xlink:href="#Arial-BoldMT-46"/>
     <use xlink:href="#Arial-BoldMT-72" x="61.083984"/>
     <use xlink:href="#Arial-BoldMT-61" x="100"/>
     <use xlink:href="#Arial-BoldMT-63" x="155.615234"/>
     <use xlink:href="#Arial-BoldMT-74" x="211.230469"/>
     <use xlink:href="#Arial-BoldMT-69" x="244.53125"/>
     <use xlink:href="#Arial-BoldMT-6f" x="272.314453"/>
     <use xlink:href="#Arial-BoldMT-6e" x="333.398438"/>
     <use xlink:href="#Arial-BoldMT-61" x="394.482422"/>
     <use xlink:href="#Arial-BoldMT-6c" x="450.097656"/>
     <use xlink:href="#Arial-BoldMT-20" x="477.880859"/>
     <use xlink:href="#Arial-BoldMT-4f" x="505.664062"/>
     <use xlink:href="#Arial-BoldMT-63" x="583.447266"/>
     <use xlink:href="#Arial-BoldMT-63" x="639.0625"/>
     <use xlink:href="#Arial-BoldMT-75" x="694.677734"/>
     <use xlink:href="#Arial-BoldMT-70" x="755.761719"/>
     <use xlink:href="#Arial-BoldMT-61" x="816.845703"/>
     <use xlink:href="#Arial-BoldMT-6e" x="872.460938"/>
     <use xlink:href="#Arial-BoldMT-63" x="933.544922"/>
     <use xlink:href="#Arial-BoldMT-79" x="989.160156"/>
    </g>
   </g>
  </g>
 </g>
 <defs>
  <clipPath id="p75f7d3aa1f">
   <rect x="90" y="43.2" width="558" height="277.2"/>
  </clipPath>
 </defs>
</svg>
