<?xml version="1.0" encoding="utf-8" standalone="no"?>
<!DOCTYPE svg PUBLIC "-//W3C//DTD SVG 1.1//EN"
  "http://www.w3.org/Graphics/SVG/1.1/DTD/svg11.dtd">
<svg xmlns:xlink="http://www.w3.org/1999/xlink" width="720pt" height="360pt" viewBox="0 0 720 360" xmlns="http://www.w3.org/2000/svg" version="1.1">
 <metadata>
  <rdf:RDF xmlns:dc="http://purl.org/dc/elements/1.1/" xmlns:cc="http://creativecommons.org/ns#" xmlns:rdf="http://www.w3.org/1999/02/22-rdf-syntax-ns#">
   <cc:Work>
    <dc:type rdf:resource="http://purl.org/dc/dcmitype/StillImage"/>
    <dc:date>2024-08-20T17:45:35.664041</dc:date>
    <dc:format>image/svg+xml</dc:format>
    <dc:creator>
     <cc:Agent>
      <dc:title>Matplotlib v3.8.0, https://matplotlib.org/</dc:title>
     </cc:Agent>
    </dc:creator>
   </cc:Work>
  </rdf:RDF>
 </metadata>
 <defs>
  <style type="text/css">*{stroke-linejoin: round; stroke-linecap: butt}</style>
 </defs>
 <g id="figure_1">
  <g id="patch_1">
   <path d="M 0 360 
L 720 360 
L 720 0 
L 0 0 
z
" style="fill: #ffffff"/>
  </g>
  <g id="axes_1">
   <g id="patch_2">
    <path d="M 90 320.4 
L 648 320.4 
L 648 43.2 
L 90 43.2 
z
" style="fill: #ffffff"/>
   </g>
   <g id="matplotlib.axis_1">
    <g id="xtick_1">
     <g id="line2d_1">
      <defs>
       <path id="m5a39034b06" d="M 0 0 
L 0 6 
" style="stroke: #262626; stroke-width: 1.25"/>
      </defs>
      <g>
       <use xlink:href="#m5a39034b06" x="159.75" y="320.4" style="fill: #262626; stroke: #262626; stroke-width: 1.25"/>
      </g>
     </g>
     <g id="text_1">
      <!-- State 1 -->
      <g style="fill: #262626" transform="translate(140.7375 338.489375) scale(0.12 -0.12)">
       <defs>
        <path id="ArialMT-53" d="M 288 1472 
L 859 1522 
Q 900 1178 1048 958 
Q 1197 738 1509 602 
Q 1822 466 2213 466 
Q 2559 466 2825 569 
Q 3091 672 3220 851 
Q 3350 1031 3350 1244 
Q 3350 1459 3225 1620 
Q 3100 1781 2813 1891 
Q 2628 1963 1997 2114 
Q 1366 2266 1113 2400 
Q 784 2572 623 2826 
Q 463 3081 463 3397 
Q 463 3744 659 4045 
Q 856 4347 1234 4503 
Q 1613 4659 2075 4659 
Q 2584 4659 2973 4495 
Q 3363 4331 3572 4012 
Q 3781 3694 3797 3291 
L 3216 3247 
Q 3169 3681 2898 3903 
Q 2628 4125 2100 4125 
Q 1550 4125 1298 3923 
Q 1047 3722 1047 3438 
Q 1047 3191 1225 3031 
Q 1400 2872 2139 2705 
Q 2878 2538 3153 2413 
Q 3553 2228 3743 1945 
Q 3934 1663 3934 1294 
Q 3934 928 3725 604 
Q 3516 281 3123 101 
Q 2731 -78 2241 -78 
Q 1619 -78 1198 103 
Q 778 284 539 648 
Q 300 1013 288 1472 
z
" transform="scale(0.015625)"/>
        <path id="ArialMT-74" d="M 1650 503 
L 1731 6 
Q 1494 -44 1306 -44 
Q 1000 -44 831 53 
Q 663 150 594 308 
Q 525 466 525 972 
L 525 2881 
L 113 2881 
L 113 3319 
L 525 3319 
L 525 4141 
L 1084 4478 
L 1084 3319 
L 1650 3319 
L 1650 2881 
L 1084 2881 
L 1084 941 
Q 1084 700 1114 631 
Q 1144 563 1211 522 
Q 1278 481 1403 481 
Q 1497 481 1650 503 
z
" transform="scale(0.015625)"/>
        <path id="ArialMT-61" d="M 2588 409 
Q 2275 144 1986 34 
Q 1697 -75 1366 -75 
Q 819 -75 525 192 
Q 231 459 231 875 
Q 231 1119 342 1320 
Q 453 1522 633 1644 
Q 813 1766 1038 1828 
Q 1203 1872 1538 1913 
Q 2219 1994 2541 2106 
Q 2544 2222 2544 2253 
Q 2544 2597 2384 2738 
Q 2169 2928 1744 2928 
Q 1347 2928 1158 2789 
Q 969 2650 878 2297 
L 328 2372 
Q 403 2725 575 2942 
Q 747 3159 1072 3276 
Q 1397 3394 1825 3394 
Q 2250 3394 2515 3294 
Q 2781 3194 2906 3042 
Q 3031 2891 3081 2659 
Q 3109 2516 3109 2141 
L 3109 1391 
Q 3109 606 3145 398 
Q 3181 191 3288 0 
L 2700 0 
Q 2613 175 2588 409 
z
M 2541 1666 
Q 2234 1541 1622 1453 
Q 1275 1403 1131 1340 
Q 988 1278 909 1158 
Q 831 1038 831 891 
Q 831 666 1001 516 
Q 1172 366 1500 366 
Q 1825 366 2078 508 
Q 2331 650 2450 897 
Q 2541 1088 2541 1459 
L 2541 1666 
z
" transform="scale(0.015625)"/>
        <path id="ArialMT-65" d="M 2694 1069 
L 3275 997 
Q 3138 488 2766 206 
Q 2394 -75 1816 -75 
Q 1088 -75 661 373 
Q 234 822 234 1631 
Q 234 2469 665 2931 
Q 1097 3394 1784 3394 
Q 2450 3394 2872 2941 
Q 3294 2488 3294 1666 
Q 3294 1616 3291 1516 
L 816 1516 
Q 847 969 1125 678 
Q 1403 388 1819 388 
Q 2128 388 2347 550 
Q 2566 713 2694 1069 
z
M 847 1978 
L 2700 1978 
Q 2663 2397 2488 2606 
Q 2219 2931 1791 2931 
Q 1403 2931 1139 2672 
Q 875 2413 847 1978 
z
" transform="scale(0.015625)"/>
        <path id="ArialMT-20" transform="scale(0.015625)"/>
        <path id="ArialMT-31" d="M 2384 0 
L 1822 0 
L 1822 3584 
Q 1619 3391 1289 3197 
Q 959 3003 697 2906 
L 697 3450 
Q 1169 3672 1522 3987 
Q 1875 4303 2022 4600 
L 2384 4600 
L 2384 0 
z
" transform="scale(0.015625)"/>
       </defs>
       <use xlink:href="#ArialMT-53"/>
       <use xlink:href="#ArialMT-74" x="66.699219"/>
       <use xlink:href="#ArialMT-61" x="94.482422"/>
       <use xlink:href="#ArialMT-74" x="150.097656"/>
       <use xlink:href="#ArialMT-65" x="177.880859"/>
       <use xlink:href="#ArialMT-20" x="233.496094"/>
       <use xlink:href="#ArialMT-31" x="261.279297"/>
      </g>
     </g>
    </g>
    <g id="xtick_2">
     <g id="line2d_2">
      <g>
       <use xlink:href="#m5a39034b06" x="299.25" y="320.4" style="fill: #262626; stroke: #262626; stroke-width: 1.25"/>
      </g>
     </g>
     <g id="text_2">
      <!-- State 2 -->
      <g style="fill: #262626" transform="translate(280.2375 338.489375) scale(0.12 -0.12)">
       <defs>
        <path id="ArialMT-32" d="M 3222 541 
L 3222 0 
L 194 0 
Q 188 203 259 391 
Q 375 700 629 1000 
Q 884 1300 1366 1694 
Q 2113 2306 2375 2664 
Q 2638 3022 2638 3341 
Q 2638 3675 2398 3904 
Q 2159 4134 1775 4134 
Q 1369 4134 1125 3890 
Q 881 3647 878 3216 
L 300 3275 
Q 359 3922 746 4261 
Q 1134 4600 1788 4600 
Q 2447 4600 2831 4234 
Q 3216 3869 3216 3328 
Q 3216 3053 3103 2787 
Q 2991 2522 2730 2228 
Q 2469 1934 1863 1422 
Q 1356 997 1212 845 
Q 1069 694 975 541 
L 3222 541 
z
" transform="scale(0.015625)"/>
       </defs>
       <use xlink:href="#ArialMT-53"/>
       <use xlink:href="#ArialMT-74" x="66.699219"/>
       <use xlink:href="#ArialMT-61" x="94.482422"/>
       <use xlink:href="#ArialMT-74" x="150.097656"/>
       <use xlink:href="#ArialMT-65" x="177.880859"/>
       <use xlink:href="#ArialMT-20" x="233.496094"/>
       <use xlink:href="#ArialMT-32" x="261.279297"/>
      </g>
     </g>
    </g>
    <g id="xtick_3">
     <g id="line2d_3">
      <g>
       <use xlink:href="#m5a39034b06" x="438.75" y="320.4" style="fill: #262626; stroke: #262626; stroke-width: 1.25"/>
      </g>
     </g>
     <g id="text_3">
      <!-- State 3 -->
      <g style="fill: #262626" transform="translate(419.7375 338.489375) scale(0.12 -0.12)">
       <defs>
        <path id="ArialMT-33" d="M 269 1209 
L 831 1284 
Q 928 806 1161 595 
Q 1394 384 1728 384 
Q 2125 384 2398 659 
Q 2672 934 2672 1341 
Q 2672 1728 2419 1979 
Q 2166 2231 1775 2231 
Q 1616 2231 1378 2169 
L 1441 2663 
Q 1497 2656 1531 2656 
Q 1891 2656 2178 2843 
Q 2466 3031 2466 3422 
Q 2466 3731 2256 3934 
Q 2047 4138 1716 4138 
Q 1388 4138 1169 3931 
Q 950 3725 888 3313 
L 325 3413 
Q 428 3978 793 4289 
Q 1159 4600 1703 4600 
Q 2078 4600 2393 4439 
Q 2709 4278 2876 4000 
Q 3044 3722 3044 3409 
Q 3044 3113 2884 2869 
Q 2725 2625 2413 2481 
Q 2819 2388 3044 2092 
Q 3269 1797 3269 1353 
Q 3269 753 2831 336 
Q 2394 -81 1725 -81 
Q 1122 -81 723 278 
Q 325 638 269 1209 
z
" transform="scale(0.015625)"/>
       </defs>
       <use xlink:href="#ArialMT-53"/>
       <use xlink:href="#ArialMT-74" x="66.699219"/>
       <use xlink:href="#ArialMT-61" x="94.482422"/>
       <use xlink:href="#ArialMT-74" x="150.097656"/>
       <use xlink:href="#ArialMT-65" x="177.880859"/>
       <use xlink:href="#ArialMT-20" x="233.496094"/>
       <use xlink:href="#ArialMT-33" x="261.279297"/>
      </g>
     </g>
    </g>
    <g id="xtick_4">
     <g id="line2d_4">
      <g>
       <use xlink:href="#m5a39034b06" x="578.25" y="320.4" style="fill: #262626; stroke: #262626; stroke-width: 1.25"/>
      </g>
     </g>
     <g id="text_4">
      <!-- State 4 -->
      <g style="fill: #262626" transform="translate(559.2375 338.489375) scale(0.12 -0.12)">
       <defs>
        <path id="ArialMT-34" d="M 2069 0 
L 2069 1097 
L 81 1097 
L 81 1613 
L 2172 4581 
L 2631 4581 
L 2631 1613 
L 3250 1613 
L 3250 1097 
L 2631 1097 
L 2631 0 
L 2069 0 
z
M 2069 1613 
L 2069 3678 
L 634 1613 
L 2069 1613 
z
" transform="scale(0.015625)"/>
       </defs>
       <use xlink:href="#ArialMT-53"/>
       <use xlink:href="#ArialMT-74" x="66.699219"/>
       <use xlink:href="#ArialMT-61" x="94.482422"/>
       <use xlink:href="#ArialMT-74" x="150.097656"/>
       <use xlink:href="#ArialMT-65" x="177.880859"/>
       <use xlink:href="#ArialMT-20" x="233.496094"/>
       <use xlink:href="#ArialMT-34" x="261.279297"/>
      </g>
     </g>
    </g>
   </g>
   <g id="matplotlib.axis_2">
    <g id="ytick_1">
     <g id="line2d_5">
      <defs>
       <path id="m9e61b3d9f4" d="M 0 0 
L -6 0 
" style="stroke: #262626; stroke-width: 1.25"/>
      </defs>
      <g>
       <use xlink:href="#m9e61b3d9f4" x="90" y="292.28078" style="fill: #262626; stroke: #262626; stroke-width: 1.25"/>
      </g>
     </g>
     <g id="text_5">
      <!-- 0.0 -->
      <g style="fill: #262626" transform="translate(65.21 296.217577) scale(0.11 -0.11)">
       <defs>
        <path id="ArialMT-30" d="M 266 2259 
Q 266 3072 433 3567 
Q 600 4063 929 4331 
Q 1259 4600 1759 4600 
Q 2128 4600 2406 4451 
Q 2684 4303 2865 4023 
Q 3047 3744 3150 3342 
Q 3253 2941 3253 2259 
Q 3253 1453 3087 958 
Q 2922 463 2592 192 
Q 2263 -78 1759 -78 
Q 1097 -78 719 397 
Q 266 969 266 2259 
z
M 844 2259 
Q 844 1131 1108 757 
Q 1372 384 1759 384 
Q 2147 384 2411 759 
Q 2675 1134 2675 2259 
Q 2675 3391 2411 3762 
Q 2147 4134 1753 4134 
Q 1366 4134 1134 3806 
Q 844 3388 844 2259 
z
" transform="scale(0.015625)"/>
        <path id="ArialMT-2e" d="M 581 0 
L 581 641 
L 1222 641 
L 1222 0 
L 581 0 
z
" transform="scale(0.015625)"/>
       </defs>
       <use xlink:href="#ArialMT-30"/>
       <use xlink:href="#ArialMT-2e" x="55.615234"/>
       <use xlink:href="#ArialMT-30" x="83.398438"/>
      </g>
     </g>
    </g>
    <g id="ytick_2">
     <g id="line2d_6">
      <g>
       <use xlink:href="#m9e61b3d9f4" x="90" y="257.886922" style="fill: #262626; stroke: #262626; stroke-width: 1.25"/>
      </g>
     </g>
     <g id="text_6">
      <!-- 2.5 -->
      <g style="fill: #262626" transform="translate(65.21 261.823719) scale(0.11 -0.11)">
       <defs>
        <path id="ArialMT-35" d="M 266 1200 
L 856 1250 
Q 922 819 1161 601 
Q 1400 384 1738 384 
Q 2144 384 2425 690 
Q 2706 997 2706 1503 
Q 2706 1984 2436 2262 
Q 2166 2541 1728 2541 
Q 1456 2541 1237 2417 
Q 1019 2294 894 2097 
L 366 2166 
L 809 4519 
L 3088 4519 
L 3088 3981 
L 1259 3981 
L 1013 2750 
Q 1425 3038 1878 3038 
Q 2478 3038 2890 2622 
Q 3303 2206 3303 1553 
Q 3303 931 2941 478 
Q 2500 -78 1738 -78 
Q 1113 -78 717 272 
Q 322 622 266 1200 
z
" transform="scale(0.015625)"/>
       </defs>
       <use xlink:href="#ArialMT-32"/>
       <use xlink:href="#ArialMT-2e" x="55.615234"/>
       <use xlink:href="#ArialMT-35" x="83.398438"/>
      </g>
     </g>
    </g>
    <g id="ytick_3">
     <g id="line2d_7">
      <g>
       <use xlink:href="#m9e61b3d9f4" x="90" y="223.493064" style="fill: #262626; stroke: #262626; stroke-width: 1.25"/>
      </g>
     </g>
     <g id="text_7">
      <!-- 5.0 -->
      <g style="fill: #262626" transform="translate(65.21 227.429861) scale(0.11 -0.11)">
       <use xlink:href="#ArialMT-35"/>
       <use xlink:href="#ArialMT-2e" x="55.615234"/>
       <use xlink:href="#ArialMT-30" x="83.398438"/>
      </g>
     </g>
    </g>
    <g id="ytick_4">
     <g id="line2d_8">
      <g>
       <use xlink:href="#m9e61b3d9f4" x="90" y="189.099207" style="fill: #262626; stroke: #262626; stroke-width: 1.25"/>
      </g>
     </g>
     <g id="text_8">
      <!-- 7.5 -->
      <g style="fill: #262626" transform="translate(65.21 193.036003) scale(0.11 -0.11)">
       <defs>
        <path id="ArialMT-37" d="M 303 3981 
L 303 4522 
L 3269 4522 
L 3269 4084 
Q 2831 3619 2401 2847 
Q 1972 2075 1738 1259 
Q 1569 684 1522 0 
L 944 0 
Q 953 541 1156 1306 
Q 1359 2072 1739 2783 
Q 2119 3494 2547 3981 
L 303 3981 
z
" transform="scale(0.015625)"/>
       </defs>
       <use xlink:href="#ArialMT-37"/>
       <use xlink:href="#ArialMT-2e" x="55.615234"/>
       <use xlink:href="#ArialMT-35" x="83.398438"/>
      </g>
     </g>
    </g>
    <g id="ytick_5">
     <g id="line2d_9">
      <g>
       <use xlink:href="#m9e61b3d9f4" x="90" y="154.705349" style="fill: #262626; stroke: #262626; stroke-width: 1.25"/>
      </g>
     </g>
     <g id="text_9">
      <!-- 10.0 -->
      <g style="fill: #262626" transform="translate(59.092969 158.642146) scale(0.11 -0.11)">
       <use xlink:href="#ArialMT-31"/>
       <use xlink:href="#ArialMT-30" x="55.615234"/>
       <use xlink:href="#ArialMT-2e" x="111.230469"/>
       <use xlink:href="#ArialMT-30" x="139.013672"/>
      </g>
     </g>
    </g>
    <g id="ytick_6">
     <g id="line2d_10">
      <g>
       <use xlink:href="#m9e61b3d9f4" x="90" y="120.311491" style="fill: #262626; stroke: #262626; stroke-width: 1.25"/>
      </g>
     </g>
     <g id="text_10">
      <!-- 12.5 -->
      <g style="fill: #262626" transform="translate(59.092969 124.248288) scale(0.11 -0.11)">
       <use xlink:href="#ArialMT-31"/>
       <use xlink:href="#ArialMT-32" x="55.615234"/>
       <use xlink:href="#ArialMT-2e" x="111.230469"/>
       <use xlink:href="#ArialMT-35" x="139.013672"/>
      </g>
     </g>
    </g>
    <g id="ytick_7">
     <g id="line2d_11">
      <g>
       <use xlink:href="#m9e61b3d9f4" x="90" y="85.917633" style="fill: #262626; stroke: #262626; stroke-width: 1.25"/>
      </g>
     </g>
     <g id="text_11">
      <!-- 15.0 -->
      <g style="fill: #262626" transform="translate(59.092969 89.85443) scale(0.11 -0.11)">
       <use xlink:href="#ArialMT-31"/>
       <use xlink:href="#ArialMT-35" x="55.615234"/>
       <use xlink:href="#ArialMT-2e" x="111.230469"/>
       <use xlink:href="#ArialMT-30" x="139.013672"/>
      </g>
     </g>
    </g>
    <g id="ytick_8">
     <g id="line2d_12">
      <g>
       <use xlink:href="#m9e61b3d9f4" x="90" y="51.523775" style="fill: #262626; stroke: #262626; stroke-width: 1.25"/>
      </g>
     </g>
     <g id="text_12">
      <!-- 17.5 -->
      <g style="fill: #262626" transform="translate(59.092969 55.460572) scale(0.11 -0.11)">
       <use xlink:href="#ArialMT-31"/>
       <use xlink:href="#ArialMT-37" x="55.615234"/>
       <use xlink:href="#ArialMT-2e" x="111.230469"/>
       <use xlink:href="#ArialMT-35" x="139.013672"/>
      </g>
     </g>
    </g>
    <g id="text_13">
     <!-- Time (s) -->
     <g style="fill: #262626" transform="translate(52.567344 203.569687) rotate(-90) scale(0.12 -0.12)">
      <defs>
       <path id="ArialMT-54" d="M 1659 0 
L 1659 4041 
L 150 4041 
L 150 4581 
L 3781 4581 
L 3781 4041 
L 2266 4041 
L 2266 0 
L 1659 0 
z
" transform="scale(0.015625)"/>
       <path id="ArialMT-69" d="M 425 3934 
L 425 4581 
L 988 4581 
L 988 3934 
L 425 3934 
z
M 425 0 
L 425 3319 
L 988 3319 
L 988 0 
L 425 0 
z
" transform="scale(0.015625)"/>
       <path id="ArialMT-6d" d="M 422 0 
L 422 3319 
L 925 3319 
L 925 2853 
Q 1081 3097 1340 3245 
Q 1600 3394 1931 3394 
Q 2300 3394 2536 3241 
Q 2772 3088 2869 2813 
Q 3263 3394 3894 3394 
Q 4388 3394 4653 3120 
Q 4919 2847 4919 2278 
L 4919 0 
L 4359 0 
L 4359 2091 
Q 4359 2428 4304 2576 
Q 4250 2725 4106 2815 
Q 3963 2906 3769 2906 
Q 3419 2906 3187 2673 
Q 2956 2441 2956 1928 
L 2956 0 
L 2394 0 
L 2394 2156 
Q 2394 2531 2256 2718 
Q 2119 2906 1806 2906 
Q 1569 2906 1367 2781 
Q 1166 2656 1075 2415 
Q 984 2175 984 1722 
L 984 0 
L 422 0 
z
" transform="scale(0.015625)"/>
       <path id="ArialMT-28" d="M 1497 -1347 
Q 1031 -759 709 28 
Q 388 816 388 1659 
Q 388 2403 628 3084 
Q 909 3875 1497 4659 
L 1900 4659 
Q 1522 4009 1400 3731 
Q 1209 3300 1100 2831 
Q 966 2247 966 1656 
Q 966 153 1900 -1347 
L 1497 -1347 
z
" transform="scale(0.015625)"/>
       <path id="ArialMT-73" d="M 197 991 
L 753 1078 
Q 800 744 1014 566 
Q 1228 388 1613 388 
Q 2000 388 2187 545 
Q 2375 703 2375 916 
Q 2375 1106 2209 1216 
Q 2094 1291 1634 1406 
Q 1016 1563 777 1677 
Q 538 1791 414 1992 
Q 291 2194 291 2438 
Q 291 2659 392 2848 
Q 494 3038 669 3163 
Q 800 3259 1026 3326 
Q 1253 3394 1513 3394 
Q 1903 3394 2198 3281 
Q 2494 3169 2634 2976 
Q 2775 2784 2828 2463 
L 2278 2388 
Q 2241 2644 2061 2787 
Q 1881 2931 1553 2931 
Q 1166 2931 1000 2803 
Q 834 2675 834 2503 
Q 834 2394 903 2306 
Q 972 2216 1119 2156 
Q 1203 2125 1616 2013 
Q 2213 1853 2448 1751 
Q 2684 1650 2818 1456 
Q 2953 1263 2953 975 
Q 2953 694 2789 445 
Q 2625 197 2315 61 
Q 2006 -75 1616 -75 
Q 969 -75 630 194 
Q 291 463 197 991 
z
" transform="scale(0.015625)"/>
       <path id="ArialMT-29" d="M 791 -1347 
L 388 -1347 
Q 1322 153 1322 1656 
Q 1322 2244 1188 2822 
Q 1081 3291 891 3722 
Q 769 4003 388 4659 
L 791 4659 
Q 1378 3875 1659 3084 
Q 1900 2403 1900 1659 
Q 1900 816 1576 28 
Q 1253 -759 791 -1347 
z
" transform="scale(0.015625)"/>
      </defs>
      <use xlink:href="#ArialMT-54"/>
      <use xlink:href="#ArialMT-69" x="57.333984"/>
      <use xlink:href="#ArialMT-6d" x="79.550781"/>
      <use xlink:href="#ArialMT-65" x="162.851562"/>
      <use xlink:href="#ArialMT-20" x="218.466797"/>
      <use xlink:href="#ArialMT-28" x="246.25"/>
      <use xlink:href="#ArialMT-73" x="279.550781"/>
      <use xlink:href="#ArialMT-29" x="329.550781"/>
     </g>
    </g>
   </g>
   <g id="PolyCollection_1">
    <defs>
     <path id="m16628efb28" d="M 159.887972 -71.203344 
L 159.612028 -71.203344 
L 159.566697 -73.556845 
L 159.509025 -75.910347 
L 159.436453 -78.263848 
L 159.346114 -80.61735 
L 159.234848 -82.970852 
L 159.099249 -85.324353 
L 158.935722 -87.677855 
L 158.740582 -90.031356 
L 158.510171 -92.384858 
L 158.241014 -94.738359 
L 157.930001 -97.091861 
L 157.574604 -99.445363 
L 157.173103 -101.798864 
L 156.724827 -104.152366 
L 156.230382 -106.505867 
L 155.691866 -108.859369 
L 155.113019 -111.212871 
L 154.499332 -113.566372 
L 153.858055 -115.919874 
L 153.198124 -118.273375 
L 152.529975 -120.626877 
L 151.865268 -122.980378 
L 151.216512 -125.33388 
L 150.596614 -127.687382 
L 150.018382 -130.040883 
L 149.494006 -132.394385 
L 149.034542 -134.747886 
L 148.649448 -137.101388 
L 148.346185 -139.454889 
L 148.129917 -141.808391 
L 148.00332 -144.161893 
L 147.966519 -146.515394 
L 148.017142 -148.868896 
L 148.150494 -151.222397 
L 148.359832 -153.575899 
L 148.63672 -155.929401 
L 148.971438 -158.282902 
L 149.353426 -160.636404 
L 149.771721 -162.989905 
L 150.21538 -165.343407 
L 150.673846 -167.696908 
L 151.137266 -170.05041 
L 151.596724 -172.403912 
L 152.044404 -174.757413 
L 152.47369 -177.110915 
L 152.879186 -179.464416 
L 153.256706 -181.817918 
L 153.603217 -184.171419 
L 153.916765 -186.524921 
L 154.196403 -188.878423 
L 154.442105 -191.231924 
L 154.654702 -193.585426 
L 154.835812 -195.938927 
L 154.987773 -198.292429 
L 155.11357 -200.645931 
L 155.21675 -202.999432 
L 155.301307 -205.352934 
L 155.371559 -207.706435 
L 155.431986 -210.059937 
L 155.487064 -212.413438 
L 155.541085 -214.76694 
L 155.597982 -217.120442 
L 155.661174 -219.473943 
L 155.733439 -221.827445 
L 155.81682 -224.180946 
L 155.91259 -226.534448 
L 156.021248 -228.887949 
L 156.142571 -231.241451 
L 156.275701 -233.594953 
L 156.419258 -235.948454 
L 156.571484 -238.301956 
L 156.730379 -240.655457 
L 156.893846 -243.008959 
L 157.05982 -245.362461 
L 157.226373 -247.715962 
L 157.3918 -250.069464 
L 157.554665 -252.422965 
L 157.71383 -254.776467 
L 157.868446 -257.129968 
L 158.017926 -259.48347 
L 158.161897 -261.836972 
L 158.300144 -264.190473 
L 158.432549 -266.543975 
L 158.559034 -268.897476 
L 158.67952 -271.250978 
L 158.793889 -273.604479 
L 158.901975 -275.957981 
L 159.003566 -278.311483 
L 159.098417 -280.664984 
L 159.186279 -283.018486 
L 159.266936 -285.371987 
L 159.340232 -287.725489 
L 159.406101 -290.078991 
L 159.464591 -292.432492 
L 159.515872 -294.785994 
L 159.560237 -297.139495 
L 159.598089 -299.492997 
L 159.629928 -301.846498 
L 159.656319 -304.2 
L 159.843681 -304.2 
L 159.843681 -304.2 
L 159.870072 -301.846498 
L 159.901911 -299.492997 
L 159.939763 -297.139495 
L 159.984128 -294.785994 
L 160.035409 -292.432492 
L 160.093899 -290.078991 
L 160.159768 -287.725489 
L 160.233064 -285.371987 
L 160.313721 -283.018486 
L 160.401583 -280.664984 
L 160.496434 -278.311483 
L 160.598025 -275.957981 
L 160.706111 -273.604479 
L 160.82048 -271.250978 
L 160.940966 -268.897476 
L 161.067451 -266.543975 
L 161.199856 -264.190473 
L 161.338103 -261.836972 
L 161.482074 -259.48347 
L 161.631554 -257.129968 
L 161.78617 -254.776467 
L 161.945335 -252.422965 
L 162.1082 -250.069464 
L 162.273627 -247.715962 
L 162.44018 -245.362461 
L 162.606154 -243.008959 
L 162.769621 -240.655457 
L 162.928516 -238.301956 
L 163.080742 -235.948454 
L 163.224299 -233.594953 
L 163.357429 -231.241451 
L 163.478752 -228.887949 
L 163.58741 -226.534448 
L 163.68318 -224.180946 
L 163.766561 -221.827445 
L 163.838826 -219.473943 
L 163.902018 -217.120442 
L 163.958915 -214.76694 
L 164.012936 -212.413438 
L 164.068014 -210.059937 
L 164.128441 -207.706435 
L 164.198693 -205.352934 
L 164.28325 -202.999432 
L 164.38643 -200.645931 
L 164.512227 -198.292429 
L 164.664188 -195.938927 
L 164.845298 -193.585426 
L 165.057895 -191.231924 
L 165.303597 -188.878423 
L 165.583235 -186.524921 
L 165.896783 -184.171419 
L 166.243294 -181.817918 
L 166.620814 -179.464416 
L 167.02631 -177.110915 
L 167.455596 -174.757413 
L 167.903276 -172.403912 
L 168.362734 -170.05041 
L 168.826154 -167.696908 
L 169.28462 -165.343407 
L 169.728279 -162.989905 
L 170.146574 -160.636404 
L 170.528562 -158.282902 
L 170.86328 -155.929401 
L 171.140168 -153.575899 
L 171.349506 -151.222397 
L 171.482858 -148.868896 
L 171.533481 -146.515394 
L 171.49668 -144.161893 
L 171.370083 -141.808391 
L 171.153815 -139.454889 
L 170.850552 -137.101388 
L 170.465458 -134.747886 
L 170.005994 -132.394385 
L 169.481618 -130.040883 
L 168.903386 -127.687382 
L 168.283488 -125.33388 
L 167.634732 -122.980378 
L 166.970025 -120.626877 
L 166.301876 -118.273375 
L 165.641945 -115.919874 
L 165.000668 -113.566372 
L 164.386981 -111.212871 
L 163.808134 -108.859369 
L 163.269618 -106.505867 
L 162.775173 -104.152366 
L 162.326897 -101.798864 
L 161.925396 -99.445363 
L 161.569999 -97.091861 
L 161.258986 -94.738359 
L 160.989829 -92.384858 
L 160.759418 -90.031356 
L 160.564278 -87.677855 
L 160.400751 -85.324353 
L 160.265152 -82.970852 
L 160.153886 -80.61735 
L 160.063547 -78.263848 
L 159.990975 -75.910347 
L 159.933303 -73.556845 
L 159.887972 -71.203344 
z
" style="stroke: #d55e00; stroke-width: 2"/>
    </defs>
    <g clip-path="url(#pcb69aad60d)">
     <use xlink:href="#m16628efb28" x="0" y="360" style="fill: #d55e00; fill-opacity: 0.3; stroke: #d55e00; stroke-width: 2"/>
    </g>
   </g>
   <g id="PolyCollection_2">
    <defs>
     <path id="me513116453" d="M 299.988253 -75.579857 
L 298.511747 -75.579857 
L 298.277402 -76.006352 
L 297.984735 -76.432848 
L 297.624253 -76.859343 
L 297.186238 -77.285839 
L 296.661069 -77.712335 
L 296.039574 -78.13883 
L 295.313395 -78.565326 
L 294.475348 -78.991821 
L 293.51973 -79.418317 
L 292.442575 -79.844812 
L 291.241809 -80.271308 
L 289.917308 -80.697803 
L 288.470845 -81.124299 
L 286.905936 -81.550794 
L 285.227608 -81.97729 
L 283.442113 -82.403785 
L 281.556632 -82.830281 
L 279.579011 -83.256777 
L 277.517584 -83.683272 
L 275.381112 -84.109768 
L 273.178866 -84.536263 
L 270.920887 -84.962759 
L 268.618378 -85.389254 
L 266.284232 -85.81575 
L 263.933603 -86.242245 
L 261.584471 -86.668741 
L 259.258081 -87.095236 
L 256.979172 -87.521732 
L 254.7759 -87.948227 
L 252.67938 -88.374723 
L 250.722809 -88.801218 
L 248.940179 -89.227714 
L 247.364624 -89.65421 
L 246.026518 -90.080705 
L 244.951457 -90.507201 
L 244.158314 -90.933696 
L 243.657554 -91.360192 
L 243.45 -91.786687 
L 243.526192 -92.213183 
L 243.866459 -92.639678 
L 244.441747 -93.066174 
L 245.215164 -93.492669 
L 246.144161 -93.919165 
L 247.183184 -94.34566 
L 248.286596 -94.772156 
L 249.411629 -95.198652 
L 250.521143 -95.625147 
L 251.585968 -96.051643 
L 252.586641 -96.478138 
L 253.514417 -96.904634 
L 254.371465 -97.331129 
L 255.170265 -97.757625 
L 255.932239 -98.18412 
L 256.685732 -98.610616 
L 257.463509 -99.037111 
L 258.299949 -99.463607 
L 259.228138 -99.890102 
L 260.277093 -100.316598 
L 261.469291 -100.743093 
L 262.8187 -101.169589 
L 264.329442 -101.596085 
L 265.995168 -102.02258 
L 267.799208 -102.449076 
L 269.715456 -102.875571 
L 271.709938 -103.302067 
L 273.74294 -103.728562 
L 275.771528 -104.155058 
L 277.752298 -104.581553 
L 279.644122 -105.008049 
L 281.410711 -105.434544 
L 283.022798 -105.86104 
L 284.459782 -106.287535 
L 285.710722 -106.714031 
L 286.774611 -107.140527 
L 287.659935 -107.567022 
L 288.383561 -107.993518 
L 288.969069 -108.420013 
L 289.444677 -108.846509 
L 289.840942 -109.273004 
L 290.188446 -109.6995 
L 290.515636 -110.125995 
L 290.847013 -110.552491 
L 291.201775 -110.978986 
L 291.593015 -111.405482 
L 292.027478 -111.831977 
L 292.50586 -112.258473 
L 293.023559 -112.684968 
L 293.571771 -113.111464 
L 294.138785 -113.53796 
L 294.711346 -113.964455 
L 295.275941 -114.390951 
L 295.819925 -114.817446 
L 296.332387 -115.243942 
L 296.804739 -115.670437 
L 297.231003 -116.096933 
L 297.60785 -116.523428 
L 297.934405 -116.949924 
L 298.211904 -117.376419 
L 298.44325 -117.802915 
L 300.05675 -117.802915 
L 300.05675 -117.802915 
L 300.288096 -117.376419 
L 300.565595 -116.949924 
L 300.89215 -116.523428 
L 301.268997 -116.096933 
L 301.695261 -115.670437 
L 302.167613 -115.243942 
L 302.680075 -114.817446 
L 303.224059 -114.390951 
L 303.788654 -113.964455 
L 304.361215 -113.53796 
L 304.928229 -113.111464 
L 305.476441 -112.684968 
L 305.99414 -112.258473 
L 306.472522 -111.831977 
L 306.906985 -111.405482 
L 307.298225 -110.978986 
L 307.652987 -110.552491 
L 307.984364 -110.125995 
L 308.311554 -109.6995 
L 308.659058 -109.273004 
L 309.055323 -108.846509 
L 309.530931 -108.420013 
L 310.116439 -107.993518 
L 310.840065 -107.567022 
L 311.725389 -107.140527 
L 312.789278 -106.714031 
L 314.040218 -106.287535 
L 315.477202 -105.86104 
L 317.089289 -105.434544 
L 318.855878 -105.008049 
L 320.747702 -104.581553 
L 322.728472 -104.155058 
L 324.75706 -103.728562 
L 326.790062 -103.302067 
L 328.784544 -102.875571 
L 330.700792 -102.449076 
L 332.504832 -102.02258 
L 334.170558 -101.596085 
L 335.6813 -101.169589 
L 337.030709 -100.743093 
L 338.222907 -100.316598 
L 339.271862 -99.890102 
L 340.200051 -99.463607 
L 341.036491 -99.037111 
L 341.814268 -98.610616 
L 342.567761 -98.18412 
L 343.329735 -97.757625 
L 344.128535 -97.331129 
L 344.985583 -96.904634 
L 345.913359 -96.478138 
L 346.914032 -96.051643 
L 347.978857 -95.625147 
L 349.088371 -95.198652 
L 350.213404 -94.772156 
L 351.316816 -94.34566 
L 352.355839 -93.919165 
L 353.284836 -93.492669 
L 354.058253 -93.066174 
L 354.633541 -92.639678 
L 354.973808 -92.213183 
L 355.05 -91.786687 
L 354.842446 -91.360192 
L 354.341686 -90.933696 
L 353.548543 -90.507201 
L 352.473482 -90.080705 
L 351.135376 -89.65421 
L 349.559821 -89.227714 
L 347.777191 -88.801218 
L 345.82062 -88.374723 
L 343.7241 -87.948227 
L 341.520828 -87.521732 
L 339.241919 -87.095236 
L 336.915529 -86.668741 
L 334.566397 -86.242245 
L 332.215768 -85.81575 
L 329.881622 -85.389254 
L 327.579113 -84.962759 
L 325.321134 -84.536263 
L 323.118888 -84.109768 
L 320.982416 -83.683272 
L 318.920989 -83.256777 
L 316.943368 -82.830281 
L 315.057887 -82.403785 
L 313.272392 -81.97729 
L 311.594064 -81.550794 
L 310.029155 -81.124299 
L 308.582692 -80.697803 
L 307.258191 -80.271308 
L 306.057425 -79.844812 
L 304.98027 -79.418317 
L 304.024652 -78.991821 
L 303.186605 -78.565326 
L 302.460426 -78.13883 
L 301.838931 -77.712335 
L 301.313762 -77.285839 
L 300.875747 -76.859343 
L 300.515265 -76.432848 
L 300.222598 -76.006352 
L 299.988253 -75.579857 
z
" style="stroke: #0072b2; stroke-width: 2"/>
    </defs>
    <g clip-path="url(#pcb69aad60d)">
     <use xlink:href="#me513116453" x="0" y="360" style="fill: #0072b2; fill-opacity: 0.3; stroke: #0072b2; stroke-width: 2"/>
    </g>
   </g>
   <g id="PolyCollection_3">
    <defs>
     <path id="m736317c037" d="M 438.878162 -52.2 
L 438.621838 -52.2 
L 438.578838 -54.513073 
L 438.524062 -56.826145 
L 438.455104 -59.139218 
L 438.369287 -61.452291 
L 438.263679 -63.765364 
L 438.135134 -66.078436 
L 437.980356 -68.391509 
L 437.79598 -70.704582 
L 437.578696 -73.017654 
L 437.325395 -75.330727 
L 437.033352 -77.6438 
L 436.700428 -79.956873 
L 436.325294 -82.269945 
L 435.907645 -84.583018 
L 435.448404 -86.896091 
L 434.949865 -89.209164 
L 434.415779 -91.522236 
L 433.851339 -93.835309 
L 433.263061 -96.148382 
L 432.658558 -98.461454 
L 432.046213 -100.774527 
L 431.434778 -103.0876 
L 430.832941 -105.400673 
L 430.248895 -107.713745 
L 429.689981 -110.026818 
L 429.162421 -112.339891 
L 428.671203 -114.652963 
L 428.220115 -116.966036 
L 427.811927 -119.279109 
L 427.448692 -121.592182 
L 427.132119 -123.905254 
L 426.86395 -126.218327 
L 426.646283 -128.5314 
L 426.481786 -130.844473 
L 426.373741 -133.157545 
L 426.325924 -135.470618 
L 426.342305 -137.783691 
L 426.426611 -140.096763 
L 426.581809 -142.409836 
L 426.809562 -144.722909 
L 427.109739 -147.035982 
L 427.48004 -149.349054 
L 427.915781 -151.662127 
L 428.409874 -153.9752 
L 428.953006 -156.288272 
L 429.533999 -158.601345 
L 430.14032 -160.914418 
L 430.758689 -163.227491 
L 431.375743 -165.540563 
L 431.978681 -167.853636 
L 432.555873 -170.166709 
L 433.097349 -172.479781 
L 433.595187 -174.792854 
L 434.043743 -177.105927 
L 434.439741 -179.419 
L 434.782217 -181.732072 
L 435.072342 -184.045145 
L 435.313129 -186.358218 
L 435.509072 -188.671291 
L 435.665729 -190.984363 
L 435.789289 -193.297436 
L 435.886159 -195.610509 
L 435.962585 -197.923581 
L 436.024343 -200.236654 
L 436.076503 -202.549727 
L 436.123293 -204.8628 
L 436.168036 -207.175872 
L 436.213178 -209.488945 
L 436.260376 -211.802018 
L 436.310637 -214.11509 
L 436.364479 -216.428163 
L 436.422097 -218.741236 
L 436.483517 -221.054309 
L 436.548722 -223.367381 
L 436.617733 -225.680454 
L 436.690658 -227.993527 
L 436.76769 -230.306599 
L 436.849075 -232.619672 
L 436.935057 -234.932745 
L 437.025804 -237.245818 
L 437.121331 -239.55889 
L 437.22144 -241.871963 
L 437.325673 -244.185036 
L 437.433288 -246.498109 
L 437.543271 -248.811181 
L 437.654368 -251.124254 
L 437.76515 -253.437327 
L 437.874089 -255.750399 
L 437.979652 -258.063472 
L 438.080383 -260.376545 
L 438.174995 -262.689618 
L 438.262431 -265.00269 
L 438.341915 -267.315763 
L 438.412975 -269.628836 
L 438.475442 -271.941908 
L 438.529432 -274.254981 
L 438.575306 -276.568054 
L 438.613623 -278.881127 
L 438.645084 -281.194199 
L 438.854916 -281.194199 
L 438.854916 -281.194199 
L 438.886377 -278.881127 
L 438.924694 -276.568054 
L 438.970568 -274.254981 
L 439.024558 -271.941908 
L 439.087025 -269.628836 
L 439.158085 -267.315763 
L 439.237569 -265.00269 
L 439.325005 -262.689618 
L 439.419617 -260.376545 
L 439.520348 -258.063472 
L 439.625911 -255.750399 
L 439.73485 -253.437327 
L 439.845632 -251.124254 
L 439.956729 -248.811181 
L 440.066712 -246.498109 
L 440.174327 -244.185036 
L 440.27856 -241.871963 
L 440.378669 -239.55889 
L 440.474196 -237.245818 
L 440.564943 -234.932745 
L 440.650925 -232.619672 
L 440.73231 -230.306599 
L 440.809342 -227.993527 
L 440.882267 -225.680454 
L 440.951278 -223.367381 
L 441.016483 -221.054309 
L 441.077903 -218.741236 
L 441.135521 -216.428163 
L 441.189363 -214.11509 
L 441.239624 -211.802018 
L 441.286822 -209.488945 
L 441.331964 -207.175872 
L 441.376707 -204.8628 
L 441.423497 -202.549727 
L 441.475657 -200.236654 
L 441.537415 -197.923581 
L 441.613841 -195.610509 
L 441.710711 -193.297436 
L 441.834271 -190.984363 
L 441.990928 -188.671291 
L 442.186871 -186.358218 
L 442.427658 -184.045145 
L 442.717783 -181.732072 
L 443.060259 -179.419 
L 443.456257 -177.105927 
L 443.904813 -174.792854 
L 444.402651 -172.479781 
L 444.944127 -170.166709 
L 445.521319 -167.853636 
L 446.124257 -165.540563 
L 446.741311 -163.227491 
L 447.35968 -160.914418 
L 447.966001 -158.601345 
L 448.546994 -156.288272 
L 449.090126 -153.9752 
L 449.584219 -151.662127 
L 450.01996 -149.349054 
L 450.390261 -147.035982 
L 450.690438 -144.722909 
L 450.918191 -142.409836 
L 451.073389 -140.096763 
L 451.157695 -137.783691 
L 451.174076 -135.470618 
L 451.126259 -133.157545 
L 451.018214 -130.844473 
L 450.853717 -128.5314 
L 450.63605 -126.218327 
L 450.367881 -123.905254 
L 450.051308 -121.592182 
L 449.688073 -119.279109 
L 449.279885 -116.966036 
L 448.828797 -114.652963 
L 448.337579 -112.339891 
L 447.810019 -110.026818 
L 447.251105 -107.713745 
L 446.667059 -105.400673 
L 446.065222 -103.0876 
L 445.453787 -100.774527 
L 444.841442 -98.461454 
L 444.236939 -96.148382 
L 443.648661 -93.835309 
L 443.084221 -91.522236 
L 442.550135 -89.209164 
L 442.051596 -86.896091 
L 441.592355 -84.583018 
L 441.174706 -82.269945 
L 440.799572 -79.956873 
L 440.466648 -77.6438 
L 440.174605 -75.330727 
L 439.921304 -73.017654 
L 439.70402 -70.704582 
L 439.519644 -68.391509 
L 439.364866 -66.078436 
L 439.236321 -63.765364 
L 439.130713 -61.452291 
L 439.044896 -59.139218 
L 438.975938 -56.826145 
L 438.921162 -54.513073 
L 438.878162 -52.2 
z
" style="stroke: #009e73; stroke-width: 2"/>
    </defs>
    <g clip-path="url(#pcb69aad60d)">
     <use xlink:href="#m736317c037" x="0" y="360" style="fill: #009e73; fill-opacity: 0.3; stroke: #009e73; stroke-width: 2"/>
    </g>
   </g>
   <g id="PolyCollection_4">
    <defs>
     <path id="md96eaf9564" d="M 579.020523 -80.58655 
L 577.479477 -80.58655 
L 577.266813 -81.030259 
L 577.011277 -81.473968 
L 576.708687 -81.917677 
L 576.35551 -82.361386 
L 575.949065 -82.805095 
L 575.487685 -83.248804 
L 574.970789 -83.692513 
L 574.398859 -84.136222 
L 573.773297 -84.579931 
L 573.096167 -85.02364 
L 572.369835 -85.467349 
L 571.59654 -85.911058 
L 570.777937 -86.354767 
L 569.914686 -86.798476 
L 569.006136 -87.242184 
L 568.050178 -87.685893 
L 567.043305 -88.129602 
L 565.980924 -88.573311 
L 564.85791 -89.01702 
L 563.669369 -89.460729 
L 562.411572 -89.904438 
L 561.082947 -90.348147 
L 559.685035 -90.791856 
L 558.2233 -91.235565 
L 556.707682 -91.679274 
L 555.152793 -92.122983 
L 553.577718 -92.566692 
L 552.005367 -93.010401 
L 550.461432 -93.454109 
L 548.972971 -93.897818 
L 547.566742 -94.341527 
L 546.267394 -94.785236 
L 545.095663 -95.228945 
L 544.066712 -95.672654 
L 543.188762 -96.116363 
L 542.462143 -96.560072 
L 541.878844 -97.003781 
L 541.422644 -97.44749 
L 541.06985 -97.891199 
L 540.790608 -98.334908 
L 540.550738 -98.778617 
L 540.31399 -99.222326 
L 540.044578 -99.666035 
L 539.70981 -100.109743 
L 539.282642 -100.553452 
L 538.743941 -100.997161 
L 538.084282 -101.44087 
L 537.305107 -101.884579 
L 536.419141 -102.328288 
L 535.449987 -102.771997 
L 534.430921 -103.215706 
L 533.402941 -103.659415 
L 532.412228 -104.103124 
L 531.507192 -104.546833 
L 530.735349 -104.990542 
L 530.140262 -105.434251 
L 529.758804 -105.87796 
L 529.618936 -106.321668 
L 529.738175 -106.765377 
L 530.122852 -107.209086 
L 530.768177 -107.652795 
L 531.65908 -108.096504 
L 532.771718 -108.540213 
L 534.075498 -108.983922 
L 535.535413 -109.427631 
L 537.114509 -109.87134 
L 538.776259 -110.315049 
L 540.486694 -110.758758 
L 542.216116 -111.202467 
L 543.94033 -111.646176 
L 545.641312 -112.089885 
L 547.307326 -112.533594 
L 548.932537 -112.977302 
L 550.516188 -113.421011 
L 552.061458 -113.86472 
L 553.574125 -114.308429 
L 555.061163 -114.752138 
L 556.529411 -115.195847 
L 557.984408 -115.639556 
L 559.429491 -116.083265 
L 560.865217 -116.526974 
L 562.289117 -116.970683 
L 563.695793 -117.414392 
L 565.077302 -117.858101 
L 566.423774 -118.30181 
L 567.724182 -118.745519 
L 568.967186 -119.189227 
L 570.141954 -119.632936 
L 571.238911 -120.076645 
L 572.250323 -120.520354 
L 573.170724 -120.964063 
L 573.997126 -121.407772 
L 574.72905 -121.851481 
L 575.368381 -122.29519 
L 575.919082 -122.738899 
L 576.386817 -123.182608 
L 576.778517 -123.626317 
L 577.101935 -124.070026 
L 577.365218 -124.513735 
L 579.134782 -124.513735 
L 579.134782 -124.513735 
L 579.398065 -124.070026 
L 579.721483 -123.626317 
L 580.113183 -123.182608 
L 580.580918 -122.738899 
L 581.131619 -122.29519 
L 581.77095 -121.851481 
L 582.502874 -121.407772 
L 583.329276 -120.964063 
L 584.249677 -120.520354 
L 585.261089 -120.076645 
L 586.358046 -119.632936 
L 587.532814 -119.189227 
L 588.775818 -118.745519 
L 590.076226 -118.30181 
L 591.422698 -117.858101 
L 592.804207 -117.414392 
L 594.210883 -116.970683 
L 595.634783 -116.526974 
L 597.070509 -116.083265 
L 598.515592 -115.639556 
L 599.970589 -115.195847 
L 601.438837 -114.752138 
L 602.925875 -114.308429 
L 604.438542 -113.86472 
L 605.983812 -113.421011 
L 607.567463 -112.977302 
L 609.192674 -112.533594 
L 610.858688 -112.089885 
L 612.55967 -111.646176 
L 614.283884 -111.202467 
L 616.013306 -110.758758 
L 617.723741 -110.315049 
L 619.385491 -109.87134 
L 620.964587 -109.427631 
L 622.424502 -108.983922 
L 623.728282 -108.540213 
L 624.84092 -108.096504 
L 625.731823 -107.652795 
L 626.377148 -107.209086 
L 626.761825 -106.765377 
L 626.881064 -106.321668 
L 626.741196 -105.87796 
L 626.359738 -105.434251 
L 625.764651 -104.990542 
L 624.992808 -104.546833 
L 624.087772 -104.103124 
L 623.097059 -103.659415 
L 622.069079 -103.215706 
L 621.050013 -102.771997 
L 620.080859 -102.328288 
L 619.194893 -101.884579 
L 618.415718 -101.44087 
L 617.756059 -100.997161 
L 617.217358 -100.553452 
L 616.79019 -100.109743 
L 616.455422 -99.666035 
L 616.18601 -99.222326 
L 615.949262 -98.778617 
L 615.709392 -98.334908 
L 615.43015 -97.891199 
L 615.077356 -97.44749 
L 614.621156 -97.003781 
L 614.037857 -96.560072 
L 613.311238 -96.116363 
L 612.433288 -95.672654 
L 611.404337 -95.228945 
L 610.232606 -94.785236 
L 608.933258 -94.341527 
L 607.527029 -93.897818 
L 606.038568 -93.454109 
L 604.494633 -93.010401 
L 602.922282 -92.566692 
L 601.347207 -92.122983 
L 599.792318 -91.679274 
L 598.2767 -91.235565 
L 596.814965 -90.791856 
L 595.417053 -90.348147 
L 594.088428 -89.904438 
L 592.830631 -89.460729 
L 591.64209 -89.01702 
L 590.519076 -88.573311 
L 589.456695 -88.129602 
L 588.449822 -87.685893 
L 587.493864 -87.242184 
L 586.585314 -86.798476 
L 585.722063 -86.354767 
L 584.90346 -85.911058 
L 584.130165 -85.467349 
L 583.403833 -85.02364 
L 582.726703 -84.579931 
L 582.101141 -84.136222 
L 581.529211 -83.692513 
L 581.012315 -83.248804 
L 580.550935 -82.805095 
L 580.14449 -82.361386 
L 579.791313 -81.917677 
L 579.488723 -81.473968 
L 579.233187 -81.030259 
L 579.020523 -80.58655 
z
" style="stroke: #cc79a7; stroke-width: 2"/>
    </defs>
    <g clip-path="url(#pcb69aad60d)">
     <use xlink:href="#md96eaf9564" x="0" y="360" style="fill: #cc79a7; fill-opacity: 0.3; stroke: #cc79a7; stroke-width: 2"/>
    </g>
   </g>
   <g id="patch_3">
    <path d="M 90 320.4 
L 90 43.2 
" style="fill: none; stroke: #262626; stroke-width: 1.25; stroke-linejoin: miter; stroke-linecap: square"/>
   </g>
   <g id="patch_4">
    <path d="M 648 320.4 
L 648 43.2 
" style="fill: none; stroke: #262626; stroke-width: 1.25; stroke-linejoin: miter; stroke-linecap: square"/>
   </g>
   <g id="patch_5">
    <path d="M 90 320.4 
L 648 320.4 
" style="fill: none; stroke: #262626; stroke-width: 1.25; stroke-linejoin: miter; stroke-linecap: square"/>
   </g>
   <g id="patch_6">
    <path d="M 90 43.2 
L 648 43.2 
" style="fill: none; stroke: #262626; stroke-width: 1.25; stroke-linejoin: miter; stroke-linecap: square"/>
   </g>
   <g id="text_14">
    <!-- Lifetime -->
    <g style="fill: #262626" transform="translate(342.16375 37.2) scale(0.14 -0.14)">
     <defs>
      <path id="Arial-BoldMT-4c" d="M 491 0 
L 491 4544 
L 1416 4544 
L 1416 772 
L 3716 772 
L 3716 0 
L 491 0 
z
" transform="scale(0.015625)"/>
      <path id="Arial-BoldMT-69" d="M 459 3769 
L 459 4581 
L 1338 4581 
L 1338 3769 
L 459 3769 
z
M 459 0 
L 459 3319 
L 1338 3319 
L 1338 0 
L 459 0 
z
" transform="scale(0.015625)"/>
      <path id="Arial-BoldMT-66" d="M 75 3319 
L 563 3319 
L 563 3569 
Q 563 3988 652 4194 
Q 741 4400 980 4529 
Q 1219 4659 1584 4659 
Q 1959 4659 2319 4547 
L 2200 3934 
Q 1991 3984 1797 3984 
Q 1606 3984 1523 3895 
Q 1441 3806 1441 3553 
L 1441 3319 
L 2097 3319 
L 2097 2628 
L 1441 2628 
L 1441 0 
L 563 0 
L 563 2628 
L 75 2628 
L 75 3319 
z
" transform="scale(0.015625)"/>
      <path id="Arial-BoldMT-65" d="M 2381 1056 
L 3256 909 
Q 3088 428 2723 176 
Q 2359 -75 1813 -75 
Q 947 -75 531 491 
Q 203 944 203 1634 
Q 203 2459 634 2926 
Q 1066 3394 1725 3394 
Q 2466 3394 2894 2905 
Q 3322 2416 3303 1406 
L 1103 1406 
Q 1113 1016 1316 798 
Q 1519 581 1822 581 
Q 2028 581 2168 693 
Q 2309 806 2381 1056 
z
M 2431 1944 
Q 2422 2325 2234 2523 
Q 2047 2722 1778 2722 
Q 1491 2722 1303 2513 
Q 1116 2303 1119 1944 
L 2431 1944 
z
" transform="scale(0.015625)"/>
      <path id="Arial-BoldMT-74" d="M 1981 3319 
L 1981 2619 
L 1381 2619 
L 1381 1281 
Q 1381 875 1398 808 
Q 1416 741 1477 697 
Q 1538 653 1625 653 
Q 1747 653 1978 738 
L 2053 56 
Q 1747 -75 1359 -75 
Q 1122 -75 931 4 
Q 741 84 652 211 
Q 563 338 528 553 
Q 500 706 500 1172 
L 500 2619 
L 97 2619 
L 97 3319 
L 500 3319 
L 500 3978 
L 1381 4491 
L 1381 3319 
L 1981 3319 
z
" transform="scale(0.015625)"/>
      <path id="Arial-BoldMT-6d" d="M 394 3319 
L 1203 3319 
L 1203 2866 
Q 1638 3394 2238 3394 
Q 2556 3394 2790 3262 
Q 3025 3131 3175 2866 
Q 3394 3131 3647 3262 
Q 3900 3394 4188 3394 
Q 4553 3394 4806 3245 
Q 5059 3097 5184 2809 
Q 5275 2597 5275 2122 
L 5275 0 
L 4397 0 
L 4397 1897 
Q 4397 2391 4306 2534 
Q 4184 2722 3931 2722 
Q 3747 2722 3584 2609 
Q 3422 2497 3350 2280 
Q 3278 2063 3278 1594 
L 3278 0 
L 2400 0 
L 2400 1819 
Q 2400 2303 2353 2443 
Q 2306 2584 2207 2653 
Q 2109 2722 1941 2722 
Q 1738 2722 1575 2612 
Q 1413 2503 1342 2297 
Q 1272 2091 1272 1613 
L 1272 0 
L 394 0 
L 394 3319 
z
" transform="scale(0.015625)"/>
     </defs>
     <use xlink:href="#Arial-BoldMT-4c"/>
     <use xlink:href="#Arial-BoldMT-69" x="61.083984"/>
     <use xlink:href="#Arial-BoldMT-66" x="88.867188"/>
     <use xlink:href="#Arial-BoldMT-65" x="122.167969"/>
     <use xlink:href="#Arial-BoldMT-74" x="177.783203"/>
     <use xlink:href="#Arial-BoldMT-69" x="211.083984"/>
     <use xlink:href="#Arial-BoldMT-6d" x="238.867188"/>
     <use xlink:href="#Arial-BoldMT-65" x="327.783203"/>
    </g>
   </g>
  </g>
 </g>
 <defs>
  <clipPath id="pcb69aad60d">
   <rect x="90" y="43.2" width="558" height="277.2"/>
  </clipPath>
 </defs>
</svg>
