<?xml version="1.0" encoding="utf-8" standalone="no"?>
<!DOCTYPE svg PUBLIC "-//W3C//DTD SVG 1.1//EN"
  "http://www.w3.org/Graphics/SVG/1.1/DTD/svg11.dtd">
<svg xmlns:xlink="http://www.w3.org/1999/xlink" width="720pt" height="360pt" viewBox="0 0 720 360" xmlns="http://www.w3.org/2000/svg" version="1.1">
 <metadata>
  <rdf:RDF xmlns:dc="http://purl.org/dc/elements/1.1/" xmlns:cc="http://creativecommons.org/ns#" xmlns:rdf="http://www.w3.org/1999/02/22-rdf-syntax-ns#">
   <cc:Work>
    <dc:type rdf:resource="http://purl.org/dc/dcmitype/StillImage"/>
    <dc:date>2024-08-20T17:45:35.735320</dc:date>
    <dc:format>image/svg+xml</dc:format>
    <dc:creator>
     <cc:Agent>
      <dc:title>Matplotlib v3.8.0, https://matplotlib.org/</dc:title>
     </cc:Agent>
    </dc:creator>
   </cc:Work>
  </rdf:RDF>
 </metadata>
 <defs>
  <style type="text/css">*{stroke-linejoin: round; stroke-linecap: butt}</style>
 </defs>
 <g id="figure_1">
  <g id="patch_1">
   <path d="M 0 360 
L 720 360 
L 720 0 
L 0 0 
z
" style="fill: #ffffff"/>
  </g>
  <g id="axes_1">
   <g id="patch_2">
    <path d="M 90 320.4 
L 648 320.4 
L 648 43.2 
L 90 43.2 
z
" style="fill: #ffffff"/>
   </g>
   <g id="matplotlib.axis_1">
    <g id="xtick_1">
     <g id="line2d_1">
      <defs>
       <path id="m600a12ad51" d="M 0 0 
L 0 6 
" style="stroke: #262626; stroke-width: 1.25"/>
      </defs>
      <g>
       <use xlink:href="#m600a12ad51" x="159.75" y="320.4" style="fill: #262626; stroke: #262626; stroke-width: 1.25"/>
      </g>
     </g>
     <g id="text_1">
      <!-- State 1 -->
      <g style="fill: #262626" transform="translate(140.7375 338.489375) scale(0.12 -0.12)">
       <defs>
        <path id="ArialMT-53" d="M 288 1472 
L 859 1522 
Q 900 1178 1048 958 
Q 1197 738 1509 602 
Q 1822 466 2213 466 
Q 2559 466 2825 569 
Q 3091 672 3220 851 
Q 3350 1031 3350 1244 
Q 3350 1459 3225 1620 
Q 3100 1781 2813 1891 
Q 2628 1963 1997 2114 
Q 1366 2266 1113 2400 
Q 784 2572 623 2826 
Q 463 3081 463 3397 
Q 463 3744 659 4045 
Q 856 4347 1234 4503 
Q 1613 4659 2075 4659 
Q 2584 4659 2973 4495 
Q 3363 4331 3572 4012 
Q 3781 3694 3797 3291 
L 3216 3247 
Q 3169 3681 2898 3903 
Q 2628 4125 2100 4125 
Q 1550 4125 1298 3923 
Q 1047 3722 1047 3438 
Q 1047 3191 1225 3031 
Q 1400 2872 2139 2705 
Q 2878 2538 3153 2413 
Q 3553 2228 3743 1945 
Q 3934 1663 3934 1294 
Q 3934 928 3725 604 
Q 3516 281 3123 101 
Q 2731 -78 2241 -78 
Q 1619 -78 1198 103 
Q 778 284 539 648 
Q 300 1013 288 1472 
z
" transform="scale(0.015625)"/>
        <path id="ArialMT-74" d="M 1650 503 
L 1731 6 
Q 1494 -44 1306 -44 
Q 1000 -44 831 53 
Q 663 150 594 308 
Q 525 466 525 972 
L 525 2881 
L 113 2881 
L 113 3319 
L 525 3319 
L 525 4141 
L 1084 4478 
L 1084 3319 
L 1650 3319 
L 1650 2881 
L 1084 2881 
L 1084 941 
Q 1084 700 1114 631 
Q 1144 563 1211 522 
Q 1278 481 1403 481 
Q 1497 481 1650 503 
z
" transform="scale(0.015625)"/>
        <path id="ArialMT-61" d="M 2588 409 
Q 2275 144 1986 34 
Q 1697 -75 1366 -75 
Q 819 -75 525 192 
Q 231 459 231 875 
Q 231 1119 342 1320 
Q 453 1522 633 1644 
Q 813 1766 1038 1828 
Q 1203 1872 1538 1913 
Q 2219 1994 2541 2106 
Q 2544 2222 2544 2253 
Q 2544 2597 2384 2738 
Q 2169 2928 1744 2928 
Q 1347 2928 1158 2789 
Q 969 2650 878 2297 
L 328 2372 
Q 403 2725 575 2942 
Q 747 3159 1072 3276 
Q 1397 3394 1825 3394 
Q 2250 3394 2515 3294 
Q 2781 3194 2906 3042 
Q 3031 2891 3081 2659 
Q 3109 2516 3109 2141 
L 3109 1391 
Q 3109 606 3145 398 
Q 3181 191 3288 0 
L 2700 0 
Q 2613 175 2588 409 
z
M 2541 1666 
Q 2234 1541 1622 1453 
Q 1275 1403 1131 1340 
Q 988 1278 909 1158 
Q 831 1038 831 891 
Q 831 666 1001 516 
Q 1172 366 1500 366 
Q 1825 366 2078 508 
Q 2331 650 2450 897 
Q 2541 1088 2541 1459 
L 2541 1666 
z
" transform="scale(0.015625)"/>
        <path id="ArialMT-65" d="M 2694 1069 
L 3275 997 
Q 3138 488 2766 206 
Q 2394 -75 1816 -75 
Q 1088 -75 661 373 
Q 234 822 234 1631 
Q 234 2469 665 2931 
Q 1097 3394 1784 3394 
Q 2450 3394 2872 2941 
Q 3294 2488 3294 1666 
Q 3294 1616 3291 1516 
L 816 1516 
Q 847 969 1125 678 
Q 1403 388 1819 388 
Q 2128 388 2347 550 
Q 2566 713 2694 1069 
z
M 847 1978 
L 2700 1978 
Q 2663 2397 2488 2606 
Q 2219 2931 1791 2931 
Q 1403 2931 1139 2672 
Q 875 2413 847 1978 
z
" transform="scale(0.015625)"/>
        <path id="ArialMT-20" transform="scale(0.015625)"/>
        <path id="ArialMT-31" d="M 2384 0 
L 1822 0 
L 1822 3584 
Q 1619 3391 1289 3197 
Q 959 3003 697 2906 
L 697 3450 
Q 1169 3672 1522 3987 
Q 1875 4303 2022 4600 
L 2384 4600 
L 2384 0 
z
" transform="scale(0.015625)"/>
       </defs>
       <use xlink:href="#ArialMT-53"/>
       <use xlink:href="#ArialMT-74" x="66.699219"/>
       <use xlink:href="#ArialMT-61" x="94.482422"/>
       <use xlink:href="#ArialMT-74" x="150.097656"/>
       <use xlink:href="#ArialMT-65" x="177.880859"/>
       <use xlink:href="#ArialMT-20" x="233.496094"/>
       <use xlink:href="#ArialMT-31" x="261.279297"/>
      </g>
     </g>
    </g>
    <g id="xtick_2">
     <g id="line2d_2">
      <g>
       <use xlink:href="#m600a12ad51" x="299.25" y="320.4" style="fill: #262626; stroke: #262626; stroke-width: 1.25"/>
      </g>
     </g>
     <g id="text_2">
      <!-- State 2 -->
      <g style="fill: #262626" transform="translate(280.2375 338.489375) scale(0.12 -0.12)">
       <defs>
        <path id="ArialMT-32" d="M 3222 541 
L 3222 0 
L 194 0 
Q 188 203 259 391 
Q 375 700 629 1000 
Q 884 1300 1366 1694 
Q 2113 2306 2375 2664 
Q 2638 3022 2638 3341 
Q 2638 3675 2398 3904 
Q 2159 4134 1775 4134 
Q 1369 4134 1125 3890 
Q 881 3647 878 3216 
L 300 3275 
Q 359 3922 746 4261 
Q 1134 4600 1788 4600 
Q 2447 4600 2831 4234 
Q 3216 3869 3216 3328 
Q 3216 3053 3103 2787 
Q 2991 2522 2730 2228 
Q 2469 1934 1863 1422 
Q 1356 997 1212 845 
Q 1069 694 975 541 
L 3222 541 
z
" transform="scale(0.015625)"/>
       </defs>
       <use xlink:href="#ArialMT-53"/>
       <use xlink:href="#ArialMT-74" x="66.699219"/>
       <use xlink:href="#ArialMT-61" x="94.482422"/>
       <use xlink:href="#ArialMT-74" x="150.097656"/>
       <use xlink:href="#ArialMT-65" x="177.880859"/>
       <use xlink:href="#ArialMT-20" x="233.496094"/>
       <use xlink:href="#ArialMT-32" x="261.279297"/>
      </g>
     </g>
    </g>
    <g id="xtick_3">
     <g id="line2d_3">
      <g>
       <use xlink:href="#m600a12ad51" x="438.75" y="320.4" style="fill: #262626; stroke: #262626; stroke-width: 1.25"/>
      </g>
     </g>
     <g id="text_3">
      <!-- State 3 -->
      <g style="fill: #262626" transform="translate(419.7375 338.489375) scale(0.12 -0.12)">
       <defs>
        <path id="ArialMT-33" d="M 269 1209 
L 831 1284 
Q 928 806 1161 595 
Q 1394 384 1728 384 
Q 2125 384 2398 659 
Q 2672 934 2672 1341 
Q 2672 1728 2419 1979 
Q 2166 2231 1775 2231 
Q 1616 2231 1378 2169 
L 1441 2663 
Q 1497 2656 1531 2656 
Q 1891 2656 2178 2843 
Q 2466 3031 2466 3422 
Q 2466 3731 2256 3934 
Q 2047 4138 1716 4138 
Q 1388 4138 1169 3931 
Q 950 3725 888 3313 
L 325 3413 
Q 428 3978 793 4289 
Q 1159 4600 1703 4600 
Q 2078 4600 2393 4439 
Q 2709 4278 2876 4000 
Q 3044 3722 3044 3409 
Q 3044 3113 2884 2869 
Q 2725 2625 2413 2481 
Q 2819 2388 3044 2092 
Q 3269 1797 3269 1353 
Q 3269 753 2831 336 
Q 2394 -81 1725 -81 
Q 1122 -81 723 278 
Q 325 638 269 1209 
z
" transform="scale(0.015625)"/>
       </defs>
       <use xlink:href="#ArialMT-53"/>
       <use xlink:href="#ArialMT-74" x="66.699219"/>
       <use xlink:href="#ArialMT-61" x="94.482422"/>
       <use xlink:href="#ArialMT-74" x="150.097656"/>
       <use xlink:href="#ArialMT-65" x="177.880859"/>
       <use xlink:href="#ArialMT-20" x="233.496094"/>
       <use xlink:href="#ArialMT-33" x="261.279297"/>
      </g>
     </g>
    </g>
    <g id="xtick_4">
     <g id="line2d_4">
      <g>
       <use xlink:href="#m600a12ad51" x="578.25" y="320.4" style="fill: #262626; stroke: #262626; stroke-width: 1.25"/>
      </g>
     </g>
     <g id="text_4">
      <!-- State 4 -->
      <g style="fill: #262626" transform="translate(559.2375 338.489375) scale(0.12 -0.12)">
       <defs>
        <path id="ArialMT-34" d="M 2069 0 
L 2069 1097 
L 81 1097 
L 81 1613 
L 2172 4581 
L 2631 4581 
L 2631 1613 
L 3250 1613 
L 3250 1097 
L 2631 1097 
L 2631 0 
L 2069 0 
z
M 2069 1613 
L 2069 3678 
L 634 1613 
L 2069 1613 
z
" transform="scale(0.015625)"/>
       </defs>
       <use xlink:href="#ArialMT-53"/>
       <use xlink:href="#ArialMT-74" x="66.699219"/>
       <use xlink:href="#ArialMT-61" x="94.482422"/>
       <use xlink:href="#ArialMT-74" x="150.097656"/>
       <use xlink:href="#ArialMT-65" x="177.880859"/>
       <use xlink:href="#ArialMT-20" x="233.496094"/>
       <use xlink:href="#ArialMT-34" x="261.279297"/>
      </g>
     </g>
    </g>
   </g>
   <g id="matplotlib.axis_2">
    <g id="ytick_1">
     <g id="line2d_5">
      <defs>
       <path id="mbd3a715c57" d="M 0 0 
L -6 0 
" style="stroke: #262626; stroke-width: 1.25"/>
      </defs>
      <g>
       <use xlink:href="#mbd3a715c57" x="90" y="305.499839" style="fill: #262626; stroke: #262626; stroke-width: 1.25"/>
      </g>
     </g>
     <g id="text_5">
      <!-- 0 -->
      <g style="fill: #262626" transform="translate(74.382969 309.436636) scale(0.11 -0.11)">
       <defs>
        <path id="ArialMT-30" d="M 266 2259 
Q 266 3072 433 3567 
Q 600 4063 929 4331 
Q 1259 4600 1759 4600 
Q 2128 4600 2406 4451 
Q 2684 4303 2865 4023 
Q 3047 3744 3150 3342 
Q 3253 2941 3253 2259 
Q 3253 1453 3087 958 
Q 2922 463 2592 192 
Q 2263 -78 1759 -78 
Q 1097 -78 719 397 
Q 266 969 266 2259 
z
M 844 2259 
Q 844 1131 1108 757 
Q 1372 384 1759 384 
Q 2147 384 2411 759 
Q 2675 1134 2675 2259 
Q 2675 3391 2411 3762 
Q 2147 4134 1753 4134 
Q 1366 4134 1134 3806 
Q 844 3388 844 2259 
z
" transform="scale(0.015625)"/>
       </defs>
       <use xlink:href="#ArialMT-30"/>
      </g>
     </g>
    </g>
    <g id="ytick_2">
     <g id="line2d_6">
      <g>
       <use xlink:href="#mbd3a715c57" x="90" y="251.250835" style="fill: #262626; stroke: #262626; stroke-width: 1.25"/>
      </g>
     </g>
     <g id="text_6">
      <!-- 20 -->
      <g style="fill: #262626" transform="translate(68.265938 255.187632) scale(0.11 -0.11)">
       <use xlink:href="#ArialMT-32"/>
       <use xlink:href="#ArialMT-30" x="55.615234"/>
      </g>
     </g>
    </g>
    <g id="ytick_3">
     <g id="line2d_7">
      <g>
       <use xlink:href="#mbd3a715c57" x="90" y="197.00183" style="fill: #262626; stroke: #262626; stroke-width: 1.25"/>
      </g>
     </g>
     <g id="text_7">
      <!-- 40 -->
      <g style="fill: #262626" transform="translate(68.265938 200.938627) scale(0.11 -0.11)">
       <use xlink:href="#ArialMT-34"/>
       <use xlink:href="#ArialMT-30" x="55.615234"/>
      </g>
     </g>
    </g>
    <g id="ytick_4">
     <g id="line2d_8">
      <g>
       <use xlink:href="#mbd3a715c57" x="90" y="142.752826" style="fill: #262626; stroke: #262626; stroke-width: 1.25"/>
      </g>
     </g>
     <g id="text_8">
      <!-- 60 -->
      <g style="fill: #262626" transform="translate(68.265938 146.689623) scale(0.11 -0.11)">
       <defs>
        <path id="ArialMT-36" d="M 3184 3459 
L 2625 3416 
Q 2550 3747 2413 3897 
Q 2184 4138 1850 4138 
Q 1581 4138 1378 3988 
Q 1113 3794 959 3422 
Q 806 3050 800 2363 
Q 1003 2672 1297 2822 
Q 1591 2972 1913 2972 
Q 2475 2972 2870 2558 
Q 3266 2144 3266 1488 
Q 3266 1056 3080 686 
Q 2894 316 2569 119 
Q 2244 -78 1831 -78 
Q 1128 -78 684 439 
Q 241 956 241 2144 
Q 241 3472 731 4075 
Q 1159 4600 1884 4600 
Q 2425 4600 2770 4297 
Q 3116 3994 3184 3459 
z
M 888 1484 
Q 888 1194 1011 928 
Q 1134 663 1356 523 
Q 1578 384 1822 384 
Q 2178 384 2434 671 
Q 2691 959 2691 1453 
Q 2691 1928 2437 2201 
Q 2184 2475 1800 2475 
Q 1419 2475 1153 2201 
Q 888 1928 888 1484 
z
" transform="scale(0.015625)"/>
       </defs>
       <use xlink:href="#ArialMT-36"/>
       <use xlink:href="#ArialMT-30" x="55.615234"/>
      </g>
     </g>
    </g>
    <g id="ytick_5">
     <g id="line2d_9">
      <g>
       <use xlink:href="#mbd3a715c57" x="90" y="88.503822" style="fill: #262626; stroke: #262626; stroke-width: 1.25"/>
      </g>
     </g>
     <g id="text_9">
      <!-- 80 -->
      <g style="fill: #262626" transform="translate(68.265938 92.440618) scale(0.11 -0.11)">
       <defs>
        <path id="ArialMT-38" d="M 1131 2484 
Q 781 2613 612 2850 
Q 444 3088 444 3419 
Q 444 3919 803 4259 
Q 1163 4600 1759 4600 
Q 2359 4600 2725 4251 
Q 3091 3903 3091 3403 
Q 3091 3084 2923 2848 
Q 2756 2613 2416 2484 
Q 2838 2347 3058 2040 
Q 3278 1734 3278 1309 
Q 3278 722 2862 322 
Q 2447 -78 1769 -78 
Q 1091 -78 675 323 
Q 259 725 259 1325 
Q 259 1772 486 2073 
Q 713 2375 1131 2484 
z
M 1019 3438 
Q 1019 3113 1228 2906 
Q 1438 2700 1772 2700 
Q 2097 2700 2305 2904 
Q 2513 3109 2513 3406 
Q 2513 3716 2298 3927 
Q 2084 4138 1766 4138 
Q 1444 4138 1231 3931 
Q 1019 3725 1019 3438 
z
M 838 1322 
Q 838 1081 952 856 
Q 1066 631 1291 507 
Q 1516 384 1775 384 
Q 2178 384 2440 643 
Q 2703 903 2703 1303 
Q 2703 1709 2433 1975 
Q 2163 2241 1756 2241 
Q 1359 2241 1098 1978 
Q 838 1716 838 1322 
z
" transform="scale(0.015625)"/>
       </defs>
       <use xlink:href="#ArialMT-38"/>
       <use xlink:href="#ArialMT-30" x="55.615234"/>
      </g>
     </g>
    </g>
    <g id="text_10">
     <!-- Time (s) -->
     <g style="fill: #262626" transform="translate(61.740313 203.569687) rotate(-90) scale(0.12 -0.12)">
      <defs>
       <path id="ArialMT-54" d="M 1659 0 
L 1659 4041 
L 150 4041 
L 150 4581 
L 3781 4581 
L 3781 4041 
L 2266 4041 
L 2266 0 
L 1659 0 
z
" transform="scale(0.015625)"/>
       <path id="ArialMT-69" d="M 425 3934 
L 425 4581 
L 988 4581 
L 988 3934 
L 425 3934 
z
M 425 0 
L 425 3319 
L 988 3319 
L 988 0 
L 425 0 
z
" transform="scale(0.015625)"/>
       <path id="ArialMT-6d" d="M 422 0 
L 422 3319 
L 925 3319 
L 925 2853 
Q 1081 3097 1340 3245 
Q 1600 3394 1931 3394 
Q 2300 3394 2536 3241 
Q 2772 3088 2869 2813 
Q 3263 3394 3894 3394 
Q 4388 3394 4653 3120 
Q 4919 2847 4919 2278 
L 4919 0 
L 4359 0 
L 4359 2091 
Q 4359 2428 4304 2576 
Q 4250 2725 4106 2815 
Q 3963 2906 3769 2906 
Q 3419 2906 3187 2673 
Q 2956 2441 2956 1928 
L 2956 0 
L 2394 0 
L 2394 2156 
Q 2394 2531 2256 2718 
Q 2119 2906 1806 2906 
Q 1569 2906 1367 2781 
Q 1166 2656 1075 2415 
Q 984 2175 984 1722 
L 984 0 
L 422 0 
z
" transform="scale(0.015625)"/>
       <path id="ArialMT-28" d="M 1497 -1347 
Q 1031 -759 709 28 
Q 388 816 388 1659 
Q 388 2403 628 3084 
Q 909 3875 1497 4659 
L 1900 4659 
Q 1522 4009 1400 3731 
Q 1209 3300 1100 2831 
Q 966 2247 966 1656 
Q 966 153 1900 -1347 
L 1497 -1347 
z
" transform="scale(0.015625)"/>
       <path id="ArialMT-73" d="M 197 991 
L 753 1078 
Q 800 744 1014 566 
Q 1228 388 1613 388 
Q 2000 388 2187 545 
Q 2375 703 2375 916 
Q 2375 1106 2209 1216 
Q 2094 1291 1634 1406 
Q 1016 1563 777 1677 
Q 538 1791 414 1992 
Q 291 2194 291 2438 
Q 291 2659 392 2848 
Q 494 3038 669 3163 
Q 800 3259 1026 3326 
Q 1253 3394 1513 3394 
Q 1903 3394 2198 3281 
Q 2494 3169 2634 2976 
Q 2775 2784 2828 2463 
L 2278 2388 
Q 2241 2644 2061 2787 
Q 1881 2931 1553 2931 
Q 1166 2931 1000 2803 
Q 834 2675 834 2503 
Q 834 2394 903 2306 
Q 972 2216 1119 2156 
Q 1203 2125 1616 2013 
Q 2213 1853 2448 1751 
Q 2684 1650 2818 1456 
Q 2953 1263 2953 975 
Q 2953 694 2789 445 
Q 2625 197 2315 61 
Q 2006 -75 1616 -75 
Q 969 -75 630 194 
Q 291 463 197 991 
z
" transform="scale(0.015625)"/>
       <path id="ArialMT-29" d="M 791 -1347 
L 388 -1347 
Q 1322 153 1322 1656 
Q 1322 2244 1188 2822 
Q 1081 3291 891 3722 
Q 769 4003 388 4659 
L 791 4659 
Q 1378 3875 1659 3084 
Q 1900 2403 1900 1659 
Q 1900 816 1576 28 
Q 1253 -759 791 -1347 
z
" transform="scale(0.015625)"/>
      </defs>
      <use xlink:href="#ArialMT-54"/>
      <use xlink:href="#ArialMT-69" x="57.333984"/>
      <use xlink:href="#ArialMT-6d" x="79.550781"/>
      <use xlink:href="#ArialMT-65" x="162.851562"/>
      <use xlink:href="#ArialMT-20" x="218.466797"/>
      <use xlink:href="#ArialMT-28" x="246.25"/>
      <use xlink:href="#ArialMT-73" x="279.550781"/>
      <use xlink:href="#ArialMT-29" x="329.550781"/>
     </g>
    </g>
   </g>
   <g id="PolyCollection_1">
    <defs>
     <path id="m5da23e848b" d="M 160.34939 -66.630472 
L 159.15061 -66.630472 
L 158.959173 -66.911615 
L 158.719808 -67.192759 
L 158.424564 -67.473902 
L 158.065181 -67.755046 
L 157.633274 -68.036189 
L 157.12054 -68.317333 
L 156.518946 -68.598476 
L 155.820903 -68.87962 
L 155.019403 -69.160763 
L 154.108116 -69.441907 
L 153.08145 -69.72305 
L 151.934584 -70.004194 
L 150.66349 -70.285337 
L 149.264969 -70.566481 
L 147.736725 -70.847624 
L 146.077511 -71.128768 
L 144.287341 -71.409911 
L 142.367799 -71.691055 
L 140.32241 -71.972198 
L 138.157068 -72.253342 
L 135.880466 -72.534485 
L 133.50451 -72.815629 
L 131.044642 -73.096772 
L 128.520056 -73.377916 
L 125.953774 -73.659059 
L 123.372564 -73.940203 
L 120.806698 -74.221346 
L 118.289575 -74.50249 
L 115.857199 -74.783633 
L 113.547543 -75.064777 
L 111.399784 -75.34592 
L 109.453406 -75.627064 
L 107.74714 -75.908207 
L 106.317735 -76.189351 
L 105.198528 -76.470494 
L 104.417848 -76.751638 
L 103.997296 -77.032781 
L 103.95 -77.313925 
L 104.279002 -77.595069 
L 104.975954 -77.876212 
L 106.020317 -78.157356 
L 107.379262 -78.438499 
L 109.008399 -78.719643 
L 110.853419 -79.000786 
L 112.852624 -79.28193 
L 114.940203 -79.563073 
L 117.050054 -79.844217 
L 119.11982 -80.12536 
L 121.094805 -80.406504 
L 122.9314 -80.687647 
L 124.599688 -80.968791 
L 126.084978 -81.249934 
L 127.388113 -81.531078 
L 128.524516 -81.812221 
L 129.522066 -82.093365 
L 130.418002 -82.374508 
L 131.255155 -82.655652 
L 132.077854 -82.936795 
L 132.927875 -83.217939 
L 133.840793 -83.499082 
L 134.843036 -83.780226 
L 135.949879 -84.061369 
L 137.164485 -84.342513 
L 138.478053 -84.623656 
L 139.870973 -84.9048 
L 141.314848 -85.185943 
L 142.775156 -85.467087 
L 144.214288 -85.74823 
L 145.594682 -86.029374 
L 146.8818 -86.310517 
L 148.046698 -86.591661 
L 149.068028 -86.872804 
L 149.933328 -87.153948 
L 150.639558 -87.435091 
L 151.192885 -87.716235 
L 151.607772 -87.997378 
L 151.905489 -88.278522 
L 152.112205 -88.559665 
L 152.256816 -88.840809 
L 152.368714 -89.121952 
L 152.475665 -89.403096 
L 152.601968 -89.68424 
L 152.767019 -89.965383 
L 152.984373 -90.246527 
L 153.261345 -90.52767 
L 153.59914 -90.808814 
L 153.993454 -91.089957 
L 154.435449 -91.371101 
L 154.912979 -91.652244 
L 155.411937 -91.933388 
L 155.917575 -92.214531 
L 156.415707 -92.495675 
L 156.893672 -92.776818 
L 157.341042 -93.057962 
L 157.75002 -93.339105 
L 158.115568 -93.620249 
L 158.435288 -93.901392 
L 158.709119 -94.182536 
L 158.938916 -94.463679 
L 160.561084 -94.463679 
L 160.561084 -94.463679 
L 160.790881 -94.182536 
L 161.064712 -93.901392 
L 161.384432 -93.620249 
L 161.74998 -93.339105 
L 162.158958 -93.057962 
L 162.606328 -92.776818 
L 163.084293 -92.495675 
L 163.582425 -92.214531 
L 164.088063 -91.933388 
L 164.587021 -91.652244 
L 165.064551 -91.371101 
L 165.506546 -91.089957 
L 165.90086 -90.808814 
L 166.238655 -90.52767 
L 166.515627 -90.246527 
L 166.732981 -89.965383 
L 166.898032 -89.68424 
L 167.024335 -89.403096 
L 167.131286 -89.121952 
L 167.243184 -88.840809 
L 167.387795 -88.559665 
L 167.594511 -88.278522 
L 167.892228 -87.997378 
L 168.307115 -87.716235 
L 168.860442 -87.435091 
L 169.566672 -87.153948 
L 170.431972 -86.872804 
L 171.453302 -86.591661 
L 172.6182 -86.310517 
L 173.905318 -86.029374 
L 175.285712 -85.74823 
L 176.724844 -85.467087 
L 178.185152 -85.185943 
L 179.629027 -84.9048 
L 181.021947 -84.623656 
L 182.335515 -84.342513 
L 183.550121 -84.061369 
L 184.656964 -83.780226 
L 185.659207 -83.499082 
L 186.572125 -83.217939 
L 187.422146 -82.936795 
L 188.244845 -82.655652 
L 189.081998 -82.374508 
L 189.977934 -82.093365 
L 190.975484 -81.812221 
L 192.111887 -81.531078 
L 193.415022 -81.249934 
L 194.900312 -80.968791 
L 196.5686 -80.687647 
L 198.405195 -80.406504 
L 200.38018 -80.12536 
L 202.449946 -79.844217 
L 204.559797 -79.563073 
L 206.647376 -79.28193 
L 208.646581 -79.000786 
L 210.491601 -78.719643 
L 212.120738 -78.438499 
L 213.479683 -78.157356 
L 214.524046 -77.876212 
L 215.220998 -77.595069 
L 215.55 -77.313925 
L 215.502704 -77.032781 
L 215.082152 -76.751638 
L 214.301472 -76.470494 
L 213.182265 -76.189351 
L 211.75286 -75.908207 
L 210.046594 -75.627064 
L 208.100216 -75.34592 
L 205.952457 -75.064777 
L 203.642801 -74.783633 
L 201.210425 -74.50249 
L 198.693302 -74.221346 
L 196.127436 -73.940203 
L 193.546226 -73.659059 
L 190.979944 -73.377916 
L 188.455358 -73.096772 
L 185.99549 -72.815629 
L 183.619534 -72.534485 
L 181.342932 -72.253342 
L 179.17759 -71.972198 
L 177.132201 -71.691055 
L 175.212659 -71.409911 
L 173.422489 -71.128768 
L 171.763275 -70.847624 
L 170.235031 -70.566481 
L 168.83651 -70.285337 
L 167.565416 -70.004194 
L 166.41855 -69.72305 
L 165.391884 -69.441907 
L 164.480597 -69.160763 
L 163.679097 -68.87962 
L 162.981054 -68.598476 
L 162.37946 -68.317333 
L 161.866726 -68.036189 
L 161.434819 -67.755046 
L 161.075436 -67.473902 
L 160.780192 -67.192759 
L 160.540827 -66.911615 
L 160.34939 -66.630472 
z
" style="stroke: #d55e00; stroke-width: 2"/>
    </defs>
    <g clip-path="url(#p589a07b811)">
     <use xlink:href="#m5da23e848b" x="0" y="360" style="fill: #d55e00; fill-opacity: 0.3; stroke: #d55e00; stroke-width: 2"/>
    </g>
   </g>
   <g id="PolyCollection_2">
    <defs>
     <path id="m94771ffcee" d="M 299.395 -90.115405 
L 299.105 -90.115405 
L 299.061505 -91.668571 
L 299.007693 -93.221736 
L 298.941944 -94.774902 
L 298.862604 -96.328067 
L 298.768032 -97.881233 
L 298.65667 -99.434398 
L 298.527106 -100.987563 
L 298.378143 -102.540729 
L 298.208866 -104.093894 
L 298.018695 -105.64706 
L 297.807431 -107.200225 
L 297.57528 -108.753391 
L 297.32286 -110.306556 
L 297.051181 -111.859722 
L 296.761615 -113.412887 
L 296.455838 -114.966053 
L 296.135763 -116.519218 
L 295.803471 -118.072384 
L 295.46114 -119.625549 
L 295.110981 -121.178715 
L 294.755199 -122.73188 
L 294.39597 -124.285046 
L 294.035446 -125.838211 
L 293.675787 -127.391377 
L 293.319215 -128.944542 
L 292.968087 -130.497708 
L 292.624971 -132.050873 
L 292.292724 -133.604038 
L 291.974546 -135.157204 
L 291.674014 -136.710369 
L 291.395066 -138.263535 
L 291.141951 -139.8167 
L 290.919113 -141.369866 
L 290.731044 -142.923031 
L 290.58208 -144.476197 
L 290.476178 -146.029362 
L 290.416668 -147.582528 
L 290.406015 -149.135693 
L 290.445599 -150.688859 
L 290.535541 -152.242024 
L 290.674578 -153.79519 
L 290.860012 -155.348355 
L 291.087734 -156.901521 
L 291.352326 -158.454686 
L 291.647231 -160.007852 
L 291.964998 -161.561017 
L 292.297561 -163.114183 
L 292.636565 -164.667348 
L 292.973696 -166.220513 
L 293.301014 -167.773679 
L 293.61126 -169.326844 
L 293.898129 -170.88001 
L 294.15649 -172.433175 
L 294.382557 -173.986341 
L 294.573987 -175.539506 
L 294.729923 -177.092672 
L 294.850967 -178.645837 
L 294.939096 -180.199003 
L 294.997525 -181.752168 
L 295.030519 -183.305334 
L 295.043168 -184.858499 
L 295.041143 -186.411665 
L 295.03042 -187.96483 
L 295.017015 -189.517996 
L 295.006721 -191.071161 
L 295.004868 -192.624327 
L 295.016113 -194.177492 
L 295.044276 -195.730658 
L 295.092226 -197.283823 
L 295.161817 -198.836988 
L 295.253882 -200.390154 
L 295.36828 -201.943319 
L 295.503983 -203.496485 
L 295.659202 -205.04965 
L 295.83154 -206.602816 
L 296.018151 -208.155981 
L 296.21591 -209.709147 
L 296.421562 -211.262312 
L 296.631866 -212.815478 
L 296.843705 -214.368643 
L 297.054179 -215.921809 
L 297.260671 -217.474974 
L 297.460885 -219.02814 
L 297.652872 -220.581305 
L 297.83503 -222.134471 
L 298.006103 -223.687636 
L 298.165168 -225.240802 
L 298.311608 -226.793967 
L 298.445099 -228.347133 
L 298.565576 -229.900298 
L 298.673214 -231.453464 
L 298.768394 -233.006629 
L 298.851676 -234.559794 
L 298.923764 -236.11296 
L 298.985479 -237.666125 
L 299.037718 -239.219291 
L 299.081429 -240.772456 
L 299.117576 -242.325622 
L 299.14711 -243.878787 
L 299.35289 -243.878787 
L 299.35289 -243.878787 
L 299.382424 -242.325622 
L 299.418571 -240.772456 
L 299.462282 -239.219291 
L 299.514521 -237.666125 
L 299.576236 -236.11296 
L 299.648324 -234.559794 
L 299.731606 -233.006629 
L 299.826786 -231.453464 
L 299.934424 -229.900298 
L 300.054901 -228.347133 
L 300.188392 -226.793967 
L 300.334832 -225.240802 
L 300.493897 -223.687636 
L 300.66497 -222.134471 
L 300.847128 -220.581305 
L 301.039115 -219.02814 
L 301.239329 -217.474974 
L 301.445821 -215.921809 
L 301.656295 -214.368643 
L 301.868134 -212.815478 
L 302.078438 -211.262312 
L 302.28409 -209.709147 
L 302.481849 -208.155981 
L 302.66846 -206.602816 
L 302.840798 -205.04965 
L 302.996017 -203.496485 
L 303.13172 -201.943319 
L 303.246118 -200.390154 
L 303.338183 -198.836988 
L 303.407774 -197.283823 
L 303.455724 -195.730658 
L 303.483887 -194.177492 
L 303.495132 -192.624327 
L 303.493279 -191.071161 
L 303.482985 -189.517996 
L 303.46958 -187.96483 
L 303.458857 -186.411665 
L 303.456832 -184.858499 
L 303.469481 -183.305334 
L 303.502475 -181.752168 
L 303.560904 -180.199003 
L 303.649033 -178.645837 
L 303.770077 -177.092672 
L 303.926013 -175.539506 
L 304.117443 -173.986341 
L 304.34351 -172.433175 
L 304.601871 -170.88001 
L 304.88874 -169.326844 
L 305.198986 -167.773679 
L 305.526304 -166.220513 
L 305.863435 -164.667348 
L 306.202439 -163.114183 
L 306.535002 -161.561017 
L 306.852769 -160.007852 
L 307.147674 -158.454686 
L 307.412266 -156.901521 
L 307.639988 -155.348355 
L 307.825422 -153.79519 
L 307.964459 -152.242024 
L 308.054401 -150.688859 
L 308.093985 -149.135693 
L 308.083332 -147.582528 
L 308.023822 -146.029362 
L 307.91792 -144.476197 
L 307.768956 -142.923031 
L 307.580887 -141.369866 
L 307.358049 -139.8167 
L 307.104934 -138.263535 
L 306.825986 -136.710369 
L 306.525454 -135.157204 
L 306.207276 -133.604038 
L 305.875029 -132.050873 
L 305.531913 -130.497708 
L 305.180785 -128.944542 
L 304.824213 -127.391377 
L 304.464554 -125.838211 
L 304.10403 -124.285046 
L 303.744801 -122.73188 
L 303.389019 -121.178715 
L 303.03886 -119.625549 
L 302.696529 -118.072384 
L 302.364237 -116.519218 
L 302.044162 -114.966053 
L 301.738385 -113.412887 
L 301.448819 -111.859722 
L 301.17714 -110.306556 
L 300.92472 -108.753391 
L 300.692569 -107.200225 
L 300.481305 -105.64706 
L 300.291134 -104.093894 
L 300.121857 -102.540729 
L 299.972894 -100.987563 
L 299.84333 -99.434398 
L 299.731968 -97.881233 
L 299.637396 -96.328067 
L 299.558056 -94.774902 
L 299.492307 -93.221736 
L 299.438495 -91.668571 
L 299.395 -90.115405 
z
" style="stroke: #0072b2; stroke-width: 2"/>
    </defs>
    <g clip-path="url(#p589a07b811)">
     <use xlink:href="#m94771ffcee" x="0" y="360" style="fill: #0072b2; fill-opacity: 0.3; stroke: #0072b2; stroke-width: 2"/>
    </g>
   </g>
   <g id="PolyCollection_3">
    <defs>
     <path id="m494728735f" d="M 438.939649 -52.2 
L 438.560351 -52.2 
L 438.48261 -54.745455 
L 438.379605 -57.290909 
L 438.245867 -59.836364 
L 438.075758 -62.381818 
L 437.863836 -64.927273 
L 437.605329 -67.472727 
L 437.296682 -70.018182 
L 436.936139 -72.563636 
L 436.524285 -75.109091 
L 436.064506 -77.654545 
L 435.563262 -80.2 
L 435.030134 -82.745455 
L 434.477576 -85.290909 
L 433.920368 -87.836364 
L 433.374796 -90.381818 
L 432.857605 -92.927273 
L 432.384838 -95.472727 
L 431.970679 -98.018182 
L 431.626429 -100.563636 
L 431.359738 -103.109091 
L 431.174186 -105.654545 
L 431.069259 -108.2 
L 431.040707 -110.745455 
L 431.081235 -113.290909 
L 431.181426 -115.836364 
L 431.330754 -118.381818 
L 431.518577 -120.927273 
L 431.734979 -123.472727 
L 431.971376 -126.018182 
L 432.220854 -128.563636 
L 432.478231 -131.109091 
L 432.73989 -133.654545 
L 433.00346 -136.2 
L 433.267416 -138.745455 
L 433.530682 -141.290909 
L 433.792306 -143.836364 
L 434.051243 -146.381818 
L 434.306266 -148.927273 
L 434.555989 -151.472727 
L 434.798983 -154.018182 
L 435.033944 -156.563636 
L 435.259866 -159.109091 
L 435.47619 -161.654545 
L 435.682896 -164.2 
L 435.880513 -166.745455 
L 436.070056 -169.290909 
L 436.252886 -171.836364 
L 436.430519 -174.381818 
L 436.604412 -176.927273 
L 436.775744 -179.472727 
L 436.945245 -182.018182 
L 437.113075 -184.563636 
L 437.278782 -187.109091 
L 437.441342 -189.654545 
L 437.599267 -192.2 
L 437.750769 -194.745455 
L 437.893962 -197.290909 
L 438.027054 -199.836364 
L 438.148521 -202.381818 
L 438.257243 -204.927273 
L 438.35257 -207.472727 
L 438.434344 -210.018182 
L 438.502852 -212.563636 
L 438.558749 -215.109091 
L 438.602947 -217.654545 
L 438.636497 -220.2 
L 438.660479 -222.745455 
L 438.675912 -225.290909 
L 438.68369 -227.836364 
L 438.684552 -230.381818 
L 438.679091 -232.927273 
L 438.667786 -235.472727 
L 438.651063 -238.018182 
L 438.62937 -240.563636 
L 438.603253 -243.109091 
L 438.57343 -245.654545 
L 438.540835 -248.2 
L 438.506645 -250.745455 
L 438.472256 -253.290909 
L 438.439236 -255.836364 
L 438.409226 -258.381818 
L 438.383831 -260.927273 
L 438.364482 -263.472727 
L 438.352318 -266.018182 
L 438.348073 -268.563636 
L 438.352007 -271.109091 
L 438.363885 -273.654545 
L 438.382996 -276.2 
L 438.408227 -278.745455 
L 438.438171 -281.290909 
L 438.471255 -283.836364 
L 438.505877 -286.381818 
L 438.540529 -288.927273 
L 438.573904 -291.472727 
L 438.604961 -294.018182 
L 438.63296 -296.563636 
L 438.657467 -299.109091 
L 438.678325 -301.654545 
L 438.695606 -304.2 
L 438.804394 -304.2 
L 438.804394 -304.2 
L 438.821675 -301.654545 
L 438.842533 -299.109091 
L 438.86704 -296.563636 
L 438.895039 -294.018182 
L 438.926096 -291.472727 
L 438.959471 -288.927273 
L 438.994123 -286.381818 
L 439.028745 -283.836364 
L 439.061829 -281.290909 
L 439.091773 -278.745455 
L 439.117004 -276.2 
L 439.136115 -273.654545 
L 439.147993 -271.109091 
L 439.151927 -268.563636 
L 439.147682 -266.018182 
L 439.135518 -263.472727 
L 439.116169 -260.927273 
L 439.090774 -258.381818 
L 439.060764 -255.836364 
L 439.027744 -253.290909 
L 438.993355 -250.745455 
L 438.959165 -248.2 
L 438.92657 -245.654545 
L 438.896747 -243.109091 
L 438.87063 -240.563636 
L 438.848937 -238.018182 
L 438.832214 -235.472727 
L 438.820909 -232.927273 
L 438.815448 -230.381818 
L 438.81631 -227.836364 
L 438.824088 -225.290909 
L 438.839521 -222.745455 
L 438.863503 -220.2 
L 438.897053 -217.654545 
L 438.941251 -215.109091 
L 438.997148 -212.563636 
L 439.065656 -210.018182 
L 439.14743 -207.472727 
L 439.242757 -204.927273 
L 439.351479 -202.381818 
L 439.472946 -199.836364 
L 439.606038 -197.290909 
L 439.749231 -194.745455 
L 439.900733 -192.2 
L 440.058658 -189.654545 
L 440.221218 -187.109091 
L 440.386925 -184.563636 
L 440.554755 -182.018182 
L 440.724256 -179.472727 
L 440.895588 -176.927273 
L 441.069481 -174.381818 
L 441.247114 -171.836364 
L 441.429944 -169.290909 
L 441.619487 -166.745455 
L 441.817104 -164.2 
L 442.02381 -161.654545 
L 442.240134 -159.109091 
L 442.466056 -156.563636 
L 442.701017 -154.018182 
L 442.944011 -151.472727 
L 443.193734 -148.927273 
L 443.448757 -146.381818 
L 443.707694 -143.836364 
L 443.969318 -141.290909 
L 444.232584 -138.745455 
L 444.49654 -136.2 
L 444.76011 -133.654545 
L 445.021769 -131.109091 
L 445.279146 -128.563636 
L 445.528624 -126.018182 
L 445.765021 -123.472727 
L 445.981423 -120.927273 
L 446.169246 -118.381818 
L 446.318574 -115.836364 
L 446.418765 -113.290909 
L 446.459293 -110.745455 
L 446.430741 -108.2 
L 446.325814 -105.654545 
L 446.140262 -103.109091 
L 445.873571 -100.563636 
L 445.529321 -98.018182 
L 445.115162 -95.472727 
L 444.642395 -92.927273 
L 444.125204 -90.381818 
L 443.579632 -87.836364 
L 443.022424 -85.290909 
L 442.469866 -82.745455 
L 441.936738 -80.2 
L 441.435494 -77.654545 
L 440.975715 -75.109091 
L 440.563861 -72.563636 
L 440.203318 -70.018182 
L 439.894671 -67.472727 
L 439.636164 -64.927273 
L 439.424242 -62.381818 
L 439.254133 -59.836364 
L 439.120395 -57.290909 
L 439.01739 -54.745455 
L 438.939649 -52.2 
z
" style="stroke: #009e73; stroke-width: 2"/>
    </defs>
    <g clip-path="url(#p589a07b811)">
     <use xlink:href="#m494728735f" x="0" y="360" style="fill: #009e73; fill-opacity: 0.3; stroke: #009e73; stroke-width: 2"/>
    </g>
   </g>
   <g id="PolyCollection_4">
    <defs>
     <path id="mcd70d2fec1" d="M 578.438122 -56.501114 
L 578.061878 -56.501114 
L 578.002125 -57.399509 
L 577.926534 -58.297904 
L 577.831823 -59.196299 
L 577.714258 -60.094694 
L 577.569654 -60.993089 
L 577.393384 -61.891484 
L 577.180424 -62.789879 
L 576.925429 -63.688274 
L 576.622854 -64.586669 
L 576.267133 -65.485064 
L 575.852905 -66.383459 
L 575.375316 -67.281854 
L 574.830361 -68.180249 
L 574.215288 -69.078644 
L 573.529019 -69.977039 
L 572.77257 -70.875434 
L 571.949441 -71.773829 
L 571.06592 -72.672224 
L 570.131275 -73.570619 
L 569.157784 -74.469014 
L 568.16057 -75.36741 
L 567.157238 -76.265805 
L 566.167294 -77.1642 
L 565.211377 -78.062595 
L 564.310342 -78.96099 
L 563.484248 -79.859385 
L 562.751326 -80.75778 
L 562.127004 -81.656175 
L 561.623073 -82.55457 
L 561.247057 -83.452965 
L 561.001852 -84.35136 
L 560.885659 -85.249755 
L 560.892226 -86.14815 
L 561.011375 -87.046545 
L 561.229775 -87.94494 
L 561.531897 -88.843335 
L 561.901077 -89.74173 
L 562.320585 -90.640125 
L 562.774644 -91.53852 
L 563.249302 -92.436915 
L 563.733093 -93.33531 
L 564.217466 -94.233705 
L 564.696939 -95.1321 
L 565.168982 -96.030496 
L 565.633673 -96.928891 
L 566.093143 -97.827286 
L 566.550891 -98.725681 
L 567.011029 -99.624076 
L 567.477525 -100.522471 
L 567.953528 -101.420866 
L 568.440811 -102.319261 
L 568.93941 -103.217656 
L 569.44745 -104.116051 
L 569.961185 -105.014446 
L 570.475229 -105.912841 
L 570.982945 -106.811236 
L 571.476938 -107.709631 
L 571.949609 -108.608026 
L 572.393694 -109.506421 
L 572.802759 -110.404816 
L 573.171594 -111.303211 
L 573.496487 -112.201606 
L 573.775367 -113.100001 
L 574.007826 -113.998396 
L 574.195026 -114.896791 
L 574.339537 -115.795187 
L 574.445111 -116.693582 
L 574.516445 -117.591977 
L 574.558941 -118.490372 
L 574.578484 -119.388767 
L 574.581241 -120.287162 
L 574.573488 -121.185557 
L 574.561453 -122.083952 
L 574.551165 -122.982347 
L 574.548307 -123.880742 
L 574.558059 -124.779137 
L 574.584937 -125.677532 
L 574.632635 -126.575927 
L 574.703876 -127.474322 
L 574.80029 -128.372717 
L 574.922335 -129.271112 
L 575.069271 -130.169507 
L 575.239205 -131.067902 
L 575.429196 -131.966297 
L 575.635432 -132.864692 
L 575.853453 -133.763087 
L 576.078414 -134.661482 
L 576.30536 -135.559877 
L 576.529496 -136.458273 
L 576.746423 -137.356668 
L 576.952339 -138.255063 
L 577.144176 -139.153458 
L 577.319675 -140.051853 
L 577.477409 -140.950248 
L 577.616741 -141.848643 
L 577.737744 -142.747038 
L 577.841088 -143.645433 
L 577.927911 -144.543828 
L 577.999679 -145.442223 
L 578.500321 -145.442223 
L 578.500321 -145.442223 
L 578.572089 -144.543828 
L 578.658912 -143.645433 
L 578.762256 -142.747038 
L 578.883259 -141.848643 
L 579.022591 -140.950248 
L 579.180325 -140.051853 
L 579.355824 -139.153458 
L 579.547661 -138.255063 
L 579.753577 -137.356668 
L 579.970504 -136.458273 
L 580.19464 -135.559877 
L 580.421586 -134.661482 
L 580.646547 -133.763087 
L 580.864568 -132.864692 
L 581.070804 -131.966297 
L 581.260795 -131.067902 
L 581.430729 -130.169507 
L 581.577665 -129.271112 
L 581.69971 -128.372717 
L 581.796124 -127.474322 
L 581.867365 -126.575927 
L 581.915063 -125.677532 
L 581.941941 -124.779137 
L 581.951693 -123.880742 
L 581.948835 -122.982347 
L 581.938547 -122.083952 
L 581.926512 -121.185557 
L 581.918759 -120.287162 
L 581.921516 -119.388767 
L 581.941059 -118.490372 
L 581.983555 -117.591977 
L 582.054889 -116.693582 
L 582.160463 -115.795187 
L 582.304974 -114.896791 
L 582.492174 -113.998396 
L 582.724633 -113.100001 
L 583.003513 -112.201606 
L 583.328406 -111.303211 
L 583.697241 -110.404816 
L 584.106306 -109.506421 
L 584.550391 -108.608026 
L 585.023062 -107.709631 
L 585.517055 -106.811236 
L 586.024771 -105.912841 
L 586.538815 -105.014446 
L 587.05255 -104.116051 
L 587.56059 -103.217656 
L 588.059189 -102.319261 
L 588.546472 -101.420866 
L 589.022475 -100.522471 
L 589.488971 -99.624076 
L 589.949109 -98.725681 
L 590.406857 -97.827286 
L 590.866327 -96.928891 
L 591.331018 -96.030496 
L 591.803061 -95.1321 
L 592.282534 -94.233705 
L 592.766907 -93.33531 
L 593.250698 -92.436915 
L 593.725356 -91.53852 
L 594.179415 -90.640125 
L 594.598923 -89.74173 
L 594.968103 -88.843335 
L 595.270225 -87.94494 
L 595.488625 -87.046545 
L 595.607774 -86.14815 
L 595.614341 -85.249755 
L 595.498148 -84.35136 
L 595.252943 -83.452965 
L 594.876927 -82.55457 
L 594.372996 -81.656175 
L 593.748674 -80.75778 
L 593.015752 -79.859385 
L 592.189658 -78.96099 
L 591.288623 -78.062595 
L 590.332706 -77.1642 
L 589.342762 -76.265805 
L 588.33943 -75.36741 
L 587.342216 -74.469014 
L 586.368725 -73.570619 
L 585.43408 -72.672224 
L 584.550559 -71.773829 
L 583.72743 -70.875434 
L 582.970981 -69.977039 
L 582.284712 -69.078644 
L 581.669639 -68.180249 
L 581.124684 -67.281854 
L 580.647095 -66.383459 
L 580.232867 -65.485064 
L 579.877146 -64.586669 
L 579.574571 -63.688274 
L 579.319576 -62.789879 
L 579.106616 -61.891484 
L 578.930346 -60.993089 
L 578.785742 -60.094694 
L 578.668177 -59.196299 
L 578.573466 -58.297904 
L 578.497875 -57.399509 
L 578.438122 -56.501114 
z
" style="stroke: #cc79a7; stroke-width: 2"/>
    </defs>
    <g clip-path="url(#p589a07b811)">
     <use xlink:href="#mcd70d2fec1" x="0" y="360" style="fill: #cc79a7; fill-opacity: 0.3; stroke: #cc79a7; stroke-width: 2"/>
    </g>
   </g>
   <g id="patch_3">
    <path d="M 90 320.4 
L 90 43.2 
" style="fill: none; stroke: #262626; stroke-width: 1.25; stroke-linejoin: miter; stroke-linecap: square"/>
   </g>
   <g id="patch_4">
    <path d="M 648 320.4 
L 648 43.2 
" style="fill: none; stroke: #262626; stroke-width: 1.25; stroke-linejoin: miter; stroke-linecap: square"/>
   </g>
   <g id="patch_5">
    <path d="M 90 320.4 
L 648 320.4 
" style="fill: none; stroke: #262626; stroke-width: 1.25; stroke-linejoin: miter; stroke-linecap: square"/>
   </g>
   <g id="patch_6">
    <path d="M 90 43.2 
L 648 43.2 
" style="fill: none; stroke: #262626; stroke-width: 1.25; stroke-linejoin: miter; stroke-linecap: square"/>
   </g>
   <g id="text_11">
    <!-- Intervaltime -->
    <g style="fill: #262626" transform="translate(329.709219 37.2) scale(0.14 -0.14)">
     <defs>
      <path id="Arial-BoldMT-49" d="M 438 0 
L 438 4581 
L 1363 4581 
L 1363 0 
L 438 0 
z
" transform="scale(0.015625)"/>
      <path id="Arial-BoldMT-6e" d="M 3478 0 
L 2600 0 
L 2600 1694 
Q 2600 2231 2544 2389 
Q 2488 2547 2361 2634 
Q 2234 2722 2056 2722 
Q 1828 2722 1647 2597 
Q 1466 2472 1398 2265 
Q 1331 2059 1331 1503 
L 1331 0 
L 453 0 
L 453 3319 
L 1269 3319 
L 1269 2831 
Q 1703 3394 2363 3394 
Q 2653 3394 2893 3289 
Q 3134 3184 3257 3021 
Q 3381 2859 3429 2653 
Q 3478 2447 3478 2063 
L 3478 0 
z
" transform="scale(0.015625)"/>
      <path id="Arial-BoldMT-74" d="M 1981 3319 
L 1981 2619 
L 1381 2619 
L 1381 1281 
Q 1381 875 1398 808 
Q 1416 741 1477 697 
Q 1538 653 1625 653 
Q 1747 653 1978 738 
L 2053 56 
Q 1747 -75 1359 -75 
Q 1122 -75 931 4 
Q 741 84 652 211 
Q 563 338 528 553 
Q 500 706 500 1172 
L 500 2619 
L 97 2619 
L 97 3319 
L 500 3319 
L 500 3978 
L 1381 4491 
L 1381 3319 
L 1981 3319 
z
" transform="scale(0.015625)"/>
      <path id="Arial-BoldMT-65" d="M 2381 1056 
L 3256 909 
Q 3088 428 2723 176 
Q 2359 -75 1813 -75 
Q 947 -75 531 491 
Q 203 944 203 1634 
Q 203 2459 634 2926 
Q 1066 3394 1725 3394 
Q 2466 3394 2894 2905 
Q 3322 2416 3303 1406 
L 1103 1406 
Q 1113 1016 1316 798 
Q 1519 581 1822 581 
Q 2028 581 2168 693 
Q 2309 806 2381 1056 
z
M 2431 1944 
Q 2422 2325 2234 2523 
Q 2047 2722 1778 2722 
Q 1491 2722 1303 2513 
Q 1116 2303 1119 1944 
L 2431 1944 
z
" transform="scale(0.015625)"/>
      <path id="Arial-BoldMT-72" d="M 1300 0 
L 422 0 
L 422 3319 
L 1238 3319 
L 1238 2847 
Q 1447 3181 1614 3287 
Q 1781 3394 1994 3394 
Q 2294 3394 2572 3228 
L 2300 2463 
Q 2078 2606 1888 2606 
Q 1703 2606 1575 2504 
Q 1447 2403 1373 2137 
Q 1300 1872 1300 1025 
L 1300 0 
z
" transform="scale(0.015625)"/>
      <path id="Arial-BoldMT-76" d="M 1372 0 
L 34 3319 
L 956 3319 
L 1581 1625 
L 1763 1059 
Q 1834 1275 1853 1344 
Q 1897 1484 1947 1625 
L 2578 3319 
L 3481 3319 
L 2163 0 
L 1372 0 
z
" transform="scale(0.015625)"/>
      <path id="Arial-BoldMT-61" d="M 1116 2306 
L 319 2450 
Q 453 2931 781 3162 
Q 1109 3394 1756 3394 
Q 2344 3394 2631 3255 
Q 2919 3116 3036 2902 
Q 3153 2688 3153 2116 
L 3144 1091 
Q 3144 653 3186 445 
Q 3228 238 3344 0 
L 2475 0 
Q 2441 88 2391 259 
Q 2369 338 2359 363 
Q 2134 144 1878 34 
Q 1622 -75 1331 -75 
Q 819 -75 523 203 
Q 228 481 228 906 
Q 228 1188 362 1408 
Q 497 1628 739 1745 
Q 981 1863 1438 1950 
Q 2053 2066 2291 2166 
L 2291 2253 
Q 2291 2506 2166 2614 
Q 2041 2722 1694 2722 
Q 1459 2722 1328 2630 
Q 1197 2538 1116 2306 
z
M 2291 1594 
Q 2122 1538 1756 1459 
Q 1391 1381 1278 1306 
Q 1106 1184 1106 997 
Q 1106 813 1243 678 
Q 1381 544 1594 544 
Q 1831 544 2047 700 
Q 2206 819 2256 991 
Q 2291 1103 2291 1419 
L 2291 1594 
z
" transform="scale(0.015625)"/>
      <path id="Arial-BoldMT-6c" d="M 459 0 
L 459 4581 
L 1338 4581 
L 1338 0 
L 459 0 
z
" transform="scale(0.015625)"/>
      <path id="Arial-BoldMT-69" d="M 459 3769 
L 459 4581 
L 1338 4581 
L 1338 3769 
L 459 3769 
z
M 459 0 
L 459 3319 
L 1338 3319 
L 1338 0 
L 459 0 
z
" transform="scale(0.015625)"/>
      <path id="Arial-BoldMT-6d" d="M 394 3319 
L 1203 3319 
L 1203 2866 
Q 1638 3394 2238 3394 
Q 2556 3394 2790 3262 
Q 3025 3131 3175 2866 
Q 3394 3131 3647 3262 
Q 3900 3394 4188 3394 
Q 4553 3394 4806 3245 
Q 5059 3097 5184 2809 
Q 5275 2597 5275 2122 
L 5275 0 
L 4397 0 
L 4397 1897 
Q 4397 2391 4306 2534 
Q 4184 2722 3931 2722 
Q 3747 2722 3584 2609 
Q 3422 2497 3350 2280 
Q 3278 2063 3278 1594 
L 3278 0 
L 2400 0 
L 2400 1819 
Q 2400 2303 2353 2443 
Q 2306 2584 2207 2653 
Q 2109 2722 1941 2722 
Q 1738 2722 1575 2612 
Q 1413 2503 1342 2297 
Q 1272 2091 1272 1613 
L 1272 0 
L 394 0 
L 394 3319 
z
" transform="scale(0.015625)"/>
     </defs>
     <use xlink:href="#Arial-BoldMT-49"/>
     <use xlink:href="#Arial-BoldMT-6e" x="27.783203"/>
     <use xlink:href="#Arial-BoldMT-74" x="88.867188"/>
     <use xlink:href="#Arial-BoldMT-65" x="122.167969"/>
     <use xlink:href="#Arial-BoldMT-72" x="177.783203"/>
     <use xlink:href="#Arial-BoldMT-76" x="216.699219"/>
     <use xlink:href="#Arial-BoldMT-61" x="272.314453"/>
     <use xlink:href="#Arial-BoldMT-6c" x="327.929688"/>
     <use xlink:href="#Arial-BoldMT-74" x="355.712891"/>
     <use xlink:href="#Arial-BoldMT-69" x="389.013672"/>
     <use xlink:href="#Arial-BoldMT-6d" x="416.796875"/>
     <use xlink:href="#Arial-BoldMT-65" x="505.712891"/>
    </g>
   </g>
  </g>
 </g>
 <defs>
  <clipPath id="p589a07b811">
   <rect x="90" y="43.2" width="558" height="277.2"/>
  </clipPath>
 </defs>
</svg>
