<?xml version="1.0" encoding="utf-8" standalone="no"?>
<!DOCTYPE svg PUBLIC "-//W3C//DTD SVG 1.1//EN"
  "http://www.w3.org/Graphics/SVG/1.1/DTD/svg11.dtd">
<svg xmlns:xlink="http://www.w3.org/1999/xlink" width="720pt" height="1080pt" viewBox="0 0 720 1080" xmlns="http://www.w3.org/2000/svg" version="1.1">
 <metadata>
  <rdf:RDF xmlns:dc="http://purl.org/dc/elements/1.1/" xmlns:cc="http://creativecommons.org/ns#" xmlns:rdf="http://www.w3.org/1999/02/22-rdf-syntax-ns#">
   <cc:Work>
    <dc:type rdf:resource="http://purl.org/dc/dcmitype/StillImage"/>
    <dc:date>2024-09-02T13:04:11.784742</dc:date>
    <dc:format>image/svg+xml</dc:format>
    <dc:creator>
     <cc:Agent>
      <dc:title>Matplotlib v3.8.0, https://matplotlib.org/</dc:title>
     </cc:Agent>
    </dc:creator>
   </cc:Work>
  </rdf:RDF>
 </metadata>
 <defs>
  <style type="text/css">*{stroke-linejoin: round; stroke-linecap: butt}</style>
 </defs>
 <g id="figure_1">
  <g id="patch_1">
   <path d="M 0 1080 
L 720 1080 
L 720 0 
L 0 0 
z
" style="fill: #ffffff"/>
  </g>
  <g id="axes_1">
   <g id="patch_2">
    <path d="M 90 507.6 
L 648 507.6 
L 648 129.6 
L 90 129.6 
z
" style="fill: #ffffff"/>
   </g>
   <g id="matplotlib.axis_1">
    <g id="xtick_1">
     <g id="line2d_1">
      <defs>
       <path id="m8b63863fb4" d="M 0 0 
L 0 6 
" style="stroke: #262626; stroke-width: 1.25"/>
      </defs>
      <g>
       <use xlink:href="#m8b63863fb4" x="159.75" y="507.6" style="fill: #262626; stroke: #262626; stroke-width: 1.25"/>
      </g>
     </g>
     <g id="text_1">
      <!-- State 1 -->
      <g style="fill: #262626" transform="translate(142.321875 524.973594) scale(0.11 -0.11)">
       <defs>
        <path id="ArialMT-53" d="M 288 1472 
L 859 1522 
Q 900 1178 1048 958 
Q 1197 738 1509 602 
Q 1822 466 2213 466 
Q 2559 466 2825 569 
Q 3091 672 3220 851 
Q 3350 1031 3350 1244 
Q 3350 1459 3225 1620 
Q 3100 1781 2813 1891 
Q 2628 1963 1997 2114 
Q 1366 2266 1113 2400 
Q 784 2572 623 2826 
Q 463 3081 463 3397 
Q 463 3744 659 4045 
Q 856 4347 1234 4503 
Q 1613 4659 2075 4659 
Q 2584 4659 2973 4495 
Q 3363 4331 3572 4012 
Q 3781 3694 3797 3291 
L 3216 3247 
Q 3169 3681 2898 3903 
Q 2628 4125 2100 4125 
Q 1550 4125 1298 3923 
Q 1047 3722 1047 3438 
Q 1047 3191 1225 3031 
Q 1400 2872 2139 2705 
Q 2878 2538 3153 2413 
Q 3553 2228 3743 1945 
Q 3934 1663 3934 1294 
Q 3934 928 3725 604 
Q 3516 281 3123 101 
Q 2731 -78 2241 -78 
Q 1619 -78 1198 103 
Q 778 284 539 648 
Q 300 1013 288 1472 
z
" transform="scale(0.015625)"/>
        <path id="ArialMT-74" d="M 1650 503 
L 1731 6 
Q 1494 -44 1306 -44 
Q 1000 -44 831 53 
Q 663 150 594 308 
Q 525 466 525 972 
L 525 2881 
L 113 2881 
L 113 3319 
L 525 3319 
L 525 4141 
L 1084 4478 
L 1084 3319 
L 1650 3319 
L 1650 2881 
L 1084 2881 
L 1084 941 
Q 1084 700 1114 631 
Q 1144 563 1211 522 
Q 1278 481 1403 481 
Q 1497 481 1650 503 
z
" transform="scale(0.015625)"/>
        <path id="ArialMT-61" d="M 2588 409 
Q 2275 144 1986 34 
Q 1697 -75 1366 -75 
Q 819 -75 525 192 
Q 231 459 231 875 
Q 231 1119 342 1320 
Q 453 1522 633 1644 
Q 813 1766 1038 1828 
Q 1203 1872 1538 1913 
Q 2219 1994 2541 2106 
Q 2544 2222 2544 2253 
Q 2544 2597 2384 2738 
Q 2169 2928 1744 2928 
Q 1347 2928 1158 2789 
Q 969 2650 878 2297 
L 328 2372 
Q 403 2725 575 2942 
Q 747 3159 1072 3276 
Q 1397 3394 1825 3394 
Q 2250 3394 2515 3294 
Q 2781 3194 2906 3042 
Q 3031 2891 3081 2659 
Q 3109 2516 3109 2141 
L 3109 1391 
Q 3109 606 3145 398 
Q 3181 191 3288 0 
L 2700 0 
Q 2613 175 2588 409 
z
M 2541 1666 
Q 2234 1541 1622 1453 
Q 1275 1403 1131 1340 
Q 988 1278 909 1158 
Q 831 1038 831 891 
Q 831 666 1001 516 
Q 1172 366 1500 366 
Q 1825 366 2078 508 
Q 2331 650 2450 897 
Q 2541 1088 2541 1459 
L 2541 1666 
z
" transform="scale(0.015625)"/>
        <path id="ArialMT-65" d="M 2694 1069 
L 3275 997 
Q 3138 488 2766 206 
Q 2394 -75 1816 -75 
Q 1088 -75 661 373 
Q 234 822 234 1631 
Q 234 2469 665 2931 
Q 1097 3394 1784 3394 
Q 2450 3394 2872 2941 
Q 3294 2488 3294 1666 
Q 3294 1616 3291 1516 
L 816 1516 
Q 847 969 1125 678 
Q 1403 388 1819 388 
Q 2128 388 2347 550 
Q 2566 713 2694 1069 
z
M 847 1978 
L 2700 1978 
Q 2663 2397 2488 2606 
Q 2219 2931 1791 2931 
Q 1403 2931 1139 2672 
Q 875 2413 847 1978 
z
" transform="scale(0.015625)"/>
        <path id="ArialMT-20" transform="scale(0.015625)"/>
        <path id="ArialMT-31" d="M 2384 0 
L 1822 0 
L 1822 3584 
Q 1619 3391 1289 3197 
Q 959 3003 697 2906 
L 697 3450 
Q 1169 3672 1522 3987 
Q 1875 4303 2022 4600 
L 2384 4600 
L 2384 0 
z
" transform="scale(0.015625)"/>
       </defs>
       <use xlink:href="#ArialMT-53"/>
       <use xlink:href="#ArialMT-74" x="66.699219"/>
       <use xlink:href="#ArialMT-61" x="94.482422"/>
       <use xlink:href="#ArialMT-74" x="150.097656"/>
       <use xlink:href="#ArialMT-65" x="177.880859"/>
       <use xlink:href="#ArialMT-20" x="233.496094"/>
       <use xlink:href="#ArialMT-31" x="261.279297"/>
      </g>
     </g>
    </g>
    <g id="xtick_2">
     <g id="line2d_2">
      <g>
       <use xlink:href="#m8b63863fb4" x="299.25" y="507.6" style="fill: #262626; stroke: #262626; stroke-width: 1.25"/>
      </g>
     </g>
     <g id="text_2">
      <!-- State 2 -->
      <g style="fill: #262626" transform="translate(281.821875 524.973594) scale(0.11 -0.11)">
       <defs>
        <path id="ArialMT-32" d="M 3222 541 
L 3222 0 
L 194 0 
Q 188 203 259 391 
Q 375 700 629 1000 
Q 884 1300 1366 1694 
Q 2113 2306 2375 2664 
Q 2638 3022 2638 3341 
Q 2638 3675 2398 3904 
Q 2159 4134 1775 4134 
Q 1369 4134 1125 3890 
Q 881 3647 878 3216 
L 300 3275 
Q 359 3922 746 4261 
Q 1134 4600 1788 4600 
Q 2447 4600 2831 4234 
Q 3216 3869 3216 3328 
Q 3216 3053 3103 2787 
Q 2991 2522 2730 2228 
Q 2469 1934 1863 1422 
Q 1356 997 1212 845 
Q 1069 694 975 541 
L 3222 541 
z
" transform="scale(0.015625)"/>
       </defs>
       <use xlink:href="#ArialMT-53"/>
       <use xlink:href="#ArialMT-74" x="66.699219"/>
       <use xlink:href="#ArialMT-61" x="94.482422"/>
       <use xlink:href="#ArialMT-74" x="150.097656"/>
       <use xlink:href="#ArialMT-65" x="177.880859"/>
       <use xlink:href="#ArialMT-20" x="233.496094"/>
       <use xlink:href="#ArialMT-32" x="261.279297"/>
      </g>
     </g>
    </g>
    <g id="xtick_3">
     <g id="line2d_3">
      <g>
       <use xlink:href="#m8b63863fb4" x="438.75" y="507.6" style="fill: #262626; stroke: #262626; stroke-width: 1.25"/>
      </g>
     </g>
     <g id="text_3">
      <!-- State 3 -->
      <g style="fill: #262626" transform="translate(421.321875 524.973594) scale(0.11 -0.11)">
       <defs>
        <path id="ArialMT-33" d="M 269 1209 
L 831 1284 
Q 928 806 1161 595 
Q 1394 384 1728 384 
Q 2125 384 2398 659 
Q 2672 934 2672 1341 
Q 2672 1728 2419 1979 
Q 2166 2231 1775 2231 
Q 1616 2231 1378 2169 
L 1441 2663 
Q 1497 2656 1531 2656 
Q 1891 2656 2178 2843 
Q 2466 3031 2466 3422 
Q 2466 3731 2256 3934 
Q 2047 4138 1716 4138 
Q 1388 4138 1169 3931 
Q 950 3725 888 3313 
L 325 3413 
Q 428 3978 793 4289 
Q 1159 4600 1703 4600 
Q 2078 4600 2393 4439 
Q 2709 4278 2876 4000 
Q 3044 3722 3044 3409 
Q 3044 3113 2884 2869 
Q 2725 2625 2413 2481 
Q 2819 2388 3044 2092 
Q 3269 1797 3269 1353 
Q 3269 753 2831 336 
Q 2394 -81 1725 -81 
Q 1122 -81 723 278 
Q 325 638 269 1209 
z
" transform="scale(0.015625)"/>
       </defs>
       <use xlink:href="#ArialMT-53"/>
       <use xlink:href="#ArialMT-74" x="66.699219"/>
       <use xlink:href="#ArialMT-61" x="94.482422"/>
       <use xlink:href="#ArialMT-74" x="150.097656"/>
       <use xlink:href="#ArialMT-65" x="177.880859"/>
       <use xlink:href="#ArialMT-20" x="233.496094"/>
       <use xlink:href="#ArialMT-33" x="261.279297"/>
      </g>
     </g>
    </g>
    <g id="xtick_4">
     <g id="line2d_4">
      <g>
       <use xlink:href="#m8b63863fb4" x="578.25" y="507.6" style="fill: #262626; stroke: #262626; stroke-width: 1.25"/>
      </g>
     </g>
     <g id="text_4">
      <!-- State 4 -->
      <g style="fill: #262626" transform="translate(560.821875 524.973594) scale(0.11 -0.11)">
       <defs>
        <path id="ArialMT-34" d="M 2069 0 
L 2069 1097 
L 81 1097 
L 81 1613 
L 2172 4581 
L 2631 4581 
L 2631 1613 
L 3250 1613 
L 3250 1097 
L 2631 1097 
L 2631 0 
L 2069 0 
z
M 2069 1613 
L 2069 3678 
L 634 1613 
L 2069 1613 
z
" transform="scale(0.015625)"/>
       </defs>
       <use xlink:href="#ArialMT-53"/>
       <use xlink:href="#ArialMT-74" x="66.699219"/>
       <use xlink:href="#ArialMT-61" x="94.482422"/>
       <use xlink:href="#ArialMT-74" x="150.097656"/>
       <use xlink:href="#ArialMT-65" x="177.880859"/>
       <use xlink:href="#ArialMT-20" x="233.496094"/>
       <use xlink:href="#ArialMT-34" x="261.279297"/>
      </g>
     </g>
    </g>
   </g>
   <g id="matplotlib.axis_2">
    <g id="ytick_1">
     <g id="line2d_5">
      <defs>
       <path id="m48975352c4" d="M 0 0 
L -6 0 
" style="stroke: #262626; stroke-width: 1.25"/>
      </defs>
      <g>
       <use xlink:href="#m48975352c4" x="90" y="495.7875" style="fill: #262626; stroke: #262626; stroke-width: 1.25"/>
      </g>
     </g>
     <g id="text_5">
      <!-- −3 -->
      <g style="fill: #262626" transform="translate(67.958281 499.724297) scale(0.11 -0.11)">
       <defs>
        <path id="ArialMT-2212" d="M 3381 1997 
L 356 1997 
L 356 2522 
L 3381 2522 
L 3381 1997 
z
" transform="scale(0.015625)"/>
       </defs>
       <use xlink:href="#ArialMT-2212"/>
       <use xlink:href="#ArialMT-33" x="58.398438"/>
      </g>
     </g>
    </g>
    <g id="ytick_2">
     <g id="line2d_6">
      <g>
       <use xlink:href="#m48975352c4" x="90" y="436.725" style="fill: #262626; stroke: #262626; stroke-width: 1.25"/>
      </g>
     </g>
     <g id="text_6">
      <!-- −2 -->
      <g style="fill: #262626" transform="translate(67.958281 440.661797) scale(0.11 -0.11)">
       <use xlink:href="#ArialMT-2212"/>
       <use xlink:href="#ArialMT-32" x="58.398438"/>
      </g>
     </g>
    </g>
    <g id="ytick_3">
     <g id="line2d_7">
      <g>
       <use xlink:href="#m48975352c4" x="90" y="377.6625" style="fill: #262626; stroke: #262626; stroke-width: 1.25"/>
      </g>
     </g>
     <g id="text_7">
      <!-- −1 -->
      <g style="fill: #262626" transform="translate(67.958281 381.599297) scale(0.11 -0.11)">
       <use xlink:href="#ArialMT-2212"/>
       <use xlink:href="#ArialMT-31" x="58.398438"/>
      </g>
     </g>
    </g>
    <g id="ytick_4">
     <g id="line2d_8">
      <g>
       <use xlink:href="#m48975352c4" x="90" y="318.6" style="fill: #262626; stroke: #262626; stroke-width: 1.25"/>
      </g>
     </g>
     <g id="text_8">
      <!-- 0 -->
      <g style="fill: #262626" transform="translate(74.382969 322.536797) scale(0.11 -0.11)">
       <defs>
        <path id="ArialMT-30" d="M 266 2259 
Q 266 3072 433 3567 
Q 600 4063 929 4331 
Q 1259 4600 1759 4600 
Q 2128 4600 2406 4451 
Q 2684 4303 2865 4023 
Q 3047 3744 3150 3342 
Q 3253 2941 3253 2259 
Q 3253 1453 3087 958 
Q 2922 463 2592 192 
Q 2263 -78 1759 -78 
Q 1097 -78 719 397 
Q 266 969 266 2259 
z
M 844 2259 
Q 844 1131 1108 757 
Q 1372 384 1759 384 
Q 2147 384 2411 759 
Q 2675 1134 2675 2259 
Q 2675 3391 2411 3762 
Q 2147 4134 1753 4134 
Q 1366 4134 1134 3806 
Q 844 3388 844 2259 
z
" transform="scale(0.015625)"/>
       </defs>
       <use xlink:href="#ArialMT-30"/>
      </g>
     </g>
    </g>
    <g id="ytick_5">
     <g id="line2d_9">
      <g>
       <use xlink:href="#m48975352c4" x="90" y="259.5375" style="fill: #262626; stroke: #262626; stroke-width: 1.25"/>
      </g>
     </g>
     <g id="text_9">
      <!-- 1 -->
      <g style="fill: #262626" transform="translate(74.382969 263.474297) scale(0.11 -0.11)">
       <use xlink:href="#ArialMT-31"/>
      </g>
     </g>
    </g>
    <g id="ytick_6">
     <g id="line2d_10">
      <g>
       <use xlink:href="#m48975352c4" x="90" y="200.475" style="fill: #262626; stroke: #262626; stroke-width: 1.25"/>
      </g>
     </g>
     <g id="text_10">
      <!-- 2 -->
      <g style="fill: #262626" transform="translate(74.382969 204.411797) scale(0.11 -0.11)">
       <use xlink:href="#ArialMT-32"/>
      </g>
     </g>
    </g>
    <g id="ytick_7">
     <g id="line2d_11">
      <g>
       <use xlink:href="#m48975352c4" x="90" y="141.4125" style="fill: #262626; stroke: #262626; stroke-width: 1.25"/>
      </g>
     </g>
     <g id="text_11">
      <!-- 3 -->
      <g style="fill: #262626" transform="translate(74.382969 145.349297) scale(0.11 -0.11)">
       <use xlink:href="#ArialMT-33"/>
      </g>
     </g>
    </g>
    <g id="text_12">
     <!-- Value (z-scored) -->
     <g style="fill: #262626" transform="translate(61.432656 362.170313) rotate(-90) scale(0.12 -0.12)">
      <defs>
       <path id="ArialMT-56" d="M 1803 0 
L 28 4581 
L 684 4581 
L 1875 1253 
Q 2019 853 2116 503 
Q 2222 878 2363 1253 
L 3600 4581 
L 4219 4581 
L 2425 0 
L 1803 0 
z
" transform="scale(0.015625)"/>
       <path id="ArialMT-6c" d="M 409 0 
L 409 4581 
L 972 4581 
L 972 0 
L 409 0 
z
" transform="scale(0.015625)"/>
       <path id="ArialMT-75" d="M 2597 0 
L 2597 488 
Q 2209 -75 1544 -75 
Q 1250 -75 995 37 
Q 741 150 617 320 
Q 494 491 444 738 
Q 409 903 409 1263 
L 409 3319 
L 972 3319 
L 972 1478 
Q 972 1038 1006 884 
Q 1059 663 1231 536 
Q 1403 409 1656 409 
Q 1909 409 2131 539 
Q 2353 669 2445 892 
Q 2538 1116 2538 1541 
L 2538 3319 
L 3100 3319 
L 3100 0 
L 2597 0 
z
" transform="scale(0.015625)"/>
       <path id="ArialMT-28" d="M 1497 -1347 
Q 1031 -759 709 28 
Q 388 816 388 1659 
Q 388 2403 628 3084 
Q 909 3875 1497 4659 
L 1900 4659 
Q 1522 4009 1400 3731 
Q 1209 3300 1100 2831 
Q 966 2247 966 1656 
Q 966 153 1900 -1347 
L 1497 -1347 
z
" transform="scale(0.015625)"/>
       <path id="ArialMT-7a" d="M 125 0 
L 125 456 
L 2238 2881 
Q 1878 2863 1603 2863 
L 250 2863 
L 250 3319 
L 2963 3319 
L 2963 2947 
L 1166 841 
L 819 456 
Q 1197 484 1528 484 
L 3063 484 
L 3063 0 
L 125 0 
z
" transform="scale(0.015625)"/>
       <path id="ArialMT-2d" d="M 203 1375 
L 203 1941 
L 1931 1941 
L 1931 1375 
L 203 1375 
z
" transform="scale(0.015625)"/>
       <path id="ArialMT-73" d="M 197 991 
L 753 1078 
Q 800 744 1014 566 
Q 1228 388 1613 388 
Q 2000 388 2187 545 
Q 2375 703 2375 916 
Q 2375 1106 2209 1216 
Q 2094 1291 1634 1406 
Q 1016 1563 777 1677 
Q 538 1791 414 1992 
Q 291 2194 291 2438 
Q 291 2659 392 2848 
Q 494 3038 669 3163 
Q 800 3259 1026 3326 
Q 1253 3394 1513 3394 
Q 1903 3394 2198 3281 
Q 2494 3169 2634 2976 
Q 2775 2784 2828 2463 
L 2278 2388 
Q 2241 2644 2061 2787 
Q 1881 2931 1553 2931 
Q 1166 2931 1000 2803 
Q 834 2675 834 2503 
Q 834 2394 903 2306 
Q 972 2216 1119 2156 
Q 1203 2125 1616 2013 
Q 2213 1853 2448 1751 
Q 2684 1650 2818 1456 
Q 2953 1263 2953 975 
Q 2953 694 2789 445 
Q 2625 197 2315 61 
Q 2006 -75 1616 -75 
Q 969 -75 630 194 
Q 291 463 197 991 
z
" transform="scale(0.015625)"/>
       <path id="ArialMT-63" d="M 2588 1216 
L 3141 1144 
Q 3050 572 2676 248 
Q 2303 -75 1759 -75 
Q 1078 -75 664 370 
Q 250 816 250 1647 
Q 250 2184 428 2587 
Q 606 2991 970 3192 
Q 1334 3394 1763 3394 
Q 2303 3394 2647 3120 
Q 2991 2847 3088 2344 
L 2541 2259 
Q 2463 2594 2264 2762 
Q 2066 2931 1784 2931 
Q 1359 2931 1093 2626 
Q 828 2322 828 1663 
Q 828 994 1084 691 
Q 1341 388 1753 388 
Q 2084 388 2306 591 
Q 2528 794 2588 1216 
z
" transform="scale(0.015625)"/>
       <path id="ArialMT-6f" d="M 213 1659 
Q 213 2581 725 3025 
Q 1153 3394 1769 3394 
Q 2453 3394 2887 2945 
Q 3322 2497 3322 1706 
Q 3322 1066 3130 698 
Q 2938 331 2570 128 
Q 2203 -75 1769 -75 
Q 1072 -75 642 372 
Q 213 819 213 1659 
z
M 791 1659 
Q 791 1022 1069 705 
Q 1347 388 1769 388 
Q 2188 388 2466 706 
Q 2744 1025 2744 1678 
Q 2744 2294 2464 2611 
Q 2184 2928 1769 2928 
Q 1347 2928 1069 2612 
Q 791 2297 791 1659 
z
" transform="scale(0.015625)"/>
       <path id="ArialMT-72" d="M 416 0 
L 416 3319 
L 922 3319 
L 922 2816 
Q 1116 3169 1280 3281 
Q 1444 3394 1641 3394 
Q 1925 3394 2219 3213 
L 2025 2691 
Q 1819 2813 1613 2813 
Q 1428 2813 1281 2702 
Q 1134 2591 1072 2394 
Q 978 2094 978 1738 
L 978 0 
L 416 0 
z
" transform="scale(0.015625)"/>
       <path id="ArialMT-64" d="M 2575 0 
L 2575 419 
Q 2259 -75 1647 -75 
Q 1250 -75 917 144 
Q 584 363 401 755 
Q 219 1147 219 1656 
Q 219 2153 384 2558 
Q 550 2963 881 3178 
Q 1213 3394 1622 3394 
Q 1922 3394 2156 3267 
Q 2391 3141 2538 2938 
L 2538 4581 
L 3097 4581 
L 3097 0 
L 2575 0 
z
M 797 1656 
Q 797 1019 1065 703 
Q 1334 388 1700 388 
Q 2069 388 2326 689 
Q 2584 991 2584 1609 
Q 2584 2291 2321 2609 
Q 2059 2928 1675 2928 
Q 1300 2928 1048 2622 
Q 797 2316 797 1656 
z
" transform="scale(0.015625)"/>
       <path id="ArialMT-29" d="M 791 -1347 
L 388 -1347 
Q 1322 153 1322 1656 
Q 1322 2244 1188 2822 
Q 1081 3291 891 3722 
Q 769 4003 388 4659 
L 791 4659 
Q 1378 3875 1659 3084 
Q 1900 2403 1900 1659 
Q 1900 816 1576 28 
Q 1253 -759 791 -1347 
z
" transform="scale(0.015625)"/>
      </defs>
      <use xlink:href="#ArialMT-56"/>
      <use xlink:href="#ArialMT-61" x="59.324219"/>
      <use xlink:href="#ArialMT-6c" x="114.939453"/>
      <use xlink:href="#ArialMT-75" x="137.15625"/>
      <use xlink:href="#ArialMT-65" x="192.771484"/>
      <use xlink:href="#ArialMT-20" x="248.386719"/>
      <use xlink:href="#ArialMT-28" x="276.169922"/>
      <use xlink:href="#ArialMT-7a" x="309.470703"/>
      <use xlink:href="#ArialMT-2d" x="359.470703"/>
      <use xlink:href="#ArialMT-73" x="392.771484"/>
      <use xlink:href="#ArialMT-63" x="442.771484"/>
      <use xlink:href="#ArialMT-6f" x="492.771484"/>
      <use xlink:href="#ArialMT-72" x="548.386719"/>
      <use xlink:href="#ArialMT-65" x="581.6875"/>
      <use xlink:href="#ArialMT-64" x="637.302734"/>
      <use xlink:href="#ArialMT-29" x="692.917969"/>
     </g>
    </g>
   </g>
   <g id="PolyCollection_1">
    <defs>
     <path id="m71dce783b9" d="M 172.025845 -747.294818 
L 160.142972 -747.294818 
L 160.142972 -748.106111 
L 160.142972 -748.917404 
L 160.142972 -749.728696 
L 160.142972 -750.539989 
L 160.142972 -751.351281 
L 160.142972 -752.162574 
L 160.142972 -752.973866 
L 160.142972 -753.785159 
L 160.142972 -754.596451 
L 160.142972 -755.407744 
L 160.142972 -756.219036 
L 160.142972 -757.030329 
L 160.142972 -757.841621 
L 160.142972 -758.652914 
L 160.142972 -759.464207 
L 160.142972 -760.275499 
L 160.142972 -761.086792 
L 160.142972 -761.898084 
L 160.142972 -762.709377 
L 160.142972 -763.520669 
L 160.142972 -764.331962 
L 160.142972 -765.143254 
L 160.142972 -765.954547 
L 160.142972 -766.765839 
L 160.142972 -767.577132 
L 160.142972 -768.388425 
L 160.142972 -769.199717 
L 160.142972 -770.01101 
L 160.142972 -770.822302 
L 160.142972 -771.633595 
L 160.142972 -772.444887 
L 160.142972 -773.25618 
L 160.142972 -774.067472 
L 160.142972 -774.878765 
L 160.142972 -775.690057 
L 160.142972 -776.50135 
L 160.142972 -777.312643 
L 160.142972 -778.123935 
L 167.029036 -778.123935 
L 167.029036 -778.123935 
L 168.151677 -777.312643 
L 169.279656 -776.50135 
L 170.425088 -775.690057 
L 171.61647 -774.878765 
L 172.890191 -774.067472 
L 174.278048 -773.25618 
L 175.794488 -772.444887 
L 177.427942 -771.633595 
L 179.139629 -770.822302 
L 180.870854 -770.01101 
L 182.556815 -769.199717 
L 184.142538 -768.388425 
L 185.595661 -767.577132 
L 186.911853 -766.765839 
L 188.111157 -765.954547 
L 189.226603 -765.143254 
L 190.288873 -764.331962 
L 191.31182 -763.520669 
L 192.283207 -762.709377 
L 193.163273 -761.898084 
L 193.891432 -761.086792 
L 194.39911 -760.275499 
L 194.625 -759.464207 
L 194.528383 -758.652914 
L 194.096785 -757.841621 
L 193.34605 -757.030329 
L 192.313396 -756.219036 
L 191.046266 -755.407744 
L 189.590985 -754.596451 
L 187.984801 -753.785159 
L 186.25324 -752.973866 
L 184.412424 -752.162574 
L 182.47435 -751.351281 
L 180.452573 -750.539989 
L 178.366357 -749.728696 
L 176.242576 -748.917404 
L 174.115605 -748.106111 
L 172.025845 -747.294818 
z
" style="stroke: #d55e00; stroke-opacity: 0.3"/>
    </defs>
    <g clip-path="url(#p4ef9576f52)">
     <use xlink:href="#m71dce783b9" x="0" y="1080" style="fill: #d55e00; fill-opacity: 0.3; stroke: #d55e00; stroke-opacity: 0.3"/>
    </g>
   </g>
   <g id="PolyCollection_2">
    <defs>
     <path id="m26c8b5b698" d="M 301.69374 -718.728814 
L 299.390895 -718.728814 
L 299.390895 -720.502648 
L 299.390895 -722.276482 
L 299.390895 -724.050316 
L 299.390895 -725.82415 
L 299.390895 -727.597984 
L 299.390895 -729.371818 
L 299.390895 -731.145651 
L 299.390895 -732.919485 
L 299.390895 -734.693319 
L 299.390895 -736.467153 
L 299.390895 -738.240987 
L 299.390895 -740.014821 
L 299.390895 -741.788655 
L 299.390895 -743.562489 
L 299.390895 -745.336323 
L 299.390895 -747.110156 
L 299.390895 -748.88399 
L 299.390895 -750.657824 
L 299.390895 -752.431658 
L 299.390895 -754.205492 
L 299.390895 -755.979326 
L 299.390895 -757.75316 
L 299.390895 -759.526994 
L 299.390895 -761.300828 
L 299.390895 -763.074661 
L 299.390895 -764.848495 
L 299.390895 -766.622329 
L 299.390895 -768.396163 
L 299.390895 -770.169997 
L 299.390895 -771.943831 
L 299.390895 -773.717665 
L 299.390895 -775.491499 
L 299.390895 -777.265332 
L 299.390895 -779.039166 
L 299.390895 -780.813 
L 299.390895 -782.586834 
L 299.390895 -784.360668 
L 299.390895 -786.134502 
L 305.775049 -786.134502 
L 305.775049 -786.134502 
L 307.340468 -784.360668 
L 309.107146 -782.586834 
L 311.081148 -780.813 
L 313.248693 -779.039166 
L 315.567332 -777.265332 
L 317.96735 -775.491499 
L 320.364782 -773.717665 
L 322.681445 -771.943831 
L 324.86309 -770.169997 
L 326.886357 -768.396163 
L 328.749289 -766.622329 
L 330.447359 -764.848495 
L 331.944489 -763.074661 
L 333.15289 -761.300828 
L 333.933992 -759.526994 
L 334.125 -757.75316 
L 333.584672 -755.979326 
L 332.242904 -754.205492 
L 330.13607 -752.431658 
L 327.41496 -750.657824 
L 324.321841 -748.88399 
L 321.143187 -747.110156 
L 318.151246 -745.336323 
L 315.549882 -743.562489 
L 313.43858 -741.788655 
L 311.80396 -740.014821 
L 310.54103 -738.240987 
L 309.497645 -736.467153 
L 308.52774 -734.693319 
L 307.535487 -732.919485 
L 306.495993 -731.145651 
L 305.447701 -729.371818 
L 304.462979 -727.597984 
L 303.611223 -725.82415 
L 302.92986 -724.050316 
L 302.413159 -722.276482 
L 302.019966 -720.502648 
L 301.69374 -718.728814 
z
" style="stroke: #0072b2; stroke-opacity: 0.3"/>
    </defs>
    <g clip-path="url(#p4ef9576f52)">
     <use xlink:href="#m26c8b5b698" x="0" y="1080" style="fill: #0072b2; fill-opacity: 0.3; stroke: #0072b2; stroke-opacity: 0.3"/>
    </g>
   </g>
   <g id="PolyCollection_3">
    <defs>
     <path id="m03df2bd50a" d="M 440.645254 -705.193141 
L 438.905747 -705.193141 
L 438.905747 -707.372835 
L 438.905747 -709.552528 
L 438.905747 -711.732221 
L 438.905747 -713.911915 
L 438.905747 -716.091608 
L 438.905747 -718.271302 
L 438.905747 -720.450995 
L 438.905747 -722.630688 
L 438.905747 -724.810382 
L 438.905747 -726.990075 
L 438.905747 -729.169769 
L 438.905747 -731.349462 
L 438.905747 -733.529155 
L 438.905747 -735.708849 
L 438.905747 -737.888542 
L 438.905747 -740.068236 
L 438.905747 -742.247929 
L 438.905747 -744.427622 
L 438.905747 -746.607316 
L 438.905747 -748.787009 
L 438.905747 -750.966703 
L 438.905747 -753.146396 
L 438.905747 -755.326089 
L 438.905747 -757.505783 
L 438.905747 -759.685476 
L 438.905747 -761.86517 
L 438.905747 -764.044863 
L 438.905747 -766.224556 
L 438.905747 -768.40425 
L 438.905747 -770.583943 
L 438.905747 -772.763637 
L 438.905747 -774.94333 
L 438.905747 -777.123023 
L 438.905747 -779.302717 
L 438.905747 -781.48241 
L 438.905747 -783.662104 
L 438.905747 -785.841797 
L 438.905747 -788.02149 
L 447.574972 -788.02149 
L 447.574972 -788.02149 
L 449.795064 -785.841797 
L 452.072624 -783.662104 
L 454.3291 -781.48241 
L 456.53075 -779.302717 
L 458.694504 -777.123023 
L 460.870369 -774.94333 
L 463.105083 -772.763637 
L 465.401677 -770.583943 
L 467.693 -768.40425 
L 469.841378 -766.224556 
L 471.664504 -764.044863 
L 472.97611 -761.86517 
L 473.625 -759.685476 
L 473.519388 -757.505783 
L 472.632357 -755.326089 
L 470.993531 -753.146396 
L 468.677339 -750.966703 
L 465.797015 -748.787009 
L 462.506408 -746.607316 
L 459.002675 -744.427622 
L 455.51791 -742.247929 
L 452.291232 -740.068236 
L 449.524179 -737.888542 
L 447.33476 -735.708849 
L 445.730868 -733.529155 
L 444.617405 -731.349462 
L 443.836454 -729.169769 
L 443.224439 -726.990075 
L 442.663053 -724.810382 
L 442.105099 -722.630688 
L 441.569079 -720.450995 
L 441.110003 -718.271302 
L 440.782057 -716.091608 
L 440.608796 -713.911915 
L 440.570641 -711.732221 
L 440.611283 -709.552528 
L 440.657796 -707.372835 
L 440.645254 -705.193141 
z
" style="stroke: #009e73; stroke-opacity: 0.3"/>
    </defs>
    <g clip-path="url(#p4ef9576f52)">
     <use xlink:href="#m03df2bd50a" x="0" y="1080" style="fill: #009e73; fill-opacity: 0.3; stroke: #009e73; stroke-opacity: 0.3"/>
    </g>
   </g>
   <g id="PolyCollection_4">
    <defs>
     <path id="m740c190318" d="M 582.80153 -749.205277 
L 578.419393 -749.205277 
L 578.419393 -750.022685 
L 578.419393 -750.840093 
L 578.419393 -751.657501 
L 578.419393 -752.474909 
L 578.419393 -753.292318 
L 578.419393 -754.109726 
L 578.419393 -754.927134 
L 578.419393 -755.744542 
L 578.419393 -756.56195 
L 578.419393 -757.379359 
L 578.419393 -758.196767 
L 578.419393 -759.014175 
L 578.419393 -759.831583 
L 578.419393 -760.648991 
L 578.419393 -761.466399 
L 578.419393 -762.283808 
L 578.419393 -763.101216 
L 578.419393 -763.918624 
L 578.419393 -764.736032 
L 578.419393 -765.55344 
L 578.419393 -766.370848 
L 578.419393 -767.188257 
L 578.419393 -768.005665 
L 578.419393 -768.823073 
L 578.419393 -769.640481 
L 578.419393 -770.457889 
L 578.419393 -771.275297 
L 578.419393 -772.092706 
L 578.419393 -772.910114 
L 578.419393 -773.727522 
L 578.419393 -774.54493 
L 578.419393 -775.362338 
L 578.419393 -776.179747 
L 578.419393 -776.997155 
L 578.419393 -777.814563 
L 578.419393 -778.631971 
L 578.419393 -779.449379 
L 578.419393 -780.266787 
L 582.867734 -780.266787 
L 582.867734 -780.266787 
L 583.729151 -779.449379 
L 584.555844 -778.631971 
L 585.313926 -777.814563 
L 585.986847 -776.997155 
L 586.580881 -776.179747 
L 587.125227 -775.362338 
L 587.666926 -774.54493 
L 588.263588 -773.727522 
L 588.977953 -772.910114 
L 589.876425 -772.092706 
L 591.0296 -771.275297 
L 592.509244 -770.457889 
L 594.376189 -769.640481 
L 596.658087 -768.823073 
L 599.322898 -768.005665 
L 602.259274 -767.188257 
L 605.274999 -766.370848 
L 608.118805 -765.55344 
L 610.521625 -764.736032 
L 612.245436 -763.918624 
L 613.125 -763.101216 
L 613.091268 -762.283808 
L 612.172825 -761.466399 
L 610.479548 -760.648991 
L 608.17703 -759.831583 
L 605.459935 -759.014175 
L 602.528868 -758.196767 
L 599.571379 -757.379359 
L 596.746042 -756.56195 
L 594.169466 -755.744542 
L 591.90809 -754.927134 
L 589.97745 -754.109726 
L 588.350221 -753.292318 
L 586.971396 -752.474909 
L 585.776375 -751.657501 
L 584.707049 -750.840093 
L 583.72227 -750.022685 
L 582.80153 -749.205277 
z
" style="stroke: #cc79a7; stroke-opacity: 0.3"/>
    </defs>
    <g clip-path="url(#p4ef9576f52)">
     <use xlink:href="#m740c190318" x="0" y="1080" style="fill: #cc79a7; fill-opacity: 0.3; stroke: #cc79a7; stroke-opacity: 0.3"/>
    </g>
   </g>
   <g id="PathCollection_1">
    <defs>
     <path id="mcf08a24fe3" d="M 0 0.866025 
C 0.229673 0.866025 0.449969 0.774776 0.612372 0.612372 
C 0.774776 0.449969 0.866025 0.229673 0.866025 0 
C 0.866025 -0.229673 0.774776 -0.449969 0.612372 -0.612372 
C 0.449969 -0.774776 0.229673 -0.866025 0 -0.866025 
C -0.229673 -0.866025 -0.449969 -0.774776 -0.612372 -0.612372 
C -0.774776 -0.449969 -0.866025 -0.229673 -0.866025 0 
C -0.866025 0.229673 -0.774776 0.449969 -0.612372 0.612372 
C -0.449969 0.774776 -0.229673 0.866025 0 0.866025 
z
" style="stroke: #d55e00"/>
    </defs>
    <g clip-path="url(#p4ef9576f52)">
     <use xlink:href="#mcf08a24fe3" x="134.305735" y="324.701942" style="fill: #d55e00; stroke: #d55e00"/>
     <use xlink:href="#mcf08a24fe3" x="129.495406" y="314.78845" style="fill: #d55e00; stroke: #d55e00"/>
     <use xlink:href="#mcf08a24fe3" x="137.519339" y="331.5945" style="fill: #d55e00; stroke: #d55e00"/>
     <use xlink:href="#mcf08a24fe3" x="127.104631" y="323.479768" style="fill: #d55e00; stroke: #d55e00"/>
     <use xlink:href="#mcf08a24fe3" x="137.591952" y="327.235006" style="fill: #d55e00; stroke: #d55e00"/>
     <use xlink:href="#mcf08a24fe3" x="137.750548" y="316.189664" style="fill: #d55e00; stroke: #d55e00"/>
     <use xlink:href="#mcf08a24fe3" x="138.643953" y="332.062769" style="fill: #d55e00; stroke: #d55e00"/>
     <use xlink:href="#mcf08a24fe3" x="127.407678" y="322.148347" style="fill: #d55e00; stroke: #d55e00"/>
     <use xlink:href="#mcf08a24fe3" x="136.39061" y="321.469195" style="fill: #d55e00; stroke: #d55e00"/>
     <use xlink:href="#mcf08a24fe3" x="127.606736" y="315.581912" style="fill: #d55e00; stroke: #d55e00"/>
     <use xlink:href="#mcf08a24fe3" x="138.123588" y="319.207094" style="fill: #d55e00; stroke: #d55e00"/>
     <use xlink:href="#mcf08a24fe3" x="127.521151" y="326.253556" style="fill: #d55e00; stroke: #d55e00"/>
     <use xlink:href="#mcf08a24fe3" x="134.175206" y="321.183409" style="fill: #d55e00; stroke: #d55e00"/>
     <use xlink:href="#mcf08a24fe3" x="134.574185" y="324.006073" style="fill: #d55e00; stroke: #d55e00"/>
     <use xlink:href="#mcf08a24fe3" x="131.533874" y="309.873868" style="fill: #d55e00; stroke: #d55e00"/>
     <use xlink:href="#mcf08a24fe3" x="134.724957" y="316.091125" style="fill: #d55e00; stroke: #d55e00"/>
     <use xlink:href="#mcf08a24fe3" x="127.999408" y="322.849014" style="fill: #d55e00; stroke: #d55e00"/>
     <use xlink:href="#mcf08a24fe3" x="137.987894" y="306.997993" style="fill: #d55e00; stroke: #d55e00"/>
     <use xlink:href="#mcf08a24fe3" x="136.148051" y="310.822062" style="fill: #d55e00; stroke: #d55e00"/>
     <use xlink:href="#mcf08a24fe3" x="126.108556" y="328.123923" style="fill: #d55e00; stroke: #d55e00"/>
     <use xlink:href="#mcf08a24fe3" x="129.979597" y="318.802913" style="fill: #d55e00; stroke: #d55e00"/>
     <use xlink:href="#mcf08a24fe3" x="133.516982" y="312.041958" style="fill: #d55e00; stroke: #d55e00"/>
     <use xlink:href="#mcf08a24fe3" x="131.766797" y="319.026026" style="fill: #d55e00; stroke: #d55e00"/>
     <use xlink:href="#mcf08a24fe3" x="137.75146" y="312.129047" style="fill: #d55e00; stroke: #d55e00"/>
     <use xlink:href="#mcf08a24fe3" x="138.400667" y="304.294974" style="fill: #d55e00; stroke: #d55e00"/>
     <use xlink:href="#mcf08a24fe3" x="135.270671" y="320.654115" style="fill: #d55e00; stroke: #d55e00"/>
     <use xlink:href="#mcf08a24fe3" x="126.612466" y="321.328203" style="fill: #d55e00; stroke: #d55e00"/>
     <use xlink:href="#mcf08a24fe3" x="129.772106" y="332.705182" style="fill: #d55e00; stroke: #d55e00"/>
     <use xlink:href="#mcf08a24fe3" x="132.444615" y="327.72714" style="fill: #d55e00; stroke: #d55e00"/>
     <use xlink:href="#mcf08a24fe3" x="138.311322" y="304.400562" style="fill: #d55e00; stroke: #d55e00"/>
     <use xlink:href="#mcf08a24fe3" x="136.919385" y="316.326297" style="fill: #d55e00; stroke: #d55e00"/>
     <use xlink:href="#mcf08a24fe3" x="137.56382" y="327.797331" style="fill: #d55e00; stroke: #d55e00"/>
     <use xlink:href="#mcf08a24fe3" x="129.000068" y="321.112643" style="fill: #d55e00; stroke: #d55e00"/>
     <use xlink:href="#mcf08a24fe3" x="130.114877" y="310.739403" style="fill: #d55e00; stroke: #d55e00"/>
     <use xlink:href="#mcf08a24fe3" x="138.655335" y="312.192148" style="fill: #d55e00; stroke: #d55e00"/>
     <use xlink:href="#mcf08a24fe3" x="136.350721" y="312.248378" style="fill: #d55e00; stroke: #d55e00"/>
     <use xlink:href="#mcf08a24fe3" x="138.456194" y="301.876065" style="fill: #d55e00; stroke: #d55e00"/>
     <use xlink:href="#mcf08a24fe3" x="130.927912" y="318.388086" style="fill: #d55e00; stroke: #d55e00"/>
     <use xlink:href="#mcf08a24fe3" x="128.063505" y="327.945831" style="fill: #d55e00; stroke: #d55e00"/>
    </g>
   </g>
   <g id="PathCollection_2">
    <defs>
     <path id="m82754fbb3c" d="M 0 0.866025 
C 0.229673 0.866025 0.449969 0.774776 0.612372 0.612372 
C 0.774776 0.449969 0.866025 0.229673 0.866025 0 
C 0.866025 -0.229673 0.774776 -0.449969 0.612372 -0.612372 
C 0.449969 -0.774776 0.229673 -0.866025 0 -0.866025 
C -0.229673 -0.866025 -0.449969 -0.774776 -0.612372 -0.612372 
C -0.774776 -0.449969 -0.866025 -0.229673 -0.866025 0 
C -0.866025 0.229673 -0.774776 0.449969 -0.612372 0.612372 
C -0.449969 0.774776 -0.229673 0.866025 0 0.866025 
z
" style="stroke: #0072b2"/>
    </defs>
    <g clip-path="url(#p4ef9576f52)">
     <use xlink:href="#m82754fbb3c" x="268.107538" y="311.202024" style="fill: #0072b2; stroke: #0072b2"/>
     <use xlink:href="#m82754fbb3c" x="265.07057" y="326.319627" style="fill: #0072b2; stroke: #0072b2"/>
     <use xlink:href="#m82754fbb3c" x="274.857622" y="323.032504" style="fill: #0072b2; stroke: #0072b2"/>
     <use xlink:href="#m82754fbb3c" x="267.329237" y="317.933305" style="fill: #0072b2; stroke: #0072b2"/>
     <use xlink:href="#m82754fbb3c" x="271.179194" y="308.322607" style="fill: #0072b2; stroke: #0072b2"/>
     <use xlink:href="#m82754fbb3c" x="273.67597" y="307.333093" style="fill: #0072b2; stroke: #0072b2"/>
     <use xlink:href="#m82754fbb3c" x="268.983392" y="304.375815" style="fill: #0072b2; stroke: #0072b2"/>
     <use xlink:href="#m82754fbb3c" x="265.254349" y="343.9449" style="fill: #0072b2; stroke: #0072b2"/>
     <use xlink:href="#m82754fbb3c" x="269.746631" y="296.818497" style="fill: #0072b2; stroke: #0072b2"/>
     <use xlink:href="#m82754fbb3c" x="270.650366" y="333.391939" style="fill: #0072b2; stroke: #0072b2"/>
     <use xlink:href="#m82754fbb3c" x="272.374512" y="293.865498" style="fill: #0072b2; stroke: #0072b2"/>
     <use xlink:href="#m82754fbb3c" x="274.544054" y="311.926723" style="fill: #0072b2; stroke: #0072b2"/>
     <use xlink:href="#m82754fbb3c" x="270.855654" y="320.756352" style="fill: #0072b2; stroke: #0072b2"/>
     <use xlink:href="#m82754fbb3c" x="271.587933" y="311.294749" style="fill: #0072b2; stroke: #0072b2"/>
     <use xlink:href="#m82754fbb3c" x="272.147705" y="326.298411" style="fill: #0072b2; stroke: #0072b2"/>
     <use xlink:href="#m82754fbb3c" x="267.533148" y="315.298608" style="fill: #0072b2; stroke: #0072b2"/>
     <use xlink:href="#m82754fbb3c" x="271.986055" y="321.284666" style="fill: #0072b2; stroke: #0072b2"/>
     <use xlink:href="#m82754fbb3c" x="277.858119" y="328.615092" style="fill: #0072b2; stroke: #0072b2"/>
     <use xlink:href="#m82754fbb3c" x="278.125682" y="329.73543" style="fill: #0072b2; stroke: #0072b2"/>
     <use xlink:href="#m82754fbb3c" x="268.618625" y="320.712003" style="fill: #0072b2; stroke: #0072b2"/>
     <use xlink:href="#m82754fbb3c" x="265.04361" y="361.271186" style="fill: #0072b2; stroke: #0072b2"/>
     <use xlink:href="#m82754fbb3c" x="271.00699" y="332.348291" style="fill: #0072b2; stroke: #0072b2"/>
     <use xlink:href="#m82754fbb3c" x="266.520821" y="321.261437" style="fill: #0072b2; stroke: #0072b2"/>
     <use xlink:href="#m82754fbb3c" x="269.777496" y="314.734558" style="fill: #0072b2; stroke: #0072b2"/>
     <use xlink:href="#m82754fbb3c" x="264.727018" y="343.789584" style="fill: #0072b2; stroke: #0072b2"/>
     <use xlink:href="#m82754fbb3c" x="269.5759" y="343.995928" style="fill: #0072b2; stroke: #0072b2"/>
     <use xlink:href="#m82754fbb3c" x="264.778988" y="314.173193" style="fill: #0072b2; stroke: #0072b2"/>
     <use xlink:href="#m82754fbb3c" x="270.126331" y="302.732065" style="fill: #0072b2; stroke: #0072b2"/>
     <use xlink:href="#m82754fbb3c" x="271.628678" y="316.35246" style="fill: #0072b2; stroke: #0072b2"/>
     <use xlink:href="#m82754fbb3c" x="275.334271" y="322.022046" style="fill: #0072b2; stroke: #0072b2"/>
     <use xlink:href="#m82754fbb3c" x="273.003087" y="324.782765" style="fill: #0072b2; stroke: #0072b2"/>
     <use xlink:href="#m82754fbb3c" x="274.977396" y="304.596428" style="fill: #0072b2; stroke: #0072b2"/>
     <use xlink:href="#m82754fbb3c" x="268.522378" y="309.112058" style="fill: #0072b2; stroke: #0072b2"/>
     <use xlink:href="#m82754fbb3c" x="269.569112" y="326.253712" style="fill: #0072b2; stroke: #0072b2"/>
     <use xlink:href="#m82754fbb3c" x="265.880442" y="325.47141" style="fill: #0072b2; stroke: #0072b2"/>
     <use xlink:href="#m82754fbb3c" x="271.060951" y="328.430167" style="fill: #0072b2; stroke: #0072b2"/>
     <use xlink:href="#m82754fbb3c" x="273.269648" y="348.286644" style="fill: #0072b2; stroke: #0072b2"/>
     <use xlink:href="#m82754fbb3c" x="272.792955" y="323.720286" style="fill: #0072b2; stroke: #0072b2"/>
     <use xlink:href="#m82754fbb3c" x="272.039823" y="334.734454" style="fill: #0072b2; stroke: #0072b2"/>
    </g>
   </g>
   <g id="PathCollection_3">
    <defs>
     <path id="m86705f19aa" d="M 0 0.866025 
C 0.229673 0.866025 0.449969 0.774776 0.612372 0.612372 
C 0.774776 0.449969 0.866025 0.229673 0.866025 0 
C 0.866025 -0.229673 0.774776 -0.449969 0.612372 -0.612372 
C 0.449969 -0.774776 0.229673 -0.866025 0 -0.866025 
C -0.229673 -0.866025 -0.449969 -0.774776 -0.612372 -0.612372 
C -0.774776 -0.449969 -0.866025 -0.229673 -0.866025 0 
C -0.866025 0.229673 -0.774776 0.449969 -0.612372 0.612372 
C -0.449969 0.774776 -0.229673 0.866025 0 0.866025 
z
" style="stroke: #009e73"/>
    </defs>
    <g clip-path="url(#p4ef9576f52)">
     <use xlink:href="#m86705f19aa" x="411.428113" y="324.120575" style="fill: #009e73; stroke: #009e73"/>
     <use xlink:href="#m86705f19aa" x="407.699199" y="320.846584" style="fill: #009e73; stroke: #009e73"/>
     <use xlink:href="#m86705f19aa" x="406.068517" y="337.491398" style="fill: #009e73; stroke: #009e73"/>
     <use xlink:href="#m86705f19aa" x="415.902184" y="314.370733" style="fill: #009e73; stroke: #009e73"/>
     <use xlink:href="#m86705f19aa" x="410.978368" y="315.086755" style="fill: #009e73; stroke: #009e73"/>
     <use xlink:href="#m86705f19aa" x="406.431575" y="302.741733" style="fill: #009e73; stroke: #009e73"/>
     <use xlink:href="#m86705f19aa" x="407.024725" y="325.336697" style="fill: #009e73; stroke: #009e73"/>
     <use xlink:href="#m86705f19aa" x="414.864321" y="351.135725" style="fill: #009e73; stroke: #009e73"/>
     <use xlink:href="#m86705f19aa" x="407.631418" y="296.247938" style="fill: #009e73; stroke: #009e73"/>
     <use xlink:href="#m86705f19aa" x="407.220813" y="335.901678" style="fill: #009e73; stroke: #009e73"/>
     <use xlink:href="#m86705f19aa" x="409.897733" y="298.707271" style="fill: #009e73; stroke: #009e73"/>
     <use xlink:href="#m86705f19aa" x="408.554226" y="307.251233" style="fill: #009e73; stroke: #009e73"/>
     <use xlink:href="#m86705f19aa" x="408.279882" y="309.528477" style="fill: #009e73; stroke: #009e73"/>
     <use xlink:href="#m86705f19aa" x="414.509465" y="314.577808" style="fill: #009e73; stroke: #009e73"/>
     <use xlink:href="#m86705f19aa" x="410.526195" y="304.699683" style="fill: #009e73; stroke: #009e73"/>
     <use xlink:href="#m86705f19aa" x="407.08561" y="318.842033" style="fill: #009e73; stroke: #009e73"/>
     <use xlink:href="#m86705f19aa" x="404.080042" y="322.043011" style="fill: #009e73; stroke: #009e73"/>
     <use xlink:href="#m86705f19aa" x="412.175026" y="326.43139" style="fill: #009e73; stroke: #009e73"/>
     <use xlink:href="#m86705f19aa" x="414.015465" y="333.165821" style="fill: #009e73; stroke: #009e73"/>
     <use xlink:href="#m86705f19aa" x="413.789139" y="334.200064" style="fill: #009e73; stroke: #009e73"/>
     <use xlink:href="#m86705f19aa" x="408.306833" y="374.806859" style="fill: #009e73; stroke: #009e73"/>
     <use xlink:href="#m86705f19aa" x="411.845159" y="326.394462" style="fill: #009e73; stroke: #009e73"/>
     <use xlink:href="#m86705f19aa" x="406.943139" y="314.169877" style="fill: #009e73; stroke: #009e73"/>
     <use xlink:href="#m86705f19aa" x="410.042226" y="313.425832" style="fill: #009e73; stroke: #009e73"/>
     <use xlink:href="#m86705f19aa" x="406.001388" y="329.384635" style="fill: #009e73; stroke: #009e73"/>
     <use xlink:href="#m86705f19aa" x="415.323333" y="325.219918" style="fill: #009e73; stroke: #009e73"/>
     <use xlink:href="#m86705f19aa" x="416.352127" y="301.177348" style="fill: #009e73; stroke: #009e73"/>
     <use xlink:href="#m86705f19aa" x="405.929757" y="321.768326" style="fill: #009e73; stroke: #009e73"/>
     <use xlink:href="#m86705f19aa" x="414.752148" y="319.888034" style="fill: #009e73; stroke: #009e73"/>
     <use xlink:href="#m86705f19aa" x="409.586119" y="291.97851" style="fill: #009e73; stroke: #009e73"/>
     <use xlink:href="#m86705f19aa" x="415.281152" y="315.721715" style="fill: #009e73; stroke: #009e73"/>
     <use xlink:href="#m86705f19aa" x="414.457432" y="331.309983" style="fill: #009e73; stroke: #009e73"/>
     <use xlink:href="#m86705f19aa" x="409.443161" y="308.702405" style="fill: #009e73; stroke: #009e73"/>
     <use xlink:href="#m86705f19aa" x="411.137622" y="322.189302" style="fill: #009e73; stroke: #009e73"/>
     <use xlink:href="#m86705f19aa" x="411.686557" y="317.516627" style="fill: #009e73; stroke: #009e73"/>
     <use xlink:href="#m86705f19aa" x="404.659226" y="299.667776" style="fill: #009e73; stroke: #009e73"/>
     <use xlink:href="#m86705f19aa" x="407.326331" y="330.104236" style="fill: #009e73; stroke: #009e73"/>
     <use xlink:href="#m86705f19aa" x="416.522237" y="333.746182" style="fill: #009e73; stroke: #009e73"/>
     <use xlink:href="#m86705f19aa" x="417.727667" y="353.806182" style="fill: #009e73; stroke: #009e73"/>
    </g>
   </g>
   <g id="PathCollection_4">
    <defs>
     <path id="me248df441f" d="M 0 0.866025 
C 0.229673 0.866025 0.449969 0.774776 0.612372 0.612372 
C 0.774776 0.449969 0.866025 0.229673 0.866025 0 
C 0.866025 -0.229673 0.774776 -0.449969 0.612372 -0.612372 
C 0.449969 -0.774776 0.229673 -0.866025 0 -0.866025 
C -0.229673 -0.866025 -0.449969 -0.774776 -0.612372 -0.612372 
C -0.774776 -0.449969 -0.866025 -0.229673 -0.866025 0 
C -0.866025 0.229673 -0.774776 0.449969 -0.612372 0.612372 
C -0.449969 0.774776 -0.229673 0.866025 0 0.866025 
z
" style="stroke: #cc79a7"/>
    </defs>
    <g clip-path="url(#p4ef9576f52)">
     <use xlink:href="#me248df441f" x="555.09752" y="318.994472" style="fill: #cc79a7; stroke: #cc79a7"/>
     <use xlink:href="#me248df441f" x="554.214394" y="315.909091" style="fill: #cc79a7; stroke: #cc79a7"/>
     <use xlink:href="#me248df441f" x="549.006465" y="308.384174" style="fill: #cc79a7; stroke: #cc79a7"/>
     <use xlink:href="#me248df441f" x="553.236823" y="317.780817" style="fill: #cc79a7; stroke: #cc79a7"/>
     <use xlink:href="#me248df441f" x="556.697613" y="320.407636" style="fill: #cc79a7; stroke: #cc79a7"/>
     <use xlink:href="#me248df441f" x="546.470627" y="328.054163" style="fill: #cc79a7; stroke: #cc79a7"/>
     <use xlink:href="#me248df441f" x="547.208342" y="318.875934" style="fill: #cc79a7; stroke: #cc79a7"/>
     <use xlink:href="#me248df441f" x="549.445024" y="304.466393" style="fill: #cc79a7; stroke: #cc79a7"/>
     <use xlink:href="#me248df441f" x="544.478457" y="330.794723" style="fill: #cc79a7; stroke: #cc79a7"/>
     <use xlink:href="#me248df441f" x="550.505987" y="307.814754" style="fill: #cc79a7; stroke: #cc79a7"/>
     <use xlink:href="#me248df441f" x="552.404734" y="326.714699" style="fill: #cc79a7; stroke: #cc79a7"/>
     <use xlink:href="#me248df441f" x="545.896168" y="321.051883" style="fill: #cc79a7; stroke: #cc79a7"/>
     <use xlink:href="#me248df441f" x="550.905776" y="317.06854" style="fill: #cc79a7; stroke: #cc79a7"/>
     <use xlink:href="#me248df441f" x="556.478682" y="317.41279" style="fill: #cc79a7; stroke: #cc79a7"/>
     <use xlink:href="#me248df441f" x="546.707295" y="322.199781" style="fill: #cc79a7; stroke: #cc79a7"/>
     <use xlink:href="#me248df441f" x="544.416645" y="321.33019" style="fill: #cc79a7; stroke: #cc79a7"/>
     <use xlink:href="#me248df441f" x="551.360885" y="314.805262" style="fill: #cc79a7; stroke: #cc79a7"/>
     <use xlink:href="#me248df441f" x="554.676112" y="314.306733" style="fill: #cc79a7; stroke: #cc79a7"/>
     <use xlink:href="#me248df441f" x="553.49828" y="314.67504" style="fill: #cc79a7; stroke: #cc79a7"/>
     <use xlink:href="#me248df441f" x="545.243569" y="312.116509" style="fill: #cc79a7; stroke: #cc79a7"/>
     <use xlink:href="#me248df441f" x="544.782696" y="303.327163" style="fill: #cc79a7; stroke: #cc79a7"/>
     <use xlink:href="#me248df441f" x="555.28301" y="313.246412" style="fill: #cc79a7; stroke: #cc79a7"/>
     <use xlink:href="#me248df441f" x="550.971195" y="317.222109" style="fill: #cc79a7; stroke: #cc79a7"/>
     <use xlink:href="#me248df441f" x="552.732718" y="325.352161" style="fill: #cc79a7; stroke: #cc79a7"/>
     <use xlink:href="#me248df441f" x="547.512874" y="316.548044" style="fill: #cc79a7; stroke: #cc79a7"/>
     <use xlink:href="#me248df441f" x="551.339145" y="302.905346" style="fill: #cc79a7; stroke: #cc79a7"/>
     <use xlink:href="#me248df441f" x="551.379991" y="320.44402" style="fill: #cc79a7; stroke: #cc79a7"/>
     <use xlink:href="#me248df441f" x="550.955183" y="315.978412" style="fill: #cc79a7; stroke: #cc79a7"/>
     <use xlink:href="#me248df441f" x="553.441676" y="314.2919" style="fill: #cc79a7; stroke: #cc79a7"/>
     <use xlink:href="#me248df441f" x="546.76434" y="321.922964" style="fill: #cc79a7; stroke: #cc79a7"/>
     <use xlink:href="#me248df441f" x="548.630142" y="319.168629" style="fill: #cc79a7; stroke: #cc79a7"/>
     <use xlink:href="#me248df441f" x="554.351831" y="315.840422" style="fill: #cc79a7; stroke: #cc79a7"/>
     <use xlink:href="#me248df441f" x="546.456925" y="323.124998" style="fill: #cc79a7; stroke: #cc79a7"/>
     <use xlink:href="#me248df441f" x="544.773376" y="315.025994" style="fill: #cc79a7; stroke: #cc79a7"/>
     <use xlink:href="#me248df441f" x="552.779987" y="317.035816" style="fill: #cc79a7; stroke: #cc79a7"/>
     <use xlink:href="#me248df441f" x="554.945613" y="318.651491" style="fill: #cc79a7; stroke: #cc79a7"/>
     <use xlink:href="#me248df441f" x="548.298522" y="310.363578" style="fill: #cc79a7; stroke: #cc79a7"/>
     <use xlink:href="#me248df441f" x="548.402669" y="309.039947" style="fill: #cc79a7; stroke: #cc79a7"/>
     <use xlink:href="#me248df441f" x="544.223752" y="299.733213" style="fill: #cc79a7; stroke: #cc79a7"/>
    </g>
   </g>
   <g id="patch_3">
    <path d="M 149.2875 324.354007 
L 170.2125 324.354007 
L 170.2125 312.220263 
L 149.2875 312.220263 
L 149.2875 324.354007 
z
" clip-path="url(#p4ef9576f52)" style="fill: #d55e00; opacity: 0.5; stroke: #000000; stroke-linejoin: miter"/>
   </g>
   <g id="line2d_12">
    <path d="M 159.75 324.354007 
L 159.75 332.705182 
" clip-path="url(#p4ef9576f52)" style="fill: none; stroke: #000000; stroke-linecap: round"/>
   </g>
   <g id="line2d_13">
    <path d="M 159.75 312.220263 
L 159.75 301.876065 
" clip-path="url(#p4ef9576f52)" style="fill: none; stroke: #000000; stroke-linecap: round"/>
   </g>
   <g id="line2d_14">
    <path d="M 154.51875 332.705182 
L 164.98125 332.705182 
" clip-path="url(#p4ef9576f52)" style="fill: none; stroke: #000000; stroke-linecap: round"/>
   </g>
   <g id="line2d_15">
    <path d="M 154.51875 301.876065 
L 164.98125 301.876065 
" clip-path="url(#p4ef9576f52)" style="fill: none; stroke: #000000; stroke-linecap: round"/>
   </g>
   <g id="patch_4">
    <path d="M 288.7875 328.52263 
L 309.7125 328.52263 
L 309.7125 311.610736 
L 288.7875 311.610736 
L 288.7875 328.52263 
z
" clip-path="url(#p4ef9576f52)" style="fill: #0072b2; opacity: 0.5; stroke: #000000; stroke-linejoin: miter"/>
   </g>
   <g id="line2d_16">
    <path d="M 299.25 328.52263 
L 299.25 348.286644 
" clip-path="url(#p4ef9576f52)" style="fill: none; stroke: #000000; stroke-linecap: round"/>
   </g>
   <g id="line2d_17">
    <path d="M 299.25 311.610736 
L 299.25 293.865498 
" clip-path="url(#p4ef9576f52)" style="fill: none; stroke: #000000; stroke-linecap: round"/>
   </g>
   <g id="line2d_18">
    <path d="M 294.01875 348.286644 
L 304.48125 348.286644 
" clip-path="url(#p4ef9576f52)" style="fill: none; stroke: #000000; stroke-linecap: round"/>
   </g>
   <g id="line2d_19">
    <path d="M 294.01875 293.865498 
L 304.48125 293.865498 
" clip-path="url(#p4ef9576f52)" style="fill: none; stroke: #000000; stroke-linecap: round"/>
   </g>
   <g id="patch_5">
    <path d="M 428.2875 329.744436 
L 449.2125 329.744436 
L 449.2125 311.477154 
L 428.2875 311.477154 
L 428.2875 329.744436 
z
" clip-path="url(#p4ef9576f52)" style="fill: #009e73; opacity: 0.5; stroke: #000000; stroke-linejoin: miter"/>
   </g>
   <g id="line2d_20">
    <path d="M 438.75 329.744436 
L 438.75 353.806182 
" clip-path="url(#p4ef9576f52)" style="fill: none; stroke: #000000; stroke-linecap: round"/>
   </g>
   <g id="line2d_21">
    <path d="M 438.75 311.477154 
L 438.75 291.97851 
" clip-path="url(#p4ef9576f52)" style="fill: none; stroke: #000000; stroke-linecap: round"/>
   </g>
   <g id="line2d_22">
    <path d="M 433.51875 353.806182 
L 443.98125 353.806182 
" clip-path="url(#p4ef9576f52)" style="fill: none; stroke: #000000; stroke-linecap: round"/>
   </g>
   <g id="line2d_23">
    <path d="M 433.51875 291.97851 
L 443.98125 291.97851 
" clip-path="url(#p4ef9576f52)" style="fill: none; stroke: #000000; stroke-linecap: round"/>
   </g>
   <g id="patch_6">
    <path d="M 567.7875 320.425828 
L 588.7125 320.425828 
L 588.7125 313.769156 
L 567.7875 313.769156 
L 567.7875 320.425828 
z
" clip-path="url(#p4ef9576f52)" style="fill: #cc79a7; opacity: 0.5; stroke: #000000; stroke-linejoin: miter"/>
   </g>
   <g id="line2d_24">
    <path d="M 578.25 320.425828 
L 578.25 328.054163 
" clip-path="url(#p4ef9576f52)" style="fill: none; stroke: #000000; stroke-linecap: round"/>
   </g>
   <g id="line2d_25">
    <path d="M 578.25 313.769156 
L 578.25 304.466393 
" clip-path="url(#p4ef9576f52)" style="fill: none; stroke: #000000; stroke-linecap: round"/>
   </g>
   <g id="line2d_26">
    <path d="M 573.01875 328.054163 
L 583.48125 328.054163 
" clip-path="url(#p4ef9576f52)" style="fill: none; stroke: #000000; stroke-linecap: round"/>
   </g>
   <g id="line2d_27">
    <path d="M 573.01875 304.466393 
L 583.48125 304.466393 
" clip-path="url(#p4ef9576f52)" style="fill: none; stroke: #000000; stroke-linecap: round"/>
   </g>
   <g id="line2d_28">
    <path d="M 159.75 280.16601 
L 299.25 280.16601 
" clip-path="url(#p4ef9576f52)" style="fill: none; stroke: #000000; stroke-width: 1.5; stroke-linecap: round"/>
   </g>
   <g id="line2d_29">
    <path d="M 299.25 268.35351 
L 578.25 268.35351 
" clip-path="url(#p4ef9576f52)" style="fill: none; stroke: #000000; stroke-width: 1.5; stroke-linecap: round"/>
   </g>
   <g id="line2d_30">
    <path d="M 149.2875 319.207094 
L 170.2125 319.207094 
" clip-path="url(#p4ef9576f52)" style="fill: none; stroke: #000000"/>
   </g>
   <g id="line2d_31">
    <path d="M 288.7875 321.284666 
L 309.7125 321.284666 
" clip-path="url(#p4ef9576f52)" style="fill: none; stroke: #000000"/>
   </g>
   <g id="line2d_32">
    <path d="M 428.2875 320.846584 
L 449.2125 320.846584 
" clip-path="url(#p4ef9576f52)" style="fill: none; stroke: #000000"/>
   </g>
   <g id="line2d_33">
    <path d="M 567.7875 317.035816 
L 588.7125 317.035816 
" clip-path="url(#p4ef9576f52)" style="fill: none; stroke: #000000"/>
   </g>
   <g id="patch_7">
    <path d="M 90 507.6 
L 90 129.6 
" style="fill: none; stroke: #262626; stroke-width: 1.25; stroke-linejoin: miter; stroke-linecap: square"/>
   </g>
   <g id="patch_8">
    <path d="M 648 507.6 
L 648 129.6 
" style="fill: none; stroke: #262626; stroke-width: 1.25; stroke-linejoin: miter; stroke-linecap: square"/>
   </g>
   <g id="patch_9">
    <path d="M 90 507.6 
L 648 507.6 
" style="fill: none; stroke: #262626; stroke-width: 1.25; stroke-linejoin: miter; stroke-linecap: square"/>
   </g>
   <g id="patch_10">
    <path d="M 90 129.6 
L 648 129.6 
" style="fill: none; stroke: #262626; stroke-width: 1.25; stroke-linejoin: miter; stroke-linecap: square"/>
   </g>
   <g id="text_13">
    <!-- * -->
    <g transform="translate(229.5 280.16601) scale(0.12 -0.12)">
     <defs>
      <path id="ArialMT-2a" d="M 200 3741 
L 344 4184 
Q 841 4009 1066 3881 
Q 1006 4447 1003 4659 
L 1456 4659 
Q 1447 4350 1384 3884 
Q 1706 4047 2122 4184 
L 2266 3741 
Q 1869 3609 1488 3566 
Q 1678 3400 2025 2975 
L 1650 2709 
Q 1469 2956 1222 3381 
Q 991 2941 816 2709 
L 447 2975 
Q 809 3422 966 3566 
Q 563 3644 200 3741 
z
" transform="scale(0.015625)"/>
     </defs>
     <use xlink:href="#ArialMT-2a"/>
    </g>
   </g>
   <g id="text_14">
    <!-- * -->
    <g transform="translate(438.75 268.35351) scale(0.12 -0.12)">
     <use xlink:href="#ArialMT-2a"/>
    </g>
   </g>
   <g id="text_15">
    <!-- IBI -->
    <g style="fill: #262626" transform="translate(360.055313 109.6) scale(0.14 -0.14)">
     <defs>
      <path id="Arial-BoldMT-49" d="M 438 0 
L 438 4581 
L 1363 4581 
L 1363 0 
L 438 0 
z
" transform="scale(0.015625)"/>
      <path id="Arial-BoldMT-42" d="M 469 4581 
L 2300 4581 
Q 2844 4581 3111 4536 
Q 3378 4491 3589 4347 
Q 3800 4203 3940 3964 
Q 4081 3725 4081 3428 
Q 4081 3106 3907 2837 
Q 3734 2569 3438 2434 
Q 3856 2313 4081 2019 
Q 4306 1725 4306 1328 
Q 4306 1016 4161 720 
Q 4016 425 3764 248 
Q 3513 72 3144 31 
Q 2913 6 2028 0 
L 469 0 
L 469 4581 
z
M 1394 3819 
L 1394 2759 
L 2000 2759 
Q 2541 2759 2672 2775 
Q 2909 2803 3045 2939 
Q 3181 3075 3181 3297 
Q 3181 3509 3064 3642 
Q 2947 3775 2716 3803 
Q 2578 3819 1925 3819 
L 1394 3819 
z
M 1394 1997 
L 1394 772 
L 2250 772 
Q 2750 772 2884 800 
Q 3091 838 3220 983 
Q 3350 1128 3350 1372 
Q 3350 1578 3250 1722 
Q 3150 1866 2961 1931 
Q 2772 1997 2141 1997 
L 1394 1997 
z
" transform="scale(0.015625)"/>
     </defs>
     <use xlink:href="#Arial-BoldMT-49"/>
     <use xlink:href="#Arial-BoldMT-42" x="27.783203"/>
     <use xlink:href="#Arial-BoldMT-49" x="100"/>
    </g>
   </g>
  </g>
  <g id="axes_2">
   <g id="patch_11">
    <path d="M 90 961.2 
L 648 961.2 
L 648 583.2 
L 90 583.2 
z
" style="fill: #ffffff"/>
   </g>
   <g id="matplotlib.axis_3">
    <g id="xtick_5">
     <g id="line2d_34">
      <g>
       <use xlink:href="#m8b63863fb4" x="159.75" y="961.2" style="fill: #262626; stroke: #262626; stroke-width: 1.25"/>
      </g>
     </g>
     <g id="text_16">
      <!-- State 1 -->
      <g style="fill: #262626" transform="translate(142.321875 978.573594) scale(0.11 -0.11)">
       <use xlink:href="#ArialMT-53"/>
       <use xlink:href="#ArialMT-74" x="66.699219"/>
       <use xlink:href="#ArialMT-61" x="94.482422"/>
       <use xlink:href="#ArialMT-74" x="150.097656"/>
       <use xlink:href="#ArialMT-65" x="177.880859"/>
       <use xlink:href="#ArialMT-20" x="233.496094"/>
       <use xlink:href="#ArialMT-31" x="261.279297"/>
      </g>
     </g>
    </g>
    <g id="xtick_6">
     <g id="line2d_35">
      <g>
       <use xlink:href="#m8b63863fb4" x="299.25" y="961.2" style="fill: #262626; stroke: #262626; stroke-width: 1.25"/>
      </g>
     </g>
     <g id="text_17">
      <!-- State 2 -->
      <g style="fill: #262626" transform="translate(281.821875 978.573594) scale(0.11 -0.11)">
       <use xlink:href="#ArialMT-53"/>
       <use xlink:href="#ArialMT-74" x="66.699219"/>
       <use xlink:href="#ArialMT-61" x="94.482422"/>
       <use xlink:href="#ArialMT-74" x="150.097656"/>
       <use xlink:href="#ArialMT-65" x="177.880859"/>
       <use xlink:href="#ArialMT-20" x="233.496094"/>
       <use xlink:href="#ArialMT-32" x="261.279297"/>
      </g>
     </g>
    </g>
    <g id="xtick_7">
     <g id="line2d_36">
      <g>
       <use xlink:href="#m8b63863fb4" x="438.75" y="961.2" style="fill: #262626; stroke: #262626; stroke-width: 1.25"/>
      </g>
     </g>
     <g id="text_18">
      <!-- State 3 -->
      <g style="fill: #262626" transform="translate(421.321875 978.573594) scale(0.11 -0.11)">
       <use xlink:href="#ArialMT-53"/>
       <use xlink:href="#ArialMT-74" x="66.699219"/>
       <use xlink:href="#ArialMT-61" x="94.482422"/>
       <use xlink:href="#ArialMT-74" x="150.097656"/>
       <use xlink:href="#ArialMT-65" x="177.880859"/>
       <use xlink:href="#ArialMT-20" x="233.496094"/>
       <use xlink:href="#ArialMT-33" x="261.279297"/>
      </g>
     </g>
    </g>
    <g id="xtick_8">
     <g id="line2d_37">
      <g>
       <use xlink:href="#m8b63863fb4" x="578.25" y="961.2" style="fill: #262626; stroke: #262626; stroke-width: 1.25"/>
      </g>
     </g>
     <g id="text_19">
      <!-- State 4 -->
      <g style="fill: #262626" transform="translate(560.821875 978.573594) scale(0.11 -0.11)">
       <use xlink:href="#ArialMT-53"/>
       <use xlink:href="#ArialMT-74" x="66.699219"/>
       <use xlink:href="#ArialMT-61" x="94.482422"/>
       <use xlink:href="#ArialMT-74" x="150.097656"/>
       <use xlink:href="#ArialMT-65" x="177.880859"/>
       <use xlink:href="#ArialMT-20" x="233.496094"/>
       <use xlink:href="#ArialMT-34" x="261.279297"/>
      </g>
     </g>
    </g>
   </g>
   <g id="matplotlib.axis_4">
    <g id="ytick_8">
     <g id="line2d_38">
      <g>
       <use xlink:href="#m48975352c4" x="90" y="949.3875" style="fill: #262626; stroke: #262626; stroke-width: 1.25"/>
      </g>
     </g>
     <g id="text_20">
      <!-- −3 -->
      <g style="fill: #262626" transform="translate(67.958281 953.324297) scale(0.11 -0.11)">
       <use xlink:href="#ArialMT-2212"/>
       <use xlink:href="#ArialMT-33" x="58.398438"/>
      </g>
     </g>
    </g>
    <g id="ytick_9">
     <g id="line2d_39">
      <g>
       <use xlink:href="#m48975352c4" x="90" y="890.325" style="fill: #262626; stroke: #262626; stroke-width: 1.25"/>
      </g>
     </g>
     <g id="text_21">
      <!-- −2 -->
      <g style="fill: #262626" transform="translate(67.958281 894.261797) scale(0.11 -0.11)">
       <use xlink:href="#ArialMT-2212"/>
       <use xlink:href="#ArialMT-32" x="58.398438"/>
      </g>
     </g>
    </g>
    <g id="ytick_10">
     <g id="line2d_40">
      <g>
       <use xlink:href="#m48975352c4" x="90" y="831.2625" style="fill: #262626; stroke: #262626; stroke-width: 1.25"/>
      </g>
     </g>
     <g id="text_22">
      <!-- −1 -->
      <g style="fill: #262626" transform="translate(67.958281 835.199297) scale(0.11 -0.11)">
       <use xlink:href="#ArialMT-2212"/>
       <use xlink:href="#ArialMT-31" x="58.398438"/>
      </g>
     </g>
    </g>
    <g id="ytick_11">
     <g id="line2d_41">
      <g>
       <use xlink:href="#m48975352c4" x="90" y="772.2" style="fill: #262626; stroke: #262626; stroke-width: 1.25"/>
      </g>
     </g>
     <g id="text_23">
      <!-- 0 -->
      <g style="fill: #262626" transform="translate(74.382969 776.136797) scale(0.11 -0.11)">
       <use xlink:href="#ArialMT-30"/>
      </g>
     </g>
    </g>
    <g id="ytick_12">
     <g id="line2d_42">
      <g>
       <use xlink:href="#m48975352c4" x="90" y="713.1375" style="fill: #262626; stroke: #262626; stroke-width: 1.25"/>
      </g>
     </g>
     <g id="text_24">
      <!-- 1 -->
      <g style="fill: #262626" transform="translate(74.382969 717.074297) scale(0.11 -0.11)">
       <use xlink:href="#ArialMT-31"/>
      </g>
     </g>
    </g>
    <g id="ytick_13">
     <g id="line2d_43">
      <g>
       <use xlink:href="#m48975352c4" x="90" y="654.075" style="fill: #262626; stroke: #262626; stroke-width: 1.25"/>
      </g>
     </g>
     <g id="text_25">
      <!-- 2 -->
      <g style="fill: #262626" transform="translate(74.382969 658.011797) scale(0.11 -0.11)">
       <use xlink:href="#ArialMT-32"/>
      </g>
     </g>
    </g>
    <g id="ytick_14">
     <g id="line2d_44">
      <g>
       <use xlink:href="#m48975352c4" x="90" y="595.0125" style="fill: #262626; stroke: #262626; stroke-width: 1.25"/>
      </g>
     </g>
     <g id="text_26">
      <!-- 3 -->
      <g style="fill: #262626" transform="translate(74.382969 598.949297) scale(0.11 -0.11)">
       <use xlink:href="#ArialMT-33"/>
      </g>
     </g>
    </g>
    <g id="text_27">
     <!-- Value (z-scored) -->
     <g style="fill: #262626" transform="translate(61.432656 815.770313) rotate(-90) scale(0.12 -0.12)">
      <use xlink:href="#ArialMT-56"/>
      <use xlink:href="#ArialMT-61" x="59.324219"/>
      <use xlink:href="#ArialMT-6c" x="114.939453"/>
      <use xlink:href="#ArialMT-75" x="137.15625"/>
      <use xlink:href="#ArialMT-65" x="192.771484"/>
      <use xlink:href="#ArialMT-20" x="248.386719"/>
      <use xlink:href="#ArialMT-28" x="276.169922"/>
      <use xlink:href="#ArialMT-7a" x="309.470703"/>
      <use xlink:href="#ArialMT-2d" x="359.470703"/>
      <use xlink:href="#ArialMT-73" x="392.771484"/>
      <use xlink:href="#ArialMT-63" x="442.771484"/>
      <use xlink:href="#ArialMT-6f" x="492.771484"/>
      <use xlink:href="#ArialMT-72" x="548.386719"/>
      <use xlink:href="#ArialMT-65" x="581.6875"/>
      <use xlink:href="#ArialMT-64" x="637.302734"/>
      <use xlink:href="#ArialMT-29" x="692.917969"/>
     </g>
    </g>
   </g>
   <g id="PolyCollection_5">
    <defs>
     <path id="m718c3cf526" d="M 162.747339 -286.475761 
L 159.863648 -286.475761 
L 159.863648 -287.477936 
L 159.863648 -288.48011 
L 159.863648 -289.482284 
L 159.863648 -290.484458 
L 159.863648 -291.486632 
L 159.863648 -292.488807 
L 159.863648 -293.490981 
L 159.863648 -294.493155 
L 159.863648 -295.495329 
L 159.863648 -296.497504 
L 159.863648 -297.499678 
L 159.863648 -298.501852 
L 159.863648 -299.504026 
L 159.863648 -300.5062 
L 159.863648 -301.508375 
L 159.863648 -302.510549 
L 159.863648 -303.512723 
L 159.863648 -304.514897 
L 159.863648 -305.517071 
L 159.863648 -306.519246 
L 159.863648 -307.52142 
L 159.863648 -308.523594 
L 159.863648 -309.525768 
L 159.863648 -310.527943 
L 159.863648 -311.530117 
L 159.863648 -312.532291 
L 159.863648 -313.534465 
L 159.863648 -314.536639 
L 159.863648 -315.538814 
L 159.863648 -316.540988 
L 159.863648 -317.543162 
L 159.863648 -318.545336 
L 159.863648 -319.547511 
L 159.863648 -320.549685 
L 159.863648 -321.551859 
L 159.863648 -322.554033 
L 159.863648 -323.556207 
L 159.863648 -324.558382 
L 162.960813 -324.558382 
L 162.960813 -324.558382 
L 163.514895 -323.556207 
L 164.071135 -322.554033 
L 164.636017 -321.551859 
L 165.23413 -320.549685 
L 165.919107 -319.547511 
L 166.782869 -318.545336 
L 167.954521 -317.543162 
L 169.581585 -316.540988 
L 171.792458 -315.538814 
L 174.647144 -314.536639 
L 178.090496 -313.534465 
L 181.925806 -312.532291 
L 185.824823 -311.530117 
L 189.381144 -310.527943 
L 192.198033 -309.525768 
L 193.984511 -308.523594 
L 194.625 -307.52142 
L 194.195796 -306.519246 
L 192.924339 -305.517071 
L 191.112348 -304.514897 
L 189.056417 -303.512723 
L 186.993223 -302.510549 
L 185.077605 -301.508375 
L 183.384259 -300.5062 
L 181.918107 -299.504026 
L 180.624877 -298.501852 
L 179.403984 -297.499678 
L 178.130797 -296.497504 
L 176.690935 -295.495329 
L 175.019049 -294.493155 
L 173.126659 -293.490981 
L 171.10467 -292.488807 
L 169.096585 -291.486632 
L 167.252444 -290.484458 
L 165.682802 -289.482284 
L 164.431373 -288.48011 
L 163.475108 -287.477936 
L 162.747339 -286.475761 
z
" style="stroke: #d55e00; stroke-opacity: 0.3"/>
    </defs>
    <g clip-path="url(#p9152ae249d)">
     <use xlink:href="#m718c3cf526" x="0" y="1080" style="fill: #d55e00; fill-opacity: 0.3; stroke: #d55e00; stroke-opacity: 0.3"/>
    </g>
   </g>
   <g id="PolyCollection_6">
    <defs>
     <path id="m0a42c544b6" d="M 305.884668 -263.805764 
L 299.49062 -263.805764 
L 299.49062 -266.034375 
L 299.49062 -268.262986 
L 299.49062 -270.491597 
L 299.49062 -272.720208 
L 299.49062 -274.948818 
L 299.49062 -277.177429 
L 299.49062 -279.40604 
L 299.49062 -281.634651 
L 299.49062 -283.863262 
L 299.49062 -286.091873 
L 299.49062 -288.320484 
L 299.49062 -290.549095 
L 299.49062 -292.777706 
L 299.49062 -295.006317 
L 299.49062 -297.234928 
L 299.49062 -299.463539 
L 299.49062 -301.69215 
L 299.49062 -303.920761 
L 299.49062 -306.149372 
L 299.49062 -308.377982 
L 299.49062 -310.606593 
L 299.49062 -312.835204 
L 299.49062 -315.063815 
L 299.49062 -317.292426 
L 299.49062 -319.521037 
L 299.49062 -321.749648 
L 299.49062 -323.978259 
L 299.49062 -326.20687 
L 299.49062 -328.435481 
L 299.49062 -330.664092 
L 299.49062 -332.892703 
L 299.49062 -335.121314 
L 299.49062 -337.349925 
L 299.49062 -339.578536 
L 299.49062 -341.807147 
L 299.49062 -344.035757 
L 299.49062 -346.264368 
L 299.49062 -348.492979 
L 305.470872 -348.492979 
L 305.470872 -348.492979 
L 306.65196 -346.264368 
L 307.968207 -344.035757 
L 309.45185 -341.807147 
L 311.12973 -339.578536 
L 313.01153 -337.349925 
L 315.081315 -335.121314 
L 317.29526 -332.892703 
L 319.586415 -330.664092 
L 321.875207 -328.435481 
L 324.082819 -326.20687 
L 326.143709 -323.978259 
L 328.013484 -321.749648 
L 329.669264 -319.521037 
L 331.101717 -317.292426 
L 332.300969 -315.063815 
L 333.241622 -312.835204 
L 333.873681 -310.606593 
L 334.125 -308.377982 
L 333.916799 -306.149372 
L 333.188304 -303.920761 
L 331.922036 -301.69215 
L 330.160073 -299.463539 
L 328.004428 -297.234928 
L 325.600639 -295.006317 
L 323.109972 -292.777706 
L 320.679685 -290.549095 
L 318.4208 -288.320484 
L 316.398952 -286.091873 
L 314.638125 -283.863262 
L 313.132181 -281.634651 
L 311.857241 -279.40604 
L 310.779764 -277.177429 
L 309.859165 -274.948818 
L 309.047704 -272.720208 
L 308.291918 -270.491597 
L 307.538445 -268.262986 
L 306.743811 -266.034375 
L 305.884668 -263.805764 
z
" style="stroke: #0072b2; stroke-opacity: 0.3"/>
    </defs>
    <g clip-path="url(#p9152ae249d)">
     <use xlink:href="#m0a42c544b6" x="0" y="1080" style="fill: #0072b2; fill-opacity: 0.3; stroke: #0072b2; stroke-opacity: 0.3"/>
    </g>
   </g>
   <g id="PolyCollection_7">
    <defs>
     <path id="mbbecb11af0" d="M 440.63427 -248.122542 
L 438.817366 -248.122542 
L 438.817366 -251.240078 
L 438.817366 -254.357615 
L 438.817366 -257.475151 
L 438.817366 -260.592687 
L 438.817366 -263.710224 
L 438.817366 -266.82776 
L 438.817366 -269.945296 
L 438.817366 -273.062832 
L 438.817366 -276.180369 
L 438.817366 -279.297905 
L 438.817366 -282.415441 
L 438.817366 -285.532977 
L 438.817366 -288.650514 
L 438.817366 -291.76805 
L 438.817366 -294.885586 
L 438.817366 -298.003122 
L 438.817366 -301.120659 
L 438.817366 -304.238195 
L 438.817366 -307.355731 
L 438.817366 -310.473267 
L 438.817366 -313.590804 
L 438.817366 -316.70834 
L 438.817366 -319.825876 
L 438.817366 -322.943412 
L 438.817366 -326.060949 
L 438.817366 -329.178485 
L 438.817366 -332.296021 
L 438.817366 -335.413558 
L 438.817366 -338.531094 
L 438.817366 -341.64863 
L 438.817366 -344.766166 
L 438.817366 -347.883703 
L 438.817366 -351.001239 
L 438.817366 -354.118775 
L 438.817366 -357.236311 
L 438.817366 -360.353848 
L 438.817366 -363.471384 
L 438.817366 -366.58892 
L 440.43811 -366.58892 
L 440.43811 -366.58892 
L 440.406455 -363.471384 
L 440.29344 -360.353848 
L 440.192283 -357.236311 
L 440.223178 -354.118775 
L 440.506694 -351.001239 
L 441.139605 -347.883703 
L 442.177004 -344.766166 
L 443.620157 -341.64863 
L 445.409066 -338.531094 
L 447.422136 -335.413558 
L 449.490014 -332.296021 
L 451.431569 -329.178485 
L 453.112225 -326.060949 
L 454.50865 -322.943412 
L 455.748613 -319.825876 
L 457.094169 -316.70834 
L 458.855901 -313.590804 
L 461.257563 -310.473267 
L 464.298546 -307.355731 
L 467.674102 -304.238195 
L 470.803885 -301.120659 
L 472.984488 -298.003122 
L 473.625 -294.885586 
L 472.469106 -291.76805 
L 469.693255 -288.650514 
L 465.824281 -285.532977 
L 461.51956 -282.415441 
L 457.331525 -279.297905 
L 453.576785 -276.180369 
L 450.350587 -273.062832 
L 447.633245 -269.945296 
L 445.394905 -266.82776 
L 443.635709 -263.710224 
L 442.361414 -260.592687 
L 441.537921 -257.475151 
L 441.069203 -254.357615 
L 440.814946 -251.240078 
L 440.63427 -248.122542 
z
" style="stroke: #009e73; stroke-opacity: 0.3"/>
    </defs>
    <g clip-path="url(#p9152ae249d)">
     <use xlink:href="#mbbecb11af0" x="0" y="1080" style="fill: #009e73; fill-opacity: 0.3; stroke: #009e73; stroke-opacity: 0.3"/>
    </g>
   </g>
   <g id="PolyCollection_8">
    <defs>
     <path id="mfb4fcf1e7f" d="M 580.577331 -286.721363 
L 578.360983 -286.721363 
L 578.360983 -287.905459 
L 578.360983 -289.089555 
L 578.360983 -290.273651 
L 578.360983 -291.457747 
L 578.360983 -292.641843 
L 578.360983 -293.82594 
L 578.360983 -295.010036 
L 578.360983 -296.194132 
L 578.360983 -297.378228 
L 578.360983 -298.562324 
L 578.360983 -299.74642 
L 578.360983 -300.930516 
L 578.360983 -302.114613 
L 578.360983 -303.298709 
L 578.360983 -304.482805 
L 578.360983 -305.666901 
L 578.360983 -306.850997 
L 578.360983 -308.035093 
L 578.360983 -309.219189 
L 578.360983 -310.403286 
L 578.360983 -311.587382 
L 578.360983 -312.771478 
L 578.360983 -313.955574 
L 578.360983 -315.13967 
L 578.360983 -316.323766 
L 578.360983 -317.507862 
L 578.360983 -318.691959 
L 578.360983 -319.876055 
L 578.360983 -321.060151 
L 578.360983 -322.244247 
L 578.360983 -323.428343 
L 578.360983 -324.612439 
L 578.360983 -325.796535 
L 578.360983 -326.980631 
L 578.360983 -328.164728 
L 578.360983 -329.348824 
L 578.360983 -330.53292 
L 578.360983 -331.717016 
L 582.584987 -331.717016 
L 582.584987 -331.717016 
L 582.889675 -330.53292 
L 583.183485 -329.348824 
L 583.594571 -328.164728 
L 584.252608 -326.980631 
L 585.251772 -325.796535 
L 586.633146 -324.612439 
L 588.393719 -323.428343 
L 590.512498 -322.244247 
L 592.972195 -321.060151 
L 595.756611 -319.876055 
L 598.820272 -318.691959 
L 602.048826 -317.507862 
L 605.240984 -316.323766 
L 608.134786 -315.13967 
L 610.475118 -313.955574 
L 612.091775 -312.771478 
L 612.946806 -311.587382 
L 613.125 -310.403286 
L 612.773357 -309.219189 
L 612.023973 -308.035093 
L 610.941851 -306.850997 
L 609.521408 -305.666901 
L 607.725627 -304.482805 
L 605.539118 -303.298709 
L 603.003655 -302.114613 
L 600.220449 -300.930516 
L 597.325045 -299.74642 
L 594.454178 -298.562324 
L 591.722936 -297.378228 
L 589.21902 -296.194132 
L 587.008202 -295.010036 
L 585.139605 -293.82594 
L 583.643086 -292.641843 
L 582.519654 -291.457747 
L 581.732861 -290.273651 
L 581.209938 -289.089555 
L 580.856044 -287.905459 
L 580.577331 -286.721363 
z
" style="stroke: #cc79a7; stroke-opacity: 0.3"/>
    </defs>
    <g clip-path="url(#p9152ae249d)">
     <use xlink:href="#mfb4fcf1e7f" x="0" y="1080" style="fill: #cc79a7; fill-opacity: 0.3; stroke: #cc79a7; stroke-opacity: 0.3"/>
    </g>
   </g>
   <g id="PathCollection_5">
    <g clip-path="url(#p9152ae249d)">
     <use xlink:href="#mcf08a24fe3" x="133.193478" y="783.904821" style="fill: #d55e00; stroke: #d55e00"/>
     <use xlink:href="#mcf08a24fe3" x="131.913717" y="773.336518" style="fill: #d55e00; stroke: #d55e00"/>
     <use xlink:href="#mcf08a24fe3" x="127.278273" y="782.66195" style="fill: #d55e00; stroke: #d55e00"/>
     <use xlink:href="#mcf08a24fe3" x="124.952935" y="774.978052" style="fill: #d55e00; stroke: #d55e00"/>
     <use xlink:href="#mcf08a24fe3" x="137.123285" y="775.976414" style="fill: #d55e00; stroke: #d55e00"/>
     <use xlink:href="#mcf08a24fe3" x="134.243528" y="771.317663" style="fill: #d55e00; stroke: #d55e00"/>
     <use xlink:href="#mcf08a24fe3" x="125.772678" y="793.524239" style="fill: #d55e00; stroke: #d55e00"/>
     <use xlink:href="#mcf08a24fe3" x="132.501888" y="770.585881" style="fill: #d55e00; stroke: #d55e00"/>
     <use xlink:href="#mcf08a24fe3" x="128.914447" y="779.161068" style="fill: #d55e00; stroke: #d55e00"/>
     <use xlink:href="#mcf08a24fe3" x="127.976247" y="771.31534" style="fill: #d55e00; stroke: #d55e00"/>
     <use xlink:href="#mcf08a24fe3" x="126.196016" y="774.897317" style="fill: #d55e00; stroke: #d55e00"/>
     <use xlink:href="#mcf08a24fe3" x="137.553613" y="785.264725" style="fill: #d55e00; stroke: #d55e00"/>
     <use xlink:href="#mcf08a24fe3" x="128.962111" y="776.872077" style="fill: #d55e00; stroke: #d55e00"/>
     <use xlink:href="#mcf08a24fe3" x="127.951594" y="777.913286" style="fill: #d55e00; stroke: #d55e00"/>
     <use xlink:href="#mcf08a24fe3" x="133.069788" y="760.612738" style="fill: #d55e00; stroke: #d55e00"/>
     <use xlink:href="#mcf08a24fe3" x="135.284612" y="767.334812" style="fill: #d55e00; stroke: #d55e00"/>
     <use xlink:href="#mcf08a24fe3" x="126.124167" y="785.174468" style="fill: #d55e00; stroke: #d55e00"/>
     <use xlink:href="#mcf08a24fe3" x="135.820171" y="755.441618" style="fill: #d55e00; stroke: #d55e00"/>
     <use xlink:href="#mcf08a24fe3" x="136.881791" y="772.403478" style="fill: #d55e00; stroke: #d55e00"/>
     <use xlink:href="#mcf08a24fe3" x="134.271667" y="780.672954" style="fill: #d55e00; stroke: #d55e00"/>
     <use xlink:href="#mcf08a24fe3" x="137.998071" y="766.27765" style="fill: #d55e00; stroke: #d55e00"/>
     <use xlink:href="#mcf08a24fe3" x="125.88803" y="780.406179" style="fill: #d55e00; stroke: #d55e00"/>
     <use xlink:href="#mcf08a24fe3" x="126.434521" y="766.908543" style="fill: #d55e00; stroke: #d55e00"/>
     <use xlink:href="#mcf08a24fe3" x="132.383287" y="770.341287" style="fill: #d55e00; stroke: #d55e00"/>
     <use xlink:href="#mcf08a24fe3" x="135.425614" y="761.066224" style="fill: #d55e00; stroke: #d55e00"/>
     <use xlink:href="#mcf08a24fe3" x="127.156044" y="771.037824" style="fill: #d55e00; stroke: #d55e00"/>
     <use xlink:href="#mcf08a24fe3" x="135.360247" y="776.150365" style="fill: #d55e00; stroke: #d55e00"/>
     <use xlink:href="#mcf08a24fe3" x="138.13289" y="787.013886" style="fill: #d55e00; stroke: #d55e00"/>
     <use xlink:href="#mcf08a24fe3" x="127.14027" y="779.239448" style="fill: #d55e00; stroke: #d55e00"/>
     <use xlink:href="#mcf08a24fe3" x="136.947353" y="772.110544" style="fill: #d55e00; stroke: #d55e00"/>
     <use xlink:href="#mcf08a24fe3" x="128.32504" y="770.281958" style="fill: #d55e00; stroke: #d55e00"/>
     <use xlink:href="#mcf08a24fe3" x="136.926362" y="771.466675" style="fill: #d55e00; stroke: #d55e00"/>
     <use xlink:href="#mcf08a24fe3" x="131.746637" y="786.037373" style="fill: #d55e00; stroke: #d55e00"/>
     <use xlink:href="#mcf08a24fe3" x="126.33921" y="770.115216" style="fill: #d55e00; stroke: #d55e00"/>
     <use xlink:href="#mcf08a24fe3" x="126.053044" y="771.104032" style="fill: #d55e00; stroke: #d55e00"/>
     <use xlink:href="#mcf08a24fe3" x="128.748339" y="771.54336" style="fill: #d55e00; stroke: #d55e00"/>
     <use xlink:href="#mcf08a24fe3" x="135.378777" y="776.703422" style="fill: #d55e00; stroke: #d55e00"/>
     <use xlink:href="#mcf08a24fe3" x="127.13772" y="772.515043" style="fill: #d55e00; stroke: #d55e00"/>
     <use xlink:href="#mcf08a24fe3" x="130.29754" y="783.890767" style="fill: #d55e00; stroke: #d55e00"/>
    </g>
   </g>
   <g id="PathCollection_6">
    <g clip-path="url(#p9152ae249d)">
     <use xlink:href="#m82754fbb3c" x="277.435952" y="762.561787" style="fill: #0072b2; stroke: #0072b2"/>
     <use xlink:href="#m82754fbb3c" x="276.483804" y="765.583153" style="fill: #0072b2; stroke: #0072b2"/>
     <use xlink:href="#m82754fbb3c" x="273.404682" y="770.412305" style="fill: #0072b2; stroke: #0072b2"/>
     <use xlink:href="#m82754fbb3c" x="276.380159" y="758.255346" style="fill: #0072b2; stroke: #0072b2"/>
     <use xlink:href="#m82754fbb3c" x="273.892418" y="775.146898" style="fill: #0072b2; stroke: #0072b2"/>
     <use xlink:href="#m82754fbb3c" x="274.224696" y="754.652297" style="fill: #0072b2; stroke: #0072b2"/>
     <use xlink:href="#m82754fbb3c" x="268.928" y="748.859953" style="fill: #0072b2; stroke: #0072b2"/>
     <use xlink:href="#m82754fbb3c" x="268.473738" y="812.985552" style="fill: #0072b2; stroke: #0072b2"/>
     <use xlink:href="#m82754fbb3c" x="266.318522" y="731.507021" style="fill: #0072b2; stroke: #0072b2"/>
     <use xlink:href="#m82754fbb3c" x="276.6245" y="779.156887" style="fill: #0072b2; stroke: #0072b2"/>
     <use xlink:href="#m82754fbb3c" x="273.551709" y="744.478932" style="fill: #0072b2; stroke: #0072b2"/>
     <use xlink:href="#m82754fbb3c" x="266.68368" y="758.803779" style="fill: #0072b2; stroke: #0072b2"/>
     <use xlink:href="#m82754fbb3c" x="272.013952" y="786.588196" style="fill: #0072b2; stroke: #0072b2"/>
     <use xlink:href="#m82754fbb3c" x="272.142556" y="749.165253" style="fill: #0072b2; stroke: #0072b2"/>
     <use xlink:href="#m82754fbb3c" x="271.314975" y="776.044211" style="fill: #0072b2; stroke: #0072b2"/>
     <use xlink:href="#m82754fbb3c" x="271.611715" y="771.638629" style="fill: #0072b2; stroke: #0072b2"/>
     <use xlink:href="#m82754fbb3c" x="275.806957" y="755.66174" style="fill: #0072b2; stroke: #0072b2"/>
     <use xlink:href="#m82754fbb3c" x="268.975734" y="784.020252" style="fill: #0072b2; stroke: #0072b2"/>
     <use xlink:href="#m82754fbb3c" x="266.11588" y="780.351246" style="fill: #0072b2; stroke: #0072b2"/>
     <use xlink:href="#m82754fbb3c" x="271.458083" y="767.809139" style="fill: #0072b2; stroke: #0072b2"/>
     <use xlink:href="#m82754fbb3c" x="277.816581" y="816.194236" style="fill: #0072b2; stroke: #0072b2"/>
     <use xlink:href="#m82754fbb3c" x="274.958674" y="778.668631" style="fill: #0072b2; stroke: #0072b2"/>
     <use xlink:href="#m82754fbb3c" x="275.86811" y="777.180677" style="fill: #0072b2; stroke: #0072b2"/>
     <use xlink:href="#m82754fbb3c" x="266.708559" y="766.2811" style="fill: #0072b2; stroke: #0072b2"/>
     <use xlink:href="#m82754fbb3c" x="277.747465" y="793.896703" style="fill: #0072b2; stroke: #0072b2"/>
     <use xlink:href="#m82754fbb3c" x="265.391148" y="810.545355" style="fill: #0072b2; stroke: #0072b2"/>
     <use xlink:href="#m82754fbb3c" x="266.122625" y="757.967182" style="fill: #0072b2; stroke: #0072b2"/>
     <use xlink:href="#m82754fbb3c" x="271.677052" y="760.237434" style="fill: #0072b2; stroke: #0072b2"/>
     <use xlink:href="#m82754fbb3c" x="272.797003" y="761.460414" style="fill: #0072b2; stroke: #0072b2"/>
     <use xlink:href="#m82754fbb3c" x="266.088538" y="775.700606" style="fill: #0072b2; stroke: #0072b2"/>
     <use xlink:href="#m82754fbb3c" x="265.79646" y="799.250124" style="fill: #0072b2; stroke: #0072b2"/>
     <use xlink:href="#m82754fbb3c" x="277.83085" y="748.066808" style="fill: #0072b2; stroke: #0072b2"/>
     <use xlink:href="#m82754fbb3c" x="277.801635" y="734.724672" style="fill: #0072b2; stroke: #0072b2"/>
     <use xlink:href="#m82754fbb3c" x="277.45863" y="773.795805" style="fill: #0072b2; stroke: #0072b2"/>
     <use xlink:href="#m82754fbb3c" x="266.815139" y="781.03521" style="fill: #0072b2; stroke: #0072b2"/>
     <use xlink:href="#m82754fbb3c" x="265.551779" y="795.30639" style="fill: #0072b2; stroke: #0072b2"/>
     <use xlink:href="#m82754fbb3c" x="272.609549" y="772.798338" style="fill: #0072b2; stroke: #0072b2"/>
     <use xlink:href="#m82754fbb3c" x="270.852274" y="785.561521" style="fill: #0072b2; stroke: #0072b2"/>
     <use xlink:href="#m82754fbb3c" x="272.341517" y="798.428365" style="fill: #0072b2; stroke: #0072b2"/>
    </g>
   </g>
   <g id="PathCollection_7">
    <g clip-path="url(#p9152ae249d)">
     <use xlink:href="#m86705f19aa" x="404.689493" y="785.672372" style="fill: #009e73; stroke: #009e73"/>
     <use xlink:href="#m86705f19aa" x="411.64051" y="772.621059" style="fill: #009e73; stroke: #009e73"/>
     <use xlink:href="#m86705f19aa" x="413.284258" y="785.659201" style="fill: #009e73; stroke: #009e73"/>
     <use xlink:href="#m86705f19aa" x="413.903433" y="777.390103" style="fill: #009e73; stroke: #009e73"/>
     <use xlink:href="#m86705f19aa" x="416.547881" y="786.485919" style="fill: #009e73; stroke: #009e73"/>
     <use xlink:href="#m86705f19aa" x="413.623188" y="773.644677" style="fill: #009e73; stroke: #009e73"/>
     <use xlink:href="#m86705f19aa" x="415.490699" y="788.215741" style="fill: #009e73; stroke: #009e73"/>
     <use xlink:href="#m86705f19aa" x="409.994263" y="790.932301" style="fill: #009e73; stroke: #009e73"/>
     <use xlink:href="#m86705f19aa" x="409.721522" y="743.251573" style="fill: #009e73; stroke: #009e73"/>
     <use xlink:href="#m86705f19aa" x="413.440669" y="780.954334" style="fill: #009e73; stroke: #009e73"/>
     <use xlink:href="#m86705f19aa" x="409.76508" y="713.41108" style="fill: #009e73; stroke: #009e73"/>
     <use xlink:href="#m86705f19aa" x="407.839826" y="782.515702" style="fill: #009e73; stroke: #009e73"/>
     <use xlink:href="#m86705f19aa" x="416.085414" y="774.39639" style="fill: #009e73; stroke: #009e73"/>
     <use xlink:href="#m86705f19aa" x="404.725876" y="755.143397" style="fill: #009e73; stroke: #009e73"/>
     <use xlink:href="#m86705f19aa" x="417.37817" y="747.063426" style="fill: #009e73; stroke: #009e73"/>
     <use xlink:href="#m86705f19aa" x="410.367199" y="788.612156" style="fill: #009e73; stroke: #009e73"/>
     <use xlink:href="#m86705f19aa" x="405.543785" y="787.443453" style="fill: #009e73; stroke: #009e73"/>
     <use xlink:href="#m86705f19aa" x="417.689103" y="788.862027" style="fill: #009e73; stroke: #009e73"/>
     <use xlink:href="#m86705f19aa" x="414.964936" y="797.30206" style="fill: #009e73; stroke: #009e73"/>
     <use xlink:href="#m86705f19aa" x="414.505459" y="803.253316" style="fill: #009e73; stroke: #009e73"/>
     <use xlink:href="#m86705f19aa" x="412.283472" y="831.877458" style="fill: #009e73; stroke: #009e73"/>
     <use xlink:href="#m86705f19aa" x="404.423871" y="780.378506" style="fill: #009e73; stroke: #009e73"/>
     <use xlink:href="#m86705f19aa" x="408.143866" y="787.383669" style="fill: #009e73; stroke: #009e73"/>
     <use xlink:href="#m86705f19aa" x="414.442424" y="757.640747" style="fill: #009e73; stroke: #009e73"/>
     <use xlink:href="#m86705f19aa" x="407.214972" y="788.306196" style="fill: #009e73; stroke: #009e73"/>
     <use xlink:href="#m86705f19aa" x="409.882471" y="788.438465" style="fill: #009e73; stroke: #009e73"/>
     <use xlink:href="#m86705f19aa" x="414.999811" y="753.224082" style="fill: #009e73; stroke: #009e73"/>
     <use xlink:href="#m86705f19aa" x="415.03161" y="782.089609" style="fill: #009e73; stroke: #009e73"/>
     <use xlink:href="#m86705f19aa" x="410.200427" y="761.885275" style="fill: #009e73; stroke: #009e73"/>
     <use xlink:href="#m86705f19aa" x="410.189837" y="807.277632" style="fill: #009e73; stroke: #009e73"/>
     <use xlink:href="#m86705f19aa" x="415.022924" y="783.406055" style="fill: #009e73; stroke: #009e73"/>
     <use xlink:href="#m86705f19aa" x="413.249313" y="768.103158" style="fill: #009e73; stroke: #009e73"/>
     <use xlink:href="#m86705f19aa" x="408.680696" y="756.523868" style="fill: #009e73; stroke: #009e73"/>
     <use xlink:href="#m86705f19aa" x="408.719304" y="764.54048" style="fill: #009e73; stroke: #009e73"/>
     <use xlink:href="#m86705f19aa" x="407.049221" y="788.439479" style="fill: #009e73; stroke: #009e73"/>
     <use xlink:href="#m86705f19aa" x="405.265883" y="755.975269" style="fill: #009e73; stroke: #009e73"/>
     <use xlink:href="#m86705f19aa" x="405.481919" y="804.449795" style="fill: #009e73; stroke: #009e73"/>
     <use xlink:href="#m86705f19aa" x="411.393786" y="781.289342" style="fill: #009e73; stroke: #009e73"/>
     <use xlink:href="#m86705f19aa" x="417.415779" y="805.614273" style="fill: #009e73; stroke: #009e73"/>
    </g>
   </g>
   <g id="PathCollection_8">
    <g clip-path="url(#p9152ae249d)">
     <use xlink:href="#me248df441f" x="555.270214" y="769.832589" style="fill: #cc79a7; stroke: #cc79a7"/>
     <use xlink:href="#me248df441f" x="548.676222" y="775.113104" style="fill: #cc79a7; stroke: #cc79a7"/>
     <use xlink:href="#me248df441f" x="555.721963" y="766.641286" style="fill: #cc79a7; stroke: #cc79a7"/>
     <use xlink:href="#me248df441f" x="544.656115" y="774.04201" style="fill: #cc79a7; stroke: #cc79a7"/>
     <use xlink:href="#me248df441f" x="549.49055" y="769.531252" style="fill: #cc79a7; stroke: #cc79a7"/>
     <use xlink:href="#me248df441f" x="551.221286" y="779.479759" style="fill: #cc79a7; stroke: #cc79a7"/>
     <use xlink:href="#me248df441f" x="549.134382" y="772.708963" style="fill: #cc79a7; stroke: #cc79a7"/>
     <use xlink:href="#me248df441f" x="550.292719" y="757.464645" style="fill: #cc79a7; stroke: #cc79a7"/>
     <use xlink:href="#me248df441f" x="547.511345" y="793.278637" style="fill: #cc79a7; stroke: #cc79a7"/>
     <use xlink:href="#me248df441f" x="546.524436" y="766.585991" style="fill: #cc79a7; stroke: #cc79a7"/>
     <use xlink:href="#me248df441f" x="557.220616" y="783.157247" style="fill: #cc79a7; stroke: #cc79a7"/>
     <use xlink:href="#me248df441f" x="546.202408" y="773.820572" style="fill: #cc79a7; stroke: #cc79a7"/>
     <use xlink:href="#me248df441f" x="546.792848" y="766.838586" style="fill: #cc79a7; stroke: #cc79a7"/>
     <use xlink:href="#me248df441f" x="551.453339" y="776.162719" style="fill: #cc79a7; stroke: #cc79a7"/>
     <use xlink:href="#me248df441f" x="554.23424" y="781.485779" style="fill: #cc79a7; stroke: #cc79a7"/>
     <use xlink:href="#me248df441f" x="556.932771" y="774.007422" style="fill: #cc79a7; stroke: #cc79a7"/>
     <use xlink:href="#me248df441f" x="554.351654" y="774.603169" style="fill: #cc79a7; stroke: #cc79a7"/>
     <use xlink:href="#me248df441f" x="549.915274" y="767.495576" style="fill: #cc79a7; stroke: #cc79a7"/>
     <use xlink:href="#me248df441f" x="547.909031" y="764.86419" style="fill: #cc79a7; stroke: #cc79a7"/>
     <use xlink:href="#me248df441f" x="552.427125" y="766.409804" style="fill: #cc79a7; stroke: #cc79a7"/>
     <use xlink:href="#me248df441f" x="555.679877" y="758.460043" style="fill: #cc79a7; stroke: #cc79a7"/>
     <use xlink:href="#me248df441f" x="547.435604" y="759.870716" style="fill: #cc79a7; stroke: #cc79a7"/>
     <use xlink:href="#me248df441f" x="544.17871" y="770.086087" style="fill: #cc79a7; stroke: #cc79a7"/>
     <use xlink:href="#me248df441f" x="548.725937" y="778.422643" style="fill: #cc79a7; stroke: #cc79a7"/>
     <use xlink:href="#me248df441f" x="548.754183" y="768.766055" style="fill: #cc79a7; stroke: #cc79a7"/>
     <use xlink:href="#me248df441f" x="549.328462" y="748.374084" style="fill: #cc79a7; stroke: #cc79a7"/>
     <use xlink:href="#me248df441f" x="556.256005" y="775.253322" style="fill: #cc79a7; stroke: #cc79a7"/>
     <use xlink:href="#me248df441f" x="553.48984" y="765.223414" style="fill: #cc79a7; stroke: #cc79a7"/>
     <use xlink:href="#me248df441f" x="545.490337" y="777.284425" style="fill: #cc79a7; stroke: #cc79a7"/>
     <use xlink:href="#me248df441f" x="553.891126" y="764.868516" style="fill: #cc79a7; stroke: #cc79a7"/>
     <use xlink:href="#me248df441f" x="545.911789" y="769.181814" style="fill: #cc79a7; stroke: #cc79a7"/>
     <use xlink:href="#me248df441f" x="550.1176" y="777.914345" style="fill: #cc79a7; stroke: #cc79a7"/>
     <use xlink:href="#me248df441f" x="548.743451" y="784.098382" style="fill: #cc79a7; stroke: #cc79a7"/>
     <use xlink:href="#me248df441f" x="555.119897" y="773.300932" style="fill: #cc79a7; stroke: #cc79a7"/>
     <use xlink:href="#me248df441f" x="552.890751" y="766.031519" style="fill: #cc79a7; stroke: #cc79a7"/>
     <use xlink:href="#me248df441f" x="556.898766" y="765.723081" style="fill: #cc79a7; stroke: #cc79a7"/>
     <use xlink:href="#me248df441f" x="544.863921" y="762.969083" style="fill: #cc79a7; stroke: #cc79a7"/>
     <use xlink:href="#me248df441f" x="551.352866" y="758.584347" style="fill: #cc79a7; stroke: #cc79a7"/>
     <use xlink:href="#me248df441f" x="554.804703" y="748.282984" style="fill: #cc79a7; stroke: #cc79a7"/>
    </g>
   </g>
   <g id="patch_12">
    <path d="M 149.2875 779.822814 
L 170.2125 779.822814 
L 170.2125 770.811852 
L 149.2875 770.811852 
L 149.2875 779.822814 
z
" clip-path="url(#p9152ae249d)" style="fill: #d55e00; opacity: 0.5; stroke: #000000; stroke-linejoin: miter"/>
   </g>
   <g id="line2d_45">
    <path d="M 159.75 779.822814 
L 159.75 787.013886 
" clip-path="url(#p9152ae249d)" style="fill: none; stroke: #000000; stroke-linecap: round"/>
   </g>
   <g id="line2d_46">
    <path d="M 159.75 770.811852 
L 159.75 760.612738 
" clip-path="url(#p9152ae249d)" style="fill: none; stroke: #000000; stroke-linecap: round"/>
   </g>
   <g id="line2d_47">
    <path d="M 154.51875 787.013886 
L 164.98125 787.013886 
" clip-path="url(#p9152ae249d)" style="fill: none; stroke: #000000; stroke-linecap: round"/>
   </g>
   <g id="line2d_48">
    <path d="M 154.51875 760.612738 
L 164.98125 760.612738 
" clip-path="url(#p9152ae249d)" style="fill: none; stroke: #000000; stroke-linecap: round"/>
   </g>
   <g id="patch_13">
    <path d="M 288.7875 782.527731 
L 309.7125 782.527731 
L 309.7125 758.529562 
L 288.7875 758.529562 
L 288.7875 782.527731 
z
" clip-path="url(#p9152ae249d)" style="fill: #0072b2; opacity: 0.5; stroke: #000000; stroke-linejoin: miter"/>
   </g>
   <g id="line2d_49">
    <path d="M 299.25 782.527731 
L 299.25 816.194236 
" clip-path="url(#p9152ae249d)" style="fill: none; stroke: #000000; stroke-linecap: round"/>
   </g>
   <g id="line2d_50">
    <path d="M 299.25 758.529562 
L 299.25 731.507021 
" clip-path="url(#p9152ae249d)" style="fill: none; stroke: #000000; stroke-linecap: round"/>
   </g>
   <g id="line2d_51">
    <path d="M 294.01875 816.194236 
L 304.48125 816.194236 
" clip-path="url(#p9152ae249d)" style="fill: none; stroke: #000000; stroke-linecap: round"/>
   </g>
   <g id="line2d_52">
    <path d="M 294.01875 731.507021 
L 304.48125 731.507021 
" clip-path="url(#p9152ae249d)" style="fill: none; stroke: #000000; stroke-linecap: round"/>
   </g>
   <g id="patch_14">
    <path d="M 428.2875 788.438972 
L 449.2125 788.438972 
L 449.2125 766.321819 
L 428.2875 766.321819 
L 428.2875 788.438972 
z
" clip-path="url(#p9152ae249d)" style="fill: #009e73; opacity: 0.5; stroke: #000000; stroke-linejoin: miter"/>
   </g>
   <g id="line2d_53">
    <path d="M 438.75 788.438972 
L 438.75 807.277632 
" clip-path="url(#p9152ae249d)" style="fill: none; stroke: #000000; stroke-linecap: round"/>
   </g>
   <g id="line2d_54">
    <path d="M 438.75 766.321819 
L 438.75 743.251573 
" clip-path="url(#p9152ae249d)" style="fill: none; stroke: #000000; stroke-linecap: round"/>
   </g>
   <g id="line2d_55">
    <path d="M 433.51875 807.277632 
L 443.98125 807.277632 
" clip-path="url(#p9152ae249d)" style="fill: none; stroke: #000000; stroke-linecap: round"/>
   </g>
   <g id="line2d_56">
    <path d="M 433.51875 743.251573 
L 443.98125 743.251573 
" clip-path="url(#p9152ae249d)" style="fill: none; stroke: #000000; stroke-linecap: round"/>
   </g>
   <g id="patch_15">
    <path d="M 567.7875 775.183213 
L 588.7125 775.183213 
L 588.7125 765.473248 
L 567.7875 765.473248 
L 567.7875 775.183213 
z
" clip-path="url(#p9152ae249d)" style="fill: #cc79a7; opacity: 0.5; stroke: #000000; stroke-linejoin: miter"/>
   </g>
   <g id="line2d_57">
    <path d="M 578.25 775.183213 
L 578.25 784.098382 
" clip-path="url(#p9152ae249d)" style="fill: none; stroke: #000000; stroke-linecap: round"/>
   </g>
   <g id="line2d_58">
    <path d="M 578.25 765.473248 
L 578.25 757.464645 
" clip-path="url(#p9152ae249d)" style="fill: none; stroke: #000000; stroke-linecap: round"/>
   </g>
   <g id="line2d_59">
    <path d="M 573.01875 784.098382 
L 583.48125 784.098382 
" clip-path="url(#p9152ae249d)" style="fill: none; stroke: #000000; stroke-linecap: round"/>
   </g>
   <g id="line2d_60">
    <path d="M 573.01875 757.464645 
L 583.48125 757.464645 
" clip-path="url(#p9152ae249d)" style="fill: none; stroke: #000000; stroke-linecap: round"/>
   </g>
   <g id="line2d_61">
    <path d="M 159.75 701.59858 
L 299.25 701.59858 
" clip-path="url(#p9152ae249d)" style="fill: none; stroke: #000000; stroke-width: 1.5; stroke-linecap: round"/>
   </g>
   <g id="line2d_62">
    <path d="M 159.75 689.78608 
L 578.25 689.78608 
" clip-path="url(#p9152ae249d)" style="fill: none; stroke: #000000; stroke-width: 1.5; stroke-linecap: round"/>
   </g>
   <g id="line2d_63">
    <path d="M 299.25 677.97358 
L 438.75 677.97358 
" clip-path="url(#p9152ae249d)" style="fill: none; stroke: #000000; stroke-width: 1.5; stroke-linecap: round"/>
   </g>
   <g id="line2d_64">
    <path d="M 149.2875 773.336518 
L 170.2125 773.336518 
" clip-path="url(#p9152ae249d)" style="fill: none; stroke: #000000"/>
   </g>
   <g id="line2d_65">
    <path d="M 288.7875 772.798338 
L 309.7125 772.798338 
" clip-path="url(#p9152ae249d)" style="fill: none; stroke: #000000"/>
   </g>
   <g id="line2d_66">
    <path d="M 428.2875 782.515702 
L 449.2125 782.515702 
" clip-path="url(#p9152ae249d)" style="fill: none; stroke: #000000"/>
   </g>
   <g id="line2d_67">
    <path d="M 567.7875 769.531252 
L 588.7125 769.531252 
" clip-path="url(#p9152ae249d)" style="fill: none; stroke: #000000"/>
   </g>
   <g id="patch_16">
    <path d="M 90 961.2 
L 90 583.2 
" style="fill: none; stroke: #262626; stroke-width: 1.25; stroke-linejoin: miter; stroke-linecap: square"/>
   </g>
   <g id="patch_17">
    <path d="M 648 961.2 
L 648 583.2 
" style="fill: none; stroke: #262626; stroke-width: 1.25; stroke-linejoin: miter; stroke-linecap: square"/>
   </g>
   <g id="patch_18">
    <path d="M 90 961.2 
L 648 961.2 
" style="fill: none; stroke: #262626; stroke-width: 1.25; stroke-linejoin: miter; stroke-linecap: square"/>
   </g>
   <g id="patch_19">
    <path d="M 90 583.2 
L 648 583.2 
" style="fill: none; stroke: #262626; stroke-width: 1.25; stroke-linejoin: miter; stroke-linecap: square"/>
   </g>
   <g id="text_28">
    <!-- * -->
    <g transform="translate(229.5 701.59858) scale(0.12 -0.12)">
     <use xlink:href="#ArialMT-2a"/>
    </g>
   </g>
   <g id="text_29">
    <!-- * -->
    <g transform="translate(369 689.78608) scale(0.12 -0.12)">
     <use xlink:href="#ArialMT-2a"/>
    </g>
   </g>
   <g id="text_30">
    <!-- * -->
    <g transform="translate(369 677.97358) scale(0.12 -0.12)">
     <use xlink:href="#ArialMT-2a"/>
    </g>
   </g>
   <g id="text_31">
    <!-- HF-HRV -->
    <g style="fill: #262626" transform="translate(342.681094 563.2) scale(0.14 -0.14)">
     <defs>
      <path id="Arial-BoldMT-48" d="M 469 0 
L 469 4581 
L 1394 4581 
L 1394 2778 
L 3206 2778 
L 3206 4581 
L 4131 4581 
L 4131 0 
L 3206 0 
L 3206 2003 
L 1394 2003 
L 1394 0 
L 469 0 
z
" transform="scale(0.015625)"/>
      <path id="Arial-BoldMT-46" d="M 472 0 
L 472 4581 
L 3613 4581 
L 3613 3806 
L 1397 3806 
L 1397 2722 
L 3309 2722 
L 3309 1947 
L 1397 1947 
L 1397 0 
L 472 0 
z
" transform="scale(0.015625)"/>
      <path id="Arial-BoldMT-2d" d="M 359 1222 
L 359 2100 
L 2084 2100 
L 2084 1222 
L 359 1222 
z
" transform="scale(0.015625)"/>
      <path id="Arial-BoldMT-52" d="M 469 0 
L 469 4581 
L 2416 4581 
Q 3150 4581 3483 4457 
Q 3816 4334 4016 4018 
Q 4216 3703 4216 3297 
Q 4216 2781 3912 2445 
Q 3609 2109 3006 2022 
Q 3306 1847 3501 1637 
Q 3697 1428 4028 894 
L 4588 0 
L 3481 0 
L 2813 997 
Q 2456 1531 2325 1670 
Q 2194 1809 2047 1861 
Q 1900 1913 1581 1913 
L 1394 1913 
L 1394 0 
L 469 0 
z
M 1394 2644 
L 2078 2644 
Q 2744 2644 2909 2700 
Q 3075 2756 3169 2893 
Q 3263 3031 3263 3238 
Q 3263 3469 3139 3611 
Q 3016 3753 2791 3791 
Q 2678 3806 2116 3806 
L 1394 3806 
L 1394 2644 
z
" transform="scale(0.015625)"/>
      <path id="Arial-BoldMT-56" d="M 1634 0 
L -3 4581 
L 1000 4581 
L 2159 1191 
L 3281 4581 
L 4263 4581 
L 2622 0 
L 1634 0 
z
" transform="scale(0.015625)"/>
     </defs>
     <use xlink:href="#Arial-BoldMT-48"/>
     <use xlink:href="#Arial-BoldMT-46" x="72.216797"/>
     <use xlink:href="#Arial-BoldMT-2d" x="133.300781"/>
     <use xlink:href="#Arial-BoldMT-48" x="166.601562"/>
     <use xlink:href="#Arial-BoldMT-52" x="238.818359"/>
     <use xlink:href="#Arial-BoldMT-56" x="309.285156"/>
    </g>
   </g>
  </g>
 </g>
 <defs>
  <clipPath id="p4ef9576f52">
   <rect x="90" y="129.6" width="558" height="378"/>
  </clipPath>
  <clipPath id="p9152ae249d">
   <rect x="90" y="583.2" width="558" height="378"/>
  </clipPath>
 </defs>
</svg>
