<?xml version="1.0" encoding="utf-8" standalone="no"?>
<!DOCTYPE svg PUBLIC "-//W3C//DTD SVG 1.1//EN"
  "http://www.w3.org/Graphics/SVG/1.1/DTD/svg11.dtd">
<svg xmlns:xlink="http://www.w3.org/1999/xlink" width="720pt" height="1080pt" viewBox="0 0 720 1080" xmlns="http://www.w3.org/2000/svg" version="1.1">
 <metadata>
  <rdf:RDF xmlns:dc="http://purl.org/dc/elements/1.1/" xmlns:cc="http://creativecommons.org/ns#" xmlns:rdf="http://www.w3.org/1999/02/22-rdf-syntax-ns#">
   <cc:Work>
    <dc:type rdf:resource="http://purl.org/dc/dcmitype/StillImage"/>
    <dc:date>2024-08-30T16:24:23.367550</dc:date>
    <dc:format>image/svg+xml</dc:format>
    <dc:creator>
     <cc:Agent>
      <dc:title>Matplotlib v3.8.0, https://matplotlib.org/</dc:title>
     </cc:Agent>
    </dc:creator>
   </cc:Work>
  </rdf:RDF>
 </metadata>
 <defs>
  <style type="text/css">*{stroke-linejoin: round; stroke-linecap: butt}</style>
 </defs>
 <g id="figure_1">
  <g id="patch_1">
   <path d="M 0 1080 
L 720 1080 
L 720 0 
L 0 0 
z
" style="fill: #ffffff"/>
  </g>
  <g id="axes_1">
   <g id="patch_2">
    <path d="M 90 507.6 
L 648 507.6 
L 648 129.6 
L 90 129.6 
z
" style="fill: #ffffff"/>
   </g>
   <g id="matplotlib.axis_1">
    <g id="xtick_1">
     <g id="line2d_1">
      <defs>
       <path id="m66b6acdc90" d="M 0 0 
L 0 6 
" style="stroke: #262626; stroke-width: 1.25"/>
      </defs>
      <g>
       <use xlink:href="#m66b6acdc90" x="159.75" y="507.6" style="fill: #262626; stroke: #262626; stroke-width: 1.25"/>
      </g>
     </g>
     <g id="text_1">
      <!-- State 1 -->
      <g style="fill: #262626" transform="translate(142.321875 524.973594) scale(0.11 -0.11)">
       <defs>
        <path id="ArialMT-53" d="M 288 1472 
L 859 1522 
Q 900 1178 1048 958 
Q 1197 738 1509 602 
Q 1822 466 2213 466 
Q 2559 466 2825 569 
Q 3091 672 3220 851 
Q 3350 1031 3350 1244 
Q 3350 1459 3225 1620 
Q 3100 1781 2813 1891 
Q 2628 1963 1997 2114 
Q 1366 2266 1113 2400 
Q 784 2572 623 2826 
Q 463 3081 463 3397 
Q 463 3744 659 4045 
Q 856 4347 1234 4503 
Q 1613 4659 2075 4659 
Q 2584 4659 2973 4495 
Q 3363 4331 3572 4012 
Q 3781 3694 3797 3291 
L 3216 3247 
Q 3169 3681 2898 3903 
Q 2628 4125 2100 4125 
Q 1550 4125 1298 3923 
Q 1047 3722 1047 3438 
Q 1047 3191 1225 3031 
Q 1400 2872 2139 2705 
Q 2878 2538 3153 2413 
Q 3553 2228 3743 1945 
Q 3934 1663 3934 1294 
Q 3934 928 3725 604 
Q 3516 281 3123 101 
Q 2731 -78 2241 -78 
Q 1619 -78 1198 103 
Q 778 284 539 648 
Q 300 1013 288 1472 
z
" transform="scale(0.015625)"/>
        <path id="ArialMT-74" d="M 1650 503 
L 1731 6 
Q 1494 -44 1306 -44 
Q 1000 -44 831 53 
Q 663 150 594 308 
Q 525 466 525 972 
L 525 2881 
L 113 2881 
L 113 3319 
L 525 3319 
L 525 4141 
L 1084 4478 
L 1084 3319 
L 1650 3319 
L 1650 2881 
L 1084 2881 
L 1084 941 
Q 1084 700 1114 631 
Q 1144 563 1211 522 
Q 1278 481 1403 481 
Q 1497 481 1650 503 
z
" transform="scale(0.015625)"/>
        <path id="ArialMT-61" d="M 2588 409 
Q 2275 144 1986 34 
Q 1697 -75 1366 -75 
Q 819 -75 525 192 
Q 231 459 231 875 
Q 231 1119 342 1320 
Q 453 1522 633 1644 
Q 813 1766 1038 1828 
Q 1203 1872 1538 1913 
Q 2219 1994 2541 2106 
Q 2544 2222 2544 2253 
Q 2544 2597 2384 2738 
Q 2169 2928 1744 2928 
Q 1347 2928 1158 2789 
Q 969 2650 878 2297 
L 328 2372 
Q 403 2725 575 2942 
Q 747 3159 1072 3276 
Q 1397 3394 1825 3394 
Q 2250 3394 2515 3294 
Q 2781 3194 2906 3042 
Q 3031 2891 3081 2659 
Q 3109 2516 3109 2141 
L 3109 1391 
Q 3109 606 3145 398 
Q 3181 191 3288 0 
L 2700 0 
Q 2613 175 2588 409 
z
M 2541 1666 
Q 2234 1541 1622 1453 
Q 1275 1403 1131 1340 
Q 988 1278 909 1158 
Q 831 1038 831 891 
Q 831 666 1001 516 
Q 1172 366 1500 366 
Q 1825 366 2078 508 
Q 2331 650 2450 897 
Q 2541 1088 2541 1459 
L 2541 1666 
z
" transform="scale(0.015625)"/>
        <path id="ArialMT-65" d="M 2694 1069 
L 3275 997 
Q 3138 488 2766 206 
Q 2394 -75 1816 -75 
Q 1088 -75 661 373 
Q 234 822 234 1631 
Q 234 2469 665 2931 
Q 1097 3394 1784 3394 
Q 2450 3394 2872 2941 
Q 3294 2488 3294 1666 
Q 3294 1616 3291 1516 
L 816 1516 
Q 847 969 1125 678 
Q 1403 388 1819 388 
Q 2128 388 2347 550 
Q 2566 713 2694 1069 
z
M 847 1978 
L 2700 1978 
Q 2663 2397 2488 2606 
Q 2219 2931 1791 2931 
Q 1403 2931 1139 2672 
Q 875 2413 847 1978 
z
" transform="scale(0.015625)"/>
        <path id="ArialMT-20" transform="scale(0.015625)"/>
        <path id="ArialMT-31" d="M 2384 0 
L 1822 0 
L 1822 3584 
Q 1619 3391 1289 3197 
Q 959 3003 697 2906 
L 697 3450 
Q 1169 3672 1522 3987 
Q 1875 4303 2022 4600 
L 2384 4600 
L 2384 0 
z
" transform="scale(0.015625)"/>
       </defs>
       <use xlink:href="#ArialMT-53"/>
       <use xlink:href="#ArialMT-74" x="66.699219"/>
       <use xlink:href="#ArialMT-61" x="94.482422"/>
       <use xlink:href="#ArialMT-74" x="150.097656"/>
       <use xlink:href="#ArialMT-65" x="177.880859"/>
       <use xlink:href="#ArialMT-20" x="233.496094"/>
       <use xlink:href="#ArialMT-31" x="261.279297"/>
      </g>
     </g>
    </g>
    <g id="xtick_2">
     <g id="line2d_2">
      <g>
       <use xlink:href="#m66b6acdc90" x="299.25" y="507.6" style="fill: #262626; stroke: #262626; stroke-width: 1.25"/>
      </g>
     </g>
     <g id="text_2">
      <!-- State 2 -->
      <g style="fill: #262626" transform="translate(281.821875 524.973594) scale(0.11 -0.11)">
       <defs>
        <path id="ArialMT-32" d="M 3222 541 
L 3222 0 
L 194 0 
Q 188 203 259 391 
Q 375 700 629 1000 
Q 884 1300 1366 1694 
Q 2113 2306 2375 2664 
Q 2638 3022 2638 3341 
Q 2638 3675 2398 3904 
Q 2159 4134 1775 4134 
Q 1369 4134 1125 3890 
Q 881 3647 878 3216 
L 300 3275 
Q 359 3922 746 4261 
Q 1134 4600 1788 4600 
Q 2447 4600 2831 4234 
Q 3216 3869 3216 3328 
Q 3216 3053 3103 2787 
Q 2991 2522 2730 2228 
Q 2469 1934 1863 1422 
Q 1356 997 1212 845 
Q 1069 694 975 541 
L 3222 541 
z
" transform="scale(0.015625)"/>
       </defs>
       <use xlink:href="#ArialMT-53"/>
       <use xlink:href="#ArialMT-74" x="66.699219"/>
       <use xlink:href="#ArialMT-61" x="94.482422"/>
       <use xlink:href="#ArialMT-74" x="150.097656"/>
       <use xlink:href="#ArialMT-65" x="177.880859"/>
       <use xlink:href="#ArialMT-20" x="233.496094"/>
       <use xlink:href="#ArialMT-32" x="261.279297"/>
      </g>
     </g>
    </g>
    <g id="xtick_3">
     <g id="line2d_3">
      <g>
       <use xlink:href="#m66b6acdc90" x="438.75" y="507.6" style="fill: #262626; stroke: #262626; stroke-width: 1.25"/>
      </g>
     </g>
     <g id="text_3">
      <!-- State 3 -->
      <g style="fill: #262626" transform="translate(421.321875 524.973594) scale(0.11 -0.11)">
       <defs>
        <path id="ArialMT-33" d="M 269 1209 
L 831 1284 
Q 928 806 1161 595 
Q 1394 384 1728 384 
Q 2125 384 2398 659 
Q 2672 934 2672 1341 
Q 2672 1728 2419 1979 
Q 2166 2231 1775 2231 
Q 1616 2231 1378 2169 
L 1441 2663 
Q 1497 2656 1531 2656 
Q 1891 2656 2178 2843 
Q 2466 3031 2466 3422 
Q 2466 3731 2256 3934 
Q 2047 4138 1716 4138 
Q 1388 4138 1169 3931 
Q 950 3725 888 3313 
L 325 3413 
Q 428 3978 793 4289 
Q 1159 4600 1703 4600 
Q 2078 4600 2393 4439 
Q 2709 4278 2876 4000 
Q 3044 3722 3044 3409 
Q 3044 3113 2884 2869 
Q 2725 2625 2413 2481 
Q 2819 2388 3044 2092 
Q 3269 1797 3269 1353 
Q 3269 753 2831 336 
Q 2394 -81 1725 -81 
Q 1122 -81 723 278 
Q 325 638 269 1209 
z
" transform="scale(0.015625)"/>
       </defs>
       <use xlink:href="#ArialMT-53"/>
       <use xlink:href="#ArialMT-74" x="66.699219"/>
       <use xlink:href="#ArialMT-61" x="94.482422"/>
       <use xlink:href="#ArialMT-74" x="150.097656"/>
       <use xlink:href="#ArialMT-65" x="177.880859"/>
       <use xlink:href="#ArialMT-20" x="233.496094"/>
       <use xlink:href="#ArialMT-33" x="261.279297"/>
      </g>
     </g>
    </g>
    <g id="xtick_4">
     <g id="line2d_4">
      <g>
       <use xlink:href="#m66b6acdc90" x="578.25" y="507.6" style="fill: #262626; stroke: #262626; stroke-width: 1.25"/>
      </g>
     </g>
     <g id="text_4">
      <!-- State 4 -->
      <g style="fill: #262626" transform="translate(560.821875 524.973594) scale(0.11 -0.11)">
       <defs>
        <path id="ArialMT-34" d="M 2069 0 
L 2069 1097 
L 81 1097 
L 81 1613 
L 2172 4581 
L 2631 4581 
L 2631 1613 
L 3250 1613 
L 3250 1097 
L 2631 1097 
L 2631 0 
L 2069 0 
z
M 2069 1613 
L 2069 3678 
L 634 1613 
L 2069 1613 
z
" transform="scale(0.015625)"/>
       </defs>
       <use xlink:href="#ArialMT-53"/>
       <use xlink:href="#ArialMT-74" x="66.699219"/>
       <use xlink:href="#ArialMT-61" x="94.482422"/>
       <use xlink:href="#ArialMT-74" x="150.097656"/>
       <use xlink:href="#ArialMT-65" x="177.880859"/>
       <use xlink:href="#ArialMT-20" x="233.496094"/>
       <use xlink:href="#ArialMT-34" x="261.279297"/>
      </g>
     </g>
    </g>
   </g>
   <g id="matplotlib.axis_2">
    <g id="ytick_1">
     <g id="line2d_5">
      <defs>
       <path id="mfad443e46f" d="M 0 0 
L -6 0 
" style="stroke: #262626; stroke-width: 1.25"/>
      </defs>
      <g>
       <use xlink:href="#mfad443e46f" x="90" y="469.8" style="fill: #262626; stroke: #262626; stroke-width: 1.25"/>
      </g>
     </g>
     <g id="text_5">
      <!-- −2 -->
      <g style="fill: #262626" transform="translate(67.958281 473.736797) scale(0.11 -0.11)">
       <defs>
        <path id="ArialMT-2212" d="M 3381 1997 
L 356 1997 
L 356 2522 
L 3381 2522 
L 3381 1997 
z
" transform="scale(0.015625)"/>
       </defs>
       <use xlink:href="#ArialMT-2212"/>
       <use xlink:href="#ArialMT-32" x="58.398438"/>
      </g>
     </g>
    </g>
    <g id="ytick_2">
     <g id="line2d_6">
      <g>
       <use xlink:href="#mfad443e46f" x="90" y="394.2" style="fill: #262626; stroke: #262626; stroke-width: 1.25"/>
      </g>
     </g>
     <g id="text_6">
      <!-- −1 -->
      <g style="fill: #262626" transform="translate(67.958281 398.136797) scale(0.11 -0.11)">
       <use xlink:href="#ArialMT-2212"/>
       <use xlink:href="#ArialMT-31" x="58.398438"/>
      </g>
     </g>
    </g>
    <g id="ytick_3">
     <g id="line2d_7">
      <g>
       <use xlink:href="#mfad443e46f" x="90" y="318.6" style="fill: #262626; stroke: #262626; stroke-width: 1.25"/>
      </g>
     </g>
     <g id="text_7">
      <!-- 0 -->
      <g style="fill: #262626" transform="translate(74.382969 322.536797) scale(0.11 -0.11)">
       <defs>
        <path id="ArialMT-30" d="M 266 2259 
Q 266 3072 433 3567 
Q 600 4063 929 4331 
Q 1259 4600 1759 4600 
Q 2128 4600 2406 4451 
Q 2684 4303 2865 4023 
Q 3047 3744 3150 3342 
Q 3253 2941 3253 2259 
Q 3253 1453 3087 958 
Q 2922 463 2592 192 
Q 2263 -78 1759 -78 
Q 1097 -78 719 397 
Q 266 969 266 2259 
z
M 844 2259 
Q 844 1131 1108 757 
Q 1372 384 1759 384 
Q 2147 384 2411 759 
Q 2675 1134 2675 2259 
Q 2675 3391 2411 3762 
Q 2147 4134 1753 4134 
Q 1366 4134 1134 3806 
Q 844 3388 844 2259 
z
" transform="scale(0.015625)"/>
       </defs>
       <use xlink:href="#ArialMT-30"/>
      </g>
     </g>
    </g>
    <g id="ytick_4">
     <g id="line2d_8">
      <g>
       <use xlink:href="#mfad443e46f" x="90" y="243" style="fill: #262626; stroke: #262626; stroke-width: 1.25"/>
      </g>
     </g>
     <g id="text_8">
      <!-- 1 -->
      <g style="fill: #262626" transform="translate(74.382969 246.936797) scale(0.11 -0.11)">
       <use xlink:href="#ArialMT-31"/>
      </g>
     </g>
    </g>
    <g id="ytick_5">
     <g id="line2d_9">
      <g>
       <use xlink:href="#mfad443e46f" x="90" y="167.4" style="fill: #262626; stroke: #262626; stroke-width: 1.25"/>
      </g>
     </g>
     <g id="text_9">
      <!-- 2 -->
      <g style="fill: #262626" transform="translate(74.382969 171.336797) scale(0.11 -0.11)">
       <use xlink:href="#ArialMT-32"/>
      </g>
     </g>
    </g>
    <g id="text_10">
     <!-- Value (z-scored) -->
     <g style="fill: #262626" transform="translate(61.432656 362.170313) rotate(-90) scale(0.12 -0.12)">
      <defs>
       <path id="ArialMT-56" d="M 1803 0 
L 28 4581 
L 684 4581 
L 1875 1253 
Q 2019 853 2116 503 
Q 2222 878 2363 1253 
L 3600 4581 
L 4219 4581 
L 2425 0 
L 1803 0 
z
" transform="scale(0.015625)"/>
       <path id="ArialMT-6c" d="M 409 0 
L 409 4581 
L 972 4581 
L 972 0 
L 409 0 
z
" transform="scale(0.015625)"/>
       <path id="ArialMT-75" d="M 2597 0 
L 2597 488 
Q 2209 -75 1544 -75 
Q 1250 -75 995 37 
Q 741 150 617 320 
Q 494 491 444 738 
Q 409 903 409 1263 
L 409 3319 
L 972 3319 
L 972 1478 
Q 972 1038 1006 884 
Q 1059 663 1231 536 
Q 1403 409 1656 409 
Q 1909 409 2131 539 
Q 2353 669 2445 892 
Q 2538 1116 2538 1541 
L 2538 3319 
L 3100 3319 
L 3100 0 
L 2597 0 
z
" transform="scale(0.015625)"/>
       <path id="ArialMT-28" d="M 1497 -1347 
Q 1031 -759 709 28 
Q 388 816 388 1659 
Q 388 2403 628 3084 
Q 909 3875 1497 4659 
L 1900 4659 
Q 1522 4009 1400 3731 
Q 1209 3300 1100 2831 
Q 966 2247 966 1656 
Q 966 153 1900 -1347 
L 1497 -1347 
z
" transform="scale(0.015625)"/>
       <path id="ArialMT-7a" d="M 125 0 
L 125 456 
L 2238 2881 
Q 1878 2863 1603 2863 
L 250 2863 
L 250 3319 
L 2963 3319 
L 2963 2947 
L 1166 841 
L 819 456 
Q 1197 484 1528 484 
L 3063 484 
L 3063 0 
L 125 0 
z
" transform="scale(0.015625)"/>
       <path id="ArialMT-2d" d="M 203 1375 
L 203 1941 
L 1931 1941 
L 1931 1375 
L 203 1375 
z
" transform="scale(0.015625)"/>
       <path id="ArialMT-73" d="M 197 991 
L 753 1078 
Q 800 744 1014 566 
Q 1228 388 1613 388 
Q 2000 388 2187 545 
Q 2375 703 2375 916 
Q 2375 1106 2209 1216 
Q 2094 1291 1634 1406 
Q 1016 1563 777 1677 
Q 538 1791 414 1992 
Q 291 2194 291 2438 
Q 291 2659 392 2848 
Q 494 3038 669 3163 
Q 800 3259 1026 3326 
Q 1253 3394 1513 3394 
Q 1903 3394 2198 3281 
Q 2494 3169 2634 2976 
Q 2775 2784 2828 2463 
L 2278 2388 
Q 2241 2644 2061 2787 
Q 1881 2931 1553 2931 
Q 1166 2931 1000 2803 
Q 834 2675 834 2503 
Q 834 2394 903 2306 
Q 972 2216 1119 2156 
Q 1203 2125 1616 2013 
Q 2213 1853 2448 1751 
Q 2684 1650 2818 1456 
Q 2953 1263 2953 975 
Q 2953 694 2789 445 
Q 2625 197 2315 61 
Q 2006 -75 1616 -75 
Q 969 -75 630 194 
Q 291 463 197 991 
z
" transform="scale(0.015625)"/>
       <path id="ArialMT-63" d="M 2588 1216 
L 3141 1144 
Q 3050 572 2676 248 
Q 2303 -75 1759 -75 
Q 1078 -75 664 370 
Q 250 816 250 1647 
Q 250 2184 428 2587 
Q 606 2991 970 3192 
Q 1334 3394 1763 3394 
Q 2303 3394 2647 3120 
Q 2991 2847 3088 2344 
L 2541 2259 
Q 2463 2594 2264 2762 
Q 2066 2931 1784 2931 
Q 1359 2931 1093 2626 
Q 828 2322 828 1663 
Q 828 994 1084 691 
Q 1341 388 1753 388 
Q 2084 388 2306 591 
Q 2528 794 2588 1216 
z
" transform="scale(0.015625)"/>
       <path id="ArialMT-6f" d="M 213 1659 
Q 213 2581 725 3025 
Q 1153 3394 1769 3394 
Q 2453 3394 2887 2945 
Q 3322 2497 3322 1706 
Q 3322 1066 3130 698 
Q 2938 331 2570 128 
Q 2203 -75 1769 -75 
Q 1072 -75 642 372 
Q 213 819 213 1659 
z
M 791 1659 
Q 791 1022 1069 705 
Q 1347 388 1769 388 
Q 2188 388 2466 706 
Q 2744 1025 2744 1678 
Q 2744 2294 2464 2611 
Q 2184 2928 1769 2928 
Q 1347 2928 1069 2612 
Q 791 2297 791 1659 
z
" transform="scale(0.015625)"/>
       <path id="ArialMT-72" d="M 416 0 
L 416 3319 
L 922 3319 
L 922 2816 
Q 1116 3169 1280 3281 
Q 1444 3394 1641 3394 
Q 1925 3394 2219 3213 
L 2025 2691 
Q 1819 2813 1613 2813 
Q 1428 2813 1281 2702 
Q 1134 2591 1072 2394 
Q 978 2094 978 1738 
L 978 0 
L 416 0 
z
" transform="scale(0.015625)"/>
       <path id="ArialMT-64" d="M 2575 0 
L 2575 419 
Q 2259 -75 1647 -75 
Q 1250 -75 917 144 
Q 584 363 401 755 
Q 219 1147 219 1656 
Q 219 2153 384 2558 
Q 550 2963 881 3178 
Q 1213 3394 1622 3394 
Q 1922 3394 2156 3267 
Q 2391 3141 2538 2938 
L 2538 4581 
L 3097 4581 
L 3097 0 
L 2575 0 
z
M 797 1656 
Q 797 1019 1065 703 
Q 1334 388 1700 388 
Q 2069 388 2326 689 
Q 2584 991 2584 1609 
Q 2584 2291 2321 2609 
Q 2059 2928 1675 2928 
Q 1300 2928 1048 2622 
Q 797 2316 797 1656 
z
" transform="scale(0.015625)"/>
       <path id="ArialMT-29" d="M 791 -1347 
L 388 -1347 
Q 1322 153 1322 1656 
Q 1322 2244 1188 2822 
Q 1081 3291 891 3722 
Q 769 4003 388 4659 
L 791 4659 
Q 1378 3875 1659 3084 
Q 1900 2403 1900 1659 
Q 1900 816 1576 28 
Q 1253 -759 791 -1347 
z
" transform="scale(0.015625)"/>
      </defs>
      <use xlink:href="#ArialMT-56"/>
      <use xlink:href="#ArialMT-61" x="59.324219"/>
      <use xlink:href="#ArialMT-6c" x="114.939453"/>
      <use xlink:href="#ArialMT-75" x="137.15625"/>
      <use xlink:href="#ArialMT-65" x="192.771484"/>
      <use xlink:href="#ArialMT-20" x="248.386719"/>
      <use xlink:href="#ArialMT-28" x="276.169922"/>
      <use xlink:href="#ArialMT-7a" x="309.470703"/>
      <use xlink:href="#ArialMT-2d" x="359.470703"/>
      <use xlink:href="#ArialMT-73" x="392.771484"/>
      <use xlink:href="#ArialMT-63" x="442.771484"/>
      <use xlink:href="#ArialMT-6f" x="492.771484"/>
      <use xlink:href="#ArialMT-72" x="548.386719"/>
      <use xlink:href="#ArialMT-65" x="581.6875"/>
      <use xlink:href="#ArialMT-64" x="637.302734"/>
      <use xlink:href="#ArialMT-29" x="692.917969"/>
     </g>
    </g>
   </g>
   <g id="PolyCollection_1">
    <defs>
     <path id="m708d715678" d="M 172.025845 -743.345368 
L 160.142972 -743.345368 
L 160.142972 -744.383822 
L 160.142972 -745.422277 
L 160.142972 -746.460731 
L 160.142972 -747.499185 
L 160.142972 -748.53764 
L 160.142972 -749.576094 
L 160.142972 -750.614549 
L 160.142972 -751.653003 
L 160.142972 -752.691458 
L 160.142972 -753.729912 
L 160.142972 -754.768367 
L 160.142972 -755.806821 
L 160.142972 -756.845276 
L 160.142972 -757.88373 
L 160.142972 -758.922184 
L 160.142972 -759.960639 
L 160.142972 -760.999093 
L 160.142972 -762.037548 
L 160.142972 -763.076002 
L 160.142972 -764.114457 
L 160.142972 -765.152911 
L 160.142972 -766.191366 
L 160.142972 -767.22982 
L 160.142972 -768.268275 
L 160.142972 -769.306729 
L 160.142972 -770.345183 
L 160.142972 -771.383638 
L 160.142972 -772.422092 
L 160.142972 -773.460547 
L 160.142972 -774.499001 
L 160.142972 -775.537456 
L 160.142972 -776.57591 
L 160.142972 -777.614365 
L 160.142972 -778.652819 
L 160.142972 -779.691274 
L 160.142972 -780.729728 
L 160.142972 -781.768182 
L 160.142972 -782.806637 
L 167.029036 -782.806637 
L 167.029036 -782.806637 
L 168.151677 -781.768182 
L 169.279656 -780.729728 
L 170.425088 -779.691274 
L 171.61647 -778.652819 
L 172.890191 -777.614365 
L 174.278048 -776.57591 
L 175.794488 -775.537456 
L 177.427942 -774.499001 
L 179.139629 -773.460547 
L 180.870854 -772.422092 
L 182.556815 -771.383638 
L 184.142538 -770.345183 
L 185.595661 -769.306729 
L 186.911853 -768.268275 
L 188.111157 -767.22982 
L 189.226603 -766.191366 
L 190.288873 -765.152911 
L 191.31182 -764.114457 
L 192.283207 -763.076002 
L 193.163273 -762.037548 
L 193.891432 -760.999093 
L 194.39911 -759.960639 
L 194.625 -758.922184 
L 194.528383 -757.88373 
L 194.096785 -756.845276 
L 193.34605 -755.806821 
L 192.313396 -754.768367 
L 191.046266 -753.729912 
L 189.590985 -752.691458 
L 187.984801 -751.653003 
L 186.25324 -750.614549 
L 184.412424 -749.576094 
L 182.47435 -748.53764 
L 180.452573 -747.499185 
L 178.366357 -746.460731 
L 176.242576 -745.422277 
L 174.115605 -744.383822 
L 172.025845 -743.345368 
z
" style="stroke: #d55e00; stroke-opacity: 0.3"/>
    </defs>
    <g clip-path="url(#p9bf2db5041)">
     <use xlink:href="#m708d715678" x="0" y="1080" style="fill: #d55e00; fill-opacity: 0.3; stroke: #d55e00; stroke-opacity: 0.3"/>
    </g>
   </g>
   <g id="PolyCollection_2">
    <defs>
     <path id="m569f233f84" d="M 301.69374 -706.780882 
L 299.390895 -706.780882 
L 299.390895 -709.05139 
L 299.390895 -711.321897 
L 299.390895 -713.592404 
L 299.390895 -715.862912 
L 299.390895 -718.133419 
L 299.390895 -720.403927 
L 299.390895 -722.674434 
L 299.390895 -724.944941 
L 299.390895 -727.215449 
L 299.390895 -729.485956 
L 299.390895 -731.756463 
L 299.390895 -734.026971 
L 299.390895 -736.297478 
L 299.390895 -738.567986 
L 299.390895 -740.838493 
L 299.390895 -743.109 
L 299.390895 -745.379508 
L 299.390895 -747.650015 
L 299.390895 -749.920522 
L 299.390895 -752.19103 
L 299.390895 -754.461537 
L 299.390895 -756.732044 
L 299.390895 -759.002552 
L 299.390895 -761.273059 
L 299.390895 -763.543567 
L 299.390895 -765.814074 
L 299.390895 -768.084581 
L 299.390895 -770.355089 
L 299.390895 -772.625596 
L 299.390895 -774.896103 
L 299.390895 -777.166611 
L 299.390895 -779.437118 
L 299.390895 -781.707626 
L 299.390895 -783.978133 
L 299.390895 -786.24864 
L 299.390895 -788.519148 
L 299.390895 -790.789655 
L 299.390895 -793.060162 
L 305.775049 -793.060162 
L 305.775049 -793.060162 
L 307.340468 -790.789655 
L 309.107146 -788.519148 
L 311.081148 -786.24864 
L 313.248693 -783.978133 
L 315.567332 -781.707626 
L 317.96735 -779.437118 
L 320.364782 -777.166611 
L 322.681445 -774.896103 
L 324.86309 -772.625596 
L 326.886357 -770.355089 
L 328.749289 -768.084581 
L 330.447359 -765.814074 
L 331.944489 -763.543567 
L 333.15289 -761.273059 
L 333.933992 -759.002552 
L 334.125 -756.732044 
L 333.584672 -754.461537 
L 332.242904 -752.19103 
L 330.13607 -749.920522 
L 327.41496 -747.650015 
L 324.321841 -745.379508 
L 321.143187 -743.109 
L 318.151246 -740.838493 
L 315.549882 -738.567986 
L 313.43858 -736.297478 
L 311.80396 -734.026971 
L 310.54103 -731.756463 
L 309.497645 -729.485956 
L 308.52774 -727.215449 
L 307.535487 -724.944941 
L 306.495993 -722.674434 
L 305.447701 -720.403927 
L 304.462979 -718.133419 
L 303.611223 -715.862912 
L 302.92986 -713.592404 
L 302.413159 -711.321897 
L 302.019966 -709.05139 
L 301.69374 -706.780882 
z
" style="stroke: #0072b2; stroke-opacity: 0.3"/>
    </defs>
    <g clip-path="url(#p9bf2db5041)">
     <use xlink:href="#m569f233f84" x="0" y="1080" style="fill: #0072b2; fill-opacity: 0.3; stroke: #0072b2; stroke-opacity: 0.3"/>
    </g>
   </g>
   <g id="PolyCollection_3">
    <defs>
     <path id="m456bc12727" d="M 440.645254 -689.455221 
L 438.905747 -689.455221 
L 438.905747 -692.245228 
L 438.905747 -695.035236 
L 438.905747 -697.825244 
L 438.905747 -700.615251 
L 438.905747 -703.405259 
L 438.905747 -706.195266 
L 438.905747 -708.985274 
L 438.905747 -711.775281 
L 438.905747 -714.565289 
L 438.905747 -717.355296 
L 438.905747 -720.145304 
L 438.905747 -722.935311 
L 438.905747 -725.725319 
L 438.905747 -728.515327 
L 438.905747 -731.305334 
L 438.905747 -734.095342 
L 438.905747 -736.885349 
L 438.905747 -739.675357 
L 438.905747 -742.465364 
L 438.905747 -745.255372 
L 438.905747 -748.045379 
L 438.905747 -750.835387 
L 438.905747 -753.625395 
L 438.905747 -756.415402 
L 438.905747 -759.20541 
L 438.905747 -761.995417 
L 438.905747 -764.785425 
L 438.905747 -767.575432 
L 438.905747 -770.36544 
L 438.905747 -773.155447 
L 438.905747 -775.945455 
L 438.905747 -778.735462 
L 438.905747 -781.52547 
L 438.905747 -784.315478 
L 438.905747 -787.105485 
L 438.905747 -789.895493 
L 438.905747 -792.6855 
L 438.905747 -795.475508 
L 447.574972 -795.475508 
L 447.574972 -795.475508 
L 449.795064 -792.6855 
L 452.072624 -789.895493 
L 454.3291 -787.105485 
L 456.53075 -784.315478 
L 458.694504 -781.52547 
L 460.870369 -778.735462 
L 463.105083 -775.945455 
L 465.401677 -773.155447 
L 467.693 -770.36544 
L 469.841378 -767.575432 
L 471.664504 -764.785425 
L 472.97611 -761.995417 
L 473.625 -759.20541 
L 473.519388 -756.415402 
L 472.632357 -753.625395 
L 470.993531 -750.835387 
L 468.677339 -748.045379 
L 465.797015 -745.255372 
L 462.506408 -742.465364 
L 459.002675 -739.675357 
L 455.51791 -736.885349 
L 452.291232 -734.095342 
L 449.524179 -731.305334 
L 447.33476 -728.515327 
L 445.730868 -725.725319 
L 444.617405 -722.935311 
L 443.836454 -720.145304 
L 443.224439 -717.355296 
L 442.663053 -714.565289 
L 442.105099 -711.775281 
L 441.569079 -708.985274 
L 441.110003 -706.195266 
L 440.782057 -703.405259 
L 440.608796 -700.615251 
L 440.570641 -697.825244 
L 440.611283 -695.035236 
L 440.657796 -692.245228 
L 440.645254 -689.455221 
z
" style="stroke: #009e73; stroke-opacity: 0.3"/>
    </defs>
    <g clip-path="url(#p9bf2db5041)">
     <use xlink:href="#m456bc12727" x="0" y="1080" style="fill: #009e73; fill-opacity: 0.3; stroke: #009e73; stroke-opacity: 0.3"/>
    </g>
   </g>
   <g id="PolyCollection_4">
    <defs>
     <path id="mc434f6ad4f" d="M 582.80153 -745.790754 
L 578.419393 -745.790754 
L 578.419393 -746.837037 
L 578.419393 -747.883319 
L 578.419393 -748.929602 
L 578.419393 -749.975884 
L 578.419393 -751.022167 
L 578.419393 -752.068449 
L 578.419393 -753.114732 
L 578.419393 -754.161014 
L 578.419393 -755.207296 
L 578.419393 -756.253579 
L 578.419393 -757.299861 
L 578.419393 -758.346144 
L 578.419393 -759.392426 
L 578.419393 -760.438709 
L 578.419393 -761.484991 
L 578.419393 -762.531274 
L 578.419393 -763.577556 
L 578.419393 -764.623839 
L 578.419393 -765.670121 
L 578.419393 -766.716404 
L 578.419393 -767.762686 
L 578.419393 -768.808968 
L 578.419393 -769.855251 
L 578.419393 -770.901533 
L 578.419393 -771.947816 
L 578.419393 -772.994098 
L 578.419393 -774.040381 
L 578.419393 -775.086663 
L 578.419393 -776.132946 
L 578.419393 -777.179228 
L 578.419393 -778.225511 
L 578.419393 -779.271793 
L 578.419393 -780.318076 
L 578.419393 -781.364358 
L 578.419393 -782.41064 
L 578.419393 -783.456923 
L 578.419393 -784.503205 
L 578.419393 -785.549488 
L 582.867734 -785.549488 
L 582.867734 -785.549488 
L 583.729151 -784.503205 
L 584.555844 -783.456923 
L 585.313926 -782.41064 
L 585.986847 -781.364358 
L 586.580881 -780.318076 
L 587.125227 -779.271793 
L 587.666926 -778.225511 
L 588.263588 -777.179228 
L 588.977953 -776.132946 
L 589.876425 -775.086663 
L 591.0296 -774.040381 
L 592.509244 -772.994098 
L 594.376189 -771.947816 
L 596.658087 -770.901533 
L 599.322898 -769.855251 
L 602.259274 -768.808968 
L 605.274999 -767.762686 
L 608.118805 -766.716404 
L 610.521625 -765.670121 
L 612.245436 -764.623839 
L 613.125 -763.577556 
L 613.091268 -762.531274 
L 612.172825 -761.484991 
L 610.479548 -760.438709 
L 608.17703 -759.392426 
L 605.459935 -758.346144 
L 602.528868 -757.299861 
L 599.571379 -756.253579 
L 596.746042 -755.207296 
L 594.169466 -754.161014 
L 591.90809 -753.114732 
L 589.97745 -752.068449 
L 588.350221 -751.022167 
L 586.971396 -749.975884 
L 585.776375 -748.929602 
L 584.707049 -747.883319 
L 583.72227 -746.837037 
L 582.80153 -745.790754 
z
" style="stroke: #cc79a7; stroke-opacity: 0.3"/>
    </defs>
    <g clip-path="url(#p9bf2db5041)">
     <use xlink:href="#mc434f6ad4f" x="0" y="1080" style="fill: #cc79a7; fill-opacity: 0.3; stroke: #cc79a7; stroke-opacity: 0.3"/>
    </g>
   </g>
   <g id="PathCollection_1">
    <defs>
     <path id="mfee3d6f62e" d="M 0 0.866025 
C 0.229673 0.866025 0.449969 0.774776 0.612372 0.612372 
C 0.774776 0.449969 0.866025 0.229673 0.866025 0 
C 0.866025 -0.229673 0.774776 -0.449969 0.612372 -0.612372 
C 0.449969 -0.774776 0.229673 -0.866025 0 -0.866025 
C -0.229673 -0.866025 -0.449969 -0.774776 -0.612372 -0.612372 
C -0.774776 -0.449969 -0.866025 -0.229673 -0.866025 0 
C -0.866025 0.229673 -0.774776 0.449969 -0.612372 0.612372 
C -0.449969 0.774776 -0.229673 0.866025 0 0.866025 
z
" style="stroke: #d55e00"/>
    </defs>
    <g clip-path="url(#p9bf2db5041)">
     <use xlink:href="#mfee3d6f62e" x="125.537898" y="326.410486" style="fill: #d55e00; stroke: #d55e00"/>
     <use xlink:href="#mfee3d6f62e" x="130.635295" y="313.721216" style="fill: #d55e00; stroke: #d55e00"/>
     <use xlink:href="#mfee3d6f62e" x="128.335459" y="335.23296" style="fill: #d55e00; stroke: #d55e00"/>
     <use xlink:href="#mfee3d6f62e" x="130.600537" y="324.846103" style="fill: #d55e00; stroke: #d55e00"/>
     <use xlink:href="#mfee3d6f62e" x="135.521256" y="329.652807" style="fill: #d55e00; stroke: #d55e00"/>
     <use xlink:href="#mfee3d6f62e" x="130.453309" y="315.51477" style="fill: #d55e00; stroke: #d55e00"/>
     <use xlink:href="#mfee3d6f62e" x="130.135912" y="335.832344" style="fill: #d55e00; stroke: #d55e00"/>
     <use xlink:href="#mfee3d6f62e" x="132.444579" y="323.141884" style="fill: #d55e00; stroke: #d55e00"/>
     <use xlink:href="#mfee3d6f62e" x="125.972629" y="322.272569" style="fill: #d55e00; stroke: #d55e00"/>
     <use xlink:href="#mfee3d6f62e" x="131.057887" y="314.736847" style="fill: #d55e00; stroke: #d55e00"/>
     <use xlink:href="#mfee3d6f62e" x="126.598503" y="319.377081" style="fill: #d55e00; stroke: #d55e00"/>
     <use xlink:href="#mfee3d6f62e" x="130.07186" y="328.396551" style="fill: #d55e00; stroke: #d55e00"/>
     <use xlink:href="#mfee3d6f62e" x="131.114249" y="321.906764" style="fill: #d55e00; stroke: #d55e00"/>
     <use xlink:href="#mfee3d6f62e" x="127.683933" y="325.519773" style="fill: #d55e00; stroke: #d55e00"/>
     <use xlink:href="#mfee3d6f62e" x="131.133878" y="307.430551" style="fill: #d55e00; stroke: #d55e00"/>
     <use xlink:href="#mfee3d6f62e" x="126.379264" y="315.388639" style="fill: #d55e00; stroke: #d55e00"/>
     <use xlink:href="#mfee3d6f62e" x="127.132386" y="324.038738" style="fill: #d55e00; stroke: #d55e00"/>
     <use xlink:href="#mfee3d6f62e" x="127.984839" y="303.74943" style="fill: #d55e00; stroke: #d55e00"/>
     <use xlink:href="#mfee3d6f62e" x="128.864874" y="308.64424" style="fill: #d55e00; stroke: #d55e00"/>
     <use xlink:href="#mfee3d6f62e" x="130.029696" y="330.790621" style="fill: #d55e00; stroke: #d55e00"/>
     <use xlink:href="#mfee3d6f62e" x="129.268793" y="318.859729" style="fill: #d55e00; stroke: #d55e00"/>
     <use xlink:href="#mfee3d6f62e" x="138.4643" y="310.205706" style="fill: #d55e00; stroke: #d55e00"/>
     <use xlink:href="#mfee3d6f62e" x="133.47741" y="319.145313" style="fill: #d55e00; stroke: #d55e00"/>
     <use xlink:href="#mfee3d6f62e" x="137.565554" y="310.31718" style="fill: #d55e00; stroke: #d55e00"/>
     <use xlink:href="#mfee3d6f62e" x="130.692028" y="300.289567" style="fill: #d55e00; stroke: #d55e00"/>
     <use xlink:href="#mfee3d6f62e" x="138.507441" y="321.229267" style="fill: #d55e00; stroke: #d55e00"/>
     <use xlink:href="#mfee3d6f62e" x="135.983333" y="322.0921" style="fill: #d55e00; stroke: #d55e00"/>
     <use xlink:href="#mfee3d6f62e" x="137.001425" y="336.654632" style="fill: #d55e00; stroke: #d55e00"/>
     <use xlink:href="#mfee3d6f62e" x="128.782145" y="330.28274" style="fill: #d55e00; stroke: #d55e00"/>
     <use xlink:href="#mfee3d6f62e" x="137.431338" y="300.42472" style="fill: #d55e00; stroke: #d55e00"/>
     <use xlink:href="#mfee3d6f62e" x="134.965816" y="315.68966" style="fill: #d55e00; stroke: #d55e00"/>
     <use xlink:href="#mfee3d6f62e" x="135.183993" y="330.372583" style="fill: #d55e00; stroke: #d55e00"/>
     <use xlink:href="#mfee3d6f62e" x="137.014793" y="321.816183" style="fill: #d55e00; stroke: #d55e00"/>
     <use xlink:href="#mfee3d6f62e" x="138.301127" y="308.538436" style="fill: #d55e00; stroke: #d55e00"/>
     <use xlink:href="#mfee3d6f62e" x="125.459781" y="310.397949" style="fill: #d55e00; stroke: #d55e00"/>
     <use xlink:href="#mfee3d6f62e" x="130.872894" y="310.469924" style="fill: #d55e00; stroke: #d55e00"/>
     <use xlink:href="#mfee3d6f62e" x="133.317816" y="297.193363" style="fill: #d55e00; stroke: #d55e00"/>
     <use xlink:href="#mfee3d6f62e" x="134.997001" y="318.328751" style="fill: #d55e00; stroke: #d55e00"/>
     <use xlink:href="#mfee3d6f62e" x="137.830374" y="330.562663" style="fill: #d55e00; stroke: #d55e00"/>
    </g>
   </g>
   <g id="PathCollection_2">
    <defs>
     <path id="mc62affef74" d="M 0 0.866025 
C 0.229673 0.866025 0.449969 0.774776 0.612372 0.612372 
C 0.774776 0.449969 0.866025 0.229673 0.866025 0 
C 0.866025 -0.229673 0.774776 -0.449969 0.612372 -0.612372 
C 0.449969 -0.774776 0.229673 -0.866025 0 -0.866025 
C -0.229673 -0.866025 -0.449969 -0.774776 -0.612372 -0.612372 
C -0.774776 -0.449969 -0.866025 -0.229673 -0.866025 0 
C -0.866025 0.229673 -0.774776 0.449969 -0.612372 0.612372 
C -0.449969 0.774776 -0.229673 0.866025 0 0.866025 
z
" style="stroke: #0072b2"/>
    </defs>
    <g clip-path="url(#p9bf2db5041)">
     <use xlink:href="#mc62affef74" x="275.746483" y="309.130591" style="fill: #0072b2; stroke: #0072b2"/>
     <use xlink:href="#mc62affef74" x="270.229391" y="328.481123" style="fill: #0072b2; stroke: #0072b2"/>
     <use xlink:href="#mc62affef74" x="276.06542" y="324.273605" style="fill: #0072b2; stroke: #0072b2"/>
     <use xlink:href="#mc62affef74" x="265.459601" y="317.746631" style="fill: #0072b2; stroke: #0072b2"/>
     <use xlink:href="#mc62affef74" x="268.251009" y="305.444936" style="fill: #0072b2; stroke: #0072b2"/>
     <use xlink:href="#mc62affef74" x="270.941661" y="304.178359" style="fill: #0072b2; stroke: #0072b2"/>
     <use xlink:href="#mc62affef74" x="274.804933" y="300.393043" style="fill: #0072b2; stroke: #0072b2"/>
     <use xlink:href="#mc62affef74" x="275.332645" y="351.041472" style="fill: #0072b2; stroke: #0072b2"/>
     <use xlink:href="#mc62affef74" x="265.366015" y="290.719676" style="fill: #0072b2; stroke: #0072b2"/>
     <use xlink:href="#mc62affef74" x="268.257574" y="337.533682" style="fill: #0072b2; stroke: #0072b2"/>
     <use xlink:href="#mc62affef74" x="264.788393" y="286.939838" style="fill: #0072b2; stroke: #0072b2"/>
     <use xlink:href="#mc62affef74" x="277.667456" y="310.058206" style="fill: #0072b2; stroke: #0072b2"/>
     <use xlink:href="#mc62affef74" x="277.820265" y="321.36013" style="fill: #0072b2; stroke: #0072b2"/>
     <use xlink:href="#mc62affef74" x="266.123641" y="309.249279" style="fill: #0072b2; stroke: #0072b2"/>
     <use xlink:href="#mc62affef74" x="275.349383" y="328.453966" style="fill: #0072b2; stroke: #0072b2"/>
     <use xlink:href="#mc62affef74" x="267.024192" y="314.374219" style="fill: #0072b2; stroke: #0072b2"/>
     <use xlink:href="#mc62affef74" x="270.801894" y="322.036372" style="fill: #0072b2; stroke: #0072b2"/>
     <use xlink:href="#mc62affef74" x="266.856255" y="331.419318" style="fill: #0072b2; stroke: #0072b2"/>
     <use xlink:href="#mc62affef74" x="268.402448" y="332.85335" style="fill: #0072b2; stroke: #0072b2"/>
     <use xlink:href="#mc62affef74" x="272.463194" y="321.303364" style="fill: #0072b2; stroke: #0072b2"/>
     <use xlink:href="#mc62affef74" x="271.919728" y="373.219118" style="fill: #0072b2; stroke: #0072b2"/>
     <use xlink:href="#mc62affef74" x="274.035991" y="336.197812" style="fill: #0072b2; stroke: #0072b2"/>
     <use xlink:href="#mc62affef74" x="277.112222" y="322.00664" style="fill: #0072b2; stroke: #0072b2"/>
     <use xlink:href="#mc62affef74" x="273.052173" y="313.652234" style="fill: #0072b2; stroke: #0072b2"/>
     <use xlink:href="#mc62affef74" x="277.639086" y="350.842667" style="fill: #0072b2; stroke: #0072b2"/>
     <use xlink:href="#mc62affef74" x="267.309755" y="351.106788" style="fill: #0072b2; stroke: #0072b2"/>
     <use xlink:href="#mc62affef74" x="276.466735" y="312.933687" style="fill: #0072b2; stroke: #0072b2"/>
     <use xlink:href="#mc62affef74" x="265.192363" y="298.289044" style="fill: #0072b2; stroke: #0072b2"/>
     <use xlink:href="#mc62affef74" x="275.332057" y="315.723149" style="fill: #0072b2; stroke: #0072b2"/>
     <use xlink:href="#mc62affef74" x="267.557192" y="322.980218" style="fill: #0072b2; stroke: #0072b2"/>
     <use xlink:href="#mc62affef74" x="275.729469" y="326.513939" style="fill: #0072b2; stroke: #0072b2"/>
     <use xlink:href="#mc62affef74" x="272.929464" y="300.675428" style="fill: #0072b2; stroke: #0072b2"/>
     <use xlink:href="#mc62affef74" x="272.327534" y="306.455434" style="fill: #0072b2; stroke: #0072b2"/>
     <use xlink:href="#mc62affef74" x="276.326759" y="328.396751" style="fill: #0072b2; stroke: #0072b2"/>
     <use xlink:href="#mc62affef74" x="271.885617" y="327.395405" style="fill: #0072b2; stroke: #0072b2"/>
     <use xlink:href="#mc62affef74" x="266.122023" y="331.182614" style="fill: #0072b2; stroke: #0072b2"/>
     <use xlink:href="#mc62affef74" x="270.826057" y="356.598904" style="fill: #0072b2; stroke: #0072b2"/>
     <use xlink:href="#mc62affef74" x="272.728123" y="325.153966" style="fill: #0072b2; stroke: #0072b2"/>
     <use xlink:href="#mc62affef74" x="269.42337" y="339.2521" style="fill: #0072b2; stroke: #0072b2"/>
    </g>
   </g>
   <g id="PathCollection_3">
    <defs>
     <path id="m34e07cd978" d="M 0 0.866025 
C 0.229673 0.866025 0.449969 0.774776 0.612372 0.612372 
C 0.774776 0.449969 0.866025 0.229673 0.866025 0 
C 0.866025 -0.229673 0.774776 -0.449969 0.612372 -0.612372 
C 0.449969 -0.774776 0.229673 -0.866025 0 -0.866025 
C -0.229673 -0.866025 -0.449969 -0.774776 -0.612372 -0.612372 
C -0.774776 -0.449969 -0.866025 -0.229673 -0.866025 0 
C -0.866025 0.229673 -0.774776 0.449969 -0.612372 0.612372 
C -0.449969 0.774776 -0.229673 0.866025 0 0.866025 
z
" style="stroke: #009e73"/>
    </defs>
    <g clip-path="url(#p9bf2db5041)">
     <use xlink:href="#m34e07cd978" x="413.948869" y="325.666336" style="fill: #009e73; stroke: #009e73"/>
     <use xlink:href="#m34e07cd978" x="411.191693" y="321.475628" style="fill: #009e73; stroke: #009e73"/>
     <use xlink:href="#m34e07cd978" x="406.113109" y="342.780989" style="fill: #009e73; stroke: #009e73"/>
     <use xlink:href="#m34e07cd978" x="412.004669" y="313.186538" style="fill: #009e73; stroke: #009e73"/>
     <use xlink:href="#m34e07cd978" x="409.369455" y="314.103047" style="fill: #009e73; stroke: #009e73"/>
     <use xlink:href="#m34e07cd978" x="416.854734" y="298.301418" style="fill: #009e73; stroke: #009e73"/>
     <use xlink:href="#m34e07cd978" x="410.452782" y="327.222972" style="fill: #009e73; stroke: #009e73"/>
     <use xlink:href="#m34e07cd978" x="417.661212" y="360.245728" style="fill: #009e73; stroke: #009e73"/>
     <use xlink:href="#m34e07cd978" x="405.828844" y="289.98936" style="fill: #009e73; stroke: #009e73"/>
     <use xlink:href="#m34e07cd978" x="416.683655" y="340.746148" style="fill: #009e73; stroke: #009e73"/>
     <use xlink:href="#m34e07cd978" x="408.678873" y="293.137307" style="fill: #009e73; stroke: #009e73"/>
     <use xlink:href="#m34e07cd978" x="413.437963" y="304.073579" style="fill: #009e73; stroke: #009e73"/>
     <use xlink:href="#m34e07cd978" x="406.178005" y="306.988451" style="fill: #009e73; stroke: #009e73"/>
     <use xlink:href="#m34e07cd978" x="416.829571" y="313.451595" style="fill: #009e73; stroke: #009e73"/>
     <use xlink:href="#m34e07cd978" x="414.665138" y="300.807594" style="fill: #009e73; stroke: #009e73"/>
     <use xlink:href="#m34e07cd978" x="415.067582" y="318.909803" style="fill: #009e73; stroke: #009e73"/>
     <use xlink:href="#m34e07cd978" x="415.129748" y="323.007054" style="fill: #009e73; stroke: #009e73"/>
     <use xlink:href="#m34e07cd978" x="409.563633" y="328.624179" style="fill: #009e73; stroke: #009e73"/>
     <use xlink:href="#m34e07cd978" x="411.503454" y="337.244251" style="fill: #009e73; stroke: #009e73"/>
     <use xlink:href="#m34e07cd978" x="415.952049" y="338.568082" style="fill: #009e73; stroke: #009e73"/>
     <use xlink:href="#m34e07cd978" x="415.719509" y="390.544779" style="fill: #009e73; stroke: #009e73"/>
     <use xlink:href="#m34e07cd978" x="414.888496" y="328.576912" style="fill: #009e73; stroke: #009e73"/>
     <use xlink:href="#m34e07cd978" x="416.025554" y="312.929442" style="fill: #009e73; stroke: #009e73"/>
     <use xlink:href="#m34e07cd978" x="408.025076" y="311.977065" style="fill: #009e73; stroke: #009e73"/>
     <use xlink:href="#m34e07cd978" x="406.821912" y="332.404333" style="fill: #009e73; stroke: #009e73"/>
     <use xlink:href="#m34e07cd978" x="409.156328" y="327.073494" style="fill: #009e73; stroke: #009e73"/>
     <use xlink:href="#m34e07cd978" x="416.420545" y="296.299006" style="fill: #009e73; stroke: #009e73"/>
     <use xlink:href="#m34e07cd978" x="407.18604" y="322.655458" style="fill: #009e73; stroke: #009e73"/>
     <use xlink:href="#m34e07cd978" x="409.667315" y="320.248684" style="fill: #009e73; stroke: #009e73"/>
     <use xlink:href="#m34e07cd978" x="411.281241" y="284.524492" style="fill: #009e73; stroke: #009e73"/>
     <use xlink:href="#m34e07cd978" x="407.188421" y="314.915796" style="fill: #009e73; stroke: #009e73"/>
     <use xlink:href="#m34e07cd978" x="406.352676" y="334.868778" style="fill: #009e73; stroke: #009e73"/>
     <use xlink:href="#m34e07cd978" x="410.045435" y="305.931079" style="fill: #009e73; stroke: #009e73"/>
     <use xlink:href="#m34e07cd978" x="410.386179" y="323.194306" style="fill: #009e73; stroke: #009e73"/>
     <use xlink:href="#m34e07cd978" x="413.217426" y="317.213282" style="fill: #009e73; stroke: #009e73"/>
     <use xlink:href="#m34e07cd978" x="413.953361" y="294.366753" style="fill: #009e73; stroke: #009e73"/>
     <use xlink:href="#m34e07cd978" x="408.055983" y="333.325423" style="fill: #009e73; stroke: #009e73"/>
     <use xlink:href="#m34e07cd978" x="405.484044" y="337.987113" style="fill: #009e73; stroke: #009e73"/>
     <use xlink:href="#m34e07cd978" x="416.972229" y="363.663913" style="fill: #009e73; stroke: #009e73"/>
    </g>
   </g>
   <g id="PathCollection_4">
    <defs>
     <path id="m63bc300f32" d="M 0 0.866025 
C 0.229673 0.866025 0.449969 0.774776 0.612372 0.612372 
C 0.774776 0.449969 0.866025 0.229673 0.866025 0 
C 0.866025 -0.229673 0.774776 -0.449969 0.612372 -0.612372 
C 0.449969 -0.774776 0.229673 -0.866025 0 -0.866025 
C -0.229673 -0.866025 -0.449969 -0.774776 -0.612372 -0.612372 
C -0.774776 -0.449969 -0.866025 -0.229673 -0.866025 0 
C -0.866025 0.229673 -0.774776 0.449969 -0.612372 0.612372 
C -0.449969 0.774776 -0.229673 0.866025 0 0.866025 
z
" style="stroke: #cc79a7"/>
    </defs>
    <g clip-path="url(#p9bf2db5041)">
     <use xlink:href="#m63bc300f32" x="546.923019" y="319.104924" style="fill: #cc79a7; stroke: #cc79a7"/>
     <use xlink:href="#m63bc300f32" x="546.753714" y="315.155636" style="fill: #cc79a7; stroke: #cc79a7"/>
     <use xlink:href="#m63bc300f32" x="554.543301" y="305.523742" style="fill: #cc79a7; stroke: #cc79a7"/>
     <use xlink:href="#m63bc300f32" x="549.863971" y="317.551445" style="fill: #cc79a7; stroke: #cc79a7"/>
     <use xlink:href="#m63bc300f32" x="555.82183" y="320.913774" style="fill: #cc79a7; stroke: #cc79a7"/>
     <use xlink:href="#m63bc300f32" x="556.517409" y="330.701328" style="fill: #cc79a7; stroke: #cc79a7"/>
     <use xlink:href="#m63bc300f32" x="546.779039" y="318.953196" style="fill: #cc79a7; stroke: #cc79a7"/>
     <use xlink:href="#m63bc300f32" x="556.60047" y="300.508983" style="fill: #cc79a7; stroke: #cc79a7"/>
     <use xlink:href="#m63bc300f32" x="557.158962" y="334.209246" style="fill: #cc79a7; stroke: #cc79a7"/>
     <use xlink:href="#m63bc300f32" x="551.09467" y="304.794886" style="fill: #cc79a7; stroke: #cc79a7"/>
     <use xlink:href="#m63bc300f32" x="556.363813" y="328.986815" style="fill: #cc79a7; stroke: #cc79a7"/>
     <use xlink:href="#m63bc300f32" x="549.856913" y="321.738411" style="fill: #cc79a7; stroke: #cc79a7"/>
     <use xlink:href="#m63bc300f32" x="555.530852" y="316.639732" style="fill: #cc79a7; stroke: #cc79a7"/>
     <use xlink:href="#m63bc300f32" x="553.01635" y="317.080372" style="fill: #cc79a7; stroke: #cc79a7"/>
     <use xlink:href="#m63bc300f32" x="548.924981" y="323.20772" style="fill: #cc79a7; stroke: #cc79a7"/>
     <use xlink:href="#m63bc300f32" x="545.327346" y="322.094643" style="fill: #cc79a7; stroke: #cc79a7"/>
     <use xlink:href="#m63bc300f32" x="553.439669" y="313.742735" style="fill: #cc79a7; stroke: #cc79a7"/>
     <use xlink:href="#m63bc300f32" x="551.612117" y="313.104619" style="fill: #cc79a7; stroke: #cc79a7"/>
     <use xlink:href="#m63bc300f32" x="555.238823" y="313.576051" style="fill: #cc79a7; stroke: #cc79a7"/>
     <use xlink:href="#m63bc300f32" x="547.673426" y="310.301131" style="fill: #cc79a7; stroke: #cc79a7"/>
     <use xlink:href="#m63bc300f32" x="554.392066" y="299.050768" style="fill: #cc79a7; stroke: #cc79a7"/>
     <use xlink:href="#m63bc300f32" x="546.247626" y="311.747407" style="fill: #cc79a7; stroke: #cc79a7"/>
     <use xlink:href="#m63bc300f32" x="556.23427" y="316.836299" style="fill: #cc79a7; stroke: #cc79a7"/>
     <use xlink:href="#m63bc300f32" x="549.02674" y="327.242766" style="fill: #cc79a7; stroke: #cc79a7"/>
     <use xlink:href="#m63bc300f32" x="555.463539" y="315.973496" style="fill: #cc79a7; stroke: #cc79a7"/>
     <use xlink:href="#m63bc300f32" x="546.882403" y="298.510842" style="fill: #cc79a7; stroke: #cc79a7"/>
     <use xlink:href="#m63bc300f32" x="551.067471" y="320.960346" style="fill: #cc79a7; stroke: #cc79a7"/>
     <use xlink:href="#m63bc300f32" x="556.473831" y="315.244367" style="fill: #cc79a7; stroke: #cc79a7"/>
     <use xlink:href="#m63bc300f32" x="552.638232" y="313.085632" style="fill: #cc79a7; stroke: #cc79a7"/>
     <use xlink:href="#m63bc300f32" x="544.783434" y="322.853394" style="fill: #cc79a7; stroke: #cc79a7"/>
     <use xlink:href="#m63bc300f32" x="556.197797" y="319.327845" style="fill: #cc79a7; stroke: #cc79a7"/>
     <use xlink:href="#m63bc300f32" x="554.152785" y="315.06774" style="fill: #cc79a7; stroke: #cc79a7"/>
     <use xlink:href="#m63bc300f32" x="552.991203" y="324.391997" style="fill: #cc79a7; stroke: #cc79a7"/>
     <use xlink:href="#m63bc300f32" x="551.253846" y="314.025273" style="fill: #cc79a7; stroke: #cc79a7"/>
     <use xlink:href="#m63bc300f32" x="544.21788" y="316.597845" style="fill: #cc79a7; stroke: #cc79a7"/>
     <use xlink:href="#m63bc300f32" x="544.069557" y="318.665909" style="fill: #cc79a7; stroke: #cc79a7"/>
     <use xlink:href="#m63bc300f32" x="547.050695" y="308.05738" style="fill: #cc79a7; stroke: #cc79a7"/>
     <use xlink:href="#m63bc300f32" x="543.400285" y="306.363133" style="fill: #cc79a7; stroke: #cc79a7"/>
     <use xlink:href="#m63bc300f32" x="550.422695" y="294.450512" style="fill: #cc79a7; stroke: #cc79a7"/>
    </g>
   </g>
   <g id="patch_3">
    <path d="M 149.2875 325.96513 
L 170.2125 325.96513 
L 170.2125 310.433937 
L 149.2875 310.433937 
L 149.2875 325.96513 
z
" clip-path="url(#p9bf2db5041)" style="fill: #d55e00; opacity: 0.5; stroke: #000000; stroke-linejoin: miter"/>
   </g>
   <g id="line2d_10">
    <path d="M 159.75 325.96513 
L 159.75 336.654632 
" clip-path="url(#p9bf2db5041)" style="fill: none; stroke: #000000; stroke-linecap: round"/>
   </g>
   <g id="line2d_11">
    <path d="M 159.75 310.433937 
L 159.75 297.193363 
" clip-path="url(#p9bf2db5041)" style="fill: none; stroke: #000000; stroke-linecap: round"/>
   </g>
   <g id="line2d_12">
    <path d="M 154.51875 336.654632 
L 164.98125 336.654632 
" clip-path="url(#p9bf2db5041)" style="fill: none; stroke: #000000; stroke-linecap: round"/>
   </g>
   <g id="line2d_13">
    <path d="M 154.51875 297.193363 
L 164.98125 297.193363 
" clip-path="url(#p9bf2db5041)" style="fill: none; stroke: #000000; stroke-linecap: round"/>
   </g>
   <g id="patch_4">
    <path d="M 288.7875 331.300966 
L 309.7125 331.300966 
L 309.7125 309.653743 
L 288.7875 309.653743 
L 288.7875 331.300966 
z
" clip-path="url(#p9bf2db5041)" style="fill: #0072b2; opacity: 0.5; stroke: #000000; stroke-linejoin: miter"/>
   </g>
   <g id="line2d_14">
    <path d="M 299.25 331.300966 
L 299.25 356.598904 
" clip-path="url(#p9bf2db5041)" style="fill: none; stroke: #000000; stroke-linecap: round"/>
   </g>
   <g id="line2d_15">
    <path d="M 299.25 309.653743 
L 299.25 286.939838 
" clip-path="url(#p9bf2db5041)" style="fill: none; stroke: #000000; stroke-linecap: round"/>
   </g>
   <g id="line2d_16">
    <path d="M 294.01875 356.598904 
L 304.48125 356.598904 
" clip-path="url(#p9bf2db5041)" style="fill: none; stroke: #000000; stroke-linecap: round"/>
   </g>
   <g id="line2d_17">
    <path d="M 294.01875 286.939838 
L 304.48125 286.939838 
" clip-path="url(#p9bf2db5041)" style="fill: none; stroke: #000000; stroke-linecap: round"/>
   </g>
   <g id="patch_5">
    <path d="M 428.2875 332.864878 
L 449.2125 332.864878 
L 449.2125 309.482758 
L 428.2875 309.482758 
L 428.2875 332.864878 
z
" clip-path="url(#p9bf2db5041)" style="fill: #009e73; opacity: 0.5; stroke: #000000; stroke-linejoin: miter"/>
   </g>
   <g id="line2d_18">
    <path d="M 438.75 332.864878 
L 438.75 363.663913 
" clip-path="url(#p9bf2db5041)" style="fill: none; stroke: #000000; stroke-linecap: round"/>
   </g>
   <g id="line2d_19">
    <path d="M 438.75 309.482758 
L 438.75 284.524492 
" clip-path="url(#p9bf2db5041)" style="fill: none; stroke: #000000; stroke-linecap: round"/>
   </g>
   <g id="line2d_20">
    <path d="M 433.51875 363.663913 
L 443.98125 363.663913 
" clip-path="url(#p9bf2db5041)" style="fill: none; stroke: #000000; stroke-linecap: round"/>
   </g>
   <g id="line2d_21">
    <path d="M 433.51875 284.524492 
L 443.98125 284.524492 
" clip-path="url(#p9bf2db5041)" style="fill: none; stroke: #000000; stroke-linecap: round"/>
   </g>
   <g id="patch_6">
    <path d="M 567.7875 320.93706 
L 588.7125 320.93706 
L 588.7125 312.416519 
L 567.7875 312.416519 
L 567.7875 320.93706 
z
" clip-path="url(#p9bf2db5041)" style="fill: #cc79a7; opacity: 0.5; stroke: #000000; stroke-linejoin: miter"/>
   </g>
   <g id="line2d_22">
    <path d="M 578.25 320.93706 
L 578.25 330.701328 
" clip-path="url(#p9bf2db5041)" style="fill: none; stroke: #000000; stroke-linecap: round"/>
   </g>
   <g id="line2d_23">
    <path d="M 578.25 312.416519 
L 578.25 300.508983 
" clip-path="url(#p9bf2db5041)" style="fill: none; stroke: #000000; stroke-linecap: round"/>
   </g>
   <g id="line2d_24">
    <path d="M 573.01875 330.701328 
L 583.48125 330.701328 
" clip-path="url(#p9bf2db5041)" style="fill: none; stroke: #000000; stroke-linecap: round"/>
   </g>
   <g id="line2d_25">
    <path d="M 573.01875 300.508983 
L 583.48125 300.508983 
" clip-path="url(#p9bf2db5041)" style="fill: none; stroke: #000000; stroke-linecap: round"/>
   </g>
   <g id="line2d_26">
    <path d="M 149.2875 319.377081 
L 170.2125 319.377081 
" clip-path="url(#p9bf2db5041)" style="fill: none; stroke: #000000"/>
   </g>
   <g id="line2d_27">
    <path d="M 288.7875 322.036372 
L 309.7125 322.036372 
" clip-path="url(#p9bf2db5041)" style="fill: none; stroke: #000000"/>
   </g>
   <g id="line2d_28">
    <path d="M 428.2875 321.475628 
L 449.2125 321.475628 
" clip-path="url(#p9bf2db5041)" style="fill: none; stroke: #000000"/>
   </g>
   <g id="line2d_29">
    <path d="M 567.7875 316.597845 
L 588.7125 316.597845 
" clip-path="url(#p9bf2db5041)" style="fill: none; stroke: #000000"/>
   </g>
   <g id="patch_7">
    <path d="M 90 507.6 
L 90 129.6 
" style="fill: none; stroke: #262626; stroke-width: 1.25; stroke-linejoin: miter; stroke-linecap: square"/>
   </g>
   <g id="patch_8">
    <path d="M 648 507.6 
L 648 129.6 
" style="fill: none; stroke: #262626; stroke-width: 1.25; stroke-linejoin: miter; stroke-linecap: square"/>
   </g>
   <g id="patch_9">
    <path d="M 90 507.6 
L 648 507.6 
" style="fill: none; stroke: #262626; stroke-width: 1.25; stroke-linejoin: miter; stroke-linecap: square"/>
   </g>
   <g id="patch_10">
    <path d="M 90 129.6 
L 648 129.6 
" style="fill: none; stroke: #262626; stroke-width: 1.25; stroke-linejoin: miter; stroke-linecap: square"/>
   </g>
   <g id="text_11">
    <!-- IBI -->
    <g style="fill: #262626" transform="translate(360.055313 109.6) scale(0.14 -0.14)">
     <defs>
      <path id="Arial-BoldMT-49" d="M 438 0 
L 438 4581 
L 1363 4581 
L 1363 0 
L 438 0 
z
" transform="scale(0.015625)"/>
      <path id="Arial-BoldMT-42" d="M 469 4581 
L 2300 4581 
Q 2844 4581 3111 4536 
Q 3378 4491 3589 4347 
Q 3800 4203 3940 3964 
Q 4081 3725 4081 3428 
Q 4081 3106 3907 2837 
Q 3734 2569 3438 2434 
Q 3856 2313 4081 2019 
Q 4306 1725 4306 1328 
Q 4306 1016 4161 720 
Q 4016 425 3764 248 
Q 3513 72 3144 31 
Q 2913 6 2028 0 
L 469 0 
L 469 4581 
z
M 1394 3819 
L 1394 2759 
L 2000 2759 
Q 2541 2759 2672 2775 
Q 2909 2803 3045 2939 
Q 3181 3075 3181 3297 
Q 3181 3509 3064 3642 
Q 2947 3775 2716 3803 
Q 2578 3819 1925 3819 
L 1394 3819 
z
M 1394 1997 
L 1394 772 
L 2250 772 
Q 2750 772 2884 800 
Q 3091 838 3220 983 
Q 3350 1128 3350 1372 
Q 3350 1578 3250 1722 
Q 3150 1866 2961 1931 
Q 2772 1997 2141 1997 
L 1394 1997 
z
" transform="scale(0.015625)"/>
     </defs>
     <use xlink:href="#Arial-BoldMT-49"/>
     <use xlink:href="#Arial-BoldMT-42" x="27.783203"/>
     <use xlink:href="#Arial-BoldMT-49" x="100"/>
    </g>
   </g>
  </g>
  <g id="axes_2">
   <g id="patch_11">
    <path d="M 90 961.2 
L 648 961.2 
L 648 583.2 
L 90 583.2 
z
" style="fill: #ffffff"/>
   </g>
   <g id="matplotlib.axis_3">
    <g id="xtick_5">
     <g id="line2d_30">
      <g>
       <use xlink:href="#m66b6acdc90" x="159.75" y="961.2" style="fill: #262626; stroke: #262626; stroke-width: 1.25"/>
      </g>
     </g>
     <g id="text_12">
      <!-- State 1 -->
      <g style="fill: #262626" transform="translate(142.321875 978.573594) scale(0.11 -0.11)">
       <use xlink:href="#ArialMT-53"/>
       <use xlink:href="#ArialMT-74" x="66.699219"/>
       <use xlink:href="#ArialMT-61" x="94.482422"/>
       <use xlink:href="#ArialMT-74" x="150.097656"/>
       <use xlink:href="#ArialMT-65" x="177.880859"/>
       <use xlink:href="#ArialMT-20" x="233.496094"/>
       <use xlink:href="#ArialMT-31" x="261.279297"/>
      </g>
     </g>
    </g>
    <g id="xtick_6">
     <g id="line2d_31">
      <g>
       <use xlink:href="#m66b6acdc90" x="299.25" y="961.2" style="fill: #262626; stroke: #262626; stroke-width: 1.25"/>
      </g>
     </g>
     <g id="text_13">
      <!-- State 2 -->
      <g style="fill: #262626" transform="translate(281.821875 978.573594) scale(0.11 -0.11)">
       <use xlink:href="#ArialMT-53"/>
       <use xlink:href="#ArialMT-74" x="66.699219"/>
       <use xlink:href="#ArialMT-61" x="94.482422"/>
       <use xlink:href="#ArialMT-74" x="150.097656"/>
       <use xlink:href="#ArialMT-65" x="177.880859"/>
       <use xlink:href="#ArialMT-20" x="233.496094"/>
       <use xlink:href="#ArialMT-32" x="261.279297"/>
      </g>
     </g>
    </g>
    <g id="xtick_7">
     <g id="line2d_32">
      <g>
       <use xlink:href="#m66b6acdc90" x="438.75" y="961.2" style="fill: #262626; stroke: #262626; stroke-width: 1.25"/>
      </g>
     </g>
     <g id="text_14">
      <!-- State 3 -->
      <g style="fill: #262626" transform="translate(421.321875 978.573594) scale(0.11 -0.11)">
       <use xlink:href="#ArialMT-53"/>
       <use xlink:href="#ArialMT-74" x="66.699219"/>
       <use xlink:href="#ArialMT-61" x="94.482422"/>
       <use xlink:href="#ArialMT-74" x="150.097656"/>
       <use xlink:href="#ArialMT-65" x="177.880859"/>
       <use xlink:href="#ArialMT-20" x="233.496094"/>
       <use xlink:href="#ArialMT-33" x="261.279297"/>
      </g>
     </g>
    </g>
    <g id="xtick_8">
     <g id="line2d_33">
      <g>
       <use xlink:href="#m66b6acdc90" x="578.25" y="961.2" style="fill: #262626; stroke: #262626; stroke-width: 1.25"/>
      </g>
     </g>
     <g id="text_15">
      <!-- State 4 -->
      <g style="fill: #262626" transform="translate(560.821875 978.573594) scale(0.11 -0.11)">
       <use xlink:href="#ArialMT-53"/>
       <use xlink:href="#ArialMT-74" x="66.699219"/>
       <use xlink:href="#ArialMT-61" x="94.482422"/>
       <use xlink:href="#ArialMT-74" x="150.097656"/>
       <use xlink:href="#ArialMT-65" x="177.880859"/>
       <use xlink:href="#ArialMT-20" x="233.496094"/>
       <use xlink:href="#ArialMT-34" x="261.279297"/>
      </g>
     </g>
    </g>
   </g>
   <g id="matplotlib.axis_4">
    <g id="ytick_6">
     <g id="line2d_34">
      <g>
       <use xlink:href="#mfad443e46f" x="90" y="923.4" style="fill: #262626; stroke: #262626; stroke-width: 1.25"/>
      </g>
     </g>
     <g id="text_16">
      <!-- −2 -->
      <g style="fill: #262626" transform="translate(67.958281 927.336797) scale(0.11 -0.11)">
       <use xlink:href="#ArialMT-2212"/>
       <use xlink:href="#ArialMT-32" x="58.398438"/>
      </g>
     </g>
    </g>
    <g id="ytick_7">
     <g id="line2d_35">
      <g>
       <use xlink:href="#mfad443e46f" x="90" y="847.8" style="fill: #262626; stroke: #262626; stroke-width: 1.25"/>
      </g>
     </g>
     <g id="text_17">
      <!-- −1 -->
      <g style="fill: #262626" transform="translate(67.958281 851.736797) scale(0.11 -0.11)">
       <use xlink:href="#ArialMT-2212"/>
       <use xlink:href="#ArialMT-31" x="58.398438"/>
      </g>
     </g>
    </g>
    <g id="ytick_8">
     <g id="line2d_36">
      <g>
       <use xlink:href="#mfad443e46f" x="90" y="772.2" style="fill: #262626; stroke: #262626; stroke-width: 1.25"/>
      </g>
     </g>
     <g id="text_18">
      <!-- 0 -->
      <g style="fill: #262626" transform="translate(74.382969 776.136797) scale(0.11 -0.11)">
       <use xlink:href="#ArialMT-30"/>
      </g>
     </g>
    </g>
    <g id="ytick_9">
     <g id="line2d_37">
      <g>
       <use xlink:href="#mfad443e46f" x="90" y="696.6" style="fill: #262626; stroke: #262626; stroke-width: 1.25"/>
      </g>
     </g>
     <g id="text_19">
      <!-- 1 -->
      <g style="fill: #262626" transform="translate(74.382969 700.536797) scale(0.11 -0.11)">
       <use xlink:href="#ArialMT-31"/>
      </g>
     </g>
    </g>
    <g id="ytick_10">
     <g id="line2d_38">
      <g>
       <use xlink:href="#mfad443e46f" x="90" y="621" style="fill: #262626; stroke: #262626; stroke-width: 1.25"/>
      </g>
     </g>
     <g id="text_20">
      <!-- 2 -->
      <g style="fill: #262626" transform="translate(74.382969 624.936797) scale(0.11 -0.11)">
       <use xlink:href="#ArialMT-32"/>
      </g>
     </g>
    </g>
    <g id="text_21">
     <!-- Value (z-scored) -->
     <g style="fill: #262626" transform="translate(61.432656 815.770313) rotate(-90) scale(0.12 -0.12)">
      <use xlink:href="#ArialMT-56"/>
      <use xlink:href="#ArialMT-61" x="59.324219"/>
      <use xlink:href="#ArialMT-6c" x="114.939453"/>
      <use xlink:href="#ArialMT-75" x="137.15625"/>
      <use xlink:href="#ArialMT-65" x="192.771484"/>
      <use xlink:href="#ArialMT-20" x="248.386719"/>
      <use xlink:href="#ArialMT-28" x="276.169922"/>
      <use xlink:href="#ArialMT-7a" x="309.470703"/>
      <use xlink:href="#ArialMT-2d" x="359.470703"/>
      <use xlink:href="#ArialMT-73" x="392.771484"/>
      <use xlink:href="#ArialMT-63" x="442.771484"/>
      <use xlink:href="#ArialMT-6f" x="492.771484"/>
      <use xlink:href="#ArialMT-72" x="548.386719"/>
      <use xlink:href="#ArialMT-65" x="581.6875"/>
      <use xlink:href="#ArialMT-64" x="637.302734"/>
      <use xlink:href="#ArialMT-29" x="692.917969"/>
     </g>
    </g>
   </g>
   <g id="PolyCollection_5">
    <defs>
     <path id="m9fe9ac9c4f" d="M 162.747339 -280.504975 
L 159.863648 -280.504975 
L 159.863648 -281.787758 
L 159.863648 -283.070541 
L 159.863648 -284.353324 
L 159.863648 -285.636107 
L 159.863648 -286.91889 
L 159.863648 -288.201673 
L 159.863648 -289.484456 
L 159.863648 -290.767239 
L 159.863648 -292.050022 
L 159.863648 -293.332805 
L 159.863648 -294.615588 
L 159.863648 -295.898371 
L 159.863648 -297.181154 
L 159.863648 -298.463937 
L 159.863648 -299.74672 
L 159.863648 -301.029503 
L 159.863648 -302.312286 
L 159.863648 -303.595069 
L 159.863648 -304.877852 
L 159.863648 -306.160635 
L 159.863648 -307.443418 
L 159.863648 -308.7262 
L 159.863648 -310.008983 
L 159.863648 -311.291766 
L 159.863648 -312.574549 
L 159.863648 -313.857332 
L 159.863648 -315.140115 
L 159.863648 -316.422898 
L 159.863648 -317.705681 
L 159.863648 -318.988464 
L 159.863648 -320.271247 
L 159.863648 -321.55403 
L 159.863648 -322.836813 
L 159.863648 -324.119596 
L 159.863648 -325.402379 
L 159.863648 -326.685162 
L 159.863648 -327.967945 
L 159.863648 -329.250728 
L 162.960813 -329.250728 
L 162.960813 -329.250728 
L 163.514895 -327.967945 
L 164.071135 -326.685162 
L 164.636017 -325.402379 
L 165.23413 -324.119596 
L 165.919107 -322.836813 
L 166.782869 -321.55403 
L 167.954521 -320.271247 
L 169.581585 -318.988464 
L 171.792458 -317.705681 
L 174.647144 -316.422898 
L 178.090496 -315.140115 
L 181.925806 -313.857332 
L 185.824823 -312.574549 
L 189.381144 -311.291766 
L 192.198033 -310.008983 
L 193.984511 -308.7262 
L 194.625 -307.443418 
L 194.195796 -306.160635 
L 192.924339 -304.877852 
L 191.112348 -303.595069 
L 189.056417 -302.312286 
L 186.993223 -301.029503 
L 185.077605 -299.74672 
L 183.384259 -298.463937 
L 181.918107 -297.181154 
L 180.624877 -295.898371 
L 179.403984 -294.615588 
L 178.130797 -293.332805 
L 176.690935 -292.050022 
L 175.019049 -290.767239 
L 173.126659 -289.484456 
L 171.10467 -288.201673 
L 169.096585 -286.91889 
L 167.252444 -285.636107 
L 165.682802 -284.353324 
L 164.431373 -283.070541 
L 163.475108 -281.787758 
L 162.747339 -280.504975 
z
" style="stroke: #d55e00; stroke-opacity: 0.3"/>
    </defs>
    <g clip-path="url(#p8fbdf00bed)">
     <use xlink:href="#m9fe9ac9c4f" x="0" y="1080" style="fill: #d55e00; fill-opacity: 0.3; stroke: #d55e00; stroke-opacity: 0.3"/>
    </g>
   </g>
   <g id="PolyCollection_6">
    <defs>
     <path id="m68a889cc20" d="M 305.884668 -251.487378 
L 299.49062 -251.487378 
L 299.49062 -254.34 
L 299.49062 -257.192622 
L 299.49062 -260.045244 
L 299.49062 -262.897866 
L 299.49062 -265.750488 
L 299.49062 -268.60311 
L 299.49062 -271.455732 
L 299.49062 -274.308354 
L 299.49062 -277.160976 
L 299.49062 -280.013598 
L 299.49062 -282.86622 
L 299.49062 -285.718842 
L 299.49062 -288.571464 
L 299.49062 -291.424086 
L 299.49062 -294.276708 
L 299.49062 -297.12933 
L 299.49062 -299.981952 
L 299.49062 -302.834574 
L 299.49062 -305.687196 
L 299.49062 -308.539818 
L 299.49062 -311.39244 
L 299.49062 -314.245062 
L 299.49062 -317.097684 
L 299.49062 -319.950306 
L 299.49062 -322.802928 
L 299.49062 -325.65555 
L 299.49062 -328.508172 
L 299.49062 -331.360794 
L 299.49062 -334.213416 
L 299.49062 -337.066038 
L 299.49062 -339.91866 
L 299.49062 -342.771282 
L 299.49062 -345.623904 
L 299.49062 -348.476526 
L 299.49062 -351.329148 
L 299.49062 -354.18177 
L 299.49062 -357.034392 
L 299.49062 -359.887014 
L 305.470872 -359.887014 
L 305.470872 -359.887014 
L 306.65196 -357.034392 
L 307.968207 -354.18177 
L 309.45185 -351.329148 
L 311.12973 -348.476526 
L 313.01153 -345.623904 
L 315.081315 -342.771282 
L 317.29526 -339.91866 
L 319.586415 -337.066038 
L 321.875207 -334.213416 
L 324.082819 -331.360794 
L 326.143709 -328.508172 
L 328.013484 -325.65555 
L 329.669264 -322.802928 
L 331.101717 -319.950306 
L 332.300969 -317.097684 
L 333.241622 -314.245062 
L 333.873681 -311.39244 
L 334.125 -308.539818 
L 333.916799 -305.687196 
L 333.188304 -302.834574 
L 331.922036 -299.981952 
L 330.160073 -297.12933 
L 328.004428 -294.276708 
L 325.600639 -291.424086 
L 323.109972 -288.571464 
L 320.679685 -285.718842 
L 318.4208 -282.86622 
L 316.398952 -280.013598 
L 314.638125 -277.160976 
L 313.132181 -274.308354 
L 311.857241 -271.455732 
L 310.779764 -268.60311 
L 309.859165 -265.750488 
L 309.047704 -262.897866 
L 308.291918 -260.045244 
L 307.538445 -257.192622 
L 306.743811 -254.34 
L 305.884668 -251.487378 
z
" style="stroke: #0072b2; stroke-opacity: 0.3"/>
    </defs>
    <g clip-path="url(#p8fbdf00bed)">
     <use xlink:href="#m68a889cc20" x="0" y="1080" style="fill: #0072b2; fill-opacity: 0.3; stroke: #0072b2; stroke-opacity: 0.3"/>
    </g>
   </g>
   <g id="PolyCollection_7">
    <defs>
     <path id="m0b6a558a2f" d="M 440.63427 -231.412854 
L 438.817366 -231.412854 
L 438.817366 -235.4033 
L 438.817366 -239.393747 
L 438.817366 -243.384193 
L 438.817366 -247.37464 
L 438.817366 -251.365086 
L 438.817366 -255.355533 
L 438.817366 -259.345979 
L 438.817366 -263.336425 
L 438.817366 -267.326872 
L 438.817366 -271.317318 
L 438.817366 -275.307765 
L 438.817366 -279.298211 
L 438.817366 -283.288657 
L 438.817366 -287.279104 
L 438.817366 -291.26955 
L 438.817366 -295.259997 
L 438.817366 -299.250443 
L 438.817366 -303.240889 
L 438.817366 -307.231336 
L 438.817366 -311.221782 
L 438.817366 -315.212229 
L 438.817366 -319.202675 
L 438.817366 -323.193122 
L 438.817366 -327.183568 
L 438.817366 -331.174014 
L 438.817366 -335.164461 
L 438.817366 -339.154907 
L 438.817366 -343.145354 
L 438.817366 -347.1358 
L 438.817366 -351.126246 
L 438.817366 -355.116693 
L 438.817366 -359.107139 
L 438.817366 -363.097586 
L 438.817366 -367.088032 
L 438.817366 -371.078479 
L 438.817366 -375.068925 
L 438.817366 -379.059371 
L 438.817366 -383.049818 
L 440.43811 -383.049818 
L 440.43811 -383.049818 
L 440.406455 -379.059371 
L 440.29344 -375.068925 
L 440.192283 -371.078479 
L 440.223178 -367.088032 
L 440.506694 -363.097586 
L 441.139605 -359.107139 
L 442.177004 -355.116693 
L 443.620157 -351.126246 
L 445.409066 -347.1358 
L 447.422136 -343.145354 
L 449.490014 -339.154907 
L 451.431569 -335.164461 
L 453.112225 -331.174014 
L 454.50865 -327.183568 
L 455.748613 -323.193122 
L 457.094169 -319.202675 
L 458.855901 -315.212229 
L 461.257563 -311.221782 
L 464.298546 -307.231336 
L 467.674102 -303.240889 
L 470.803885 -299.250443 
L 472.984488 -295.259997 
L 473.625 -291.26955 
L 472.469106 -287.279104 
L 469.693255 -283.288657 
L 465.824281 -279.298211 
L 461.51956 -275.307765 
L 457.331525 -271.317318 
L 453.576785 -267.326872 
L 450.350587 -263.336425 
L 447.633245 -259.345979 
L 445.394905 -255.355533 
L 443.635709 -251.365086 
L 442.361414 -247.37464 
L 441.537921 -243.384193 
L 441.069203 -239.393747 
L 440.814946 -235.4033 
L 440.63427 -231.412854 
z
" style="stroke: #009e73; stroke-opacity: 0.3"/>
    </defs>
    <g clip-path="url(#p8fbdf00bed)">
     <use xlink:href="#m0b6a558a2f" x="0" y="1080" style="fill: #009e73; fill-opacity: 0.3; stroke: #009e73; stroke-opacity: 0.3"/>
    </g>
   </g>
   <g id="PolyCollection_8">
    <defs>
     <path id="m01e4a82aa8" d="M 580.577331 -280.819344 
L 578.360983 -280.819344 
L 578.360983 -282.334987 
L 578.360983 -283.85063 
L 578.360983 -285.366273 
L 578.360983 -286.881917 
L 578.360983 -288.39756 
L 578.360983 -289.913203 
L 578.360983 -291.428846 
L 578.360983 -292.944489 
L 578.360983 -294.460132 
L 578.360983 -295.975775 
L 578.360983 -297.491418 
L 578.360983 -299.007061 
L 578.360983 -300.522704 
L 578.360983 -302.038347 
L 578.360983 -303.55399 
L 578.360983 -305.069633 
L 578.360983 -306.585276 
L 578.360983 -308.100919 
L 578.360983 -309.616562 
L 578.360983 -311.132205 
L 578.360983 -312.647849 
L 578.360983 -314.163492 
L 578.360983 -315.679135 
L 578.360983 -317.194778 
L 578.360983 -318.710421 
L 578.360983 -320.226064 
L 578.360983 -321.741707 
L 578.360983 -323.25735 
L 578.360983 -324.772993 
L 578.360983 -326.288636 
L 578.360983 -327.804279 
L 578.360983 -329.319922 
L 578.360983 -330.835565 
L 578.360983 -332.351208 
L 578.360983 -333.866851 
L 578.360983 -335.382494 
L 578.360983 -336.898137 
L 578.360983 -338.413781 
L 582.584987 -338.413781 
L 582.584987 -338.413781 
L 582.889675 -336.898137 
L 583.183485 -335.382494 
L 583.594571 -333.866851 
L 584.252608 -332.351208 
L 585.251772 -330.835565 
L 586.633146 -329.319922 
L 588.393719 -327.804279 
L 590.512498 -326.288636 
L 592.972195 -324.772993 
L 595.756611 -323.25735 
L 598.820272 -321.741707 
L 602.048826 -320.226064 
L 605.240984 -318.710421 
L 608.134786 -317.194778 
L 610.475118 -315.679135 
L 612.091775 -314.163492 
L 612.946806 -312.647849 
L 613.125 -311.132205 
L 612.773357 -309.616562 
L 612.023973 -308.100919 
L 610.941851 -306.585276 
L 609.521408 -305.069633 
L 607.725627 -303.55399 
L 605.539118 -302.038347 
L 603.003655 -300.522704 
L 600.220449 -299.007061 
L 597.325045 -297.491418 
L 594.454178 -295.975775 
L 591.722936 -294.460132 
L 589.21902 -292.944489 
L 587.008202 -291.428846 
L 585.139605 -289.913203 
L 583.643086 -288.39756 
L 582.519654 -286.881917 
L 581.732861 -285.366273 
L 581.209938 -283.85063 
L 580.856044 -282.334987 
L 580.577331 -280.819344 
z
" style="stroke: #cc79a7; stroke-opacity: 0.3"/>
    </defs>
    <g clip-path="url(#p8fbdf00bed)">
     <use xlink:href="#m01e4a82aa8" x="0" y="1080" style="fill: #cc79a7; fill-opacity: 0.3; stroke: #cc79a7; stroke-opacity: 0.3"/>
    </g>
   </g>
   <g id="PathCollection_5">
    <g clip-path="url(#p8fbdf00bed)">
     <use xlink:href="#mfee3d6f62e" x="131.38523" y="787.182171" style="fill: #d55e00; stroke: #d55e00"/>
     <use xlink:href="#mfee3d6f62e" x="136.336076" y="773.654743" style="fill: #d55e00; stroke: #d55e00"/>
     <use xlink:href="#mfee3d6f62e" x="135.12531" y="785.591296" style="fill: #d55e00; stroke: #d55e00"/>
     <use xlink:href="#mfee3d6f62e" x="125.975825" y="775.755907" style="fill: #d55e00; stroke: #d55e00"/>
     <use xlink:href="#mfee3d6f62e" x="134.176244" y="777.03381" style="fill: #d55e00; stroke: #d55e00"/>
     <use xlink:href="#mfee3d6f62e" x="137.973131" y="771.070609" style="fill: #d55e00; stroke: #d55e00"/>
     <use xlink:href="#mfee3d6f62e" x="135.119547" y="799.495025" style="fill: #d55e00; stroke: #d55e00"/>
     <use xlink:href="#mfee3d6f62e" x="125.867464" y="770.133927" style="fill: #d55e00; stroke: #d55e00"/>
     <use xlink:href="#mfee3d6f62e" x="130.387823" y="781.110167" style="fill: #d55e00; stroke: #d55e00"/>
     <use xlink:href="#mfee3d6f62e" x="126.335439" y="771.067635" style="fill: #d55e00; stroke: #d55e00"/>
     <use xlink:href="#mfee3d6f62e" x="138.078294" y="775.652566" style="fill: #d55e00; stroke: #d55e00"/>
     <use xlink:href="#mfee3d6f62e" x="132.524904" y="788.922848" style="fill: #d55e00; stroke: #d55e00"/>
     <use xlink:href="#mfee3d6f62e" x="135.323057" y="778.180258" style="fill: #d55e00; stroke: #d55e00"/>
     <use xlink:href="#mfee3d6f62e" x="137.37158" y="779.513006" style="fill: #d55e00; stroke: #d55e00"/>
     <use xlink:href="#mfee3d6f62e" x="137.44225" y="757.368304" style="fill: #d55e00; stroke: #d55e00"/>
     <use xlink:href="#mfee3d6f62e" x="131.407908" y="765.972559" style="fill: #d55e00; stroke: #d55e00"/>
     <use xlink:href="#mfee3d6f62e" x="130.849458" y="788.80732" style="fill: #d55e00; stroke: #d55e00"/>
     <use xlink:href="#mfee3d6f62e" x="134.74785" y="750.749272" style="fill: #d55e00; stroke: #d55e00"/>
     <use xlink:href="#mfee3d6f62e" x="136.196515" y="772.460452" style="fill: #d55e00; stroke: #d55e00"/>
     <use xlink:href="#mfee3d6f62e" x="137.927878" y="783.045381" style="fill: #d55e00; stroke: #d55e00"/>
     <use xlink:href="#mfee3d6f62e" x="126.448096" y="764.619392" style="fill: #d55e00; stroke: #d55e00"/>
     <use xlink:href="#mfee3d6f62e" x="131.826752" y="782.703909" style="fill: #d55e00; stroke: #d55e00"/>
     <use xlink:href="#mfee3d6f62e" x="137.346974" y="765.426936" style="fill: #d55e00; stroke: #d55e00"/>
     <use xlink:href="#mfee3d6f62e" x="127.163442" y="769.820847" style="fill: #d55e00; stroke: #d55e00"/>
     <use xlink:href="#mfee3d6f62e" x="133.473113" y="757.948766" style="fill: #d55e00; stroke: #d55e00"/>
     <use xlink:href="#mfee3d6f62e" x="128.007625" y="770.712414" style="fill: #d55e00; stroke: #d55e00"/>
     <use xlink:href="#mfee3d6f62e" x="134.110442" y="777.256467" style="fill: #d55e00; stroke: #d55e00"/>
     <use xlink:href="#mfee3d6f62e" x="136.855378" y="791.161774" style="fill: #d55e00; stroke: #d55e00"/>
     <use xlink:href="#mfee3d6f62e" x="138.566585" y="781.210494" style="fill: #d55e00; stroke: #d55e00"/>
     <use xlink:href="#mfee3d6f62e" x="130.974789" y="772.085496" style="fill: #d55e00; stroke: #d55e00"/>
     <use xlink:href="#mfee3d6f62e" x="130.700202" y="769.744906" style="fill: #d55e00; stroke: #d55e00"/>
     <use xlink:href="#mfee3d6f62e" x="130.985058" y="771.261344" style="fill: #d55e00; stroke: #d55e00"/>
     <use xlink:href="#mfee3d6f62e" x="129.948627" y="789.911838" style="fill: #d55e00; stroke: #d55e00"/>
     <use xlink:href="#mfee3d6f62e" x="129.124157" y="769.531477" style="fill: #d55e00; stroke: #d55e00"/>
     <use xlink:href="#mfee3d6f62e" x="129.689388" y="770.79716" style="fill: #d55e00; stroke: #d55e00"/>
     <use xlink:href="#mfee3d6f62e" x="137.816686" y="771.359501" style="fill: #d55e00; stroke: #d55e00"/>
     <use xlink:href="#mfee3d6f62e" x="133.433899" y="777.964381" style="fill: #d55e00; stroke: #d55e00"/>
     <use xlink:href="#mfee3d6f62e" x="133.921283" y="772.603255" style="fill: #d55e00; stroke: #d55e00"/>
     <use xlink:href="#mfee3d6f62e" x="135.289838" y="787.164182" style="fill: #d55e00; stroke: #d55e00"/>
    </g>
   </g>
   <g id="PathCollection_6">
    <g clip-path="url(#p8fbdf00bed)">
     <use xlink:href="#mc62affef74" x="274.406311" y="759.863088" style="fill: #0072b2; stroke: #0072b2"/>
     <use xlink:href="#mc62affef74" x="277.891015" y="763.730435" style="fill: #0072b2; stroke: #0072b2"/>
     <use xlink:href="#mc62affef74" x="266.561782" y="769.911751" style="fill: #0072b2; stroke: #0072b2"/>
     <use xlink:href="#mc62affef74" x="269.253614" y="754.350843" style="fill: #0072b2; stroke: #0072b2"/>
     <use xlink:href="#mc62affef74" x="264.629349" y="775.972029" style="fill: #0072b2; stroke: #0072b2"/>
     <use xlink:href="#mc62affef74" x="270.297259" y="749.73894" style="fill: #0072b2; stroke: #0072b2"/>
     <use xlink:href="#mc62affef74" x="270.891338" y="742.32474" style="fill: #0072b2; stroke: #0072b2"/>
     <use xlink:href="#mc62affef74" x="274.10232" y="824.405507" style="fill: #0072b2; stroke: #0072b2"/>
     <use xlink:href="#mc62affef74" x="277.96652" y="720.112986" style="fill: #0072b2; stroke: #0072b2"/>
     <use xlink:href="#mc62affef74" x="268.515634" y="781.104815" style="fill: #0072b2; stroke: #0072b2"/>
     <use xlink:href="#mc62affef74" x="264.603734" y="736.717033" style="fill: #0072b2; stroke: #0072b2"/>
     <use xlink:href="#mc62affef74" x="270.654446" y="755.052837" style="fill: #0072b2; stroke: #0072b2"/>
     <use xlink:href="#mc62affef74" x="278.269015" y="790.616891" style="fill: #0072b2; stroke: #0072b2"/>
     <use xlink:href="#mc62affef74" x="276.988442" y="742.715524" style="fill: #0072b2; stroke: #0072b2"/>
     <use xlink:href="#mc62affef74" x="273.497361" y="777.12059" style="fill: #0072b2; stroke: #0072b2"/>
     <use xlink:href="#mc62affef74" x="274.951989" y="771.481445" style="fill: #0072b2; stroke: #0072b2"/>
     <use xlink:href="#mc62affef74" x="276.196717" y="751.031027" style="fill: #0072b2; stroke: #0072b2"/>
     <use xlink:href="#mc62affef74" x="270.217429" y="787.329923" style="fill: #0072b2; stroke: #0072b2"/>
     <use xlink:href="#mc62affef74" x="265.092354" y="782.633594" style="fill: #0072b2; stroke: #0072b2"/>
     <use xlink:href="#mc62affef74" x="274.81513" y="766.579698" style="fill: #0072b2; stroke: #0072b2"/>
     <use xlink:href="#mc62affef74" x="268.372923" y="828.512622" style="fill: #0072b2; stroke: #0072b2"/>
     <use xlink:href="#mc62affef74" x="275.094236" y="780.479848" style="fill: #0072b2; stroke: #0072b2"/>
     <use xlink:href="#mc62affef74" x="277.47039" y="778.575266" style="fill: #0072b2; stroke: #0072b2"/>
     <use xlink:href="#mc62affef74" x="272.424199" y="764.623808" style="fill: #0072b2; stroke: #0072b2"/>
     <use xlink:href="#mc62affef74" x="266.974106" y="799.97178" style="fill: #0072b2; stroke: #0072b2"/>
     <use xlink:href="#mc62affef74" x="269.720182" y="821.282054" style="fill: #0072b2; stroke: #0072b2"/>
     <use xlink:href="#mc62affef74" x="274.099849" y="753.981993" style="fill: #0072b2; stroke: #0072b2"/>
     <use xlink:href="#mc62affef74" x="273.778546" y="756.887915" style="fill: #0072b2; stroke: #0072b2"/>
     <use xlink:href="#mc62affef74" x="266.022349" y="758.45333" style="fill: #0072b2; stroke: #0072b2"/>
     <use xlink:href="#mc62affef74" x="277.322709" y="776.680775" style="fill: #0072b2; stroke: #0072b2"/>
     <use xlink:href="#mc62affef74" x="269.139661" y="806.824159" style="fill: #0072b2; stroke: #0072b2"/>
     <use xlink:href="#mc62affef74" x="269.491082" y="741.309514" style="fill: #0072b2; stroke: #0072b2"/>
     <use xlink:href="#mc62affef74" x="266.869796" y="724.23158" style="fill: #0072b2; stroke: #0072b2"/>
     <use xlink:href="#mc62affef74" x="275.290612" y="774.24263" style="fill: #0072b2; stroke: #0072b2"/>
     <use xlink:href="#mc62affef74" x="278.319007" y="783.509069" style="fill: #0072b2; stroke: #0072b2"/>
     <use xlink:href="#mc62affef74" x="267.160512" y="801.776179" style="fill: #0072b2; stroke: #0072b2"/>
     <use xlink:href="#mc62affef74" x="270.671666" y="772.965873" style="fill: #0072b2; stroke: #0072b2"/>
     <use xlink:href="#mc62affef74" x="271.824131" y="789.302746" style="fill: #0072b2; stroke: #0072b2"/>
     <use xlink:href="#mc62affef74" x="270.969184" y="805.772308" style="fill: #0072b2; stroke: #0072b2"/>
    </g>
   </g>
   <g id="PathCollection_7">
    <g clip-path="url(#p8fbdf00bed)">
     <use xlink:href="#m34e07cd978" x="410.321063" y="789.444637" style="fill: #009e73; stroke: #009e73"/>
     <use xlink:href="#m34e07cd978" x="409.548608" y="772.738955" style="fill: #009e73; stroke: #009e73"/>
     <use xlink:href="#m34e07cd978" x="409.968581" y="789.427777" style="fill: #009e73; stroke: #009e73"/>
     <use xlink:href="#m34e07cd978" x="406.932311" y="778.843332" style="fill: #009e73; stroke: #009e73"/>
     <use xlink:href="#m34e07cd978" x="405.401273" y="790.485976" style="fill: #009e73; stroke: #009e73"/>
     <use xlink:href="#m34e07cd978" x="410.420533" y="774.049186" style="fill: #009e73; stroke: #009e73"/>
     <use xlink:href="#m34e07cd978" x="414.09128" y="792.700149" style="fill: #009e73; stroke: #009e73"/>
     <use xlink:href="#m34e07cd978" x="414.23868" y="796.177345" style="fill: #009e73; stroke: #009e73"/>
     <use xlink:href="#m34e07cd978" x="414.506959" y="735.146014" style="fill: #009e73; stroke: #009e73"/>
     <use xlink:href="#m34e07cd978" x="413.231185" y="783.405547" style="fill: #009e73; stroke: #009e73"/>
     <use xlink:href="#m34e07cd978" x="408.688571" y="696.950182" style="fill: #009e73; stroke: #009e73"/>
     <use xlink:href="#m34e07cd978" x="404.077179" y="785.404099" style="fill: #009e73; stroke: #009e73"/>
     <use xlink:href="#m34e07cd978" x="416.230112" y="775.01138" style="fill: #009e73; stroke: #009e73"/>
     <use xlink:href="#m34e07cd978" x="416.588542" y="750.367549" style="fill: #009e73; stroke: #009e73"/>
     <use xlink:href="#m34e07cd978" x="405.331074" y="740.025185" style="fill: #009e73; stroke: #009e73"/>
     <use xlink:href="#m34e07cd978" x="413.409728" y="793.20756" style="fill: #009e73; stroke: #009e73"/>
     <use xlink:href="#m34e07cd978" x="411.697188" y="791.71162" style="fill: #009e73; stroke: #009e73"/>
     <use xlink:href="#m34e07cd978" x="415.205629" y="793.527395" style="fill: #009e73; stroke: #009e73"/>
     <use xlink:href="#m34e07cd978" x="409.774938" y="804.330637" style="fill: #009e73; stroke: #009e73"/>
     <use xlink:href="#m34e07cd978" x="415.754456" y="811.948244" style="fill: #009e73; stroke: #009e73"/>
     <use xlink:href="#m34e07cd978" x="414.860967" y="848.587146" style="fill: #009e73; stroke: #009e73"/>
     <use xlink:href="#m34e07cd978" x="407.778688" y="782.668488" style="fill: #009e73; stroke: #009e73"/>
     <use xlink:href="#m34e07cd978" x="411.621709" y="791.635096" style="fill: #009e73; stroke: #009e73"/>
     <use xlink:href="#m34e07cd978" x="413.955336" y="753.564156" style="fill: #009e73; stroke: #009e73"/>
     <use xlink:href="#m34e07cd978" x="404.268618" y="792.815931" style="fill: #009e73; stroke: #009e73"/>
     <use xlink:href="#m34e07cd978" x="405.215316" y="792.985236" style="fill: #009e73; stroke: #009e73"/>
     <use xlink:href="#m34e07cd978" x="405.549962" y="747.910825" style="fill: #009e73; stroke: #009e73"/>
     <use xlink:href="#m34e07cd978" x="410.295546" y="784.8587" style="fill: #009e73; stroke: #009e73"/>
     <use xlink:href="#m34e07cd978" x="403.918105" y="758.997152" style="fill: #009e73; stroke: #009e73"/>
     <use xlink:href="#m34e07cd978" x="411.853153" y="817.099369" style="fill: #009e73; stroke: #009e73"/>
     <use xlink:href="#m34e07cd978" x="405.966959" y="786.54375" style="fill: #009e73; stroke: #009e73"/>
     <use xlink:href="#m34e07cd978" x="408.660443" y="766.956042" style="fill: #009e73; stroke: #009e73"/>
     <use xlink:href="#m34e07cd978" x="404.432445" y="752.134552" style="fill: #009e73; stroke: #009e73"/>
     <use xlink:href="#m34e07cd978" x="406.569859" y="762.395815" style="fill: #009e73; stroke: #009e73"/>
     <use xlink:href="#m34e07cd978" x="414.519825" y="792.986533" style="fill: #009e73; stroke: #009e73"/>
     <use xlink:href="#m34e07cd978" x="408.860966" y="751.432345" style="fill: #009e73; stroke: #009e73"/>
     <use xlink:href="#m34e07cd978" x="412.510672" y="813.479738" style="fill: #009e73; stroke: #009e73"/>
     <use xlink:href="#m34e07cd978" x="410.49354" y="783.834357" style="fill: #009e73; stroke: #009e73"/>
     <use xlink:href="#m34e07cd978" x="406.561827" y="814.97027" style="fill: #009e73; stroke: #009e73"/>
    </g>
   </g>
   <g id="PathCollection_8">
    <g clip-path="url(#p8fbdf00bed)">
     <use xlink:href="#m63bc300f32" x="555.266287" y="769.169714" style="fill: #cc79a7; stroke: #cc79a7"/>
     <use xlink:href="#m63bc300f32" x="547.093326" y="775.928773" style="fill: #cc79a7; stroke: #cc79a7"/>
     <use xlink:href="#m63bc300f32" x="552.320423" y="765.084847" style="fill: #cc79a7; stroke: #cc79a7"/>
     <use xlink:href="#m63bc300f32" x="550.733449" y="774.557773" style="fill: #cc79a7; stroke: #cc79a7"/>
     <use xlink:href="#m63bc300f32" x="544.446064" y="768.784003" style="fill: #cc79a7; stroke: #cc79a7"/>
     <use xlink:href="#m63bc300f32" x="544.114324" y="781.518091" style="fill: #cc79a7; stroke: #cc79a7"/>
     <use xlink:href="#m63bc300f32" x="555.865957" y="772.851473" style="fill: #cc79a7; stroke: #cc79a7"/>
     <use xlink:href="#m63bc300f32" x="552.227968" y="753.338745" style="fill: #cc79a7; stroke: #cc79a7"/>
     <use xlink:href="#m63bc300f32" x="547.373616" y="799.180656" style="fill: #cc79a7; stroke: #cc79a7"/>
     <use xlink:href="#m63bc300f32" x="553.643398" y="765.014068" style="fill: #cc79a7; stroke: #cc79a7"/>
     <use xlink:href="#m63bc300f32" x="548.899846" y="786.225277" style="fill: #cc79a7; stroke: #cc79a7"/>
     <use xlink:href="#m63bc300f32" x="551.670157" y="774.274332" style="fill: #cc79a7; stroke: #cc79a7"/>
     <use xlink:href="#m63bc300f32" x="550.218637" y="765.33739" style="fill: #cc79a7; stroke: #cc79a7"/>
     <use xlink:href="#m63bc300f32" x="551.040098" y="777.272281" style="fill: #cc79a7; stroke: #cc79a7"/>
     <use xlink:href="#m63bc300f32" x="550.550036" y="784.085798" style="fill: #cc79a7; stroke: #cc79a7"/>
     <use xlink:href="#m63bc300f32" x="550.472521" y="774.5135" style="fill: #cc79a7; stroke: #cc79a7"/>
     <use xlink:href="#m63bc300f32" x="553.575646" y="775.276056" style="fill: #cc79a7; stroke: #cc79a7"/>
     <use xlink:href="#m63bc300f32" x="546.600022" y="766.178337" style="fill: #cc79a7; stroke: #cc79a7"/>
     <use xlink:href="#m63bc300f32" x="553.474535" y="762.810163" style="fill: #cc79a7; stroke: #cc79a7"/>
     <use xlink:href="#m63bc300f32" x="556.281525" y="764.788549" style="fill: #cc79a7; stroke: #cc79a7"/>
     <use xlink:href="#m63bc300f32" x="556.29191" y="754.612856" style="fill: #cc79a7; stroke: #cc79a7"/>
     <use xlink:href="#m63bc300f32" x="548.516612" y="756.418517" style="fill: #cc79a7; stroke: #cc79a7"/>
     <use xlink:href="#m63bc300f32" x="547.736159" y="769.494191" style="fill: #cc79a7; stroke: #cc79a7"/>
     <use xlink:href="#m63bc300f32" x="544.364819" y="780.164983" style="fill: #cc79a7; stroke: #cc79a7"/>
     <use xlink:href="#m63bc300f32" x="552.985964" y="767.804551" style="fill: #cc79a7; stroke: #cc79a7"/>
     <use xlink:href="#m63bc300f32" x="551.923507" y="741.702827" style="fill: #cc79a7; stroke: #cc79a7"/>
     <use xlink:href="#m63bc300f32" x="550.521176" y="776.108252" style="fill: #cc79a7; stroke: #cc79a7"/>
     <use xlink:href="#m63bc300f32" x="548.626336" y="763.26997" style="fill: #cc79a7; stroke: #cc79a7"/>
     <use xlink:href="#m63bc300f32" x="553.392376" y="778.708065" style="fill: #cc79a7; stroke: #cc79a7"/>
     <use xlink:href="#m63bc300f32" x="554.864075" y="762.815701" style="fill: #cc79a7; stroke: #cc79a7"/>
     <use xlink:href="#m63bc300f32" x="553.978355" y="768.336722" style="fill: #cc79a7; stroke: #cc79a7"/>
     <use xlink:href="#m63bc300f32" x="543.848516" y="779.514361" style="fill: #cc79a7; stroke: #cc79a7"/>
     <use xlink:href="#m63bc300f32" x="555.426598" y="787.429928" style="fill: #cc79a7; stroke: #cc79a7"/>
     <use xlink:href="#m63bc300f32" x="551.144164" y="773.609193" style="fill: #cc79a7; stroke: #cc79a7"/>
     <use xlink:href="#m63bc300f32" x="544.713109" y="764.304345" style="fill: #cc79a7; stroke: #cc79a7"/>
     <use xlink:href="#m63bc300f32" x="556.30653" y="763.909543" style="fill: #cc79a7; stroke: #cc79a7"/>
     <use xlink:href="#m63bc300f32" x="555.844897" y="760.384426" style="fill: #cc79a7; stroke: #cc79a7"/>
     <use xlink:href="#m63bc300f32" x="554.059067" y="754.771964" style="fill: #cc79a7; stroke: #cc79a7"/>
     <use xlink:href="#m63bc300f32" x="549.776758" y="741.586219" style="fill: #cc79a7; stroke: #cc79a7"/>
    </g>
   </g>
   <g id="patch_12">
    <path d="M 149.2875 781.957202 
L 170.2125 781.957202 
L 170.2125 770.423171 
L 149.2875 770.423171 
L 149.2875 781.957202 
z
" clip-path="url(#p8fbdf00bed)" style="fill: #d55e00; opacity: 0.5; stroke: #000000; stroke-linejoin: miter"/>
   </g>
   <g id="line2d_39">
    <path d="M 159.75 781.957202 
L 159.75 791.161774 
" clip-path="url(#p8fbdf00bed)" style="fill: none; stroke: #000000; stroke-linecap: round"/>
   </g>
   <g id="line2d_40">
    <path d="M 159.75 770.423171 
L 159.75 757.368304 
" clip-path="url(#p8fbdf00bed)" style="fill: none; stroke: #000000; stroke-linecap: round"/>
   </g>
   <g id="line2d_41">
    <path d="M 154.51875 791.161774 
L 164.98125 791.161774 
" clip-path="url(#p8fbdf00bed)" style="fill: none; stroke: #000000; stroke-linecap: round"/>
   </g>
   <g id="line2d_42">
    <path d="M 154.51875 757.368304 
L 164.98125 757.368304 
" clip-path="url(#p8fbdf00bed)" style="fill: none; stroke: #000000; stroke-linecap: round"/>
   </g>
   <g id="patch_13">
    <path d="M 288.7875 785.419496 
L 309.7125 785.419496 
L 309.7125 754.70184 
L 288.7875 754.70184 
L 288.7875 785.419496 
z
" clip-path="url(#p8fbdf00bed)" style="fill: #0072b2; opacity: 0.5; stroke: #000000; stroke-linejoin: miter"/>
   </g>
   <g id="line2d_43">
    <path d="M 299.25 785.419496 
L 299.25 828.512622 
" clip-path="url(#p8fbdf00bed)" style="fill: none; stroke: #000000; stroke-linecap: round"/>
   </g>
   <g id="line2d_44">
    <path d="M 299.25 754.70184 
L 299.25 720.112986 
" clip-path="url(#p8fbdf00bed)" style="fill: none; stroke: #000000; stroke-linecap: round"/>
   </g>
   <g id="line2d_45">
    <path d="M 294.01875 828.512622 
L 304.48125 828.512622 
" clip-path="url(#p8fbdf00bed)" style="fill: none; stroke: #000000; stroke-linecap: round"/>
   </g>
   <g id="line2d_46">
    <path d="M 294.01875 720.112986 
L 304.48125 720.112986 
" clip-path="url(#p8fbdf00bed)" style="fill: none; stroke: #000000; stroke-linecap: round"/>
   </g>
   <g id="patch_14">
    <path d="M 428.2875 792.985885 
L 449.2125 792.985885 
L 449.2125 764.675928 
L 428.2875 764.675928 
L 428.2875 792.985885 
z
" clip-path="url(#p8fbdf00bed)" style="fill: #009e73; opacity: 0.5; stroke: #000000; stroke-linejoin: miter"/>
   </g>
   <g id="line2d_47">
    <path d="M 438.75 792.985885 
L 438.75 817.099369 
" clip-path="url(#p8fbdf00bed)" style="fill: none; stroke: #000000; stroke-linecap: round"/>
   </g>
   <g id="line2d_48">
    <path d="M 438.75 764.675928 
L 438.75 735.146014 
" clip-path="url(#p8fbdf00bed)" style="fill: none; stroke: #000000; stroke-linecap: round"/>
   </g>
   <g id="line2d_49">
    <path d="M 433.51875 817.099369 
L 443.98125 817.099369 
" clip-path="url(#p8fbdf00bed)" style="fill: none; stroke: #000000; stroke-linecap: round"/>
   </g>
   <g id="line2d_50">
    <path d="M 433.51875 735.146014 
L 443.98125 735.146014 
" clip-path="url(#p8fbdf00bed)" style="fill: none; stroke: #000000; stroke-linecap: round"/>
   </g>
   <g id="patch_15">
    <path d="M 567.7875 776.018512 
L 588.7125 776.018512 
L 588.7125 763.589757 
L 567.7875 763.589757 
L 567.7875 776.018512 
z
" clip-path="url(#p8fbdf00bed)" style="fill: #cc79a7; opacity: 0.5; stroke: #000000; stroke-linejoin: miter"/>
   </g>
   <g id="line2d_51">
    <path d="M 578.25 776.018512 
L 578.25 787.429928 
" clip-path="url(#p8fbdf00bed)" style="fill: none; stroke: #000000; stroke-linecap: round"/>
   </g>
   <g id="line2d_52">
    <path d="M 578.25 763.589757 
L 578.25 753.338745 
" clip-path="url(#p8fbdf00bed)" style="fill: none; stroke: #000000; stroke-linecap: round"/>
   </g>
   <g id="line2d_53">
    <path d="M 573.01875 787.429928 
L 583.48125 787.429928 
" clip-path="url(#p8fbdf00bed)" style="fill: none; stroke: #000000; stroke-linecap: round"/>
   </g>
   <g id="line2d_54">
    <path d="M 573.01875 753.338745 
L 583.48125 753.338745 
" clip-path="url(#p8fbdf00bed)" style="fill: none; stroke: #000000; stroke-linecap: round"/>
   </g>
   <g id="line2d_55">
    <path d="M 149.2875 773.654743 
L 170.2125 773.654743 
" clip-path="url(#p8fbdf00bed)" style="fill: none; stroke: #000000"/>
   </g>
   <g id="line2d_56">
    <path d="M 288.7875 772.965873 
L 309.7125 772.965873 
" clip-path="url(#p8fbdf00bed)" style="fill: none; stroke: #000000"/>
   </g>
   <g id="line2d_57">
    <path d="M 428.2875 785.404099 
L 449.2125 785.404099 
" clip-path="url(#p8fbdf00bed)" style="fill: none; stroke: #000000"/>
   </g>
   <g id="line2d_58">
    <path d="M 567.7875 768.784003 
L 588.7125 768.784003 
" clip-path="url(#p8fbdf00bed)" style="fill: none; stroke: #000000"/>
   </g>
   <g id="patch_16">
    <path d="M 90 961.2 
L 90 583.2 
" style="fill: none; stroke: #262626; stroke-width: 1.25; stroke-linejoin: miter; stroke-linecap: square"/>
   </g>
   <g id="patch_17">
    <path d="M 648 961.2 
L 648 583.2 
" style="fill: none; stroke: #262626; stroke-width: 1.25; stroke-linejoin: miter; stroke-linecap: square"/>
   </g>
   <g id="patch_18">
    <path d="M 90 961.2 
L 648 961.2 
" style="fill: none; stroke: #262626; stroke-width: 1.25; stroke-linejoin: miter; stroke-linecap: square"/>
   </g>
   <g id="patch_19">
    <path d="M 90 583.2 
L 648 583.2 
" style="fill: none; stroke: #262626; stroke-width: 1.25; stroke-linejoin: miter; stroke-linecap: square"/>
   </g>
   <g id="text_22">
    <!-- HF-HRV -->
    <g style="fill: #262626" transform="translate(342.681094 563.2) scale(0.14 -0.14)">
     <defs>
      <path id="Arial-BoldMT-48" d="M 469 0 
L 469 4581 
L 1394 4581 
L 1394 2778 
L 3206 2778 
L 3206 4581 
L 4131 4581 
L 4131 0 
L 3206 0 
L 3206 2003 
L 1394 2003 
L 1394 0 
L 469 0 
z
" transform="scale(0.015625)"/>
      <path id="Arial-BoldMT-46" d="M 472 0 
L 472 4581 
L 3613 4581 
L 3613 3806 
L 1397 3806 
L 1397 2722 
L 3309 2722 
L 3309 1947 
L 1397 1947 
L 1397 0 
L 472 0 
z
" transform="scale(0.015625)"/>
      <path id="Arial-BoldMT-2d" d="M 359 1222 
L 359 2100 
L 2084 2100 
L 2084 1222 
L 359 1222 
z
" transform="scale(0.015625)"/>
      <path id="Arial-BoldMT-52" d="M 469 0 
L 469 4581 
L 2416 4581 
Q 3150 4581 3483 4457 
Q 3816 4334 4016 4018 
Q 4216 3703 4216 3297 
Q 4216 2781 3912 2445 
Q 3609 2109 3006 2022 
Q 3306 1847 3501 1637 
Q 3697 1428 4028 894 
L 4588 0 
L 3481 0 
L 2813 997 
Q 2456 1531 2325 1670 
Q 2194 1809 2047 1861 
Q 1900 1913 1581 1913 
L 1394 1913 
L 1394 0 
L 469 0 
z
M 1394 2644 
L 2078 2644 
Q 2744 2644 2909 2700 
Q 3075 2756 3169 2893 
Q 3263 3031 3263 3238 
Q 3263 3469 3139 3611 
Q 3016 3753 2791 3791 
Q 2678 3806 2116 3806 
L 1394 3806 
L 1394 2644 
z
" transform="scale(0.015625)"/>
      <path id="Arial-BoldMT-56" d="M 1634 0 
L -3 4581 
L 1000 4581 
L 2159 1191 
L 3281 4581 
L 4263 4581 
L 2622 0 
L 1634 0 
z
" transform="scale(0.015625)"/>
     </defs>
     <use xlink:href="#Arial-BoldMT-48"/>
     <use xlink:href="#Arial-BoldMT-46" x="72.216797"/>
     <use xlink:href="#Arial-BoldMT-2d" x="133.300781"/>
     <use xlink:href="#Arial-BoldMT-48" x="166.601562"/>
     <use xlink:href="#Arial-BoldMT-52" x="238.818359"/>
     <use xlink:href="#Arial-BoldMT-56" x="309.285156"/>
    </g>
   </g>
  </g>
 </g>
 <defs>
  <clipPath id="p9bf2db5041">
   <rect x="90" y="129.6" width="558" height="378"/>
  </clipPath>
  <clipPath id="p8fbdf00bed">
   <rect x="90" y="583.2" width="558" height="378"/>
  </clipPath>
 </defs>
</svg>
