<?xml version="1.0" encoding="utf-8" standalone="no"?>
<!DOCTYPE svg PUBLIC "-//W3C//DTD SVG 1.1//EN"
  "http://www.w3.org/Graphics/SVG/1.1/DTD/svg11.dtd">
<svg xmlns:xlink="http://www.w3.org/1999/xlink" width="720pt" height="360pt" viewBox="0 0 720 360" xmlns="http://www.w3.org/2000/svg" version="1.1">
 <metadata>
  <rdf:RDF xmlns:dc="http://purl.org/dc/elements/1.1/" xmlns:cc="http://creativecommons.org/ns#" xmlns:rdf="http://www.w3.org/1999/02/22-rdf-syntax-ns#">
   <cc:Work>
    <dc:type rdf:resource="http://purl.org/dc/dcmitype/StillImage"/>
    <dc:date>2024-08-20T17:45:35.240761</dc:date>
    <dc:format>image/svg+xml</dc:format>
    <dc:creator>
     <cc:Agent>
      <dc:title>Matplotlib v3.8.0, https://matplotlib.org/</dc:title>
     </cc:Agent>
    </dc:creator>
   </cc:Work>
  </rdf:RDF>
 </metadata>
 <defs>
  <style type="text/css">*{stroke-linejoin: round; stroke-linecap: butt}</style>
 </defs>
 <g id="figure_1">
  <g id="patch_1">
   <path d="M 0 360 
L 720 360 
L 720 0 
L 0 0 
z
" style="fill: #ffffff"/>
  </g>
  <g id="axes_1">
   <g id="patch_2">
    <path d="M 90 320.4 
L 648 320.4 
L 648 43.2 
L 90 43.2 
z
" style="fill: #ffffff"/>
   </g>
   <g id="matplotlib.axis_1">
    <g id="xtick_1">
     <g id="line2d_1">
      <defs>
       <path id="mfee753d1b5" d="M 0 0 
L 0 6 
" style="stroke: #262626; stroke-width: 1.25"/>
      </defs>
      <g>
       <use xlink:href="#mfee753d1b5" x="159.75" y="320.4" style="fill: #262626; stroke: #262626; stroke-width: 1.25"/>
      </g>
     </g>
     <g id="text_1">
      <!-- State 1 -->
      <g style="fill: #262626" transform="translate(140.7375 338.489375) scale(0.12 -0.12)">
       <defs>
        <path id="ArialMT-53" d="M 288 1472 
L 859 1522 
Q 900 1178 1048 958 
Q 1197 738 1509 602 
Q 1822 466 2213 466 
Q 2559 466 2825 569 
Q 3091 672 3220 851 
Q 3350 1031 3350 1244 
Q 3350 1459 3225 1620 
Q 3100 1781 2813 1891 
Q 2628 1963 1997 2114 
Q 1366 2266 1113 2400 
Q 784 2572 623 2826 
Q 463 3081 463 3397 
Q 463 3744 659 4045 
Q 856 4347 1234 4503 
Q 1613 4659 2075 4659 
Q 2584 4659 2973 4495 
Q 3363 4331 3572 4012 
Q 3781 3694 3797 3291 
L 3216 3247 
Q 3169 3681 2898 3903 
Q 2628 4125 2100 4125 
Q 1550 4125 1298 3923 
Q 1047 3722 1047 3438 
Q 1047 3191 1225 3031 
Q 1400 2872 2139 2705 
Q 2878 2538 3153 2413 
Q 3553 2228 3743 1945 
Q 3934 1663 3934 1294 
Q 3934 928 3725 604 
Q 3516 281 3123 101 
Q 2731 -78 2241 -78 
Q 1619 -78 1198 103 
Q 778 284 539 648 
Q 300 1013 288 1472 
z
" transform="scale(0.015625)"/>
        <path id="ArialMT-74" d="M 1650 503 
L 1731 6 
Q 1494 -44 1306 -44 
Q 1000 -44 831 53 
Q 663 150 594 308 
Q 525 466 525 972 
L 525 2881 
L 113 2881 
L 113 3319 
L 525 3319 
L 525 4141 
L 1084 4478 
L 1084 3319 
L 1650 3319 
L 1650 2881 
L 1084 2881 
L 1084 941 
Q 1084 700 1114 631 
Q 1144 563 1211 522 
Q 1278 481 1403 481 
Q 1497 481 1650 503 
z
" transform="scale(0.015625)"/>
        <path id="ArialMT-61" d="M 2588 409 
Q 2275 144 1986 34 
Q 1697 -75 1366 -75 
Q 819 -75 525 192 
Q 231 459 231 875 
Q 231 1119 342 1320 
Q 453 1522 633 1644 
Q 813 1766 1038 1828 
Q 1203 1872 1538 1913 
Q 2219 1994 2541 2106 
Q 2544 2222 2544 2253 
Q 2544 2597 2384 2738 
Q 2169 2928 1744 2928 
Q 1347 2928 1158 2789 
Q 969 2650 878 2297 
L 328 2372 
Q 403 2725 575 2942 
Q 747 3159 1072 3276 
Q 1397 3394 1825 3394 
Q 2250 3394 2515 3294 
Q 2781 3194 2906 3042 
Q 3031 2891 3081 2659 
Q 3109 2516 3109 2141 
L 3109 1391 
Q 3109 606 3145 398 
Q 3181 191 3288 0 
L 2700 0 
Q 2613 175 2588 409 
z
M 2541 1666 
Q 2234 1541 1622 1453 
Q 1275 1403 1131 1340 
Q 988 1278 909 1158 
Q 831 1038 831 891 
Q 831 666 1001 516 
Q 1172 366 1500 366 
Q 1825 366 2078 508 
Q 2331 650 2450 897 
Q 2541 1088 2541 1459 
L 2541 1666 
z
" transform="scale(0.015625)"/>
        <path id="ArialMT-65" d="M 2694 1069 
L 3275 997 
Q 3138 488 2766 206 
Q 2394 -75 1816 -75 
Q 1088 -75 661 373 
Q 234 822 234 1631 
Q 234 2469 665 2931 
Q 1097 3394 1784 3394 
Q 2450 3394 2872 2941 
Q 3294 2488 3294 1666 
Q 3294 1616 3291 1516 
L 816 1516 
Q 847 969 1125 678 
Q 1403 388 1819 388 
Q 2128 388 2347 550 
Q 2566 713 2694 1069 
z
M 847 1978 
L 2700 1978 
Q 2663 2397 2488 2606 
Q 2219 2931 1791 2931 
Q 1403 2931 1139 2672 
Q 875 2413 847 1978 
z
" transform="scale(0.015625)"/>
        <path id="ArialMT-20" transform="scale(0.015625)"/>
        <path id="ArialMT-31" d="M 2384 0 
L 1822 0 
L 1822 3584 
Q 1619 3391 1289 3197 
Q 959 3003 697 2906 
L 697 3450 
Q 1169 3672 1522 3987 
Q 1875 4303 2022 4600 
L 2384 4600 
L 2384 0 
z
" transform="scale(0.015625)"/>
       </defs>
       <use xlink:href="#ArialMT-53"/>
       <use xlink:href="#ArialMT-74" x="66.699219"/>
       <use xlink:href="#ArialMT-61" x="94.482422"/>
       <use xlink:href="#ArialMT-74" x="150.097656"/>
       <use xlink:href="#ArialMT-65" x="177.880859"/>
       <use xlink:href="#ArialMT-20" x="233.496094"/>
       <use xlink:href="#ArialMT-31" x="261.279297"/>
      </g>
     </g>
    </g>
    <g id="xtick_2">
     <g id="line2d_2">
      <g>
       <use xlink:href="#mfee753d1b5" x="299.25" y="320.4" style="fill: #262626; stroke: #262626; stroke-width: 1.25"/>
      </g>
     </g>
     <g id="text_2">
      <!-- State 2 -->
      <g style="fill: #262626" transform="translate(280.2375 338.489375) scale(0.12 -0.12)">
       <defs>
        <path id="ArialMT-32" d="M 3222 541 
L 3222 0 
L 194 0 
Q 188 203 259 391 
Q 375 700 629 1000 
Q 884 1300 1366 1694 
Q 2113 2306 2375 2664 
Q 2638 3022 2638 3341 
Q 2638 3675 2398 3904 
Q 2159 4134 1775 4134 
Q 1369 4134 1125 3890 
Q 881 3647 878 3216 
L 300 3275 
Q 359 3922 746 4261 
Q 1134 4600 1788 4600 
Q 2447 4600 2831 4234 
Q 3216 3869 3216 3328 
Q 3216 3053 3103 2787 
Q 2991 2522 2730 2228 
Q 2469 1934 1863 1422 
Q 1356 997 1212 845 
Q 1069 694 975 541 
L 3222 541 
z
" transform="scale(0.015625)"/>
       </defs>
       <use xlink:href="#ArialMT-53"/>
       <use xlink:href="#ArialMT-74" x="66.699219"/>
       <use xlink:href="#ArialMT-61" x="94.482422"/>
       <use xlink:href="#ArialMT-74" x="150.097656"/>
       <use xlink:href="#ArialMT-65" x="177.880859"/>
       <use xlink:href="#ArialMT-20" x="233.496094"/>
       <use xlink:href="#ArialMT-32" x="261.279297"/>
      </g>
     </g>
    </g>
    <g id="xtick_3">
     <g id="line2d_3">
      <g>
       <use xlink:href="#mfee753d1b5" x="438.75" y="320.4" style="fill: #262626; stroke: #262626; stroke-width: 1.25"/>
      </g>
     </g>
     <g id="text_3">
      <!-- State 3 -->
      <g style="fill: #262626" transform="translate(419.7375 338.489375) scale(0.12 -0.12)">
       <defs>
        <path id="ArialMT-33" d="M 269 1209 
L 831 1284 
Q 928 806 1161 595 
Q 1394 384 1728 384 
Q 2125 384 2398 659 
Q 2672 934 2672 1341 
Q 2672 1728 2419 1979 
Q 2166 2231 1775 2231 
Q 1616 2231 1378 2169 
L 1441 2663 
Q 1497 2656 1531 2656 
Q 1891 2656 2178 2843 
Q 2466 3031 2466 3422 
Q 2466 3731 2256 3934 
Q 2047 4138 1716 4138 
Q 1388 4138 1169 3931 
Q 950 3725 888 3313 
L 325 3413 
Q 428 3978 793 4289 
Q 1159 4600 1703 4600 
Q 2078 4600 2393 4439 
Q 2709 4278 2876 4000 
Q 3044 3722 3044 3409 
Q 3044 3113 2884 2869 
Q 2725 2625 2413 2481 
Q 2819 2388 3044 2092 
Q 3269 1797 3269 1353 
Q 3269 753 2831 336 
Q 2394 -81 1725 -81 
Q 1122 -81 723 278 
Q 325 638 269 1209 
z
" transform="scale(0.015625)"/>
       </defs>
       <use xlink:href="#ArialMT-53"/>
       <use xlink:href="#ArialMT-74" x="66.699219"/>
       <use xlink:href="#ArialMT-61" x="94.482422"/>
       <use xlink:href="#ArialMT-74" x="150.097656"/>
       <use xlink:href="#ArialMT-65" x="177.880859"/>
       <use xlink:href="#ArialMT-20" x="233.496094"/>
       <use xlink:href="#ArialMT-33" x="261.279297"/>
      </g>
     </g>
    </g>
    <g id="xtick_4">
     <g id="line2d_4">
      <g>
       <use xlink:href="#mfee753d1b5" x="578.25" y="320.4" style="fill: #262626; stroke: #262626; stroke-width: 1.25"/>
      </g>
     </g>
     <g id="text_4">
      <!-- State 4 -->
      <g style="fill: #262626" transform="translate(559.2375 338.489375) scale(0.12 -0.12)">
       <defs>
        <path id="ArialMT-34" d="M 2069 0 
L 2069 1097 
L 81 1097 
L 81 1613 
L 2172 4581 
L 2631 4581 
L 2631 1613 
L 3250 1613 
L 3250 1097 
L 2631 1097 
L 2631 0 
L 2069 0 
z
M 2069 1613 
L 2069 3678 
L 634 1613 
L 2069 1613 
z
" transform="scale(0.015625)"/>
       </defs>
       <use xlink:href="#ArialMT-53"/>
       <use xlink:href="#ArialMT-74" x="66.699219"/>
       <use xlink:href="#ArialMT-61" x="94.482422"/>
       <use xlink:href="#ArialMT-74" x="150.097656"/>
       <use xlink:href="#ArialMT-65" x="177.880859"/>
       <use xlink:href="#ArialMT-20" x="233.496094"/>
       <use xlink:href="#ArialMT-34" x="261.279297"/>
      </g>
     </g>
    </g>
   </g>
   <g id="matplotlib.axis_2">
    <g id="ytick_1">
     <g id="line2d_5">
      <defs>
       <path id="m51ff57067a" d="M 0 0 
L -6 0 
" style="stroke: #262626; stroke-width: 1.25"/>
      </defs>
      <g>
       <use xlink:href="#m51ff57067a" x="90" y="283.176285" style="fill: #262626; stroke: #262626; stroke-width: 1.25"/>
      </g>
     </g>
     <g id="text_5">
      <!-- 0 -->
      <g style="fill: #262626" transform="translate(74.382969 287.113082) scale(0.11 -0.11)">
       <defs>
        <path id="ArialMT-30" d="M 266 2259 
Q 266 3072 433 3567 
Q 600 4063 929 4331 
Q 1259 4600 1759 4600 
Q 2128 4600 2406 4451 
Q 2684 4303 2865 4023 
Q 3047 3744 3150 3342 
Q 3253 2941 3253 2259 
Q 3253 1453 3087 958 
Q 2922 463 2592 192 
Q 2263 -78 1759 -78 
Q 1097 -78 719 397 
Q 266 969 266 2259 
z
M 844 2259 
Q 844 1131 1108 757 
Q 1372 384 1759 384 
Q 2147 384 2411 759 
Q 2675 1134 2675 2259 
Q 2675 3391 2411 3762 
Q 2147 4134 1753 4134 
Q 1366 4134 1134 3806 
Q 844 3388 844 2259 
z
" transform="scale(0.015625)"/>
       </defs>
       <use xlink:href="#ArialMT-30"/>
      </g>
     </g>
    </g>
    <g id="ytick_2">
     <g id="line2d_6">
      <g>
       <use xlink:href="#m51ff57067a" x="90" y="237.479419" style="fill: #262626; stroke: #262626; stroke-width: 1.25"/>
      </g>
     </g>
     <g id="text_6">
      <!-- 50 -->
      <g style="fill: #262626" transform="translate(68.265938 241.416216) scale(0.11 -0.11)">
       <defs>
        <path id="ArialMT-35" d="M 266 1200 
L 856 1250 
Q 922 819 1161 601 
Q 1400 384 1738 384 
Q 2144 384 2425 690 
Q 2706 997 2706 1503 
Q 2706 1984 2436 2262 
Q 2166 2541 1728 2541 
Q 1456 2541 1237 2417 
Q 1019 2294 894 2097 
L 366 2166 
L 809 4519 
L 3088 4519 
L 3088 3981 
L 1259 3981 
L 1013 2750 
Q 1425 3038 1878 3038 
Q 2478 3038 2890 2622 
Q 3303 2206 3303 1553 
Q 3303 931 2941 478 
Q 2500 -78 1738 -78 
Q 1113 -78 717 272 
Q 322 622 266 1200 
z
" transform="scale(0.015625)"/>
       </defs>
       <use xlink:href="#ArialMT-35"/>
       <use xlink:href="#ArialMT-30" x="55.615234"/>
      </g>
     </g>
    </g>
    <g id="ytick_3">
     <g id="line2d_7">
      <g>
       <use xlink:href="#m51ff57067a" x="90" y="191.782554" style="fill: #262626; stroke: #262626; stroke-width: 1.25"/>
      </g>
     </g>
     <g id="text_7">
      <!-- 100 -->
      <g style="fill: #262626" transform="translate(62.148906 195.719351) scale(0.11 -0.11)">
       <use xlink:href="#ArialMT-31"/>
       <use xlink:href="#ArialMT-30" x="55.615234"/>
       <use xlink:href="#ArialMT-30" x="111.230469"/>
      </g>
     </g>
    </g>
    <g id="ytick_4">
     <g id="line2d_8">
      <g>
       <use xlink:href="#m51ff57067a" x="90" y="146.085689" style="fill: #262626; stroke: #262626; stroke-width: 1.25"/>
      </g>
     </g>
     <g id="text_8">
      <!-- 150 -->
      <g style="fill: #262626" transform="translate(62.148906 150.022485) scale(0.11 -0.11)">
       <use xlink:href="#ArialMT-31"/>
       <use xlink:href="#ArialMT-35" x="55.615234"/>
       <use xlink:href="#ArialMT-30" x="111.230469"/>
      </g>
     </g>
    </g>
    <g id="ytick_5">
     <g id="line2d_9">
      <g>
       <use xlink:href="#m51ff57067a" x="90" y="100.388823" style="fill: #262626; stroke: #262626; stroke-width: 1.25"/>
      </g>
     </g>
     <g id="text_9">
      <!-- 200 -->
      <g style="fill: #262626" transform="translate(62.148906 104.32562) scale(0.11 -0.11)">
       <use xlink:href="#ArialMT-32"/>
       <use xlink:href="#ArialMT-30" x="55.615234"/>
       <use xlink:href="#ArialMT-30" x="111.230469"/>
      </g>
     </g>
    </g>
    <g id="ytick_6">
     <g id="line2d_10">
      <g>
       <use xlink:href="#m51ff57067a" x="90" y="54.691958" style="fill: #262626; stroke: #262626; stroke-width: 1.25"/>
      </g>
     </g>
     <g id="text_10">
      <!-- 250 -->
      <g style="fill: #262626" transform="translate(62.148906 58.628755) scale(0.11 -0.11)">
       <use xlink:href="#ArialMT-32"/>
       <use xlink:href="#ArialMT-35" x="55.615234"/>
       <use xlink:href="#ArialMT-30" x="111.230469"/>
      </g>
     </g>
    </g>
    <g id="text_11">
     <!-- Time (s) -->
     <g style="fill: #262626" transform="translate(55.623281 203.569687) rotate(-90) scale(0.12 -0.12)">
      <defs>
       <path id="ArialMT-54" d="M 1659 0 
L 1659 4041 
L 150 4041 
L 150 4581 
L 3781 4581 
L 3781 4041 
L 2266 4041 
L 2266 0 
L 1659 0 
z
" transform="scale(0.015625)"/>
       <path id="ArialMT-69" d="M 425 3934 
L 425 4581 
L 988 4581 
L 988 3934 
L 425 3934 
z
M 425 0 
L 425 3319 
L 988 3319 
L 988 0 
L 425 0 
z
" transform="scale(0.015625)"/>
       <path id="ArialMT-6d" d="M 422 0 
L 422 3319 
L 925 3319 
L 925 2853 
Q 1081 3097 1340 3245 
Q 1600 3394 1931 3394 
Q 2300 3394 2536 3241 
Q 2772 3088 2869 2813 
Q 3263 3394 3894 3394 
Q 4388 3394 4653 3120 
Q 4919 2847 4919 2278 
L 4919 0 
L 4359 0 
L 4359 2091 
Q 4359 2428 4304 2576 
Q 4250 2725 4106 2815 
Q 3963 2906 3769 2906 
Q 3419 2906 3187 2673 
Q 2956 2441 2956 1928 
L 2956 0 
L 2394 0 
L 2394 2156 
Q 2394 2531 2256 2718 
Q 2119 2906 1806 2906 
Q 1569 2906 1367 2781 
Q 1166 2656 1075 2415 
Q 984 2175 984 1722 
L 984 0 
L 422 0 
z
" transform="scale(0.015625)"/>
       <path id="ArialMT-28" d="M 1497 -1347 
Q 1031 -759 709 28 
Q 388 816 388 1659 
Q 388 2403 628 3084 
Q 909 3875 1497 4659 
L 1900 4659 
Q 1522 4009 1400 3731 
Q 1209 3300 1100 2831 
Q 966 2247 966 1656 
Q 966 153 1900 -1347 
L 1497 -1347 
z
" transform="scale(0.015625)"/>
       <path id="ArialMT-73" d="M 197 991 
L 753 1078 
Q 800 744 1014 566 
Q 1228 388 1613 388 
Q 2000 388 2187 545 
Q 2375 703 2375 916 
Q 2375 1106 2209 1216 
Q 2094 1291 1634 1406 
Q 1016 1563 777 1677 
Q 538 1791 414 1992 
Q 291 2194 291 2438 
Q 291 2659 392 2848 
Q 494 3038 669 3163 
Q 800 3259 1026 3326 
Q 1253 3394 1513 3394 
Q 1903 3394 2198 3281 
Q 2494 3169 2634 2976 
Q 2775 2784 2828 2463 
L 2278 2388 
Q 2241 2644 2061 2787 
Q 1881 2931 1553 2931 
Q 1166 2931 1000 2803 
Q 834 2675 834 2503 
Q 834 2394 903 2306 
Q 972 2216 1119 2156 
Q 1203 2125 1616 2013 
Q 2213 1853 2448 1751 
Q 2684 1650 2818 1456 
Q 2953 1263 2953 975 
Q 2953 694 2789 445 
Q 2625 197 2315 61 
Q 2006 -75 1616 -75 
Q 969 -75 630 194 
Q 291 463 197 991 
z
" transform="scale(0.015625)"/>
       <path id="ArialMT-29" d="M 791 -1347 
L 388 -1347 
Q 1322 153 1322 1656 
Q 1322 2244 1188 2822 
Q 1081 3291 891 3722 
Q 769 4003 388 4659 
L 791 4659 
Q 1378 3875 1659 3084 
Q 1900 2403 1900 1659 
Q 1900 816 1576 28 
Q 1253 -759 791 -1347 
z
" transform="scale(0.015625)"/>
      </defs>
      <use xlink:href="#ArialMT-54"/>
      <use xlink:href="#ArialMT-69" x="57.333984"/>
      <use xlink:href="#ArialMT-6d" x="79.550781"/>
      <use xlink:href="#ArialMT-65" x="162.851562"/>
      <use xlink:href="#ArialMT-20" x="218.466797"/>
      <use xlink:href="#ArialMT-28" x="246.25"/>
      <use xlink:href="#ArialMT-73" x="279.550781"/>
      <use xlink:href="#ArialMT-29" x="329.550781"/>
     </g>
    </g>
   </g>
   <g id="PolyCollection_1">
    <defs>
     <path id="m00d314ef15" d="M 160.651685 -52.2 
L 158.848315 -52.2 
L 158.486528 -54.745455 
L 158.023526 -57.290909 
L 157.449274 -59.836364 
L 156.759725 -62.381818 
L 155.959177 -64.927273 
L 155.062174 -67.472727 
L 154.094517 -70.018182 
L 153.092996 -72.563636 
L 152.103617 -75.109091 
L 151.178317 -77.654545 
L 150.370453 -80.2 
L 149.7296 -82.745455 
L 149.296369 -85.290909 
L 149.098029 -87.836364 
L 149.145607 -90.381818 
L 149.432891 -92.927273 
L 149.937477 -95.472727 
L 150.623634 -98.018182 
L 151.446472 -100.563636 
L 152.356759 -103.109091 
L 153.305651 -105.654545 
L 154.248762 -108.2 
L 155.149118 -110.745455 
L 155.978836 -113.290909 
L 156.719571 -115.836364 
L 157.361916 -118.381818 
L 157.904088 -120.927273 
L 158.350223 -123.472727 
L 158.708564 -126.018182 
L 158.989781 -128.563636 
L 159.20556 -131.109091 
L 159.367523 -133.654545 
L 159.486478 -136.2 
L 159.57198 -138.745455 
L 159.632124 -141.290909 
L 159.673522 -143.836364 
L 159.7014 -146.381818 
L 159.719761 -148.927273 
L 159.731586 -151.472727 
L 159.73903 -154.018182 
L 159.743608 -156.563636 
L 159.746359 -159.109091 
L 159.747973 -161.654545 
L 159.748897 -164.2 
L 159.749414 -166.745455 
L 159.749696 -169.290909 
L 159.749846 -171.836364 
L 159.749924 -174.381818 
L 159.749963 -176.927273 
L 159.749983 -179.472727 
L 159.749992 -182.018182 
L 159.749996 -184.563636 
L 159.749998 -187.109091 
L 159.749999 -189.654545 
L 159.749999 -192.2 
L 159.749998 -194.745455 
L 159.749996 -197.290909 
L 159.749991 -199.836364 
L 159.749982 -202.381818 
L 159.749964 -204.927273 
L 159.749929 -207.472727 
L 159.749864 -210.018182 
L 159.749746 -212.563636 
L 159.749538 -215.109091 
L 159.749182 -217.654545 
L 159.748586 -220.2 
L 159.74762 -222.745455 
L 159.746096 -225.290909 
L 159.743759 -227.836364 
L 159.740281 -230.381818 
L 159.73525 -232.927273 
L 159.72819 -235.472727 
L 159.718575 -238.018182 
L 159.70588 -240.563636 
L 159.689644 -243.109091 
L 159.669547 -245.654545 
L 159.645503 -248.2 
L 159.61775 -250.745455 
L 159.58691 -253.290909 
L 159.554028 -255.836364 
L 159.520545 -258.381818 
L 159.488221 -260.927273 
L 159.458989 -263.472727 
L 159.434776 -266.018182 
L 159.417291 -268.563636 
L 159.407826 -271.109091 
L 159.407103 -273.654545 
L 159.415176 -276.2 
L 159.43143 -278.745455 
L 159.454655 -281.290909 
L 159.483197 -283.836364 
L 159.515152 -286.381818 
L 159.548573 -288.927273 
L 159.58166 -291.472727 
L 159.612915 -294.018182 
L 159.641225 -296.563636 
L 159.665898 -299.109091 
L 159.68664 -301.654545 
L 159.703488 -304.2 
L 159.796512 -304.2 
L 159.796512 -304.2 
L 159.81336 -301.654545 
L 159.834102 -299.109091 
L 159.858775 -296.563636 
L 159.887085 -294.018182 
L 159.91834 -291.472727 
L 159.951427 -288.927273 
L 159.984848 -286.381818 
L 160.016803 -283.836364 
L 160.045345 -281.290909 
L 160.06857 -278.745455 
L 160.084824 -276.2 
L 160.092897 -273.654545 
L 160.092174 -271.109091 
L 160.082709 -268.563636 
L 160.065224 -266.018182 
L 160.041011 -263.472727 
L 160.011779 -260.927273 
L 159.979455 -258.381818 
L 159.945972 -255.836364 
L 159.91309 -253.290909 
L 159.88225 -250.745455 
L 159.854497 -248.2 
L 159.830453 -245.654545 
L 159.810356 -243.109091 
L 159.79412 -240.563636 
L 159.781425 -238.018182 
L 159.77181 -235.472727 
L 159.76475 -232.927273 
L 159.759719 -230.381818 
L 159.756241 -227.836364 
L 159.753904 -225.290909 
L 159.75238 -222.745455 
L 159.751414 -220.2 
L 159.750818 -217.654545 
L 159.750462 -215.109091 
L 159.750254 -212.563636 
L 159.750136 -210.018182 
L 159.750071 -207.472727 
L 159.750036 -204.927273 
L 159.750018 -202.381818 
L 159.750009 -199.836364 
L 159.750004 -197.290909 
L 159.750002 -194.745455 
L 159.750001 -192.2 
L 159.750001 -189.654545 
L 159.750002 -187.109091 
L 159.750004 -184.563636 
L 159.750008 -182.018182 
L 159.750017 -179.472727 
L 159.750037 -176.927273 
L 159.750076 -174.381818 
L 159.750154 -171.836364 
L 159.750304 -169.290909 
L 159.750586 -166.745455 
L 159.751103 -164.2 
L 159.752027 -161.654545 
L 159.753641 -159.109091 
L 159.756392 -156.563636 
L 159.76097 -154.018182 
L 159.768414 -151.472727 
L 159.780239 -148.927273 
L 159.7986 -146.381818 
L 159.826478 -143.836364 
L 159.867876 -141.290909 
L 159.92802 -138.745455 
L 160.013522 -136.2 
L 160.132477 -133.654545 
L 160.29444 -131.109091 
L 160.510219 -128.563636 
L 160.791436 -126.018182 
L 161.149777 -123.472727 
L 161.595912 -120.927273 
L 162.138084 -118.381818 
L 162.780429 -115.836364 
L 163.521164 -113.290909 
L 164.350882 -110.745455 
L 165.251238 -108.2 
L 166.194349 -105.654545 
L 167.143241 -103.109091 
L 168.053528 -100.563636 
L 168.876366 -98.018182 
L 169.562523 -95.472727 
L 170.067109 -92.927273 
L 170.354393 -90.381818 
L 170.401971 -87.836364 
L 170.203631 -85.290909 
L 169.7704 -82.745455 
L 169.129547 -80.2 
L 168.321683 -77.654545 
L 167.396383 -75.109091 
L 166.407004 -72.563636 
L 165.405483 -70.018182 
L 164.437826 -67.472727 
L 163.540823 -64.927273 
L 162.740275 -62.381818 
L 162.050726 -59.836364 
L 161.476474 -57.290909 
L 161.013472 -54.745455 
L 160.651685 -52.2 
z
" style="stroke: #d55e00; stroke-width: 2"/>
    </defs>
    <g clip-path="url(#pd0431cb4e0)">
     <use xlink:href="#m00d314ef15" x="0" y="360" style="fill: #d55e00; fill-opacity: 0.3; stroke: #d55e00; stroke-width: 2"/>
    </g>
   </g>
   <g id="PolyCollection_2">
    <defs>
     <path id="m3fdd492598" d="M 300.432637 -80.303802 
L 298.067363 -80.303802 
L 297.646325 -80.942832 
L 297.1111 -81.581863 
L 296.443767 -82.220893 
L 295.627827 -82.859923 
L 294.649732 -83.498953 
L 293.500562 -84.137983 
L 292.177722 -84.777014 
L 290.686487 -85.416044 
L 289.041214 -86.055074 
L 287.266038 -86.694104 
L 285.394899 -87.333134 
L 283.47081 -87.972164 
L 281.544317 -88.611195 
L 279.671226 -89.250225 
L 277.909721 -89.889255 
L 276.317094 -90.528285 
L 274.946335 -91.167315 
L 273.842891 -91.806345 
L 273.041857 -92.445376 
L 272.565848 -93.084406 
L 272.42373 -93.723436 
L 272.610312 -94.362466 
L 273.106991 -95.001496 
L 273.883291 -95.640526 
L 274.899135 -96.279557 
L 276.107635 -96.918587 
L 277.458174 -97.557617 
L 278.899509 -98.196647 
L 280.38267 -98.835677 
L 281.863449 -99.474707 
L 283.304306 -100.113738 
L 284.675621 -100.752768 
L 285.956235 -101.391798 
L 287.133321 -102.030828 
L 288.201667 -102.669858 
L 289.162503 -103.308889 
L 290.022028 -103.947919 
L 290.789795 -104.586949 
L 291.477139 -105.225979 
L 292.095771 -105.865009 
L 292.65664 -106.504039 
L 293.169145 -107.14307 
L 293.640691 -107.7821 
L 294.076585 -108.42113 
L 294.480198 -109.06016 
L 294.853331 -109.69919 
L 295.19668 -110.33822 
L 295.510335 -110.977251 
L 295.794236 -111.616281 
L 296.048544 -112.255311 
L 296.273899 -112.894341 
L 296.471566 -113.533371 
L 296.643483 -114.172401 
L 296.792222 -114.811432 
L 296.920901 -115.450462 
L 297.033038 -116.089492 
L 297.132396 -116.728522 
L 297.222796 -117.367552 
L 297.307919 -118.006583 
L 297.391102 -118.645613 
L 297.475139 -119.284643 
L 297.56209 -119.923673 
L 297.653131 -120.562703 
L 297.74845 -121.201733 
L 297.847226 -121.840764 
L 297.94767 -122.479794 
L 298.047173 -123.118824 
L 298.142516 -123.757854 
L 298.230156 -124.396884 
L 298.306541 -125.035914 
L 298.36845 -125.674945 
L 298.413305 -126.313975 
L 298.439446 -126.953005 
L 298.446329 -127.592035 
L 298.434643 -128.231065 
L 298.406322 -128.870095 
L 298.364459 -129.509126 
L 298.313118 -130.148156 
L 298.257059 -130.787186 
L 298.201402 -131.426216 
L 298.151251 -132.065246 
L 298.111314 -132.704276 
L 298.085552 -133.343307 
L 298.076897 -133.982337 
L 298.087054 -134.621367 
L 298.116422 -135.260397 
L 298.164119 -135.899427 
L 298.228129 -136.538458 
L 298.305532 -137.177488 
L 298.392793 -137.816518 
L 298.486088 -138.455548 
L 298.581612 -139.094578 
L 298.675858 -139.733608 
L 298.765825 -140.372639 
L 298.849164 -141.011669 
L 298.924234 -141.650699 
L 298.990094 -142.289729 
L 299.046438 -142.928759 
L 299.09349 -143.567789 
L 299.40651 -143.567789 
L 299.40651 -143.567789 
L 299.453562 -142.928759 
L 299.509906 -142.289729 
L 299.575766 -141.650699 
L 299.650836 -141.011669 
L 299.734175 -140.372639 
L 299.824142 -139.733608 
L 299.918388 -139.094578 
L 300.013912 -138.455548 
L 300.107207 -137.816518 
L 300.194468 -137.177488 
L 300.271871 -136.538458 
L 300.335881 -135.899427 
L 300.383578 -135.260397 
L 300.412946 -134.621367 
L 300.423103 -133.982337 
L 300.414448 -133.343307 
L 300.388686 -132.704276 
L 300.348749 -132.065246 
L 300.298598 -131.426216 
L 300.242941 -130.787186 
L 300.186882 -130.148156 
L 300.135541 -129.509126 
L 300.093678 -128.870095 
L 300.065357 -128.231065 
L 300.053671 -127.592035 
L 300.060554 -126.953005 
L 300.086695 -126.313975 
L 300.13155 -125.674945 
L 300.193459 -125.035914 
L 300.269844 -124.396884 
L 300.357484 -123.757854 
L 300.452827 -123.118824 
L 300.55233 -122.479794 
L 300.652774 -121.840764 
L 300.75155 -121.201733 
L 300.846869 -120.562703 
L 300.93791 -119.923673 
L 301.024861 -119.284643 
L 301.108898 -118.645613 
L 301.192081 -118.006583 
L 301.277204 -117.367552 
L 301.367604 -116.728522 
L 301.466962 -116.089492 
L 301.579099 -115.450462 
L 301.707778 -114.811432 
L 301.856517 -114.172401 
L 302.028434 -113.533371 
L 302.226101 -112.894341 
L 302.451456 -112.255311 
L 302.705764 -111.616281 
L 302.989665 -110.977251 
L 303.30332 -110.33822 
L 303.646669 -109.69919 
L 304.019802 -109.06016 
L 304.423415 -108.42113 
L 304.859309 -107.7821 
L 305.330855 -107.14307 
L 305.84336 -106.504039 
L 306.404229 -105.865009 
L 307.022861 -105.225979 
L 307.710205 -104.586949 
L 308.477972 -103.947919 
L 309.337497 -103.308889 
L 310.298333 -102.669858 
L 311.366679 -102.030828 
L 312.543765 -101.391798 
L 313.824379 -100.752768 
L 315.195694 -100.113738 
L 316.636551 -99.474707 
L 318.11733 -98.835677 
L 319.600491 -98.196647 
L 321.041826 -97.557617 
L 322.392365 -96.918587 
L 323.600865 -96.279557 
L 324.616709 -95.640526 
L 325.393009 -95.001496 
L 325.889688 -94.362466 
L 326.07627 -93.723436 
L 325.934152 -93.084406 
L 325.458143 -92.445376 
L 324.657109 -91.806345 
L 323.553665 -91.167315 
L 322.182906 -90.528285 
L 320.590279 -89.889255 
L 318.828774 -89.250225 
L 316.955683 -88.611195 
L 315.02919 -87.972164 
L 313.105101 -87.333134 
L 311.233962 -86.694104 
L 309.458786 -86.055074 
L 307.813513 -85.416044 
L 306.322278 -84.777014 
L 304.999438 -84.137983 
L 303.850268 -83.498953 
L 302.872173 -82.859923 
L 302.056233 -82.220893 
L 301.3889 -81.581863 
L 300.853675 -80.942832 
L 300.432637 -80.303802 
z
" style="stroke: #0072b2; stroke-width: 2"/>
    </defs>
    <g clip-path="url(#pd0431cb4e0)">
     <use xlink:href="#m3fdd492598" x="0" y="360" style="fill: #0072b2; fill-opacity: 0.3; stroke: #0072b2; stroke-width: 2"/>
    </g>
   </g>
   <g id="PolyCollection_3">
    <defs>
     <path id="m35cd52b8ad" d="M 439.306598 -69.209695 
L 438.193402 -69.209695 
L 437.972349 -70.590669 
L 437.683794 -71.971643 
L 437.315376 -73.352617 
L 436.855471 -74.733591 
L 436.294399 -76.114565 
L 435.625835 -77.495539 
L 434.848271 -78.876513 
L 433.96639 -80.257487 
L 432.992148 -81.638461 
L 431.945363 -83.019435 
L 430.853637 -84.400409 
L 429.751487 -85.781383 
L 428.678648 -87.162357 
L 427.677641 -88.543331 
L 426.790766 -89.924305 
L 426.056827 -91.305279 
L 425.507939 -92.686253 
L 425.166777 -94.067226 
L 425.044613 -95.4482 
L 425.140377 -96.829174 
L 425.440866 -98.210148 
L 425.922069 -99.591122 
L 426.551442 -100.972096 
L 427.290846 -102.35307 
L 428.099813 -103.734044 
L 428.938746 -105.115018 
L 429.771756 -106.495992 
L 430.568854 -107.876966 
L 431.307363 -109.25794 
L 431.972501 -110.638914 
L 432.557188 -112.019888 
L 433.061208 -113.400862 
L 433.489926 -114.781836 
L 433.852738 -116.16281 
L 434.161465 -117.543783 
L 434.428862 -118.924757 
L 434.66735 -120.305731 
L 434.888053 -121.686705 
L 435.100167 -123.067679 
L 435.310647 -124.448653 
L 435.52415 -125.829627 
L 435.743188 -127.210601 
L 435.968412 -128.591575 
L 436.198961 -129.972549 
L 436.432836 -131.353523 
L 436.667255 -132.734497 
L 436.898983 -134.115471 
L 437.124617 -135.496445 
L 437.340837 -136.877419 
L 437.544611 -138.258393 
L 437.733368 -139.639367 
L 437.905127 -141.02034 
L 438.058576 -142.401314 
L 438.193105 -143.782288 
L 438.308787 -145.163262 
L 438.406309 -146.544236 
L 438.486869 -147.92521 
L 438.55204 -149.306184 
L 438.603632 -150.687158 
L 438.643542 -152.068132 
L 438.673633 -153.449106 
L 438.695625 -154.83008 
L 438.711011 -156.211054 
L 438.721012 -157.592028 
L 438.726543 -158.973002 
L 438.728208 -160.353976 
L 438.726314 -161.73495 
L 438.720897 -163.115924 
L 438.711762 -164.496897 
L 438.698545 -165.877871 
L 438.68078 -167.258845 
L 438.657988 -168.639819 
L 438.629776 -170.020793 
L 438.595945 -171.401767 
L 438.556591 -172.782741 
L 438.512201 -174.163715 
L 438.463714 -175.544689 
L 438.41255 -176.925663 
L 438.360572 -178.306637 
L 438.310007 -179.687611 
L 438.263298 -181.068585 
L 438.222918 -182.449559 
L 438.191157 -183.830533 
L 438.169906 -185.211507 
L 438.160473 -186.592481 
L 438.163449 -187.973455 
L 438.178647 -189.354428 
L 438.205121 -190.735402 
L 438.241265 -192.116376 
L 438.284971 -193.49735 
L 438.333835 -194.878324 
L 438.385374 -196.259298 
L 438.437229 -197.640272 
L 438.487335 -199.021246 
L 438.53404 -200.40222 
L 438.576163 -201.783194 
L 438.613004 -203.164168 
L 438.644301 -204.545142 
L 438.670159 -205.926116 
L 438.829841 -205.926116 
L 438.829841 -205.926116 
L 438.855699 -204.545142 
L 438.886996 -203.164168 
L 438.923837 -201.783194 
L 438.96596 -200.40222 
L 439.012665 -199.021246 
L 439.062771 -197.640272 
L 439.114626 -196.259298 
L 439.166165 -194.878324 
L 439.215029 -193.49735 
L 439.258735 -192.116376 
L 439.294879 -190.735402 
L 439.321353 -189.354428 
L 439.336551 -187.973455 
L 439.339527 -186.592481 
L 439.330094 -185.211507 
L 439.308843 -183.830533 
L 439.277082 -182.449559 
L 439.236702 -181.068585 
L 439.189993 -179.687611 
L 439.139428 -178.306637 
L 439.08745 -176.925663 
L 439.036286 -175.544689 
L 438.987799 -174.163715 
L 438.943409 -172.782741 
L 438.904055 -171.401767 
L 438.870224 -170.020793 
L 438.842012 -168.639819 
L 438.81922 -167.258845 
L 438.801455 -165.877871 
L 438.788238 -164.496897 
L 438.779103 -163.115924 
L 438.773686 -161.73495 
L 438.771792 -160.353976 
L 438.773457 -158.973002 
L 438.778988 -157.592028 
L 438.788989 -156.211054 
L 438.804375 -154.83008 
L 438.826367 -153.449106 
L 438.856458 -152.068132 
L 438.896368 -150.687158 
L 438.94796 -149.306184 
L 439.013131 -147.92521 
L 439.093691 -146.544236 
L 439.191213 -145.163262 
L 439.306895 -143.782288 
L 439.441424 -142.401314 
L 439.594873 -141.02034 
L 439.766632 -139.639367 
L 439.955389 -138.258393 
L 440.159163 -136.877419 
L 440.375383 -135.496445 
L 440.601017 -134.115471 
L 440.832745 -132.734497 
L 441.067164 -131.353523 
L 441.301039 -129.972549 
L 441.531588 -128.591575 
L 441.756812 -127.210601 
L 441.97585 -125.829627 
L 442.189353 -124.448653 
L 442.399833 -123.067679 
L 442.611947 -121.686705 
L 442.83265 -120.305731 
L 443.071138 -118.924757 
L 443.338535 -117.543783 
L 443.647262 -116.16281 
L 444.010074 -114.781836 
L 444.438792 -113.400862 
L 444.942812 -112.019888 
L 445.527499 -110.638914 
L 446.192637 -109.25794 
L 446.931146 -107.876966 
L 447.728244 -106.495992 
L 448.561254 -105.115018 
L 449.400187 -103.734044 
L 450.209154 -102.35307 
L 450.948558 -100.972096 
L 451.577931 -99.591122 
L 452.059134 -98.210148 
L 452.359623 -96.829174 
L 452.455387 -95.4482 
L 452.333223 -94.067226 
L 451.992061 -92.686253 
L 451.443173 -91.305279 
L 450.709234 -89.924305 
L 449.822359 -88.543331 
L 448.821352 -87.162357 
L 447.748513 -85.781383 
L 446.646363 -84.400409 
L 445.554637 -83.019435 
L 444.507852 -81.638461 
L 443.53361 -80.257487 
L 442.651729 -78.876513 
L 441.874165 -77.495539 
L 441.205601 -76.114565 
L 440.644529 -74.733591 
L 440.184624 -73.352617 
L 439.816206 -71.971643 
L 439.527651 -70.590669 
L 439.306598 -69.209695 
z
" style="stroke: #009e73; stroke-width: 2"/>
    </defs>
    <g clip-path="url(#pd0431cb4e0)">
     <use xlink:href="#m35cd52b8ad" x="0" y="360" style="fill: #009e73; fill-opacity: 0.3; stroke: #009e73; stroke-width: 2"/>
    </g>
   </g>
   <g id="PolyCollection_4">
    <defs>
     <path id="m5c77d48ca7" d="M 578.929643 -78.147301 
L 577.570357 -78.147301 
L 577.357824 -78.353508 
L 577.096997 -78.559716 
L 576.7827 -78.765923 
L 576.410779 -78.97213 
L 575.978466 -79.178337 
L 575.48467 -79.384544 
L 574.930118 -79.590752 
L 574.317299 -79.796959 
L 573.650203 -80.003166 
L 572.93382 -80.209373 
L 572.173476 -80.41558 
L 571.374032 -80.621788 
L 570.539088 -80.827995 
L 569.670287 -81.034202 
L 568.766852 -81.240409 
L 567.825447 -81.446616 
L 566.840429 -81.652824 
L 565.80448 -81.859031 
L 564.709564 -82.065238 
L 563.548055 -82.271445 
L 562.313889 -82.477652 
L 561.003529 -82.68386 
L 559.616563 -82.890067 
L 558.155828 -83.096274 
L 556.626996 -83.302481 
L 555.037679 -83.508688 
L 553.396211 -83.714896 
L 551.710316 -83.921103 
L 549.985943 -84.12731 
L 548.226512 -84.333517 
L 546.432797 -84.539724 
L 544.603545 -84.745932 
L 542.73682 -84.952139 
L 540.83191 -85.158346 
L 538.891561 -85.364553 
L 536.924153 -85.57076 
L 534.945482 -85.776968 
L 532.979778 -85.983175 
L 531.059742 -86.189382 
L 529.225469 -86.395589 
L 527.522319 -86.601796 
L 525.997935 -86.808004 
L 524.698747 -87.014211 
L 523.666365 -87.220418 
L 522.934289 -87.426625 
L 522.525328 -87.632832 
L 522.45 -87.83904 
L 522.706056 -88.045247 
L 523.279141 -88.251454 
L 524.144426 -88.457661 
L 525.268981 -88.663868 
L 526.614557 -88.870076 
L 528.140461 -89.076283 
L 529.806224 -89.28249 
L 531.573833 -89.488697 
L 533.409384 -89.694904 
L 535.284106 -89.901112 
L 537.17478 -90.107319 
L 539.063634 -90.313526 
L 540.937837 -90.519733 
L 542.788711 -90.72594 
L 544.610788 -90.932148 
L 546.400827 -91.138355 
L 548.156857 -91.344562 
L 549.877331 -91.550769 
L 551.560436 -91.756976 
L 553.203596 -91.963184 
L 554.803199 -92.169391 
L 556.354551 -92.375598 
L 557.852061 -92.581805 
L 559.289622 -92.788012 
L 560.661139 -92.99422 
L 561.961144 -93.200427 
L 563.185405 -93.406634 
L 564.331458 -93.612841 
L 565.398974 -93.819048 
L 566.389922 -94.025256 
L 567.308477 -94.231463 
L 568.160705 -94.43767 
L 568.954032 -94.643877 
L 569.696588 -94.850084 
L 570.396483 -95.056292 
L 571.061115 -95.262499 
L 571.696582 -95.468706 
L 572.30727 -95.674913 
L 572.895643 -95.88112 
L 573.462255 -96.087328 
L 574.005967 -96.293535 
L 574.524325 -96.499742 
L 575.01404 -96.705949 
L 575.471516 -96.912156 
L 575.893346 -97.118364 
L 576.276748 -97.324571 
L 576.619878 -97.530778 
L 576.922012 -97.736985 
L 577.183604 -97.943192 
L 577.406211 -98.1494 
L 577.592338 -98.355607 
L 577.745215 -98.561814 
L 578.754785 -98.561814 
L 578.754785 -98.561814 
L 578.907662 -98.355607 
L 579.093789 -98.1494 
L 579.316396 -97.943192 
L 579.577988 -97.736985 
L 579.880122 -97.530778 
L 580.223252 -97.324571 
L 580.606654 -97.118364 
L 581.028484 -96.912156 
L 581.48596 -96.705949 
L 581.975675 -96.499742 
L 582.494033 -96.293535 
L 583.037745 -96.087328 
L 583.604357 -95.88112 
L 584.19273 -95.674913 
L 584.803418 -95.468706 
L 585.438885 -95.262499 
L 586.103517 -95.056292 
L 586.803412 -94.850084 
L 587.545968 -94.643877 
L 588.339295 -94.43767 
L 589.191523 -94.231463 
L 590.110078 -94.025256 
L 591.101026 -93.819048 
L 592.168542 -93.612841 
L 593.314595 -93.406634 
L 594.538856 -93.200427 
L 595.838861 -92.99422 
L 597.210378 -92.788012 
L 598.647939 -92.581805 
L 600.145449 -92.375598 
L 601.696801 -92.169391 
L 603.296404 -91.963184 
L 604.939564 -91.756976 
L 606.622669 -91.550769 
L 608.343143 -91.344562 
L 610.099173 -91.138355 
L 611.889212 -90.932148 
L 613.711289 -90.72594 
L 615.562163 -90.519733 
L 617.436366 -90.313526 
L 619.32522 -90.107319 
L 621.215894 -89.901112 
L 623.090616 -89.694904 
L 624.926167 -89.488697 
L 626.693776 -89.28249 
L 628.359539 -89.076283 
L 629.885443 -88.870076 
L 631.231019 -88.663868 
L 632.355574 -88.457661 
L 633.220859 -88.251454 
L 633.793944 -88.045247 
L 634.05 -87.83904 
L 633.974672 -87.632832 
L 633.565711 -87.426625 
L 632.833635 -87.220418 
L 631.801253 -87.014211 
L 630.502065 -86.808004 
L 628.977681 -86.601796 
L 627.274531 -86.395589 
L 625.440258 -86.189382 
L 623.520222 -85.983175 
L 621.554518 -85.776968 
L 619.575847 -85.57076 
L 617.608439 -85.364553 
L 615.66809 -85.158346 
L 613.76318 -84.952139 
L 611.896455 -84.745932 
L 610.067203 -84.539724 
L 608.273488 -84.333517 
L 606.514057 -84.12731 
L 604.789684 -83.921103 
L 603.103789 -83.714896 
L 601.462321 -83.508688 
L 599.873004 -83.302481 
L 598.344172 -83.096274 
L 596.883437 -82.890067 
L 595.496471 -82.68386 
L 594.186111 -82.477652 
L 592.951945 -82.271445 
L 591.790436 -82.065238 
L 590.69552 -81.859031 
L 589.659571 -81.652824 
L 588.674553 -81.446616 
L 587.733148 -81.240409 
L 586.829713 -81.034202 
L 585.960912 -80.827995 
L 585.125968 -80.621788 
L 584.326524 -80.41558 
L 583.56618 -80.209373 
L 582.849797 -80.003166 
L 582.182701 -79.796959 
L 581.569882 -79.590752 
L 581.01533 -79.384544 
L 580.521534 -79.178337 
L 580.089221 -78.97213 
L 579.7173 -78.765923 
L 579.403003 -78.559716 
L 579.142176 -78.353508 
L 578.929643 -78.147301 
z
" style="stroke: #cc79a7; stroke-width: 2"/>
    </defs>
    <g clip-path="url(#pd0431cb4e0)">
     <use xlink:href="#m5c77d48ca7" x="0" y="360" style="fill: #cc79a7; fill-opacity: 0.3; stroke: #cc79a7; stroke-width: 2"/>
    </g>
   </g>
   <g id="patch_3">
    <path d="M 90 320.4 
L 90 43.2 
" style="fill: none; stroke: #262626; stroke-width: 1.25; stroke-linejoin: miter; stroke-linecap: square"/>
   </g>
   <g id="patch_4">
    <path d="M 648 320.4 
L 648 43.2 
" style="fill: none; stroke: #262626; stroke-width: 1.25; stroke-linejoin: miter; stroke-linecap: square"/>
   </g>
   <g id="patch_5">
    <path d="M 90 320.4 
L 648 320.4 
" style="fill: none; stroke: #262626; stroke-width: 1.25; stroke-linejoin: miter; stroke-linecap: square"/>
   </g>
   <g id="patch_6">
    <path d="M 90 43.2 
L 648 43.2 
" style="fill: none; stroke: #262626; stroke-width: 1.25; stroke-linejoin: miter; stroke-linecap: square"/>
   </g>
   <g id="text_12">
    <!-- Lifetime -->
    <g style="fill: #262626" transform="translate(342.16375 37.2) scale(0.14 -0.14)">
     <defs>
      <path id="Arial-BoldMT-4c" d="M 491 0 
L 491 4544 
L 1416 4544 
L 1416 772 
L 3716 772 
L 3716 0 
L 491 0 
z
" transform="scale(0.015625)"/>
      <path id="Arial-BoldMT-69" d="M 459 3769 
L 459 4581 
L 1338 4581 
L 1338 3769 
L 459 3769 
z
M 459 0 
L 459 3319 
L 1338 3319 
L 1338 0 
L 459 0 
z
" transform="scale(0.015625)"/>
      <path id="Arial-BoldMT-66" d="M 75 3319 
L 563 3319 
L 563 3569 
Q 563 3988 652 4194 
Q 741 4400 980 4529 
Q 1219 4659 1584 4659 
Q 1959 4659 2319 4547 
L 2200 3934 
Q 1991 3984 1797 3984 
Q 1606 3984 1523 3895 
Q 1441 3806 1441 3553 
L 1441 3319 
L 2097 3319 
L 2097 2628 
L 1441 2628 
L 1441 0 
L 563 0 
L 563 2628 
L 75 2628 
L 75 3319 
z
" transform="scale(0.015625)"/>
      <path id="Arial-BoldMT-65" d="M 2381 1056 
L 3256 909 
Q 3088 428 2723 176 
Q 2359 -75 1813 -75 
Q 947 -75 531 491 
Q 203 944 203 1634 
Q 203 2459 634 2926 
Q 1066 3394 1725 3394 
Q 2466 3394 2894 2905 
Q 3322 2416 3303 1406 
L 1103 1406 
Q 1113 1016 1316 798 
Q 1519 581 1822 581 
Q 2028 581 2168 693 
Q 2309 806 2381 1056 
z
M 2431 1944 
Q 2422 2325 2234 2523 
Q 2047 2722 1778 2722 
Q 1491 2722 1303 2513 
Q 1116 2303 1119 1944 
L 2431 1944 
z
" transform="scale(0.015625)"/>
      <path id="Arial-BoldMT-74" d="M 1981 3319 
L 1981 2619 
L 1381 2619 
L 1381 1281 
Q 1381 875 1398 808 
Q 1416 741 1477 697 
Q 1538 653 1625 653 
Q 1747 653 1978 738 
L 2053 56 
Q 1747 -75 1359 -75 
Q 1122 -75 931 4 
Q 741 84 652 211 
Q 563 338 528 553 
Q 500 706 500 1172 
L 500 2619 
L 97 2619 
L 97 3319 
L 500 3319 
L 500 3978 
L 1381 4491 
L 1381 3319 
L 1981 3319 
z
" transform="scale(0.015625)"/>
      <path id="Arial-BoldMT-6d" d="M 394 3319 
L 1203 3319 
L 1203 2866 
Q 1638 3394 2238 3394 
Q 2556 3394 2790 3262 
Q 3025 3131 3175 2866 
Q 3394 3131 3647 3262 
Q 3900 3394 4188 3394 
Q 4553 3394 4806 3245 
Q 5059 3097 5184 2809 
Q 5275 2597 5275 2122 
L 5275 0 
L 4397 0 
L 4397 1897 
Q 4397 2391 4306 2534 
Q 4184 2722 3931 2722 
Q 3747 2722 3584 2609 
Q 3422 2497 3350 2280 
Q 3278 2063 3278 1594 
L 3278 0 
L 2400 0 
L 2400 1819 
Q 2400 2303 2353 2443 
Q 2306 2584 2207 2653 
Q 2109 2722 1941 2722 
Q 1738 2722 1575 2612 
Q 1413 2503 1342 2297 
Q 1272 2091 1272 1613 
L 1272 0 
L 394 0 
L 394 3319 
z
" transform="scale(0.015625)"/>
     </defs>
     <use xlink:href="#Arial-BoldMT-4c"/>
     <use xlink:href="#Arial-BoldMT-69" x="61.083984"/>
     <use xlink:href="#Arial-BoldMT-66" x="88.867188"/>
     <use xlink:href="#Arial-BoldMT-65" x="122.167969"/>
     <use xlink:href="#Arial-BoldMT-74" x="177.783203"/>
     <use xlink:href="#Arial-BoldMT-69" x="211.083984"/>
     <use xlink:href="#Arial-BoldMT-6d" x="238.867188"/>
     <use xlink:href="#Arial-BoldMT-65" x="327.783203"/>
    </g>
   </g>
  </g>
 </g>
 <defs>
  <clipPath id="pd0431cb4e0">
   <rect x="90" y="43.2" width="558" height="277.2"/>
  </clipPath>
 </defs>
</svg>
