<?xml version="1.0" encoding="utf-8" standalone="no"?>
<!DOCTYPE svg PUBLIC "-//W3C//DTD SVG 1.1//EN"
  "http://www.w3.org/Graphics/SVG/1.1/DTD/svg11.dtd">
<svg xmlns:xlink="http://www.w3.org/1999/xlink" width="720pt" height="360pt" viewBox="0 0 720 360" xmlns="http://www.w3.org/2000/svg" version="1.1">
 <metadata>
  <rdf:RDF xmlns:dc="http://purl.org/dc/elements/1.1/" xmlns:cc="http://creativecommons.org/ns#" xmlns:rdf="http://www.w3.org/1999/02/22-rdf-syntax-ns#">
   <cc:Work>
    <dc:type rdf:resource="http://purl.org/dc/dcmitype/StillImage"/>
    <dc:date>2024-08-20T17:45:35.336284</dc:date>
    <dc:format>image/svg+xml</dc:format>
    <dc:creator>
     <cc:Agent>
      <dc:title>Matplotlib v3.8.0, https://matplotlib.org/</dc:title>
     </cc:Agent>
    </dc:creator>
   </cc:Work>
  </rdf:RDF>
 </metadata>
 <defs>
  <style type="text/css">*{stroke-linejoin: round; stroke-linecap: butt}</style>
 </defs>
 <g id="figure_1">
  <g id="patch_1">
   <path d="M 0 360 
L 720 360 
L 720 0 
L 0 0 
z
" style="fill: #ffffff"/>
  </g>
  <g id="axes_1">
   <g id="patch_2">
    <path d="M 90 320.4 
L 648 320.4 
L 648 43.2 
L 90 43.2 
z
" style="fill: #ffffff"/>
   </g>
   <g id="matplotlib.axis_1">
    <g id="xtick_1">
     <g id="line2d_1">
      <defs>
       <path id="m26785fe645" d="M 0 0 
L 0 6 
" style="stroke: #262626; stroke-width: 1.25"/>
      </defs>
      <g>
       <use xlink:href="#m26785fe645" x="159.75" y="320.4" style="fill: #262626; stroke: #262626; stroke-width: 1.25"/>
      </g>
     </g>
     <g id="text_1">
      <!-- State 1 -->
      <g style="fill: #262626" transform="translate(140.7375 338.489375) scale(0.12 -0.12)">
       <defs>
        <path id="ArialMT-53" d="M 288 1472 
L 859 1522 
Q 900 1178 1048 958 
Q 1197 738 1509 602 
Q 1822 466 2213 466 
Q 2559 466 2825 569 
Q 3091 672 3220 851 
Q 3350 1031 3350 1244 
Q 3350 1459 3225 1620 
Q 3100 1781 2813 1891 
Q 2628 1963 1997 2114 
Q 1366 2266 1113 2400 
Q 784 2572 623 2826 
Q 463 3081 463 3397 
Q 463 3744 659 4045 
Q 856 4347 1234 4503 
Q 1613 4659 2075 4659 
Q 2584 4659 2973 4495 
Q 3363 4331 3572 4012 
Q 3781 3694 3797 3291 
L 3216 3247 
Q 3169 3681 2898 3903 
Q 2628 4125 2100 4125 
Q 1550 4125 1298 3923 
Q 1047 3722 1047 3438 
Q 1047 3191 1225 3031 
Q 1400 2872 2139 2705 
Q 2878 2538 3153 2413 
Q 3553 2228 3743 1945 
Q 3934 1663 3934 1294 
Q 3934 928 3725 604 
Q 3516 281 3123 101 
Q 2731 -78 2241 -78 
Q 1619 -78 1198 103 
Q 778 284 539 648 
Q 300 1013 288 1472 
z
" transform="scale(0.015625)"/>
        <path id="ArialMT-74" d="M 1650 503 
L 1731 6 
Q 1494 -44 1306 -44 
Q 1000 -44 831 53 
Q 663 150 594 308 
Q 525 466 525 972 
L 525 2881 
L 113 2881 
L 113 3319 
L 525 3319 
L 525 4141 
L 1084 4478 
L 1084 3319 
L 1650 3319 
L 1650 2881 
L 1084 2881 
L 1084 941 
Q 1084 700 1114 631 
Q 1144 563 1211 522 
Q 1278 481 1403 481 
Q 1497 481 1650 503 
z
" transform="scale(0.015625)"/>
        <path id="ArialMT-61" d="M 2588 409 
Q 2275 144 1986 34 
Q 1697 -75 1366 -75 
Q 819 -75 525 192 
Q 231 459 231 875 
Q 231 1119 342 1320 
Q 453 1522 633 1644 
Q 813 1766 1038 1828 
Q 1203 1872 1538 1913 
Q 2219 1994 2541 2106 
Q 2544 2222 2544 2253 
Q 2544 2597 2384 2738 
Q 2169 2928 1744 2928 
Q 1347 2928 1158 2789 
Q 969 2650 878 2297 
L 328 2372 
Q 403 2725 575 2942 
Q 747 3159 1072 3276 
Q 1397 3394 1825 3394 
Q 2250 3394 2515 3294 
Q 2781 3194 2906 3042 
Q 3031 2891 3081 2659 
Q 3109 2516 3109 2141 
L 3109 1391 
Q 3109 606 3145 398 
Q 3181 191 3288 0 
L 2700 0 
Q 2613 175 2588 409 
z
M 2541 1666 
Q 2234 1541 1622 1453 
Q 1275 1403 1131 1340 
Q 988 1278 909 1158 
Q 831 1038 831 891 
Q 831 666 1001 516 
Q 1172 366 1500 366 
Q 1825 366 2078 508 
Q 2331 650 2450 897 
Q 2541 1088 2541 1459 
L 2541 1666 
z
" transform="scale(0.015625)"/>
        <path id="ArialMT-65" d="M 2694 1069 
L 3275 997 
Q 3138 488 2766 206 
Q 2394 -75 1816 -75 
Q 1088 -75 661 373 
Q 234 822 234 1631 
Q 234 2469 665 2931 
Q 1097 3394 1784 3394 
Q 2450 3394 2872 2941 
Q 3294 2488 3294 1666 
Q 3294 1616 3291 1516 
L 816 1516 
Q 847 969 1125 678 
Q 1403 388 1819 388 
Q 2128 388 2347 550 
Q 2566 713 2694 1069 
z
M 847 1978 
L 2700 1978 
Q 2663 2397 2488 2606 
Q 2219 2931 1791 2931 
Q 1403 2931 1139 2672 
Q 875 2413 847 1978 
z
" transform="scale(0.015625)"/>
        <path id="ArialMT-20" transform="scale(0.015625)"/>
        <path id="ArialMT-31" d="M 2384 0 
L 1822 0 
L 1822 3584 
Q 1619 3391 1289 3197 
Q 959 3003 697 2906 
L 697 3450 
Q 1169 3672 1522 3987 
Q 1875 4303 2022 4600 
L 2384 4600 
L 2384 0 
z
" transform="scale(0.015625)"/>
       </defs>
       <use xlink:href="#ArialMT-53"/>
       <use xlink:href="#ArialMT-74" x="66.699219"/>
       <use xlink:href="#ArialMT-61" x="94.482422"/>
       <use xlink:href="#ArialMT-74" x="150.097656"/>
       <use xlink:href="#ArialMT-65" x="177.880859"/>
       <use xlink:href="#ArialMT-20" x="233.496094"/>
       <use xlink:href="#ArialMT-31" x="261.279297"/>
      </g>
     </g>
    </g>
    <g id="xtick_2">
     <g id="line2d_2">
      <g>
       <use xlink:href="#m26785fe645" x="299.25" y="320.4" style="fill: #262626; stroke: #262626; stroke-width: 1.25"/>
      </g>
     </g>
     <g id="text_2">
      <!-- State 2 -->
      <g style="fill: #262626" transform="translate(280.2375 338.489375) scale(0.12 -0.12)">
       <defs>
        <path id="ArialMT-32" d="M 3222 541 
L 3222 0 
L 194 0 
Q 188 203 259 391 
Q 375 700 629 1000 
Q 884 1300 1366 1694 
Q 2113 2306 2375 2664 
Q 2638 3022 2638 3341 
Q 2638 3675 2398 3904 
Q 2159 4134 1775 4134 
Q 1369 4134 1125 3890 
Q 881 3647 878 3216 
L 300 3275 
Q 359 3922 746 4261 
Q 1134 4600 1788 4600 
Q 2447 4600 2831 4234 
Q 3216 3869 3216 3328 
Q 3216 3053 3103 2787 
Q 2991 2522 2730 2228 
Q 2469 1934 1863 1422 
Q 1356 997 1212 845 
Q 1069 694 975 541 
L 3222 541 
z
" transform="scale(0.015625)"/>
       </defs>
       <use xlink:href="#ArialMT-53"/>
       <use xlink:href="#ArialMT-74" x="66.699219"/>
       <use xlink:href="#ArialMT-61" x="94.482422"/>
       <use xlink:href="#ArialMT-74" x="150.097656"/>
       <use xlink:href="#ArialMT-65" x="177.880859"/>
       <use xlink:href="#ArialMT-20" x="233.496094"/>
       <use xlink:href="#ArialMT-32" x="261.279297"/>
      </g>
     </g>
    </g>
    <g id="xtick_3">
     <g id="line2d_3">
      <g>
       <use xlink:href="#m26785fe645" x="438.75" y="320.4" style="fill: #262626; stroke: #262626; stroke-width: 1.25"/>
      </g>
     </g>
     <g id="text_3">
      <!-- State 3 -->
      <g style="fill: #262626" transform="translate(419.7375 338.489375) scale(0.12 -0.12)">
       <defs>
        <path id="ArialMT-33" d="M 269 1209 
L 831 1284 
Q 928 806 1161 595 
Q 1394 384 1728 384 
Q 2125 384 2398 659 
Q 2672 934 2672 1341 
Q 2672 1728 2419 1979 
Q 2166 2231 1775 2231 
Q 1616 2231 1378 2169 
L 1441 2663 
Q 1497 2656 1531 2656 
Q 1891 2656 2178 2843 
Q 2466 3031 2466 3422 
Q 2466 3731 2256 3934 
Q 2047 4138 1716 4138 
Q 1388 4138 1169 3931 
Q 950 3725 888 3313 
L 325 3413 
Q 428 3978 793 4289 
Q 1159 4600 1703 4600 
Q 2078 4600 2393 4439 
Q 2709 4278 2876 4000 
Q 3044 3722 3044 3409 
Q 3044 3113 2884 2869 
Q 2725 2625 2413 2481 
Q 2819 2388 3044 2092 
Q 3269 1797 3269 1353 
Q 3269 753 2831 336 
Q 2394 -81 1725 -81 
Q 1122 -81 723 278 
Q 325 638 269 1209 
z
" transform="scale(0.015625)"/>
       </defs>
       <use xlink:href="#ArialMT-53"/>
       <use xlink:href="#ArialMT-74" x="66.699219"/>
       <use xlink:href="#ArialMT-61" x="94.482422"/>
       <use xlink:href="#ArialMT-74" x="150.097656"/>
       <use xlink:href="#ArialMT-65" x="177.880859"/>
       <use xlink:href="#ArialMT-20" x="233.496094"/>
       <use xlink:href="#ArialMT-33" x="261.279297"/>
      </g>
     </g>
    </g>
    <g id="xtick_4">
     <g id="line2d_4">
      <g>
       <use xlink:href="#m26785fe645" x="578.25" y="320.4" style="fill: #262626; stroke: #262626; stroke-width: 1.25"/>
      </g>
     </g>
     <g id="text_4">
      <!-- State 4 -->
      <g style="fill: #262626" transform="translate(559.2375 338.489375) scale(0.12 -0.12)">
       <defs>
        <path id="ArialMT-34" d="M 2069 0 
L 2069 1097 
L 81 1097 
L 81 1613 
L 2172 4581 
L 2631 4581 
L 2631 1613 
L 3250 1613 
L 3250 1097 
L 2631 1097 
L 2631 0 
L 2069 0 
z
M 2069 1613 
L 2069 3678 
L 634 1613 
L 2069 1613 
z
" transform="scale(0.015625)"/>
       </defs>
       <use xlink:href="#ArialMT-53"/>
       <use xlink:href="#ArialMT-74" x="66.699219"/>
       <use xlink:href="#ArialMT-61" x="94.482422"/>
       <use xlink:href="#ArialMT-74" x="150.097656"/>
       <use xlink:href="#ArialMT-65" x="177.880859"/>
       <use xlink:href="#ArialMT-20" x="233.496094"/>
       <use xlink:href="#ArialMT-34" x="261.279297"/>
      </g>
     </g>
    </g>
   </g>
   <g id="matplotlib.axis_2">
    <g id="ytick_1">
     <g id="line2d_5">
      <defs>
       <path id="mcc04b575e6" d="M 0 0 
L -6 0 
" style="stroke: #262626; stroke-width: 1.25"/>
      </defs>
      <g>
       <use xlink:href="#mcc04b575e6" x="90" y="320.37892" style="fill: #262626; stroke: #262626; stroke-width: 1.25"/>
      </g>
     </g>
     <g id="text_5">
      <!-- −50 -->
      <g style="fill: #262626" transform="translate(61.84125 324.315717) scale(0.11 -0.11)">
       <defs>
        <path id="ArialMT-2212" d="M 3381 1997 
L 356 1997 
L 356 2522 
L 3381 2522 
L 3381 1997 
z
" transform="scale(0.015625)"/>
        <path id="ArialMT-35" d="M 266 1200 
L 856 1250 
Q 922 819 1161 601 
Q 1400 384 1738 384 
Q 2144 384 2425 690 
Q 2706 997 2706 1503 
Q 2706 1984 2436 2262 
Q 2166 2541 1728 2541 
Q 1456 2541 1237 2417 
Q 1019 2294 894 2097 
L 366 2166 
L 809 4519 
L 3088 4519 
L 3088 3981 
L 1259 3981 
L 1013 2750 
Q 1425 3038 1878 3038 
Q 2478 3038 2890 2622 
Q 3303 2206 3303 1553 
Q 3303 931 2941 478 
Q 2500 -78 1738 -78 
Q 1113 -78 717 272 
Q 322 622 266 1200 
z
" transform="scale(0.015625)"/>
        <path id="ArialMT-30" d="M 266 2259 
Q 266 3072 433 3567 
Q 600 4063 929 4331 
Q 1259 4600 1759 4600 
Q 2128 4600 2406 4451 
Q 2684 4303 2865 4023 
Q 3047 3744 3150 3342 
Q 3253 2941 3253 2259 
Q 3253 1453 3087 958 
Q 2922 463 2592 192 
Q 2263 -78 1759 -78 
Q 1097 -78 719 397 
Q 266 969 266 2259 
z
M 844 2259 
Q 844 1131 1108 757 
Q 1372 384 1759 384 
Q 2147 384 2411 759 
Q 2675 1134 2675 2259 
Q 2675 3391 2411 3762 
Q 2147 4134 1753 4134 
Q 1366 4134 1134 3806 
Q 844 3388 844 2259 
z
" transform="scale(0.015625)"/>
       </defs>
       <use xlink:href="#ArialMT-2212"/>
       <use xlink:href="#ArialMT-35" x="58.398438"/>
       <use xlink:href="#ArialMT-30" x="114.013672"/>
      </g>
     </g>
    </g>
    <g id="ytick_2">
     <g id="line2d_6">
      <g>
       <use xlink:href="#mcc04b575e6" x="90" y="288.717504" style="fill: #262626; stroke: #262626; stroke-width: 1.25"/>
      </g>
     </g>
     <g id="text_6">
      <!-- 0 -->
      <g style="fill: #262626" transform="translate(74.382969 292.6543) scale(0.11 -0.11)">
       <use xlink:href="#ArialMT-30"/>
      </g>
     </g>
    </g>
    <g id="ytick_3">
     <g id="line2d_7">
      <g>
       <use xlink:href="#mcc04b575e6" x="90" y="257.056087" style="fill: #262626; stroke: #262626; stroke-width: 1.25"/>
      </g>
     </g>
     <g id="text_7">
      <!-- 50 -->
      <g style="fill: #262626" transform="translate(68.265938 260.992884) scale(0.11 -0.11)">
       <use xlink:href="#ArialMT-35"/>
       <use xlink:href="#ArialMT-30" x="55.615234"/>
      </g>
     </g>
    </g>
    <g id="ytick_4">
     <g id="line2d_8">
      <g>
       <use xlink:href="#mcc04b575e6" x="90" y="225.394671" style="fill: #262626; stroke: #262626; stroke-width: 1.25"/>
      </g>
     </g>
     <g id="text_8">
      <!-- 100 -->
      <g style="fill: #262626" transform="translate(62.148906 229.331467) scale(0.11 -0.11)">
       <use xlink:href="#ArialMT-31"/>
       <use xlink:href="#ArialMT-30" x="55.615234"/>
       <use xlink:href="#ArialMT-30" x="111.230469"/>
      </g>
     </g>
    </g>
    <g id="ytick_5">
     <g id="line2d_9">
      <g>
       <use xlink:href="#mcc04b575e6" x="90" y="193.733254" style="fill: #262626; stroke: #262626; stroke-width: 1.25"/>
      </g>
     </g>
     <g id="text_9">
      <!-- 150 -->
      <g style="fill: #262626" transform="translate(62.148906 197.670051) scale(0.11 -0.11)">
       <use xlink:href="#ArialMT-31"/>
       <use xlink:href="#ArialMT-35" x="55.615234"/>
       <use xlink:href="#ArialMT-30" x="111.230469"/>
      </g>
     </g>
    </g>
    <g id="ytick_6">
     <g id="line2d_10">
      <g>
       <use xlink:href="#mcc04b575e6" x="90" y="162.071838" style="fill: #262626; stroke: #262626; stroke-width: 1.25"/>
      </g>
     </g>
     <g id="text_10">
      <!-- 200 -->
      <g style="fill: #262626" transform="translate(62.148906 166.008634) scale(0.11 -0.11)">
       <use xlink:href="#ArialMT-32"/>
       <use xlink:href="#ArialMT-30" x="55.615234"/>
       <use xlink:href="#ArialMT-30" x="111.230469"/>
      </g>
     </g>
    </g>
    <g id="ytick_7">
     <g id="line2d_11">
      <g>
       <use xlink:href="#mcc04b575e6" x="90" y="130.410421" style="fill: #262626; stroke: #262626; stroke-width: 1.25"/>
      </g>
     </g>
     <g id="text_11">
      <!-- 250 -->
      <g style="fill: #262626" transform="translate(62.148906 134.347218) scale(0.11 -0.11)">
       <use xlink:href="#ArialMT-32"/>
       <use xlink:href="#ArialMT-35" x="55.615234"/>
       <use xlink:href="#ArialMT-30" x="111.230469"/>
      </g>
     </g>
    </g>
    <g id="ytick_8">
     <g id="line2d_12">
      <g>
       <use xlink:href="#mcc04b575e6" x="90" y="98.749005" style="fill: #262626; stroke: #262626; stroke-width: 1.25"/>
      </g>
     </g>
     <g id="text_12">
      <!-- 300 -->
      <g style="fill: #262626" transform="translate(62.148906 102.685801) scale(0.11 -0.11)">
       <use xlink:href="#ArialMT-33"/>
       <use xlink:href="#ArialMT-30" x="55.615234"/>
       <use xlink:href="#ArialMT-30" x="111.230469"/>
      </g>
     </g>
    </g>
    <g id="ytick_9">
     <g id="line2d_13">
      <g>
       <use xlink:href="#mcc04b575e6" x="90" y="67.087588" style="fill: #262626; stroke: #262626; stroke-width: 1.25"/>
      </g>
     </g>
     <g id="text_13">
      <!-- 350 -->
      <g style="fill: #262626" transform="translate(62.148906 71.024385) scale(0.11 -0.11)">
       <use xlink:href="#ArialMT-33"/>
       <use xlink:href="#ArialMT-35" x="55.615234"/>
       <use xlink:href="#ArialMT-30" x="111.230469"/>
      </g>
     </g>
    </g>
    <g id="text_14">
     <!-- Time (s) -->
     <g style="fill: #262626" transform="translate(55.315625 203.569687) rotate(-90) scale(0.12 -0.12)">
      <defs>
       <path id="ArialMT-54" d="M 1659 0 
L 1659 4041 
L 150 4041 
L 150 4581 
L 3781 4581 
L 3781 4041 
L 2266 4041 
L 2266 0 
L 1659 0 
z
" transform="scale(0.015625)"/>
       <path id="ArialMT-69" d="M 425 3934 
L 425 4581 
L 988 4581 
L 988 3934 
L 425 3934 
z
M 425 0 
L 425 3319 
L 988 3319 
L 988 0 
L 425 0 
z
" transform="scale(0.015625)"/>
       <path id="ArialMT-6d" d="M 422 0 
L 422 3319 
L 925 3319 
L 925 2853 
Q 1081 3097 1340 3245 
Q 1600 3394 1931 3394 
Q 2300 3394 2536 3241 
Q 2772 3088 2869 2813 
Q 3263 3394 3894 3394 
Q 4388 3394 4653 3120 
Q 4919 2847 4919 2278 
L 4919 0 
L 4359 0 
L 4359 2091 
Q 4359 2428 4304 2576 
Q 4250 2725 4106 2815 
Q 3963 2906 3769 2906 
Q 3419 2906 3187 2673 
Q 2956 2441 2956 1928 
L 2956 0 
L 2394 0 
L 2394 2156 
Q 2394 2531 2256 2718 
Q 2119 2906 1806 2906 
Q 1569 2906 1367 2781 
Q 1166 2656 1075 2415 
Q 984 2175 984 1722 
L 984 0 
L 422 0 
z
" transform="scale(0.015625)"/>
       <path id="ArialMT-28" d="M 1497 -1347 
Q 1031 -759 709 28 
Q 388 816 388 1659 
Q 388 2403 628 3084 
Q 909 3875 1497 4659 
L 1900 4659 
Q 1522 4009 1400 3731 
Q 1209 3300 1100 2831 
Q 966 2247 966 1656 
Q 966 153 1900 -1347 
L 1497 -1347 
z
" transform="scale(0.015625)"/>
       <path id="ArialMT-73" d="M 197 991 
L 753 1078 
Q 800 744 1014 566 
Q 1228 388 1613 388 
Q 2000 388 2187 545 
Q 2375 703 2375 916 
Q 2375 1106 2209 1216 
Q 2094 1291 1634 1406 
Q 1016 1563 777 1677 
Q 538 1791 414 1992 
Q 291 2194 291 2438 
Q 291 2659 392 2848 
Q 494 3038 669 3163 
Q 800 3259 1026 3326 
Q 1253 3394 1513 3394 
Q 1903 3394 2198 3281 
Q 2494 3169 2634 2976 
Q 2775 2784 2828 2463 
L 2278 2388 
Q 2241 2644 2061 2787 
Q 1881 2931 1553 2931 
Q 1166 2931 1000 2803 
Q 834 2675 834 2503 
Q 834 2394 903 2306 
Q 972 2216 1119 2156 
Q 1203 2125 1616 2013 
Q 2213 1853 2448 1751 
Q 2684 1650 2818 1456 
Q 2953 1263 2953 975 
Q 2953 694 2789 445 
Q 2625 197 2315 61 
Q 2006 -75 1616 -75 
Q 969 -75 630 194 
Q 291 463 197 991 
z
" transform="scale(0.015625)"/>
       <path id="ArialMT-29" d="M 791 -1347 
L 388 -1347 
Q 1322 153 1322 1656 
Q 1322 2244 1188 2822 
Q 1081 3291 891 3722 
Q 769 4003 388 4659 
L 791 4659 
Q 1378 3875 1659 3084 
Q 1900 2403 1900 1659 
Q 1900 816 1576 28 
Q 1253 -759 791 -1347 
z
" transform="scale(0.015625)"/>
      </defs>
      <use xlink:href="#ArialMT-54"/>
      <use xlink:href="#ArialMT-69" x="57.333984"/>
      <use xlink:href="#ArialMT-6d" x="79.550781"/>
      <use xlink:href="#ArialMT-65" x="162.851562"/>
      <use xlink:href="#ArialMT-20" x="218.466797"/>
      <use xlink:href="#ArialMT-28" x="246.25"/>
      <use xlink:href="#ArialMT-73" x="279.550781"/>
      <use xlink:href="#ArialMT-29" x="329.550781"/>
     </g>
    </g>
   </g>
   <g id="PolyCollection_1">
    <defs>
     <path id="m770fabadd9" d="M 161.5442 -75.235608 
L 157.9558 -75.235608 
L 157.353759 -75.800026 
L 156.592586 -76.364445 
L 155.64501 -76.928864 
L 154.483633 -77.493283 
L 153.082405 -78.057701 
L 151.4184 -78.62212 
L 149.473811 -79.186539 
L 147.238052 -79.750958 
L 144.709815 -80.315377 
L 141.898923 -80.879795 
L 138.82778 -81.444214 
L 135.532239 -82.008633 
L 132.061736 -82.573052 
L 128.478572 -83.137471 
L 124.856277 -83.701889 
L 121.277098 -84.266308 
L 117.828679 -84.830727 
L 114.600124 -85.395146 
L 111.677685 -85.959565 
L 109.140345 -86.523983 
L 107.055633 -87.088402 
L 105.475974 -87.652821 
L 104.435849 -88.21724 
L 103.95 -88.781659 
L 104.012823 -89.346077 
L 104.598996 -89.910496 
L 105.6653 -90.474915 
L 107.153485 -91.039334 
L 108.99397 -91.603752 
L 111.110065 -92.168171 
L 113.422422 -92.73259 
L 115.853359 -93.297009 
L 118.330772 -93.861428 
L 120.791361 -94.425846 
L 123.182984 -94.990265 
L 125.466034 -95.554684 
L 127.613819 -96.119103 
L 129.611996 -96.683522 
L 131.45721 -97.24794 
L 133.155105 -97.812359 
L 134.717957 -98.376778 
L 136.162132 -98.941197 
L 137.50562 -99.505616 
L 138.765827 -100.070034 
L 139.957787 -100.634453 
L 141.09289 -101.198872 
L 142.178184 -101.763291 
L 143.216248 -102.32771 
L 144.205573 -102.892128 
L 145.141369 -103.456547 
L 146.016686 -104.020966 
L 146.82369 -104.585385 
L 147.554979 -105.149804 
L 148.204791 -105.714222 
L 148.769993 -106.278641 
L 149.250763 -106.84306 
L 149.65092 -107.407479 
L 149.977869 -107.971897 
L 150.242194 -108.536316 
L 150.456946 -109.100735 
L 150.636699 -109.665154 
L 150.79649 -110.229573 
L 150.950728 -110.793991 
L 151.112187 -111.35841 
L 151.291179 -111.922829 
L 151.494965 -112.487248 
L 151.727459 -113.051667 
L 151.989239 -113.616085 
L 152.27785 -114.180504 
L 152.588345 -114.744923 
L 152.914021 -115.309342 
L 153.24725 -115.873761 
L 153.580335 -116.438179 
L 153.906289 -117.002598 
L 154.219479 -117.567017 
L 154.516079 -118.131436 
L 154.794279 -118.695855 
L 155.054275 -119.260273 
L 155.298035 -119.824692 
L 155.528884 -120.389111 
L 155.750986 -120.95353 
L 155.968761 -121.517948 
L 156.18633 -122.082367 
L 156.407033 -122.646786 
L 156.633075 -123.211205 
L 156.86533 -123.775624 
L 157.103299 -124.340042 
L 157.345231 -124.904461 
L 157.588353 -125.46888 
L 157.8292 -126.033299 
L 158.063971 -126.597718 
L 158.288888 -127.162136 
L 158.500514 -127.726555 
L 158.696002 -128.290974 
L 158.873261 -128.855393 
L 159.031028 -129.419812 
L 159.168868 -129.98423 
L 159.287103 -130.548649 
L 159.386685 -131.113068 
L 160.113315 -131.113068 
L 160.113315 -131.113068 
L 160.212897 -130.548649 
L 160.331132 -129.98423 
L 160.468972 -129.419812 
L 160.626739 -128.855393 
L 160.803998 -128.290974 
L 160.999486 -127.726555 
L 161.211112 -127.162136 
L 161.436029 -126.597718 
L 161.6708 -126.033299 
L 161.911647 -125.46888 
L 162.154769 -124.904461 
L 162.396701 -124.340042 
L 162.63467 -123.775624 
L 162.866925 -123.211205 
L 163.092967 -122.646786 
L 163.31367 -122.082367 
L 163.531239 -121.517948 
L 163.749014 -120.95353 
L 163.971116 -120.389111 
L 164.201965 -119.824692 
L 164.445725 -119.260273 
L 164.705721 -118.695855 
L 164.983921 -118.131436 
L 165.280521 -117.567017 
L 165.593711 -117.002598 
L 165.919665 -116.438179 
L 166.25275 -115.873761 
L 166.585979 -115.309342 
L 166.911655 -114.744923 
L 167.22215 -114.180504 
L 167.510761 -113.616085 
L 167.772541 -113.051667 
L 168.005035 -112.487248 
L 168.208821 -111.922829 
L 168.387813 -111.35841 
L 168.549272 -110.793991 
L 168.70351 -110.229573 
L 168.863301 -109.665154 
L 169.043054 -109.100735 
L 169.257806 -108.536316 
L 169.522131 -107.971897 
L 169.84908 -107.407479 
L 170.249237 -106.84306 
L 170.730007 -106.278641 
L 171.295209 -105.714222 
L 171.945021 -105.149804 
L 172.67631 -104.585385 
L 173.483314 -104.020966 
L 174.358631 -103.456547 
L 175.294427 -102.892128 
L 176.283752 -102.32771 
L 177.321816 -101.763291 
L 178.40711 -101.198872 
L 179.542213 -100.634453 
L 180.734173 -100.070034 
L 181.99438 -99.505616 
L 183.337868 -98.941197 
L 184.782043 -98.376778 
L 186.344895 -97.812359 
L 188.04279 -97.24794 
L 189.888004 -96.683522 
L 191.886181 -96.119103 
L 194.033966 -95.554684 
L 196.317016 -94.990265 
L 198.708639 -94.425846 
L 201.169228 -93.861428 
L 203.646641 -93.297009 
L 206.077578 -92.73259 
L 208.389935 -92.168171 
L 210.50603 -91.603752 
L 212.346515 -91.039334 
L 213.8347 -90.474915 
L 214.901004 -89.910496 
L 215.487177 -89.346077 
L 215.55 -88.781659 
L 215.064151 -88.21724 
L 214.024026 -87.652821 
L 212.444367 -87.088402 
L 210.359655 -86.523983 
L 207.822315 -85.959565 
L 204.899876 -85.395146 
L 201.671321 -84.830727 
L 198.222902 -84.266308 
L 194.643723 -83.701889 
L 191.021428 -83.137471 
L 187.438264 -82.573052 
L 183.967761 -82.008633 
L 180.67222 -81.444214 
L 177.601077 -80.879795 
L 174.790185 -80.315377 
L 172.261948 -79.750958 
L 170.026189 -79.186539 
L 168.0816 -78.62212 
L 166.417595 -78.057701 
L 165.016367 -77.493283 
L 163.85499 -76.928864 
L 162.907414 -76.364445 
L 162.146241 -75.800026 
L 161.5442 -75.235608 
z
" style="stroke: #d55e00; stroke-width: 2"/>
    </defs>
    <g clip-path="url(#p596c65b9d7)">
     <use xlink:href="#m770fabadd9" x="0" y="360" style="fill: #d55e00; fill-opacity: 0.3; stroke: #d55e00; stroke-width: 2"/>
    </g>
   </g>
   <g id="PolyCollection_2">
    <defs>
     <path id="m8d4765abf0" d="M 299.38361 -52.2 
L 299.11639 -52.2 
L 299.066539 -54.375743 
L 299.001874 -56.551486 
L 298.919163 -58.727229 
L 298.814705 -60.902972 
L 298.684279 -63.078715 
L 298.523074 -65.254459 
L 298.325631 -67.430202 
L 298.085802 -69.605945 
L 297.796765 -71.781688 
L 297.451117 -73.957431 
L 297.04109 -76.133174 
L 296.558903 -78.308917 
L 295.997273 -80.48466 
L 295.350055 -82.660403 
L 294.612988 -84.836146 
L 293.784482 -87.01189 
L 292.866375 -89.187633 
L 291.86457 -91.363376 
L 290.789487 -93.539119 
L 289.656272 -95.714862 
L 288.484722 -97.890605 
L 287.298927 -100.066348 
L 286.12663 -102.242091 
L 284.998341 -104.417834 
L 283.946228 -106.593577 
L 283.002827 -108.769321 
L 282.199595 -110.945064 
L 281.56537 -113.120807 
L 281.124773 -115.29655 
L 280.896662 -117.472293 
L 280.892735 -119.648036 
L 281.116417 -121.823779 
L 281.562176 -123.999522 
L 282.215394 -126.175265 
L 283.052862 -128.351008 
L 284.04394 -130.526751 
L 285.15231 -132.702495 
L 286.338182 -134.878238 
L 287.560768 -137.053981 
L 288.780776 -139.229724 
L 289.962687 -141.405467 
L 291.076608 -143.58121 
L 292.099547 -145.756953 
L 293.016041 -147.932696 
L 293.818139 -150.108439 
L 294.504815 -152.284182 
L 295.080937 -154.459926 
L 295.555953 -156.635669 
L 295.942433 -158.811412 
L 296.254631 -160.987155 
L 296.507166 -163.162898 
L 296.71392 -165.338641 
L 296.887181 -167.514384 
L 297.037088 -169.690127 
L 297.171337 -171.86587 
L 297.295164 -174.041613 
L 297.411547 -176.217357 
L 297.521593 -178.3931 
L 297.625046 -180.568843 
L 297.720853 -182.744586 
L 297.807724 -184.920329 
L 297.884617 -187.096072 
L 297.951095 -189.271815 
L 298.007518 -191.447558 
L 298.055053 -193.623301 
L 298.09553 -195.799044 
L 298.131149 -197.974788 
L 298.164129 -200.150531 
L 298.196338 -202.326274 
L 298.228993 -204.502017 
L 298.262462 -206.67776 
L 298.296223 -208.853503 
L 298.32898 -211.029246 
L 298.358915 -213.204989 
L 298.384044 -215.380732 
L 298.402607 -217.556475 
L 298.413441 -219.732218 
L 298.416263 -221.907962 
L 298.411828 -224.083705 
L 298.401927 -226.259448 
L 298.389233 -228.435191 
L 298.377014 -230.610934 
L 298.368753 -232.786677 
L 298.36774 -234.96242 
L 298.376688 -237.138163 
L 298.397429 -239.313906 
L 298.430723 -241.489649 
L 298.476211 -243.665393 
L 298.532501 -245.841136 
L 298.597365 -248.016879 
L 298.668018 -250.192622 
L 298.74143 -252.368365 
L 298.81463 -254.544108 
L 298.884965 -256.719851 
L 298.950284 -258.895594 
L 299.009047 -261.071337 
L 299.060342 -263.24708 
L 299.103851 -265.422824 
L 299.139747 -267.598567 
L 299.360253 -267.598567 
L 299.360253 -267.598567 
L 299.396149 -265.422824 
L 299.439658 -263.24708 
L 299.490953 -261.071337 
L 299.549716 -258.895594 
L 299.615035 -256.719851 
L 299.68537 -254.544108 
L 299.75857 -252.368365 
L 299.831982 -250.192622 
L 299.902635 -248.016879 
L 299.967499 -245.841136 
L 300.023789 -243.665393 
L 300.069277 -241.489649 
L 300.102571 -239.313906 
L 300.123312 -237.138163 
L 300.13226 -234.96242 
L 300.131247 -232.786677 
L 300.122986 -230.610934 
L 300.110767 -228.435191 
L 300.098073 -226.259448 
L 300.088172 -224.083705 
L 300.083737 -221.907962 
L 300.086559 -219.732218 
L 300.097393 -217.556475 
L 300.115956 -215.380732 
L 300.141085 -213.204989 
L 300.17102 -211.029246 
L 300.203777 -208.853503 
L 300.237538 -206.67776 
L 300.271007 -204.502017 
L 300.303662 -202.326274 
L 300.335871 -200.150531 
L 300.368851 -197.974788 
L 300.40447 -195.799044 
L 300.444947 -193.623301 
L 300.492482 -191.447558 
L 300.548905 -189.271815 
L 300.615383 -187.096072 
L 300.692276 -184.920329 
L 300.779147 -182.744586 
L 300.874954 -180.568843 
L 300.978407 -178.3931 
L 301.088453 -176.217357 
L 301.204836 -174.041613 
L 301.328663 -171.86587 
L 301.462912 -169.690127 
L 301.612819 -167.514384 
L 301.78608 -165.338641 
L 301.992834 -163.162898 
L 302.245369 -160.987155 
L 302.557567 -158.811412 
L 302.944047 -156.635669 
L 303.419063 -154.459926 
L 303.995185 -152.284182 
L 304.681861 -150.108439 
L 305.483959 -147.932696 
L 306.400453 -145.756953 
L 307.423392 -143.58121 
L 308.537313 -141.405467 
L 309.719224 -139.229724 
L 310.939232 -137.053981 
L 312.161818 -134.878238 
L 313.34769 -132.702495 
L 314.45606 -130.526751 
L 315.447138 -128.351008 
L 316.284606 -126.175265 
L 316.937824 -123.999522 
L 317.383583 -121.823779 
L 317.607265 -119.648036 
L 317.603338 -117.472293 
L 317.375227 -115.29655 
L 316.93463 -113.120807 
L 316.300405 -110.945064 
L 315.497173 -108.769321 
L 314.553772 -106.593577 
L 313.501659 -104.417834 
L 312.37337 -102.242091 
L 311.201073 -100.066348 
L 310.015278 -97.890605 
L 308.843728 -95.714862 
L 307.710513 -93.539119 
L 306.63543 -91.363376 
L 305.633625 -89.187633 
L 304.715518 -87.01189 
L 303.887012 -84.836146 
L 303.149945 -82.660403 
L 302.502727 -80.48466 
L 301.941097 -78.308917 
L 301.45891 -76.133174 
L 301.048883 -73.957431 
L 300.703235 -71.781688 
L 300.414198 -69.605945 
L 300.174369 -67.430202 
L 299.976926 -65.254459 
L 299.815721 -63.078715 
L 299.685295 -60.902972 
L 299.580837 -58.727229 
L 299.498126 -56.551486 
L 299.433461 -54.375743 
L 299.38361 -52.2 
z
" style="stroke: #0072b2; stroke-width: 2"/>
    </defs>
    <g clip-path="url(#p596c65b9d7)">
     <use xlink:href="#m8d4765abf0" x="0" y="360" style="fill: #0072b2; fill-opacity: 0.3; stroke: #0072b2; stroke-width: 2"/>
    </g>
   </g>
   <g id="PolyCollection_3">
    <defs>
     <path id="mf77cbc2061" d="M 439.311887 -61.577979 
L 438.188113 -61.577979 
L 437.964905 -64.028707 
L 437.673406 -66.479434 
L 437.300908 -68.930162 
L 436.835235 -71.380889 
L 436.265855 -73.831617 
L 435.585153 -76.282344 
L 434.789766 -78.733072 
L 433.881819 -81.183799 
L 432.869921 -83.634527 
L 431.769738 -86.085254 
L 430.604025 -88.535982 
L 429.402015 -90.986709 
L 428.198156 -93.437436 
L 427.030261 -95.888164 
L 425.937221 -98.338891 
L 424.956475 -100.789619 
L 424.121497 -103.240346 
L 423.459547 -105.691074 
L 422.989898 -108.141801 
L 422.722714 -110.592529 
L 422.658653 -113.043256 
L 422.789214 -115.493984 
L 423.097752 -117.944711 
L 423.561045 -120.395439 
L 424.151235 -122.846166 
L 424.837973 -125.296894 
L 425.590587 -127.747621 
L 426.38008 -130.198349 
L 427.180839 -132.649076 
L 427.971903 -135.099804 
L 428.737728 -137.550531 
L 429.46839 -140.001259 
L 430.159253 -142.451986 
L 430.810143 -144.902714 
L 431.424169 -147.353441 
L 432.006331 -149.804169 
L 432.562105 -152.254896 
L 433.096188 -154.705624 
L 433.611555 -157.156351 
L 434.108942 -159.607079 
L 434.586776 -162.057806 
L 435.041542 -164.508533 
L 435.468471 -166.959261 
L 435.862421 -169.409988 
L 436.218789 -171.860716 
L 436.534306 -174.311443 
L 436.807595 -176.762171 
L 437.039431 -179.212898 
L 437.232677 -181.663626 
L 437.391948 -184.114353 
L 437.523066 -186.565081 
L 437.632405 -189.015808 
L 437.726239 -191.466536 
L 437.81017 -193.917263 
L 437.888705 -196.367991 
L 437.965025 -198.818718 
L 438.04094 -201.269446 
L 438.117001 -203.720173 
L 438.192749 -206.170901 
L 438.267016 -208.621628 
L 438.338252 -211.072356 
L 438.404806 -213.523083 
L 438.465163 -215.973811 
L 438.518079 -218.424538 
L 438.562646 -220.875266 
L 438.598288 -223.325993 
L 438.624696 -225.776721 
L 438.641749 -228.227448 
L 438.649425 -230.678176 
L 438.64774 -233.128903 
L 438.636718 -235.57963 
L 438.616405 -238.030358 
L 438.586927 -240.481085 
L 438.548585 -242.931813 
L 438.501964 -245.38254 
L 438.448048 -247.833268 
L 438.388306 -250.283995 
L 438.324731 -252.734723 
L 438.259822 -255.18545 
L 438.196485 -257.636178 
L 438.137865 -260.086905 
L 438.087123 -262.537633 
L 438.047172 -264.98836 
L 438.020412 -267.439088 
L 438.008506 -269.889815 
L 438.012206 -272.340543 
L 438.031284 -274.79127 
L 438.064555 -277.241998 
L 438.109999 -279.692725 
L 438.164966 -282.143453 
L 438.226431 -284.59418 
L 438.291268 -287.044908 
L 438.356508 -289.495635 
L 438.419551 -291.946363 
L 438.478315 -294.39709 
L 438.531315 -296.847818 
L 438.577669 -299.298545 
L 438.617046 -301.749273 
L 438.649578 -304.2 
L 438.850422 -304.2 
L 438.850422 -304.2 
L 438.882954 -301.749273 
L 438.922331 -299.298545 
L 438.968685 -296.847818 
L 439.021685 -294.39709 
L 439.080449 -291.946363 
L 439.143492 -289.495635 
L 439.208732 -287.044908 
L 439.273569 -284.59418 
L 439.335034 -282.143453 
L 439.390001 -279.692725 
L 439.435445 -277.241998 
L 439.468716 -274.79127 
L 439.487794 -272.340543 
L 439.491494 -269.889815 
L 439.479588 -267.439088 
L 439.452828 -264.98836 
L 439.412877 -262.537633 
L 439.362135 -260.086905 
L 439.303515 -257.636178 
L 439.240178 -255.18545 
L 439.175269 -252.734723 
L 439.111694 -250.283995 
L 439.051952 -247.833268 
L 438.998036 -245.38254 
L 438.951415 -242.931813 
L 438.913073 -240.481085 
L 438.883595 -238.030358 
L 438.863282 -235.57963 
L 438.85226 -233.128903 
L 438.850575 -230.678176 
L 438.858251 -228.227448 
L 438.875304 -225.776721 
L 438.901712 -223.325993 
L 438.937354 -220.875266 
L 438.981921 -218.424538 
L 439.034837 -215.973811 
L 439.095194 -213.523083 
L 439.161748 -211.072356 
L 439.232984 -208.621628 
L 439.307251 -206.170901 
L 439.382999 -203.720173 
L 439.45906 -201.269446 
L 439.534975 -198.818718 
L 439.611295 -196.367991 
L 439.68983 -193.917263 
L 439.773761 -191.466536 
L 439.867595 -189.015808 
L 439.976934 -186.565081 
L 440.108052 -184.114353 
L 440.267323 -181.663626 
L 440.460569 -179.212898 
L 440.692405 -176.762171 
L 440.965694 -174.311443 
L 441.281211 -171.860716 
L 441.637579 -169.409988 
L 442.031529 -166.959261 
L 442.458458 -164.508533 
L 442.913224 -162.057806 
L 443.391058 -159.607079 
L 443.888445 -157.156351 
L 444.403812 -154.705624 
L 444.937895 -152.254896 
L 445.493669 -149.804169 
L 446.075831 -147.353441 
L 446.689857 -144.902714 
L 447.340747 -142.451986 
L 448.03161 -140.001259 
L 448.762272 -137.550531 
L 449.528097 -135.099804 
L 450.319161 -132.649076 
L 451.11992 -130.198349 
L 451.909413 -127.747621 
L 452.662027 -125.296894 
L 453.348765 -122.846166 
L 453.938955 -120.395439 
L 454.402248 -117.944711 
L 454.710786 -115.493984 
L 454.841347 -113.043256 
L 454.777286 -110.592529 
L 454.510102 -108.141801 
L 454.040453 -105.691074 
L 453.378503 -103.240346 
L 452.543525 -100.789619 
L 451.562779 -98.338891 
L 450.469739 -95.888164 
L 449.301844 -93.437436 
L 448.097985 -90.986709 
L 446.895975 -88.535982 
L 445.730262 -86.085254 
L 444.630079 -83.634527 
L 443.618181 -81.183799 
L 442.710234 -78.733072 
L 441.914847 -76.282344 
L 441.234145 -73.831617 
L 440.664765 -71.380889 
L 440.199092 -68.930162 
L 439.826594 -66.479434 
L 439.535095 -64.028707 
L 439.311887 -61.577979 
z
" style="stroke: #009e73; stroke-width: 2"/>
    </defs>
    <g clip-path="url(#p596c65b9d7)">
     <use xlink:href="#mf77cbc2061" x="0" y="360" style="fill: #009e73; fill-opacity: 0.3; stroke: #009e73; stroke-width: 2"/>
    </g>
   </g>
   <g id="PolyCollection_4">
    <defs>
     <path id="m068d8f6801" d="M 579.584773 -73.035658 
L 576.915227 -73.035658 
L 576.317642 -73.916803 
L 575.508271 -74.797949 
L 574.436961 -75.679094 
L 573.051505 -76.560239 
L 571.301502 -77.441384 
L 569.14341 -78.32253 
L 566.546527 -79.203675 
L 563.499418 -80.08482 
L 560.016094 -80.965965 
L 556.141059 -81.84711 
L 551.952316 -82.728256 
L 547.561486 -83.609401 
L 543.110434 -84.490546 
L 538.76423 -85.371691 
L 534.700744 -86.252837 
L 531.097728 -87.133982 
L 528.118707 -88.015127 
L 525.899305 -88.896272 
L 524.535683 -89.777417 
L 524.076583 -90.658563 
L 524.51997 -91.539708 
L 525.814669 -92.420853 
L 527.866649 -93.301998 
L 530.549 -94.183144 
L 533.714177 -95.064289 
L 537.206872 -95.945434 
L 540.875984 -96.826579 
L 544.584426 -97.707725 
L 548.216007 -98.58887 
L 551.679147 -99.470015 
L 554.907646 -100.35116 
L 557.859094 -101.232305 
L 560.511683 -102.113451 
L 562.860231 -102.994596 
L 564.912071 -103.875741 
L 566.683331 -104.756886 
L 568.195866 -105.638032 
L 569.474934 -106.519177 
L 570.547541 -107.400322 
L 571.441324 -108.281467 
L 572.183762 -109.162612 
L 572.801566 -110.043758 
L 573.320111 -110.924903 
L 573.76285 -111.806048 
L 574.150703 -112.687193 
L 574.501464 -113.568339 
L 574.829306 -114.449484 
L 575.144482 -115.330629 
L 575.453271 -116.211774 
L 575.758236 -117.092919 
L 576.058767 -117.974065 
L 576.351865 -118.85521 
L 576.633057 -119.736355 
L 576.897337 -120.6175 
L 577.140006 -121.498646 
L 577.35733 -122.379791 
L 577.546949 -123.260936 
L 577.708032 -124.142081 
L 577.841198 -125.023227 
L 577.948266 -125.904372 
L 578.031901 -126.785517 
L 578.095219 -127.666662 
L 578.141408 -128.547807 
L 578.173408 -129.428953 
L 578.19366 -130.310098 
L 578.203932 -131.191243 
L 578.205209 -132.072388 
L 578.197649 -132.953534 
L 578.180588 -133.834679 
L 578.152599 -134.715824 
L 578.111623 -135.596969 
L 578.05516 -136.478114 
L 577.980562 -137.35926 
L 577.885402 -138.240405 
L 577.767927 -139.12155 
L 577.627548 -140.002695 
L 577.465314 -140.883841 
L 577.284293 -141.764986 
L 577.089782 -142.646131 
L 576.889268 -143.527276 
L 576.692092 -144.408422 
L 576.508807 -145.289567 
L 576.35029 -146.170712 
L 576.226689 -147.051857 
L 576.146351 -147.933002 
L 576.114897 -148.814148 
L 576.134567 -149.695293 
L 576.203956 -150.576438 
L 576.318184 -151.457583 
L 576.469461 -152.338729 
L 576.647964 -153.219874 
L 576.84289 -154.101019 
L 577.043523 -154.982164 
L 577.240178 -155.863309 
L 577.424901 -156.744455 
L 577.591885 -157.6256 
L 577.737572 -158.506745 
L 577.860508 -159.38789 
L 577.960999 -160.269036 
L 578.539001 -160.269036 
L 578.539001 -160.269036 
L 578.639492 -159.38789 
L 578.762428 -158.506745 
L 578.908115 -157.6256 
L 579.075099 -156.744455 
L 579.259822 -155.863309 
L 579.456477 -154.982164 
L 579.65711 -154.101019 
L 579.852036 -153.219874 
L 580.030539 -152.338729 
L 580.181816 -151.457583 
L 580.296044 -150.576438 
L 580.365433 -149.695293 
L 580.385103 -148.814148 
L 580.353649 -147.933002 
L 580.273311 -147.051857 
L 580.14971 -146.170712 
L 579.991193 -145.289567 
L 579.807908 -144.408422 
L 579.610732 -143.527276 
L 579.410218 -142.646131 
L 579.215707 -141.764986 
L 579.034686 -140.883841 
L 578.872452 -140.002695 
L 578.732073 -139.12155 
L 578.614598 -138.240405 
L 578.519438 -137.35926 
L 578.44484 -136.478114 
L 578.388377 -135.596969 
L 578.347401 -134.715824 
L 578.319412 -133.834679 
L 578.302351 -132.953534 
L 578.294791 -132.072388 
L 578.296068 -131.191243 
L 578.30634 -130.310098 
L 578.326592 -129.428953 
L 578.358592 -128.547807 
L 578.404781 -127.666662 
L 578.468099 -126.785517 
L 578.551734 -125.904372 
L 578.658802 -125.023227 
L 578.791968 -124.142081 
L 578.953051 -123.260936 
L 579.14267 -122.379791 
L 579.359994 -121.498646 
L 579.602663 -120.6175 
L 579.866943 -119.736355 
L 580.148135 -118.85521 
L 580.441233 -117.974065 
L 580.741764 -117.092919 
L 581.046729 -116.211774 
L 581.355518 -115.330629 
L 581.670694 -114.449484 
L 581.998536 -113.568339 
L 582.349297 -112.687193 
L 582.73715 -111.806048 
L 583.179889 -110.924903 
L 583.698434 -110.043758 
L 584.316238 -109.162612 
L 585.058676 -108.281467 
L 585.952459 -107.400322 
L 587.025066 -106.519177 
L 588.304134 -105.638032 
L 589.816669 -104.756886 
L 591.587929 -103.875741 
L 593.639769 -102.994596 
L 595.988317 -102.113451 
L 598.640906 -101.232305 
L 601.592354 -100.35116 
L 604.820853 -99.470015 
L 608.283993 -98.58887 
L 611.915574 -97.707725 
L 615.624016 -96.826579 
L 619.293128 -95.945434 
L 622.785823 -95.064289 
L 625.951 -94.183144 
L 628.633351 -93.301998 
L 630.685331 -92.420853 
L 631.98003 -91.539708 
L 632.423417 -90.658563 
L 631.964317 -89.777417 
L 630.600695 -88.896272 
L 628.381293 -88.015127 
L 625.402272 -87.133982 
L 621.799256 -86.252837 
L 617.73577 -85.371691 
L 613.389566 -84.490546 
L 608.938514 -83.609401 
L 604.547684 -82.728256 
L 600.358941 -81.84711 
L 596.483906 -80.965965 
L 593.000582 -80.08482 
L 589.953473 -79.203675 
L 587.35659 -78.32253 
L 585.198498 -77.441384 
L 583.448495 -76.560239 
L 582.063039 -75.679094 
L 580.991729 -74.797949 
L 580.182358 -73.916803 
L 579.584773 -73.035658 
z
" style="stroke: #cc79a7; stroke-width: 2"/>
    </defs>
    <g clip-path="url(#p596c65b9d7)">
     <use xlink:href="#m068d8f6801" x="0" y="360" style="fill: #cc79a7; fill-opacity: 0.3; stroke: #cc79a7; stroke-width: 2"/>
    </g>
   </g>
   <g id="patch_3">
    <path d="M 90 320.4 
L 90 43.2 
" style="fill: none; stroke: #262626; stroke-width: 1.25; stroke-linejoin: miter; stroke-linecap: square"/>
   </g>
   <g id="patch_4">
    <path d="M 648 320.4 
L 648 43.2 
" style="fill: none; stroke: #262626; stroke-width: 1.25; stroke-linejoin: miter; stroke-linecap: square"/>
   </g>
   <g id="patch_5">
    <path d="M 90 320.4 
L 648 320.4 
" style="fill: none; stroke: #262626; stroke-width: 1.25; stroke-linejoin: miter; stroke-linecap: square"/>
   </g>
   <g id="patch_6">
    <path d="M 90 43.2 
L 648 43.2 
" style="fill: none; stroke: #262626; stroke-width: 1.25; stroke-linejoin: miter; stroke-linecap: square"/>
   </g>
   <g id="text_15">
    <!-- Intervaltime -->
    <g style="fill: #262626" transform="translate(329.709219 37.2) scale(0.14 -0.14)">
     <defs>
      <path id="Arial-BoldMT-49" d="M 438 0 
L 438 4581 
L 1363 4581 
L 1363 0 
L 438 0 
z
" transform="scale(0.015625)"/>
      <path id="Arial-BoldMT-6e" d="M 3478 0 
L 2600 0 
L 2600 1694 
Q 2600 2231 2544 2389 
Q 2488 2547 2361 2634 
Q 2234 2722 2056 2722 
Q 1828 2722 1647 2597 
Q 1466 2472 1398 2265 
Q 1331 2059 1331 1503 
L 1331 0 
L 453 0 
L 453 3319 
L 1269 3319 
L 1269 2831 
Q 1703 3394 2363 3394 
Q 2653 3394 2893 3289 
Q 3134 3184 3257 3021 
Q 3381 2859 3429 2653 
Q 3478 2447 3478 2063 
L 3478 0 
z
" transform="scale(0.015625)"/>
      <path id="Arial-BoldMT-74" d="M 1981 3319 
L 1981 2619 
L 1381 2619 
L 1381 1281 
Q 1381 875 1398 808 
Q 1416 741 1477 697 
Q 1538 653 1625 653 
Q 1747 653 1978 738 
L 2053 56 
Q 1747 -75 1359 -75 
Q 1122 -75 931 4 
Q 741 84 652 211 
Q 563 338 528 553 
Q 500 706 500 1172 
L 500 2619 
L 97 2619 
L 97 3319 
L 500 3319 
L 500 3978 
L 1381 4491 
L 1381 3319 
L 1981 3319 
z
" transform="scale(0.015625)"/>
      <path id="Arial-BoldMT-65" d="M 2381 1056 
L 3256 909 
Q 3088 428 2723 176 
Q 2359 -75 1813 -75 
Q 947 -75 531 491 
Q 203 944 203 1634 
Q 203 2459 634 2926 
Q 1066 3394 1725 3394 
Q 2466 3394 2894 2905 
Q 3322 2416 3303 1406 
L 1103 1406 
Q 1113 1016 1316 798 
Q 1519 581 1822 581 
Q 2028 581 2168 693 
Q 2309 806 2381 1056 
z
M 2431 1944 
Q 2422 2325 2234 2523 
Q 2047 2722 1778 2722 
Q 1491 2722 1303 2513 
Q 1116 2303 1119 1944 
L 2431 1944 
z
" transform="scale(0.015625)"/>
      <path id="Arial-BoldMT-72" d="M 1300 0 
L 422 0 
L 422 3319 
L 1238 3319 
L 1238 2847 
Q 1447 3181 1614 3287 
Q 1781 3394 1994 3394 
Q 2294 3394 2572 3228 
L 2300 2463 
Q 2078 2606 1888 2606 
Q 1703 2606 1575 2504 
Q 1447 2403 1373 2137 
Q 1300 1872 1300 1025 
L 1300 0 
z
" transform="scale(0.015625)"/>
      <path id="Arial-BoldMT-76" d="M 1372 0 
L 34 3319 
L 956 3319 
L 1581 1625 
L 1763 1059 
Q 1834 1275 1853 1344 
Q 1897 1484 1947 1625 
L 2578 3319 
L 3481 3319 
L 2163 0 
L 1372 0 
z
" transform="scale(0.015625)"/>
      <path id="Arial-BoldMT-61" d="M 1116 2306 
L 319 2450 
Q 453 2931 781 3162 
Q 1109 3394 1756 3394 
Q 2344 3394 2631 3255 
Q 2919 3116 3036 2902 
Q 3153 2688 3153 2116 
L 3144 1091 
Q 3144 653 3186 445 
Q 3228 238 3344 0 
L 2475 0 
Q 2441 88 2391 259 
Q 2369 338 2359 363 
Q 2134 144 1878 34 
Q 1622 -75 1331 -75 
Q 819 -75 523 203 
Q 228 481 228 906 
Q 228 1188 362 1408 
Q 497 1628 739 1745 
Q 981 1863 1438 1950 
Q 2053 2066 2291 2166 
L 2291 2253 
Q 2291 2506 2166 2614 
Q 2041 2722 1694 2722 
Q 1459 2722 1328 2630 
Q 1197 2538 1116 2306 
z
M 2291 1594 
Q 2122 1538 1756 1459 
Q 1391 1381 1278 1306 
Q 1106 1184 1106 997 
Q 1106 813 1243 678 
Q 1381 544 1594 544 
Q 1831 544 2047 700 
Q 2206 819 2256 991 
Q 2291 1103 2291 1419 
L 2291 1594 
z
" transform="scale(0.015625)"/>
      <path id="Arial-BoldMT-6c" d="M 459 0 
L 459 4581 
L 1338 4581 
L 1338 0 
L 459 0 
z
" transform="scale(0.015625)"/>
      <path id="Arial-BoldMT-69" d="M 459 3769 
L 459 4581 
L 1338 4581 
L 1338 3769 
L 459 3769 
z
M 459 0 
L 459 3319 
L 1338 3319 
L 1338 0 
L 459 0 
z
" transform="scale(0.015625)"/>
      <path id="Arial-BoldMT-6d" d="M 394 3319 
L 1203 3319 
L 1203 2866 
Q 1638 3394 2238 3394 
Q 2556 3394 2790 3262 
Q 3025 3131 3175 2866 
Q 3394 3131 3647 3262 
Q 3900 3394 4188 3394 
Q 4553 3394 4806 3245 
Q 5059 3097 5184 2809 
Q 5275 2597 5275 2122 
L 5275 0 
L 4397 0 
L 4397 1897 
Q 4397 2391 4306 2534 
Q 4184 2722 3931 2722 
Q 3747 2722 3584 2609 
Q 3422 2497 3350 2280 
Q 3278 2063 3278 1594 
L 3278 0 
L 2400 0 
L 2400 1819 
Q 2400 2303 2353 2443 
Q 2306 2584 2207 2653 
Q 2109 2722 1941 2722 
Q 1738 2722 1575 2612 
Q 1413 2503 1342 2297 
Q 1272 2091 1272 1613 
L 1272 0 
L 394 0 
L 394 3319 
z
" transform="scale(0.015625)"/>
     </defs>
     <use xlink:href="#Arial-BoldMT-49"/>
     <use xlink:href="#Arial-BoldMT-6e" x="27.783203"/>
     <use xlink:href="#Arial-BoldMT-74" x="88.867188"/>
     <use xlink:href="#Arial-BoldMT-65" x="122.167969"/>
     <use xlink:href="#Arial-BoldMT-72" x="177.783203"/>
     <use xlink:href="#Arial-BoldMT-76" x="216.699219"/>
     <use xlink:href="#Arial-BoldMT-61" x="272.314453"/>
     <use xlink:href="#Arial-BoldMT-6c" x="327.929688"/>
     <use xlink:href="#Arial-BoldMT-74" x="355.712891"/>
     <use xlink:href="#Arial-BoldMT-69" x="389.013672"/>
     <use xlink:href="#Arial-BoldMT-6d" x="416.796875"/>
     <use xlink:href="#Arial-BoldMT-65" x="505.712891"/>
    </g>
   </g>
  </g>
 </g>
 <defs>
  <clipPath id="p596c65b9d7">
   <rect x="90" y="43.2" width="558" height="277.2"/>
  </clipPath>
 </defs>
</svg>
