<?xml version="1.0" encoding="utf-8" standalone="no"?>
<!DOCTYPE svg PUBLIC "-//W3C//DTD SVG 1.1//EN"
  "http://www.w3.org/Graphics/SVG/1.1/DTD/svg11.dtd">
<svg xmlns:xlink="http://www.w3.org/1999/xlink" width="720pt" height="360pt" viewBox="0 0 720 360" xmlns="http://www.w3.org/2000/svg" version="1.1">
 <metadata>
  <rdf:RDF xmlns:dc="http://purl.org/dc/elements/1.1/" xmlns:cc="http://creativecommons.org/ns#" xmlns:rdf="http://www.w3.org/1999/02/22-rdf-syntax-ns#">
   <cc:Work>
    <dc:type rdf:resource="http://purl.org/dc/dcmitype/StillImage"/>
    <dc:date>2024-08-20T17:45:35.187270</dc:date>
    <dc:format>image/svg+xml</dc:format>
    <dc:creator>
     <cc:Agent>
      <dc:title>Matplotlib v3.8.0, https://matplotlib.org/</dc:title>
     </cc:Agent>
    </dc:creator>
   </cc:Work>
  </rdf:RDF>
 </metadata>
 <defs>
  <style type="text/css">*{stroke-linejoin: round; stroke-linecap: butt}</style>
 </defs>
 <g id="figure_1">
  <g id="patch_1">
   <path d="M 0 360 
L 720 360 
L 720 0 
L 0 0 
z
" style="fill: #ffffff"/>
  </g>
  <g id="axes_1">
   <g id="patch_2">
    <path d="M 90 320.4 
L 648 320.4 
L 648 43.2 
L 90 43.2 
z
" style="fill: #ffffff"/>
   </g>
   <g id="matplotlib.axis_1">
    <g id="xtick_1">
     <g id="line2d_1">
      <defs>
       <path id="m9692dc5555" d="M 0 0 
L 0 6 
" style="stroke: #262626; stroke-width: 1.25"/>
      </defs>
      <g>
       <use xlink:href="#m9692dc5555" x="159.75" y="320.4" style="fill: #262626; stroke: #262626; stroke-width: 1.25"/>
      </g>
     </g>
     <g id="text_1">
      <!-- State 1 -->
      <g style="fill: #262626" transform="translate(140.7375 338.489375) scale(0.12 -0.12)">
       <defs>
        <path id="ArialMT-53" d="M 288 1472 
L 859 1522 
Q 900 1178 1048 958 
Q 1197 738 1509 602 
Q 1822 466 2213 466 
Q 2559 466 2825 569 
Q 3091 672 3220 851 
Q 3350 1031 3350 1244 
Q 3350 1459 3225 1620 
Q 3100 1781 2813 1891 
Q 2628 1963 1997 2114 
Q 1366 2266 1113 2400 
Q 784 2572 623 2826 
Q 463 3081 463 3397 
Q 463 3744 659 4045 
Q 856 4347 1234 4503 
Q 1613 4659 2075 4659 
Q 2584 4659 2973 4495 
Q 3363 4331 3572 4012 
Q 3781 3694 3797 3291 
L 3216 3247 
Q 3169 3681 2898 3903 
Q 2628 4125 2100 4125 
Q 1550 4125 1298 3923 
Q 1047 3722 1047 3438 
Q 1047 3191 1225 3031 
Q 1400 2872 2139 2705 
Q 2878 2538 3153 2413 
Q 3553 2228 3743 1945 
Q 3934 1663 3934 1294 
Q 3934 928 3725 604 
Q 3516 281 3123 101 
Q 2731 -78 2241 -78 
Q 1619 -78 1198 103 
Q 778 284 539 648 
Q 300 1013 288 1472 
z
" transform="scale(0.015625)"/>
        <path id="ArialMT-74" d="M 1650 503 
L 1731 6 
Q 1494 -44 1306 -44 
Q 1000 -44 831 53 
Q 663 150 594 308 
Q 525 466 525 972 
L 525 2881 
L 113 2881 
L 113 3319 
L 525 3319 
L 525 4141 
L 1084 4478 
L 1084 3319 
L 1650 3319 
L 1650 2881 
L 1084 2881 
L 1084 941 
Q 1084 700 1114 631 
Q 1144 563 1211 522 
Q 1278 481 1403 481 
Q 1497 481 1650 503 
z
" transform="scale(0.015625)"/>
        <path id="ArialMT-61" d="M 2588 409 
Q 2275 144 1986 34 
Q 1697 -75 1366 -75 
Q 819 -75 525 192 
Q 231 459 231 875 
Q 231 1119 342 1320 
Q 453 1522 633 1644 
Q 813 1766 1038 1828 
Q 1203 1872 1538 1913 
Q 2219 1994 2541 2106 
Q 2544 2222 2544 2253 
Q 2544 2597 2384 2738 
Q 2169 2928 1744 2928 
Q 1347 2928 1158 2789 
Q 969 2650 878 2297 
L 328 2372 
Q 403 2725 575 2942 
Q 747 3159 1072 3276 
Q 1397 3394 1825 3394 
Q 2250 3394 2515 3294 
Q 2781 3194 2906 3042 
Q 3031 2891 3081 2659 
Q 3109 2516 3109 2141 
L 3109 1391 
Q 3109 606 3145 398 
Q 3181 191 3288 0 
L 2700 0 
Q 2613 175 2588 409 
z
M 2541 1666 
Q 2234 1541 1622 1453 
Q 1275 1403 1131 1340 
Q 988 1278 909 1158 
Q 831 1038 831 891 
Q 831 666 1001 516 
Q 1172 366 1500 366 
Q 1825 366 2078 508 
Q 2331 650 2450 897 
Q 2541 1088 2541 1459 
L 2541 1666 
z
" transform="scale(0.015625)"/>
        <path id="ArialMT-65" d="M 2694 1069 
L 3275 997 
Q 3138 488 2766 206 
Q 2394 -75 1816 -75 
Q 1088 -75 661 373 
Q 234 822 234 1631 
Q 234 2469 665 2931 
Q 1097 3394 1784 3394 
Q 2450 3394 2872 2941 
Q 3294 2488 3294 1666 
Q 3294 1616 3291 1516 
L 816 1516 
Q 847 969 1125 678 
Q 1403 388 1819 388 
Q 2128 388 2347 550 
Q 2566 713 2694 1069 
z
M 847 1978 
L 2700 1978 
Q 2663 2397 2488 2606 
Q 2219 2931 1791 2931 
Q 1403 2931 1139 2672 
Q 875 2413 847 1978 
z
" transform="scale(0.015625)"/>
        <path id="ArialMT-20" transform="scale(0.015625)"/>
        <path id="ArialMT-31" d="M 2384 0 
L 1822 0 
L 1822 3584 
Q 1619 3391 1289 3197 
Q 959 3003 697 2906 
L 697 3450 
Q 1169 3672 1522 3987 
Q 1875 4303 2022 4600 
L 2384 4600 
L 2384 0 
z
" transform="scale(0.015625)"/>
       </defs>
       <use xlink:href="#ArialMT-53"/>
       <use xlink:href="#ArialMT-74" x="66.699219"/>
       <use xlink:href="#ArialMT-61" x="94.482422"/>
       <use xlink:href="#ArialMT-74" x="150.097656"/>
       <use xlink:href="#ArialMT-65" x="177.880859"/>
       <use xlink:href="#ArialMT-20" x="233.496094"/>
       <use xlink:href="#ArialMT-31" x="261.279297"/>
      </g>
     </g>
    </g>
    <g id="xtick_2">
     <g id="line2d_2">
      <g>
       <use xlink:href="#m9692dc5555" x="299.25" y="320.4" style="fill: #262626; stroke: #262626; stroke-width: 1.25"/>
      </g>
     </g>
     <g id="text_2">
      <!-- State 2 -->
      <g style="fill: #262626" transform="translate(280.2375 338.489375) scale(0.12 -0.12)">
       <defs>
        <path id="ArialMT-32" d="M 3222 541 
L 3222 0 
L 194 0 
Q 188 203 259 391 
Q 375 700 629 1000 
Q 884 1300 1366 1694 
Q 2113 2306 2375 2664 
Q 2638 3022 2638 3341 
Q 2638 3675 2398 3904 
Q 2159 4134 1775 4134 
Q 1369 4134 1125 3890 
Q 881 3647 878 3216 
L 300 3275 
Q 359 3922 746 4261 
Q 1134 4600 1788 4600 
Q 2447 4600 2831 4234 
Q 3216 3869 3216 3328 
Q 3216 3053 3103 2787 
Q 2991 2522 2730 2228 
Q 2469 1934 1863 1422 
Q 1356 997 1212 845 
Q 1069 694 975 541 
L 3222 541 
z
" transform="scale(0.015625)"/>
       </defs>
       <use xlink:href="#ArialMT-53"/>
       <use xlink:href="#ArialMT-74" x="66.699219"/>
       <use xlink:href="#ArialMT-61" x="94.482422"/>
       <use xlink:href="#ArialMT-74" x="150.097656"/>
       <use xlink:href="#ArialMT-65" x="177.880859"/>
       <use xlink:href="#ArialMT-20" x="233.496094"/>
       <use xlink:href="#ArialMT-32" x="261.279297"/>
      </g>
     </g>
    </g>
    <g id="xtick_3">
     <g id="line2d_3">
      <g>
       <use xlink:href="#m9692dc5555" x="438.75" y="320.4" style="fill: #262626; stroke: #262626; stroke-width: 1.25"/>
      </g>
     </g>
     <g id="text_3">
      <!-- State 3 -->
      <g style="fill: #262626" transform="translate(419.7375 338.489375) scale(0.12 -0.12)">
       <defs>
        <path id="ArialMT-33" d="M 269 1209 
L 831 1284 
Q 928 806 1161 595 
Q 1394 384 1728 384 
Q 2125 384 2398 659 
Q 2672 934 2672 1341 
Q 2672 1728 2419 1979 
Q 2166 2231 1775 2231 
Q 1616 2231 1378 2169 
L 1441 2663 
Q 1497 2656 1531 2656 
Q 1891 2656 2178 2843 
Q 2466 3031 2466 3422 
Q 2466 3731 2256 3934 
Q 2047 4138 1716 4138 
Q 1388 4138 1169 3931 
Q 950 3725 888 3313 
L 325 3413 
Q 428 3978 793 4289 
Q 1159 4600 1703 4600 
Q 2078 4600 2393 4439 
Q 2709 4278 2876 4000 
Q 3044 3722 3044 3409 
Q 3044 3113 2884 2869 
Q 2725 2625 2413 2481 
Q 2819 2388 3044 2092 
Q 3269 1797 3269 1353 
Q 3269 753 2831 336 
Q 2394 -81 1725 -81 
Q 1122 -81 723 278 
Q 325 638 269 1209 
z
" transform="scale(0.015625)"/>
       </defs>
       <use xlink:href="#ArialMT-53"/>
       <use xlink:href="#ArialMT-74" x="66.699219"/>
       <use xlink:href="#ArialMT-61" x="94.482422"/>
       <use xlink:href="#ArialMT-74" x="150.097656"/>
       <use xlink:href="#ArialMT-65" x="177.880859"/>
       <use xlink:href="#ArialMT-20" x="233.496094"/>
       <use xlink:href="#ArialMT-33" x="261.279297"/>
      </g>
     </g>
    </g>
    <g id="xtick_4">
     <g id="line2d_4">
      <g>
       <use xlink:href="#m9692dc5555" x="578.25" y="320.4" style="fill: #262626; stroke: #262626; stroke-width: 1.25"/>
      </g>
     </g>
     <g id="text_4">
      <!-- State 4 -->
      <g style="fill: #262626" transform="translate(559.2375 338.489375) scale(0.12 -0.12)">
       <defs>
        <path id="ArialMT-34" d="M 2069 0 
L 2069 1097 
L 81 1097 
L 81 1613 
L 2172 4581 
L 2631 4581 
L 2631 1613 
L 3250 1613 
L 3250 1097 
L 2631 1097 
L 2631 0 
L 2069 0 
z
M 2069 1613 
L 2069 3678 
L 634 1613 
L 2069 1613 
z
" transform="scale(0.015625)"/>
       </defs>
       <use xlink:href="#ArialMT-53"/>
       <use xlink:href="#ArialMT-74" x="66.699219"/>
       <use xlink:href="#ArialMT-61" x="94.482422"/>
       <use xlink:href="#ArialMT-74" x="150.097656"/>
       <use xlink:href="#ArialMT-65" x="177.880859"/>
       <use xlink:href="#ArialMT-20" x="233.496094"/>
       <use xlink:href="#ArialMT-34" x="261.279297"/>
      </g>
     </g>
    </g>
   </g>
   <g id="matplotlib.axis_2">
    <g id="ytick_1">
     <g id="line2d_5">
      <defs>
       <path id="mb2d81389c5" d="M 0 0 
L -6 0 
" style="stroke: #262626; stroke-width: 1.25"/>
      </defs>
      <g>
       <use xlink:href="#mb2d81389c5" x="90" y="320.4" style="fill: #262626; stroke: #262626; stroke-width: 1.25"/>
      </g>
     </g>
     <g id="text_5">
      <!-- 0.0 -->
      <g style="fill: #262626" transform="translate(65.21 324.336797) scale(0.11 -0.11)">
       <defs>
        <path id="ArialMT-30" d="M 266 2259 
Q 266 3072 433 3567 
Q 600 4063 929 4331 
Q 1259 4600 1759 4600 
Q 2128 4600 2406 4451 
Q 2684 4303 2865 4023 
Q 3047 3744 3150 3342 
Q 3253 2941 3253 2259 
Q 3253 1453 3087 958 
Q 2922 463 2592 192 
Q 2263 -78 1759 -78 
Q 1097 -78 719 397 
Q 266 969 266 2259 
z
M 844 2259 
Q 844 1131 1108 757 
Q 1372 384 1759 384 
Q 2147 384 2411 759 
Q 2675 1134 2675 2259 
Q 2675 3391 2411 3762 
Q 2147 4134 1753 4134 
Q 1366 4134 1134 3806 
Q 844 3388 844 2259 
z
" transform="scale(0.015625)"/>
        <path id="ArialMT-2e" d="M 581 0 
L 581 641 
L 1222 641 
L 1222 0 
L 581 0 
z
" transform="scale(0.015625)"/>
       </defs>
       <use xlink:href="#ArialMT-30"/>
       <use xlink:href="#ArialMT-2e" x="55.615234"/>
       <use xlink:href="#ArialMT-30" x="83.398438"/>
      </g>
     </g>
    </g>
    <g id="ytick_2">
     <g id="line2d_6">
      <g>
       <use xlink:href="#mb2d81389c5" x="90" y="264.96" style="fill: #262626; stroke: #262626; stroke-width: 1.25"/>
      </g>
     </g>
     <g id="text_6">
      <!-- 0.2 -->
      <g style="fill: #262626" transform="translate(65.21 268.896797) scale(0.11 -0.11)">
       <use xlink:href="#ArialMT-30"/>
       <use xlink:href="#ArialMT-2e" x="55.615234"/>
       <use xlink:href="#ArialMT-32" x="83.398438"/>
      </g>
     </g>
    </g>
    <g id="ytick_3">
     <g id="line2d_7">
      <g>
       <use xlink:href="#mb2d81389c5" x="90" y="209.52" style="fill: #262626; stroke: #262626; stroke-width: 1.25"/>
      </g>
     </g>
     <g id="text_7">
      <!-- 0.4 -->
      <g style="fill: #262626" transform="translate(65.21 213.456797) scale(0.11 -0.11)">
       <use xlink:href="#ArialMT-30"/>
       <use xlink:href="#ArialMT-2e" x="55.615234"/>
       <use xlink:href="#ArialMT-34" x="83.398438"/>
      </g>
     </g>
    </g>
    <g id="ytick_4">
     <g id="line2d_8">
      <g>
       <use xlink:href="#mb2d81389c5" x="90" y="154.08" style="fill: #262626; stroke: #262626; stroke-width: 1.25"/>
      </g>
     </g>
     <g id="text_8">
      <!-- 0.6 -->
      <g style="fill: #262626" transform="translate(65.21 158.016797) scale(0.11 -0.11)">
       <defs>
        <path id="ArialMT-36" d="M 3184 3459 
L 2625 3416 
Q 2550 3747 2413 3897 
Q 2184 4138 1850 4138 
Q 1581 4138 1378 3988 
Q 1113 3794 959 3422 
Q 806 3050 800 2363 
Q 1003 2672 1297 2822 
Q 1591 2972 1913 2972 
Q 2475 2972 2870 2558 
Q 3266 2144 3266 1488 
Q 3266 1056 3080 686 
Q 2894 316 2569 119 
Q 2244 -78 1831 -78 
Q 1128 -78 684 439 
Q 241 956 241 2144 
Q 241 3472 731 4075 
Q 1159 4600 1884 4600 
Q 2425 4600 2770 4297 
Q 3116 3994 3184 3459 
z
M 888 1484 
Q 888 1194 1011 928 
Q 1134 663 1356 523 
Q 1578 384 1822 384 
Q 2178 384 2434 671 
Q 2691 959 2691 1453 
Q 2691 1928 2437 2201 
Q 2184 2475 1800 2475 
Q 1419 2475 1153 2201 
Q 888 1928 888 1484 
z
" transform="scale(0.015625)"/>
       </defs>
       <use xlink:href="#ArialMT-30"/>
       <use xlink:href="#ArialMT-2e" x="55.615234"/>
       <use xlink:href="#ArialMT-36" x="83.398438"/>
      </g>
     </g>
    </g>
    <g id="ytick_5">
     <g id="line2d_9">
      <g>
       <use xlink:href="#mb2d81389c5" x="90" y="98.64" style="fill: #262626; stroke: #262626; stroke-width: 1.25"/>
      </g>
     </g>
     <g id="text_9">
      <!-- 0.8 -->
      <g style="fill: #262626" transform="translate(65.21 102.576797) scale(0.11 -0.11)">
       <defs>
        <path id="ArialMT-38" d="M 1131 2484 
Q 781 2613 612 2850 
Q 444 3088 444 3419 
Q 444 3919 803 4259 
Q 1163 4600 1759 4600 
Q 2359 4600 2725 4251 
Q 3091 3903 3091 3403 
Q 3091 3084 2923 2848 
Q 2756 2613 2416 2484 
Q 2838 2347 3058 2040 
Q 3278 1734 3278 1309 
Q 3278 722 2862 322 
Q 2447 -78 1769 -78 
Q 1091 -78 675 323 
Q 259 725 259 1325 
Q 259 1772 486 2073 
Q 713 2375 1131 2484 
z
M 1019 3438 
Q 1019 3113 1228 2906 
Q 1438 2700 1772 2700 
Q 2097 2700 2305 2904 
Q 2513 3109 2513 3406 
Q 2513 3716 2298 3927 
Q 2084 4138 1766 4138 
Q 1444 4138 1231 3931 
Q 1019 3725 1019 3438 
z
M 838 1322 
Q 838 1081 952 856 
Q 1066 631 1291 507 
Q 1516 384 1775 384 
Q 2178 384 2440 643 
Q 2703 903 2703 1303 
Q 2703 1709 2433 1975 
Q 2163 2241 1756 2241 
Q 1359 2241 1098 1978 
Q 838 1716 838 1322 
z
" transform="scale(0.015625)"/>
       </defs>
       <use xlink:href="#ArialMT-30"/>
       <use xlink:href="#ArialMT-2e" x="55.615234"/>
       <use xlink:href="#ArialMT-38" x="83.398438"/>
      </g>
     </g>
    </g>
    <g id="ytick_6">
     <g id="line2d_10">
      <g>
       <use xlink:href="#mb2d81389c5" x="90" y="43.2" style="fill: #262626; stroke: #262626; stroke-width: 1.25"/>
      </g>
     </g>
     <g id="text_10">
      <!-- 1.0 -->
      <g style="fill: #262626" transform="translate(65.21 47.136797) scale(0.11 -0.11)">
       <use xlink:href="#ArialMT-31"/>
       <use xlink:href="#ArialMT-2e" x="55.615234"/>
       <use xlink:href="#ArialMT-30" x="83.398438"/>
      </g>
     </g>
    </g>
    <g id="text_11">
     <!-- Proportion -->
     <g style="fill: #262626" transform="translate(58.825 209.480625) rotate(-90) scale(0.12 -0.12)">
      <defs>
       <path id="ArialMT-50" d="M 494 0 
L 494 4581 
L 2222 4581 
Q 2678 4581 2919 4538 
Q 3256 4481 3484 4323 
Q 3713 4166 3852 3881 
Q 3991 3597 3991 3256 
Q 3991 2672 3619 2267 
Q 3247 1863 2275 1863 
L 1100 1863 
L 1100 0 
L 494 0 
z
M 1100 2403 
L 2284 2403 
Q 2872 2403 3119 2622 
Q 3366 2841 3366 3238 
Q 3366 3525 3220 3729 
Q 3075 3934 2838 4000 
Q 2684 4041 2272 4041 
L 1100 4041 
L 1100 2403 
z
" transform="scale(0.015625)"/>
       <path id="ArialMT-72" d="M 416 0 
L 416 3319 
L 922 3319 
L 922 2816 
Q 1116 3169 1280 3281 
Q 1444 3394 1641 3394 
Q 1925 3394 2219 3213 
L 2025 2691 
Q 1819 2813 1613 2813 
Q 1428 2813 1281 2702 
Q 1134 2591 1072 2394 
Q 978 2094 978 1738 
L 978 0 
L 416 0 
z
" transform="scale(0.015625)"/>
       <path id="ArialMT-6f" d="M 213 1659 
Q 213 2581 725 3025 
Q 1153 3394 1769 3394 
Q 2453 3394 2887 2945 
Q 3322 2497 3322 1706 
Q 3322 1066 3130 698 
Q 2938 331 2570 128 
Q 2203 -75 1769 -75 
Q 1072 -75 642 372 
Q 213 819 213 1659 
z
M 791 1659 
Q 791 1022 1069 705 
Q 1347 388 1769 388 
Q 2188 388 2466 706 
Q 2744 1025 2744 1678 
Q 2744 2294 2464 2611 
Q 2184 2928 1769 2928 
Q 1347 2928 1069 2612 
Q 791 2297 791 1659 
z
" transform="scale(0.015625)"/>
       <path id="ArialMT-70" d="M 422 -1272 
L 422 3319 
L 934 3319 
L 934 2888 
Q 1116 3141 1344 3267 
Q 1572 3394 1897 3394 
Q 2322 3394 2647 3175 
Q 2972 2956 3137 2557 
Q 3303 2159 3303 1684 
Q 3303 1175 3120 767 
Q 2938 359 2589 142 
Q 2241 -75 1856 -75 
Q 1575 -75 1351 44 
Q 1128 163 984 344 
L 984 -1272 
L 422 -1272 
z
M 931 1641 
Q 931 1000 1190 694 
Q 1450 388 1819 388 
Q 2194 388 2461 705 
Q 2728 1022 2728 1688 
Q 2728 2322 2467 2637 
Q 2206 2953 1844 2953 
Q 1484 2953 1207 2617 
Q 931 2281 931 1641 
z
" transform="scale(0.015625)"/>
       <path id="ArialMT-69" d="M 425 3934 
L 425 4581 
L 988 4581 
L 988 3934 
L 425 3934 
z
M 425 0 
L 425 3319 
L 988 3319 
L 988 0 
L 425 0 
z
" transform="scale(0.015625)"/>
       <path id="ArialMT-6e" d="M 422 0 
L 422 3319 
L 928 3319 
L 928 2847 
Q 1294 3394 1984 3394 
Q 2284 3394 2536 3286 
Q 2788 3178 2913 3003 
Q 3038 2828 3088 2588 
Q 3119 2431 3119 2041 
L 3119 0 
L 2556 0 
L 2556 2019 
Q 2556 2363 2490 2533 
Q 2425 2703 2258 2804 
Q 2091 2906 1866 2906 
Q 1506 2906 1245 2678 
Q 984 2450 984 1813 
L 984 0 
L 422 0 
z
" transform="scale(0.015625)"/>
      </defs>
      <use xlink:href="#ArialMT-50"/>
      <use xlink:href="#ArialMT-72" x="66.699219"/>
      <use xlink:href="#ArialMT-6f" x="100"/>
      <use xlink:href="#ArialMT-70" x="155.615234"/>
      <use xlink:href="#ArialMT-6f" x="211.230469"/>
      <use xlink:href="#ArialMT-72" x="266.845703"/>
      <use xlink:href="#ArialMT-74" x="300.146484"/>
      <use xlink:href="#ArialMT-69" x="327.929688"/>
      <use xlink:href="#ArialMT-6f" x="350.146484"/>
      <use xlink:href="#ArialMT-6e" x="405.761719"/>
     </g>
    </g>
   </g>
   <g id="PolyCollection_1">
    <defs>
     <path id="m4d761fc1d2" d="M 160.00071 -57.240535 
L 159.49929 -57.240535 
L 159.392933 -59.555425 
L 159.252073 -61.870315 
L 159.069714 -64.185204 
L 158.838744 -66.500094 
L 158.552234 -68.814984 
L 158.203714 -71.129874 
L 157.787344 -73.444764 
L 157.297966 -75.759654 
L 156.731026 -78.074544 
L 156.082391 -80.389434 
L 155.348161 -82.704324 
L 154.524593 -85.019214 
L 153.608282 -87.334104 
L 152.59672 -89.648994 
L 151.489309 -91.963884 
L 150.288796 -94.278774 
L 149.003013 -96.593663 
L 147.646641 -98.908553 
L 146.242689 -101.223443 
L 144.823285 -103.538333 
L 143.429443 -105.853223 
L 142.10958 -108.168113 
L 140.916741 -110.483003 
L 139.904706 -112.797893 
L 139.123402 -115.112783 
L 138.614201 -117.427673 
L 138.405749 -119.742563 
L 138.510969 -122.057453 
L 138.925668 -124.372343 
L 139.628967 -126.687233 
L 140.585437 -129.002123 
L 141.748594 -131.317012 
L 143.065198 -133.631902 
L 144.479742 -135.946792 
L 145.938548 -138.261682 
L 147.393075 -140.576572 
L 148.802187 -142.891462 
L 150.133377 -145.206352 
L 151.363065 -147.521242 
L 152.476189 -149.836132 
L 153.465339 -152.151022 
L 154.329642 -154.465912 
L 155.073554 -156.780802 
L 155.705655 -159.095692 
L 156.237478 -161.410582 
L 156.682416 -163.725471 
L 157.054676 -166.040361 
L 157.368341 -168.355251 
L 157.636539 -170.670141 
L 157.870767 -172.985031 
L 158.08042 -175.299921 
L 158.272542 -177.614811 
L 158.451815 -179.929701 
L 158.620764 -182.244591 
L 158.780149 -184.559481 
L 158.929458 -186.874371 
L 159.067453 -189.189261 
L 159.192674 -191.504151 
L 159.303857 -193.819041 
L 159.400219 -196.13393 
L 159.481598 -198.44882 
L 159.548467 -200.76371 
L 159.601832 -203.0786 
L 159.643071 -205.39349 
L 159.673733 -207.70838 
L 159.695344 -210.02327 
L 159.709233 -212.33816 
L 159.716405 -214.65305 
L 159.717448 -216.96794 
L 159.712495 -219.28283 
L 159.701236 -221.59772 
L 159.682976 -223.91261 
L 159.656743 -226.2275 
L 159.621458 -228.542389 
L 159.57614 -230.857279 
L 159.520161 -233.172169 
L 159.453505 -235.487059 
L 159.377009 -237.801949 
L 159.292538 -240.116839 
L 159.203059 -242.431729 
L 159.112564 -244.746619 
L 159.025837 -247.061509 
L 158.94807 -249.376399 
L 158.884362 -251.691289 
L 158.839175 -254.006179 
L 158.815815 -256.321069 
L 158.816038 -258.635959 
L 158.839827 -260.950849 
L 158.885395 -263.265738 
L 158.94941 -265.580628 
L 159.027395 -267.895518 
L 159.114244 -270.210408 
L 159.204771 -272.525298 
L 159.294209 -274.840188 
L 159.378592 -277.155078 
L 159.454991 -279.469968 
L 159.521588 -281.784858 
L 159.577615 -284.099748 
L 159.623182 -286.414638 
L 159.876818 -286.414638 
L 159.876818 -286.414638 
L 159.922385 -284.099748 
L 159.978412 -281.784858 
L 160.045009 -279.469968 
L 160.121408 -277.155078 
L 160.205791 -274.840188 
L 160.295229 -272.525298 
L 160.385756 -270.210408 
L 160.472605 -267.895518 
L 160.55059 -265.580628 
L 160.614605 -263.265738 
L 160.660173 -260.950849 
L 160.683962 -258.635959 
L 160.684185 -256.321069 
L 160.660825 -254.006179 
L 160.615638 -251.691289 
L 160.55193 -249.376399 
L 160.474163 -247.061509 
L 160.387436 -244.746619 
L 160.296941 -242.431729 
L 160.207462 -240.116839 
L 160.122991 -237.801949 
L 160.046495 -235.487059 
L 159.979839 -233.172169 
L 159.92386 -230.857279 
L 159.878542 -228.542389 
L 159.843257 -226.2275 
L 159.817024 -223.91261 
L 159.798764 -221.59772 
L 159.787505 -219.28283 
L 159.782552 -216.96794 
L 159.783595 -214.65305 
L 159.790767 -212.33816 
L 159.804656 -210.02327 
L 159.826267 -207.70838 
L 159.856929 -205.39349 
L 159.898168 -203.0786 
L 159.951533 -200.76371 
L 160.018402 -198.44882 
L 160.099781 -196.13393 
L 160.196143 -193.819041 
L 160.307326 -191.504151 
L 160.432547 -189.189261 
L 160.570542 -186.874371 
L 160.719851 -184.559481 
L 160.879236 -182.244591 
L 161.048185 -179.929701 
L 161.227458 -177.614811 
L 161.41958 -175.299921 
L 161.629233 -172.985031 
L 161.863461 -170.670141 
L 162.131659 -168.355251 
L 162.445324 -166.040361 
L 162.817584 -163.725471 
L 163.262522 -161.410582 
L 163.794345 -159.095692 
L 164.426446 -156.780802 
L 165.170358 -154.465912 
L 166.034661 -152.151022 
L 167.023811 -149.836132 
L 168.136935 -147.521242 
L 169.366623 -145.206352 
L 170.697813 -142.891462 
L 172.106925 -140.576572 
L 173.561452 -138.261682 
L 175.020258 -135.946792 
L 176.434802 -133.631902 
L 177.751406 -131.317012 
L 178.914563 -129.002123 
L 179.871033 -126.687233 
L 180.574332 -124.372343 
L 180.989031 -122.057453 
L 181.094251 -119.742563 
L 180.885799 -117.427673 
L 180.376598 -115.112783 
L 179.595294 -112.797893 
L 178.583259 -110.483003 
L 177.39042 -108.168113 
L 176.070557 -105.853223 
L 174.676715 -103.538333 
L 173.257311 -101.223443 
L 171.853359 -98.908553 
L 170.496987 -96.593663 
L 169.211204 -94.278774 
L 168.010691 -91.963884 
L 166.90328 -89.648994 
L 165.891718 -87.334104 
L 164.975407 -85.019214 
L 164.151839 -82.704324 
L 163.417609 -80.389434 
L 162.768974 -78.074544 
L 162.202034 -75.759654 
L 161.712656 -73.444764 
L 161.296286 -71.129874 
L 160.947766 -68.814984 
L 160.661256 -66.500094 
L 160.430286 -64.185204 
L 160.247927 -61.870315 
L 160.107067 -59.555425 
L 160.00071 -57.240535 
z
" style="stroke: #d55e00; stroke-width: 2"/>
    </defs>
    <g clip-path="url(#pf71b44030b)">
     <use xlink:href="#m4d761fc1d2" x="0" y="360" style="fill: #d55e00; fill-opacity: 0.3; stroke: #d55e00; stroke-width: 2"/>
    </g>
   </g>
   <g id="PolyCollection_2">
    <defs>
     <path id="m273729c18a" d="M 299.696588 -62.796497 
L 298.803412 -62.796497 
L 298.659386 -63.391961 
L 298.484488 -63.987426 
L 298.277376 -64.58289 
L 298.038275 -65.178354 
L 297.769208 -65.773819 
L 297.474029 -66.369283 
L 297.158183 -66.964747 
L 296.828149 -67.560212 
L 296.490573 -68.155676 
L 296.151139 -68.751141 
L 295.813308 -69.346605 
L 295.477062 -69.942069 
L 295.137843 -70.537534 
L 294.785887 -71.132998 
L 294.406076 -71.728462 
L 293.978426 -72.323927 
L 293.479189 -72.919391 
L 292.882484 -73.514855 
L 292.162283 -74.11032 
L 291.294502 -74.705784 
L 290.258922 -75.301248 
L 289.040717 -75.896713 
L 287.631369 -76.492177 
L 286.028927 -77.087642 
L 284.237601 -77.683106 
L 282.266865 -78.27857 
L 280.130277 -78.874035 
L 277.844296 -79.469499 
L 275.427347 -80.064963 
L 272.899335 -80.660428 
L 270.281692 -81.255892 
L 267.597917 -81.851356 
L 264.87447 -82.446821 
L 262.14175 -83.042285 
L 259.434878 -83.63775 
L 256.794008 -84.233214 
L 254.263946 -84.828678 
L 251.892978 -85.424143 
L 249.730927 -86.019607 
L 247.826597 -86.615071 
L 246.224855 -87.210536 
L 244.963693 -87.806 
L 244.071597 -88.401464 
L 243.565563 -88.996929 
L 243.45 -89.592393 
L 243.716659 -90.187857 
L 244.345597 -90.783322 
L 245.30705 -91.378786 
L 246.563974 -91.974251 
L 248.074899 -92.569715 
L 249.796751 -93.165179 
L 251.687267 -93.760644 
L 253.706757 -94.356108 
L 255.81907 -94.951572 
L 257.991803 -95.547037 
L 260.195918 -96.142501 
L 262.405065 -96.737965 
L 264.594941 -97.33343 
L 266.74297 -97.928894 
L 268.828491 -98.524359 
L 270.833472 -99.119823 
L 272.743595 -99.715287 
L 274.54942 -100.310752 
L 276.247284 -100.906216 
L 277.839595 -101.50168 
L 279.334305 -102.097145 
L 280.743521 -102.692609 
L 282.081412 -103.288073 
L 283.361735 -103.883538 
L 284.59542 -104.479002 
L 285.788644 -105.074467 
L 286.941775 -105.669931 
L 288.049364 -106.265395 
L 289.101204 -106.86086 
L 290.084244 -107.456324 
L 290.985025 -108.051788 
L 291.792187 -108.647253 
L 292.498633 -109.242717 
L 293.103 -109.838181 
L 293.610227 -110.433646 
L 294.031161 -111.02911 
L 294.381343 -111.624574 
L 294.679177 -112.220039 
L 294.943825 -112.815503 
L 295.193128 -113.410968 
L 295.441874 -114.006432 
L 295.700593 -114.601896 
L 295.975012 -115.197361 
L 296.26614 -115.792825 
L 296.570921 -116.388289 
L 296.883266 -116.983754 
L 297.195284 -117.579218 
L 297.498524 -118.174682 
L 297.785066 -118.770147 
L 298.048338 -119.365611 
L 298.283634 -119.961076 
L 298.4883 -120.55654 
L 298.661662 -121.152004 
L 298.804742 -121.747469 
L 299.695258 -121.747469 
L 299.695258 -121.747469 
L 299.838338 -121.152004 
L 300.0117 -120.55654 
L 300.216366 -119.961076 
L 300.451662 -119.365611 
L 300.714934 -118.770147 
L 301.001476 -118.174682 
L 301.304716 -117.579218 
L 301.616734 -116.983754 
L 301.929079 -116.388289 
L 302.23386 -115.792825 
L 302.524988 -115.197361 
L 302.799407 -114.601896 
L 303.058126 -114.006432 
L 303.306872 -113.410968 
L 303.556175 -112.815503 
L 303.820823 -112.220039 
L 304.118657 -111.624574 
L 304.468839 -111.02911 
L 304.889773 -110.433646 
L 305.397 -109.838181 
L 306.001367 -109.242717 
L 306.707813 -108.647253 
L 307.514975 -108.051788 
L 308.415756 -107.456324 
L 309.398796 -106.86086 
L 310.450636 -106.265395 
L 311.558225 -105.669931 
L 312.711356 -105.074467 
L 313.90458 -104.479002 
L 315.138265 -103.883538 
L 316.418588 -103.288073 
L 317.756479 -102.692609 
L 319.165695 -102.097145 
L 320.660405 -101.50168 
L 322.252716 -100.906216 
L 323.95058 -100.310752 
L 325.756405 -99.715287 
L 327.666528 -99.119823 
L 329.671509 -98.524359 
L 331.75703 -97.928894 
L 333.905059 -97.33343 
L 336.094935 -96.737965 
L 338.304082 -96.142501 
L 340.508197 -95.547037 
L 342.68093 -94.951572 
L 344.793243 -94.356108 
L 346.812733 -93.760644 
L 348.703249 -93.165179 
L 350.425101 -92.569715 
L 351.936026 -91.974251 
L 353.19295 -91.378786 
L 354.154403 -90.783322 
L 354.783341 -90.187857 
L 355.05 -89.592393 
L 354.934437 -88.996929 
L 354.428403 -88.401464 
L 353.536307 -87.806 
L 352.275145 -87.210536 
L 350.673403 -86.615071 
L 348.769073 -86.019607 
L 346.607022 -85.424143 
L 344.236054 -84.828678 
L 341.705992 -84.233214 
L 339.065122 -83.63775 
L 336.35825 -83.042285 
L 333.62553 -82.446821 
L 330.902083 -81.851356 
L 328.218308 -81.255892 
L 325.600665 -80.660428 
L 323.072653 -80.064963 
L 320.655704 -79.469499 
L 318.369723 -78.874035 
L 316.233135 -78.27857 
L 314.262399 -77.683106 
L 312.471073 -77.087642 
L 310.868631 -76.492177 
L 309.459283 -75.896713 
L 308.241078 -75.301248 
L 307.205498 -74.705784 
L 306.337717 -74.11032 
L 305.617516 -73.514855 
L 305.020811 -72.919391 
L 304.521574 -72.323927 
L 304.093924 -71.728462 
L 303.714113 -71.132998 
L 303.362157 -70.537534 
L 303.022938 -69.942069 
L 302.686692 -69.346605 
L 302.348861 -68.751141 
L 302.009427 -68.155676 
L 301.671851 -67.560212 
L 301.341817 -66.964747 
L 301.025971 -66.369283 
L 300.730792 -65.773819 
L 300.461725 -65.178354 
L 300.222624 -64.58289 
L 300.015512 -63.987426 
L 299.840614 -63.391961 
L 299.696588 -62.796497 
z
" style="stroke: #0072b2; stroke-width: 2"/>
    </defs>
    <g clip-path="url(#pf71b44030b)">
     <use xlink:href="#m273729c18a" x="0" y="360" style="fill: #0072b2; fill-opacity: 0.3; stroke: #0072b2; stroke-width: 2"/>
    </g>
   </g>
   <g id="PolyCollection_3">
    <defs>
     <path id="mda5dfcfc3a" d="M 439.067833 -60.133461 
L 438.432167 -60.133461 
L 438.334925 -60.961747 
L 438.216848 -61.790033 
L 438.076243 -62.618319 
L 437.912008 -63.446605 
L 437.723762 -64.274891 
L 437.51192 -65.103177 
L 437.277689 -65.931463 
L 437.022973 -66.759749 
L 436.750184 -67.588035 
L 436.461989 -68.416321 
L 436.16101 -69.244607 
L 435.849525 -70.072893 
L 435.52922 -70.901179 
L 435.201026 -71.729465 
L 434.865087 -72.557752 
L 434.520862 -73.386038 
L 434.167345 -74.214324 
L 433.803388 -75.04261 
L 433.428037 -75.870896 
L 433.040852 -76.699182 
L 432.642107 -77.527468 
L 432.232843 -78.355754 
L 431.814716 -79.18404 
L 431.389662 -80.012326 
L 430.959382 -80.840612 
L 430.524729 -81.668898 
L 430.085059 -82.497184 
L 429.637632 -83.32547 
L 429.177169 -84.153756 
L 428.69561 -84.982042 
L 428.182133 -85.810329 
L 427.623464 -86.638615 
L 427.004442 -87.466901 
L 426.308841 -88.295187 
L 425.520362 -89.123473 
L 424.623756 -89.951759 
L 423.605991 -90.780045 
L 422.457406 -91.608331 
L 421.172772 -92.436617 
L 419.752211 -93.264903 
L 418.201908 -94.093189 
L 416.534575 -94.921475 
L 414.769612 -95.749761 
L 412.93294 -96.578047 
L 411.056478 -97.406333 
L 409.177264 -98.234619 
L 407.336238 -99.062906 
L 405.576738 -99.891192 
L 403.942782 -100.719478 
L 402.477234 -101.547764 
L 401.219979 -102.37605 
L 400.2062 -103.204336 
L 399.464882 -104.032622 
L 399.017616 -104.860908 
L 398.877759 -105.689194 
L 399.049966 -106.51748 
L 399.530098 -107.345766 
L 400.305475 -108.174052 
L 401.355437 -109.002338 
L 402.652176 -109.830624 
L 404.161809 -110.65891 
L 405.845648 -111.487196 
L 407.661654 -112.315483 
L 409.566021 -113.143769 
L 411.514855 -113.972055 
L 413.465876 -114.800341 
L 415.380074 -115.628627 
L 417.223203 -116.456913 
L 418.967049 -117.285199 
L 420.590346 -118.113485 
L 422.079293 -118.941771 
L 423.427621 -119.770057 
L 424.636197 -120.598343 
L 425.712213 -121.426629 
L 426.668011 -122.254915 
L 427.519665 -123.083201 
L 428.285429 -123.911487 
L 428.98418 -124.739773 
L 429.633981 -125.56806 
L 430.250868 -126.396346 
L 430.847939 -127.224632 
L 431.434782 -128.052918 
L 432.017268 -128.881204 
L 432.597662 -129.70949 
L 433.175028 -130.537776 
L 433.745835 -131.366062 
L 434.304702 -132.194348 
L 434.84519 -133.022634 
L 435.360572 -133.85092 
L 435.844509 -134.679206 
L 436.291599 -135.507492 
L 436.69776 -136.335778 
L 437.060452 -137.164064 
L 437.378724 -137.99235 
L 437.653141 -138.820637 
L 437.885587 -139.648923 
L 438.079002 -140.477209 
L 438.237086 -141.305495 
L 438.363995 -142.133781 
L 439.136005 -142.133781 
L 439.136005 -142.133781 
L 439.262914 -141.305495 
L 439.420998 -140.477209 
L 439.614413 -139.648923 
L 439.846859 -138.820637 
L 440.121276 -137.99235 
L 440.439548 -137.164064 
L 440.80224 -136.335778 
L 441.208401 -135.507492 
L 441.655491 -134.679206 
L 442.139428 -133.85092 
L 442.65481 -133.022634 
L 443.195298 -132.194348 
L 443.754165 -131.366062 
L 444.324972 -130.537776 
L 444.902338 -129.70949 
L 445.482732 -128.881204 
L 446.065218 -128.052918 
L 446.652061 -127.224632 
L 447.249132 -126.396346 
L 447.866019 -125.56806 
L 448.51582 -124.739773 
L 449.214571 -123.911487 
L 449.980335 -123.083201 
L 450.831989 -122.254915 
L 451.787787 -121.426629 
L 452.863803 -120.598343 
L 454.072379 -119.770057 
L 455.420707 -118.941771 
L 456.909654 -118.113485 
L 458.532951 -117.285199 
L 460.276797 -116.456913 
L 462.119926 -115.628627 
L 464.034124 -114.800341 
L 465.985145 -113.972055 
L 467.933979 -113.143769 
L 469.838346 -112.315483 
L 471.654352 -111.487196 
L 473.338191 -110.65891 
L 474.847824 -109.830624 
L 476.144563 -109.002338 
L 477.194525 -108.174052 
L 477.969902 -107.345766 
L 478.450034 -106.51748 
L 478.622241 -105.689194 
L 478.482384 -104.860908 
L 478.035118 -104.032622 
L 477.2938 -103.204336 
L 476.280021 -102.37605 
L 475.022766 -101.547764 
L 473.557218 -100.719478 
L 471.923262 -99.891192 
L 470.163762 -99.062906 
L 468.322736 -98.234619 
L 466.443522 -97.406333 
L 464.56706 -96.578047 
L 462.730388 -95.749761 
L 460.965425 -94.921475 
L 459.298092 -94.093189 
L 457.747789 -93.264903 
L 456.327228 -92.436617 
L 455.042594 -91.608331 
L 453.894009 -90.780045 
L 452.876244 -89.951759 
L 451.979638 -89.123473 
L 451.191159 -88.295187 
L 450.495558 -87.466901 
L 449.876536 -86.638615 
L 449.317867 -85.810329 
L 448.80439 -84.982042 
L 448.322831 -84.153756 
L 447.862368 -83.32547 
L 447.414941 -82.497184 
L 446.975271 -81.668898 
L 446.540618 -80.840612 
L 446.110338 -80.012326 
L 445.685284 -79.18404 
L 445.267157 -78.355754 
L 444.857893 -77.527468 
L 444.459148 -76.699182 
L 444.071963 -75.870896 
L 443.696612 -75.04261 
L 443.332655 -74.214324 
L 442.979138 -73.386038 
L 442.634913 -72.557752 
L 442.298974 -71.729465 
L 441.97078 -70.901179 
L 441.650475 -70.072893 
L 441.33899 -69.244607 
L 441.038011 -68.416321 
L 440.749816 -67.588035 
L 440.477027 -66.759749 
L 440.222311 -65.931463 
L 439.98808 -65.103177 
L 439.776238 -64.274891 
L 439.587992 -63.446605 
L 439.423757 -62.618319 
L 439.283152 -61.790033 
L 439.165075 -60.961747 
L 439.067833 -60.133461 
z
" style="stroke: #009e73; stroke-width: 2"/>
    </defs>
    <g clip-path="url(#pf71b44030b)">
     <use xlink:href="#mda5dfcfc3a" x="0" y="360" style="fill: #009e73; fill-opacity: 0.3; stroke: #009e73; stroke-width: 2"/>
    </g>
   </g>
   <g id="PolyCollection_4">
    <defs>
     <path id="ma509340cfc" d="M 578.458508 -34.732317 
L 578.041492 -34.732317 
L 577.96335 -36.194447 
L 577.866639 -37.656577 
L 577.751239 -39.118707 
L 577.618746 -40.580837 
L 577.472781 -42.042967 
L 577.319083 -43.505097 
L 577.165308 -44.967228 
L 577.020497 -46.429358 
L 576.894247 -47.891488 
L 576.795683 -49.353618 
L 576.73237 -50.815748 
L 576.709361 -52.277878 
L 576.728527 -53.740008 
L 576.788303 -55.202139 
L 576.883898 -56.664269 
L 577.007925 -58.126399 
L 577.151329 -59.588529 
L 577.304458 -61.050659 
L 577.458082 -62.512789 
L 577.604211 -63.974919 
L 577.736603 -65.43705 
L 577.850913 -66.89918 
L 577.944509 -68.36131 
L 578.016006 -69.82344 
L 578.064623 -71.28557 
L 578.089434 -72.7477 
L 578.088624 -74.20983 
L 578.058807 -75.671961 
L 577.994474 -77.134091 
L 577.88762 -78.596221 
L 577.727596 -80.058351 
L 577.501217 -81.520481 
L 577.193134 -82.982611 
L 576.786466 -84.444741 
L 576.263636 -85.906872 
L 575.60733 -87.369002 
L 574.801483 -88.831132 
L 573.832201 -90.293262 
L 572.68857 -91.755392 
L 571.363372 -93.217522 
L 569.853804 -94.679652 
L 568.162324 -96.141783 
L 566.297778 -97.603913 
L 564.276846 -99.066043 
L 562.125713 -100.528173 
L 559.881688 -101.990303 
L 557.594288 -103.452433 
L 555.325263 -104.914563 
L 553.147038 -106.376694 
L 551.139299 -107.838824 
L 549.383757 -109.300954 
L 547.957555 -110.763084 
L 546.926141 -112.225214 
L 546.336648 -113.687344 
L 546.212857 -115.149474 
L 546.55257 -116.611605 
L 547.327843 -118.073735 
L 548.488011 -119.535865 
L 549.964993 -120.997995 
L 551.679984 -122.460125 
L 553.550561 -123.922255 
L 555.497243 -125.384385 
L 557.448813 -126.846516 
L 559.346018 -128.308646 
L 561.143548 -129.770776 
L 562.810496 -131.232906 
L 564.329565 -132.695036 
L 565.695404 -134.157166 
L 566.912365 -135.619296 
L 567.99195 -137.081427 
L 568.95017 -138.543557 
L 569.804976 -140.005687 
L 570.573961 -141.467817 
L 571.2725 -142.929947 
L 571.912488 -144.392077 
L 572.501774 -145.854207 
L 573.044335 -147.316337 
L 573.541086 -148.778468 
L 573.991163 -150.240598 
L 574.393402 -151.702728 
L 574.747723 -153.164858 
L 575.056148 -154.626988 
L 575.323269 -156.089118 
L 575.556084 -157.551248 
L 575.76327 -159.013379 
L 575.954072 -160.475509 
L 576.137047 -161.937639 
L 576.318933 -163.399769 
L 576.503872 -164.861899 
L 576.6931 -166.324029 
L 576.885141 -167.786159 
L 577.076423 -169.24829 
L 577.262141 -170.71042 
L 577.437206 -172.17255 
L 577.597076 -173.63468 
L 577.738372 -175.09681 
L 577.859193 -176.55894 
L 577.959152 -178.02107 
L 578.039186 -179.483201 
L 578.460814 -179.483201 
L 578.460814 -179.483201 
L 578.540848 -178.02107 
L 578.640807 -176.55894 
L 578.761628 -175.09681 
L 578.902924 -173.63468 
L 579.062794 -172.17255 
L 579.237859 -170.71042 
L 579.423577 -169.24829 
L 579.614859 -167.786159 
L 579.8069 -166.324029 
L 579.996128 -164.861899 
L 580.181067 -163.399769 
L 580.362953 -161.937639 
L 580.545928 -160.475509 
L 580.73673 -159.013379 
L 580.943916 -157.551248 
L 581.176731 -156.089118 
L 581.443852 -154.626988 
L 581.752277 -153.164858 
L 582.106598 -151.702728 
L 582.508837 -150.240598 
L 582.958914 -148.778468 
L 583.455665 -147.316337 
L 583.998226 -145.854207 
L 584.587512 -144.392077 
L 585.2275 -142.929947 
L 585.926039 -141.467817 
L 586.695024 -140.005687 
L 587.54983 -138.543557 
L 588.50805 -137.081427 
L 589.587635 -135.619296 
L 590.804596 -134.157166 
L 592.170435 -132.695036 
L 593.689504 -131.232906 
L 595.356452 -129.770776 
L 597.153982 -128.308646 
L 599.051187 -126.846516 
L 601.002757 -125.384385 
L 602.949439 -123.922255 
L 604.820016 -122.460125 
L 606.535007 -120.997995 
L 608.011989 -119.535865 
L 609.172157 -118.073735 
L 609.94743 -116.611605 
L 610.287143 -115.149474 
L 610.163352 -113.687344 
L 609.573859 -112.225214 
L 608.542445 -110.763084 
L 607.116243 -109.300954 
L 605.360701 -107.838824 
L 603.352962 -106.376694 
L 601.174737 -104.914563 
L 598.905712 -103.452433 
L 596.618312 -101.990303 
L 594.374287 -100.528173 
L 592.223154 -99.066043 
L 590.202222 -97.603913 
L 588.337676 -96.141783 
L 586.646196 -94.679652 
L 585.136628 -93.217522 
L 583.81143 -91.755392 
L 582.667799 -90.293262 
L 581.698517 -88.831132 
L 580.89267 -87.369002 
L 580.236364 -85.906872 
L 579.713534 -84.444741 
L 579.306866 -82.982611 
L 578.998783 -81.520481 
L 578.772404 -80.058351 
L 578.61238 -78.596221 
L 578.505526 -77.134091 
L 578.441193 -75.671961 
L 578.411376 -74.20983 
L 578.410566 -72.7477 
L 578.435377 -71.28557 
L 578.483994 -69.82344 
L 578.555491 -68.36131 
L 578.649087 -66.89918 
L 578.763397 -65.43705 
L 578.895789 -63.974919 
L 579.041918 -62.512789 
L 579.195542 -61.050659 
L 579.348671 -59.588529 
L 579.492075 -58.126399 
L 579.616102 -56.664269 
L 579.711697 -55.202139 
L 579.771473 -53.740008 
L 579.790639 -52.277878 
L 579.76763 -50.815748 
L 579.704317 -49.353618 
L 579.605753 -47.891488 
L 579.479503 -46.429358 
L 579.334692 -44.967228 
L 579.180917 -43.505097 
L 579.027219 -42.042967 
L 578.881254 -40.580837 
L 578.748761 -39.118707 
L 578.633361 -37.656577 
L 578.53665 -36.194447 
L 578.458508 -34.732317 
z
" style="stroke: #cc79a7; stroke-width: 2"/>
    </defs>
    <g clip-path="url(#pf71b44030b)">
     <use xlink:href="#ma509340cfc" x="0" y="360" style="fill: #cc79a7; fill-opacity: 0.3; stroke: #cc79a7; stroke-width: 2"/>
    </g>
   </g>
   <g id="patch_3">
    <path d="M 90 320.4 
L 90 43.2 
" style="fill: none; stroke: #262626; stroke-width: 1.25; stroke-linejoin: miter; stroke-linecap: square"/>
   </g>
   <g id="patch_4">
    <path d="M 648 320.4 
L 648 43.2 
" style="fill: none; stroke: #262626; stroke-width: 1.25; stroke-linejoin: miter; stroke-linecap: square"/>
   </g>
   <g id="patch_5">
    <path d="M 90 320.4 
L 648 320.4 
" style="fill: none; stroke: #262626; stroke-width: 1.25; stroke-linejoin: miter; stroke-linecap: square"/>
   </g>
   <g id="patch_6">
    <path d="M 90 43.2 
L 648 43.2 
" style="fill: none; stroke: #262626; stroke-width: 1.25; stroke-linejoin: miter; stroke-linecap: square"/>
   </g>
   <g id="text_12">
    <!-- Fractional Occupancy -->
    <g style="fill: #262626" transform="translate(295.871875 37.2) scale(0.14 -0.14)">
     <defs>
      <path id="Arial-BoldMT-46" d="M 472 0 
L 472 4581 
L 3613 4581 
L 3613 3806 
L 1397 3806 
L 1397 2722 
L 3309 2722 
L 3309 1947 
L 1397 1947 
L 1397 0 
L 472 0 
z
" transform="scale(0.015625)"/>
      <path id="Arial-BoldMT-72" d="M 1300 0 
L 422 0 
L 422 3319 
L 1238 3319 
L 1238 2847 
Q 1447 3181 1614 3287 
Q 1781 3394 1994 3394 
Q 2294 3394 2572 3228 
L 2300 2463 
Q 2078 2606 1888 2606 
Q 1703 2606 1575 2504 
Q 1447 2403 1373 2137 
Q 1300 1872 1300 1025 
L 1300 0 
z
" transform="scale(0.015625)"/>
      <path id="Arial-BoldMT-61" d="M 1116 2306 
L 319 2450 
Q 453 2931 781 3162 
Q 1109 3394 1756 3394 
Q 2344 3394 2631 3255 
Q 2919 3116 3036 2902 
Q 3153 2688 3153 2116 
L 3144 1091 
Q 3144 653 3186 445 
Q 3228 238 3344 0 
L 2475 0 
Q 2441 88 2391 259 
Q 2369 338 2359 363 
Q 2134 144 1878 34 
Q 1622 -75 1331 -75 
Q 819 -75 523 203 
Q 228 481 228 906 
Q 228 1188 362 1408 
Q 497 1628 739 1745 
Q 981 1863 1438 1950 
Q 2053 2066 2291 2166 
L 2291 2253 
Q 2291 2506 2166 2614 
Q 2041 2722 1694 2722 
Q 1459 2722 1328 2630 
Q 1197 2538 1116 2306 
z
M 2291 1594 
Q 2122 1538 1756 1459 
Q 1391 1381 1278 1306 
Q 1106 1184 1106 997 
Q 1106 813 1243 678 
Q 1381 544 1594 544 
Q 1831 544 2047 700 
Q 2206 819 2256 991 
Q 2291 1103 2291 1419 
L 2291 1594 
z
" transform="scale(0.015625)"/>
      <path id="Arial-BoldMT-63" d="M 3353 2338 
L 2488 2181 
Q 2444 2441 2289 2572 
Q 2134 2703 1888 2703 
Q 1559 2703 1364 2476 
Q 1169 2250 1169 1719 
Q 1169 1128 1367 884 
Q 1566 641 1900 641 
Q 2150 641 2309 783 
Q 2469 925 2534 1272 
L 3397 1125 
Q 3263 531 2881 228 
Q 2500 -75 1859 -75 
Q 1131 -75 698 384 
Q 266 844 266 1656 
Q 266 2478 700 2936 
Q 1134 3394 1875 3394 
Q 2481 3394 2839 3133 
Q 3197 2872 3353 2338 
z
" transform="scale(0.015625)"/>
      <path id="Arial-BoldMT-74" d="M 1981 3319 
L 1981 2619 
L 1381 2619 
L 1381 1281 
Q 1381 875 1398 808 
Q 1416 741 1477 697 
Q 1538 653 1625 653 
Q 1747 653 1978 738 
L 2053 56 
Q 1747 -75 1359 -75 
Q 1122 -75 931 4 
Q 741 84 652 211 
Q 563 338 528 553 
Q 500 706 500 1172 
L 500 2619 
L 97 2619 
L 97 3319 
L 500 3319 
L 500 3978 
L 1381 4491 
L 1381 3319 
L 1981 3319 
z
" transform="scale(0.015625)"/>
      <path id="Arial-BoldMT-69" d="M 459 3769 
L 459 4581 
L 1338 4581 
L 1338 3769 
L 459 3769 
z
M 459 0 
L 459 3319 
L 1338 3319 
L 1338 0 
L 459 0 
z
" transform="scale(0.015625)"/>
      <path id="Arial-BoldMT-6f" d="M 256 1706 
Q 256 2144 472 2553 
Q 688 2963 1083 3178 
Q 1478 3394 1966 3394 
Q 2719 3394 3200 2905 
Q 3681 2416 3681 1669 
Q 3681 916 3195 420 
Q 2709 -75 1972 -75 
Q 1516 -75 1102 131 
Q 688 338 472 736 
Q 256 1134 256 1706 
z
M 1156 1659 
Q 1156 1166 1390 903 
Q 1625 641 1969 641 
Q 2313 641 2545 903 
Q 2778 1166 2778 1666 
Q 2778 2153 2545 2415 
Q 2313 2678 1969 2678 
Q 1625 2678 1390 2415 
Q 1156 2153 1156 1659 
z
" transform="scale(0.015625)"/>
      <path id="Arial-BoldMT-6e" d="M 3478 0 
L 2600 0 
L 2600 1694 
Q 2600 2231 2544 2389 
Q 2488 2547 2361 2634 
Q 2234 2722 2056 2722 
Q 1828 2722 1647 2597 
Q 1466 2472 1398 2265 
Q 1331 2059 1331 1503 
L 1331 0 
L 453 0 
L 453 3319 
L 1269 3319 
L 1269 2831 
Q 1703 3394 2363 3394 
Q 2653 3394 2893 3289 
Q 3134 3184 3257 3021 
Q 3381 2859 3429 2653 
Q 3478 2447 3478 2063 
L 3478 0 
z
" transform="scale(0.015625)"/>
      <path id="Arial-BoldMT-6c" d="M 459 0 
L 459 4581 
L 1338 4581 
L 1338 0 
L 459 0 
z
" transform="scale(0.015625)"/>
      <path id="Arial-BoldMT-20" transform="scale(0.015625)"/>
      <path id="Arial-BoldMT-4f" d="M 278 2263 
Q 278 2963 488 3438 
Q 644 3788 914 4066 
Q 1184 4344 1506 4478 
Q 1934 4659 2494 4659 
Q 3506 4659 4114 4031 
Q 4722 3403 4722 2284 
Q 4722 1175 4119 548 
Q 3516 -78 2506 -78 
Q 1484 -78 881 545 
Q 278 1169 278 2263 
z
M 1231 2294 
Q 1231 1516 1590 1114 
Q 1950 713 2503 713 
Q 3056 713 3411 1111 
Q 3766 1509 3766 2306 
Q 3766 3094 3420 3481 
Q 3075 3869 2503 3869 
Q 1931 3869 1581 3476 
Q 1231 3084 1231 2294 
z
" transform="scale(0.015625)"/>
      <path id="Arial-BoldMT-75" d="M 2644 0 
L 2644 497 
Q 2463 231 2167 78 
Q 1872 -75 1544 -75 
Q 1209 -75 943 72 
Q 678 219 559 484 
Q 441 750 441 1219 
L 441 3319 
L 1319 3319 
L 1319 1794 
Q 1319 1094 1367 936 
Q 1416 778 1544 686 
Q 1672 594 1869 594 
Q 2094 594 2272 717 
Q 2450 841 2515 1023 
Q 2581 1206 2581 1919 
L 2581 3319 
L 3459 3319 
L 3459 0 
L 2644 0 
z
" transform="scale(0.015625)"/>
      <path id="Arial-BoldMT-70" d="M 434 3319 
L 1253 3319 
L 1253 2831 
Q 1413 3081 1684 3237 
Q 1956 3394 2288 3394 
Q 2866 3394 3269 2941 
Q 3672 2488 3672 1678 
Q 3672 847 3265 386 
Q 2859 -75 2281 -75 
Q 2006 -75 1782 34 
Q 1559 144 1313 409 
L 1313 -1263 
L 434 -1263 
L 434 3319 
z
M 1303 1716 
Q 1303 1156 1525 889 
Q 1747 622 2066 622 
Q 2372 622 2575 867 
Q 2778 1113 2778 1672 
Q 2778 2194 2568 2447 
Q 2359 2700 2050 2700 
Q 1728 2700 1515 2451 
Q 1303 2203 1303 1716 
z
" transform="scale(0.015625)"/>
      <path id="Arial-BoldMT-79" d="M 44 3319 
L 978 3319 
L 1772 963 
L 2547 3319 
L 3456 3319 
L 2284 125 
L 2075 -453 
Q 1959 -744 1854 -897 
Q 1750 -1050 1614 -1145 
Q 1478 -1241 1279 -1294 
Q 1081 -1347 831 -1347 
Q 578 -1347 334 -1294 
L 256 -606 
Q 463 -647 628 -647 
Q 934 -647 1081 -467 
Q 1228 -288 1306 -9 
L 44 3319 
z
" transform="scale(0.015625)"/>
     </defs>
     <use xlink:href="#Arial-BoldMT-46"/>
     <use xlink:href="#Arial-BoldMT-72" x="61.083984"/>
     <use xlink:href="#Arial-BoldMT-61" x="100"/>
     <use xlink:href="#Arial-BoldMT-63" x="155.615234"/>
     <use xlink:href="#Arial-BoldMT-74" x="211.230469"/>
     <use xlink:href="#Arial-BoldMT-69" x="244.53125"/>
     <use xlink:href="#Arial-BoldMT-6f" x="272.314453"/>
     <use xlink:href="#Arial-BoldMT-6e" x="333.398438"/>
     <use xlink:href="#Arial-BoldMT-61" x="394.482422"/>
     <use xlink:href="#Arial-BoldMT-6c" x="450.097656"/>
     <use xlink:href="#Arial-BoldMT-20" x="477.880859"/>
     <use xlink:href="#Arial-BoldMT-4f" x="505.664062"/>
     <use xlink:href="#Arial-BoldMT-63" x="583.447266"/>
     <use xlink:href="#Arial-BoldMT-63" x="639.0625"/>
     <use xlink:href="#Arial-BoldMT-75" x="694.677734"/>
     <use xlink:href="#Arial-BoldMT-70" x="755.761719"/>
     <use xlink:href="#Arial-BoldMT-61" x="816.845703"/>
     <use xlink:href="#Arial-BoldMT-6e" x="872.460938"/>
     <use xlink:href="#Arial-BoldMT-63" x="933.544922"/>
     <use xlink:href="#Arial-BoldMT-79" x="989.160156"/>
    </g>
   </g>
  </g>
 </g>
 <defs>
  <clipPath id="pf71b44030b">
   <rect x="90" y="43.2" width="558" height="277.2"/>
  </clipPath>
 </defs>
</svg>
