<?xml version="1.0" encoding="utf-8" standalone="no"?>
<!DOCTYPE svg PUBLIC "-//W3C//DTD SVG 1.1//EN"
  "http://www.w3.org/Graphics/SVG/1.1/DTD/svg11.dtd">
<svg xmlns:xlink="http://www.w3.org/1999/xlink" width="720pt" height="1080pt" viewBox="0 0 720 1080" xmlns="http://www.w3.org/2000/svg" version="1.1">
 <metadata>
  <rdf:RDF xmlns:dc="http://purl.org/dc/elements/1.1/" xmlns:cc="http://creativecommons.org/ns#" xmlns:rdf="http://www.w3.org/1999/02/22-rdf-syntax-ns#">
   <cc:Work>
    <dc:type rdf:resource="http://purl.org/dc/dcmitype/StillImage"/>
    <dc:date>2024-08-23T16:46:00.085548</dc:date>
    <dc:format>image/svg+xml</dc:format>
    <dc:creator>
     <cc:Agent>
      <dc:title>Matplotlib v3.8.0, https://matplotlib.org/</dc:title>
     </cc:Agent>
    </dc:creator>
   </cc:Work>
  </rdf:RDF>
 </metadata>
 <defs>
  <style type="text/css">*{stroke-linejoin: round; stroke-linecap: butt}</style>
 </defs>
 <g id="figure_1">
  <g id="patch_1">
   <path d="M 0 1080 
L 720 1080 
L 720 0 
L 0 0 
z
" style="fill: #ffffff"/>
  </g>
  <g id="axes_1">
   <g id="patch_2">
    <path d="M 90 507.6 
L 648 507.6 
L 648 129.6 
L 90 129.6 
z
" style="fill: #ffffff"/>
   </g>
   <g id="matplotlib.axis_1">
    <g id="xtick_1">
     <g id="line2d_1">
      <defs>
       <path id="m9b3899fc61" d="M 0 0 
L 0 6 
" style="stroke: #262626; stroke-width: 1.25"/>
      </defs>
      <g>
       <use xlink:href="#m9b3899fc61" x="159.75" y="507.6" style="fill: #262626; stroke: #262626; stroke-width: 1.25"/>
      </g>
     </g>
     <g id="text_1">
      <!-- State 1 -->
      <g style="fill: #262626" transform="translate(142.321875 524.973594) scale(0.11 -0.11)">
       <defs>
        <path id="ArialMT-53" d="M 288 1472 
L 859 1522 
Q 900 1178 1048 958 
Q 1197 738 1509 602 
Q 1822 466 2213 466 
Q 2559 466 2825 569 
Q 3091 672 3220 851 
Q 3350 1031 3350 1244 
Q 3350 1459 3225 1620 
Q 3100 1781 2813 1891 
Q 2628 1963 1997 2114 
Q 1366 2266 1113 2400 
Q 784 2572 623 2826 
Q 463 3081 463 3397 
Q 463 3744 659 4045 
Q 856 4347 1234 4503 
Q 1613 4659 2075 4659 
Q 2584 4659 2973 4495 
Q 3363 4331 3572 4012 
Q 3781 3694 3797 3291 
L 3216 3247 
Q 3169 3681 2898 3903 
Q 2628 4125 2100 4125 
Q 1550 4125 1298 3923 
Q 1047 3722 1047 3438 
Q 1047 3191 1225 3031 
Q 1400 2872 2139 2705 
Q 2878 2538 3153 2413 
Q 3553 2228 3743 1945 
Q 3934 1663 3934 1294 
Q 3934 928 3725 604 
Q 3516 281 3123 101 
Q 2731 -78 2241 -78 
Q 1619 -78 1198 103 
Q 778 284 539 648 
Q 300 1013 288 1472 
z
" transform="scale(0.015625)"/>
        <path id="ArialMT-74" d="M 1650 503 
L 1731 6 
Q 1494 -44 1306 -44 
Q 1000 -44 831 53 
Q 663 150 594 308 
Q 525 466 525 972 
L 525 2881 
L 113 2881 
L 113 3319 
L 525 3319 
L 525 4141 
L 1084 4478 
L 1084 3319 
L 1650 3319 
L 1650 2881 
L 1084 2881 
L 1084 941 
Q 1084 700 1114 631 
Q 1144 563 1211 522 
Q 1278 481 1403 481 
Q 1497 481 1650 503 
z
" transform="scale(0.015625)"/>
        <path id="ArialMT-61" d="M 2588 409 
Q 2275 144 1986 34 
Q 1697 -75 1366 -75 
Q 819 -75 525 192 
Q 231 459 231 875 
Q 231 1119 342 1320 
Q 453 1522 633 1644 
Q 813 1766 1038 1828 
Q 1203 1872 1538 1913 
Q 2219 1994 2541 2106 
Q 2544 2222 2544 2253 
Q 2544 2597 2384 2738 
Q 2169 2928 1744 2928 
Q 1347 2928 1158 2789 
Q 969 2650 878 2297 
L 328 2372 
Q 403 2725 575 2942 
Q 747 3159 1072 3276 
Q 1397 3394 1825 3394 
Q 2250 3394 2515 3294 
Q 2781 3194 2906 3042 
Q 3031 2891 3081 2659 
Q 3109 2516 3109 2141 
L 3109 1391 
Q 3109 606 3145 398 
Q 3181 191 3288 0 
L 2700 0 
Q 2613 175 2588 409 
z
M 2541 1666 
Q 2234 1541 1622 1453 
Q 1275 1403 1131 1340 
Q 988 1278 909 1158 
Q 831 1038 831 891 
Q 831 666 1001 516 
Q 1172 366 1500 366 
Q 1825 366 2078 508 
Q 2331 650 2450 897 
Q 2541 1088 2541 1459 
L 2541 1666 
z
" transform="scale(0.015625)"/>
        <path id="ArialMT-65" d="M 2694 1069 
L 3275 997 
Q 3138 488 2766 206 
Q 2394 -75 1816 -75 
Q 1088 -75 661 373 
Q 234 822 234 1631 
Q 234 2469 665 2931 
Q 1097 3394 1784 3394 
Q 2450 3394 2872 2941 
Q 3294 2488 3294 1666 
Q 3294 1616 3291 1516 
L 816 1516 
Q 847 969 1125 678 
Q 1403 388 1819 388 
Q 2128 388 2347 550 
Q 2566 713 2694 1069 
z
M 847 1978 
L 2700 1978 
Q 2663 2397 2488 2606 
Q 2219 2931 1791 2931 
Q 1403 2931 1139 2672 
Q 875 2413 847 1978 
z
" transform="scale(0.015625)"/>
        <path id="ArialMT-20" transform="scale(0.015625)"/>
        <path id="ArialMT-31" d="M 2384 0 
L 1822 0 
L 1822 3584 
Q 1619 3391 1289 3197 
Q 959 3003 697 2906 
L 697 3450 
Q 1169 3672 1522 3987 
Q 1875 4303 2022 4600 
L 2384 4600 
L 2384 0 
z
" transform="scale(0.015625)"/>
       </defs>
       <use xlink:href="#ArialMT-53"/>
       <use xlink:href="#ArialMT-74" x="66.699219"/>
       <use xlink:href="#ArialMT-61" x="94.482422"/>
       <use xlink:href="#ArialMT-74" x="150.097656"/>
       <use xlink:href="#ArialMT-65" x="177.880859"/>
       <use xlink:href="#ArialMT-20" x="233.496094"/>
       <use xlink:href="#ArialMT-31" x="261.279297"/>
      </g>
     </g>
    </g>
    <g id="xtick_2">
     <g id="line2d_2">
      <g>
       <use xlink:href="#m9b3899fc61" x="299.25" y="507.6" style="fill: #262626; stroke: #262626; stroke-width: 1.25"/>
      </g>
     </g>
     <g id="text_2">
      <!-- State 2 -->
      <g style="fill: #262626" transform="translate(281.821875 524.973594) scale(0.11 -0.11)">
       <defs>
        <path id="ArialMT-32" d="M 3222 541 
L 3222 0 
L 194 0 
Q 188 203 259 391 
Q 375 700 629 1000 
Q 884 1300 1366 1694 
Q 2113 2306 2375 2664 
Q 2638 3022 2638 3341 
Q 2638 3675 2398 3904 
Q 2159 4134 1775 4134 
Q 1369 4134 1125 3890 
Q 881 3647 878 3216 
L 300 3275 
Q 359 3922 746 4261 
Q 1134 4600 1788 4600 
Q 2447 4600 2831 4234 
Q 3216 3869 3216 3328 
Q 3216 3053 3103 2787 
Q 2991 2522 2730 2228 
Q 2469 1934 1863 1422 
Q 1356 997 1212 845 
Q 1069 694 975 541 
L 3222 541 
z
" transform="scale(0.015625)"/>
       </defs>
       <use xlink:href="#ArialMT-53"/>
       <use xlink:href="#ArialMT-74" x="66.699219"/>
       <use xlink:href="#ArialMT-61" x="94.482422"/>
       <use xlink:href="#ArialMT-74" x="150.097656"/>
       <use xlink:href="#ArialMT-65" x="177.880859"/>
       <use xlink:href="#ArialMT-20" x="233.496094"/>
       <use xlink:href="#ArialMT-32" x="261.279297"/>
      </g>
     </g>
    </g>
    <g id="xtick_3">
     <g id="line2d_3">
      <g>
       <use xlink:href="#m9b3899fc61" x="438.75" y="507.6" style="fill: #262626; stroke: #262626; stroke-width: 1.25"/>
      </g>
     </g>
     <g id="text_3">
      <!-- State 3 -->
      <g style="fill: #262626" transform="translate(421.321875 524.973594) scale(0.11 -0.11)">
       <defs>
        <path id="ArialMT-33" d="M 269 1209 
L 831 1284 
Q 928 806 1161 595 
Q 1394 384 1728 384 
Q 2125 384 2398 659 
Q 2672 934 2672 1341 
Q 2672 1728 2419 1979 
Q 2166 2231 1775 2231 
Q 1616 2231 1378 2169 
L 1441 2663 
Q 1497 2656 1531 2656 
Q 1891 2656 2178 2843 
Q 2466 3031 2466 3422 
Q 2466 3731 2256 3934 
Q 2047 4138 1716 4138 
Q 1388 4138 1169 3931 
Q 950 3725 888 3313 
L 325 3413 
Q 428 3978 793 4289 
Q 1159 4600 1703 4600 
Q 2078 4600 2393 4439 
Q 2709 4278 2876 4000 
Q 3044 3722 3044 3409 
Q 3044 3113 2884 2869 
Q 2725 2625 2413 2481 
Q 2819 2388 3044 2092 
Q 3269 1797 3269 1353 
Q 3269 753 2831 336 
Q 2394 -81 1725 -81 
Q 1122 -81 723 278 
Q 325 638 269 1209 
z
" transform="scale(0.015625)"/>
       </defs>
       <use xlink:href="#ArialMT-53"/>
       <use xlink:href="#ArialMT-74" x="66.699219"/>
       <use xlink:href="#ArialMT-61" x="94.482422"/>
       <use xlink:href="#ArialMT-74" x="150.097656"/>
       <use xlink:href="#ArialMT-65" x="177.880859"/>
       <use xlink:href="#ArialMT-20" x="233.496094"/>
       <use xlink:href="#ArialMT-33" x="261.279297"/>
      </g>
     </g>
    </g>
    <g id="xtick_4">
     <g id="line2d_4">
      <g>
       <use xlink:href="#m9b3899fc61" x="578.25" y="507.6" style="fill: #262626; stroke: #262626; stroke-width: 1.25"/>
      </g>
     </g>
     <g id="text_4">
      <!-- State 4 -->
      <g style="fill: #262626" transform="translate(560.821875 524.973594) scale(0.11 -0.11)">
       <defs>
        <path id="ArialMT-34" d="M 2069 0 
L 2069 1097 
L 81 1097 
L 81 1613 
L 2172 4581 
L 2631 4581 
L 2631 1613 
L 3250 1613 
L 3250 1097 
L 2631 1097 
L 2631 0 
L 2069 0 
z
M 2069 1613 
L 2069 3678 
L 634 1613 
L 2069 1613 
z
" transform="scale(0.015625)"/>
       </defs>
       <use xlink:href="#ArialMT-53"/>
       <use xlink:href="#ArialMT-74" x="66.699219"/>
       <use xlink:href="#ArialMT-61" x="94.482422"/>
       <use xlink:href="#ArialMT-74" x="150.097656"/>
       <use xlink:href="#ArialMT-65" x="177.880859"/>
       <use xlink:href="#ArialMT-20" x="233.496094"/>
       <use xlink:href="#ArialMT-34" x="261.279297"/>
      </g>
     </g>
    </g>
   </g>
   <g id="matplotlib.axis_2">
    <g id="ytick_1">
     <g id="line2d_5">
      <defs>
       <path id="m0848980275" d="M 0 0 
L -6 0 
" style="stroke: #262626; stroke-width: 1.25"/>
      </defs>
      <g>
       <use xlink:href="#m0848980275" x="90" y="505.129502" style="fill: #262626; stroke: #262626; stroke-width: 1.25"/>
      </g>
     </g>
     <g id="text_5">
      <!-- −1.5 -->
      <g style="fill: #262626" transform="translate(58.785313 509.066299) scale(0.11 -0.11)">
       <defs>
        <path id="ArialMT-2212" d="M 3381 1997 
L 356 1997 
L 356 2522 
L 3381 2522 
L 3381 1997 
z
" transform="scale(0.015625)"/>
        <path id="ArialMT-2e" d="M 581 0 
L 581 641 
L 1222 641 
L 1222 0 
L 581 0 
z
" transform="scale(0.015625)"/>
        <path id="ArialMT-35" d="M 266 1200 
L 856 1250 
Q 922 819 1161 601 
Q 1400 384 1738 384 
Q 2144 384 2425 690 
Q 2706 997 2706 1503 
Q 2706 1984 2436 2262 
Q 2166 2541 1728 2541 
Q 1456 2541 1237 2417 
Q 1019 2294 894 2097 
L 366 2166 
L 809 4519 
L 3088 4519 
L 3088 3981 
L 1259 3981 
L 1013 2750 
Q 1425 3038 1878 3038 
Q 2478 3038 2890 2622 
Q 3303 2206 3303 1553 
Q 3303 931 2941 478 
Q 2500 -78 1738 -78 
Q 1113 -78 717 272 
Q 322 622 266 1200 
z
" transform="scale(0.015625)"/>
       </defs>
       <use xlink:href="#ArialMT-2212"/>
       <use xlink:href="#ArialMT-31" x="58.398438"/>
       <use xlink:href="#ArialMT-2e" x="114.013672"/>
       <use xlink:href="#ArialMT-35" x="141.796875"/>
      </g>
     </g>
    </g>
    <g id="ytick_2">
     <g id="line2d_6">
      <g>
       <use xlink:href="#m0848980275" x="90" y="435.259757" style="fill: #262626; stroke: #262626; stroke-width: 1.25"/>
      </g>
     </g>
     <g id="text_6">
      <!-- −1.0 -->
      <g style="fill: #262626" transform="translate(58.785313 439.196554) scale(0.11 -0.11)">
       <defs>
        <path id="ArialMT-30" d="M 266 2259 
Q 266 3072 433 3567 
Q 600 4063 929 4331 
Q 1259 4600 1759 4600 
Q 2128 4600 2406 4451 
Q 2684 4303 2865 4023 
Q 3047 3744 3150 3342 
Q 3253 2941 3253 2259 
Q 3253 1453 3087 958 
Q 2922 463 2592 192 
Q 2263 -78 1759 -78 
Q 1097 -78 719 397 
Q 266 969 266 2259 
z
M 844 2259 
Q 844 1131 1108 757 
Q 1372 384 1759 384 
Q 2147 384 2411 759 
Q 2675 1134 2675 2259 
Q 2675 3391 2411 3762 
Q 2147 4134 1753 4134 
Q 1366 4134 1134 3806 
Q 844 3388 844 2259 
z
" transform="scale(0.015625)"/>
       </defs>
       <use xlink:href="#ArialMT-2212"/>
       <use xlink:href="#ArialMT-31" x="58.398438"/>
       <use xlink:href="#ArialMT-2e" x="114.013672"/>
       <use xlink:href="#ArialMT-30" x="141.796875"/>
      </g>
     </g>
    </g>
    <g id="ytick_3">
     <g id="line2d_7">
      <g>
       <use xlink:href="#m0848980275" x="90" y="365.390012" style="fill: #262626; stroke: #262626; stroke-width: 1.25"/>
      </g>
     </g>
     <g id="text_7">
      <!-- −0.5 -->
      <g style="fill: #262626" transform="translate(58.785313 369.326809) scale(0.11 -0.11)">
       <use xlink:href="#ArialMT-2212"/>
       <use xlink:href="#ArialMT-30" x="58.398438"/>
       <use xlink:href="#ArialMT-2e" x="114.013672"/>
       <use xlink:href="#ArialMT-35" x="141.796875"/>
      </g>
     </g>
    </g>
    <g id="ytick_4">
     <g id="line2d_8">
      <g>
       <use xlink:href="#m0848980275" x="90" y="295.520267" style="fill: #262626; stroke: #262626; stroke-width: 1.25"/>
      </g>
     </g>
     <g id="text_8">
      <!-- 0.0 -->
      <g style="fill: #262626" transform="translate(65.21 299.457064) scale(0.11 -0.11)">
       <use xlink:href="#ArialMT-30"/>
       <use xlink:href="#ArialMT-2e" x="55.615234"/>
       <use xlink:href="#ArialMT-30" x="83.398438"/>
      </g>
     </g>
    </g>
    <g id="ytick_5">
     <g id="line2d_9">
      <g>
       <use xlink:href="#m0848980275" x="90" y="225.650522" style="fill: #262626; stroke: #262626; stroke-width: 1.25"/>
      </g>
     </g>
     <g id="text_9">
      <!-- 0.5 -->
      <g style="fill: #262626" transform="translate(65.21 229.587319) scale(0.11 -0.11)">
       <use xlink:href="#ArialMT-30"/>
       <use xlink:href="#ArialMT-2e" x="55.615234"/>
       <use xlink:href="#ArialMT-35" x="83.398438"/>
      </g>
     </g>
    </g>
    <g id="ytick_6">
     <g id="line2d_10">
      <g>
       <use xlink:href="#m0848980275" x="90" y="155.780778" style="fill: #262626; stroke: #262626; stroke-width: 1.25"/>
      </g>
     </g>
     <g id="text_10">
      <!-- 1.0 -->
      <g style="fill: #262626" transform="translate(65.21 159.717574) scale(0.11 -0.11)">
       <use xlink:href="#ArialMT-31"/>
       <use xlink:href="#ArialMT-2e" x="55.615234"/>
       <use xlink:href="#ArialMT-30" x="83.398438"/>
      </g>
     </g>
    </g>
    <g id="text_11">
     <!-- Value (z-scored) -->
     <g style="fill: #262626" transform="translate(52.259687 362.170313) rotate(-90) scale(0.12 -0.12)">
      <defs>
       <path id="ArialMT-56" d="M 1803 0 
L 28 4581 
L 684 4581 
L 1875 1253 
Q 2019 853 2116 503 
Q 2222 878 2363 1253 
L 3600 4581 
L 4219 4581 
L 2425 0 
L 1803 0 
z
" transform="scale(0.015625)"/>
       <path id="ArialMT-6c" d="M 409 0 
L 409 4581 
L 972 4581 
L 972 0 
L 409 0 
z
" transform="scale(0.015625)"/>
       <path id="ArialMT-75" d="M 2597 0 
L 2597 488 
Q 2209 -75 1544 -75 
Q 1250 -75 995 37 
Q 741 150 617 320 
Q 494 491 444 738 
Q 409 903 409 1263 
L 409 3319 
L 972 3319 
L 972 1478 
Q 972 1038 1006 884 
Q 1059 663 1231 536 
Q 1403 409 1656 409 
Q 1909 409 2131 539 
Q 2353 669 2445 892 
Q 2538 1116 2538 1541 
L 2538 3319 
L 3100 3319 
L 3100 0 
L 2597 0 
z
" transform="scale(0.015625)"/>
       <path id="ArialMT-28" d="M 1497 -1347 
Q 1031 -759 709 28 
Q 388 816 388 1659 
Q 388 2403 628 3084 
Q 909 3875 1497 4659 
L 1900 4659 
Q 1522 4009 1400 3731 
Q 1209 3300 1100 2831 
Q 966 2247 966 1656 
Q 966 153 1900 -1347 
L 1497 -1347 
z
" transform="scale(0.015625)"/>
       <path id="ArialMT-7a" d="M 125 0 
L 125 456 
L 2238 2881 
Q 1878 2863 1603 2863 
L 250 2863 
L 250 3319 
L 2963 3319 
L 2963 2947 
L 1166 841 
L 819 456 
Q 1197 484 1528 484 
L 3063 484 
L 3063 0 
L 125 0 
z
" transform="scale(0.015625)"/>
       <path id="ArialMT-2d" d="M 203 1375 
L 203 1941 
L 1931 1941 
L 1931 1375 
L 203 1375 
z
" transform="scale(0.015625)"/>
       <path id="ArialMT-73" d="M 197 991 
L 753 1078 
Q 800 744 1014 566 
Q 1228 388 1613 388 
Q 2000 388 2187 545 
Q 2375 703 2375 916 
Q 2375 1106 2209 1216 
Q 2094 1291 1634 1406 
Q 1016 1563 777 1677 
Q 538 1791 414 1992 
Q 291 2194 291 2438 
Q 291 2659 392 2848 
Q 494 3038 669 3163 
Q 800 3259 1026 3326 
Q 1253 3394 1513 3394 
Q 1903 3394 2198 3281 
Q 2494 3169 2634 2976 
Q 2775 2784 2828 2463 
L 2278 2388 
Q 2241 2644 2061 2787 
Q 1881 2931 1553 2931 
Q 1166 2931 1000 2803 
Q 834 2675 834 2503 
Q 834 2394 903 2306 
Q 972 2216 1119 2156 
Q 1203 2125 1616 2013 
Q 2213 1853 2448 1751 
Q 2684 1650 2818 1456 
Q 2953 1263 2953 975 
Q 2953 694 2789 445 
Q 2625 197 2315 61 
Q 2006 -75 1616 -75 
Q 969 -75 630 194 
Q 291 463 197 991 
z
" transform="scale(0.015625)"/>
       <path id="ArialMT-63" d="M 2588 1216 
L 3141 1144 
Q 3050 572 2676 248 
Q 2303 -75 1759 -75 
Q 1078 -75 664 370 
Q 250 816 250 1647 
Q 250 2184 428 2587 
Q 606 2991 970 3192 
Q 1334 3394 1763 3394 
Q 2303 3394 2647 3120 
Q 2991 2847 3088 2344 
L 2541 2259 
Q 2463 2594 2264 2762 
Q 2066 2931 1784 2931 
Q 1359 2931 1093 2626 
Q 828 2322 828 1663 
Q 828 994 1084 691 
Q 1341 388 1753 388 
Q 2084 388 2306 591 
Q 2528 794 2588 1216 
z
" transform="scale(0.015625)"/>
       <path id="ArialMT-6f" d="M 213 1659 
Q 213 2581 725 3025 
Q 1153 3394 1769 3394 
Q 2453 3394 2887 2945 
Q 3322 2497 3322 1706 
Q 3322 1066 3130 698 
Q 2938 331 2570 128 
Q 2203 -75 1769 -75 
Q 1072 -75 642 372 
Q 213 819 213 1659 
z
M 791 1659 
Q 791 1022 1069 705 
Q 1347 388 1769 388 
Q 2188 388 2466 706 
Q 2744 1025 2744 1678 
Q 2744 2294 2464 2611 
Q 2184 2928 1769 2928 
Q 1347 2928 1069 2612 
Q 791 2297 791 1659 
z
" transform="scale(0.015625)"/>
       <path id="ArialMT-72" d="M 416 0 
L 416 3319 
L 922 3319 
L 922 2816 
Q 1116 3169 1280 3281 
Q 1444 3394 1641 3394 
Q 1925 3394 2219 3213 
L 2025 2691 
Q 1819 2813 1613 2813 
Q 1428 2813 1281 2702 
Q 1134 2591 1072 2394 
Q 978 2094 978 1738 
L 978 0 
L 416 0 
z
" transform="scale(0.015625)"/>
       <path id="ArialMT-64" d="M 2575 0 
L 2575 419 
Q 2259 -75 1647 -75 
Q 1250 -75 917 144 
Q 584 363 401 755 
Q 219 1147 219 1656 
Q 219 2153 384 2558 
Q 550 2963 881 3178 
Q 1213 3394 1622 3394 
Q 1922 3394 2156 3267 
Q 2391 3141 2538 2938 
L 2538 4581 
L 3097 4581 
L 3097 0 
L 2575 0 
z
M 797 1656 
Q 797 1019 1065 703 
Q 1334 388 1700 388 
Q 2069 388 2326 689 
Q 2584 991 2584 1609 
Q 2584 2291 2321 2609 
Q 2059 2928 1675 2928 
Q 1300 2928 1048 2622 
Q 797 2316 797 1656 
z
" transform="scale(0.015625)"/>
       <path id="ArialMT-29" d="M 791 -1347 
L 388 -1347 
Q 1322 153 1322 1656 
Q 1322 2244 1188 2822 
Q 1081 3291 891 3722 
Q 769 4003 388 4659 
L 791 4659 
Q 1378 3875 1659 3084 
Q 1900 2403 1900 1659 
Q 1900 816 1576 28 
Q 1253 -759 791 -1347 
z
" transform="scale(0.015625)"/>
      </defs>
      <use xlink:href="#ArialMT-56"/>
      <use xlink:href="#ArialMT-61" x="59.324219"/>
      <use xlink:href="#ArialMT-6c" x="114.939453"/>
      <use xlink:href="#ArialMT-75" x="137.15625"/>
      <use xlink:href="#ArialMT-65" x="192.771484"/>
      <use xlink:href="#ArialMT-20" x="248.386719"/>
      <use xlink:href="#ArialMT-28" x="276.169922"/>
      <use xlink:href="#ArialMT-7a" x="309.470703"/>
      <use xlink:href="#ArialMT-2d" x="359.470703"/>
      <use xlink:href="#ArialMT-73" x="392.771484"/>
      <use xlink:href="#ArialMT-63" x="442.771484"/>
      <use xlink:href="#ArialMT-6f" x="492.771484"/>
      <use xlink:href="#ArialMT-72" x="548.386719"/>
      <use xlink:href="#ArialMT-65" x="581.6875"/>
      <use xlink:href="#ArialMT-64" x="637.302734"/>
      <use xlink:href="#ArialMT-29" x="692.917969"/>
     </g>
    </g>
   </g>
   <g id="PolyCollection_1">
    <defs>
     <path id="m73499d0cbb" d="M 164.676026 -768.340157 
L 159.891256 -768.340157 
L 159.891256 -772.043428 
L 159.891256 -775.746699 
L 159.891256 -779.44997 
L 159.891256 -783.153241 
L 159.891256 -786.856513 
L 159.891256 -790.559784 
L 159.891256 -794.263055 
L 159.891256 -797.966326 
L 159.891256 -801.669598 
L 159.891256 -805.372869 
L 159.891256 -809.07614 
L 159.891256 -812.779411 
L 159.891256 -816.482683 
L 159.891256 -820.185954 
L 159.891256 -823.889225 
L 159.891256 -827.592496 
L 159.891256 -831.295767 
L 159.891256 -834.999039 
L 159.891256 -838.70231 
L 159.891256 -842.405581 
L 159.891256 -846.108852 
L 159.891256 -849.812124 
L 159.891256 -853.515395 
L 159.891256 -857.218666 
L 159.891256 -860.921937 
L 159.891256 -864.625208 
L 159.891256 -868.32848 
L 159.891256 -872.031751 
L 159.891256 -875.735022 
L 159.891256 -879.438293 
L 159.891256 -883.141565 
L 159.891256 -886.844836 
L 159.891256 -890.548107 
L 159.891256 -894.251378 
L 159.891256 -897.954649 
L 159.891256 -901.657921 
L 159.891256 -905.361192 
L 159.891256 -909.064463 
L 161.339662 -909.064463 
L 161.339662 -909.064463 
L 161.265118 -905.361192 
L 161.062352 -901.657921 
L 160.788164 -897.954649 
L 160.512986 -894.251378 
L 160.300152 -890.548107 
L 160.195153 -886.844836 
L 160.226108 -883.141565 
L 160.409555 -879.438293 
L 160.7551 -875.735022 
L 161.267075 -872.031751 
L 161.945904 -868.32848 
L 162.792002 -864.625208 
L 163.811635 -860.921937 
L 165.021695 -857.218666 
L 166.452097 -853.515395 
L 168.147741 -849.812124 
L 170.17127 -846.108852 
L 172.600967 -842.405581 
L 175.511251 -838.70231 
L 178.925798 -834.999039 
L 182.750094 -831.295767 
L 186.714044 -827.592496 
L 190.368911 -823.889225 
L 193.16892 -820.185954 
L 194.625 -816.482683 
L 194.469488 -812.779411 
L 192.75175 -809.07614 
L 189.815347 -805.372869 
L 186.170923 -801.669598 
L 182.332553 -797.966326 
L 178.693472 -794.263055 
L 175.479751 -790.559784 
L 172.770187 -786.856513 
L 170.543557 -783.153241 
L 168.72169 -779.44997 
L 167.200676 -775.746699 
L 165.877515 -772.043428 
L 164.676026 -768.340157 
z
" style="stroke: #d55e00; stroke-opacity: 0.3"/>
    </defs>
    <g clip-path="url(#p3643e024f5)">
     <use xlink:href="#m73499d0cbb" x="0" y="1080" style="fill: #d55e00; fill-opacity: 0.3; stroke: #d55e00; stroke-opacity: 0.3"/>
    </g>
   </g>
   <g id="PolyCollection_2">
    <defs>
     <path id="mbd9dec86ac" d="M 305.623773 -589.581818 
L 299.427576 -589.581818 
L 299.427576 -597.01453 
L 299.427576 -604.447241 
L 299.427576 -611.879952 
L 299.427576 -619.312664 
L 299.427576 -626.745375 
L 299.427576 -634.178087 
L 299.427576 -641.610798 
L 299.427576 -649.04351 
L 299.427576 -656.476221 
L 299.427576 -663.908932 
L 299.427576 -671.341644 
L 299.427576 -678.774355 
L 299.427576 -686.207067 
L 299.427576 -693.639778 
L 299.427576 -701.07249 
L 299.427576 -708.505201 
L 299.427576 -715.937912 
L 299.427576 -723.370624 
L 299.427576 -730.803335 
L 299.427576 -738.236047 
L 299.427576 -745.668758 
L 299.427576 -753.10147 
L 299.427576 -760.534181 
L 299.427576 -767.966892 
L 299.427576 -775.399604 
L 299.427576 -782.832315 
L 299.427576 -790.265027 
L 299.427576 -797.697738 
L 299.427576 -805.13045 
L 299.427576 -812.563161 
L 299.427576 -819.995872 
L 299.427576 -827.428584 
L 299.427576 -834.861295 
L 299.427576 -842.294007 
L 299.427576 -849.726718 
L 299.427576 -857.159429 
L 299.427576 -864.592141 
L 299.427576 -872.024852 
L 300.886142 -872.024852 
L 300.886142 -872.024852 
L 300.851617 -864.592141 
L 300.728751 -857.159429 
L 300.573347 -849.726718 
L 300.451508 -842.294007 
L 300.418153 -834.861295 
L 300.501666 -827.428584 
L 300.701705 -819.995872 
L 301.001935 -812.563161 
L 301.393079 -805.13045 
L 301.896022 -797.697738 
L 302.572918 -790.265027 
L 303.519152 -782.832315 
L 304.839734 -775.399604 
L 306.623698 -767.966892 
L 308.930164 -760.534181 
L 311.786711 -753.10147 
L 315.183898 -745.668758 
L 319.046425 -738.236047 
L 323.181947 -730.803335 
L 327.24127 -723.370624 
L 330.739328 -715.937912 
L 333.161632 -708.505201 
L 334.125 -701.07249 
L 333.514848 -693.639778 
L 331.524048 -686.207067 
L 328.573118 -678.774355 
L 325.159285 -671.341644 
L 321.714468 -663.908932 
L 318.531232 -656.476221 
L 315.764083 -649.04351 
L 313.470923 -641.610798 
L 311.651273 -634.178087 
L 310.260002 -626.745375 
L 309.204725 -619.312664 
L 308.349693 -611.879952 
L 307.541679 -604.447241 
L 306.653405 -597.01453 
L 305.623773 -589.581818 
z
" style="stroke: #0072b2; stroke-opacity: 0.3"/>
    </defs>
    <g clip-path="url(#p3643e024f5)">
     <use xlink:href="#mbd9dec86ac" x="0" y="1080" style="fill: #0072b2; fill-opacity: 0.3; stroke: #0072b2; stroke-opacity: 0.3"/>
    </g>
   </g>
   <g id="PolyCollection_3">
    <defs>
     <path id="m924738b6e1" d="M 445.28795 -732.212799 
L 438.935538 -732.212799 
L 438.935538 -734.621314 
L 438.935538 -737.029829 
L 438.935538 -739.438343 
L 438.935538 -741.846858 
L 438.935538 -744.255372 
L 438.935538 -746.663887 
L 438.935538 -749.072402 
L 438.935538 -751.480916 
L 438.935538 -753.889431 
L 438.935538 -756.297946 
L 438.935538 -758.70646 
L 438.935538 -761.114975 
L 438.935538 -763.523489 
L 438.935538 -765.932004 
L 438.935538 -768.340519 
L 438.935538 -770.749033 
L 438.935538 -773.157548 
L 438.935538 -775.566062 
L 438.935538 -777.974577 
L 438.935538 -780.383092 
L 438.935538 -782.791606 
L 438.935538 -785.200121 
L 438.935538 -787.608636 
L 438.935538 -790.01715 
L 438.935538 -792.425665 
L 438.935538 -794.834179 
L 438.935538 -797.242694 
L 438.935538 -799.651209 
L 438.935538 -802.059723 
L 438.935538 -804.468238 
L 438.935538 -806.876752 
L 438.935538 -809.285267 
L 438.935538 -811.693782 
L 438.935538 -814.102296 
L 438.935538 -816.510811 
L 438.935538 -818.919326 
L 438.935538 -821.32784 
L 438.935538 -823.736355 
L 440.702667 -823.736355 
L 440.702667 -823.736355 
L 440.75127 -821.32784 
L 440.781935 -818.919326 
L 440.886127 -816.510811 
L 441.181403 -814.102296 
L 441.791728 -811.693782 
L 442.824763 -809.285267 
L 444.351238 -806.876752 
L 446.391212 -804.468238 
L 448.910621 -802.059723 
L 451.82869 -799.651209 
L 455.032768 -797.242694 
L 458.393692 -794.834179 
L 461.774432 -792.425665 
L 465.029045 -790.01715 
L 467.99639 -787.608636 
L 470.49907 -785.200121 
L 472.358045 -782.791606 
L 473.425324 -780.383092 
L 473.625 -777.974577 
L 472.983874 -775.566062 
L 471.633824 -773.157548 
L 469.780023 -770.749033 
L 467.64621 -768.340519 
L 465.420511 -765.932004 
L 463.225068 -763.523489 
L 461.119515 -761.114975 
L 459.129685 -758.70646 
L 457.279915 -756.297946 
L 455.607753 -753.889431 
L 454.153041 -751.480916 
L 452.930731 -749.072402 
L 451.907439 -746.663887 
L 450.999287 -744.255372 
L 450.095386 -741.846858 
L 449.096153 -739.438343 
L 447.947851 -737.029829 
L 446.658087 -734.621314 
L 445.28795 -732.212799 
z
" style="stroke: #009e73; stroke-opacity: 0.3"/>
    </defs>
    <g clip-path="url(#p3643e024f5)">
     <use xlink:href="#m924738b6e1" x="0" y="1080" style="fill: #009e73; fill-opacity: 0.3; stroke: #009e73; stroke-opacity: 0.3"/>
    </g>
   </g>
   <g id="PolyCollection_4">
    <defs>
     <path id="m52d2f90503" d="M 580.059147 -722.814601 
L 578.380124 -722.814601 
L 578.380124 -728.351537 
L 578.380124 -733.888474 
L 578.380124 -739.42541 
L 578.380124 -744.962346 
L 578.380124 -750.499283 
L 578.380124 -756.036219 
L 578.380124 -761.573155 
L 578.380124 -767.110092 
L 578.380124 -772.647028 
L 578.380124 -778.183964 
L 578.380124 -783.720901 
L 578.380124 -789.257837 
L 578.380124 -794.794773 
L 578.380124 -800.33171 
L 578.380124 -805.868646 
L 578.380124 -811.405582 
L 578.380124 -816.942519 
L 578.380124 -822.479455 
L 578.380124 -828.016391 
L 578.380124 -833.553328 
L 578.380124 -839.090264 
L 578.380124 -844.6272 
L 578.380124 -850.164137 
L 578.380124 -855.701073 
L 578.380124 -861.238009 
L 578.380124 -866.774946 
L 578.380124 -872.311882 
L 578.380124 -877.848818 
L 578.380124 -883.385755 
L 578.380124 -888.922691 
L 578.380124 -894.459627 
L 578.380124 -899.996564 
L 578.380124 -905.5335 
L 578.380124 -911.070436 
L 578.380124 -916.607373 
L 578.380124 -922.144309 
L 578.380124 -927.681245 
L 578.380124 -933.218182 
L 585.171728 -933.218182 
L 585.171728 -933.218182 
L 587.433606 -927.681245 
L 590.106669 -922.144309 
L 593.137196 -916.607373 
L 596.412752 -911.070436 
L 599.77317 -905.5335 
L 603.038888 -899.996564 
L 606.044197 -894.459627 
L 608.657435 -888.922691 
L 610.776424 -883.385755 
L 612.303939 -877.848818 
L 613.125 -872.311882 
L 613.112437 -866.774946 
L 612.172598 -861.238009 
L 610.315016 -855.701073 
L 607.705995 -850.164137 
L 604.665021 -844.6272 
L 601.590047 -839.090264 
L 598.838438 -833.553328 
L 596.618429 -828.016391 
L 594.942073 -822.479455 
L 593.657256 -816.942519 
L 592.535425 -811.405582 
L 591.368653 -805.868646 
L 590.034964 -800.33171 
L 588.515643 -794.794773 
L 586.873817 -789.257837 
L 585.216042 -783.720901 
L 583.656219 -778.183964 
L 582.29124 -772.647028 
L 581.188745 -767.110092 
L 580.383147 -761.573155 
L 579.875912 -756.036219 
L 579.637824 -750.499283 
L 579.612851 -744.962346 
L 579.724655 -739.42541 
L 579.887121 -733.888474 
L 580.018893 -728.351537 
L 580.059147 -722.814601 
z
" style="stroke: #cc79a7; stroke-opacity: 0.3"/>
    </defs>
    <g clip-path="url(#p3643e024f5)">
     <use xlink:href="#m52d2f90503" x="0" y="1080" style="fill: #cc79a7; fill-opacity: 0.3; stroke: #cc79a7; stroke-opacity: 0.3"/>
    </g>
   </g>
   <g id="PathCollection_1">
    <defs>
     <path id="mfef362044a" d="M 0 0.866025 
C 0.229673 0.866025 0.449969 0.774776 0.612372 0.612372 
C 0.774776 0.449969 0.866025 0.229673 0.866025 0 
C 0.866025 -0.229673 0.774776 -0.449969 0.612372 -0.612372 
C 0.449969 -0.774776 0.229673 -0.866025 0 -0.866025 
C -0.229673 -0.866025 -0.449969 -0.774776 -0.612372 -0.612372 
C -0.774776 -0.449969 -0.866025 -0.229673 -0.866025 0 
C -0.866025 0.229673 -0.774776 0.449969 -0.612372 0.612372 
C -0.449969 0.774776 -0.229673 0.866025 0 0.866025 
z
" style="stroke: #d55e00"/>
    </defs>
    <g clip-path="url(#p3643e024f5)">
     <use xlink:href="#mfef362044a" x="138.311894" y="265.115113" style="fill: #d55e00; stroke: #d55e00"/>
     <use xlink:href="#mfef362044a" x="130.064517" y="266.950751" style="fill: #d55e00; stroke: #d55e00"/>
     <use xlink:href="#mfef362044a" x="133.451618" y="288.483331" style="fill: #d55e00; stroke: #d55e00"/>
     <use xlink:href="#mfef362044a" x="125.684284" y="259.30239" style="fill: #d55e00; stroke: #d55e00"/>
     <use xlink:href="#mfef362044a" x="129.16501" y="266.041736" style="fill: #d55e00; stroke: #d55e00"/>
     <use xlink:href="#mfef362044a" x="134.826623" y="261.146235" style="fill: #d55e00; stroke: #d55e00"/>
     <use xlink:href="#mfef362044a" x="135.791811" y="265.889728" style="fill: #d55e00; stroke: #d55e00"/>
     <use xlink:href="#mfef362044a" x="131.935164" y="249.873636" style="fill: #d55e00; stroke: #d55e00"/>
     <use xlink:href="#mfef362044a" x="130.900418" y="251.952084" style="fill: #d55e00; stroke: #d55e00"/>
     <use xlink:href="#mfef362044a" x="130.843845" y="273.929456" style="fill: #d55e00; stroke: #d55e00"/>
     <use xlink:href="#mfef362044a" x="127.808952" y="170.935537" style="fill: #d55e00; stroke: #d55e00"/>
     <use xlink:href="#mfef362044a" x="130.747937" y="270.643386" style="fill: #d55e00; stroke: #d55e00"/>
     <use xlink:href="#mfef362044a" x="137.159382" y="218.65576" style="fill: #d55e00; stroke: #d55e00"/>
     <use xlink:href="#mfef362044a" x="133.262481" y="298.681461" style="fill: #d55e00; stroke: #d55e00"/>
     <use xlink:href="#mfef362044a" x="130.411087" y="260.829977" style="fill: #d55e00; stroke: #d55e00"/>
     <use xlink:href="#mfef362044a" x="131.405838" y="276.758692" style="fill: #d55e00; stroke: #d55e00"/>
     <use xlink:href="#mfef362044a" x="134.446004" y="272.919697" style="fill: #d55e00; stroke: #d55e00"/>
     <use xlink:href="#mfef362044a" x="131.127246" y="260.663036" style="fill: #d55e00; stroke: #d55e00"/>
     <use xlink:href="#mfef362044a" x="128.675528" y="261.278497" style="fill: #d55e00; stroke: #d55e00"/>
     <use xlink:href="#mfef362044a" x="133.749145" y="306.359625" style="fill: #d55e00; stroke: #d55e00"/>
     <use xlink:href="#mfef362044a" x="126.210533" y="232.804977" style="fill: #d55e00; stroke: #d55e00"/>
     <use xlink:href="#mfef362044a" x="127.146335" y="282.131772" style="fill: #d55e00; stroke: #d55e00"/>
     <use xlink:href="#mfef362044a" x="135.13541" y="240.970275" style="fill: #d55e00; stroke: #d55e00"/>
     <use xlink:href="#mfef362044a" x="136.232025" y="284.769575" style="fill: #d55e00; stroke: #d55e00"/>
     <use xlink:href="#mfef362044a" x="135.687277" y="232.220945" style="fill: #d55e00; stroke: #d55e00"/>
     <use xlink:href="#mfef362044a" x="129.30184" y="241.875076" style="fill: #d55e00; stroke: #d55e00"/>
     <use xlink:href="#mfef362044a" x="130.74205" y="274.197904" style="fill: #d55e00; stroke: #d55e00"/>
     <use xlink:href="#mfef362044a" x="131.168591" y="247.758501" style="fill: #d55e00; stroke: #d55e00"/>
     <use xlink:href="#mfef362044a" x="135.060094" y="259.796206" style="fill: #d55e00; stroke: #d55e00"/>
     <use xlink:href="#mfef362044a" x="132.518771" y="311.659843" style="fill: #d55e00; stroke: #d55e00"/>
     <use xlink:href="#mfef362044a" x="130.568039" y="271.159421" style="fill: #d55e00; stroke: #d55e00"/>
     <use xlink:href="#mfef362044a" x="127.44331" y="260.874614" style="fill: #d55e00; stroke: #d55e00"/>
     <use xlink:href="#mfef362044a" x="131.286678" y="257.843664" style="fill: #d55e00; stroke: #d55e00"/>
     <use xlink:href="#mfef362044a" x="134.209568" y="285.580693" style="fill: #d55e00; stroke: #d55e00"/>
     <use xlink:href="#mfef362044a" x="134.230501" y="264.005651" style="fill: #d55e00; stroke: #d55e00"/>
     <use xlink:href="#mfef362044a" x="136.348652" y="271.118353" style="fill: #d55e00; stroke: #d55e00"/>
     <use xlink:href="#mfef362044a" x="135.164063" y="291.750655" style="fill: #d55e00; stroke: #d55e00"/>
     <use xlink:href="#mfef362044a" x="132.598464" y="267.273613" style="fill: #d55e00; stroke: #d55e00"/>
     <use xlink:href="#mfef362044a" x="131.914395" y="250.126297" style="fill: #d55e00; stroke: #d55e00"/>
    </g>
   </g>
   <g id="PathCollection_2">
    <defs>
     <path id="mc47adf00ef" d="M 0 0.866025 
C 0.229673 0.866025 0.449969 0.774776 0.612372 0.612372 
C 0.774776 0.449969 0.866025 0.229673 0.866025 0 
C 0.866025 -0.229673 0.774776 -0.449969 0.612372 -0.612372 
C 0.449969 -0.774776 0.229673 -0.866025 0 -0.866025 
C -0.229673 -0.866025 -0.449969 -0.774776 -0.612372 -0.612372 
C -0.774776 -0.449969 -0.866025 -0.229673 -0.866025 0 
C -0.866025 0.229673 -0.774776 0.449969 -0.612372 0.612372 
C -0.449969 0.774776 -0.229673 0.866025 0 0.866025 
z
" style="stroke: #0072b2"/>
    </defs>
    <g clip-path="url(#p3643e024f5)">
     <use xlink:href="#mc47adf00ef" x="276.530795" y="372.663855" style="fill: #0072b2; stroke: #0072b2"/>
     <use xlink:href="#mc47adf00ef" x="274.199559" y="334.122205" style="fill: #0072b2; stroke: #0072b2"/>
     <use xlink:href="#mc47adf00ef" x="275.984535" y="378.278862" style="fill: #0072b2; stroke: #0072b2"/>
     <use xlink:href="#mc47adf00ef" x="273.914146" y="281.772434" style="fill: #0072b2; stroke: #0072b2"/>
     <use xlink:href="#mc47adf00ef" x="273.919804" y="392.654556" style="fill: #0072b2; stroke: #0072b2"/>
     <use xlink:href="#mc47adf00ef" x="274.932745" y="411.249327" style="fill: #0072b2; stroke: #0072b2"/>
     <use xlink:href="#mc47adf00ef" x="277.306947" y="429.647256" style="fill: #0072b2; stroke: #0072b2"/>
     <use xlink:href="#mc47adf00ef" x="267.840137" y="413.697314" style="fill: #0072b2; stroke: #0072b2"/>
     <use xlink:href="#mc47adf00ef" x="272.034212" y="423.763387" style="fill: #0072b2; stroke: #0072b2"/>
     <use xlink:href="#mc47adf00ef" x="269.360858" y="376.848248" style="fill: #0072b2; stroke: #0072b2"/>
     <use xlink:href="#mc47adf00ef" x="266.94759" y="376.003118" style="fill: #0072b2; stroke: #0072b2"/>
     <use xlink:href="#mc47adf00ef" x="273.395659" y="444.597082" style="fill: #0072b2; stroke: #0072b2"/>
     <use xlink:href="#mc47adf00ef" x="267.757257" y="375.914485" style="fill: #0072b2; stroke: #0072b2"/>
     <use xlink:href="#mc47adf00ef" x="266.921292" y="400.156083" style="fill: #0072b2; stroke: #0072b2"/>
     <use xlink:href="#mc47adf00ef" x="273.939046" y="380.123938" style="fill: #0072b2; stroke: #0072b2"/>
     <use xlink:href="#mc47adf00ef" x="269.57563" y="380.278483" style="fill: #0072b2; stroke: #0072b2"/>
     <use xlink:href="#mc47adf00ef" x="277.166665" y="373.899965" style="fill: #0072b2; stroke: #0072b2"/>
     <use xlink:href="#mc47adf00ef" x="268.826484" y="482.365969" style="fill: #0072b2; stroke: #0072b2"/>
     <use xlink:href="#mc47adf00ef" x="266.806041" y="339.083827" style="fill: #0072b2; stroke: #0072b2"/>
     <use xlink:href="#mc47adf00ef" x="264.824133" y="469.512646" style="fill: #0072b2; stroke: #0072b2"/>
     <use xlink:href="#mc47adf00ef" x="272.435162" y="345.67361" style="fill: #0072b2; stroke: #0072b2"/>
     <use xlink:href="#mc47adf00ef" x="274.28722" y="417.584242" style="fill: #0072b2; stroke: #0072b2"/>
     <use xlink:href="#mc47adf00ef" x="268.677895" y="328.072712" style="fill: #0072b2; stroke: #0072b2"/>
     <use xlink:href="#mc47adf00ef" x="276.214997" y="490.418182" style="fill: #0072b2; stroke: #0072b2"/>
     <use xlink:href="#mc47adf00ef" x="268.666471" y="392.933325" style="fill: #0072b2; stroke: #0072b2"/>
     <use xlink:href="#mc47adf00ef" x="269.63326" y="369.40578" style="fill: #0072b2; stroke: #0072b2"/>
     <use xlink:href="#mc47adf00ef" x="276.570934" y="436.814789" style="fill: #0072b2; stroke: #0072b2"/>
     <use xlink:href="#mc47adf00ef" x="267.098024" y="371.027667" style="fill: #0072b2; stroke: #0072b2"/>
     <use xlink:href="#mc47adf00ef" x="271.734234" y="207.975148" style="fill: #0072b2; stroke: #0072b2"/>
     <use xlink:href="#mc47adf00ef" x="277.470655" y="334.366914" style="fill: #0072b2; stroke: #0072b2"/>
     <use xlink:href="#mc47adf00ef" x="269.057497" y="375.893351" style="fill: #0072b2; stroke: #0072b2"/>
     <use xlink:href="#mc47adf00ef" x="274.822538" y="401.598845" style="fill: #0072b2; stroke: #0072b2"/>
     <use xlink:href="#mc47adf00ef" x="267.523842" y="364.443508" style="fill: #0072b2; stroke: #0072b2"/>
     <use xlink:href="#mc47adf00ef" x="273.879886" y="367.963855" style="fill: #0072b2; stroke: #0072b2"/>
     <use xlink:href="#mc47adf00ef" x="272.316989" y="381.042303" style="fill: #0072b2; stroke: #0072b2"/>
     <use xlink:href="#mc47adf00ef" x="270.539772" y="380.718854" style="fill: #0072b2; stroke: #0072b2"/>
     <use xlink:href="#mc47adf00ef" x="277.799088" y="376.701275" style="fill: #0072b2; stroke: #0072b2"/>
     <use xlink:href="#mc47adf00ef" x="265.391698" y="474.733951" style="fill: #0072b2; stroke: #0072b2"/>
    </g>
   </g>
   <g id="PathCollection_3">
    <defs>
     <path id="m7e12f5363d" d="M 0 0.866025 
C 0.229673 0.866025 0.449969 0.774776 0.612372 0.612372 
C 0.774776 0.449969 0.866025 0.229673 0.866025 0 
C 0.866025 -0.229673 0.774776 -0.449969 0.612372 -0.612372 
C 0.449969 -0.774776 0.229673 -0.866025 0 -0.866025 
C -0.229673 -0.866025 -0.449969 -0.774776 -0.612372 -0.612372 
C -0.774776 -0.449969 -0.866025 -0.229673 -0.866025 0 
C -0.866025 0.229673 -0.774776 0.449969 -0.612372 0.612372 
C -0.449969 0.774776 -0.229673 0.866025 0 0.866025 
z
" style="stroke: #009e73"/>
    </defs>
    <g clip-path="url(#p3643e024f5)">
     <use xlink:href="#m7e12f5363d" x="416.86853" y="338.966306" style="fill: #009e73; stroke: #009e73"/>
     <use xlink:href="#m7e12f5363d" x="414.871936" y="307.367423" style="fill: #009e73; stroke: #009e73"/>
     <use xlink:href="#m7e12f5363d" x="415.070345" y="303.720027" style="fill: #009e73; stroke: #009e73"/>
     <use xlink:href="#m7e12f5363d" x="408.042065" y="337.434066" style="fill: #009e73; stroke: #009e73"/>
     <use xlink:href="#m7e12f5363d" x="412.138562" y="291.865508" style="fill: #009e73; stroke: #009e73"/>
     <use xlink:href="#m7e12f5363d" x="413.93829" y="295.166644" style="fill: #009e73; stroke: #009e73"/>
     <use xlink:href="#m7e12f5363d" x="411.999059" y="303.504016" style="fill: #009e73; stroke: #009e73"/>
     <use xlink:href="#m7e12f5363d" x="413.719284" y="347.787201" style="fill: #009e73; stroke: #009e73"/>
     <use xlink:href="#m7e12f5363d" x="409.380279" y="318.989157" style="fill: #009e73; stroke: #009e73"/>
     <use xlink:href="#m7e12f5363d" x="411.970033" y="308.306478" style="fill: #009e73; stroke: #009e73"/>
     <use xlink:href="#m7e12f5363d" x="409.420026" y="319.529715" style="fill: #009e73; stroke: #009e73"/>
     <use xlink:href="#m7e12f5363d" x="417.324704" y="321.685197" style="fill: #009e73; stroke: #009e73"/>
     <use xlink:href="#m7e12f5363d" x="404.53143" y="309.418931" style="fill: #009e73; stroke: #009e73"/>
     <use xlink:href="#m7e12f5363d" x="411.229761" y="300.029328" style="fill: #009e73; stroke: #009e73"/>
     <use xlink:href="#m7e12f5363d" x="416.009208" y="295.908188" style="fill: #009e73; stroke: #009e73"/>
     <use xlink:href="#m7e12f5363d" x="410.295486" y="306.314316" style="fill: #009e73; stroke: #009e73"/>
     <use xlink:href="#m7e12f5363d" x="412.979711" y="289.459018" style="fill: #009e73; stroke: #009e73"/>
     <use xlink:href="#m7e12f5363d" x="416.509825" y="303.59411" style="fill: #009e73; stroke: #009e73"/>
     <use xlink:href="#m7e12f5363d" x="413.114036" y="281.375096" style="fill: #009e73; stroke: #009e73"/>
     <use xlink:href="#m7e12f5363d" x="413.488159" y="301.086194" style="fill: #009e73; stroke: #009e73"/>
     <use xlink:href="#m7e12f5363d" x="407.485967" y="319.473971" style="fill: #009e73; stroke: #009e73"/>
     <use xlink:href="#m7e12f5363d" x="413.405993" y="281.805208" style="fill: #009e73; stroke: #009e73"/>
     <use xlink:href="#m7e12f5363d" x="411.278532" y="327.855726" style="fill: #009e73; stroke: #009e73"/>
     <use xlink:href="#m7e12f5363d" x="413.143159" y="298.676969" style="fill: #009e73; stroke: #009e73"/>
     <use xlink:href="#m7e12f5363d" x="411.216523" y="288.501848" style="fill: #009e73; stroke: #009e73"/>
     <use xlink:href="#m7e12f5363d" x="412.866392" y="336.762143" style="fill: #009e73; stroke: #009e73"/>
     <use xlink:href="#m7e12f5363d" x="411.239572" y="313.161085" style="fill: #009e73; stroke: #009e73"/>
     <use xlink:href="#m7e12f5363d" x="408.9494" y="319.055692" style="fill: #009e73; stroke: #009e73"/>
     <use xlink:href="#m7e12f5363d" x="414.716437" y="324.904503" style="fill: #009e73; stroke: #009e73"/>
     <use xlink:href="#m7e12f5363d" x="414.633308" y="293.515123" style="fill: #009e73; stroke: #009e73"/>
     <use xlink:href="#m7e12f5363d" x="409.342707" y="256.263645" style="fill: #009e73; stroke: #009e73"/>
     <use xlink:href="#m7e12f5363d" x="414.035708" y="286.189139" style="fill: #009e73; stroke: #009e73"/>
     <use xlink:href="#m7e12f5363d" x="407.443486" y="302.599677" style="fill: #009e73; stroke: #009e73"/>
     <use xlink:href="#m7e12f5363d" x="406.750407" y="301.801166" style="fill: #009e73; stroke: #009e73"/>
     <use xlink:href="#m7e12f5363d" x="415.152416" y="340.344836" style="fill: #009e73; stroke: #009e73"/>
     <use xlink:href="#m7e12f5363d" x="410.737651" y="286.688325" style="fill: #009e73; stroke: #009e73"/>
     <use xlink:href="#m7e12f5363d" x="415.289686" y="297.493308" style="fill: #009e73; stroke: #009e73"/>
     <use xlink:href="#m7e12f5363d" x="406.732176" y="312.559171" style="fill: #009e73; stroke: #009e73"/>
     <use xlink:href="#m7e12f5363d" x="415.569456" y="299.160591" style="fill: #009e73; stroke: #009e73"/>
    </g>
   </g>
   <g id="PathCollection_4">
    <defs>
     <path id="m8f49f77b4f" d="M 0 0.866025 
C 0.229673 0.866025 0.449969 0.774776 0.612372 0.612372 
C 0.774776 0.449969 0.866025 0.229673 0.866025 0 
C 0.866025 -0.229673 0.774776 -0.449969 0.612372 -0.612372 
C 0.449969 -0.774776 0.229673 -0.866025 0 -0.866025 
C -0.229673 -0.866025 -0.449969 -0.774776 -0.612372 -0.612372 
C -0.774776 -0.449969 -0.866025 -0.229673 -0.866025 0 
C -0.866025 0.229673 -0.774776 0.449969 -0.612372 0.612372 
C -0.449969 0.774776 -0.229673 0.866025 0 0.866025 
z
" style="stroke: #cc79a7"/>
    </defs>
    <g clip-path="url(#p3643e024f5)">
     <use xlink:href="#m8f49f77b4f" x="552.889406" y="190.678393" style="fill: #cc79a7; stroke: #cc79a7"/>
     <use xlink:href="#m8f49f77b4f" x="550.995507" y="281.876754" style="fill: #cc79a7; stroke: #cc79a7"/>
     <use xlink:href="#m8f49f77b4f" x="556.195272" y="183.457126" style="fill: #cc79a7; stroke: #cc79a7"/>
     <use xlink:href="#m8f49f77b4f" x="548.01511" y="260.888722" style="fill: #cc79a7; stroke: #cc79a7"/>
     <use xlink:href="#m8f49f77b4f" x="544.355157" y="227.361697" style="fill: #cc79a7; stroke: #cc79a7"/>
     <use xlink:href="#m8f49f77b4f" x="555.684737" y="264.287586" style="fill: #cc79a7; stroke: #cc79a7"/>
     <use xlink:href="#m8f49f77b4f" x="549.119835" y="172.782275" style="fill: #cc79a7; stroke: #cc79a7"/>
     <use xlink:href="#m8f49f77b4f" x="554.982815" y="161.370537" style="fill: #cc79a7; stroke: #cc79a7"/>
     <use xlink:href="#m8f49f77b4f" x="548.934877" y="146.781818" style="fill: #cc79a7; stroke: #cc79a7"/>
     <use xlink:href="#m8f49f77b4f" x="550.64193" y="213.918543" style="fill: #cc79a7; stroke: #cc79a7"/>
     <use xlink:href="#m8f49f77b4f" x="557.115463" y="221.708757" style="fill: #cc79a7; stroke: #cc79a7"/>
     <use xlink:href="#m8f49f77b4f" x="546.156389" y="182.874048" style="fill: #cc79a7; stroke: #cc79a7"/>
     <use xlink:href="#m8f49f77b4f" x="550.459748" y="199.995705" style="fill: #cc79a7; stroke: #cc79a7"/>
     <use xlink:href="#m8f49f77b4f" x="550.558191" y="179.486135" style="fill: #cc79a7; stroke: #cc79a7"/>
     <use xlink:href="#m8f49f77b4f" x="546.751739" y="211.041124" style="fill: #cc79a7; stroke: #cc79a7"/>
     <use xlink:href="#m8f49f77b4f" x="547.084328" y="229.283042" style="fill: #cc79a7; stroke: #cc79a7"/>
     <use xlink:href="#m8f49f77b4f" x="545.197706" y="228.077582" style="fill: #cc79a7; stroke: #cc79a7"/>
     <use xlink:href="#m8f49f77b4f" x="547.689012" y="232.473432" style="fill: #cc79a7; stroke: #cc79a7"/>
     <use xlink:href="#m8f49f77b4f" x="548.097589" y="219.410758" style="fill: #cc79a7; stroke: #cc79a7"/>
     <use xlink:href="#m8f49f77b4f" x="556.40134" y="223.750589" style="fill: #cc79a7; stroke: #cc79a7"/>
     <use xlink:href="#m8f49f77b4f" x="543.476532" y="211.00854" style="fill: #cc79a7; stroke: #cc79a7"/>
     <use xlink:href="#m8f49f77b4f" x="547.573647" y="281.517463" style="fill: #cc79a7; stroke: #cc79a7"/>
     <use xlink:href="#m8f49f77b4f" x="553.572978" y="192.369989" style="fill: #cc79a7; stroke: #cc79a7"/>
     <use xlink:href="#m8f49f77b4f" x="547.235351" y="263.750031" style="fill: #cc79a7; stroke: #cc79a7"/>
     <use xlink:href="#m8f49f77b4f" x="550.319454" y="199.410512" style="fill: #cc79a7; stroke: #cc79a7"/>
     <use xlink:href="#m8f49f77b4f" x="556.579145" y="199.129077" style="fill: #cc79a7; stroke: #cc79a7"/>
     <use xlink:href="#m8f49f77b4f" x="556.303124" y="226.686402" style="fill: #cc79a7; stroke: #cc79a7"/>
     <use xlink:href="#m8f49f77b4f" x="553.412909" y="172.856079" style="fill: #cc79a7; stroke: #cc79a7"/>
     <use xlink:href="#m8f49f77b4f" x="544.41725" y="201.24028" style="fill: #cc79a7; stroke: #cc79a7"/>
     <use xlink:href="#m8f49f77b4f" x="556.843967" y="357.185399" style="fill: #cc79a7; stroke: #cc79a7"/>
     <use xlink:href="#m8f49f77b4f" x="550.995386" y="296.391179" style="fill: #cc79a7; stroke: #cc79a7"/>
     <use xlink:href="#m8f49f77b4f" x="550.809113" y="269.435956" style="fill: #cc79a7; stroke: #cc79a7"/>
     <use xlink:href="#m8f49f77b4f" x="552.685258" y="228.417761" style="fill: #cc79a7; stroke: #cc79a7"/>
     <use xlink:href="#m8f49f77b4f" x="547.689576" y="225.012664" style="fill: #cc79a7; stroke: #cc79a7"/>
     <use xlink:href="#m8f49f77b4f" x="548.112434" y="189.12633" style="fill: #cc79a7; stroke: #cc79a7"/>
     <use xlink:href="#m8f49f77b4f" x="546.415766" y="258.551487" style="fill: #cc79a7; stroke: #cc79a7"/>
     <use xlink:href="#m8f49f77b4f" x="554.856239" y="218.179021" style="fill: #cc79a7; stroke: #cc79a7"/>
     <use xlink:href="#m8f49f77b4f" x="543.81722" y="208.562461" style="fill: #cc79a7; stroke: #cc79a7"/>
     <use xlink:href="#m8f49f77b4f" x="551.782285" y="183.318668" style="fill: #cc79a7; stroke: #cc79a7"/>
    </g>
   </g>
   <g id="patch_3">
    <path d="M 149.2875 274.06368 
L 170.2125 274.06368 
L 170.2125 254.897874 
L 149.2875 254.897874 
L 149.2875 274.06368 
z
" clip-path="url(#p3643e024f5)" style="fill: #d55e00; opacity: 0.5; stroke: #000000; stroke-linejoin: miter"/>
   </g>
   <g id="line2d_11">
    <path d="M 159.75 274.06368 
L 159.75 298.681461 
" clip-path="url(#p3643e024f5)" style="fill: none; stroke: #000000; stroke-linecap: round"/>
   </g>
   <g id="line2d_12">
    <path d="M 159.75 254.897874 
L 159.75 232.220945 
" clip-path="url(#p3643e024f5)" style="fill: none; stroke: #000000; stroke-linecap: round"/>
   </g>
   <g id="line2d_13">
    <path d="M 154.51875 298.681461 
L 164.98125 298.681461 
" clip-path="url(#p3643e024f5)" style="fill: none; stroke: #000000; stroke-linecap: round"/>
   </g>
   <g id="line2d_14">
    <path d="M 154.51875 232.220945 
L 164.98125 232.220945 
" clip-path="url(#p3643e024f5)" style="fill: none; stroke: #000000; stroke-linecap: round"/>
   </g>
   <g id="patch_4">
    <path d="M 288.7875 413.085318 
L 309.7125 413.085318 
L 309.7125 369.811252 
L 288.7875 369.811252 
L 288.7875 413.085318 
z
" clip-path="url(#p3643e024f5)" style="fill: #0072b2; opacity: 0.5; stroke: #000000; stroke-linejoin: miter"/>
   </g>
   <g id="line2d_15">
    <path d="M 299.25 413.085318 
L 299.25 474.733951 
" clip-path="url(#p3643e024f5)" style="fill: none; stroke: #000000; stroke-linecap: round"/>
   </g>
   <g id="line2d_16">
    <path d="M 299.25 369.811252 
L 299.25 328.072712 
" clip-path="url(#p3643e024f5)" style="fill: none; stroke: #000000; stroke-linecap: round"/>
   </g>
   <g id="line2d_17">
    <path d="M 294.01875 474.733951 
L 304.48125 474.733951 
" clip-path="url(#p3643e024f5)" style="fill: none; stroke: #000000; stroke-linecap: round"/>
   </g>
   <g id="line2d_18">
    <path d="M 294.01875 328.072712 
L 304.48125 328.072712 
" clip-path="url(#p3643e024f5)" style="fill: none; stroke: #000000; stroke-linecap: round"/>
   </g>
   <g id="patch_5">
    <path d="M 428.2875 319.264831 
L 449.2125 319.264831 
L 449.2125 295.537416 
L 428.2875 295.537416 
L 428.2875 319.264831 
z
" clip-path="url(#p3643e024f5)" style="fill: #009e73; opacity: 0.5; stroke: #000000; stroke-linejoin: miter"/>
   </g>
   <g id="line2d_19">
    <path d="M 438.75 319.264831 
L 438.75 347.787201 
" clip-path="url(#p3643e024f5)" style="fill: none; stroke: #000000; stroke-linecap: round"/>
   </g>
   <g id="line2d_20">
    <path d="M 438.75 295.537416 
L 438.75 281.375096 
" clip-path="url(#p3643e024f5)" style="fill: none; stroke: #000000; stroke-linecap: round"/>
   </g>
   <g id="line2d_21">
    <path d="M 433.51875 347.787201 
L 443.98125 347.787201 
" clip-path="url(#p3643e024f5)" style="fill: none; stroke: #000000; stroke-linecap: round"/>
   </g>
   <g id="line2d_22">
    <path d="M 433.51875 281.375096 
L 443.98125 281.375096 
" clip-path="url(#p3643e024f5)" style="fill: none; stroke: #000000; stroke-linecap: round"/>
   </g>
   <g id="patch_6">
    <path d="M 567.7875 230.878237 
L 588.7125 230.878237 
L 588.7125 191.524191 
L 567.7875 191.524191 
L 567.7875 230.878237 
z
" clip-path="url(#p3643e024f5)" style="fill: #cc79a7; opacity: 0.5; stroke: #000000; stroke-linejoin: miter"/>
   </g>
   <g id="line2d_23">
    <path d="M 578.25 230.878237 
L 578.25 281.876754 
" clip-path="url(#p3643e024f5)" style="fill: none; stroke: #000000; stroke-linecap: round"/>
   </g>
   <g id="line2d_24">
    <path d="M 578.25 191.524191 
L 578.25 146.781818 
" clip-path="url(#p3643e024f5)" style="fill: none; stroke: #000000; stroke-linecap: round"/>
   </g>
   <g id="line2d_25">
    <path d="M 573.01875 281.876754 
L 583.48125 281.876754 
" clip-path="url(#p3643e024f5)" style="fill: none; stroke: #000000; stroke-linecap: round"/>
   </g>
   <g id="line2d_26">
    <path d="M 573.01875 146.781818 
L 583.48125 146.781818 
" clip-path="url(#p3643e024f5)" style="fill: none; stroke: #000000; stroke-linecap: round"/>
   </g>
   <g id="line2d_27">
    <path d="M 149.2875 265.115113 
L 170.2125 265.115113 
" clip-path="url(#p3643e024f5)" style="fill: none; stroke: #000000"/>
   </g>
   <g id="line2d_28">
    <path d="M 288.7875 379.2014 
L 309.7125 379.2014 
" clip-path="url(#p3643e024f5)" style="fill: none; stroke: #000000"/>
   </g>
   <g id="line2d_29">
    <path d="M 428.2875 303.59411 
L 449.2125 303.59411 
" clip-path="url(#p3643e024f5)" style="fill: none; stroke: #000000"/>
   </g>
   <g id="line2d_30">
    <path d="M 567.7875 218.179021 
L 588.7125 218.179021 
" clip-path="url(#p3643e024f5)" style="fill: none; stroke: #000000"/>
   </g>
   <g id="patch_7">
    <path d="M 90 507.6 
L 90 129.6 
" style="fill: none; stroke: #262626; stroke-width: 1.25; stroke-linejoin: miter; stroke-linecap: square"/>
   </g>
   <g id="patch_8">
    <path d="M 648 507.6 
L 648 129.6 
" style="fill: none; stroke: #262626; stroke-width: 1.25; stroke-linejoin: miter; stroke-linecap: square"/>
   </g>
   <g id="patch_9">
    <path d="M 90 507.6 
L 648 507.6 
" style="fill: none; stroke: #262626; stroke-width: 1.25; stroke-linejoin: miter; stroke-linecap: square"/>
   </g>
   <g id="patch_10">
    <path d="M 90 129.6 
L 648 129.6 
" style="fill: none; stroke: #262626; stroke-width: 1.25; stroke-linejoin: miter; stroke-linecap: square"/>
   </g>
   <g id="text_12">
    <!-- IBI -->
    <g style="fill: #262626" transform="translate(360.055313 109.6) scale(0.14 -0.14)">
     <defs>
      <path id="Arial-BoldMT-49" d="M 438 0 
L 438 4581 
L 1363 4581 
L 1363 0 
L 438 0 
z
" transform="scale(0.015625)"/>
      <path id="Arial-BoldMT-42" d="M 469 4581 
L 2300 4581 
Q 2844 4581 3111 4536 
Q 3378 4491 3589 4347 
Q 3800 4203 3940 3964 
Q 4081 3725 4081 3428 
Q 4081 3106 3907 2837 
Q 3734 2569 3438 2434 
Q 3856 2313 4081 2019 
Q 4306 1725 4306 1328 
Q 4306 1016 4161 720 
Q 4016 425 3764 248 
Q 3513 72 3144 31 
Q 2913 6 2028 0 
L 469 0 
L 469 4581 
z
M 1394 3819 
L 1394 2759 
L 2000 2759 
Q 2541 2759 2672 2775 
Q 2909 2803 3045 2939 
Q 3181 3075 3181 3297 
Q 3181 3509 3064 3642 
Q 2947 3775 2716 3803 
Q 2578 3819 1925 3819 
L 1394 3819 
z
M 1394 1997 
L 1394 772 
L 2250 772 
Q 2750 772 2884 800 
Q 3091 838 3220 983 
Q 3350 1128 3350 1372 
Q 3350 1578 3250 1722 
Q 3150 1866 2961 1931 
Q 2772 1997 2141 1997 
L 1394 1997 
z
" transform="scale(0.015625)"/>
     </defs>
     <use xlink:href="#Arial-BoldMT-49"/>
     <use xlink:href="#Arial-BoldMT-42" x="27.783203"/>
     <use xlink:href="#Arial-BoldMT-49" x="100"/>
    </g>
   </g>
  </g>
  <g id="axes_2">
   <g id="patch_11">
    <path d="M 90 961.2 
L 648 961.2 
L 648 583.2 
L 90 583.2 
z
" style="fill: #ffffff"/>
   </g>
   <g id="matplotlib.axis_3">
    <g id="xtick_5">
     <g id="line2d_31">
      <g>
       <use xlink:href="#m9b3899fc61" x="159.75" y="961.2" style="fill: #262626; stroke: #262626; stroke-width: 1.25"/>
      </g>
     </g>
     <g id="text_13">
      <!-- State 1 -->
      <g style="fill: #262626" transform="translate(142.321875 978.573594) scale(0.11 -0.11)">
       <use xlink:href="#ArialMT-53"/>
       <use xlink:href="#ArialMT-74" x="66.699219"/>
       <use xlink:href="#ArialMT-61" x="94.482422"/>
       <use xlink:href="#ArialMT-74" x="150.097656"/>
       <use xlink:href="#ArialMT-65" x="177.880859"/>
       <use xlink:href="#ArialMT-20" x="233.496094"/>
       <use xlink:href="#ArialMT-31" x="261.279297"/>
      </g>
     </g>
    </g>
    <g id="xtick_6">
     <g id="line2d_32">
      <g>
       <use xlink:href="#m9b3899fc61" x="299.25" y="961.2" style="fill: #262626; stroke: #262626; stroke-width: 1.25"/>
      </g>
     </g>
     <g id="text_14">
      <!-- State 2 -->
      <g style="fill: #262626" transform="translate(281.821875 978.573594) scale(0.11 -0.11)">
       <use xlink:href="#ArialMT-53"/>
       <use xlink:href="#ArialMT-74" x="66.699219"/>
       <use xlink:href="#ArialMT-61" x="94.482422"/>
       <use xlink:href="#ArialMT-74" x="150.097656"/>
       <use xlink:href="#ArialMT-65" x="177.880859"/>
       <use xlink:href="#ArialMT-20" x="233.496094"/>
       <use xlink:href="#ArialMT-32" x="261.279297"/>
      </g>
     </g>
    </g>
    <g id="xtick_7">
     <g id="line2d_33">
      <g>
       <use xlink:href="#m9b3899fc61" x="438.75" y="961.2" style="fill: #262626; stroke: #262626; stroke-width: 1.25"/>
      </g>
     </g>
     <g id="text_15">
      <!-- State 3 -->
      <g style="fill: #262626" transform="translate(421.321875 978.573594) scale(0.11 -0.11)">
       <use xlink:href="#ArialMT-53"/>
       <use xlink:href="#ArialMT-74" x="66.699219"/>
       <use xlink:href="#ArialMT-61" x="94.482422"/>
       <use xlink:href="#ArialMT-74" x="150.097656"/>
       <use xlink:href="#ArialMT-65" x="177.880859"/>
       <use xlink:href="#ArialMT-20" x="233.496094"/>
       <use xlink:href="#ArialMT-33" x="261.279297"/>
      </g>
     </g>
    </g>
    <g id="xtick_8">
     <g id="line2d_34">
      <g>
       <use xlink:href="#m9b3899fc61" x="578.25" y="961.2" style="fill: #262626; stroke: #262626; stroke-width: 1.25"/>
      </g>
     </g>
     <g id="text_16">
      <!-- State 4 -->
      <g style="fill: #262626" transform="translate(560.821875 978.573594) scale(0.11 -0.11)">
       <use xlink:href="#ArialMT-53"/>
       <use xlink:href="#ArialMT-74" x="66.699219"/>
       <use xlink:href="#ArialMT-61" x="94.482422"/>
       <use xlink:href="#ArialMT-74" x="150.097656"/>
       <use xlink:href="#ArialMT-65" x="177.880859"/>
       <use xlink:href="#ArialMT-20" x="233.496094"/>
       <use xlink:href="#ArialMT-34" x="261.279297"/>
      </g>
     </g>
    </g>
   </g>
   <g id="matplotlib.axis_4">
    <g id="ytick_7">
     <g id="line2d_35">
      <g>
       <use xlink:href="#m0848980275" x="90" y="930.718857" style="fill: #262626; stroke: #262626; stroke-width: 1.25"/>
      </g>
     </g>
     <g id="text_17">
      <!-- −1.5 -->
      <g style="fill: #262626" transform="translate(58.785313 934.655654) scale(0.11 -0.11)">
       <use xlink:href="#ArialMT-2212"/>
       <use xlink:href="#ArialMT-31" x="58.398438"/>
       <use xlink:href="#ArialMT-2e" x="114.013672"/>
       <use xlink:href="#ArialMT-35" x="141.796875"/>
      </g>
     </g>
    </g>
    <g id="ytick_8">
     <g id="line2d_36">
      <g>
       <use xlink:href="#m0848980275" x="90" y="886.187918" style="fill: #262626; stroke: #262626; stroke-width: 1.25"/>
      </g>
     </g>
     <g id="text_18">
      <!-- −1.0 -->
      <g style="fill: #262626" transform="translate(58.785313 890.124715) scale(0.11 -0.11)">
       <use xlink:href="#ArialMT-2212"/>
       <use xlink:href="#ArialMT-31" x="58.398438"/>
       <use xlink:href="#ArialMT-2e" x="114.013672"/>
       <use xlink:href="#ArialMT-30" x="141.796875"/>
      </g>
     </g>
    </g>
    <g id="ytick_9">
     <g id="line2d_37">
      <g>
       <use xlink:href="#m0848980275" x="90" y="841.656979" style="fill: #262626; stroke: #262626; stroke-width: 1.25"/>
      </g>
     </g>
     <g id="text_19">
      <!-- −0.5 -->
      <g style="fill: #262626" transform="translate(58.785313 845.593776) scale(0.11 -0.11)">
       <use xlink:href="#ArialMT-2212"/>
       <use xlink:href="#ArialMT-30" x="58.398438"/>
       <use xlink:href="#ArialMT-2e" x="114.013672"/>
       <use xlink:href="#ArialMT-35" x="141.796875"/>
      </g>
     </g>
    </g>
    <g id="ytick_10">
     <g id="line2d_38">
      <g>
       <use xlink:href="#m0848980275" x="90" y="797.126039" style="fill: #262626; stroke: #262626; stroke-width: 1.25"/>
      </g>
     </g>
     <g id="text_20">
      <!-- 0.0 -->
      <g style="fill: #262626" transform="translate(65.21 801.062836) scale(0.11 -0.11)">
       <use xlink:href="#ArialMT-30"/>
       <use xlink:href="#ArialMT-2e" x="55.615234"/>
       <use xlink:href="#ArialMT-30" x="83.398438"/>
      </g>
     </g>
    </g>
    <g id="ytick_11">
     <g id="line2d_39">
      <g>
       <use xlink:href="#m0848980275" x="90" y="752.5951" style="fill: #262626; stroke: #262626; stroke-width: 1.25"/>
      </g>
     </g>
     <g id="text_21">
      <!-- 0.5 -->
      <g style="fill: #262626" transform="translate(65.21 756.531897) scale(0.11 -0.11)">
       <use xlink:href="#ArialMT-30"/>
       <use xlink:href="#ArialMT-2e" x="55.615234"/>
       <use xlink:href="#ArialMT-35" x="83.398438"/>
      </g>
     </g>
    </g>
    <g id="ytick_12">
     <g id="line2d_40">
      <g>
       <use xlink:href="#m0848980275" x="90" y="708.064161" style="fill: #262626; stroke: #262626; stroke-width: 1.25"/>
      </g>
     </g>
     <g id="text_22">
      <!-- 1.0 -->
      <g style="fill: #262626" transform="translate(65.21 712.000958) scale(0.11 -0.11)">
       <use xlink:href="#ArialMT-31"/>
       <use xlink:href="#ArialMT-2e" x="55.615234"/>
       <use xlink:href="#ArialMT-30" x="83.398438"/>
      </g>
     </g>
    </g>
    <g id="ytick_13">
     <g id="line2d_41">
      <g>
       <use xlink:href="#m0848980275" x="90" y="663.533221" style="fill: #262626; stroke: #262626; stroke-width: 1.25"/>
      </g>
     </g>
     <g id="text_23">
      <!-- 1.5 -->
      <g style="fill: #262626" transform="translate(65.21 667.470018) scale(0.11 -0.11)">
       <use xlink:href="#ArialMT-31"/>
       <use xlink:href="#ArialMT-2e" x="55.615234"/>
       <use xlink:href="#ArialMT-35" x="83.398438"/>
      </g>
     </g>
    </g>
    <g id="ytick_14">
     <g id="line2d_42">
      <g>
       <use xlink:href="#m0848980275" x="90" y="619.002282" style="fill: #262626; stroke: #262626; stroke-width: 1.25"/>
      </g>
     </g>
     <g id="text_24">
      <!-- 2.0 -->
      <g style="fill: #262626" transform="translate(65.21 622.939079) scale(0.11 -0.11)">
       <use xlink:href="#ArialMT-32"/>
       <use xlink:href="#ArialMT-2e" x="55.615234"/>
       <use xlink:href="#ArialMT-30" x="83.398438"/>
      </g>
     </g>
    </g>
    <g id="text_25">
     <!-- Value (z-scored) -->
     <g style="fill: #262626" transform="translate(52.259687 815.770313) rotate(-90) scale(0.12 -0.12)">
      <use xlink:href="#ArialMT-56"/>
      <use xlink:href="#ArialMT-61" x="59.324219"/>
      <use xlink:href="#ArialMT-6c" x="114.939453"/>
      <use xlink:href="#ArialMT-75" x="137.15625"/>
      <use xlink:href="#ArialMT-65" x="192.771484"/>
      <use xlink:href="#ArialMT-20" x="248.386719"/>
      <use xlink:href="#ArialMT-28" x="276.169922"/>
      <use xlink:href="#ArialMT-7a" x="309.470703"/>
      <use xlink:href="#ArialMT-2d" x="359.470703"/>
      <use xlink:href="#ArialMT-73" x="392.771484"/>
      <use xlink:href="#ArialMT-63" x="442.771484"/>
      <use xlink:href="#ArialMT-6f" x="492.771484"/>
      <use xlink:href="#ArialMT-72" x="548.386719"/>
      <use xlink:href="#ArialMT-65" x="581.6875"/>
      <use xlink:href="#ArialMT-64" x="637.302734"/>
      <use xlink:href="#ArialMT-29" x="692.917969"/>
     </g>
    </g>
   </g>
   <g id="PolyCollection_5">
    <defs>
     <path id="m5052460f74" d="M 172.350978 -302.570499 
L 160.282646 -302.570499 
L 160.282646 -302.906239 
L 160.282646 -303.241979 
L 160.282646 -303.577719 
L 160.282646 -303.91346 
L 160.282646 -304.2492 
L 160.282646 -304.58494 
L 160.282646 -304.920681 
L 160.282646 -305.256421 
L 160.282646 -305.592161 
L 160.282646 -305.927902 
L 160.282646 -306.263642 
L 160.282646 -306.599382 
L 160.282646 -306.935122 
L 160.282646 -307.270863 
L 160.282646 -307.606603 
L 160.282646 -307.942343 
L 160.282646 -308.278084 
L 160.282646 -308.613824 
L 160.282646 -308.949564 
L 160.282646 -309.285305 
L 160.282646 -309.621045 
L 160.282646 -309.956785 
L 160.282646 -310.292525 
L 160.282646 -310.628266 
L 160.282646 -310.964006 
L 160.282646 -311.299746 
L 160.282646 -311.635487 
L 160.282646 -311.971227 
L 160.282646 -312.306967 
L 160.282646 -312.642708 
L 160.282646 -312.978448 
L 160.282646 -313.314188 
L 160.282646 -313.649928 
L 160.282646 -313.985669 
L 160.282646 -314.321409 
L 160.282646 -314.657149 
L 160.282646 -314.99289 
L 160.282646 -315.32863 
L 177.692354 -315.32863 
L 177.692354 -315.32863 
L 179.989533 -314.99289 
L 182.108555 -314.657149 
L 183.982072 -314.321409 
L 185.572258 -313.985669 
L 186.876233 -313.649928 
L 187.925534 -313.314188 
L 188.779154 -312.978448 
L 189.511069 -312.642708 
L 190.194578 -312.306967 
L 190.886672 -311.971227 
L 191.615815 -311.635487 
L 192.375799 -311.299746 
L 193.126882 -310.964006 
L 193.803699 -310.628266 
L 194.327888 -310.292525 
L 194.622479 -309.956785 
L 194.625 -309.621045 
L 194.296995 -309.285305 
L 193.628746 -308.949564 
L 192.639247 -308.613824 
L 191.372391 -308.278084 
L 189.890746 -307.942343 
L 188.268318 -307.606603 
L 186.583332 -307.270863 
L 184.911624 -306.935122 
L 183.320857 -306.599382 
L 181.865573 -306.263642 
L 180.583089 -305.927902 
L 179.490379 -305.592161 
L 178.582323 -305.256421 
L 177.831834 -304.920681 
L 177.192391 -304.58494 
L 176.603269 -304.2492 
L 175.99725 -303.91346 
L 175.310004 -303.577719 
L 174.489716 -303.241979 
L 173.505218 -302.906239 
L 172.350978 -302.570499 
z
" style="stroke: #d55e00; stroke-opacity: 0.3"/>
    </defs>
    <g clip-path="url(#pc9b8f671da)">
     <use xlink:href="#m5052460f74" x="0" y="1080" style="fill: #d55e00; fill-opacity: 0.3; stroke: #d55e00; stroke-opacity: 0.3"/>
    </g>
   </g>
   <g id="PolyCollection_6">
    <defs>
     <path id="m7a68db1c4c" d="M 303.808808 -135.981818 
L 299.424854 -135.981818 
L 299.424854 -137.885214 
L 299.424854 -139.78861 
L 299.424854 -141.692006 
L 299.424854 -143.595403 
L 299.424854 -145.498799 
L 299.424854 -147.402195 
L 299.424854 -149.305591 
L 299.424854 -151.208987 
L 299.424854 -153.112383 
L 299.424854 -155.015779 
L 299.424854 -156.919175 
L 299.424854 -158.822571 
L 299.424854 -160.725967 
L 299.424854 -162.629363 
L 299.424854 -164.53276 
L 299.424854 -166.436156 
L 299.424854 -168.339552 
L 299.424854 -170.242948 
L 299.424854 -172.146344 
L 299.424854 -174.04974 
L 299.424854 -175.953136 
L 299.424854 -177.856532 
L 299.424854 -179.759928 
L 299.424854 -181.663324 
L 299.424854 -183.56672 
L 299.424854 -185.470117 
L 299.424854 -187.373513 
L 299.424854 -189.276909 
L 299.424854 -191.180305 
L 299.424854 -193.083701 
L 299.424854 -194.987097 
L 299.424854 -196.890493 
L 299.424854 -198.793889 
L 299.424854 -200.697285 
L 299.424854 -202.600681 
L 299.424854 -204.504077 
L 299.424854 -206.407474 
L 299.424854 -208.31087 
L 304.295549 -208.31087 
L 304.295549 -208.31087 
L 305.634885 -206.407474 
L 307.259756 -204.504077 
L 309.221117 -202.600681 
L 311.556435 -200.697285 
L 314.272221 -198.793889 
L 317.326668 -196.890493 
L 320.617452 -194.987097 
L 323.97965 -193.083701 
L 327.197139 -191.180305 
L 330.027646 -189.276909 
L 332.23767 -187.373513 
L 333.640022 -185.470117 
L 334.125 -183.56672 
L 333.677295 -181.663324 
L 332.374419 -179.759928 
L 330.367807 -177.856532 
L 327.852787 -175.953136 
L 325.036407 -174.04974 
L 322.111585 -172.146344 
L 319.242419 -170.242948 
L 316.560384 -168.339552 
L 314.166904 -166.436156 
L 312.136194 -164.53276 
L 310.514092 -162.629363 
L 309.31257 -160.725967 
L 308.503748 -158.822571 
L 308.019167 -156.919175 
L 307.75862 -155.015779 
L 307.608595 -153.112383 
L 307.465484 -151.208987 
L 307.255655 -149.305591 
L 306.945206 -147.402195 
L 306.536428 -145.498799 
L 306.053692 -143.595403 
L 305.525826 -141.692006 
L 304.972729 -139.78861 
L 304.401051 -137.885214 
L 303.808808 -135.981818 
z
" style="stroke: #0072b2; stroke-opacity: 0.3"/>
    </defs>
    <g clip-path="url(#pc9b8f671da)">
     <use xlink:href="#m7a68db1c4c" x="0" y="1080" style="fill: #0072b2; fill-opacity: 0.3; stroke: #0072b2; stroke-opacity: 0.3"/>
    </g>
   </g>
   <g id="PolyCollection_7">
    <defs>
     <path id="m246bc634df" d="M 443.699503 -240.120489 
L 438.902404 -240.120489 
L 438.902404 -240.407388 
L 438.902404 -240.694286 
L 438.902404 -240.981184 
L 438.902404 -241.268082 
L 438.902404 -241.55498 
L 438.902404 -241.841878 
L 438.902404 -242.128777 
L 438.902404 -242.415675 
L 438.902404 -242.702573 
L 438.902404 -242.989471 
L 438.902404 -243.276369 
L 438.902404 -243.563268 
L 438.902404 -243.850166 
L 438.902404 -244.137064 
L 438.902404 -244.423962 
L 438.902404 -244.71086 
L 438.902404 -244.997758 
L 438.902404 -245.284657 
L 438.902404 -245.571555 
L 438.902404 -245.858453 
L 438.902404 -246.145351 
L 438.902404 -246.432249 
L 438.902404 -246.719148 
L 438.902404 -247.006046 
L 438.902404 -247.292944 
L 438.902404 -247.579842 
L 438.902404 -247.86674 
L 438.902404 -248.153638 
L 438.902404 -248.440537 
L 438.902404 -248.727435 
L 438.902404 -249.014333 
L 438.902404 -249.301231 
L 438.902404 -249.588129 
L 438.902404 -249.875027 
L 438.902404 -250.161926 
L 438.902404 -250.448824 
L 438.902404 -250.735722 
L 438.902404 -251.02262 
L 441.195738 -251.02262 
L 441.195738 -251.02262 
L 441.471595 -250.735722 
L 441.806603 -250.448824 
L 442.285613 -250.161926 
L 442.997518 -249.875027 
L 444.013438 -249.588129 
L 445.369655 -249.301231 
L 447.061156 -249.014333 
L 449.047799 -248.727435 
L 451.270445 -248.440537 
L 453.670387 -248.153638 
L 456.20341 -247.86674 
L 458.841104 -247.579842 
L 461.556943 -247.292944 
L 464.301875 -247.006046 
L 466.980596 -246.719148 
L 469.441909 -246.432249 
L 471.492754 -246.145351 
L 472.936464 -245.858453 
L 473.625 -245.571555 
L 473.507003 -245.284657 
L 472.652409 -244.997758 
L 471.241569 -244.71086 
L 469.520042 -244.423962 
L 467.733811 -244.137064 
L 466.067185 -243.850166 
L 464.603627 -243.563268 
L 463.319762 -243.276369 
L 462.110467 -242.989471 
L 460.83372 -242.702573 
L 459.360387 -242.415675 
L 457.615226 -242.128777 
L 455.599151 -241.841878 
L 453.387919 -241.55498 
L 451.108876 -241.268082 
L 448.904259 -240.981184 
L 446.894183 -240.694286 
L 445.152108 -240.407388 
L 443.699503 -240.120489 
z
" style="stroke: #009e73; stroke-opacity: 0.3"/>
    </defs>
    <g clip-path="url(#pc9b8f671da)">
     <use xlink:href="#m246bc634df" x="0" y="1080" style="fill: #009e73; fill-opacity: 0.3; stroke: #009e73; stroke-opacity: 0.3"/>
    </g>
   </g>
   <g id="PolyCollection_8">
    <defs>
     <path id="m337e11b5bf" d="M 580.607157 -381.517519 
L 578.333613 -381.517519 
L 578.333613 -384.099116 
L 578.333613 -386.680712 
L 578.333613 -389.262308 
L 578.333613 -391.843905 
L 578.333613 -394.425501 
L 578.333613 -397.007098 
L 578.333613 -399.588694 
L 578.333613 -402.17029 
L 578.333613 -404.751887 
L 578.333613 -407.333483 
L 578.333613 -409.915079 
L 578.333613 -412.496676 
L 578.333613 -415.078272 
L 578.333613 -417.659869 
L 578.333613 -420.241465 
L 578.333613 -422.823061 
L 578.333613 -425.404658 
L 578.333613 -427.986254 
L 578.333613 -430.567851 
L 578.333613 -433.149447 
L 578.333613 -435.731043 
L 578.333613 -438.31264 
L 578.333613 -440.894236 
L 578.333613 -443.475832 
L 578.333613 -446.057429 
L 578.333613 -448.639025 
L 578.333613 -451.220622 
L 578.333613 -453.802218 
L 578.333613 -456.383814 
L 578.333613 -458.965411 
L 578.333613 -461.547007 
L 578.333613 -464.128604 
L 578.333613 -466.7102 
L 578.333613 -469.291796 
L 578.333613 -471.873393 
L 578.333613 -474.454989 
L 578.333613 -477.036585 
L 578.333613 -479.618182 
L 580.308364 -479.618182 
L 580.308364 -479.618182 
L 580.461348 -477.036585 
L 580.554269 -474.454989 
L 580.616352 -471.873393 
L 580.677238 -469.291796 
L 580.762834 -466.7102 
L 580.902715 -464.128604 
L 581.14108 -461.547007 
L 581.538785 -458.965411 
L 582.160609 -456.383814 
L 583.054676 -453.802218 
L 584.238724 -451.220622 
L 585.703231 -448.639025 
L 587.427701 -446.057429 
L 589.395352 -443.475832 
L 591.593248 -440.894236 
L 593.998413 -438.31264 
L 596.563946 -435.731043 
L 599.21993 -433.149447 
L 601.890141 -430.567851 
L 604.508517 -427.986254 
L 607.014652 -425.404658 
L 609.321845 -422.823061 
L 611.275857 -420.241465 
L 612.638759 -417.659869 
L 613.125 -415.078272 
L 612.486967 -412.496676 
L 610.613865 -409.915079 
L 607.594503 -407.333483 
L 603.712286 -404.751887 
L 599.376939 -402.17029 
L 595.026809 -399.588694 
L 591.040379 -397.007098 
L 587.679463 -394.425501 
L 585.066995 -391.843905 
L 583.193012 -389.262308 
L 581.942769 -386.680712 
L 581.141614 -384.099116 
L 580.607157 -381.517519 
z
" style="stroke: #cc79a7; stroke-opacity: 0.3"/>
    </defs>
    <g clip-path="url(#pc9b8f671da)">
     <use xlink:href="#m337e11b5bf" x="0" y="1080" style="fill: #cc79a7; fill-opacity: 0.3; stroke: #cc79a7; stroke-opacity: 0.3"/>
    </g>
   </g>
   <g id="PathCollection_5">
    <g clip-path="url(#pc9b8f671da)">
     <use xlink:href="#mfef362044a" x="130.840694" y="769.753061" style="fill: #d55e00; stroke: #d55e00"/>
     <use xlink:href="#mfef362044a" x="138.587754" y="771.250555" style="fill: #d55e00; stroke: #d55e00"/>
     <use xlink:href="#mfef362044a" x="130.023703" y="770.148855" style="fill: #d55e00; stroke: #d55e00"/>
     <use xlink:href="#mfef362044a" x="127.308814" y="777.429501" style="fill: #d55e00; stroke: #d55e00"/>
     <use xlink:href="#mfef362044a" x="136.097072" y="766.29304" style="fill: #d55e00; stroke: #d55e00"/>
     <use xlink:href="#mfef362044a" x="132.97461" y="771.989473" style="fill: #d55e00; stroke: #d55e00"/>
     <use xlink:href="#mfef362044a" x="133.331648" y="772.31874" style="fill: #d55e00; stroke: #d55e00"/>
     <use xlink:href="#mfef362044a" x="137.664958" y="766.230745" style="fill: #d55e00; stroke: #d55e00"/>
     <use xlink:href="#mfef362044a" x="125.476667" y="774.182404" style="fill: #d55e00; stroke: #d55e00"/>
     <use xlink:href="#mfef362044a" x="125.932459" y="769.056699" style="fill: #d55e00; stroke: #d55e00"/>
     <use xlink:href="#mfef362044a" x="137.706678" y="777.000003" style="fill: #d55e00; stroke: #d55e00"/>
     <use xlink:href="#mfef362044a" x="128.052852" y="767.151691" style="fill: #d55e00; stroke: #d55e00"/>
     <use xlink:href="#mfef362044a" x="133.063584" y="772.104488" style="fill: #d55e00; stroke: #d55e00"/>
     <use xlink:href="#mfef362044a" x="136.048627" y="770.877504" style="fill: #d55e00; stroke: #d55e00"/>
     <use xlink:href="#mfef362044a" x="126.469798" y="769.77984" style="fill: #d55e00; stroke: #d55e00"/>
     <use xlink:href="#mfef362044a" x="127.680153" y="775.444532" style="fill: #d55e00; stroke: #d55e00"/>
     <use xlink:href="#mfef362044a" x="125.192877" y="771.229984" style="fill: #d55e00; stroke: #d55e00"/>
     <use xlink:href="#mfef362044a" x="131.851117" y="766.439252" style="fill: #d55e00; stroke: #d55e00"/>
     <use xlink:href="#mfef362044a" x="130.263881" y="766.097408" style="fill: #d55e00; stroke: #d55e00"/>
     <use xlink:href="#mfef362044a" x="129.294673" y="773.981229" style="fill: #d55e00; stroke: #d55e00"/>
     <use xlink:href="#mfef362044a" x="128.627038" y="764.67137" style="fill: #d55e00; stroke: #d55e00"/>
     <use xlink:href="#mfef362044a" x="128.963292" y="772.605176" style="fill: #d55e00; stroke: #d55e00"/>
     <use xlink:href="#mfef362044a" x="127.954094" y="764.853812" style="fill: #d55e00; stroke: #d55e00"/>
     <use xlink:href="#mfef362044a" x="126.104099" y="769.184463" style="fill: #d55e00; stroke: #d55e00"/>
     <use xlink:href="#mfef362044a" x="128.590211" y="776.173588" style="fill: #d55e00; stroke: #d55e00"/>
     <use xlink:href="#mfef362044a" x="128.667097" y="765.998563" style="fill: #d55e00; stroke: #d55e00"/>
     <use xlink:href="#mfef362044a" x="132.659305" y="769.584344" style="fill: #d55e00; stroke: #d55e00"/>
     <use xlink:href="#mfef362044a" x="138.213595" y="772.326671" style="fill: #d55e00; stroke: #d55e00"/>
     <use xlink:href="#mfef362044a" x="131.152558" y="777.170074" style="fill: #d55e00; stroke: #d55e00"/>
     <use xlink:href="#mfef362044a" x="128.54741" y="766.368061" style="fill: #d55e00; stroke: #d55e00"/>
     <use xlink:href="#mfef362044a" x="135.264725" y="764.814987" style="fill: #d55e00; stroke: #d55e00"/>
     <use xlink:href="#mfef362044a" x="126.967527" y="768.883451" style="fill: #d55e00; stroke: #d55e00"/>
     <use xlink:href="#mfef362044a" x="137.27137" y="774.032491" style="fill: #d55e00; stroke: #d55e00"/>
     <use xlink:href="#mfef362044a" x="136.399738" y="770.450972" style="fill: #d55e00; stroke: #d55e00"/>
     <use xlink:href="#mfef362044a" x="125.792914" y="770.56947" style="fill: #d55e00; stroke: #d55e00"/>
     <use xlink:href="#mfef362044a" x="129.865886" y="767.565376" style="fill: #d55e00; stroke: #d55e00"/>
     <use xlink:href="#mfef362044a" x="135.758413" y="767.383884" style="fill: #d55e00; stroke: #d55e00"/>
     <use xlink:href="#mfef362044a" x="130.537721" y="769.725143" style="fill: #d55e00; stroke: #d55e00"/>
     <use xlink:href="#mfef362044a" x="127.609269" y="776.857917" style="fill: #d55e00; stroke: #d55e00"/>
    </g>
   </g>
   <g id="PathCollection_6">
    <g clip-path="url(#pc9b8f671da)">
     <use xlink:href="#mc47adf00ef" x="264.860837" y="900.779646" style="fill: #0072b2; stroke: #0072b2"/>
     <use xlink:href="#mc47adf00ef" x="269.855963" y="908.792084" style="fill: #0072b2; stroke: #0072b2"/>
     <use xlink:href="#mc47adf00ef" x="270.186348" y="893.4804" style="fill: #0072b2; stroke: #0072b2"/>
     <use xlink:href="#mc47adf00ef" x="265.997505" y="926.446671" style="fill: #0072b2; stroke: #0072b2"/>
     <use xlink:href="#mc47adf00ef" x="275.899729" y="901.570927" style="fill: #0072b2; stroke: #0072b2"/>
     <use xlink:href="#mc47adf00ef" x="277.379942" y="930.438317" style="fill: #0072b2; stroke: #0072b2"/>
     <use xlink:href="#mc47adf00ef" x="265.87799" y="888.117218" style="fill: #0072b2; stroke: #0072b2"/>
     <use xlink:href="#mc47adf00ef" x="264.717441" y="899.058611" style="fill: #0072b2; stroke: #0072b2"/>
     <use xlink:href="#mc47adf00ef" x="269.661664" y="881.522599" style="fill: #0072b2; stroke: #0072b2"/>
     <use xlink:href="#mc47adf00ef" x="272.555357" y="898.923698" style="fill: #0072b2; stroke: #0072b2"/>
     <use xlink:href="#mc47adf00ef" x="266.123656" y="893.8264" style="fill: #0072b2; stroke: #0072b2"/>
     <use xlink:href="#mc47adf00ef" x="264.625833" y="895.051678" style="fill: #0072b2; stroke: #0072b2"/>
     <use xlink:href="#mc47adf00ef" x="269.04097" y="891.274138" style="fill: #0072b2; stroke: #0072b2"/>
     <use xlink:href="#mc47adf00ef" x="266.206184" y="894.374458" style="fill: #0072b2; stroke: #0072b2"/>
     <use xlink:href="#mc47adf00ef" x="267.866226" y="878.707593" style="fill: #0072b2; stroke: #0072b2"/>
     <use xlink:href="#mc47adf00ef" x="267.705962" y="893.234372" style="fill: #0072b2; stroke: #0072b2"/>
     <use xlink:href="#mc47adf00ef" x="272.047001" y="895.494759" style="fill: #0072b2; stroke: #0072b2"/>
     <use xlink:href="#mc47adf00ef" x="273.591273" y="944.018182" style="fill: #0072b2; stroke: #0072b2"/>
     <use xlink:href="#mc47adf00ef" x="272.961428" y="890.280596" style="fill: #0072b2; stroke: #0072b2"/>
     <use xlink:href="#mc47adf00ef" x="277.577203" y="930.774252" style="fill: #0072b2; stroke: #0072b2"/>
     <use xlink:href="#mc47adf00ef" x="266.063339" y="903.45913" style="fill: #0072b2; stroke: #0072b2"/>
     <use xlink:href="#mc47adf00ef" x="274.48598" y="895.81201" style="fill: #0072b2; stroke: #0072b2"/>
     <use xlink:href="#mc47adf00ef" x="274.273473" y="886.119932" style="fill: #0072b2; stroke: #0072b2"/>
     <use xlink:href="#mc47adf00ef" x="265.193882" y="907.042826" style="fill: #0072b2; stroke: #0072b2"/>
     <use xlink:href="#mc47adf00ef" x="271.583462" y="902.406538" style="fill: #0072b2; stroke: #0072b2"/>
     <use xlink:href="#mc47adf00ef" x="268.08246" y="910.528781" style="fill: #0072b2; stroke: #0072b2"/>
     <use xlink:href="#mc47adf00ef" x="270.894245" y="897.121521" style="fill: #0072b2; stroke: #0072b2"/>
     <use xlink:href="#mc47adf00ef" x="275.913855" y="871.68913" style="fill: #0072b2; stroke: #0072b2"/>
     <use xlink:href="#mc47adf00ef" x="272.516416" y="928.726954" style="fill: #0072b2; stroke: #0072b2"/>
     <use xlink:href="#mc47adf00ef" x="268.513992" y="894.557334" style="fill: #0072b2; stroke: #0072b2"/>
     <use xlink:href="#mc47adf00ef" x="265.198296" y="887.902774" style="fill: #0072b2; stroke: #0072b2"/>
     <use xlink:href="#mc47adf00ef" x="277.301791" y="901.078078" style="fill: #0072b2; stroke: #0072b2"/>
     <use xlink:href="#mc47adf00ef" x="265.311751" y="908.452829" style="fill: #0072b2; stroke: #0072b2"/>
     <use xlink:href="#mc47adf00ef" x="276.794141" y="888.295877" style="fill: #0072b2; stroke: #0072b2"/>
     <use xlink:href="#mc47adf00ef" x="265.61745" y="913.492849" style="fill: #0072b2; stroke: #0072b2"/>
     <use xlink:href="#mc47adf00ef" x="276.758271" y="942.557462" style="fill: #0072b2; stroke: #0072b2"/>
     <use xlink:href="#mc47adf00ef" x="267.298614" y="899.176322" style="fill: #0072b2; stroke: #0072b2"/>
     <use xlink:href="#mc47adf00ef" x="274.181776" y="915.565371" style="fill: #0072b2; stroke: #0072b2"/>
    </g>
   </g>
   <g id="PathCollection_7">
    <g clip-path="url(#pc9b8f671da)">
     <use xlink:href="#m7e12f5363d" x="404.691804" y="836.676022" style="fill: #009e73; stroke: #009e73"/>
     <use xlink:href="#m7e12f5363d" x="404.167094" y="834.214825" style="fill: #009e73; stroke: #009e73"/>
     <use xlink:href="#m7e12f5363d" x="410.331714" y="835.663934" style="fill: #009e73; stroke: #009e73"/>
     <use xlink:href="#m7e12f5363d" x="406.115802" y="828.97738" style="fill: #009e73; stroke: #009e73"/>
     <use xlink:href="#m7e12f5363d" x="410.64293" y="833.681011" style="fill: #009e73; stroke: #009e73"/>
     <use xlink:href="#m7e12f5363d" x="416.948567" y="832.648231" style="fill: #009e73; stroke: #009e73"/>
     <use xlink:href="#m7e12f5363d" x="408.814831" y="835.105316" style="fill: #009e73; stroke: #009e73"/>
     <use xlink:href="#m7e12f5363d" x="412.040579" y="836.278977" style="fill: #009e73; stroke: #009e73"/>
     <use xlink:href="#m7e12f5363d" x="405.781049" y="832.616014" style="fill: #009e73; stroke: #009e73"/>
     <use xlink:href="#m7e12f5363d" x="415.637822" y="837.921485" style="fill: #009e73; stroke: #009e73"/>
     <use xlink:href="#m7e12f5363d" x="413.44333" y="837.579211" style="fill: #009e73; stroke: #009e73"/>
     <use xlink:href="#m7e12f5363d" x="409.902881" y="838.205296" style="fill: #009e73; stroke: #009e73"/>
     <use xlink:href="#m7e12f5363d" x="409.22619" y="834.631207" style="fill: #009e73; stroke: #009e73"/>
     <use xlink:href="#m7e12f5363d" x="415.882475" y="837.421777" style="fill: #009e73; stroke: #009e73"/>
     <use xlink:href="#m7e12f5363d" x="414.810071" y="834.80085" style="fill: #009e73; stroke: #009e73"/>
     <use xlink:href="#m7e12f5363d" x="411.805614" y="835.004011" style="fill: #009e73; stroke: #009e73"/>
     <use xlink:href="#m7e12f5363d" x="409.170991" y="834.488222" style="fill: #009e73; stroke: #009e73"/>
     <use xlink:href="#m7e12f5363d" x="406.172651" y="835.380804" style="fill: #009e73; stroke: #009e73"/>
     <use xlink:href="#m7e12f5363d" x="408.206342" y="835.315872" style="fill: #009e73; stroke: #009e73"/>
     <use xlink:href="#m7e12f5363d" x="416.46577" y="836.399309" style="fill: #009e73; stroke: #009e73"/>
     <use xlink:href="#m7e12f5363d" x="413.553006" y="832.150742" style="fill: #009e73; stroke: #009e73"/>
     <use xlink:href="#m7e12f5363d" x="404.114916" y="831.859507" style="fill: #009e73; stroke: #009e73"/>
     <use xlink:href="#m7e12f5363d" x="409.588026" y="837.175279" style="fill: #009e73; stroke: #009e73"/>
     <use xlink:href="#m7e12f5363d" x="415.511025" y="834.494167" style="fill: #009e73; stroke: #009e73"/>
     <use xlink:href="#m7e12f5363d" x="414.160672" y="831.074514" style="fill: #009e73; stroke: #009e73"/>
     <use xlink:href="#m7e12f5363d" x="404.602926" y="834.868684" style="fill: #009e73; stroke: #009e73"/>
     <use xlink:href="#m7e12f5363d" x="405.468284" y="833.472955" style="fill: #009e73; stroke: #009e73"/>
     <use xlink:href="#m7e12f5363d" x="407.111711" y="832.048715" style="fill: #009e73; stroke: #009e73"/>
     <use xlink:href="#m7e12f5363d" x="412.522305" y="839.879511" style="fill: #009e73; stroke: #009e73"/>
     <use xlink:href="#m7e12f5363d" x="404.246814" y="836.315188" style="fill: #009e73; stroke: #009e73"/>
     <use xlink:href="#m7e12f5363d" x="413.19481" y="838.087788" style="fill: #009e73; stroke: #009e73"/>
     <use xlink:href="#m7e12f5363d" x="416.877573" y="838.438111" style="fill: #009e73; stroke: #009e73"/>
     <use xlink:href="#m7e12f5363d" x="417.1958" y="836.985669" style="fill: #009e73; stroke: #009e73"/>
     <use xlink:href="#m7e12f5363d" x="409.119265" y="833.50978" style="fill: #009e73; stroke: #009e73"/>
     <use xlink:href="#m7e12f5363d" x="413.326388" y="834.487394" style="fill: #009e73; stroke: #009e73"/>
     <use xlink:href="#m7e12f5363d" x="412.259779" y="833.659439" style="fill: #009e73; stroke: #009e73"/>
     <use xlink:href="#m7e12f5363d" x="413.330701" y="834.345633" style="fill: #009e73; stroke: #009e73"/>
     <use xlink:href="#m7e12f5363d" x="407.257894" y="833.250925" style="fill: #009e73; stroke: #009e73"/>
     <use xlink:href="#m7e12f5363d" x="415.249851" y="833.887484" style="fill: #009e73; stroke: #009e73"/>
    </g>
   </g>
   <g id="PathCollection_8">
    <g clip-path="url(#pc9b8f671da)">
     <use xlink:href="#m8f49f77b4f" x="546.824645" y="666.835912" style="fill: #cc79a7; stroke: #cc79a7"/>
     <use xlink:href="#m8f49f77b4f" x="545.010989" y="668.431839" style="fill: #cc79a7; stroke: #cc79a7"/>
     <use xlink:href="#m8f49f77b4f" x="555.16392" y="660.527342" style="fill: #cc79a7; stroke: #cc79a7"/>
     <use xlink:href="#m8f49f77b4f" x="546.056062" y="645.288241" style="fill: #cc79a7; stroke: #cc79a7"/>
     <use xlink:href="#m8f49f77b4f" x="555.135818" y="668.808004" style="fill: #cc79a7; stroke: #cc79a7"/>
     <use xlink:href="#m8f49f77b4f" x="545.665682" y="670.749184" style="fill: #cc79a7; stroke: #cc79a7"/>
     <use xlink:href="#m8f49f77b4f" x="549.151297" y="652.656154" style="fill: #cc79a7; stroke: #cc79a7"/>
     <use xlink:href="#m8f49f77b4f" x="553.432623" y="676.221613" style="fill: #cc79a7; stroke: #cc79a7"/>
     <use xlink:href="#m8f49f77b4f" x="555.207193" y="634.527533" style="fill: #cc79a7; stroke: #cc79a7"/>
     <use xlink:href="#m8f49f77b4f" x="548.933422" y="662.399083" style="fill: #cc79a7; stroke: #cc79a7"/>
     <use xlink:href="#m8f49f77b4f" x="550.421404" y="615.812776" style="fill: #cc79a7; stroke: #cc79a7"/>
     <use xlink:href="#m8f49f77b4f" x="549.185092" y="644.308554" style="fill: #cc79a7; stroke: #cc79a7"/>
     <use xlink:href="#m8f49f77b4f" x="549.920747" y="659.188228" style="fill: #cc79a7; stroke: #cc79a7"/>
     <use xlink:href="#m8f49f77b4f" x="547.758641" y="652.361617" style="fill: #cc79a7; stroke: #cc79a7"/>
     <use xlink:href="#m8f49f77b4f" x="545.571969" y="662.13826" style="fill: #cc79a7; stroke: #cc79a7"/>
     <use xlink:href="#m8f49f77b4f" x="551.680866" y="631.785758" style="fill: #cc79a7; stroke: #cc79a7"/>
     <use xlink:href="#m8f49f77b4f" x="550.410533" y="649.060376" style="fill: #cc79a7; stroke: #cc79a7"/>
     <use xlink:href="#m8f49f77b4f" x="551.868249" y="656.356647" style="fill: #cc79a7; stroke: #cc79a7"/>
     <use xlink:href="#m8f49f77b4f" x="545.21063" y="679.864634" style="fill: #cc79a7; stroke: #cc79a7"/>
     <use xlink:href="#m8f49f77b4f" x="543.928265" y="649.764412" style="fill: #cc79a7; stroke: #cc79a7"/>
     <use xlink:href="#m8f49f77b4f" x="555.086839" y="698.482481" style="fill: #cc79a7; stroke: #cc79a7"/>
     <use xlink:href="#m8f49f77b4f" x="549.830862" y="672.040744" style="fill: #cc79a7; stroke: #cc79a7"/>
     <use xlink:href="#m8f49f77b4f" x="556.270636" y="667.022752" style="fill: #cc79a7; stroke: #cc79a7"/>
     <use xlink:href="#m8f49f77b4f" x="551.704692" y="637.40808" style="fill: #cc79a7; stroke: #cc79a7"/>
     <use xlink:href="#m8f49f77b4f" x="551.578676" y="655.326641" style="fill: #cc79a7; stroke: #cc79a7"/>
     <use xlink:href="#m8f49f77b4f" x="554.897901" y="669.554437" style="fill: #cc79a7; stroke: #cc79a7"/>
     <use xlink:href="#m8f49f77b4f" x="556.831747" y="669.913555" style="fill: #cc79a7; stroke: #cc79a7"/>
     <use xlink:href="#m8f49f77b4f" x="548.88102" y="663.223418" style="fill: #cc79a7; stroke: #cc79a7"/>
     <use xlink:href="#m8f49f77b4f" x="546.858257" y="600.381818" style="fill: #cc79a7; stroke: #cc79a7"/>
     <use xlink:href="#m8f49f77b4f" x="551.265072" y="662.28823" style="fill: #cc79a7; stroke: #cc79a7"/>
     <use xlink:href="#m8f49f77b4f" x="551.796265" y="678.810739" style="fill: #cc79a7; stroke: #cc79a7"/>
     <use xlink:href="#m8f49f77b4f" x="550.679151" y="644.361194" style="fill: #cc79a7; stroke: #cc79a7"/>
     <use xlink:href="#m8f49f77b4f" x="553.276511" y="650.431206" style="fill: #cc79a7; stroke: #cc79a7"/>
     <use xlink:href="#m8f49f77b4f" x="555.478078" y="671.9105" style="fill: #cc79a7; stroke: #cc79a7"/>
     <use xlink:href="#m8f49f77b4f" x="552.665007" y="669.472245" style="fill: #cc79a7; stroke: #cc79a7"/>
     <use xlink:href="#m8f49f77b4f" x="548.719121" y="668.471558" style="fill: #cc79a7; stroke: #cc79a7"/>
     <use xlink:href="#m8f49f77b4f" x="547.737642" y="680.334656" style="fill: #cc79a7; stroke: #cc79a7"/>
     <use xlink:href="#m8f49f77b4f" x="556.809313" y="655.234355" style="fill: #cc79a7; stroke: #cc79a7"/>
     <use xlink:href="#m8f49f77b4f" x="545.30868" y="664.638711" style="fill: #cc79a7; stroke: #cc79a7"/>
    </g>
   </g>
   <g id="patch_12">
    <path d="M 149.2875 772.465924 
L 170.2125 772.465924 
L 170.2125 767.267788 
L 149.2875 767.267788 
L 149.2875 772.465924 
z
" clip-path="url(#pc9b8f671da)" style="fill: #d55e00; opacity: 0.5; stroke: #000000; stroke-linejoin: miter"/>
   </g>
   <g id="line2d_43">
    <path d="M 159.75 772.465924 
L 159.75 777.429501 
" clip-path="url(#pc9b8f671da)" style="fill: none; stroke: #000000; stroke-linecap: round"/>
   </g>
   <g id="line2d_44">
    <path d="M 159.75 767.267788 
L 159.75 764.67137 
" clip-path="url(#pc9b8f671da)" style="fill: none; stroke: #000000; stroke-linecap: round"/>
   </g>
   <g id="line2d_45">
    <path d="M 154.51875 777.429501 
L 164.98125 777.429501 
" clip-path="url(#pc9b8f671da)" style="fill: none; stroke: #000000; stroke-linecap: round"/>
   </g>
   <g id="line2d_46">
    <path d="M 154.51875 764.67137 
L 164.98125 764.67137 
" clip-path="url(#pc9b8f671da)" style="fill: none; stroke: #000000; stroke-linecap: round"/>
   </g>
   <g id="patch_13">
    <path d="M 288.7875 908.70727 
L 309.7125 908.70727 
L 309.7125 893.295879 
L 288.7875 893.295879 
L 288.7875 908.70727 
z
" clip-path="url(#pc9b8f671da)" style="fill: #0072b2; opacity: 0.5; stroke: #000000; stroke-linejoin: miter"/>
   </g>
   <g id="line2d_47">
    <path d="M 299.25 908.70727 
L 299.25 930.774252 
" clip-path="url(#pc9b8f671da)" style="fill: none; stroke: #000000; stroke-linecap: round"/>
   </g>
   <g id="line2d_48">
    <path d="M 299.25 893.295879 
L 299.25 871.68913 
" clip-path="url(#pc9b8f671da)" style="fill: none; stroke: #000000; stroke-linecap: round"/>
   </g>
   <g id="line2d_49">
    <path d="M 294.01875 930.774252 
L 304.48125 930.774252 
" clip-path="url(#pc9b8f671da)" style="fill: none; stroke: #000000; stroke-linecap: round"/>
   </g>
   <g id="line2d_50">
    <path d="M 294.01875 871.68913 
L 304.48125 871.68913 
" clip-path="url(#pc9b8f671da)" style="fill: none; stroke: #000000; stroke-linecap: round"/>
   </g>
   <g id="patch_14">
    <path d="M 428.2875 836.537666 
L 449.2125 836.537666 
L 449.2125 833.58461 
L 428.2875 833.58461 
L 428.2875 836.537666 
z
" clip-path="url(#pc9b8f671da)" style="fill: #009e73; opacity: 0.5; stroke: #000000; stroke-linejoin: miter"/>
   </g>
   <g id="line2d_51">
    <path d="M 438.75 836.537666 
L 438.75 839.879511 
" clip-path="url(#pc9b8f671da)" style="fill: none; stroke: #000000; stroke-linecap: round"/>
   </g>
   <g id="line2d_52">
    <path d="M 438.75 833.58461 
L 438.75 831.074514 
" clip-path="url(#pc9b8f671da)" style="fill: none; stroke: #000000; stroke-linecap: round"/>
   </g>
   <g id="line2d_53">
    <path d="M 433.51875 839.879511 
L 443.98125 839.879511 
" clip-path="url(#pc9b8f671da)" style="fill: none; stroke: #000000; stroke-linecap: round"/>
   </g>
   <g id="line2d_54">
    <path d="M 433.51875 831.074514 
L 443.98125 831.074514 
" clip-path="url(#pc9b8f671da)" style="fill: none; stroke: #000000; stroke-linecap: round"/>
   </g>
   <g id="patch_15">
    <path d="M 567.7875 669.513341 
L 588.7125 669.513341 
L 588.7125 650.097809 
L 567.7875 650.097809 
L 567.7875 669.513341 
z
" clip-path="url(#pc9b8f671da)" style="fill: #cc79a7; opacity: 0.5; stroke: #000000; stroke-linejoin: miter"/>
   </g>
   <g id="line2d_55">
    <path d="M 578.25 669.513341 
L 578.25 698.482481 
" clip-path="url(#pc9b8f671da)" style="fill: none; stroke: #000000; stroke-linecap: round"/>
   </g>
   <g id="line2d_56">
    <path d="M 578.25 650.097809 
L 578.25 631.785758 
" clip-path="url(#pc9b8f671da)" style="fill: none; stroke: #000000; stroke-linecap: round"/>
   </g>
   <g id="line2d_57">
    <path d="M 573.01875 698.482481 
L 583.48125 698.482481 
" clip-path="url(#pc9b8f671da)" style="fill: none; stroke: #000000; stroke-linecap: round"/>
   </g>
   <g id="line2d_58">
    <path d="M 573.01875 631.785758 
L 583.48125 631.785758 
" clip-path="url(#pc9b8f671da)" style="fill: none; stroke: #000000; stroke-linecap: round"/>
   </g>
   <g id="line2d_59">
    <path d="M 149.2875 770.148855 
L 170.2125 770.148855 
" clip-path="url(#pc9b8f671da)" style="fill: none; stroke: #000000"/>
   </g>
   <g id="line2d_60">
    <path d="M 288.7875 898.991155 
L 309.7125 898.991155 
" clip-path="url(#pc9b8f671da)" style="fill: none; stroke: #000000"/>
   </g>
   <g id="line2d_61">
    <path d="M 428.2875 834.80085 
L 449.2125 834.80085 
" clip-path="url(#pc9b8f671da)" style="fill: none; stroke: #000000"/>
   </g>
   <g id="line2d_62">
    <path d="M 567.7875 662.28823 
L 588.7125 662.28823 
" clip-path="url(#pc9b8f671da)" style="fill: none; stroke: #000000"/>
   </g>
   <g id="patch_16">
    <path d="M 90 961.2 
L 90 583.2 
" style="fill: none; stroke: #262626; stroke-width: 1.25; stroke-linejoin: miter; stroke-linecap: square"/>
   </g>
   <g id="patch_17">
    <path d="M 648 961.2 
L 648 583.2 
" style="fill: none; stroke: #262626; stroke-width: 1.25; stroke-linejoin: miter; stroke-linecap: square"/>
   </g>
   <g id="patch_18">
    <path d="M 90 961.2 
L 648 961.2 
" style="fill: none; stroke: #262626; stroke-width: 1.25; stroke-linejoin: miter; stroke-linecap: square"/>
   </g>
   <g id="patch_19">
    <path d="M 90 583.2 
L 648 583.2 
" style="fill: none; stroke: #262626; stroke-width: 1.25; stroke-linejoin: miter; stroke-linecap: square"/>
   </g>
   <g id="text_26">
    <!-- HF-HRV -->
    <g style="fill: #262626" transform="translate(342.681094 563.2) scale(0.14 -0.14)">
     <defs>
      <path id="Arial-BoldMT-48" d="M 469 0 
L 469 4581 
L 1394 4581 
L 1394 2778 
L 3206 2778 
L 3206 4581 
L 4131 4581 
L 4131 0 
L 3206 0 
L 3206 2003 
L 1394 2003 
L 1394 0 
L 469 0 
z
" transform="scale(0.015625)"/>
      <path id="Arial-BoldMT-46" d="M 472 0 
L 472 4581 
L 3613 4581 
L 3613 3806 
L 1397 3806 
L 1397 2722 
L 3309 2722 
L 3309 1947 
L 1397 1947 
L 1397 0 
L 472 0 
z
" transform="scale(0.015625)"/>
      <path id="Arial-BoldMT-2d" d="M 359 1222 
L 359 2100 
L 2084 2100 
L 2084 1222 
L 359 1222 
z
" transform="scale(0.015625)"/>
      <path id="Arial-BoldMT-52" d="M 469 0 
L 469 4581 
L 2416 4581 
Q 3150 4581 3483 4457 
Q 3816 4334 4016 4018 
Q 4216 3703 4216 3297 
Q 4216 2781 3912 2445 
Q 3609 2109 3006 2022 
Q 3306 1847 3501 1637 
Q 3697 1428 4028 894 
L 4588 0 
L 3481 0 
L 2813 997 
Q 2456 1531 2325 1670 
Q 2194 1809 2047 1861 
Q 1900 1913 1581 1913 
L 1394 1913 
L 1394 0 
L 469 0 
z
M 1394 2644 
L 2078 2644 
Q 2744 2644 2909 2700 
Q 3075 2756 3169 2893 
Q 3263 3031 3263 3238 
Q 3263 3469 3139 3611 
Q 3016 3753 2791 3791 
Q 2678 3806 2116 3806 
L 1394 3806 
L 1394 2644 
z
" transform="scale(0.015625)"/>
      <path id="Arial-BoldMT-56" d="M 1634 0 
L -3 4581 
L 1000 4581 
L 2159 1191 
L 3281 4581 
L 4263 4581 
L 2622 0 
L 1634 0 
z
" transform="scale(0.015625)"/>
     </defs>
     <use xlink:href="#Arial-BoldMT-48"/>
     <use xlink:href="#Arial-BoldMT-46" x="72.216797"/>
     <use xlink:href="#Arial-BoldMT-2d" x="133.300781"/>
     <use xlink:href="#Arial-BoldMT-48" x="166.601562"/>
     <use xlink:href="#Arial-BoldMT-52" x="238.818359"/>
     <use xlink:href="#Arial-BoldMT-56" x="309.285156"/>
    </g>
   </g>
  </g>
 </g>
 <defs>
  <clipPath id="p3643e024f5">
   <rect x="90" y="129.6" width="558" height="378"/>
  </clipPath>
  <clipPath id="pc9b8f671da">
   <rect x="90" y="583.2" width="558" height="378"/>
  </clipPath>
 </defs>
</svg>
