<?xml version="1.0" encoding="utf-8" standalone="no"?>
<!DOCTYPE svg PUBLIC "-//W3C//DTD SVG 1.1//EN"
  "http://www.w3.org/Graphics/SVG/1.1/DTD/svg11.dtd">
<svg xmlns:xlink="http://www.w3.org/1999/xlink" width="720pt" height="1080pt" viewBox="0 0 720 1080" xmlns="http://www.w3.org/2000/svg" version="1.1">
 <metadata>
  <rdf:RDF xmlns:dc="http://purl.org/dc/elements/1.1/" xmlns:cc="http://creativecommons.org/ns#" xmlns:rdf="http://www.w3.org/1999/02/22-rdf-syntax-ns#">
   <cc:Work>
    <dc:type rdf:resource="http://purl.org/dc/dcmitype/StillImage"/>
    <dc:date>2024-08-30T14:44:35.002678</dc:date>
    <dc:format>image/svg+xml</dc:format>
    <dc:creator>
     <cc:Agent>
      <dc:title>Matplotlib v3.8.0, https://matplotlib.org/</dc:title>
     </cc:Agent>
    </dc:creator>
   </cc:Work>
  </rdf:RDF>
 </metadata>
 <defs>
  <style type="text/css">*{stroke-linejoin: round; stroke-linecap: butt}</style>
 </defs>
 <g id="figure_1">
  <g id="patch_1">
   <path d="M 0 1080 
L 720 1080 
L 720 0 
L 0 0 
z
" style="fill: #ffffff"/>
  </g>
  <g id="axes_1">
   <g id="patch_2">
    <path d="M 90 507.6 
L 648 507.6 
L 648 129.6 
L 90 129.6 
z
" style="fill: #ffffff"/>
   </g>
   <g id="matplotlib.axis_1">
    <g id="xtick_1">
     <g id="line2d_1">
      <defs>
       <path id="m6f8db2847b" d="M 0 0 
L 0 6 
" style="stroke: #262626; stroke-width: 1.25"/>
      </defs>
      <g>
       <use xlink:href="#m6f8db2847b" x="159.75" y="507.6" style="fill: #262626; stroke: #262626; stroke-width: 1.25"/>
      </g>
     </g>
     <g id="text_1">
      <!-- State 1 -->
      <g style="fill: #262626" transform="translate(142.321875 524.973594) scale(0.11 -0.11)">
       <defs>
        <path id="ArialMT-53" d="M 288 1472 
L 859 1522 
Q 900 1178 1048 958 
Q 1197 738 1509 602 
Q 1822 466 2213 466 
Q 2559 466 2825 569 
Q 3091 672 3220 851 
Q 3350 1031 3350 1244 
Q 3350 1459 3225 1620 
Q 3100 1781 2813 1891 
Q 2628 1963 1997 2114 
Q 1366 2266 1113 2400 
Q 784 2572 623 2826 
Q 463 3081 463 3397 
Q 463 3744 659 4045 
Q 856 4347 1234 4503 
Q 1613 4659 2075 4659 
Q 2584 4659 2973 4495 
Q 3363 4331 3572 4012 
Q 3781 3694 3797 3291 
L 3216 3247 
Q 3169 3681 2898 3903 
Q 2628 4125 2100 4125 
Q 1550 4125 1298 3923 
Q 1047 3722 1047 3438 
Q 1047 3191 1225 3031 
Q 1400 2872 2139 2705 
Q 2878 2538 3153 2413 
Q 3553 2228 3743 1945 
Q 3934 1663 3934 1294 
Q 3934 928 3725 604 
Q 3516 281 3123 101 
Q 2731 -78 2241 -78 
Q 1619 -78 1198 103 
Q 778 284 539 648 
Q 300 1013 288 1472 
z
" transform="scale(0.015625)"/>
        <path id="ArialMT-74" d="M 1650 503 
L 1731 6 
Q 1494 -44 1306 -44 
Q 1000 -44 831 53 
Q 663 150 594 308 
Q 525 466 525 972 
L 525 2881 
L 113 2881 
L 113 3319 
L 525 3319 
L 525 4141 
L 1084 4478 
L 1084 3319 
L 1650 3319 
L 1650 2881 
L 1084 2881 
L 1084 941 
Q 1084 700 1114 631 
Q 1144 563 1211 522 
Q 1278 481 1403 481 
Q 1497 481 1650 503 
z
" transform="scale(0.015625)"/>
        <path id="ArialMT-61" d="M 2588 409 
Q 2275 144 1986 34 
Q 1697 -75 1366 -75 
Q 819 -75 525 192 
Q 231 459 231 875 
Q 231 1119 342 1320 
Q 453 1522 633 1644 
Q 813 1766 1038 1828 
Q 1203 1872 1538 1913 
Q 2219 1994 2541 2106 
Q 2544 2222 2544 2253 
Q 2544 2597 2384 2738 
Q 2169 2928 1744 2928 
Q 1347 2928 1158 2789 
Q 969 2650 878 2297 
L 328 2372 
Q 403 2725 575 2942 
Q 747 3159 1072 3276 
Q 1397 3394 1825 3394 
Q 2250 3394 2515 3294 
Q 2781 3194 2906 3042 
Q 3031 2891 3081 2659 
Q 3109 2516 3109 2141 
L 3109 1391 
Q 3109 606 3145 398 
Q 3181 191 3288 0 
L 2700 0 
Q 2613 175 2588 409 
z
M 2541 1666 
Q 2234 1541 1622 1453 
Q 1275 1403 1131 1340 
Q 988 1278 909 1158 
Q 831 1038 831 891 
Q 831 666 1001 516 
Q 1172 366 1500 366 
Q 1825 366 2078 508 
Q 2331 650 2450 897 
Q 2541 1088 2541 1459 
L 2541 1666 
z
" transform="scale(0.015625)"/>
        <path id="ArialMT-65" d="M 2694 1069 
L 3275 997 
Q 3138 488 2766 206 
Q 2394 -75 1816 -75 
Q 1088 -75 661 373 
Q 234 822 234 1631 
Q 234 2469 665 2931 
Q 1097 3394 1784 3394 
Q 2450 3394 2872 2941 
Q 3294 2488 3294 1666 
Q 3294 1616 3291 1516 
L 816 1516 
Q 847 969 1125 678 
Q 1403 388 1819 388 
Q 2128 388 2347 550 
Q 2566 713 2694 1069 
z
M 847 1978 
L 2700 1978 
Q 2663 2397 2488 2606 
Q 2219 2931 1791 2931 
Q 1403 2931 1139 2672 
Q 875 2413 847 1978 
z
" transform="scale(0.015625)"/>
        <path id="ArialMT-20" transform="scale(0.015625)"/>
        <path id="ArialMT-31" d="M 2384 0 
L 1822 0 
L 1822 3584 
Q 1619 3391 1289 3197 
Q 959 3003 697 2906 
L 697 3450 
Q 1169 3672 1522 3987 
Q 1875 4303 2022 4600 
L 2384 4600 
L 2384 0 
z
" transform="scale(0.015625)"/>
       </defs>
       <use xlink:href="#ArialMT-53"/>
       <use xlink:href="#ArialMT-74" x="66.699219"/>
       <use xlink:href="#ArialMT-61" x="94.482422"/>
       <use xlink:href="#ArialMT-74" x="150.097656"/>
       <use xlink:href="#ArialMT-65" x="177.880859"/>
       <use xlink:href="#ArialMT-20" x="233.496094"/>
       <use xlink:href="#ArialMT-31" x="261.279297"/>
      </g>
     </g>
    </g>
    <g id="xtick_2">
     <g id="line2d_2">
      <g>
       <use xlink:href="#m6f8db2847b" x="299.25" y="507.6" style="fill: #262626; stroke: #262626; stroke-width: 1.25"/>
      </g>
     </g>
     <g id="text_2">
      <!-- State 2 -->
      <g style="fill: #262626" transform="translate(281.821875 524.973594) scale(0.11 -0.11)">
       <defs>
        <path id="ArialMT-32" d="M 3222 541 
L 3222 0 
L 194 0 
Q 188 203 259 391 
Q 375 700 629 1000 
Q 884 1300 1366 1694 
Q 2113 2306 2375 2664 
Q 2638 3022 2638 3341 
Q 2638 3675 2398 3904 
Q 2159 4134 1775 4134 
Q 1369 4134 1125 3890 
Q 881 3647 878 3216 
L 300 3275 
Q 359 3922 746 4261 
Q 1134 4600 1788 4600 
Q 2447 4600 2831 4234 
Q 3216 3869 3216 3328 
Q 3216 3053 3103 2787 
Q 2991 2522 2730 2228 
Q 2469 1934 1863 1422 
Q 1356 997 1212 845 
Q 1069 694 975 541 
L 3222 541 
z
" transform="scale(0.015625)"/>
       </defs>
       <use xlink:href="#ArialMT-53"/>
       <use xlink:href="#ArialMT-74" x="66.699219"/>
       <use xlink:href="#ArialMT-61" x="94.482422"/>
       <use xlink:href="#ArialMT-74" x="150.097656"/>
       <use xlink:href="#ArialMT-65" x="177.880859"/>
       <use xlink:href="#ArialMT-20" x="233.496094"/>
       <use xlink:href="#ArialMT-32" x="261.279297"/>
      </g>
     </g>
    </g>
    <g id="xtick_3">
     <g id="line2d_3">
      <g>
       <use xlink:href="#m6f8db2847b" x="438.75" y="507.6" style="fill: #262626; stroke: #262626; stroke-width: 1.25"/>
      </g>
     </g>
     <g id="text_3">
      <!-- State 3 -->
      <g style="fill: #262626" transform="translate(421.321875 524.973594) scale(0.11 -0.11)">
       <defs>
        <path id="ArialMT-33" d="M 269 1209 
L 831 1284 
Q 928 806 1161 595 
Q 1394 384 1728 384 
Q 2125 384 2398 659 
Q 2672 934 2672 1341 
Q 2672 1728 2419 1979 
Q 2166 2231 1775 2231 
Q 1616 2231 1378 2169 
L 1441 2663 
Q 1497 2656 1531 2656 
Q 1891 2656 2178 2843 
Q 2466 3031 2466 3422 
Q 2466 3731 2256 3934 
Q 2047 4138 1716 4138 
Q 1388 4138 1169 3931 
Q 950 3725 888 3313 
L 325 3413 
Q 428 3978 793 4289 
Q 1159 4600 1703 4600 
Q 2078 4600 2393 4439 
Q 2709 4278 2876 4000 
Q 3044 3722 3044 3409 
Q 3044 3113 2884 2869 
Q 2725 2625 2413 2481 
Q 2819 2388 3044 2092 
Q 3269 1797 3269 1353 
Q 3269 753 2831 336 
Q 2394 -81 1725 -81 
Q 1122 -81 723 278 
Q 325 638 269 1209 
z
" transform="scale(0.015625)"/>
       </defs>
       <use xlink:href="#ArialMT-53"/>
       <use xlink:href="#ArialMT-74" x="66.699219"/>
       <use xlink:href="#ArialMT-61" x="94.482422"/>
       <use xlink:href="#ArialMT-74" x="150.097656"/>
       <use xlink:href="#ArialMT-65" x="177.880859"/>
       <use xlink:href="#ArialMT-20" x="233.496094"/>
       <use xlink:href="#ArialMT-33" x="261.279297"/>
      </g>
     </g>
    </g>
    <g id="xtick_4">
     <g id="line2d_4">
      <g>
       <use xlink:href="#m6f8db2847b" x="578.25" y="507.6" style="fill: #262626; stroke: #262626; stroke-width: 1.25"/>
      </g>
     </g>
     <g id="text_4">
      <!-- State 4 -->
      <g style="fill: #262626" transform="translate(560.821875 524.973594) scale(0.11 -0.11)">
       <defs>
        <path id="ArialMT-34" d="M 2069 0 
L 2069 1097 
L 81 1097 
L 81 1613 
L 2172 4581 
L 2631 4581 
L 2631 1613 
L 3250 1613 
L 3250 1097 
L 2631 1097 
L 2631 0 
L 2069 0 
z
M 2069 1613 
L 2069 3678 
L 634 1613 
L 2069 1613 
z
" transform="scale(0.015625)"/>
       </defs>
       <use xlink:href="#ArialMT-53"/>
       <use xlink:href="#ArialMT-74" x="66.699219"/>
       <use xlink:href="#ArialMT-61" x="94.482422"/>
       <use xlink:href="#ArialMT-74" x="150.097656"/>
       <use xlink:href="#ArialMT-65" x="177.880859"/>
       <use xlink:href="#ArialMT-20" x="233.496094"/>
       <use xlink:href="#ArialMT-34" x="261.279297"/>
      </g>
     </g>
    </g>
   </g>
   <g id="matplotlib.axis_2">
    <g id="ytick_1">
     <g id="line2d_5">
      <defs>
       <path id="m2a1e90dcf5" d="M 0 0 
L -6 0 
" style="stroke: #262626; stroke-width: 1.25"/>
      </defs>
      <g>
       <use xlink:href="#m2a1e90dcf5" x="90" y="469.8" style="fill: #262626; stroke: #262626; stroke-width: 1.25"/>
      </g>
     </g>
     <g id="text_5">
      <!-- −2 -->
      <g style="fill: #262626" transform="translate(67.958281 473.736797) scale(0.11 -0.11)">
       <defs>
        <path id="ArialMT-2212" d="M 3381 1997 
L 356 1997 
L 356 2522 
L 3381 2522 
L 3381 1997 
z
" transform="scale(0.015625)"/>
       </defs>
       <use xlink:href="#ArialMT-2212"/>
       <use xlink:href="#ArialMT-32" x="58.398438"/>
      </g>
     </g>
    </g>
    <g id="ytick_2">
     <g id="line2d_6">
      <g>
       <use xlink:href="#m2a1e90dcf5" x="90" y="394.2" style="fill: #262626; stroke: #262626; stroke-width: 1.25"/>
      </g>
     </g>
     <g id="text_6">
      <!-- −1 -->
      <g style="fill: #262626" transform="translate(67.958281 398.136797) scale(0.11 -0.11)">
       <use xlink:href="#ArialMT-2212"/>
       <use xlink:href="#ArialMT-31" x="58.398438"/>
      </g>
     </g>
    </g>
    <g id="ytick_3">
     <g id="line2d_7">
      <g>
       <use xlink:href="#m2a1e90dcf5" x="90" y="318.6" style="fill: #262626; stroke: #262626; stroke-width: 1.25"/>
      </g>
     </g>
     <g id="text_7">
      <!-- 0 -->
      <g style="fill: #262626" transform="translate(74.382969 322.536797) scale(0.11 -0.11)">
       <defs>
        <path id="ArialMT-30" d="M 266 2259 
Q 266 3072 433 3567 
Q 600 4063 929 4331 
Q 1259 4600 1759 4600 
Q 2128 4600 2406 4451 
Q 2684 4303 2865 4023 
Q 3047 3744 3150 3342 
Q 3253 2941 3253 2259 
Q 3253 1453 3087 958 
Q 2922 463 2592 192 
Q 2263 -78 1759 -78 
Q 1097 -78 719 397 
Q 266 969 266 2259 
z
M 844 2259 
Q 844 1131 1108 757 
Q 1372 384 1759 384 
Q 2147 384 2411 759 
Q 2675 1134 2675 2259 
Q 2675 3391 2411 3762 
Q 2147 4134 1753 4134 
Q 1366 4134 1134 3806 
Q 844 3388 844 2259 
z
" transform="scale(0.015625)"/>
       </defs>
       <use xlink:href="#ArialMT-30"/>
      </g>
     </g>
    </g>
    <g id="ytick_4">
     <g id="line2d_8">
      <g>
       <use xlink:href="#m2a1e90dcf5" x="90" y="243" style="fill: #262626; stroke: #262626; stroke-width: 1.25"/>
      </g>
     </g>
     <g id="text_8">
      <!-- 1 -->
      <g style="fill: #262626" transform="translate(74.382969 246.936797) scale(0.11 -0.11)">
       <use xlink:href="#ArialMT-31"/>
      </g>
     </g>
    </g>
    <g id="ytick_5">
     <g id="line2d_9">
      <g>
       <use xlink:href="#m2a1e90dcf5" x="90" y="167.4" style="fill: #262626; stroke: #262626; stroke-width: 1.25"/>
      </g>
     </g>
     <g id="text_9">
      <!-- 2 -->
      <g style="fill: #262626" transform="translate(74.382969 171.336797) scale(0.11 -0.11)">
       <use xlink:href="#ArialMT-32"/>
      </g>
     </g>
    </g>
    <g id="text_10">
     <!-- Value (z-scored) -->
     <g style="fill: #262626" transform="translate(61.432656 362.170313) rotate(-90) scale(0.12 -0.12)">
      <defs>
       <path id="ArialMT-56" d="M 1803 0 
L 28 4581 
L 684 4581 
L 1875 1253 
Q 2019 853 2116 503 
Q 2222 878 2363 1253 
L 3600 4581 
L 4219 4581 
L 2425 0 
L 1803 0 
z
" transform="scale(0.015625)"/>
       <path id="ArialMT-6c" d="M 409 0 
L 409 4581 
L 972 4581 
L 972 0 
L 409 0 
z
" transform="scale(0.015625)"/>
       <path id="ArialMT-75" d="M 2597 0 
L 2597 488 
Q 2209 -75 1544 -75 
Q 1250 -75 995 37 
Q 741 150 617 320 
Q 494 491 444 738 
Q 409 903 409 1263 
L 409 3319 
L 972 3319 
L 972 1478 
Q 972 1038 1006 884 
Q 1059 663 1231 536 
Q 1403 409 1656 409 
Q 1909 409 2131 539 
Q 2353 669 2445 892 
Q 2538 1116 2538 1541 
L 2538 3319 
L 3100 3319 
L 3100 0 
L 2597 0 
z
" transform="scale(0.015625)"/>
       <path id="ArialMT-28" d="M 1497 -1347 
Q 1031 -759 709 28 
Q 388 816 388 1659 
Q 388 2403 628 3084 
Q 909 3875 1497 4659 
L 1900 4659 
Q 1522 4009 1400 3731 
Q 1209 3300 1100 2831 
Q 966 2247 966 1656 
Q 966 153 1900 -1347 
L 1497 -1347 
z
" transform="scale(0.015625)"/>
       <path id="ArialMT-7a" d="M 125 0 
L 125 456 
L 2238 2881 
Q 1878 2863 1603 2863 
L 250 2863 
L 250 3319 
L 2963 3319 
L 2963 2947 
L 1166 841 
L 819 456 
Q 1197 484 1528 484 
L 3063 484 
L 3063 0 
L 125 0 
z
" transform="scale(0.015625)"/>
       <path id="ArialMT-2d" d="M 203 1375 
L 203 1941 
L 1931 1941 
L 1931 1375 
L 203 1375 
z
" transform="scale(0.015625)"/>
       <path id="ArialMT-73" d="M 197 991 
L 753 1078 
Q 800 744 1014 566 
Q 1228 388 1613 388 
Q 2000 388 2187 545 
Q 2375 703 2375 916 
Q 2375 1106 2209 1216 
Q 2094 1291 1634 1406 
Q 1016 1563 777 1677 
Q 538 1791 414 1992 
Q 291 2194 291 2438 
Q 291 2659 392 2848 
Q 494 3038 669 3163 
Q 800 3259 1026 3326 
Q 1253 3394 1513 3394 
Q 1903 3394 2198 3281 
Q 2494 3169 2634 2976 
Q 2775 2784 2828 2463 
L 2278 2388 
Q 2241 2644 2061 2787 
Q 1881 2931 1553 2931 
Q 1166 2931 1000 2803 
Q 834 2675 834 2503 
Q 834 2394 903 2306 
Q 972 2216 1119 2156 
Q 1203 2125 1616 2013 
Q 2213 1853 2448 1751 
Q 2684 1650 2818 1456 
Q 2953 1263 2953 975 
Q 2953 694 2789 445 
Q 2625 197 2315 61 
Q 2006 -75 1616 -75 
Q 969 -75 630 194 
Q 291 463 197 991 
z
" transform="scale(0.015625)"/>
       <path id="ArialMT-63" d="M 2588 1216 
L 3141 1144 
Q 3050 572 2676 248 
Q 2303 -75 1759 -75 
Q 1078 -75 664 370 
Q 250 816 250 1647 
Q 250 2184 428 2587 
Q 606 2991 970 3192 
Q 1334 3394 1763 3394 
Q 2303 3394 2647 3120 
Q 2991 2847 3088 2344 
L 2541 2259 
Q 2463 2594 2264 2762 
Q 2066 2931 1784 2931 
Q 1359 2931 1093 2626 
Q 828 2322 828 1663 
Q 828 994 1084 691 
Q 1341 388 1753 388 
Q 2084 388 2306 591 
Q 2528 794 2588 1216 
z
" transform="scale(0.015625)"/>
       <path id="ArialMT-6f" d="M 213 1659 
Q 213 2581 725 3025 
Q 1153 3394 1769 3394 
Q 2453 3394 2887 2945 
Q 3322 2497 3322 1706 
Q 3322 1066 3130 698 
Q 2938 331 2570 128 
Q 2203 -75 1769 -75 
Q 1072 -75 642 372 
Q 213 819 213 1659 
z
M 791 1659 
Q 791 1022 1069 705 
Q 1347 388 1769 388 
Q 2188 388 2466 706 
Q 2744 1025 2744 1678 
Q 2744 2294 2464 2611 
Q 2184 2928 1769 2928 
Q 1347 2928 1069 2612 
Q 791 2297 791 1659 
z
" transform="scale(0.015625)"/>
       <path id="ArialMT-72" d="M 416 0 
L 416 3319 
L 922 3319 
L 922 2816 
Q 1116 3169 1280 3281 
Q 1444 3394 1641 3394 
Q 1925 3394 2219 3213 
L 2025 2691 
Q 1819 2813 1613 2813 
Q 1428 2813 1281 2702 
Q 1134 2591 1072 2394 
Q 978 2094 978 1738 
L 978 0 
L 416 0 
z
" transform="scale(0.015625)"/>
       <path id="ArialMT-64" d="M 2575 0 
L 2575 419 
Q 2259 -75 1647 -75 
Q 1250 -75 917 144 
Q 584 363 401 755 
Q 219 1147 219 1656 
Q 219 2153 384 2558 
Q 550 2963 881 3178 
Q 1213 3394 1622 3394 
Q 1922 3394 2156 3267 
Q 2391 3141 2538 2938 
L 2538 4581 
L 3097 4581 
L 3097 0 
L 2575 0 
z
M 797 1656 
Q 797 1019 1065 703 
Q 1334 388 1700 388 
Q 2069 388 2326 689 
Q 2584 991 2584 1609 
Q 2584 2291 2321 2609 
Q 2059 2928 1675 2928 
Q 1300 2928 1048 2622 
Q 797 2316 797 1656 
z
" transform="scale(0.015625)"/>
       <path id="ArialMT-29" d="M 791 -1347 
L 388 -1347 
Q 1322 153 1322 1656 
Q 1322 2244 1188 2822 
Q 1081 3291 891 3722 
Q 769 4003 388 4659 
L 791 4659 
Q 1378 3875 1659 3084 
Q 1900 2403 1900 1659 
Q 1900 816 1576 28 
Q 1253 -759 791 -1347 
z
" transform="scale(0.015625)"/>
      </defs>
      <use xlink:href="#ArialMT-56"/>
      <use xlink:href="#ArialMT-61" x="59.324219"/>
      <use xlink:href="#ArialMT-6c" x="114.939453"/>
      <use xlink:href="#ArialMT-75" x="137.15625"/>
      <use xlink:href="#ArialMT-65" x="192.771484"/>
      <use xlink:href="#ArialMT-20" x="248.386719"/>
      <use xlink:href="#ArialMT-28" x="276.169922"/>
      <use xlink:href="#ArialMT-7a" x="309.470703"/>
      <use xlink:href="#ArialMT-2d" x="359.470703"/>
      <use xlink:href="#ArialMT-73" x="392.771484"/>
      <use xlink:href="#ArialMT-63" x="442.771484"/>
      <use xlink:href="#ArialMT-6f" x="492.771484"/>
      <use xlink:href="#ArialMT-72" x="548.386719"/>
      <use xlink:href="#ArialMT-65" x="581.6875"/>
      <use xlink:href="#ArialMT-64" x="637.302734"/>
      <use xlink:href="#ArialMT-29" x="692.917969"/>
     </g>
    </g>
   </g>
   <g id="PolyCollection_1">
    <defs>
     <path id="mf4d43cb28e" d="M 164.676026 -752.668381 
L 159.891256 -752.668381 
L 159.891256 -754.671876 
L 159.891256 -756.67537 
L 159.891256 -758.678865 
L 159.891256 -760.682359 
L 159.891256 -762.685854 
L 159.891256 -764.689348 
L 159.891256 -766.692843 
L 159.891256 -768.696338 
L 159.891256 -770.699832 
L 159.891256 -772.703327 
L 159.891256 -774.706821 
L 159.891256 -776.710316 
L 159.891256 -778.71381 
L 159.891256 -780.717305 
L 159.891256 -782.720799 
L 159.891256 -784.724294 
L 159.891256 -786.727788 
L 159.891256 -788.731283 
L 159.891256 -790.734777 
L 159.891256 -792.738272 
L 159.891256 -794.741767 
L 159.891256 -796.745261 
L 159.891256 -798.748756 
L 159.891256 -800.75225 
L 159.891256 -802.755745 
L 159.891256 -804.759239 
L 159.891256 -806.762734 
L 159.891256 -808.766228 
L 159.891256 -810.769723 
L 159.891256 -812.773217 
L 159.891256 -814.776712 
L 159.891256 -816.780207 
L 159.891256 -818.783701 
L 159.891256 -820.787196 
L 159.891256 -822.79069 
L 159.891256 -824.794185 
L 159.891256 -826.797679 
L 159.891256 -828.801174 
L 161.339662 -828.801174 
L 161.339662 -828.801174 
L 161.265118 -826.797679 
L 161.062352 -824.794185 
L 160.788164 -822.79069 
L 160.512986 -820.787196 
L 160.300152 -818.783701 
L 160.195153 -816.780207 
L 160.226108 -814.776712 
L 160.409555 -812.773217 
L 160.7551 -810.769723 
L 161.267075 -808.766228 
L 161.945904 -806.762734 
L 162.792002 -804.759239 
L 163.811635 -802.755745 
L 165.021695 -800.75225 
L 166.452097 -798.748756 
L 168.147741 -796.745261 
L 170.17127 -794.741767 
L 172.600967 -792.738272 
L 175.511251 -790.734777 
L 178.925798 -788.731283 
L 182.750094 -786.727788 
L 186.714044 -784.724294 
L 190.368911 -782.720799 
L 193.16892 -780.717305 
L 194.625 -778.71381 
L 194.469488 -776.710316 
L 192.75175 -774.706821 
L 189.815347 -772.703327 
L 186.170923 -770.699832 
L 182.332553 -768.696338 
L 178.693472 -766.692843 
L 175.479751 -764.689348 
L 172.770187 -762.685854 
L 170.543557 -760.682359 
L 168.72169 -758.678865 
L 167.200676 -756.67537 
L 165.877515 -754.671876 
L 164.676026 -752.668381 
z
" style="stroke: #d55e00; stroke-opacity: 0.3"/>
    </defs>
    <g clip-path="url(#p3a0f4e6450)">
     <use xlink:href="#mf4d43cb28e" x="0" y="1080" style="fill: #d55e00; fill-opacity: 0.3; stroke: #d55e00; stroke-opacity: 0.3"/>
    </g>
   </g>
   <g id="PolyCollection_2">
    <defs>
     <path id="m0d36a78a68" d="M 305.623773 -655.958923 
L 299.427576 -655.958923 
L 299.427576 -659.980069 
L 299.427576 -664.001216 
L 299.427576 -668.022363 
L 299.427576 -672.043509 
L 299.427576 -676.064656 
L 299.427576 -680.085803 
L 299.427576 -684.106949 
L 299.427576 -688.128096 
L 299.427576 -692.149243 
L 299.427576 -696.170389 
L 299.427576 -700.191536 
L 299.427576 -704.212683 
L 299.427576 -708.233829 
L 299.427576 -712.254976 
L 299.427576 -716.276123 
L 299.427576 -720.297269 
L 299.427576 -724.318416 
L 299.427576 -728.339563 
L 299.427576 -732.360709 
L 299.427576 -736.381856 
L 299.427576 -740.403003 
L 299.427576 -744.424149 
L 299.427576 -748.445296 
L 299.427576 -752.466443 
L 299.427576 -756.487589 
L 299.427576 -760.508736 
L 299.427576 -764.529883 
L 299.427576 -768.551029 
L 299.427576 -772.572176 
L 299.427576 -776.593323 
L 299.427576 -780.61447 
L 299.427576 -784.635616 
L 299.427576 -788.656763 
L 299.427576 -792.67791 
L 299.427576 -796.699056 
L 299.427576 -800.720203 
L 299.427576 -804.74135 
L 299.427576 -808.762496 
L 300.886142 -808.762496 
L 300.886142 -808.762496 
L 300.851617 -804.74135 
L 300.728751 -800.720203 
L 300.573347 -796.699056 
L 300.451508 -792.67791 
L 300.418153 -788.656763 
L 300.501666 -784.635616 
L 300.701705 -780.61447 
L 301.001935 -776.593323 
L 301.393079 -772.572176 
L 301.896022 -768.551029 
L 302.572918 -764.529883 
L 303.519152 -760.508736 
L 304.839734 -756.487589 
L 306.623698 -752.466443 
L 308.930164 -748.445296 
L 311.786711 -744.424149 
L 315.183898 -740.403003 
L 319.046425 -736.381856 
L 323.181947 -732.360709 
L 327.24127 -728.339563 
L 330.739328 -724.318416 
L 333.161632 -720.297269 
L 334.125 -716.276123 
L 333.514848 -712.254976 
L 331.524048 -708.233829 
L 328.573118 -704.212683 
L 325.159285 -700.191536 
L 321.714468 -696.170389 
L 318.531232 -692.149243 
L 315.764083 -688.128096 
L 313.470923 -684.106949 
L 311.651273 -680.085803 
L 310.260002 -676.064656 
L 309.204725 -672.043509 
L 308.349693 -668.022363 
L 307.541679 -664.001216 
L 306.653405 -659.980069 
L 305.623773 -655.958923 
z
" style="stroke: #0072b2; stroke-opacity: 0.3"/>
    </defs>
    <g clip-path="url(#p3a0f4e6450)">
     <use xlink:href="#m0d36a78a68" x="0" y="1080" style="fill: #0072b2; fill-opacity: 0.3; stroke: #0072b2; stroke-opacity: 0.3"/>
    </g>
   </g>
   <g id="PolyCollection_3">
    <defs>
     <path id="mcdac868932" d="M 445.28795 -733.123239 
L 438.935538 -733.123239 
L 438.935538 -734.426262 
L 438.935538 -735.729284 
L 438.935538 -737.032307 
L 438.935538 -738.335329 
L 438.935538 -739.638352 
L 438.935538 -740.941374 
L 438.935538 -742.244397 
L 438.935538 -743.547419 
L 438.935538 -744.850442 
L 438.935538 -746.153464 
L 438.935538 -747.456487 
L 438.935538 -748.759509 
L 438.935538 -750.062532 
L 438.935538 -751.365555 
L 438.935538 -752.668577 
L 438.935538 -753.9716 
L 438.935538 -755.274622 
L 438.935538 -756.577645 
L 438.935538 -757.880667 
L 438.935538 -759.18369 
L 438.935538 -760.486712 
L 438.935538 -761.789735 
L 438.935538 -763.092757 
L 438.935538 -764.39578 
L 438.935538 -765.698803 
L 438.935538 -767.001825 
L 438.935538 -768.304848 
L 438.935538 -769.60787 
L 438.935538 -770.910893 
L 438.935538 -772.213915 
L 438.935538 -773.516938 
L 438.935538 -774.81996 
L 438.935538 -776.122983 
L 438.935538 -777.426005 
L 438.935538 -778.729028 
L 438.935538 -780.03205 
L 438.935538 -781.335073 
L 438.935538 -782.638096 
L 440.702667 -782.638096 
L 440.702667 -782.638096 
L 440.75127 -781.335073 
L 440.781935 -780.03205 
L 440.886127 -778.729028 
L 441.181403 -777.426005 
L 441.791728 -776.122983 
L 442.824763 -774.81996 
L 444.351238 -773.516938 
L 446.391212 -772.213915 
L 448.910621 -770.910893 
L 451.82869 -769.60787 
L 455.032768 -768.304848 
L 458.393692 -767.001825 
L 461.774432 -765.698803 
L 465.029045 -764.39578 
L 467.99639 -763.092757 
L 470.49907 -761.789735 
L 472.358045 -760.486712 
L 473.425324 -759.18369 
L 473.625 -757.880667 
L 472.983874 -756.577645 
L 471.633824 -755.274622 
L 469.780023 -753.9716 
L 467.64621 -752.668577 
L 465.420511 -751.365555 
L 463.225068 -750.062532 
L 461.119515 -748.759509 
L 459.129685 -747.456487 
L 457.279915 -746.153464 
L 455.607753 -744.850442 
L 454.153041 -743.547419 
L 452.930731 -742.244397 
L 451.907439 -740.941374 
L 450.999287 -739.638352 
L 450.095386 -738.335329 
L 449.096153 -737.032307 
L 447.947851 -735.729284 
L 446.658087 -734.426262 
L 445.28795 -733.123239 
z
" style="stroke: #009e73; stroke-opacity: 0.3"/>
    </defs>
    <g clip-path="url(#p3a0f4e6450)">
     <use xlink:href="#mcdac868932" x="0" y="1080" style="fill: #009e73; fill-opacity: 0.3; stroke: #009e73; stroke-opacity: 0.3"/>
    </g>
   </g>
   <g id="PolyCollection_4">
    <defs>
     <path id="mdaf70f5420" d="M 580.059147 -728.038751 
L 578.380124 -728.038751 
L 578.380124 -731.03427 
L 578.380124 -734.02979 
L 578.380124 -737.02531 
L 578.380124 -740.020829 
L 578.380124 -743.016349 
L 578.380124 -746.011869 
L 578.380124 -749.007388 
L 578.380124 -752.002908 
L 578.380124 -754.998428 
L 578.380124 -757.993947 
L 578.380124 -760.989467 
L 578.380124 -763.984986 
L 578.380124 -766.980506 
L 578.380124 -769.976026 
L 578.380124 -772.971545 
L 578.380124 -775.967065 
L 578.380124 -778.962585 
L 578.380124 -781.958104 
L 578.380124 -784.953624 
L 578.380124 -787.949144 
L 578.380124 -790.944663 
L 578.380124 -793.940183 
L 578.380124 -796.935703 
L 578.380124 -799.931222 
L 578.380124 -802.926742 
L 578.380124 -805.922262 
L 578.380124 -808.917781 
L 578.380124 -811.913301 
L 578.380124 -814.908821 
L 578.380124 -817.90434 
L 578.380124 -820.89986 
L 578.380124 -823.895379 
L 578.380124 -826.890899 
L 578.380124 -829.886419 
L 578.380124 -832.881938 
L 578.380124 -835.877458 
L 578.380124 -838.872978 
L 578.380124 -841.868497 
L 585.171728 -841.868497 
L 585.171728 -841.868497 
L 587.433606 -838.872978 
L 590.106669 -835.877458 
L 593.137196 -832.881938 
L 596.412752 -829.886419 
L 599.77317 -826.890899 
L 603.038888 -823.895379 
L 606.044197 -820.89986 
L 608.657435 -817.90434 
L 610.776424 -814.908821 
L 612.303939 -811.913301 
L 613.125 -808.917781 
L 613.112437 -805.922262 
L 612.172598 -802.926742 
L 610.315016 -799.931222 
L 607.705995 -796.935703 
L 604.665021 -793.940183 
L 601.590047 -790.944663 
L 598.838438 -787.949144 
L 596.618429 -784.953624 
L 594.942073 -781.958104 
L 593.657256 -778.962585 
L 592.535425 -775.967065 
L 591.368653 -772.971545 
L 590.034964 -769.976026 
L 588.515643 -766.980506 
L 586.873817 -763.984986 
L 585.216042 -760.989467 
L 583.656219 -757.993947 
L 582.29124 -754.998428 
L 581.188745 -752.002908 
L 580.383147 -749.007388 
L 579.875912 -746.011869 
L 579.637824 -743.016349 
L 579.612851 -740.020829 
L 579.724655 -737.02531 
L 579.887121 -734.02979 
L 580.018893 -731.03427 
L 580.059147 -728.038751 
z
" style="stroke: #cc79a7; stroke-opacity: 0.3"/>
    </defs>
    <g clip-path="url(#p3a0f4e6450)">
     <use xlink:href="#mdaf70f5420" x="0" y="1080" style="fill: #cc79a7; fill-opacity: 0.3; stroke: #cc79a7; stroke-opacity: 0.3"/>
    </g>
   </g>
   <g id="PathCollection_1">
    <defs>
     <path id="m71e129a6b7" d="M 0 0.866025 
C 0.229673 0.866025 0.449969 0.774776 0.612372 0.612372 
C 0.774776 0.449969 0.866025 0.229673 0.866025 0 
C 0.866025 -0.229673 0.774776 -0.449969 0.612372 -0.612372 
C 0.449969 -0.774776 0.229673 -0.866025 0 -0.866025 
C -0.229673 -0.866025 -0.449969 -0.774776 -0.612372 -0.612372 
C -0.774776 -0.449969 -0.866025 -0.229673 -0.866025 0 
C -0.866025 0.229673 -0.774776 0.449969 -0.612372 0.612372 
C -0.449969 0.774776 -0.229673 0.866025 0 0.866025 
z
" style="stroke: #d55e00"/>
    </defs>
    <g clip-path="url(#p3a0f4e6450)">
     <use xlink:href="#m71e129a6b7" x="135.617225" y="302.150608" style="fill: #d55e00; stroke: #d55e00"/>
     <use xlink:href="#m71e129a6b7" x="132.609904" y="303.1437" style="fill: #d55e00; stroke: #d55e00"/>
     <use xlink:href="#m71e129a6b7" x="126.660504" y="314.79297" style="fill: #d55e00; stroke: #d55e00"/>
     <use xlink:href="#m71e129a6b7" x="132.043526" y="299.005886" style="fill: #d55e00; stroke: #d55e00"/>
     <use xlink:href="#m71e129a6b7" x="135.575598" y="302.651917" style="fill: #d55e00; stroke: #d55e00"/>
     <use xlink:href="#m71e129a6b7" x="128.504892" y="300.003418" style="fill: #d55e00; stroke: #d55e00"/>
     <use xlink:href="#m71e129a6b7" x="125.227763" y="302.56968" style="fill: #d55e00; stroke: #d55e00"/>
     <use xlink:href="#m71e129a6b7" x="134.855407" y="293.904867" style="fill: #d55e00; stroke: #d55e00"/>
     <use xlink:href="#m71e129a6b7" x="126.931583" y="295.029321" style="fill: #d55e00; stroke: #d55e00"/>
     <use xlink:href="#m71e129a6b7" x="133.170214" y="306.919226" style="fill: #d55e00; stroke: #d55e00"/>
     <use xlink:href="#m71e129a6b7" x="134.622464" y="251.198826" style="fill: #d55e00; stroke: #d55e00"/>
     <use xlink:href="#m71e129a6b7" x="134.480711" y="305.141441" style="fill: #d55e00; stroke: #d55e00"/>
     <use xlink:href="#m71e129a6b7" x="138.709429" y="277.015787" style="fill: #d55e00; stroke: #d55e00"/>
     <use xlink:href="#m71e129a6b7" x="136.490382" y="320.310227" style="fill: #d55e00; stroke: #d55e00"/>
     <use xlink:href="#m71e129a6b7" x="130.107566" y="299.83232" style="fill: #d55e00; stroke: #d55e00"/>
     <use xlink:href="#m71e129a6b7" x="128.566432" y="308.449862" style="fill: #d55e00; stroke: #d55e00"/>
     <use xlink:href="#m71e129a6b7" x="134.525032" y="306.37294" style="fill: #d55e00; stroke: #d55e00"/>
     <use xlink:href="#m71e129a6b7" x="138.604802" y="299.742004" style="fill: #d55e00; stroke: #d55e00"/>
     <use xlink:href="#m71e129a6b7" x="128.635325" y="300.074973" style="fill: #d55e00; stroke: #d55e00"/>
     <use xlink:href="#m71e129a6b7" x="135.990332" y="324.464165" style="fill: #d55e00; stroke: #d55e00"/>
     <use xlink:href="#m71e129a6b7" x="128.862915" y="284.670608" style="fill: #d55e00; stroke: #d55e00"/>
     <use xlink:href="#m71e129a6b7" x="130.281039" y="311.356734" style="fill: #d55e00; stroke: #d55e00"/>
     <use xlink:href="#m71e129a6b7" x="135.658353" y="289.088089" style="fill: #d55e00; stroke: #d55e00"/>
     <use xlink:href="#m71e129a6b7" x="128.838292" y="312.783803" style="fill: #d55e00; stroke: #d55e00"/>
     <use xlink:href="#m71e129a6b7" x="132.701961" y="284.354643" style="fill: #d55e00; stroke: #d55e00"/>
     <use xlink:href="#m71e129a6b7" x="131.004349" y="289.577592" style="fill: #d55e00; stroke: #d55e00"/>
     <use xlink:href="#m71e129a6b7" x="133.821899" y="307.064458" style="fill: #d55e00; stroke: #d55e00"/>
     <use xlink:href="#m71e129a6b7" x="136.71342" y="292.760564" style="fill: #d55e00; stroke: #d55e00"/>
     <use xlink:href="#m71e129a6b7" x="129.202342" y="299.273043" style="fill: #d55e00; stroke: #d55e00"/>
     <use xlink:href="#m71e129a6b7" x="136.738749" y="327.331619" style="fill: #d55e00; stroke: #d55e00"/>
     <use xlink:href="#m71e129a6b7" x="132.256201" y="305.420619" style="fill: #d55e00; stroke: #d55e00"/>
     <use xlink:href="#m71e129a6b7" x="134.072545" y="299.856469" style="fill: #d55e00; stroke: #d55e00"/>
     <use xlink:href="#m71e129a6b7" x="132.434412" y="298.216705" style="fill: #d55e00; stroke: #d55e00"/>
     <use xlink:href="#m71e129a6b7" x="135.713338" y="313.222623" style="fill: #d55e00; stroke: #d55e00"/>
     <use xlink:href="#m71e129a6b7" x="126.463154" y="301.550381" style="fill: #d55e00; stroke: #d55e00"/>
     <use xlink:href="#m71e129a6b7" x="130.666554" y="305.398401" style="fill: #d55e00; stroke: #d55e00"/>
     <use xlink:href="#m71e129a6b7" x="129.67162" y="316.560614" style="fill: #d55e00; stroke: #d55e00"/>
     <use xlink:href="#m71e129a6b7" x="133.390516" y="303.318371" style="fill: #d55e00; stroke: #d55e00"/>
     <use xlink:href="#m71e129a6b7" x="136.767767" y="294.041558" style="fill: #d55e00; stroke: #d55e00"/>
    </g>
   </g>
   <g id="PathCollection_2">
    <defs>
     <path id="m5e8bd71f07" d="M 0 0.866025 
C 0.229673 0.866025 0.449969 0.774776 0.612372 0.612372 
C 0.774776 0.449969 0.866025 0.229673 0.866025 0 
C 0.866025 -0.229673 0.774776 -0.449969 0.612372 -0.612372 
C 0.449969 -0.774776 0.229673 -0.866025 0 -0.866025 
C -0.229673 -0.866025 -0.449969 -0.774776 -0.612372 -0.612372 
C -0.774776 -0.449969 -0.866025 -0.229673 -0.866025 0 
C -0.866025 0.229673 -0.774776 0.449969 -0.612372 0.612372 
C -0.449969 0.774776 -0.229673 0.866025 0 0.866025 
z
" style="stroke: #0072b2"/>
    </defs>
    <g clip-path="url(#p3a0f4e6450)">
     <use xlink:href="#m5e8bd71f07" x="269.865678" y="360.335198" style="fill: #0072b2; stroke: #0072b2"/>
     <use xlink:href="#m5e8bd71f07" x="270.565225" y="339.483907" style="fill: #0072b2; stroke: #0072b2"/>
     <use xlink:href="#m5e8bd71f07" x="275.176485" y="363.372954" style="fill: #0072b2; stroke: #0072b2"/>
     <use xlink:href="#m5e8bd71f07" x="265.487201" y="311.16233" style="fill: #0072b2; stroke: #0072b2"/>
     <use xlink:href="#m5e8bd71f07" x="265.908773" y="371.150301" style="fill: #0072b2; stroke: #0072b2"/>
     <use xlink:href="#m5e8bd71f07" x="276.01424" y="381.210197" style="fill: #0072b2; stroke: #0072b2"/>
     <use xlink:href="#m5e8bd71f07" x="265.84669" y="391.163599" style="fill: #0072b2; stroke: #0072b2"/>
     <use xlink:href="#m5e8bd71f07" x="271.925173" y="382.534574" style="fill: #0072b2; stroke: #0072b2"/>
     <use xlink:href="#m5e8bd71f07" x="270.267707" y="387.980387" style="fill: #0072b2; stroke: #0072b2"/>
     <use xlink:href="#m5e8bd71f07" x="266.917961" y="362.598982" style="fill: #0072b2; stroke: #0072b2"/>
     <use xlink:href="#m5e8bd71f07" x="271.237641" y="362.141761" style="fill: #0072b2; stroke: #0072b2"/>
     <use xlink:href="#m5e8bd71f07" x="266.767923" y="399.251556" style="fill: #0072b2; stroke: #0072b2"/>
     <use xlink:href="#m5e8bd71f07" x="274.23242" y="362.09381" style="fill: #0072b2; stroke: #0072b2"/>
     <use xlink:href="#m5e8bd71f07" x="277.219249" y="375.208677" style="fill: #0072b2; stroke: #0072b2"/>
     <use xlink:href="#m5e8bd71f07" x="270.186947" y="364.371153" style="fill: #0072b2; stroke: #0072b2"/>
     <use xlink:href="#m5e8bd71f07" x="270.409101" y="364.454762" style="fill: #0072b2; stroke: #0072b2"/>
     <use xlink:href="#m5e8bd71f07" x="274.456513" y="361.003941" style="fill: #0072b2; stroke: #0072b2"/>
     <use xlink:href="#m5e8bd71f07" x="273.336423" y="419.684776" style="fill: #0072b2; stroke: #0072b2"/>
     <use xlink:href="#m5e8bd71f07" x="276.971046" y="342.168177" style="fill: #0072b2; stroke: #0072b2"/>
     <use xlink:href="#m5e8bd71f07" x="267.017748" y="412.731042" style="fill: #0072b2; stroke: #0072b2"/>
     <use xlink:href="#m5e8bd71f07" x="273.319115" y="345.733294" style="fill: #0072b2; stroke: #0072b2"/>
     <use xlink:href="#m5e8bd71f07" x="277.30981" y="384.637428" style="fill: #0072b2; stroke: #0072b2"/>
     <use xlink:href="#m5e8bd71f07" x="275.351975" y="336.21109" style="fill: #0072b2; stroke: #0072b2"/>
     <use xlink:href="#m5e8bd71f07" x="265.418949" y="424.041077" style="fill: #0072b2; stroke: #0072b2"/>
     <use xlink:href="#m5e8bd71f07" x="267.509432" y="371.301116" style="fill: #0072b2; stroke: #0072b2"/>
     <use xlink:href="#m5e8bd71f07" x="271.543195" y="358.572557" style="fill: #0072b2; stroke: #0072b2"/>
     <use xlink:href="#m5e8bd71f07" x="269.754981" y="395.041283" style="fill: #0072b2; stroke: #0072b2"/>
     <use xlink:href="#m5e8bd71f07" x="273.658392" y="359.450009" style="fill: #0072b2; stroke: #0072b2"/>
     <use xlink:href="#m5e8bd71f07" x="266.300619" y="271.237504" style="fill: #0072b2; stroke: #0072b2"/>
     <use xlink:href="#m5e8bd71f07" x="272.861505" y="339.616296" style="fill: #0072b2; stroke: #0072b2"/>
     <use xlink:href="#m5e8bd71f07" x="264.910785" y="362.082377" style="fill: #0072b2; stroke: #0072b2"/>
     <use xlink:href="#m5e8bd71f07" x="269.266013" y="375.989221" style="fill: #0072b2; stroke: #0072b2"/>
     <use xlink:href="#m5e8bd71f07" x="271.423728" y="355.887935" style="fill: #0072b2; stroke: #0072b2"/>
     <use xlink:href="#m5e8bd71f07" x="275.978829" y="357.792466" style="fill: #0072b2; stroke: #0072b2"/>
     <use xlink:href="#m5e8bd71f07" x="265.403324" y="364.867994" style="fill: #0072b2; stroke: #0072b2"/>
     <use xlink:href="#m5e8bd71f07" x="276.605311" y="364.693006" style="fill: #0072b2; stroke: #0072b2"/>
     <use xlink:href="#m5e8bd71f07" x="270.687795" y="362.519469" style="fill: #0072b2; stroke: #0072b2"/>
     <use xlink:href="#m5e8bd71f07" x="272.013688" y="415.555803" style="fill: #0072b2; stroke: #0072b2"/>
    </g>
   </g>
   <g id="PathCollection_3">
    <defs>
     <path id="me6625bb04e" d="M 0 0.866025 
C 0.229673 0.866025 0.449969 0.774776 0.612372 0.612372 
C 0.774776 0.449969 0.866025 0.229673 0.866025 0 
C 0.866025 -0.229673 0.774776 -0.449969 0.612372 -0.612372 
C 0.449969 -0.774776 0.229673 -0.866025 0 -0.866025 
C -0.229673 -0.866025 -0.449969 -0.774776 -0.612372 -0.612372 
C -0.774776 -0.449969 -0.866025 -0.229673 -0.866025 0 
C -0.866025 0.229673 -0.774776 0.449969 -0.612372 0.612372 
C -0.449969 0.774776 -0.229673 0.866025 0 0.866025 
z
" style="stroke: #009e73"/>
    </defs>
    <g clip-path="url(#p3a0f4e6450)">
     <use xlink:href="#me6625bb04e" x="405.915703" y="342.104598" style="fill: #009e73; stroke: #009e73"/>
     <use xlink:href="#me6625bb04e" x="417.361913" y="325.009391" style="fill: #009e73; stroke: #009e73"/>
     <use xlink:href="#me6625bb04e" x="409.995281" y="323.036125" style="fill: #009e73; stroke: #009e73"/>
     <use xlink:href="#me6625bb04e" x="413.379806" y="341.275646" style="fill: #009e73; stroke: #009e73"/>
     <use xlink:href="#me6625bb04e" x="409.77597" y="316.622751" style="fill: #009e73; stroke: #009e73"/>
     <use xlink:href="#me6625bb04e" x="411.268137" y="318.408687" style="fill: #009e73; stroke: #009e73"/>
     <use xlink:href="#me6625bb04e" x="411.179027" y="322.919261" style="fill: #009e73; stroke: #009e73"/>
     <use xlink:href="#me6625bb04e" x="410.284479" y="346.876761" style="fill: #009e73; stroke: #009e73"/>
     <use xlink:href="#me6625bb04e" x="414.37219" y="331.296826" style="fill: #009e73; stroke: #009e73"/>
     <use xlink:href="#me6625bb04e" x="410.667398" y="325.517426" style="fill: #009e73; stroke: #009e73"/>
     <use xlink:href="#me6625bb04e" x="410.750815" y="331.589272" style="fill: #009e73; stroke: #009e73"/>
     <use xlink:href="#me6625bb04e" x="404.686903" y="332.755402" style="fill: #009e73; stroke: #009e73"/>
     <use xlink:href="#me6625bb04e" x="411.310977" y="326.11927" style="fill: #009e73; stroke: #009e73"/>
     <use xlink:href="#me6625bb04e" x="406.961468" y="321.039432" style="fill: #009e73; stroke: #009e73"/>
     <use xlink:href="#me6625bb04e" x="408.063171" y="318.809867" style="fill: #009e73; stroke: #009e73"/>
     <use xlink:href="#me6625bb04e" x="410.428667" y="324.439653" style="fill: #009e73; stroke: #009e73"/>
     <use xlink:href="#me6625bb04e" x="408.133224" y="315.320823" style="fill: #009e73; stroke: #009e73"/>
     <use xlink:href="#me6625bb04e" x="405.508942" y="322.968003" style="fill: #009e73; stroke: #009e73"/>
     <use xlink:href="#me6625bb04e" x="408.865316" y="310.947368" style="fill: #009e73; stroke: #009e73"/>
     <use xlink:href="#me6625bb04e" x="414.695105" y="321.611204" style="fill: #009e73; stroke: #009e73"/>
     <use xlink:href="#me6625bb04e" x="410.168275" y="331.559114" style="fill: #009e73; stroke: #009e73"/>
     <use xlink:href="#me6625bb04e" x="414.426193" y="311.180061" style="fill: #009e73; stroke: #009e73"/>
     <use xlink:href="#me6625bb04e" x="408.553143" y="336.0937" style="fill: #009e73; stroke: #009e73"/>
     <use xlink:href="#me6625bb04e" x="405.006371" y="320.307797" style="fill: #009e73; stroke: #009e73"/>
     <use xlink:href="#me6625bb04e" x="412.54714" y="314.802988" style="fill: #009e73; stroke: #009e73"/>
     <use xlink:href="#me6625bb04e" x="409.004247" y="340.912131" style="fill: #009e73; stroke: #009e73"/>
     <use xlink:href="#me6625bb04e" x="405.845376" y="328.143801" style="fill: #009e73; stroke: #009e73"/>
     <use xlink:href="#me6625bb04e" x="406.799951" y="331.332822" style="fill: #009e73; stroke: #009e73"/>
     <use xlink:href="#me6625bb04e" x="413.267035" y="334.497068" style="fill: #009e73; stroke: #009e73"/>
     <use xlink:href="#me6625bb04e" x="415.866483" y="317.515203" style="fill: #009e73; stroke: #009e73"/>
     <use xlink:href="#me6625bb04e" x="416.861594" y="297.361904" style="fill: #009e73; stroke: #009e73"/>
     <use xlink:href="#me6625bb04e" x="404.09992" y="313.551797" style="fill: #009e73; stroke: #009e73"/>
     <use xlink:href="#me6625bb04e" x="409.393268" y="322.430008" style="fill: #009e73; stroke: #009e73"/>
     <use xlink:href="#me6625bb04e" x="417.580488" y="321.998008" style="fill: #009e73; stroke: #009e73"/>
     <use xlink:href="#me6625bb04e" x="404.825099" y="342.850392" style="fill: #009e73; stroke: #009e73"/>
     <use xlink:href="#me6625bb04e" x="416.307924" y="313.82186" style="fill: #009e73; stroke: #009e73"/>
     <use xlink:href="#me6625bb04e" x="414.037166" y="319.667428" style="fill: #009e73; stroke: #009e73"/>
     <use xlink:href="#me6625bb04e" x="415.932808" y="327.818161" style="fill: #009e73; stroke: #009e73"/>
     <use xlink:href="#me6625bb04e" x="416.963623" y="320.569439" style="fill: #009e73; stroke: #009e73"/>
    </g>
   </g>
   <g id="PathCollection_4">
    <defs>
     <path id="mc02586a5fb" d="M 0 0.866025 
C 0.229673 0.866025 0.449969 0.774776 0.612372 0.612372 
C 0.774776 0.449969 0.866025 0.229673 0.866025 0 
C 0.866025 -0.229673 0.774776 -0.449969 0.612372 -0.612372 
C 0.449969 -0.774776 0.229673 -0.866025 0 -0.866025 
C -0.229673 -0.866025 -0.449969 -0.774776 -0.612372 -0.612372 
C -0.774776 -0.449969 -0.866025 -0.229673 -0.866025 0 
C -0.866025 0.229673 -0.774776 0.449969 -0.612372 0.612372 
C -0.449969 0.774776 -0.229673 0.866025 0 0.866025 
z
" style="stroke: #cc79a7"/>
    </defs>
    <g clip-path="url(#p3a0f4e6450)">
     <use xlink:href="#mc02586a5fb" x="547.036616" y="261.879843" style="fill: #cc79a7; stroke: #cc79a7"/>
     <use xlink:href="#mc02586a5fb" x="556.229635" y="311.218768" style="fill: #cc79a7; stroke: #cc79a7"/>
     <use xlink:href="#mc02586a5fb" x="543.935084" y="257.97309" style="fill: #cc79a7; stroke: #cc79a7"/>
     <use xlink:href="#mc02586a5fb" x="544.783849" y="299.864102" style="fill: #cc79a7; stroke: #cc79a7"/>
     <use xlink:href="#mc02586a5fb" x="546.338214" y="281.725757" style="fill: #cc79a7; stroke: #cc79a7"/>
     <use xlink:href="#mc02586a5fb" x="553.168249" y="301.70291" style="fill: #cc79a7; stroke: #cc79a7"/>
     <use xlink:href="#mc02586a5fb" x="549.06852" y="252.197924" style="fill: #cc79a7; stroke: #cc79a7"/>
     <use xlink:href="#mc02586a5fb" x="552.983956" y="246.024097" style="fill: #cc79a7; stroke: #cc79a7"/>
     <use xlink:href="#mc02586a5fb" x="555.862942" y="238.131503" style="fill: #cc79a7; stroke: #cc79a7"/>
     <use xlink:href="#mc02586a5fb" x="553.300139" y="274.45292" style="fill: #cc79a7; stroke: #cc79a7"/>
     <use xlink:href="#mc02586a5fb" x="552.404284" y="278.667478" style="fill: #cc79a7; stroke: #cc79a7"/>
     <use xlink:href="#mc02586a5fb" x="549.278941" y="257.657641" style="fill: #cc79a7; stroke: #cc79a7"/>
     <use xlink:href="#mc02586a5fb" x="550.98694" y="266.920572" style="fill: #cc79a7; stroke: #cc79a7"/>
     <use xlink:href="#mc02586a5fb" x="555.839238" y="255.824757" style="fill: #cc79a7; stroke: #cc79a7"/>
     <use xlink:href="#mc02586a5fb" x="549.304478" y="272.896218" style="fill: #cc79a7; stroke: #cc79a7"/>
     <use xlink:href="#mc02586a5fb" x="546.342811" y="282.765217" style="fill: #cc79a7; stroke: #cc79a7"/>
     <use xlink:href="#mc02586a5fb" x="546.807422" y="282.113055" style="fill: #cc79a7; stroke: #cc79a7"/>
     <use xlink:href="#mc02586a5fb" x="548.96387" y="284.49124" style="fill: #cc79a7; stroke: #cc79a7"/>
     <use xlink:href="#mc02586a5fb" x="549.033987" y="277.424245" style="fill: #cc79a7; stroke: #cc79a7"/>
     <use xlink:href="#mc02586a5fb" x="548.108769" y="279.772123" style="fill: #cc79a7; stroke: #cc79a7"/>
     <use xlink:href="#mc02586a5fb" x="545.35778" y="272.87859" style="fill: #cc79a7; stroke: #cc79a7"/>
     <use xlink:href="#mc02586a5fb" x="555.620056" y="311.024389" style="fill: #cc79a7; stroke: #cc79a7"/>
     <use xlink:href="#mc02586a5fb" x="543.805111" y="262.795008" style="fill: #cc79a7; stroke: #cc79a7"/>
     <use xlink:href="#mc02586a5fb" x="549.542082" y="301.412089" style="fill: #cc79a7; stroke: #cc79a7"/>
     <use xlink:href="#mc02586a5fb" x="556.814089" y="266.603979" style="fill: #cc79a7; stroke: #cc79a7"/>
     <use xlink:href="#mc02586a5fb" x="548.145786" y="266.451721" style="fill: #cc79a7; stroke: #cc79a7"/>
     <use xlink:href="#mc02586a5fb" x="556.011441" y="281.360417" style="fill: #cc79a7; stroke: #cc79a7"/>
     <use xlink:href="#mc02586a5fb" x="543.444766" y="252.237852" style="fill: #cc79a7; stroke: #cc79a7"/>
     <use xlink:href="#mc02586a5fb" x="551.304902" y="267.593895" style="fill: #cc79a7; stroke: #cc79a7"/>
     <use xlink:href="#mc02586a5fb" x="551.260233" y="351.961249" style="fill: #cc79a7; stroke: #cc79a7"/>
     <use xlink:href="#mc02586a5fb" x="556.82682" y="319.071169" style="fill: #cc79a7; stroke: #cc79a7"/>
     <use xlink:href="#mc02586a5fb" x="551.074521" y="304.488213" style="fill: #cc79a7; stroke: #cc79a7"/>
     <use xlink:href="#mc02586a5fb" x="552.789727" y="282.297094" style="fill: #cc79a7; stroke: #cc79a7"/>
     <use xlink:href="#mc02586a5fb" x="546.751963" y="280.454914" style="fill: #cc79a7; stroke: #cc79a7"/>
     <use xlink:href="#mc02586a5fb" x="554.736467" y="261.040167" style="fill: #cc79a7; stroke: #cc79a7"/>
     <use xlink:href="#mc02586a5fb" x="556.217079" y="298.599642" style="fill: #cc79a7; stroke: #cc79a7"/>
     <use xlink:href="#mc02586a5fb" x="550.89253" y="276.757867" style="fill: #cc79a7; stroke: #cc79a7"/>
     <use xlink:href="#mc02586a5fb" x="552.493108" y="271.555244" style="fill: #cc79a7; stroke: #cc79a7"/>
     <use xlink:href="#mc02586a5fb" x="550.746116" y="257.898183" style="fill: #cc79a7; stroke: #cc79a7"/>
    </g>
   </g>
   <g id="patch_3">
    <path d="M 149.2875 306.991842 
L 170.2125 306.991842 
L 170.2125 296.623013 
L 149.2875 296.623013 
L 149.2875 306.991842 
z
" clip-path="url(#p3a0f4e6450)" style="fill: #d55e00; opacity: 0.5; stroke: #000000; stroke-linejoin: miter"/>
   </g>
   <g id="line2d_10">
    <path d="M 159.75 306.991842 
L 159.75 320.310227 
" clip-path="url(#p3a0f4e6450)" style="fill: none; stroke: #000000; stroke-linecap: round"/>
   </g>
   <g id="line2d_11">
    <path d="M 159.75 296.623013 
L 159.75 284.354643 
" clip-path="url(#p3a0f4e6450)" style="fill: none; stroke: #000000; stroke-linecap: round"/>
   </g>
   <g id="line2d_12">
    <path d="M 154.51875 320.310227 
L 164.98125 320.310227 
" clip-path="url(#p3a0f4e6450)" style="fill: none; stroke: #000000; stroke-linecap: round"/>
   </g>
   <g id="line2d_13">
    <path d="M 154.51875 284.354643 
L 164.98125 284.354643 
" clip-path="url(#p3a0f4e6450)" style="fill: none; stroke: #000000; stroke-linecap: round"/>
   </g>
   <g id="patch_4">
    <path d="M 288.7875 382.20348 
L 309.7125 382.20348 
L 309.7125 358.79192 
L 288.7875 358.79192 
L 288.7875 382.20348 
z
" clip-path="url(#p3a0f4e6450)" style="fill: #0072b2; opacity: 0.5; stroke: #000000; stroke-linejoin: miter"/>
   </g>
   <g id="line2d_14">
    <path d="M 299.25 382.20348 
L 299.25 415.555803 
" clip-path="url(#p3a0f4e6450)" style="fill: none; stroke: #000000; stroke-linecap: round"/>
   </g>
   <g id="line2d_15">
    <path d="M 299.25 358.79192 
L 299.25 336.21109 
" clip-path="url(#p3a0f4e6450)" style="fill: none; stroke: #000000; stroke-linecap: round"/>
   </g>
   <g id="line2d_16">
    <path d="M 294.01875 415.555803 
L 304.48125 415.555803 
" clip-path="url(#p3a0f4e6450)" style="fill: none; stroke: #000000; stroke-linecap: round"/>
   </g>
   <g id="line2d_17">
    <path d="M 294.01875 336.21109 
L 304.48125 336.21109 
" clip-path="url(#p3a0f4e6450)" style="fill: none; stroke: #000000; stroke-linecap: round"/>
   </g>
   <g id="patch_5">
    <path d="M 428.2875 331.445968 
L 449.2125 331.445968 
L 449.2125 318.609277 
L 428.2875 318.609277 
L 428.2875 331.445968 
z
" clip-path="url(#p3a0f4e6450)" style="fill: #009e73; opacity: 0.5; stroke: #000000; stroke-linejoin: miter"/>
   </g>
   <g id="line2d_18">
    <path d="M 438.75 331.445968 
L 438.75 346.876761 
" clip-path="url(#p3a0f4e6450)" style="fill: none; stroke: #000000; stroke-linecap: round"/>
   </g>
   <g id="line2d_19">
    <path d="M 438.75 318.609277 
L 438.75 310.947368 
" clip-path="url(#p3a0f4e6450)" style="fill: none; stroke: #000000; stroke-linecap: round"/>
   </g>
   <g id="line2d_20">
    <path d="M 433.51875 346.876761 
L 443.98125 346.876761 
" clip-path="url(#p3a0f4e6450)" style="fill: none; stroke: #000000; stroke-linecap: round"/>
   </g>
   <g id="line2d_21">
    <path d="M 433.51875 310.947368 
L 443.98125 310.947368 
" clip-path="url(#p3a0f4e6450)" style="fill: none; stroke: #000000; stroke-linecap: round"/>
   </g>
   <g id="patch_6">
    <path d="M 567.7875 283.628229 
L 588.7125 283.628229 
L 588.7125 262.337426 
L 567.7875 262.337426 
L 567.7875 283.628229 
z
" clip-path="url(#p3a0f4e6450)" style="fill: #cc79a7; opacity: 0.5; stroke: #000000; stroke-linejoin: miter"/>
   </g>
   <g id="line2d_22">
    <path d="M 578.25 283.628229 
L 578.25 311.218768 
" clip-path="url(#p3a0f4e6450)" style="fill: none; stroke: #000000; stroke-linecap: round"/>
   </g>
   <g id="line2d_23">
    <path d="M 578.25 262.337426 
L 578.25 238.131503 
" clip-path="url(#p3a0f4e6450)" style="fill: none; stroke: #000000; stroke-linecap: round"/>
   </g>
   <g id="line2d_24">
    <path d="M 573.01875 311.218768 
L 583.48125 311.218768 
" clip-path="url(#p3a0f4e6450)" style="fill: none; stroke: #000000; stroke-linecap: round"/>
   </g>
   <g id="line2d_25">
    <path d="M 573.01875 238.131503 
L 583.48125 238.131503 
" clip-path="url(#p3a0f4e6450)" style="fill: none; stroke: #000000; stroke-linecap: round"/>
   </g>
   <g id="line2d_26">
    <path d="M 149.2875 302.150608 
L 170.2125 302.150608 
" clip-path="url(#p3a0f4e6450)" style="fill: none; stroke: #000000"/>
   </g>
   <g id="line2d_27">
    <path d="M 288.7875 363.872053 
L 309.7125 363.872053 
" clip-path="url(#p3a0f4e6450)" style="fill: none; stroke: #000000"/>
   </g>
   <g id="line2d_28">
    <path d="M 428.2875 322.968003 
L 449.2125 322.968003 
" clip-path="url(#p3a0f4e6450)" style="fill: none; stroke: #000000"/>
   </g>
   <g id="line2d_29">
    <path d="M 567.7875 276.757867 
L 588.7125 276.757867 
" clip-path="url(#p3a0f4e6450)" style="fill: none; stroke: #000000"/>
   </g>
   <g id="patch_7">
    <path d="M 90 507.6 
L 90 129.6 
" style="fill: none; stroke: #262626; stroke-width: 1.25; stroke-linejoin: miter; stroke-linecap: square"/>
   </g>
   <g id="patch_8">
    <path d="M 648 507.6 
L 648 129.6 
" style="fill: none; stroke: #262626; stroke-width: 1.25; stroke-linejoin: miter; stroke-linecap: square"/>
   </g>
   <g id="patch_9">
    <path d="M 90 507.6 
L 648 507.6 
" style="fill: none; stroke: #262626; stroke-width: 1.25; stroke-linejoin: miter; stroke-linecap: square"/>
   </g>
   <g id="patch_10">
    <path d="M 90 129.6 
L 648 129.6 
" style="fill: none; stroke: #262626; stroke-width: 1.25; stroke-linejoin: miter; stroke-linecap: square"/>
   </g>
   <g id="text_11">
    <!-- IBI -->
    <g style="fill: #262626" transform="translate(360.055313 109.6) scale(0.14 -0.14)">
     <defs>
      <path id="Arial-BoldMT-49" d="M 438 0 
L 438 4581 
L 1363 4581 
L 1363 0 
L 438 0 
z
" transform="scale(0.015625)"/>
      <path id="Arial-BoldMT-42" d="M 469 4581 
L 2300 4581 
Q 2844 4581 3111 4536 
Q 3378 4491 3589 4347 
Q 3800 4203 3940 3964 
Q 4081 3725 4081 3428 
Q 4081 3106 3907 2837 
Q 3734 2569 3438 2434 
Q 3856 2313 4081 2019 
Q 4306 1725 4306 1328 
Q 4306 1016 4161 720 
Q 4016 425 3764 248 
Q 3513 72 3144 31 
Q 2913 6 2028 0 
L 469 0 
L 469 4581 
z
M 1394 3819 
L 1394 2759 
L 2000 2759 
Q 2541 2759 2672 2775 
Q 2909 2803 3045 2939 
Q 3181 3075 3181 3297 
Q 3181 3509 3064 3642 
Q 2947 3775 2716 3803 
Q 2578 3819 1925 3819 
L 1394 3819 
z
M 1394 1997 
L 1394 772 
L 2250 772 
Q 2750 772 2884 800 
Q 3091 838 3220 983 
Q 3350 1128 3350 1372 
Q 3350 1578 3250 1722 
Q 3150 1866 2961 1931 
Q 2772 1997 2141 1997 
L 1394 1997 
z
" transform="scale(0.015625)"/>
     </defs>
     <use xlink:href="#Arial-BoldMT-49"/>
     <use xlink:href="#Arial-BoldMT-42" x="27.783203"/>
     <use xlink:href="#Arial-BoldMT-49" x="100"/>
    </g>
   </g>
  </g>
  <g id="axes_2">
   <g id="patch_11">
    <path d="M 90 961.2 
L 648 961.2 
L 648 583.2 
L 90 583.2 
z
" style="fill: #ffffff"/>
   </g>
   <g id="matplotlib.axis_3">
    <g id="xtick_5">
     <g id="line2d_30">
      <g>
       <use xlink:href="#m6f8db2847b" x="159.75" y="961.2" style="fill: #262626; stroke: #262626; stroke-width: 1.25"/>
      </g>
     </g>
     <g id="text_12">
      <!-- State 1 -->
      <g style="fill: #262626" transform="translate(142.321875 978.573594) scale(0.11 -0.11)">
       <use xlink:href="#ArialMT-53"/>
       <use xlink:href="#ArialMT-74" x="66.699219"/>
       <use xlink:href="#ArialMT-61" x="94.482422"/>
       <use xlink:href="#ArialMT-74" x="150.097656"/>
       <use xlink:href="#ArialMT-65" x="177.880859"/>
       <use xlink:href="#ArialMT-20" x="233.496094"/>
       <use xlink:href="#ArialMT-31" x="261.279297"/>
      </g>
     </g>
    </g>
    <g id="xtick_6">
     <g id="line2d_31">
      <g>
       <use xlink:href="#m6f8db2847b" x="299.25" y="961.2" style="fill: #262626; stroke: #262626; stroke-width: 1.25"/>
      </g>
     </g>
     <g id="text_13">
      <!-- State 2 -->
      <g style="fill: #262626" transform="translate(281.821875 978.573594) scale(0.11 -0.11)">
       <use xlink:href="#ArialMT-53"/>
       <use xlink:href="#ArialMT-74" x="66.699219"/>
       <use xlink:href="#ArialMT-61" x="94.482422"/>
       <use xlink:href="#ArialMT-74" x="150.097656"/>
       <use xlink:href="#ArialMT-65" x="177.880859"/>
       <use xlink:href="#ArialMT-20" x="233.496094"/>
       <use xlink:href="#ArialMT-32" x="261.279297"/>
      </g>
     </g>
    </g>
    <g id="xtick_7">
     <g id="line2d_32">
      <g>
       <use xlink:href="#m6f8db2847b" x="438.75" y="961.2" style="fill: #262626; stroke: #262626; stroke-width: 1.25"/>
      </g>
     </g>
     <g id="text_14">
      <!-- State 3 -->
      <g style="fill: #262626" transform="translate(421.321875 978.573594) scale(0.11 -0.11)">
       <use xlink:href="#ArialMT-53"/>
       <use xlink:href="#ArialMT-74" x="66.699219"/>
       <use xlink:href="#ArialMT-61" x="94.482422"/>
       <use xlink:href="#ArialMT-74" x="150.097656"/>
       <use xlink:href="#ArialMT-65" x="177.880859"/>
       <use xlink:href="#ArialMT-20" x="233.496094"/>
       <use xlink:href="#ArialMT-33" x="261.279297"/>
      </g>
     </g>
    </g>
    <g id="xtick_8">
     <g id="line2d_33">
      <g>
       <use xlink:href="#m6f8db2847b" x="578.25" y="961.2" style="fill: #262626; stroke: #262626; stroke-width: 1.25"/>
      </g>
     </g>
     <g id="text_15">
      <!-- State 4 -->
      <g style="fill: #262626" transform="translate(560.821875 978.573594) scale(0.11 -0.11)">
       <use xlink:href="#ArialMT-53"/>
       <use xlink:href="#ArialMT-74" x="66.699219"/>
       <use xlink:href="#ArialMT-61" x="94.482422"/>
       <use xlink:href="#ArialMT-74" x="150.097656"/>
       <use xlink:href="#ArialMT-65" x="177.880859"/>
       <use xlink:href="#ArialMT-20" x="233.496094"/>
       <use xlink:href="#ArialMT-34" x="261.279297"/>
      </g>
     </g>
    </g>
   </g>
   <g id="matplotlib.axis_4">
    <g id="ytick_6">
     <g id="line2d_34">
      <g>
       <use xlink:href="#m2a1e90dcf5" x="90" y="923.4" style="fill: #262626; stroke: #262626; stroke-width: 1.25"/>
      </g>
     </g>
     <g id="text_16">
      <!-- −2 -->
      <g style="fill: #262626" transform="translate(67.958281 927.336797) scale(0.11 -0.11)">
       <use xlink:href="#ArialMT-2212"/>
       <use xlink:href="#ArialMT-32" x="58.398438"/>
      </g>
     </g>
    </g>
    <g id="ytick_7">
     <g id="line2d_35">
      <g>
       <use xlink:href="#m2a1e90dcf5" x="90" y="847.8" style="fill: #262626; stroke: #262626; stroke-width: 1.25"/>
      </g>
     </g>
     <g id="text_17">
      <!-- −1 -->
      <g style="fill: #262626" transform="translate(67.958281 851.736797) scale(0.11 -0.11)">
       <use xlink:href="#ArialMT-2212"/>
       <use xlink:href="#ArialMT-31" x="58.398438"/>
      </g>
     </g>
    </g>
    <g id="ytick_8">
     <g id="line2d_36">
      <g>
       <use xlink:href="#m2a1e90dcf5" x="90" y="772.2" style="fill: #262626; stroke: #262626; stroke-width: 1.25"/>
      </g>
     </g>
     <g id="text_18">
      <!-- 0 -->
      <g style="fill: #262626" transform="translate(74.382969 776.136797) scale(0.11 -0.11)">
       <use xlink:href="#ArialMT-30"/>
      </g>
     </g>
    </g>
    <g id="ytick_9">
     <g id="line2d_37">
      <g>
       <use xlink:href="#m2a1e90dcf5" x="90" y="696.6" style="fill: #262626; stroke: #262626; stroke-width: 1.25"/>
      </g>
     </g>
     <g id="text_19">
      <!-- 1 -->
      <g style="fill: #262626" transform="translate(74.382969 700.536797) scale(0.11 -0.11)">
       <use xlink:href="#ArialMT-31"/>
      </g>
     </g>
    </g>
    <g id="ytick_10">
     <g id="line2d_38">
      <g>
       <use xlink:href="#m2a1e90dcf5" x="90" y="621" style="fill: #262626; stroke: #262626; stroke-width: 1.25"/>
      </g>
     </g>
     <g id="text_20">
      <!-- 2 -->
      <g style="fill: #262626" transform="translate(74.382969 624.936797) scale(0.11 -0.11)">
       <use xlink:href="#ArialMT-32"/>
      </g>
     </g>
    </g>
    <g id="text_21">
     <!-- Value (z-scored) -->
     <g style="fill: #262626" transform="translate(61.432656 815.770313) rotate(-90) scale(0.12 -0.12)">
      <use xlink:href="#ArialMT-56"/>
      <use xlink:href="#ArialMT-61" x="59.324219"/>
      <use xlink:href="#ArialMT-6c" x="114.939453"/>
      <use xlink:href="#ArialMT-75" x="137.15625"/>
      <use xlink:href="#ArialMT-65" x="192.771484"/>
      <use xlink:href="#ArialMT-20" x="248.386719"/>
      <use xlink:href="#ArialMT-28" x="276.169922"/>
      <use xlink:href="#ArialMT-7a" x="309.470703"/>
      <use xlink:href="#ArialMT-2d" x="359.470703"/>
      <use xlink:href="#ArialMT-73" x="392.771484"/>
      <use xlink:href="#ArialMT-63" x="442.771484"/>
      <use xlink:href="#ArialMT-6f" x="492.771484"/>
      <use xlink:href="#ArialMT-72" x="548.386719"/>
      <use xlink:href="#ArialMT-65" x="581.6875"/>
      <use xlink:href="#ArialMT-64" x="637.302734"/>
      <use xlink:href="#ArialMT-29" x="692.917969"/>
     </g>
    </g>
   </g>
   <g id="PolyCollection_5">
    <defs>
     <path id="m348f235a1d" d="M 172.350978 -324.519367 
L 160.282646 -324.519367 
L 160.282646 -324.80436 
L 160.282646 -325.089352 
L 160.282646 -325.374345 
L 160.282646 -325.659337 
L 160.282646 -325.94433 
L 160.282646 -326.229322 
L 160.282646 -326.514315 
L 160.282646 -326.799307 
L 160.282646 -327.0843 
L 160.282646 -327.369292 
L 160.282646 -327.654285 
L 160.282646 -327.939277 
L 160.282646 -328.22427 
L 160.282646 -328.509262 
L 160.282646 -328.794255 
L 160.282646 -329.079247 
L 160.282646 -329.36424 
L 160.282646 -329.649232 
L 160.282646 -329.934225 
L 160.282646 -330.219217 
L 160.282646 -330.50421 
L 160.282646 -330.789202 
L 160.282646 -331.074195 
L 160.282646 -331.359187 
L 160.282646 -331.64418 
L 160.282646 -331.929172 
L 160.282646 -332.214165 
L 160.282646 -332.499157 
L 160.282646 -332.78415 
L 160.282646 -333.069142 
L 160.282646 -333.354135 
L 160.282646 -333.639127 
L 160.282646 -333.92412 
L 160.282646 -334.209112 
L 160.282646 -334.494105 
L 160.282646 -334.779097 
L 160.282646 -335.06409 
L 160.282646 -335.349082 
L 177.692354 -335.349082 
L 177.692354 -335.349082 
L 179.989533 -335.06409 
L 182.108555 -334.779097 
L 183.982072 -334.494105 
L 185.572258 -334.209112 
L 186.876233 -333.92412 
L 187.925534 -333.639127 
L 188.779154 -333.354135 
L 189.511069 -333.069142 
L 190.194578 -332.78415 
L 190.886672 -332.499157 
L 191.615815 -332.214165 
L 192.375799 -331.929172 
L 193.126882 -331.64418 
L 193.803699 -331.359187 
L 194.327888 -331.074195 
L 194.622479 -330.789202 
L 194.625 -330.50421 
L 194.296995 -330.219217 
L 193.628746 -329.934225 
L 192.639247 -329.649232 
L 191.372391 -329.36424 
L 189.890746 -329.079247 
L 188.268318 -328.794255 
L 186.583332 -328.509262 
L 184.911624 -328.22427 
L 183.320857 -327.939277 
L 181.865573 -327.654285 
L 180.583089 -327.369292 
L 179.490379 -327.0843 
L 178.582323 -326.799307 
L 177.831834 -326.514315 
L 177.192391 -326.229322 
L 176.603269 -325.94433 
L 175.99725 -325.659337 
L 175.310004 -325.374345 
L 174.489716 -325.089352 
L 173.505218 -324.80436 
L 172.350978 -324.519367 
z
" style="stroke: #d55e00; stroke-opacity: 0.3"/>
    </defs>
    <g clip-path="url(#p1b0510ed34)">
     <use xlink:href="#m348f235a1d" x="0" y="1080" style="fill: #d55e00; fill-opacity: 0.3; stroke: #d55e00; stroke-opacity: 0.3"/>
    </g>
   </g>
   <g id="PolyCollection_6">
    <defs>
     <path id="ma14c175fed" d="M 303.808808 -183.110895 
L 299.424854 -183.110895 
L 299.424854 -184.726589 
L 299.424854 -186.342283 
L 299.424854 -187.957977 
L 299.424854 -189.573671 
L 299.424854 -191.189365 
L 299.424854 -192.805059 
L 299.424854 -194.420753 
L 299.424854 -196.036447 
L 299.424854 -197.652141 
L 299.424854 -199.267835 
L 299.424854 -200.883529 
L 299.424854 -202.499223 
L 299.424854 -204.114917 
L 299.424854 -205.730611 
L 299.424854 -207.346305 
L 299.424854 -208.961999 
L 299.424854 -210.577693 
L 299.424854 -212.193387 
L 299.424854 -213.809081 
L 299.424854 -215.424775 
L 299.424854 -217.040469 
L 299.424854 -218.656163 
L 299.424854 -220.271857 
L 299.424854 -221.887551 
L 299.424854 -223.503245 
L 299.424854 -225.118939 
L 299.424854 -226.734633 
L 299.424854 -228.350327 
L 299.424854 -229.966021 
L 299.424854 -231.581715 
L 299.424854 -233.197409 
L 299.424854 -234.813103 
L 299.424854 -236.428797 
L 299.424854 -238.044491 
L 299.424854 -239.660185 
L 299.424854 -241.275879 
L 299.424854 -242.891573 
L 299.424854 -244.507267 
L 304.295549 -244.507267 
L 304.295549 -244.507267 
L 305.634885 -242.891573 
L 307.259756 -241.275879 
L 309.221117 -239.660185 
L 311.556435 -238.044491 
L 314.272221 -236.428797 
L 317.326668 -234.813103 
L 320.617452 -233.197409 
L 323.97965 -231.581715 
L 327.197139 -229.966021 
L 330.027646 -228.350327 
L 332.23767 -226.734633 
L 333.640022 -225.118939 
L 334.125 -223.503245 
L 333.677295 -221.887551 
L 332.374419 -220.271857 
L 330.367807 -218.656163 
L 327.852787 -217.040469 
L 325.036407 -215.424775 
L 322.111585 -213.809081 
L 319.242419 -212.193387 
L 316.560384 -210.577693 
L 314.166904 -208.961999 
L 312.136194 -207.346305 
L 310.514092 -205.730611 
L 309.31257 -204.114917 
L 308.503748 -202.499223 
L 308.019167 -200.883529 
L 307.75862 -199.267835 
L 307.608595 -197.652141 
L 307.465484 -196.036447 
L 307.255655 -194.420753 
L 306.945206 -192.805059 
L 306.536428 -191.189365 
L 306.053692 -189.573671 
L 305.525826 -187.957977 
L 304.972729 -186.342283 
L 304.401051 -184.726589 
L 303.808808 -183.110895 
z
" style="stroke: #0072b2; stroke-opacity: 0.3"/>
    </defs>
    <g clip-path="url(#p1b0510ed34)">
     <use xlink:href="#ma14c175fed" x="0" y="1080" style="fill: #0072b2; fill-opacity: 0.3; stroke: #0072b2; stroke-opacity: 0.3"/>
    </g>
   </g>
   <g id="PolyCollection_7">
    <defs>
     <path id="m66dff41dbc" d="M 443.699503 -271.5088 
L 438.902404 -271.5088 
L 438.902404 -271.752333 
L 438.902404 -271.995866 
L 438.902404 -272.239399 
L 438.902404 -272.482932 
L 438.902404 -272.726465 
L 438.902404 -272.969998 
L 438.902404 -273.213531 
L 438.902404 -273.457064 
L 438.902404 -273.700597 
L 438.902404 -273.94413 
L 438.902404 -274.187663 
L 438.902404 -274.431196 
L 438.902404 -274.674729 
L 438.902404 -274.918262 
L 438.902404 -275.161795 
L 438.902404 -275.405328 
L 438.902404 -275.648861 
L 438.902404 -275.892393 
L 438.902404 -276.135926 
L 438.902404 -276.379459 
L 438.902404 -276.622992 
L 438.902404 -276.866525 
L 438.902404 -277.110058 
L 438.902404 -277.353591 
L 438.902404 -277.597124 
L 438.902404 -277.840657 
L 438.902404 -278.08419 
L 438.902404 -278.327723 
L 438.902404 -278.571256 
L 438.902404 -278.814789 
L 438.902404 -279.058322 
L 438.902404 -279.301855 
L 438.902404 -279.545388 
L 438.902404 -279.788921 
L 438.902404 -280.032454 
L 438.902404 -280.275987 
L 438.902404 -280.51952 
L 438.902404 -280.763053 
L 441.195738 -280.763053 
L 441.195738 -280.763053 
L 441.471595 -280.51952 
L 441.806603 -280.275987 
L 442.285613 -280.032454 
L 442.997518 -279.788921 
L 444.013438 -279.545388 
L 445.369655 -279.301855 
L 447.061156 -279.058322 
L 449.047799 -278.814789 
L 451.270445 -278.571256 
L 453.670387 -278.327723 
L 456.20341 -278.08419 
L 458.841104 -277.840657 
L 461.556943 -277.597124 
L 464.301875 -277.353591 
L 466.980596 -277.110058 
L 469.441909 -276.866525 
L 471.492754 -276.622992 
L 472.936464 -276.379459 
L 473.625 -276.135926 
L 473.507003 -275.892393 
L 472.652409 -275.648861 
L 471.241569 -275.405328 
L 469.520042 -275.161795 
L 467.733811 -274.918262 
L 466.067185 -274.674729 
L 464.603627 -274.431196 
L 463.319762 -274.187663 
L 462.110467 -273.94413 
L 460.83372 -273.700597 
L 459.360387 -273.457064 
L 457.615226 -273.213531 
L 455.599151 -272.969998 
L 453.387919 -272.726465 
L 451.108876 -272.482932 
L 448.904259 -272.239399 
L 446.894183 -271.995866 
L 445.152108 -271.752333 
L 443.699503 -271.5088 
z
" style="stroke: #009e73; stroke-opacity: 0.3"/>
    </defs>
    <g clip-path="url(#p1b0510ed34)">
     <use xlink:href="#m66dff41dbc" x="0" y="1080" style="fill: #009e73; fill-opacity: 0.3; stroke: #009e73; stroke-opacity: 0.3"/>
    </g>
   </g>
   <g id="PolyCollection_8">
    <defs>
     <path id="m79306bec33" d="M 580.607157 -391.53339 
L 578.333613 -391.53339 
L 578.333613 -393.724773 
L 578.333613 -395.916156 
L 578.333613 -398.107539 
L 578.333613 -400.298922 
L 578.333613 -402.490305 
L 578.333613 -404.681688 
L 578.333613 -406.873071 
L 578.333613 -409.064454 
L 578.333613 -411.255837 
L 578.333613 -413.44722 
L 578.333613 -415.638603 
L 578.333613 -417.829986 
L 578.333613 -420.021369 
L 578.333613 -422.212752 
L 578.333613 -424.404135 
L 578.333613 -426.595518 
L 578.333613 -428.786901 
L 578.333613 -430.978284 
L 578.333613 -433.169667 
L 578.333613 -435.36105 
L 578.333613 -437.552433 
L 578.333613 -439.743816 
L 578.333613 -441.935199 
L 578.333613 -444.126582 
L 578.333613 -446.317965 
L 578.333613 -448.509348 
L 578.333613 -450.700731 
L 578.333613 -452.892114 
L 578.333613 -455.083497 
L 578.333613 -457.27488 
L 578.333613 -459.466263 
L 578.333613 -461.657646 
L 578.333613 -463.849029 
L 578.333613 -466.040412 
L 578.333613 -468.231795 
L 578.333613 -470.423178 
L 578.333613 -472.614561 
L 578.333613 -474.805944 
L 580.308364 -474.805944 
L 580.308364 -474.805944 
L 580.461348 -472.614561 
L 580.554269 -470.423178 
L 580.616352 -468.231795 
L 580.677238 -466.040412 
L 580.762834 -463.849029 
L 580.902715 -461.657646 
L 581.14108 -459.466263 
L 581.538785 -457.27488 
L 582.160609 -455.083497 
L 583.054676 -452.892114 
L 584.238724 -450.700731 
L 585.703231 -448.509348 
L 587.427701 -446.317965 
L 589.395352 -444.126582 
L 591.593248 -441.935199 
L 593.998413 -439.743816 
L 596.563946 -437.552433 
L 599.21993 -435.36105 
L 601.890141 -433.169667 
L 604.508517 -430.978284 
L 607.014652 -428.786901 
L 609.321845 -426.595518 
L 611.275857 -424.404135 
L 612.638759 -422.212752 
L 613.125 -420.021369 
L 612.486967 -417.829986 
L 610.613865 -415.638603 
L 607.594503 -413.44722 
L 603.712286 -411.255837 
L 599.376939 -409.064454 
L 595.026809 -406.873071 
L 591.040379 -404.681688 
L 587.679463 -402.490305 
L 585.066995 -400.298922 
L 583.193012 -398.107539 
L 581.942769 -395.916156 
L 581.141614 -393.724773 
L 580.607157 -391.53339 
z
" style="stroke: #cc79a7; stroke-opacity: 0.3"/>
    </defs>
    <g clip-path="url(#p1b0510ed34)">
     <use xlink:href="#m79306bec33" x="0" y="1080" style="fill: #cc79a7; fill-opacity: 0.3; stroke: #cc79a7; stroke-opacity: 0.3"/>
    </g>
   </g>
   <g id="PathCollection_5">
    <g clip-path="url(#p1b0510ed34)">
     <use xlink:href="#m71e129a6b7" x="125.470479" y="748.964501" style="fill: #d55e00; stroke: #d55e00"/>
     <use xlink:href="#m71e129a6b7" x="132.779107" y="750.235646" style="fill: #d55e00; stroke: #d55e00"/>
     <use xlink:href="#m71e129a6b7" x="138.295591" y="749.300471" style="fill: #d55e00; stroke: #d55e00"/>
     <use xlink:href="#m71e129a6b7" x="128.40718" y="755.480633" style="fill: #d55e00; stroke: #d55e00"/>
     <use xlink:href="#m71e129a6b7" x="125.193752" y="746.027469" style="fill: #d55e00; stroke: #d55e00"/>
     <use xlink:href="#m71e129a6b7" x="136.845796" y="750.862875" style="fill: #d55e00; stroke: #d55e00"/>
     <use xlink:href="#m71e129a6b7" x="135.072742" y="751.142373" style="fill: #d55e00; stroke: #d55e00"/>
     <use xlink:href="#m71e129a6b7" x="136.721305" y="745.974591" style="fill: #d55e00; stroke: #d55e00"/>
     <use xlink:href="#m71e129a6b7" x="133.416625" y="752.72434" style="fill: #d55e00; stroke: #d55e00"/>
     <use xlink:href="#m71e129a6b7" x="131.630229" y="748.373396" style="fill: #d55e00; stroke: #d55e00"/>
     <use xlink:href="#m71e129a6b7" x="128.01441" y="755.116054" style="fill: #d55e00; stroke: #d55e00"/>
     <use xlink:href="#m71e129a6b7" x="137.856252" y="746.756333" style="fill: #d55e00; stroke: #d55e00"/>
     <use xlink:href="#m71e129a6b7" x="129.432895" y="750.960505" style="fill: #d55e00; stroke: #d55e00"/>
     <use xlink:href="#m71e129a6b7" x="126.529223" y="749.918983" style="fill: #d55e00; stroke: #d55e00"/>
     <use xlink:href="#m71e129a6b7" x="128.394746" y="748.987233" style="fill: #d55e00; stroke: #d55e00"/>
     <use xlink:href="#m71e129a6b7" x="128.320657" y="753.795695" style="fill: #d55e00; stroke: #d55e00"/>
     <use xlink:href="#m71e129a6b7" x="133.05286" y="750.218184" style="fill: #d55e00; stroke: #d55e00"/>
     <use xlink:href="#m71e129a6b7" x="127.138723" y="746.151581" style="fill: #d55e00; stroke: #d55e00"/>
     <use xlink:href="#m71e129a6b7" x="127.469866" y="745.861407" style="fill: #d55e00; stroke: #d55e00"/>
     <use xlink:href="#m71e129a6b7" x="125.358881" y="752.553573" style="fill: #d55e00; stroke: #d55e00"/>
     <use xlink:href="#m71e129a6b7" x="137.991894" y="744.650918" style="fill: #d55e00; stroke: #d55e00"/>
     <use xlink:href="#m71e129a6b7" x="131.972496" y="751.385514" style="fill: #d55e00; stroke: #d55e00"/>
     <use xlink:href="#m71e129a6b7" x="133.201504" y="744.805783" style="fill: #d55e00; stroke: #d55e00"/>
     <use xlink:href="#m71e129a6b7" x="138.30467" y="748.481848" style="fill: #d55e00; stroke: #d55e00"/>
     <use xlink:href="#m71e129a6b7" x="135.393689" y="754.414553" style="fill: #d55e00; stroke: #d55e00"/>
     <use xlink:href="#m71e129a6b7" x="127.421723" y="745.777503" style="fill: #d55e00; stroke: #d55e00"/>
     <use xlink:href="#m71e129a6b7" x="130.415225" y="748.821286" style="fill: #d55e00; stroke: #d55e00"/>
     <use xlink:href="#m71e129a6b7" x="133.52905" y="751.149105" style="fill: #d55e00; stroke: #d55e00"/>
     <use xlink:href="#m71e129a6b7" x="126.178055" y="755.260418" style="fill: #d55e00; stroke: #d55e00"/>
     <use xlink:href="#m71e129a6b7" x="127.704343" y="746.09115" style="fill: #d55e00; stroke: #d55e00"/>
     <use xlink:href="#m71e129a6b7" x="137.847045" y="744.772827" style="fill: #d55e00; stroke: #d55e00"/>
     <use xlink:href="#m71e129a6b7" x="128.210206" y="748.226335" style="fill: #d55e00; stroke: #d55e00"/>
     <use xlink:href="#m71e129a6b7" x="136.33228" y="752.597087" style="fill: #d55e00; stroke: #d55e00"/>
     <use xlink:href="#m71e129a6b7" x="133.497121" y="749.556922" style="fill: #d55e00; stroke: #d55e00"/>
     <use xlink:href="#m71e129a6b7" x="127.6072" y="749.657509" style="fill: #d55e00; stroke: #d55e00"/>
     <use xlink:href="#m71e129a6b7" x="136.608846" y="747.107489" style="fill: #d55e00; stroke: #d55e00"/>
     <use xlink:href="#m71e129a6b7" x="127.169708" y="746.95343" style="fill: #d55e00; stroke: #d55e00"/>
     <use xlink:href="#m71e129a6b7" x="129.02241" y="748.940803" style="fill: #d55e00; stroke: #d55e00"/>
     <use xlink:href="#m71e129a6b7" x="133.102868" y="754.995444" style="fill: #d55e00; stroke: #d55e00"/>
    </g>
   </g>
   <g id="PathCollection_6">
    <g clip-path="url(#p1b0510ed34)">
     <use xlink:href="#m5e8bd71f07" x="271.040178" y="860.186159" style="fill: #0072b2; stroke: #0072b2"/>
     <use xlink:href="#m5e8bd71f07" x="276.069508" y="866.987502" style="fill: #0072b2; stroke: #0072b2"/>
     <use xlink:href="#m5e8bd71f07" x="274.424768" y="853.990209" style="fill: #0072b2; stroke: #0072b2"/>
     <use xlink:href="#m5e8bd71f07" x="269.198791" y="881.973563" style="fill: #0072b2; stroke: #0072b2"/>
     <use xlink:href="#m5e8bd71f07" x="269.541091" y="860.857837" style="fill: #0072b2; stroke: #0072b2"/>
     <use xlink:href="#m5e8bd71f07" x="274.767348" y="885.361864" style="fill: #0072b2; stroke: #0072b2"/>
     <use xlink:href="#m5e8bd71f07" x="264.692964" y="849.437683" style="fill: #0072b2; stroke: #0072b2"/>
     <use xlink:href="#m5e8bd71f07" x="270.177945" y="858.725262" style="fill: #0072b2; stroke: #0072b2"/>
     <use xlink:href="#m5e8bd71f07" x="266.957058" y="843.839853" style="fill: #0072b2; stroke: #0072b2"/>
     <use xlink:href="#m5e8bd71f07" x="264.969959" y="858.610742" style="fill: #0072b2; stroke: #0072b2"/>
     <use xlink:href="#m5e8bd71f07" x="270.087074" y="854.28391" style="fill: #0072b2; stroke: #0072b2"/>
     <use xlink:href="#m5e8bd71f07" x="271.037964" y="855.323985" style="fill: #0072b2; stroke: #0072b2"/>
     <use xlink:href="#m5e8bd71f07" x="268.12644" y="852.117428" style="fill: #0072b2; stroke: #0072b2"/>
     <use xlink:href="#m5e8bd71f07" x="277.533912" y="854.749128" style="fill: #0072b2; stroke: #0072b2"/>
     <use xlink:href="#m5e8bd71f07" x="277.545513" y="841.450341" style="fill: #0072b2; stroke: #0072b2"/>
     <use xlink:href="#m5e8bd71f07" x="267.056655" y="853.781369" style="fill: #0072b2; stroke: #0072b2"/>
     <use xlink:href="#m5e8bd71f07" x="273.824792" y="855.700094" style="fill: #0072b2; stroke: #0072b2"/>
     <use xlink:href="#m5e8bd71f07" x="264.643623" y="896.889105" style="fill: #0072b2; stroke: #0072b2"/>
     <use xlink:href="#m5e8bd71f07" x="265.894203" y="851.274061" style="fill: #0072b2; stroke: #0072b2"/>
     <use xlink:href="#m5e8bd71f07" x="275.374104" y="885.647021" style="fill: #0072b2; stroke: #0072b2"/>
     <use xlink:href="#m5e8bd71f07" x="275.740822" y="862.460634" style="fill: #0072b2; stroke: #0072b2"/>
     <use xlink:href="#m5e8bd71f07" x="267.29967" y="855.969391" style="fill: #0072b2; stroke: #0072b2"/>
     <use xlink:href="#m5e8bd71f07" x="276.238475" y="847.74229" style="fill: #0072b2; stroke: #0072b2"/>
     <use xlink:href="#m5e8bd71f07" x="274.188111" y="865.502647" style="fill: #0072b2; stroke: #0072b2"/>
     <use xlink:href="#m5e8bd71f07" x="265.350839" y="861.567143" style="fill: #0072b2; stroke: #0072b2"/>
     <use xlink:href="#m5e8bd71f07" x="271.720455" y="868.461694" style="fill: #0072b2; stroke: #0072b2"/>
     <use xlink:href="#m5e8bd71f07" x="267.056187" y="857.080967" style="fill: #0072b2; stroke: #0072b2"/>
     <use xlink:href="#m5e8bd71f07" x="271.575011" y="835.492733" style="fill: #0072b2; stroke: #0072b2"/>
     <use xlink:href="#m5e8bd71f07" x="274.749643" y="883.909177" style="fill: #0072b2; stroke: #0072b2"/>
     <use xlink:href="#m5e8bd71f07" x="270.176747" y="854.904362" style="fill: #0072b2; stroke: #0072b2"/>
     <use xlink:href="#m5e8bd71f07" x="277.813416" y="849.255652" style="fill: #0072b2; stroke: #0072b2"/>
     <use xlink:href="#m5e8bd71f07" x="264.90596" y="860.439483" style="fill: #0072b2; stroke: #0072b2"/>
     <use xlink:href="#m5e8bd71f07" x="265.044493" y="866.699526" style="fill: #0072b2; stroke: #0072b2"/>
     <use xlink:href="#m5e8bd71f07" x="268.880762" y="849.589336" style="fill: #0072b2; stroke: #0072b2"/>
     <use xlink:href="#m5e8bd71f07" x="269.253048" y="870.977736" style="fill: #0072b2; stroke: #0072b2"/>
     <use xlink:href="#m5e8bd71f07" x="275.425132" y="895.649176" style="fill: #0072b2; stroke: #0072b2"/>
     <use xlink:href="#m5e8bd71f07" x="266.348663" y="858.825181" style="fill: #0072b2; stroke: #0072b2"/>
     <use xlink:href="#m5e8bd71f07" x="275.540062" y="872.736993" style="fill: #0072b2; stroke: #0072b2"/>
    </g>
   </g>
   <g id="PathCollection_7">
    <g clip-path="url(#p1b0510ed34)">
     <use xlink:href="#me6625bb04e" x="407.300921" y="805.771925" style="fill: #009e73; stroke: #009e73"/>
     <use xlink:href="#me6625bb04e" x="412.535901" y="803.682742" style="fill: #009e73; stroke: #009e73"/>
     <use xlink:href="#me6625bb04e" x="405.977012" y="804.912815" style="fill: #009e73; stroke: #009e73"/>
     <use xlink:href="#me6625bb04e" x="404.009096" y="799.236947" style="fill: #009e73; stroke: #009e73"/>
     <use xlink:href="#me6625bb04e" x="412.775547" y="803.229615" style="fill: #009e73; stroke: #009e73"/>
     <use xlink:href="#me6625bb04e" x="409.686137" y="802.352942" style="fill: #009e73; stroke: #009e73"/>
     <use xlink:href="#me6625bb04e" x="416.28207" y="804.438634" style="fill: #009e73; stroke: #009e73"/>
     <use xlink:href="#me6625bb04e" x="412.342507" y="805.434894" style="fill: #009e73; stroke: #009e73"/>
     <use xlink:href="#me6625bb04e" x="409.998406" y="802.325595" style="fill: #009e73; stroke: #009e73"/>
     <use xlink:href="#me6625bb04e" x="415.445901" y="806.829133" style="fill: #009e73; stroke: #009e73"/>
     <use xlink:href="#me6625bb04e" x="414.846175" y="806.538595" style="fill: #009e73; stroke: #009e73"/>
     <use xlink:href="#me6625bb04e" x="405.184943" y="807.070046" style="fill: #009e73; stroke: #009e73"/>
     <use xlink:href="#me6625bb04e" x="414.664832" y="804.036187" style="fill: #009e73; stroke: #009e73"/>
     <use xlink:href="#me6625bb04e" x="404.478773" y="806.404957" style="fill: #009e73; stroke: #009e73"/>
     <use xlink:href="#me6625bb04e" x="415.661095" y="804.180189" style="fill: #009e73; stroke: #009e73"/>
     <use xlink:href="#me6625bb04e" x="417.441382" y="804.352642" style="fill: #009e73; stroke: #009e73"/>
     <use xlink:href="#me6625bb04e" x="416.492568" y="803.914815" style="fill: #009e73; stroke: #009e73"/>
     <use xlink:href="#me6625bb04e" x="413.730924" y="804.672481" style="fill: #009e73; stroke: #009e73"/>
     <use xlink:href="#me6625bb04e" x="414.873453" y="804.617364" style="fill: #009e73; stroke: #009e73"/>
     <use xlink:href="#me6625bb04e" x="406.374164" y="805.537037" style="fill: #009e73; stroke: #009e73"/>
     <use xlink:href="#me6625bb04e" x="416.795403" y="801.93065" style="fill: #009e73; stroke: #009e73"/>
     <use xlink:href="#me6625bb04e" x="405.834916" y="801.683436" style="fill: #009e73; stroke: #009e73"/>
     <use xlink:href="#me6625bb04e" x="415.433355" y="806.195718" style="fill: #009e73; stroke: #009e73"/>
     <use xlink:href="#me6625bb04e" x="408.709068" y="803.919861" style="fill: #009e73; stroke: #009e73"/>
     <use xlink:href="#me6625bb04e" x="417.501897" y="801.017096" style="fill: #009e73; stroke: #009e73"/>
     <use xlink:href="#me6625bb04e" x="408.704479" y="804.237769" style="fill: #009e73; stroke: #009e73"/>
     <use xlink:href="#me6625bb04e" x="411.644105" y="803.053007" style="fill: #009e73; stroke: #009e73"/>
     <use xlink:href="#me6625bb04e" x="407.694114" y="801.844044" style="fill: #009e73; stroke: #009e73"/>
     <use xlink:href="#me6625bb04e" x="408.084576" y="808.4912" style="fill: #009e73; stroke: #009e73"/>
     <use xlink:href="#me6625bb04e" x="409.971538" y="805.465632" style="fill: #009e73; stroke: #009e73"/>
     <use xlink:href="#me6625bb04e" x="411.767212" y="806.9703" style="fill: #009e73; stroke: #009e73"/>
     <use xlink:href="#me6625bb04e" x="410.09066" y="807.267671" style="fill: #009e73; stroke: #009e73"/>
     <use xlink:href="#me6625bb04e" x="409.687053" y="806.034768" style="fill: #009e73; stroke: #009e73"/>
     <use xlink:href="#me6625bb04e" x="417.694248" y="803.084266" style="fill: #009e73; stroke: #009e73"/>
     <use xlink:href="#me6625bb04e" x="407.692508" y="803.914113" style="fill: #009e73; stroke: #009e73"/>
     <use xlink:href="#me6625bb04e" x="409.154093" y="803.211304" style="fill: #009e73; stroke: #009e73"/>
     <use xlink:href="#me6625bb04e" x="410.338625" y="803.793778" style="fill: #009e73; stroke: #009e73"/>
     <use xlink:href="#me6625bb04e" x="404.658672" y="802.864538" style="fill: #009e73; stroke: #009e73"/>
     <use xlink:href="#me6625bb04e" x="413.198807" y="803.404879" style="fill: #009e73; stroke: #009e73"/>
    </g>
   </g>
   <g id="PathCollection_8">
    <g clip-path="url(#p1b0510ed34)">
     <use xlink:href="#mc02586a5fb" x="545.187923" y="661.603482" style="fill: #cc79a7; stroke: #cc79a7"/>
     <use xlink:href="#mc02586a5fb" x="545.154285" y="662.958182" style="fill: #cc79a7; stroke: #cc79a7"/>
     <use xlink:href="#mc02586a5fb" x="548.103894" y="656.248465" style="fill: #cc79a7; stroke: #cc79a7"/>
     <use xlink:href="#mc02586a5fb" x="546.969852" y="643.312785" style="fill: #cc79a7; stroke: #cc79a7"/>
     <use xlink:href="#mc02586a5fb" x="556.08417" y="663.277489" style="fill: #cc79a7; stroke: #cc79a7"/>
     <use xlink:href="#mc02586a5fb" x="551.493348" y="664.925256" style="fill: #cc79a7; stroke: #cc79a7"/>
     <use xlink:href="#mc02586a5fb" x="551.120773" y="649.567023" style="fill: #cc79a7; stroke: #cc79a7"/>
     <use xlink:href="#mc02586a5fb" x="553.452463" y="669.570516" style="fill: #cc79a7; stroke: #cc79a7"/>
     <use xlink:href="#mc02586a5fb" x="543.530891" y="634.178579" style="fill: #cc79a7; stroke: #cc79a7"/>
     <use xlink:href="#mc02586a5fb" x="548.166249" y="657.837289" style="fill: #cc79a7; stroke: #cc79a7"/>
     <use xlink:href="#mc02586a5fb" x="551.90884" y="618.292594" style="fill: #cc79a7; stroke: #cc79a7"/>
     <use xlink:href="#mc02586a5fb" x="547.152044" y="642.481179" style="fill: #cc79a7; stroke: #cc79a7"/>
     <use xlink:href="#mc02586a5fb" x="550.183419" y="655.111761" style="fill: #cc79a7; stroke: #cc79a7"/>
     <use xlink:href="#mc02586a5fb" x="554.485251" y="649.317005" style="fill: #cc79a7; stroke: #cc79a7"/>
     <use xlink:href="#mc02586a5fb" x="548.750106" y="657.61589" style="fill: #cc79a7; stroke: #cc79a7"/>
     <use xlink:href="#mc02586a5fb" x="552.246613" y="631.851228" style="fill: #cc79a7; stroke: #cc79a7"/>
     <use xlink:href="#mc02586a5fb" x="552.965719" y="646.514754" style="fill: #cc79a7; stroke: #cc79a7"/>
     <use xlink:href="#mc02586a5fb" x="550.028366" y="652.708179" style="fill: #cc79a7; stroke: #cc79a7"/>
     <use xlink:href="#mc02586a5fb" x="553.264618" y="672.662887" style="fill: #cc79a7; stroke: #cc79a7"/>
     <use xlink:href="#mc02586a5fb" x="547.140442" y="647.112373" style="fill: #cc79a7; stroke: #cc79a7"/>
     <use xlink:href="#mc02586a5fb" x="546.492846" y="688.46661" style="fill: #cc79a7; stroke: #cc79a7"/>
     <use xlink:href="#mc02586a5fb" x="556.763779" y="666.021594" style="fill: #cc79a7; stroke: #cc79a7"/>
     <use xlink:href="#mc02586a5fb" x="552.257297" y="661.762081" style="fill: #cc79a7; stroke: #cc79a7"/>
     <use xlink:href="#mc02586a5fb" x="543.55311" y="636.623726" style="fill: #cc79a7; stroke: #cc79a7"/>
     <use xlink:href="#mc02586a5fb" x="548.535317" y="651.833861" style="fill: #cc79a7; stroke: #cc79a7"/>
     <use xlink:href="#mc02586a5fb" x="553.771179" y="663.911097" style="fill: #cc79a7; stroke: #cc79a7"/>
     <use xlink:href="#mc02586a5fb" x="551.452618" y="664.215934" style="fill: #cc79a7; stroke: #cc79a7"/>
     <use xlink:href="#mc02586a5fb" x="547.353573" y="658.537024" style="fill: #cc79a7; stroke: #cc79a7"/>
     <use xlink:href="#mc02586a5fb" x="556.352214" y="605.194056" style="fill: #cc79a7; stroke: #cc79a7"/>
     <use xlink:href="#mc02586a5fb" x="549.019266" y="657.743191" style="fill: #cc79a7; stroke: #cc79a7"/>
     <use xlink:href="#mc02586a5fb" x="547.730645" y="671.76829" style="fill: #cc79a7; stroke: #cc79a7"/>
     <use xlink:href="#mc02586a5fb" x="546.658479" y="642.525862" style="fill: #cc79a7; stroke: #cc79a7"/>
     <use xlink:href="#mc02586a5fb" x="551.756516" y="647.678381" style="fill: #cc79a7; stroke: #cc79a7"/>
     <use xlink:href="#mc02586a5fb" x="546.828254" y="665.911037" style="fill: #cc79a7; stroke: #cc79a7"/>
     <use xlink:href="#mc02586a5fb" x="553.681698" y="663.841328" style="fill: #cc79a7; stroke: #cc79a7"/>
     <use xlink:href="#mc02586a5fb" x="549.111712" y="662.991897" style="fill: #cc79a7; stroke: #cc79a7"/>
     <use xlink:href="#mc02586a5fb" x="543.545219" y="673.061864" style="fill: #cc79a7; stroke: #cc79a7"/>
     <use xlink:href="#mc02586a5fb" x="553.765035" y="651.755523" style="fill: #cc79a7; stroke: #cc79a7"/>
     <use xlink:href="#mc02586a5fb" x="555.003067" y="659.738392" style="fill: #cc79a7; stroke: #cc79a7"/>
    </g>
   </g>
   <g id="patch_12">
    <path d="M 149.2875 751.26731 
L 170.2125 751.26731 
L 170.2125 746.854882 
L 149.2875 746.854882 
L 149.2875 751.26731 
z
" clip-path="url(#p1b0510ed34)" style="fill: #d55e00; opacity: 0.5; stroke: #000000; stroke-linejoin: miter"/>
   </g>
   <g id="line2d_39">
    <path d="M 159.75 751.26731 
L 159.75 755.480633 
" clip-path="url(#p1b0510ed34)" style="fill: none; stroke: #000000; stroke-linecap: round"/>
   </g>
   <g id="line2d_40">
    <path d="M 159.75 746.854882 
L 159.75 744.650918 
" clip-path="url(#p1b0510ed34)" style="fill: none; stroke: #000000; stroke-linecap: round"/>
   </g>
   <g id="line2d_41">
    <path d="M 154.51875 755.480633 
L 164.98125 755.480633 
" clip-path="url(#p1b0510ed34)" style="fill: none; stroke: #000000; stroke-linecap: round"/>
   </g>
   <g id="line2d_42">
    <path d="M 154.51875 744.650918 
L 164.98125 744.650918 
" clip-path="url(#p1b0510ed34)" style="fill: none; stroke: #000000; stroke-linecap: round"/>
   </g>
   <g id="patch_13">
    <path d="M 288.7875 866.915508 
L 309.7125 866.915508 
L 309.7125 853.833579 
L 288.7875 853.833579 
L 288.7875 866.915508 
z
" clip-path="url(#p1b0510ed34)" style="fill: #0072b2; opacity: 0.5; stroke: #000000; stroke-linejoin: miter"/>
   </g>
   <g id="line2d_43">
    <path d="M 299.25 866.915508 
L 299.25 885.647021 
" clip-path="url(#p1b0510ed34)" style="fill: none; stroke: #000000; stroke-linecap: round"/>
   </g>
   <g id="line2d_44">
    <path d="M 299.25 853.833579 
L 299.25 835.492733 
" clip-path="url(#p1b0510ed34)" style="fill: none; stroke: #000000; stroke-linecap: round"/>
   </g>
   <g id="line2d_45">
    <path d="M 294.01875 885.647021 
L 304.48125 885.647021 
" clip-path="url(#p1b0510ed34)" style="fill: none; stroke: #000000; stroke-linecap: round"/>
   </g>
   <g id="line2d_46">
    <path d="M 294.01875 835.492733 
L 304.48125 835.492733 
" clip-path="url(#p1b0510ed34)" style="fill: none; stroke: #000000; stroke-linecap: round"/>
   </g>
   <g id="patch_14">
    <path d="M 428.2875 805.654481 
L 449.2125 805.654481 
L 449.2125 803.147785 
L 428.2875 803.147785 
L 428.2875 805.654481 
z
" clip-path="url(#p1b0510ed34)" style="fill: #009e73; opacity: 0.5; stroke: #000000; stroke-linejoin: miter"/>
   </g>
   <g id="line2d_47">
    <path d="M 438.75 805.654481 
L 438.75 808.4912 
" clip-path="url(#p1b0510ed34)" style="fill: none; stroke: #000000; stroke-linecap: round"/>
   </g>
   <g id="line2d_48">
    <path d="M 438.75 803.147785 
L 438.75 801.017096 
" clip-path="url(#p1b0510ed34)" style="fill: none; stroke: #000000; stroke-linecap: round"/>
   </g>
   <g id="line2d_49">
    <path d="M 433.51875 808.4912 
L 443.98125 808.4912 
" clip-path="url(#p1b0510ed34)" style="fill: none; stroke: #000000; stroke-linecap: round"/>
   </g>
   <g id="line2d_50">
    <path d="M 433.51875 801.017096 
L 443.98125 801.017096 
" clip-path="url(#p1b0510ed34)" style="fill: none; stroke: #000000; stroke-linecap: round"/>
   </g>
   <g id="patch_15">
    <path d="M 567.7875 663.876213 
L 588.7125 663.876213 
L 588.7125 647.395377 
L 567.7875 647.395377 
L 567.7875 663.876213 
z
" clip-path="url(#p1b0510ed34)" style="fill: #cc79a7; opacity: 0.5; stroke: #000000; stroke-linejoin: miter"/>
   </g>
   <g id="line2d_51">
    <path d="M 578.25 663.876213 
L 578.25 688.46661 
" clip-path="url(#p1b0510ed34)" style="fill: none; stroke: #000000; stroke-linecap: round"/>
   </g>
   <g id="line2d_52">
    <path d="M 578.25 647.395377 
L 578.25 631.851228 
" clip-path="url(#p1b0510ed34)" style="fill: none; stroke: #000000; stroke-linecap: round"/>
   </g>
   <g id="line2d_53">
    <path d="M 573.01875 688.46661 
L 583.48125 688.46661 
" clip-path="url(#p1b0510ed34)" style="fill: none; stroke: #000000; stroke-linecap: round"/>
   </g>
   <g id="line2d_54">
    <path d="M 573.01875 631.851228 
L 583.48125 631.851228 
" clip-path="url(#p1b0510ed34)" style="fill: none; stroke: #000000; stroke-linecap: round"/>
   </g>
   <g id="line2d_55">
    <path d="M 149.2875 749.300471 
L 170.2125 749.300471 
" clip-path="url(#p1b0510ed34)" style="fill: none; stroke: #000000"/>
   </g>
   <g id="line2d_56">
    <path d="M 288.7875 858.668002 
L 309.7125 858.668002 
" clip-path="url(#p1b0510ed34)" style="fill: none; stroke: #000000"/>
   </g>
   <g id="line2d_57">
    <path d="M 428.2875 804.180189 
L 449.2125 804.180189 
" clip-path="url(#p1b0510ed34)" style="fill: none; stroke: #000000"/>
   </g>
   <g id="line2d_58">
    <path d="M 567.7875 657.743191 
L 588.7125 657.743191 
" clip-path="url(#p1b0510ed34)" style="fill: none; stroke: #000000"/>
   </g>
   <g id="patch_16">
    <path d="M 90 961.2 
L 90 583.2 
" style="fill: none; stroke: #262626; stroke-width: 1.25; stroke-linejoin: miter; stroke-linecap: square"/>
   </g>
   <g id="patch_17">
    <path d="M 648 961.2 
L 648 583.2 
" style="fill: none; stroke: #262626; stroke-width: 1.25; stroke-linejoin: miter; stroke-linecap: square"/>
   </g>
   <g id="patch_18">
    <path d="M 90 961.2 
L 648 961.2 
" style="fill: none; stroke: #262626; stroke-width: 1.25; stroke-linejoin: miter; stroke-linecap: square"/>
   </g>
   <g id="patch_19">
    <path d="M 90 583.2 
L 648 583.2 
" style="fill: none; stroke: #262626; stroke-width: 1.25; stroke-linejoin: miter; stroke-linecap: square"/>
   </g>
   <g id="text_22">
    <!-- HF-HRV -->
    <g style="fill: #262626" transform="translate(342.681094 563.2) scale(0.14 -0.14)">
     <defs>
      <path id="Arial-BoldMT-48" d="M 469 0 
L 469 4581 
L 1394 4581 
L 1394 2778 
L 3206 2778 
L 3206 4581 
L 4131 4581 
L 4131 0 
L 3206 0 
L 3206 2003 
L 1394 2003 
L 1394 0 
L 469 0 
z
" transform="scale(0.015625)"/>
      <path id="Arial-BoldMT-46" d="M 472 0 
L 472 4581 
L 3613 4581 
L 3613 3806 
L 1397 3806 
L 1397 2722 
L 3309 2722 
L 3309 1947 
L 1397 1947 
L 1397 0 
L 472 0 
z
" transform="scale(0.015625)"/>
      <path id="Arial-BoldMT-2d" d="M 359 1222 
L 359 2100 
L 2084 2100 
L 2084 1222 
L 359 1222 
z
" transform="scale(0.015625)"/>
      <path id="Arial-BoldMT-52" d="M 469 0 
L 469 4581 
L 2416 4581 
Q 3150 4581 3483 4457 
Q 3816 4334 4016 4018 
Q 4216 3703 4216 3297 
Q 4216 2781 3912 2445 
Q 3609 2109 3006 2022 
Q 3306 1847 3501 1637 
Q 3697 1428 4028 894 
L 4588 0 
L 3481 0 
L 2813 997 
Q 2456 1531 2325 1670 
Q 2194 1809 2047 1861 
Q 1900 1913 1581 1913 
L 1394 1913 
L 1394 0 
L 469 0 
z
M 1394 2644 
L 2078 2644 
Q 2744 2644 2909 2700 
Q 3075 2756 3169 2893 
Q 3263 3031 3263 3238 
Q 3263 3469 3139 3611 
Q 3016 3753 2791 3791 
Q 2678 3806 2116 3806 
L 1394 3806 
L 1394 2644 
z
" transform="scale(0.015625)"/>
      <path id="Arial-BoldMT-56" d="M 1634 0 
L -3 4581 
L 1000 4581 
L 2159 1191 
L 3281 4581 
L 4263 4581 
L 2622 0 
L 1634 0 
z
" transform="scale(0.015625)"/>
     </defs>
     <use xlink:href="#Arial-BoldMT-48"/>
     <use xlink:href="#Arial-BoldMT-46" x="72.216797"/>
     <use xlink:href="#Arial-BoldMT-2d" x="133.300781"/>
     <use xlink:href="#Arial-BoldMT-48" x="166.601562"/>
     <use xlink:href="#Arial-BoldMT-52" x="238.818359"/>
     <use xlink:href="#Arial-BoldMT-56" x="309.285156"/>
    </g>
   </g>
  </g>
 </g>
 <defs>
  <clipPath id="p3a0f4e6450">
   <rect x="90" y="129.6" width="558" height="378"/>
  </clipPath>
  <clipPath id="p1b0510ed34">
   <rect x="90" y="583.2" width="558" height="378"/>
  </clipPath>
 </defs>
</svg>
