<?xml version="1.0" encoding="utf-8" standalone="no"?>
<!DOCTYPE svg PUBLIC "-//W3C//DTD SVG 1.1//EN"
  "http://www.w3.org/Graphics/SVG/1.1/DTD/svg11.dtd">
<svg xmlns:xlink="http://www.w3.org/1999/xlink" width="720pt" height="1080pt" viewBox="0 0 720 1080" xmlns="http://www.w3.org/2000/svg" version="1.1">
 <metadata>
  <rdf:RDF xmlns:dc="http://purl.org/dc/elements/1.1/" xmlns:cc="http://creativecommons.org/ns#" xmlns:rdf="http://www.w3.org/1999/02/22-rdf-syntax-ns#">
   <cc:Work>
    <dc:type rdf:resource="http://purl.org/dc/dcmitype/StillImage"/>
    <dc:date>2024-08-22T15:33:22.936226</dc:date>
    <dc:format>image/svg+xml</dc:format>
    <dc:creator>
     <cc:Agent>
      <dc:title>Matplotlib v3.8.0, https://matplotlib.org/</dc:title>
     </cc:Agent>
    </dc:creator>
   </cc:Work>
  </rdf:RDF>
 </metadata>
 <defs>
  <style type="text/css">*{stroke-linejoin: round; stroke-linecap: butt}</style>
 </defs>
 <g id="figure_1">
  <g id="patch_1">
   <path d="M 0 1080 
L 720 1080 
L 720 0 
L 0 0 
z
" style="fill: #ffffff"/>
  </g>
  <g id="axes_1">
   <g id="patch_2">
    <path d="M 90 507.6 
L 648 507.6 
L 648 129.6 
L 90 129.6 
z
" style="fill: #ffffff"/>
   </g>
   <g id="matplotlib.axis_1">
    <g id="xtick_1">
     <g id="line2d_1">
      <defs>
       <path id="ma21700efd8" d="M 0 0 
L 0 6 
" style="stroke: #262626; stroke-width: 1.25"/>
      </defs>
      <g>
       <use xlink:href="#ma21700efd8" x="159.75" y="507.6" style="fill: #262626; stroke: #262626; stroke-width: 1.25"/>
      </g>
     </g>
     <g id="text_1">
      <!-- State 1 -->
      <g style="fill: #262626" transform="translate(142.321875 524.973594) scale(0.11 -0.11)">
       <defs>
        <path id="ArialMT-53" d="M 288 1472 
L 859 1522 
Q 900 1178 1048 958 
Q 1197 738 1509 602 
Q 1822 466 2213 466 
Q 2559 466 2825 569 
Q 3091 672 3220 851 
Q 3350 1031 3350 1244 
Q 3350 1459 3225 1620 
Q 3100 1781 2813 1891 
Q 2628 1963 1997 2114 
Q 1366 2266 1113 2400 
Q 784 2572 623 2826 
Q 463 3081 463 3397 
Q 463 3744 659 4045 
Q 856 4347 1234 4503 
Q 1613 4659 2075 4659 
Q 2584 4659 2973 4495 
Q 3363 4331 3572 4012 
Q 3781 3694 3797 3291 
L 3216 3247 
Q 3169 3681 2898 3903 
Q 2628 4125 2100 4125 
Q 1550 4125 1298 3923 
Q 1047 3722 1047 3438 
Q 1047 3191 1225 3031 
Q 1400 2872 2139 2705 
Q 2878 2538 3153 2413 
Q 3553 2228 3743 1945 
Q 3934 1663 3934 1294 
Q 3934 928 3725 604 
Q 3516 281 3123 101 
Q 2731 -78 2241 -78 
Q 1619 -78 1198 103 
Q 778 284 539 648 
Q 300 1013 288 1472 
z
" transform="scale(0.015625)"/>
        <path id="ArialMT-74" d="M 1650 503 
L 1731 6 
Q 1494 -44 1306 -44 
Q 1000 -44 831 53 
Q 663 150 594 308 
Q 525 466 525 972 
L 525 2881 
L 113 2881 
L 113 3319 
L 525 3319 
L 525 4141 
L 1084 4478 
L 1084 3319 
L 1650 3319 
L 1650 2881 
L 1084 2881 
L 1084 941 
Q 1084 700 1114 631 
Q 1144 563 1211 522 
Q 1278 481 1403 481 
Q 1497 481 1650 503 
z
" transform="scale(0.015625)"/>
        <path id="ArialMT-61" d="M 2588 409 
Q 2275 144 1986 34 
Q 1697 -75 1366 -75 
Q 819 -75 525 192 
Q 231 459 231 875 
Q 231 1119 342 1320 
Q 453 1522 633 1644 
Q 813 1766 1038 1828 
Q 1203 1872 1538 1913 
Q 2219 1994 2541 2106 
Q 2544 2222 2544 2253 
Q 2544 2597 2384 2738 
Q 2169 2928 1744 2928 
Q 1347 2928 1158 2789 
Q 969 2650 878 2297 
L 328 2372 
Q 403 2725 575 2942 
Q 747 3159 1072 3276 
Q 1397 3394 1825 3394 
Q 2250 3394 2515 3294 
Q 2781 3194 2906 3042 
Q 3031 2891 3081 2659 
Q 3109 2516 3109 2141 
L 3109 1391 
Q 3109 606 3145 398 
Q 3181 191 3288 0 
L 2700 0 
Q 2613 175 2588 409 
z
M 2541 1666 
Q 2234 1541 1622 1453 
Q 1275 1403 1131 1340 
Q 988 1278 909 1158 
Q 831 1038 831 891 
Q 831 666 1001 516 
Q 1172 366 1500 366 
Q 1825 366 2078 508 
Q 2331 650 2450 897 
Q 2541 1088 2541 1459 
L 2541 1666 
z
" transform="scale(0.015625)"/>
        <path id="ArialMT-65" d="M 2694 1069 
L 3275 997 
Q 3138 488 2766 206 
Q 2394 -75 1816 -75 
Q 1088 -75 661 373 
Q 234 822 234 1631 
Q 234 2469 665 2931 
Q 1097 3394 1784 3394 
Q 2450 3394 2872 2941 
Q 3294 2488 3294 1666 
Q 3294 1616 3291 1516 
L 816 1516 
Q 847 969 1125 678 
Q 1403 388 1819 388 
Q 2128 388 2347 550 
Q 2566 713 2694 1069 
z
M 847 1978 
L 2700 1978 
Q 2663 2397 2488 2606 
Q 2219 2931 1791 2931 
Q 1403 2931 1139 2672 
Q 875 2413 847 1978 
z
" transform="scale(0.015625)"/>
        <path id="ArialMT-20" transform="scale(0.015625)"/>
        <path id="ArialMT-31" d="M 2384 0 
L 1822 0 
L 1822 3584 
Q 1619 3391 1289 3197 
Q 959 3003 697 2906 
L 697 3450 
Q 1169 3672 1522 3987 
Q 1875 4303 2022 4600 
L 2384 4600 
L 2384 0 
z
" transform="scale(0.015625)"/>
       </defs>
       <use xlink:href="#ArialMT-53"/>
       <use xlink:href="#ArialMT-74" x="66.699219"/>
       <use xlink:href="#ArialMT-61" x="94.482422"/>
       <use xlink:href="#ArialMT-74" x="150.097656"/>
       <use xlink:href="#ArialMT-65" x="177.880859"/>
       <use xlink:href="#ArialMT-20" x="233.496094"/>
       <use xlink:href="#ArialMT-31" x="261.279297"/>
      </g>
     </g>
    </g>
    <g id="xtick_2">
     <g id="line2d_2">
      <g>
       <use xlink:href="#ma21700efd8" x="299.25" y="507.6" style="fill: #262626; stroke: #262626; stroke-width: 1.25"/>
      </g>
     </g>
     <g id="text_2">
      <!-- State 2 -->
      <g style="fill: #262626" transform="translate(281.821875 524.973594) scale(0.11 -0.11)">
       <defs>
        <path id="ArialMT-32" d="M 3222 541 
L 3222 0 
L 194 0 
Q 188 203 259 391 
Q 375 700 629 1000 
Q 884 1300 1366 1694 
Q 2113 2306 2375 2664 
Q 2638 3022 2638 3341 
Q 2638 3675 2398 3904 
Q 2159 4134 1775 4134 
Q 1369 4134 1125 3890 
Q 881 3647 878 3216 
L 300 3275 
Q 359 3922 746 4261 
Q 1134 4600 1788 4600 
Q 2447 4600 2831 4234 
Q 3216 3869 3216 3328 
Q 3216 3053 3103 2787 
Q 2991 2522 2730 2228 
Q 2469 1934 1863 1422 
Q 1356 997 1212 845 
Q 1069 694 975 541 
L 3222 541 
z
" transform="scale(0.015625)"/>
       </defs>
       <use xlink:href="#ArialMT-53"/>
       <use xlink:href="#ArialMT-74" x="66.699219"/>
       <use xlink:href="#ArialMT-61" x="94.482422"/>
       <use xlink:href="#ArialMT-74" x="150.097656"/>
       <use xlink:href="#ArialMT-65" x="177.880859"/>
       <use xlink:href="#ArialMT-20" x="233.496094"/>
       <use xlink:href="#ArialMT-32" x="261.279297"/>
      </g>
     </g>
    </g>
    <g id="xtick_3">
     <g id="line2d_3">
      <g>
       <use xlink:href="#ma21700efd8" x="438.75" y="507.6" style="fill: #262626; stroke: #262626; stroke-width: 1.25"/>
      </g>
     </g>
     <g id="text_3">
      <!-- State 3 -->
      <g style="fill: #262626" transform="translate(421.321875 524.973594) scale(0.11 -0.11)">
       <defs>
        <path id="ArialMT-33" d="M 269 1209 
L 831 1284 
Q 928 806 1161 595 
Q 1394 384 1728 384 
Q 2125 384 2398 659 
Q 2672 934 2672 1341 
Q 2672 1728 2419 1979 
Q 2166 2231 1775 2231 
Q 1616 2231 1378 2169 
L 1441 2663 
Q 1497 2656 1531 2656 
Q 1891 2656 2178 2843 
Q 2466 3031 2466 3422 
Q 2466 3731 2256 3934 
Q 2047 4138 1716 4138 
Q 1388 4138 1169 3931 
Q 950 3725 888 3313 
L 325 3413 
Q 428 3978 793 4289 
Q 1159 4600 1703 4600 
Q 2078 4600 2393 4439 
Q 2709 4278 2876 4000 
Q 3044 3722 3044 3409 
Q 3044 3113 2884 2869 
Q 2725 2625 2413 2481 
Q 2819 2388 3044 2092 
Q 3269 1797 3269 1353 
Q 3269 753 2831 336 
Q 2394 -81 1725 -81 
Q 1122 -81 723 278 
Q 325 638 269 1209 
z
" transform="scale(0.015625)"/>
       </defs>
       <use xlink:href="#ArialMT-53"/>
       <use xlink:href="#ArialMT-74" x="66.699219"/>
       <use xlink:href="#ArialMT-61" x="94.482422"/>
       <use xlink:href="#ArialMT-74" x="150.097656"/>
       <use xlink:href="#ArialMT-65" x="177.880859"/>
       <use xlink:href="#ArialMT-20" x="233.496094"/>
       <use xlink:href="#ArialMT-33" x="261.279297"/>
      </g>
     </g>
    </g>
    <g id="xtick_4">
     <g id="line2d_4">
      <g>
       <use xlink:href="#ma21700efd8" x="578.25" y="507.6" style="fill: #262626; stroke: #262626; stroke-width: 1.25"/>
      </g>
     </g>
     <g id="text_4">
      <!-- State 4 -->
      <g style="fill: #262626" transform="translate(560.821875 524.973594) scale(0.11 -0.11)">
       <defs>
        <path id="ArialMT-34" d="M 2069 0 
L 2069 1097 
L 81 1097 
L 81 1613 
L 2172 4581 
L 2631 4581 
L 2631 1613 
L 3250 1613 
L 3250 1097 
L 2631 1097 
L 2631 0 
L 2069 0 
z
M 2069 1613 
L 2069 3678 
L 634 1613 
L 2069 1613 
z
" transform="scale(0.015625)"/>
       </defs>
       <use xlink:href="#ArialMT-53"/>
       <use xlink:href="#ArialMT-74" x="66.699219"/>
       <use xlink:href="#ArialMT-61" x="94.482422"/>
       <use xlink:href="#ArialMT-74" x="150.097656"/>
       <use xlink:href="#ArialMT-65" x="177.880859"/>
       <use xlink:href="#ArialMT-20" x="233.496094"/>
       <use xlink:href="#ArialMT-34" x="261.279297"/>
      </g>
     </g>
    </g>
   </g>
   <g id="matplotlib.axis_2">
    <g id="ytick_1">
     <g id="line2d_5">
      <defs>
       <path id="m45a7d36bd0" d="M 0 0 
L -6 0 
" style="stroke: #262626; stroke-width: 1.25"/>
      </defs>
      <g>
       <use xlink:href="#m45a7d36bd0" x="90" y="460.888825" style="fill: #262626; stroke: #262626; stroke-width: 1.25"/>
      </g>
     </g>
     <g id="text_5">
      <!-- −1 -->
      <g style="fill: #262626" transform="translate(67.958281 464.825622) scale(0.11 -0.11)">
       <defs>
        <path id="ArialMT-2212" d="M 3381 1997 
L 356 1997 
L 356 2522 
L 3381 2522 
L 3381 1997 
z
" transform="scale(0.015625)"/>
       </defs>
       <use xlink:href="#ArialMT-2212"/>
       <use xlink:href="#ArialMT-31" x="58.398438"/>
      </g>
     </g>
    </g>
    <g id="ytick_2">
     <g id="line2d_6">
      <g>
       <use xlink:href="#m45a7d36bd0" x="90" y="383.62697" style="fill: #262626; stroke: #262626; stroke-width: 1.25"/>
      </g>
     </g>
     <g id="text_6">
      <!-- 0 -->
      <g style="fill: #262626" transform="translate(74.382969 387.563767) scale(0.11 -0.11)">
       <defs>
        <path id="ArialMT-30" d="M 266 2259 
Q 266 3072 433 3567 
Q 600 4063 929 4331 
Q 1259 4600 1759 4600 
Q 2128 4600 2406 4451 
Q 2684 4303 2865 4023 
Q 3047 3744 3150 3342 
Q 3253 2941 3253 2259 
Q 3253 1453 3087 958 
Q 2922 463 2592 192 
Q 2263 -78 1759 -78 
Q 1097 -78 719 397 
Q 266 969 266 2259 
z
M 844 2259 
Q 844 1131 1108 757 
Q 1372 384 1759 384 
Q 2147 384 2411 759 
Q 2675 1134 2675 2259 
Q 2675 3391 2411 3762 
Q 2147 4134 1753 4134 
Q 1366 4134 1134 3806 
Q 844 3388 844 2259 
z
" transform="scale(0.015625)"/>
       </defs>
       <use xlink:href="#ArialMT-30"/>
      </g>
     </g>
    </g>
    <g id="ytick_3">
     <g id="line2d_7">
      <g>
       <use xlink:href="#m45a7d36bd0" x="90" y="306.365114" style="fill: #262626; stroke: #262626; stroke-width: 1.25"/>
      </g>
     </g>
     <g id="text_7">
      <!-- 1 -->
      <g style="fill: #262626" transform="translate(74.382969 310.301911) scale(0.11 -0.11)">
       <use xlink:href="#ArialMT-31"/>
      </g>
     </g>
    </g>
    <g id="ytick_4">
     <g id="line2d_8">
      <g>
       <use xlink:href="#m45a7d36bd0" x="90" y="229.103259" style="fill: #262626; stroke: #262626; stroke-width: 1.25"/>
      </g>
     </g>
     <g id="text_8">
      <!-- 2 -->
      <g style="fill: #262626" transform="translate(74.382969 233.040056) scale(0.11 -0.11)">
       <use xlink:href="#ArialMT-32"/>
      </g>
     </g>
    </g>
    <g id="ytick_5">
     <g id="line2d_9">
      <g>
       <use xlink:href="#m45a7d36bd0" x="90" y="151.841403" style="fill: #262626; stroke: #262626; stroke-width: 1.25"/>
      </g>
     </g>
     <g id="text_9">
      <!-- 3 -->
      <g style="fill: #262626" transform="translate(74.382969 155.7782) scale(0.11 -0.11)">
       <use xlink:href="#ArialMT-33"/>
      </g>
     </g>
    </g>
    <g id="text_10">
     <!-- Value (z-scored) -->
     <g style="fill: #262626" transform="translate(61.432656 362.170313) rotate(-90) scale(0.12 -0.12)">
      <defs>
       <path id="ArialMT-56" d="M 1803 0 
L 28 4581 
L 684 4581 
L 1875 1253 
Q 2019 853 2116 503 
Q 2222 878 2363 1253 
L 3600 4581 
L 4219 4581 
L 2425 0 
L 1803 0 
z
" transform="scale(0.015625)"/>
       <path id="ArialMT-6c" d="M 409 0 
L 409 4581 
L 972 4581 
L 972 0 
L 409 0 
z
" transform="scale(0.015625)"/>
       <path id="ArialMT-75" d="M 2597 0 
L 2597 488 
Q 2209 -75 1544 -75 
Q 1250 -75 995 37 
Q 741 150 617 320 
Q 494 491 444 738 
Q 409 903 409 1263 
L 409 3319 
L 972 3319 
L 972 1478 
Q 972 1038 1006 884 
Q 1059 663 1231 536 
Q 1403 409 1656 409 
Q 1909 409 2131 539 
Q 2353 669 2445 892 
Q 2538 1116 2538 1541 
L 2538 3319 
L 3100 3319 
L 3100 0 
L 2597 0 
z
" transform="scale(0.015625)"/>
       <path id="ArialMT-28" d="M 1497 -1347 
Q 1031 -759 709 28 
Q 388 816 388 1659 
Q 388 2403 628 3084 
Q 909 3875 1497 4659 
L 1900 4659 
Q 1522 4009 1400 3731 
Q 1209 3300 1100 2831 
Q 966 2247 966 1656 
Q 966 153 1900 -1347 
L 1497 -1347 
z
" transform="scale(0.015625)"/>
       <path id="ArialMT-7a" d="M 125 0 
L 125 456 
L 2238 2881 
Q 1878 2863 1603 2863 
L 250 2863 
L 250 3319 
L 2963 3319 
L 2963 2947 
L 1166 841 
L 819 456 
Q 1197 484 1528 484 
L 3063 484 
L 3063 0 
L 125 0 
z
" transform="scale(0.015625)"/>
       <path id="ArialMT-2d" d="M 203 1375 
L 203 1941 
L 1931 1941 
L 1931 1375 
L 203 1375 
z
" transform="scale(0.015625)"/>
       <path id="ArialMT-73" d="M 197 991 
L 753 1078 
Q 800 744 1014 566 
Q 1228 388 1613 388 
Q 2000 388 2187 545 
Q 2375 703 2375 916 
Q 2375 1106 2209 1216 
Q 2094 1291 1634 1406 
Q 1016 1563 777 1677 
Q 538 1791 414 1992 
Q 291 2194 291 2438 
Q 291 2659 392 2848 
Q 494 3038 669 3163 
Q 800 3259 1026 3326 
Q 1253 3394 1513 3394 
Q 1903 3394 2198 3281 
Q 2494 3169 2634 2976 
Q 2775 2784 2828 2463 
L 2278 2388 
Q 2241 2644 2061 2787 
Q 1881 2931 1553 2931 
Q 1166 2931 1000 2803 
Q 834 2675 834 2503 
Q 834 2394 903 2306 
Q 972 2216 1119 2156 
Q 1203 2125 1616 2013 
Q 2213 1853 2448 1751 
Q 2684 1650 2818 1456 
Q 2953 1263 2953 975 
Q 2953 694 2789 445 
Q 2625 197 2315 61 
Q 2006 -75 1616 -75 
Q 969 -75 630 194 
Q 291 463 197 991 
z
" transform="scale(0.015625)"/>
       <path id="ArialMT-63" d="M 2588 1216 
L 3141 1144 
Q 3050 572 2676 248 
Q 2303 -75 1759 -75 
Q 1078 -75 664 370 
Q 250 816 250 1647 
Q 250 2184 428 2587 
Q 606 2991 970 3192 
Q 1334 3394 1763 3394 
Q 2303 3394 2647 3120 
Q 2991 2847 3088 2344 
L 2541 2259 
Q 2463 2594 2264 2762 
Q 2066 2931 1784 2931 
Q 1359 2931 1093 2626 
Q 828 2322 828 1663 
Q 828 994 1084 691 
Q 1341 388 1753 388 
Q 2084 388 2306 591 
Q 2528 794 2588 1216 
z
" transform="scale(0.015625)"/>
       <path id="ArialMT-6f" d="M 213 1659 
Q 213 2581 725 3025 
Q 1153 3394 1769 3394 
Q 2453 3394 2887 2945 
Q 3322 2497 3322 1706 
Q 3322 1066 3130 698 
Q 2938 331 2570 128 
Q 2203 -75 1769 -75 
Q 1072 -75 642 372 
Q 213 819 213 1659 
z
M 791 1659 
Q 791 1022 1069 705 
Q 1347 388 1769 388 
Q 2188 388 2466 706 
Q 2744 1025 2744 1678 
Q 2744 2294 2464 2611 
Q 2184 2928 1769 2928 
Q 1347 2928 1069 2612 
Q 791 2297 791 1659 
z
" transform="scale(0.015625)"/>
       <path id="ArialMT-72" d="M 416 0 
L 416 3319 
L 922 3319 
L 922 2816 
Q 1116 3169 1280 3281 
Q 1444 3394 1641 3394 
Q 1925 3394 2219 3213 
L 2025 2691 
Q 1819 2813 1613 2813 
Q 1428 2813 1281 2702 
Q 1134 2591 1072 2394 
Q 978 2094 978 1738 
L 978 0 
L 416 0 
z
" transform="scale(0.015625)"/>
       <path id="ArialMT-64" d="M 2575 0 
L 2575 419 
Q 2259 -75 1647 -75 
Q 1250 -75 917 144 
Q 584 363 401 755 
Q 219 1147 219 1656 
Q 219 2153 384 2558 
Q 550 2963 881 3178 
Q 1213 3394 1622 3394 
Q 1922 3394 2156 3267 
Q 2391 3141 2538 2938 
L 2538 4581 
L 3097 4581 
L 3097 0 
L 2575 0 
z
M 797 1656 
Q 797 1019 1065 703 
Q 1334 388 1700 388 
Q 2069 388 2326 689 
Q 2584 991 2584 1609 
Q 2584 2291 2321 2609 
Q 2059 2928 1675 2928 
Q 1300 2928 1048 2622 
Q 797 2316 797 1656 
z
" transform="scale(0.015625)"/>
       <path id="ArialMT-29" d="M 791 -1347 
L 388 -1347 
Q 1322 153 1322 1656 
Q 1322 2244 1188 2822 
Q 1081 3291 891 3722 
Q 769 4003 388 4659 
L 791 4659 
Q 1378 3875 1659 3084 
Q 1900 2403 1900 1659 
Q 1900 816 1576 28 
Q 1253 -759 791 -1347 
z
" transform="scale(0.015625)"/>
      </defs>
      <use xlink:href="#ArialMT-56"/>
      <use xlink:href="#ArialMT-61" x="59.324219"/>
      <use xlink:href="#ArialMT-6c" x="114.939453"/>
      <use xlink:href="#ArialMT-75" x="137.15625"/>
      <use xlink:href="#ArialMT-65" x="192.771484"/>
      <use xlink:href="#ArialMT-20" x="248.386719"/>
      <use xlink:href="#ArialMT-28" x="276.169922"/>
      <use xlink:href="#ArialMT-7a" x="309.470703"/>
      <use xlink:href="#ArialMT-2d" x="359.470703"/>
      <use xlink:href="#ArialMT-73" x="392.771484"/>
      <use xlink:href="#ArialMT-63" x="442.771484"/>
      <use xlink:href="#ArialMT-6f" x="492.771484"/>
      <use xlink:href="#ArialMT-72" x="548.386719"/>
      <use xlink:href="#ArialMT-65" x="581.6875"/>
      <use xlink:href="#ArialMT-64" x="637.302734"/>
      <use xlink:href="#ArialMT-29" x="692.917969"/>
     </g>
    </g>
   </g>
   <g id="PolyCollection_1">
    <defs>
     <path id="me7bc139003" d="M 166.343169 -669.323656 
L 159.967305 -669.323656 
L 159.967305 -670.820043 
L 159.967305 -672.31643 
L 159.967305 -673.812816 
L 159.967305 -675.309203 
L 159.967305 -676.805589 
L 159.967305 -678.301976 
L 159.967305 -679.798363 
L 159.967305 -681.294749 
L 159.967305 -682.791136 
L 159.967305 -684.287522 
L 159.967305 -685.783909 
L 159.967305 -687.280296 
L 159.967305 -688.776682 
L 159.967305 -690.273069 
L 159.967305 -691.769455 
L 159.967305 -693.265842 
L 159.967305 -694.762229 
L 159.967305 -696.258615 
L 159.967305 -697.755002 
L 159.967305 -699.251388 
L 159.967305 -700.747775 
L 159.967305 -702.244162 
L 159.967305 -703.740548 
L 159.967305 -705.236935 
L 159.967305 -706.733322 
L 159.967305 -708.229708 
L 159.967305 -709.726095 
L 159.967305 -711.222481 
L 159.967305 -712.718868 
L 159.967305 -714.215255 
L 159.967305 -715.711641 
L 159.967305 -717.208028 
L 159.967305 -718.704414 
L 161.992284 -718.704414 
L 161.992284 -718.704414 
L 162.140466 -717.208028 
L 162.328511 -715.711641 
L 162.702487 -714.215255 
L 163.43328 -712.718868 
L 164.677358 -711.222481 
L 166.538773 -709.726095 
L 169.042734 -708.229708 
L 172.126534 -706.733322 
L 175.648283 -705.236935 
L 179.409192 -703.740548 
L 183.181566 -702.244162 
L 186.733466 -700.747775 
L 189.843749 -699.251388 
L 192.308527 -697.755002 
L 193.948069 -696.258615 
L 194.625 -694.762229 
L 194.275841 -693.265842 
L 192.943135 -691.769455 
L 190.786934 -690.273069 
L 188.061848 -688.776682 
L 185.065296 -687.280296 
L 182.079101 -685.783909 
L 179.326842 -684.287522 
L 176.955003 -682.791136 
L 175.03077 -681.294749 
L 173.545828 -679.798363 
L 172.423418 -678.301976 
L 171.534117 -676.805589 
L 170.724947 -675.309203 
L 169.857394 -673.812816 
L 168.841898 -672.31643 
L 167.656311 -670.820043 
L 166.343169 -669.323656 
z
" style="stroke: #d55e00; stroke-opacity: 0.3"/>
    </defs>
    <g clip-path="url(#p017c783b8d)">
     <use xlink:href="#me7bc139003" x="0" y="1080" style="fill: #d55e00; fill-opacity: 0.3; stroke: #d55e00; stroke-opacity: 0.3"/>
    </g>
   </g>
   <g id="PolyCollection_2">
    <defs>
     <path id="m788c2a9711" d="M 307.417577 -695.662481 
L 299.592342 -695.662481 
L 299.592342 -698.178602 
L 299.592342 -700.694723 
L 299.592342 -703.210844 
L 299.592342 -705.726965 
L 299.592342 -708.243085 
L 299.592342 -710.759206 
L 299.592342 -713.275327 
L 299.592342 -715.791448 
L 299.592342 -718.307569 
L 299.592342 -720.82369 
L 299.592342 -723.339811 
L 299.592342 -725.855932 
L 299.592342 -728.372053 
L 299.592342 -730.888174 
L 299.592342 -733.404295 
L 299.592342 -735.920415 
L 299.592342 -738.436536 
L 299.592342 -740.952657 
L 299.592342 -743.468778 
L 299.592342 -745.984899 
L 299.592342 -748.50102 
L 299.592342 -751.017141 
L 299.592342 -753.533262 
L 299.592342 -756.049383 
L 299.592342 -758.565504 
L 299.592342 -761.081624 
L 299.592342 -763.597745 
L 299.592342 -766.113866 
L 299.592342 -768.629987 
L 299.592342 -771.146108 
L 299.592342 -773.662229 
L 299.592342 -776.17835 
L 299.592342 -778.694471 
L 307.221146 -778.694471 
L 307.221146 -778.694471 
L 309.361088 -776.17835 
L 311.785353 -773.662229 
L 314.431342 -771.146108 
L 317.198743 -768.629987 
L 319.961752 -766.113866 
L 322.593177 -763.597745 
L 324.992973 -761.081624 
L 327.109348 -758.565504 
L 328.941472 -756.049383 
L 330.519858 -753.533262 
L 331.870768 -751.017141 
L 332.979874 -748.50102 
L 333.772861 -745.984899 
L 334.125 -743.468778 
L 333.899782 -740.952657 
L 333.003672 -738.436536 
L 331.435777 -735.920415 
L 329.311498 -733.404295 
L 326.848506 -730.888174 
L 324.317738 -728.372053 
L 321.975919 -725.855932 
L 320.003256 -723.339811 
L 318.46752 -720.82369 
L 317.324645 -718.307569 
L 316.451404 -715.791448 
L 315.694213 -713.275327 
L 314.914646 -710.759206 
L 314.017629 -708.243085 
L 312.958561 -705.726965 
L 311.735084 -703.210844 
L 310.37332 -700.694723 
L 308.916365 -698.178602 
L 307.417577 -695.662481 
z
" style="stroke: #0072b2; stroke-opacity: 0.3"/>
    </defs>
    <g clip-path="url(#p017c783b8d)">
     <use xlink:href="#m788c2a9711" x="0" y="1080" style="fill: #0072b2; fill-opacity: 0.3; stroke: #0072b2; stroke-opacity: 0.3"/>
    </g>
   </g>
   <g id="PolyCollection_3">
    <defs>
     <path id="mcef1103876" d="M 445.556457 -589.581818 
L 438.991961 -589.581818 
L 438.991961 -592.872946 
L 438.991961 -596.164074 
L 438.991961 -599.455202 
L 438.991961 -602.746329 
L 438.991961 -606.037457 
L 438.991961 -609.328585 
L 438.991961 -612.619713 
L 438.991961 -615.910841 
L 438.991961 -619.201969 
L 438.991961 -622.493096 
L 438.991961 -625.784224 
L 438.991961 -629.075352 
L 438.991961 -632.36648 
L 438.991961 -635.657608 
L 438.991961 -638.948736 
L 438.991961 -642.239863 
L 438.991961 -645.530991 
L 438.991961 -648.822119 
L 438.991961 -652.113247 
L 438.991961 -655.404375 
L 438.991961 -658.695503 
L 438.991961 -661.98663 
L 438.991961 -665.277758 
L 438.991961 -668.568886 
L 438.991961 -671.860014 
L 438.991961 -675.151142 
L 438.991961 -678.44227 
L 438.991961 -681.733397 
L 438.991961 -685.024525 
L 438.991961 -688.315653 
L 438.991961 -691.606781 
L 438.991961 -694.897909 
L 438.991961 -698.189037 
L 442.316296 -698.189037 
L 442.316296 -698.189037 
L 443.242231 -694.897909 
L 444.421301 -691.606781 
L 445.911047 -688.315653 
L 447.744203 -685.024525 
L 449.925954 -681.733397 
L 452.444341 -678.44227 
L 455.28234 -675.151142 
L 458.414151 -671.860014 
L 461.775913 -668.568886 
L 465.220847 -665.277758 
L 468.488193 -661.98663 
L 471.218624 -658.695503 
L 473.028947 -655.404375 
L 473.625 -652.113247 
L 472.904803 -648.822119 
L 471.002706 -645.530991 
L 468.25214 -642.239863 
L 465.083829 -638.948736 
L 461.905053 -635.657608 
L 459.008804 -632.36648 
L 456.540887 -629.075352 
L 454.522896 -625.784224 
L 452.906013 -622.493096 
L 451.624136 -619.201969 
L 450.623897 -615.910841 
L 449.865864 -612.619713 
L 449.306783 -609.328585 
L 448.880395 -606.037457 
L 448.492303 -602.746329 
L 448.034715 -599.455202 
L 447.415119 -596.164074 
L 446.585229 -592.872946 
L 445.556457 -589.581818 
z
" style="stroke: #009e73; stroke-opacity: 0.3"/>
    </defs>
    <g clip-path="url(#p017c783b8d)">
     <use xlink:href="#mcef1103876" x="0" y="1080" style="fill: #009e73; fill-opacity: 0.3; stroke: #009e73; stroke-opacity: 0.3"/>
    </g>
   </g>
   <g id="PolyCollection_4">
    <defs>
     <path id="m7a4b2bff5f" d="M 588.175737 -693.998979 
L 578.554607 -693.998979 
L 578.554607 -696.332189 
L 578.554607 -698.665398 
L 578.554607 -700.998608 
L 578.554607 -703.331817 
L 578.554607 -705.665027 
L 578.554607 -707.998236 
L 578.554607 -710.331446 
L 578.554607 -712.664655 
L 578.554607 -714.997865 
L 578.554607 -717.331074 
L 578.554607 -719.664284 
L 578.554607 -721.997493 
L 578.554607 -724.330703 
L 578.554607 -726.663912 
L 578.554607 -728.997122 
L 578.554607 -731.330331 
L 578.554607 -733.663541 
L 578.554607 -735.99675 
L 578.554607 -738.32996 
L 578.554607 -740.663169 
L 578.554607 -742.996379 
L 578.554607 -745.329588 
L 578.554607 -747.662798 
L 578.554607 -749.996007 
L 578.554607 -752.329217 
L 578.554607 -754.662426 
L 578.554607 -756.995636 
L 578.554607 -759.328845 
L 578.554607 -761.662055 
L 578.554607 -763.995264 
L 578.554607 -766.328474 
L 578.554607 -768.661683 
L 578.554607 -770.994893 
L 580.025616 -770.994893 
L 580.025616 -770.994893 
L 579.93332 -768.661683 
L 579.684735 -766.328474 
L 579.352712 -763.995264 
L 579.023895 -761.662055 
L 578.771202 -759.328845 
L 578.643814 -756.995636 
L 578.674547 -754.662426 
L 578.892184 -752.329217 
L 579.324938 -749.996007 
L 579.99007 -747.662798 
L 580.877316 -745.329588 
L 581.941943 -742.996379 
L 583.120759 -740.663169 
L 584.370793 -738.32996 
L 585.713373 -735.99675 
L 587.257758 -733.663541 
L 589.184933 -731.330331 
L 591.689219 -728.997122 
L 594.892145 -726.663912 
L 598.753162 -724.330703 
L 603.007514 -721.997493 
L 607.165175 -719.664284 
L 610.597576 -717.331074 
L 612.707344 -714.997865 
L 613.125 -712.664655 
L 611.839512 -710.331446 
L 609.187155 -707.998236 
L 605.699026 -705.665027 
L 601.892598 -703.331817 
L 598.121744 -700.998608 
L 594.549931 -698.665398 
L 591.224717 -696.332189 
L 588.175737 -693.998979 
z
" style="stroke: #cc79a7; stroke-opacity: 0.3"/>
    </defs>
    <g clip-path="url(#p017c783b8d)">
     <use xlink:href="#m7a4b2bff5f" x="0" y="1080" style="fill: #cc79a7; fill-opacity: 0.3; stroke: #cc79a7; stroke-opacity: 0.3"/>
    </g>
   </g>
   <g id="PathCollection_1">
    <defs>
     <path id="m5a0758a418" d="M 0 0.866025 
C 0.229673 0.866025 0.449969 0.774776 0.612372 0.612372 
C 0.774776 0.449969 0.866025 0.229673 0.866025 0 
C 0.866025 -0.229673 0.774776 -0.449969 0.612372 -0.612372 
C 0.449969 -0.774776 0.229673 -0.866025 0 -0.866025 
C -0.229673 -0.866025 -0.449969 -0.774776 -0.612372 -0.612372 
C -0.774776 -0.449969 -0.866025 -0.229673 -0.866025 0 
C -0.866025 0.229673 -0.774776 0.449969 -0.612372 0.612372 
C -0.449969 0.774776 -0.229673 0.866025 0 0.866025 
z
" style="stroke: #d55e00"/>
    </defs>
    <g clip-path="url(#p017c783b8d)">
     <use xlink:href="#m5a0758a418" x="126.779116" y="402.439736" style="fill: #d55e00; stroke: #d55e00"/>
     <use xlink:href="#m5a0758a418" x="127.042625" y="386.610008" style="fill: #d55e00; stroke: #d55e00"/>
     <use xlink:href="#m5a0758a418" x="129.761185" y="389.483012" style="fill: #d55e00; stroke: #d55e00"/>
     <use xlink:href="#m5a0758a418" x="134.113686" y="405.114231" style="fill: #d55e00; stroke: #d55e00"/>
     <use xlink:href="#m5a0758a418" x="137.343568" y="380.876361" style="fill: #d55e00; stroke: #d55e00"/>
     <use xlink:href="#m5a0758a418" x="135.003017" y="383.119923" style="fill: #d55e00; stroke: #d55e00"/>
     <use xlink:href="#m5a0758a418" x="131.09303" y="387.377321" style="fill: #d55e00; stroke: #d55e00"/>
     <use xlink:href="#m5a0758a418" x="137.87484" y="410.676344" style="fill: #d55e00; stroke: #d55e00"/>
     <use xlink:href="#m5a0758a418" x="125.914724" y="393.428821" style="fill: #d55e00; stroke: #d55e00"/>
     <use xlink:href="#m5a0758a418" x="125.914215" y="390.236888" style="fill: #d55e00; stroke: #d55e00"/>
     <use xlink:href="#m5a0758a418" x="125.153647" y="396.736184" style="fill: #d55e00; stroke: #d55e00"/>
     <use xlink:href="#m5a0758a418" x="131.331124" y="395.941181" style="fill: #d55e00; stroke: #d55e00"/>
     <use xlink:href="#m5a0758a418" x="133.946983" y="386.668357" style="fill: #d55e00; stroke: #d55e00"/>
     <use xlink:href="#m5a0758a418" x="125.762935" y="386.660657" style="fill: #d55e00; stroke: #d55e00"/>
     <use xlink:href="#m5a0758a418" x="125.250067" y="383.825764" style="fill: #d55e00; stroke: #d55e00"/>
     <use xlink:href="#m5a0758a418" x="129.336714" y="387.403049" style="fill: #d55e00; stroke: #d55e00"/>
     <use xlink:href="#m5a0758a418" x="129.851761" y="379.392343" style="fill: #d55e00; stroke: #d55e00"/>
     <use xlink:href="#m5a0758a418" x="135.831482" y="385.033401" style="fill: #d55e00; stroke: #d55e00"/>
     <use xlink:href="#m5a0758a418" x="134.508071" y="375.583407" style="fill: #d55e00; stroke: #d55e00"/>
     <use xlink:href="#m5a0758a418" x="133.360627" y="387.446627" style="fill: #d55e00; stroke: #d55e00"/>
     <use xlink:href="#m5a0758a418" x="134.88269" y="397.374803" style="fill: #d55e00; stroke: #d55e00"/>
     <use xlink:href="#m5a0758a418" x="132.688283" y="373.645022" style="fill: #d55e00; stroke: #d55e00"/>
     <use xlink:href="#m5a0758a418" x="137.979292" y="381.693498" style="fill: #d55e00; stroke: #d55e00"/>
     <use xlink:href="#m5a0758a418" x="127.059715" y="376.486058" style="fill: #d55e00; stroke: #d55e00"/>
     <use xlink:href="#m5a0758a418" x="127.490452" y="403.977289" style="fill: #d55e00; stroke: #d55e00"/>
     <use xlink:href="#m5a0758a418" x="125.251226" y="392.947974" style="fill: #d55e00; stroke: #d55e00"/>
     <use xlink:href="#m5a0758a418" x="131.732131" y="361.295586" style="fill: #d55e00; stroke: #d55e00"/>
     <use xlink:href="#m5a0758a418" x="134.293455" y="378.64645" style="fill: #d55e00; stroke: #d55e00"/>
     <use xlink:href="#m5a0758a418" x="127.060911" y="387.92603" style="fill: #d55e00; stroke: #d55e00"/>
     <use xlink:href="#m5a0758a418" x="136.272551" y="408.054519" style="fill: #d55e00; stroke: #d55e00"/>
     <use xlink:href="#m5a0758a418" x="136.118085" y="379.874907" style="fill: #d55e00; stroke: #d55e00"/>
     <use xlink:href="#m5a0758a418" x="133.969213" y="379.884349" style="fill: #d55e00; stroke: #d55e00"/>
     <use xlink:href="#m5a0758a418" x="125.981378" y="391.511664" style="fill: #d55e00; stroke: #d55e00"/>
     <use xlink:href="#m5a0758a418" x="132.271467" y="383.431889" style="fill: #d55e00; stroke: #d55e00"/>
    </g>
   </g>
   <g id="PathCollection_2">
    <defs>
     <path id="m3aae02de32" d="M 0 0.866025 
C 0.229673 0.866025 0.449969 0.774776 0.612372 0.612372 
C 0.774776 0.449969 0.866025 0.229673 0.866025 0 
C 0.866025 -0.229673 0.774776 -0.449969 0.612372 -0.612372 
C 0.449969 -0.774776 0.229673 -0.866025 0 -0.866025 
C -0.229673 -0.866025 -0.449969 -0.774776 -0.612372 -0.612372 
C -0.774776 -0.449969 -0.866025 -0.229673 -0.866025 0 
C -0.866025 0.229673 -0.774776 0.449969 -0.612372 0.612372 
C -0.449969 0.774776 -0.229673 0.866025 0 0.866025 
z
" style="stroke: #0072b2"/>
    </defs>
    <g clip-path="url(#p017c783b8d)">
     <use xlink:href="#m3aae02de32" x="264.992973" y="324.9464" style="fill: #0072b2; stroke: #0072b2"/>
     <use xlink:href="#m3aae02de32" x="274.75703" y="377.780248" style="fill: #0072b2; stroke: #0072b2"/>
     <use xlink:href="#m3aae02de32" x="266.141803" y="320.789076" style="fill: #0072b2; stroke: #0072b2"/>
     <use xlink:href="#m3aae02de32" x="272.256169" y="362.367701" style="fill: #0072b2; stroke: #0072b2"/>
     <use xlink:href="#m3aae02de32" x="270.481263" y="348.674941" style="fill: #0072b2; stroke: #0072b2"/>
     <use xlink:href="#m3aae02de32" x="272.463246" y="367.64519" style="fill: #0072b2; stroke: #0072b2"/>
     <use xlink:href="#m3aae02de32" x="273.088524" y="315.699201" style="fill: #0072b2; stroke: #0072b2"/>
     <use xlink:href="#m3aae02de32" x="277.886531" y="309.190864" style="fill: #0072b2; stroke: #0072b2"/>
     <use xlink:href="#m3aae02de32" x="277.14481" y="301.305529" style="fill: #0072b2; stroke: #0072b2"/>
     <use xlink:href="#m3aae02de32" x="267.172443" y="338.620499" style="fill: #0072b2; stroke: #0072b2"/>
     <use xlink:href="#m3aae02de32" x="272.085143" y="343.172421" style="fill: #0072b2; stroke: #0072b2"/>
     <use xlink:href="#m3aae02de32" x="275.387403" y="319.925174" style="fill: #0072b2; stroke: #0072b2"/>
     <use xlink:href="#m3aae02de32" x="266.711199" y="330.722204" style="fill: #0072b2; stroke: #0072b2"/>
     <use xlink:href="#m3aae02de32" x="267.225994" y="318.25068" style="fill: #0072b2; stroke: #0072b2"/>
     <use xlink:href="#m3aae02de32" x="264.809108" y="336.658842" style="fill: #0072b2; stroke: #0072b2"/>
     <use xlink:href="#m3aae02de32" x="269.852967" y="348.750438" style="fill: #0072b2; stroke: #0072b2"/>
     <use xlink:href="#m3aae02de32" x="265.826235" y="345.854872" style="fill: #0072b2; stroke: #0072b2"/>
     <use xlink:href="#m3aae02de32" x="270.666881" y="349.019964" style="fill: #0072b2; stroke: #0072b2"/>
     <use xlink:href="#m3aae02de32" x="276.43268" y="341.742624" style="fill: #0072b2; stroke: #0072b2"/>
     <use xlink:href="#m3aae02de32" x="277.691008" y="342.686972" style="fill: #0072b2; stroke: #0072b2"/>
     <use xlink:href="#m3aae02de32" x="272.719937" y="338.554888" style="fill: #0072b2; stroke: #0072b2"/>
     <use xlink:href="#m3aae02de32" x="265.203506" y="378.340886" style="fill: #0072b2; stroke: #0072b2"/>
     <use xlink:href="#m3aae02de32" x="271.25298" y="365.732142" style="fill: #0072b2; stroke: #0072b2"/>
     <use xlink:href="#m3aae02de32" x="270.10327" y="330.493552" style="fill: #0072b2; stroke: #0072b2"/>
     <use xlink:href="#m3aae02de32" x="273.953181" y="329.970864" style="fill: #0072b2; stroke: #0072b2"/>
     <use xlink:href="#m3aae02de32" x="272.987776" y="315.375379" style="fill: #0072b2; stroke: #0072b2"/>
     <use xlink:href="#m3aae02de32" x="270.065356" y="384.337519" style="fill: #0072b2; stroke: #0072b2"/>
     <use xlink:href="#m3aae02de32" x="270.578357" y="367.752471" style="fill: #0072b2; stroke: #0072b2"/>
     <use xlink:href="#m3aae02de32" x="268.658687" y="341.116345" style="fill: #0072b2; stroke: #0072b2"/>
     <use xlink:href="#m3aae02de32" x="272.396975" y="323.195237" style="fill: #0072b2; stroke: #0072b2"/>
     <use xlink:href="#m3aae02de32" x="270.101084" y="362.716702" style="fill: #0072b2; stroke: #0072b2"/>
     <use xlink:href="#m3aae02de32" x="270.250257" y="340.18518" style="fill: #0072b2; stroke: #0072b2"/>
     <use xlink:href="#m3aae02de32" x="266.661326" y="335.542139" style="fill: #0072b2; stroke: #0072b2"/>
     <use xlink:href="#m3aae02de32" x="271.980884" y="321.397769" style="fill: #0072b2; stroke: #0072b2"/>
    </g>
   </g>
   <g id="PathCollection_3">
    <defs>
     <path id="m1054ecd731" d="M 0 0.866025 
C 0.229673 0.866025 0.449969 0.774776 0.612372 0.612372 
C 0.774776 0.449969 0.866025 0.229673 0.866025 0 
C 0.866025 -0.229673 0.774776 -0.449969 0.612372 -0.612372 
C 0.449969 -0.774776 0.229673 -0.866025 0 -0.866025 
C -0.229673 -0.866025 -0.449969 -0.774776 -0.612372 -0.612372 
C -0.774776 -0.449969 -0.866025 -0.229673 -0.866025 0 
C -0.866025 0.229673 -0.774776 0.449969 -0.612372 0.612372 
C -0.449969 0.774776 -0.229673 0.866025 0 0.866025 
z
" style="stroke: #009e73"/>
    </defs>
    <g clip-path="url(#p017c783b8d)">
     <use xlink:href="#m1054ecd731" x="412.75124" y="428.053502" style="fill: #009e73; stroke: #009e73"/>
     <use xlink:href="#m1054ecd731" x="408.001207" y="406.182412" style="fill: #009e73; stroke: #009e73"/>
     <use xlink:href="#m1054ecd731" x="416.095175" y="428.918268" style="fill: #009e73; stroke: #009e73"/>
     <use xlink:href="#m1054ecd731" x="410.500799" y="381.810963" style="fill: #009e73; stroke: #009e73"/>
     <use xlink:href="#m1054ecd731" x="408.511556" y="435.406119" style="fill: #009e73; stroke: #009e73"/>
     <use xlink:href="#m1054ecd731" x="409.309262" y="446.868604" style="fill: #009e73; stroke: #009e73"/>
     <use xlink:href="#m1054ecd731" x="410.470733" y="454.954892" style="fill: #009e73; stroke: #009e73"/>
     <use xlink:href="#m1054ecd731" x="416.083253" y="447.914227" style="fill: #009e73; stroke: #009e73"/>
     <use xlink:href="#m1054ecd731" x="416.576964" y="453.710039" style="fill: #009e73; stroke: #009e73"/>
     <use xlink:href="#m1054ecd731" x="409.725963" y="427.625123" style="fill: #009e73; stroke: #009e73"/>
     <use xlink:href="#m1054ecd731" x="416.227722" y="427.322328" style="fill: #009e73; stroke: #009e73"/>
     <use xlink:href="#m1054ecd731" x="417.02241" y="464.142514" style="fill: #009e73; stroke: #009e73"/>
     <use xlink:href="#m1054ecd731" x="417.121513" y="428.175523" style="fill: #009e73; stroke: #009e73"/>
     <use xlink:href="#m1054ecd731" x="415.656087" y="438.98406" style="fill: #009e73; stroke: #009e73"/>
     <use xlink:href="#m1054ecd731" x="416.354881" y="428.532691" style="fill: #009e73; stroke: #009e73"/>
     <use xlink:href="#m1054ecd731" x="404.311421" y="427.09721" style="fill: #009e73; stroke: #009e73"/>
     <use xlink:href="#m1054ecd731" x="410.181931" y="426.130472" style="fill: #009e73; stroke: #009e73"/>
     <use xlink:href="#m1054ecd731" x="410.367623" y="484.072552" style="fill: #009e73; stroke: #009e73"/>
     <use xlink:href="#m1054ecd731" x="413.169312" y="408.252983" style="fill: #009e73; stroke: #009e73"/>
     <use xlink:href="#m1054ecd731" x="411.865192" y="479.083461" style="fill: #009e73; stroke: #009e73"/>
     <use xlink:href="#m1054ecd731" x="407.835391" y="408.571417" style="fill: #009e73; stroke: #009e73"/>
     <use xlink:href="#m1054ecd731" x="405.533232" y="402.414656" style="fill: #009e73; stroke: #009e73"/>
     <use xlink:href="#m1054ecd731" x="414.662243" y="490.418182" style="fill: #009e73; stroke: #009e73"/>
     <use xlink:href="#m1054ecd731" x="417.13273" y="436.473408" style="fill: #009e73; stroke: #009e73"/>
     <use xlink:href="#m1054ecd731" x="415.076744" y="462.495099" style="fill: #009e73; stroke: #009e73"/>
     <use xlink:href="#m1054ecd731" x="411.439855" y="405.054632" style="fill: #009e73; stroke: #009e73"/>
     <use xlink:href="#m1054ecd731" x="406.00122" y="421.249162" style="fill: #009e73; stroke: #009e73"/>
     <use xlink:href="#m1054ecd731" x="417.800217" y="421.505337" style="fill: #009e73; stroke: #009e73"/>
     <use xlink:href="#m1054ecd731" x="412.071296" y="422.323714" style="fill: #009e73; stroke: #009e73"/>
     <use xlink:href="#m1054ecd731" x="405.280604" y="426.836774" style="fill: #009e73; stroke: #009e73"/>
     <use xlink:href="#m1054ecd731" x="413.036231" y="431.476291" style="fill: #009e73; stroke: #009e73"/>
     <use xlink:href="#m1054ecd731" x="412.704174" y="426.417543" style="fill: #009e73; stroke: #009e73"/>
     <use xlink:href="#m1054ecd731" x="414.081835" y="480.133238" style="fill: #009e73; stroke: #009e73"/>
    </g>
   </g>
   <g id="PathCollection_4">
    <defs>
     <path id="m7a156b778d" d="M 0 0.866025 
C 0.229673 0.866025 0.449969 0.774776 0.612372 0.612372 
C 0.774776 0.449969 0.866025 0.229673 0.866025 0 
C 0.866025 -0.229673 0.774776 -0.449969 0.612372 -0.612372 
C 0.449969 -0.774776 0.229673 -0.866025 0 -0.866025 
C -0.229673 -0.866025 -0.449969 -0.774776 -0.612372 -0.612372 
C -0.774776 -0.449969 -0.866025 -0.229673 -0.866025 0 
C -0.866025 0.229673 -0.774776 0.449969 -0.612372 0.612372 
C -0.449969 0.774776 -0.229673 0.866025 0 0.866025 
z
" style="stroke: #cc79a7"/>
    </defs>
    <g clip-path="url(#p017c783b8d)">
     <use xlink:href="#m7a156b778d" x="550.43685" y="367.669401" style="fill: #cc79a7; stroke: #cc79a7"/>
     <use xlink:href="#m7a156b778d" x="550.650307" y="367.40357" style="fill: #cc79a7; stroke: #cc79a7"/>
     <use xlink:href="#m7a156b778d" x="550.636701" y="375.764525" style="fill: #cc79a7; stroke: #cc79a7"/>
     <use xlink:href="#m7a156b778d" x="551.410687" y="362.912277" style="fill: #cc79a7; stroke: #cc79a7"/>
     <use xlink:href="#m7a156b778d" x="546.610019" y="363.584403" style="fill: #cc79a7; stroke: #cc79a7"/>
     <use xlink:href="#m7a156b778d" x="552.874002" y="363.529495" style="fill: #cc79a7; stroke: #cc79a7"/>
     <use xlink:href="#m7a156b778d" x="547.940835" y="366.777591" style="fill: #cc79a7; stroke: #cc79a7"/>
     <use xlink:href="#m7a156b778d" x="546.741529" y="355.749502" style="fill: #cc79a7; stroke: #cc79a7"/>
     <use xlink:href="#m7a156b778d" x="554.5946" y="358.757581" style="fill: #cc79a7; stroke: #cc79a7"/>
     <use xlink:href="#m7a156b778d" x="543.762019" y="370.085288" style="fill: #cc79a7; stroke: #cc79a7"/>
     <use xlink:href="#m7a156b778d" x="556.08126" y="309.005107" style="fill: #cc79a7; stroke: #cc79a7"/>
     <use xlink:href="#m7a156b778d" x="543.995948" y="370.25852" style="fill: #cc79a7; stroke: #cc79a7"/>
     <use xlink:href="#m7a156b778d" x="555.342114" y="339.885559" style="fill: #cc79a7; stroke: #cc79a7"/>
     <use xlink:href="#m7a156b778d" x="548.543934" y="383.738323" style="fill: #cc79a7; stroke: #cc79a7"/>
     <use xlink:href="#m7a156b778d" x="556.582853" y="361.35326" style="fill: #cc79a7; stroke: #cc79a7"/>
     <use xlink:href="#m7a156b778d" x="555.022872" y="372.003859" style="fill: #cc79a7; stroke: #cc79a7"/>
     <use xlink:href="#m7a156b778d" x="551.925394" y="371.043389" style="fill: #cc79a7; stroke: #cc79a7"/>
     <use xlink:href="#m7a156b778d" x="551.502183" y="365.070624" style="fill: #cc79a7; stroke: #cc79a7"/>
     <use xlink:href="#m7a156b778d" x="555.492221" y="364.088711" style="fill: #cc79a7; stroke: #cc79a7"/>
     <use xlink:href="#m7a156b778d" x="554.905024" y="386.001021" style="fill: #cc79a7; stroke: #cc79a7"/>
     <use xlink:href="#m7a156b778d" x="552.241668" y="343.848609" style="fill: #cc79a7; stroke: #cc79a7"/>
     <use xlink:href="#m7a156b778d" x="546.122242" y="378.027478" style="fill: #cc79a7; stroke: #cc79a7"/>
     <use xlink:href="#m7a156b778d" x="557.19974" y="380.175214" style="fill: #cc79a7; stroke: #cc79a7"/>
     <use xlink:href="#m7a156b778d" x="552.532539" y="347.571929" style="fill: #cc79a7; stroke: #cc79a7"/>
     <use xlink:href="#m7a156b778d" x="548.457669" y="352.06526" style="fill: #cc79a7; stroke: #cc79a7"/>
     <use xlink:href="#m7a156b778d" x="554.802133" y="355.939971" style="fill: #cc79a7; stroke: #cc79a7"/>
     <use xlink:href="#m7a156b778d" x="554.062572" y="370.213931" style="fill: #cc79a7; stroke: #cc79a7"/>
     <use xlink:href="#m7a156b778d" x="556.034714" y="365.446117" style="fill: #cc79a7; stroke: #cc79a7"/>
     <use xlink:href="#m7a156b778d" x="556.643578" y="377.620608" style="fill: #cc79a7; stroke: #cc79a7"/>
     <use xlink:href="#m7a156b778d" x="547.455428" y="363.899008" style="fill: #cc79a7; stroke: #cc79a7"/>
     <use xlink:href="#m7a156b778d" x="543.874858" y="370.021721" style="fill: #cc79a7; stroke: #cc79a7"/>
     <use xlink:href="#m7a156b778d" x="554.325339" y="380.52283" style="fill: #cc79a7; stroke: #cc79a7"/>
     <use xlink:href="#m7a156b778d" x="545.116741" y="367.492219" style="fill: #cc79a7; stroke: #cc79a7"/>
     <use xlink:href="#m7a156b778d" x="544.330438" y="358.795999" style="fill: #cc79a7; stroke: #cc79a7"/>
    </g>
   </g>
   <g id="patch_3">
    <path d="M 149.2875 393.308609 
L 170.2125 393.308609 
L 170.2125 381.080645 
L 149.2875 381.080645 
L 149.2875 393.308609 
z
" clip-path="url(#p017c783b8d)" style="fill: #d55e00; opacity: 0.5; stroke: #000000; stroke-linejoin: miter"/>
   </g>
   <g id="line2d_10">
    <path d="M 159.75 393.308609 
L 159.75 410.676344 
" clip-path="url(#p017c783b8d)" style="fill: none; stroke: #000000; stroke-linecap: round"/>
   </g>
   <g id="line2d_11">
    <path d="M 159.75 381.080645 
L 159.75 373.645022 
" clip-path="url(#p017c783b8d)" style="fill: none; stroke: #000000; stroke-linecap: round"/>
   </g>
   <g id="line2d_12">
    <path d="M 154.51875 410.676344 
L 164.98125 410.676344 
" clip-path="url(#p017c783b8d)" style="fill: none; stroke: #000000; stroke-linecap: round"/>
   </g>
   <g id="line2d_13">
    <path d="M 154.51875 373.645022 
L 164.98125 373.645022 
" clip-path="url(#p017c783b8d)" style="fill: none; stroke: #000000; stroke-linecap: round"/>
   </g>
   <g id="patch_4">
    <path d="M 288.7875 348.952583 
L 309.7125 348.952583 
L 309.7125 323.633028 
L 288.7875 323.633028 
L 288.7875 348.952583 
z
" clip-path="url(#p017c783b8d)" style="fill: #0072b2; opacity: 0.5; stroke: #000000; stroke-linejoin: miter"/>
   </g>
   <g id="line2d_14">
    <path d="M 299.25 348.952583 
L 299.25 384.337519 
" clip-path="url(#p017c783b8d)" style="fill: none; stroke: #000000; stroke-linecap: round"/>
   </g>
   <g id="line2d_15">
    <path d="M 299.25 323.633028 
L 299.25 301.305529 
" clip-path="url(#p017c783b8d)" style="fill: none; stroke: #000000; stroke-linecap: round"/>
   </g>
   <g id="line2d_16">
    <path d="M 294.01875 384.337519 
L 304.48125 384.337519 
" clip-path="url(#p017c783b8d)" style="fill: none; stroke: #000000; stroke-linecap: round"/>
   </g>
   <g id="line2d_17">
    <path d="M 294.01875 301.305529 
L 304.48125 301.305529 
" clip-path="url(#p017c783b8d)" style="fill: none; stroke: #000000; stroke-linecap: round"/>
   </g>
   <g id="patch_5">
    <path d="M 428.2875 447.914227 
L 449.2125 447.914227 
L 449.2125 422.323714 
L 428.2875 422.323714 
L 428.2875 447.914227 
z
" clip-path="url(#p017c783b8d)" style="fill: #009e73; opacity: 0.5; stroke: #000000; stroke-linejoin: miter"/>
   </g>
   <g id="line2d_18">
    <path d="M 438.75 447.914227 
L 438.75 484.072552 
" clip-path="url(#p017c783b8d)" style="fill: none; stroke: #000000; stroke-linecap: round"/>
   </g>
   <g id="line2d_19">
    <path d="M 438.75 422.323714 
L 438.75 402.414656 
" clip-path="url(#p017c783b8d)" style="fill: none; stroke: #000000; stroke-linecap: round"/>
   </g>
   <g id="line2d_20">
    <path d="M 433.51875 484.072552 
L 443.98125 484.072552 
" clip-path="url(#p017c783b8d)" style="fill: none; stroke: #000000; stroke-linecap: round"/>
   </g>
   <g id="line2d_21">
    <path d="M 433.51875 402.414656 
L 443.98125 402.414656 
" clip-path="url(#p017c783b8d)" style="fill: none; stroke: #000000; stroke-linecap: round"/>
   </g>
   <g id="patch_6">
    <path d="M 567.7875 370.847171 
L 588.7125 370.847171 
L 588.7125 359.435314 
L 567.7875 359.435314 
L 567.7875 370.847171 
z
" clip-path="url(#p017c783b8d)" style="fill: #cc79a7; opacity: 0.5; stroke: #000000; stroke-linejoin: miter"/>
   </g>
   <g id="line2d_22">
    <path d="M 578.25 370.847171 
L 578.25 386.001021 
" clip-path="url(#p017c783b8d)" style="fill: none; stroke: #000000; stroke-linecap: round"/>
   </g>
   <g id="line2d_23">
    <path d="M 578.25 359.435314 
L 578.25 343.848609 
" clip-path="url(#p017c783b8d)" style="fill: none; stroke: #000000; stroke-linecap: round"/>
   </g>
   <g id="line2d_24">
    <path d="M 573.01875 386.001021 
L 583.48125 386.001021 
" clip-path="url(#p017c783b8d)" style="fill: none; stroke: #000000; stroke-linecap: round"/>
   </g>
   <g id="line2d_25">
    <path d="M 573.01875 343.848609 
L 583.48125 343.848609 
" clip-path="url(#p017c783b8d)" style="fill: none; stroke: #000000; stroke-linecap: round"/>
   </g>
   <g id="line2d_26">
    <path d="M 159.75 262.674601 
L 299.25 262.674601 
" clip-path="url(#p017c783b8d)" style="fill: none; stroke: #000000; stroke-width: 1.5; stroke-linecap: round"/>
   </g>
   <g id="line2d_27">
    <path d="M 159.75 239.496045 
L 438.75 239.496045 
" clip-path="url(#p017c783b8d)" style="fill: none; stroke: #000000; stroke-width: 1.5; stroke-linecap: round"/>
   </g>
   <g id="line2d_28">
    <path d="M 159.75 216.317488 
L 578.25 216.317488 
" clip-path="url(#p017c783b8d)" style="fill: none; stroke: #000000; stroke-width: 1.5; stroke-linecap: round"/>
   </g>
   <g id="line2d_29">
    <path d="M 299.25 193.138931 
L 438.75 193.138931 
" clip-path="url(#p017c783b8d)" style="fill: none; stroke: #000000; stroke-width: 1.5; stroke-linecap: round"/>
   </g>
   <g id="line2d_30">
    <path d="M 299.25 169.960375 
L 578.25 169.960375 
" clip-path="url(#p017c783b8d)" style="fill: none; stroke: #000000; stroke-width: 1.5; stroke-linecap: round"/>
   </g>
   <g id="line2d_31">
    <path d="M 438.75 146.781818 
L 578.25 146.781818 
" clip-path="url(#p017c783b8d)" style="fill: none; stroke: #000000; stroke-width: 1.5; stroke-linecap: round"/>
   </g>
   <g id="line2d_32">
    <path d="M 149.2875 387.022839 
L 170.2125 387.022839 
" clip-path="url(#p017c783b8d)" style="fill: none; stroke: #000000"/>
   </g>
   <g id="line2d_33">
    <path d="M 288.7875 339.402839 
L 309.7125 339.402839 
" clip-path="url(#p017c783b8d)" style="fill: none; stroke: #000000"/>
   </g>
   <g id="line2d_34">
    <path d="M 428.2875 428.175523 
L 449.2125 428.175523 
" clip-path="url(#p017c783b8d)" style="fill: none; stroke: #000000"/>
   </g>
   <g id="line2d_35">
    <path d="M 567.7875 366.111854 
L 588.7125 366.111854 
" clip-path="url(#p017c783b8d)" style="fill: none; stroke: #000000"/>
   </g>
   <g id="patch_7">
    <path d="M 90 507.6 
L 90 129.6 
" style="fill: none; stroke: #262626; stroke-width: 1.25; stroke-linejoin: miter; stroke-linecap: square"/>
   </g>
   <g id="patch_8">
    <path d="M 648 507.6 
L 648 129.6 
" style="fill: none; stroke: #262626; stroke-width: 1.25; stroke-linejoin: miter; stroke-linecap: square"/>
   </g>
   <g id="patch_9">
    <path d="M 90 507.6 
L 648 507.6 
" style="fill: none; stroke: #262626; stroke-width: 1.25; stroke-linejoin: miter; stroke-linecap: square"/>
   </g>
   <g id="patch_10">
    <path d="M 90 129.6 
L 648 129.6 
" style="fill: none; stroke: #262626; stroke-width: 1.25; stroke-linejoin: miter; stroke-linecap: square"/>
   </g>
   <g id="text_11">
    <!-- * -->
    <g transform="translate(229.5 262.674601) scale(0.12 -0.12)">
     <defs>
      <path id="ArialMT-2a" d="M 200 3741 
L 344 4184 
Q 841 4009 1066 3881 
Q 1006 4447 1003 4659 
L 1456 4659 
Q 1447 4350 1384 3884 
Q 1706 4047 2122 4184 
L 2266 3741 
Q 1869 3609 1488 3566 
Q 1678 3400 2025 2975 
L 1650 2709 
Q 1469 2956 1222 3381 
Q 991 2941 816 2709 
L 447 2975 
Q 809 3422 966 3566 
Q 563 3644 200 3741 
z
" transform="scale(0.015625)"/>
     </defs>
     <use xlink:href="#ArialMT-2a"/>
    </g>
   </g>
   <g id="text_12">
    <!-- * -->
    <g transform="translate(299.25 239.496045) scale(0.12 -0.12)">
     <use xlink:href="#ArialMT-2a"/>
    </g>
   </g>
   <g id="text_13">
    <!-- * -->
    <g transform="translate(369 216.317488) scale(0.12 -0.12)">
     <use xlink:href="#ArialMT-2a"/>
    </g>
   </g>
   <g id="text_14">
    <!-- * -->
    <g transform="translate(369 193.138931) scale(0.12 -0.12)">
     <use xlink:href="#ArialMT-2a"/>
    </g>
   </g>
   <g id="text_15">
    <!-- * -->
    <g transform="translate(438.75 169.960375) scale(0.12 -0.12)">
     <use xlink:href="#ArialMT-2a"/>
    </g>
   </g>
   <g id="text_16">
    <!-- * -->
    <g transform="translate(508.5 146.781818) scale(0.12 -0.12)">
     <use xlink:href="#ArialMT-2a"/>
    </g>
   </g>
   <g id="text_17">
    <!-- IBI -->
    <g style="fill: #262626" transform="translate(360.055313 109.6) scale(0.14 -0.14)">
     <defs>
      <path id="Arial-BoldMT-49" d="M 438 0 
L 438 4581 
L 1363 4581 
L 1363 0 
L 438 0 
z
" transform="scale(0.015625)"/>
      <path id="Arial-BoldMT-42" d="M 469 4581 
L 2300 4581 
Q 2844 4581 3111 4536 
Q 3378 4491 3589 4347 
Q 3800 4203 3940 3964 
Q 4081 3725 4081 3428 
Q 4081 3106 3907 2837 
Q 3734 2569 3438 2434 
Q 3856 2313 4081 2019 
Q 4306 1725 4306 1328 
Q 4306 1016 4161 720 
Q 4016 425 3764 248 
Q 3513 72 3144 31 
Q 2913 6 2028 0 
L 469 0 
L 469 4581 
z
M 1394 3819 
L 1394 2759 
L 2000 2759 
Q 2541 2759 2672 2775 
Q 2909 2803 3045 2939 
Q 3181 3075 3181 3297 
Q 3181 3509 3064 3642 
Q 2947 3775 2716 3803 
Q 2578 3819 1925 3819 
L 1394 3819 
z
M 1394 1997 
L 1394 772 
L 2250 772 
Q 2750 772 2884 800 
Q 3091 838 3220 983 
Q 3350 1128 3350 1372 
Q 3350 1578 3250 1722 
Q 3150 1866 2961 1931 
Q 2772 1997 2141 1997 
L 1394 1997 
z
" transform="scale(0.015625)"/>
     </defs>
     <use xlink:href="#Arial-BoldMT-49"/>
     <use xlink:href="#Arial-BoldMT-42" x="27.783203"/>
     <use xlink:href="#Arial-BoldMT-49" x="100"/>
    </g>
   </g>
  </g>
  <g id="axes_2">
   <g id="patch_11">
    <path d="M 90 961.2 
L 648 961.2 
L 648 583.2 
L 90 583.2 
z
" style="fill: #ffffff"/>
   </g>
   <g id="matplotlib.axis_3">
    <g id="xtick_5">
     <g id="line2d_36">
      <g>
       <use xlink:href="#ma21700efd8" x="159.75" y="961.2" style="fill: #262626; stroke: #262626; stroke-width: 1.25"/>
      </g>
     </g>
     <g id="text_18">
      <!-- State 1 -->
      <g style="fill: #262626" transform="translate(142.321875 978.573594) scale(0.11 -0.11)">
       <use xlink:href="#ArialMT-53"/>
       <use xlink:href="#ArialMT-74" x="66.699219"/>
       <use xlink:href="#ArialMT-61" x="94.482422"/>
       <use xlink:href="#ArialMT-74" x="150.097656"/>
       <use xlink:href="#ArialMT-65" x="177.880859"/>
       <use xlink:href="#ArialMT-20" x="233.496094"/>
       <use xlink:href="#ArialMT-31" x="261.279297"/>
      </g>
     </g>
    </g>
    <g id="xtick_6">
     <g id="line2d_37">
      <g>
       <use xlink:href="#ma21700efd8" x="299.25" y="961.2" style="fill: #262626; stroke: #262626; stroke-width: 1.25"/>
      </g>
     </g>
     <g id="text_19">
      <!-- State 2 -->
      <g style="fill: #262626" transform="translate(281.821875 978.573594) scale(0.11 -0.11)">
       <use xlink:href="#ArialMT-53"/>
       <use xlink:href="#ArialMT-74" x="66.699219"/>
       <use xlink:href="#ArialMT-61" x="94.482422"/>
       <use xlink:href="#ArialMT-74" x="150.097656"/>
       <use xlink:href="#ArialMT-65" x="177.880859"/>
       <use xlink:href="#ArialMT-20" x="233.496094"/>
       <use xlink:href="#ArialMT-32" x="261.279297"/>
      </g>
     </g>
    </g>
    <g id="xtick_7">
     <g id="line2d_38">
      <g>
       <use xlink:href="#ma21700efd8" x="438.75" y="961.2" style="fill: #262626; stroke: #262626; stroke-width: 1.25"/>
      </g>
     </g>
     <g id="text_20">
      <!-- State 3 -->
      <g style="fill: #262626" transform="translate(421.321875 978.573594) scale(0.11 -0.11)">
       <use xlink:href="#ArialMT-53"/>
       <use xlink:href="#ArialMT-74" x="66.699219"/>
       <use xlink:href="#ArialMT-61" x="94.482422"/>
       <use xlink:href="#ArialMT-74" x="150.097656"/>
       <use xlink:href="#ArialMT-65" x="177.880859"/>
       <use xlink:href="#ArialMT-20" x="233.496094"/>
       <use xlink:href="#ArialMT-33" x="261.279297"/>
      </g>
     </g>
    </g>
    <g id="xtick_8">
     <g id="line2d_39">
      <g>
       <use xlink:href="#ma21700efd8" x="578.25" y="961.2" style="fill: #262626; stroke: #262626; stroke-width: 1.25"/>
      </g>
     </g>
     <g id="text_21">
      <!-- State 4 -->
      <g style="fill: #262626" transform="translate(560.821875 978.573594) scale(0.11 -0.11)">
       <use xlink:href="#ArialMT-53"/>
       <use xlink:href="#ArialMT-74" x="66.699219"/>
       <use xlink:href="#ArialMT-61" x="94.482422"/>
       <use xlink:href="#ArialMT-74" x="150.097656"/>
       <use xlink:href="#ArialMT-65" x="177.880859"/>
       <use xlink:href="#ArialMT-20" x="233.496094"/>
       <use xlink:href="#ArialMT-34" x="261.279297"/>
      </g>
     </g>
    </g>
   </g>
   <g id="matplotlib.axis_4">
    <g id="ytick_6">
     <g id="line2d_40">
      <g>
       <use xlink:href="#m45a7d36bd0" x="90" y="906.245109" style="fill: #262626; stroke: #262626; stroke-width: 1.25"/>
      </g>
     </g>
     <g id="text_22">
      <!-- −1 -->
      <g style="fill: #262626" transform="translate(67.958281 910.181906) scale(0.11 -0.11)">
       <use xlink:href="#ArialMT-2212"/>
       <use xlink:href="#ArialMT-31" x="58.398438"/>
      </g>
     </g>
    </g>
    <g id="ytick_7">
     <g id="line2d_41">
      <g>
       <use xlink:href="#m45a7d36bd0" x="90" y="845.576502" style="fill: #262626; stroke: #262626; stroke-width: 1.25"/>
      </g>
     </g>
     <g id="text_23">
      <!-- 0 -->
      <g style="fill: #262626" transform="translate(74.382969 849.513299) scale(0.11 -0.11)">
       <use xlink:href="#ArialMT-30"/>
      </g>
     </g>
    </g>
    <g id="ytick_8">
     <g id="line2d_42">
      <g>
       <use xlink:href="#m45a7d36bd0" x="90" y="784.907895" style="fill: #262626; stroke: #262626; stroke-width: 1.25"/>
      </g>
     </g>
     <g id="text_24">
      <!-- 1 -->
      <g style="fill: #262626" transform="translate(74.382969 788.844691) scale(0.11 -0.11)">
       <use xlink:href="#ArialMT-31"/>
      </g>
     </g>
    </g>
    <g id="ytick_9">
     <g id="line2d_43">
      <g>
       <use xlink:href="#m45a7d36bd0" x="90" y="724.239287" style="fill: #262626; stroke: #262626; stroke-width: 1.25"/>
      </g>
     </g>
     <g id="text_25">
      <!-- 2 -->
      <g style="fill: #262626" transform="translate(74.382969 728.176084) scale(0.11 -0.11)">
       <use xlink:href="#ArialMT-32"/>
      </g>
     </g>
    </g>
    <g id="ytick_10">
     <g id="line2d_44">
      <g>
       <use xlink:href="#m45a7d36bd0" x="90" y="663.57068" style="fill: #262626; stroke: #262626; stroke-width: 1.25"/>
      </g>
     </g>
     <g id="text_26">
      <!-- 3 -->
      <g style="fill: #262626" transform="translate(74.382969 667.507477) scale(0.11 -0.11)">
       <use xlink:href="#ArialMT-33"/>
      </g>
     </g>
    </g>
    <g id="ytick_11">
     <g id="line2d_45">
      <g>
       <use xlink:href="#m45a7d36bd0" x="90" y="602.902073" style="fill: #262626; stroke: #262626; stroke-width: 1.25"/>
      </g>
     </g>
     <g id="text_27">
      <!-- 4 -->
      <g style="fill: #262626" transform="translate(74.382969 606.83887) scale(0.11 -0.11)">
       <use xlink:href="#ArialMT-34"/>
      </g>
     </g>
    </g>
    <g id="text_28">
     <!-- Value (z-scored) -->
     <g style="fill: #262626" transform="translate(61.432656 815.770313) rotate(-90) scale(0.12 -0.12)">
      <use xlink:href="#ArialMT-56"/>
      <use xlink:href="#ArialMT-61" x="59.324219"/>
      <use xlink:href="#ArialMT-6c" x="114.939453"/>
      <use xlink:href="#ArialMT-75" x="137.15625"/>
      <use xlink:href="#ArialMT-65" x="192.771484"/>
      <use xlink:href="#ArialMT-20" x="248.386719"/>
      <use xlink:href="#ArialMT-28" x="276.169922"/>
      <use xlink:href="#ArialMT-7a" x="309.470703"/>
      <use xlink:href="#ArialMT-2d" x="359.470703"/>
      <use xlink:href="#ArialMT-73" x="392.771484"/>
      <use xlink:href="#ArialMT-63" x="442.771484"/>
      <use xlink:href="#ArialMT-6f" x="492.771484"/>
      <use xlink:href="#ArialMT-72" x="548.386719"/>
      <use xlink:href="#ArialMT-65" x="581.6875"/>
      <use xlink:href="#ArialMT-64" x="637.302734"/>
      <use xlink:href="#ArialMT-29" x="692.917969"/>
     </g>
    </g>
   </g>
   <g id="PolyCollection_5">
    <defs>
     <path id="m33a2314f2e" d="M 163.650395 -206.994414 
L 159.972015 -206.994414 
L 159.972015 -207.205076 
L 159.972015 -207.415737 
L 159.972015 -207.626398 
L 159.972015 -207.837059 
L 159.972015 -208.047721 
L 159.972015 -208.258382 
L 159.972015 -208.469043 
L 159.972015 -208.679704 
L 159.972015 -208.890366 
L 159.972015 -209.101027 
L 159.972015 -209.311688 
L 159.972015 -209.522349 
L 159.972015 -209.73301 
L 159.972015 -209.943672 
L 159.972015 -210.154333 
L 159.972015 -210.364994 
L 159.972015 -210.575655 
L 159.972015 -210.786317 
L 159.972015 -210.996978 
L 159.972015 -211.207639 
L 159.972015 -211.4183 
L 159.972015 -211.628962 
L 159.972015 -211.839623 
L 159.972015 -212.050284 
L 159.972015 -212.260945 
L 159.972015 -212.471607 
L 159.972015 -212.682268 
L 159.972015 -212.892929 
L 159.972015 -213.10359 
L 159.972015 -213.314252 
L 159.972015 -213.524913 
L 159.972015 -213.735574 
L 159.972015 -213.946235 
L 167.712254 -213.946235 
L 167.712254 -213.946235 
L 169.205594 -213.735574 
L 170.716368 -213.524913 
L 172.303676 -213.314252 
L 174.071275 -213.10359 
L 176.132975 -212.892929 
L 178.565838 -212.682268 
L 181.366574 -212.471607 
L 184.425592 -212.260945 
L 187.527734 -212.050284 
L 190.381841 -211.839623 
L 192.674953 -211.628962 
L 194.14071 -211.4183 
L 194.625 -211.207639 
L 194.127997 -210.996978 
L 192.805091 -210.786317 
L 190.922369 -210.575655 
L 188.780784 -210.364994 
L 186.637145 -210.154333 
L 184.650726 -209.943672 
L 182.870867 -209.73301 
L 181.261278 -209.522349 
L 179.742578 -209.311688 
L 178.232502 -209.101027 
L 176.671777 -208.890366 
L 175.034783 -208.679704 
L 173.330387 -208.469043 
L 171.5976 -208.258382 
L 169.896879 -208.047721 
L 168.296229 -207.837059 
L 166.853737 -207.626398 
L 165.602204 -207.415737 
L 164.542728 -207.205076 
L 163.650395 -206.994414 
z
" style="stroke: #d55e00; stroke-opacity: 0.3"/>
    </defs>
    <g clip-path="url(#p4d9338be6e)">
     <use xlink:href="#m33a2314f2e" x="0" y="1080" style="fill: #d55e00; fill-opacity: 0.3; stroke: #d55e00; stroke-opacity: 0.3"/>
    </g>
   </g>
   <g id="PolyCollection_6">
    <defs>
     <path id="mea80ee4184" d="M 301.951972 -303.060028 
L 299.370384 -303.060028 
L 299.370384 -304.73339 
L 299.370384 -306.406752 
L 299.370384 -308.080114 
L 299.370384 -309.753475 
L 299.370384 -311.426837 
L 299.370384 -313.100199 
L 299.370384 -314.773561 
L 299.370384 -316.446922 
L 299.370384 -318.120284 
L 299.370384 -319.793646 
L 299.370384 -321.467008 
L 299.370384 -323.14037 
L 299.370384 -324.813731 
L 299.370384 -326.487093 
L 299.370384 -328.160455 
L 299.370384 -329.833817 
L 299.370384 -331.507179 
L 299.370384 -333.18054 
L 299.370384 -334.853902 
L 299.370384 -336.527264 
L 299.370384 -338.200626 
L 299.370384 -339.873988 
L 299.370384 -341.547349 
L 299.370384 -343.220711 
L 299.370384 -344.894073 
L 299.370384 -346.567435 
L 299.370384 -348.240797 
L 299.370384 -349.914158 
L 299.370384 -351.58752 
L 299.370384 -353.260882 
L 299.370384 -354.934244 
L 299.370384 -356.607605 
L 299.370384 -358.280967 
L 302.393333 -358.280967 
L 302.393333 -358.280967 
L 302.92121 -356.607605 
L 303.496705 -354.934244 
L 304.196203 -353.260882 
L 305.102067 -351.58752 
L 306.280565 -349.914158 
L 307.766644 -348.240797 
L 309.558115 -346.567435 
L 311.618574 -344.894073 
L 313.886754 -343.220711 
L 316.28861 -341.547349 
L 318.74841 -339.873988 
L 321.197819 -338.200626 
L 323.584534 -336.527264 
L 325.878986 -334.853902 
L 328.069058 -333.18054 
L 330.130086 -331.507179 
L 331.972947 -329.833817 
L 333.401537 -328.160455 
L 334.125 -326.487093 
L 333.845152 -324.813731 
L 332.384743 -323.14037 
L 329.782286 -321.467008 
L 326.293804 -319.793646 
L 322.303903 -318.120284 
L 318.206483 -316.446922 
L 314.32189 -314.773561 
L 310.874072 -313.100199 
L 308.002942 -311.426837 
L 305.774659 -309.753475 
L 304.176808 -308.080114 
L 303.114779 -306.406752 
L 302.431284 -304.73339 
L 301.951972 -303.060028 
z
" style="stroke: #0072b2; stroke-opacity: 0.3"/>
    </defs>
    <g clip-path="url(#p4d9338be6e)">
     <use xlink:href="#mea80ee4184" x="0" y="1080" style="fill: #0072b2; fill-opacity: 0.3; stroke: #0072b2; stroke-opacity: 0.3"/>
    </g>
   </g>
   <g id="PolyCollection_7">
    <defs>
     <path id="mae6f59668d" d="M 442.773046 -135.981818 
L 438.99773 -135.981818 
L 438.99773 -137.33763 
L 438.99773 -138.693442 
L 438.99773 -140.049254 
L 438.99773 -141.405067 
L 438.99773 -142.760879 
L 438.99773 -144.116691 
L 438.99773 -145.472503 
L 438.99773 -146.828315 
L 438.99773 -148.184127 
L 438.99773 -149.539939 
L 438.99773 -150.895751 
L 438.99773 -152.251563 
L 438.99773 -153.607376 
L 438.99773 -154.963188 
L 438.99773 -156.319 
L 438.99773 -157.674812 
L 438.99773 -159.030624 
L 438.99773 -160.386436 
L 438.99773 -161.742248 
L 438.99773 -163.09806 
L 438.99773 -164.453872 
L 438.99773 -165.809684 
L 438.99773 -167.165497 
L 438.99773 -168.521309 
L 438.99773 -169.877121 
L 438.99773 -171.232933 
L 438.99773 -172.588745 
L 438.99773 -173.944557 
L 438.99773 -175.300369 
L 438.99773 -176.656181 
L 438.99773 -178.011993 
L 438.99773 -179.367806 
L 438.99773 -180.723618 
L 448.292747 -180.723618 
L 448.292747 -180.723618 
L 451.1268 -179.367806 
L 454.364427 -178.011993 
L 457.910231 -176.656181 
L 461.602993 -175.300369 
L 465.217771 -173.944557 
L 468.48445 -172.588745 
L 471.123041 -171.232933 
L 472.890057 -169.877121 
L 473.625 -168.521309 
L 473.283721 -167.165497 
L 471.947743 -165.809684 
L 469.805487 -164.453872 
L 467.110608 -163.09806 
L 464.130594 -161.742248 
L 461.101678 -160.386436 
L 458.20243 -159.030624 
L 455.549714 -157.674812 
L 453.211412 -156.319 
L 451.224799 -154.963188 
L 449.609953 -153.607376 
L 448.372856 -152.251563 
L 447.499654 -150.895751 
L 446.94842 -149.539939 
L 446.645809 -148.184127 
L 446.493385 -146.828315 
L 446.383555 -145.472503 
L 446.220287 -144.116691 
L 445.937222 -142.760879 
L 445.506712 -141.405067 
L 444.93737 -140.049254 
L 444.26272 -138.693442 
L 443.526875 -137.33763 
L 442.773046 -135.981818 
z
" style="stroke: #009e73; stroke-opacity: 0.3"/>
    </defs>
    <g clip-path="url(#p4d9338be6e)">
     <use xlink:href="#mae6f59668d" x="0" y="1080" style="fill: #009e73; fill-opacity: 0.3; stroke: #009e73; stroke-opacity: 0.3"/>
    </g>
   </g>
   <g id="PolyCollection_8">
    <defs>
     <path id="mb849c6683d" d="M 585.02943 -249.498643 
L 578.620952 -249.498643 
L 578.620952 -249.776276 
L 578.620952 -250.053908 
L 578.620952 -250.331541 
L 578.620952 -250.609174 
L 578.620952 -250.886807 
L 578.620952 -251.164439 
L 578.620952 -251.442072 
L 578.620952 -251.719705 
L 578.620952 -251.997338 
L 578.620952 -252.27497 
L 578.620952 -252.552603 
L 578.620952 -252.830236 
L 578.620952 -253.107869 
L 578.620952 -253.385502 
L 578.620952 -253.663134 
L 578.620952 -253.940767 
L 578.620952 -254.2184 
L 578.620952 -254.496033 
L 578.620952 -254.773665 
L 578.620952 -255.051298 
L 578.620952 -255.328931 
L 578.620952 -255.606564 
L 578.620952 -255.884196 
L 578.620952 -256.161829 
L 578.620952 -256.439462 
L 578.620952 -256.717095 
L 578.620952 -256.994728 
L 578.620952 -257.27236 
L 578.620952 -257.549993 
L 578.620952 -257.827626 
L 578.620952 -258.105259 
L 578.620952 -258.382891 
L 578.620952 -258.660524 
L 591.028722 -258.660524 
L 591.028722 -258.660524 
L 592.89556 -258.382891 
L 594.747856 -258.105259 
L 596.624811 -257.827626 
L 598.583172 -257.549993 
L 600.672587 -257.27236 
L 602.908543 -256.994728 
L 605.249906 -256.717095 
L 607.587669 -256.439462 
L 609.750029 -256.161829 
L 611.525983 -255.884196 
L 612.705056 -255.606564 
L 613.125 -255.328931 
L 612.714524 -255.051298 
L 611.51713 -254.773665 
L 609.686589 -254.496033 
L 607.453699 -254.2184 
L 605.074083 -253.940767 
L 602.773436 -253.663134 
L 600.70679 -253.385502 
L 598.942215 -253.107869 
L 597.469887 -252.830236 
L 596.228923 -252.552603 
L 595.139932 -252.27497 
L 594.13193 -251.997338 
L 593.156775 -251.719705 
L 592.190217 -251.442072 
L 591.22364 -251.164439 
L 590.252989 -250.886807 
L 589.270872 -250.609174 
L 588.265128 -250.331541 
L 587.223568 -250.053908 
L 586.141736 -249.776276 
L 585.02943 -249.498643 
z
" style="stroke: #cc79a7; stroke-opacity: 0.3"/>
    </defs>
    <g clip-path="url(#p4d9338be6e)">
     <use xlink:href="#mb849c6683d" x="0" y="1080" style="fill: #cc79a7; fill-opacity: 0.3; stroke: #cc79a7; stroke-opacity: 0.3"/>
    </g>
   </g>
   <g id="PathCollection_5">
    <g clip-path="url(#p4d9338be6e)">
     <use xlink:href="#m5a0758a418" x="130.687636" y="870.750403" style="fill: #d55e00; stroke: #d55e00"/>
     <use xlink:href="#m5a0758a418" x="136.426701" y="869.076121" style="fill: #d55e00; stroke: #d55e00"/>
     <use xlink:href="#m5a0758a418" x="128.582125" y="868.520232" style="fill: #d55e00; stroke: #d55e00"/>
     <use xlink:href="#m5a0758a418" x="137.414824" y="866.053765" style="fill: #d55e00; stroke: #d55e00"/>
     <use xlink:href="#m5a0758a418" x="132.128745" y="868.71897" style="fill: #d55e00; stroke: #d55e00"/>
     <use xlink:href="#m5a0758a418" x="133.498193" y="868.856595" style="fill: #d55e00; stroke: #d55e00"/>
     <use xlink:href="#m5a0758a418" x="125.27756" y="870.333033" style="fill: #d55e00; stroke: #d55e00"/>
     <use xlink:href="#m5a0758a418" x="131.787747" y="869.614344" style="fill: #d55e00; stroke: #d55e00"/>
     <use xlink:href="#m5a0758a418" x="128.635711" y="868.035126" style="fill: #d55e00; stroke: #d55e00"/>
     <use xlink:href="#m5a0758a418" x="130.509168" y="871.281858" style="fill: #d55e00; stroke: #d55e00"/>
     <use xlink:href="#m5a0758a418" x="129.486711" y="873.005586" style="fill: #d55e00; stroke: #d55e00"/>
     <use xlink:href="#m5a0758a418" x="132.018475" y="871.761504" style="fill: #d55e00; stroke: #d55e00"/>
     <use xlink:href="#m5a0758a418" x="138.795389" y="868.768191" style="fill: #d55e00; stroke: #d55e00"/>
     <use xlink:href="#m5a0758a418" x="133.765475" y="870.551323" style="fill: #d55e00; stroke: #d55e00"/>
     <use xlink:href="#m5a0758a418" x="124.879844" y="868.65506" style="fill: #d55e00; stroke: #d55e00"/>
     <use xlink:href="#m5a0758a418" x="130.068224" y="869.429177" style="fill: #d55e00; stroke: #d55e00"/>
     <use xlink:href="#m5a0758a418" x="133.323556" y="868.367746" style="fill: #d55e00; stroke: #d55e00"/>
     <use xlink:href="#m5a0758a418" x="129.61413" y="869.957324" style="fill: #d55e00; stroke: #d55e00"/>
     <use xlink:href="#m5a0758a418" x="124.888226" y="870.213219" style="fill: #d55e00; stroke: #d55e00"/>
     <use xlink:href="#m5a0758a418" x="128.780564" y="870.436913" style="fill: #d55e00; stroke: #d55e00"/>
     <use xlink:href="#m5a0758a418" x="125.848384" y="866.759972" style="fill: #d55e00; stroke: #d55e00"/>
     <use xlink:href="#m5a0758a418" x="137.122482" y="866.808807" style="fill: #d55e00; stroke: #d55e00"/>
     <use xlink:href="#m5a0758a418" x="125.108453" y="868.993913" style="fill: #d55e00; stroke: #d55e00"/>
     <use xlink:href="#m5a0758a418" x="130.782422" y="866.353637" style="fill: #d55e00; stroke: #d55e00"/>
     <use xlink:href="#m5a0758a418" x="136.854409" y="869.371787" style="fill: #d55e00; stroke: #d55e00"/>
     <use xlink:href="#m5a0758a418" x="138.432834" y="867.789018" style="fill: #d55e00; stroke: #d55e00"/>
     <use xlink:href="#m5a0758a418" x="127.485102" y="871.764743" style="fill: #d55e00; stroke: #d55e00"/>
     <use xlink:href="#m5a0758a418" x="137.809302" y="871.241837" style="fill: #d55e00; stroke: #d55e00"/>
     <use xlink:href="#m5a0758a418" x="135.149848" y="868.607931" style="fill: #d55e00; stroke: #d55e00"/>
     <use xlink:href="#m5a0758a418" x="128.742356" y="867.908265" style="fill: #d55e00; stroke: #d55e00"/>
     <use xlink:href="#m5a0758a418" x="133.003391" y="868.85086" style="fill: #d55e00; stroke: #d55e00"/>
     <use xlink:href="#m5a0758a418" x="138.132047" y="867.734312" style="fill: #d55e00; stroke: #d55e00"/>
     <use xlink:href="#m5a0758a418" x="138.760069" y="867.750618" style="fill: #d55e00; stroke: #d55e00"/>
     <use xlink:href="#m5a0758a418" x="136.982786" y="868.896355" style="fill: #d55e00; stroke: #d55e00"/>
    </g>
   </g>
   <g id="PathCollection_6">
    <g clip-path="url(#p4d9338be6e)">
     <use xlink:href="#m3aae02de32" x="271.789298" y="756.065578" style="fill: #0072b2; stroke: #0072b2"/>
     <use xlink:href="#m3aae02de32" x="264.451106" y="756.282854" style="fill: #0072b2; stroke: #0072b2"/>
     <use xlink:href="#m3aae02de32" x="274.991318" y="751.309327" style="fill: #0072b2; stroke: #0072b2"/>
     <use xlink:href="#m3aae02de32" x="267.592108" y="738.928749" style="fill: #0072b2; stroke: #0072b2"/>
     <use xlink:href="#m3aae02de32" x="272.230859" y="754.782777" style="fill: #0072b2; stroke: #0072b2"/>
     <use xlink:href="#m3aae02de32" x="270.293905" y="758.479012" style="fill: #0072b2; stroke: #0072b2"/>
     <use xlink:href="#m3aae02de32" x="270.845493" y="746.036323" style="fill: #0072b2; stroke: #0072b2"/>
     <use xlink:href="#m3aae02de32" x="267.377698" y="762.199076" style="fill: #0072b2; stroke: #0072b2"/>
     <use xlink:href="#m3aae02de32" x="265.676384" y="734.490735" style="fill: #0072b2; stroke: #0072b2"/>
     <use xlink:href="#m3aae02de32" x="274.892623" y="753.025316" style="fill: #0072b2; stroke: #0072b2"/>
     <use xlink:href="#m3aae02de32" x="264.746144" y="721.719033" style="fill: #0072b2; stroke: #0072b2"/>
     <use xlink:href="#m3aae02de32" x="268.872481" y="740.521576" style="fill: #0072b2; stroke: #0072b2"/>
     <use xlink:href="#m3aae02de32" x="271.483319" y="746.104642" style="fill: #0072b2; stroke: #0072b2"/>
     <use xlink:href="#m3aae02de32" x="266.520424" y="746.572427" style="fill: #0072b2; stroke: #0072b2"/>
     <use xlink:href="#m3aae02de32" x="276.911554" y="752.850471" style="fill: #0072b2; stroke: #0072b2"/>
     <use xlink:href="#m3aae02de32" x="270.716162" y="729.291738" style="fill: #0072b2; stroke: #0072b2"/>
     <use xlink:href="#m3aae02de32" x="270.337559" y="744.110751" style="fill: #0072b2; stroke: #0072b2"/>
     <use xlink:href="#m3aae02de32" x="267.94332" y="747.946565" style="fill: #0072b2; stroke: #0072b2"/>
     <use xlink:href="#m3aae02de32" x="276.537054" y="765.312668" style="fill: #0072b2; stroke: #0072b2"/>
     <use xlink:href="#m3aae02de32" x="264.549711" y="742.762994" style="fill: #0072b2; stroke: #0072b2"/>
     <use xlink:href="#m3aae02de32" x="268.604326" y="776.939972" style="fill: #0072b2; stroke: #0072b2"/>
     <use xlink:href="#m3aae02de32" x="267.275795" y="755.496044" style="fill: #0072b2; stroke: #0072b2"/>
     <use xlink:href="#m3aae02de32" x="273.02853" y="736.197568" style="fill: #0072b2; stroke: #0072b2"/>
     <use xlink:href="#m3aae02de32" x="265.332569" y="747.996327" style="fill: #0072b2; stroke: #0072b2"/>
     <use xlink:href="#m3aae02de32" x="265.445367" y="757.110991" style="fill: #0072b2; stroke: #0072b2"/>
     <use xlink:href="#m3aae02de32" x="273.800362" y="752.597066" style="fill: #0072b2; stroke: #0072b2"/>
     <use xlink:href="#m3aae02de32" x="274.713111" y="764.802937" style="fill: #0072b2; stroke: #0072b2"/>
     <use xlink:href="#m3aae02de32" x="270.059771" y="740.184364" style="fill: #0072b2; stroke: #0072b2"/>
     <use xlink:href="#m3aae02de32" x="265.990532" y="758.238601" style="fill: #0072b2; stroke: #0072b2"/>
     <use xlink:href="#m3aae02de32" x="267.307419" y="757.153896" style="fill: #0072b2; stroke: #0072b2"/>
     <use xlink:href="#m3aae02de32" x="271.967378" y="756.764745" style="fill: #0072b2; stroke: #0072b2"/>
     <use xlink:href="#m3aae02de32" x="267.036701" y="763.683772" style="fill: #0072b2; stroke: #0072b2"/>
     <use xlink:href="#m3aae02de32" x="265.757563" y="748.103662" style="fill: #0072b2; stroke: #0072b2"/>
     <use xlink:href="#m3aae02de32" x="270.848465" y="755.048059" style="fill: #0072b2; stroke: #0072b2"/>
    </g>
   </g>
   <g id="PathCollection_7">
    <g clip-path="url(#p4d9338be6e)">
     <use xlink:href="#m1054ecd731" x="411.508101" y="914.511137" style="fill: #009e73; stroke: #009e73"/>
     <use xlink:href="#m1054ecd731" x="413.623535" y="920.541835" style="fill: #009e73; stroke: #009e73"/>
     <use xlink:href="#m1054ecd731" x="414.268215" y="910.113535" style="fill: #009e73; stroke: #009e73"/>
     <use xlink:href="#m1054ecd731" x="404.881686" y="929.713917" style="fill: #009e73; stroke: #009e73"/>
     <use xlink:href="#m1054ecd731" x="410.595446" y="915.74081" style="fill: #009e73; stroke: #009e73"/>
     <use xlink:href="#m1054ecd731" x="416.330451" y="935.538984" style="fill: #009e73; stroke: #009e73"/>
     <use xlink:href="#m1054ecd731" x="407.727295" y="906.96041" style="fill: #009e73; stroke: #009e73"/>
     <use xlink:href="#m1054ecd731" x="415.366567" y="914.119062" style="fill: #009e73; stroke: #009e73"/>
     <use xlink:href="#m1054ecd731" x="410.815119" y="902.208693" style="fill: #009e73; stroke: #009e73"/>
     <use xlink:href="#m1054ecd731" x="411.693575" y="914.406431" style="fill: #009e73; stroke: #009e73"/>
     <use xlink:href="#m1054ecd731" x="413.563161" y="910.055772" style="fill: #009e73; stroke: #009e73"/>
     <use xlink:href="#m1054ecd731" x="408.022578" y="911.324895" style="fill: #009e73; stroke: #009e73"/>
     <use xlink:href="#m1054ecd731" x="404.808992" y="909.008749" style="fill: #009e73; stroke: #009e73"/>
     <use xlink:href="#m1054ecd731" x="415.537439" y="910.540833" style="fill: #009e73; stroke: #009e73"/>
     <use xlink:href="#m1054ecd731" x="416.211097" y="899.276382" style="fill: #009e73; stroke: #009e73"/>
     <use xlink:href="#m1054ecd731" x="408.461287" y="909.488344" style="fill: #009e73; stroke: #009e73"/>
     <use xlink:href="#m1054ecd731" x="412.95309" y="911.533662" style="fill: #009e73; stroke: #009e73"/>
     <use xlink:href="#m1054ecd731" x="411.329314" y="944.018182" style="fill: #009e73; stroke: #009e73"/>
     <use xlink:href="#m1054ecd731" x="411.968355" y="907.687029" style="fill: #009e73; stroke: #009e73"/>
     <use xlink:href="#m1054ecd731" x="412.98064" y="935.263292" style="fill: #009e73; stroke: #009e73"/>
     <use xlink:href="#m1054ecd731" x="417.091483" y="916.863208" style="fill: #009e73; stroke: #009e73"/>
     <use xlink:href="#m1054ecd731" x="409.350683" y="904.586286" style="fill: #009e73; stroke: #009e73"/>
     <use xlink:href="#m1054ecd731" x="411.292211" y="920.120523" style="fill: #009e73; stroke: #009e73"/>
     <use xlink:href="#m1054ecd731" x="415.334334" y="915.76442" style="fill: #009e73; stroke: #009e73"/>
     <use xlink:href="#m1054ecd731" x="407.244691" y="913.041231" style="fill: #009e73; stroke: #009e73"/>
     <use xlink:href="#m1054ecd731" x="406.272907" y="911.651624" style="fill: #009e73; stroke: #009e73"/>
     <use xlink:href="#m1054ecd731" x="405.814201" y="905.471667" style="fill: #009e73; stroke: #009e73"/>
     <use xlink:href="#m1054ecd731" x="413.014878" y="921.011557" style="fill: #009e73; stroke: #009e73"/>
     <use xlink:href="#m1054ecd731" x="406.370468" y="906.540538" style="fill: #009e73; stroke: #009e73"/>
     <use xlink:href="#m1054ecd731" x="408.151276" y="923.419549" style="fill: #009e73; stroke: #009e73"/>
     <use xlink:href="#m1054ecd731" x="411.510049" y="938.329876" style="fill: #009e73; stroke: #009e73"/>
     <use xlink:href="#m1054ecd731" x="408.97396" y="913.546621" style="fill: #009e73; stroke: #009e73"/>
     <use xlink:href="#m1054ecd731" x="410.554908" y="925.125327" style="fill: #009e73; stroke: #009e73"/>
    </g>
   </g>
   <g id="PathCollection_8">
    <g clip-path="url(#p4d9338be6e)">
     <use xlink:href="#m7a156b778d" x="556.035965" y="824.632366" style="fill: #cc79a7; stroke: #cc79a7"/>
     <use xlink:href="#m7a156b778d" x="545.266034" y="825.656394" style="fill: #cc79a7; stroke: #cc79a7"/>
     <use xlink:href="#m7a156b778d" x="544.731294" y="824.448254" style="fill: #cc79a7; stroke: #cc79a7"/>
     <use xlink:href="#m7a156b778d" x="551.238366" y="829.636853" style="fill: #cc79a7; stroke: #cc79a7"/>
     <use xlink:href="#m7a156b778d" x="545.337325" y="821.38544" style="fill: #cc79a7; stroke: #cc79a7"/>
     <use xlink:href="#m7a156b778d" x="548.216021" y="827.419657" style="fill: #cc79a7; stroke: #cc79a7"/>
     <use xlink:href="#m7a156b778d" x="554.921882" y="827.326896" style="fill: #cc79a7; stroke: #cc79a7"/>
     <use xlink:href="#m7a156b778d" x="547.293099" y="822.663601" style="fill: #cc79a7; stroke: #cc79a7"/>
     <use xlink:href="#m7a156b778d" x="549.638847" y="828.27808" style="fill: #cc79a7; stroke: #cc79a7"/>
     <use xlink:href="#m7a156b778d" x="556.1025" y="824.077724" style="fill: #cc79a7; stroke: #cc79a7"/>
     <use xlink:href="#m7a156b778d" x="544.470555" y="829.727995" style="fill: #cc79a7; stroke: #cc79a7"/>
     <use xlink:href="#m7a156b778d" x="552.205767" y="823.309477" style="fill: #cc79a7; stroke: #cc79a7"/>
     <use xlink:href="#m7a156b778d" x="553.078042" y="824.856939" style="fill: #cc79a7; stroke: #cc79a7"/>
     <use xlink:href="#m7a156b778d" x="548.05245" y="825.130293" style="fill: #cc79a7; stroke: #cc79a7"/>
     <use xlink:href="#m7a156b778d" x="545.985123" y="824.671963" style="fill: #cc79a7; stroke: #cc79a7"/>
     <use xlink:href="#m7a156b778d" x="545.713512" y="828.524828" style="fill: #cc79a7; stroke: #cc79a7"/>
     <use xlink:href="#m7a156b778d" x="548.772049" y="826.073037" style="fill: #cc79a7; stroke: #cc79a7"/>
     <use xlink:href="#m7a156b778d" x="551.418058" y="822.803883" style="fill: #cc79a7; stroke: #cc79a7"/>
     <use xlink:href="#m7a156b778d" x="550.456678" y="823.481903" style="fill: #cc79a7; stroke: #cc79a7"/>
     <use xlink:href="#m7a156b778d" x="546.357858" y="826.691144" style="fill: #cc79a7; stroke: #cc79a7"/>
     <use xlink:href="#m7a156b778d" x="556.218626" y="821.339476" style="fill: #cc79a7; stroke: #cc79a7"/>
     <use xlink:href="#m7a156b778d" x="554.384862" y="824.703511" style="fill: #cc79a7; stroke: #cc79a7"/>
     <use xlink:href="#m7a156b778d" x="544.533018" y="825.082059" style="fill: #cc79a7; stroke: #cc79a7"/>
     <use xlink:href="#m7a156b778d" x="555.516371" y="827.938604" style="fill: #cc79a7; stroke: #cc79a7"/>
     <use xlink:href="#m7a156b778d" x="555.921104" y="821.536794" style="fill: #cc79a7; stroke: #cc79a7"/>
     <use xlink:href="#m7a156b778d" x="555.130751" y="826.898007" style="fill: #cc79a7; stroke: #cc79a7"/>
     <use xlink:href="#m7a156b778d" x="550.8177" y="821.7616" style="fill: #cc79a7; stroke: #cc79a7"/>
     <use xlink:href="#m7a156b778d" x="552.00201" y="824.996643" style="fill: #cc79a7; stroke: #cc79a7"/>
     <use xlink:href="#m7a156b778d" x="544.694087" y="824.991363" style="fill: #cc79a7; stroke: #cc79a7"/>
     <use xlink:href="#m7a156b778d" x="556.996984" y="824.702151" style="fill: #cc79a7; stroke: #cc79a7"/>
     <use xlink:href="#m7a156b778d" x="555.872981" y="823.85616" style="fill: #cc79a7; stroke: #cc79a7"/>
     <use xlink:href="#m7a156b778d" x="550.026769" y="823.244246" style="fill: #cc79a7; stroke: #cc79a7"/>
     <use xlink:href="#m7a156b778d" x="548.014479" y="825.218502" style="fill: #cc79a7; stroke: #cc79a7"/>
     <use xlink:href="#m7a156b778d" x="549.181517" y="830.501357" style="fill: #cc79a7; stroke: #cc79a7"/>
    </g>
   </g>
   <g id="patch_12">
    <path d="M 149.2875 870.303079 
L 170.2125 870.303079 
L 170.2125 868.118281 
L 149.2875 868.118281 
L 149.2875 870.303079 
z
" clip-path="url(#p4d9338be6e)" style="fill: #d55e00; opacity: 0.5; stroke: #000000; stroke-linejoin: miter"/>
   </g>
   <g id="line2d_46">
    <path d="M 159.75 870.303079 
L 159.75 873.005586 
" clip-path="url(#p4d9338be6e)" style="fill: none; stroke: #000000; stroke-linecap: round"/>
   </g>
   <g id="line2d_47">
    <path d="M 159.75 868.118281 
L 159.75 866.053765 
" clip-path="url(#p4d9338be6e)" style="fill: none; stroke: #000000; stroke-linecap: round"/>
   </g>
   <g id="line2d_48">
    <path d="M 154.51875 873.005586 
L 164.98125 873.005586 
" clip-path="url(#p4d9338be6e)" style="fill: none; stroke: #000000; stroke-linecap: round"/>
   </g>
   <g id="line2d_49">
    <path d="M 154.51875 866.053765 
L 164.98125 866.053765 
" clip-path="url(#p4d9338be6e)" style="fill: none; stroke: #000000; stroke-linecap: round"/>
   </g>
   <g id="patch_13">
    <path d="M 288.7875 757.02443 
L 309.7125 757.02443 
L 309.7125 744.592144 
L 288.7875 744.592144 
L 288.7875 757.02443 
z
" clip-path="url(#p4d9338be6e)" style="fill: #0072b2; opacity: 0.5; stroke: #000000; stroke-linejoin: miter"/>
   </g>
   <g id="line2d_50">
    <path d="M 299.25 757.02443 
L 299.25 765.312668 
" clip-path="url(#p4d9338be6e)" style="fill: none; stroke: #000000; stroke-linecap: round"/>
   </g>
   <g id="line2d_51">
    <path d="M 299.25 744.592144 
L 299.25 729.291738 
" clip-path="url(#p4d9338be6e)" style="fill: none; stroke: #000000; stroke-linecap: round"/>
   </g>
   <g id="line2d_52">
    <path d="M 294.01875 765.312668 
L 304.48125 765.312668 
" clip-path="url(#p4d9338be6e)" style="fill: none; stroke: #000000; stroke-linecap: round"/>
   </g>
   <g id="line2d_53">
    <path d="M 294.01875 729.291738 
L 304.48125 729.291738 
" clip-path="url(#p4d9338be6e)" style="fill: none; stroke: #000000; stroke-linecap: round"/>
   </g>
   <g id="patch_14">
    <path d="M 428.2875 920.541835 
L 449.2125 920.541835 
L 449.2125 909.488344 
L 428.2875 909.488344 
L 428.2875 920.541835 
z
" clip-path="url(#p4d9338be6e)" style="fill: #009e73; opacity: 0.5; stroke: #000000; stroke-linejoin: miter"/>
   </g>
   <g id="line2d_54">
    <path d="M 438.75 920.541835 
L 438.75 935.538984 
" clip-path="url(#p4d9338be6e)" style="fill: none; stroke: #000000; stroke-linecap: round"/>
   </g>
   <g id="line2d_55">
    <path d="M 438.75 909.488344 
L 438.75 899.276382 
" clip-path="url(#p4d9338be6e)" style="fill: none; stroke: #000000; stroke-linecap: round"/>
   </g>
   <g id="line2d_56">
    <path d="M 433.51875 935.538984 
L 443.98125 935.538984 
" clip-path="url(#p4d9338be6e)" style="fill: none; stroke: #000000; stroke-linecap: round"/>
   </g>
   <g id="line2d_57">
    <path d="M 433.51875 899.276382 
L 443.98125 899.276382 
" clip-path="url(#p4d9338be6e)" style="fill: none; stroke: #000000; stroke-linecap: round"/>
   </g>
   <g id="patch_15">
    <path d="M 567.7875 826.846291 
L 588.7125 826.846291 
L 588.7125 823.575468 
L 567.7875 823.575468 
L 567.7875 826.846291 
z
" clip-path="url(#p4d9338be6e)" style="fill: #cc79a7; opacity: 0.5; stroke: #000000; stroke-linejoin: miter"/>
   </g>
   <g id="line2d_58">
    <path d="M 578.25 826.846291 
L 578.25 830.501357 
" clip-path="url(#p4d9338be6e)" style="fill: none; stroke: #000000; stroke-linecap: round"/>
   </g>
   <g id="line2d_59">
    <path d="M 578.25 823.575468 
L 578.25 821.339476 
" clip-path="url(#p4d9338be6e)" style="fill: none; stroke: #000000; stroke-linecap: round"/>
   </g>
   <g id="line2d_60">
    <path d="M 573.01875 830.501357 
L 583.48125 830.501357 
" clip-path="url(#p4d9338be6e)" style="fill: none; stroke: #000000; stroke-linecap: round"/>
   </g>
   <g id="line2d_61">
    <path d="M 573.01875 821.339476 
L 583.48125 821.339476 
" clip-path="url(#p4d9338be6e)" style="fill: none; stroke: #000000; stroke-linecap: round"/>
   </g>
   <g id="line2d_62">
    <path d="M 159.75 691.384729 
L 299.25 691.384729 
" clip-path="url(#p4d9338be6e)" style="fill: none; stroke: #000000; stroke-width: 1.5; stroke-linecap: round"/>
   </g>
   <g id="line2d_63">
    <path d="M 159.75 673.184147 
L 438.75 673.184147 
" clip-path="url(#p4d9338be6e)" style="fill: none; stroke: #000000; stroke-width: 1.5; stroke-linecap: round"/>
   </g>
   <g id="line2d_64">
    <path d="M 159.75 654.983565 
L 578.25 654.983565 
" clip-path="url(#p4d9338be6e)" style="fill: none; stroke: #000000; stroke-width: 1.5; stroke-linecap: round"/>
   </g>
   <g id="line2d_65">
    <path d="M 299.25 636.782983 
L 438.75 636.782983 
" clip-path="url(#p4d9338be6e)" style="fill: none; stroke: #000000; stroke-width: 1.5; stroke-linecap: round"/>
   </g>
   <g id="line2d_66">
    <path d="M 299.25 618.5824 
L 578.25 618.5824 
" clip-path="url(#p4d9338be6e)" style="fill: none; stroke: #000000; stroke-width: 1.5; stroke-linecap: round"/>
   </g>
   <g id="line2d_67">
    <path d="M 438.75 600.381818 
L 578.25 600.381818 
" clip-path="url(#p4d9338be6e)" style="fill: none; stroke: #000000; stroke-width: 1.5; stroke-linecap: round"/>
   </g>
   <g id="line2d_68">
    <path d="M 149.2875 868.876475 
L 170.2125 868.876475 
" clip-path="url(#p4d9338be6e)" style="fill: none; stroke: #000000"/>
   </g>
   <g id="line2d_69">
    <path d="M 288.7875 752.723769 
L 309.7125 752.723769 
" clip-path="url(#p4d9338be6e)" style="fill: none; stroke: #000000"/>
   </g>
   <g id="line2d_70">
    <path d="M 428.2875 913.546621 
L 449.2125 913.546621 
" clip-path="url(#p4d9338be6e)" style="fill: none; stroke: #000000"/>
   </g>
   <g id="line2d_71">
    <path d="M 567.7875 824.924151 
L 588.7125 824.924151 
" clip-path="url(#p4d9338be6e)" style="fill: none; stroke: #000000"/>
   </g>
   <g id="patch_16">
    <path d="M 90 961.2 
L 90 583.2 
" style="fill: none; stroke: #262626; stroke-width: 1.25; stroke-linejoin: miter; stroke-linecap: square"/>
   </g>
   <g id="patch_17">
    <path d="M 648 961.2 
L 648 583.2 
" style="fill: none; stroke: #262626; stroke-width: 1.25; stroke-linejoin: miter; stroke-linecap: square"/>
   </g>
   <g id="patch_18">
    <path d="M 90 961.2 
L 648 961.2 
" style="fill: none; stroke: #262626; stroke-width: 1.25; stroke-linejoin: miter; stroke-linecap: square"/>
   </g>
   <g id="patch_19">
    <path d="M 90 583.2 
L 648 583.2 
" style="fill: none; stroke: #262626; stroke-width: 1.25; stroke-linejoin: miter; stroke-linecap: square"/>
   </g>
   <g id="text_29">
    <!-- * -->
    <g transform="translate(229.5 691.384729) scale(0.12 -0.12)">
     <use xlink:href="#ArialMT-2a"/>
    </g>
   </g>
   <g id="text_30">
    <!-- * -->
    <g transform="translate(299.25 673.184147) scale(0.12 -0.12)">
     <use xlink:href="#ArialMT-2a"/>
    </g>
   </g>
   <g id="text_31">
    <!-- * -->
    <g transform="translate(369 654.983565) scale(0.12 -0.12)">
     <use xlink:href="#ArialMT-2a"/>
    </g>
   </g>
   <g id="text_32">
    <!-- * -->
    <g transform="translate(369 636.782983) scale(0.12 -0.12)">
     <use xlink:href="#ArialMT-2a"/>
    </g>
   </g>
   <g id="text_33">
    <!-- * -->
    <g transform="translate(438.75 618.5824) scale(0.12 -0.12)">
     <use xlink:href="#ArialMT-2a"/>
    </g>
   </g>
   <g id="text_34">
    <!-- * -->
    <g transform="translate(508.5 600.381818) scale(0.12 -0.12)">
     <use xlink:href="#ArialMT-2a"/>
    </g>
   </g>
   <g id="text_35">
    <!-- HF-HRV -->
    <g style="fill: #262626" transform="translate(342.681094 563.2) scale(0.14 -0.14)">
     <defs>
      <path id="Arial-BoldMT-48" d="M 469 0 
L 469 4581 
L 1394 4581 
L 1394 2778 
L 3206 2778 
L 3206 4581 
L 4131 4581 
L 4131 0 
L 3206 0 
L 3206 2003 
L 1394 2003 
L 1394 0 
L 469 0 
z
" transform="scale(0.015625)"/>
      <path id="Arial-BoldMT-46" d="M 472 0 
L 472 4581 
L 3613 4581 
L 3613 3806 
L 1397 3806 
L 1397 2722 
L 3309 2722 
L 3309 1947 
L 1397 1947 
L 1397 0 
L 472 0 
z
" transform="scale(0.015625)"/>
      <path id="Arial-BoldMT-2d" d="M 359 1222 
L 359 2100 
L 2084 2100 
L 2084 1222 
L 359 1222 
z
" transform="scale(0.015625)"/>
      <path id="Arial-BoldMT-52" d="M 469 0 
L 469 4581 
L 2416 4581 
Q 3150 4581 3483 4457 
Q 3816 4334 4016 4018 
Q 4216 3703 4216 3297 
Q 4216 2781 3912 2445 
Q 3609 2109 3006 2022 
Q 3306 1847 3501 1637 
Q 3697 1428 4028 894 
L 4588 0 
L 3481 0 
L 2813 997 
Q 2456 1531 2325 1670 
Q 2194 1809 2047 1861 
Q 1900 1913 1581 1913 
L 1394 1913 
L 1394 0 
L 469 0 
z
M 1394 2644 
L 2078 2644 
Q 2744 2644 2909 2700 
Q 3075 2756 3169 2893 
Q 3263 3031 3263 3238 
Q 3263 3469 3139 3611 
Q 3016 3753 2791 3791 
Q 2678 3806 2116 3806 
L 1394 3806 
L 1394 2644 
z
" transform="scale(0.015625)"/>
      <path id="Arial-BoldMT-56" d="M 1634 0 
L -3 4581 
L 1000 4581 
L 2159 1191 
L 3281 4581 
L 4263 4581 
L 2622 0 
L 1634 0 
z
" transform="scale(0.015625)"/>
     </defs>
     <use xlink:href="#Arial-BoldMT-48"/>
     <use xlink:href="#Arial-BoldMT-46" x="72.216797"/>
     <use xlink:href="#Arial-BoldMT-2d" x="133.300781"/>
     <use xlink:href="#Arial-BoldMT-48" x="166.601562"/>
     <use xlink:href="#Arial-BoldMT-52" x="238.818359"/>
     <use xlink:href="#Arial-BoldMT-56" x="309.285156"/>
    </g>
   </g>
  </g>
 </g>
 <defs>
  <clipPath id="p017c783b8d">
   <rect x="90" y="129.6" width="558" height="378"/>
  </clipPath>
  <clipPath id="p4d9338be6e">
   <rect x="90" y="583.2" width="558" height="378"/>
  </clipPath>
 </defs>
</svg>
