<?xml version="1.0" encoding="utf-8" standalone="no"?>
<!DOCTYPE svg PUBLIC "-//W3C//DTD SVG 1.1//EN"
  "http://www.w3.org/Graphics/SVG/1.1/DTD/svg11.dtd">
<svg xmlns:xlink="http://www.w3.org/1999/xlink" width="720pt" height="1080pt" viewBox="0 0 720 1080" xmlns="http://www.w3.org/2000/svg" version="1.1">
 <metadata>
  <rdf:RDF xmlns:dc="http://purl.org/dc/elements/1.1/" xmlns:cc="http://creativecommons.org/ns#" xmlns:rdf="http://www.w3.org/1999/02/22-rdf-syntax-ns#">
   <cc:Work>
    <dc:type rdf:resource="http://purl.org/dc/dcmitype/StillImage"/>
    <dc:date>2024-08-23T11:06:06.357618</dc:date>
    <dc:format>image/svg+xml</dc:format>
    <dc:creator>
     <cc:Agent>
      <dc:title>Matplotlib v3.8.0, https://matplotlib.org/</dc:title>
     </cc:Agent>
    </dc:creator>
   </cc:Work>
  </rdf:RDF>
 </metadata>
 <defs>
  <style type="text/css">*{stroke-linejoin: round; stroke-linecap: butt}</style>
 </defs>
 <g id="figure_1">
  <g id="patch_1">
   <path d="M 0 1080 
L 720 1080 
L 720 0 
L 0 0 
z
" style="fill: #ffffff"/>
  </g>
  <g id="axes_1">
   <g id="patch_2">
    <path d="M 90 507.6 
L 648 507.6 
L 648 129.6 
L 90 129.6 
z
" style="fill: #ffffff"/>
   </g>
   <g id="matplotlib.axis_1">
    <g id="xtick_1">
     <g id="line2d_1">
      <defs>
       <path id="mcfcc2b3563" d="M 0 0 
L 0 6 
" style="stroke: #262626; stroke-width: 1.25"/>
      </defs>
      <g>
       <use xlink:href="#mcfcc2b3563" x="159.75" y="507.6" style="fill: #262626; stroke: #262626; stroke-width: 1.25"/>
      </g>
     </g>
     <g id="text_1">
      <!-- State 1 -->
      <g style="fill: #262626" transform="translate(142.321875 524.973594) scale(0.11 -0.11)">
       <defs>
        <path id="ArialMT-53" d="M 288 1472 
L 859 1522 
Q 900 1178 1048 958 
Q 1197 738 1509 602 
Q 1822 466 2213 466 
Q 2559 466 2825 569 
Q 3091 672 3220 851 
Q 3350 1031 3350 1244 
Q 3350 1459 3225 1620 
Q 3100 1781 2813 1891 
Q 2628 1963 1997 2114 
Q 1366 2266 1113 2400 
Q 784 2572 623 2826 
Q 463 3081 463 3397 
Q 463 3744 659 4045 
Q 856 4347 1234 4503 
Q 1613 4659 2075 4659 
Q 2584 4659 2973 4495 
Q 3363 4331 3572 4012 
Q 3781 3694 3797 3291 
L 3216 3247 
Q 3169 3681 2898 3903 
Q 2628 4125 2100 4125 
Q 1550 4125 1298 3923 
Q 1047 3722 1047 3438 
Q 1047 3191 1225 3031 
Q 1400 2872 2139 2705 
Q 2878 2538 3153 2413 
Q 3553 2228 3743 1945 
Q 3934 1663 3934 1294 
Q 3934 928 3725 604 
Q 3516 281 3123 101 
Q 2731 -78 2241 -78 
Q 1619 -78 1198 103 
Q 778 284 539 648 
Q 300 1013 288 1472 
z
" transform="scale(0.015625)"/>
        <path id="ArialMT-74" d="M 1650 503 
L 1731 6 
Q 1494 -44 1306 -44 
Q 1000 -44 831 53 
Q 663 150 594 308 
Q 525 466 525 972 
L 525 2881 
L 113 2881 
L 113 3319 
L 525 3319 
L 525 4141 
L 1084 4478 
L 1084 3319 
L 1650 3319 
L 1650 2881 
L 1084 2881 
L 1084 941 
Q 1084 700 1114 631 
Q 1144 563 1211 522 
Q 1278 481 1403 481 
Q 1497 481 1650 503 
z
" transform="scale(0.015625)"/>
        <path id="ArialMT-61" d="M 2588 409 
Q 2275 144 1986 34 
Q 1697 -75 1366 -75 
Q 819 -75 525 192 
Q 231 459 231 875 
Q 231 1119 342 1320 
Q 453 1522 633 1644 
Q 813 1766 1038 1828 
Q 1203 1872 1538 1913 
Q 2219 1994 2541 2106 
Q 2544 2222 2544 2253 
Q 2544 2597 2384 2738 
Q 2169 2928 1744 2928 
Q 1347 2928 1158 2789 
Q 969 2650 878 2297 
L 328 2372 
Q 403 2725 575 2942 
Q 747 3159 1072 3276 
Q 1397 3394 1825 3394 
Q 2250 3394 2515 3294 
Q 2781 3194 2906 3042 
Q 3031 2891 3081 2659 
Q 3109 2516 3109 2141 
L 3109 1391 
Q 3109 606 3145 398 
Q 3181 191 3288 0 
L 2700 0 
Q 2613 175 2588 409 
z
M 2541 1666 
Q 2234 1541 1622 1453 
Q 1275 1403 1131 1340 
Q 988 1278 909 1158 
Q 831 1038 831 891 
Q 831 666 1001 516 
Q 1172 366 1500 366 
Q 1825 366 2078 508 
Q 2331 650 2450 897 
Q 2541 1088 2541 1459 
L 2541 1666 
z
" transform="scale(0.015625)"/>
        <path id="ArialMT-65" d="M 2694 1069 
L 3275 997 
Q 3138 488 2766 206 
Q 2394 -75 1816 -75 
Q 1088 -75 661 373 
Q 234 822 234 1631 
Q 234 2469 665 2931 
Q 1097 3394 1784 3394 
Q 2450 3394 2872 2941 
Q 3294 2488 3294 1666 
Q 3294 1616 3291 1516 
L 816 1516 
Q 847 969 1125 678 
Q 1403 388 1819 388 
Q 2128 388 2347 550 
Q 2566 713 2694 1069 
z
M 847 1978 
L 2700 1978 
Q 2663 2397 2488 2606 
Q 2219 2931 1791 2931 
Q 1403 2931 1139 2672 
Q 875 2413 847 1978 
z
" transform="scale(0.015625)"/>
        <path id="ArialMT-20" transform="scale(0.015625)"/>
        <path id="ArialMT-31" d="M 2384 0 
L 1822 0 
L 1822 3584 
Q 1619 3391 1289 3197 
Q 959 3003 697 2906 
L 697 3450 
Q 1169 3672 1522 3987 
Q 1875 4303 2022 4600 
L 2384 4600 
L 2384 0 
z
" transform="scale(0.015625)"/>
       </defs>
       <use xlink:href="#ArialMT-53"/>
       <use xlink:href="#ArialMT-74" x="66.699219"/>
       <use xlink:href="#ArialMT-61" x="94.482422"/>
       <use xlink:href="#ArialMT-74" x="150.097656"/>
       <use xlink:href="#ArialMT-65" x="177.880859"/>
       <use xlink:href="#ArialMT-20" x="233.496094"/>
       <use xlink:href="#ArialMT-31" x="261.279297"/>
      </g>
     </g>
    </g>
    <g id="xtick_2">
     <g id="line2d_2">
      <g>
       <use xlink:href="#mcfcc2b3563" x="299.25" y="507.6" style="fill: #262626; stroke: #262626; stroke-width: 1.25"/>
      </g>
     </g>
     <g id="text_2">
      <!-- State 2 -->
      <g style="fill: #262626" transform="translate(281.821875 524.973594) scale(0.11 -0.11)">
       <defs>
        <path id="ArialMT-32" d="M 3222 541 
L 3222 0 
L 194 0 
Q 188 203 259 391 
Q 375 700 629 1000 
Q 884 1300 1366 1694 
Q 2113 2306 2375 2664 
Q 2638 3022 2638 3341 
Q 2638 3675 2398 3904 
Q 2159 4134 1775 4134 
Q 1369 4134 1125 3890 
Q 881 3647 878 3216 
L 300 3275 
Q 359 3922 746 4261 
Q 1134 4600 1788 4600 
Q 2447 4600 2831 4234 
Q 3216 3869 3216 3328 
Q 3216 3053 3103 2787 
Q 2991 2522 2730 2228 
Q 2469 1934 1863 1422 
Q 1356 997 1212 845 
Q 1069 694 975 541 
L 3222 541 
z
" transform="scale(0.015625)"/>
       </defs>
       <use xlink:href="#ArialMT-53"/>
       <use xlink:href="#ArialMT-74" x="66.699219"/>
       <use xlink:href="#ArialMT-61" x="94.482422"/>
       <use xlink:href="#ArialMT-74" x="150.097656"/>
       <use xlink:href="#ArialMT-65" x="177.880859"/>
       <use xlink:href="#ArialMT-20" x="233.496094"/>
       <use xlink:href="#ArialMT-32" x="261.279297"/>
      </g>
     </g>
    </g>
    <g id="xtick_3">
     <g id="line2d_3">
      <g>
       <use xlink:href="#mcfcc2b3563" x="438.75" y="507.6" style="fill: #262626; stroke: #262626; stroke-width: 1.25"/>
      </g>
     </g>
     <g id="text_3">
      <!-- State 3 -->
      <g style="fill: #262626" transform="translate(421.321875 524.973594) scale(0.11 -0.11)">
       <defs>
        <path id="ArialMT-33" d="M 269 1209 
L 831 1284 
Q 928 806 1161 595 
Q 1394 384 1728 384 
Q 2125 384 2398 659 
Q 2672 934 2672 1341 
Q 2672 1728 2419 1979 
Q 2166 2231 1775 2231 
Q 1616 2231 1378 2169 
L 1441 2663 
Q 1497 2656 1531 2656 
Q 1891 2656 2178 2843 
Q 2466 3031 2466 3422 
Q 2466 3731 2256 3934 
Q 2047 4138 1716 4138 
Q 1388 4138 1169 3931 
Q 950 3725 888 3313 
L 325 3413 
Q 428 3978 793 4289 
Q 1159 4600 1703 4600 
Q 2078 4600 2393 4439 
Q 2709 4278 2876 4000 
Q 3044 3722 3044 3409 
Q 3044 3113 2884 2869 
Q 2725 2625 2413 2481 
Q 2819 2388 3044 2092 
Q 3269 1797 3269 1353 
Q 3269 753 2831 336 
Q 2394 -81 1725 -81 
Q 1122 -81 723 278 
Q 325 638 269 1209 
z
" transform="scale(0.015625)"/>
       </defs>
       <use xlink:href="#ArialMT-53"/>
       <use xlink:href="#ArialMT-74" x="66.699219"/>
       <use xlink:href="#ArialMT-61" x="94.482422"/>
       <use xlink:href="#ArialMT-74" x="150.097656"/>
       <use xlink:href="#ArialMT-65" x="177.880859"/>
       <use xlink:href="#ArialMT-20" x="233.496094"/>
       <use xlink:href="#ArialMT-33" x="261.279297"/>
      </g>
     </g>
    </g>
    <g id="xtick_4">
     <g id="line2d_4">
      <g>
       <use xlink:href="#mcfcc2b3563" x="578.25" y="507.6" style="fill: #262626; stroke: #262626; stroke-width: 1.25"/>
      </g>
     </g>
     <g id="text_4">
      <!-- State 4 -->
      <g style="fill: #262626" transform="translate(560.821875 524.973594) scale(0.11 -0.11)">
       <defs>
        <path id="ArialMT-34" d="M 2069 0 
L 2069 1097 
L 81 1097 
L 81 1613 
L 2172 4581 
L 2631 4581 
L 2631 1613 
L 3250 1613 
L 3250 1097 
L 2631 1097 
L 2631 0 
L 2069 0 
z
M 2069 1613 
L 2069 3678 
L 634 1613 
L 2069 1613 
z
" transform="scale(0.015625)"/>
       </defs>
       <use xlink:href="#ArialMT-53"/>
       <use xlink:href="#ArialMT-74" x="66.699219"/>
       <use xlink:href="#ArialMT-61" x="94.482422"/>
       <use xlink:href="#ArialMT-74" x="150.097656"/>
       <use xlink:href="#ArialMT-65" x="177.880859"/>
       <use xlink:href="#ArialMT-20" x="233.496094"/>
       <use xlink:href="#ArialMT-34" x="261.279297"/>
      </g>
     </g>
    </g>
   </g>
   <g id="matplotlib.axis_2">
    <g id="ytick_1">
     <g id="line2d_5">
      <defs>
       <path id="m3497f593f4" d="M 0 0 
L -6 0 
" style="stroke: #262626; stroke-width: 1.25"/>
      </defs>
      <g>
       <use xlink:href="#m3497f593f4" x="90" y="459.999351" style="fill: #262626; stroke: #262626; stroke-width: 1.25"/>
      </g>
     </g>
     <g id="text_5">
      <!-- −1 -->
      <g style="fill: #262626" transform="translate(67.958281 463.936147) scale(0.11 -0.11)">
       <defs>
        <path id="ArialMT-2212" d="M 3381 1997 
L 356 1997 
L 356 2522 
L 3381 2522 
L 3381 1997 
z
" transform="scale(0.015625)"/>
       </defs>
       <use xlink:href="#ArialMT-2212"/>
       <use xlink:href="#ArialMT-31" x="58.398438"/>
      </g>
     </g>
    </g>
    <g id="ytick_2">
     <g id="line2d_6">
      <g>
       <use xlink:href="#m3497f593f4" x="90" y="382.935657" style="fill: #262626; stroke: #262626; stroke-width: 1.25"/>
      </g>
     </g>
     <g id="text_6">
      <!-- 0 -->
      <g style="fill: #262626" transform="translate(74.382969 386.872453) scale(0.11 -0.11)">
       <defs>
        <path id="ArialMT-30" d="M 266 2259 
Q 266 3072 433 3567 
Q 600 4063 929 4331 
Q 1259 4600 1759 4600 
Q 2128 4600 2406 4451 
Q 2684 4303 2865 4023 
Q 3047 3744 3150 3342 
Q 3253 2941 3253 2259 
Q 3253 1453 3087 958 
Q 2922 463 2592 192 
Q 2263 -78 1759 -78 
Q 1097 -78 719 397 
Q 266 969 266 2259 
z
M 844 2259 
Q 844 1131 1108 757 
Q 1372 384 1759 384 
Q 2147 384 2411 759 
Q 2675 1134 2675 2259 
Q 2675 3391 2411 3762 
Q 2147 4134 1753 4134 
Q 1366 4134 1134 3806 
Q 844 3388 844 2259 
z
" transform="scale(0.015625)"/>
       </defs>
       <use xlink:href="#ArialMT-30"/>
      </g>
     </g>
    </g>
    <g id="ytick_3">
     <g id="line2d_7">
      <g>
       <use xlink:href="#m3497f593f4" x="90" y="305.871963" style="fill: #262626; stroke: #262626; stroke-width: 1.25"/>
      </g>
     </g>
     <g id="text_7">
      <!-- 1 -->
      <g style="fill: #262626" transform="translate(74.382969 309.808759) scale(0.11 -0.11)">
       <use xlink:href="#ArialMT-31"/>
      </g>
     </g>
    </g>
    <g id="ytick_4">
     <g id="line2d_8">
      <g>
       <use xlink:href="#m3497f593f4" x="90" y="228.808269" style="fill: #262626; stroke: #262626; stroke-width: 1.25"/>
      </g>
     </g>
     <g id="text_8">
      <!-- 2 -->
      <g style="fill: #262626" transform="translate(74.382969 232.745065) scale(0.11 -0.11)">
       <use xlink:href="#ArialMT-32"/>
      </g>
     </g>
    </g>
    <g id="ytick_5">
     <g id="line2d_9">
      <g>
       <use xlink:href="#m3497f593f4" x="90" y="151.744575" style="fill: #262626; stroke: #262626; stroke-width: 1.25"/>
      </g>
     </g>
     <g id="text_9">
      <!-- 3 -->
      <g style="fill: #262626" transform="translate(74.382969 155.681372) scale(0.11 -0.11)">
       <use xlink:href="#ArialMT-33"/>
      </g>
     </g>
    </g>
    <g id="text_10">
     <!-- Value (z-scored) -->
     <g style="fill: #262626" transform="translate(61.432656 362.170313) rotate(-90) scale(0.12 -0.12)">
      <defs>
       <path id="ArialMT-56" d="M 1803 0 
L 28 4581 
L 684 4581 
L 1875 1253 
Q 2019 853 2116 503 
Q 2222 878 2363 1253 
L 3600 4581 
L 4219 4581 
L 2425 0 
L 1803 0 
z
" transform="scale(0.015625)"/>
       <path id="ArialMT-6c" d="M 409 0 
L 409 4581 
L 972 4581 
L 972 0 
L 409 0 
z
" transform="scale(0.015625)"/>
       <path id="ArialMT-75" d="M 2597 0 
L 2597 488 
Q 2209 -75 1544 -75 
Q 1250 -75 995 37 
Q 741 150 617 320 
Q 494 491 444 738 
Q 409 903 409 1263 
L 409 3319 
L 972 3319 
L 972 1478 
Q 972 1038 1006 884 
Q 1059 663 1231 536 
Q 1403 409 1656 409 
Q 1909 409 2131 539 
Q 2353 669 2445 892 
Q 2538 1116 2538 1541 
L 2538 3319 
L 3100 3319 
L 3100 0 
L 2597 0 
z
" transform="scale(0.015625)"/>
       <path id="ArialMT-28" d="M 1497 -1347 
Q 1031 -759 709 28 
Q 388 816 388 1659 
Q 388 2403 628 3084 
Q 909 3875 1497 4659 
L 1900 4659 
Q 1522 4009 1400 3731 
Q 1209 3300 1100 2831 
Q 966 2247 966 1656 
Q 966 153 1900 -1347 
L 1497 -1347 
z
" transform="scale(0.015625)"/>
       <path id="ArialMT-7a" d="M 125 0 
L 125 456 
L 2238 2881 
Q 1878 2863 1603 2863 
L 250 2863 
L 250 3319 
L 2963 3319 
L 2963 2947 
L 1166 841 
L 819 456 
Q 1197 484 1528 484 
L 3063 484 
L 3063 0 
L 125 0 
z
" transform="scale(0.015625)"/>
       <path id="ArialMT-2d" d="M 203 1375 
L 203 1941 
L 1931 1941 
L 1931 1375 
L 203 1375 
z
" transform="scale(0.015625)"/>
       <path id="ArialMT-73" d="M 197 991 
L 753 1078 
Q 800 744 1014 566 
Q 1228 388 1613 388 
Q 2000 388 2187 545 
Q 2375 703 2375 916 
Q 2375 1106 2209 1216 
Q 2094 1291 1634 1406 
Q 1016 1563 777 1677 
Q 538 1791 414 1992 
Q 291 2194 291 2438 
Q 291 2659 392 2848 
Q 494 3038 669 3163 
Q 800 3259 1026 3326 
Q 1253 3394 1513 3394 
Q 1903 3394 2198 3281 
Q 2494 3169 2634 2976 
Q 2775 2784 2828 2463 
L 2278 2388 
Q 2241 2644 2061 2787 
Q 1881 2931 1553 2931 
Q 1166 2931 1000 2803 
Q 834 2675 834 2503 
Q 834 2394 903 2306 
Q 972 2216 1119 2156 
Q 1203 2125 1616 2013 
Q 2213 1853 2448 1751 
Q 2684 1650 2818 1456 
Q 2953 1263 2953 975 
Q 2953 694 2789 445 
Q 2625 197 2315 61 
Q 2006 -75 1616 -75 
Q 969 -75 630 194 
Q 291 463 197 991 
z
" transform="scale(0.015625)"/>
       <path id="ArialMT-63" d="M 2588 1216 
L 3141 1144 
Q 3050 572 2676 248 
Q 2303 -75 1759 -75 
Q 1078 -75 664 370 
Q 250 816 250 1647 
Q 250 2184 428 2587 
Q 606 2991 970 3192 
Q 1334 3394 1763 3394 
Q 2303 3394 2647 3120 
Q 2991 2847 3088 2344 
L 2541 2259 
Q 2463 2594 2264 2762 
Q 2066 2931 1784 2931 
Q 1359 2931 1093 2626 
Q 828 2322 828 1663 
Q 828 994 1084 691 
Q 1341 388 1753 388 
Q 2084 388 2306 591 
Q 2528 794 2588 1216 
z
" transform="scale(0.015625)"/>
       <path id="ArialMT-6f" d="M 213 1659 
Q 213 2581 725 3025 
Q 1153 3394 1769 3394 
Q 2453 3394 2887 2945 
Q 3322 2497 3322 1706 
Q 3322 1066 3130 698 
Q 2938 331 2570 128 
Q 2203 -75 1769 -75 
Q 1072 -75 642 372 
Q 213 819 213 1659 
z
M 791 1659 
Q 791 1022 1069 705 
Q 1347 388 1769 388 
Q 2188 388 2466 706 
Q 2744 1025 2744 1678 
Q 2744 2294 2464 2611 
Q 2184 2928 1769 2928 
Q 1347 2928 1069 2612 
Q 791 2297 791 1659 
z
" transform="scale(0.015625)"/>
       <path id="ArialMT-72" d="M 416 0 
L 416 3319 
L 922 3319 
L 922 2816 
Q 1116 3169 1280 3281 
Q 1444 3394 1641 3394 
Q 1925 3394 2219 3213 
L 2025 2691 
Q 1819 2813 1613 2813 
Q 1428 2813 1281 2702 
Q 1134 2591 1072 2394 
Q 978 2094 978 1738 
L 978 0 
L 416 0 
z
" transform="scale(0.015625)"/>
       <path id="ArialMT-64" d="M 2575 0 
L 2575 419 
Q 2259 -75 1647 -75 
Q 1250 -75 917 144 
Q 584 363 401 755 
Q 219 1147 219 1656 
Q 219 2153 384 2558 
Q 550 2963 881 3178 
Q 1213 3394 1622 3394 
Q 1922 3394 2156 3267 
Q 2391 3141 2538 2938 
L 2538 4581 
L 3097 4581 
L 3097 0 
L 2575 0 
z
M 797 1656 
Q 797 1019 1065 703 
Q 1334 388 1700 388 
Q 2069 388 2326 689 
Q 2584 991 2584 1609 
Q 2584 2291 2321 2609 
Q 2059 2928 1675 2928 
Q 1300 2928 1048 2622 
Q 797 2316 797 1656 
z
" transform="scale(0.015625)"/>
       <path id="ArialMT-29" d="M 791 -1347 
L 388 -1347 
Q 1322 153 1322 1656 
Q 1322 2244 1188 2822 
Q 1081 3291 891 3722 
Q 769 4003 388 4659 
L 791 4659 
Q 1378 3875 1659 3084 
Q 1900 2403 1900 1659 
Q 1900 816 1576 28 
Q 1253 -759 791 -1347 
z
" transform="scale(0.015625)"/>
      </defs>
      <use xlink:href="#ArialMT-56"/>
      <use xlink:href="#ArialMT-61" x="59.324219"/>
      <use xlink:href="#ArialMT-6c" x="114.939453"/>
      <use xlink:href="#ArialMT-75" x="137.15625"/>
      <use xlink:href="#ArialMT-65" x="192.771484"/>
      <use xlink:href="#ArialMT-20" x="248.386719"/>
      <use xlink:href="#ArialMT-28" x="276.169922"/>
      <use xlink:href="#ArialMT-7a" x="309.470703"/>
      <use xlink:href="#ArialMT-2d" x="359.470703"/>
      <use xlink:href="#ArialMT-73" x="392.771484"/>
      <use xlink:href="#ArialMT-63" x="442.771484"/>
      <use xlink:href="#ArialMT-6f" x="492.771484"/>
      <use xlink:href="#ArialMT-72" x="548.386719"/>
      <use xlink:href="#ArialMT-65" x="581.6875"/>
      <use xlink:href="#ArialMT-64" x="637.302734"/>
      <use xlink:href="#ArialMT-29" x="692.917969"/>
     </g>
    </g>
   </g>
   <g id="PolyCollection_1">
    <defs>
     <path id="ma65070c751" d="M 166.28795 -668.240115 
L 159.935538 -668.240115 
L 159.935538 -669.568366 
L 159.935538 -670.896616 
L 159.935538 -672.224866 
L 159.935538 -673.553117 
L 159.935538 -674.881367 
L 159.935538 -676.209618 
L 159.935538 -677.537868 
L 159.935538 -678.866118 
L 159.935538 -680.194369 
L 159.935538 -681.522619 
L 159.935538 -682.85087 
L 159.935538 -684.17912 
L 159.935538 -685.50737 
L 159.935538 -686.835621 
L 159.935538 -688.163871 
L 159.935538 -689.492122 
L 159.935538 -690.820372 
L 159.935538 -692.148622 
L 159.935538 -693.476873 
L 159.935538 -694.805123 
L 159.935538 -696.133374 
L 159.935538 -697.461624 
L 159.935538 -698.789874 
L 159.935538 -700.118125 
L 159.935538 -701.446375 
L 159.935538 -702.774626 
L 159.935538 -704.102876 
L 159.935538 -705.431126 
L 159.935538 -706.759377 
L 159.935538 -708.087627 
L 159.935538 -709.415878 
L 159.935538 -710.744128 
L 159.935538 -712.072378 
L 159.935538 -713.400629 
L 159.935538 -714.728879 
L 159.935538 -716.05713 
L 159.935538 -717.38538 
L 159.935538 -718.71363 
L 161.702667 -718.71363 
L 161.702667 -718.71363 
L 161.75127 -717.38538 
L 161.781935 -716.05713 
L 161.886127 -714.728879 
L 162.181403 -713.400629 
L 162.791728 -712.072378 
L 163.824763 -710.744128 
L 165.351238 -709.415878 
L 167.391212 -708.087627 
L 169.910621 -706.759377 
L 172.82869 -705.431126 
L 176.032768 -704.102876 
L 179.393692 -702.774626 
L 182.774432 -701.446375 
L 186.029045 -700.118125 
L 188.99639 -698.789874 
L 191.49907 -697.461624 
L 193.358045 -696.133374 
L 194.425324 -694.805123 
L 194.625 -693.476873 
L 193.983874 -692.148622 
L 192.633824 -690.820372 
L 190.780023 -689.492122 
L 188.64621 -688.163871 
L 186.420511 -686.835621 
L 184.225068 -685.50737 
L 182.119515 -684.17912 
L 180.129685 -682.85087 
L 178.279915 -681.522619 
L 176.607753 -680.194369 
L 175.153041 -678.866118 
L 173.930731 -677.537868 
L 172.907439 -676.209618 
L 171.999287 -674.881367 
L 171.095386 -673.553117 
L 170.096153 -672.224866 
L 168.947851 -670.896616 
L 167.658087 -669.568366 
L 166.28795 -668.240115 
z
" style="stroke: #d55e00; stroke-opacity: 0.3"/>
    </defs>
    <g clip-path="url(#p0e20d88af5)">
     <use xlink:href="#ma65070c751" x="0" y="1080" style="fill: #d55e00; fill-opacity: 0.3; stroke: #d55e00; stroke-opacity: 0.3"/>
    </g>
   </g>
   <g id="PolyCollection_2">
    <defs>
     <path id="m4aa43e6dec" d="M 301.059147 -663.057186 
L 299.380124 -663.057186 
L 299.380124 -666.110702 
L 299.380124 -669.164218 
L 299.380124 -672.217734 
L 299.380124 -675.27125 
L 299.380124 -678.324766 
L 299.380124 -681.378282 
L 299.380124 -684.431798 
L 299.380124 -687.485314 
L 299.380124 -690.53883 
L 299.380124 -693.592346 
L 299.380124 -696.645862 
L 299.380124 -699.699378 
L 299.380124 -702.752894 
L 299.380124 -705.80641 
L 299.380124 -708.859926 
L 299.380124 -711.913442 
L 299.380124 -714.966958 
L 299.380124 -718.020474 
L 299.380124 -721.07399 
L 299.380124 -724.127506 
L 299.380124 -727.181022 
L 299.380124 -730.234538 
L 299.380124 -733.288054 
L 299.380124 -736.34157 
L 299.380124 -739.395086 
L 299.380124 -742.448602 
L 299.380124 -745.502118 
L 299.380124 -748.555634 
L 299.380124 -751.60915 
L 299.380124 -754.662666 
L 299.380124 -757.716182 
L 299.380124 -760.769698 
L 299.380124 -763.823214 
L 299.380124 -766.87673 
L 299.380124 -769.930246 
L 299.380124 -772.983762 
L 299.380124 -776.037278 
L 299.380124 -779.090794 
L 306.171728 -779.090794 
L 306.171728 -779.090794 
L 308.433606 -776.037278 
L 311.106669 -772.983762 
L 314.137196 -769.930246 
L 317.412752 -766.87673 
L 320.77317 -763.823214 
L 324.038888 -760.769698 
L 327.044197 -757.716182 
L 329.657435 -754.662666 
L 331.776424 -751.60915 
L 333.303939 -748.555634 
L 334.125 -745.502118 
L 334.112437 -742.448602 
L 333.172598 -739.395086 
L 331.315016 -736.34157 
L 328.705995 -733.288054 
L 325.665021 -730.234538 
L 322.590047 -727.181022 
L 319.838438 -724.127506 
L 317.618429 -721.07399 
L 315.942073 -718.020474 
L 314.657256 -714.966958 
L 313.535425 -711.913442 
L 312.368653 -708.859926 
L 311.034964 -705.80641 
L 309.515643 -702.752894 
L 307.873817 -699.699378 
L 306.216042 -696.645862 
L 304.656219 -693.592346 
L 303.29124 -690.53883 
L 302.188745 -687.485314 
L 301.383147 -684.431798 
L 300.875912 -681.378282 
L 300.637824 -678.324766 
L 300.612851 -675.27125 
L 300.724655 -672.217734 
L 300.887121 -669.164218 
L 301.018893 -666.110702 
L 301.059147 -663.057186 
z
" style="stroke: #0072b2; stroke-opacity: 0.3"/>
    </defs>
    <g clip-path="url(#p0e20d88af5)">
     <use xlink:href="#m4aa43e6dec" x="0" y="1080" style="fill: #0072b2; fill-opacity: 0.3; stroke: #0072b2; stroke-opacity: 0.3"/>
    </g>
   </g>
   <g id="PolyCollection_3">
    <defs>
     <path id="mb72f17e456" d="M 443.676026 -688.163672 
L 438.891256 -688.163672 
L 438.891256 -690.205956 
L 438.891256 -692.24824 
L 438.891256 -694.290524 
L 438.891256 -696.332809 
L 438.891256 -698.375093 
L 438.891256 -700.417377 
L 438.891256 -702.459661 
L 438.891256 -704.501946 
L 438.891256 -706.54423 
L 438.891256 -708.586514 
L 438.891256 -710.628798 
L 438.891256 -712.671083 
L 438.891256 -714.713367 
L 438.891256 -716.755651 
L 438.891256 -718.797935 
L 438.891256 -720.84022 
L 438.891256 -722.882504 
L 438.891256 -724.924788 
L 438.891256 -726.967072 
L 438.891256 -729.009357 
L 438.891256 -731.051641 
L 438.891256 -733.093925 
L 438.891256 -735.13621 
L 438.891256 -737.178494 
L 438.891256 -739.220778 
L 438.891256 -741.263062 
L 438.891256 -743.305347 
L 438.891256 -745.347631 
L 438.891256 -747.389915 
L 438.891256 -749.432199 
L 438.891256 -751.474484 
L 438.891256 -753.516768 
L 438.891256 -755.559052 
L 438.891256 -757.601336 
L 438.891256 -759.643621 
L 438.891256 -761.685905 
L 438.891256 -763.728189 
L 438.891256 -765.770473 
L 440.339662 -765.770473 
L 440.339662 -765.770473 
L 440.265118 -763.728189 
L 440.062352 -761.685905 
L 439.788164 -759.643621 
L 439.512986 -757.601336 
L 439.300152 -755.559052 
L 439.195153 -753.516768 
L 439.226108 -751.474484 
L 439.409555 -749.432199 
L 439.7551 -747.389915 
L 440.267075 -745.347631 
L 440.945904 -743.305347 
L 441.792002 -741.263062 
L 442.811635 -739.220778 
L 444.021695 -737.178494 
L 445.452097 -735.13621 
L 447.147741 -733.093925 
L 449.17127 -731.051641 
L 451.600967 -729.009357 
L 454.511251 -726.967072 
L 457.925798 -724.924788 
L 461.750094 -722.882504 
L 465.714044 -720.84022 
L 469.368911 -718.797935 
L 472.16892 -716.755651 
L 473.625 -714.713367 
L 473.469488 -712.671083 
L 471.75175 -710.628798 
L 468.815347 -708.586514 
L 465.170923 -706.54423 
L 461.332553 -704.501946 
L 457.693472 -702.459661 
L 454.479751 -700.417377 
L 451.770187 -698.375093 
L 449.543557 -696.332809 
L 447.72169 -694.290524 
L 446.200676 -692.24824 
L 444.877515 -690.205956 
L 443.676026 -688.163672 
z
" style="stroke: #009e73; stroke-opacity: 0.3"/>
    </defs>
    <g clip-path="url(#p0e20d88af5)">
     <use xlink:href="#mb72f17e456" x="0" y="1080" style="fill: #009e73; fill-opacity: 0.3; stroke: #009e73; stroke-opacity: 0.3"/>
    </g>
   </g>
   <g id="PolyCollection_4">
    <defs>
     <path id="m437e573764" d="M 584.623773 -589.581818 
L 578.427576 -589.581818 
L 578.427576 -593.680818 
L 578.427576 -597.779819 
L 578.427576 -601.878819 
L 578.427576 -605.977819 
L 578.427576 -610.076819 
L 578.427576 -614.175819 
L 578.427576 -618.27482 
L 578.427576 -622.37382 
L 578.427576 -626.47282 
L 578.427576 -630.57182 
L 578.427576 -634.670821 
L 578.427576 -638.769821 
L 578.427576 -642.868821 
L 578.427576 -646.967821 
L 578.427576 -651.066821 
L 578.427576 -655.165822 
L 578.427576 -659.264822 
L 578.427576 -663.363822 
L 578.427576 -667.462822 
L 578.427576 -671.561823 
L 578.427576 -675.660823 
L 578.427576 -679.759823 
L 578.427576 -683.858823 
L 578.427576 -687.957823 
L 578.427576 -692.056824 
L 578.427576 -696.155824 
L 578.427576 -700.254824 
L 578.427576 -704.353824 
L 578.427576 -708.452824 
L 578.427576 -712.551825 
L 578.427576 -716.650825 
L 578.427576 -720.749825 
L 578.427576 -724.848825 
L 578.427576 -728.947826 
L 578.427576 -733.046826 
L 578.427576 -737.145826 
L 578.427576 -741.244826 
L 578.427576 -745.343826 
L 579.886142 -745.343826 
L 579.886142 -745.343826 
L 579.851617 -741.244826 
L 579.728751 -737.145826 
L 579.573347 -733.046826 
L 579.451508 -728.947826 
L 579.418153 -724.848825 
L 579.501666 -720.749825 
L 579.701705 -716.650825 
L 580.001935 -712.551825 
L 580.393079 -708.452824 
L 580.896022 -704.353824 
L 581.572918 -700.254824 
L 582.519152 -696.155824 
L 583.839734 -692.056824 
L 585.623698 -687.957823 
L 587.930164 -683.858823 
L 590.786711 -679.759823 
L 594.183898 -675.660823 
L 598.046425 -671.561823 
L 602.181947 -667.462822 
L 606.24127 -663.363822 
L 609.739328 -659.264822 
L 612.161632 -655.165822 
L 613.125 -651.066821 
L 612.514848 -646.967821 
L 610.524048 -642.868821 
L 607.573118 -638.769821 
L 604.159285 -634.670821 
L 600.714468 -630.57182 
L 597.531232 -626.47282 
L 594.764083 -622.37382 
L 592.470923 -618.27482 
L 590.651273 -614.175819 
L 589.260002 -610.076819 
L 588.204725 -605.977819 
L 587.349693 -601.878819 
L 586.541679 -597.779819 
L 585.653405 -593.680818 
L 584.623773 -589.581818 
z
" style="stroke: #cc79a7; stroke-opacity: 0.3"/>
    </defs>
    <g clip-path="url(#p0e20d88af5)">
     <use xlink:href="#m437e573764" x="0" y="1080" style="fill: #cc79a7; fill-opacity: 0.3; stroke: #cc79a7; stroke-opacity: 0.3"/>
    </g>
   </g>
   <g id="PathCollection_1">
    <defs>
     <path id="m93ddca6654" d="M 0 0.866025 
C 0.229673 0.866025 0.449969 0.774776 0.612372 0.612372 
C 0.774776 0.449969 0.866025 0.229673 0.866025 0 
C 0.866025 -0.229673 0.774776 -0.449969 0.612372 -0.612372 
C 0.449969 -0.774776 0.229673 -0.866025 0 -0.866025 
C -0.229673 -0.866025 -0.449969 -0.774776 -0.612372 -0.612372 
C -0.774776 -0.449969 -0.866025 -0.229673 -0.866025 0 
C -0.866025 0.229673 -0.774776 0.449969 -0.612372 0.612372 
C -0.449969 0.774776 -0.229673 0.866025 0 0.866025 
z
" style="stroke: #d55e00"/>
    </defs>
    <g clip-path="url(#p0e20d88af5)">
     <use xlink:href="#m93ddca6654" x="134.911228" y="406.895328" style="fill: #d55e00; stroke: #d55e00"/>
     <use xlink:href="#m93ddca6654" x="127.265867" y="389.46914" style="fill: #d55e00; stroke: #d55e00"/>
     <use xlink:href="#m93ddca6654" x="133.782602" y="387.45767" style="fill: #d55e00; stroke: #d55e00"/>
     <use xlink:href="#m93ddca6654" x="137.748284" y="406.050326" style="fill: #d55e00; stroke: #d55e00"/>
     <use xlink:href="#m93ddca6654" x="132.833707" y="380.920126" style="fill: #d55e00; stroke: #d55e00"/>
     <use xlink:href="#m93ddca6654" x="134.535614" y="382.74064" style="fill: #d55e00; stroke: #d55e00"/>
     <use xlink:href="#m93ddca6654" x="135.875826" y="387.338543" style="fill: #d55e00; stroke: #d55e00"/>
     <use xlink:href="#m93ddca6654" x="136.027275" y="411.759885" style="fill: #d55e00; stroke: #d55e00"/>
     <use xlink:href="#m93ddca6654" x="137.39507" y="395.878307" style="fill: #d55e00; stroke: #d55e00"/>
     <use xlink:href="#m93ddca6654" x="134.978541" y="389.987011" style="fill: #d55e00; stroke: #d55e00"/>
     <use xlink:href="#m93ddca6654" x="136.620059" y="396.176414" style="fill: #d55e00; stroke: #d55e00"/>
     <use xlink:href="#m93ddca6654" x="137.564392" y="397.365122" style="fill: #d55e00; stroke: #d55e00"/>
     <use xlink:href="#m93ddca6654" x="137.467092" y="390.600507" style="fill: #d55e00; stroke: #d55e00"/>
     <use xlink:href="#m93ddca6654" x="128.866726" y="385.422318" style="fill: #d55e00; stroke: #d55e00"/>
     <use xlink:href="#m93ddca6654" x="125.417725" y="383.149587" style="fill: #d55e00; stroke: #d55e00"/>
     <use xlink:href="#m93ddca6654" x="137.564625" y="388.888371" style="fill: #d55e00; stroke: #d55e00"/>
     <use xlink:href="#m93ddca6654" x="136.358123" y="379.592992" style="fill: #d55e00; stroke: #d55e00"/>
     <use xlink:href="#m93ddca6654" x="137.052456" y="387.388229" style="fill: #d55e00; stroke: #d55e00"/>
     <use xlink:href="#m93ddca6654" x="133.602908" y="375.134861" style="fill: #d55e00; stroke: #d55e00"/>
     <use xlink:href="#m93ddca6654" x="136.949002" y="386.00516" style="fill: #d55e00; stroke: #d55e00"/>
     <use xlink:href="#m93ddca6654" x="134.721867" y="396.145672" style="fill: #d55e00; stroke: #d55e00"/>
     <use xlink:href="#m93ddca6654" x="135.233847" y="375.37206" style="fill: #d55e00; stroke: #d55e00"/>
     <use xlink:href="#m93ddca6654" x="126.774193" y="400.768053" style="fill: #d55e00; stroke: #d55e00"/>
     <use xlink:href="#m93ddca6654" x="131.738948" y="384.676518" style="fill: #d55e00; stroke: #d55e00"/>
     <use xlink:href="#m93ddca6654" x="138.606859" y="379.065131" style="fill: #d55e00; stroke: #d55e00"/>
     <use xlink:href="#m93ddca6654" x="125.463801" y="405.679773" style="fill: #d55e00; stroke: #d55e00"/>
     <use xlink:href="#m93ddca6654" x="132.396957" y="392.664235" style="fill: #d55e00; stroke: #d55e00"/>
     <use xlink:href="#m93ddca6654" x="135.11973" y="395.915" style="fill: #d55e00; stroke: #d55e00"/>
     <use xlink:href="#m93ddca6654" x="135.875175" y="399.140509" style="fill: #d55e00; stroke: #d55e00"/>
     <use xlink:href="#m93ddca6654" x="134.806815" y="381.829857" style="fill: #d55e00; stroke: #d55e00"/>
     <use xlink:href="#m93ddca6654" x="127.125952" y="361.28637" style="fill: #d55e00; stroke: #d55e00"/>
     <use xlink:href="#m93ddca6654" x="135.379103" y="377.789715" style="fill: #d55e00; stroke: #d55e00"/>
     <use xlink:href="#m93ddca6654" x="135.898675" y="386.839817" style="fill: #d55e00; stroke: #d55e00"/>
     <use xlink:href="#m93ddca6654" x="129.370552" y="386.399454" style="fill: #d55e00; stroke: #d55e00"/>
     <use xlink:href="#m93ddca6654" x="127.165452" y="407.655561" style="fill: #d55e00; stroke: #d55e00"/>
     <use xlink:href="#m93ddca6654" x="126.765375" y="378.065007" style="fill: #d55e00; stroke: #d55e00"/>
     <use xlink:href="#m93ddca6654" x="135.606194" y="384.023751" style="fill: #d55e00; stroke: #d55e00"/>
     <use xlink:href="#m93ddca6654" x="131.447777" y="392.332291" style="fill: #d55e00; stroke: #d55e00"/>
     <use xlink:href="#m93ddca6654" x="125.999494" y="384.943226" style="fill: #d55e00; stroke: #d55e00"/>
    </g>
   </g>
   <g id="PathCollection_2">
    <defs>
     <path id="m3880677955" d="M 0 0.866025 
C 0.229673 0.866025 0.449969 0.774776 0.612372 0.612372 
C 0.774776 0.449969 0.866025 0.229673 0.866025 0 
C 0.866025 -0.229673 0.774776 -0.449969 0.612372 -0.612372 
C 0.449969 -0.774776 0.229673 -0.866025 0 -0.866025 
C -0.229673 -0.866025 -0.449969 -0.774776 -0.612372 -0.612372 
C -0.774776 -0.449969 -0.866025 -0.229673 -0.866025 0 
C -0.866025 0.229673 -0.774776 0.449969 -0.612372 0.612372 
C -0.449969 0.774776 -0.229673 0.866025 0 0.866025 
z
" style="stroke: #0072b2"/>
    </defs>
    <g clip-path="url(#p0e20d88af5)">
     <use xlink:href="#m3880677955" x="267.770036" y="325.117339" style="fill: #0072b2; stroke: #0072b2"/>
     <use xlink:href="#m3880677955" x="265.096988" y="375.411516" style="fill: #0072b2; stroke: #0072b2"/>
     <use xlink:href="#m3880677955" x="274.798381" y="321.134947" style="fill: #0072b2; stroke: #0072b2"/>
     <use xlink:href="#m3880677955" x="275.268361" y="363.837013" style="fill: #0072b2; stroke: #0072b2"/>
     <use xlink:href="#m3880677955" x="274.538108" y="345.34749" style="fill: #0072b2; stroke: #0072b2"/>
     <use xlink:href="#m3880677955" x="264.646434" y="365.711422" style="fill: #0072b2; stroke: #0072b2"/>
     <use xlink:href="#m3880677955" x="275.466379" y="315.247968" style="fill: #0072b2; stroke: #0072b2"/>
     <use xlink:href="#m3880677955" x="264.40951" y="308.954609" style="fill: #0072b2; stroke: #0072b2"/>
     <use xlink:href="#m3880677955" x="265.976379" y="300.909206" style="fill: #0072b2; stroke: #0072b2"/>
     <use xlink:href="#m3880677955" x="276.869279" y="337.933844" style="fill: #0072b2; stroke: #0072b2"/>
     <use xlink:href="#m3880677955" x="271.122549" y="342.23" style="fill: #0072b2; stroke: #0072b2"/>
     <use xlink:href="#m3880677955" x="264.849298" y="320.81339" style="fill: #0072b2; stroke: #0072b2"/>
     <use xlink:href="#m3880677955" x="275.964267" y="330.255661" style="fill: #0072b2; stroke: #0072b2"/>
     <use xlink:href="#m3880677955" x="276.287893" y="318.94502" style="fill: #0072b2; stroke: #0072b2"/>
     <use xlink:href="#m3880677955" x="273.232462" y="336.347002" style="fill: #0072b2; stroke: #0072b2"/>
     <use xlink:href="#m3880677955" x="271.058088" y="346.407076" style="fill: #0072b2; stroke: #0072b2"/>
     <use xlink:href="#m3880677955" x="274.485718" y="345.742287" style="fill: #0072b2; stroke: #0072b2"/>
     <use xlink:href="#m3880677955" x="269.39346" y="348.166516" style="fill: #0072b2; stroke: #0072b2"/>
     <use xlink:href="#m3880677955" x="273.79144" y="340.962697" style="fill: #0072b2; stroke: #0072b2"/>
     <use xlink:href="#m3880677955" x="267.306157" y="343.356032" style="fill: #0072b2; stroke: #0072b2"/>
     <use xlink:href="#m3880677955" x="274.216976" y="336.329032" style="fill: #0072b2; stroke: #0072b2"/>
     <use xlink:href="#m3880677955" x="274.213769" y="375.213374" style="fill: #0072b2; stroke: #0072b2"/>
     <use xlink:href="#m3880677955" x="273.402364" y="326.050223" style="fill: #0072b2; stroke: #0072b2"/>
     <use xlink:href="#m3880677955" x="270.652671" y="365.41497" style="fill: #0072b2; stroke: #0072b2"/>
     <use xlink:href="#m3880677955" x="272.382266" y="329.932939" style="fill: #0072b2; stroke: #0072b2"/>
     <use xlink:href="#m3880677955" x="275.312033" y="329.777733" style="fill: #0072b2; stroke: #0072b2"/>
     <use xlink:href="#m3880677955" x="266.375939" y="344.975077" style="fill: #0072b2; stroke: #0072b2"/>
     <use xlink:href="#m3880677955" x="266.996864" y="315.288669" style="fill: #0072b2; stroke: #0072b2"/>
     <use xlink:href="#m3880677955" x="265.572707" y="330.942021" style="fill: #0072b2; stroke: #0072b2"/>
     <use xlink:href="#m3880677955" x="269.524957" y="416.942814" style="fill: #0072b2; stroke: #0072b2"/>
     <use xlink:href="#m3880677955" x="270.256234" y="383.415948" style="fill: #0072b2; stroke: #0072b2"/>
     <use xlink:href="#m3880677955" x="276.451892" y="368.550651" style="fill: #0072b2; stroke: #0072b2"/>
     <use xlink:href="#m3880677955" x="277.907506" y="345.929889" style="fill: #0072b2; stroke: #0072b2"/>
     <use xlink:href="#m3880677955" x="270.023178" y="344.052042" style="fill: #0072b2; stroke: #0072b2"/>
     <use xlink:href="#m3880677955" x="276.702349" y="324.261406" style="fill: #0072b2; stroke: #0072b2"/>
     <use xlink:href="#m3880677955" x="267.768554" y="362.548071" style="fill: #0072b2; stroke: #0072b2"/>
     <use xlink:href="#m3880677955" x="274.334783" y="340.283417" style="fill: #0072b2; stroke: #0072b2"/>
     <use xlink:href="#m3880677955" x="277.5571" y="334.980066" style="fill: #0072b2; stroke: #0072b2"/>
     <use xlink:href="#m3880677955" x="273.789009" y="321.05859" style="fill: #0072b2; stroke: #0072b2"/>
    </g>
   </g>
   <g id="PathCollection_3">
    <defs>
     <path id="mc8fcdc8a53" d="M 0 0.866025 
C 0.229673 0.866025 0.449969 0.774776 0.612372 0.612372 
C 0.774776 0.449969 0.866025 0.229673 0.866025 0 
C 0.866025 -0.229673 0.774776 -0.449969 0.612372 -0.612372 
C 0.449969 -0.774776 0.229673 -0.866025 0 -0.866025 
C -0.229673 -0.866025 -0.449969 -0.774776 -0.612372 -0.612372 
C -0.774776 -0.449969 -0.866025 -0.229673 -0.866025 0 
C -0.866025 0.229673 -0.774776 0.449969 -0.612372 0.612372 
C -0.449969 0.774776 -0.229673 0.866025 0 0.866025 
z
" style="stroke: #009e73"/>
    </defs>
    <g clip-path="url(#p0e20d88af5)">
     <use xlink:href="#mc8fcdc8a53" x="411.166461" y="366.167787" style="fill: #009e73; stroke: #009e73"/>
     <use xlink:href="#mc8fcdc8a53" x="413.555265" y="367.180107" style="fill: #009e73; stroke: #009e73"/>
     <use xlink:href="#mc8fcdc8a53" x="413.346984" y="379.054919" style="fill: #009e73; stroke: #009e73"/>
     <use xlink:href="#mc8fcdc8a53" x="415.876619" y="362.96218" style="fill: #009e73; stroke: #009e73"/>
     <use xlink:href="#mc8fcdc8a53" x="404.170313" y="366.678802" style="fill: #009e73; stroke: #009e73"/>
     <use xlink:href="#mc8fcdc8a53" x="415.769278" y="363.979026" style="fill: #009e73; stroke: #009e73"/>
     <use xlink:href="#mc8fcdc8a53" x="417.703009" y="366.594973" style="fill: #009e73; stroke: #009e73"/>
     <use xlink:href="#mc8fcdc8a53" x="417.564404" y="357.7624" style="fill: #009e73; stroke: #009e73"/>
     <use xlink:href="#mc8fcdc8a53" x="410.583384" y="358.908625" style="fill: #009e73; stroke: #009e73"/>
     <use xlink:href="#mc8fcdc8a53" x="415.527484" y="371.028731" style="fill: #009e73; stroke: #009e73"/>
     <use xlink:href="#mc8fcdc8a53" x="405.526533" y="314.229527" style="fill: #009e73; stroke: #009e73"/>
     <use xlink:href="#mc8fcdc8a53" x="416.092963" y="369.216526" style="fill: #009e73; stroke: #009e73"/>
     <use xlink:href="#mc8fcdc8a53" x="412.562879" y="340.54633" style="fill: #009e73; stroke: #009e73"/>
     <use xlink:href="#mc8fcdc8a53" x="405.340329" y="384.678995" style="fill: #009e73; stroke: #009e73"/>
     <use xlink:href="#mc8fcdc8a53" x="407.5694" y="363.804615" style="fill: #009e73; stroke: #009e73"/>
     <use xlink:href="#mc8fcdc8a53" x="411.773146" y="372.589001" style="fill: #009e73; stroke: #009e73"/>
     <use xlink:href="#mc8fcdc8a53" x="416.150497" y="370.471868" style="fill: #009e73; stroke: #009e73"/>
     <use xlink:href="#mc8fcdc8a53" x="409.452125" y="363.71255" style="fill: #009e73; stroke: #009e73"/>
     <use xlink:href="#mc8fcdc8a53" x="407.126977" y="364.051966" style="fill: #009e73; stroke: #009e73"/>
     <use xlink:href="#mc8fcdc8a53" x="404.978402" y="388.913358" style="fill: #009e73; stroke: #009e73"/>
     <use xlink:href="#mc8fcdc8a53" x="409.961487" y="348.349357" style="fill: #009e73; stroke: #009e73"/>
     <use xlink:href="#mc8fcdc8a53" x="405.780154" y="375.552154" style="fill: #009e73; stroke: #009e73"/>
     <use xlink:href="#mc8fcdc8a53" x="410.87775" y="352.852365" style="fill: #009e73; stroke: #009e73"/>
     <use xlink:href="#mc8fcdc8a53" x="414.132631" y="377.006852" style="fill: #009e73; stroke: #009e73"/>
     <use xlink:href="#mc8fcdc8a53" x="407.727468" y="348.027274" style="fill: #009e73; stroke: #009e73"/>
     <use xlink:href="#mc8fcdc8a53" x="408.162931" y="353.351345" style="fill: #009e73; stroke: #009e73"/>
     <use xlink:href="#mc8fcdc8a53" x="411.861559" y="371.176775" style="fill: #009e73; stroke: #009e73"/>
     <use xlink:href="#mc8fcdc8a53" x="407.130889" y="356.595943" style="fill: #009e73; stroke: #009e73"/>
     <use xlink:href="#mc8fcdc8a53" x="416.929192" y="363.23451" style="fill: #009e73; stroke: #009e73"/>
     <use xlink:href="#mc8fcdc8a53" x="410.365887" y="391.836328" style="fill: #009e73; stroke: #009e73"/>
     <use xlink:href="#mc8fcdc8a53" x="409.667521" y="369.501109" style="fill: #009e73; stroke: #009e73"/>
     <use xlink:href="#mc8fcdc8a53" x="407.655317" y="363.829232" style="fill: #009e73; stroke: #009e73"/>
     <use xlink:href="#mc8fcdc8a53" x="405.495602" y="362.15772" style="fill: #009e73; stroke: #009e73"/>
     <use xlink:href="#mc8fcdc8a53" x="406.467626" y="377.454169" style="fill: #009e73; stroke: #009e73"/>
     <use xlink:href="#mc8fcdc8a53" x="415.132726" y="365.55594" style="fill: #009e73; stroke: #009e73"/>
     <use xlink:href="#mc8fcdc8a53" x="410.383387" y="369.478461" style="fill: #009e73; stroke: #009e73"/>
     <use xlink:href="#mc8fcdc8a53" x="408.372947" y="380.856786" style="fill: #009e73; stroke: #009e73"/>
     <use xlink:href="#mc8fcdc8a53" x="415.859321" y="367.358159" style="fill: #009e73; stroke: #009e73"/>
     <use xlink:href="#mc8fcdc8a53" x="411.448595" y="357.901738" style="fill: #009e73; stroke: #009e73"/>
    </g>
   </g>
   <g id="PathCollection_4">
    <defs>
     <path id="m9c5369ae82" d="M 0 0.866025 
C 0.229673 0.866025 0.449969 0.774776 0.612372 0.612372 
C 0.774776 0.449969 0.866025 0.229673 0.866025 0 
C 0.866025 -0.229673 0.774776 -0.449969 0.612372 -0.612372 
C 0.449969 -0.774776 0.229673 -0.866025 0 -0.866025 
C -0.229673 -0.866025 -0.449969 -0.774776 -0.612372 -0.612372 
C -0.774776 -0.449969 -0.866025 -0.229673 -0.866025 0 
C -0.866025 0.229673 -0.774776 0.449969 -0.612372 0.612372 
C -0.449969 0.774776 -0.229673 0.866025 0 0.866025 
z
" style="stroke: #cc79a7"/>
    </defs>
    <g clip-path="url(#p0e20d88af5)">
     <use xlink:href="#m9c5369ae82" x="552.174245" y="425.478891" style="fill: #cc79a7; stroke: #cc79a7"/>
     <use xlink:href="#m9c5369ae82" x="552.39828" y="404.223897" style="fill: #cc79a7; stroke: #cc79a7"/>
     <use xlink:href="#m9c5369ae82" x="544.290132" y="428.575461" style="fill: #cc79a7; stroke: #cc79a7"/>
     <use xlink:href="#m9c5369ae82" x="553.393131" y="375.353986" style="fill: #cc79a7; stroke: #cc79a7"/>
     <use xlink:href="#m9c5369ae82" x="554.461669" y="436.503385" style="fill: #cc79a7; stroke: #cc79a7"/>
     <use xlink:href="#m9c5369ae82" x="548.486642" y="446.758051" style="fill: #cc79a7; stroke: #cc79a7"/>
     <use xlink:href="#m9c5369ae82" x="547.229359" y="456.904162" style="fill: #cc79a7; stroke: #cc79a7"/>
     <use xlink:href="#m9c5369ae82" x="556.267716" y="448.10807" style="fill: #cc79a7; stroke: #cc79a7"/>
     <use xlink:href="#m9c5369ae82" x="551.593649" y="453.659319" style="fill: #cc79a7; stroke: #cc79a7"/>
     <use xlink:href="#m9c5369ae82" x="547.784919" y="427.786504" style="fill: #cc79a7; stroke: #cc79a7"/>
     <use xlink:href="#m9c5369ae82" x="551.893328" y="427.320431" style="fill: #cc79a7; stroke: #cc79a7"/>
     <use xlink:href="#m9c5369ae82" x="547.411748" y="465.148709" style="fill: #cc79a7; stroke: #cc79a7"/>
     <use xlink:href="#m9c5369ae82" x="548.520723" y="427.271552" style="fill: #cc79a7; stroke: #cc79a7"/>
     <use xlink:href="#m9c5369ae82" x="545.352633" y="440.640336" style="fill: #cc79a7; stroke: #cc79a7"/>
     <use xlink:href="#m9c5369ae82" x="548.731433" y="429.592986" style="fill: #cc79a7; stroke: #cc79a7"/>
     <use xlink:href="#m9c5369ae82" x="547.566903" y="429.678214" style="fill: #cc79a7; stroke: #cc79a7"/>
     <use xlink:href="#m9c5369ae82" x="555.993298" y="426.160582" style="fill: #cc79a7; stroke: #cc79a7"/>
     <use xlink:href="#m9c5369ae82" x="550.589683" y="485.977538" style="fill: #cc79a7; stroke: #cc79a7"/>
     <use xlink:href="#m9c5369ae82" x="545.084056" y="406.960138" style="fill: #cc79a7; stroke: #cc79a7"/>
     <use xlink:href="#m9c5369ae82" x="555.660145" y="478.889173" style="fill: #cc79a7; stroke: #cc79a7"/>
     <use xlink:href="#m9c5369ae82" x="555.003888" y="410.594279" style="fill: #cc79a7; stroke: #cc79a7"/>
     <use xlink:href="#m9c5369ae82" x="555.298248" y="450.251637" style="fill: #cc79a7; stroke: #cc79a7"/>
     <use xlink:href="#m9c5369ae82" x="555.008367" y="400.887716" style="fill: #cc79a7; stroke: #cc79a7"/>
     <use xlink:href="#m9c5369ae82" x="550.774977" y="490.418182" style="fill: #cc79a7; stroke: #cc79a7"/>
     <use xlink:href="#m9c5369ae82" x="547.001797" y="436.657121" style="fill: #cc79a7; stroke: #cc79a7"/>
     <use xlink:href="#m9c5369ae82" x="544.422107" y="423.682124" style="fill: #cc79a7; stroke: #cc79a7"/>
     <use xlink:href="#m9c5369ae82" x="552.566852" y="460.856922" style="fill: #cc79a7; stroke: #cc79a7"/>
     <use xlink:href="#m9c5369ae82" x="552.975943" y="424.576564" style="fill: #cc79a7; stroke: #cc79a7"/>
     <use xlink:href="#m9c5369ae82" x="550.030024" y="334.656174" style="fill: #cc79a7; stroke: #cc79a7"/>
     <use xlink:href="#m9c5369ae82" x="548.650435" y="404.35885" style="fill: #cc79a7; stroke: #cc79a7"/>
     <use xlink:href="#m9c5369ae82" x="547.988872" y="427.259897" style="fill: #cc79a7; stroke: #cc79a7"/>
     <use xlink:href="#m9c5369ae82" x="546.387892" y="441.435992" style="fill: #cc79a7; stroke: #cc79a7"/>
     <use xlink:href="#m9c5369ae82" x="549.68777" y="420.945525" style="fill: #cc79a7; stroke: #cc79a7"/>
     <use xlink:href="#m9c5369ae82" x="547.283037" y="422.886929" style="fill: #cc79a7; stroke: #cc79a7"/>
     <use xlink:href="#m9c5369ae82" x="548.83464" y="430.099447" style="fill: #cc79a7; stroke: #cc79a7"/>
     <use xlink:href="#m9c5369ae82" x="551.519233" y="429.921071" style="fill: #cc79a7; stroke: #cc79a7"/>
     <use xlink:href="#m9c5369ae82" x="549.971681" y="427.705451" style="fill: #cc79a7; stroke: #cc79a7"/>
     <use xlink:href="#m9c5369ae82" x="544.873665" y="481.768624" style="fill: #cc79a7; stroke: #cc79a7"/>
    </g>
   </g>
   <g id="patch_3">
    <path d="M 149.2875 396.030336 
L 170.2125 396.030336 
L 170.2125 382.945114 
L 149.2875 382.945114 
L 149.2875 396.030336 
z
" clip-path="url(#p0e20d88af5)" style="fill: #d55e00; opacity: 0.5; stroke: #000000; stroke-linejoin: miter"/>
   </g>
   <g id="line2d_10">
    <path d="M 159.75 396.030336 
L 159.75 411.759885 
" clip-path="url(#p0e20d88af5)" style="fill: none; stroke: #000000; stroke-linecap: round"/>
   </g>
   <g id="line2d_11">
    <path d="M 159.75 382.945114 
L 159.75 375.134861 
" clip-path="url(#p0e20d88af5)" style="fill: none; stroke: #000000; stroke-linecap: round"/>
   </g>
   <g id="line2d_12">
    <path d="M 154.51875 411.759885 
L 164.98125 411.759885 
" clip-path="url(#p0e20d88af5)" style="fill: none; stroke: #000000; stroke-linecap: round"/>
   </g>
   <g id="line2d_13">
    <path d="M 154.51875 375.134861 
L 164.98125 375.134861 
" clip-path="url(#p0e20d88af5)" style="fill: none; stroke: #000000; stroke-linecap: round"/>
   </g>
   <g id="patch_4">
    <path d="M 288.7875 347.286796 
L 309.7125 347.286796 
L 309.7125 325.583781 
L 288.7875 325.583781 
L 288.7875 347.286796 
z
" clip-path="url(#p0e20d88af5)" style="fill: #0072b2; opacity: 0.5; stroke: #000000; stroke-linejoin: miter"/>
   </g>
   <g id="line2d_14">
    <path d="M 299.25 347.286796 
L 299.25 375.411516 
" clip-path="url(#p0e20d88af5)" style="fill: none; stroke: #000000; stroke-linecap: round"/>
   </g>
   <g id="line2d_15">
    <path d="M 299.25 325.583781 
L 299.25 300.909206 
" clip-path="url(#p0e20d88af5)" style="fill: none; stroke: #000000; stroke-linecap: round"/>
   </g>
   <g id="line2d_16">
    <path d="M 294.01875 375.411516 
L 304.48125 375.411516 
" clip-path="url(#p0e20d88af5)" style="fill: none; stroke: #000000; stroke-linecap: round"/>
   </g>
   <g id="line2d_17">
    <path d="M 294.01875 300.909206 
L 304.48125 300.909206 
" clip-path="url(#p0e20d88af5)" style="fill: none; stroke: #000000; stroke-linecap: round"/>
   </g>
   <g id="patch_5">
    <path d="M 428.2875 371.102753 
L 449.2125 371.102753 
L 449.2125 360.533173 
L 428.2875 360.533173 
L 428.2875 371.102753 
z
" clip-path="url(#p0e20d88af5)" style="fill: #009e73; opacity: 0.5; stroke: #000000; stroke-linejoin: miter"/>
   </g>
   <g id="line2d_18">
    <path d="M 438.75 371.102753 
L 438.75 384.678995 
" clip-path="url(#p0e20d88af5)" style="fill: none; stroke: #000000; stroke-linecap: round"/>
   </g>
   <g id="line2d_19">
    <path d="M 438.75 360.533173 
L 438.75 348.027274 
" clip-path="url(#p0e20d88af5)" style="fill: none; stroke: #000000; stroke-linecap: round"/>
   </g>
   <g id="line2d_20">
    <path d="M 433.51875 384.678995 
L 443.98125 384.678995 
" clip-path="url(#p0e20d88af5)" style="fill: none; stroke: #000000; stroke-linecap: round"/>
   </g>
   <g id="line2d_21">
    <path d="M 433.51875 348.027274 
L 443.98125 348.027274 
" clip-path="url(#p0e20d88af5)" style="fill: none; stroke: #000000; stroke-linecap: round"/>
   </g>
   <g id="patch_6">
    <path d="M 567.7875 447.770565 
L 588.7125 447.770565 
L 588.7125 423.905734 
L 567.7875 423.905734 
L 567.7875 447.770565 
z
" clip-path="url(#p0e20d88af5)" style="fill: #cc79a7; opacity: 0.5; stroke: #000000; stroke-linejoin: miter"/>
   </g>
   <g id="line2d_22">
    <path d="M 578.25 447.770565 
L 578.25 481.768624 
" clip-path="url(#p0e20d88af5)" style="fill: none; stroke: #000000; stroke-linecap: round"/>
   </g>
   <g id="line2d_23">
    <path d="M 578.25 423.905734 
L 578.25 400.887716 
" clip-path="url(#p0e20d88af5)" style="fill: none; stroke: #000000; stroke-linecap: round"/>
   </g>
   <g id="line2d_24">
    <path d="M 573.01875 481.768624 
L 583.48125 481.768624 
" clip-path="url(#p0e20d88af5)" style="fill: none; stroke: #000000; stroke-linecap: round"/>
   </g>
   <g id="line2d_25">
    <path d="M 573.01875 400.887716 
L 583.48125 400.887716 
" clip-path="url(#p0e20d88af5)" style="fill: none; stroke: #000000; stroke-linecap: round"/>
   </g>
   <g id="line2d_26">
    <path d="M 159.75 262.377359 
L 299.25 262.377359 
" clip-path="url(#p0e20d88af5)" style="fill: none; stroke: #000000; stroke-width: 1.5; stroke-linecap: round"/>
   </g>
   <g id="line2d_27">
    <path d="M 159.75 239.258251 
L 438.75 239.258251 
" clip-path="url(#p0e20d88af5)" style="fill: none; stroke: #000000; stroke-width: 1.5; stroke-linecap: round"/>
   </g>
   <g id="line2d_28">
    <path d="M 159.75 216.139143 
L 578.25 216.139143 
" clip-path="url(#p0e20d88af5)" style="fill: none; stroke: #000000; stroke-width: 1.5; stroke-linecap: round"/>
   </g>
   <g id="line2d_29">
    <path d="M 299.25 193.020035 
L 438.75 193.020035 
" clip-path="url(#p0e20d88af5)" style="fill: none; stroke: #000000; stroke-width: 1.5; stroke-linecap: round"/>
   </g>
   <g id="line2d_30">
    <path d="M 299.25 169.900926 
L 578.25 169.900926 
" clip-path="url(#p0e20d88af5)" style="fill: none; stroke: #000000; stroke-width: 1.5; stroke-linecap: round"/>
   </g>
   <g id="line2d_31">
    <path d="M 438.75 146.781818 
L 578.25 146.781818 
" clip-path="url(#p0e20d88af5)" style="fill: none; stroke: #000000; stroke-width: 1.5; stroke-linecap: round"/>
   </g>
   <g id="line2d_32">
    <path d="M 149.2875 387.388229 
L 170.2125 387.388229 
" clip-path="url(#p0e20d88af5)" style="fill: none; stroke: #000000"/>
   </g>
   <g id="line2d_33">
    <path d="M 288.7875 340.283417 
L 309.7125 340.283417 
" clip-path="url(#p0e20d88af5)" style="fill: none; stroke: #000000"/>
   </g>
   <g id="line2d_34">
    <path d="M 428.2875 366.167787 
L 449.2125 366.167787 
" clip-path="url(#p0e20d88af5)" style="fill: none; stroke: #000000"/>
   </g>
   <g id="line2d_35">
    <path d="M 567.7875 429.084223 
L 588.7125 429.084223 
" clip-path="url(#p0e20d88af5)" style="fill: none; stroke: #000000"/>
   </g>
   <g id="patch_7">
    <path d="M 90 507.6 
L 90 129.6 
" style="fill: none; stroke: #262626; stroke-width: 1.25; stroke-linejoin: miter; stroke-linecap: square"/>
   </g>
   <g id="patch_8">
    <path d="M 648 507.6 
L 648 129.6 
" style="fill: none; stroke: #262626; stroke-width: 1.25; stroke-linejoin: miter; stroke-linecap: square"/>
   </g>
   <g id="patch_9">
    <path d="M 90 507.6 
L 648 507.6 
" style="fill: none; stroke: #262626; stroke-width: 1.25; stroke-linejoin: miter; stroke-linecap: square"/>
   </g>
   <g id="patch_10">
    <path d="M 90 129.6 
L 648 129.6 
" style="fill: none; stroke: #262626; stroke-width: 1.25; stroke-linejoin: miter; stroke-linecap: square"/>
   </g>
   <g id="text_11">
    <!-- * -->
    <g transform="translate(229.5 262.377359) scale(0.12 -0.12)">
     <defs>
      <path id="ArialMT-2a" d="M 200 3741 
L 344 4184 
Q 841 4009 1066 3881 
Q 1006 4447 1003 4659 
L 1456 4659 
Q 1447 4350 1384 3884 
Q 1706 4047 2122 4184 
L 2266 3741 
Q 1869 3609 1488 3566 
Q 1678 3400 2025 2975 
L 1650 2709 
Q 1469 2956 1222 3381 
Q 991 2941 816 2709 
L 447 2975 
Q 809 3422 966 3566 
Q 563 3644 200 3741 
z
" transform="scale(0.015625)"/>
     </defs>
     <use xlink:href="#ArialMT-2a"/>
    </g>
   </g>
   <g id="text_12">
    <!-- * -->
    <g transform="translate(299.25 239.258251) scale(0.12 -0.12)">
     <use xlink:href="#ArialMT-2a"/>
    </g>
   </g>
   <g id="text_13">
    <!-- * -->
    <g transform="translate(369 216.139143) scale(0.12 -0.12)">
     <use xlink:href="#ArialMT-2a"/>
    </g>
   </g>
   <g id="text_14">
    <!-- * -->
    <g transform="translate(369 193.020035) scale(0.12 -0.12)">
     <use xlink:href="#ArialMT-2a"/>
    </g>
   </g>
   <g id="text_15">
    <!-- * -->
    <g transform="translate(438.75 169.900926) scale(0.12 -0.12)">
     <use xlink:href="#ArialMT-2a"/>
    </g>
   </g>
   <g id="text_16">
    <!-- * -->
    <g transform="translate(508.5 146.781818) scale(0.12 -0.12)">
     <use xlink:href="#ArialMT-2a"/>
    </g>
   </g>
   <g id="text_17">
    <!-- IBI -->
    <g style="fill: #262626" transform="translate(360.055313 109.6) scale(0.14 -0.14)">
     <defs>
      <path id="Arial-BoldMT-49" d="M 438 0 
L 438 4581 
L 1363 4581 
L 1363 0 
L 438 0 
z
" transform="scale(0.015625)"/>
      <path id="Arial-BoldMT-42" d="M 469 4581 
L 2300 4581 
Q 2844 4581 3111 4536 
Q 3378 4491 3589 4347 
Q 3800 4203 3940 3964 
Q 4081 3725 4081 3428 
Q 4081 3106 3907 2837 
Q 3734 2569 3438 2434 
Q 3856 2313 4081 2019 
Q 4306 1725 4306 1328 
Q 4306 1016 4161 720 
Q 4016 425 3764 248 
Q 3513 72 3144 31 
Q 2913 6 2028 0 
L 469 0 
L 469 4581 
z
M 1394 3819 
L 1394 2759 
L 2000 2759 
Q 2541 2759 2672 2775 
Q 2909 2803 3045 2939 
Q 3181 3075 3181 3297 
Q 3181 3509 3064 3642 
Q 2947 3775 2716 3803 
Q 2578 3819 1925 3819 
L 1394 3819 
z
M 1394 1997 
L 1394 772 
L 2250 772 
Q 2750 772 2884 800 
Q 3091 838 3220 983 
Q 3350 1128 3350 1372 
Q 3350 1578 3250 1722 
Q 3150 1866 2961 1931 
Q 2772 1997 2141 1997 
L 1394 1997 
z
" transform="scale(0.015625)"/>
     </defs>
     <use xlink:href="#Arial-BoldMT-49"/>
     <use xlink:href="#Arial-BoldMT-42" x="27.783203"/>
     <use xlink:href="#Arial-BoldMT-49" x="100"/>
    </g>
   </g>
  </g>
  <g id="axes_2">
   <g id="patch_11">
    <path d="M 90 961.2 
L 648 961.2 
L 648 583.2 
L 90 583.2 
z
" style="fill: #ffffff"/>
   </g>
   <g id="matplotlib.axis_3">
    <g id="xtick_5">
     <g id="line2d_36">
      <g>
       <use xlink:href="#mcfcc2b3563" x="159.75" y="961.2" style="fill: #262626; stroke: #262626; stroke-width: 1.25"/>
      </g>
     </g>
     <g id="text_18">
      <!-- State 1 -->
      <g style="fill: #262626" transform="translate(142.321875 978.573594) scale(0.11 -0.11)">
       <use xlink:href="#ArialMT-53"/>
       <use xlink:href="#ArialMT-74" x="66.699219"/>
       <use xlink:href="#ArialMT-61" x="94.482422"/>
       <use xlink:href="#ArialMT-74" x="150.097656"/>
       <use xlink:href="#ArialMT-65" x="177.880859"/>
       <use xlink:href="#ArialMT-20" x="233.496094"/>
       <use xlink:href="#ArialMT-31" x="261.279297"/>
      </g>
     </g>
    </g>
    <g id="xtick_6">
     <g id="line2d_37">
      <g>
       <use xlink:href="#mcfcc2b3563" x="299.25" y="961.2" style="fill: #262626; stroke: #262626; stroke-width: 1.25"/>
      </g>
     </g>
     <g id="text_19">
      <!-- State 2 -->
      <g style="fill: #262626" transform="translate(281.821875 978.573594) scale(0.11 -0.11)">
       <use xlink:href="#ArialMT-53"/>
       <use xlink:href="#ArialMT-74" x="66.699219"/>
       <use xlink:href="#ArialMT-61" x="94.482422"/>
       <use xlink:href="#ArialMT-74" x="150.097656"/>
       <use xlink:href="#ArialMT-65" x="177.880859"/>
       <use xlink:href="#ArialMT-20" x="233.496094"/>
       <use xlink:href="#ArialMT-32" x="261.279297"/>
      </g>
     </g>
    </g>
    <g id="xtick_7">
     <g id="line2d_38">
      <g>
       <use xlink:href="#mcfcc2b3563" x="438.75" y="961.2" style="fill: #262626; stroke: #262626; stroke-width: 1.25"/>
      </g>
     </g>
     <g id="text_20">
      <!-- State 3 -->
      <g style="fill: #262626" transform="translate(421.321875 978.573594) scale(0.11 -0.11)">
       <use xlink:href="#ArialMT-53"/>
       <use xlink:href="#ArialMT-74" x="66.699219"/>
       <use xlink:href="#ArialMT-61" x="94.482422"/>
       <use xlink:href="#ArialMT-74" x="150.097656"/>
       <use xlink:href="#ArialMT-65" x="177.880859"/>
       <use xlink:href="#ArialMT-20" x="233.496094"/>
       <use xlink:href="#ArialMT-33" x="261.279297"/>
      </g>
     </g>
    </g>
    <g id="xtick_8">
     <g id="line2d_39">
      <g>
       <use xlink:href="#mcfcc2b3563" x="578.25" y="961.2" style="fill: #262626; stroke: #262626; stroke-width: 1.25"/>
      </g>
     </g>
     <g id="text_21">
      <!-- State 4 -->
      <g style="fill: #262626" transform="translate(560.821875 978.573594) scale(0.11 -0.11)">
       <use xlink:href="#ArialMT-53"/>
       <use xlink:href="#ArialMT-74" x="66.699219"/>
       <use xlink:href="#ArialMT-61" x="94.482422"/>
       <use xlink:href="#ArialMT-74" x="150.097656"/>
       <use xlink:href="#ArialMT-65" x="177.880859"/>
       <use xlink:href="#ArialMT-20" x="233.496094"/>
       <use xlink:href="#ArialMT-34" x="261.279297"/>
      </g>
     </g>
    </g>
   </g>
   <g id="matplotlib.axis_4">
    <g id="ytick_6">
     <g id="line2d_40">
      <g>
       <use xlink:href="#m3497f593f4" x="90" y="905.9306" style="fill: #262626; stroke: #262626; stroke-width: 1.25"/>
      </g>
     </g>
     <g id="text_22">
      <!-- −1 -->
      <g style="fill: #262626" transform="translate(67.958281 909.867396) scale(0.11 -0.11)">
       <use xlink:href="#ArialMT-2212"/>
       <use xlink:href="#ArialMT-31" x="58.398438"/>
      </g>
     </g>
    </g>
    <g id="ytick_7">
     <g id="line2d_41">
      <g>
       <use xlink:href="#m3497f593f4" x="90" y="847.273568" style="fill: #262626; stroke: #262626; stroke-width: 1.25"/>
      </g>
     </g>
     <g id="text_23">
      <!-- 0 -->
      <g style="fill: #262626" transform="translate(74.382969 851.210364) scale(0.11 -0.11)">
       <use xlink:href="#ArialMT-30"/>
      </g>
     </g>
    </g>
    <g id="ytick_8">
     <g id="line2d_42">
      <g>
       <use xlink:href="#m3497f593f4" x="90" y="788.616535" style="fill: #262626; stroke: #262626; stroke-width: 1.25"/>
      </g>
     </g>
     <g id="text_24">
      <!-- 1 -->
      <g style="fill: #262626" transform="translate(74.382969 792.553332) scale(0.11 -0.11)">
       <use xlink:href="#ArialMT-31"/>
      </g>
     </g>
    </g>
    <g id="ytick_9">
     <g id="line2d_43">
      <g>
       <use xlink:href="#m3497f593f4" x="90" y="729.959503" style="fill: #262626; stroke: #262626; stroke-width: 1.25"/>
      </g>
     </g>
     <g id="text_25">
      <!-- 2 -->
      <g style="fill: #262626" transform="translate(74.382969 733.8963) scale(0.11 -0.11)">
       <use xlink:href="#ArialMT-32"/>
      </g>
     </g>
    </g>
    <g id="ytick_10">
     <g id="line2d_44">
      <g>
       <use xlink:href="#m3497f593f4" x="90" y="671.302471" style="fill: #262626; stroke: #262626; stroke-width: 1.25"/>
      </g>
     </g>
     <g id="text_26">
      <!-- 3 -->
      <g style="fill: #262626" transform="translate(74.382969 675.239268) scale(0.11 -0.11)">
       <use xlink:href="#ArialMT-33"/>
      </g>
     </g>
    </g>
    <g id="ytick_11">
     <g id="line2d_45">
      <g>
       <use xlink:href="#m3497f593f4" x="90" y="612.645439" style="fill: #262626; stroke: #262626; stroke-width: 1.25"/>
      </g>
     </g>
     <g id="text_27">
      <!-- 4 -->
      <g style="fill: #262626" transform="translate(74.382969 616.582236) scale(0.11 -0.11)">
       <use xlink:href="#ArialMT-34"/>
      </g>
     </g>
    </g>
    <g id="text_28">
     <!-- Value (z-scored) -->
     <g style="fill: #262626" transform="translate(61.432656 815.770313) rotate(-90) scale(0.12 -0.12)">
      <use xlink:href="#ArialMT-56"/>
      <use xlink:href="#ArialMT-61" x="59.324219"/>
      <use xlink:href="#ArialMT-6c" x="114.939453"/>
      <use xlink:href="#ArialMT-75" x="137.15625"/>
      <use xlink:href="#ArialMT-65" x="192.771484"/>
      <use xlink:href="#ArialMT-20" x="248.386719"/>
      <use xlink:href="#ArialMT-28" x="276.169922"/>
      <use xlink:href="#ArialMT-7a" x="309.470703"/>
      <use xlink:href="#ArialMT-2d" x="359.470703"/>
      <use xlink:href="#ArialMT-73" x="392.771484"/>
      <use xlink:href="#ArialMT-63" x="442.771484"/>
      <use xlink:href="#ArialMT-6f" x="492.771484"/>
      <use xlink:href="#ArialMT-72" x="548.386719"/>
      <use xlink:href="#ArialMT-65" x="581.6875"/>
      <use xlink:href="#ArialMT-64" x="637.302734"/>
      <use xlink:href="#ArialMT-29" x="692.917969"/>
     </g>
    </g>
   </g>
   <g id="PolyCollection_5">
    <defs>
     <path id="m27ef9436a6" d="M 164.699503 -204.568575 
L 159.902404 -204.568575 
L 159.902404 -204.757528 
L 159.902404 -204.946482 
L 159.902404 -205.135436 
L 159.902404 -205.32439 
L 159.902404 -205.513344 
L 159.902404 -205.702298 
L 159.902404 -205.891252 
L 159.902404 -206.080206 
L 159.902404 -206.26916 
L 159.902404 -206.458114 
L 159.902404 -206.647068 
L 159.902404 -206.836022 
L 159.902404 -207.024976 
L 159.902404 -207.21393 
L 159.902404 -207.402884 
L 159.902404 -207.591838 
L 159.902404 -207.780792 
L 159.902404 -207.969746 
L 159.902404 -208.1587 
L 159.902404 -208.347654 
L 159.902404 -208.536608 
L 159.902404 -208.725562 
L 159.902404 -208.914516 
L 159.902404 -209.10347 
L 159.902404 -209.292424 
L 159.902404 -209.481378 
L 159.902404 -209.670332 
L 159.902404 -209.859286 
L 159.902404 -210.04824 
L 159.902404 -210.237194 
L 159.902404 -210.426148 
L 159.902404 -210.615102 
L 159.902404 -210.804056 
L 159.902404 -210.99301 
L 159.902404 -211.181964 
L 159.902404 -211.370917 
L 159.902404 -211.559871 
L 159.902404 -211.748825 
L 162.195738 -211.748825 
L 162.195738 -211.748825 
L 162.471595 -211.559871 
L 162.806603 -211.370917 
L 163.285613 -211.181964 
L 163.997518 -210.99301 
L 165.013438 -210.804056 
L 166.369655 -210.615102 
L 168.061156 -210.426148 
L 170.047799 -210.237194 
L 172.270445 -210.04824 
L 174.670387 -209.859286 
L 177.20341 -209.670332 
L 179.841104 -209.481378 
L 182.556943 -209.292424 
L 185.301875 -209.10347 
L 187.980596 -208.914516 
L 190.441909 -208.725562 
L 192.492754 -208.536608 
L 193.936464 -208.347654 
L 194.625 -208.1587 
L 194.507003 -207.969746 
L 193.652409 -207.780792 
L 192.241569 -207.591838 
L 190.520042 -207.402884 
L 188.733811 -207.21393 
L 187.067185 -207.024976 
L 185.603627 -206.836022 
L 184.319762 -206.647068 
L 183.110467 -206.458114 
L 181.83372 -206.26916 
L 180.360387 -206.080206 
L 178.615226 -205.891252 
L 176.599151 -205.702298 
L 174.387919 -205.513344 
L 172.108876 -205.32439 
L 169.904259 -205.135436 
L 167.894183 -204.946482 
L 166.152108 -204.757528 
L 164.699503 -204.568575 
z
" style="stroke: #d55e00; stroke-opacity: 0.3"/>
    </defs>
    <g clip-path="url(#pd71a3685cd)">
     <use xlink:href="#m27ef9436a6" x="0" y="1080" style="fill: #d55e00; fill-opacity: 0.3; stroke: #d55e00; stroke-opacity: 0.3"/>
    </g>
   </g>
   <g id="PolyCollection_6">
    <defs>
     <path id="m4411ab7fd1" d="M 301.607157 -297.694053 
L 299.333613 -297.694053 
L 299.333613 -299.394318 
L 299.333613 -301.094583 
L 299.333613 -302.794848 
L 299.333613 -304.495113 
L 299.333613 -306.195378 
L 299.333613 -307.895643 
L 299.333613 -309.595907 
L 299.333613 -311.296172 
L 299.333613 -312.996437 
L 299.333613 -314.696702 
L 299.333613 -316.396967 
L 299.333613 -318.097232 
L 299.333613 -319.797497 
L 299.333613 -321.497761 
L 299.333613 -323.198026 
L 299.333613 -324.898291 
L 299.333613 -326.598556 
L 299.333613 -328.298821 
L 299.333613 -329.999086 
L 299.333613 -331.69935 
L 299.333613 -333.399615 
L 299.333613 -335.09988 
L 299.333613 -336.800145 
L 299.333613 -338.50041 
L 299.333613 -340.200675 
L 299.333613 -341.90094 
L 299.333613 -343.601204 
L 299.333613 -345.301469 
L 299.333613 -347.001734 
L 299.333613 -348.701999 
L 299.333613 -350.402264 
L 299.333613 -352.102529 
L 299.333613 -353.802793 
L 299.333613 -355.503058 
L 299.333613 -357.203323 
L 299.333613 -358.903588 
L 299.333613 -360.603853 
L 299.333613 -362.304118 
L 301.308364 -362.304118 
L 301.308364 -362.304118 
L 301.461348 -360.603853 
L 301.554269 -358.903588 
L 301.616352 -357.203323 
L 301.677238 -355.503058 
L 301.762834 -353.802793 
L 301.902715 -352.102529 
L 302.14108 -350.402264 
L 302.538785 -348.701999 
L 303.160609 -347.001734 
L 304.054676 -345.301469 
L 305.238724 -343.601204 
L 306.703231 -341.90094 
L 308.427701 -340.200675 
L 310.395352 -338.50041 
L 312.593248 -336.800145 
L 314.998413 -335.09988 
L 317.563946 -333.399615 
L 320.21993 -331.69935 
L 322.890141 -329.999086 
L 325.508517 -328.298821 
L 328.014652 -326.598556 
L 330.321845 -324.898291 
L 332.275857 -323.198026 
L 333.638759 -321.497761 
L 334.125 -319.797497 
L 333.486967 -318.097232 
L 331.613865 -316.396967 
L 328.594503 -314.696702 
L 324.712286 -312.996437 
L 320.376939 -311.296172 
L 316.026809 -309.595907 
L 312.040379 -307.895643 
L 308.679463 -306.195378 
L 306.066995 -304.495113 
L 304.193012 -302.794848 
L 302.942769 -301.094583 
L 302.141614 -299.394318 
L 301.607157 -297.694053 
z
" style="stroke: #0072b2; stroke-opacity: 0.3"/>
    </defs>
    <g clip-path="url(#pd71a3685cd)">
     <use xlink:href="#m4411ab7fd1" x="0" y="1080" style="fill: #0072b2; fill-opacity: 0.3; stroke: #0072b2; stroke-opacity: 0.3"/>
    </g>
   </g>
   <g id="PolyCollection_7">
    <defs>
     <path id="mac53a14c70" d="M 451.350978 -245.698767 
L 439.282646 -245.698767 
L 439.282646 -245.919889 
L 439.282646 -246.14101 
L 439.282646 -246.362132 
L 439.282646 -246.583254 
L 439.282646 -246.804376 
L 439.282646 -247.025498 
L 439.282646 -247.24662 
L 439.282646 -247.467742 
L 439.282646 -247.688864 
L 439.282646 -247.909985 
L 439.282646 -248.131107 
L 439.282646 -248.352229 
L 439.282646 -248.573351 
L 439.282646 -248.794473 
L 439.282646 -249.015595 
L 439.282646 -249.236717 
L 439.282646 -249.457839 
L 439.282646 -249.67896 
L 439.282646 -249.900082 
L 439.282646 -250.121204 
L 439.282646 -250.342326 
L 439.282646 -250.563448 
L 439.282646 -250.78457 
L 439.282646 -251.005692 
L 439.282646 -251.226814 
L 439.282646 -251.447935 
L 439.282646 -251.669057 
L 439.282646 -251.890179 
L 439.282646 -252.111301 
L 439.282646 -252.332423 
L 439.282646 -252.553545 
L 439.282646 -252.774667 
L 439.282646 -252.995789 
L 439.282646 -253.21691 
L 439.282646 -253.438032 
L 439.282646 -253.659154 
L 439.282646 -253.880276 
L 439.282646 -254.101398 
L 456.692354 -254.101398 
L 456.692354 -254.101398 
L 458.989533 -253.880276 
L 461.108555 -253.659154 
L 462.982072 -253.438032 
L 464.572258 -253.21691 
L 465.876233 -252.995789 
L 466.925534 -252.774667 
L 467.779154 -252.553545 
L 468.511069 -252.332423 
L 469.194578 -252.111301 
L 469.886672 -251.890179 
L 470.615815 -251.669057 
L 471.375799 -251.447935 
L 472.126882 -251.226814 
L 472.803699 -251.005692 
L 473.327888 -250.78457 
L 473.622479 -250.563448 
L 473.625 -250.342326 
L 473.296995 -250.121204 
L 472.628746 -249.900082 
L 471.639247 -249.67896 
L 470.372391 -249.457839 
L 468.890746 -249.236717 
L 467.268318 -249.015595 
L 465.583332 -248.794473 
L 463.911624 -248.573351 
L 462.320857 -248.352229 
L 460.865573 -248.131107 
L 459.583089 -247.909985 
L 458.490379 -247.688864 
L 457.582323 -247.467742 
L 456.831834 -247.24662 
L 456.192391 -247.025498 
L 455.603269 -246.804376 
L 454.99725 -246.583254 
L 454.310004 -246.362132 
L 453.489716 -246.14101 
L 452.505218 -245.919889 
L 451.350978 -245.698767 
z
" style="stroke: #009e73; stroke-opacity: 0.3"/>
    </defs>
    <g clip-path="url(#pd71a3685cd)">
     <use xlink:href="#mac53a14c70" x="0" y="1080" style="fill: #009e73; fill-opacity: 0.3; stroke: #009e73; stroke-opacity: 0.3"/>
    </g>
   </g>
   <g id="PolyCollection_8">
    <defs>
     <path id="m33c19c5d38" d="M 582.808808 -135.981818 
L 578.424854 -135.981818 
L 578.424854 -137.235414 
L 578.424854 -138.489009 
L 578.424854 -139.742605 
L 578.424854 -140.9962 
L 578.424854 -142.249795 
L 578.424854 -143.503391 
L 578.424854 -144.756986 
L 578.424854 -146.010582 
L 578.424854 -147.264177 
L 578.424854 -148.517773 
L 578.424854 -149.771368 
L 578.424854 -151.024964 
L 578.424854 -152.278559 
L 578.424854 -153.532154 
L 578.424854 -154.78575 
L 578.424854 -156.039345 
L 578.424854 -157.292941 
L 578.424854 -158.546536 
L 578.424854 -159.800132 
L 578.424854 -161.053727 
L 578.424854 -162.307323 
L 578.424854 -163.560918 
L 578.424854 -164.814513 
L 578.424854 -166.068109 
L 578.424854 -167.321704 
L 578.424854 -168.5753 
L 578.424854 -169.828895 
L 578.424854 -171.082491 
L 578.424854 -172.336086 
L 578.424854 -173.589682 
L 578.424854 -174.843277 
L 578.424854 -176.096872 
L 578.424854 -177.350468 
L 578.424854 -178.604063 
L 578.424854 -179.857659 
L 578.424854 -181.111254 
L 578.424854 -182.36485 
L 578.424854 -183.618445 
L 583.295549 -183.618445 
L 583.295549 -183.618445 
L 584.634885 -182.36485 
L 586.259756 -181.111254 
L 588.221117 -179.857659 
L 590.556435 -178.604063 
L 593.272221 -177.350468 
L 596.326668 -176.096872 
L 599.617452 -174.843277 
L 602.97965 -173.589682 
L 606.197139 -172.336086 
L 609.027646 -171.082491 
L 611.23767 -169.828895 
L 612.640022 -168.5753 
L 613.125 -167.321704 
L 612.677295 -166.068109 
L 611.374419 -164.814513 
L 609.367807 -163.560918 
L 606.852787 -162.307323 
L 604.036407 -161.053727 
L 601.111585 -159.800132 
L 598.242419 -158.546536 
L 595.560384 -157.292941 
L 593.166904 -156.039345 
L 591.136194 -154.78575 
L 589.514092 -153.532154 
L 588.31257 -152.278559 
L 587.503748 -151.024964 
L 587.019167 -149.771368 
L 586.75862 -148.517773 
L 586.608595 -147.264177 
L 586.465484 -146.010582 
L 586.255655 -144.756986 
L 585.945206 -143.503391 
L 585.536428 -142.249795 
L 585.053692 -140.9962 
L 584.525826 -139.742605 
L 583.972729 -138.489009 
L 583.401051 -137.235414 
L 582.808808 -135.981818 
z
" style="stroke: #cc79a7; stroke-opacity: 0.3"/>
    </defs>
    <g clip-path="url(#pd71a3685cd)">
     <use xlink:href="#m33c19c5d38" x="0" y="1080" style="fill: #cc79a7; fill-opacity: 0.3; stroke: #cc79a7; stroke-opacity: 0.3"/>
    </g>
   </g>
   <g id="PathCollection_5">
    <g clip-path="url(#pd71a3685cd)">
     <use xlink:href="#m93ddca6654" x="138.216102" y="873.321577" style="fill: #d55e00; stroke: #d55e00"/>
     <use xlink:href="#m93ddca6654" x="125.513087" y="871.700607" style="fill: #d55e00; stroke: #d55e00"/>
     <use xlink:href="#m93ddca6654" x="133.745482" y="872.655005" style="fill: #d55e00; stroke: #d55e00"/>
     <use xlink:href="#m93ddca6654" x="135.157997" y="868.251175" style="fill: #d55e00; stroke: #d55e00"/>
     <use xlink:href="#m93ddca6654" x="129.62225" y="871.349032" style="fill: #d55e00; stroke: #d55e00"/>
     <use xlink:href="#m93ddca6654" x="127.01911" y="870.668833" style="fill: #d55e00; stroke: #d55e00"/>
     <use xlink:href="#m93ddca6654" x="135.386038" y="872.287094" style="fill: #d55e00; stroke: #d55e00"/>
     <use xlink:href="#m93ddca6654" x="127.237905" y="873.060078" style="fill: #d55e00; stroke: #d55e00"/>
     <use xlink:href="#m93ddca6654" x="128.448752" y="870.647615" style="fill: #d55e00; stroke: #d55e00"/>
     <use xlink:href="#m93ddca6654" x="129.491911" y="874.14185" style="fill: #d55e00; stroke: #d55e00"/>
     <use xlink:href="#m93ddca6654" x="135.280263" y="873.916426" style="fill: #d55e00; stroke: #d55e00"/>
     <use xlink:href="#m93ddca6654" x="133.944809" y="874.328771" style="fill: #d55e00; stroke: #d55e00"/>
     <use xlink:href="#m93ddca6654" x="129.240441" y="871.974841" style="fill: #d55e00; stroke: #d55e00"/>
     <use xlink:href="#m93ddca6654" x="130.486026" y="873.812738" style="fill: #d55e00; stroke: #d55e00"/>
     <use xlink:href="#m93ddca6654" x="135.023101" y="872.086569" style="fill: #d55e00; stroke: #d55e00"/>
     <use xlink:href="#m93ddca6654" x="132.776415" y="872.220373" style="fill: #d55e00; stroke: #d55e00"/>
     <use xlink:href="#m93ddca6654" x="136.530295" y="871.88067" style="fill: #d55e00; stroke: #d55e00"/>
     <use xlink:href="#m93ddca6654" x="126.05763" y="872.468533" style="fill: #d55e00; stroke: #d55e00"/>
     <use xlink:href="#m93ddca6654" x="128.027839" y="872.425768" style="fill: #d55e00; stroke: #d55e00"/>
     <use xlink:href="#m93ddca6654" x="129.89768" y="873.13933" style="fill: #d55e00; stroke: #d55e00"/>
     <use xlink:href="#m93ddca6654" x="125.184294" y="870.341182" style="fill: #d55e00; stroke: #d55e00"/>
     <use xlink:href="#m93ddca6654" x="127.229318" y="870.149372" style="fill: #d55e00; stroke: #d55e00"/>
     <use xlink:href="#m93ddca6654" x="128.174271" y="873.650392" style="fill: #d55e00; stroke: #d55e00"/>
     <use xlink:href="#m93ddca6654" x="125.238612" y="871.884585" style="fill: #d55e00; stroke: #d55e00"/>
     <use xlink:href="#m93ddca6654" x="131.072443" y="869.632368" style="fill: #d55e00; stroke: #d55e00"/>
     <use xlink:href="#m93ddca6654" x="131.675659" y="872.131246" style="fill: #d55e00; stroke: #d55e00"/>
     <use xlink:href="#m93ddca6654" x="129.963564" y="871.212005" style="fill: #d55e00; stroke: #d55e00"/>
     <use xlink:href="#m93ddca6654" x="126.081554" y="870.273986" style="fill: #d55e00; stroke: #d55e00"/>
     <use xlink:href="#m93ddca6654" x="125.843928" y="875.431425" style="fill: #d55e00; stroke: #d55e00"/>
     <use xlink:href="#m93ddca6654" x="127.846576" y="873.083928" style="fill: #d55e00; stroke: #d55e00"/>
     <use xlink:href="#m93ddca6654" x="136.485931" y="874.251379" style="fill: #d55e00; stroke: #d55e00"/>
     <use xlink:href="#m93ddca6654" x="127.028758" y="874.482106" style="fill: #d55e00; stroke: #d55e00"/>
     <use xlink:href="#m93ddca6654" x="133.333982" y="873.525513" style="fill: #d55e00; stroke: #d55e00"/>
     <use xlink:href="#m93ddca6654" x="130.595094" y="871.236258" style="fill: #d55e00; stroke: #d55e00"/>
     <use xlink:href="#m93ddca6654" x="127.602723" y="871.880125" style="fill: #d55e00; stroke: #d55e00"/>
     <use xlink:href="#m93ddca6654" x="128.624528" y="871.334825" style="fill: #d55e00; stroke: #d55e00"/>
     <use xlink:href="#m93ddca6654" x="126.777701" y="871.786759" style="fill: #d55e00; stroke: #d55e00"/>
     <use xlink:href="#m93ddca6654" x="128.838546" y="871.065774" style="fill: #d55e00; stroke: #d55e00"/>
     <use xlink:href="#m93ddca6654" x="128.416107" y="871.485017" style="fill: #d55e00; stroke: #d55e00"/>
    </g>
   </g>
   <g id="PathCollection_6">
    <g clip-path="url(#pd71a3685cd)">
     <use xlink:href="#m3880677955" x="269.969458" y="761.463204" style="fill: #0072b2; stroke: #0072b2"/>
     <use xlink:href="#m3880677955" x="266.770736" y="762.514297" style="fill: #0072b2; stroke: #0072b2"/>
     <use xlink:href="#m3880677955" x="274.285392" y="757.308318" style="fill: #0072b2; stroke: #0072b2"/>
     <use xlink:href="#m3880677955" x="268.310212" y="747.271696" style="fill: #0072b2; stroke: #0072b2"/>
     <use xlink:href="#m3880677955" x="265.548309" y="762.762043" style="fill: #0072b2; stroke: #0072b2"/>
     <use xlink:href="#m3880677955" x="271.531942" y="764.040524" style="fill: #0072b2; stroke: #0072b2"/>
     <use xlink:href="#m3880677955" x="276.470703" y="752.124276" style="fill: #0072b2; stroke: #0072b2"/>
     <use xlink:href="#m3880677955" x="270.60829" y="767.644719" style="fill: #0072b2; stroke: #0072b2"/>
     <use xlink:href="#m3880677955" x="274.145786" y="740.184587" style="fill: #0072b2; stroke: #0072b2"/>
     <use xlink:href="#m3880677955" x="274.073041" y="758.541065" style="fill: #0072b2; stroke: #0072b2"/>
     <use xlink:href="#m3880677955" x="265.037588" y="727.858863" style="fill: #0072b2; stroke: #0072b2"/>
     <use xlink:href="#m3880677955" x="277.117529" y="746.626464" style="fill: #0072b2; stroke: #0072b2"/>
     <use xlink:href="#m3880677955" x="277.166106" y="756.426364" style="fill: #0072b2; stroke: #0072b2"/>
     <use xlink:href="#m3880677955" x="275.694966" y="751.93029" style="fill: #0072b2; stroke: #0072b2"/>
     <use xlink:href="#m3880677955" x="269.459273" y="758.369284" style="fill: #0072b2; stroke: #0072b2"/>
     <use xlink:href="#m3880677955" x="265.874188" y="738.378827" style="fill: #0072b2; stroke: #0072b2"/>
     <use xlink:href="#m3880677955" x="266.453617" y="749.756061" style="fill: #0072b2; stroke: #0072b2"/>
     <use xlink:href="#m3880677955" x="265.428175" y="754.561457" style="fill: #0072b2; stroke: #0072b2"/>
     <use xlink:href="#m3880677955" x="275.675096" y="770.044049" style="fill: #0072b2; stroke: #0072b2"/>
     <use xlink:href="#m3880677955" x="272.28564" y="750.219746" style="fill: #0072b2; stroke: #0072b2"/>
     <use xlink:href="#m3880677955" x="275.771617" y="782.305947" style="fill: #0072b2; stroke: #0072b2"/>
     <use xlink:href="#m3880677955" x="276.432815" y="764.891158" style="fill: #0072b2; stroke: #0072b2"/>
     <use xlink:href="#m3880677955" x="275.530256" y="761.586259" style="fill: #0072b2; stroke: #0072b2"/>
     <use xlink:href="#m3880677955" x="277.916003" y="742.081744" style="fill: #0072b2; stroke: #0072b2"/>
     <use xlink:href="#m3880677955" x="278.105011" y="753.883085" style="fill: #0072b2; stroke: #0072b2"/>
     <use xlink:href="#m3880677955" x="269.177514" y="763.253652" style="fill: #0072b2; stroke: #0072b2"/>
     <use xlink:href="#m3880677955" x="266.002996" y="763.49017" style="fill: #0072b2; stroke: #0072b2"/>
     <use xlink:href="#m3880677955" x="273.958563" y="759.08398" style="fill: #0072b2; stroke: #0072b2"/>
     <use xlink:href="#m3880677955" x="271.614399" y="717.695882" style="fill: #0072b2; stroke: #0072b2"/>
     <use xlink:href="#m3880677955" x="267.0522" y="758.468056" style="fill: #0072b2; stroke: #0072b2"/>
     <use xlink:href="#m3880677955" x="271.398781" y="769.349943" style="fill: #0072b2; stroke: #0072b2"/>
     <use xlink:href="#m3880677955" x="269.420603" y="746.661133" style="fill: #0072b2; stroke: #0072b2"/>
     <use xlink:href="#m3880677955" x="273.118119" y="750.658903" style="fill: #0072b2; stroke: #0072b2"/>
     <use xlink:href="#m3880677955" x="275.888996" y="764.805378" style="fill: #0072b2; stroke: #0072b2"/>
     <use xlink:href="#m3880677955" x="264.943196" y="763.199519" style="fill: #0072b2; stroke: #0072b2"/>
     <use xlink:href="#m3880677955" x="270.242017" y="762.540456" style="fill: #0072b2; stroke: #0072b2"/>
     <use xlink:href="#m3880677955" x="266.835657" y="770.35361" style="fill: #0072b2; stroke: #0072b2"/>
     <use xlink:href="#m3880677955" x="271.818241" y="753.822304" style="fill: #0072b2; stroke: #0072b2"/>
     <use xlink:href="#m3880677955" x="278.100697" y="760.016106" style="fill: #0072b2; stroke: #0072b2"/>
    </g>
   </g>
   <g id="PathCollection_7">
    <g clip-path="url(#pd71a3685cd)">
     <use xlink:href="#mc8fcdc8a53" x="408.754169" y="829.245454" style="fill: #009e73; stroke: #009e73"/>
     <use xlink:href="#mc8fcdc8a53" x="416.444885" y="830.231718" style="fill: #009e73; stroke: #009e73"/>
     <use xlink:href="#mc8fcdc8a53" x="409.829145" y="829.506128" style="fill: #009e73; stroke: #009e73"/>
     <use xlink:href="#mc8fcdc8a53" x="412.516819" y="834.301233" style="fill: #009e73; stroke: #009e73"/>
     <use xlink:href="#mc8fcdc8a53" x="411.492214" y="826.96665" style="fill: #009e73; stroke: #009e73"/>
     <use xlink:href="#mc8fcdc8a53" x="412.850723" y="830.718377" style="fill: #009e73; stroke: #009e73"/>
     <use xlink:href="#mc8fcdc8a53" x="411.957262" y="830.935235" style="fill: #009e73; stroke: #009e73"/>
     <use xlink:href="#mc8fcdc8a53" x="414.09605" y="826.925622" style="fill: #009e73; stroke: #009e73"/>
     <use xlink:href="#mc8fcdc8a53" x="414.463266" y="832.162663" style="fill: #009e73; stroke: #009e73"/>
     <use xlink:href="#mc8fcdc8a53" x="407.208855" y="828.786823" style="fill: #009e73; stroke: #009e73"/>
     <use xlink:href="#mc8fcdc8a53" x="408.809364" y="834.018362" style="fill: #009e73; stroke: #009e73"/>
     <use xlink:href="#mc8fcdc8a53" x="414.703859" y="827.532166" style="fill: #009e73; stroke: #009e73"/>
     <use xlink:href="#mc8fcdc8a53" x="404.711869" y="830.794127" style="fill: #009e73; stroke: #009e73"/>
     <use xlink:href="#mc8fcdc8a53" x="410.892793" y="829.986023" style="fill: #009e73; stroke: #009e73"/>
     <use xlink:href="#mc8fcdc8a53" x="411.146978" y="829.263091" style="fill: #009e73; stroke: #009e73"/>
     <use xlink:href="#mc8fcdc8a53" x="413.441296" y="832.993913" style="fill: #009e73; stroke: #009e73"/>
     <use xlink:href="#mc8fcdc8a53" x="416.874676" y="830.21817" style="fill: #009e73; stroke: #009e73"/>
     <use xlink:href="#mc8fcdc8a53" x="415.295974" y="827.062946" style="fill: #009e73; stroke: #009e73"/>
     <use xlink:href="#mc8fcdc8a53" x="404.766892" y="826.837805" style="fill: #009e73; stroke: #009e73"/>
     <use xlink:href="#mc8fcdc8a53" x="405.399747" y="832.030167" style="fill: #009e73; stroke: #009e73"/>
     <use xlink:href="#mc8fcdc8a53" x="416.907178" y="825.898602" style="fill: #009e73; stroke: #009e73"/>
     <use xlink:href="#mc8fcdc8a53" x="415.671205" y="831.123885" style="fill: #009e73; stroke: #009e73"/>
     <use xlink:href="#mc8fcdc8a53" x="406.495582" y="826.01876" style="fill: #009e73; stroke: #009e73"/>
     <use xlink:href="#mc8fcdc8a53" x="415.85042" y="828.870969" style="fill: #009e73; stroke: #009e73"/>
     <use xlink:href="#mc8fcdc8a53" x="417.522165" y="833.474077" style="fill: #009e73; stroke: #009e73"/>
     <use xlink:href="#mc8fcdc8a53" x="412.039999" y="826.772705" style="fill: #009e73; stroke: #009e73"/>
     <use xlink:href="#mc8fcdc8a53" x="404.318887" y="829.134335" style="fill: #009e73; stroke: #009e73"/>
     <use xlink:href="#mc8fcdc8a53" x="408.774124" y="830.940459" style="fill: #009e73; stroke: #009e73"/>
     <use xlink:href="#mc8fcdc8a53" x="404.681277" y="834.130372" style="fill: #009e73; stroke: #009e73"/>
     <use xlink:href="#mc8fcdc8a53" x="413.372167" y="827.016059" style="fill: #009e73; stroke: #009e73"/>
     <use xlink:href="#mc8fcdc8a53" x="414.214376" y="825.993189" style="fill: #009e73; stroke: #009e73"/>
     <use xlink:href="#mc8fcdc8a53" x="415.932713" y="828.67272" style="fill: #009e73; stroke: #009e73"/>
     <use xlink:href="#mc8fcdc8a53" x="411.045535" y="832.063929" style="fill: #009e73; stroke: #009e73"/>
     <use xlink:href="#mc8fcdc8a53" x="409.281187" y="829.705105" style="fill: #009e73; stroke: #009e73"/>
     <use xlink:href="#mc8fcdc8a53" x="410.223769" y="829.783149" style="fill: #009e73; stroke: #009e73"/>
     <use xlink:href="#mc8fcdc8a53" x="404.360618" y="827.804623" style="fill: #009e73; stroke: #009e73"/>
     <use xlink:href="#mc8fcdc8a53" x="415.825235" y="827.685091" style="fill: #009e73; stroke: #009e73"/>
     <use xlink:href="#mc8fcdc8a53" x="408.265208" y="829.227067" style="fill: #009e73; stroke: #009e73"/>
     <use xlink:href="#mc8fcdc8a53" x="409.229347" y="833.924782" style="fill: #009e73; stroke: #009e73"/>
    </g>
   </g>
   <g id="PathCollection_8">
    <g clip-path="url(#pd71a3685cd)">
     <use xlink:href="#m9c5369ae82" x="543.963173" y="915.540855" style="fill: #cc79a7; stroke: #cc79a7"/>
     <use xlink:href="#m9c5369ae82" x="556.097178" y="920.817926" style="fill: #cc79a7; stroke: #cc79a7"/>
     <use xlink:href="#m9c5369ae82" x="553.258349" y="910.7335" style="fill: #cc79a7; stroke: #cc79a7"/>
     <use xlink:href="#m9c5369ae82" x="545.50891" y="932.445412" style="fill: #cc79a7; stroke: #cc79a7"/>
     <use xlink:href="#m9c5369ae82" x="551.159713" y="916.062001" style="fill: #cc79a7; stroke: #cc79a7"/>
     <use xlink:href="#m9c5369ae82" x="546.701261" y="935.074349" style="fill: #cc79a7; stroke: #cc79a7"/>
     <use xlink:href="#m9c5369ae82" x="552.778554" y="907.201256" style="fill: #cc79a7; stroke: #cc79a7"/>
     <use xlink:href="#m9c5369ae82" x="551.568318" y="914.407365" style="fill: #cc79a7; stroke: #cc79a7"/>
     <use xlink:href="#m9c5369ae82" x="544.768918" y="902.857974" style="fill: #cc79a7; stroke: #cc79a7"/>
     <use xlink:href="#m9c5369ae82" x="553.34263" y="914.31851" style="fill: #cc79a7; stroke: #cc79a7"/>
     <use xlink:href="#m9c5369ae82" x="555.006213" y="910.961379" style="fill: #cc79a7; stroke: #cc79a7"/>
     <use xlink:href="#m9c5369ae82" x="549.454933" y="911.768359" style="fill: #cc79a7; stroke: #cc79a7"/>
     <use xlink:href="#m9c5369ae82" x="544.564097" y="909.280434" style="fill: #cc79a7; stroke: #cc79a7"/>
     <use xlink:href="#m9c5369ae82" x="555.238838" y="911.322336" style="fill: #cc79a7; stroke: #cc79a7"/>
     <use xlink:href="#m9c5369ae82" x="551.118647" y="901.003984" style="fill: #cc79a7; stroke: #cc79a7"/>
     <use xlink:href="#m9c5369ae82" x="548.828973" y="910.571464" style="fill: #cc79a7; stroke: #cc79a7"/>
     <use xlink:href="#m9c5369ae82" x="546.337644" y="912.060177" style="fill: #cc79a7; stroke: #cc79a7"/>
     <use xlink:href="#m9c5369ae82" x="545.26678" y="944.018182" style="fill: #cc79a7; stroke: #cc79a7"/>
     <use xlink:href="#m9c5369ae82" x="544.357589" y="908.626077" style="fill: #cc79a7; stroke: #cc79a7"/>
     <use xlink:href="#m9c5369ae82" x="549.489557" y="935.295599" style="fill: #cc79a7; stroke: #cc79a7"/>
     <use xlink:href="#m9c5369ae82" x="549.93464" y="917.30559" style="fill: #cc79a7; stroke: #cc79a7"/>
     <use xlink:href="#m9c5369ae82" x="546.074318" y="912.269121" style="fill: #cc79a7; stroke: #cc79a7"/>
     <use xlink:href="#m9c5369ae82" x="545.373542" y="905.885823" style="fill: #cc79a7; stroke: #cc79a7"/>
     <use xlink:href="#m9c5369ae82" x="545.410277" y="919.665848" style="fill: #cc79a7; stroke: #cc79a7"/>
     <use xlink:href="#m9c5369ae82" x="547.975235" y="916.612342" style="fill: #cc79a7; stroke: #cc79a7"/>
     <use xlink:href="#m9c5369ae82" x="546.974345" y="921.961732" style="fill: #cc79a7; stroke: #cc79a7"/>
     <use xlink:href="#m9c5369ae82" x="548.419383" y="913.131578" style="fill: #cc79a7; stroke: #cc79a7"/>
     <use xlink:href="#m9c5369ae82" x="554.69851" y="896.381555" style="fill: #cc79a7; stroke: #cc79a7"/>
     <use xlink:href="#m9c5369ae82" x="556.165825" y="933.947229" style="fill: #cc79a7; stroke: #cc79a7"/>
     <use xlink:href="#m9c5369ae82" x="545.338232" y="911.44278" style="fill: #cc79a7; stroke: #cc79a7"/>
     <use xlink:href="#m9c5369ae82" x="544.298669" y="907.060021" style="fill: #cc79a7; stroke: #cc79a7"/>
     <use xlink:href="#m9c5369ae82" x="556.941572" y="915.737406" style="fill: #cc79a7; stroke: #cc79a7"/>
     <use xlink:href="#m9c5369ae82" x="545.66161" y="920.594489" style="fill: #cc79a7; stroke: #cc79a7"/>
     <use xlink:href="#m9c5369ae82" x="555.887577" y="907.318922" style="fill: #cc79a7; stroke: #cc79a7"/>
     <use xlink:href="#m9c5369ae82" x="549.52023" y="923.913896" style="fill: #cc79a7; stroke: #cc79a7"/>
     <use xlink:href="#m9c5369ae82" x="551.094053" y="943.056138" style="fill: #cc79a7; stroke: #cc79a7"/>
     <use xlink:href="#m9c5369ae82" x="549.62209" y="914.48489" style="fill: #cc79a7; stroke: #cc79a7"/>
     <use xlink:href="#m9c5369ae82" x="549.73425" y="925.27888" style="fill: #cc79a7; stroke: #cc79a7"/>
    </g>
   </g>
   <g id="patch_12">
    <path d="M 149.2875 873.230453 
L 170.2125 873.230453 
L 170.2125 871.285542 
L 149.2875 871.285542 
L 149.2875 873.230453 
z
" clip-path="url(#pd71a3685cd)" style="fill: #d55e00; opacity: 0.5; stroke: #000000; stroke-linejoin: miter"/>
   </g>
   <g id="line2d_46">
    <path d="M 159.75 873.230453 
L 159.75 875.431425 
" clip-path="url(#pd71a3685cd)" style="fill: none; stroke: #000000; stroke-linecap: round"/>
   </g>
   <g id="line2d_47">
    <path d="M 159.75 871.285542 
L 159.75 869.632368 
" clip-path="url(#pd71a3685cd)" style="fill: none; stroke: #000000; stroke-linecap: round"/>
   </g>
   <g id="line2d_48">
    <path d="M 154.51875 875.431425 
L 164.98125 875.431425 
" clip-path="url(#pd71a3685cd)" style="fill: none; stroke: #000000; stroke-linecap: round"/>
   </g>
   <g id="line2d_49">
    <path d="M 154.51875 869.632368 
L 164.98125 869.632368 
" clip-path="url(#pd71a3685cd)" style="fill: none; stroke: #000000; stroke-linecap: round"/>
   </g>
   <g id="patch_13">
    <path d="M 288.7875 763.226585 
L 309.7125 763.226585 
L 309.7125 750.439324 
L 288.7875 750.439324 
L 288.7875 763.226585 
z
" clip-path="url(#pd71a3685cd)" style="fill: #0072b2; opacity: 0.5; stroke: #000000; stroke-linejoin: miter"/>
   </g>
   <g id="line2d_50">
    <path d="M 299.25 763.226585 
L 299.25 782.305947 
" clip-path="url(#pd71a3685cd)" style="fill: none; stroke: #000000; stroke-linecap: round"/>
   </g>
   <g id="line2d_51">
    <path d="M 299.25 750.439324 
L 299.25 738.378827 
" clip-path="url(#pd71a3685cd)" style="fill: none; stroke: #000000; stroke-linecap: round"/>
   </g>
   <g id="line2d_52">
    <path d="M 294.01875 782.305947 
L 304.48125 782.305947 
" clip-path="url(#pd71a3685cd)" style="fill: none; stroke: #000000; stroke-linecap: round"/>
   </g>
   <g id="line2d_53">
    <path d="M 294.01875 738.378827 
L 304.48125 738.378827 
" clip-path="url(#pd71a3685cd)" style="fill: none; stroke: #000000; stroke-linecap: round"/>
   </g>
   <g id="patch_14">
    <path d="M 428.2875 831.032172 
L 449.2125 831.032172 
L 449.2125 827.608628 
L 428.2875 827.608628 
L 428.2875 831.032172 
z
" clip-path="url(#pd71a3685cd)" style="fill: #009e73; opacity: 0.5; stroke: #000000; stroke-linejoin: miter"/>
   </g>
   <g id="line2d_54">
    <path d="M 438.75 831.032172 
L 438.75 834.301233 
" clip-path="url(#pd71a3685cd)" style="fill: none; stroke: #000000; stroke-linecap: round"/>
   </g>
   <g id="line2d_55">
    <path d="M 438.75 827.608628 
L 438.75 825.898602 
" clip-path="url(#pd71a3685cd)" style="fill: none; stroke: #000000; stroke-linecap: round"/>
   </g>
   <g id="line2d_56">
    <path d="M 433.51875 834.301233 
L 443.98125 834.301233 
" clip-path="url(#pd71a3685cd)" style="fill: none; stroke: #000000; stroke-linecap: round"/>
   </g>
   <g id="line2d_57">
    <path d="M 433.51875 825.898602 
L 443.98125 825.898602 
" clip-path="url(#pd71a3685cd)" style="fill: none; stroke: #000000; stroke-linecap: round"/>
   </g>
   <g id="patch_15">
    <path d="M 567.7875 920.762067 
L 588.7125 920.762067 
L 588.7125 910.611973 
L 567.7875 910.611973 
L 567.7875 920.762067 
z
" clip-path="url(#pd71a3685cd)" style="fill: #cc79a7; opacity: 0.5; stroke: #000000; stroke-linejoin: miter"/>
   </g>
   <g id="line2d_58">
    <path d="M 578.25 920.762067 
L 578.25 935.295599 
" clip-path="url(#pd71a3685cd)" style="fill: none; stroke: #000000; stroke-linecap: round"/>
   </g>
   <g id="line2d_59">
    <path d="M 578.25 910.611973 
L 578.25 896.381555 
" clip-path="url(#pd71a3685cd)" style="fill: none; stroke: #000000; stroke-linecap: round"/>
   </g>
   <g id="line2d_60">
    <path d="M 573.01875 935.295599 
L 583.48125 935.295599 
" clip-path="url(#pd71a3685cd)" style="fill: none; stroke: #000000; stroke-linecap: round"/>
   </g>
   <g id="line2d_61">
    <path d="M 573.01875 896.381555 
L 583.48125 896.381555 
" clip-path="url(#pd71a3685cd)" style="fill: none; stroke: #000000; stroke-linecap: round"/>
   </g>
   <g id="line2d_62">
    <path d="M 159.75 688.367366 
L 299.25 688.367366 
" clip-path="url(#pd71a3685cd)" style="fill: none; stroke: #000000; stroke-width: 1.5; stroke-linecap: round"/>
   </g>
   <g id="line2d_63">
    <path d="M 159.75 670.770257 
L 438.75 670.770257 
" clip-path="url(#pd71a3685cd)" style="fill: none; stroke: #000000; stroke-width: 1.5; stroke-linecap: round"/>
   </g>
   <g id="line2d_64">
    <path d="M 159.75 653.173147 
L 578.25 653.173147 
" clip-path="url(#pd71a3685cd)" style="fill: none; stroke: #000000; stroke-width: 1.5; stroke-linecap: round"/>
   </g>
   <g id="line2d_65">
    <path d="M 299.25 635.576037 
L 438.75 635.576037 
" clip-path="url(#pd71a3685cd)" style="fill: none; stroke: #000000; stroke-width: 1.5; stroke-linecap: round"/>
   </g>
   <g id="line2d_66">
    <path d="M 299.25 617.978928 
L 578.25 617.978928 
" clip-path="url(#pd71a3685cd)" style="fill: none; stroke: #000000; stroke-width: 1.5; stroke-linecap: round"/>
   </g>
   <g id="line2d_67">
    <path d="M 438.75 600.381818 
L 578.25 600.381818 
" clip-path="url(#pd71a3685cd)" style="fill: none; stroke: #000000; stroke-width: 1.5; stroke-linecap: round"/>
   </g>
   <g id="line2d_68">
    <path d="M 149.2875 872.086569 
L 170.2125 872.086569 
" clip-path="url(#pd71a3685cd)" style="fill: none; stroke: #000000"/>
   </g>
   <g id="line2d_69">
    <path d="M 288.7875 758.468056 
L 309.7125 758.468056 
" clip-path="url(#pd71a3685cd)" style="fill: none; stroke: #000000"/>
   </g>
   <g id="line2d_70">
    <path d="M 428.2875 829.506128 
L 449.2125 829.506128 
" clip-path="url(#pd71a3685cd)" style="fill: none; stroke: #000000"/>
   </g>
   <g id="line2d_71">
    <path d="M 567.7875 914.362937 
L 588.7125 914.362937 
" clip-path="url(#pd71a3685cd)" style="fill: none; stroke: #000000"/>
   </g>
   <g id="patch_16">
    <path d="M 90 961.2 
L 90 583.2 
" style="fill: none; stroke: #262626; stroke-width: 1.25; stroke-linejoin: miter; stroke-linecap: square"/>
   </g>
   <g id="patch_17">
    <path d="M 648 961.2 
L 648 583.2 
" style="fill: none; stroke: #262626; stroke-width: 1.25; stroke-linejoin: miter; stroke-linecap: square"/>
   </g>
   <g id="patch_18">
    <path d="M 90 961.2 
L 648 961.2 
" style="fill: none; stroke: #262626; stroke-width: 1.25; stroke-linejoin: miter; stroke-linecap: square"/>
   </g>
   <g id="patch_19">
    <path d="M 90 583.2 
L 648 583.2 
" style="fill: none; stroke: #262626; stroke-width: 1.25; stroke-linejoin: miter; stroke-linecap: square"/>
   </g>
   <g id="text_29">
    <!-- * -->
    <g transform="translate(229.5 688.367366) scale(0.12 -0.12)">
     <use xlink:href="#ArialMT-2a"/>
    </g>
   </g>
   <g id="text_30">
    <!-- * -->
    <g transform="translate(299.25 670.770257) scale(0.12 -0.12)">
     <use xlink:href="#ArialMT-2a"/>
    </g>
   </g>
   <g id="text_31">
    <!-- * -->
    <g transform="translate(369 653.173147) scale(0.12 -0.12)">
     <use xlink:href="#ArialMT-2a"/>
    </g>
   </g>
   <g id="text_32">
    <!-- * -->
    <g transform="translate(369 635.576037) scale(0.12 -0.12)">
     <use xlink:href="#ArialMT-2a"/>
    </g>
   </g>
   <g id="text_33">
    <!-- * -->
    <g transform="translate(438.75 617.978928) scale(0.12 -0.12)">
     <use xlink:href="#ArialMT-2a"/>
    </g>
   </g>
   <g id="text_34">
    <!-- * -->
    <g transform="translate(508.5 600.381818) scale(0.12 -0.12)">
     <use xlink:href="#ArialMT-2a"/>
    </g>
   </g>
   <g id="text_35">
    <!-- HF-HRV -->
    <g style="fill: #262626" transform="translate(342.681094 563.2) scale(0.14 -0.14)">
     <defs>
      <path id="Arial-BoldMT-48" d="M 469 0 
L 469 4581 
L 1394 4581 
L 1394 2778 
L 3206 2778 
L 3206 4581 
L 4131 4581 
L 4131 0 
L 3206 0 
L 3206 2003 
L 1394 2003 
L 1394 0 
L 469 0 
z
" transform="scale(0.015625)"/>
      <path id="Arial-BoldMT-46" d="M 472 0 
L 472 4581 
L 3613 4581 
L 3613 3806 
L 1397 3806 
L 1397 2722 
L 3309 2722 
L 3309 1947 
L 1397 1947 
L 1397 0 
L 472 0 
z
" transform="scale(0.015625)"/>
      <path id="Arial-BoldMT-2d" d="M 359 1222 
L 359 2100 
L 2084 2100 
L 2084 1222 
L 359 1222 
z
" transform="scale(0.015625)"/>
      <path id="Arial-BoldMT-52" d="M 469 0 
L 469 4581 
L 2416 4581 
Q 3150 4581 3483 4457 
Q 3816 4334 4016 4018 
Q 4216 3703 4216 3297 
Q 4216 2781 3912 2445 
Q 3609 2109 3006 2022 
Q 3306 1847 3501 1637 
Q 3697 1428 4028 894 
L 4588 0 
L 3481 0 
L 2813 997 
Q 2456 1531 2325 1670 
Q 2194 1809 2047 1861 
Q 1900 1913 1581 1913 
L 1394 1913 
L 1394 0 
L 469 0 
z
M 1394 2644 
L 2078 2644 
Q 2744 2644 2909 2700 
Q 3075 2756 3169 2893 
Q 3263 3031 3263 3238 
Q 3263 3469 3139 3611 
Q 3016 3753 2791 3791 
Q 2678 3806 2116 3806 
L 1394 3806 
L 1394 2644 
z
" transform="scale(0.015625)"/>
      <path id="Arial-BoldMT-56" d="M 1634 0 
L -3 4581 
L 1000 4581 
L 2159 1191 
L 3281 4581 
L 4263 4581 
L 2622 0 
L 1634 0 
z
" transform="scale(0.015625)"/>
     </defs>
     <use xlink:href="#Arial-BoldMT-48"/>
     <use xlink:href="#Arial-BoldMT-46" x="72.216797"/>
     <use xlink:href="#Arial-BoldMT-2d" x="133.300781"/>
     <use xlink:href="#Arial-BoldMT-48" x="166.601562"/>
     <use xlink:href="#Arial-BoldMT-52" x="238.818359"/>
     <use xlink:href="#Arial-BoldMT-56" x="309.285156"/>
    </g>
   </g>
  </g>
 </g>
 <defs>
  <clipPath id="p0e20d88af5">
   <rect x="90" y="129.6" width="558" height="378"/>
  </clipPath>
  <clipPath id="pd71a3685cd">
   <rect x="90" y="583.2" width="558" height="378"/>
  </clipPath>
 </defs>
</svg>
