<?xml version="1.0" encoding="utf-8" standalone="no"?>
<!DOCTYPE svg PUBLIC "-//W3C//DTD SVG 1.1//EN"
  "http://www.w3.org/Graphics/SVG/1.1/DTD/svg11.dtd">
<svg xmlns:xlink="http://www.w3.org/1999/xlink" width="720pt" height="1080pt" viewBox="0 0 720 1080" xmlns="http://www.w3.org/2000/svg" version="1.1">
 <metadata>
  <rdf:RDF xmlns:dc="http://purl.org/dc/elements/1.1/" xmlns:cc="http://creativecommons.org/ns#" xmlns:rdf="http://www.w3.org/1999/02/22-rdf-syntax-ns#">
   <cc:Work>
    <dc:type rdf:resource="http://purl.org/dc/dcmitype/StillImage"/>
    <dc:date>2024-09-02T13:04:02.511353</dc:date>
    <dc:format>image/svg+xml</dc:format>
    <dc:creator>
     <cc:Agent>
      <dc:title>Matplotlib v3.8.0, https://matplotlib.org/</dc:title>
     </cc:Agent>
    </dc:creator>
   </cc:Work>
  </rdf:RDF>
 </metadata>
 <defs>
  <style type="text/css">*{stroke-linejoin: round; stroke-linecap: butt}</style>
 </defs>
 <g id="figure_1">
  <g id="patch_1">
   <path d="M 0 1080 
L 720 1080 
L 720 0 
L 0 0 
z
" style="fill: #ffffff"/>
  </g>
  <g id="axes_1">
   <g id="patch_2">
    <path d="M 90 507.6 
L 648 507.6 
L 648 129.6 
L 90 129.6 
z
" style="fill: #ffffff"/>
   </g>
   <g id="matplotlib.axis_1">
    <g id="xtick_1">
     <g id="line2d_1">
      <defs>
       <path id="m5d8412cdd9" d="M 0 0 
L 0 6 
" style="stroke: #262626; stroke-width: 1.25"/>
      </defs>
      <g>
       <use xlink:href="#m5d8412cdd9" x="159.75" y="507.6" style="fill: #262626; stroke: #262626; stroke-width: 1.25"/>
      </g>
     </g>
     <g id="text_1">
      <!-- State 1 -->
      <g style="fill: #262626" transform="translate(142.321875 524.973594) scale(0.11 -0.11)">
       <defs>
        <path id="ArialMT-53" d="M 288 1472 
L 859 1522 
Q 900 1178 1048 958 
Q 1197 738 1509 602 
Q 1822 466 2213 466 
Q 2559 466 2825 569 
Q 3091 672 3220 851 
Q 3350 1031 3350 1244 
Q 3350 1459 3225 1620 
Q 3100 1781 2813 1891 
Q 2628 1963 1997 2114 
Q 1366 2266 1113 2400 
Q 784 2572 623 2826 
Q 463 3081 463 3397 
Q 463 3744 659 4045 
Q 856 4347 1234 4503 
Q 1613 4659 2075 4659 
Q 2584 4659 2973 4495 
Q 3363 4331 3572 4012 
Q 3781 3694 3797 3291 
L 3216 3247 
Q 3169 3681 2898 3903 
Q 2628 4125 2100 4125 
Q 1550 4125 1298 3923 
Q 1047 3722 1047 3438 
Q 1047 3191 1225 3031 
Q 1400 2872 2139 2705 
Q 2878 2538 3153 2413 
Q 3553 2228 3743 1945 
Q 3934 1663 3934 1294 
Q 3934 928 3725 604 
Q 3516 281 3123 101 
Q 2731 -78 2241 -78 
Q 1619 -78 1198 103 
Q 778 284 539 648 
Q 300 1013 288 1472 
z
" transform="scale(0.015625)"/>
        <path id="ArialMT-74" d="M 1650 503 
L 1731 6 
Q 1494 -44 1306 -44 
Q 1000 -44 831 53 
Q 663 150 594 308 
Q 525 466 525 972 
L 525 2881 
L 113 2881 
L 113 3319 
L 525 3319 
L 525 4141 
L 1084 4478 
L 1084 3319 
L 1650 3319 
L 1650 2881 
L 1084 2881 
L 1084 941 
Q 1084 700 1114 631 
Q 1144 563 1211 522 
Q 1278 481 1403 481 
Q 1497 481 1650 503 
z
" transform="scale(0.015625)"/>
        <path id="ArialMT-61" d="M 2588 409 
Q 2275 144 1986 34 
Q 1697 -75 1366 -75 
Q 819 -75 525 192 
Q 231 459 231 875 
Q 231 1119 342 1320 
Q 453 1522 633 1644 
Q 813 1766 1038 1828 
Q 1203 1872 1538 1913 
Q 2219 1994 2541 2106 
Q 2544 2222 2544 2253 
Q 2544 2597 2384 2738 
Q 2169 2928 1744 2928 
Q 1347 2928 1158 2789 
Q 969 2650 878 2297 
L 328 2372 
Q 403 2725 575 2942 
Q 747 3159 1072 3276 
Q 1397 3394 1825 3394 
Q 2250 3394 2515 3294 
Q 2781 3194 2906 3042 
Q 3031 2891 3081 2659 
Q 3109 2516 3109 2141 
L 3109 1391 
Q 3109 606 3145 398 
Q 3181 191 3288 0 
L 2700 0 
Q 2613 175 2588 409 
z
M 2541 1666 
Q 2234 1541 1622 1453 
Q 1275 1403 1131 1340 
Q 988 1278 909 1158 
Q 831 1038 831 891 
Q 831 666 1001 516 
Q 1172 366 1500 366 
Q 1825 366 2078 508 
Q 2331 650 2450 897 
Q 2541 1088 2541 1459 
L 2541 1666 
z
" transform="scale(0.015625)"/>
        <path id="ArialMT-65" d="M 2694 1069 
L 3275 997 
Q 3138 488 2766 206 
Q 2394 -75 1816 -75 
Q 1088 -75 661 373 
Q 234 822 234 1631 
Q 234 2469 665 2931 
Q 1097 3394 1784 3394 
Q 2450 3394 2872 2941 
Q 3294 2488 3294 1666 
Q 3294 1616 3291 1516 
L 816 1516 
Q 847 969 1125 678 
Q 1403 388 1819 388 
Q 2128 388 2347 550 
Q 2566 713 2694 1069 
z
M 847 1978 
L 2700 1978 
Q 2663 2397 2488 2606 
Q 2219 2931 1791 2931 
Q 1403 2931 1139 2672 
Q 875 2413 847 1978 
z
" transform="scale(0.015625)"/>
        <path id="ArialMT-20" transform="scale(0.015625)"/>
        <path id="ArialMT-31" d="M 2384 0 
L 1822 0 
L 1822 3584 
Q 1619 3391 1289 3197 
Q 959 3003 697 2906 
L 697 3450 
Q 1169 3672 1522 3987 
Q 1875 4303 2022 4600 
L 2384 4600 
L 2384 0 
z
" transform="scale(0.015625)"/>
       </defs>
       <use xlink:href="#ArialMT-53"/>
       <use xlink:href="#ArialMT-74" x="66.699219"/>
       <use xlink:href="#ArialMT-61" x="94.482422"/>
       <use xlink:href="#ArialMT-74" x="150.097656"/>
       <use xlink:href="#ArialMT-65" x="177.880859"/>
       <use xlink:href="#ArialMT-20" x="233.496094"/>
       <use xlink:href="#ArialMT-31" x="261.279297"/>
      </g>
     </g>
    </g>
    <g id="xtick_2">
     <g id="line2d_2">
      <g>
       <use xlink:href="#m5d8412cdd9" x="299.25" y="507.6" style="fill: #262626; stroke: #262626; stroke-width: 1.25"/>
      </g>
     </g>
     <g id="text_2">
      <!-- State 2 -->
      <g style="fill: #262626" transform="translate(281.821875 524.973594) scale(0.11 -0.11)">
       <defs>
        <path id="ArialMT-32" d="M 3222 541 
L 3222 0 
L 194 0 
Q 188 203 259 391 
Q 375 700 629 1000 
Q 884 1300 1366 1694 
Q 2113 2306 2375 2664 
Q 2638 3022 2638 3341 
Q 2638 3675 2398 3904 
Q 2159 4134 1775 4134 
Q 1369 4134 1125 3890 
Q 881 3647 878 3216 
L 300 3275 
Q 359 3922 746 4261 
Q 1134 4600 1788 4600 
Q 2447 4600 2831 4234 
Q 3216 3869 3216 3328 
Q 3216 3053 3103 2787 
Q 2991 2522 2730 2228 
Q 2469 1934 1863 1422 
Q 1356 997 1212 845 
Q 1069 694 975 541 
L 3222 541 
z
" transform="scale(0.015625)"/>
       </defs>
       <use xlink:href="#ArialMT-53"/>
       <use xlink:href="#ArialMT-74" x="66.699219"/>
       <use xlink:href="#ArialMT-61" x="94.482422"/>
       <use xlink:href="#ArialMT-74" x="150.097656"/>
       <use xlink:href="#ArialMT-65" x="177.880859"/>
       <use xlink:href="#ArialMT-20" x="233.496094"/>
       <use xlink:href="#ArialMT-32" x="261.279297"/>
      </g>
     </g>
    </g>
    <g id="xtick_3">
     <g id="line2d_3">
      <g>
       <use xlink:href="#m5d8412cdd9" x="438.75" y="507.6" style="fill: #262626; stroke: #262626; stroke-width: 1.25"/>
      </g>
     </g>
     <g id="text_3">
      <!-- State 3 -->
      <g style="fill: #262626" transform="translate(421.321875 524.973594) scale(0.11 -0.11)">
       <defs>
        <path id="ArialMT-33" d="M 269 1209 
L 831 1284 
Q 928 806 1161 595 
Q 1394 384 1728 384 
Q 2125 384 2398 659 
Q 2672 934 2672 1341 
Q 2672 1728 2419 1979 
Q 2166 2231 1775 2231 
Q 1616 2231 1378 2169 
L 1441 2663 
Q 1497 2656 1531 2656 
Q 1891 2656 2178 2843 
Q 2466 3031 2466 3422 
Q 2466 3731 2256 3934 
Q 2047 4138 1716 4138 
Q 1388 4138 1169 3931 
Q 950 3725 888 3313 
L 325 3413 
Q 428 3978 793 4289 
Q 1159 4600 1703 4600 
Q 2078 4600 2393 4439 
Q 2709 4278 2876 4000 
Q 3044 3722 3044 3409 
Q 3044 3113 2884 2869 
Q 2725 2625 2413 2481 
Q 2819 2388 3044 2092 
Q 3269 1797 3269 1353 
Q 3269 753 2831 336 
Q 2394 -81 1725 -81 
Q 1122 -81 723 278 
Q 325 638 269 1209 
z
" transform="scale(0.015625)"/>
       </defs>
       <use xlink:href="#ArialMT-53"/>
       <use xlink:href="#ArialMT-74" x="66.699219"/>
       <use xlink:href="#ArialMT-61" x="94.482422"/>
       <use xlink:href="#ArialMT-74" x="150.097656"/>
       <use xlink:href="#ArialMT-65" x="177.880859"/>
       <use xlink:href="#ArialMT-20" x="233.496094"/>
       <use xlink:href="#ArialMT-33" x="261.279297"/>
      </g>
     </g>
    </g>
    <g id="xtick_4">
     <g id="line2d_4">
      <g>
       <use xlink:href="#m5d8412cdd9" x="578.25" y="507.6" style="fill: #262626; stroke: #262626; stroke-width: 1.25"/>
      </g>
     </g>
     <g id="text_4">
      <!-- State 4 -->
      <g style="fill: #262626" transform="translate(560.821875 524.973594) scale(0.11 -0.11)">
       <defs>
        <path id="ArialMT-34" d="M 2069 0 
L 2069 1097 
L 81 1097 
L 81 1613 
L 2172 4581 
L 2631 4581 
L 2631 1613 
L 3250 1613 
L 3250 1097 
L 2631 1097 
L 2631 0 
L 2069 0 
z
M 2069 1613 
L 2069 3678 
L 634 1613 
L 2069 1613 
z
" transform="scale(0.015625)"/>
       </defs>
       <use xlink:href="#ArialMT-53"/>
       <use xlink:href="#ArialMT-74" x="66.699219"/>
       <use xlink:href="#ArialMT-61" x="94.482422"/>
       <use xlink:href="#ArialMT-74" x="150.097656"/>
       <use xlink:href="#ArialMT-65" x="177.880859"/>
       <use xlink:href="#ArialMT-20" x="233.496094"/>
       <use xlink:href="#ArialMT-34" x="261.279297"/>
      </g>
     </g>
    </g>
   </g>
   <g id="matplotlib.axis_2">
    <g id="ytick_1">
     <g id="line2d_5">
      <defs>
       <path id="m450f5507a1" d="M 0 0 
L -6 0 
" style="stroke: #262626; stroke-width: 1.25"/>
      </defs>
      <g>
       <use xlink:href="#m450f5507a1" x="90" y="495.7875" style="fill: #262626; stroke: #262626; stroke-width: 1.25"/>
      </g>
     </g>
     <g id="text_5">
      <!-- −3 -->
      <g style="fill: #262626" transform="translate(67.958281 499.724297) scale(0.11 -0.11)">
       <defs>
        <path id="ArialMT-2212" d="M 3381 1997 
L 356 1997 
L 356 2522 
L 3381 2522 
L 3381 1997 
z
" transform="scale(0.015625)"/>
       </defs>
       <use xlink:href="#ArialMT-2212"/>
       <use xlink:href="#ArialMT-33" x="58.398438"/>
      </g>
     </g>
    </g>
    <g id="ytick_2">
     <g id="line2d_6">
      <g>
       <use xlink:href="#m450f5507a1" x="90" y="436.725" style="fill: #262626; stroke: #262626; stroke-width: 1.25"/>
      </g>
     </g>
     <g id="text_6">
      <!-- −2 -->
      <g style="fill: #262626" transform="translate(67.958281 440.661797) scale(0.11 -0.11)">
       <use xlink:href="#ArialMT-2212"/>
       <use xlink:href="#ArialMT-32" x="58.398438"/>
      </g>
     </g>
    </g>
    <g id="ytick_3">
     <g id="line2d_7">
      <g>
       <use xlink:href="#m450f5507a1" x="90" y="377.6625" style="fill: #262626; stroke: #262626; stroke-width: 1.25"/>
      </g>
     </g>
     <g id="text_7">
      <!-- −1 -->
      <g style="fill: #262626" transform="translate(67.958281 381.599297) scale(0.11 -0.11)">
       <use xlink:href="#ArialMT-2212"/>
       <use xlink:href="#ArialMT-31" x="58.398438"/>
      </g>
     </g>
    </g>
    <g id="ytick_4">
     <g id="line2d_8">
      <g>
       <use xlink:href="#m450f5507a1" x="90" y="318.6" style="fill: #262626; stroke: #262626; stroke-width: 1.25"/>
      </g>
     </g>
     <g id="text_8">
      <!-- 0 -->
      <g style="fill: #262626" transform="translate(74.382969 322.536797) scale(0.11 -0.11)">
       <defs>
        <path id="ArialMT-30" d="M 266 2259 
Q 266 3072 433 3567 
Q 600 4063 929 4331 
Q 1259 4600 1759 4600 
Q 2128 4600 2406 4451 
Q 2684 4303 2865 4023 
Q 3047 3744 3150 3342 
Q 3253 2941 3253 2259 
Q 3253 1453 3087 958 
Q 2922 463 2592 192 
Q 2263 -78 1759 -78 
Q 1097 -78 719 397 
Q 266 969 266 2259 
z
M 844 2259 
Q 844 1131 1108 757 
Q 1372 384 1759 384 
Q 2147 384 2411 759 
Q 2675 1134 2675 2259 
Q 2675 3391 2411 3762 
Q 2147 4134 1753 4134 
Q 1366 4134 1134 3806 
Q 844 3388 844 2259 
z
" transform="scale(0.015625)"/>
       </defs>
       <use xlink:href="#ArialMT-30"/>
      </g>
     </g>
    </g>
    <g id="ytick_5">
     <g id="line2d_9">
      <g>
       <use xlink:href="#m450f5507a1" x="90" y="259.5375" style="fill: #262626; stroke: #262626; stroke-width: 1.25"/>
      </g>
     </g>
     <g id="text_9">
      <!-- 1 -->
      <g style="fill: #262626" transform="translate(74.382969 263.474297) scale(0.11 -0.11)">
       <use xlink:href="#ArialMT-31"/>
      </g>
     </g>
    </g>
    <g id="ytick_6">
     <g id="line2d_10">
      <g>
       <use xlink:href="#m450f5507a1" x="90" y="200.475" style="fill: #262626; stroke: #262626; stroke-width: 1.25"/>
      </g>
     </g>
     <g id="text_10">
      <!-- 2 -->
      <g style="fill: #262626" transform="translate(74.382969 204.411797) scale(0.11 -0.11)">
       <use xlink:href="#ArialMT-32"/>
      </g>
     </g>
    </g>
    <g id="ytick_7">
     <g id="line2d_11">
      <g>
       <use xlink:href="#m450f5507a1" x="90" y="141.4125" style="fill: #262626; stroke: #262626; stroke-width: 1.25"/>
      </g>
     </g>
     <g id="text_11">
      <!-- 3 -->
      <g style="fill: #262626" transform="translate(74.382969 145.349297) scale(0.11 -0.11)">
       <use xlink:href="#ArialMT-33"/>
      </g>
     </g>
    </g>
    <g id="text_12">
     <!-- Value (z-scored) -->
     <g style="fill: #262626" transform="translate(61.432656 362.170313) rotate(-90) scale(0.12 -0.12)">
      <defs>
       <path id="ArialMT-56" d="M 1803 0 
L 28 4581 
L 684 4581 
L 1875 1253 
Q 2019 853 2116 503 
Q 2222 878 2363 1253 
L 3600 4581 
L 4219 4581 
L 2425 0 
L 1803 0 
z
" transform="scale(0.015625)"/>
       <path id="ArialMT-6c" d="M 409 0 
L 409 4581 
L 972 4581 
L 972 0 
L 409 0 
z
" transform="scale(0.015625)"/>
       <path id="ArialMT-75" d="M 2597 0 
L 2597 488 
Q 2209 -75 1544 -75 
Q 1250 -75 995 37 
Q 741 150 617 320 
Q 494 491 444 738 
Q 409 903 409 1263 
L 409 3319 
L 972 3319 
L 972 1478 
Q 972 1038 1006 884 
Q 1059 663 1231 536 
Q 1403 409 1656 409 
Q 1909 409 2131 539 
Q 2353 669 2445 892 
Q 2538 1116 2538 1541 
L 2538 3319 
L 3100 3319 
L 3100 0 
L 2597 0 
z
" transform="scale(0.015625)"/>
       <path id="ArialMT-28" d="M 1497 -1347 
Q 1031 -759 709 28 
Q 388 816 388 1659 
Q 388 2403 628 3084 
Q 909 3875 1497 4659 
L 1900 4659 
Q 1522 4009 1400 3731 
Q 1209 3300 1100 2831 
Q 966 2247 966 1656 
Q 966 153 1900 -1347 
L 1497 -1347 
z
" transform="scale(0.015625)"/>
       <path id="ArialMT-7a" d="M 125 0 
L 125 456 
L 2238 2881 
Q 1878 2863 1603 2863 
L 250 2863 
L 250 3319 
L 2963 3319 
L 2963 2947 
L 1166 841 
L 819 456 
Q 1197 484 1528 484 
L 3063 484 
L 3063 0 
L 125 0 
z
" transform="scale(0.015625)"/>
       <path id="ArialMT-2d" d="M 203 1375 
L 203 1941 
L 1931 1941 
L 1931 1375 
L 203 1375 
z
" transform="scale(0.015625)"/>
       <path id="ArialMT-73" d="M 197 991 
L 753 1078 
Q 800 744 1014 566 
Q 1228 388 1613 388 
Q 2000 388 2187 545 
Q 2375 703 2375 916 
Q 2375 1106 2209 1216 
Q 2094 1291 1634 1406 
Q 1016 1563 777 1677 
Q 538 1791 414 1992 
Q 291 2194 291 2438 
Q 291 2659 392 2848 
Q 494 3038 669 3163 
Q 800 3259 1026 3326 
Q 1253 3394 1513 3394 
Q 1903 3394 2198 3281 
Q 2494 3169 2634 2976 
Q 2775 2784 2828 2463 
L 2278 2388 
Q 2241 2644 2061 2787 
Q 1881 2931 1553 2931 
Q 1166 2931 1000 2803 
Q 834 2675 834 2503 
Q 834 2394 903 2306 
Q 972 2216 1119 2156 
Q 1203 2125 1616 2013 
Q 2213 1853 2448 1751 
Q 2684 1650 2818 1456 
Q 2953 1263 2953 975 
Q 2953 694 2789 445 
Q 2625 197 2315 61 
Q 2006 -75 1616 -75 
Q 969 -75 630 194 
Q 291 463 197 991 
z
" transform="scale(0.015625)"/>
       <path id="ArialMT-63" d="M 2588 1216 
L 3141 1144 
Q 3050 572 2676 248 
Q 2303 -75 1759 -75 
Q 1078 -75 664 370 
Q 250 816 250 1647 
Q 250 2184 428 2587 
Q 606 2991 970 3192 
Q 1334 3394 1763 3394 
Q 2303 3394 2647 3120 
Q 2991 2847 3088 2344 
L 2541 2259 
Q 2463 2594 2264 2762 
Q 2066 2931 1784 2931 
Q 1359 2931 1093 2626 
Q 828 2322 828 1663 
Q 828 994 1084 691 
Q 1341 388 1753 388 
Q 2084 388 2306 591 
Q 2528 794 2588 1216 
z
" transform="scale(0.015625)"/>
       <path id="ArialMT-6f" d="M 213 1659 
Q 213 2581 725 3025 
Q 1153 3394 1769 3394 
Q 2453 3394 2887 2945 
Q 3322 2497 3322 1706 
Q 3322 1066 3130 698 
Q 2938 331 2570 128 
Q 2203 -75 1769 -75 
Q 1072 -75 642 372 
Q 213 819 213 1659 
z
M 791 1659 
Q 791 1022 1069 705 
Q 1347 388 1769 388 
Q 2188 388 2466 706 
Q 2744 1025 2744 1678 
Q 2744 2294 2464 2611 
Q 2184 2928 1769 2928 
Q 1347 2928 1069 2612 
Q 791 2297 791 1659 
z
" transform="scale(0.015625)"/>
       <path id="ArialMT-72" d="M 416 0 
L 416 3319 
L 922 3319 
L 922 2816 
Q 1116 3169 1280 3281 
Q 1444 3394 1641 3394 
Q 1925 3394 2219 3213 
L 2025 2691 
Q 1819 2813 1613 2813 
Q 1428 2813 1281 2702 
Q 1134 2591 1072 2394 
Q 978 2094 978 1738 
L 978 0 
L 416 0 
z
" transform="scale(0.015625)"/>
       <path id="ArialMT-64" d="M 2575 0 
L 2575 419 
Q 2259 -75 1647 -75 
Q 1250 -75 917 144 
Q 584 363 401 755 
Q 219 1147 219 1656 
Q 219 2153 384 2558 
Q 550 2963 881 3178 
Q 1213 3394 1622 3394 
Q 1922 3394 2156 3267 
Q 2391 3141 2538 2938 
L 2538 4581 
L 3097 4581 
L 3097 0 
L 2575 0 
z
M 797 1656 
Q 797 1019 1065 703 
Q 1334 388 1700 388 
Q 2069 388 2326 689 
Q 2584 991 2584 1609 
Q 2584 2291 2321 2609 
Q 2059 2928 1675 2928 
Q 1300 2928 1048 2622 
Q 797 2316 797 1656 
z
" transform="scale(0.015625)"/>
       <path id="ArialMT-29" d="M 791 -1347 
L 388 -1347 
Q 1322 153 1322 1656 
Q 1322 2244 1188 2822 
Q 1081 3291 891 3722 
Q 769 4003 388 4659 
L 791 4659 
Q 1378 3875 1659 3084 
Q 1900 2403 1900 1659 
Q 1900 816 1576 28 
Q 1253 -759 791 -1347 
z
" transform="scale(0.015625)"/>
      </defs>
      <use xlink:href="#ArialMT-56"/>
      <use xlink:href="#ArialMT-61" x="59.324219"/>
      <use xlink:href="#ArialMT-6c" x="114.939453"/>
      <use xlink:href="#ArialMT-75" x="137.15625"/>
      <use xlink:href="#ArialMT-65" x="192.771484"/>
      <use xlink:href="#ArialMT-20" x="248.386719"/>
      <use xlink:href="#ArialMT-28" x="276.169922"/>
      <use xlink:href="#ArialMT-7a" x="309.470703"/>
      <use xlink:href="#ArialMT-2d" x="359.470703"/>
      <use xlink:href="#ArialMT-73" x="392.771484"/>
      <use xlink:href="#ArialMT-63" x="442.771484"/>
      <use xlink:href="#ArialMT-6f" x="492.771484"/>
      <use xlink:href="#ArialMT-72" x="548.386719"/>
      <use xlink:href="#ArialMT-65" x="581.6875"/>
      <use xlink:href="#ArialMT-64" x="637.302734"/>
      <use xlink:href="#ArialMT-29" x="692.917969"/>
     </g>
    </g>
   </g>
   <g id="PolyCollection_1">
    <defs>
     <path id="m14eb931c1a" d="M 164.676026 -754.578423 
L 159.891256 -754.578423 
L 159.891256 -756.143653 
L 159.891256 -757.708883 
L 159.891256 -759.274113 
L 159.891256 -760.839343 
L 159.891256 -762.404573 
L 159.891256 -763.969804 
L 159.891256 -765.535034 
L 159.891256 -767.100264 
L 159.891256 -768.665494 
L 159.891256 -770.230724 
L 159.891256 -771.795954 
L 159.891256 -773.361184 
L 159.891256 -774.926414 
L 159.891256 -776.491644 
L 159.891256 -778.056874 
L 159.891256 -779.622105 
L 159.891256 -781.187335 
L 159.891256 -782.752565 
L 159.891256 -784.317795 
L 159.891256 -785.883025 
L 159.891256 -787.448255 
L 159.891256 -789.013485 
L 159.891256 -790.578715 
L 159.891256 -792.143945 
L 159.891256 -793.709176 
L 159.891256 -795.274406 
L 159.891256 -796.839636 
L 159.891256 -798.404866 
L 159.891256 -799.970096 
L 159.891256 -801.535326 
L 159.891256 -803.100556 
L 159.891256 -804.665786 
L 159.891256 -806.231016 
L 159.891256 -807.796247 
L 159.891256 -809.361477 
L 159.891256 -810.926707 
L 159.891256 -812.491937 
L 159.891256 -814.057167 
L 161.339662 -814.057167 
L 161.339662 -814.057167 
L 161.265118 -812.491937 
L 161.062352 -810.926707 
L 160.788164 -809.361477 
L 160.512986 -807.796247 
L 160.300152 -806.231016 
L 160.195153 -804.665786 
L 160.226108 -803.100556 
L 160.409555 -801.535326 
L 160.7551 -799.970096 
L 161.267075 -798.404866 
L 161.945904 -796.839636 
L 162.792002 -795.274406 
L 163.811635 -793.709176 
L 165.021695 -792.143945 
L 166.452097 -790.578715 
L 168.147741 -789.013485 
L 170.17127 -787.448255 
L 172.600967 -785.883025 
L 175.511251 -784.317795 
L 178.925798 -782.752565 
L 182.750094 -781.187335 
L 186.714044 -779.622105 
L 190.368911 -778.056874 
L 193.16892 -776.491644 
L 194.625 -774.926414 
L 194.469488 -773.361184 
L 192.75175 -771.795954 
L 189.815347 -770.230724 
L 186.170923 -768.665494 
L 182.332553 -767.100264 
L 178.693472 -765.535034 
L 175.479751 -763.969804 
L 172.770187 -762.404573 
L 170.543557 -760.839343 
L 168.72169 -759.274113 
L 167.200676 -757.708883 
L 165.877515 -756.143653 
L 164.676026 -754.578423 
z
" style="stroke: #d55e00; stroke-opacity: 0.3"/>
    </defs>
    <g clip-path="url(#p37ee42bb84)">
     <use xlink:href="#m14eb931c1a" x="0" y="1080" style="fill: #d55e00; fill-opacity: 0.3; stroke: #d55e00; stroke-opacity: 0.3"/>
    </g>
   </g>
   <g id="PolyCollection_2">
    <defs>
     <path id="m4a3a951d71" d="M 305.623773 -679.024158 
L 299.427576 -679.024158 
L 299.427576 -682.165679 
L 299.427576 -685.3072 
L 299.427576 -688.448721 
L 299.427576 -691.590242 
L 299.427576 -694.731763 
L 299.427576 -697.873283 
L 299.427576 -701.014804 
L 299.427576 -704.156325 
L 299.427576 -707.297846 
L 299.427576 -710.439367 
L 299.427576 -713.580888 
L 299.427576 -716.722408 
L 299.427576 -719.863929 
L 299.427576 -723.00545 
L 299.427576 -726.146971 
L 299.427576 -729.288492 
L 299.427576 -732.430013 
L 299.427576 -735.571533 
L 299.427576 -738.713054 
L 299.427576 -741.854575 
L 299.427576 -744.996096 
L 299.427576 -748.137617 
L 299.427576 -751.279138 
L 299.427576 -754.420658 
L 299.427576 -757.562179 
L 299.427576 -760.7037 
L 299.427576 -763.845221 
L 299.427576 -766.986742 
L 299.427576 -770.128263 
L 299.427576 -773.269783 
L 299.427576 -776.411304 
L 299.427576 -779.552825 
L 299.427576 -782.694346 
L 299.427576 -785.835867 
L 299.427576 -788.977388 
L 299.427576 -792.118908 
L 299.427576 -795.260429 
L 299.427576 -798.40195 
L 300.886142 -798.40195 
L 300.886142 -798.40195 
L 300.851617 -795.260429 
L 300.728751 -792.118908 
L 300.573347 -788.977388 
L 300.451508 -785.835867 
L 300.418153 -782.694346 
L 300.501666 -779.552825 
L 300.701705 -776.411304 
L 301.001935 -773.269783 
L 301.393079 -770.128263 
L 301.896022 -766.986742 
L 302.572918 -763.845221 
L 303.519152 -760.7037 
L 304.839734 -757.562179 
L 306.623698 -754.420658 
L 308.930164 -751.279138 
L 311.786711 -748.137617 
L 315.183898 -744.996096 
L 319.046425 -741.854575 
L 323.181947 -738.713054 
L 327.24127 -735.571533 
L 330.739328 -732.430013 
L 333.161632 -729.288492 
L 334.125 -726.146971 
L 333.514848 -723.00545 
L 331.524048 -719.863929 
L 328.573118 -716.722408 
L 325.159285 -713.580888 
L 321.714468 -710.439367 
L 318.531232 -707.297846 
L 315.764083 -704.156325 
L 313.470923 -701.014804 
L 311.651273 -697.873283 
L 310.260002 -694.731763 
L 309.204725 -691.590242 
L 308.349693 -688.448721 
L 307.541679 -685.3072 
L 306.653405 -682.165679 
L 305.623773 -679.024158 
z
" style="stroke: #0072b2; stroke-opacity: 0.3"/>
    </defs>
    <g clip-path="url(#p37ee42bb84)">
     <use xlink:href="#m4a3a951d71" x="0" y="1080" style="fill: #0072b2; fill-opacity: 0.3; stroke: #0072b2; stroke-opacity: 0.3"/>
    </g>
   </g>
   <g id="PolyCollection_3">
    <defs>
     <path id="me54a9a0d99" d="M 445.28795 -739.30878 
L 438.935538 -739.30878 
L 438.935538 -740.326767 
L 438.935538 -741.344753 
L 438.935538 -742.36274 
L 438.935538 -743.380726 
L 438.935538 -744.398712 
L 438.935538 -745.416699 
L 438.935538 -746.434685 
L 438.935538 -747.452671 
L 438.935538 -748.470658 
L 438.935538 -749.488644 
L 438.935538 -750.50663 
L 438.935538 -751.524617 
L 438.935538 -752.542603 
L 438.935538 -753.56059 
L 438.935538 -754.578576 
L 438.935538 -755.596562 
L 438.935538 -756.614549 
L 438.935538 -757.632535 
L 438.935538 -758.650521 
L 438.935538 -759.668508 
L 438.935538 -760.686494 
L 438.935538 -761.70448 
L 438.935538 -762.722467 
L 438.935538 -763.740453 
L 438.935538 -764.758439 
L 438.935538 -765.776426 
L 438.935538 -766.794412 
L 438.935538 -767.812399 
L 438.935538 -768.830385 
L 438.935538 -769.848371 
L 438.935538 -770.866358 
L 438.935538 -771.884344 
L 438.935538 -772.90233 
L 438.935538 -773.920317 
L 438.935538 -774.938303 
L 438.935538 -775.956289 
L 438.935538 -776.974276 
L 438.935538 -777.992262 
L 440.702667 -777.992262 
L 440.702667 -777.992262 
L 440.75127 -776.974276 
L 440.781935 -775.956289 
L 440.886127 -774.938303 
L 441.181403 -773.920317 
L 441.791728 -772.90233 
L 442.824763 -771.884344 
L 444.351238 -770.866358 
L 446.391212 -769.848371 
L 448.910621 -768.830385 
L 451.82869 -767.812399 
L 455.032768 -766.794412 
L 458.393692 -765.776426 
L 461.774432 -764.758439 
L 465.029045 -763.740453 
L 467.99639 -762.722467 
L 470.49907 -761.70448 
L 472.358045 -760.686494 
L 473.425324 -759.668508 
L 473.625 -758.650521 
L 472.983874 -757.632535 
L 471.633824 -756.614549 
L 469.780023 -755.596562 
L 467.64621 -754.578576 
L 465.420511 -753.56059 
L 463.225068 -752.542603 
L 461.119515 -751.524617 
L 459.129685 -750.50663 
L 457.279915 -749.488644 
L 455.607753 -748.470658 
L 454.153041 -747.452671 
L 452.930731 -746.434685 
L 451.907439 -745.416699 
L 450.999287 -744.398712 
L 450.095386 -743.380726 
L 449.096153 -742.36274 
L 447.947851 -741.344753 
L 446.658087 -740.326767 
L 445.28795 -739.30878 
z
" style="stroke: #009e73; stroke-opacity: 0.3"/>
    </defs>
    <g clip-path="url(#p37ee42bb84)">
     <use xlink:href="#me54a9a0d99" x="0" y="1080" style="fill: #009e73; fill-opacity: 0.3; stroke: #009e73; stroke-opacity: 0.3"/>
    </g>
   </g>
   <g id="PolyCollection_4">
    <defs>
     <path id="mfa3782b2ff" d="M 580.059147 -735.336524 
L 578.380124 -735.336524 
L 578.380124 -737.676774 
L 578.380124 -740.017023 
L 578.380124 -742.357273 
L 578.380124 -744.697523 
L 578.380124 -747.037773 
L 578.380124 -749.378022 
L 578.380124 -751.718272 
L 578.380124 -754.058522 
L 578.380124 -756.398772 
L 578.380124 -758.739021 
L 578.380124 -761.079271 
L 578.380124 -763.419521 
L 578.380124 -765.75977 
L 578.380124 -768.10002 
L 578.380124 -770.44027 
L 578.380124 -772.78052 
L 578.380124 -775.120769 
L 578.380124 -777.461019 
L 578.380124 -779.801269 
L 578.380124 -782.141518 
L 578.380124 -784.481768 
L 578.380124 -786.822018 
L 578.380124 -789.162268 
L 578.380124 -791.502517 
L 578.380124 -793.842767 
L 578.380124 -796.183017 
L 578.380124 -798.523267 
L 578.380124 -800.863516 
L 578.380124 -803.203766 
L 578.380124 -805.544016 
L 578.380124 -807.884265 
L 578.380124 -810.224515 
L 578.380124 -812.564765 
L 578.380124 -814.905015 
L 578.380124 -817.245264 
L 578.380124 -819.585514 
L 578.380124 -821.925764 
L 578.380124 -824.266014 
L 585.171728 -824.266014 
L 585.171728 -824.266014 
L 587.433606 -821.925764 
L 590.106669 -819.585514 
L 593.137196 -817.245264 
L 596.412752 -814.905015 
L 599.77317 -812.564765 
L 603.038888 -810.224515 
L 606.044197 -807.884265 
L 608.657435 -805.544016 
L 610.776424 -803.203766 
L 612.303939 -800.863516 
L 613.125 -798.523267 
L 613.112437 -796.183017 
L 612.172598 -793.842767 
L 610.315016 -791.502517 
L 607.705995 -789.162268 
L 604.665021 -786.822018 
L 601.590047 -784.481768 
L 598.838438 -782.141518 
L 596.618429 -779.801269 
L 594.942073 -777.461019 
L 593.657256 -775.120769 
L 592.535425 -772.78052 
L 591.368653 -770.44027 
L 590.034964 -768.10002 
L 588.515643 -765.75977 
L 586.873817 -763.419521 
L 585.216042 -761.079271 
L 583.656219 -758.739021 
L 582.29124 -756.398772 
L 581.188745 -754.058522 
L 580.383147 -751.718272 
L 579.875912 -749.378022 
L 579.637824 -747.037773 
L 579.612851 -744.697523 
L 579.724655 -742.357273 
L 579.887121 -740.017023 
L 580.018893 -737.676774 
L 580.059147 -735.336524 
z
" style="stroke: #cc79a7; stroke-opacity: 0.3"/>
    </defs>
    <g clip-path="url(#p37ee42bb84)">
     <use xlink:href="#mfa3782b2ff" x="0" y="1080" style="fill: #cc79a7; fill-opacity: 0.3; stroke: #cc79a7; stroke-opacity: 0.3"/>
    </g>
   </g>
   <g id="PathCollection_1">
    <defs>
     <path id="md8eaa3904c" d="M 0 0.866025 
C 0.229673 0.866025 0.449969 0.774776 0.612372 0.612372 
C 0.774776 0.449969 0.866025 0.229673 0.866025 0 
C 0.866025 -0.229673 0.774776 -0.449969 0.612372 -0.612372 
C 0.449969 -0.774776 0.229673 -0.866025 0 -0.866025 
C -0.229673 -0.866025 -0.449969 -0.774776 -0.612372 -0.612372 
C -0.774776 -0.449969 -0.866025 -0.229673 -0.866025 0 
C -0.866025 0.229673 -0.774776 0.449969 -0.612372 0.612372 
C -0.449969 0.774776 -0.229673 0.866025 0 0.866025 
z
" style="stroke: #d55e00"/>
    </defs>
    <g clip-path="url(#p37ee42bb84)">
     <use xlink:href="#md8eaa3904c" x="132.45282" y="305.748912" style="fill: #d55e00; stroke: #d55e00"/>
     <use xlink:href="#md8eaa3904c" x="133.125622" y="306.524766" style="fill: #d55e00; stroke: #d55e00"/>
     <use xlink:href="#md8eaa3904c" x="125.385225" y="315.625758" style="fill: #d55e00; stroke: #d55e00"/>
     <use xlink:href="#md8eaa3904c" x="137.098571" y="303.292098" style="fill: #d55e00; stroke: #d55e00"/>
     <use xlink:href="#md8eaa3904c" x="132.904701" y="306.14056" style="fill: #d55e00; stroke: #d55e00"/>
     <use xlink:href="#md8eaa3904c" x="130.923793" y="304.07142" style="fill: #d55e00; stroke: #d55e00"/>
     <use xlink:href="#md8eaa3904c" x="129.524349" y="306.076312" style="fill: #d55e00; stroke: #d55e00"/>
     <use xlink:href="#md8eaa3904c" x="128.680006" y="299.306927" style="fill: #d55e00; stroke: #d55e00"/>
     <use xlink:href="#md8eaa3904c" x="129.227979" y="300.185407" style="fill: #d55e00; stroke: #d55e00"/>
     <use xlink:href="#md8eaa3904c" x="137.780857" y="309.474396" style="fill: #d55e00; stroke: #d55e00"/>
     <use xlink:href="#md8eaa3904c" x="136.258271" y="265.942833" style="fill: #d55e00; stroke: #d55e00"/>
     <use xlink:href="#md8eaa3904c" x="134.572992" y="308.085501" style="fill: #d55e00; stroke: #d55e00"/>
     <use xlink:href="#md8eaa3904c" x="130.433504" y="286.112333" style="fill: #d55e00; stroke: #d55e00"/>
     <use xlink:href="#md8eaa3904c" x="128.115302" y="319.936115" style="fill: #d55e00; stroke: #d55e00"/>
     <use xlink:href="#md8eaa3904c" x="129.097328" y="303.93775" style="fill: #d55e00; stroke: #d55e00"/>
     <use xlink:href="#md8eaa3904c" x="131.414767" y="310.670205" style="fill: #d55e00; stroke: #d55e00"/>
     <use xlink:href="#md8eaa3904c" x="130.910521" y="309.047609" style="fill: #d55e00; stroke: #d55e00"/>
     <use xlink:href="#md8eaa3904c" x="138.079586" y="303.867191" style="fill: #d55e00; stroke: #d55e00"/>
     <use xlink:href="#md8eaa3904c" x="131.320689" y="304.127322" style="fill: #d55e00; stroke: #d55e00"/>
     <use xlink:href="#md8eaa3904c" x="128.881492" y="323.181379" style="fill: #d55e00; stroke: #d55e00"/>
     <use xlink:href="#md8eaa3904c" x="130.023275" y="292.092663" style="fill: #d55e00; stroke: #d55e00"/>
     <use xlink:href="#md8eaa3904c" x="126.647807" y="312.941199" style="fill: #d55e00; stroke: #d55e00"/>
     <use xlink:href="#md8eaa3904c" x="127.621792" y="295.54382" style="fill: #d55e00; stroke: #d55e00"/>
     <use xlink:href="#md8eaa3904c" x="126.392174" y="314.056096" style="fill: #d55e00; stroke: #d55e00"/>
     <use xlink:href="#md8eaa3904c" x="126.04371" y="291.845815" style="fill: #d55e00; stroke: #d55e00"/>
     <use xlink:href="#md8eaa3904c" x="137.006491" y="295.926244" style="fill: #d55e00; stroke: #d55e00"/>
     <use xlink:href="#md8eaa3904c" x="132.962693" y="309.587858" style="fill: #d55e00; stroke: #d55e00"/>
     <use xlink:href="#md8eaa3904c" x="130.812336" y="298.412941" style="fill: #d55e00; stroke: #d55e00"/>
     <use xlink:href="#md8eaa3904c" x="135.603245" y="303.500815" style="fill: #d55e00; stroke: #d55e00"/>
     <use xlink:href="#md8eaa3904c" x="132.512809" y="325.421577" style="fill: #d55e00; stroke: #d55e00"/>
     <use xlink:href="#md8eaa3904c" x="127.679853" y="308.303608" style="fill: #d55e00; stroke: #d55e00"/>
     <use xlink:href="#md8eaa3904c" x="132.956633" y="303.956617" style="fill: #d55e00; stroke: #d55e00"/>
     <use xlink:href="#md8eaa3904c" x="133.522244" y="302.675551" style="fill: #d55e00; stroke: #d55e00"/>
     <use xlink:href="#md8eaa3904c" x="128.655246" y="314.398925" style="fill: #d55e00; stroke: #d55e00"/>
     <use xlink:href="#md8eaa3904c" x="126.822692" y="305.279986" style="fill: #d55e00; stroke: #d55e00"/>
     <use xlink:href="#md8eaa3904c" x="128.280253" y="308.286251" style="fill: #d55e00; stroke: #d55e00"/>
     <use xlink:href="#md8eaa3904c" x="129.91622" y="317.00673" style="fill: #d55e00; stroke: #d55e00"/>
     <use xlink:href="#md8eaa3904c" x="130.682101" y="306.661227" style="fill: #d55e00; stroke: #d55e00"/>
     <use xlink:href="#md8eaa3904c" x="129.829977" y="299.413717" style="fill: #d55e00; stroke: #d55e00"/>
    </g>
   </g>
   <g id="PathCollection_2">
    <defs>
     <path id="mbbf6a42072" d="M 0 0.866025 
C 0.229673 0.866025 0.449969 0.774776 0.612372 0.612372 
C 0.774776 0.449969 0.866025 0.229673 0.866025 0 
C 0.866025 -0.229673 0.774776 -0.449969 0.612372 -0.612372 
C 0.449969 -0.774776 0.229673 -0.866025 0 -0.866025 
C -0.229673 -0.866025 -0.449969 -0.774776 -0.612372 -0.612372 
C -0.774776 -0.449969 -0.866025 -0.229673 -0.866025 0 
C -0.866025 0.229673 -0.774776 0.449969 -0.612372 0.612372 
C -0.449969 0.774776 -0.229673 0.866025 0 0.866025 
z
" style="stroke: #0072b2"/>
    </defs>
    <g clip-path="url(#p37ee42bb84)">
     <use xlink:href="#mbbf6a42072" x="273.522992" y="351.205623" style="fill: #0072b2; stroke: #0072b2"/>
     <use xlink:href="#mbbf6a42072" x="275.422856" y="334.915552" style="fill: #0072b2; stroke: #0072b2"/>
     <use xlink:href="#mbbf6a42072" x="266.225282" y="353.57887" style="fill: #0072b2; stroke: #0072b2"/>
     <use xlink:href="#mbbf6a42072" x="273.846687" y="312.78932" style="fill: #0072b2; stroke: #0072b2"/>
     <use xlink:href="#mbbf6a42072" x="276.894178" y="359.654922" style="fill: #0072b2; stroke: #0072b2"/>
     <use xlink:href="#mbbf6a42072" x="278.257255" y="367.514216" style="fill: #0072b2; stroke: #0072b2"/>
     <use xlink:href="#mbbf6a42072" x="276.682509" y="375.290312" style="fill: #0072b2; stroke: #0072b2"/>
     <use xlink:href="#mbbf6a42072" x="264.620068" y="368.548886" style="fill: #0072b2; stroke: #0072b2"/>
     <use xlink:href="#mbbf6a42072" x="267.697046" y="372.803427" style="fill: #0072b2; stroke: #0072b2"/>
     <use xlink:href="#mbbf6a42072" x="270.03588" y="352.974205" style="fill: #0072b2; stroke: #0072b2"/>
     <use xlink:href="#mbbf6a42072" x="275.820898" y="352.617001" style="fill: #0072b2; stroke: #0072b2"/>
     <use xlink:href="#mbbf6a42072" x="271.932989" y="381.609028" style="fill: #0072b2; stroke: #0072b2"/>
     <use xlink:href="#mbbf6a42072" x="274.088133" y="352.579539" style="fill: #0072b2; stroke: #0072b2"/>
     <use xlink:href="#mbbf6a42072" x="269.901381" y="362.825529" style="fill: #0072b2; stroke: #0072b2"/>
     <use xlink:href="#mbbf6a42072" x="267.11205" y="354.358713" style="fill: #0072b2; stroke: #0072b2"/>
     <use xlink:href="#mbbf6a42072" x="271.245668" y="354.424033" style="fill: #0072b2; stroke: #0072b2"/>
     <use xlink:href="#mbbf6a42072" x="264.663414" y="351.728079" style="fill: #0072b2; stroke: #0072b2"/>
     <use xlink:href="#mbbf6a42072" x="272.372461" y="397.572481" style="fill: #0072b2; stroke: #0072b2"/>
     <use xlink:href="#mbbf6a42072" x="268.349738" y="337.012639" style="fill: #0072b2; stroke: #0072b2"/>
     <use xlink:href="#mbbf6a42072" x="272.761771" y="392.139877" style="fill: #0072b2; stroke: #0072b2"/>
     <use xlink:href="#mbbf6a42072" x="275.283891" y="339.797886" style="fill: #0072b2; stroke: #0072b2"/>
     <use xlink:href="#mbbf6a42072" x="277.09059" y="370.191741" style="fill: #0072b2; stroke: #0072b2"/>
     <use xlink:href="#mbbf6a42072" x="265.515045" y="332.358664" style="fill: #0072b2; stroke: #0072b2"/>
     <use xlink:href="#mbbf6a42072" x="271.594229" y="400.975842" style="fill: #0072b2; stroke: #0072b2"/>
     <use xlink:href="#mbbf6a42072" x="276.07247" y="359.772747" style="fill: #0072b2; stroke: #0072b2"/>
     <use xlink:href="#mbbf6a42072" x="268.730509" y="349.82856" style="fill: #0072b2; stroke: #0072b2"/>
     <use xlink:href="#mbbf6a42072" x="275.302961" y="378.319752" style="fill: #0072b2; stroke: #0072b2"/>
     <use xlink:href="#mbbf6a42072" x="269.099049" y="350.51407" style="fill: #0072b2; stroke: #0072b2"/>
     <use xlink:href="#mbbf6a42072" x="275.671083" y="281.59805" style="fill: #0072b2; stroke: #0072b2"/>
     <use xlink:href="#mbbf6a42072" x="272.760565" y="335.018981" style="fill: #0072b2; stroke: #0072b2"/>
     <use xlink:href="#mbbf6a42072" x="270.568489" y="352.570607" style="fill: #0072b2; stroke: #0072b2"/>
     <use xlink:href="#mbbf6a42072" x="271.917091" y="363.435329" style="fill: #0072b2; stroke: #0072b2"/>
     <use xlink:href="#mbbf6a42072" x="277.541351" y="347.731199" style="fill: #0072b2; stroke: #0072b2"/>
     <use xlink:href="#mbbf6a42072" x="273.004088" y="349.219114" style="fill: #0072b2; stroke: #0072b2"/>
     <use xlink:href="#mbbf6a42072" x="273.313316" y="354.746871" style="fill: #0072b2; stroke: #0072b2"/>
     <use xlink:href="#mbbf6a42072" x="274.689582" y="354.610161" style="fill: #0072b2; stroke: #0072b2"/>
     <use xlink:href="#mbbf6a42072" x="277.608007" y="352.912085" style="fill: #0072b2; stroke: #0072b2"/>
     <use xlink:href="#mbbf6a42072" x="265.040117" y="394.346721" style="fill: #0072b2; stroke: #0072b2"/>
    </g>
   </g>
   <g id="PathCollection_3">
    <defs>
     <path id="m02b3f8a02e" d="M 0 0.866025 
C 0.229673 0.866025 0.449969 0.774776 0.612372 0.612372 
C 0.774776 0.449969 0.866025 0.229673 0.866025 0 
C 0.866025 -0.229673 0.774776 -0.449969 0.612372 -0.612372 
C 0.449969 -0.774776 0.229673 -0.866025 0 -0.866025 
C -0.229673 -0.866025 -0.449969 -0.774776 -0.612372 -0.612372 
C -0.774776 -0.449969 -0.866025 -0.229673 -0.866025 0 
C -0.866025 0.229673 -0.774776 0.449969 -0.612372 0.612372 
C -0.449969 0.774776 -0.229673 0.866025 0 0.866025 
z
" style="stroke: #009e73"/>
    </defs>
    <g clip-path="url(#p37ee42bb84)">
     <use xlink:href="#m02b3f8a02e" x="405.093951" y="336.962967" style="fill: #009e73; stroke: #009e73"/>
     <use xlink:href="#m02b3f8a02e" x="406.332709" y="323.607336" style="fill: #009e73; stroke: #009e73"/>
     <use xlink:href="#m02b3f8a02e" x="406.952022" y="322.065723" style="fill: #009e73; stroke: #009e73"/>
     <use xlink:href="#m02b3f8a02e" x="412.209083" y="336.315348" style="fill: #009e73; stroke: #009e73"/>
     <use xlink:href="#m02b3f8a02e" x="414.718105" y="317.055274" style="fill: #009e73; stroke: #009e73"/>
     <use xlink:href="#m02b3f8a02e" x="410.399815" y="318.450537" style="fill: #009e73; stroke: #009e73"/>
     <use xlink:href="#m02b3f8a02e" x="411.056747" y="321.974423" style="fill: #009e73; stroke: #009e73"/>
     <use xlink:href="#m02b3f8a02e" x="415.437726" y="340.69122" style="fill: #009e73; stroke: #009e73"/>
     <use xlink:href="#m02b3f8a02e" x="404.623106" y="328.519396" style="fill: #009e73; stroke: #009e73"/>
     <use xlink:href="#m02b3f8a02e" x="416.546453" y="324.004239" style="fill: #009e73; stroke: #009e73"/>
     <use xlink:href="#m02b3f8a02e" x="414.324952" y="328.747869" style="fill: #009e73; stroke: #009e73"/>
     <use xlink:href="#m02b3f8a02e" x="413.829922" y="329.658908" style="fill: #009e73; stroke: #009e73"/>
     <use xlink:href="#m02b3f8a02e" x="411.102888" y="324.47443" style="fill: #009e73; stroke: #009e73"/>
     <use xlink:href="#m02b3f8a02e" x="409.204803" y="320.505806" style="fill: #009e73; stroke: #009e73"/>
     <use xlink:href="#m02b3f8a02e" x="416.379132" y="318.763959" style="fill: #009e73; stroke: #009e73"/>
     <use xlink:href="#m02b3f8a02e" x="414.487443" y="323.162229" style="fill: #009e73; stroke: #009e73"/>
     <use xlink:href="#m02b3f8a02e" x="410.209164" y="316.038143" style="fill: #009e73; stroke: #009e73"/>
     <use xlink:href="#m02b3f8a02e" x="411.358854" y="322.012502" style="fill: #009e73; stroke: #009e73"/>
     <use xlink:href="#m02b3f8a02e" x="411.381186" y="312.621381" style="fill: #009e73; stroke: #009e73"/>
     <use xlink:href="#m02b3f8a02e" x="404.659453" y="320.952503" style="fill: #009e73; stroke: #009e73"/>
     <use xlink:href="#m02b3f8a02e" x="413.080766" y="328.724308" style="fill: #009e73; stroke: #009e73"/>
     <use xlink:href="#m02b3f8a02e" x="416.892745" y="312.803173" style="fill: #009e73; stroke: #009e73"/>
     <use xlink:href="#m02b3f8a02e" x="415.133999" y="332.266953" style="fill: #009e73; stroke: #009e73"/>
     <use xlink:href="#m02b3f8a02e" x="416.007553" y="319.934216" style="fill: #009e73; stroke: #009e73"/>
     <use xlink:href="#m02b3f8a02e" x="414.178686" y="315.633585" style="fill: #009e73; stroke: #009e73"/>
     <use xlink:href="#m02b3f8a02e" x="404.600425" y="336.031352" style="fill: #009e73; stroke: #009e73"/>
     <use xlink:href="#m02b3f8a02e" x="409.572087" y="326.056094" style="fill: #009e73; stroke: #009e73"/>
     <use xlink:href="#m02b3f8a02e" x="408.579231" y="328.547517" style="fill: #009e73; stroke: #009e73"/>
     <use xlink:href="#m02b3f8a02e" x="412.105082" y="331.019585" style="fill: #009e73; stroke: #009e73"/>
     <use xlink:href="#m02b3f8a02e" x="416.89223" y="317.752503" style="fill: #009e73; stroke: #009e73"/>
     <use xlink:href="#m02b3f8a02e" x="404.112793" y="302.007738" style="fill: #009e73; stroke: #009e73"/>
     <use xlink:href="#m02b3f8a02e" x="404.742355" y="314.656091" style="fill: #009e73; stroke: #009e73"/>
     <use xlink:href="#m02b3f8a02e" x="411.725914" y="321.592194" style="fill: #009e73; stroke: #009e73"/>
     <use xlink:href="#m02b3f8a02e" x="411.734333" y="321.254694" style="fill: #009e73; stroke: #009e73"/>
     <use xlink:href="#m02b3f8a02e" x="406.993744" y="337.545619" style="fill: #009e73; stroke: #009e73"/>
     <use xlink:href="#m02b3f8a02e" x="413.918553" y="314.867078" style="fill: #009e73; stroke: #009e73"/>
     <use xlink:href="#m02b3f8a02e" x="409.748613" y="319.433928" style="fill: #009e73; stroke: #009e73"/>
     <use xlink:href="#m02b3f8a02e" x="415.887137" y="325.801688" style="fill: #009e73; stroke: #009e73"/>
     <use xlink:href="#m02b3f8a02e" x="413.726069" y="320.138624" style="fill: #009e73; stroke: #009e73"/>
    </g>
   </g>
   <g id="PathCollection_4">
    <defs>
     <path id="m95b80b6dd3" d="M 0 0.866025 
C 0.229673 0.866025 0.449969 0.774776 0.612372 0.612372 
C 0.774776 0.449969 0.866025 0.229673 0.866025 0 
C 0.866025 -0.229673 0.774776 -0.449969 0.612372 -0.612372 
C 0.449969 -0.774776 0.229673 -0.866025 0 -0.866025 
C -0.229673 -0.866025 -0.449969 -0.774776 -0.612372 -0.612372 
C -0.774776 -0.449969 -0.866025 -0.229673 -0.866025 0 
C -0.866025 0.229673 -0.774776 0.449969 -0.612372 0.612372 
C -0.449969 0.774776 -0.229673 0.866025 0 0.866025 
z
" style="stroke: #cc79a7"/>
    </defs>
    <g clip-path="url(#p37ee42bb84)">
     <use xlink:href="#m95b80b6dd3" x="553.537597" y="274.287378" style="fill: #cc79a7; stroke: #cc79a7"/>
     <use xlink:href="#m95b80b6dd3" x="550.938805" y="312.833413" style="fill: #cc79a7; stroke: #cc79a7"/>
     <use xlink:href="#m95b80b6dd3" x="544.049931" y="271.235226" style="fill: #cc79a7; stroke: #cc79a7"/>
     <use xlink:href="#m95b80b6dd3" x="543.653657" y="303.96258" style="fill: #cc79a7; stroke: #cc79a7"/>
     <use xlink:href="#m95b80b6dd3" x="549.739214" y="289.791998" style="fill: #cc79a7; stroke: #cc79a7"/>
     <use xlink:href="#m95b80b6dd3" x="551.470468" y="305.399149" style="fill: #cc79a7; stroke: #cc79a7"/>
     <use xlink:href="#m95b80b6dd3" x="551.50811" y="266.723378" style="fill: #cc79a7; stroke: #cc79a7"/>
     <use xlink:href="#m95b80b6dd3" x="555.420637" y="261.900076" style="fill: #cc79a7; stroke: #cc79a7"/>
     <use xlink:href="#m95b80b6dd3" x="552.398776" y="255.733986" style="fill: #cc79a7; stroke: #cc79a7"/>
     <use xlink:href="#m95b80b6dd3" x="556.912543" y="284.110094" style="fill: #cc79a7; stroke: #cc79a7"/>
     <use xlink:href="#m95b80b6dd3" x="553.013456" y="287.402717" style="fill: #cc79a7; stroke: #cc79a7"/>
     <use xlink:href="#m95b80b6dd3" x="554.841402" y="270.988782" style="fill: #cc79a7; stroke: #cc79a7"/>
     <use xlink:href="#m95b80b6dd3" x="554.505929" y="278.225447" style="fill: #cc79a7; stroke: #cc79a7"/>
     <use xlink:href="#m95b80b6dd3" x="544.287463" y="269.556842" style="fill: #cc79a7; stroke: #cc79a7"/>
     <use xlink:href="#m95b80b6dd3" x="552.942594" y="282.89392" style="fill: #cc79a7; stroke: #cc79a7"/>
     <use xlink:href="#m95b80b6dd3" x="551.075831" y="290.604076" style="fill: #cc79a7; stroke: #cc79a7"/>
     <use xlink:href="#m95b80b6dd3" x="553.505316" y="290.094575" style="fill: #cc79a7; stroke: #cc79a7"/>
     <use xlink:href="#m95b80b6dd3" x="550.764985" y="291.952531" style="fill: #cc79a7; stroke: #cc79a7"/>
     <use xlink:href="#m95b80b6dd3" x="554.958885" y="286.431442" style="fill: #cc79a7; stroke: #cc79a7"/>
     <use xlink:href="#m95b80b6dd3" x="550.257484" y="288.265721" style="fill: #cc79a7; stroke: #cc79a7"/>
     <use xlink:href="#m95b80b6dd3" x="555.325648" y="282.880148" style="fill: #cc79a7; stroke: #cc79a7"/>
     <use xlink:href="#m95b80b6dd3" x="551.981498" y="312.681554" style="fill: #cc79a7; stroke: #cc79a7"/>
     <use xlink:href="#m95b80b6dd3" x="556.741054" y="275.00235" style="fill: #cc79a7; stroke: #cc79a7"/>
     <use xlink:href="#m95b80b6dd3" x="556.461907" y="305.171945" style="fill: #cc79a7; stroke: #cc79a7"/>
     <use xlink:href="#m95b80b6dd3" x="553.435623" y="277.978108" style="fill: #cc79a7; stroke: #cc79a7"/>
     <use xlink:href="#m95b80b6dd3" x="547.633636" y="277.859157" style="fill: #cc79a7; stroke: #cc79a7"/>
     <use xlink:href="#m95b80b6dd3" x="554.840516" y="289.506576" style="fill: #cc79a7; stroke: #cc79a7"/>
     <use xlink:href="#m95b80b6dd3" x="548.618267" y="266.754572" style="fill: #cc79a7; stroke: #cc79a7"/>
     <use xlink:href="#m95b80b6dd3" x="556.631862" y="278.751481" style="fill: #cc79a7; stroke: #cc79a7"/>
     <use xlink:href="#m95b80b6dd3" x="544.506241" y="344.663476" style="fill: #cc79a7; stroke: #cc79a7"/>
     <use xlink:href="#m95b80b6dd3" x="549.623285" y="318.968101" style="fill: #cc79a7; stroke: #cc79a7"/>
     <use xlink:href="#m95b80b6dd3" x="548.780026" y="307.575166" style="fill: #cc79a7; stroke: #cc79a7"/>
     <use xlink:href="#m95b80b6dd3" x="551.246542" y="290.238355" style="fill: #cc79a7; stroke: #cc79a7"/>
     <use xlink:href="#m95b80b6dd3" x="548.181949" y="288.799152" style="fill: #cc79a7; stroke: #cc79a7"/>
     <use xlink:href="#m95b80b6dd3" x="553.637409" y="273.631381" style="fill: #cc79a7; stroke: #cc79a7"/>
     <use xlink:href="#m95b80b6dd3" x="552.755371" y="302.974721" style="fill: #cc79a7; stroke: #cc79a7"/>
     <use xlink:href="#m95b80b6dd3" x="551.474858" y="285.910834" style="fill: #cc79a7; stroke: #cc79a7"/>
     <use xlink:href="#m95b80b6dd3" x="546.153395" y="281.846285" style="fill: #cc79a7; stroke: #cc79a7"/>
     <use xlink:href="#m95b80b6dd3" x="552.543866" y="271.176706" style="fill: #cc79a7; stroke: #cc79a7"/>
    </g>
   </g>
   <g id="patch_3">
    <path d="M 149.2875 309.531127 
L 170.2125 309.531127 
L 170.2125 301.430479 
L 149.2875 301.430479 
L 149.2875 309.531127 
z
" clip-path="url(#p37ee42bb84)" style="fill: #d55e00; opacity: 0.5; stroke: #000000; stroke-linejoin: miter"/>
   </g>
   <g id="line2d_12">
    <path d="M 159.75 309.531127 
L 159.75 319.936115 
" clip-path="url(#p37ee42bb84)" style="fill: none; stroke: #000000; stroke-linecap: round"/>
   </g>
   <g id="line2d_13">
    <path d="M 159.75 301.430479 
L 159.75 291.845815 
" clip-path="url(#p37ee42bb84)" style="fill: none; stroke: #000000; stroke-linecap: round"/>
   </g>
   <g id="line2d_14">
    <path d="M 154.51875 319.936115 
L 164.98125 319.936115 
" clip-path="url(#p37ee42bb84)" style="fill: none; stroke: #000000; stroke-linecap: round"/>
   </g>
   <g id="line2d_15">
    <path d="M 154.51875 291.845815 
L 164.98125 291.845815 
" clip-path="url(#p37ee42bb84)" style="fill: none; stroke: #000000; stroke-linecap: round"/>
   </g>
   <g id="patch_4">
    <path d="M 288.7875 368.290219 
L 309.7125 368.290219 
L 309.7125 349.999938 
L 288.7875 349.999938 
L 288.7875 368.290219 
z
" clip-path="url(#p37ee42bb84)" style="fill: #0072b2; opacity: 0.5; stroke: #000000; stroke-linejoin: miter"/>
   </g>
   <g id="line2d_16">
    <path d="M 299.25 368.290219 
L 299.25 394.346721 
" clip-path="url(#p37ee42bb84)" style="fill: none; stroke: #000000; stroke-linecap: round"/>
   </g>
   <g id="line2d_17">
    <path d="M 299.25 349.999938 
L 299.25 332.358664 
" clip-path="url(#p37ee42bb84)" style="fill: none; stroke: #000000; stroke-linecap: round"/>
   </g>
   <g id="line2d_18">
    <path d="M 294.01875 394.346721 
L 304.48125 394.346721 
" clip-path="url(#p37ee42bb84)" style="fill: none; stroke: #000000; stroke-linecap: round"/>
   </g>
   <g id="line2d_19">
    <path d="M 294.01875 332.358664 
L 304.48125 332.358664 
" clip-path="url(#p37ee42bb84)" style="fill: none; stroke: #000000; stroke-linecap: round"/>
   </g>
   <g id="patch_5">
    <path d="M 428.2875 328.635913 
L 449.2125 328.635913 
L 449.2125 318.607248 
L 428.2875 318.607248 
L 428.2875 328.635913 
z
" clip-path="url(#p37ee42bb84)" style="fill: #009e73; opacity: 0.5; stroke: #000000; stroke-linejoin: miter"/>
   </g>
   <g id="line2d_20">
    <path d="M 438.75 328.635913 
L 438.75 340.69122 
" clip-path="url(#p37ee42bb84)" style="fill: none; stroke: #000000; stroke-linecap: round"/>
   </g>
   <g id="line2d_21">
    <path d="M 438.75 318.607248 
L 438.75 312.621381 
" clip-path="url(#p37ee42bb84)" style="fill: none; stroke: #000000; stroke-linecap: round"/>
   </g>
   <g id="line2d_22">
    <path d="M 433.51875 340.69122 
L 443.98125 340.69122 
" clip-path="url(#p37ee42bb84)" style="fill: none; stroke: #000000; stroke-linecap: round"/>
   </g>
   <g id="line2d_23">
    <path d="M 433.51875 312.621381 
L 443.98125 312.621381 
" clip-path="url(#p37ee42bb84)" style="fill: none; stroke: #000000; stroke-linecap: round"/>
   </g>
   <g id="patch_6">
    <path d="M 567.7875 291.278304 
L 588.7125 291.278304 
L 588.7125 274.644864 
L 567.7875 274.644864 
L 567.7875 291.278304 
z
" clip-path="url(#p37ee42bb84)" style="fill: #cc79a7; opacity: 0.5; stroke: #000000; stroke-linejoin: miter"/>
   </g>
   <g id="line2d_24">
    <path d="M 578.25 291.278304 
L 578.25 312.833413 
" clip-path="url(#p37ee42bb84)" style="fill: none; stroke: #000000; stroke-linecap: round"/>
   </g>
   <g id="line2d_25">
    <path d="M 578.25 274.644864 
L 578.25 255.733986 
" clip-path="url(#p37ee42bb84)" style="fill: none; stroke: #000000; stroke-linecap: round"/>
   </g>
   <g id="line2d_26">
    <path d="M 573.01875 312.833413 
L 583.48125 312.833413 
" clip-path="url(#p37ee42bb84)" style="fill: none; stroke: #000000; stroke-linecap: round"/>
   </g>
   <g id="line2d_27">
    <path d="M 573.01875 255.733986 
L 583.48125 255.733986 
" clip-path="url(#p37ee42bb84)" style="fill: none; stroke: #000000; stroke-linecap: round"/>
   </g>
   <g id="line2d_28">
    <path d="M 159.75 243.921486 
L 578.25 243.921486 
" clip-path="url(#p37ee42bb84)" style="fill: none; stroke: #000000; stroke-width: 1.5; stroke-linecap: round"/>
   </g>
   <g id="line2d_29">
    <path d="M 299.25 232.108986 
L 578.25 232.108986 
" clip-path="url(#p37ee42bb84)" style="fill: none; stroke: #000000; stroke-width: 1.5; stroke-linecap: round"/>
   </g>
   <g id="line2d_30">
    <path d="M 438.75 220.296486 
L 578.25 220.296486 
" clip-path="url(#p37ee42bb84)" style="fill: none; stroke: #000000; stroke-width: 1.5; stroke-linecap: round"/>
   </g>
   <g id="line2d_31">
    <path d="M 149.2875 305.748912 
L 170.2125 305.748912 
" clip-path="url(#p37ee42bb84)" style="fill: none; stroke: #000000"/>
   </g>
   <g id="line2d_32">
    <path d="M 288.7875 353.968792 
L 309.7125 353.968792 
" clip-path="url(#p37ee42bb84)" style="fill: none; stroke: #000000"/>
   </g>
   <g id="line2d_33">
    <path d="M 428.2875 322.012502 
L 449.2125 322.012502 
" clip-path="url(#p37ee42bb84)" style="fill: none; stroke: #000000"/>
   </g>
   <g id="line2d_34">
    <path d="M 567.7875 285.910834 
L 588.7125 285.910834 
" clip-path="url(#p37ee42bb84)" style="fill: none; stroke: #000000"/>
   </g>
   <g id="patch_7">
    <path d="M 90 507.6 
L 90 129.6 
" style="fill: none; stroke: #262626; stroke-width: 1.25; stroke-linejoin: miter; stroke-linecap: square"/>
   </g>
   <g id="patch_8">
    <path d="M 648 507.6 
L 648 129.6 
" style="fill: none; stroke: #262626; stroke-width: 1.25; stroke-linejoin: miter; stroke-linecap: square"/>
   </g>
   <g id="patch_9">
    <path d="M 90 507.6 
L 648 507.6 
" style="fill: none; stroke: #262626; stroke-width: 1.25; stroke-linejoin: miter; stroke-linecap: square"/>
   </g>
   <g id="patch_10">
    <path d="M 90 129.6 
L 648 129.6 
" style="fill: none; stroke: #262626; stroke-width: 1.25; stroke-linejoin: miter; stroke-linecap: square"/>
   </g>
   <g id="text_13">
    <!-- * -->
    <g transform="translate(369 243.921486) scale(0.12 -0.12)">
     <defs>
      <path id="ArialMT-2a" d="M 200 3741 
L 344 4184 
Q 841 4009 1066 3881 
Q 1006 4447 1003 4659 
L 1456 4659 
Q 1447 4350 1384 3884 
Q 1706 4047 2122 4184 
L 2266 3741 
Q 1869 3609 1488 3566 
Q 1678 3400 2025 2975 
L 1650 2709 
Q 1469 2956 1222 3381 
Q 991 2941 816 2709 
L 447 2975 
Q 809 3422 966 3566 
Q 563 3644 200 3741 
z
" transform="scale(0.015625)"/>
     </defs>
     <use xlink:href="#ArialMT-2a"/>
    </g>
   </g>
   <g id="text_14">
    <!-- * -->
    <g transform="translate(438.75 232.108986) scale(0.12 -0.12)">
     <use xlink:href="#ArialMT-2a"/>
    </g>
   </g>
   <g id="text_15">
    <!-- * -->
    <g transform="translate(508.5 220.296486) scale(0.12 -0.12)">
     <use xlink:href="#ArialMT-2a"/>
    </g>
   </g>
   <g id="text_16">
    <!-- IBI -->
    <g style="fill: #262626" transform="translate(360.055313 109.6) scale(0.14 -0.14)">
     <defs>
      <path id="Arial-BoldMT-49" d="M 438 0 
L 438 4581 
L 1363 4581 
L 1363 0 
L 438 0 
z
" transform="scale(0.015625)"/>
      <path id="Arial-BoldMT-42" d="M 469 4581 
L 2300 4581 
Q 2844 4581 3111 4536 
Q 3378 4491 3589 4347 
Q 3800 4203 3940 3964 
Q 4081 3725 4081 3428 
Q 4081 3106 3907 2837 
Q 3734 2569 3438 2434 
Q 3856 2313 4081 2019 
Q 4306 1725 4306 1328 
Q 4306 1016 4161 720 
Q 4016 425 3764 248 
Q 3513 72 3144 31 
Q 2913 6 2028 0 
L 469 0 
L 469 4581 
z
M 1394 3819 
L 1394 2759 
L 2000 2759 
Q 2541 2759 2672 2775 
Q 2909 2803 3045 2939 
Q 3181 3075 3181 3297 
Q 3181 3509 3064 3642 
Q 2947 3775 2716 3803 
Q 2578 3819 1925 3819 
L 1394 3819 
z
M 1394 1997 
L 1394 772 
L 2250 772 
Q 2750 772 2884 800 
Q 3091 838 3220 983 
Q 3350 1128 3350 1372 
Q 3350 1578 3250 1722 
Q 3150 1866 2961 1931 
Q 2772 1997 2141 1997 
L 1394 1997 
z
" transform="scale(0.015625)"/>
     </defs>
     <use xlink:href="#Arial-BoldMT-49"/>
     <use xlink:href="#Arial-BoldMT-42" x="27.783203"/>
     <use xlink:href="#Arial-BoldMT-49" x="100"/>
    </g>
   </g>
  </g>
  <g id="axes_2">
   <g id="patch_11">
    <path d="M 90 961.2 
L 648 961.2 
L 648 583.2 
L 90 583.2 
z
" style="fill: #ffffff"/>
   </g>
   <g id="matplotlib.axis_3">
    <g id="xtick_5">
     <g id="line2d_35">
      <g>
       <use xlink:href="#m5d8412cdd9" x="159.75" y="961.2" style="fill: #262626; stroke: #262626; stroke-width: 1.25"/>
      </g>
     </g>
     <g id="text_17">
      <!-- State 1 -->
      <g style="fill: #262626" transform="translate(142.321875 978.573594) scale(0.11 -0.11)">
       <use xlink:href="#ArialMT-53"/>
       <use xlink:href="#ArialMT-74" x="66.699219"/>
       <use xlink:href="#ArialMT-61" x="94.482422"/>
       <use xlink:href="#ArialMT-74" x="150.097656"/>
       <use xlink:href="#ArialMT-65" x="177.880859"/>
       <use xlink:href="#ArialMT-20" x="233.496094"/>
       <use xlink:href="#ArialMT-31" x="261.279297"/>
      </g>
     </g>
    </g>
    <g id="xtick_6">
     <g id="line2d_36">
      <g>
       <use xlink:href="#m5d8412cdd9" x="299.25" y="961.2" style="fill: #262626; stroke: #262626; stroke-width: 1.25"/>
      </g>
     </g>
     <g id="text_18">
      <!-- State 2 -->
      <g style="fill: #262626" transform="translate(281.821875 978.573594) scale(0.11 -0.11)">
       <use xlink:href="#ArialMT-53"/>
       <use xlink:href="#ArialMT-74" x="66.699219"/>
       <use xlink:href="#ArialMT-61" x="94.482422"/>
       <use xlink:href="#ArialMT-74" x="150.097656"/>
       <use xlink:href="#ArialMT-65" x="177.880859"/>
       <use xlink:href="#ArialMT-20" x="233.496094"/>
       <use xlink:href="#ArialMT-32" x="261.279297"/>
      </g>
     </g>
    </g>
    <g id="xtick_7">
     <g id="line2d_37">
      <g>
       <use xlink:href="#m5d8412cdd9" x="438.75" y="961.2" style="fill: #262626; stroke: #262626; stroke-width: 1.25"/>
      </g>
     </g>
     <g id="text_19">
      <!-- State 3 -->
      <g style="fill: #262626" transform="translate(421.321875 978.573594) scale(0.11 -0.11)">
       <use xlink:href="#ArialMT-53"/>
       <use xlink:href="#ArialMT-74" x="66.699219"/>
       <use xlink:href="#ArialMT-61" x="94.482422"/>
       <use xlink:href="#ArialMT-74" x="150.097656"/>
       <use xlink:href="#ArialMT-65" x="177.880859"/>
       <use xlink:href="#ArialMT-20" x="233.496094"/>
       <use xlink:href="#ArialMT-33" x="261.279297"/>
      </g>
     </g>
    </g>
    <g id="xtick_8">
     <g id="line2d_38">
      <g>
       <use xlink:href="#m5d8412cdd9" x="578.25" y="961.2" style="fill: #262626; stroke: #262626; stroke-width: 1.25"/>
      </g>
     </g>
     <g id="text_20">
      <!-- State 4 -->
      <g style="fill: #262626" transform="translate(560.821875 978.573594) scale(0.11 -0.11)">
       <use xlink:href="#ArialMT-53"/>
       <use xlink:href="#ArialMT-74" x="66.699219"/>
       <use xlink:href="#ArialMT-61" x="94.482422"/>
       <use xlink:href="#ArialMT-74" x="150.097656"/>
       <use xlink:href="#ArialMT-65" x="177.880859"/>
       <use xlink:href="#ArialMT-20" x="233.496094"/>
       <use xlink:href="#ArialMT-34" x="261.279297"/>
      </g>
     </g>
    </g>
   </g>
   <g id="matplotlib.axis_4">
    <g id="ytick_8">
     <g id="line2d_39">
      <g>
       <use xlink:href="#m450f5507a1" x="90" y="949.3875" style="fill: #262626; stroke: #262626; stroke-width: 1.25"/>
      </g>
     </g>
     <g id="text_21">
      <!-- −3 -->
      <g style="fill: #262626" transform="translate(67.958281 953.324297) scale(0.11 -0.11)">
       <use xlink:href="#ArialMT-2212"/>
       <use xlink:href="#ArialMT-33" x="58.398438"/>
      </g>
     </g>
    </g>
    <g id="ytick_9">
     <g id="line2d_40">
      <g>
       <use xlink:href="#m450f5507a1" x="90" y="890.325" style="fill: #262626; stroke: #262626; stroke-width: 1.25"/>
      </g>
     </g>
     <g id="text_22">
      <!-- −2 -->
      <g style="fill: #262626" transform="translate(67.958281 894.261797) scale(0.11 -0.11)">
       <use xlink:href="#ArialMT-2212"/>
       <use xlink:href="#ArialMT-32" x="58.398438"/>
      </g>
     </g>
    </g>
    <g id="ytick_10">
     <g id="line2d_41">
      <g>
       <use xlink:href="#m450f5507a1" x="90" y="831.2625" style="fill: #262626; stroke: #262626; stroke-width: 1.25"/>
      </g>
     </g>
     <g id="text_23">
      <!-- −1 -->
      <g style="fill: #262626" transform="translate(67.958281 835.199297) scale(0.11 -0.11)">
       <use xlink:href="#ArialMT-2212"/>
       <use xlink:href="#ArialMT-31" x="58.398438"/>
      </g>
     </g>
    </g>
    <g id="ytick_11">
     <g id="line2d_42">
      <g>
       <use xlink:href="#m450f5507a1" x="90" y="772.2" style="fill: #262626; stroke: #262626; stroke-width: 1.25"/>
      </g>
     </g>
     <g id="text_24">
      <!-- 0 -->
      <g style="fill: #262626" transform="translate(74.382969 776.136797) scale(0.11 -0.11)">
       <use xlink:href="#ArialMT-30"/>
      </g>
     </g>
    </g>
    <g id="ytick_12">
     <g id="line2d_43">
      <g>
       <use xlink:href="#m450f5507a1" x="90" y="713.1375" style="fill: #262626; stroke: #262626; stroke-width: 1.25"/>
      </g>
     </g>
     <g id="text_25">
      <!-- 1 -->
      <g style="fill: #262626" transform="translate(74.382969 717.074297) scale(0.11 -0.11)">
       <use xlink:href="#ArialMT-31"/>
      </g>
     </g>
    </g>
    <g id="ytick_13">
     <g id="line2d_44">
      <g>
       <use xlink:href="#m450f5507a1" x="90" y="654.075" style="fill: #262626; stroke: #262626; stroke-width: 1.25"/>
      </g>
     </g>
     <g id="text_26">
      <!-- 2 -->
      <g style="fill: #262626" transform="translate(74.382969 658.011797) scale(0.11 -0.11)">
       <use xlink:href="#ArialMT-32"/>
      </g>
     </g>
    </g>
    <g id="ytick_14">
     <g id="line2d_45">
      <g>
       <use xlink:href="#m450f5507a1" x="90" y="595.0125" style="fill: #262626; stroke: #262626; stroke-width: 1.25"/>
      </g>
     </g>
     <g id="text_27">
      <!-- 3 -->
      <g style="fill: #262626" transform="translate(74.382969 598.949297) scale(0.11 -0.11)">
       <use xlink:href="#ArialMT-33"/>
      </g>
     </g>
    </g>
    <g id="text_28">
     <!-- Value (z-scored) -->
     <g style="fill: #262626" transform="translate(61.432656 815.770313) rotate(-90) scale(0.12 -0.12)">
      <use xlink:href="#ArialMT-56"/>
      <use xlink:href="#ArialMT-61" x="59.324219"/>
      <use xlink:href="#ArialMT-6c" x="114.939453"/>
      <use xlink:href="#ArialMT-75" x="137.15625"/>
      <use xlink:href="#ArialMT-65" x="192.771484"/>
      <use xlink:href="#ArialMT-20" x="248.386719"/>
      <use xlink:href="#ArialMT-28" x="276.169922"/>
      <use xlink:href="#ArialMT-7a" x="309.470703"/>
      <use xlink:href="#ArialMT-2d" x="359.470703"/>
      <use xlink:href="#ArialMT-73" x="392.771484"/>
      <use xlink:href="#ArialMT-63" x="442.771484"/>
      <use xlink:href="#ArialMT-6f" x="492.771484"/>
      <use xlink:href="#ArialMT-72" x="548.386719"/>
      <use xlink:href="#ArialMT-65" x="581.6875"/>
      <use xlink:href="#ArialMT-64" x="637.302734"/>
      <use xlink:href="#ArialMT-29" x="692.917969"/>
     </g>
    </g>
   </g>
   <g id="PolyCollection_5">
    <defs>
     <path id="m3a68b68b56" d="M 172.350978 -320.862006 
L 160.282646 -320.862006 
L 160.282646 -321.084656 
L 160.282646 -321.307307 
L 160.282646 -321.529957 
L 160.282646 -321.752607 
L 160.282646 -321.975258 
L 160.282646 -322.197908 
L 160.282646 -322.420558 
L 160.282646 -322.643209 
L 160.282646 -322.865859 
L 160.282646 -323.08851 
L 160.282646 -323.31116 
L 160.282646 -323.53381 
L 160.282646 -323.756461 
L 160.282646 -323.979111 
L 160.282646 -324.201762 
L 160.282646 -324.424412 
L 160.282646 -324.647062 
L 160.282646 -324.869713 
L 160.282646 -325.092363 
L 160.282646 -325.315013 
L 160.282646 -325.537664 
L 160.282646 -325.760314 
L 160.282646 -325.982965 
L 160.282646 -326.205615 
L 160.282646 -326.428265 
L 160.282646 -326.650916 
L 160.282646 -326.873566 
L 160.282646 -327.096217 
L 160.282646 -327.318867 
L 160.282646 -327.541517 
L 160.282646 -327.764168 
L 160.282646 -327.986818 
L 160.282646 -328.209468 
L 160.282646 -328.432119 
L 160.282646 -328.654769 
L 160.282646 -328.87742 
L 160.282646 -329.10007 
L 160.282646 -329.32272 
L 177.692354 -329.32272 
L 177.692354 -329.32272 
L 179.989533 -329.10007 
L 182.108555 -328.87742 
L 183.982072 -328.654769 
L 185.572258 -328.432119 
L 186.876233 -328.209468 
L 187.925534 -327.986818 
L 188.779154 -327.764168 
L 189.511069 -327.541517 
L 190.194578 -327.318867 
L 190.886672 -327.096217 
L 191.615815 -326.873566 
L 192.375799 -326.650916 
L 193.126882 -326.428265 
L 193.803699 -326.205615 
L 194.327888 -325.982965 
L 194.622479 -325.760314 
L 194.625 -325.537664 
L 194.296995 -325.315013 
L 193.628746 -325.092363 
L 192.639247 -324.869713 
L 191.372391 -324.647062 
L 189.890746 -324.424412 
L 188.268318 -324.201762 
L 186.583332 -323.979111 
L 184.911624 -323.756461 
L 183.320857 -323.53381 
L 181.865573 -323.31116 
L 180.583089 -323.08851 
L 179.490379 -322.865859 
L 178.582323 -322.643209 
L 177.831834 -322.420558 
L 177.192391 -322.197908 
L 176.603269 -321.975258 
L 175.99725 -321.752607 
L 175.310004 -321.529957 
L 174.489716 -321.307307 
L 173.505218 -321.084656 
L 172.350978 -320.862006 
z
" style="stroke: #d55e00; stroke-opacity: 0.3"/>
    </defs>
    <g clip-path="url(#p78ef14d392)">
     <use xlink:href="#m3a68b68b56" x="0" y="1080" style="fill: #d55e00; fill-opacity: 0.3; stroke: #d55e00; stroke-opacity: 0.3"/>
    </g>
   </g>
   <g id="PolyCollection_6">
    <defs>
     <path id="me9f7d6d36a" d="M 303.808808 -210.386637 
L 299.424854 -210.386637 
L 299.424854 -211.648897 
L 299.424854 -212.911158 
L 299.424854 -214.173419 
L 299.424854 -215.43568 
L 299.424854 -216.697941 
L 299.424854 -217.960202 
L 299.424854 -219.222463 
L 299.424854 -220.484724 
L 299.424854 -221.746985 
L 299.424854 -223.009246 
L 299.424854 -224.271507 
L 299.424854 -225.533768 
L 299.424854 -226.796029 
L 299.424854 -228.05829 
L 299.424854 -229.320551 
L 299.424854 -230.582812 
L 299.424854 -231.845073 
L 299.424854 -233.107334 
L 299.424854 -234.369595 
L 299.424854 -235.631856 
L 299.424854 -236.894116 
L 299.424854 -238.156377 
L 299.424854 -239.418638 
L 299.424854 -240.680899 
L 299.424854 -241.94316 
L 299.424854 -243.205421 
L 299.424854 -244.467682 
L 299.424854 -245.729943 
L 299.424854 -246.992204 
L 299.424854 -248.254465 
L 299.424854 -249.516726 
L 299.424854 -250.778987 
L 299.424854 -252.041248 
L 299.424854 -253.303509 
L 299.424854 -254.56577 
L 299.424854 -255.828031 
L 299.424854 -257.090292 
L 299.424854 -258.352553 
L 304.295549 -258.352553 
L 304.295549 -258.352553 
L 305.634885 -257.090292 
L 307.259756 -255.828031 
L 309.221117 -254.56577 
L 311.556435 -253.303509 
L 314.272221 -252.041248 
L 317.326668 -250.778987 
L 320.617452 -249.516726 
L 323.97965 -248.254465 
L 327.197139 -246.992204 
L 330.027646 -245.729943 
L 332.23767 -244.467682 
L 333.640022 -243.205421 
L 334.125 -241.94316 
L 333.677295 -240.680899 
L 332.374419 -239.418638 
L 330.367807 -238.156377 
L 327.852787 -236.894116 
L 325.036407 -235.631856 
L 322.111585 -234.369595 
L 319.242419 -233.107334 
L 316.560384 -231.845073 
L 314.166904 -230.582812 
L 312.136194 -229.320551 
L 310.514092 -228.05829 
L 309.31257 -226.796029 
L 308.503748 -225.533768 
L 308.019167 -224.271507 
L 307.75862 -223.009246 
L 307.608595 -221.746985 
L 307.465484 -220.484724 
L 307.255655 -219.222463 
L 306.945206 -217.960202 
L 306.536428 -216.697941 
L 306.053692 -215.43568 
L 305.525826 -214.173419 
L 304.972729 -212.911158 
L 304.401051 -211.648897 
L 303.808808 -210.386637 
z
" style="stroke: #0072b2; stroke-opacity: 0.3"/>
    </defs>
    <g clip-path="url(#p78ef14d392)">
     <use xlink:href="#me9f7d6d36a" x="0" y="1080" style="fill: #0072b2; fill-opacity: 0.3; stroke: #0072b2; stroke-opacity: 0.3"/>
    </g>
   </g>
   <g id="PolyCollection_7">
    <defs>
     <path id="m5abba22e26" d="M 443.699503 -279.4475 
L 438.902404 -279.4475 
L 438.902404 -279.63776 
L 438.902404 -279.828021 
L 438.902404 -280.018281 
L 438.902404 -280.208541 
L 438.902404 -280.398801 
L 438.902404 -280.589061 
L 438.902404 -280.779321 
L 438.902404 -280.969581 
L 438.902404 -281.159841 
L 438.902404 -281.350101 
L 438.902404 -281.540362 
L 438.902404 -281.730622 
L 438.902404 -281.920882 
L 438.902404 -282.111142 
L 438.902404 -282.301402 
L 438.902404 -282.491662 
L 438.902404 -282.681922 
L 438.902404 -282.872182 
L 438.902404 -283.062443 
L 438.902404 -283.252703 
L 438.902404 -283.442963 
L 438.902404 -283.633223 
L 438.902404 -283.823483 
L 438.902404 -284.013743 
L 438.902404 -284.204003 
L 438.902404 -284.394263 
L 438.902404 -284.584523 
L 438.902404 -284.774784 
L 438.902404 -284.965044 
L 438.902404 -285.155304 
L 438.902404 -285.345564 
L 438.902404 -285.535824 
L 438.902404 -285.726084 
L 438.902404 -285.916344 
L 438.902404 -286.106604 
L 438.902404 -286.296865 
L 438.902404 -286.487125 
L 438.902404 -286.677385 
L 441.195738 -286.677385 
L 441.195738 -286.677385 
L 441.471595 -286.487125 
L 441.806603 -286.296865 
L 442.285613 -286.106604 
L 442.997518 -285.916344 
L 444.013438 -285.726084 
L 445.369655 -285.535824 
L 447.061156 -285.345564 
L 449.047799 -285.155304 
L 451.270445 -284.965044 
L 453.670387 -284.774784 
L 456.20341 -284.584523 
L 458.841104 -284.394263 
L 461.556943 -284.204003 
L 464.301875 -284.013743 
L 466.980596 -283.823483 
L 469.441909 -283.633223 
L 471.492754 -283.442963 
L 472.936464 -283.252703 
L 473.625 -283.062443 
L 473.507003 -282.872182 
L 472.652409 -282.681922 
L 471.241569 -282.491662 
L 469.520042 -282.301402 
L 467.733811 -282.111142 
L 466.067185 -281.920882 
L 464.603627 -281.730622 
L 463.319762 -281.540362 
L 462.110467 -281.350101 
L 460.83372 -281.159841 
L 459.360387 -280.969581 
L 457.615226 -280.779321 
L 455.599151 -280.589061 
L 453.387919 -280.398801 
L 451.108876 -280.208541 
L 448.904259 -280.018281 
L 446.894183 -279.828021 
L 445.152108 -279.63776 
L 443.699503 -279.4475 
z
" style="stroke: #009e73; stroke-opacity: 0.3"/>
    </defs>
    <g clip-path="url(#p78ef14d392)">
     <use xlink:href="#m5abba22e26" x="0" y="1080" style="fill: #009e73; fill-opacity: 0.3; stroke: #009e73; stroke-opacity: 0.3"/>
    </g>
   </g>
   <g id="PolyCollection_8">
    <defs>
     <path id="m83cb554212" d="M 580.607157 -373.216711 
L 578.333613 -373.216711 
L 578.333613 -374.928729 
L 578.333613 -376.640747 
L 578.333613 -378.352765 
L 578.333613 -380.064783 
L 578.333613 -381.776801 
L 578.333613 -383.488819 
L 578.333613 -385.200837 
L 578.333613 -386.912855 
L 578.333613 -388.624873 
L 578.333613 -390.336891 
L 578.333613 -392.048909 
L 578.333613 -393.760927 
L 578.333613 -395.472945 
L 578.333613 -397.184963 
L 578.333613 -398.896981 
L 578.333613 -400.608998 
L 578.333613 -402.321016 
L 578.333613 -404.033034 
L 578.333613 -405.745052 
L 578.333613 -407.45707 
L 578.333613 -409.169088 
L 578.333613 -410.881106 
L 578.333613 -412.593124 
L 578.333613 -414.305142 
L 578.333613 -416.01716 
L 578.333613 -417.729178 
L 578.333613 -419.441196 
L 578.333613 -421.153214 
L 578.333613 -422.865232 
L 578.333613 -424.57725 
L 578.333613 -426.289268 
L 578.333613 -428.001286 
L 578.333613 -429.713304 
L 578.333613 -431.425322 
L 578.333613 -433.13734 
L 578.333613 -434.849358 
L 578.333613 -436.561376 
L 578.333613 -438.273394 
L 580.308364 -438.273394 
L 580.308364 -438.273394 
L 580.461348 -436.561376 
L 580.554269 -434.849358 
L 580.616352 -433.13734 
L 580.677238 -431.425322 
L 580.762834 -429.713304 
L 580.902715 -428.001286 
L 581.14108 -426.289268 
L 581.538785 -424.57725 
L 582.160609 -422.865232 
L 583.054676 -421.153214 
L 584.238724 -419.441196 
L 585.703231 -417.729178 
L 587.427701 -416.01716 
L 589.395352 -414.305142 
L 591.593248 -412.593124 
L 593.998413 -410.881106 
L 596.563946 -409.169088 
L 599.21993 -407.45707 
L 601.890141 -405.745052 
L 604.508517 -404.033034 
L 607.014652 -402.321016 
L 609.321845 -400.608998 
L 611.275857 -398.896981 
L 612.638759 -397.184963 
L 613.125 -395.472945 
L 612.486967 -393.760927 
L 610.613865 -392.048909 
L 607.594503 -390.336891 
L 603.712286 -388.624873 
L 599.376939 -386.912855 
L 595.026809 -385.200837 
L 591.040379 -383.488819 
L 587.679463 -381.776801 
L 585.066995 -380.064783 
L 583.193012 -378.352765 
L 581.942769 -376.640747 
L 581.141614 -374.928729 
L 580.607157 -373.216711 
z
" style="stroke: #cc79a7; stroke-opacity: 0.3"/>
    </defs>
    <g clip-path="url(#p78ef14d392)">
     <use xlink:href="#m83cb554212" x="0" y="1080" style="fill: #cc79a7; fill-opacity: 0.3; stroke: #cc79a7; stroke-opacity: 0.3"/>
    </g>
   </g>
   <g id="PathCollection_5">
    <g clip-path="url(#p78ef14d392)">
     <use xlink:href="#md8eaa3904c" x="136.603756" y="754.047267" style="fill: #d55e00; stroke: #d55e00"/>
     <use xlink:href="#md8eaa3904c" x="134.749265" y="755.040349" style="fill: #d55e00; stroke: #d55e00"/>
     <use xlink:href="#md8eaa3904c" x="127.227527" y="754.309743" style="fill: #d55e00; stroke: #d55e00"/>
     <use xlink:href="#md8eaa3904c" x="137.437392" y="759.137994" style="fill: #d55e00; stroke: #d55e00"/>
     <use xlink:href="#md8eaa3904c" x="137.785696" y="751.75271" style="fill: #d55e00; stroke: #d55e00"/>
     <use xlink:href="#md8eaa3904c" x="133.200356" y="755.530371" style="fill: #d55e00; stroke: #d55e00"/>
     <use xlink:href="#md8eaa3904c" x="130.376404" y="755.748729" style="fill: #d55e00; stroke: #d55e00"/>
     <use xlink:href="#md8eaa3904c" x="136.814277" y="751.711399" style="fill: #d55e00; stroke: #d55e00"/>
     <use xlink:href="#md8eaa3904c" x="135.329325" y="756.984641" style="fill: #d55e00; stroke: #d55e00"/>
     <use xlink:href="#md8eaa3904c" x="129.768391" y="753.585465" style="fill: #d55e00; stroke: #d55e00"/>
     <use xlink:href="#md8eaa3904c" x="130.231475" y="758.853167" style="fill: #d55e00; stroke: #d55e00"/>
     <use xlink:href="#md8eaa3904c" x="135.780668" y="752.322136" style="fill: #d55e00; stroke: #d55e00"/>
     <use xlink:href="#md8eaa3904c" x="125.981039" y="755.606645" style="fill: #d55e00; stroke: #d55e00"/>
     <use xlink:href="#md8eaa3904c" x="132.106107" y="754.792955" style="fill: #d55e00; stroke: #d55e00"/>
     <use xlink:href="#md8eaa3904c" x="127.320508" y="754.065025" style="fill: #d55e00; stroke: #d55e00"/>
     <use xlink:href="#md8eaa3904c" x="129.2898" y="757.821637" style="fill: #d55e00; stroke: #d55e00"/>
     <use xlink:href="#md8eaa3904c" x="137.475043" y="755.026706" style="fill: #d55e00; stroke: #d55e00"/>
     <use xlink:href="#md8eaa3904c" x="133.894148" y="751.849672" style="fill: #d55e00; stroke: #d55e00"/>
     <use xlink:href="#md8eaa3904c" x="128.321661" y="751.622974" style="fill: #d55e00; stroke: #d55e00"/>
     <use xlink:href="#md8eaa3904c" x="136.380556" y="756.851229" style="fill: #d55e00; stroke: #d55e00"/>
     <use xlink:href="#md8eaa3904c" x="125.778651" y="750.67728" style="fill: #d55e00; stroke: #d55e00"/>
     <use xlink:href="#md8eaa3904c" x="135.884827" y="755.938683" style="fill: #d55e00; stroke: #d55e00"/>
     <use xlink:href="#md8eaa3904c" x="129.427309" y="750.798268" style="fill: #d55e00; stroke: #d55e00"/>
     <use xlink:href="#md8eaa3904c" x="128.117055" y="753.670193" style="fill: #d55e00; stroke: #d55e00"/>
     <use xlink:href="#md8eaa3904c" x="129.660384" y="758.30512" style="fill: #d55e00; stroke: #d55e00"/>
     <use xlink:href="#md8eaa3904c" x="129.064799" y="751.557425" style="fill: #d55e00; stroke: #d55e00"/>
     <use xlink:href="#md8eaa3904c" x="135.475243" y="753.93538" style="fill: #d55e00; stroke: #d55e00"/>
     <use xlink:href="#md8eaa3904c" x="131.840472" y="755.753989" style="fill: #d55e00; stroke: #d55e00"/>
     <use xlink:href="#md8eaa3904c" x="128.842327" y="758.965952" style="fill: #d55e00; stroke: #d55e00"/>
     <use xlink:href="#md8eaa3904c" x="128.49095" y="751.802461" style="fill: #d55e00; stroke: #d55e00"/>
     <use xlink:href="#md8eaa3904c" x="135.350591" y="750.772521" style="fill: #d55e00; stroke: #d55e00"/>
     <use xlink:href="#md8eaa3904c" x="132.778767" y="753.470574" style="fill: #d55e00; stroke: #d55e00"/>
     <use xlink:href="#md8eaa3904c" x="133.373025" y="756.885224" style="fill: #d55e00; stroke: #d55e00"/>
     <use xlink:href="#md8eaa3904c" x="126.976912" y="754.510095" style="fill: #d55e00; stroke: #d55e00"/>
     <use xlink:href="#md8eaa3904c" x="132.632244" y="754.588679" style="fill: #d55e00; stroke: #d55e00"/>
     <use xlink:href="#md8eaa3904c" x="137.366061" y="752.596476" style="fill: #d55e00; stroke: #d55e00"/>
     <use xlink:href="#md8eaa3904c" x="138.586424" y="752.476117" style="fill: #d55e00; stroke: #d55e00"/>
     <use xlink:href="#md8eaa3904c" x="128.025126" y="754.028752" style="fill: #d55e00; stroke: #d55e00"/>
     <use xlink:href="#md8eaa3904c" x="135.973386" y="758.758941" style="fill: #d55e00; stroke: #d55e00"/>
    </g>
   </g>
   <g id="PathCollection_6">
    <g clip-path="url(#p78ef14d392)">
     <use xlink:href="#mbbf6a42072" x="270.419085" y="840.939187" style="fill: #0072b2; stroke: #0072b2"/>
     <use xlink:href="#mbbf6a42072" x="269.799737" y="846.252736" style="fill: #0072b2; stroke: #0072b2"/>
     <use xlink:href="#mbbf6a42072" x="271.585314" y="836.098601" style="fill: #0072b2; stroke: #0072b2"/>
     <use xlink:href="#mbbf6a42072" x="268.293145" y="857.960596" style="fill: #0072b2; stroke: #0072b2"/>
     <use xlink:href="#mbbf6a42072" x="268.500753" y="841.463935" style="fill: #0072b2; stroke: #0072b2"/>
     <use xlink:href="#mbbf6a42072" x="277.515011" y="860.607706" style="fill: #0072b2; stroke: #0072b2"/>
     <use xlink:href="#mbbf6a42072" x="276.451571" y="832.54194" style="fill: #0072b2; stroke: #0072b2"/>
     <use xlink:href="#mbbf6a42072" x="265.467674" y="839.797861" style="fill: #0072b2; stroke: #0072b2"/>
     <use xlink:href="#mbbf6a42072" x="277.041935" y="828.168635" style="fill: #0072b2; stroke: #0072b2"/>
     <use xlink:href="#mbbf6a42072" x="269.147848" y="839.708392" style="fill: #0072b2; stroke: #0072b2"/>
     <use xlink:href="#mbbf6a42072" x="266.023313" y="836.328055" style="fill: #0072b2; stroke: #0072b2"/>
     <use xlink:href="#mbbf6a42072" x="269.505481" y="837.140613" style="fill: #0072b2; stroke: #0072b2"/>
     <use xlink:href="#mbbf6a42072" x="271.085118" y="834.635491" style="fill: #0072b2; stroke: #0072b2"/>
     <use xlink:href="#mbbf6a42072" x="274.290284" y="836.691506" style="fill: #0072b2; stroke: #0072b2"/>
     <use xlink:href="#mbbf6a42072" x="271.790623" y="826.301829" style="fill: #0072b2; stroke: #0072b2"/>
     <use xlink:href="#mbbf6a42072" x="276.612567" y="835.935444" style="fill: #0072b2; stroke: #0072b2"/>
     <use xlink:href="#mbbf6a42072" x="270.725676" y="837.434448" style="fill: #0072b2; stroke: #0072b2"/>
     <use xlink:href="#mbbf6a42072" x="277.561423" y="869.613363" style="fill: #0072b2; stroke: #0072b2"/>
     <use xlink:href="#mbbf6a42072" x="264.730264" y="833.97661" style="fill: #0072b2; stroke: #0072b2"/>
     <use xlink:href="#mbbf6a42072" x="265.734049" y="860.830485" style="fill: #0072b2; stroke: #0072b2"/>
     <use xlink:href="#mbbf6a42072" x="275.969579" y="842.716121" style="fill: #0072b2; stroke: #0072b2"/>
     <use xlink:href="#mbbf6a42072" x="273.685949" y="837.644837" style="fill: #0072b2; stroke: #0072b2"/>
     <use xlink:href="#mbbf6a42072" x="274.95489" y="831.217414" style="fill: #0072b2; stroke: #0072b2"/>
     <use xlink:href="#mbbf6a42072" x="273.972177" y="845.092693" style="fill: #0072b2; stroke: #0072b2"/>
     <use xlink:href="#mbbf6a42072" x="272.951043" y="842.018081" style="fill: #0072b2; stroke: #0072b2"/>
     <use xlink:href="#mbbf6a42072" x="276.489566" y="847.404448" style="fill: #0072b2; stroke: #0072b2"/>
     <use xlink:href="#mbbf6a42072" x="265.527862" y="838.513255" style="fill: #0072b2; stroke: #0072b2"/>
     <use xlink:href="#mbbf6a42072" x="265.148011" y="821.647447" style="fill: #0072b2; stroke: #0072b2"/>
     <use xlink:href="#mbbf6a42072" x="267.952464" y="859.472795" style="fill: #0072b2; stroke: #0072b2"/>
     <use xlink:href="#mbbf6a42072" x="270.920656" y="836.812783" style="fill: #0072b2; stroke: #0072b2"/>
     <use xlink:href="#mbbf6a42072" x="269.856704" y="832.399728" style="fill: #0072b2; stroke: #0072b2"/>
     <use xlink:href="#mbbf6a42072" x="269.951199" y="841.137096" style="fill: #0072b2; stroke: #0072b2"/>
     <use xlink:href="#mbbf6a42072" x="274.170234" y="846.027754" style="fill: #0072b2; stroke: #0072b2"/>
     <use xlink:href="#mbbf6a42072" x="274.873423" y="832.660419" style="fill: #0072b2; stroke: #0072b2"/>
     <use xlink:href="#mbbf6a42072" x="277.715127" y="849.370107" style="fill: #0072b2; stroke: #0072b2"/>
     <use xlink:href="#mbbf6a42072" x="269.150022" y="868.644669" style="fill: #0072b2; stroke: #0072b2"/>
     <use xlink:href="#mbbf6a42072" x="277.463101" y="839.875922" style="fill: #0072b2; stroke: #0072b2"/>
     <use xlink:href="#mbbf6a42072" x="265.045182" y="850.744526" style="fill: #0072b2; stroke: #0072b2"/>
    </g>
   </g>
   <g id="PathCollection_7">
    <g clip-path="url(#p78ef14d392)">
     <use xlink:href="#m02b3f8a02e" x="408.947262" y="798.428066" style="fill: #009e73; stroke: #009e73"/>
     <use xlink:href="#m02b3f8a02e" x="411.95158" y="796.795892" style="fill: #009e73; stroke: #009e73"/>
     <use xlink:href="#m02b3f8a02e" x="411.943654" y="797.756887" style="fill: #009e73; stroke: #009e73"/>
     <use xlink:href="#m02b3f8a02e" x="406.563338" y="793.322615" style="fill: #009e73; stroke: #009e73"/>
     <use xlink:href="#m02b3f8a02e" x="411.530616" y="796.441887" style="fill: #009e73; stroke: #009e73"/>
     <use xlink:href="#m02b3f8a02e" x="412.088715" y="795.756986" style="fill: #009e73; stroke: #009e73"/>
     <use xlink:href="#m02b3f8a02e" x="404.070133" y="797.386433" style="fill: #009e73; stroke: #009e73"/>
     <use xlink:href="#m02b3f8a02e" x="404.241386" y="798.164761" style="fill: #009e73; stroke: #009e73"/>
     <use xlink:href="#m02b3f8a02e" x="412.03712" y="795.735621" style="fill: #009e73; stroke: #009e73"/>
     <use xlink:href="#m02b3f8a02e" x="411.937581" y="799.25401" style="fill: #009e73; stroke: #009e73"/>
     <use xlink:href="#m02b3f8a02e" x="407.8991" y="799.027028" style="fill: #009e73; stroke: #009e73"/>
     <use xlink:href="#m02b3f8a02e" x="412.21029" y="799.442223" style="fill: #009e73; stroke: #009e73"/>
     <use xlink:href="#m02b3f8a02e" x="403.894143" y="797.072021" style="fill: #009e73; stroke: #009e73"/>
     <use xlink:href="#m02b3f8a02e" x="412.628181" y="798.922623" style="fill: #009e73; stroke: #009e73"/>
     <use xlink:href="#m02b3f8a02e" x="417.722022" y="797.184522" style="fill: #009e73; stroke: #009e73"/>
     <use xlink:href="#m02b3f8a02e" x="408.059763" y="797.319251" style="fill: #009e73; stroke: #009e73"/>
     <use xlink:href="#m02b3f8a02e" x="406.943738" y="796.977199" style="fill: #009e73; stroke: #009e73"/>
     <use xlink:href="#m02b3f8a02e" x="415.346935" y="797.569126" style="fill: #009e73; stroke: #009e73"/>
     <use xlink:href="#m02b3f8a02e" x="410.493139" y="797.526065" style="fill: #009e73; stroke: #009e73"/>
     <use xlink:href="#m02b3f8a02e" x="410.906998" y="798.24456" style="fill: #009e73; stroke: #009e73"/>
     <use xlink:href="#m02b3f8a02e" x="410.396227" y="795.42707" style="fill: #009e73; stroke: #009e73"/>
     <use xlink:href="#m02b3f8a02e" x="408.215273" y="795.233934" style="fill: #009e73; stroke: #009e73"/>
     <use xlink:href="#m02b3f8a02e" x="410.668281" y="798.759155" style="fill: #009e73; stroke: #009e73"/>
     <use xlink:href="#m02b3f8a02e" x="405.482404" y="796.981142" style="fill: #009e73; stroke: #009e73"/>
     <use xlink:href="#m02b3f8a02e" x="417.087076" y="794.713356" style="fill: #009e73; stroke: #009e73"/>
     <use xlink:href="#m02b3f8a02e" x="409.269335" y="797.229507" style="fill: #009e73; stroke: #009e73"/>
     <use xlink:href="#m02b3f8a02e" x="414.810531" y="796.303912" style="fill: #009e73; stroke: #009e73"/>
     <use xlink:href="#m02b3f8a02e" x="417.326115" y="795.359409" style="fill: #009e73; stroke: #009e73"/>
     <use xlink:href="#m02b3f8a02e" x="408.40571" y="800.5525" style="fill: #009e73; stroke: #009e73"/>
     <use xlink:href="#m02b3f8a02e" x="412.795797" y="798.188775" style="fill: #009e73; stroke: #009e73"/>
     <use xlink:href="#m02b3f8a02e" x="416.203979" y="799.364297" style="fill: #009e73; stroke: #009e73"/>
     <use xlink:href="#m02b3f8a02e" x="410.865277" y="799.596618" style="fill: #009e73; stroke: #009e73"/>
     <use xlink:href="#m02b3f8a02e" x="410.551615" y="798.633413" style="fill: #009e73; stroke: #009e73"/>
     <use xlink:href="#m02b3f8a02e" x="411.415999" y="796.328333" style="fill: #009e73; stroke: #009e73"/>
     <use xlink:href="#m02b3f8a02e" x="404.132682" y="796.97665" style="fill: #009e73; stroke: #009e73"/>
     <use xlink:href="#m02b3f8a02e" x="408.655935" y="796.427581" style="fill: #009e73; stroke: #009e73"/>
     <use xlink:href="#m02b3f8a02e" x="404.452347" y="796.882639" style="fill: #009e73; stroke: #009e73"/>
     <use xlink:href="#m02b3f8a02e" x="405.89604" y="796.15667" style="fill: #009e73; stroke: #009e73"/>
     <use xlink:href="#m02b3f8a02e" x="408.521474" y="796.578812" style="fill: #009e73; stroke: #009e73"/>
    </g>
   </g>
   <g id="PathCollection_8">
    <g clip-path="url(#p78ef14d392)">
     <use xlink:href="#m95b80b6dd3" x="557.247271" y="685.79647" style="fill: #cc79a7; stroke: #cc79a7"/>
     <use xlink:href="#m95b80b6dd3" x="557.241125" y="686.854829" style="fill: #cc79a7; stroke: #cc79a7"/>
     <use xlink:href="#m95b80b6dd3" x="547.860749" y="681.612863" style="fill: #cc79a7; stroke: #cc79a7"/>
     <use xlink:href="#m95b80b6dd3" x="543.828251" y="671.506863" style="fill: #cc79a7; stroke: #cc79a7"/>
     <use xlink:href="#m95b80b6dd3" x="546.495476" y="687.104288" style="fill: #cc79a7; stroke: #cc79a7"/>
     <use xlink:href="#m95b80b6dd3" x="552.97338" y="688.391606" style="fill: #cc79a7; stroke: #cc79a7"/>
     <use xlink:href="#m95b80b6dd3" x="557.296227" y="676.392987" style="fill: #cc79a7; stroke: #cc79a7"/>
     <use xlink:href="#m95b80b6dd3" x="549.820127" y="692.020716" style="fill: #cc79a7; stroke: #cc79a7"/>
     <use xlink:href="#m95b80b6dd3" x="554.149443" y="664.370764" style="fill: #cc79a7; stroke: #cc79a7"/>
     <use xlink:href="#m95b80b6dd3" x="557.196013" y="682.854132" style="fill: #cc79a7; stroke: #cc79a7"/>
     <use xlink:href="#m95b80b6dd3" x="552.111554" y="651.959839" style="fill: #cc79a7; stroke: #cc79a7"/>
     <use xlink:href="#m95b80b6dd3" x="546.420252" y="670.857171" style="fill: #cc79a7; stroke: #cc79a7"/>
     <use xlink:href="#m95b80b6dd3" x="553.201913" y="680.724813" style="fill: #cc79a7; stroke: #cc79a7"/>
     <use xlink:href="#m95b80b6dd3" x="546.401793" y="676.197661" style="fill: #cc79a7; stroke: #cc79a7"/>
     <use xlink:href="#m95b80b6dd3" x="544.134675" y="682.681164" style="fill: #cc79a7; stroke: #cc79a7"/>
     <use xlink:href="#m95b80b6dd3" x="555.085211" y="662.552522" style="fill: #cc79a7; stroke: #cc79a7"/>
     <use xlink:href="#m95b80b6dd3" x="549.150716" y="674.008401" style="fill: #cc79a7; stroke: #cc79a7"/>
     <use xlink:href="#m95b80b6dd3" x="544.361236" y="678.847015" style="fill: #cc79a7; stroke: #cc79a7"/>
     <use xlink:href="#m95b80b6dd3" x="555.975622" y="694.436631" style="fill: #cc79a7; stroke: #cc79a7"/>
     <use xlink:href="#m95b80b6dd3" x="545.276325" y="674.475292" style="fill: #cc79a7; stroke: #cc79a7"/>
     <use xlink:href="#m95b80b6dd3" x="556.768373" y="706.783289" style="fill: #cc79a7; stroke: #cc79a7"/>
     <use xlink:href="#m95b80b6dd3" x="549.866354" y="689.24812" style="fill: #cc79a7; stroke: #cc79a7"/>
     <use xlink:href="#m95b80b6dd3" x="548.485416" y="685.920376" style="fill: #cc79a7; stroke: #cc79a7"/>
     <use xlink:href="#m95b80b6dd3" x="551.189986" y="666.281036" style="fill: #cc79a7; stroke: #cc79a7"/>
     <use xlink:href="#m95b80b6dd3" x="545.739912" y="678.163954" style="fill: #cc79a7; stroke: #cc79a7"/>
     <use xlink:href="#m95b80b6dd3" x="550.74005" y="687.599295" style="fill: #cc79a7; stroke: #cc79a7"/>
     <use xlink:href="#m95b80b6dd3" x="550.049397" y="687.837448" style="fill: #cc79a7; stroke: #cc79a7"/>
     <use xlink:href="#m95b80b6dd3" x="557.215305" y="683.4008" style="fill: #cc79a7; stroke: #cc79a7"/>
     <use xlink:href="#m95b80b6dd3" x="557.0312" y="641.726606" style="fill: #cc79a7; stroke: #cc79a7"/>
     <use xlink:href="#m95b80b6dd3" x="556.183936" y="682.780618" style="fill: #cc79a7; stroke: #cc79a7"/>
     <use xlink:href="#m95b80b6dd3" x="545.670056" y="693.737727" style="fill: #cc79a7; stroke: #cc79a7"/>
     <use xlink:href="#m95b80b6dd3" x="544.779874" y="670.89208" style="fill: #cc79a7; stroke: #cc79a7"/>
     <use xlink:href="#m95b80b6dd3" x="554.744629" y="674.917485" style="fill: #cc79a7; stroke: #cc79a7"/>
     <use xlink:href="#m95b80b6dd3" x="544.123874" y="689.161747" style="fill: #cc79a7; stroke: #cc79a7"/>
     <use xlink:href="#m95b80b6dd3" x="549.063489" y="687.544788" style="fill: #cc79a7; stroke: #cc79a7"/>
     <use xlink:href="#m95b80b6dd3" x="552.668834" y="686.88117" style="fill: #cc79a7; stroke: #cc79a7"/>
     <use xlink:href="#m95b80b6dd3" x="554.075599" y="694.748332" style="fill: #cc79a7; stroke: #cc79a7"/>
     <use xlink:href="#m95b80b6dd3" x="544.897591" y="678.102753" style="fill: #cc79a7; stroke: #cc79a7"/>
     <use xlink:href="#m95b80b6dd3" x="556.737668" y="684.339369" style="fill: #cc79a7; stroke: #cc79a7"/>
    </g>
   </g>
   <g id="patch_12">
    <path d="M 149.2875 755.846336 
L 170.2125 755.846336 
L 170.2125 752.399126 
L 149.2875 752.399126 
L 149.2875 755.846336 
z
" clip-path="url(#p78ef14d392)" style="fill: #d55e00; opacity: 0.5; stroke: #000000; stroke-linejoin: miter"/>
   </g>
   <g id="line2d_46">
    <path d="M 159.75 755.846336 
L 159.75 759.137994 
" clip-path="url(#p78ef14d392)" style="fill: none; stroke: #000000; stroke-linecap: round"/>
   </g>
   <g id="line2d_47">
    <path d="M 159.75 752.399126 
L 159.75 750.67728 
" clip-path="url(#p78ef14d392)" style="fill: none; stroke: #000000; stroke-linecap: round"/>
   </g>
   <g id="line2d_48">
    <path d="M 154.51875 759.137994 
L 164.98125 759.137994 
" clip-path="url(#p78ef14d392)" style="fill: none; stroke: #000000; stroke-linecap: round"/>
   </g>
   <g id="line2d_49">
    <path d="M 154.51875 750.67728 
L 164.98125 750.67728 
" clip-path="url(#p78ef14d392)" style="fill: none; stroke: #000000; stroke-linecap: round"/>
   </g>
   <g id="patch_13">
    <path d="M 288.7875 846.19649 
L 309.7125 846.19649 
L 309.7125 835.976234 
L 288.7875 835.976234 
L 288.7875 846.19649 
z
" clip-path="url(#p78ef14d392)" style="fill: #0072b2; opacity: 0.5; stroke: #000000; stroke-linejoin: miter"/>
   </g>
   <g id="line2d_50">
    <path d="M 299.25 846.19649 
L 299.25 860.830485 
" clip-path="url(#p78ef14d392)" style="fill: none; stroke: #000000; stroke-linecap: round"/>
   </g>
   <g id="line2d_51">
    <path d="M 299.25 835.976234 
L 299.25 821.647447 
" clip-path="url(#p78ef14d392)" style="fill: none; stroke: #000000; stroke-linecap: round"/>
   </g>
   <g id="line2d_52">
    <path d="M 294.01875 860.830485 
L 304.48125 860.830485 
" clip-path="url(#p78ef14d392)" style="fill: none; stroke: #000000; stroke-linecap: round"/>
   </g>
   <g id="line2d_53">
    <path d="M 294.01875 821.647447 
L 304.48125 821.647447 
" clip-path="url(#p78ef14d392)" style="fill: none; stroke: #000000; stroke-linecap: round"/>
   </g>
   <g id="patch_14">
    <path d="M 428.2875 798.336313 
L 449.2125 798.336313 
L 449.2125 796.377957 
L 428.2875 796.377957 
L 428.2875 798.336313 
z
" clip-path="url(#p78ef14d392)" style="fill: #009e73; opacity: 0.5; stroke: #000000; stroke-linejoin: miter"/>
   </g>
   <g id="line2d_54">
    <path d="M 438.75 798.336313 
L 438.75 800.5525 
" clip-path="url(#p78ef14d392)" style="fill: none; stroke: #000000; stroke-linecap: round"/>
   </g>
   <g id="line2d_55">
    <path d="M 438.75 796.377957 
L 438.75 794.713356 
" clip-path="url(#p78ef14d392)" style="fill: none; stroke: #000000; stroke-linecap: round"/>
   </g>
   <g id="line2d_56">
    <path d="M 433.51875 800.5525 
L 443.98125 800.5525 
" clip-path="url(#p78ef14d392)" style="fill: none; stroke: #000000; stroke-linecap: round"/>
   </g>
   <g id="line2d_57">
    <path d="M 433.51875 794.713356 
L 443.98125 794.713356 
" clip-path="url(#p78ef14d392)" style="fill: none; stroke: #000000; stroke-linecap: round"/>
   </g>
   <g id="patch_15">
    <path d="M 567.7875 687.572041 
L 588.7125 687.572041 
L 588.7125 674.696388 
L 567.7875 674.696388 
L 567.7875 687.572041 
z
" clip-path="url(#p78ef14d392)" style="fill: #cc79a7; opacity: 0.5; stroke: #000000; stroke-linejoin: miter"/>
   </g>
   <g id="line2d_58">
    <path d="M 578.25 687.572041 
L 578.25 706.783289 
" clip-path="url(#p78ef14d392)" style="fill: none; stroke: #000000; stroke-linecap: round"/>
   </g>
   <g id="line2d_59">
    <path d="M 578.25 674.696388 
L 578.25 662.552522 
" clip-path="url(#p78ef14d392)" style="fill: none; stroke: #000000; stroke-linecap: round"/>
   </g>
   <g id="line2d_60">
    <path d="M 573.01875 706.783289 
L 583.48125 706.783289 
" clip-path="url(#p78ef14d392)" style="fill: none; stroke: #000000; stroke-linecap: round"/>
   </g>
   <g id="line2d_61">
    <path d="M 573.01875 662.552522 
L 583.48125 662.552522 
" clip-path="url(#p78ef14d392)" style="fill: none; stroke: #000000; stroke-linecap: round"/>
   </g>
   <g id="line2d_62">
    <path d="M 159.75 629.914106 
L 299.25 629.914106 
" clip-path="url(#p78ef14d392)" style="fill: none; stroke: #000000; stroke-width: 1.5; stroke-linecap: round"/>
   </g>
   <g id="line2d_63">
    <path d="M 159.75 618.101606 
L 438.75 618.101606 
" clip-path="url(#p78ef14d392)" style="fill: none; stroke: #000000; stroke-width: 1.5; stroke-linecap: round"/>
   </g>
   <g id="line2d_64">
    <path d="M 299.25 606.289106 
L 578.25 606.289106 
" clip-path="url(#p78ef14d392)" style="fill: none; stroke: #000000; stroke-width: 1.5; stroke-linecap: round"/>
   </g>
   <g id="line2d_65">
    <path d="M 438.75 594.476606 
L 578.25 594.476606 
" clip-path="url(#p78ef14d392)" style="fill: none; stroke: #000000; stroke-width: 1.5; stroke-linecap: round"/>
   </g>
   <g id="line2d_66">
    <path d="M 149.2875 754.309743 
L 170.2125 754.309743 
" clip-path="url(#p78ef14d392)" style="fill: none; stroke: #000000"/>
   </g>
   <g id="line2d_67">
    <path d="M 288.7875 839.753127 
L 309.7125 839.753127 
" clip-path="url(#p78ef14d392)" style="fill: none; stroke: #000000"/>
   </g>
   <g id="line2d_68">
    <path d="M 428.2875 797.184522 
L 449.2125 797.184522 
" clip-path="url(#p78ef14d392)" style="fill: none; stroke: #000000"/>
   </g>
   <g id="line2d_69">
    <path d="M 567.7875 682.780618 
L 588.7125 682.780618 
" clip-path="url(#p78ef14d392)" style="fill: none; stroke: #000000"/>
   </g>
   <g id="patch_16">
    <path d="M 90 961.2 
L 90 583.2 
" style="fill: none; stroke: #262626; stroke-width: 1.25; stroke-linejoin: miter; stroke-linecap: square"/>
   </g>
   <g id="patch_17">
    <path d="M 648 961.2 
L 648 583.2 
" style="fill: none; stroke: #262626; stroke-width: 1.25; stroke-linejoin: miter; stroke-linecap: square"/>
   </g>
   <g id="patch_18">
    <path d="M 90 961.2 
L 648 961.2 
" style="fill: none; stroke: #262626; stroke-width: 1.25; stroke-linejoin: miter; stroke-linecap: square"/>
   </g>
   <g id="patch_19">
    <path d="M 90 583.2 
L 648 583.2 
" style="fill: none; stroke: #262626; stroke-width: 1.25; stroke-linejoin: miter; stroke-linecap: square"/>
   </g>
   <g id="text_29">
    <!-- * -->
    <g transform="translate(229.5 629.914106) scale(0.12 -0.12)">
     <use xlink:href="#ArialMT-2a"/>
    </g>
   </g>
   <g id="text_30">
    <!-- * -->
    <g transform="translate(299.25 618.101606) scale(0.12 -0.12)">
     <use xlink:href="#ArialMT-2a"/>
    </g>
   </g>
   <g id="text_31">
    <!-- * -->
    <g transform="translate(438.75 606.289106) scale(0.12 -0.12)">
     <use xlink:href="#ArialMT-2a"/>
    </g>
   </g>
   <g id="text_32">
    <!-- * -->
    <g transform="translate(508.5 594.476606) scale(0.12 -0.12)">
     <use xlink:href="#ArialMT-2a"/>
    </g>
   </g>
   <g id="text_33">
    <!-- HF-HRV -->
    <g style="fill: #262626" transform="translate(342.681094 563.2) scale(0.14 -0.14)">
     <defs>
      <path id="Arial-BoldMT-48" d="M 469 0 
L 469 4581 
L 1394 4581 
L 1394 2778 
L 3206 2778 
L 3206 4581 
L 4131 4581 
L 4131 0 
L 3206 0 
L 3206 2003 
L 1394 2003 
L 1394 0 
L 469 0 
z
" transform="scale(0.015625)"/>
      <path id="Arial-BoldMT-46" d="M 472 0 
L 472 4581 
L 3613 4581 
L 3613 3806 
L 1397 3806 
L 1397 2722 
L 3309 2722 
L 3309 1947 
L 1397 1947 
L 1397 0 
L 472 0 
z
" transform="scale(0.015625)"/>
      <path id="Arial-BoldMT-2d" d="M 359 1222 
L 359 2100 
L 2084 2100 
L 2084 1222 
L 359 1222 
z
" transform="scale(0.015625)"/>
      <path id="Arial-BoldMT-52" d="M 469 0 
L 469 4581 
L 2416 4581 
Q 3150 4581 3483 4457 
Q 3816 4334 4016 4018 
Q 4216 3703 4216 3297 
Q 4216 2781 3912 2445 
Q 3609 2109 3006 2022 
Q 3306 1847 3501 1637 
Q 3697 1428 4028 894 
L 4588 0 
L 3481 0 
L 2813 997 
Q 2456 1531 2325 1670 
Q 2194 1809 2047 1861 
Q 1900 1913 1581 1913 
L 1394 1913 
L 1394 0 
L 469 0 
z
M 1394 2644 
L 2078 2644 
Q 2744 2644 2909 2700 
Q 3075 2756 3169 2893 
Q 3263 3031 3263 3238 
Q 3263 3469 3139 3611 
Q 3016 3753 2791 3791 
Q 2678 3806 2116 3806 
L 1394 3806 
L 1394 2644 
z
" transform="scale(0.015625)"/>
      <path id="Arial-BoldMT-56" d="M 1634 0 
L -3 4581 
L 1000 4581 
L 2159 1191 
L 3281 4581 
L 4263 4581 
L 2622 0 
L 1634 0 
z
" transform="scale(0.015625)"/>
     </defs>
     <use xlink:href="#Arial-BoldMT-48"/>
     <use xlink:href="#Arial-BoldMT-46" x="72.216797"/>
     <use xlink:href="#Arial-BoldMT-2d" x="133.300781"/>
     <use xlink:href="#Arial-BoldMT-48" x="166.601562"/>
     <use xlink:href="#Arial-BoldMT-52" x="238.818359"/>
     <use xlink:href="#Arial-BoldMT-56" x="309.285156"/>
    </g>
   </g>
  </g>
 </g>
 <defs>
  <clipPath id="p37ee42bb84">
   <rect x="90" y="129.6" width="558" height="378"/>
  </clipPath>
  <clipPath id="p78ef14d392">
   <rect x="90" y="583.2" width="558" height="378"/>
  </clipPath>
 </defs>
</svg>
